<?xml version="1.0" encoding="UTF-8" standalone="no"?>
<!-- Created with Inkscape (http://www.inkscape.org/) -->

<svg
   width="60.959999mm"
   height="128.5mm"
   viewBox="0 0 60.96 128.5"
   version="1.1"
   id="svg1199"
   inkscape:version="1.4 (e7c3feb1, 2024-10-09)"
   sodipodi:docname="AudioIO.svg"
   xmlns:inkscape="http://www.inkscape.org/namespaces/inkscape"
   xmlns:sodipodi="http://sodipodi.sourceforge.net/DTD/sodipodi-0.dtd"
   xmlns="http://www.w3.org/2000/svg"
   xmlns:svg="http://www.w3.org/2000/svg">
  <sodipodi:namedview
     id="namedview1201"
     pagecolor="#ffffff"
     bordercolor="#666666"
     borderopacity="1.0"
     inkscape:pageshadow="2"
     inkscape:pageopacity="0.0"
     inkscape:pagecheckerboard="0"
     inkscape:document-units="mm"
     showgrid="false"
     inkscape:zoom="1.1444637"
     inkscape:cx="76.455026"
     inkscape:cy="231.11262"
     inkscape:window-width="1344"
     inkscape:window-height="878"
     inkscape:window-x="64"
     inkscape:window-y="46"
     inkscape:window-maximized="0"
     inkscape:current-layer="layer2"
     inkscape:snap-nodes="false"
     inkscape:showpageshadow="2"
     inkscape:deskcolor="#d1d1d1"
     showguides="true" />
  <defs
     id="defs1196">
    <inkscape:path-effect
       effect="fillet_chamfer"
       id="path-effect13"
       is_visible="true"
       lpeversion="1"
       satellites_param="F,0,0,1,0,2.6458333,0,1 @ F,0,0,1,0,2.6458333,0,1 @ F,0,0,1,0,2.6458333,0,1 @ F,0,0,1,0,2.6458333,0,1"
       unit="px"
       method="auto"
       mode="F"
       radius="10"
       chamfer_steps="1"
       flexible="false"
       use_knot_distance="true"
       apply_no_radius="true"
       apply_with_radius="true"
       only_selected="false"
       hide_knots="false"
       nodesatellites_param="F,0,0,1,0,2.6458333,0,1 @ F,0,0,1,0,2.6458333,0,1 @ F,0,0,1,0,2.6458333,0,1 @ F,0,0,1,0,2.6458333,0,1" />
    <inkscape:path-effect
       effect="fillet_chamfer"
       id="path-effect9"
       is_visible="true"
       lpeversion="1"
       satellites_param="F,0,0,1,0,2.6458333,0,1 @ F,0,0,1,0,2.6458333,0,1 @ F,0,0,1,0,2.6458333,0,1 @ F,0,0,1,0,2.6458333,0,1"
       unit="px"
       method="auto"
       mode="F"
       radius="10"
       chamfer_steps="1"
       flexible="false"
       use_knot_distance="true"
       apply_no_radius="true"
       apply_with_radius="true"
       only_selected="false"
       hide_knots="false"
       nodesatellites_param="F,0,0,1,0,2.6458333,0,1 @ F,0,0,1,0,2.6458333,0,1 @ F,0,0,1,0,2.6458333,0,1 @ F,0,0,1,0,2.6458333,0,1" />
    <inkscape:path-effect
       effect="fillet_chamfer"
       id="path-effect7"
       is_visible="true"
       lpeversion="1"
       satellites_param="F,0,0,1,0,2.6458333,0,1 @ F,0,0,1,0,2.6458333,0,1 @ F,0,0,1,0,2.6458333,0,1 @ F,0,0,1,0,2.6458333,0,1"
       unit="px"
       method="auto"
       mode="F"
       radius="10"
       chamfer_steps="1"
       flexible="false"
       use_knot_distance="true"
       apply_no_radius="true"
       apply_with_radius="true"
       only_selected="false"
       hide_knots="false"
       nodesatellites_param="F,0,0,1,0,2.6458333,0,1 @ F,0,0,1,0,2.6458333,0,1 @ F,0,0,1,0,2.6458333,0,1 @ F,0,0,1,0,2.6458333,0,1" />
    <marker
       style="overflow:visible"
       id="marker2980"
       refX="0"
       refY="0"
       orient="auto"
       inkscape:stockid="Arrow1Lstart"
       inkscape:isstock="true"
       viewBox="0 0 17.773854 10.156488"
       markerWidth="17.773853"
       markerHeight="10.156487"
       preserveAspectRatio="xMidYMid">
      <path
         transform="matrix(0.8,0,0,0.8,10,0)"
         style="fill:context-stroke;fill-rule:evenodd;stroke:context-stroke;stroke-width:1pt"
         d="M 0,0 5,-5 -12.5,0 5,5 Z"
         id="path2719" />
    </marker>
    <marker
       style="overflow:visible"
       id="Arrow1Lend"
       refX="0"
       refY="0"
       orient="auto"
       inkscape:stockid="Arrow1Lend"
       inkscape:isstock="true"
       viewBox="0 0 17.773854 10.156488"
       markerWidth="17.77385306"
       markerHeight="10.15648746"
       preserveAspectRatio="xMidYMid">
      <path
         transform="matrix(-0.8,0,0,-0.8,-10,0)"
         style="fill:context-stroke;fill-rule:evenodd;stroke:context-stroke;stroke-width:1pt"
         d="M 0,0 5,-5 -12.5,0 5,5 Z"
         id="path6358" />
    </marker>
    <marker
       style="overflow:visible"
       id="marker6625"
       refX="0"
       refY="0"
       orient="auto"
       inkscape:stockid="Arrow1Lstart"
       inkscape:isstock="true"
       viewBox="0 0 17.773854 10.156488"
       markerWidth="17.773853"
       markerHeight="10.156487"
       preserveAspectRatio="xMidYMid">
      <path
         transform="matrix(0.8,0,0,0.8,10,0)"
         style="fill:context-stroke;fill-rule:evenodd;stroke:context-stroke;stroke-width:1pt"
         d="M 0,0 5,-5 -12.5,0 5,5 Z"
         id="path6623" />
    </marker>
    <marker
       style="overflow:visible"
       id="Arrow1Lstart"
       refX="0"
       refY="0"
       orient="auto"
       inkscape:stockid="Arrow1Lstart"
       inkscape:isstock="true"
       viewBox="0 0 17.773854 10.156488"
       markerWidth="17.773853"
       markerHeight="10.156488"
       preserveAspectRatio="xMidYMid">
      <path
         transform="matrix(0.8,0,0,0.8,10,0)"
         style="fill:context-stroke;fill-rule:evenodd;stroke:context-stroke;stroke-width:1pt"
         d="M 0,0 5,-5 -12.5,0 5,5 Z"
         id="path6355" />
    </marker>
    <marker
       style="overflow:visible"
       id="Arrow1Lend-5"
       refX="0"
       refY="0"
       orient="auto"
       inkscape:stockid="Arrow1Lend"
       inkscape:isstock="true"
       viewBox="0 0 17.773854 10.156488"
       markerWidth="17.773853"
       markerHeight="10.156487"
       preserveAspectRatio="xMidYMid">
      <path
         transform="matrix(-0.8,0,0,-0.8,-10,0)"
         style="fill:context-stroke;fill-rule:evenodd;stroke:context-stroke;stroke-width:1pt"
         d="M 0,0 5,-5 -12.5,0 5,5 Z"
         id="path6358-6" />
    </marker>
    <marker
       style="overflow:visible"
       id="Arrow1Lend-1"
       refX="0"
       refY="0"
       orient="auto"
       inkscape:stockid="Arrow1Lend"
       inkscape:isstock="true"
       viewBox="0 0 17.773854 10.156488"
       markerWidth="17.773853"
       markerHeight="10.156487"
       preserveAspectRatio="xMidYMid">
      <path
         transform="matrix(-0.8,0,0,-0.8,-10,0)"
         style="fill:context-stroke;fill-rule:evenodd;stroke:context-stroke;stroke-width:1pt"
         d="M 0,0 5,-5 -12.5,0 5,5 Z"
         id="path6358-4" />
    </marker>
    <inkscape:path-effect
       effect="fillet_chamfer"
       id="path-effect143"
       is_visible="true"
       lpeversion="1"
       satellites_param="F,0,0,1,0,2.6458333,0,2 @ F,0,0,1,0,2.6458333,0,2 @ F,0,0,1,0,2.6458333,0,2 @ F,0,0,1,0,2.6458333,0,2"
       unit="px"
       method="auto"
       mode="F"
       radius="10"
       chamfer_steps="1"
       flexible="false"
       use_knot_distance="true"
       apply_no_radius="true"
       apply_with_radius="true"
       only_selected="false"
       hide_knots="false"
       nodesatellites_param="F,0,0,1,0,2.6458333,0,2 @ F,0,0,1,0,2.6458333,0,2 @ F,0,0,1,0,2.6458333,0,2 @ F,0,0,1,0,2.6458333,0,2" />
    <inkscape:path-effect
       effect="fillet_chamfer"
       id="path-effect145"
       is_visible="true"
       lpeversion="1"
       satellites_param="F,0,0,1,0,2.6458333,0,1 @ F,0,0,1,0,2.6458333,0,1 @ F,0,0,1,0,2.6458333,0,1 @ F,0,0,1,0,2.6458333,0,1"
       unit="px"
       method="auto"
       mode="F"
       radius="10"
       chamfer_steps="1"
       flexible="false"
       use_knot_distance="true"
       apply_no_radius="true"
       apply_with_radius="true"
       only_selected="false"
       hide_knots="false"
       nodesatellites_param="F,0,0,1,0,2.6458333,0,1 @ F,0,0,1,0,2.6458333,0,1 @ F,0,0,1,0,2.6458333,0,1 @ F,0,0,1,0,2.6458333,0,1" />
    <inkscape:path-effect
       effect="fillet_chamfer"
       id="path-effect147"
       is_visible="true"
       lpeversion="1"
       satellites_param="F,0,0,1,0,2.6458333,0,1 @ F,0,0,1,0,2.6458333,0,1 @ F,0,0,1,0,2.6458333,0,1 @ F,0,0,1,0,2.6458333,0,1"
       unit="px"
       method="auto"
       mode="F"
       radius="10"
       chamfer_steps="1"
       flexible="false"
       use_knot_distance="true"
       apply_no_radius="true"
       apply_with_radius="true"
       only_selected="false"
       hide_knots="false"
       nodesatellites_param="F,0,0,1,0,2.6458333,0,1 @ F,0,0,1,0,2.6458333,0,1 @ F,0,0,1,0,2.6458333,0,1 @ F,0,0,1,0,2.6458333,0,1" />
    <marker
       style="overflow:visible"
       id="Arrow1Lend-2-3"
       refX="0"
       refY="0"
       orient="auto"
       inkscape:stockid="Arrow1Lend"
       inkscape:isstock="true"
       viewBox="0 0 17.773854 10.156488"
       markerWidth="17.773853"
       markerHeight="10.156488"
       preserveAspectRatio="xMidYMid">
      <path
         inkscape:connector-curvature="0"
         transform="matrix(-0.8,0,0,-0.8,-10,0)"
         style="fill:context-stroke;fill-rule:evenodd;stroke:#000000;stroke-width:1pt;stroke-opacity:1"
         d="M 0,0 5,-5 -12.5,0 5,5 Z"
         id="path15157-3-1" />
    </marker>
  </defs>
  <g
     inkscape:groupmode="layer"
     id="layer3"
     inkscape:label="background"
     style="display:inline">
    <g
       id="rect297"
       style="display:inline;fill:#eeeeee;fill-opacity:1;stroke:none;stroke-opacity:1"
       transform="matrix(0.82430254,0,0,1.021367,-1.7887118,-1.8561852)">
      <path
         style="color:#000000;fill:#eeeeee;fill-opacity:1;stroke:none;stroke-width:0.222;stroke-opacity:1;-inkscape-stroke:none;paint-order:markers fill stroke"
         d="M -0.27284041,-0.03116083 H 76.953066 V 129.29092 H -0.27284041 Z"
         id="path32372" />
      <path
         style="color:#000000;fill:#eeeeee;fill-opacity:1;stroke:none;stroke-opacity:1;-inkscape-stroke:none;paint-order:markers fill stroke"
         d="M -0.38476563,-0.14257812 V -0.03125 129.40234 H 77.064453 V -0.14257812 Z m 0.22265626,0.22265624 H 76.841797 V 129.17969 H -0.16210937 Z"
         id="path32374" />
    </g>
    <path
       style="display:inline;fill:#cc9696;fill-opacity:1;stroke:#980000;stroke-width:0.158;stroke-dasharray:none"
       id="rect1316"
       width="46.454716"
       height="97.288208"
       x="5.0508742"
       y="25.308582"
       inkscape:path-effect="#path-effect143"
       sodipodi:type="rect"
       d="M 7.6967075,25.308582 H 48.859757 a 2.6458333,2.6458333 45 0 1 2.645833,2.645834 v 91.996544 a 2.6458333,2.6458333 135 0 1 -2.645833,2.64583 l -41.1630495,0 A 2.6458333,2.6458333 45 0 1 5.0508742,119.95096 V 27.954416 a 2.6458333,2.6458333 135 0 1 2.6458333,-2.645834 z"
       transform="matrix(1.1315299,0,0,0.90282773,-0.66323055,-14.093762)" />
    <path
       style="display:inline;fill:#c7b89b;fill-opacity:1;stroke:#980000;stroke-width:0.158;stroke-dasharray:none"
       id="path7"
       width="32"
       height="12"
       x="53.806889"
       y="8.7911005"
       inkscape:path-effect="#path-effect9"
       sodipodi:type="rect"
       d="m 56.452722,8.7911005 h 26.708333 a 2.6458333,2.6458333 45 0 1 2.645834,2.6458335 v 6.708333 a 2.6458333,2.6458333 135 0 1 -2.645834,2.645834 l -26.708333,0 a 2.6458333,2.6458333 45 0 1 -2.645833,-2.645834 v -6.708333 a 2.6458333,2.6458333 135 0 1 2.645833,-2.6458335 z"
       transform="matrix(0.87187483,0,0,1.0004166,-41.8814,89.307675)" />
    <path
       style="display:inline;opacity:0.99;fill:none;stroke:#000000;stroke-width:0.248896px;stroke-linecap:butt;stroke-linejoin:miter;stroke-dasharray:0.248896, 0.248896;stroke-dashoffset:0;stroke-opacity:1"
       d="M 6.4516206,104.37841 H 32.395091"
       id="path1"
       sodipodi:nodetypes="cc" />
    <path
       style="display:inline;fill:#c7b89b;fill-opacity:1;stroke:#980000;stroke-width:0.158;stroke-dasharray:none"
       id="path9"
       width="32"
       height="12"
       x="53.806889"
       y="8.7911005"
       inkscape:path-effect="#path-effect13"
       sodipodi:type="rect"
       d="m 56.452722,8.7911005 h 26.708333 a 2.6458333,2.6458333 45 0 1 2.645834,2.6458335 v 6.708333 a 2.6458333,2.6458333 135 0 1 -2.645834,2.645834 l -26.708333,0 a 2.6458333,2.6458333 45 0 1 -2.645833,-2.645834 v -6.708333 a 2.6458333,2.6458333 135 0 1 2.645833,-2.6458335 z"
       transform="matrix(0.87187483,0,0,1.0004166,-41.8814,102.3614)" />
    <path
       style="display:inline;opacity:0.99;fill:none;stroke:#000000;stroke-width:0.28207px;stroke-linecap:butt;stroke-linejoin:miter;stroke-dasharray:0.28207, 0.28207;stroke-dashoffset:0;stroke-opacity:1"
       d="M 6.4516208,117.42669 H 32.395091"
       id="path10"
       sodipodi:nodetypes="cc" />
  </g>
  <g
     inkscape:groupmode="layer"
     id="layer2"
     inkscape:label="layout"
     style="display:inline">
    <g
       id="path1674">
      <path
         style="fill:#b1b1b1"
         d="m 6.5637428,11.347974 a 0.05502102,0.05502102 0 0 1 -0.055021,0.05502 0.05502102,0.05502102 0 0 1 -0.055021,-0.05502 0.05502102,0.05502102 0 0 1 0.055021,-0.05502 0.05502102,0.05502102 0 0 1 0.055021,0.05502 z"
         id="path11" />
      <path
         style="fill:#980000"
         d="m 6.5078125,11.160156 c -0.1018816,0 -0.185545,0.08562 -0.1855469,0.1875 1.9e-6,0.101882 0.083665,0.1875 0.1855469,0.1875 0.1018816,0 0.1874981,-0.08562 0.1875,-0.1875 -1.9e-6,-0.101881 -0.085618,-0.1875 -0.1875,-0.1875 z m 0,0.111328 c 0.041108,0 0.078124,0.03506 0.078125,0.07617 -8e-7,0.04111 -0.037017,0.07813 -0.078125,0.07813 -0.041108,0 -0.076171,-0.03702 -0.076172,-0.07813 8e-7,-0.04111 0.035064,-0.07617 0.076172,-0.07617 z"
         id="path12" />
    </g>
    <path
       d="m 8.083915,12.371166 q 0,0.303168 -0.2576929,0.493337 -0.2563149,0.188792 -0.6972868,0.188792 -0.2549369,0 -0.445106,-0.0441 -0.1887911,-0.04547 -0.3541556,-0.114377 v -0.491959 h 0.057878 q 0.1639864,0.130914 0.3665579,0.201193 0.2039495,0.07028 0.3913625,0.07028 0.048231,0 0.1267794,-0.0083 0.078548,-0.0083 0.1281575,-0.02756 0.060634,-0.0248 0.099219,-0.06201 0.039963,-0.03721 0.039963,-0.110243 0,-0.06752 -0.057878,-0.115755 -0.0565,-0.04961 -0.1667425,-0.07579 -0.1157551,-0.02756 -0.2452906,-0.05099 -0.1281575,-0.0248 -0.2411565,-0.06201 -0.259071,-0.08406 -0.3734481,-0.227376 -0.112999,-0.144694 -0.112999,-0.358289 0,-0.286632 0.2563149,-0.467155 0.2576929,-0.181901 0.6614578,-0.181901 0.2025715,0 0.3996308,0.03996 0.1984373,0.03858 0.3431312,0.09784 v 0.472667 h -0.056499 q -0.1240233,-0.09922 -0.3045462,-0.165365 -0.1791448,-0.06752 -0.3665579,-0.06752 -0.066146,0 -0.1322916,0.0096 -0.064768,0.0083 -0.1254013,0.03307 -0.053743,0.02067 -0.092328,0.06339 -0.038585,0.04134 -0.038585,0.09508 0,0.0813 0.062012,0.125401 0.062012,0.04272 0.2342663,0.07855 0.1129991,0.02343 0.2163519,0.04548 0.1047308,0.02205 0.22462,0.06063 0.2356444,0.07717 0.3472654,0.21084 0.112999,0.132291 0.112999,0.344509 z m 2.357822,-0.380338 q 0,0.490581 -0.28112,0.779969 -0.2811196,0.28801 -0.777213,0.28801 -0.4947154,0 -0.7758349,-0.28801 -0.2811196,-0.289388 -0.2811196,-0.779969 0,-0.494715 0.2811196,-0.781347 0.2811195,-0.28801 0.7758349,-0.28801 0.4933373,0 0.775835,0.28801 0.282498,0.286632 0.282498,0.781347 z m -0.7014214,0.51952 q 0.07717,-0.09371 0.1143771,-0.220486 0.037207,-0.128158 0.037207,-0.300412 0,-0.184657 -0.042719,-0.314193 -0.042719,-0.129535 -0.111621,-0.209461 -0.07028,-0.08268 -0.1626084,-0.119889 -0.09095,-0.03721 -0.1901691,-0.03721 -0.1005967,0 -0.1901691,0.03583 -0.088194,0.03583 -0.1626084,0.118512 -0.068902,0.07717 -0.112999,0.213595 -0.042719,0.135048 -0.042719,0.314193 0,0.183279 0.041341,0.312814 0.042719,0.128158 0.111621,0.209462 0.068902,0.0813 0.1612304,0.119889 0.092329,0.03858 0.1943032,0.03858 0.1019748,0 0.1943033,-0.03858 0.092328,-0.03996 0.1612303,-0.122645 z m 2.9021464,-0.237022 q 0,0.380338 -0.23151,0.582909 -0.231511,0.202572 -0.682129,0.202572 -0.450618,0 -0.682128,-0.202572 -0.230132,-0.202571 -0.230132,-0.581531 V 10.96419 h 0.531922 v 1.280197 q 0,0.213595 0.08957,0.318326 0.08957,0.104731 0.290766,0.104731 0.198438,0 0.289388,-0.100597 0.09233,-0.100596 0.09233,-0.32246 V 10.96419 h 0.531922 z m 1.645377,-0.680751 q 0,-0.07717 -0.03169,-0.132291 -0.0317,-0.05512 -0.108865,-0.08682 -0.05374,-0.02205 -0.125402,-0.02618 -0.07166,-0.0055 -0.166742,-0.0055 h -0.191547 v 0.552593 h 0.162608 q 0.12678,0 0.212218,-0.0124 0.08544,-0.0124 0.143316,-0.0565 0.05512,-0.04272 0.07993,-0.09371 0.02618,-0.05237 0.02618,-0.139182 z m 0.825444,1.423513 h -0.6463 L 13.9075,12.263679 h -0.243912 v 0.752409 h -0.52641 V 10.96419 h 0.887455 q 0.181901,0 0.312815,0.02067 0.130913,0.02067 0.245291,0.08957 0.115755,0.0689 0.183278,0.179145 0.0689,0.108865 0.0689,0.274229 0,0.227377 -0.106109,0.370692 -0.10473,0.143316 -0.300412,0.238401 z m 1.158928,0.03996 q -0.228754,0 -0.423057,-0.06752 -0.192925,-0.06752 -0.332107,-0.201194 -0.139182,-0.133669 -0.216352,-0.333485 -0.07579,-0.199815 -0.07579,-0.461642 0,-0.243913 0.07304,-0.44235 0.07304,-0.198437 0.212218,-0.340375 0.133669,-0.136426 0.330729,-0.21084 0.198437,-0.07441 0.432703,-0.07441 0.129536,0 0.232889,0.01516 0.104731,0.01378 0.192925,0.03721 0.09233,0.02618 0.166742,0.05926 0.07579,0.0317 0.132292,0.05926 v 0.497471 h -0.06063 q -0.03858,-0.03307 -0.09784,-0.07855 -0.05788,-0.04547 -0.132292,-0.08957 -0.07579,-0.0441 -0.163986,-0.07441 -0.08819,-0.03032 -0.188791,-0.03032 -0.111621,0 -0.212218,0.03583 -0.100597,0.03445 -0.186035,0.115755 -0.0813,0.07855 -0.132292,0.208083 -0.04961,0.129536 -0.04961,0.314193 0,0.192925 0.05374,0.322461 0.05512,0.129535 0.137804,0.203949 0.08406,0.07579 0.187413,0.108865 0.103353,0.03169 0.20395,0.03169 0.09646,0 0.190169,-0.02894 0.09508,-0.02894 0.175011,-0.07855 0.06752,-0.03996 0.125401,-0.08544 0.05788,-0.04547 0.09509,-0.07855 h 0.05512 v 0.490581 q -0.07717,0.03445 -0.14745,0.06477 -0.07028,0.03032 -0.14745,0.05236 -0.100597,0.02894 -0.188791,0.0441 -0.08819,0.01516 -0.242535,0.01516 z m 2.598979,-0.03996 H 17.387044 V 10.96419 h 1.484146 v 0.396875 h -0.957736 v 0.354155 h 0.888834 v 0.396875 h -0.888834 v 0.507118 h 0.957736 z m 2.086348,-0.644922 q 0,0.303168 -0.257693,0.493337 -0.256315,0.188792 -0.697287,0.188792 -0.254937,0 -0.445106,-0.0441 -0.188791,-0.04547 -0.354155,-0.114377 v -0.491959 h 0.05788 q 0.163987,0.130914 0.366558,0.201193 0.20395,0.07028 0.391363,0.07028 0.04823,0 0.126779,-0.0083 0.07855,-0.0083 0.128157,-0.02756 0.06063,-0.0248 0.09922,-0.06201 0.03996,-0.03721 0.03996,-0.110243 0,-0.06752 -0.05788,-0.115755 -0.0565,-0.04961 -0.166743,-0.07579 -0.115755,-0.02756 -0.24529,-0.05099 -0.128158,-0.0248 -0.241157,-0.06201 -0.259071,-0.08406 -0.373448,-0.227376 -0.112999,-0.144694 -0.112999,-0.358289 0,-0.286632 0.256315,-0.467155 0.257693,-0.181901 0.661458,-0.181901 0.202571,0 0.39963,0.03996 0.198438,0.03858 0.343132,0.09784 v 0.472667 h -0.0565 q -0.124023,-0.09922 -0.304546,-0.165365 -0.179145,-0.06752 -0.366558,-0.06752 -0.06615,0 -0.132291,0.0096 -0.06477,0.0083 -0.125402,0.03307 -0.05374,0.02067 -0.09233,0.06339 -0.03858,0.04134 -0.03858,0.09508 0,0.0813 0.06201,0.125401 0.06201,0.04272 0.234267,0.07855 0.112999,0.02343 0.216351,0.04548 0.104731,0.02205 0.224621,0.06063 0.235644,0.07717 0.347265,0.21084 0.112999,0.132291 0.112999,0.344509 z"
       id="text2294"
       style="font-weight:bold;font-size:2.82222px;line-height:1.25;-inkscape-font-specification:'sans-serif, Bold';stroke-width:0.264583"
       aria-label="SOURCES" />
    <path
       d="m 35.26524,11.966025 q 0,0.490581 -0.28112,0.779969 -0.28112,0.28801 -0.777213,0.28801 -0.494715,0 -0.775835,-0.28801 -0.281119,-0.289388 -0.281119,-0.779969 0,-0.494716 0.281119,-0.781347 0.28112,-0.28801 0.775835,-0.28801 0.493337,0 0.775835,0.28801 0.282498,0.286631 0.282498,0.781347 z m -0.701421,0.51952 q 0.07717,-0.09371 0.114377,-0.220486 0.03721,-0.128158 0.03721,-0.300412 0,-0.184657 -0.04272,-0.314193 -0.04272,-0.129535 -0.111621,-0.209461 -0.07028,-0.08268 -0.162609,-0.11989 -0.09095,-0.03721 -0.190169,-0.03721 -0.100597,0 -0.190169,0.03583 -0.08819,0.03583 -0.162608,0.118512 -0.0689,0.07717 -0.113,0.213595 -0.04272,0.135048 -0.04272,0.314193 0,0.183279 0.04134,0.312814 0.04272,0.128158 0.111621,0.209462 0.0689,0.0813 0.161231,0.119889 0.09233,0.03858 0.194303,0.03858 0.101975,0 0.194303,-0.03858 0.09233,-0.03996 0.161231,-0.122645 z m 2.902146,-0.237023 q 0,0.380339 -0.23151,0.58291 -0.231511,0.202572 -0.682129,0.202572 -0.450618,0 -0.682128,-0.202572 -0.230132,-0.202571 -0.230132,-0.581532 v -1.310513 h 0.531922 v 1.280197 q 0,0.213595 0.08957,0.318326 0.08957,0.104731 0.290766,0.104731 0.198438,0 0.289388,-0.100597 0.09233,-0.100596 0.09233,-0.32246 v -1.280197 h 0.531922 z m 2.100129,-0.91226 h -0.640787 v 1.655022 H 38.39614 v -1.655022 h -0.640787 v -0.396875 h 1.810741 z m 1.792826,1.655022 h -1.369769 v -0.358289 h 0.432703 v -1.084516 h -0.432703 v -0.334863 q 0.09922,0 0.190169,-0.01102 0.09095,-0.0124 0.151584,-0.04134 0.07166,-0.03445 0.107487,-0.08957 0.03583,-0.05512 0.04134,-0.137804 h 0.45613 v 1.69912 h 0.423058 z"
       id="text2294-6"
       style="font-weight:bold;font-size:2.82222px;line-height:1.25;-inkscape-font-specification:'sans-serif, Bold';stroke-width:0.264583"
       aria-label="OUT1" />
    <path
       d="m 46.753002,11.966025 q 0,0.490581 -0.28112,0.779969 -0.281119,0.28801 -0.777213,0.28801 -0.494715,0 -0.775834,-0.28801 -0.28112,-0.289388 -0.28112,-0.779969 0,-0.494716 0.28112,-0.781347 0.281119,-0.28801 0.775834,-0.28801 0.493338,0 0.775835,0.28801 0.282498,0.286631 0.282498,0.781347 z m -0.701421,0.51952 q 0.07717,-0.09371 0.114377,-0.220486 0.03721,-0.128158 0.03721,-0.300412 0,-0.184657 -0.04272,-0.314193 -0.04272,-0.129535 -0.111621,-0.209461 -0.07028,-0.08268 -0.162608,-0.11989 -0.09095,-0.03721 -0.19017,-0.03721 -0.100596,0 -0.190169,0.03583 -0.08819,0.03583 -0.162608,0.118512 -0.0689,0.07717 -0.112999,0.213595 -0.04272,0.135048 -0.04272,0.314193 0,0.183279 0.04134,0.312814 0.04272,0.128158 0.111621,0.209462 0.0689,0.0813 0.16123,0.119889 0.09233,0.03858 0.194303,0.03858 0.101975,0 0.194304,-0.03858 0.09233,-0.03996 0.16123,-0.122645 z m 2.902146,-0.237023 q 0,0.380339 -0.23151,0.58291 -0.23151,0.202572 -0.682128,0.202572 -0.450618,0 -0.682129,-0.202572 -0.230132,-0.202571 -0.230132,-0.581532 v -1.310513 h 0.531923 v 1.280197 q 0,0.213595 0.08957,0.318326 0.08957,0.104731 0.290766,0.104731 0.198437,0 0.289388,-0.100597 0.09233,-0.100596 0.09233,-0.32246 v -1.280197 h 0.531922 z m 2.100129,-0.91226 h -0.640787 v 1.655022 h -0.529166 v -1.655022 h -0.640788 v -0.396875 h 1.810741 z m 1.922362,1.655022 h -1.610926 v -0.338997 q 0.184657,-0.133669 0.369314,-0.283875 0.186035,-0.150206 0.297656,-0.259071 0.166743,-0.161231 0.237023,-0.28112 0.07028,-0.119889 0.07028,-0.237022 0,-0.14056 -0.09095,-0.216352 -0.08957,-0.07717 -0.259071,-0.07717 -0.126779,0 -0.267339,0.05236 -0.139182,0.05237 -0.259071,0.13367 h -0.0441 v -0.456131 q 0.09784,-0.04272 0.288009,-0.08544 0.191548,-0.04272 0.383095,-0.04272 0.38585,0 0.588422,0.162608 0.202571,0.161231 0.202571,0.457509 0,0.194303 -0.09784,0.369314 -0.09646,0.17501 -0.296278,0.361045 -0.125401,0.115756 -0.25218,0.213596 -0.12678,0.09646 -0.180523,0.135048 h 0.921907 z"
       id="text2294-0"
       style="font-weight:bold;font-size:2.82222px;line-height:1.25;-inkscape-font-specification:'sans-serif, Bold';stroke-width:0.264583"
       aria-label="OUT2" />
    <path
       style="fill:none;stroke:#000000;stroke-width:0.265;stroke-linecap:butt;stroke-linejoin:miter;stroke-opacity:1;stroke-dasharray:none;marker-end:url(#Arrow1Lend);fill-opacity:1"
       d="m 36.845117,14.324668 v 90.053742 l -4.056437,0.0811"
       id="path7426"
       sodipodi:nodetypes="ccc" />
    <path
       style="fill:none;stroke:#000000;stroke-width:0.299409px;stroke-linecap:butt;stroke-linejoin:miter;stroke-opacity:1;marker-end:url(#Arrow1Lend-5)"
       d="M 48.440777,14.324668 V 117.42669 l -15.652097,0.0812"
       id="path7432"
       sodipodi:nodetypes="ccc" />
    <g
       id="g3"
       transform="translate(1.4447165)">
      <path
         d="M 34.164884,5.4262853 H 32.881937 L 32.559567,6.349833 H 32.137 l 1.187107,-3.2237044 h 0.398607 L 34.912,6.349833 H 34.489433 Z M 33.001737,5.0864894 h 1.045526 L 33.541925,3.6467133 h -0.03703 z M 35.8203,5.2150019 q 0,0.182967 0.05881,0.3376177 0.05881,0.1546507 0.169898,0.2657378 0.113265,0.1110871 0.276629,0.1742543 0.165541,0.063167 0.374646,0.063167 0.209106,0 0.372469,-0.063167 0.163363,-0.063167 0.27445,-0.1742543 0.113266,-0.1110871 0.172077,-0.2657378 0.05881,-0.1546507 0.05881,-0.3376177 V 3.1261286 h 0.400785 v 2.1150115 q 0,0.2592032 -0.08713,0.4770211 -0.08713,0.2156397 -0.252669,0.3746467 -0.165541,0.1568289 -0.402963,0.2461342 -0.235243,0.087127 -0.535832,0.087127 -0.300588,0 -0.53801,-0.087127 Q 35.924853,6.2496368 35.759311,6.0928079 35.59377,5.9338009 35.506643,5.7181612 35.419515,5.5003433 35.419515,5.2411401 V 3.1261286 H 35.8203 Z m 4.097154,-2.0888733 q 0.359399,0 0.640384,0.108909 0.283164,0.1089089 0.4792,0.3158359 0.196036,0.2069269 0.29841,0.5075156 0.104553,0.2984105 0.104553,0.6795917 0,0.3811813 -0.104553,0.6817699 -0.102374,0.2984105 -0.29841,0.5053375 Q 40.84318,6.1320151 40.560017,6.2409241 40.276853,6.349833 39.917454,6.349833 H 38.813117 V 3.1261286 Z m -0.703552,2.8621268 h 0.677414 q 0.270094,0 0.481377,-0.082771 0.211284,-0.084949 0.357222,-0.243956 0.145938,-0.1611853 0.222174,-0.3920722 0.07624,-0.2330651 0.07624,-0.5271192 0,-0.2962323 -0.07841,-0.5292974 Q 40.873674,3.9799747 40.727736,3.8187894 40.581798,3.6576042 40.370515,3.5726553 40.159232,3.4877063 39.891316,3.4877063 H 39.213902 Z M 42.285135,6.349833 V 3.1261286 H 42.68592 V 6.349833 Z m 2.729257,-3.2999406 q 0.344153,0 0.616425,0.1197998 0.27445,0.1176217 0.463952,0.3376177 0.19168,0.2178179 0.291876,0.5314756 0.102374,0.3114795 0.102374,0.6991953 0,0.3855376 -0.102374,0.6970172 -0.100196,0.3114795 -0.289698,0.5336538 -0.189501,0.219996 -0.463952,0.3397958 -0.272272,0.1176217 -0.618603,0.1176217 -0.34633,0 -0.620781,-0.1176217 -0.27445,-0.1197998 -0.46613,-0.3397958 -0.191679,-0.2199961 -0.294054,-0.5314756 -0.100196,-0.3136578 -0.100196,-0.6991954 0,-0.3877158 0.102374,-0.6991953 0.104553,-0.3136577 0.296233,-0.5336538 0.193858,-0.219996 0.46613,-0.3376177 0.27445,-0.1176216 0.616424,-0.1176216 z m 0,0.3702903 q -0.246134,0 -0.444348,0.093662 -0.196036,0.091483 -0.33544,0.2635596 -0.139403,0.169898 -0.213461,0.413854 -0.07406,0.243956 -0.07406,0.5467228 0,0.3005887 0.07188,0.5445447 0.07406,0.2417778 0.211283,0.4138539 0.137225,0.1720761 0.33544,0.2657378 0.198214,0.093662 0.448704,0.093662 0.248313,0 0.444349,-0.093662 0.198214,-0.093662 0.333261,-0.2657378 0.137225,-0.1720761 0.209105,-0.4138539 0.07406,-0.243956 0.07406,-0.5445447 0,-0.3027668 -0.07406,-0.5467228 Q 45.929227,3.947302 45.792002,3.777404 45.654777,3.6053279 45.458741,3.5138444 45.262705,3.4201827 45.014392,3.4201827 Z m 5.014167,-0.3702903 q 0.344152,0 0.616425,0.1197998 0.27445,0.1176217 0.463952,0.3376177 0.19168,0.2178179 0.291876,0.5314756 0.102374,0.3114795 0.102374,0.6991953 0,0.3855376 -0.102374,0.6970172 -0.100196,0.3114795 -0.289698,0.5336538 -0.189502,0.219996 -0.463952,0.3397958 -0.272272,0.1176217 -0.618603,0.1176217 -0.34633,0 -0.620781,-0.1176217 -0.27445,-0.1197998 -0.46613,-0.3397958 -0.19168,-0.2199961 -0.294054,-0.5314756 -0.100196,-0.3136578 -0.100196,-0.6991954 0,-0.3877158 0.102374,-0.6991953 0.104553,-0.3136577 0.296232,-0.5336538 0.193858,-0.219996 0.466131,-0.3376177 0.27445,-0.1176216 0.616424,-0.1176216 z m 0,0.3702903 q -0.246134,0 -0.444348,0.093662 -0.196036,0.091483 -0.33544,0.2635596 -0.139403,0.169898 -0.213461,0.413854 -0.07406,0.243956 -0.07406,0.5467228 0,0.3005887 0.07188,0.5445447 0.07406,0.2417778 0.211283,0.4138539 0.137225,0.1720761 0.335439,0.2657378 0.198215,0.093662 0.448705,0.093662 0.248313,0 0.444349,-0.093662 0.198214,-0.093662 0.333261,-0.2657378 0.137225,-0.1720761 0.209105,-0.4138539 0.07406,-0.243956 0.07406,-0.5445447 0,-0.3027668 -0.07406,-0.5467228 Q 50.943394,3.947302 50.806169,3.777404 50.668944,3.6053279 50.472908,3.5138444 50.276872,3.4201827 50.028559,3.4201827 Z m 2.583321,1.7948192 q 0,0.182967 0.05881,0.3376177 0.05881,0.1546507 0.169898,0.2657378 0.113265,0.1110871 0.276628,0.1742543 0.165542,0.063167 0.374647,0.063167 0.209105,0 0.372469,-0.063167 0.163363,-0.063167 0.27445,-0.1742543 0.113265,-0.1110871 0.172076,-0.2657378 0.05881,-0.1546507 0.05881,-0.3376177 V 3.1261286 h 0.400785 v 2.1150115 q 0,0.2592032 -0.08713,0.4770211 -0.08713,0.2156397 -0.252669,0.3746467 -0.165541,0.1568289 -0.402963,0.2461342 -0.235243,0.087127 -0.535832,0.087127 -0.300589,0 -0.53801,-0.087127 Q 52.716433,6.2496368 52.550891,6.0928079 52.385349,5.9338009 52.298222,5.7181612 52.211095,5.5003433 52.211095,5.2411401 V 3.1261286 H 52.61188 Z M 56.441116,6.349833 V 3.4877063 H 55.402125 V 3.1261286 H 57.88307 V 3.4877063 H 56.844079 V 6.349833 Z"
         id="text23912-0"
         style="-inkscape-font-specification:'.Keyboard, Normal';stroke-width:0.111523"
         aria-label="AUDIO OUT" />
      <path
         style="fill:#110000"
         d="m 21.607422,3.0527344 -1.326172,0.066406 -0.0332,3.1289063 -1.125,0.015625 L 17,3.1347656 l -1.210937,0.00977 0.04687,3.0742187 -2.28125,-0.048828 -0.0098,-3.0195313 -1.302734,0.027344 0.0098,2.7695312 L 10.105469,3.1386719 10.087891,6.1777344 8.9804688,6.1953125 6.9277344,3.1074219 5.7675781,3.1464844 5.828125,6.2988281 3.5273438,6.3164062 3.5605469,3.1269531 2.4082031,3.1503906 0.1875,6.1992187 l 0.0898438,0.064453 2.18945315,-3.0039063 0.9824219,-0.017578 -0.035156,3.1855469 2.5292969,-0.017578 -0.0625,-3.1562499 0.9882812,-0.033203 2.0527344,3.0859375 1.277344,-0.019531 0.01758,-2.8222656 2.148437,2.8124999 -0.0098,-2.9902343 1.078125,-0.021484 0.0098,3.0136719 2.503907,0.054687 -0.04492,-3.078125 1.039062,-0.00977 2.123047,3.1308593 1.292969,-0.019531 0.0332,-3.1328125 1.109375,-0.054687 0.111328,3.234375 2.517578,-0.00195 -0.123047,-3.1835937 1.175782,-0.00781 0.05078,3.1953125 2.136719,-0.029297 0.05273,-3.1816406 1.273437,0.00781 1.839844,3.2148437 0.0957,-0.056641 -1.871093,-3.2695312 -1.447266,-0.00781 -0.05273,3.1835937 -1.917969,0.025391 -0.05078,-3.1933593 -1.400391,0.00977 0.121094,3.1816406 h -2.291016 z"
         id="path22502" />
    </g>
    <path
       d="m 10.933876,126.4843 0.866098,-1.2051 v -0.0176 h -0.837159 v -0.17156 h 1.084173 v 0.13539 l -0.861964,1.20509 v 0.0176 h 0.879534 v 0.17157 h -1.130682 z m 2.121837,-1.43041 q 0.163298,0 0.292489,0.0569 0.130225,0.0558 0.220142,0.16019 0.09095,0.10336 0.138493,0.25218 0.04858,0.1478 0.04858,0.33177 0,0.18293 -0.04858,0.33073 -0.04754,0.14779 -0.137459,0.25321 -0.08992,0.10439 -0.220142,0.16123 -0.129191,0.0558 -0.293523,0.0558 -0.164331,0 -0.294556,-0.0558 -0.130225,-0.0568 -0.221175,-0.16123 -0.09095,-0.10438 -0.139527,-0.25218 -0.04754,-0.14883 -0.04754,-0.33176 0,-0.18397 0.04858,-0.33177 0.04961,-0.14882 0.14056,-0.25321 0.09198,-0.10439 0.221175,-0.1602 0.130225,-0.0558 0.292489,-0.0558 z m 0,0.1757 q -0.116789,0 -0.21084,0.0444 -0.09302,0.0434 -0.159163,0.12506 -0.06615,0.0806 -0.101286,0.19637 -0.03514,0.11576 -0.03514,0.25942 0,0.14262 0.03411,0.25838 0.03514,0.11472 0.100252,0.19637 0.06511,0.0816 0.159164,0.12609 0.09405,0.0444 0.212907,0.0444 0.117823,0 0.210841,-0.0444 0.09405,-0.0444 0.15813,-0.12609 0.06511,-0.0816 0.09922,-0.19637 0.03514,-0.11576 0.03514,-0.25838 0,-0.14366 -0.03514,-0.25942 -0.03411,-0.11575 -0.09922,-0.19637 -0.06511,-0.0816 -0.15813,-0.12506 -0.09302,-0.0444 -0.210841,-0.0444 z m 1.454177,0.62012 -0.517798,-0.75964 h 0.230477 l 0.403077,0.60874 h 0.01654 l 0.409278,-0.60874 h 0.217042 l -0.530201,0.76894 0.518832,0.76068 h -0.229444 l -0.399976,-0.60358 h -0.01757 l -0.407211,0.60358 h -0.217041 z m 1.050067,0.76998 v -1.52962 h 0.185002 l 0.829925,1.19062 h 0.01757 v -1.19062 h 0.188103 v 1.52962 H 16.595555 L 15.76563,125.4332 h -0.01757 v 1.18649 z m 2.25413,-1.5658 q 0.163297,0 0.292489,0.0569 0.130224,0.0558 0.220141,0.16019 0.09095,0.10336 0.138494,0.25218 0.04857,0.1478 0.04857,0.33177 0,0.18293 -0.04857,0.33073 -0.04754,0.14779 -0.13746,0.25321 -0.08992,0.10439 -0.220142,0.16123 -0.129191,0.0558 -0.293522,0.0558 -0.164332,0 -0.294557,-0.0558 -0.130224,-0.0568 -0.221175,-0.16123 -0.09095,-0.10438 -0.139527,-0.25218 -0.04754,-0.14883 -0.04754,-0.33176 0,-0.18397 0.04858,-0.33177 0.04961,-0.14882 0.14056,-0.25321 0.09198,-0.10439 0.221175,-0.1602 0.130225,-0.0558 0.29249,-0.0558 z m 0,0.1757 q -0.116789,0 -0.210841,0.0444 -0.09302,0.0434 -0.159163,0.12506 -0.06615,0.0806 -0.101286,0.19637 -0.03514,0.11576 -0.03514,0.25942 0,0.14262 0.03411,0.25838 0.03514,0.11472 0.100253,0.19637 0.06511,0.0816 0.159163,0.12609 0.09405,0.0444 0.212908,0.0444 0.117822,0 0.21084,-0.0444 0.09405,-0.0444 0.15813,-0.12609 0.06511,-0.0816 0.09922,-0.19637 0.03514,-0.11576 0.03514,-0.25838 0,-0.14366 -0.03514,-0.25942 -0.03411,-0.11575 -0.09922,-0.19637 -0.06511,-0.0816 -0.15813,-0.12506 -0.09302,-0.0444 -0.21084,-0.0444 z m 1.454177,0.62012 -0.517799,-0.75964 h 0.230477 l 0.403077,0.60874 h 0.01654 l 0.409278,-0.60874 h 0.217042 l -0.530201,0.76894 0.518832,0.76068 h -0.229444 l -0.399976,-0.60358 h -0.01757 l -0.407211,0.60358 h -0.217041 z m 1.12138,0.76998 v -1.52962 h 0.19017 v 1.52962 z m 1.295013,-1.5658 q 0.163298,0 0.292489,0.0569 0.130225,0.0558 0.220142,0.16019 0.09095,0.10336 0.138493,0.25218 0.04858,0.1478 0.04858,0.33177 0,0.18293 -0.04858,0.33073 -0.04754,0.14779 -0.137459,0.25321 -0.08992,0.10439 -0.220142,0.16123 -0.129192,0.0558 -0.293523,0.0558 -0.164331,0 -0.294556,-0.0558 -0.130225,-0.0568 -0.221175,-0.16123 -0.09095,-0.10438 -0.139527,-0.25218 -0.04754,-0.14883 -0.04754,-0.33176 0,-0.18397 0.04858,-0.33177 0.04961,-0.14882 0.14056,-0.25321 0.09198,-0.10439 0.221175,-0.1602 0.130225,-0.0558 0.292489,-0.0558 z m 0,0.1757 q -0.116789,0 -0.21084,0.0444 -0.09302,0.0434 -0.159164,0.12506 -0.06615,0.0806 -0.101286,0.19637 -0.03514,0.11576 -0.03514,0.25942 0,0.14262 0.03411,0.25838 0.03514,0.11472 0.100252,0.19637 0.06511,0.0816 0.159164,0.12609 0.09405,0.0444 0.212907,0.0444 0.117823,0 0.21084,-0.0444 0.09405,-0.0444 0.15813,-0.12609 0.06511,-0.0816 0.09922,-0.19637 0.03514,-0.11576 0.03514,-0.25838 0,-0.14366 -0.03514,-0.25942 -0.03411,-0.11575 -0.09922,-0.19637 -0.06511,-0.0816 -0.15813,-0.12506 -0.09302,-0.0444 -0.21084,-0.0444 z m 1.225767,0.85163 q 0,0.0868 0.02791,0.1602 0.02791,0.0734 0.08062,0.12609 0.05374,0.0527 0.131258,0.0827 0.07855,0.03 0.177767,0.03 0.09922,0 0.176734,-0.03 0.07751,-0.03 0.130225,-0.0827 0.05374,-0.0527 0.08165,-0.12609 0.02791,-0.0734 0.02791,-0.1602 v -0.99115 h 0.19017 v 1.00355 q 0,0.12299 -0.04134,0.22635 -0.04134,0.10232 -0.119889,0.17776 -0.07855,0.0744 -0.191203,0.11679 -0.111622,0.0413 -0.254249,0.0413 -0.142627,0 -0.255282,-0.0413 -0.112654,-0.0424 -0.191203,-0.11679 -0.07855,-0.0754 -0.119889,-0.17776 -0.04134,-0.10336 -0.04134,-0.22635 v -1.00355 h 0.190169 z m 1.53996,0.13849 q 0.0083,0.06 0.04031,0.10852 0.03204,0.0486 0.08268,0.0827 0.05168,0.0341 0.11989,0.0527 0.06821,0.0186 0.149862,0.0186 0.07751,0 0.142627,-0.0196 0.06511,-0.0196 0.112655,-0.0548 0.04858,-0.0351 0.07545,-0.0837 0.02687,-0.0486 0.02687,-0.10542 0,-0.0982 -0.07441,-0.16226 -0.07338,-0.0641 -0.232544,-0.10336 l -0.195337,-0.0506 q -0.104387,-0.0258 -0.179835,-0.0631 -0.07441,-0.0372 -0.12299,-0.0879 -0.04754,-0.0506 -0.07131,-0.11472 -0.02274,-0.0651 -0.02274,-0.14676 0,-0.0971 0.03824,-0.17777 0.03927,-0.0806 0.110587,-0.13746 0.07131,-0.0579 0.170533,-0.0889 0.100252,-0.032 0.221175,-0.032 0.110588,0 0.205673,0.032 0.09509,0.031 0.165365,0.0868 0.07028,0.0558 0.112654,0.13332 0.04237,0.0775 0.04858,0.17054 h -0.192236 q -0.0093,-0.0589 -0.03824,-0.10439 -0.02791,-0.0465 -0.07338,-0.0785 -0.04444,-0.0331 -0.104386,-0.0496 -0.05891,-0.0176 -0.130225,-0.0176 -0.07648,0 -0.139527,0.0186 -0.06201,0.0186 -0.106453,0.0527 -0.04341,0.0331 -0.06821,0.0806 -0.02377,0.0475 -0.02377,0.10542 0,0.0444 0.01654,0.0806 0.01654,0.0351 0.05168,0.0651 0.03514,0.0289 0.09095,0.0527 0.05581,0.0238 0.135393,0.0434 l 0.160197,0.0424 q 0.118856,0.03 0.202572,0.0692 0.08372,0.0382 0.137459,0.0899 0.05374,0.0517 0.07855,0.11783 0.0248,0.0661 0.0248,0.15089 0,0.10542 -0.04031,0.19121 -0.03927,0.0847 -0.113689,0.14469 -0.07441,0.0589 -0.179834,0.0909 -0.10542,0.0331 -0.236678,0.0331 -0.121957,0 -0.223243,-0.031 -0.101286,-0.031 -0.1757,-0.0879 -0.07441,-0.0568 -0.118856,-0.13746 -0.04341,-0.0806 -0.05064,-0.17984 z m 1.672252,-0.45992 h -0.247014 v -0.29455 h 0.247014 z m 0,0.8599 h -0.247014 v -0.29456 h 0.247014 z m 1.257807,0 v -1.52962 h 0.584978 q 0.10542,0 0.189136,0.0269 0.08372,0.0269 0.142627,0.0765 0.05891,0.0496 0.08992,0.11989 0.03101,0.0703 0.03101,0.15813 0,0.0599 -0.02067,0.11575 -0.02067,0.0548 -0.05684,0.0992 -0.03514,0.0444 -0.08372,0.0755 -0.04754,0.03 -0.103353,0.0393 v 0.0176 q 0.07855,0.009 0.141594,0.0403 0.06304,0.031 0.107487,0.0796 0.04444,0.0486 0.06821,0.11266 0.02481,0.0641 0.02481,0.13952 0,0.10129 -0.03514,0.18087 -0.03514,0.0796 -0.10232,0.13436 -0.06615,0.0548 -0.163298,0.0847 -0.09612,0.0289 -0.218075,0.0289 z m 0.190169,-0.87023 h 0.305925 q 0.3483,0 0.3483,-0.24495 0,-0.11782 -0.07855,-0.1819 -0.07855,-0.0641 -0.221175,-0.0641 h -0.354501 z m 0.377239,0.70176 q 0.173633,0 0.262516,-0.0682 0.08888,-0.0682 0.08888,-0.20257 0,-0.13333 -0.09302,-0.19947 -0.09198,-0.0672 -0.275952,-0.0672 h -0.359669 v 0.53743 z m 1.80661,0.16847 h -0.947747 v -1.52962 h 0.947747 v 0.17156 h -0.757577 v 0.49093 h 0.718303 v 0.1695 h -0.718303 v 0.52606 h 0.757577 z m 0.766879,0 v -0.65836 l -0.542603,-0.87126 h 0.217041 l 0.412379,0.67902 h 0.01654 l 0.412379,-0.67902 h 0.218075 l -0.542604,0.87126 v 0.65836 z m 1.645381,-1.5658 q 0.163298,0 0.292489,0.0569 0.130225,0.0558 0.220142,0.16019 0.09095,0.10336 0.138493,0.25218 0.04858,0.1478 0.04858,0.33177 0,0.18293 -0.04858,0.33073 -0.04754,0.14779 -0.137459,0.25321 -0.08992,0.10439 -0.220142,0.16123 -0.129191,0.0558 -0.293523,0.0558 -0.164331,0 -0.294556,-0.0558 -0.130225,-0.0568 -0.221175,-0.16123 -0.09095,-0.10438 -0.139527,-0.25218 -0.04754,-0.14883 -0.04754,-0.33176 0,-0.18397 0.04858,-0.33177 0.04961,-0.14882 0.14056,-0.25321 0.09198,-0.10439 0.221175,-0.1602 0.130225,-0.0558 0.292489,-0.0558 z m 0,0.1757 q -0.116789,0 -0.21084,0.0444 -0.09302,0.0434 -0.159163,0.12506 -0.06615,0.0806 -0.101286,0.19637 -0.03514,0.11576 -0.03514,0.25942 0,0.14262 0.03411,0.25838 0.03514,0.11472 0.100253,0.19637 0.06511,0.0816 0.159163,0.12609 0.09405,0.0444 0.212907,0.0444 0.117823,0 0.210841,-0.0444 0.09405,-0.0444 0.15813,-0.12609 0.06511,-0.0816 0.09922,-0.19637 0.03514,-0.11576 0.03514,-0.25838 0,-0.14366 -0.03514,-0.25942 -0.03411,-0.11575 -0.09922,-0.19637 -0.06511,-0.0816 -0.15813,-0.12506 -0.09302,-0.0444 -0.210841,-0.0444 z m 1.030429,1.3901 v -1.52962 h 0.185002 l 0.829925,1.19062 h 0.01757 v -1.19062 h 0.188102 v 1.52962 h -0.185002 l -0.829924,-1.18649 h -0.01757 v 1.18649 z m 2.135275,-1.52962 q 0.170532,0 0.303858,0.0517 0.134359,0.0517 0.227376,0.14986 0.09302,0.0982 0.141594,0.24082 0.04961,0.14159 0.04961,0.32246 0,0.18087 -0.04961,0.32349 -0.04858,0.1416 -0.141594,0.23978 -0.09198,0.0982 -0.226343,0.14986 -0.134359,0.0517 -0.304891,0.0517 h -0.524 v -1.52962 z m -0.333831,1.35805 h 0.321428 q 0.128158,0 0.228411,-0.0393 0.100252,-0.0403 0.169498,-0.11576 0.06925,-0.0765 0.105421,-0.18603 0.03617,-0.11059 0.03617,-0.25012 0,-0.14056 -0.03721,-0.25114 -0.03617,-0.11059 -0.10542,-0.18707 -0.06925,-0.0765 -0.169499,-0.11679 -0.100252,-0.0403 -0.227377,-0.0403 h -0.321428 z m 2.734721,-1.39423 q 0.163297,0 0.292489,0.0569 0.130224,0.0558 0.220142,0.16019 0.09095,0.10336 0.138493,0.25218 0.04858,0.1478 0.04858,0.33177 0,0.18293 -0.04858,0.33073 -0.04754,0.14779 -0.13746,0.25321 -0.08992,0.10439 -0.220142,0.16123 -0.129191,0.0558 -0.293522,0.0558 -0.164332,0 -0.294557,-0.0558 -0.130224,-0.0568 -0.221175,-0.16123 -0.09095,-0.10438 -0.139527,-0.25218 -0.04754,-0.14883 -0.04754,-0.33176 0,-0.18397 0.04858,-0.33177 0.04961,-0.14882 0.14056,-0.25321 0.09198,-0.10439 0.221176,-0.1602 0.130224,-0.0558 0.292489,-0.0558 z m 0,0.1757 q -0.116789,0 -0.210841,0.0444 -0.09302,0.0434 -0.159163,0.12506 -0.06615,0.0806 -0.101286,0.19637 -0.03514,0.11576 -0.03514,0.25942 0,0.14262 0.03411,0.25838 0.03514,0.11472 0.100253,0.19637 0.06511,0.0816 0.159163,0.12609 0.09405,0.0444 0.212908,0.0444 0.117822,0 0.21084,-0.0444 0.09405,-0.0444 0.15813,-0.12609 0.06511,-0.0816 0.09922,-0.19637 0.03514,-0.11576 0.03514,-0.25838 0,-0.14366 -0.03514,-0.25942 -0.03411,-0.11575 -0.09922,-0.19637 -0.06511,-0.0816 -0.15813,-0.12506 -0.09302,-0.0444 -0.21084,-0.0444 z m 1.03043,1.3901 v -1.52962 h 0.584978 q 0.10542,0 0.189136,0.0269 0.08372,0.0269 0.142628,0.0765 0.05891,0.0496 0.08992,0.11989 0.03101,0.0703 0.03101,0.15813 0,0.0599 -0.02067,0.11575 -0.02067,0.0548 -0.05684,0.0992 -0.03514,0.0444 -0.08372,0.0755 -0.04754,0.03 -0.103353,0.0393 v 0.0176 q 0.07855,0.009 0.141593,0.0403 0.06305,0.031 0.107488,0.0796 0.04444,0.0486 0.06821,0.11266 0.0248,0.0641 0.0248,0.13952 0,0.10129 -0.03514,0.18087 -0.03514,0.0796 -0.102319,0.13436 -0.06615,0.0548 -0.163298,0.0847 -0.09612,0.0289 -0.218075,0.0289 z m 0.19017,-0.87023 h 0.305925 q 0.348299,0 0.348299,-0.24495 0,-0.11782 -0.07855,-0.1819 -0.07855,-0.0641 -0.221175,-0.0641 h -0.354501 z m 0.377238,0.70176 q 0.173633,0 0.262517,-0.0682 0.08888,-0.0682 0.08888,-0.20257 0,-0.13333 -0.09302,-0.19947 -0.09198,-0.0672 -0.275953,-0.0672 h -0.359668 v 0.53743 z m 0.858864,0.16847 v -1.52962 h 0.185002 l 0.829924,1.19062 h 0.01757 v -1.19062 h 0.188103 v 1.52962 h -0.185002 l -0.829925,-1.18649 h -0.01757 v 1.18649 z m 2.254128,-1.5658 q 0.163298,0 0.292489,0.0569 0.130225,0.0558 0.220142,0.16019 0.09095,0.10336 0.138493,0.25218 0.04858,0.1478 0.04858,0.33177 0,0.18293 -0.04858,0.33073 -0.04754,0.14779 -0.137459,0.25321 -0.08992,0.10439 -0.220142,0.16123 -0.129191,0.0558 -0.293523,0.0558 -0.164331,0 -0.294556,-0.0558 -0.130225,-0.0568 -0.221175,-0.16123 -0.09095,-0.10438 -0.139527,-0.25218 -0.04754,-0.14883 -0.04754,-0.33176 0,-0.18397 0.04858,-0.33177 0.04961,-0.14882 0.14056,-0.25321 0.09198,-0.10439 0.221175,-0.1602 0.130225,-0.0558 0.292489,-0.0558 z m 0,0.1757 q -0.116789,0 -0.21084,0.0444 -0.09302,0.0434 -0.159164,0.12506 -0.06614,0.0806 -0.101286,0.19637 -0.03514,0.11576 -0.03514,0.25942 0,0.14262 0.03411,0.25838 0.03514,0.11472 0.100252,0.19637 0.06511,0.0816 0.159164,0.12609 0.09405,0.0444 0.212907,0.0444 0.117823,0 0.21084,-0.0444 0.09405,-0.0444 0.158131,-0.12609 0.06511,-0.0816 0.09922,-0.19637 0.03514,-0.11576 0.03514,-0.25838 0,-0.14366 -0.03514,-0.25942 -0.03411,-0.11575 -0.09922,-0.19637 -0.06511,-0.0816 -0.158131,-0.12506 -0.09302,-0.0444 -0.21084,-0.0444 z m 1.454178,0.62012 -0.517798,-0.75964 h 0.230477 l 0.403077,0.60874 h 0.01654 l 0.409278,-0.60874 h 0.217041 l -0.530201,0.76894 0.518833,0.76068 h -0.229444 l -0.399976,-0.60358 h -0.01757 l -0.407211,0.60358 h -0.217042 z m 1.121379,0.76998 v -1.52962 h 0.190169 v 1.52962 z m 1.295014,-1.5658 q 0.163298,0 0.292489,0.0569 0.130225,0.0558 0.220142,0.16019 0.09095,0.10336 0.138493,0.25218 0.04858,0.1478 0.04858,0.33177 0,0.18293 -0.04858,0.33073 -0.04754,0.14779 -0.137459,0.25321 -0.08992,0.10439 -0.220142,0.16123 -0.129191,0.0558 -0.293523,0.0558 -0.164331,0 -0.294556,-0.0558 -0.130225,-0.0568 -0.221175,-0.16123 -0.09095,-0.10438 -0.139527,-0.25218 -0.04754,-0.14883 -0.04754,-0.33176 0,-0.18397 0.04858,-0.33177 0.04961,-0.14882 0.14056,-0.25321 0.09198,-0.10439 0.221175,-0.1602 0.130225,-0.0558 0.292489,-0.0558 z m 0,0.1757 q -0.116789,0 -0.21084,0.0444 -0.09302,0.0434 -0.159163,0.12506 -0.06615,0.0806 -0.101286,0.19637 -0.03514,0.11576 -0.03514,0.25942 0,0.14262 0.03411,0.25838 0.03514,0.11472 0.100253,0.19637 0.06511,0.0816 0.159163,0.12609 0.09405,0.0444 0.212907,0.0444 0.117823,0 0.210841,-0.0444 0.09405,-0.0444 0.15813,-0.12609 0.06511,-0.0816 0.09922,-0.19637 0.03514,-0.11576 0.03514,-0.25838 0,-0.14366 -0.03514,-0.25942 -0.03411,-0.11575 -0.09922,-0.19637 -0.06511,-0.0816 -0.15813,-0.12506 -0.09302,-0.0444 -0.210841,-0.0444 z m 1.225768,0.85163 q 0,0.0868 0.02791,0.1602 0.0279,0.0734 0.08062,0.12609 0.05374,0.0527 0.131258,0.0827 0.07855,0.03 0.177767,0.03 0.09922,0 0.176734,-0.03 0.07752,-0.03 0.130225,-0.0827 0.05374,-0.0527 0.08165,-0.12609 0.02791,-0.0734 0.02791,-0.1602 v -0.99115 h 0.19017 v 1.00355 q 0,0.12299 -0.04134,0.22635 -0.04134,0.10232 -0.11989,0.17776 -0.07855,0.0744 -0.191203,0.11679 -0.111621,0.0413 -0.254249,0.0413 -0.142627,0 -0.255281,-0.0413 -0.112655,-0.0424 -0.191204,-0.11679 -0.07855,-0.0754 -0.119889,-0.17776 -0.04134,-0.10336 -0.04134,-0.22635 v -1.00355 h 0.190169 z m 1.539959,0.13849 q 0.0083,0.06 0.04031,0.10852 0.03204,0.0486 0.08268,0.0827 0.05168,0.0341 0.119889,0.0527 0.06821,0.0186 0.149862,0.0186 0.07751,0 0.142627,-0.0196 0.06511,-0.0196 0.112655,-0.0548 0.04858,-0.0351 0.07545,-0.0837 0.02687,-0.0486 0.02687,-0.10542 0,-0.0982 -0.07442,-0.16226 -0.07338,-0.0641 -0.232544,-0.10336 l -0.195337,-0.0506 q -0.104387,-0.0258 -0.179834,-0.0631 -0.07442,-0.0372 -0.122991,-0.0879 -0.04754,-0.0506 -0.07131,-0.11472 -0.02274,-0.0651 -0.02274,-0.14676 0,-0.0971 0.03824,-0.17777 0.03927,-0.0806 0.110588,-0.13746 0.07131,-0.0579 0.170532,-0.0889 0.100253,-0.032 0.221176,-0.032 0.110587,0 0.205672,0.032 0.09509,0.031 0.165365,0.0868 0.07028,0.0558 0.112655,0.13332 0.04237,0.0775 0.04858,0.17054 h -0.192237 q -0.0093,-0.0589 -0.03824,-0.10439 -0.02791,-0.0465 -0.07338,-0.0785 -0.04444,-0.0331 -0.104387,-0.0496 -0.05891,-0.0176 -0.130225,-0.0176 -0.07648,0 -0.139526,0.0186 -0.06201,0.0186 -0.106454,0.0527 -0.04341,0.0331 -0.06821,0.0806 -0.02377,0.0475 -0.02377,0.10542 0,0.0444 0.01654,0.0806 0.01654,0.0351 0.05168,0.0651 0.03514,0.0289 0.09095,0.0527 0.05581,0.0238 0.135392,0.0434 l 0.160197,0.0424 q 0.118856,0.03 0.202572,0.0692 0.08372,0.0382 0.13746,0.0899 0.05374,0.0517 0.07855,0.11783 0.02481,0.0661 0.02481,0.15089 0,0.10542 -0.04031,0.19121 -0.03927,0.0847 -0.113688,0.14469 -0.07441,0.0589 -0.179835,0.0909 -0.10542,0.0331 -0.236678,0.0331 -0.121957,0 -0.223242,-0.031 -0.101286,-0.031 -0.175701,-0.0879 -0.07441,-0.0568 -0.118856,-0.13746 -0.04341,-0.0806 -0.05064,-0.17984 z"
       id="text23912-2"
       style="font-size:2.11667px;line-height:1.25;font-family:'.Keyboard';-inkscape-font-specification:'.Keyboard, Normal';stroke-width:0.131248"
       aria-label="ZOXNOXIOUS: BEYOND OBNOXIOUS" />
    <path
       d="m 51.335937,18.050781 -19.996093,0.0957 0.002,0.121094 19.99414,-0.0957 z"
       id="path4227" />
    <path
       d="m 51.316406,22.742187 -19.996094,0.0957 v 0.121093 l 19.996094,-0.0957 z"
       id="path4227-5" />
    <path
       d="m 51.316406,31.113281 -19.996094,0.0957 v 0.121094 l 19.996094,-0.0957 z"
       id="path4227-5-5" />
    <path
       d="m 51.316406,36.300781 -19.996094,0.0957 v 0.121094 l 19.996094,-0.0957 z"
       id="path4227-5-4" />
    <path
       d="m 51.316406,49.363281 -19.996094,0.0957 v 0.121094 l 19.996094,-0.0957 z"
       id="path4227-5-2" />
    <path
       d="m 51.316406,57.238281 -19.996094,0.0957 v 0.121094 l 19.996094,-0.0957 z"
       id="path4227-5-9" />
    <path
       d="m 51.316406,62.425781 -19.996094,0.0957 v 0.121094 l 19.996094,-0.0957 z"
       id="path4227-5-24" />
    <path
       d="m 51.316406,70.300781 -19.996094,0.0957 v 0.121094 l 19.996094,-0.0957 z"
       id="path4227-5-58" />
    <path
       d="m 51.316406,75.488281 -19.996094,0.0957 v 0.121094 l 19.996094,-0.0957 z"
       id="path4227-5-6" />
    <path
       d="m 51.316406,83.363281 -19.996094,0.0957 v 0.121094 l 19.996094,-0.0957 z"
       id="path4227-5-25" />
    <path
       d="m 51.316406,88.550781 -19.996094,0.0957 v 0.121094 l 19.996094,-0.0957 z"
       id="path4227-5-13" />
    <path
       d="m 51.316406,44.175781 -19.996094,0.0957 v 0.121094 l 19.996094,-0.0957 z"
       id="path4227-5-1" />
    <path
       d="m -60.565116,2.8749899 q -0.182073,0 -0.327972,-0.065112 -0.1459,-0.065112 -0.248391,-0.1856903 -0.102491,-0.1217839 -0.157957,-0.2942107 -0.05426,-0.1724267 -0.05426,-0.3882615 0,-0.2158349 0.05426,-0.3894674 0.05547,-0.1736325 0.156751,-0.2942106 0.102492,-0.1217839 0.248391,-0.1868961 0.1459,-0.065112 0.327973,-0.065112 0.141076,0 0.26286,0.042202 0.12299,0.042202 0.218246,0.1193723 0.09526,0.075964 0.157958,0.1832788 0.0627,0.1061087 0.0832,0.2351273 h -0.226687 q -0.0217,-0.086816 -0.06752,-0.1555458 -0.04582,-0.069935 -0.110932,-0.1181665 -0.06391,-0.049437 -0.144694,-0.074758 -0.08079,-0.026527 -0.172426,-0.026527 -0.129019,0 -0.232716,0.051849 -0.102492,0.050643 -0.174838,0.1458996 -0.07235,0.094051 -0.112138,0.2303042 -0.03858,0.1350475 -0.03858,0.3026511 0,0.1676036 0.03858,0.3026511 0.03979,0.1350475 0.112138,0.2303042 0.07235,0.094051 0.176044,0.1446937 0.103697,0.050643 0.232715,0.050643 0.09285,0 0.173633,-0.02291 0.08079,-0.02291 0.144694,-0.066318 0.06511,-0.043408 0.109726,-0.1049029 0.04461,-0.062701 0.06632,-0.1398707 h 0.226687 q -0.02291,0.1229897 -0.08561,0.2230696 -0.0615,0.098874 -0.155546,0.1700151 -0.09405,0.069935 -0.215835,0.1073146 -0.121783,0.038585 -0.264066,0.038585 z m 1.844846,-1.868961 q 0.190513,0 0.341236,0.066318 0.151928,0.065112 0.256831,0.1868961 0.106109,0.1205781 0.161575,0.2942106 0.05667,0.1724267 0.05667,0.3870558 0,0.2134233 -0.05667,0.38585 -0.05547,0.1724267 -0.160369,0.2954164 -0.104903,0.1217839 -0.256831,0.1881019 -0.150723,0.065112 -0.342442,0.065112 -0.191719,0 -0.343648,-0.065112 -0.151928,-0.066318 -0.258037,-0.1881019 -0.106109,-0.1217839 -0.162781,-0.2942106 -0.05547,-0.1736325 -0.05547,-0.3870558 0,-0.2146291 0.05667,-0.3870558 0.05788,-0.1736325 0.163986,-0.2954164 0.107315,-0.1217839 0.258038,-0.1868961 0.151928,-0.065112 0.341236,-0.065112 z m 0,0.2049828 q -0.136254,0 -0.24598,0.051849 -0.10852,0.050643 -0.18569,0.1458996 -0.07717,0.094051 -0.118167,0.2290984 -0.041,0.1350475 -0.041,0.3026511 0,0.1663978 0.03979,0.3014453 0.041,0.1338417 0.11696,0.2290984 0.07597,0.095257 0.185691,0.1471054 0.109726,0.051849 0.248391,0.051849 0.137459,0 0.245979,-0.051849 0.109726,-0.051849 0.184485,-0.1471054 0.07596,-0.095257 0.115755,-0.2290984 0.041,-0.1350475 0.041,-0.3014453 0,-0.1676036 -0.041,-0.3026511 -0.03979,-0.1350475 -0.115755,-0.2290984 -0.07597,-0.095257 -0.184485,-0.1458996 -0.10852,-0.051849 -0.245979,-0.051849 z m 1.202164,1.6217758 V 1.0482313 h 0.215835 l 0.968242,1.38906 h 0.0205 v -1.38906 h 0.219452 v 1.7845562 h -0.215834 l -0.968243,-1.3842369 h -0.0205 v 1.3842369 z m 1.879813,0 V 1.0482313 h 0.215834 l 0.968243,1.38906 h 0.0205 v -1.38906 h 0.219452 v 1.7845562 h -0.215835 l -0.968242,-1.3842369 h -0.0205 v 1.3842369 z m 2.985514,0 H -53.75848 V 1.0482313 h 1.105701 V 1.248391 h -0.883838 v 0.5727461 h 0.838018 v 0.1977481 h -0.838018 v 0.6137426 h 0.883838 z m 1.121377,0.042202 q -0.182073,0 -0.327973,-0.065112 -0.145899,-0.065112 -0.248391,-0.1856903 -0.102491,-0.1217839 -0.157957,-0.2942107 -0.05426,-0.1724267 -0.05426,-0.3882615 0,-0.2158349 0.05426,-0.3894674 0.05547,-0.1736325 0.156752,-0.2942106 0.102491,-0.1217839 0.24839,-0.1868961 0.1459,-0.065112 0.327973,-0.065112 0.141076,0 0.26286,0.042202 0.12299,0.042202 0.218247,0.1193723 0.09526,0.075964 0.157957,0.1832788 0.0627,0.1061087 0.0832,0.2351273 h -0.226687 q -0.0217,-0.086816 -0.06752,-0.1555458 -0.04582,-0.069935 -0.110932,-0.1181665 -0.06391,-0.049437 -0.144693,-0.074758 -0.08079,-0.026527 -0.172427,-0.026527 -0.129019,0 -0.232716,0.051849 -0.102491,0.050643 -0.174838,0.1458996 -0.07235,0.094051 -0.112138,0.2303042 -0.03858,0.1350475 -0.03858,0.3026511 0,0.1676036 0.03858,0.3026511 0.03979,0.1350475 0.112138,0.2303042 0.07235,0.094051 0.176044,0.1446937 0.103697,0.050643 0.232716,0.050643 0.09284,0 0.173632,-0.02291 0.08079,-0.02291 0.144694,-0.066318 0.06511,-0.043408 0.109726,-0.1049029 0.04461,-0.062701 0.06632,-0.1398707 h 0.226687 q -0.02291,0.1229897 -0.08561,0.2230696 -0.06149,0.098874 -0.155545,0.1700151 -0.09405,0.069935 -0.215835,0.1073146 -0.121784,0.038585 -0.264066,0.038585 z m 1.496374,-0.042202 V 1.248391 h -0.575158 V 1.0482313 h 1.373385 V 1.248391 h -0.575158 v 1.5843965 z m 1.225073,0 V 1.0482313 h 0.221864 v 1.7845562 z m 1.510845,-1.8267586 q 0.190514,0 0.341236,0.066318 0.151929,0.065112 0.256832,0.1868961 0.106108,0.1205781 0.161574,0.2942106 0.05667,0.1724267 0.05667,0.3870558 0,0.2134233 -0.05667,0.38585 -0.05547,0.1724267 -0.160369,0.2954164 -0.104903,0.1217839 -0.256831,0.1881019 -0.150723,0.065112 -0.342442,0.065112 -0.191719,0 -0.343648,-0.065112 -0.151928,-0.066318 -0.258037,-0.1881019 -0.106109,-0.1217839 -0.16278,-0.2942106 -0.05547,-0.1736325 -0.05547,-0.3870558 0,-0.2146291 0.05667,-0.3870558 0.05788,-0.1736325 0.163986,-0.2954164 0.107314,-0.1217839 0.258037,-0.1868961 0.151928,-0.065112 0.341236,-0.065112 z m 0,0.2049828 q -0.136253,0 -0.245979,0.051849 -0.108521,0.050643 -0.185691,0.1458996 -0.07717,0.094051 -0.118166,0.2290984 -0.041,0.1350475 -0.041,0.3026511 0,0.1663978 0.03979,0.3014453 0.041,0.1338417 0.116961,0.2290984 0.07596,0.095257 0.18569,0.1471054 0.109726,0.051849 0.248391,0.051849 0.137459,0 0.245979,-0.051849 0.109727,-0.051849 0.184485,-0.1471054 0.07596,-0.095257 0.115755,-0.2290984 0.041,-0.1350475 0.041,-0.3014453 0,-0.1676036 -0.041,-0.3026511 -0.03979,-0.1350475 -0.115755,-0.2290984 -0.07596,-0.095257 -0.184485,-0.1458996 -0.10852,-0.051849 -0.245979,-0.051849 z m 1.202164,1.6217758 V 1.0482313 h 0.215835 l 0.968242,1.38906 h 0.0205 v -1.38906 h 0.219453 v 1.7845562 h -0.215835 l -0.968243,-1.3842369 h -0.0205 v 1.3842369 z m 3.166382,0 V 1.248391 h -0.575158 V 1.0482313 h 1.373385 V 1.248391 h -0.575158 v 1.5843965 z m 1.89187,-1.8267586 q 0.190514,0 0.341236,0.066318 0.151929,0.065112 0.256832,0.1868961 0.106108,0.1205781 0.161574,0.2942106 0.05667,0.1724267 0.05667,0.3870558 0,0.2134233 -0.05667,0.38585 -0.05547,0.1724267 -0.160369,0.2954164 -0.104903,0.1217839 -0.256831,0.1881019 -0.150723,0.065112 -0.342442,0.065112 -0.191719,0 -0.343648,-0.065112 -0.151928,-0.066318 -0.258037,-0.1881019 -0.106108,-0.1217839 -0.16278,-0.2942106 -0.05547,-0.1736325 -0.05547,-0.3870558 0,-0.2146291 0.05667,-0.3870558 0.05788,-0.1736325 0.163986,-0.2954164 0.107314,-0.1217839 0.258037,-0.1868961 0.151928,-0.065112 0.341236,-0.065112 z m 0,0.2049828 q -0.136253,0 -0.245979,0.051849 -0.108521,0.050643 -0.185691,0.1458996 -0.07717,0.094051 -0.118166,0.2290984 -0.041,0.1350475 -0.041,0.3026511 0,0.1663978 0.03979,0.3014453 0.041,0.1338417 0.116961,0.2290984 0.07596,0.095257 0.18569,0.1471054 0.109726,0.051849 0.248391,0.051849 0.137459,0 0.245979,-0.051849 0.109727,-0.051849 0.184485,-0.1471054 0.07596,-0.095257 0.115755,-0.2290984 0.041,-0.1350475 0.041,-0.3014453 0,-0.1676036 -0.041,-0.3026511 -0.03979,-0.1350475 -0.115755,-0.2290984 -0.07596,-0.095257 -0.184485,-0.1458996 -0.10852,-0.051849 -0.245979,-0.051849 z m 3.006013,1.1105246 h -0.710205 l -0.178455,0.5112512 h -0.233922 l 0.657151,-1.7845562 h 0.220658 l 0.658356,1.7845562 h -0.233921 z m -0.643887,-0.1881019 h 0.578775 L -38.377534,1.336413 h -0.0205 z m 1.981099,-1.0852031 q 0.198954,0 0.3545,0.060289 0.156751,0.060289 0.265272,0.1748383 0.10852,0.1145492 0.165192,0.280947 0.05788,0.1651921 0.05788,0.3762038 0,0.2110117 -0.05788,0.3774095 -0.05667,0.1651921 -0.165192,0.2797413 -0.107315,0.1145492 -0.264067,0.1748383 -0.156751,0.060289 -0.355705,0.060289 H -37.3068 V 1.0482313 Z m -0.389467,1.5843965 h 0.374998 q 0.149516,0 0.266477,-0.04582 0.116961,-0.047025 0.197748,-0.1350475 0.08079,-0.089228 0.12299,-0.2170406 0.0422,-0.1290186 0.0422,-0.291799 0,-0.1639863 -0.04341,-0.2930049 -0.0422,-0.1290186 -0.122989,-0.2182464 -0.08079,-0.089228 -0.197749,-0.1362533 -0.11696,-0.047025 -0.265271,-0.047025 h -0.374998 z m 2.228283,-1.5843965 q 0.198954,0 0.354499,0.060289 0.156752,0.060289 0.265272,0.1748383 0.108521,0.1145492 0.165192,0.280947 0.05788,0.1651921 0.05788,0.3762038 0,0.2110117 -0.05788,0.3774095 -0.05667,0.1651921 -0.165192,0.2797413 -0.107314,0.1145492 -0.264066,0.1748383 -0.156751,0.060289 -0.355705,0.060289 h -0.611331 V 1.0482313 Z m -0.389468,1.5843965 h 0.374998 q 0.149517,0 0.266478,-0.04582 0.116961,-0.047025 0.197748,-0.1350475 0.08079,-0.089228 0.12299,-0.2170406 0.0422,-0.1290186 0.0422,-0.291799 0,-0.1639863 -0.04341,-0.2930049 -0.0422,-0.1290186 -0.12299,-0.2182464 -0.08079,-0.089228 -0.197748,-0.1362533 -0.116961,-0.047025 -0.265272,-0.047025 h -0.374998 z m 1.700151,0.2001597 V 1.0482313 h 0.221864 v 1.7845562 z m 1.223869,0 V 1.248391 h -0.575158 V 1.0482313 h 1.373385 V 1.248391 h -0.575158 v 1.5843965 z m 1.225073,0 V 1.0482313 h 0.221864 v 1.7845562 z m 1.510845,-1.8267586 q 0.190513,0 0.341236,0.066318 0.151928,0.065112 0.256831,0.1868961 0.106109,0.1205781 0.161575,0.2942106 0.05667,0.1724267 0.05667,0.3870558 0,0.2134233 -0.05667,0.38585 -0.05547,0.1724267 -0.160369,0.2954164 -0.104903,0.1217839 -0.256831,0.1881019 -0.150723,0.065112 -0.342442,0.065112 -0.191719,0 -0.343648,-0.065112 -0.151928,-0.066318 -0.258037,-0.1881019 -0.106109,-0.1217839 -0.16278,-0.2942106 -0.05547,-0.1736325 -0.05547,-0.3870558 0,-0.2146291 0.05667,-0.3870558 0.05788,-0.1736325 0.163987,-0.2954164 0.107314,-0.1217839 0.258037,-0.1868961 0.151928,-0.065112 0.341236,-0.065112 z m 0,0.2049828 q -0.136253,0 -0.245979,0.051849 -0.108521,0.050643 -0.185691,0.1458996 -0.07717,0.094051 -0.118166,0.2290984 -0.041,0.1350475 -0.041,0.3026511 0,0.1663978 0.03979,0.3014453 0.041,0.1338417 0.116961,0.2290984 0.07596,0.095257 0.18569,0.1471054 0.109726,0.051849 0.248391,0.051849 0.137459,0 0.245979,-0.051849 0.109726,-0.051849 0.184485,-0.1471054 0.07596,-0.095257 0.115755,-0.2290984 0.041,-0.1350475 0.041,-0.3014453 0,-0.1676036 -0.041,-0.3026511 -0.03979,-0.1350475 -0.115755,-0.2290984 -0.07596,-0.095257 -0.184485,-0.1458996 -0.10852,-0.051849 -0.245979,-0.051849 z m 1.202164,1.6217758 V 1.0482313 h 0.215835 l 0.968242,1.38906 h 0.0205 v -1.38906 h 0.219453 v 1.7845562 h -0.215835 l -0.968243,-1.3842369 h -0.0205 v 1.3842369 z m 2.860114,-0.5112512 h -0.710205 l -0.178456,0.5112512 h -0.233921 l 0.657151,-1.7845562 h 0.220658 l 0.658356,1.7845562 h -0.233921 z m -0.643887,-0.1881019 h 0.578775 L -25.868758,1.336413 h -0.0205 z m 2.452559,0.6993531 h -1.082791 V 1.0482313 h 0.221863 v 1.5843965 h 0.860928 z m 1.179252,0 V 1.0482313 h 0.258037 l 0.611331,1.477082 h 0.01929 l 0.611331,-1.477082 h 0.258038 v 1.7845562 h -0.207395 V 1.4702547 h -0.01447 l -0.5631,1.350475 h -0.188102 l -0.5631,-1.350475 h -0.01447 v 1.3625328 z m 2.963809,-1.8267586 q 0.190514,0 0.341236,0.066318 0.151929,0.065112 0.256832,0.1868961 0.106109,0.1205781 0.161574,0.2942106 0.05667,0.1724267 0.05667,0.3870558 0,0.2134233 -0.05667,0.38585 -0.05547,0.1724267 -0.160368,0.2954164 -0.104903,0.1217839 -0.256832,0.1881019 -0.150722,0.065112 -0.342442,0.065112 -0.191719,0 -0.343647,-0.065112 -0.151929,-0.066318 -0.258038,-0.1881019 -0.106108,-0.1217839 -0.16278,-0.2942106 -0.05547,-0.1736325 -0.05547,-0.3870558 0,-0.2146291 0.05667,-0.3870558 0.05788,-0.1736325 0.163986,-0.2954164 0.107315,-0.1217839 0.258037,-0.1868961 0.151929,-0.065112 0.341236,-0.065112 z m 0,0.2049828 q -0.136253,0 -0.245979,0.051849 -0.10852,0.050643 -0.18569,0.1458996 -0.07717,0.094051 -0.118167,0.2290984 -0.041,0.1350475 -0.041,0.3026511 0,0.1663978 0.03979,0.3014453 0.041,0.1338417 0.116961,0.2290984 0.07596,0.095257 0.18569,0.1471054 0.109726,0.051849 0.248391,0.051849 0.137459,0 0.24598,-0.051849 0.109726,-0.051849 0.184484,-0.1471054 0.07596,-0.095257 0.115755,-0.2290984 0.041,-0.1350475 0.041,-0.3014453 0,-0.1676036 -0.041,-0.3026511 -0.03979,-0.1350475 -0.115755,-0.2290984 -0.07596,-0.095257 -0.184484,-0.1458996 -0.108521,-0.051849 -0.24598,-0.051849 z m 1.813495,-0.1627804 q 0.198954,0 0.3545,0.060289 0.156752,0.060289 0.265272,0.1748383 0.10852,0.1145492 0.165192,0.280947 0.05788,0.1651921 0.05788,0.3762038 0,0.2110117 -0.05788,0.3774095 -0.05667,0.1651921 -0.165192,0.2797413 -0.107315,0.1145492 -0.264066,0.1748383 -0.156752,0.060289 -0.355706,0.060289 h -0.611331 V 1.0482313 Z m -0.389467,1.5843965 h 0.374998 q 0.149517,0 0.266478,-0.04582 0.11696,-0.047025 0.197748,-0.1350475 0.08079,-0.089228 0.122989,-0.2170406 0.0422,-0.1290186 0.0422,-0.291799 0,-0.1639863 -0.04341,-0.2930049 -0.0422,-0.1290186 -0.12299,-0.2182464 -0.08079,-0.089228 -0.197748,-0.1362533 -0.116961,-0.047025 -0.265272,-0.047025 h -0.374998 z m 1.844847,-0.4280523 q 0,0.1012856 0.03256,0.1868961 0.03256,0.08561 0.09405,0.1471053 0.0627,0.061495 0.153134,0.096463 0.09164,0.034968 0.207394,0.034968 0.115755,0 0.206189,-0.034968 0.09043,-0.034968 0.151928,-0.096463 0.0627,-0.061495 0.09526,-0.1471053 0.03256,-0.085611 0.03256,-0.1868961 V 1.0482313 h 0.221864 v 1.1708136 q 0,0.1434879 -0.04823,0.2640661 -0.04823,0.1193723 -0.13987,0.2073943 -0.09164,0.086816 -0.22307,0.1362533 -0.130224,0.048231 -0.296622,0.048231 -0.166398,0 -0.297828,-0.048231 -0.13143,-0.049437 -0.223069,-0.1362533 -0.09164,-0.088022 -0.139871,-0.2073943 -0.04823,-0.1205782 -0.04823,-0.2640661 V 1.0482313 h 0.221864 z m 2.739534,0.628212 h -1.082791 V 1.0482313 h 0.221864 v 1.5843965 h 0.860927 z m 1.461406,0 h -1.105702 V 1.0482313 h 1.105702 V 1.248391 h -0.883838 v 0.5727461 h 0.838018 v 0.1977481 h -0.838018 v 0.6137426 h 0.883838 z m 0.542603,-0.4666373 q 0.0096,0.069935 0.04703,0.126607 0.03738,0.056672 0.09646,0.096463 0.06029,0.039791 0.139871,0.061495 0.07958,0.021704 0.174838,0.021704 0.09043,0 0.166398,-0.02291 0.07596,-0.02291 0.13143,-0.063906 0.05667,-0.040997 0.08802,-0.097668 0.03135,-0.056672 0.03135,-0.1229897 0,-0.1145492 -0.08682,-0.1893077 -0.08561,-0.074758 -0.271301,-0.1205781 l -0.227892,-0.059083 q -0.121784,-0.030145 -0.209806,-0.073553 -0.08682,-0.043408 -0.143488,-0.1024914 -0.05547,-0.059083 -0.0832,-0.1338417 -0.02653,-0.075964 -0.02653,-0.171221 0,-0.1133434 0.04461,-0.2073944 0.04582,-0.094051 0.129018,-0.1603689 0.0832,-0.067524 0.198954,-0.1036971 0.116961,-0.037379 0.258037,-0.037379 0.129019,0 0.239951,0.037379 0.110932,0.036173 0.192925,0.1012856 0.08199,0.065112 0.13143,0.1555458 0.04944,0.090434 0.05667,0.1989539 h -0.224276 q -0.01085,-0.06873 -0.04461,-0.1217839 -0.03256,-0.05426 -0.08561,-0.091639 -0.05185,-0.038585 -0.121784,-0.057878 -0.06873,-0.020498 -0.151928,-0.020498 -0.08923,0 -0.162781,0.021704 -0.07235,0.021704 -0.124195,0.061495 -0.05064,0.038585 -0.07958,0.094051 -0.02773,0.055466 -0.02773,0.1229897 0,0.051849 0.01929,0.094051 0.01929,0.040997 0.06029,0.075964 0.041,0.033762 0.106109,0.061495 0.06511,0.027733 0.157957,0.050643 l 0.186896,0.049437 q 0.138665,0.034968 0.236333,0.080787 0.09767,0.044614 0.160369,0.104903 0.0627,0.060289 0.09164,0.137459 0.02894,0.07717 0.02894,0.1760441 0,0.1229897 -0.04702,0.2230695 -0.04582,0.098874 -0.132636,0.1688094 -0.08682,0.068729 -0.209806,0.1061088 -0.12299,0.038585 -0.276124,0.038585 -0.142282,0 -0.260449,-0.036174 -0.118166,-0.036173 -0.204983,-0.1024914 -0.08682,-0.066318 -0.138664,-0.1603689 -0.05064,-0.094051 -0.05908,-0.2098059 z"
       id="text92-2-1"
       style="font-size:2.46944px;line-height:1.25;font-family:'.Keyboard';-inkscape-font-specification:'.Keyboard, Normal';stroke-width:0.0932689"
       transform="rotate(-90)"
       aria-label="CONNECTION TO ADDITIONAL MODULES" />
    <path
       d="m -19.538414,59.672126 q 0.0096,0.06994 0.04702,0.126607 0.03738,0.05667 0.09646,0.09646 0.06029,0.03979 0.13987,0.06149 0.07958,0.0217 0.174839,0.0217 0.09043,0 0.166397,-0.02291 0.07597,-0.02291 0.131431,-0.06391 0.05667,-0.041 0.08802,-0.09767 0.03135,-0.05667 0.03135,-0.12299 0,-0.114549 -0.08682,-0.189307 -0.08561,-0.07476 -0.271301,-0.120578 l -0.227893,-0.05908 q -0.121784,-0.03014 -0.209806,-0.07355 -0.08682,-0.04341 -0.143488,-0.102492 -0.05547,-0.05908 -0.0832,-0.133842 -0.02653,-0.07596 -0.02653,-0.17122 0,-0.113344 0.04461,-0.207395 0.04582,-0.09405 0.129019,-0.160369 0.0832,-0.06752 0.198954,-0.103697 0.11696,-0.03738 0.258037,-0.03738 0.129018,0 0.23995,0.03738 0.110932,0.03617 0.192925,0.101286 0.08199,0.06511 0.13143,0.155545 0.04944,0.09043 0.05667,0.198954 h -0.224275 q -0.01085,-0.06873 -0.04461,-0.121784 -0.03256,-0.05426 -0.08561,-0.09164 -0.05185,-0.03858 -0.121784,-0.05788 -0.06873,-0.0205 -0.151929,-0.0205 -0.08923,0 -0.16278,0.0217 -0.07235,0.0217 -0.124196,0.0615 -0.05064,0.03858 -0.07958,0.09405 -0.02773,0.05547 -0.02773,0.12299 0,0.05185 0.01929,0.09405 0.01929,0.041 0.06029,0.07596 0.041,0.03376 0.106109,0.06149 0.06511,0.02773 0.157957,0.05064 l 0.186896,0.04944 q 0.138665,0.03497 0.236334,0.08079 0.09767,0.04461 0.160368,0.104903 0.0627,0.06029 0.09164,0.137459 0.02894,0.07717 0.02894,0.176044 0,0.12299 -0.04703,0.22307 -0.04582,0.09887 -0.132636,0.168809 -0.08682,0.06873 -0.209806,0.106109 -0.122989,0.03858 -0.276124,0.03858 -0.142282,0 -0.260448,-0.03617 -0.118167,-0.03617 -0.204983,-0.102491 -0.08682,-0.06632 -0.138665,-0.160369 -0.05064,-0.09405 -0.05908,-0.209806 z m 1.936484,0.466637 v -1.584396 h -0.575157 v -0.20016 h 1.373385 v 0.20016 h -0.575158 v 1.584396 z m 1.91237,-0.511251 h -0.710206 l -0.178455,0.511251 h -0.233922 l 0.657151,-1.784556 h 0.220658 l 0.658357,1.784556 h -0.233922 z m -0.643888,-0.188102 h 0.578775 l -0.279741,-0.797021 h -0.0205 z m 1.622982,0.699353 v -1.584396 h -0.575158 v -0.20016 h 1.373385 v 0.20016 h -0.575157 v 1.584396 z m 1.369767,-0.628212 q 0,0.101286 0.03256,0.186896 0.03256,0.08561 0.09405,0.147106 0.0627,0.0615 0.153135,0.09646 0.09164,0.03497 0.207394,0.03497 0.115755,0 0.206189,-0.03497 0.09043,-0.03497 0.151928,-0.09646 0.0627,-0.0615 0.09526,-0.147106 0.03256,-0.08561 0.03256,-0.186896 v -1.156344 h 0.221864 v 1.170814 q 0,0.143488 -0.04823,0.264066 -0.04823,0.119372 -0.13987,0.207394 -0.09164,0.08682 -0.22307,0.136254 -0.130224,0.04823 -0.296622,0.04823 -0.166398,0 -0.297828,-0.04823 -0.13143,-0.04944 -0.22307,-0.136254 -0.09164,-0.08802 -0.13987,-0.207394 -0.04823,-0.120578 -0.04823,-0.264066 v -1.170814 h 0.221863 z m 1.796614,0.161575 q 0.0096,0.06994 0.04703,0.126607 0.03738,0.05667 0.09646,0.09646 0.06029,0.03979 0.139871,0.06149 0.07958,0.0217 0.174838,0.0217 0.09043,0 0.166398,-0.02291 0.07596,-0.02291 0.13143,-0.06391 0.05667,-0.041 0.08802,-0.09767 0.03135,-0.05667 0.03135,-0.12299 0,-0.114549 -0.08682,-0.189307 -0.08561,-0.07476 -0.271301,-0.120578 l -0.227892,-0.05908 q -0.121784,-0.03014 -0.209806,-0.07355 -0.08682,-0.04341 -0.143488,-0.102492 -0.05547,-0.05908 -0.0832,-0.133842 -0.02653,-0.07596 -0.02653,-0.17122 0,-0.113344 0.04461,-0.207395 0.04582,-0.09405 0.129018,-0.160369 0.0832,-0.06752 0.198954,-0.103697 0.116961,-0.03738 0.258037,-0.03738 0.129019,0 0.239951,0.03738 0.110932,0.03617 0.192925,0.101286 0.08199,0.06511 0.13143,0.155545 0.04944,0.09043 0.05667,0.198954 h -0.224276 q -0.01085,-0.06873 -0.04461,-0.121784 -0.03256,-0.05426 -0.08561,-0.09164 -0.05185,-0.03858 -0.121784,-0.05788 -0.06873,-0.0205 -0.151928,-0.0205 -0.08923,0 -0.162781,0.0217 -0.07235,0.0217 -0.124195,0.0615 -0.05064,0.03858 -0.07958,0.09405 -0.02773,0.05547 -0.02773,0.12299 0,0.05185 0.01929,0.09405 0.01929,0.041 0.06029,0.07596 0.041,0.03376 0.106108,0.06149 0.06511,0.02773 0.157958,0.05064 l 0.186896,0.04944 q 0.138665,0.03497 0.236333,0.08079 0.09767,0.04461 0.160369,0.104903 0.0627,0.06029 0.09164,0.137459 0.02894,0.07717 0.02894,0.176044 0,0.12299 -0.04702,0.22307 -0.04582,0.09887 -0.132636,0.168809 -0.08682,0.06873 -0.209806,0.106109 -0.12299,0.03858 -0.276124,0.03858 -0.142282,0 -0.260449,-0.03617 -0.118167,-0.03617 -0.204983,-0.102491 -0.08682,-0.06632 -0.138665,-0.160369 -0.05064,-0.09405 -0.05908,-0.209806 z"
       id="text92-2-1-3"
       style="font-size:2.46944px;line-height:1.25;font-family:'.Keyboard';-inkscape-font-specification:'.Keyboard, Normal';stroke-width:0.0932689"
       transform="rotate(-90)"
       aria-label="STATUS" />
    <path
       d="m 40.057938,103.27167 -0.748274,2.0519 h -0.592556 l -0.748275,-2.0519 h 0.555349 l 0.496094,1.44143 0.496093,-1.44143 z m 1.222319,2.09186 q -0.228755,0 -0.423058,-0.0675 -0.192925,-0.0675 -0.332107,-0.20119 -0.139181,-0.13367 -0.216352,-0.33349 -0.07579,-0.19981 -0.07579,-0.46164 0,-0.24391 0.07304,-0.44235 0.07304,-0.19844 0.212218,-0.34038 0.13367,-0.13642 0.330729,-0.21084 0.198437,-0.0744 0.432704,-0.0744 0.129535,0 0.232888,0.0152 0.104731,0.0138 0.192925,0.0372 0.09233,0.0262 0.166743,0.0592 0.07579,0.0317 0.132291,0.0593 v 0.49747 h -0.06063 q -0.03859,-0.0331 -0.09784,-0.0785 -0.05788,-0.0455 -0.132292,-0.0896 -0.07579,-0.0441 -0.163986,-0.0744 -0.08819,-0.0303 -0.188791,-0.0303 -0.111621,0 -0.212218,0.0358 -0.100597,0.0345 -0.186035,0.11575 -0.0813,0.0785 -0.132291,0.20808 -0.04961,0.12954 -0.04961,0.3142 0,0.19292 0.05374,0.32246 0.05512,0.12953 0.137803,0.20395 0.08406,0.0758 0.187413,0.10886 0.103353,0.0317 0.20395,0.0317 0.09646,0 0.190169,-0.0289 0.09508,-0.0289 0.175011,-0.0785 0.06752,-0.04 0.125401,-0.0854 0.05788,-0.0455 0.09508,-0.0785 h 0.05512 v 0.49058 q -0.07717,0.0345 -0.14745,0.0648 -0.07028,0.0303 -0.14745,0.0524 -0.100596,0.0289 -0.188791,0.0441 -0.08819,0.0152 -0.242534,0.0152 z m 3.011011,-0.04 h -0.547081 l -0.141938,-0.41479 h -0.760676 l -0.141938,0.41479 h -0.5333 l 0.75792,-2.0519 h 0.609092 z m -0.817176,-0.79099 -0.252181,-0.73587 -0.252181,0.73587 z m 2.586576,0.79099 h -1.369769 v -0.35829 h 0.432703 v -1.08451 h -0.432703 v -0.33487 q 0.09922,0 0.190169,-0.011 0.09095,-0.0124 0.151584,-0.0413 0.07166,-0.0344 0.107487,-0.0896 0.03583,-0.0551 0.04134,-0.1378 h 0.45613 v 1.69912 h 0.423058 z"
       id="text3"
       style="font-weight:bold;font-size:2.82222px;line-height:1.25;-inkscape-font-specification:'sans-serif, Bold';stroke-width:0.264583"
       aria-label="VCA1" />
    <path
       d="m 40.057938,113.43316 -0.748274,2.0519 h -0.592556 l -0.748275,-2.0519 h 0.555349 l 0.496094,1.44143 0.496093,-1.44143 z m 1.222319,2.09186 q -0.228755,0 -0.423058,-0.0675 -0.192925,-0.0675 -0.332107,-0.20119 -0.139181,-0.13367 -0.216352,-0.33349 -0.07579,-0.19981 -0.07579,-0.46164 0,-0.24391 0.07304,-0.44235 0.07304,-0.19844 0.212218,-0.34038 0.13367,-0.13642 0.330729,-0.21083 0.198437,-0.0744 0.432704,-0.0744 0.129535,0 0.232888,0.0152 0.104731,0.0138 0.192925,0.0372 0.09233,0.0262 0.166743,0.0592 0.07579,0.0317 0.132291,0.0593 v 0.49747 h -0.06063 q -0.03859,-0.0331 -0.09784,-0.0785 -0.05788,-0.0455 -0.132292,-0.0896 -0.07579,-0.0441 -0.163986,-0.0744 -0.08819,-0.0303 -0.188791,-0.0303 -0.111621,0 -0.212218,0.0358 -0.100597,0.0345 -0.186035,0.11575 -0.0813,0.0785 -0.132291,0.20809 -0.04961,0.12953 -0.04961,0.31419 0,0.19292 0.05374,0.32246 0.05512,0.12953 0.137803,0.20395 0.08406,0.0758 0.187413,0.10886 0.103353,0.0317 0.20395,0.0317 0.09646,0 0.190169,-0.0289 0.09508,-0.0289 0.175011,-0.0785 0.06752,-0.04 0.125401,-0.0854 0.05788,-0.0455 0.09508,-0.0785 h 0.05512 v 0.49059 q -0.07717,0.0344 -0.14745,0.0648 -0.07028,0.0303 -0.14745,0.0524 -0.100596,0.0289 -0.188791,0.0441 -0.08819,0.0151 -0.242534,0.0151 z m 3.011011,-0.04 h -0.547081 l -0.141938,-0.41479 h -0.760676 l -0.141938,0.41479 h -0.5333 l 0.75792,-2.0519 h 0.609092 z m -0.817176,-0.79099 -0.252181,-0.73587 -0.252181,0.73587 z m 2.716111,0.79099 h -1.610925 v -0.339 q 0.184657,-0.13367 0.369314,-0.28387 0.186035,-0.15021 0.297656,-0.25907 0.166742,-0.16123 0.237022,-0.28112 0.07028,-0.11989 0.07028,-0.23702 0,-0.14056 -0.09095,-0.21636 -0.08957,-0.0772 -0.259071,-0.0772 -0.12678,0 -0.26734,0.0524 -0.139181,0.0524 -0.259071,0.13367 h -0.0441 v -0.45613 q 0.09784,-0.0427 0.28801,-0.0854 0.191547,-0.0427 0.383094,-0.0427 0.385851,0 0.588422,0.16261 0.202572,0.16123 0.202572,0.45751 0,0.1943 -0.09784,0.36931 -0.09646,0.17501 -0.296278,0.36105 -0.125401,0.11575 -0.252181,0.21359 -0.126779,0.0965 -0.180523,0.13505 h 0.921907 z"
       id="text2"
       style="font-weight:bold;font-size:2.82222px;line-height:1.25;-inkscape-font-specification:'sans-serif, Bold';stroke-width:0.264583"
       aria-label="VCA2" />
  </g>
  <g
     inkscape:label="components"
     inkscape:groupmode="layer"
     id="layer1"
     style="display:none;opacity:1">
    <rect
       id="f9b09e17-fc78-4216-9b09-40d2874876ff"
       data-name="Screen"
       y="81.651543"
       width="21.343746"
       height="3.636193"
       x="6.3214049"
       style="display:inline;fill:#ffff00;stroke-width:0.0777037"
       inkscape:label="CARD_F1_TEXT" />
    <circle
       id="b903da6b-121c-4663-8772-b399a6eccb9e-7"
       data-name="Tempo#RoundLargeBlackKnob"
       cx="36.794163"
       cy="83.469643"
       r="1.3229166"
       style="display:inline;fill:#ff0000;stroke-width:0.264583"
       inkscape:label="CARD_F_MIX1_OUTPUT_BUTTON" />
    <rect
       id="f9b09e17-fc78-4216-9b09-40d2874876ff-3"
       data-name="Screen"
       y="29.405552"
       width="21.343746"
       height="3.636193"
       x="6.3214049"
       style="display:inline;fill:#ffff00;stroke-width:0.0777037"
       inkscape:label="CARD_B1_TEXT" />
    <circle
       id="b903da6b-121c-4663-8772-b399a6eccb9e-7-0"
       data-name="Tempo#RoundLargeBlackKnob"
       cx="36.794163"
       cy="31.22365"
       r="1.3229166"
       style="display:inline;fill:#ff0000;stroke-width:0.264583"
       inkscape:label="CARD_B_MIX1_OUTPUT_BUTTON" />
    <rect
       id="f9b09e17-fc78-4216-9b09-40d2874876ff-09"
       data-name="Screen"
       y="55.528553"
       width="21.343746"
       height="3.636193"
       x="6.3214049"
       style="display:inline;fill:#ffff00;stroke-width:0.0777037"
       inkscape:label="CARD_D1_TEXT" />
    <circle
       id="b903da6b-121c-4663-8772-b399a6eccb9e-7-37"
       data-name="Tempo#RoundLargeBlackKnob"
       cx="36.794163"
       cy="57.346653"
       r="1.3229166"
       style="display:inline;fill:#ff0000;stroke-width:0.264583"
       inkscape:label="CARD_D_MIX1_OUTPUT_BUTTON" />
    <rect
       id="f9b09e17-fc78-4216-9b09-40d2874876ff-09-3"
       data-name="Screen"
       y="42.467052"
       width="21.343746"
       height="3.636193"
       x="6.3214049"
       style="display:inline;fill:#ffff00;stroke-width:0.0777037"
       inkscape:label="CARD_C1_TEXT" />
    <circle
       id="b903da6b-121c-4663-8772-b399a6eccb9e-7-37-0"
       data-name="Tempo#RoundLargeBlackKnob"
       cx="36.794163"
       cy="44.285152"
       r="1.3229166"
       style="display:inline;fill:#ff0000;stroke-width:0.264583"
       inkscape:label="CARD_C_MIX1_OUTPUT_BUTTON" />
    <rect
       id="f9b09e17-fc78-4216-9b09-40d2874876ff-2"
       data-name="Screen"
       y="68.590042"
       width="21.343746"
       height="3.636193"
       x="6.3214049"
       style="display:inline;fill:#ffff00;stroke-width:0.0777037"
       inkscape:label="CARD_E1_TEXT" />
    <circle
       id="b903da6b-121c-4663-8772-b399a6eccb9e-7-9"
       data-name="Tempo#RoundLargeBlackKnob"
       cx="36.794163"
       cy="70.408142"
       r="1.3229166"
       style="display:inline;fill:#ff0000;stroke-width:0.264583"
       inkscape:label="CARD_E_MIX1_OUTPUT_BUTTON" />
    <rect
       id="f9b09e17-fc78-4216-9b09-40d2874876ff-0"
       data-name="Screen"
       y="16.344055"
       width="21.343746"
       height="3.636193"
       x="6.3214049"
       style="display:inline;fill:#ffff00;stroke-width:0.0777037"
       inkscape:label="CARD_A1_TEXT" />
    <rect
       id="f9b09e17-fc78-4216-9b09-40d2874876ff-1"
       data-name="Screen"
       y="86.838173"
       width="21.343746"
       height="3.636193"
       x="6.3214049"
       style="display:inline;fill:#ffff00;stroke-width:0.0777037"
       inkscape:label="CARD_F2_TEXT" />
    <rect
       id="f9b09e17-fc78-4216-9b09-40d2874876ff-3-7"
       data-name="Screen"
       y="34.592186"
       width="21.343746"
       height="3.636193"
       x="6.3214049"
       style="display:inline;fill:#ffff00;stroke-width:0.0777037"
       inkscape:label="CARD_B2_TEXT" />
    <rect
       id="f9b09e17-fc78-4216-9b09-40d2874876ff-09-2"
       data-name="Screen"
       y="60.715183"
       width="21.343746"
       height="3.636193"
       x="6.3214049"
       style="display:inline;fill:#ffff00;stroke-width:0.0777037"
       inkscape:label="CARD_D2_TEXT" />
    <rect
       id="f9b09e17-fc78-4216-9b09-40d2874876ff-09-3-3"
       data-name="Screen"
       y="47.653675"
       width="21.343746"
       height="3.636193"
       x="6.3214049"
       style="display:inline;fill:#ffff00;stroke-width:0.0777037"
       inkscape:label="CARD_C2_TEXT" />
    <rect
       id="f9b09e17-fc78-4216-9b09-40d2874876ff-2-6"
       data-name="Screen"
       y="73.776672"
       width="21.343746"
       height="3.636193"
       x="6.3214049"
       style="display:inline;fill:#ffff00;stroke-width:0.0777037"
       inkscape:label="CARD_E2_TEXT" />
    <rect
       id="f9b09e17-fc78-4216-9b09-40d2874876ff-0-5"
       data-name="Screen"
       y="21.035496"
       width="21.343746"
       height="3.636193"
       x="6.3214049"
       style="display:inline;fill:#ffff00;stroke-width:0.0777037"
       inkscape:label="CARD_A2_TEXT" />
    <circle
       id="b903da6b-121c-4663-8772-b399a6eccb9e-7-4"
       data-name="Tempo#RoundLargeBlackKnob"
       cx="36.794163"
       cy="18.162151"
       r="1.3229166"
       style="display:inline;fill:#ff0000;stroke-width:0.264583"
       inkscape:label="CARD_A_MIX1_OUTPUT_BUTTON" />
    <circle
       id="b903da6b-121c-4663-8772-b399a6eccb9e-7-7"
       data-name="Tempo#RoundLargeBlackKnob"
       cx="48.346699"
       cy="88.656273"
       r="1.3229166"
       style="display:inline;fill:#ff0000;stroke-width:0.264583"
       inkscape:label="CARD_F_MIX2_OUTPUT_BUTTON" />
    <circle
       id="b903da6b-121c-4663-8772-b399a6eccb9e-7-7-8"
       data-name="Tempo#RoundLargeBlackKnob"
       cx="48.346699"
       cy="36.410282"
       r="1.3229166"
       style="display:inline;fill:#ff0000;stroke-width:0.264583"
       inkscape:label="CARD_B_MIX2_OUTPUT_BUTTON" />
    <circle
       id="b903da6b-121c-4663-8772-b399a6eccb9e-7-7-5"
       data-name="Tempo#RoundLargeBlackKnob"
       cx="48.346699"
       cy="62.533283"
       r="1.3229166"
       style="display:inline;fill:#ff0000;stroke-width:0.264583"
       inkscape:label="CARD_D_MIX2_OUTPUT_BUTTON" />
    <circle
       id="b903da6b-121c-4663-8772-b399a6eccb9e-7-7-5-4"
       data-name="Tempo#RoundLargeBlackKnob"
       cx="48.346699"
       cy="49.471775"
       r="1.3229166"
       style="display:inline;fill:#ff0000;stroke-width:0.264583"
       inkscape:label="CARD_C_MIX2_OUTPUT_BUTTON" />
    <circle
       id="b903da6b-121c-4663-8772-b399a6eccb9e-7-7-7"
       data-name="Tempo#RoundLargeBlackKnob"
       cx="48.346699"
       cy="75.594772"
       r="1.3229166"
       style="display:inline;fill:#ff0000;stroke-width:0.264583"
       inkscape:label="CARD_E_MIX2_OUTPUT_BUTTON" />
    <circle
       id="b903da6b-121c-4663-8772-b399a6eccb9e-7-7-6"
       data-name="Tempo#RoundLargeBlackKnob"
       cx="48.346699"
       cy="22.853592"
       r="1.3229166"
       style="display:inline;fill:#ff0000;stroke-width:0.264583"
       inkscape:label="CARD_A_MIX2_OUTPUT_BUTTON" />
    <ellipse
       id="circle1254"
       data-name="RGreen1#RedLight"
       cx="59.24649"
       cy="8.21875"
       style="display:inline;opacity:0.99;fill:#ff00ff;stroke-width:0.264583"
       inkscape:label="RIGHT_EXPANDER_LIGHT"
       rx="0.79400003"
       ry="0.79374999" />
    <circle
       id="b9452edd-6f79-47c8-a395-da97cf0e28c9-8"
       data-name="RGreen1#RedLight"
       cx="2.0200968"
       cy="8.21875"
       r="0.79374999"
       style="display:inline;opacity:0.99;fill:#ff00ff;stroke-width:0.264583"
       inkscape:label="LEFT_EXPANDER_LIGHT" />
    <circle
       id="circle1"
       data-name="In03#PJ301MPort"
       cx="26.122116"
       cy="104.37841"
       r="1.3229166"
       style="display:inline;opacity:0.99;fill:#00ff00;stroke-width:0.264583"
       inkscape:label="LEFT_LEVEL_INPUT"
       inkscape:transform-center-x="-0.12594097"
       inkscape:transform-center-y="12.007235" />
    <ellipse
       id="circle2"
       data-name="Tempo#RoundLargeBlackKnob"
       cx="11.274643"
       cy="104.37841"
       style="display:inline;opacity:0.99;fill:#ff0000;stroke-width:0.264583"
       inkscape:label="LEFT_LEVEL_KNOB"
       rx="1.323"
       ry="1.3229166" />
    <circle
       id="circle3"
       data-name="RGreen1#RedLight"
       cx="19.360798"
       cy="101.18427"
       r="0.79374999"
       style="display:inline;opacity:0.99;fill:#ff00ff;stroke-width:0.264583"
       inkscape:label="LEFT_LEVEL_CLIP" />
    <circle
       id="circle10"
       data-name="In03#PJ301MPort"
       cx="26.122116"
       cy="117.42668"
       r="1.3229166"
       style="display:inline;opacity:0.99;fill:#00ff00;stroke-width:0.264583"
       inkscape:label="RIGHT_LEVEL_INPUT"
       inkscape:transform-center-x="-0.12594097"
       inkscape:transform-center-y="12.007235" />
    <circle
       id="circle11"
       data-name="Tempo#RoundLargeBlackKnob"
       cx="11.274643"
       cy="117.42668"
       r="1.3229166"
       style="display:inline;opacity:0.99;fill:#ff0000;stroke-width:0.264583"
       inkscape:label="RIGHT_LEVEL_KNOB" />
    <circle
       id="circle12"
       data-name="RGreen1#RedLight"
       cx="19.360798"
       cy="114.23255"
       r="0.79374999"
       style="display:inline;opacity:0.99;fill:#ff00ff;stroke-width:0.264583"
       inkscape:label="RIGHT_LEVEL_CLIP" />
  </g>
</svg>
