<?xml version="1.0" encoding="UTF-8" standalone="no"?>
<!-- Created with Inkscape (http://www.inkscape.org/) -->

<svg
   width="81.279999mm"
   height="128.5mm"
   viewBox="0 0 81.28 128.5"
   version="1.1"
   id="svg1199"
   inkscape:version="1.2 (dc2aeda, 2022-05-15)"
   sodipodi:docname="AudioOut.svg"
   xmlns:inkscape="http://www.inkscape.org/namespaces/inkscape"
   xmlns:sodipodi="http://sodipodi.sourceforge.net/DTD/sodipodi-0.dtd"
   xmlns="http://www.w3.org/2000/svg"
   xmlns:svg="http://www.w3.org/2000/svg">
  <sodipodi:namedview
     id="namedview1201"
     pagecolor="#ffffff"
     bordercolor="#666666"
     borderopacity="1.0"
     inkscape:pageshadow="2"
     inkscape:pageopacity="0.0"
     inkscape:pagecheckerboard="0"
     inkscape:document-units="mm"
     showgrid="false"
     inkscape:zoom="1.2309726"
     inkscape:cx="71.488188"
     inkscape:cy="251.02102"
     inkscape:window-width="1104"
     inkscape:window-height="912"
     inkscape:window-x="563"
     inkscape:window-y="99"
     inkscape:window-maximized="0"
     inkscape:current-layer="layer2"
     inkscape:snap-nodes="false"
     inkscape:showpageshadow="2"
     inkscape:deskcolor="#d1d1d1" />
  <defs
     id="defs1196">
    <marker
       style="overflow:visible"
       id="marker2980"
       refX="0"
       refY="0"
       orient="auto"
       inkscape:stockid="Arrow1Lstart"
       inkscape:isstock="true">
      <path
         transform="matrix(0.8,0,0,0.8,10,0)"
         style="fill:context-stroke;fill-rule:evenodd;stroke:context-stroke;stroke-width:1pt"
         d="M 0,0 5,-5 -12.5,0 5,5 Z"
         id="path2719" />
    </marker>
    <marker
       style="overflow:visible"
       id="Arrow1Lend"
       refX="0"
       refY="0"
       orient="auto"
       inkscape:stockid="Arrow1Lend"
       inkscape:isstock="true">
      <path
         transform="matrix(-0.8,0,0,-0.8,-10,0)"
         style="fill:context-stroke;fill-rule:evenodd;stroke:context-stroke;stroke-width:1pt"
         d="M 0,0 5,-5 -12.5,0 5,5 Z"
         id="path6358" />
    </marker>
    <marker
       style="overflow:visible"
       id="marker6625"
       refX="0"
       refY="0"
       orient="auto"
       inkscape:stockid="Arrow1Lstart"
       inkscape:isstock="true">
      <path
         transform="matrix(0.8,0,0,0.8,10,0)"
         style="fill:context-stroke;fill-rule:evenodd;stroke:context-stroke;stroke-width:1pt"
         d="M 0,0 5,-5 -12.5,0 5,5 Z"
         id="path6623" />
    </marker>
    <marker
       style="overflow:visible"
       id="Arrow1Lstart"
       refX="0"
       refY="0"
       orient="auto"
       inkscape:stockid="Arrow1Lstart"
       inkscape:isstock="true">
      <path
         transform="matrix(0.8,0,0,0.8,10,0)"
         style="fill:context-stroke;fill-rule:evenodd;stroke:context-stroke;stroke-width:1pt"
         d="M 0,0 5,-5 -12.5,0 5,5 Z"
         id="path6355" />
    </marker>
    <marker
       style="overflow:visible"
       id="Arrow1Lend-5"
       refX="0"
       refY="0"
       orient="auto"
       inkscape:stockid="Arrow1Lend"
       inkscape:isstock="true">
      <path
         transform="matrix(-0.8,0,0,-0.8,-10,0)"
         style="fill:context-stroke;fill-rule:evenodd;stroke:context-stroke;stroke-width:1pt"
         d="M 0,0 5,-5 -12.5,0 5,5 Z"
         id="path6358-6" />
    </marker>
    <marker
       style="overflow:visible"
       id="Arrow1Lend-1"
       refX="0"
       refY="0"
       orient="auto"
       inkscape:stockid="Arrow1Lend"
       inkscape:isstock="true">
      <path
         transform="matrix(-0.8,0,0,-0.8,-10,0)"
         style="fill:context-stroke;fill-rule:evenodd;stroke:context-stroke;stroke-width:1pt"
         d="M 0,0 5,-5 -12.5,0 5,5 Z"
         id="path6358-4" />
    </marker>
    <inkscape:path-effect
       effect="fillet_chamfer"
       id="path-effect143"
       is_visible="true"
       lpeversion="1"
       satellites_param="F,0,0,1,0,2.6458333,0,2 @ F,0,0,1,0,2.6458333,0,2 @ F,0,0,1,0,2.6458333,0,2 @ F,0,0,1,0,2.6458333,0,2"
       unit="px"
       method="auto"
       mode="F"
       radius="10"
       chamfer_steps="1"
       flexible="false"
       use_knot_distance="true"
       apply_no_radius="true"
       apply_with_radius="true"
       only_selected="false"
       hide_knots="false"
       nodesatellites_param="F,0,0,1,0,2.6458333,0,2 @ F,0,0,1,0,2.6458333,0,2 @ F,0,0,1,0,2.6458333,0,2 @ F,0,0,1,0,2.6458333,0,2" />
    <inkscape:path-effect
       effect="fillet_chamfer"
       id="path-effect145"
       is_visible="true"
       lpeversion="1"
       satellites_param="F,0,0,1,0,2.6458333,0,1 @ F,0,0,1,0,2.6458333,0,1 @ F,0,0,1,0,2.6458333,0,1 @ F,0,0,1,0,2.6458333,0,1"
       unit="px"
       method="auto"
       mode="F"
       radius="10"
       chamfer_steps="1"
       flexible="false"
       use_knot_distance="true"
       apply_no_radius="true"
       apply_with_radius="true"
       only_selected="false"
       hide_knots="false"
       nodesatellites_param="F,0,0,1,0,2.6458333,0,1 @ F,0,0,1,0,2.6458333,0,1 @ F,0,0,1,0,2.6458333,0,1 @ F,0,0,1,0,2.6458333,0,1" />
    <inkscape:path-effect
       effect="fillet_chamfer"
       id="path-effect147"
       is_visible="true"
       lpeversion="1"
       satellites_param="F,0,0,1,0,2.6458333,0,1 @ F,0,0,1,0,2.6458333,0,1 @ F,0,0,1,0,2.6458333,0,1 @ F,0,0,1,0,2.6458333,0,1"
       unit="px"
       method="auto"
       mode="F"
       radius="10"
       chamfer_steps="1"
       flexible="false"
       use_knot_distance="true"
       apply_no_radius="true"
       apply_with_radius="true"
       only_selected="false"
       hide_knots="false"
       nodesatellites_param="F,0,0,1,0,2.6458333,0,1 @ F,0,0,1,0,2.6458333,0,1 @ F,0,0,1,0,2.6458333,0,1 @ F,0,0,1,0,2.6458333,0,1" />
  </defs>
  <g
     inkscape:groupmode="layer"
     id="layer3"
     inkscape:label="background"
     style="display:inline">
    <g
       id="rect297"
       style="display:inline;fill:#f2f2f2;fill-opacity:1;stroke:none;stroke-opacity:1"
       transform="matrix(1.0946011,0,0,1.021367,-1.6847102,-1.8561852)">
      <path
         style="color:#000000;fill:#f2f2f2;fill-opacity:1;stroke:none;stroke-width:0.222;stroke-opacity:1;-inkscape-stroke:none;paint-order:markers fill stroke"
         d="M -0.27284041,-0.03116083 H 76.953066 V 129.29092 H -0.27284041 Z"
         id="path32372" />
      <path
         style="color:#000000;fill:#f2f2f2;fill-opacity:1;stroke:none;stroke-opacity:1;-inkscape-stroke:none;paint-order:markers fill stroke"
         d="M -0.38476563,-0.14257812 V -0.03125 129.40234 H 77.064453 V -0.14257812 Z m 0.22265626,0.22265624 H 76.841797 V 129.17969 H -0.16210937 Z"
         id="path32374" />
    </g>
    <path
       style="display:inline;fill:#c7b89b;fill-opacity:1;stroke:#980000;stroke-width:0.158;stroke-dasharray:none"
       id="rect1316-8"
       width="23.268442"
       height="60.209057"
       x="53.806889"
       y="8.7911005"
       inkscape:path-effect="#path-effect145"
       sodipodi:type="rect"
       d="m 56.452722,8.7911005 h 17.976775 a 2.6458333,2.6458333 45 0 1 2.645834,2.6458335 v 54.91739 a 2.6458333,2.6458333 135 0 1 -2.645834,2.645833 H 56.452722 a 2.6458333,2.6458333 45 0 1 -2.645833,-2.645833 v -54.91739 a 2.6458333,2.6458333 135 0 1 2.645833,-2.6458335 z" />
    <path
       style="display:inline;fill:#ada9b9;fill-opacity:1;stroke:#980000;stroke-width:0.158;stroke-dasharray:none"
       id="rect1316-8-9"
       width="23.214212"
       height="50.323833"
       x="53.834003"
       y="72.773018"
       inkscape:path-effect="#path-effect147"
       sodipodi:type="rect"
       d="m 56.479837,72.773018 h 17.922546 a 2.6458333,2.6458333 45 0 1 2.645833,2.645833 v 45.032169 a 2.6458333,2.6458333 135 0 1 -2.645833,2.64583 H 56.479837 a 2.6458333,2.6458333 45 0 1 -2.645834,-2.64583 V 75.418851 a 2.6458333,2.6458333 135 0 1 2.645834,-2.645833 z" />
    <path
       style="display:inline;fill:#cc9696;fill-opacity:1;stroke:#980000;stroke-width:0.158;stroke-dasharray:none"
       id="rect1316"
       width="46.454716"
       height="97.288208"
       x="5.0508742"
       y="25.308582"
       inkscape:path-effect="#path-effect143"
       sodipodi:type="rect"
       d="M 7.6967075,25.308582 H 48.859757 a 2.6458333,2.6458333 45 0 1 2.645833,2.645834 v 91.996544 a 2.6458333,2.6458333 135 0 1 -2.645833,2.64583 l -41.1630495,0 A 2.6458333,2.6458333 45 0 1 5.0508742,119.95096 V 27.954416 a 2.6458333,2.6458333 135 0 1 2.6458333,-2.645834 z" />
    <path
       style="display:inline;opacity:0.99;fill:none;stroke:#000000;stroke-width:0.28207px;stroke-linecap:butt;stroke-linejoin:miter;stroke-dasharray:0.28207, 0.28207;stroke-dashoffset:0;stroke-opacity:1"
       d="M 67.023308,33.379015 V 59.32248"
       id="path32405" />
    <path
       style="display:inline;opacity:0.99;fill:none;stroke:#000000;stroke-width:0.28207px;stroke-linecap:butt;stroke-linejoin:miter;stroke-dasharray:0.28207, 0.28207;stroke-dashoffset:0;stroke-opacity:1"
       d="M 67.023308,79.586614 V 105.53007"
       id="path22037" />
  </g>
  <g
     inkscape:groupmode="layer"
     id="layer2"
     inkscape:label="layout"
     style="display:inline">
    <g
       id="path1674">
      <path
         style="color:#000000;fill:#b1b1b1;stroke-width:0.264583;-inkscape-stroke:none"
         d="m 6.5637428,27.901876 a 0.05502102,0.05502102 0 0 1 -0.055021,0.05502 0.05502102,0.05502102 0 0 1 -0.055021,-0.05502 0.05502102,0.05502102 0 0 1 0.055021,-0.05502 0.05502102,0.05502102 0 0 1 0.055021,0.05502 z"
         id="path3748" />
      <path
         style="color:#000000;fill:#980000;-inkscape-stroke:none"
         d="m 6.5078125,27.714844 c -0.1018815,0 -0.185545,0.08562 -0.1855469,0.1875 1.9e-6,0.101881 0.083665,0.1875 0.1855469,0.1875 0.1018815,0 0.1874981,-0.08562 0.1875,-0.1875 -1.9e-6,-0.101882 -0.085618,-0.1875 -0.1875,-0.1875 z m 0,0.109375 c 0.041108,0 0.078124,0.03702 0.078125,0.07813 -8e-7,0.04111 -0.037017,0.07617 -0.078125,0.07617 -0.041108,0 -0.076171,-0.03506 -0.076172,-0.07617 8e-7,-0.04111 0.035064,-0.07813 0.076172,-0.07813 z"
         id="path3750" />
    </g>
    <g
       aria-label="SOURCES"
       id="text2294"
       style="font-weight:bold;font-size:2.82222px;line-height:1.25;-inkscape-font-specification:'sans-serif, Bold';stroke-width:0.264583">
      <path
         d="m 8.083915,28.925069 q 0,0.303168 -0.2576929,0.493337 -0.2563149,0.188791 -0.6972868,0.188791 -0.2549369,0 -0.445106,-0.0441 -0.1887911,-0.04547 -0.3541556,-0.114377 v -0.491959 h 0.057878 q 0.1639864,0.130913 0.3665579,0.201193 0.2039495,0.07028 0.3913625,0.07028 0.048231,0 0.1267794,-0.0083 0.078548,-0.0083 0.1281575,-0.02756 0.060634,-0.02481 0.099219,-0.06201 0.039963,-0.03721 0.039963,-0.110243 0,-0.06752 -0.057878,-0.115755 -0.0565,-0.04961 -0.1667425,-0.07579 -0.1157551,-0.02756 -0.2452906,-0.05099 -0.1281575,-0.02481 -0.2411565,-0.06201 -0.259071,-0.08406 -0.3734481,-0.227376 -0.112999,-0.144694 -0.112999,-0.35829 0,-0.286631 0.2563149,-0.467154 0.2576929,-0.181901 0.6614578,-0.181901 0.2025715,0 0.3996308,0.03996 0.1984373,0.03859 0.3431312,0.09784 v 0.472666 h -0.056499 q -0.1240233,-0.09922 -0.3045462,-0.165364 -0.1791448,-0.06752 -0.3665579,-0.06752 -0.066146,0 -0.1322916,0.0096 -0.064768,0.0083 -0.1254013,0.03307 -0.053743,0.02067 -0.092328,0.06339 -0.038585,0.04134 -0.038585,0.09508 0,0.08131 0.062012,0.125402 0.062012,0.04272 0.2342663,0.07855 0.1129991,0.02343 0.2163519,0.04547 0.1047308,0.02205 0.22462,0.06063 0.2356444,0.07717 0.3472654,0.210839 0.112999,0.132292 0.112999,0.34451 z"
         id="path3540" />
      <path
         d="m 10.441737,28.544731 q 0,0.490581 -0.28112,0.779969 -0.2811196,0.288009 -0.777213,0.288009 -0.4947154,0 -0.7758349,-0.288009 -0.2811196,-0.289388 -0.2811196,-0.779969 0,-0.494716 0.2811196,-0.781348 0.2811195,-0.288009 0.7758349,-0.288009 0.4933373,0 0.775835,0.288009 0.282498,0.286632 0.282498,0.781348 z m -0.7014214,0.51952 q 0.07717,-0.09371 0.1143771,-0.220486 0.037207,-0.128158 0.037207,-0.300413 0,-0.184656 -0.042719,-0.314192 -0.042719,-0.129535 -0.111621,-0.209462 -0.07028,-0.08268 -0.1626084,-0.119889 -0.09095,-0.03721 -0.1901691,-0.03721 -0.1005967,0 -0.1901691,0.03583 -0.088194,0.03583 -0.1626084,0.118511 -0.068902,0.07717 -0.112999,0.213596 -0.042719,0.135048 -0.042719,0.314193 0,0.183278 0.041341,0.312814 0.042719,0.128157 0.111621,0.209462 0.068902,0.0813 0.1612304,0.119889 0.092329,0.03858 0.1943032,0.03858 0.1019748,0 0.1943033,-0.03858 0.092328,-0.03996 0.1612303,-0.122645 z"
         id="path3542" />
      <path
         d="m 12.642462,28.827228 q 0,0.380338 -0.23151,0.58291 -0.231511,0.202571 -0.682129,0.202571 -0.450618,0 -0.682128,-0.202571 -0.230132,-0.202572 -0.230132,-0.581532 v -1.310513 h 0.531922 v 1.280196 q 0,0.213596 0.08957,0.318327 0.08957,0.104731 0.290766,0.104731 0.198438,0 0.289388,-0.100597 0.09233,-0.100597 0.09233,-0.322461 v -1.280196 h 0.531922 z"
         id="path3544" />
      <path
         d="m 14.287839,28.146478 q 0,-0.07717 -0.03169,-0.132292 -0.0317,-0.05512 -0.108865,-0.08682 -0.05374,-0.02205 -0.125402,-0.02618 -0.07166,-0.0055 -0.166742,-0.0055 h -0.191547 v 0.552593 h 0.162608 q 0.12678,0 0.212218,-0.0124 0.08544,-0.0124 0.143316,-0.0565 0.05512,-0.04272 0.07993,-0.09371 0.02618,-0.05237 0.02618,-0.139182 z m 0.825444,1.423512 h -0.6463 L 13.9075,28.817582 h -0.243912 v 0.752408 h -0.52641 v -2.051897 h 0.887455 q 0.181901,0 0.312815,0.02067 0.130913,0.02067 0.245291,0.08957 0.115755,0.0689 0.183278,0.179145 0.0689,0.108865 0.0689,0.274229 0,0.227376 -0.106109,0.370692 -0.10473,0.143316 -0.300412,0.2384 z"
         id="path3546" />
      <path
         d="m 16.272211,29.609953 q -0.228754,0 -0.423057,-0.06752 -0.192925,-0.06752 -0.332107,-0.201193 -0.139182,-0.13367 -0.216352,-0.333485 -0.07579,-0.199815 -0.07579,-0.461642 0,-0.243913 0.07304,-0.44235 0.07304,-0.198438 0.212218,-0.340376 0.133669,-0.136425 0.330729,-0.210839 0.198437,-0.07441 0.432703,-0.07441 0.129536,0 0.232889,0.01516 0.104731,0.01378 0.192925,0.03721 0.09233,0.02618 0.166742,0.05926 0.07579,0.03169 0.132292,0.05926 v 0.497472 h -0.06063 q -0.03858,-0.03307 -0.09784,-0.07855 -0.05788,-0.04548 -0.132292,-0.08957 -0.07579,-0.0441 -0.163986,-0.07441 -0.08819,-0.03032 -0.188791,-0.03032 -0.111621,0 -0.212218,0.03583 -0.100597,0.03445 -0.186035,0.115756 -0.0813,0.07855 -0.132292,0.208083 -0.04961,0.129536 -0.04961,0.314193 0,0.192925 0.05374,0.32246 0.05512,0.129536 0.137804,0.20395 0.08406,0.07579 0.187413,0.108865 0.103353,0.03169 0.20395,0.03169 0.09646,0 0.190169,-0.02894 0.09508,-0.02894 0.175011,-0.07855 0.06752,-0.03996 0.125401,-0.08544 0.05788,-0.04547 0.09509,-0.07855 h 0.05512 v 0.490581 q -0.07717,0.03445 -0.14745,0.06477 -0.07028,0.03032 -0.14745,0.05237 -0.100597,0.02894 -0.188791,0.0441 -0.08819,0.01516 -0.242535,0.01516 z"
         id="path3548" />
      <path
         d="m 18.87119,29.56999 h -1.484146 v -2.051897 h 1.484146 v 0.396875 h -0.957736 v 0.354155 h 0.888834 v 0.396875 h -0.888834 v 0.507117 h 0.957736 z"
         id="path3550" />
      <path
         d="m 20.957538,28.925069 q 0,0.303168 -0.257693,0.493337 -0.256315,0.188791 -0.697287,0.188791 -0.254937,0 -0.445106,-0.0441 -0.188791,-0.04547 -0.354155,-0.114377 v -0.491959 h 0.05788 q 0.163987,0.130913 0.366558,0.201193 0.20395,0.07028 0.391363,0.07028 0.04823,0 0.126779,-0.0083 0.07855,-0.0083 0.128157,-0.02756 0.06063,-0.02481 0.09922,-0.06201 0.03996,-0.03721 0.03996,-0.110243 0,-0.06752 -0.05788,-0.115755 -0.0565,-0.04961 -0.166743,-0.07579 -0.115755,-0.02756 -0.24529,-0.05099 -0.128158,-0.02481 -0.241157,-0.06201 -0.259071,-0.08406 -0.373448,-0.227376 -0.112999,-0.144694 -0.112999,-0.35829 0,-0.286631 0.256315,-0.467154 0.257693,-0.181901 0.661458,-0.181901 0.202571,0 0.39963,0.03996 0.198438,0.03859 0.343132,0.09784 v 0.472666 h -0.0565 q -0.124023,-0.09922 -0.304546,-0.165364 -0.179145,-0.06752 -0.366558,-0.06752 -0.06615,0 -0.132291,0.0096 -0.06477,0.0083 -0.125402,0.03307 -0.05374,0.02067 -0.09233,0.06339 -0.03858,0.04134 -0.03858,0.09508 0,0.08131 0.06201,0.125402 0.06201,0.04272 0.234267,0.07855 0.112999,0.02343 0.216351,0.04547 0.104731,0.02205 0.224621,0.06063 0.235644,0.07717 0.347265,0.210839 0.112999,0.132292 0.112999,0.34451 z"
         id="path3552" />
    </g>
    <g
       aria-label="OUT1"
       id="text2294-6"
       style="font-weight:bold;font-size:2.82222px;line-height:1.25;-inkscape-font-specification:'sans-serif, Bold';stroke-width:0.264583">
      <path
         d="m 31.358997,28.519927 q 0,0.490582 -0.281119,0.779969 -0.28112,0.28801 -0.777213,0.28801 -0.494716,0 -0.775835,-0.28801 -0.28112,-0.289387 -0.28112,-0.779969 0,-0.494715 0.28112,-0.781347 0.281119,-0.288009 0.775835,-0.288009 0.493337,0 0.775835,0.288009 0.282497,0.286632 0.282497,0.781347 z m -0.701421,0.51952 q 0.07717,-0.09371 0.114377,-0.220486 0.03721,-0.128157 0.03721,-0.300412 0,-0.184657 -0.04272,-0.314192 -0.04272,-0.129536 -0.111621,-0.209462 -0.07028,-0.08268 -0.162608,-0.119889 -0.09095,-0.03721 -0.190169,-0.03721 -0.100597,0 -0.190169,0.03583 -0.08819,0.03583 -0.162609,0.118511 -0.0689,0.07717 -0.112999,0.213596 -0.04272,0.135048 -0.04272,0.314192 0,0.183279 0.04134,0.312815 0.04272,0.128157 0.111621,0.209461 0.0689,0.08131 0.16123,0.11989 0.09233,0.03859 0.194304,0.03859 0.101974,0 0.194303,-0.03859 0.09233,-0.03996 0.16123,-0.122646 z"
         id="path3531" />
      <path
         d="m 33.559723,28.802425 q 0,0.380338 -0.231511,0.58291 -0.23151,0.202571 -0.682128,0.202571 -0.450618,0 -0.682128,-0.202571 -0.230133,-0.202572 -0.230133,-0.581532 V 27.49329 h 0.531923 v 1.280196 q 0,0.213596 0.08957,0.318327 0.08957,0.104731 0.290766,0.104731 0.198437,0 0.289388,-0.100597 0.09233,-0.100597 0.09233,-0.322461 V 27.49329 h 0.531923 z"
         id="path3533" />
      <path
         d="m 35.659851,27.890164 h -0.640787 v 1.655023 H 34.489898 V 27.890164 H 33.849111 V 27.49329 h 1.81074 z"
         id="path3535" />
      <path
         d="m 37.452677,29.545187 h -1.369769 v -0.35829 h 0.432704 v -1.084515 h -0.432704 v -0.334863 q 0.09922,0 0.19017,-0.01102 0.09095,-0.0124 0.151584,-0.04134 0.07166,-0.03445 0.107487,-0.08957 0.03583,-0.05512 0.04134,-0.137803 h 0.45613 v 1.699119 h 0.423057 z"
         id="path3537" />
    </g>
    <g
       aria-label="LEFT"
       id="text2294-6-4"
       style="font-weight:bold;font-size:2.82222px;line-height:1.25;-inkscape-font-specification:'sans-serif, Bold';display:inline;stroke-width:0.264583">
      <path
         d="M 65.591536,30.939457 H 64.111524 V 28.88756 h 0.529166 v 1.655022 h 0.950846 z"
         id="path3522" />
      <path
         d="M 67.394009,30.939457 H 65.909863 V 28.88756 h 1.484146 v 0.396874 h -0.957736 v 0.354156 h 0.888834 v 0.396875 h -0.888834 v 0.507117 h 0.957736 z"
         id="path3524" />
      <path
         d="m 69.308102,29.284434 h -0.943955 v 0.381717 H 69.2392 v 0.396874 h -0.875053 v 0.876432 h -0.52641 V 28.88756 h 1.470365 z"
         id="path3526" />
      <path
         d="m 71.278695,29.284434 h -0.640787 v 1.655023 H 70.108742 V 29.284434 H 69.467955 V 28.88756 h 1.81074 z"
         id="path3528" />
    </g>
    <g
       aria-label="RIGHT"
       id="text2294-6-4-3"
       style="font-weight:bold;font-size:2.82222px;line-height:1.25;-inkscape-font-specification:'sans-serif, Bold';display:inline;stroke-width:0.264583">
      <path
         d="m 64.112893,75.88425 q 0,-0.07717 -0.03169,-0.132292 -0.03169,-0.05512 -0.108865,-0.08682 -0.05374,-0.02205 -0.125401,-0.02618 -0.07166,-0.0055 -0.166742,-0.0055 h -0.191548 v 0.552593 h 0.162609 q 0.126779,0 0.212217,-0.0124 0.08544,-0.0124 0.143316,-0.0565 0.05512,-0.04272 0.07993,-0.09371 0.02618,-0.05237 0.02618,-0.139182 z m 0.825444,1.423512 h -0.646299 l -0.559483,-0.752408 h -0.243913 v 0.752408 h -0.52641 v -2.051897 h 0.887456 q 0.181901,0 0.312815,0.02067 0.130913,0.02067 0.24529,0.08957 0.115755,0.0689 0.183279,0.179145 0.0689,0.108865 0.0689,0.274229 0,0.227376 -0.106109,0.370692 -0.104731,0.143316 -0.300412,0.2384 z"
         id="path3511" />
      <path
         d="M 66.279168,77.307762 H 65.077519 V 76.94396 h 0.336241 v -1.324293 h -0.336241 v -0.363802 h 1.201649 v 0.363802 h -0.336241 v 1.324293 h 0.336241 z"
         id="path3513" />
      <path
         d="m 68.525368,77.190629 q -0.137804,0.05374 -0.36518,0.107487 -0.227376,0.05237 -0.453374,0.05237 -0.523654,0 -0.819932,-0.283875 -0.296278,-0.285254 -0.296278,-0.78686 0,-0.478178 0.299034,-0.770322 0.299034,-0.293522 0.833712,-0.293522 0.202572,0 0.385851,0.03721 0.183279,0.03583 0.407899,0.144694 v 0.480935 h -0.05926 q -0.03858,-0.02894 -0.112999,-0.08131 -0.07441,-0.05374 -0.143316,-0.09095 -0.07993,-0.0441 -0.187413,-0.07579 -0.106109,-0.03169 -0.225998,-0.03169 -0.14056,0 -0.254937,0.04134 -0.114377,0.04134 -0.205327,0.12678 -0.08682,0.08268 -0.137804,0.210839 -0.04961,0.12678 -0.04961,0.293522 0,0.340375 0.180523,0.520898 0.180522,0.180523 0.5333,0.180523 0.03032,0 0.06615,-0.0014 0.03721,-0.0014 0.06752,-0.0041 V 76.565 h -0.409277 v -0.387228 h 0.946711 z"
         id="path3515" />
      <path
         d="M 70.839093,77.307762 H 70.309926 V 76.40377 h -0.781347 v 0.903992 h -0.529166 v -2.051897 h 0.529166 v 0.75103 h 0.781347 v -0.75103 h 0.529167 z"
         id="path3517" />
      <path
         d="m 72.96816,75.65274 h -0.640787 v 1.655022 H 71.798207 V 75.65274 h -0.640788 v -0.396875 h 1.810741 z"
         id="path3519" />
    </g>
    <g
       aria-label="OUT2"
       id="text2294-0"
       style="font-weight:bold;font-size:2.82222px;line-height:1.25;-inkscape-font-specification:'sans-serif, Bold';stroke-width:0.264583">
      <path
         d="m 42.84676,28.519927 q 0,0.490582 -0.28112,0.779969 -0.28112,0.28801 -0.777213,0.28801 -0.494715,0 -0.775835,-0.28801 -0.281119,-0.289387 -0.281119,-0.779969 0,-0.494715 0.281119,-0.781347 0.28112,-0.288009 0.775835,-0.288009 0.493337,0 0.775835,0.288009 0.282498,0.286632 0.282498,0.781347 z m -0.701421,0.51952 q 0.07717,-0.09371 0.114377,-0.220486 0.03721,-0.128157 0.03721,-0.300412 0,-0.184657 -0.04272,-0.314192 -0.04272,-0.129536 -0.111621,-0.209462 -0.07028,-0.08268 -0.162609,-0.119889 -0.09095,-0.03721 -0.190169,-0.03721 -0.100597,0 -0.190169,0.03583 -0.08819,0.03583 -0.162608,0.118511 -0.0689,0.07717 -0.112999,0.213596 -0.04272,0.135048 -0.04272,0.314192 0,0.183279 0.04134,0.312815 0.04272,0.128157 0.111621,0.209461 0.0689,0.08131 0.16123,0.11989 0.09233,0.03859 0.194303,0.03859 0.101975,0 0.194303,-0.03859 0.09233,-0.03996 0.161231,-0.122646 z"
         id="path3502" />
      <path
         d="m 45.047485,28.802425 q 0,0.380338 -0.23151,0.58291 -0.23151,0.202571 -0.682129,0.202571 -0.450618,0 -0.682128,-0.202571 -0.230132,-0.202572 -0.230132,-0.581532 V 27.49329 h 0.531922 v 1.280196 q 0,0.213596 0.08957,0.318327 0.08957,0.104731 0.290765,0.104731 0.198438,0 0.289388,-0.100597 0.09233,-0.100597 0.09233,-0.322461 V 27.49329 h 0.531922 z"
         id="path3504" />
      <path
         d="m 47.147614,27.890164 h -0.640787 v 1.655023 H 45.97766 V 27.890164 H 45.336873 V 27.49329 h 1.810741 z"
         id="path3506" />
      <path
         d="M 49.069975,29.545187 H 47.45905 V 29.20619 q 0.184657,-0.13367 0.369314,-0.283876 0.186035,-0.150206 0.297656,-0.259071 0.166742,-0.16123 0.237022,-0.281119 0.07028,-0.11989 0.07028,-0.237023 0,-0.14056 -0.09095,-0.216352 -0.08957,-0.07717 -0.259071,-0.07717 -0.12678,0 -0.267339,0.05237 -0.139182,0.05236 -0.259071,0.133669 h -0.0441 v -0.45613 q 0.09784,-0.04272 0.28801,-0.08544 0.191547,-0.04272 0.383094,-0.04272 0.385851,0 0.588422,0.162608 0.202572,0.16123 0.202572,0.457508 0,0.194304 -0.09784,0.369314 -0.09646,0.175011 -0.296278,0.361046 -0.125401,0.115755 -0.252181,0.213596 -0.126779,0.09646 -0.180523,0.135047 h 0.921907 z"
         id="path3508" />
    </g>
    <g
       id="path6726">
      <path
         style="color:#000000;fill:#000000;-inkscape-stroke:none"
         d="M 64.404297,17.298828 V 17.5625 h 2.423828 v 6.800781 h 0.265625 v -7.064453 z"
         id="path3902" />
      <g
         id="g3892">
        <g
           id="path3894">
          <path
             style="color:#000000;fill:#000000;fill-rule:evenodd;stroke-width:0.211666pt;-inkscape-stroke:none"
             d="m 66.961184,21.718046 -1.058332,-1.058332 1.058332,3.704162 1.058332,-3.704162 z"
             id="path3898" />
          <path
             style="color:#000000;fill:#000000;fill-rule:evenodd;-inkscape-stroke:none"
             d="m 65.617187,20.175781 1.34375,4.701172 1.34375,-4.701172 -1.34375,1.34375 z m 2.119141,0.966797 -0.775391,2.707031 -0.771484,-2.703125 0.771484,0.771485 0.09961,-0.09961 z"
             id="path3900" />
        </g>
      </g>
    </g>
    <g
       id="path6726-3">
      <path
         style="color:#000000;fill:#000000;-inkscape-stroke:none"
         d="m 66.957031,108.62109 v 7.03125 h -2.808594 v 0.26368 h 3.072266 v -7.29493 z"
         id="path3888" />
      <g
         id="g3878">
        <g
           id="path3880">
          <path
             style="color:#000000;fill:#000000;fill-rule:evenodd;stroke-width:0.211666pt;-inkscape-stroke:none"
             d="m 67.088484,111.26723 1.058332,1.05833 -1.058332,-3.70416 -1.058332,3.70416 z"
             id="path3884" />
          <path
             style="color:#000000;fill:#000000;fill-rule:evenodd;-inkscape-stroke:none"
             d="m 67.087891,108.10742 -1.34375,4.70313 1.34375,-1.34375 1.34375,1.34375 z m 0.002,1.02735 0.773437,2.70898 -0.77539,-0.77539 -0.09961,0.0996 -0.671875,0.67187 z"
             id="path3886" />
        </g>
      </g>
    </g>
    <g
       id="path7426">
      <path
         style="color:#000000;fill:#000000;-inkscape-stroke:none"
         d="m 32.806641,32.609375 v 87.037105 h 21.791015 v -0.26367 H 33.070312 V 32.609375 Z"
         id="path3874" />
      <g
         id="g3864">
        <g
           id="path3866">
          <path
             style="color:#000000;fill:#000000;fill-rule:evenodd;stroke-width:0.211666pt;-inkscape-stroke:none"
             d="m 51.952204,119.51511 -1.058332,1.05833 3.704162,-1.05833 -3.704162,-1.05833 z"
             id="path3870" />
          <path
             style="color:#000000;fill:#000000;fill-rule:evenodd;-inkscape-stroke:none"
             d="m 50.408203,118.17188 1.34375,1.34375 -1.34375,1.34375 4.703125,-1.34375 z m 0.96875,0.56835 2.707031,0.7754 -2.703125,0.77148 0.771485,-0.77148 -0.09961,-0.0996 z"
             id="path3872" />
        </g>
      </g>
    </g>
    <g
       id="path7428">
      <path
         style="color:#000000;fill:#000000;-inkscape-stroke:none"
         d="m 32.957031,13.072266 v 11.902343 h 0.263672 V 13.335938 h 21.376953 v -0.263672 z"
         id="path3860" />
      <g
         id="g3850">
        <g
           id="path3852">
          <path
             style="color:#000000;fill:#000000;fill-rule:evenodd;stroke-width:0.211666pt;-inkscape-stroke:none"
             d="m 51.952204,13.204509 -1.058332,1.058332 3.704162,-1.058332 -3.704162,-1.058332 z"
             id="path3856" />
          <path
             style="color:#000000;fill:#000000;fill-rule:evenodd;-inkscape-stroke:none"
             d="m 50.408203,11.861328 1.34375,1.34375 -1.34375,1.34375 4.703125,-1.34375 z m 0.96875,0.56836 2.707031,0.773437 -2.703125,0.773438 0.771485,-0.771485 -0.09961,-0.09961 z"
             id="path3858" />
        </g>
      </g>
    </g>
    <g
       id="path7430">
      <path
         style="color:#000000;fill:#000000;-inkscape-stroke:none"
         d="m 44.246094,20.253906 v 4.035156 h 0.263672 v -3.771484 h 10.08789 v -0.263672 z"
         id="path3846" />
      <g
         id="g3836">
        <g
           id="path3838">
          <path
             style="color:#000000;fill:#000000;fill-rule:evenodd;stroke-width:0.211666pt;-inkscape-stroke:none"
             d="m 51.952204,20.38617 -1.058332,1.058332 3.704162,-1.058332 -3.704162,-1.058332 z"
             id="path3842" />
          <path
             style="color:#000000;fill:#000000;fill-rule:evenodd;-inkscape-stroke:none"
             d="m 50.408203,19.042969 1.34375,1.34375 -1.34375,1.34375 4.703125,-1.34375 z m 0.96875,0.568359 2.707031,0.775391 -2.703125,0.771484 0.771485,-0.771484 -0.09961,-0.09961 z"
             id="path3844" />
        </g>
      </g>
    </g>
    <g
       id="path7432">
      <path
         style="color:#000000;fill:#000000;-inkscape-stroke:none"
         d="m 44.402344,32.75 v 78.63281 h 10.195312 v -0.26367 h -9.93164 V 32.75 Z"
         id="path3832" />
      <g
         id="g3822">
        <g
           id="path3824">
          <path
             style="color:#000000;fill:#000000;fill-rule:evenodd;stroke-width:0.211666pt;-inkscape-stroke:none"
             d="m 51.952204,111.25141 -1.058332,1.05833 3.704162,-1.05833 -3.704162,-1.05833 z"
             id="path3828" />
          <path
             style="color:#000000;fill:#000000;fill-rule:evenodd;-inkscape-stroke:none"
             d="m 50.408203,109.9082 1.34375,1.34375 -1.34375,1.34375 4.703125,-1.34375 z m 0.96875,0.56836 2.707031,0.77344 -2.703125,0.77344 0.771485,-0.77149 -0.09961,-0.0996 z"
             id="path3830" />
        </g>
      </g>
    </g>
    <g
       id="g2124"
       transform="translate(-1.0613266)">
      <g
         aria-label="AUDIO OUT"
         id="text23912-0"
         style="font-size:4.46091px;font-family:'.Keyboard';-inkscape-font-specification:'.Keyboard, Normal';stroke-width:0.111523">
        <path
           d="M 48.275644,5.4262853 H 46.992697 L 46.670326,6.349833 H 46.24776 l 1.187107,-3.2237044 h 0.398607 L 49.022759,6.349833 H 48.600193 Z M 47.112497,5.0864894 h 1.045525 L 47.652685,3.6467133 h -0.03703 z"
           id="path3485" />
        <path
           d="m 49.93106,5.2150019 q 0,0.182967 0.05881,0.3376177 0.05881,0.1546507 0.169898,0.2657378 0.113265,0.1110871 0.276628,0.1742543 0.165542,0.063167 0.374647,0.063167 0.209105,0 0.372469,-0.063167 0.163363,-0.063167 0.27445,-0.1742543 0.113265,-0.1110871 0.172076,-0.2657378 0.05881,-0.1546507 0.05881,-0.3376177 V 3.1261286 h 0.400785 v 2.1150115 q 0,0.2592032 -0.08713,0.4770211 -0.08713,0.2156397 -0.252669,0.3746467 -0.165541,0.1568289 -0.402963,0.2461342 -0.235243,0.087127 -0.535832,0.087127 -0.300589,0 -0.53801,-0.087127 Q 50.035613,6.2496368 49.870071,6.0928079 49.704529,5.9338009 49.617402,5.7181612 49.530275,5.5003433 49.530275,5.2411401 V 3.1261286 h 0.400785 z"
           id="path3487" />
        <path
           d="m 54.028214,3.1261286 q 0.359399,0 0.640384,0.108909 0.283163,0.1089089 0.479199,0.3158359 0.196037,0.2069269 0.298411,0.5075156 0.104553,0.2984105 0.104553,0.6795917 0,0.3811813 -0.104553,0.6817699 Q 55.343834,5.7181612 55.147797,5.9250882 54.95394,6.1320151 54.670776,6.2409241 54.387613,6.349833 54.028214,6.349833 H 52.923877 V 3.1261286 Z m -0.703552,2.8621268 h 0.677413 q 0.270095,0 0.481378,-0.082771 0.211283,-0.084949 0.357221,-0.243956 0.145938,-0.1611853 0.222174,-0.3920722 0.07624,-0.2330651 0.07624,-0.5271192 0,-0.2962323 -0.07841,-0.5292974 -0.07624,-0.2330651 -0.222174,-0.3942504 -0.145938,-0.1611852 -0.357221,-0.2461341 -0.211284,-0.084949 -0.4792,-0.084949 h -0.677413 z"
           id="path3489" />
        <path
           d="M 56.395894,6.349833 V 3.1261286 h 0.400785 V 6.349833 Z"
           id="path3491" />
        <path
           d="m 59.125152,3.0498924 q 0.344152,0 0.616425,0.1197998 0.27445,0.1176217 0.463952,0.3376177 0.191679,0.2178179 0.291876,0.5314756 0.102374,0.3114795 0.102374,0.6991953 0,0.3855376 -0.102374,0.6970172 -0.100197,0.3114795 -0.289698,0.5336538 -0.189502,0.219996 -0.463952,0.3397958 -0.272272,0.1176217 -0.618603,0.1176217 -0.34633,0 -0.620781,-0.1176217 -0.27445,-0.1197998 -0.46613,-0.3397958 -0.19168,-0.2199961 -0.294054,-0.5314756 -0.100196,-0.3136578 -0.100196,-0.6991954 0,-0.3877158 0.102374,-0.6991953 0.104553,-0.3136577 0.296232,-0.5336538 0.193858,-0.219996 0.466131,-0.3376177 0.27445,-0.1176216 0.616424,-0.1176216 z m 0,0.3702903 q -0.246134,0 -0.444348,0.093662 -0.196036,0.091483 -0.33544,0.2635596 -0.139403,0.169898 -0.213461,0.413854 -0.07406,0.243956 -0.07406,0.5467228 0,0.3005887 0.07188,0.5445447 0.07406,0.2417778 0.211284,0.4138539 0.137225,0.1720761 0.335439,0.2657378 0.198215,0.093662 0.448705,0.093662 0.248312,0 0.444349,-0.093662 0.198214,-0.093662 0.333261,-0.2657378 0.137225,-0.1720761 0.209105,-0.4138539 0.07406,-0.243956 0.07406,-0.5445447 0,-0.3027668 -0.07406,-0.5467228 Q 60.039987,3.947302 59.902762,3.777404 59.765537,3.6053279 59.569501,3.5138444 59.373464,3.4201827 59.125152,3.4201827 Z"
           id="path3493" />
        <path
           d="m 64.139319,3.0498924 q 0.344152,0 0.616425,0.1197998 0.27445,0.1176217 0.463952,0.3376177 0.191679,0.2178179 0.291875,0.5314756 0.102375,0.3114795 0.102375,0.6991953 0,0.3855376 -0.102375,0.6970172 -0.100196,0.3114795 -0.289697,0.5336538 -0.189502,0.219996 -0.463952,0.3397958 -0.272273,0.1176217 -0.618603,0.1176217 -0.34633,0 -0.620781,-0.1176217 -0.27445,-0.1197998 -0.46613,-0.3397958 -0.19168,-0.2199961 -0.294054,-0.5314756 -0.100197,-0.3136578 -0.100197,-0.6991954 0,-0.3877158 0.102375,-0.6991953 0.104552,-0.3136577 0.296232,-0.5336538 0.193858,-0.219996 0.46613,-0.3376177 0.274451,-0.1176216 0.616425,-0.1176216 z m 0,0.3702903 q -0.246134,0 -0.444348,0.093662 -0.196037,0.091483 -0.33544,0.2635596 -0.139403,0.169898 -0.213461,0.413854 -0.07406,0.243956 -0.07406,0.5467228 0,0.3005887 0.07188,0.5445447 0.07406,0.2417778 0.211284,0.4138539 0.137225,0.1720761 0.335439,0.2657378 0.198214,0.093662 0.448705,0.093662 0.248312,0 0.444348,-0.093662 0.198215,-0.093662 0.333262,-0.2657378 0.137225,-0.1720761 0.209105,-0.4138539 0.07406,-0.243956 0.07406,-0.5445447 0,-0.3027668 -0.07406,-0.5467228 Q 65.054154,3.947302 64.916929,3.777404 64.779703,3.6053279 64.583667,3.5138444 64.387631,3.4201827 64.139319,3.4201827 Z"
           id="path3495" />
        <path
           d="m 66.72264,5.2150019 q 0,0.182967 0.05881,0.3376177 0.05881,0.1546507 0.169897,0.2657378 0.113266,0.1110871 0.276629,0.1742543 0.165542,0.063167 0.374647,0.063167 0.209105,0 0.372468,-0.063167 0.163364,-0.063167 0.274451,-0.1742543 0.113265,-0.1110871 0.172076,-0.2657378 0.05881,-0.1546507 0.05881,-0.3376177 V 3.1261286 h 0.400785 v 2.1150115 q 0,0.2592032 -0.08713,0.4770211 -0.08713,0.2156397 -0.252669,0.3746467 -0.165542,0.1568289 -0.402963,0.2461342 -0.235243,0.087127 -0.535832,0.087127 -0.300589,0 -0.53801,-0.087127 Q 66.827192,6.2496368 66.661651,6.0928079 66.496109,5.9338009 66.408982,5.7181612 66.321855,5.5003433 66.321855,5.2411401 V 3.1261286 h 0.400785 z"
           id="path3497" />
        <path
           d="M 70.551876,6.349833 V 3.4877063 H 69.512885 V 3.1261286 H 71.99383 V 3.4877063 H 70.954839 V 6.349833 Z"
           id="path3499" />
      </g>
      <path
         style="color:#000000;fill:#110000;-inkscape-stroke:none"
         d="m 32.830078,3.0527344 -1.328125,0.066406 -0.0332,3.1289063 -1.123047,0.015625 -2.125,-3.1289063 -1.208984,0.00977 0.04492,3.0742187 -2.28125,-0.048828 -0.0078,-3.0195313 -1.302734,0.027344 0.0098,2.7695312 -2.146484,-2.8085937 -0.01758,3.0390625 -1.109375,0.017578 -2.052735,-3.0878906 -1.160156,0.039063 0.06055,3.1523437 -2.300781,0.017578 0.03516,-3.1894531 -1.154297,0.023437 -2.220703,3.0488281 0.08984,0.064453 2.189453,-3.0039063 0.982422,-0.017578 -0.0332,3.1855469 2.527343,-0.017578 -0.06055,-3.1562499 0.986328,-0.033203 2.052734,3.0859375 1.277344,-0.019531 0.01758,-2.8222656 2.148437,2.8124999 -0.0098,-2.9902343 1.078125,-0.021484 0.0098,3.0136719 2.50586,0.054687 -0.04687,-3.078125 1.039062,-0.00977 2.125,3.1308593 1.292969,-0.019531 0.0332,-3.1328125 1.107422,-0.054687 0.113281,3.234375 2.515625,-0.00195 -0.123047,-3.1835937 1.175782,-0.00781 0.05078,3.1953125 2.138672,-0.029297 0.05078,-3.1816406 1.273438,0.00781 1.839843,3.2148437 0.09766,-0.056641 -1.871094,-3.2695312 -1.449219,-0.00781 -0.05273,3.1835937 -1.916016,0.025391 -0.05273,-3.1933593 -1.400391,0.00977 0.123047,3.1816406 h -2.292969 z"
         id="path22502" />
    </g>
    <g
       aria-label="ZOXNOXIOUS: BEYOND OBNOXIOUS"
       id="text23912-2"
       style="font-size:2.11667px;line-height:1.25;font-family:'.Keyboard';-inkscape-font-specification:'.Keyboard, Normal';display:inline;stroke-width:0.131248">
      <path
         d="m 21.093877,125.65858 0.866098,-1.2051 v -0.0176 h -0.83716 v -0.17157 h 1.084174 v 0.1354 l -0.861965,1.20509 v 0.0176 h 0.879535 v 0.17157 h -1.130682 z"
         id="path3432" />
      <path
         d="m 23.215714,124.22817 q 0.163298,0 0.292489,0.0568 0.130225,0.0558 0.220142,0.1602 0.09095,0.10335 0.138493,0.25218 0.04858,0.1478 0.04858,0.33177 0,0.18293 -0.04858,0.33073 -0.04754,0.14779 -0.137459,0.25321 -0.08992,0.10439 -0.220142,0.16123 -0.129192,0.0558 -0.293523,0.0558 -0.164331,0 -0.294556,-0.0558 -0.130225,-0.0568 -0.221175,-0.16123 -0.09095,-0.10439 -0.139527,-0.25218 -0.04754,-0.14883 -0.04754,-0.33176 0,-0.18397 0.04858,-0.33177 0.04961,-0.14883 0.14056,-0.25321 0.09198,-0.10439 0.221175,-0.1602 0.130225,-0.0558 0.292489,-0.0558 z m 0,0.1757 q -0.116789,0 -0.21084,0.0444 -0.09302,0.0434 -0.159164,0.12506 -0.06615,0.0806 -0.101286,0.19637 -0.03514,0.11576 -0.03514,0.25942 0,0.14262 0.03411,0.25838 0.03514,0.11472 0.100252,0.19637 0.06511,0.0817 0.159164,0.12609 0.09405,0.0444 0.212907,0.0444 0.117823,0 0.21084,-0.0444 0.09405,-0.0444 0.15813,-0.12609 0.06511,-0.0816 0.09922,-0.19637 0.03514,-0.11576 0.03514,-0.25838 0,-0.14366 -0.03514,-0.25942 -0.03411,-0.11576 -0.09922,-0.19637 -0.06511,-0.0816 -0.15813,-0.12506 -0.09302,-0.0444 -0.21084,-0.0444 z"
         id="path3434" />
      <path
         d="m 24.669891,125.02399 -0.517799,-0.75965 h 0.230478 l 0.403077,0.60875 h 0.01654 l 0.409278,-0.60875 h 0.217041 l -0.530201,0.76895 0.518832,0.76068 H 25.18769 l -0.399976,-0.60358 h -0.01757 l -0.407211,0.60358 h -0.217042 z"
         id="path3436" />
      <path
         d="m 25.719958,125.79397 v -1.52963 h 0.185002 l 0.829925,1.19063 h 0.01757 v -1.19063 h 0.188102 v 1.52963 h -0.185001 l -0.829925,-1.18649 h -0.01757 v 1.18649 z"
         id="path3438" />
      <path
         d="m 27.974087,124.22817 q 0.163298,0 0.292489,0.0568 0.130225,0.0558 0.220142,0.1602 0.09095,0.10335 0.138493,0.25218 0.04858,0.1478 0.04858,0.33177 0,0.18293 -0.04858,0.33073 -0.04754,0.14779 -0.137459,0.25321 -0.08992,0.10439 -0.220142,0.16123 -0.129191,0.0558 -0.293523,0.0558 -0.164331,0 -0.294556,-0.0558 -0.130225,-0.0568 -0.221175,-0.16123 -0.09095,-0.10439 -0.139527,-0.25218 -0.04754,-0.14883 -0.04754,-0.33176 0,-0.18397 0.04858,-0.33177 0.04961,-0.14883 0.14056,-0.25321 0.09198,-0.10439 0.221175,-0.1602 0.130225,-0.0558 0.292489,-0.0558 z m 0,0.1757 q -0.116789,0 -0.21084,0.0444 -0.09302,0.0434 -0.159164,0.12506 -0.06614,0.0806 -0.101285,0.19637 -0.03514,0.11576 -0.03514,0.25942 0,0.14262 0.03411,0.25838 0.03514,0.11472 0.100252,0.19637 0.06511,0.0817 0.159164,0.12609 0.09405,0.0444 0.212907,0.0444 0.117823,0 0.21084,-0.0444 0.09405,-0.0444 0.158131,-0.12609 0.06511,-0.0816 0.09922,-0.19637 0.03514,-0.11576 0.03514,-0.25838 0,-0.14366 -0.03514,-0.25942 -0.03411,-0.11576 -0.09922,-0.19637 -0.06511,-0.0816 -0.158131,-0.12506 -0.09302,-0.0444 -0.21084,-0.0444 z"
         id="path3440" />
      <path
         d="m 29.428264,125.02399 -0.517798,-0.75965 h 0.230477 l 0.403077,0.60875 h 0.01654 l 0.409278,-0.60875 h 0.217042 l -0.530201,0.76895 0.518832,0.76068 h -0.229444 l -0.399976,-0.60358 h -0.01757 l -0.407211,0.60358 h -0.217041 z"
         id="path3442" />
      <path
         d="m 30.549645,125.79397 v -1.52963 h 0.19017 v 1.52963 z"
         id="path3444" />
      <path
         d="m 31.844658,124.22817 q 0.163298,0 0.292489,0.0568 0.130225,0.0558 0.220142,0.1602 0.09095,0.10335 0.138493,0.25218 0.04858,0.1478 0.04858,0.33177 0,0.18293 -0.04858,0.33073 -0.04754,0.14779 -0.13746,0.25321 -0.08992,0.10439 -0.220141,0.16123 -0.129192,0.0558 -0.293523,0.0558 -0.164331,0 -0.294556,-0.0558 -0.130225,-0.0568 -0.221176,-0.16123 -0.09095,-0.10439 -0.139526,-0.25218 -0.04754,-0.14883 -0.04754,-0.33176 0,-0.18397 0.04858,-0.33177 0.04961,-0.14883 0.14056,-0.25321 0.09199,-0.10439 0.221176,-0.1602 0.130225,-0.0558 0.292489,-0.0558 z m 0,0.1757 q -0.116789,0 -0.21084,0.0444 -0.09302,0.0434 -0.159164,0.12506 -0.06615,0.0806 -0.101286,0.19637 -0.03514,0.11576 -0.03514,0.25942 0,0.14262 0.03411,0.25838 0.03514,0.11472 0.100252,0.19637 0.06511,0.0817 0.159164,0.12609 0.09405,0.0444 0.212907,0.0444 0.117822,0 0.21084,-0.0444 0.09405,-0.0444 0.15813,-0.12609 0.06511,-0.0816 0.09922,-0.19637 0.03514,-0.11576 0.03514,-0.25838 0,-0.14366 -0.03514,-0.25942 -0.03411,-0.11576 -0.09922,-0.19637 -0.06511,-0.0816 -0.15813,-0.12506 -0.09302,-0.0444 -0.21084,-0.0444 z"
         id="path3446" />
      <path
         d="m 33.070425,125.2555 q 0,0.0868 0.0279,0.1602 0.02791,0.0734 0.08062,0.12609 0.05374,0.0527 0.131258,0.0827 0.07855,0.03 0.177767,0.03 0.09922,0 0.176734,-0.03 0.07752,-0.03 0.130225,-0.0827 0.05374,-0.0527 0.08165,-0.12609 0.02791,-0.0734 0.02791,-0.1602 v -0.99116 h 0.190169 v 1.00356 q 0,0.12299 -0.04134,0.22634 -0.04134,0.10232 -0.119889,0.17777 -0.07855,0.0744 -0.191203,0.11679 -0.111622,0.0413 -0.254249,0.0413 -0.142627,0 -0.255282,-0.0413 -0.112655,-0.0424 -0.191203,-0.11679 -0.07855,-0.0755 -0.119889,-0.17777 -0.04134,-0.10335 -0.04134,-0.22634 v -1.00356 h 0.19017 z"
         id="path3448" />
      <path
         d="m 34.610385,125.39399 q 0.0083,0.06 0.04031,0.10852 0.03204,0.0486 0.08268,0.0827 0.05168,0.0341 0.11989,0.0527 0.06821,0.0186 0.149862,0.0186 0.07751,0 0.142627,-0.0196 0.06511,-0.0196 0.112655,-0.0548 0.04857,-0.0351 0.07545,-0.0837 0.02687,-0.0486 0.02687,-0.10542 0,-0.0982 -0.07441,-0.16227 -0.07338,-0.0641 -0.232544,-0.10335 l -0.195338,-0.0506 q -0.104386,-0.0258 -0.179834,-0.0631 -0.07441,-0.0372 -0.12299,-0.0879 -0.04754,-0.0506 -0.07131,-0.11472 -0.02274,-0.0651 -0.02274,-0.14676 0,-0.0971 0.03824,-0.17777 0.03927,-0.0806 0.110588,-0.13746 0.07131,-0.0579 0.170533,-0.0889 0.100252,-0.032 0.221175,-0.032 0.110588,0 0.205673,0.032 0.09508,0.031 0.165364,0.0868 0.07028,0.0558 0.112655,0.13332 0.04237,0.0775 0.04858,0.17053 h -0.192236 q -0.0093,-0.0589 -0.03824,-0.10438 -0.0279,-0.0465 -0.07338,-0.0785 -0.04444,-0.0331 -0.104386,-0.0496 -0.05891,-0.0176 -0.130225,-0.0176 -0.07648,0 -0.139527,0.0186 -0.06201,0.0186 -0.106453,0.0527 -0.04341,0.0331 -0.06821,0.0806 -0.02377,0.0475 -0.02377,0.10542 0,0.0444 0.01654,0.0806 0.01654,0.0351 0.05168,0.0651 0.03514,0.0289 0.09095,0.0527 0.05581,0.0238 0.135393,0.0434 l 0.160197,0.0424 q 0.118856,0.03 0.202572,0.0692 0.08372,0.0382 0.137459,0.0899 0.05374,0.0517 0.07855,0.11783 0.0248,0.0661 0.0248,0.15089 0,0.10542 -0.04031,0.1912 -0.03927,0.0847 -0.113689,0.1447 -0.07441,0.0589 -0.179834,0.091 -0.10542,0.0331 -0.236678,0.0331 -0.121957,0 -0.223243,-0.031 -0.101286,-0.031 -0.1757,-0.0878 -0.07441,-0.0569 -0.118856,-0.13746 -0.04341,-0.0806 -0.05064,-0.17984 z"
         id="path3450" />
      <path
         d="m 36.282637,124.93407 h -0.247014 v -0.29456 h 0.247014 z m 0,0.8599 h -0.247014 v -0.29456 h 0.247014 z"
         id="path3452" />
      <path
         d="m 37.540443,125.79397 v -1.52963 h 0.584978 q 0.105421,0 0.189136,0.0269 0.08372,0.0269 0.142628,0.0765 0.05891,0.0496 0.08992,0.11989 0.03101,0.0703 0.03101,0.15813 0,0.0599 -0.02067,0.11575 -0.02067,0.0548 -0.05684,0.0992 -0.03514,0.0444 -0.08372,0.0754 -0.04754,0.03 -0.103353,0.0393 v 0.0176 q 0.07855,0.009 0.141594,0.0403 0.06305,0.031 0.107487,0.0796 0.04444,0.0486 0.06821,0.11266 0.0248,0.0641 0.0248,0.13952 0,0.10129 -0.03514,0.18087 -0.03514,0.0796 -0.102319,0.13436 -0.06615,0.0548 -0.163298,0.0847 -0.09612,0.0289 -0.218075,0.0289 z m 0.19017,-0.87023 h 0.305925 q 0.3483,0 0.3483,-0.24495 0,-0.11782 -0.07855,-0.1819 -0.07855,-0.0641 -0.221175,-0.0641 h -0.354501 z m 0.377238,0.70176 q 0.173634,0 0.262517,-0.0682 0.08888,-0.0682 0.08888,-0.20257 0,-0.13333 -0.09302,-0.19947 -0.09198,-0.0672 -0.275953,-0.0672 h -0.359668 v 0.53743 z"
         id="path3454" />
      <path
         d="m 39.914462,125.79397 h -0.947747 v -1.52963 h 0.947747 v 0.17157 h -0.757578 v 0.49093 h 0.718304 v 0.1695 h -0.718304 v 0.52606 h 0.757578 z"
         id="path3456" />
      <path
         d="m 40.681341,125.79397 v -0.65836 l -0.542603,-0.87127 h 0.217041 l 0.412379,0.67903 h 0.01654 l 0.412379,-0.67903 h 0.218074 l -0.542603,0.87127 v 0.65836 z"
         id="path3458" />
      <path
         d="m 42.326722,124.22817 q 0.163298,0 0.292489,0.0568 0.130225,0.0558 0.220142,0.1602 0.09095,0.10335 0.138493,0.25218 0.04858,0.1478 0.04858,0.33177 0,0.18293 -0.04858,0.33073 -0.04754,0.14779 -0.137459,0.25321 -0.08992,0.10439 -0.220142,0.16123 -0.129191,0.0558 -0.293523,0.0558 -0.164331,0 -0.294556,-0.0558 -0.130225,-0.0568 -0.221175,-0.16123 -0.09095,-0.10439 -0.139527,-0.25218 -0.04754,-0.14883 -0.04754,-0.33176 0,-0.18397 0.04858,-0.33177 0.04961,-0.14883 0.14056,-0.25321 0.09198,-0.10439 0.221175,-0.1602 0.130225,-0.0558 0.292489,-0.0558 z m 0,0.1757 q -0.116789,0 -0.21084,0.0444 -0.09302,0.0434 -0.159164,0.12506 -0.06615,0.0806 -0.101286,0.19637 -0.03514,0.11576 -0.03514,0.25942 0,0.14262 0.03411,0.25838 0.03514,0.11472 0.100252,0.19637 0.06511,0.0817 0.159164,0.12609 0.09405,0.0444 0.212907,0.0444 0.117823,0 0.21084,-0.0444 0.09405,-0.0444 0.158131,-0.12609 0.06511,-0.0816 0.09922,-0.19637 0.03514,-0.11576 0.03514,-0.25838 0,-0.14366 -0.03514,-0.25942 -0.03411,-0.11576 -0.09922,-0.19637 -0.06511,-0.0816 -0.158131,-0.12506 -0.09302,-0.0444 -0.21084,-0.0444 z"
         id="path3460" />
      <path
         d="m 43.357151,125.79397 v -1.52963 h 0.185002 l 0.829925,1.19063 h 0.01757 v -1.19063 h 0.188102 v 1.52963 h -0.185002 l -0.829925,-1.18649 h -0.01757 v 1.18649 z"
         id="path3462" />
      <path
         d="m 45.492425,124.26434 q 0.170533,0 0.303858,0.0517 0.134359,0.0517 0.227377,0.14986 0.09302,0.0982 0.141594,0.24081 0.04961,0.1416 0.04961,0.32247 0,0.18086 -0.04961,0.32349 -0.04858,0.14159 -0.141594,0.23978 -0.09198,0.0982 -0.226343,0.14986 -0.134359,0.0517 -0.304892,0.0517 h -0.523999 v -1.52963 z m -0.33383,1.35806 h 0.321428 q 0.128158,0 0.22841,-0.0393 0.100253,-0.0403 0.169499,-0.11576 0.06925,-0.0765 0.10542,-0.18603 0.03617,-0.11059 0.03617,-0.25012 0,-0.14056 -0.03721,-0.25114 -0.03617,-0.11059 -0.10542,-0.18707 -0.06925,-0.0765 -0.169499,-0.11679 -0.100253,-0.0403 -0.227377,-0.0403 h -0.321428 z"
         id="path3464" />
      <path
         d="m 47.893315,124.22817 q 0.163298,0 0.292489,0.0568 0.130225,0.0558 0.220142,0.1602 0.09095,0.10335 0.138493,0.25218 0.04858,0.1478 0.04858,0.33177 0,0.18293 -0.04858,0.33073 -0.04754,0.14779 -0.137459,0.25321 -0.08992,0.10439 -0.220142,0.16123 -0.129191,0.0558 -0.293523,0.0558 -0.164331,0 -0.294556,-0.0558 -0.130225,-0.0568 -0.221175,-0.16123 -0.09095,-0.10439 -0.139527,-0.25218 -0.04754,-0.14883 -0.04754,-0.33176 0,-0.18397 0.04858,-0.33177 0.04961,-0.14883 0.14056,-0.25321 0.09198,-0.10439 0.221175,-0.1602 0.130225,-0.0558 0.292489,-0.0558 z m 0,0.1757 q -0.116789,0 -0.21084,0.0444 -0.09302,0.0434 -0.159163,0.12506 -0.06615,0.0806 -0.101286,0.19637 -0.03514,0.11576 -0.03514,0.25942 0,0.14262 0.03411,0.25838 0.03514,0.11472 0.100253,0.19637 0.06511,0.0817 0.159163,0.12609 0.09405,0.0444 0.212907,0.0444 0.117823,0 0.210841,-0.0444 0.09405,-0.0444 0.15813,-0.12609 0.06511,-0.0816 0.09922,-0.19637 0.03514,-0.11576 0.03514,-0.25838 0,-0.14366 -0.03514,-0.25942 -0.03411,-0.11576 -0.09922,-0.19637 -0.06511,-0.0816 -0.15813,-0.12506 -0.09302,-0.0444 -0.210841,-0.0444 z"
         id="path3466" />
      <path
         d="m 48.923746,125.79397 v -1.52963 h 0.584978 q 0.10542,0 0.189136,0.0269 0.08372,0.0269 0.142627,0.0765 0.05891,0.0496 0.08992,0.11989 0.03101,0.0703 0.03101,0.15813 0,0.0599 -0.02067,0.11575 -0.02067,0.0548 -0.05684,0.0992 -0.03514,0.0444 -0.08372,0.0754 -0.04754,0.03 -0.103353,0.0393 v 0.0176 q 0.07855,0.009 0.141593,0.0403 0.06305,0.031 0.107487,0.0796 0.04444,0.0486 0.06821,0.11266 0.02481,0.0641 0.02481,0.13952 0,0.10129 -0.03514,0.18087 -0.03514,0.0796 -0.102319,0.13436 -0.06615,0.0548 -0.163298,0.0847 -0.09612,0.0289 -0.218075,0.0289 z m 0.19017,-0.87023 h 0.305925 q 0.348299,0 0.348299,-0.24495 0,-0.11782 -0.07855,-0.1819 -0.07855,-0.0641 -0.221176,-0.0641 h -0.3545 z m 0.377238,0.70176 q 0.173633,0 0.262517,-0.0682 0.08888,-0.0682 0.08888,-0.20257 0,-0.13333 -0.09302,-0.19947 -0.09198,-0.0672 -0.275953,-0.0672 h -0.359668 v 0.53743 z"
         id="path3468" />
      <path
         d="m 50.350017,125.79397 v -1.52963 h 0.185002 l 0.829925,1.19063 h 0.01757 v -1.19063 h 0.188103 v 1.52963 h -0.185002 l -0.829925,-1.18649 h -0.01757 v 1.18649 z"
         id="path3470" />
      <path
         d="m 52.604146,124.22817 q 0.163298,0 0.292489,0.0568 0.130225,0.0558 0.220142,0.1602 0.09095,0.10335 0.138493,0.25218 0.04858,0.1478 0.04858,0.33177 0,0.18293 -0.04858,0.33073 -0.04754,0.14779 -0.137459,0.25321 -0.08992,0.10439 -0.220142,0.16123 -0.129192,0.0558 -0.293523,0.0558 -0.164331,0 -0.294556,-0.0558 -0.130225,-0.0568 -0.221176,-0.16123 -0.09095,-0.10439 -0.139526,-0.25218 -0.04754,-0.14883 -0.04754,-0.33176 0,-0.18397 0.04858,-0.33177 0.04961,-0.14883 0.140561,-0.25321 0.09198,-0.10439 0.221175,-0.1602 0.130225,-0.0558 0.292489,-0.0558 z m 0,0.1757 q -0.116789,0 -0.21084,0.0444 -0.09302,0.0434 -0.159164,0.12506 -0.06615,0.0806 -0.101286,0.19637 -0.03514,0.11576 -0.03514,0.25942 0,0.14262 0.03411,0.25838 0.03514,0.11472 0.100252,0.19637 0.06511,0.0817 0.159164,0.12609 0.09405,0.0444 0.212907,0.0444 0.117823,0 0.21084,-0.0444 0.09405,-0.0444 0.15813,-0.12609 0.06511,-0.0816 0.09922,-0.19637 0.03514,-0.11576 0.03514,-0.25838 0,-0.14366 -0.03514,-0.25942 -0.03411,-0.11576 -0.09922,-0.19637 -0.06511,-0.0816 -0.15813,-0.12506 -0.09302,-0.0444 -0.21084,-0.0444 z"
         id="path3472" />
      <path
         d="m 54.058324,125.02399 -0.517799,-0.75965 h 0.230478 l 0.403076,0.60875 h 0.01654 l 0.409278,-0.60875 h 0.217041 l -0.530201,0.76895 0.518832,0.76068 h -0.229443 l -0.399976,-0.60358 h -0.01757 l -0.407211,0.60358 h -0.217042 z"
         id="path3474" />
      <path
         d="m 55.179702,125.79397 v -1.52963 h 0.19017 v 1.52963 z"
         id="path3476" />
      <path
         d="m 56.474717,124.22817 q 0.163298,0 0.292489,0.0568 0.130225,0.0558 0.220142,0.1602 0.09095,0.10335 0.138493,0.25218 0.04858,0.1478 0.04858,0.33177 0,0.18293 -0.04858,0.33073 -0.04754,0.14779 -0.137459,0.25321 -0.08992,0.10439 -0.220142,0.16123 -0.129191,0.0558 -0.293523,0.0558 -0.164331,0 -0.294556,-0.0558 -0.130225,-0.0568 -0.221175,-0.16123 -0.09095,-0.10439 -0.139527,-0.25218 -0.04754,-0.14883 -0.04754,-0.33176 0,-0.18397 0.04858,-0.33177 0.04961,-0.14883 0.14056,-0.25321 0.09198,-0.10439 0.221175,-0.1602 0.130225,-0.0558 0.292489,-0.0558 z m 0,0.1757 q -0.116789,0 -0.21084,0.0444 -0.09302,0.0434 -0.159164,0.12506 -0.06615,0.0806 -0.101286,0.19637 -0.03514,0.11576 -0.03514,0.25942 0,0.14262 0.03411,0.25838 0.03514,0.11472 0.100252,0.19637 0.06511,0.0817 0.159164,0.12609 0.09405,0.0444 0.212907,0.0444 0.117823,0 0.21084,-0.0444 0.09405,-0.0444 0.15813,-0.12609 0.06511,-0.0816 0.09922,-0.19637 0.03514,-0.11576 0.03514,-0.25838 0,-0.14366 -0.03514,-0.25942 -0.03411,-0.11576 -0.09922,-0.19637 -0.06511,-0.0816 -0.15813,-0.12506 -0.09302,-0.0444 -0.21084,-0.0444 z"
         id="path3478" />
      <path
         d="m 57.700485,125.2555 q 0,0.0868 0.0279,0.1602 0.02791,0.0734 0.08062,0.12609 0.05374,0.0527 0.131258,0.0827 0.07855,0.03 0.177767,0.03 0.09922,0 0.176734,-0.03 0.07752,-0.03 0.130225,-0.0827 0.05374,-0.0527 0.08165,-0.12609 0.0279,-0.0734 0.0279,-0.1602 v -0.99116 h 0.19017 v 1.00356 q 0,0.12299 -0.04134,0.22634 -0.04134,0.10232 -0.119889,0.17777 -0.07855,0.0744 -0.191203,0.11679 -0.111622,0.0413 -0.254249,0.0413 -0.142627,0 -0.255282,-0.0413 -0.112654,-0.0424 -0.191203,-0.11679 -0.07855,-0.0755 -0.119889,-0.17777 -0.04134,-0.10335 -0.04134,-0.22634 v -1.00356 h 0.190169 z"
         id="path3480" />
      <path
         d="m 59.240443,125.39399 q 0.0083,0.06 0.04031,0.10852 0.03204,0.0486 0.08268,0.0827 0.05168,0.0341 0.11989,0.0527 0.06821,0.0186 0.149862,0.0186 0.07752,0 0.142627,-0.0196 0.06511,-0.0196 0.112655,-0.0548 0.04858,-0.0351 0.07545,-0.0837 0.02687,-0.0486 0.02687,-0.10542 0,-0.0982 -0.07441,-0.16227 -0.07338,-0.0641 -0.232544,-0.10335 l -0.195337,-0.0506 q -0.104387,-0.0258 -0.179835,-0.0631 -0.07441,-0.0372 -0.12299,-0.0879 -0.04754,-0.0506 -0.07131,-0.11472 -0.02274,-0.0651 -0.02274,-0.14676 0,-0.0971 0.03824,-0.17777 0.03927,-0.0806 0.110587,-0.13746 0.07131,-0.0579 0.170533,-0.0889 0.100252,-0.032 0.221175,-0.032 0.110588,0 0.205673,0.032 0.09509,0.031 0.165365,0.0868 0.07028,0.0558 0.112654,0.13332 0.04237,0.0775 0.04858,0.17053 h -0.192236 q -0.0093,-0.0589 -0.03824,-0.10438 -0.02791,-0.0465 -0.07338,-0.0785 -0.04444,-0.0331 -0.104387,-0.0496 -0.05891,-0.0176 -0.130225,-0.0176 -0.07648,0 -0.139526,0.0186 -0.06201,0.0186 -0.106454,0.0527 -0.04341,0.0331 -0.06821,0.0806 -0.02377,0.0475 -0.02377,0.10542 0,0.0444 0.01654,0.0806 0.01654,0.0351 0.05168,0.0651 0.03514,0.0289 0.09095,0.0527 0.05581,0.0238 0.135393,0.0434 l 0.160197,0.0424 q 0.118856,0.03 0.202572,0.0692 0.08372,0.0382 0.13746,0.0899 0.05374,0.0517 0.07855,0.11783 0.02481,0.0661 0.02481,0.15089 0,0.10542 -0.04031,0.1912 -0.03927,0.0847 -0.113688,0.1447 -0.07442,0.0589 -0.179835,0.091 -0.10542,0.0331 -0.236678,0.0331 -0.121957,0 -0.223243,-0.031 -0.101286,-0.031 -0.1757,-0.0878 -0.07441,-0.0569 -0.118856,-0.13746 -0.04341,-0.0806 -0.05064,-0.17984 z"
         id="path3482" />
    </g>
    <path
       style="color:#000000;fill:#000000;-inkscape-stroke:none"
       d="m 47.429687,36.474609 -19.996093,0.09766 0.002,0.121093 19.99414,-0.0957 z"
       id="path4227" />
    <path
       style="color:#000000;fill:#000000;-inkscape-stroke:none"
       d="m 47.410156,41.167969 -19.996094,0.0957 v 0.121094 l 19.996094,-0.0957 z"
       id="path4227-5" />
    <path
       style="color:#000000;fill:#000000;-inkscape-stroke:none"
       d="m 47.410156,49.537109 -19.996094,0.09766 v 0.121093 l 19.996094,-0.0957 z"
       id="path4227-5-5" />
    <path
       style="color:#000000;fill:#000000;-inkscape-stroke:none"
       d="m 47.410156,54.724609 -19.996094,0.0957 v 0.121094 l 19.996094,-0.0957 z"
       id="path4227-5-4" />
    <path
       style="color:#000000;fill:#000000;-inkscape-stroke:none"
       d="m 47.410156,67.787109 -19.996094,0.0957 v 0.121094 l 19.996094,-0.0957 z"
       id="path4227-5-2" />
    <path
       style="color:#000000;fill:#000000;-inkscape-stroke:none"
       d="m 47.410156,75.662109 -19.996094,0.0957 v 0.123047 l 19.996094,-0.09766 z"
       id="path4227-5-9" />
    <path
       style="color:#000000;fill:#000000;-inkscape-stroke:none"
       d="m 47.410156,80.849609 -19.996094,0.0957 v 0.121094 l 19.996094,-0.0957 z"
       id="path4227-5-24" />
    <path
       style="color:#000000;fill:#000000;-inkscape-stroke:none"
       d="m 47.410156,88.724609 -19.996094,0.0957 v 0.123047 l 19.996094,-0.09766 z"
       id="path4227-5-58" />
    <path
       style="color:#000000;fill:#000000;-inkscape-stroke:none"
       d="m 47.410156,93.912109 -19.996094,0.0957 v 0.121094 l 19.996094,-0.0957 z"
       id="path4227-5-6" />
    <path
       style="color:#000000;fill:#000000;-inkscape-stroke:none"
       d="m 47.410156,101.78711 -19.996094,0.0957 v 0.12305 l 19.996094,-0.0977 z"
       id="path4227-5-25" />
    <path
       style="color:#000000;fill:#000000;-inkscape-stroke:none"
       d="m 47.410156,106.97461 -19.996094,0.0957 v 0.1211 l 19.996094,-0.0957 z"
       id="path4227-5-13" />
    <path
       style="color:#000000;fill:#000000;-inkscape-stroke:none"
       d="m 47.410156,62.599609 -19.996094,0.09766 v 0.121093 l 19.996094,-0.0957 z"
       id="path4227-5-1" />
    <g
       aria-label="CONNECTION TO ADDITIONAL MODULES"
       transform="rotate(-90)"
       id="text92-2-1"
       style="font-size:2.46944px;line-height:1.25;font-family:'.Keyboard';-inkscape-font-specification:'.Keyboard, Normal';display:inline;stroke-width:0.0932689">
      <path
         d="m -60.565116,2.8749899 q -0.182073,0 -0.327972,-0.065112 -0.1459,-0.065112 -0.248391,-0.1856903 -0.102491,-0.1217839 -0.157957,-0.2942107 -0.05426,-0.1724267 -0.05426,-0.3882615 0,-0.2158349 0.05426,-0.3894674 0.05547,-0.1736325 0.156751,-0.2942106 0.102492,-0.1217839 0.248391,-0.1868961 0.1459,-0.065112 0.327973,-0.065112 0.141076,0 0.26286,0.042202 0.12299,0.042202 0.218246,0.1193723 0.09526,0.075964 0.157958,0.1832788 0.0627,0.1061087 0.0832,0.2351273 h -0.226687 q -0.0217,-0.086816 -0.06752,-0.1555458 -0.04582,-0.069935 -0.110932,-0.1181665 -0.06391,-0.049437 -0.144694,-0.074758 -0.08079,-0.026527 -0.172426,-0.026527 -0.129019,0 -0.232716,0.051849 -0.102492,0.050643 -0.174838,0.1458996 -0.07235,0.094051 -0.112138,0.2303042 -0.03858,0.1350475 -0.03858,0.3026511 0,0.1676036 0.03858,0.3026511 0.03979,0.1350475 0.112138,0.2303042 0.07235,0.094051 0.176044,0.1446937 0.103697,0.050643 0.232715,0.050643 0.09285,0 0.173633,-0.02291 0.08079,-0.02291 0.144694,-0.066318 0.06511,-0.043408 0.109726,-0.1049029 0.04461,-0.062701 0.06632,-0.1398707 h 0.226687 q -0.02291,0.1229897 -0.08561,0.2230696 -0.0615,0.098874 -0.155546,0.1700151 -0.09405,0.069935 -0.215835,0.1073146 -0.121783,0.038585 -0.264066,0.038585 z"
         id="path3373" />
      <path
         d="m -58.72027,1.0060289 q 0.190513,0 0.341236,0.066318 0.151928,0.065112 0.256831,0.1868961 0.106109,0.1205781 0.161575,0.2942106 0.05667,0.1724267 0.05667,0.3870558 0,0.2134233 -0.05667,0.38585 -0.05547,0.1724267 -0.160369,0.2954164 -0.104903,0.1217839 -0.256831,0.1881019 -0.150723,0.065112 -0.342442,0.065112 -0.191719,0 -0.343648,-0.065112 -0.151928,-0.066318 -0.258037,-0.1881019 -0.106109,-0.1217839 -0.162781,-0.2942106 -0.05547,-0.1736325 -0.05547,-0.3870558 0,-0.2146291 0.05667,-0.3870558 0.05788,-0.1736325 0.163986,-0.2954164 0.107315,-0.1217839 0.258038,-0.1868961 0.151928,-0.065112 0.341236,-0.065112 z m 0,0.2049828 q -0.136254,0 -0.24598,0.051849 -0.10852,0.050643 -0.18569,0.1458996 -0.07717,0.094051 -0.118167,0.2290984 -0.041,0.1350475 -0.041,0.3026511 0,0.1663978 0.03979,0.3014453 0.041,0.1338417 0.11696,0.2290984 0.07597,0.095257 0.185691,0.1471054 0.109726,0.051849 0.248391,0.051849 0.137459,0 0.245979,-0.051849 0.109726,-0.051849 0.184485,-0.1471054 0.07596,-0.095257 0.115755,-0.2290984 0.041,-0.1350475 0.041,-0.3014453 0,-0.1676036 -0.041,-0.3026511 -0.03979,-0.1350475 -0.115755,-0.2290984 -0.07597,-0.095257 -0.184485,-0.1458996 -0.10852,-0.051849 -0.245979,-0.051849 z"
         id="path3375" />
      <path
         d="M -57.518106,2.8327875 V 1.0482313 h 0.215835 l 0.968242,1.38906 h 0.0205 v -1.38906 h 0.219452 v 1.7845562 h -0.215834 l -0.968243,-1.3842369 h -0.0205 v 1.3842369 z"
         id="path3377" />
      <path
         d="M -55.638293,2.8327875 V 1.0482313 h 0.215834 l 0.968243,1.38906 h 0.0205 v -1.38906 h 0.219452 v 1.7845562 h -0.215835 l -0.968242,-1.3842369 h -0.0205 v 1.3842369 z"
         id="path3379" />
      <path
         d="M -52.652779,2.8327875 H -53.75848 V 1.0482313 h 1.105701 V 1.248391 h -0.883838 v 0.5727461 h 0.838018 v 0.1977481 h -0.838018 v 0.6137426 h 0.883838 z"
         id="path3381" />
      <path
         d="m -51.531402,2.8749899 q -0.182073,0 -0.327973,-0.065112 -0.145899,-0.065112 -0.248391,-0.1856903 -0.102491,-0.1217839 -0.157957,-0.2942107 -0.05426,-0.1724267 -0.05426,-0.3882615 0,-0.2158349 0.05426,-0.3894674 0.05547,-0.1736325 0.156752,-0.2942106 0.102491,-0.1217839 0.24839,-0.1868961 0.1459,-0.065112 0.327973,-0.065112 0.141076,0 0.26286,0.042202 0.12299,0.042202 0.218247,0.1193723 0.09526,0.075964 0.157957,0.1832788 0.0627,0.1061087 0.0832,0.2351273 h -0.226687 q -0.0217,-0.086816 -0.06752,-0.1555458 -0.04582,-0.069935 -0.110932,-0.1181665 -0.06391,-0.049437 -0.144693,-0.074758 -0.08079,-0.026527 -0.172427,-0.026527 -0.129019,0 -0.232716,0.051849 -0.102491,0.050643 -0.174838,0.1458996 -0.07235,0.094051 -0.112138,0.2303042 -0.03858,0.1350475 -0.03858,0.3026511 0,0.1676036 0.03858,0.3026511 0.03979,0.1350475 0.112138,0.2303042 0.07235,0.094051 0.176044,0.1446937 0.103697,0.050643 0.232716,0.050643 0.09284,0 0.173632,-0.02291 0.08079,-0.02291 0.144694,-0.066318 0.06511,-0.043408 0.109726,-0.1049029 0.04461,-0.062701 0.06632,-0.1398707 h 0.226687 q -0.02291,0.1229897 -0.08561,0.2230696 -0.06149,0.098874 -0.155545,0.1700151 -0.09405,0.069935 -0.215835,0.1073146 -0.121784,0.038585 -0.264066,0.038585 z"
         id="path3383" />
      <path
         d="M -50.035028,2.8327875 V 1.248391 h -0.575158 V 1.0482313 h 1.373385 V 1.248391 h -0.575158 v 1.5843965 z"
         id="path3385" />
      <path
         d="M -48.809955,2.8327875 V 1.0482313 h 0.221864 v 1.7845562 z"
         id="path3387" />
      <path
         d="m -47.29911,1.0060289 q 0.190514,0 0.341236,0.066318 0.151929,0.065112 0.256832,0.1868961 0.106108,0.1205781 0.161574,0.2942106 0.05667,0.1724267 0.05667,0.3870558 0,0.2134233 -0.05667,0.38585 -0.05547,0.1724267 -0.160369,0.2954164 -0.104903,0.1217839 -0.256831,0.1881019 -0.150723,0.065112 -0.342442,0.065112 -0.191719,0 -0.343648,-0.065112 -0.151928,-0.066318 -0.258037,-0.1881019 -0.106109,-0.1217839 -0.16278,-0.2942106 -0.05547,-0.1736325 -0.05547,-0.3870558 0,-0.2146291 0.05667,-0.3870558 0.05788,-0.1736325 0.163986,-0.2954164 0.107314,-0.1217839 0.258037,-0.1868961 0.151928,-0.065112 0.341236,-0.065112 z m 0,0.2049828 q -0.136253,0 -0.245979,0.051849 -0.108521,0.050643 -0.185691,0.1458996 -0.07717,0.094051 -0.118166,0.2290984 -0.041,0.1350475 -0.041,0.3026511 0,0.1663978 0.03979,0.3014453 0.041,0.1338417 0.116961,0.2290984 0.07596,0.095257 0.18569,0.1471054 0.109726,0.051849 0.248391,0.051849 0.137459,0 0.245979,-0.051849 0.109727,-0.051849 0.184485,-0.1471054 0.07596,-0.095257 0.115755,-0.2290984 0.041,-0.1350475 0.041,-0.3014453 0,-0.1676036 -0.041,-0.3026511 -0.03979,-0.1350475 -0.115755,-0.2290984 -0.07596,-0.095257 -0.184485,-0.1458996 -0.10852,-0.051849 -0.245979,-0.051849 z"
         id="path3389" />
      <path
         d="M -46.096946,2.8327875 V 1.0482313 h 0.215835 l 0.968242,1.38906 h 0.0205 v -1.38906 h 0.219453 v 1.7845562 h -0.215835 l -0.968243,-1.3842369 h -0.0205 v 1.3842369 z"
         id="path3391" />
      <path
         d="M -42.930564,2.8327875 V 1.248391 h -0.575158 V 1.0482313 h 1.373385 V 1.248391 h -0.575158 v 1.5843965 z"
         id="path3393" />
      <path
         d="m -41.038694,1.0060289 q 0.190514,0 0.341236,0.066318 0.151929,0.065112 0.256832,0.1868961 0.106108,0.1205781 0.161574,0.2942106 0.05667,0.1724267 0.05667,0.3870558 0,0.2134233 -0.05667,0.38585 -0.05547,0.1724267 -0.160369,0.2954164 -0.104903,0.1217839 -0.256831,0.1881019 -0.150723,0.065112 -0.342442,0.065112 -0.191719,0 -0.343648,-0.065112 -0.151928,-0.066318 -0.258037,-0.1881019 -0.106108,-0.1217839 -0.16278,-0.2942106 -0.05547,-0.1736325 -0.05547,-0.3870558 0,-0.2146291 0.05667,-0.3870558 0.05788,-0.1736325 0.163986,-0.2954164 0.107314,-0.1217839 0.258037,-0.1868961 0.151928,-0.065112 0.341236,-0.065112 z m 0,0.2049828 q -0.136253,0 -0.245979,0.051849 -0.108521,0.050643 -0.185691,0.1458996 -0.07717,0.094051 -0.118166,0.2290984 -0.041,0.1350475 -0.041,0.3026511 0,0.1663978 0.03979,0.3014453 0.041,0.1338417 0.116961,0.2290984 0.07596,0.095257 0.18569,0.1471054 0.109726,0.051849 0.248391,0.051849 0.137459,0 0.245979,-0.051849 0.109727,-0.051849 0.184485,-0.1471054 0.07596,-0.095257 0.115755,-0.2290984 0.041,-0.1350475 0.041,-0.3014453 0,-0.1676036 -0.041,-0.3026511 -0.03979,-0.1350475 -0.115755,-0.2290984 -0.07596,-0.095257 -0.184485,-0.1458996 -0.10852,-0.051849 -0.245979,-0.051849 z"
         id="path3395" />
      <path
         d="m -38.032681,2.3215363 h -0.710205 l -0.178455,0.5112512 h -0.233922 l 0.657151,-1.7845562 h 0.220658 l 0.658356,1.7845562 h -0.233921 z m -0.643887,-0.1881019 h 0.578775 L -38.377534,1.336413 h -0.0205 z"
         id="path3397" />
      <path
         d="m -36.695469,1.0482313 q 0.198954,0 0.3545,0.060289 0.156751,0.060289 0.265272,0.1748383 0.10852,0.1145492 0.165192,0.280947 0.05788,0.1651921 0.05788,0.3762038 0,0.2110117 -0.05788,0.3774095 -0.05667,0.1651921 -0.165192,0.2797413 -0.107315,0.1145492 -0.264067,0.1748383 -0.156751,0.060289 -0.355705,0.060289 H -37.3068 V 1.0482313 Z m -0.389467,1.5843965 h 0.374998 q 0.149516,0 0.266477,-0.04582 0.116961,-0.047025 0.197748,-0.1350475 0.08079,-0.089228 0.12299,-0.2170406 0.0422,-0.1290186 0.0422,-0.291799 0,-0.1639863 -0.04341,-0.2930049 -0.0422,-0.1290186 -0.122989,-0.2182464 -0.08079,-0.089228 -0.197749,-0.1362533 -0.11696,-0.047025 -0.265271,-0.047025 h -0.374998 z"
         id="path3399" />
      <path
         d="m -34.856653,1.0482313 q 0.198954,0 0.354499,0.060289 0.156752,0.060289 0.265272,0.1748383 0.108521,0.1145492 0.165192,0.280947 0.05788,0.1651921 0.05788,0.3762038 0,0.2110117 -0.05788,0.3774095 -0.05667,0.1651921 -0.165192,0.2797413 -0.107314,0.1145492 -0.264066,0.1748383 -0.156751,0.060289 -0.355705,0.060289 h -0.611331 V 1.0482313 Z m -0.389468,1.5843965 h 0.374998 q 0.149517,0 0.266478,-0.04582 0.116961,-0.047025 0.197748,-0.1350475 0.08079,-0.089228 0.12299,-0.2170406 0.0422,-0.1290186 0.0422,-0.291799 0,-0.1639863 -0.04341,-0.2930049 -0.0422,-0.1290186 -0.12299,-0.2182464 -0.08079,-0.089228 -0.197748,-0.1362533 -0.116961,-0.047025 -0.265272,-0.047025 h -0.374998 z"
         id="path3401" />
      <path
         d="M -33.54597,2.8327875 V 1.0482313 h 0.221864 v 1.7845562 z"
         id="path3403" />
      <path
         d="M -32.322101,2.8327875 V 1.248391 h -0.575158 V 1.0482313 h 1.373385 V 1.248391 h -0.575158 v 1.5843965 z"
         id="path3405" />
      <path
         d="M -31.097028,2.8327875 V 1.0482313 h 0.221864 v 1.7845562 z"
         id="path3407" />
      <path
         d="m -29.586183,1.0060289 q 0.190513,0 0.341236,0.066318 0.151928,0.065112 0.256831,0.1868961 0.106109,0.1205781 0.161575,0.2942106 0.05667,0.1724267 0.05667,0.3870558 0,0.2134233 -0.05667,0.38585 -0.05547,0.1724267 -0.160369,0.2954164 -0.104903,0.1217839 -0.256831,0.1881019 -0.150723,0.065112 -0.342442,0.065112 -0.191719,0 -0.343648,-0.065112 -0.151928,-0.066318 -0.258037,-0.1881019 -0.106109,-0.1217839 -0.16278,-0.2942106 -0.05547,-0.1736325 -0.05547,-0.3870558 0,-0.2146291 0.05667,-0.3870558 0.05788,-0.1736325 0.163987,-0.2954164 0.107314,-0.1217839 0.258037,-0.1868961 0.151928,-0.065112 0.341236,-0.065112 z m 0,0.2049828 q -0.136253,0 -0.245979,0.051849 -0.108521,0.050643 -0.185691,0.1458996 -0.07717,0.094051 -0.118166,0.2290984 -0.041,0.1350475 -0.041,0.3026511 0,0.1663978 0.03979,0.3014453 0.041,0.1338417 0.116961,0.2290984 0.07596,0.095257 0.18569,0.1471054 0.109726,0.051849 0.248391,0.051849 0.137459,0 0.245979,-0.051849 0.109726,-0.051849 0.184485,-0.1471054 0.07596,-0.095257 0.115755,-0.2290984 0.041,-0.1350475 0.041,-0.3014453 0,-0.1676036 -0.041,-0.3026511 -0.03979,-0.1350475 -0.115755,-0.2290984 -0.07596,-0.095257 -0.184485,-0.1458996 -0.10852,-0.051849 -0.245979,-0.051849 z"
         id="path3409" />
      <path
         d="M -28.384019,2.8327875 V 1.0482313 h 0.215835 l 0.968242,1.38906 h 0.0205 v -1.38906 h 0.219453 v 1.7845562 h -0.215835 l -0.968243,-1.3842369 h -0.0205 v 1.3842369 z"
         id="path3411" />
      <path
         d="m -25.523905,2.3215363 h -0.710205 l -0.178456,0.5112512 h -0.233921 l 0.657151,-1.7845562 h 0.220658 l 0.658356,1.7845562 h -0.233921 z m -0.643887,-0.1881019 h 0.578775 L -25.868758,1.336413 h -0.0205 z"
         id="path3413" />
      <path
         d="m -23.715233,2.8327875 h -1.082791 V 1.0482313 h 0.221863 v 1.5843965 h 0.860928 z"
         id="path3415" />
      <path
         d="M -22.535981,2.8327875 V 1.0482313 h 0.258037 l 0.611331,1.477082 h 0.01929 l 0.611331,-1.477082 h 0.258038 v 1.7845562 h -0.207395 V 1.4702547 h -0.01447 l -0.5631,1.350475 h -0.188102 l -0.5631,-1.350475 h -0.01447 v 1.3625328 z"
         id="path3417" />
      <path
         d="m -19.572172,1.0060289 q 0.190514,0 0.341236,0.066318 0.151929,0.065112 0.256832,0.1868961 0.106109,0.1205781 0.161574,0.2942106 0.05667,0.1724267 0.05667,0.3870558 0,0.2134233 -0.05667,0.38585 -0.05547,0.1724267 -0.160368,0.2954164 -0.104903,0.1217839 -0.256832,0.1881019 -0.150722,0.065112 -0.342442,0.065112 -0.191719,0 -0.343647,-0.065112 -0.151929,-0.066318 -0.258038,-0.1881019 -0.106108,-0.1217839 -0.16278,-0.2942106 -0.05547,-0.1736325 -0.05547,-0.3870558 0,-0.2146291 0.05667,-0.3870558 0.05788,-0.1736325 0.163986,-0.2954164 0.107315,-0.1217839 0.258037,-0.1868961 0.151929,-0.065112 0.341236,-0.065112 z m 0,0.2049828 q -0.136253,0 -0.245979,0.051849 -0.10852,0.050643 -0.18569,0.1458996 -0.07717,0.094051 -0.118167,0.2290984 -0.041,0.1350475 -0.041,0.3026511 0,0.1663978 0.03979,0.3014453 0.041,0.1338417 0.116961,0.2290984 0.07596,0.095257 0.18569,0.1471054 0.109726,0.051849 0.248391,0.051849 0.137459,0 0.24598,-0.051849 0.109726,-0.051849 0.184484,-0.1471054 0.07596,-0.095257 0.115755,-0.2290984 0.041,-0.1350475 0.041,-0.3014453 0,-0.1676036 -0.041,-0.3026511 -0.03979,-0.1350475 -0.115755,-0.2290984 -0.07596,-0.095257 -0.184484,-0.1458996 -0.108521,-0.051849 -0.24598,-0.051849 z"
         id="path3419" />
      <path
         d="m -17.758677,1.0482313 q 0.198954,0 0.3545,0.060289 0.156752,0.060289 0.265272,0.1748383 0.10852,0.1145492 0.165192,0.280947 0.05788,0.1651921 0.05788,0.3762038 0,0.2110117 -0.05788,0.3774095 -0.05667,0.1651921 -0.165192,0.2797413 -0.107315,0.1145492 -0.264066,0.1748383 -0.156752,0.060289 -0.355706,0.060289 h -0.611331 V 1.0482313 Z m -0.389467,1.5843965 h 0.374998 q 0.149517,0 0.266478,-0.04582 0.11696,-0.047025 0.197748,-0.1350475 0.08079,-0.089228 0.122989,-0.2170406 0.0422,-0.1290186 0.0422,-0.291799 0,-0.1639863 -0.04341,-0.2930049 -0.0422,-0.1290186 -0.12299,-0.2182464 -0.08079,-0.089228 -0.197748,-0.1362533 -0.116961,-0.047025 -0.265272,-0.047025 h -0.374998 z"
         id="path3421" />
      <path
         d="m -16.303297,2.2045755 q 0,0.1012856 0.03256,0.1868961 0.03256,0.08561 0.09405,0.1471053 0.0627,0.061495 0.153134,0.096463 0.09164,0.034968 0.207394,0.034968 0.115755,0 0.206189,-0.034968 0.09043,-0.034968 0.151928,-0.096463 0.0627,-0.061495 0.09526,-0.1471053 0.03256,-0.085611 0.03256,-0.1868961 V 1.0482313 h 0.221864 v 1.1708136 q 0,0.1434879 -0.04823,0.2640661 -0.04823,0.1193723 -0.13987,0.2073943 -0.09164,0.086816 -0.22307,0.1362533 -0.130224,0.048231 -0.296622,0.048231 -0.166398,0 -0.297828,-0.048231 -0.13143,-0.049437 -0.223069,-0.1362533 -0.09164,-0.088022 -0.139871,-0.2073943 -0.04823,-0.1205782 -0.04823,-0.2640661 V 1.0482313 h 0.221864 z"
         id="path3423" />
      <path
         d="m -13.563763,2.8327875 h -1.082791 V 1.0482313 h 0.221864 v 1.5843965 h 0.860927 z"
         id="path3425" />
      <path
         d="m -12.102357,2.8327875 h -1.105702 V 1.0482313 h 1.105702 V 1.248391 h -0.883838 v 0.5727461 h 0.838018 v 0.1977481 h -0.838018 v 0.6137426 h 0.883838 z"
         id="path3427" />
      <path
         d="m -11.559754,2.3661502 q 0.0096,0.069935 0.04703,0.126607 0.03738,0.056672 0.09646,0.096463 0.06029,0.039791 0.139871,0.061495 0.07958,0.021704 0.174838,0.021704 0.09043,0 0.166398,-0.02291 0.07596,-0.02291 0.13143,-0.063906 0.05667,-0.040997 0.08802,-0.097668 0.03135,-0.056672 0.03135,-0.1229897 0,-0.1145492 -0.08682,-0.1893077 -0.08561,-0.074758 -0.271301,-0.1205781 l -0.227892,-0.059083 q -0.121784,-0.030145 -0.209806,-0.073553 -0.08682,-0.043408 -0.143488,-0.1024914 -0.05547,-0.059083 -0.0832,-0.1338417 -0.02653,-0.075964 -0.02653,-0.171221 0,-0.1133434 0.04461,-0.2073944 0.04582,-0.094051 0.129018,-0.1603689 0.0832,-0.067524 0.198954,-0.1036971 0.116961,-0.037379 0.258037,-0.037379 0.129019,0 0.239951,0.037379 0.110932,0.036173 0.192925,0.1012856 0.08199,0.065112 0.13143,0.1555458 0.04944,0.090434 0.05667,0.1989539 h -0.224276 q -0.01085,-0.06873 -0.04461,-0.1217839 -0.03256,-0.05426 -0.08561,-0.091639 -0.05185,-0.038585 -0.121784,-0.057878 -0.06873,-0.020498 -0.151928,-0.020498 -0.08923,0 -0.162781,0.021704 -0.07235,0.021704 -0.124195,0.061495 -0.05064,0.038585 -0.07958,0.094051 -0.02773,0.055466 -0.02773,0.1229897 0,0.051849 0.01929,0.094051 0.01929,0.040997 0.06029,0.075964 0.041,0.033762 0.106109,0.061495 0.06511,0.027733 0.157957,0.050643 l 0.186896,0.049437 q 0.138665,0.034968 0.236333,0.080787 0.09767,0.044614 0.160369,0.104903 0.0627,0.060289 0.09164,0.137459 0.02894,0.07717 0.02894,0.1760441 0,0.1229897 -0.04702,0.2230695 -0.04582,0.098874 -0.132636,0.1688094 -0.08682,0.068729 -0.209806,0.1061088 -0.12299,0.038585 -0.276124,0.038585 -0.142282,0 -0.260449,-0.036174 -0.118166,-0.036173 -0.204983,-0.1024914 -0.08682,-0.066318 -0.138664,-0.1603689 -0.05064,-0.094051 -0.05908,-0.2098059 z"
         id="path3429" />
    </g>
    <g
       aria-label="OUT2"
       id="text2617"
       style="font-weight:bold;font-size:2.82222px;line-height:1.25;-inkscape-font-specification:'sans-serif, Bold';stroke-width:0.264583">
      <path
         d="m 57.030323,23.401836 q 0,0.490581 -0.28112,0.779969 -0.281119,0.28801 -0.777213,0.28801 -0.494715,0 -0.775835,-0.28801 -0.281119,-0.289388 -0.281119,-0.779969 0,-0.494716 0.281119,-0.781347 0.28112,-0.28801 0.775835,-0.28801 0.493338,0 0.775835,0.28801 0.282498,0.286631 0.282498,0.781347 z m -0.701421,0.51952 q 0.07717,-0.09371 0.114377,-0.220486 0.03721,-0.128158 0.03721,-0.300412 0,-0.184657 -0.04272,-0.314193 -0.04272,-0.129535 -0.111621,-0.209461 -0.07028,-0.08268 -0.162609,-0.11989 -0.09095,-0.03721 -0.190169,-0.03721 -0.100596,0 -0.190169,0.03583 -0.08819,0.03583 -0.162608,0.118512 -0.0689,0.07717 -0.112999,0.213595 -0.04272,0.135048 -0.04272,0.314193 0,0.183279 0.04134,0.312814 0.04272,0.128158 0.111621,0.209462 0.0689,0.0813 0.16123,0.119889 0.09233,0.03858 0.194303,0.03858 0.101975,0 0.194304,-0.03858 0.09233,-0.03996 0.16123,-0.122645 z"
         id="path3364" />
      <path
         d="m 59.231048,23.684333 q 0,0.380339 -0.23151,0.58291 -0.23151,0.202572 -0.682128,0.202572 -0.450619,0 -0.682129,-0.202572 -0.230132,-0.202571 -0.230132,-0.581532 v -1.310513 h 0.531922 v 1.280197 q 0,0.213595 0.08957,0.318326 0.08957,0.104731 0.290766,0.104731 0.198437,0 0.289387,-0.100597 0.09233,-0.100596 0.09233,-0.32246 v -1.280197 h 0.531922 z"
         id="path3366" />
      <path
         d="M 61.331177,22.772073 H 60.69039 v 1.655022 h -0.529166 v -1.655022 h -0.640788 v -0.396875 h 1.810741 z"
         id="path3368" />
      <path
         d="m 63.253539,24.427095 h -1.610926 v -0.338997 q 0.184657,-0.133669 0.369314,-0.283875 0.186035,-0.150206 0.297656,-0.259071 0.166743,-0.161231 0.237022,-0.28112 0.07028,-0.119889 0.07028,-0.237022 0,-0.14056 -0.09095,-0.216352 -0.08957,-0.07717 -0.259071,-0.07717 -0.126779,0 -0.267339,0.05236 -0.139182,0.05237 -0.259071,0.13367 h -0.0441 v -0.456131 q 0.09784,-0.04272 0.288009,-0.08544 0.191547,-0.04272 0.383095,-0.04272 0.38585,0 0.588422,0.162608 0.202571,0.161231 0.202571,0.457509 0,0.194303 -0.09784,0.369314 -0.09646,0.17501 -0.296278,0.361045 -0.125401,0.115756 -0.25218,0.213596 -0.12678,0.09646 -0.180523,0.135048 h 0.921907 z"
         id="path3370" />
    </g>
    <g
       aria-label="OUT1"
       id="text2621"
       style="font-weight:bold;font-size:2.82222px;line-height:1.25;-inkscape-font-specification:'sans-serif, Bold';stroke-width:0.264583">
      <path
         d="m 57.095089,10.901817 q 0,0.490581 -0.28112,0.779969 -0.281119,0.288009 -0.777213,0.288009 -0.494715,0 -0.775835,-0.288009 -0.281119,-0.289388 -0.281119,-0.779969 0,-0.494716 0.281119,-0.781347 0.28112,-0.2880101 0.775835,-0.2880101 0.493338,0 0.775835,0.2880101 0.282498,0.286631 0.282498,0.781347 z m -0.701421,0.51952 q 0.07717,-0.09371 0.114377,-0.220486 0.03721,-0.128158 0.03721,-0.300412 0,-0.184657 -0.04272,-0.314193 -0.04272,-0.129535 -0.111621,-0.209461 -0.07028,-0.08268 -0.162609,-0.11989 -0.09095,-0.03721 -0.190169,-0.03721 -0.100596,0 -0.190169,0.03583 -0.08819,0.03583 -0.162608,0.118511 -0.0689,0.07717 -0.112999,0.213596 -0.04272,0.135048 -0.04272,0.314193 0,0.183279 0.04134,0.312814 0.04272,0.128158 0.111621,0.209462 0.0689,0.0813 0.16123,0.119889 0.09233,0.03858 0.194303,0.03858 0.101975,0 0.194304,-0.03858 0.09233,-0.03996 0.16123,-0.122645 z"
         id="path3355" />
      <path
         d="m 59.295814,11.184314 q 0,0.380339 -0.23151,0.58291 -0.23151,0.202571 -0.682128,0.202571 -0.450619,0 -0.682129,-0.202571 -0.230132,-0.202571 -0.230132,-0.581532 V 9.875179 h 0.531922 v 1.280197 q 0,0.213595 0.08957,0.318326 0.08957,0.104731 0.290766,0.104731 0.198437,0 0.289387,-0.100597 0.09233,-0.100596 0.09233,-0.32246 V 9.875179 h 0.531922 z"
         id="path3357" />
      <path
         d="m 61.395943,10.272054 h -0.640787 v 1.655022 H 60.22599 V 10.272054 H 59.585202 V 9.875179 h 1.810741 z"
         id="path3359" />
      <path
         d="M 63.188769,11.927076 H 61.819 v -0.358289 h 0.432704 V 10.484271 H 61.819 v -0.334863 q 0.09922,0 0.190169,-0.01102 0.09095,-0.0124 0.151584,-0.04134 0.07166,-0.03445 0.107487,-0.08957 0.03583,-0.055122 0.04134,-0.1378041 h 0.456131 v 1.6991201 h 0.423057 z"
         id="path3361" />
    </g>
    <g
       aria-label="OUT1"
       id="text2625"
       style="font-weight:bold;font-size:2.82222px;line-height:1.25;-inkscape-font-specification:'sans-serif, Bold';stroke-width:0.264583">
      <path
         d="m 57.030323,121.54575 q 0,0.49058 -0.28112,0.77997 -0.281119,0.28801 -0.777213,0.28801 -0.494715,0 -0.775835,-0.28801 -0.281119,-0.28939 -0.281119,-0.77997 0,-0.49472 0.281119,-0.78135 0.28112,-0.28801 0.775835,-0.28801 0.493338,0 0.775835,0.28801 0.282498,0.28663 0.282498,0.78135 z m -0.701421,0.51952 q 0.07717,-0.0937 0.114377,-0.22049 0.03721,-0.12816 0.03721,-0.30041 0,-0.18466 -0.04272,-0.31419 -0.04272,-0.12954 -0.111621,-0.20947 -0.07028,-0.0827 -0.162609,-0.11988 -0.09095,-0.0372 -0.190169,-0.0372 -0.100596,0 -0.190169,0.0358 -0.08819,0.0358 -0.162608,0.11851 -0.0689,0.0772 -0.112999,0.21359 -0.04272,0.13505 -0.04272,0.3142 0,0.18328 0.04134,0.31281 0.04272,0.12816 0.111621,0.20946 0.0689,0.0813 0.16123,0.11989 0.09233,0.0386 0.194303,0.0386 0.101975,0 0.194304,-0.0386 0.09233,-0.04 0.16123,-0.12264 z"
         id="path3346" />
      <path
         d="m 59.231048,121.82824 q 0,0.38034 -0.23151,0.58291 -0.23151,0.20258 -0.682128,0.20258 -0.450619,0 -0.682129,-0.20258 -0.230132,-0.20257 -0.230132,-0.58153 v -1.31051 h 0.531922 v 1.2802 q 0,0.21359 0.08957,0.31832 0.08957,0.10473 0.290766,0.10473 0.198437,0 0.289387,-0.10059 0.09233,-0.1006 0.09233,-0.32246 v -1.2802 h 0.531922 z"
         id="path3348" />
      <path
         d="M 61.331177,120.91598 H 60.69039 v 1.65503 h -0.529166 v -1.65503 h -0.640788 v -0.39687 h 1.810741 z"
         id="path3350" />
      <path
         d="m 63.124003,122.57101 h -1.369769 v -0.35829 h 0.432704 v -1.08452 h -0.432704 v -0.33486 q 0.09922,0 0.190169,-0.011 0.09095,-0.0124 0.151584,-0.0413 0.07166,-0.0345 0.107487,-0.0896 0.03583,-0.0551 0.04134,-0.1378 h 0.456131 v 1.69912 h 0.423057 z"
         id="path3352" />
    </g>
    <g
       aria-label="OUT2"
       id="text2629"
       style="font-weight:bold;font-size:2.82222px;line-height:1.25;-inkscape-font-specification:'sans-serif, Bold';stroke-width:0.264583">
      <path
         d="m 57.095089,109.04572 q 0,0.49058 -0.28112,0.77997 -0.281119,0.28801 -0.777213,0.28801 -0.494715,0 -0.775835,-0.28801 -0.281119,-0.28939 -0.281119,-0.77997 0,-0.49472 0.281119,-0.78135 0.28112,-0.28801 0.775835,-0.28801 0.493338,0 0.775835,0.28801 0.282498,0.28663 0.282498,0.78135 z m -0.701421,0.51952 q 0.07717,-0.0937 0.114377,-0.22049 0.03721,-0.12816 0.03721,-0.30041 0,-0.18466 -0.04272,-0.31419 -0.04272,-0.12954 -0.111621,-0.20947 -0.07028,-0.0827 -0.162609,-0.11988 -0.09095,-0.0372 -0.190169,-0.0372 -0.100596,0 -0.190169,0.0358 -0.08819,0.0358 -0.162608,0.11851 -0.0689,0.0772 -0.112999,0.21359 -0.04272,0.13505 -0.04272,0.3142 0,0.18328 0.04134,0.31281 0.04272,0.12816 0.111621,0.20946 0.0689,0.0813 0.16123,0.11989 0.09233,0.0386 0.194303,0.0386 0.101975,0 0.194304,-0.0386 0.09233,-0.04 0.16123,-0.12264 z"
         id="path3337" />
      <path
         d="m 59.295814,109.32821 q 0,0.38034 -0.23151,0.58291 -0.23151,0.20258 -0.682128,0.20258 -0.450619,0 -0.682129,-0.20258 -0.230132,-0.20257 -0.230132,-0.58153 v -1.31051 h 0.531922 v 1.2802 q 0,0.21359 0.08957,0.31832 0.08957,0.10473 0.290766,0.10473 0.198437,0 0.289387,-0.10059 0.09233,-0.1006 0.09233,-0.32246 v -1.2802 h 0.531922 z"
         id="path3339" />
      <path
         d="m 61.395943,108.41595 h -0.640787 v 1.65503 H 60.22599 v -1.65503 h -0.640788 v -0.39687 h 1.810741 z"
         id="path3341" />
      <path
         d="m 63.318304,110.07098 h -1.610925 v -0.339 q 0.184657,-0.13367 0.369314,-0.28388 0.186035,-0.1502 0.297656,-0.25907 0.166743,-0.16123 0.237022,-0.28112 0.07028,-0.11989 0.07028,-0.23702 0,-0.14056 -0.09095,-0.21635 -0.08957,-0.0772 -0.259071,-0.0772 -0.12678,0 -0.267339,0.0524 -0.139182,0.0524 -0.259071,0.13367 h -0.0441 v -0.45613 q 0.09784,-0.0427 0.28801,-0.0854 0.191547,-0.0427 0.383095,-0.0427 0.38585,0 0.588421,0.1626 0.202572,0.16123 0.202572,0.45751 0,0.19431 -0.09784,0.36932 -0.09646,0.17501 -0.296278,0.36104 -0.125401,0.11576 -0.252181,0.2136 -0.126779,0.0965 -0.180522,0.13505 h 0.921906 z"
         id="path3343" />
    </g>
    <g
       aria-label="STATUS"
       transform="rotate(90)"
       id="text92-2-1-3"
       style="font-size:2.46944px;line-height:1.25;font-family:'.Keyboard';-inkscape-font-specification:'.Keyboard, Normal';display:inline;stroke-width:0.0932689">
      <path
         d="m 10.666276,-78.628808 q 0.0096,0.06994 0.04702,0.126607 0.03738,0.05667 0.09646,0.09646 0.06029,0.03979 0.13987,0.06149 0.07958,0.0217 0.174839,0.0217 0.09043,0 0.166397,-0.02291 0.07597,-0.02291 0.131431,-0.06391 0.05667,-0.041 0.08802,-0.09767 0.03135,-0.05667 0.03135,-0.12299 0,-0.114549 -0.08682,-0.189307 -0.08561,-0.07476 -0.271301,-0.120578 l -0.227893,-0.05908 q -0.121784,-0.03014 -0.209806,-0.07355 -0.08682,-0.04341 -0.143488,-0.102492 -0.05547,-0.05908 -0.0832,-0.133841 -0.02653,-0.07596 -0.02653,-0.171221 0,-0.113344 0.04461,-0.207395 0.04582,-0.09405 0.129019,-0.160369 0.0832,-0.06752 0.198954,-0.103697 0.11696,-0.03738 0.258037,-0.03738 0.129018,0 0.23995,0.03738 0.110932,0.03617 0.192925,0.101286 0.08199,0.06511 0.13143,0.155546 0.04944,0.09043 0.05667,0.198954 h -0.224275 q -0.01085,-0.06873 -0.04461,-0.121784 -0.03256,-0.05426 -0.08561,-0.09164 -0.05185,-0.03858 -0.121783,-0.05788 -0.06873,-0.0205 -0.151929,-0.0205 -0.08923,0 -0.16278,0.0217 -0.07235,0.0217 -0.124196,0.06149 -0.05064,0.03858 -0.07958,0.09405 -0.02773,0.05547 -0.02773,0.12299 0,0.05185 0.01929,0.09405 0.01929,0.041 0.06029,0.07596 0.041,0.03376 0.106109,0.06149 0.06511,0.02773 0.157957,0.05064 l 0.186896,0.04944 q 0.138665,0.03497 0.236334,0.08079 0.09767,0.04461 0.160368,0.104903 0.0627,0.06029 0.09164,0.137459 0.02894,0.07717 0.02894,0.176044 0,0.12299 -0.04703,0.22307 -0.04582,0.09887 -0.132636,0.168809 -0.08682,0.06873 -0.209806,0.106109 -0.122989,0.03858 -0.276124,0.03858 -0.142282,0 -0.260448,-0.03617 -0.118167,-0.03617 -0.204983,-0.102491 -0.08682,-0.06632 -0.138665,-0.160369 -0.05064,-0.09405 -0.05908,-0.209806 z"
         id="path5023" />
      <path
         d="m 12.60276,-78.16217 v -1.584397 h -0.575157 v -0.20016 h 1.373385 v 0.20016 H 12.82583 v 1.584397 z"
         id="path5025" />
      <path
         d="m 14.515129,-78.673422 h -0.710205 l -0.178455,0.511252 h -0.233922 l 0.657151,-1.784557 h 0.220658 l 0.658356,1.784557 h -0.233921 z m -0.643887,-0.188102 h 0.578775 l -0.279741,-0.797021 h -0.0205 z"
         id="path5027" />
      <path
         d="m 15.494224,-78.16217 v -1.584397 h -0.575158 v -0.20016 h 1.373385 v 0.20016 h -0.575157 v 1.584397 z"
         id="path5029" />
      <path
         d="m 16.863991,-78.790382 q 0,0.101285 0.03256,0.186896 0.03256,0.08561 0.09405,0.147105 0.0627,0.06149 0.153135,0.09646 0.09164,0.03497 0.207394,0.03497 0.115755,0 0.206189,-0.03497 0.09043,-0.03497 0.151928,-0.09646 0.0627,-0.0615 0.09526,-0.147105 0.03256,-0.08561 0.03256,-0.186896 v -1.156345 h 0.221864 v 1.170814 q 0,0.143488 -0.04823,0.264066 -0.04823,0.119372 -0.13987,0.207394 -0.09164,0.08682 -0.22307,0.136254 -0.130224,0.04823 -0.296622,0.04823 -0.166398,0 -0.297828,-0.04823 -0.13143,-0.04944 -0.22307,-0.136254 -0.09164,-0.08802 -0.13987,-0.207394 -0.04823,-0.120578 -0.04823,-0.264066 v -1.170814 h 0.221863 z"
         id="path5031" />
      <path
         d="m 18.660605,-78.628808 q 0.0096,0.06994 0.04703,0.126607 0.03738,0.05667 0.09646,0.09646 0.06029,0.03979 0.139871,0.06149 0.07958,0.0217 0.174838,0.0217 0.09043,0 0.166398,-0.02291 0.07596,-0.02291 0.13143,-0.06391 0.05667,-0.041 0.08802,-0.09767 0.03135,-0.05667 0.03135,-0.12299 0,-0.114549 -0.08682,-0.189307 -0.08561,-0.07476 -0.271301,-0.120578 l -0.227892,-0.05908 q -0.121784,-0.03014 -0.209806,-0.07355 -0.08682,-0.04341 -0.143488,-0.102492 -0.05547,-0.05908 -0.0832,-0.133841 -0.02653,-0.07596 -0.02653,-0.171221 0,-0.113344 0.04461,-0.207395 0.04582,-0.09405 0.129018,-0.160369 0.0832,-0.06752 0.198954,-0.103697 0.116961,-0.03738 0.258037,-0.03738 0.129019,0 0.239951,0.03738 0.110932,0.03617 0.192925,0.101286 0.08199,0.06511 0.13143,0.155546 0.04944,0.09043 0.05667,0.198954 h -0.224276 q -0.01085,-0.06873 -0.04461,-0.121784 -0.03256,-0.05426 -0.08561,-0.09164 -0.05185,-0.03858 -0.121784,-0.05788 -0.06873,-0.0205 -0.151928,-0.0205 -0.08923,0 -0.162781,0.0217 -0.07235,0.0217 -0.124195,0.06149 -0.05064,0.03858 -0.07958,0.09405 -0.02773,0.05547 -0.02773,0.12299 0,0.05185 0.01929,0.09405 0.01929,0.041 0.06029,0.07596 0.041,0.03376 0.106108,0.06149 0.06511,0.02773 0.157958,0.05064 l 0.186896,0.04944 q 0.138665,0.03497 0.236333,0.08079 0.09767,0.04461 0.160369,0.104903 0.0627,0.06029 0.09164,0.137459 0.02894,0.07717 0.02894,0.176044 0,0.12299 -0.04703,0.22307 -0.04582,0.09887 -0.132636,0.168809 -0.08682,0.06873 -0.209806,0.106109 -0.12299,0.03858 -0.276124,0.03858 -0.142282,0 -0.260449,-0.03617 -0.118167,-0.03617 -0.204983,-0.102491 -0.08682,-0.06632 -0.138665,-0.160369 -0.05064,-0.09405 -0.05908,-0.209806 z"
         id="path5033" />
    </g>
  </g>
  <g
     inkscape:label="components"
     inkscape:groupmode="layer"
     id="layer1"
     style="display:none">
    <rect
       id="f9b09e17-fc78-4216-9b09-40d2874876ff"
       data-name="Screen"
       y="100.07607"
       width="19"
       height="3.636193"
       x="6.3214049"
       style="display:inline;fill:#ffff00;stroke-width:0.0733134"
       inkscape:label="CARD6_TEXT" />
    <circle
       id="b903da6b-121c-4663-8772-b399a6eccb9e-7"
       data-name="Tempo#RoundLargeBlackKnob"
       cx="32.88792"
       cy="101.89417"
       r="1.3229166"
       style="display:inline;fill:#ff0000;stroke-width:0.264583"
       inkscape:label="CARD_F_MIX1_OUTPUT_BUTTON" />
    <circle
       id="b903da6b-121c-4663-8772-b399a6eccb9e-7-7-55"
       data-name="Tempo#RoundLargeBlackKnob"
       cx="59.084286"
       cy="115.69183"
       r="1.3229166"
       style="display:inline;fill:#ff0000;stroke-width:0.264583"
       inkscape:label="MIX_RIGHT_SELECT" />
    <circle
       id="b903da6b-121c-4663-8772-b399a6eccb9e-7-7-55-4"
       data-name="Tempo#RoundLargeBlackKnob"
       cx="59.084286"
       cy="17.478109"
       r="1.3229166"
       style="display:inline;fill:#ff0000;stroke-width:0.264583"
       inkscape:label="MIX_LEFT_SELECT" />
    <rect
       id="f9b09e17-fc78-4216-9b09-40d2874876ff-3"
       data-name="Screen"
       y="47.830082"
       width="19"
       height="3.636193"
       x="6.3214049"
       style="display:inline;fill:#ffff00;stroke-width:0.0733134"
       inkscape:label="CARD_B_TEXT" />
    <circle
       id="b903da6b-121c-4663-8772-b399a6eccb9e-7-0"
       data-name="Tempo#RoundLargeBlackKnob"
       cx="32.88792"
       cy="49.648178"
       r="1.3229166"
       style="display:inline;fill:#ff0000;stroke-width:0.264583"
       inkscape:label="CARD_B_MIX1_OUTPUT_BUTTON" />
    <rect
       id="f9b09e17-fc78-4216-9b09-40d2874876ff-09"
       data-name="Screen"
       y="73.953079"
       width="19"
       height="3.636193"
       x="6.3214049"
       style="display:inline;fill:#ffff00;stroke-width:0.0733134"
       inkscape:label="CARD_D_TEXT" />
    <circle
       id="b903da6b-121c-4663-8772-b399a6eccb9e-7-37"
       data-name="Tempo#RoundLargeBlackKnob"
       cx="32.88792"
       cy="75.771179"
       r="1.3229166"
       style="display:inline;fill:#ff0000;stroke-width:0.264583"
       inkscape:label="CARD_D_MIX1_OUTPUT_BUTTON" />
    <rect
       id="f9b09e17-fc78-4216-9b09-40d2874876ff-09-3"
       data-name="Screen"
       y="60.891579"
       width="19"
       height="3.636193"
       x="6.3214049"
       style="display:inline;fill:#ffff00;stroke-width:0.0733134"
       inkscape:label="CARD_C_TEXT" />
    <circle
       id="b903da6b-121c-4663-8772-b399a6eccb9e-7-37-0"
       data-name="Tempo#RoundLargeBlackKnob"
       cx="32.88792"
       cy="62.709679"
       r="1.3229166"
       style="display:inline;fill:#ff0000;stroke-width:0.264583"
       inkscape:label="CARD_C_MIX1_OUTPUT_BUTTON" />
    <rect
       id="f9b09e17-fc78-4216-9b09-40d2874876ff-2"
       data-name="Screen"
       y="87.014572"
       width="19"
       height="3.636193"
       x="6.3214049"
       style="display:inline;fill:#ffff00;stroke-width:0.0733134"
       inkscape:label="CARD_E_TEXT" />
    <circle
       id="b903da6b-121c-4663-8772-b399a6eccb9e-7-9"
       data-name="Tempo#RoundLargeBlackKnob"
       cx="32.88792"
       cy="88.832672"
       r="1.3229166"
       style="display:inline;fill:#ff0000;stroke-width:0.264583"
       inkscape:label="CARD_E_MIX1_OUTPUT_BUTTON" />
    <rect
       id="f9b09e17-fc78-4216-9b09-40d2874876ff-0"
       data-name="Screen"
       y="34.768585"
       width="19"
       height="3.636193"
       x="6.3214049"
       style="display:inline;fill:#ffff00;stroke-width:0.0733134"
       inkscape:label="CARD_A_TEXT" />
    <rect
       id="f9b09e17-fc78-4216-9b09-40d2874876ff-1"
       data-name="Screen"
       y="105.2627"
       width="19"
       height="3.636193"
       x="6.3214049"
       style="display:inline;fill:#ffff00;stroke-width:0.0733134"
       inkscape:label="CARD6_TEXT" />
    <rect
       id="f9b09e17-fc78-4216-9b09-40d2874876ff-3-7"
       data-name="Screen"
       y="53.016712"
       width="19"
       height="3.636193"
       x="6.3214049"
       style="display:inline;fill:#ffff00;stroke-width:0.0733134"
       inkscape:label="CARD_B_TEXT" />
    <rect
       id="f9b09e17-fc78-4216-9b09-40d2874876ff-09-2"
       data-name="Screen"
       y="79.139709"
       width="19"
       height="3.636193"
       x="6.3214049"
       style="display:inline;fill:#ffff00;stroke-width:0.0733134"
       inkscape:label="CARD_D_TEXT" />
    <rect
       id="f9b09e17-fc78-4216-9b09-40d2874876ff-09-3-3"
       data-name="Screen"
       y="66.078201"
       width="19"
       height="3.636193"
       x="6.3214049"
       style="display:inline;fill:#ffff00;stroke-width:0.0733134"
       inkscape:label="CARD_C_TEXT" />
    <rect
       id="f9b09e17-fc78-4216-9b09-40d2874876ff-2-6"
       data-name="Screen"
       y="92.201202"
       width="19"
       height="3.636193"
       x="6.3214049"
       style="display:inline;fill:#ffff00;stroke-width:0.0733134"
       inkscape:label="CARD_E_TEXT" />
    <rect
       id="f9b09e17-fc78-4216-9b09-40d2874876ff-0-5"
       data-name="Screen"
       y="39.460026"
       width="19"
       height="3.636193"
       x="6.3214049"
       style="display:inline;fill:#ffff00;stroke-width:0.0733134"
       inkscape:label="CARD_A_TEXT" />
    <circle
       id="b903da6b-121c-4663-8772-b399a6eccb9e-7-4"
       data-name="Tempo#RoundLargeBlackKnob"
       cx="32.88792"
       cy="36.586681"
       r="1.3229166"
       style="display:inline;fill:#ff0000;stroke-width:0.264583"
       inkscape:label="CARD_A_MIX1_OUTPUT_BUTTON" />
    <circle
       id="b903da6b-121c-4663-8772-b399a6eccb9e-7-7"
       data-name="Tempo#RoundLargeBlackKnob"
       cx="44.440456"
       cy="107.0808"
       r="1.3229166"
       style="display:inline;fill:#ff0000;stroke-width:0.264583"
       inkscape:label="CARD_F_MIX2_OUTPUT_BUTTON" />
    <circle
       id="b903da6b-121c-4663-8772-b399a6eccb9e-7-7-8"
       data-name="Tempo#RoundLargeBlackKnob"
       cx="44.440456"
       cy="54.834808"
       r="1.3229166"
       style="display:inline;fill:#ff0000;stroke-width:0.264583"
       inkscape:label="CARD_B_MIX2_OUTPUT_BUTTON" />
    <circle
       id="b903da6b-121c-4663-8772-b399a6eccb9e-7-7-5"
       data-name="Tempo#RoundLargeBlackKnob"
       cx="44.440456"
       cy="80.957809"
       r="1.3229166"
       style="display:inline;fill:#ff0000;stroke-width:0.264583"
       inkscape:label="CARD_D_MIX2_OUTPUT_BUTTON" />
    <circle
       id="b903da6b-121c-4663-8772-b399a6eccb9e-7-7-5-4"
       data-name="Tempo#RoundLargeBlackKnob"
       cx="44.440456"
       cy="67.896301"
       r="1.3229166"
       style="display:inline;fill:#ff0000;stroke-width:0.264583"
       inkscape:label="CARD_C_MIX2_OUTPUT_BUTTON" />
    <circle
       id="b903da6b-121c-4663-8772-b399a6eccb9e-7-7-7"
       data-name="Tempo#RoundLargeBlackKnob"
       cx="44.440456"
       cy="94.019302"
       r="1.3229166"
       style="display:inline;fill:#ff0000;stroke-width:0.264583"
       inkscape:label="CARD_E_MIX2_OUTPUT_BUTTON" />
    <circle
       id="b903da6b-121c-4663-8772-b399a6eccb9e-7-7-6"
       data-name="Tempo#RoundLargeBlackKnob"
       cx="44.440456"
       cy="41.278122"
       r="1.3229166"
       style="display:inline;fill:#ff0000;stroke-width:0.264583"
       inkscape:label="CARD_A_MIX2_OUTPUT_BUTTON" />
    <circle
       id="circle1254"
       data-name="RGreen1#RedLight"
       cx="79.054451"
       cy="8.21875"
       r="0.79374999"
       style="display:inline;opacity:0.99;fill:#ff00ff;stroke-width:0.264583"
       inkscape:label="RIGHT_EXPANDER_LIGHT" />
    <circle
       id="b9452edd-6f79-47c8-a395-da97cf0e28c9-8"
       data-name="RGreen1#RedLight"
       cx="2.0200968"
       cy="8.21875"
       r="0.79374999"
       style="display:inline;opacity:0.99;fill:#ff00ff;stroke-width:0.264583"
       inkscape:label="LEFT_EXPANDER_LIGHT" />
    <circle
       id="circle32407"
       data-name="In03#PJ301MPort"
       cx="67.023308"
       cy="54.151253"
       r="1.3229166"
       style="display:inline;opacity:0.99;fill:#00ff00;stroke-width:0.264583"
       inkscape:label="LEFT_LEVEL_INPUT"
       inkscape:transform-center-x="-0.12594097"
       inkscape:transform-center-y="12.007235" />
    <circle
       id="circle32409"
       data-name="Tempo#RoundLargeBlackKnob"
       cx="67.023308"
       cy="40.788826"
       r="1.3229166"
       style="display:inline;opacity:0.99;fill:#ff0000;stroke-width:0.264583"
       inkscape:label="LEFT_LEVEL_KNOB" />
    <circle
       id="circle32415"
       data-name="RGreen1#RedLight"
       cx="72.108772"
       cy="47.035465"
       r="0.79374999"
       style="display:inline;opacity:0.99;fill:#ff00ff;stroke-width:0.264583"
       inkscape:label="LEFT_LEVEL_CLIP" />
    <circle
       id="circle22039"
       data-name="In03#PJ301MPort"
       cx="67.023308"
       cy="100.35885"
       r="1.3229166"
       style="display:inline;opacity:0.99;fill:#00ff00;stroke-width:0.264583"
       inkscape:label="RIGHT_LEVEL_INPUT"
       inkscape:transform-center-x="-0.12594097"
       inkscape:transform-center-y="12.007235" />
    <circle
       id="circle22041"
       data-name="Tempo#RoundLargeBlackKnob"
       cx="67.023308"
       cy="86.996422"
       r="1.3229166"
       style="display:inline;opacity:0.99;fill:#ff0000;stroke-width:0.264583"
       inkscape:label="RIGHT_LEVEL_KNOB" />
    <circle
       id="circle22043"
       data-name="RGreen1#RedLight"
       cx="72.108772"
       cy="93.243065"
       r="0.79374999"
       style="display:inline;opacity:0.99;fill:#ff00ff;stroke-width:0.264583"
       inkscape:label="RIGHT_LEVEL_CLIP" />
  </g>
</svg>
