<?xml version="1.0" encoding="UTF-8" standalone="no"?>
<!-- Created with Inkscape (http://www.inkscape.org/) -->

<svg
   width="162.56mm"
   height="128.5mm"
   viewBox="0 0 162.56 128.5"
   version="1.1"
   id="svg1199"
   inkscape:version="1.1.2 (b8e25be8, 2022-02-05)"
   sodipodi:docname="PatchingMatrix.svg"
   xmlns:inkscape="http://www.inkscape.org/namespaces/inkscape"
   xmlns:sodipodi="http://sodipodi.sourceforge.net/DTD/sodipodi-0.dtd"
   xmlns="http://www.w3.org/2000/svg"
   xmlns:svg="http://www.w3.org/2000/svg">
  <sodipodi:namedview
     id="namedview1201"
     pagecolor="#ffffff"
     bordercolor="#666666"
     borderopacity="1.0"
     inkscape:pageshadow="2"
     inkscape:pageopacity="0.0"
     inkscape:pagecheckerboard="0"
     inkscape:document-units="mm"
     showgrid="false"
     inkscape:zoom="0.95389228"
     inkscape:cx="273.09163"
     inkscape:cy="301.39672"
     inkscape:window-width="1608"
     inkscape:window-height="969"
     inkscape:window-x="33"
     inkscape:window-y="25"
     inkscape:window-maximized="0"
     inkscape:current-layer="layer1"
     inkscape:snap-nodes="false" />
  <defs
     id="defs1196">
    <marker
       style="overflow:visible"
       id="marker2980"
       refX="0"
       refY="0"
       orient="auto"
       inkscape:stockid="Arrow1Lstart"
       inkscape:isstock="true">
      <path
         transform="matrix(0.8,0,0,0.8,10,0)"
         style="fill:context-stroke;fill-rule:evenodd;stroke:context-stroke;stroke-width:1pt"
         d="M 0,0 5,-5 -12.5,0 5,5 Z"
         id="path2719" />
    </marker>
    <marker
       style="overflow:visible"
       id="Arrow1Lend"
       refX="0"
       refY="0"
       orient="auto"
       inkscape:stockid="Arrow1Lend"
       inkscape:isstock="true">
      <path
         transform="matrix(-0.8,0,0,-0.8,-10,0)"
         style="fill:context-stroke;fill-rule:evenodd;stroke:context-stroke;stroke-width:1pt"
         d="M 0,0 5,-5 -12.5,0 5,5 Z"
         id="path6358" />
    </marker>
    <marker
       style="overflow:visible"
       id="marker6625"
       refX="0"
       refY="0"
       orient="auto"
       inkscape:stockid="Arrow1Lstart"
       inkscape:isstock="true">
      <path
         transform="matrix(0.8,0,0,0.8,10,0)"
         style="fill:context-stroke;fill-rule:evenodd;stroke:context-stroke;stroke-width:1pt"
         d="M 0,0 5,-5 -12.5,0 5,5 Z"
         id="path6623" />
    </marker>
    <marker
       style="overflow:visible"
       id="Arrow1Lstart"
       refX="0"
       refY="0"
       orient="auto"
       inkscape:stockid="Arrow1Lstart"
       inkscape:isstock="true">
      <path
         transform="matrix(0.8,0,0,0.8,10,0)"
         style="fill:context-stroke;fill-rule:evenodd;stroke:context-stroke;stroke-width:1pt"
         d="M 0,0 5,-5 -12.5,0 5,5 Z"
         id="path6355" />
    </marker>
    <marker
       style="overflow:visible"
       id="Arrow1Lend-5"
       refX="0"
       refY="0"
       orient="auto"
       inkscape:stockid="Arrow1Lend"
       inkscape:isstock="true">
      <path
         transform="matrix(-0.8,0,0,-0.8,-10,0)"
         style="fill:context-stroke;fill-rule:evenodd;stroke:context-stroke;stroke-width:1pt"
         d="M 0,0 5,-5 -12.5,0 5,5 Z"
         id="path6358-6" />
    </marker>
    <marker
       style="overflow:visible"
       id="Arrow1Lend-1"
       refX="0"
       refY="0"
       orient="auto"
       inkscape:stockid="Arrow1Lend"
       inkscape:isstock="true">
      <path
         transform="matrix(-0.8,0,0,-0.8,-10,0)"
         style="fill:context-stroke;fill-rule:evenodd;stroke:context-stroke;stroke-width:1pt"
         d="M 0,0 5,-5 -12.5,0 5,5 Z"
         id="path6358-4" />
    </marker>
  </defs>
  <g
     inkscape:groupmode="layer"
     id="layer3"
     inkscape:label="background"
     style="display:inline">
    <rect
       style="display:inline;fill:#b1b1b1;fill-opacity:1;stroke:#980000;stroke-width:0.397427"
       id="rect1059"
       width="174.89293"
       height="131.50375"
       x="-2.4643173"
       y="-1.2193114" />
  </g>
  <g
     inkscape:label="components"
     inkscape:groupmode="layer"
     id="layer1"
     style="display:none">
    <rect
       id="f9b09e17-fc78-4216-9b09-40d2874876ff"
       data-name="Screen"
       y="102.07636"
       width="27.171406"
       height="3.636193"
       x="4.1701937"
       style="display:inline;fill:#ffff00;stroke-width:0.0876724"
       inkscape:label="CARD6_TEXT" />
    <circle
       id="b903da6b-121c-4663-8772-b399a6eccb9e-7"
       data-name="Tempo#RoundLargeBlackKnob"
       cx="113.46471"
       cy="103.89446"
       r="1.3229166"
       style="display:inline;fill:#ff0000;stroke-width:0.264583"
       inkscape:label="CARD_F_MIX1_OUTPUT_BUTTON" />
    <circle
       id="b903da6b-121c-4663-8772-b399a6eccb9e-7-7-55"
       data-name="Tempo#RoundLargeBlackKnob"
       cx="139.66107"
       cy="117.69212"
       r="1.3229166"
       style="display:inline;fill:#ff0000;stroke-width:0.264583"
       inkscape:label="MIX_RIGHT_SELECT" />
    <circle
       id="b903da6b-121c-4663-8772-b399a6eccb9e-7-7-55-4"
       data-name="Tempo#RoundLargeBlackKnob"
       cx="139.66107"
       cy="17.478109"
       r="1.3229166"
       style="display:inline;fill:#ff0000;stroke-width:0.264583"
       inkscape:label="MIX_LEFT_SELECT" />
    <rect
       id="f9b09e17-fc78-4216-9b09-40d2874876ff-3"
       data-name="Screen"
       y="49.830379"
       width="27.171406"
       height="3.636193"
       x="4.1701937"
       style="display:inline;fill:#ffff00;stroke-width:0.0876724"
       inkscape:label="CARD_B_TEXT" />
    <circle
       id="b903da6b-121c-4663-8772-b399a6eccb9e-7-0"
       data-name="Tempo#RoundLargeBlackKnob"
       cx="113.46471"
       cy="51.648476"
       r="1.3229166"
       style="display:inline;fill:#ff0000;stroke-width:0.264583"
       inkscape:label="CARD_B_MIX1_OUTPUT_BUTTON" />
    <rect
       id="f9b09e17-fc78-4216-9b09-40d2874876ff-09"
       data-name="Screen"
       y="75.953377"
       width="27.171406"
       height="3.636193"
       x="4.1701937"
       style="display:inline;fill:#ffff00;stroke-width:0.0876724"
       inkscape:label="CARD_D_TEXT" />
    <circle
       id="b903da6b-121c-4663-8772-b399a6eccb9e-7-37"
       data-name="Tempo#RoundLargeBlackKnob"
       cx="113.46471"
       cy="77.771477"
       r="1.3229166"
       style="display:inline;fill:#ff0000;stroke-width:0.264583"
       inkscape:label="CARD_D_MIX1_OUTPUT_BUTTON" />
    <rect
       id="f9b09e17-fc78-4216-9b09-40d2874876ff-09-3"
       data-name="Screen"
       y="62.891876"
       width="27.171406"
       height="3.636193"
       x="4.1701937"
       style="display:inline;fill:#ffff00;stroke-width:0.0876724"
       inkscape:label="CARD_C_TEXT" />
    <circle
       id="b903da6b-121c-4663-8772-b399a6eccb9e-7-37-0"
       data-name="Tempo#RoundLargeBlackKnob"
       cx="113.46471"
       cy="64.709976"
       r="1.3229166"
       style="display:inline;fill:#ff0000;stroke-width:0.264583"
       inkscape:label="CARD_C_MIX1_OUTPUT_BUTTON" />
    <rect
       id="f9b09e17-fc78-4216-9b09-40d2874876ff-2"
       data-name="Screen"
       y="89.01487"
       width="27.171406"
       height="3.636193"
       x="4.1701937"
       style="display:inline;fill:#ffff00;stroke-width:0.0876724"
       inkscape:label="CARD_E_TEXT" />
    <circle
       id="b903da6b-121c-4663-8772-b399a6eccb9e-7-9"
       data-name="Tempo#RoundLargeBlackKnob"
       cx="113.46471"
       cy="90.83297"
       r="1.3229166"
       style="display:inline;fill:#ff0000;stroke-width:0.264583"
       inkscape:label="CARD_E_MIX1_OUTPUT_BUTTON" />
    <rect
       id="f9b09e17-fc78-4216-9b09-40d2874876ff-0"
       data-name="Screen"
       y="36.768883"
       width="27.171406"
       height="3.636193"
       x="4.1701937"
       style="display:inline;fill:#ffff00;stroke-width:0.0876724"
       inkscape:label="CARD_A_TEXT" />
    <rect
       id="f9b09e17-fc78-4216-9b09-40d2874876ff-1"
       data-name="Screen"
       y="107.26299"
       width="27.171406"
       height="3.636193"
       x="4.1701937"
       style="display:inline;fill:#ffff00;stroke-width:0.0876724"
       inkscape:label="CARD6_TEXT" />
    <rect
       id="f9b09e17-fc78-4216-9b09-40d2874876ff-3-7"
       data-name="Screen"
       y="55.01701"
       width="27.171406"
       height="3.636193"
       x="4.1701937"
       style="display:inline;fill:#ffff00;stroke-width:0.0876724"
       inkscape:label="CARD_B_TEXT" />
    <rect
       id="f9b09e17-fc78-4216-9b09-40d2874876ff-09-2"
       data-name="Screen"
       y="81.140007"
       width="27.171406"
       height="3.636193"
       x="4.1701937"
       style="display:inline;fill:#ffff00;stroke-width:0.0876724"
       inkscape:label="CARD_D_TEXT" />
    <rect
       id="f9b09e17-fc78-4216-9b09-40d2874876ff-09-3-3"
       data-name="Screen"
       y="68.078499"
       width="27.171406"
       height="3.636193"
       x="4.1701937"
       style="display:inline;fill:#ffff00;stroke-width:0.0876724"
       inkscape:label="CARD_C_TEXT" />
    <rect
       id="f9b09e17-fc78-4216-9b09-40d2874876ff-2-6"
       data-name="Screen"
       y="94.2015"
       width="27.171406"
       height="3.636193"
       x="4.1701937"
       style="display:inline;fill:#ffff00;stroke-width:0.0876724"
       inkscape:label="CARD_E_TEXT" />
    <rect
       id="f9b09e17-fc78-4216-9b09-40d2874876ff-0-5"
       data-name="Screen"
       y="41.460323"
       width="27.171406"
       height="3.636193"
       x="4.1701937"
       style="display:inline;fill:#ffff00;stroke-width:0.0876724"
       inkscape:label="CARD_A_TEXT" />
    <circle
       id="b903da6b-121c-4663-8772-b399a6eccb9e-7-4"
       data-name="Tempo#RoundLargeBlackKnob"
       cx="113.46471"
       cy="38.586979"
       r="1.3229166"
       style="display:inline;fill:#ff0000;stroke-width:0.264583"
       inkscape:label="CARD_A_MIX1_OUTPUT_BUTTON" />
    <circle
       id="b903da6b-121c-4663-8772-b399a6eccb9e-7-7"
       data-name="Tempo#RoundLargeBlackKnob"
       cx="125.01724"
       cy="109.08109"
       r="1.3229166"
       style="display:inline;fill:#ff0000;stroke-width:0.264583"
       inkscape:label="CARD_F_MIX2_OUTPUT_BUTTON" />
    <circle
       id="b903da6b-121c-4663-8772-b399a6eccb9e-7-7-8"
       data-name="Tempo#RoundLargeBlackKnob"
       cx="125.01724"
       cy="56.835106"
       r="1.3229166"
       style="display:inline;fill:#ff0000;stroke-width:0.264583"
       inkscape:label="CARD_B_MIX2_OUTPUT_BUTTON" />
    <circle
       id="b903da6b-121c-4663-8772-b399a6eccb9e-7-7-5"
       data-name="Tempo#RoundLargeBlackKnob"
       cx="125.01724"
       cy="82.958107"
       r="1.3229166"
       style="display:inline;fill:#ff0000;stroke-width:0.264583"
       inkscape:label="CARD_D_MIX2_OUTPUT_BUTTON" />
    <circle
       id="b903da6b-121c-4663-8772-b399a6eccb9e-7-7-5-4"
       data-name="Tempo#RoundLargeBlackKnob"
       cx="125.01724"
       cy="69.896599"
       r="1.3229166"
       style="display:inline;fill:#ff0000;stroke-width:0.264583"
       inkscape:label="CARD_C_MIX2_OUTPUT_BUTTON" />
    <circle
       id="b903da6b-121c-4663-8772-b399a6eccb9e-7-7-7"
       data-name="Tempo#RoundLargeBlackKnob"
       cx="125.01724"
       cy="96.0196"
       r="1.3229166"
       style="display:inline;fill:#ff0000;stroke-width:0.264583"
       inkscape:label="CARD_E_MIX2_OUTPUT_BUTTON" />
    <circle
       id="b903da6b-121c-4663-8772-b399a6eccb9e-7-7-6"
       data-name="Tempo#RoundLargeBlackKnob"
       cx="125.01724"
       cy="43.278419"
       r="1.3229166"
       style="display:inline;fill:#ff0000;stroke-width:0.264583"
       inkscape:label="CARD_A_MIX2_OUTPUT_BUTTON" />
    <circle
       id="b39d990d-64d8-41f9-b92c-7dcc2247a0f0-1-4-4-6-1"
       data-name="In03#PJ301MPort"
       cx="147.6001"
       cy="57.165524"
       r="1.3229166"
       style="display:inline;opacity:0.99;fill:#00ff00;stroke-width:0.264583"
       inkscape:label="LEFT_LEVEL_INPUT" />
    <circle
       inkscape:label="LEFT_LEVEL_CLIP"
       id="circle3173"
       data-name="RGreen1#RedLight"
       cx="147.6001"
       cy="38.416546"
       r="0.79374999"
       style="display:inline;fill:#ff00ff;stroke-width:0.264583" />
    <circle
       id="b903da6b-121c-4663-8772-b399a6eccb9e-76"
       data-name="Tempo#RoundLargeBlackKnob"
       cx="147.6001"
       cy="47.500546"
       r="1.3229166"
       style="display:inline;fill:#ff0000;stroke-width:0.264583"
       inkscape:label="LEFT_LEVEL_KNOB" />
    <circle
       id="b39d990d-64d8-41f9-b92c-7dcc2247a0f0-1-4-4-6-1-1"
       data-name="In03#PJ301MPort"
       cx="147.6001"
       cy="99.333664"
       r="1.3229166"
       style="display:inline;opacity:0.99;fill:#00ff00;stroke-width:0.264583"
       inkscape:label="RIGHT_LEVEL_INPUT" />
    <circle
       inkscape:label="RIGHT_LEVEL_CLIP"
       id="circle3173-9"
       data-name="RGreen1#RedLight"
       cx="147.6001"
       cy="80.584686"
       r="0.79374999"
       style="display:inline;fill:#ff00ff;stroke-width:0.264583" />
    <circle
       id="b903da6b-121c-4663-8772-b399a6eccb9e-76-2"
       data-name="Tempo#RoundLargeBlackKnob"
       cx="147.6001"
       cy="89.668686"
       r="1.3229166"
       style="display:inline;fill:#ff0000;stroke-width:0.264583"
       inkscape:label="RIGHT_LEVEL_KNOB" />
    <rect
       id="f9b09e17-fc78-4216-9b09-40d2874876ff-0-6"
       data-name="Screen"
       y="25.976517"
       width="14.42"
       height="3.636193"
       x="96.848145"
       style="display:inline;fill:#ffff00;stroke-width:0.0638679"
       inkscape:label="CARD_A_TEXT" />
    <circle
       id="b903da6b-121c-4663-8772-b399a6eccb9e-7-71"
       data-name="Tempo#RoundLargeBlackKnob"
       cx="98.997231"
       cy="103.89446"
       r="1.3229166"
       style="display:inline;fill:#ff0000;stroke-width:0.264583"
       inkscape:label="CARD_F_MIX1_CARD_F_BUTTON" />
    <circle
       id="b903da6b-121c-4663-8772-b399a6eccb9e-7-0-3"
       data-name="Tempo#RoundLargeBlackKnob"
       cx="98.997231"
       cy="51.648476"
       r="1.3229166"
       style="display:inline;fill:#ff0000;stroke-width:0.264583"
       inkscape:label="CARD_B_MIX1_CARD_F_BUTTON" />
    <circle
       id="b903da6b-121c-4663-8772-b399a6eccb9e-7-37-8"
       data-name="Tempo#RoundLargeBlackKnob"
       cx="98.997231"
       cy="77.771477"
       r="1.3229166"
       style="display:inline;fill:#ff0000;stroke-width:0.264583"
       inkscape:label="CARD_D_MIX1_CARD_F_BUTTON" />
    <circle
       id="b903da6b-121c-4663-8772-b399a6eccb9e-7-37-0-4"
       data-name="Tempo#RoundLargeBlackKnob"
       cx="98.997231"
       cy="64.709976"
       r="1.3229166"
       style="display:inline;fill:#ff0000;stroke-width:0.264583"
       inkscape:label="CARD_C_MIX1_CARD_F_BUTTON" />
    <circle
       id="b903da6b-121c-4663-8772-b399a6eccb9e-7-9-8"
       data-name="Tempo#RoundLargeBlackKnob"
       cx="98.997231"
       cy="90.83297"
       r="1.3229166"
       style="display:inline;fill:#ff0000;stroke-width:0.264583"
       inkscape:label="CARD_E_MIX1_CARD_F_BUTTON" />
    <circle
       id="b903da6b-121c-4663-8772-b399a6eccb9e-7-4-0"
       data-name="Tempo#RoundLargeBlackKnob"
       cx="98.997231"
       cy="38.586979"
       r="1.3229166"
       style="display:inline;fill:#ff0000;stroke-width:0.264583"
       inkscape:label="CARD_A_MIX1_CARD_F_BUTTON" />
    <circle
       id="b903da6b-121c-4663-8772-b399a6eccb9e-7-71-0"
       data-name="Tempo#RoundLargeBlackKnob"
       cx="99.06398"
       cy="109.08109"
       r="1.3229166"
       style="display:inline;fill:#ff0000;stroke-width:0.264583"
       inkscape:label="CARD_F_MIX2_CARD_F_BUTTON" />
    <circle
       id="b903da6b-121c-4663-8772-b399a6eccb9e-7-0-3-3"
       data-name="Tempo#RoundLargeBlackKnob"
       cx="99.06398"
       cy="56.835106"
       r="1.3229166"
       style="display:inline;fill:#ff0000;stroke-width:0.264583"
       inkscape:label="CARD_B_MIX2_CARD_F_BUTTON" />
    <circle
       id="b903da6b-121c-4663-8772-b399a6eccb9e-7-37-8-2"
       data-name="Tempo#RoundLargeBlackKnob"
       cx="99.06398"
       cy="82.958107"
       r="1.3229166"
       style="display:inline;fill:#ff0000;stroke-width:0.264583"
       inkscape:label="CARD_D_MIX2_CARD_F_BUTTON" />
    <circle
       id="b903da6b-121c-4663-8772-b399a6eccb9e-7-37-0-4-6"
       data-name="Tempo#RoundLargeBlackKnob"
       cx="99.06398"
       cy="69.896599"
       r="1.3229166"
       style="display:inline;fill:#ff0000;stroke-width:0.264583"
       inkscape:label="CARD_C_MIX2_CARD_F_BUTTON" />
    <circle
       id="b903da6b-121c-4663-8772-b399a6eccb9e-7-9-8-9"
       data-name="Tempo#RoundLargeBlackKnob"
       cx="99.06398"
       cy="96.0196"
       r="1.3229166"
       style="display:inline;fill:#ff0000;stroke-width:0.264583"
       inkscape:label="CARD_E_MIX2_CARD_F_BUTTON" />
    <circle
       id="b903da6b-121c-4663-8772-b399a6eccb9e-7-4-0-4"
       data-name="Tempo#RoundLargeBlackKnob"
       cx="99.06398"
       cy="43.278419"
       r="1.3229166"
       style="display:inline;fill:#ff0000;stroke-width:0.264583"
       inkscape:label="CARD_A_MIX2_CARD_F_BUTTON" />
    <rect
       id="f9b09e17-fc78-4216-9b09-40d2874876ff-0-6-1"
       data-name="Screen"
       y="25.976517"
       width="14.419565"
       height="3.636193"
       x="84.248787"
       style="display:inline;fill:#ffff00;stroke-width:0.0638679"
       inkscape:label="CARD_A_TEXT" />
    <circle
       id="b903da6b-121c-4663-8772-b399a6eccb9e-7-71-3"
       data-name="Tempo#RoundLargeBlackKnob"
       cx="86.397812"
       cy="103.89446"
       r="1.3229166"
       style="display:inline;fill:#ff0000;stroke-width:0.264583"
       inkscape:label="CARD_F_MIX1_CARD_E_BUTTON" />
    <circle
       id="b903da6b-121c-4663-8772-b399a6eccb9e-7-0-3-7"
       data-name="Tempo#RoundLargeBlackKnob"
       cx="86.397812"
       cy="51.648476"
       r="1.3229166"
       style="display:inline;fill:#ff0000;stroke-width:0.264583"
       inkscape:label="CARD_B_MIX1_CARD_E_BUTTON" />
    <circle
       id="b903da6b-121c-4663-8772-b399a6eccb9e-7-37-8-8"
       data-name="Tempo#RoundLargeBlackKnob"
       cx="86.397812"
       cy="77.771477"
       r="1.3229166"
       style="display:inline;fill:#ff0000;stroke-width:0.264583"
       inkscape:label="CARD_D_MIX1_CARD_E_BUTTON" />
    <circle
       id="b903da6b-121c-4663-8772-b399a6eccb9e-7-37-0-4-8"
       data-name="Tempo#RoundLargeBlackKnob"
       cx="86.397812"
       cy="64.709976"
       r="1.3229166"
       style="display:inline;fill:#ff0000;stroke-width:0.264583"
       inkscape:label="CARD_C_MIX1_CARD_E_BUTTON" />
    <circle
       id="b903da6b-121c-4663-8772-b399a6eccb9e-7-9-8-3"
       data-name="Tempo#RoundLargeBlackKnob"
       cx="86.397812"
       cy="90.83297"
       r="1.3229166"
       style="display:inline;fill:#ff0000;stroke-width:0.264583"
       inkscape:label="CARD_E_MIX1_CARD_E_BUTTON" />
    <circle
       id="b903da6b-121c-4663-8772-b399a6eccb9e-7-4-0-8"
       data-name="Tempo#RoundLargeBlackKnob"
       cx="86.397812"
       cy="38.586979"
       r="1.3229166"
       style="display:inline;fill:#ff0000;stroke-width:0.264583"
       inkscape:label="CARD_A_MIX1_CARD_E_BUTTON" />
    <circle
       id="b903da6b-121c-4663-8772-b399a6eccb9e-7-71-0-5"
       data-name="Tempo#RoundLargeBlackKnob"
       cx="86.464561"
       cy="109.08109"
       r="1.3229166"
       style="display:inline;fill:#ff0000;stroke-width:0.264583"
       inkscape:label="CARD_F_MIX2_CARD_E_BUTTON" />
    <circle
       id="b903da6b-121c-4663-8772-b399a6eccb9e-7-0-3-3-3"
       data-name="Tempo#RoundLargeBlackKnob"
       cx="86.464561"
       cy="56.835106"
       r="1.3229166"
       style="display:inline;fill:#ff0000;stroke-width:0.264583"
       inkscape:label="CARD_B_MIX2_CARD_E_BUTTON" />
    <circle
       id="b903da6b-121c-4663-8772-b399a6eccb9e-7-37-8-2-5"
       data-name="Tempo#RoundLargeBlackKnob"
       cx="86.464561"
       cy="82.958107"
       r="1.3229166"
       style="display:inline;fill:#ff0000;stroke-width:0.264583"
       inkscape:label="CARD_D_MIX2_CARD_E_BUTTON" />
    <circle
       id="b903da6b-121c-4663-8772-b399a6eccb9e-7-37-0-4-6-4"
       data-name="Tempo#RoundLargeBlackKnob"
       cx="86.464561"
       cy="69.896599"
       r="1.3229166"
       style="display:inline;fill:#ff0000;stroke-width:0.264583"
       inkscape:label="CARD_C_MIX2_CARD_E_BUTTON" />
    <circle
       id="b903da6b-121c-4663-8772-b399a6eccb9e-7-9-8-9-3"
       data-name="Tempo#RoundLargeBlackKnob"
       cx="86.464561"
       cy="96.0196"
       r="1.3229166"
       style="display:inline;fill:#ff0000;stroke-width:0.264583"
       inkscape:label="CARD_E_MIX2_CARD_E_BUTTON" />
    <circle
       id="b903da6b-121c-4663-8772-b399a6eccb9e-7-4-0-4-6"
       data-name="Tempo#RoundLargeBlackKnob"
       cx="86.464561"
       cy="43.278419"
       r="1.3229166"
       style="display:inline;fill:#ff0000;stroke-width:0.264583"
       inkscape:label="CARD_A_MIX2_CARD_E_BUTTON" />
    <rect
       id="f9b09e17-fc78-4216-9b09-40d2874876ff-0-6-1-5"
       data-name="Screen"
       y="25.976517"
       width="14.419565"
       height="3.636193"
       x="71.649368"
       style="display:inline;fill:#ffff00;stroke-width:0.0638679"
       inkscape:label="CARD_A_TEXT" />
    <circle
       id="b903da6b-121c-4663-8772-b399a6eccb9e-7-71-3-4"
       data-name="Tempo#RoundLargeBlackKnob"
       cx="73.798393"
       cy="103.89446"
       r="1.3229166"
       style="display:inline;fill:#ff0000;stroke-width:0.264583"
       inkscape:label="CARD_F_MIX1_CARD_D_BUTTON" />
    <circle
       id="b903da6b-121c-4663-8772-b399a6eccb9e-7-0-3-7-9"
       data-name="Tempo#RoundLargeBlackKnob"
       cx="73.798393"
       cy="51.648476"
       r="1.3229166"
       style="display:inline;fill:#ff0000;stroke-width:0.264583"
       inkscape:label="CARD_B_MIX1_CARD_D_BUTTON" />
    <circle
       id="b903da6b-121c-4663-8772-b399a6eccb9e-7-37-8-8-1"
       data-name="Tempo#RoundLargeBlackKnob"
       cx="73.798393"
       cy="77.771477"
       r="1.3229166"
       style="display:inline;fill:#ff0000;stroke-width:0.264583"
       inkscape:label="CARD_D_MIX1_CARD_D_BUTTON" />
    <circle
       id="b903da6b-121c-4663-8772-b399a6eccb9e-7-37-0-4-8-7"
       data-name="Tempo#RoundLargeBlackKnob"
       cx="73.798393"
       cy="64.709976"
       r="1.3229166"
       style="display:inline;fill:#ff0000;stroke-width:0.264583"
       inkscape:label="CARD_C_MIX1_CARD_D_BUTTON" />
    <circle
       id="b903da6b-121c-4663-8772-b399a6eccb9e-7-9-8-3-5"
       data-name="Tempo#RoundLargeBlackKnob"
       cx="73.798393"
       cy="90.83297"
       r="1.3229166"
       style="display:inline;fill:#ff0000;stroke-width:0.264583"
       inkscape:label="CARD_E_MIX1_CARD_D_BUTTON" />
    <circle
       id="b903da6b-121c-4663-8772-b399a6eccb9e-7-4-0-8-5"
       data-name="Tempo#RoundLargeBlackKnob"
       cx="73.798393"
       cy="38.586979"
       r="1.3229166"
       style="display:inline;fill:#ff0000;stroke-width:0.264583"
       inkscape:label="CARD_A_MIX1_CARD_D_BUTTON" />
    <circle
       id="b903da6b-121c-4663-8772-b399a6eccb9e-7-71-0-5-1"
       data-name="Tempo#RoundLargeBlackKnob"
       cx="73.865135"
       cy="109.08109"
       r="1.3229166"
       style="display:inline;fill:#ff0000;stroke-width:0.264583"
       inkscape:label="CARD_F_MIX2_CARD_D_BUTTON" />
    <circle
       id="b903da6b-121c-4663-8772-b399a6eccb9e-7-0-3-3-3-8"
       data-name="Tempo#RoundLargeBlackKnob"
       cx="73.865135"
       cy="56.835106"
       r="1.3229166"
       style="display:inline;fill:#ff0000;stroke-width:0.264583"
       inkscape:label="CARD_B_MIX2_CARD_D_BUTTON" />
    <circle
       id="b903da6b-121c-4663-8772-b399a6eccb9e-7-37-8-2-5-8"
       data-name="Tempo#RoundLargeBlackKnob"
       cx="73.865135"
       cy="82.958107"
       r="1.3229166"
       style="display:inline;fill:#ff0000;stroke-width:0.264583"
       inkscape:label="CARD_D_MIX2_CARD_D_BUTTON" />
    <circle
       id="b903da6b-121c-4663-8772-b399a6eccb9e-7-37-0-4-6-4-3"
       data-name="Tempo#RoundLargeBlackKnob"
       cx="73.865135"
       cy="69.896599"
       r="1.3229166"
       style="display:inline;fill:#ff0000;stroke-width:0.264583"
       inkscape:label="CARD_C_MIX2_CARD_D_BUTTON" />
    <circle
       id="b903da6b-121c-4663-8772-b399a6eccb9e-7-9-8-9-3-5"
       data-name="Tempo#RoundLargeBlackKnob"
       cx="73.865135"
       cy="96.0196"
       r="1.3229166"
       style="display:inline;fill:#ff0000;stroke-width:0.264583"
       inkscape:label="CARD_E_MIX2_CARD_D_BUTTON" />
    <circle
       id="b903da6b-121c-4663-8772-b399a6eccb9e-7-4-0-4-6-2"
       data-name="Tempo#RoundLargeBlackKnob"
       cx="73.865135"
       cy="43.278419"
       r="1.3229166"
       style="display:inline;fill:#ff0000;stroke-width:0.264583"
       inkscape:label="CARD_A_MIX2_CARD_D_BUTTON" />
    <rect
       id="f9b09e17-fc78-4216-9b09-40d2874876ff-0-6-1-6"
       data-name="Screen"
       y="25.976517"
       width="14.419565"
       height="3.636193"
       x="59.04995"
       style="display:inline;fill:#ffff00;stroke-width:0.0638679"
       inkscape:label="CARD_A_TEXT" />
    <circle
       id="b903da6b-121c-4663-8772-b399a6eccb9e-7-71-3-7"
       data-name="Tempo#RoundLargeBlackKnob"
       cx="61.198975"
       cy="103.89446"
       r="1.3229166"
       style="display:inline;fill:#ff0000;stroke-width:0.264583"
       inkscape:label="CARD_F_MIX1_CARD_C_BUTTON" />
    <circle
       id="b903da6b-121c-4663-8772-b399a6eccb9e-7-0-3-7-8"
       data-name="Tempo#RoundLargeBlackKnob"
       cx="61.198975"
       cy="51.648476"
       r="1.3229166"
       style="display:inline;fill:#ff0000;stroke-width:0.264583"
       inkscape:label="CARD_B_MIX1_CARD_C_BUTTON" />
    <circle
       id="b903da6b-121c-4663-8772-b399a6eccb9e-7-37-8-8-4"
       data-name="Tempo#RoundLargeBlackKnob"
       cx="61.198975"
       cy="77.771477"
       r="1.3229166"
       style="display:inline;fill:#ff0000;stroke-width:0.264583"
       inkscape:label="CARD_D_MIX1_CARD_C_BUTTON" />
    <circle
       id="b903da6b-121c-4663-8772-b399a6eccb9e-7-37-0-4-8-1"
       data-name="Tempo#RoundLargeBlackKnob"
       cx="61.198975"
       cy="64.709976"
       r="1.3229166"
       style="display:inline;fill:#ff0000;stroke-width:0.264583"
       inkscape:label="CARD_C_MIX1_CARD_C_BUTTON" />
    <circle
       id="b903da6b-121c-4663-8772-b399a6eccb9e-7-9-8-3-7"
       data-name="Tempo#RoundLargeBlackKnob"
       cx="61.198975"
       cy="90.83297"
       r="1.3229166"
       style="display:inline;fill:#ff0000;stroke-width:0.264583"
       inkscape:label="CARD_E_MIX1_CARD_C_BUTTON" />
    <circle
       id="b903da6b-121c-4663-8772-b399a6eccb9e-7-4-0-8-1"
       data-name="Tempo#RoundLargeBlackKnob"
       cx="61.198975"
       cy="38.586979"
       r="1.3229166"
       style="display:inline;fill:#ff0000;stroke-width:0.264583"
       inkscape:label="CARD_A_MIX1_CARD_C_BUTTON" />
    <circle
       id="b903da6b-121c-4663-8772-b399a6eccb9e-7-71-0-5-7"
       data-name="Tempo#RoundLargeBlackKnob"
       cx="61.26572"
       cy="109.08109"
       r="1.3229166"
       style="display:inline;fill:#ff0000;stroke-width:0.264583"
       inkscape:label="CARD_F_MIX2_CARD_C_BUTTON" />
    <circle
       id="b903da6b-121c-4663-8772-b399a6eccb9e-7-0-3-3-3-87"
       data-name="Tempo#RoundLargeBlackKnob"
       cx="61.26572"
       cy="56.835106"
       r="1.3229166"
       style="display:inline;fill:#ff0000;stroke-width:0.264583"
       inkscape:label="CARD_B_MIX2_CARD_C_BUTTON" />
    <circle
       id="b903da6b-121c-4663-8772-b399a6eccb9e-7-37-8-2-5-7"
       data-name="Tempo#RoundLargeBlackKnob"
       cx="61.26572"
       cy="82.958107"
       r="1.3229166"
       style="display:inline;fill:#ff0000;stroke-width:0.264583"
       inkscape:label="CARD_D_MIX2_CARD_C_BUTTON" />
    <circle
       id="b903da6b-121c-4663-8772-b399a6eccb9e-7-37-0-4-6-4-4"
       data-name="Tempo#RoundLargeBlackKnob"
       cx="61.26572"
       cy="69.896599"
       r="1.3229166"
       style="display:inline;fill:#ff0000;stroke-width:0.264583"
       inkscape:label="CARD_C_MIX2_CARD_C_BUTTON" />
    <circle
       id="b903da6b-121c-4663-8772-b399a6eccb9e-7-9-8-9-3-4"
       data-name="Tempo#RoundLargeBlackKnob"
       cx="61.26572"
       cy="96.0196"
       r="1.3229166"
       style="display:inline;fill:#ff0000;stroke-width:0.264583"
       inkscape:label="CARD_E_MIX2_CARD_C_BUTTON" />
    <circle
       id="b903da6b-121c-4663-8772-b399a6eccb9e-7-4-0-4-6-9"
       data-name="Tempo#RoundLargeBlackKnob"
       cx="61.26572"
       cy="43.278419"
       r="1.3229166"
       style="display:inline;fill:#ff0000;stroke-width:0.264583"
       inkscape:label="CARD_A_MIX2_CARD_C_BUTTON" />
    <rect
       id="f9b09e17-fc78-4216-9b09-40d2874876ff-0-6-1-55"
       data-name="Screen"
       y="25.976517"
       width="14.419565"
       height="3.636193"
       x="46.450531"
       style="display:inline;fill:#ffff00;stroke-width:0.0638679"
       inkscape:label="CARD_A_TEXT" />
    <circle
       id="b903da6b-121c-4663-8772-b399a6eccb9e-7-71-3-8"
       data-name="Tempo#RoundLargeBlackKnob"
       cx="48.599552"
       cy="103.89446"
       r="1.3229166"
       style="display:inline;fill:#ff0000;stroke-width:0.264583"
       inkscape:label="CARD_F_MIX1_CARD_B_BUTTON" />
    <circle
       id="b903da6b-121c-4663-8772-b399a6eccb9e-7-0-3-7-2"
       data-name="Tempo#RoundLargeBlackKnob"
       cx="48.599552"
       cy="51.648476"
       r="1.3229166"
       style="display:inline;fill:#ff0000;stroke-width:0.264583"
       inkscape:label="CARD_B_MIX1_CARD_B_BUTTON" />
    <circle
       id="b903da6b-121c-4663-8772-b399a6eccb9e-7-37-8-8-9"
       data-name="Tempo#RoundLargeBlackKnob"
       cx="48.599552"
       cy="77.771477"
       r="1.3229166"
       style="display:inline;fill:#ff0000;stroke-width:0.264583"
       inkscape:label="CARD_D_MIX1_CARD_B_BUTTON" />
    <circle
       id="b903da6b-121c-4663-8772-b399a6eccb9e-7-37-0-4-8-8"
       data-name="Tempo#RoundLargeBlackKnob"
       cx="48.599552"
       cy="64.709976"
       r="1.3229166"
       style="display:inline;fill:#ff0000;stroke-width:0.264583"
       inkscape:label="CARD_C_MIX1_CARD_B_BUTTON" />
    <circle
       id="b903da6b-121c-4663-8772-b399a6eccb9e-7-9-8-3-2"
       data-name="Tempo#RoundLargeBlackKnob"
       cx="48.599552"
       cy="90.83297"
       r="1.3229166"
       style="display:inline;fill:#ff0000;stroke-width:0.264583"
       inkscape:label="CARD_E_MIX1_CARD_B_BUTTON" />
    <circle
       id="b903da6b-121c-4663-8772-b399a6eccb9e-7-4-0-8-0"
       data-name="Tempo#RoundLargeBlackKnob"
       cx="48.599552"
       cy="38.586979"
       r="1.3229166"
       style="display:inline;fill:#ff0000;stroke-width:0.264583"
       inkscape:label="CARD_A_MIX1_CARD_B_BUTTON" />
    <circle
       id="b903da6b-121c-4663-8772-b399a6eccb9e-7-71-0-5-4"
       data-name="Tempo#RoundLargeBlackKnob"
       cx="48.666298"
       cy="109.08109"
       r="1.3229166"
       style="display:inline;fill:#ff0000;stroke-width:0.264583"
       inkscape:label="CARD_F_MIX2_CARD_B_BUTTON" />
    <circle
       id="b903da6b-121c-4663-8772-b399a6eccb9e-7-0-3-3-3-85"
       data-name="Tempo#RoundLargeBlackKnob"
       cx="48.666298"
       cy="56.835106"
       r="1.3229166"
       style="display:inline;fill:#ff0000;stroke-width:0.264583"
       inkscape:label="CARD_B_MIX2_CARD_B_BUTTON" />
    <circle
       id="b903da6b-121c-4663-8772-b399a6eccb9e-7-37-8-2-5-83"
       data-name="Tempo#RoundLargeBlackKnob"
       cx="48.666298"
       cy="82.958107"
       r="1.3229166"
       style="display:inline;fill:#ff0000;stroke-width:0.264583"
       inkscape:label="CARD_D_MIX2_CARD_B_BUTTON" />
    <circle
       id="b903da6b-121c-4663-8772-b399a6eccb9e-7-37-0-4-6-4-0"
       data-name="Tempo#RoundLargeBlackKnob"
       cx="48.666298"
       cy="69.896599"
       r="1.3229166"
       style="display:inline;fill:#ff0000;stroke-width:0.264583"
       inkscape:label="CARD_C_MIX2_CARD_B_BUTTON" />
    <circle
       id="b903da6b-121c-4663-8772-b399a6eccb9e-7-9-8-9-3-6"
       data-name="Tempo#RoundLargeBlackKnob"
       cx="48.666298"
       cy="96.0196"
       r="1.3229166"
       style="display:inline;fill:#ff0000;stroke-width:0.264583"
       inkscape:label="CARD_E_MIX2_CARD_B_BUTTON" />
    <circle
       id="b903da6b-121c-4663-8772-b399a6eccb9e-7-4-0-4-6-22"
       data-name="Tempo#RoundLargeBlackKnob"
       cx="48.666298"
       cy="43.278419"
       r="1.3229166"
       style="display:inline;fill:#ff0000;stroke-width:0.264583"
       inkscape:label="CARD_A_MIX2_CARD_B_BUTTON" />
    <rect
       id="f9b09e17-fc78-4216-9b09-40d2874876ff-0-6-1-2"
       data-name="Screen"
       y="25.976517"
       width="14.419565"
       height="3.636193"
       x="33.851112"
       style="display:inline;fill:#ffff00;stroke-width:0.0638679"
       inkscape:label="CARD_A_TEXT" />
    <circle
       id="b903da6b-121c-4663-8772-b399a6eccb9e-7-71-3-71"
       data-name="Tempo#RoundLargeBlackKnob"
       cx="36.000134"
       cy="103.89446"
       r="1.3229166"
       style="display:inline;fill:#ff0000;stroke-width:0.264583"
       inkscape:label="CARD_F_MIX1_CARD_A_BUTTON" />
    <circle
       id="b903da6b-121c-4663-8772-b399a6eccb9e-7-0-3-7-5"
       data-name="Tempo#RoundLargeBlackKnob"
       cx="36.000134"
       cy="51.648476"
       r="1.3229166"
       style="display:inline;fill:#ff0000;stroke-width:0.264583"
       inkscape:label="CARD_B_MIX1_CARD_A_BUTTON" />
    <circle
       id="b903da6b-121c-4663-8772-b399a6eccb9e-7-37-8-8-2"
       data-name="Tempo#RoundLargeBlackKnob"
       cx="36.000134"
       cy="77.771477"
       r="1.3229166"
       style="display:inline;fill:#ff0000;stroke-width:0.264583"
       inkscape:label="CARD_D_MIX1_CARD_A_BUTTON" />
    <circle
       id="b903da6b-121c-4663-8772-b399a6eccb9e-7-37-0-4-8-11"
       data-name="Tempo#RoundLargeBlackKnob"
       cx="36.000134"
       cy="64.709976"
       r="1.3229166"
       style="display:inline;fill:#ff0000;stroke-width:0.264583"
       inkscape:label="CARD_C_MIX1_CARD_A_BUTTON" />
    <circle
       id="b903da6b-121c-4663-8772-b399a6eccb9e-7-9-8-3-0"
       data-name="Tempo#RoundLargeBlackKnob"
       cx="36.000134"
       cy="90.83297"
       r="1.3229166"
       style="display:inline;fill:#ff0000;stroke-width:0.264583"
       inkscape:label="CARD_E_MIX1_CARD_A_BUTTON" />
    <circle
       id="b903da6b-121c-4663-8772-b399a6eccb9e-7-4-0-8-18"
       data-name="Tempo#RoundLargeBlackKnob"
       cx="36.000134"
       cy="38.586979"
       r="1.3229166"
       style="display:inline;fill:#ff0000;stroke-width:0.264583"
       inkscape:label="CARD_A_MIX1_CARD_A_BUTTON" />
    <circle
       id="b903da6b-121c-4663-8772-b399a6eccb9e-7-71-0-5-0"
       data-name="Tempo#RoundLargeBlackKnob"
       cx="36.066879"
       cy="109.08109"
       r="1.3229166"
       style="display:inline;fill:#ff0000;stroke-width:0.264583"
       inkscape:label="CARD_F_MIX2_CARD_A_BUTTON" />
    <circle
       id="b903da6b-121c-4663-8772-b399a6eccb9e-7-0-3-3-3-0"
       data-name="Tempo#RoundLargeBlackKnob"
       cx="36.066879"
       cy="56.835106"
       r="1.3229166"
       style="display:inline;fill:#ff0000;stroke-width:0.264583"
       inkscape:label="CARD_B_MIX2_CARD_A_BUTTON" />
    <circle
       id="b903da6b-121c-4663-8772-b399a6eccb9e-7-37-8-2-5-9"
       data-name="Tempo#RoundLargeBlackKnob"
       cx="36.066879"
       cy="82.958107"
       r="1.3229166"
       style="display:inline;fill:#ff0000;stroke-width:0.264583"
       inkscape:label="CARD_D_MIX2_CARD_A_BUTTON" />
    <circle
       id="b903da6b-121c-4663-8772-b399a6eccb9e-7-37-0-4-6-4-5"
       data-name="Tempo#RoundLargeBlackKnob"
       cx="36.066879"
       cy="69.896599"
       r="1.3229166"
       style="display:inline;fill:#ff0000;stroke-width:0.264583"
       inkscape:label="CARD_C_MIX2_CARD_A_BUTTON" />
    <circle
       id="b903da6b-121c-4663-8772-b399a6eccb9e-7-9-8-9-3-62"
       data-name="Tempo#RoundLargeBlackKnob"
       cx="36.066879"
       cy="96.0196"
       r="1.3229166"
       style="display:inline;fill:#ff0000;stroke-width:0.264583"
       inkscape:label="CARD_E_MIX2_CARD_A_BUTTON" />
    <circle
       id="b903da6b-121c-4663-8772-b399a6eccb9e-7-4-0-4-6-8"
       data-name="Tempo#RoundLargeBlackKnob"
       cx="36.066879"
       cy="43.278419"
       r="1.3229166"
       style="display:inline;fill:#ff0000;stroke-width:0.264583"
       inkscape:label="CARD_A_MIX2_CARD_A_BUTTON" />
  </g>
  <g
     inkscape:groupmode="layer"
     id="layer2"
     inkscape:label="layout"
     style="display:inline">
    <g
       id="path1674">
      <path
         style="color:#000000;fill:#b1b1b1;stroke-width:0.264583;-inkscape-stroke:none"
         d="m 4.4125316,27.901876 a 0.05502102,0.05502102 0 0 1 -0.055021,0.05502 0.05502102,0.05502102 0 0 1 -0.055021,-0.05502 0.05502102,0.05502102 0 0 1 0.055021,-0.05502 0.05502102,0.05502102 0 0 1 0.055021,0.05502 z"
         id="path5403" />
      <path
         style="color:#000000;fill:#980000;-inkscape-stroke:none"
         d="m 4.3574219,27.714844 c -0.1018815,0 -0.1874981,0.08562 -0.1875,0.1875 1.9e-6,0.101881 0.085618,0.1875 0.1875,0.1875 0.1018815,0 0.1874981,-0.08562 0.1875,-0.1875 -1.9e-6,-0.101882 -0.085619,-0.1875 -0.1875,-0.1875 z m 0,0.109375 c 0.041108,0 0.078124,0.03702 0.078125,0.07813 -8e-7,0.04111 -0.037017,0.07617 -0.078125,0.07617 -0.041108,0 -0.078124,-0.03506 -0.078125,-0.07617 7e-7,-0.04111 0.037017,-0.07813 0.078125,-0.07813 z"
         id="path5405" />
    </g>
    <g
       aria-label="CARD OUTPUTS"
       id="text2294"
       style="font-weight:bold;font-size:2.82222px;line-height:1.25;-inkscape-font-specification:'sans-serif, Bold';stroke-width:0.264583">
      <path
         d="m 5.2175025,29.609953 q -0.2287542,0 -0.4230574,-0.06752 -0.1929252,-0.06752 -0.332107,-0.201193 -0.1391817,-0.13367 -0.2163518,-0.333485 -0.075792,-0.199815 -0.075792,-0.461642 0,-0.243913 0.073036,-0.44235 0.073036,-0.198438 0.2122177,-0.340376 0.1336696,-0.136425 0.3307289,-0.210839 0.1984374,-0.07441 0.4327037,-0.07441 0.1295355,0 0.2328883,0.01516 0.1047308,0.01378 0.1929252,0.03721 0.092328,0.02618 0.1667425,0.05926 0.075792,0.03169 0.1322916,0.05926 v 0.497472 h -0.060634 q -0.038585,-0.03307 -0.097841,-0.07855 -0.057878,-0.04548 -0.1322916,-0.08957 -0.075792,-0.0441 -0.1639864,-0.07441 -0.088194,-0.03032 -0.1887911,-0.03032 -0.111621,0 -0.2122177,0.03583 -0.1005967,0.03445 -0.186035,0.115756 -0.081304,0.07855 -0.1322916,0.208083 -0.049609,0.129536 -0.049609,0.314193 0,0.192925 0.053743,0.32246 0.055122,0.129536 0.1378037,0.20395 0.08406,0.07579 0.1874131,0.108865 0.1033528,0.03169 0.2039495,0.03169 0.096463,0 0.1901691,-0.02894 0.095085,-0.02894 0.1750107,-0.07855 0.067524,-0.03996 0.1254014,-0.08544 0.057878,-0.04547 0.095085,-0.07855 h 0.055122 v 0.490581 q -0.07717,0.03445 -0.14745,0.06477 -0.07028,0.03032 -0.14745,0.05237 -0.1005967,0.02894 -0.1887911,0.0441 -0.088194,0.01516 -0.2425345,0.01516 z"
         id="path5221" />
      <path
         d="M 8.2312698,29.56999 H 7.6841891 L 7.5422512,29.155201 H 6.7815747 L 6.6396369,29.56999 H 6.1063365 L 6.864257,27.518093 H 7.4733494 Z M 7.4140938,28.778997 7.161913,28.043125 6.9097322,28.778997 Z"
         id="path5223" />
      <path
         d="m 9.679587,28.146478 q 0,-0.07717 -0.031695,-0.132292 -0.031695,-0.05512 -0.1088649,-0.08682 -0.053743,-0.02205 -0.1254014,-0.02618 -0.071658,-0.0055 -0.1667425,-0.0055 H 9.0553362 v 0.552593 h 0.1626083 q 0.1267795,0 0.2122178,-0.0124 0.085438,-0.0124 0.1433158,-0.0565 0.055121,-0.04272 0.079926,-0.09371 0.026183,-0.05237 0.026183,-0.139182 z m 0.825444,1.423512 H 9.8587318 L 9.2992487,28.817582 H 9.0553362 V 29.56999 H 8.528926 v -2.051897 h 0.8874559 q 0.1819009,0 0.3128144,0.02067 0.1309136,0.02067 0.2452906,0.08957 0.1157551,0.0689 0.1832791,0.179145 0.0689,0.108865 0.0689,0.274229 0,0.227376 -0.106109,0.370692 -0.104731,0.143316 -0.3004122,0.2384 z"
         id="path5225" />
      <path
         d="m 12.678196,28.546109 q 0,0.286631 -0.130914,0.514007 -0.130913,0.225999 -0.330729,0.347266 -0.150206,0.09095 -0.329351,0.126779 -0.179144,0.03583 -0.424435,0.03583 h -0.72347 v -2.051897 h 0.744141 q 0.250802,0 0.432703,0.04272 0.181901,0.04134 0.305924,0.118511 0.212218,0.129536 0.333485,0.350022 0.122646,0.219108 0.122646,0.516764 z m -0.547081,-0.0041 q 0,-0.202571 -0.07441,-0.345887 -0.07304,-0.144694 -0.232888,-0.225998 -0.0813,-0.03996 -0.166743,-0.05374 -0.08406,-0.01516 -0.254937,-0.01516 h -0.133669 v 1.284331 h 0.133669 q 0.188791,0 0.276986,-0.01654 0.08819,-0.01791 0.172254,-0.06339 0.144694,-0.08268 0.212218,-0.220486 0.06752,-0.139182 0.06752,-0.343132 z"
         id="path5227" />
      <path
         d="m 16.041984,28.544731 q 0,0.490581 -0.281119,0.779969 -0.28112,0.288009 -0.777213,0.288009 -0.494715,0 -0.775835,-0.288009 -0.28112,-0.289388 -0.28112,-0.779969 0,-0.494716 0.28112,-0.781348 0.28112,-0.288009 0.775835,-0.288009 0.493337,0 0.775835,0.288009 0.282497,0.286632 0.282497,0.781348 z m -0.701421,0.51952 q 0.07717,-0.09371 0.114378,-0.220486 0.03721,-0.128158 0.03721,-0.300413 0,-0.184656 -0.04272,-0.314192 -0.04272,-0.129535 -0.111621,-0.209462 -0.07028,-0.08268 -0.162608,-0.119889 -0.09095,-0.03721 -0.190169,-0.03721 -0.100597,0 -0.190169,0.03583 -0.08819,0.03583 -0.162609,0.118511 -0.0689,0.07717 -0.112999,0.213596 -0.04272,0.135048 -0.04272,0.314193 0,0.183278 0.04134,0.312814 0.04272,0.128157 0.111621,0.209462 0.0689,0.0813 0.161231,0.119889 0.09233,0.03858 0.194303,0.03858 0.101975,0 0.194303,-0.03858 0.09233,-0.03996 0.16123,-0.122645 z"
         id="path5229" />
      <path
         d="m 18.241331,28.827228 q 0,0.380338 -0.23151,0.58291 -0.23151,0.202571 -0.682128,0.202571 -0.450619,0 -0.682129,-0.202571 -0.230132,-0.202572 -0.230132,-0.581532 v -1.310513 h 0.531922 v 1.280196 q 0,0.213596 0.08957,0.318327 0.08957,0.104731 0.290766,0.104731 0.198437,0 0.289387,-0.100597 0.09233,-0.100597 0.09233,-0.322461 v -1.280196 h 0.531922 z"
         id="path5231" />
      <path
         d="m 20.342839,27.914968 h -0.640788 v 1.655022 h -0.529166 v -1.655022 h -0.640787 v -0.396875 h 1.810741 z"
         id="path5233" />
      <path
         d="m 22.354773,28.16577 q 0,0.137804 -0.04823,0.270096 -0.04823,0.130913 -0.137804,0.220486 -0.122645,0.121267 -0.274229,0.183278 -0.150206,0.06201 -0.374826,0.06201 h -0.329351 v 0.668348 h -0.529166 v -2.051897 h 0.870919 q 0.195682,0 0.329351,0.03445 0.135048,0.03307 0.238401,0.100596 0.124023,0.08131 0.188791,0.208084 0.06615,0.12678 0.06615,0.304546 z m -0.54708,0.0124 q 0,-0.08682 -0.04685,-0.148828 -0.04685,-0.06339 -0.108865,-0.08819 -0.08268,-0.03307 -0.16123,-0.03583 -0.07855,-0.0041 -0.209462,-0.0041 h -0.09095 v 0.614605 h 0.151584 q 0.135048,0 0.221864,-0.01654 0.08819,-0.01654 0.14745,-0.06615 0.05099,-0.0441 0.07304,-0.104731 0.02343,-0.06201 0.02343,-0.150206 z"
         id="path5235" />
      <path
         d="m 24.525181,28.827228 q 0,0.380338 -0.23151,0.58291 -0.231511,0.202571 -0.682129,0.202571 -0.450618,0 -0.682128,-0.202571 -0.230132,-0.202572 -0.230132,-0.581532 v -1.310513 h 0.531922 v 1.280196 q 0,0.213596 0.08957,0.318327 0.08957,0.104731 0.290765,0.104731 0.198438,0 0.289388,-0.100597 0.09233,-0.100597 0.09233,-0.322461 v -1.280196 h 0.531922 z"
         id="path5237" />
      <path
         d="m 26.626688,27.914968 h -0.640787 v 1.655022 h -0.529166 v -1.655022 h -0.640787 v -0.396875 h 1.81074 z"
         id="path5239" />
      <path
         d="m 28.587634,28.925069 q 0,0.303168 -0.257693,0.493337 -0.256315,0.188791 -0.697287,0.188791 -0.254937,0 -0.445106,-0.0441 -0.188791,-0.04547 -0.354155,-0.114377 v -0.491959 h 0.05788 q 0.163987,0.130913 0.366558,0.201193 0.20395,0.07028 0.391363,0.07028 0.04823,0 0.126779,-0.0083 0.07855,-0.0083 0.128157,-0.02756 0.06063,-0.02481 0.09922,-0.06201 0.03996,-0.03721 0.03996,-0.110243 0,-0.06752 -0.05788,-0.115755 -0.0565,-0.04961 -0.166743,-0.07579 -0.115755,-0.02756 -0.24529,-0.05099 -0.128158,-0.02481 -0.241157,-0.06201 -0.259071,-0.08406 -0.373448,-0.227376 -0.112999,-0.144694 -0.112999,-0.35829 0,-0.286631 0.256315,-0.467154 0.257693,-0.181901 0.661458,-0.181901 0.202571,0 0.39963,0.03996 0.198438,0.03859 0.343132,0.09784 v 0.472666 h -0.0565 q -0.124023,-0.09922 -0.304546,-0.165364 -0.179145,-0.06752 -0.366558,-0.06752 -0.06615,0 -0.132291,0.0096 -0.06477,0.0083 -0.125402,0.03307 -0.05374,0.02067 -0.09233,0.06339 -0.03859,0.04134 -0.03859,0.09508 0,0.08131 0.06201,0.125402 0.06201,0.04272 0.234267,0.07855 0.112999,0.02343 0.216351,0.04547 0.104731,0.02205 0.22462,0.06063 0.235645,0.07717 0.347266,0.210839 0.112999,0.132292 0.112999,0.34451 z"
         id="path5241" />
    </g>
    <g
       aria-label="MODULATION INPUT"
       id="text2294-08"
       style="font-weight:bold;font-size:2.82222px;line-height:1.25;-inkscape-font-specification:'sans-serif, Bold';display:inline;stroke-width:0.264583">
      <path
         d="m 58.300203,14.436032 h -0.52641 v -1.373903 l -0.380338,0.89159 h -0.36518 l -0.380338,-0.89159 v 1.373903 h -0.49885 v -2.051897 h 0.614605 l 0.461643,1.029394 0.460264,-1.029394 h 0.614604 z"
         id="path5244" />
      <path
         d="m 60.817877,13.410773 q 0,0.490581 -0.281119,0.779969 -0.28112,0.288009 -0.777213,0.288009 -0.494716,0 -0.775835,-0.288009 -0.28112,-0.289388 -0.28112,-0.779969 0,-0.494716 0.28112,-0.781347 0.281119,-0.28801 0.775835,-0.28801 0.493337,0 0.775835,0.28801 0.282497,0.286631 0.282497,0.781347 z m -0.701421,0.51952 q 0.07717,-0.09371 0.114378,-0.220486 0.03721,-0.128158 0.03721,-0.300412 0,-0.184657 -0.04272,-0.314193 -0.04272,-0.129535 -0.111621,-0.209462 -0.07028,-0.08268 -0.162608,-0.119889 -0.09095,-0.03721 -0.190169,-0.03721 -0.100597,0 -0.190169,0.03583 -0.08819,0.03583 -0.162609,0.118511 -0.0689,0.07717 -0.112999,0.213596 -0.04272,0.135048 -0.04272,0.314193 0,0.183279 0.04134,0.312814 0.04272,0.128158 0.111621,0.209462 0.0689,0.0813 0.161231,0.119889 0.09233,0.03859 0.194303,0.03859 0.101975,0 0.194303,-0.03859 0.09233,-0.03996 0.16123,-0.122645 z"
         id="path5246" />
      <path
         d="m 63.159162,13.412151 q 0,0.286631 -0.130913,0.514008 -0.130914,0.225998 -0.330729,0.347265 -0.150206,0.09095 -0.329351,0.126779 -0.179145,0.03583 -0.424435,0.03583 h -0.72347 v -2.051897 h 0.74414 q 0.250803,0 0.432704,0.04272 0.181901,0.04134 0.305924,0.118511 0.212218,0.129536 0.333485,0.350022 0.122645,0.219108 0.122645,0.516764 z m -0.54708,-0.0041 q 0,-0.202572 -0.07441,-0.345888 -0.07304,-0.144694 -0.232889,-0.225998 -0.0813,-0.03996 -0.166742,-0.05374 -0.08406,-0.01516 -0.254937,-0.01516 h -0.13367 v 1.284331 h 0.13367 q 0.188791,0 0.276985,-0.01654 0.08819,-0.01791 0.172255,-0.06339 0.144694,-0.08268 0.212218,-0.220486 0.06752,-0.139182 0.06752,-0.343131 z"
         id="path5248" />
      <path
         d="m 65.359888,13.69327 q 0,0.380339 -0.23151,0.58291 -0.231511,0.202571 -0.682129,0.202571 -0.450618,0 -0.682128,-0.202571 -0.230132,-0.202571 -0.230132,-0.581532 v -1.310513 h 0.531922 v 1.280196 q 0,0.213596 0.08957,0.318327 0.08957,0.104731 0.290766,0.104731 0.198437,0 0.289388,-0.100597 0.09233,-0.100597 0.09233,-0.322461 v -1.280196 h 0.531923 z"
         id="path5250" />
      <path
         d="m 67.335993,14.436032 h -1.480012 v -2.051897 h 0.529167 v 1.655023 h 0.950845 z"
         id="path5252" />
      <path
         d="m 69.54912,14.436032 h -0.54708 l -0.141938,-0.414789 h -0.760677 l -0.141937,0.414789 h -0.533301 l 0.757921,-2.051897 H 68.7912 Z m -0.817176,-0.790993 -0.25218,-0.735872 -0.252181,0.735872 z"
         id="path5254" />
      <path
         d="m 71.45219,12.78101 h -0.640787 v 1.655022 H 70.282236 V 12.78101 h -0.640787 v -0.396875 h 1.810741 z"
         id="path5256" />
      <path
         d="M 72.879837,14.436032 H 71.678188 V 14.07223 h 0.336242 v -1.324293 h -0.336242 v -0.363802 h 1.201649 v 0.363802 h -0.336241 v 1.324293 h 0.336241 z"
         id="path5258" />
      <path
         d="m 75.309316,13.410773 q 0,0.490581 -0.281119,0.779969 -0.28112,0.288009 -0.777213,0.288009 -0.494715,0 -0.775835,-0.288009 -0.28112,-0.289388 -0.28112,-0.779969 0,-0.494716 0.28112,-0.781347 0.28112,-0.28801 0.775835,-0.28801 0.493337,0 0.775835,0.28801 0.282497,0.286631 0.282497,0.781347 z m -0.70142,0.51952 q 0.07717,-0.09371 0.114377,-0.220486 0.03721,-0.128158 0.03721,-0.300412 0,-0.184657 -0.04272,-0.314193 -0.04272,-0.129535 -0.111621,-0.209462 -0.07028,-0.08268 -0.162608,-0.119889 -0.09095,-0.03721 -0.190169,-0.03721 -0.100597,0 -0.190169,0.03583 -0.08819,0.03583 -0.162609,0.118511 -0.0689,0.07717 -0.112999,0.213596 -0.04272,0.135048 -0.04272,0.314193 0,0.183279 0.04134,0.312814 0.04272,0.128158 0.111621,0.209462 0.0689,0.0813 0.161231,0.119889 0.09233,0.03859 0.194303,0.03859 0.101975,0 0.194303,-0.03859 0.09233,-0.03996 0.161231,-0.122645 z"
         id="path5260" />
      <path
         d="m 77.577566,14.436032 h -0.509874 l -0.870919,-1.408354 v 1.408354 h -0.485069 v -2.051897 h 0.632519 l 0.748274,1.175466 v -1.175466 h 0.485069 z"
         id="path5262" />
      <path
         d="M 80.177921,14.436032 H 78.976273 V 14.07223 h 0.336241 v -1.324293 h -0.336241 v -0.363802 h 1.201648 v 0.363802 H 79.84168 v 1.324293 h 0.336241 z"
         id="path5264" />
      <path
         d="m 82.477865,14.436032 h -0.509874 l -0.870919,-1.408354 v 1.408354 h -0.485069 v -2.051897 h 0.632519 l 0.748274,1.175466 v -1.175466 h 0.485069 z"
         id="path5266" />
      <path
         d="m 84.697884,13.031812 q 0,0.137804 -0.04823,0.270096 -0.04823,0.130913 -0.137803,0.220486 -0.122646,0.121267 -0.27423,0.183279 -0.150206,0.06201 -0.374826,0.06201 h -0.329351 v 0.668348 h -0.529166 v -2.051897 h 0.870919 q 0.195682,0 0.329351,0.03445 0.135048,0.03307 0.238401,0.100597 0.124023,0.0813 0.188791,0.208083 0.06615,0.12678 0.06615,0.304546 z m -0.547081,0.0124 q 0,-0.08682 -0.04685,-0.148828 -0.04685,-0.06339 -0.108865,-0.08819 -0.08268,-0.03307 -0.161231,-0.03583 -0.07855,-0.0041 -0.209461,-0.0041 h -0.09095 v 0.614605 h 0.151584 q 0.135048,0 0.221864,-0.01654 0.08819,-0.01654 0.14745,-0.06615 0.05099,-0.0441 0.07304,-0.104731 0.02343,-0.06201 0.02343,-0.150206 z"
         id="path5268" />
      <path
         d="m 86.868291,13.69327 q 0,0.380339 -0.23151,0.58291 -0.23151,0.202571 -0.682129,0.202571 -0.450618,0 -0.682128,-0.202571 -0.230132,-0.202571 -0.230132,-0.581532 v -1.310513 h 0.531922 v 1.280196 q 0,0.213596 0.08957,0.318327 0.08957,0.104731 0.290765,0.104731 0.198438,0 0.289388,-0.100597 0.09233,-0.100597 0.09233,-0.322461 v -1.280196 h 0.531922 z"
         id="path5270" />
      <path
         d="m 88.969798,12.78101 h -0.640787 v 1.655022 H 87.799845 V 12.78101 h -0.640787 v -0.396875 h 1.81074 z"
         id="path5272" />
    </g>
    <g
       aria-label="OUT1"
       id="text2294-6"
       style="font-weight:bold;font-size:2.82222px;line-height:1.25;-inkscape-font-specification:'sans-serif, Bold';stroke-width:0.264583">
      <path
         d="m 111.93578,28.519927 q 0,0.490582 -0.28112,0.779969 -0.28112,0.28801 -0.77721,0.28801 -0.49471,0 -0.77583,-0.28801 -0.28112,-0.289387 -0.28112,-0.779969 0,-0.494715 0.28112,-0.781347 0.28112,-0.288009 0.77583,-0.288009 0.49334,0 0.77584,0.288009 0.28249,0.286632 0.28249,0.781347 z m -0.70142,0.51952 q 0.0772,-0.09371 0.11438,-0.220486 0.0372,-0.128157 0.0372,-0.300412 0,-0.184657 -0.0427,-0.314192 -0.0427,-0.129536 -0.11162,-0.209462 -0.0703,-0.08268 -0.16261,-0.119889 -0.091,-0.03721 -0.19017,-0.03721 -0.1006,0 -0.19017,0.03583 -0.0882,0.03583 -0.16261,0.118511 -0.0689,0.07717 -0.113,0.213596 -0.0427,0.135048 -0.0427,0.314192 0,0.183279 0.0413,0.312815 0.0427,0.128157 0.11163,0.209461 0.0689,0.08131 0.16123,0.11989 0.0923,0.03859 0.1943,0.03859 0.10197,0 0.1943,-0.03859 0.0923,-0.03996 0.16123,-0.122646 z"
         id="path5275" />
      <path
         d="m 114.13513,28.802425 q 0,0.380338 -0.23151,0.58291 -0.23151,0.202571 -0.68213,0.202571 -0.45062,0 -0.68213,-0.202571 -0.23013,-0.202572 -0.23013,-0.581532 V 27.49329 h 0.53192 v 1.280196 q 0,0.213596 0.0896,0.318327 0.0896,0.104731 0.29076,0.104731 0.19844,0 0.28939,-0.100597 0.0923,-0.100597 0.0923,-0.322461 V 27.49329 h 0.53192 z"
         id="path5277" />
      <path
         d="m 116.23664,27.890164 h -0.64079 v 1.655023 h -0.52917 V 27.890164 H 114.4259 V 27.49329 h 1.81074 z"
         id="path5279" />
      <path
         d="m 118.02946,29.545187 h -1.36977 v -0.35829 h 0.43271 v -1.084515 h -0.43271 v -0.334863 q 0.0992,0 0.19017,-0.01102 0.0909,-0.0124 0.15159,-0.04134 0.0717,-0.03445 0.10748,-0.08957 0.0358,-0.05512 0.0413,-0.137803 h 0.45613 v 1.699119 h 0.42305 z"
         id="path5281" />
    </g>
    <g
       aria-label="LEFT"
       id="text2294-6-4"
       style="font-weight:bold;font-size:2.82222px;line-height:1.25;-inkscape-font-specification:'sans-serif, Bold';display:inline;stroke-width:0.264583">
      <path
         d="m 146.16832,30.939457 h -1.48001 V 28.88756 h 0.52917 v 1.655022 h 0.95084 z"
         id="path5284" />
      <path
         d="m 147.96942,30.939457 h -1.48415 V 28.88756 h 1.48415 v 0.396874 h -0.95774 v 0.354156 h 0.88883 v 0.396875 h -0.88883 v 0.507117 h 0.95774 z"
         id="path5286" />
      <path
         d="m 149.88489,29.284434 h -0.94396 v 0.381717 h 0.87506 v 0.396874 h -0.87506 v 0.876432 h -0.52641 V 28.88756 h 1.47037 z"
         id="path5288" />
      <path
         d="m 151.85548,29.284434 h -0.64079 v 1.655023 h -0.52916 v -1.655023 h -0.64079 V 28.88756 h 1.81074 z"
         id="path5290" />
    </g>
    <g
       aria-label="RIGHT"
       id="text2294-6-4-3"
       style="font-weight:bold;font-size:2.82222px;line-height:1.25;-inkscape-font-specification:'sans-serif, Bold';display:inline;stroke-width:0.264583">
      <path
         d="m 144.68968,75.88425 q 0,-0.07717 -0.0317,-0.132292 -0.0317,-0.05512 -0.10886,-0.08682 -0.0537,-0.02205 -0.1254,-0.02618 -0.0717,-0.0055 -0.16674,-0.0055 h -0.19155 v 0.552593 h 0.16261 q 0.12678,0 0.21221,-0.0124 0.0854,-0.0124 0.14332,-0.0565 0.0551,-0.04272 0.0799,-0.09371 0.0262,-0.05237 0.0262,-0.139182 z m 0.82544,1.423512 h -0.6463 l -0.55948,-0.752408 h -0.24391 v 0.752408 h -0.52641 v -2.051897 h 0.88745 q 0.18191,0 0.31282,0.02067 0.13091,0.02067 0.24529,0.08957 0.11575,0.0689 0.18328,0.179145 0.0689,0.108865 0.0689,0.274229 0,0.227376 -0.10611,0.370692 -0.10473,0.143316 -0.30041,0.2384 z"
         id="path5293" />
      <path
         d="m 146.85871,77.307762 h -1.20165 V 76.94396 h 0.33624 v -1.324293 h -0.33624 v -0.363802 h 1.20165 v 0.363802 h -0.33624 v 1.324293 h 0.33624 z"
         id="path5295" />
      <path
         d="m 149.10767,77.190629 q -0.13781,0.05374 -0.36518,0.107487 -0.22738,0.05237 -0.45338,0.05237 -0.52365,0 -0.81993,-0.283875 -0.29628,-0.285254 -0.29628,-0.78686 0,-0.478178 0.29904,-0.770322 0.29903,-0.293522 0.83371,-0.293522 0.20257,0 0.38585,0.03721 0.18328,0.03583 0.4079,0.144694 v 0.480935 h -0.0593 q -0.0386,-0.02894 -0.113,-0.08131 -0.0744,-0.05374 -0.14331,-0.09095 -0.0799,-0.0441 -0.18742,-0.07579 -0.1061,-0.03169 -0.22599,-0.03169 -0.14056,0 -0.25494,0.04134 -0.11438,0.04134 -0.20533,0.12678 -0.0868,0.08268 -0.1378,0.210839 -0.0496,0.12678 -0.0496,0.293522 0,0.340375 0.18052,0.520898 0.18052,0.180523 0.5333,0.180523 0.0303,0 0.0662,-0.0014 0.0372,-0.0014 0.0675,-0.0041 V 76.565 h -0.40928 v -0.387228 h 0.94672 z"
         id="path5297" />
      <path
         d="m 151.42001,77.307762 h -0.52916 V 76.40377 h -0.78135 v 0.903992 h -0.52917 v -2.051897 h 0.52917 v 0.75103 h 0.78135 v -0.75103 h 0.52916 z"
         id="path5299" />
      <path
         d="m 153.55046,75.65274 h -0.64079 v 1.655022 H 152.3805 V 75.65274 h -0.64078 v -0.396875 h 1.81074 z"
         id="path5301" />
    </g>
    <g
       aria-label="OUT2"
       id="text2294-0"
       style="font-weight:bold;font-size:2.82222px;line-height:1.25;-inkscape-font-specification:'sans-serif, Bold';stroke-width:0.264583">
      <path
         d="m 123.42355,28.519927 q 0,0.490582 -0.28112,0.779969 -0.28112,0.28801 -0.77722,0.28801 -0.49471,0 -0.77583,-0.28801 -0.28112,-0.289387 -0.28112,-0.779969 0,-0.494715 0.28112,-0.781347 0.28112,-0.288009 0.77583,-0.288009 0.49334,0 0.77584,0.288009 0.2825,0.286632 0.2825,0.781347 z m -0.70143,0.51952 q 0.0772,-0.09371 0.11438,-0.220486 0.0372,-0.128157 0.0372,-0.300412 0,-0.184657 -0.0427,-0.314192 -0.0427,-0.129536 -0.11162,-0.209462 -0.0703,-0.08268 -0.16261,-0.119889 -0.0909,-0.03721 -0.19017,-0.03721 -0.1006,0 -0.19017,0.03583 -0.0882,0.03583 -0.16261,0.118511 -0.0689,0.07717 -0.113,0.213596 -0.0427,0.135048 -0.0427,0.314192 0,0.183279 0.0413,0.312815 0.0427,0.128157 0.11162,0.209461 0.0689,0.08131 0.16123,0.11989 0.0923,0.03859 0.1943,0.03859 0.10198,0 0.1943,-0.03859 0.0923,-0.03996 0.16123,-0.122646 z"
         id="path5304" />
      <path
         d="m 125.62289,28.802425 q 0,0.380338 -0.23151,0.58291 -0.23151,0.202571 -0.68213,0.202571 -0.45061,0 -0.68212,-0.202571 -0.23014,-0.202572 -0.23014,-0.581532 V 27.49329 h 0.53193 v 1.280196 q 0,0.213596 0.0896,0.318327 0.0896,0.104731 0.29076,0.104731 0.19844,0 0.28939,-0.100597 0.0923,-0.100597 0.0923,-0.322461 V 27.49329 h 0.53192 z"
         id="path5306" />
      <path
         d="m 127.7244,27.890164 h -0.64079 v 1.655023 h -0.52916 v -1.655023 h -0.64079 V 27.49329 h 1.81074 z"
         id="path5308" />
      <path
         d="m 129.64676,29.545187 h -1.61092 V 29.20619 q 0.18465,-0.13367 0.36931,-0.283876 0.18603,-0.150206 0.29766,-0.259071 0.16674,-0.16123 0.23702,-0.281119 0.0703,-0.11989 0.0703,-0.237023 0,-0.14056 -0.0909,-0.216352 -0.0896,-0.07717 -0.25907,-0.07717 -0.12678,0 -0.26734,0.05237 -0.13918,0.05236 -0.25907,0.133669 h -0.0441 v -0.45613 q 0.0978,-0.04272 0.28801,-0.08544 0.19155,-0.04272 0.38309,-0.04272 0.38585,0 0.58843,0.162608 0.20257,0.16123 0.20257,0.457508 0,0.194304 -0.0978,0.369314 -0.0965,0.175011 -0.29628,0.361046 -0.1254,0.115755 -0.25218,0.213596 -0.12678,0.09646 -0.18053,0.135047 h 0.92191 z"
         id="path5310" />
    </g>
    <g
       id="path6726">
      <path
         style="color:#000000;fill:#000000;-inkscape-stroke:none"
         d="M 144.98047,17.298828 V 17.5625 h 2.42578 v 6.800781 h 0.26367 v -7.064453 z"
         id="path5573" />
      <g
         id="g5563">
        <g
           id="path5565">
          <path
             style="color:#000000;fill:#000000;fill-rule:evenodd;stroke-width:0.211666pt;-inkscape-stroke:none"
             d="m 147.53797,21.718046 -1.05833,-1.058332 1.05833,3.704162 1.05833,-3.704162 z"
             id="path5569" />
          <path
             style="color:#000000;fill:#000000;fill-rule:evenodd;-inkscape-stroke:none"
             d="m 146.19531,20.175781 1.3418,4.701172 1.34375,-4.701172 -1.3418,1.34375 z m 2.11524,0.96875 -0.77149,2.705078 -0.77344,-2.703125 0.77149,0.771485 0.10156,-0.09961 z"
             id="path5571" />
        </g>
      </g>
    </g>
    <g
       id="path6726-3">
      <path
         style="color:#000000;fill:#000000;-inkscape-stroke:none"
         d="m 147.5332,110.62109 v 7.03125 h -2.80664 v 0.26368 h 3.07031 v -7.29493 z"
         id="path5587" />
      <g
         id="g5577">
        <g
           id="path5579">
          <path
             style="color:#000000;fill:#000000;fill-rule:evenodd;stroke-width:0.211666pt;-inkscape-stroke:none"
             d="m 147.66527,113.26753 1.05833,1.05833 -1.05833,-3.70416 -1.05833,3.70416 z"
             id="path5583" />
          <path
             style="color:#000000;fill:#000000;fill-rule:evenodd;-inkscape-stroke:none"
             d="m 147.66602,110.10742 -1.34375,4.70313 1.34375,-1.34375 1.34375,1.34375 z m -0.002,1.02735 0.77344,2.70507 -0.77148,-0.77148 -0.0996,0.0996 -0.67579,0.67578 z"
             id="path5585" />
        </g>
      </g>
    </g>
    <g
       id="path7426">
      <path
         style="color:#000000;fill:#000000;-inkscape-stroke:none"
         d="m 113.38281,34.609375 v 87.039065 h 21.79297 v -0.26563 H 113.64844 V 34.609375 Z"
         id="path5782" />
      <g
         id="g5591">
        <g
           id="path5593">
          <path
             style="color:#000000;fill:#000000;fill-rule:evenodd;stroke-width:0.211666pt;-inkscape-stroke:none"
             d="m 132.52899,121.51541 -1.05833,1.05833 3.70416,-1.05833 -3.70416,-1.05833 z"
             id="path5779" />
          <path
             style="color:#000000;fill:#000000;fill-rule:evenodd;-inkscape-stroke:none"
             d="m 130.98633,120.17188 1.34375,1.34375 -1.34375,1.34375 4.70117,-1.34375 z m 0.96679,0.56835 2.70899,0.7754 -2.70508,0.77148 0.77149,-0.77148 -0.0996,-0.0996 z"
             id="path5776" />
        </g>
      </g>
    </g>
    <path
       style="color:#000000;fill:#000000;-inkscape-stroke:none"
       d="m 98.921875,33.878906 v 79.169924 h 0.251953 V 33.878906 Z"
       id="path7426-4" />
    <path
       style="color:#000000;fill:#000000;-inkscape-stroke:none"
       d="m 86.322266,33.878906 v 79.169924 h 0.253906 V 33.878906 Z"
       id="path7426-4-5" />
    <path
       style="color:#000000;fill:#000000;-inkscape-stroke:none"
       d="m 73.722656,33.878906 v 79.169924 h 0.253906 V 33.878906 Z"
       id="path7426-4-5-2" />
    <path
       style="color:#000000;fill:#000000;-inkscape-stroke:none"
       d="m 61.123047,33.878906 v 79.169924 h 0.253906 V 33.878906 Z"
       id="path7426-4-5-1" />
    <path
       style="color:#000000;fill:#000000;-inkscape-stroke:none"
       d="m 48.523437,33.878906 v 79.169924 h 0.253907 V 33.878906 Z"
       id="path7426-4-5-5" />
    <path
       style="color:#000000;fill:#000000;-inkscape-stroke:none"
       d="m 35.923828,33.878906 v 79.169924 h 0.253906 V 33.878906 Z"
       id="path7426-4-5-59" />
    <path
       style="color:#000000;fill:#000000;-inkscape-stroke:none"
       d="m 113.5332,13.072266 v 11.902343 h 0.26563 V 13.335938 h 21.37695 v -0.263672 z"
       id="path5752" />
    <g
       id="g5629">
      <g
         id="path5631">
        <path
           style="color:#000000;fill:#000000;fill-rule:evenodd;stroke-width:0.211666pt;-inkscape-stroke:none"
           d="m 132.52899,13.204509 -1.05833,1.058332 3.70416,-1.058332 -3.70416,-1.058332 z"
           id="path5635" />
        <path
           style="color:#000000;fill:#000000;fill-rule:evenodd;-inkscape-stroke:none"
           d="m 130.98633,11.861328 1.34375,1.34375 -1.34375,1.34375 4.70117,-1.34375 z m 0.96679,0.56836 2.70899,0.773437 -2.70508,0.773438 0.77149,-0.771485 -0.0996,-0.09961 z"
           id="path5637" />
      </g>
    </g>
    <g
       id="path7430">
      <path
         style="color:#000000;fill:#000000;-inkscape-stroke:none"
         d="m 124.82227,20.253906 v 4.035156 h 0.26562 v -3.771484 h 10.08789 v -0.263672 z"
         id="path5747" />
      <g
         id="g5643">
        <g
           id="path5645">
          <path
             style="color:#000000;fill:#000000;fill-rule:evenodd;stroke-width:0.211666pt;-inkscape-stroke:none"
             d="m 132.52899,20.38617 -1.05833,1.058332 3.70416,-1.058332 -3.70416,-1.058332 z"
             id="path5744" />
          <path
             style="color:#000000;fill:#000000;fill-rule:evenodd;-inkscape-stroke:none"
             d="m 130.98633,19.042969 1.34375,1.34375 -1.34375,1.34375 4.70117,-1.34375 z m 0.96679,0.568359 2.70899,0.775391 -2.70508,0.771484 0.77149,-0.771484 -0.0996,-0.09961 z"
             id="path5741" />
        </g>
      </g>
    </g>
    <g
       id="path7432">
      <path
         style="color:#000000;fill:#000000;-inkscape-stroke:none"
         d="m 124.97852,34.75 v 78.63477 h 10.19726 v -0.26563 h -9.93164 V 34.75 Z"
         id="path5767" />
      <g
         id="g5657">
        <g
           id="path5659">
          <path
             style="color:#000000;fill:#000000;fill-rule:evenodd;stroke-width:0.211666pt;-inkscape-stroke:none"
             d="m 132.52899,113.25171 -1.05833,1.05833 3.70416,-1.05833 -3.70416,-1.05833 z"
             id="path5764" />
          <path
             style="color:#000000;fill:#000000;fill-rule:evenodd;-inkscape-stroke:none"
             d="m 130.98633,111.9082 1.34375,1.34375 -1.34375,1.34375 4.70117,-1.34375 z m 0.96679,0.56836 2.70899,0.77344 -2.70508,0.77344 0.77149,-0.77149 -0.0996,-0.0996 z"
             id="path5761" />
        </g>
      </g>
    </g>
    <path
       style="color:#000000;fill:#000000;-inkscape-stroke:none"
       d="m 137.25391,29.677734 v 33.722657 h 21.19921 V 29.908203 h -0.26367 V 63.134766 H 137.51758 V 29.677734 Z"
       id="path7938" />
    <path
       style="color:#000000;fill:#000000;-inkscape-stroke:none"
       d="m 137.25391,72.119141 v 33.490239 h 0.26367 V 72.382812 h 20.67187 v 33.457028 h 0.26367 V 72.119141 Z"
       id="path7938-5" />
    <g
       aria-label="PATCHING AND AUDIO OUT"
       id="text23912-0"
       style="font-size:5.24991px;line-height:1.25;font-family:'.Keyboard';-inkscape-font-specification:'.Keyboard, Normal';display:inline;stroke-width:0.131248">
      <path
         d="m 66.288358,4.31475 q 0.269161,0 0.492179,0.08972 0.223019,0.08972 0.381952,0.2537799 0.161496,0.1614962 0.248653,0.3870783 0.08972,0.225582 0.08972,0.4973059 0,0.266597 -0.08972,0.4896156 -0.08972,0.2230186 -0.251217,0.3845149 -0.161496,0.1589328 -0.387078,0.248653 -0.223019,0.08972 -0.489616,0.08972 h -0.95616 V 8.1086302 H 64.855399 V 4.31475 Z m -0.961287,2.0199849 h 0.835679 q 0.407586,0 0.630604,-0.2050747 0.223019,-0.207638 0.223019,-0.587026 0,-0.3922052 -0.220455,-0.5998432 Q 66.578026,4.7351529 66.16275,4.7351529 h -0.835679 z"
         id="path5313" />
      <path
         d="M 70.133507,7.0217348 H 68.623645 L 68.244257,8.1086302 H 67.746951 L 69.144022,4.31475 h 0.469108 l 1.399634,3.7938802 H 70.515458 Z M 68.764634,6.6218393 h 1.230448 L 69.400365,4.9274104 h -0.04358 z"
         id="path5315" />
      <path
         d="M 72.220141,8.1086302 V 4.7402798 H 70.997384 V 4.31475 h 2.919749 v 0.4255298 h -1.222757 v 3.3683504 z"
         id="path5317" />
      <path
         d="m 75.990951,8.1983503 q -0.387078,0 -0.697253,-0.1384253 Q 74.983522,7.9214996 74.765631,7.6651563 74.547739,7.4062497 74.429821,7.0396788 74.314466,6.6731079 74.314466,6.2142535 q 0,-0.4588544 0.115355,-0.8279887 0.117918,-0.3691343 0.333246,-0.6254775 0.217892,-0.2589067 0.528067,-0.3973321 0.310176,-0.1384253 0.697254,-0.1384253 0.299922,0 0.558828,0.08972 0.26147,0.08972 0.463981,0.2537798 0.202512,0.1614963 0.33581,0.3896418 0.133299,0.225582 0.176877,0.4998693 H 77.041959 Q 76.995817,5.2734738 76.898406,5.1273581 76.800996,4.978679 76.662571,4.8761417 76.526709,4.771041 76.354959,4.7172089 q -0.17175,-0.056395 -0.366571,-0.056395 -0.274287,0 -0.494743,0.1102276 -0.217891,0.1076642 -0.371697,0.3101753 -0.153806,0.1999478 -0.2384,0.4896156 -0.08203,0.2871045 -0.08203,0.6434216 0,0.3563171 0.08203,0.6434216 0.08459,0.2871044 0.2384,0.4896156 0.153806,0.1999478 0.374261,0.3076119 0.220455,0.1076642 0.494742,0.1076642 0.197385,0 0.369135,-0.048705 0.17175,-0.048705 0.307612,-0.1409888 0.138425,-0.092284 0.233272,-0.2230187 0.09485,-0.1332984 0.140989,-0.2973581 h 0.481925 q -0.0487,0.2614701 -0.182004,0.474235 -0.130735,0.2102015 -0.330683,0.361444 -0.199947,0.1486791 -0.458854,0.2281455 -0.258907,0.08203 -0.561392,0.08203 z"
         id="path5319" />
      <path
         d="M 80.87429,8.1086302 V 6.3808766 H 78.790219 V 8.1086302 H 78.318548 V 4.31475 h 0.471671 V 5.9553468 H 80.87429 V 4.31475 h 0.471671 v 3.7938802 z"
         id="path5321" />
      <path
         d="M 82.494379,8.1086302 V 4.31475 h 0.471672 v 3.7938802 z"
         id="path5323" />
      <path
         d="M 84.111905,8.1086302 V 4.31475 h 0.458855 l 2.058436,2.9530743 h 0.04358 V 4.31475 h 0.466545 V 8.1086302 H 86.680465 L 84.622028,5.1658096 h -0.04358 v 2.9428206 z"
         id="path5325" />
      <path
         d="m 91.294643,6.6423468 q 0,0.3511902 -0.115354,0.6382947 -0.115355,0.2871044 -0.328119,0.492179 -0.210202,0.2025112 -0.50756,0.3153022 -0.297358,0.1102276 -0.661366,0.1102276 -0.392205,0 -0.710071,-0.1384253 Q 88.654308,7.9189362 88.428726,7.6600295 88.205707,7.4011228 88.082662,7.0345519 87.962181,6.6654177 87.962181,6.2116901 q 0,-0.4486007 0.123045,-0.8151716 0.123045,-0.3691343 0.346063,-0.6280409 0.225582,-0.2589067 0.543448,-0.3998955 0.317866,-0.1435522 0.707507,-0.1435522 0.315302,0 0.581899,0.084593 0.269161,0.084593 0.474236,0.2435261 0.207638,0.1589328 0.343499,0.3845149 0.135862,0.2255821 0.187131,0.5075597 H 90.789647 Q 90.666602,5.0581454 90.384625,4.8607611 90.105211,4.6608134 89.682244,4.6608134 q -0.281977,0 -0.510123,0.1102276 -0.228145,0.1076642 -0.389642,0.3101753 -0.158932,0.2025112 -0.246089,0.4896156 -0.08716,0.2871045 -0.08716,0.6408582 0,0.3588805 0.08459,0.645985 0.08716,0.2871044 0.246089,0.4896156 0.161496,0.1999478 0.389642,0.3076119 0.230709,0.1076642 0.51525,0.1076642 0.25378,0 0.463981,-0.076903 0.210201,-0.079466 0.358881,-0.2204552 0.151242,-0.1435522 0.233272,-0.3409365 0.08203,-0.1973843 0.08203,-0.438347 v -0.092284 h -1.066388 v -0.415276 h 1.538059 v 0.4639813 z"
         id="path5327" />
      <path
         d="M 95.967781,7.0217348 H 94.457919 L 94.078531,8.1086302 H 93.581225 L 94.978296,4.31475 h 0.469108 l 1.399634,3.7938802 H 96.349732 Z M 94.598908,6.6218393 h 1.230447 L 95.234639,4.9274104 h -0.04358 z"
         id="path5329" />
      <path
         d="M 97.51353,8.1086302 V 4.31475 h 0.458854 l 2.058436,2.9530743 h 0.0436 V 4.31475 h 0.46654 v 3.7938802 h -0.45885 L 98.023653,5.1658096 h -0.04358 v 2.9428206 z"
         id="path5331" />
      <path
         d="m 102.81215,4.31475 q 0.42296,0 0.75364,0.1281716 0.33325,0.1281717 0.56396,0.3716977 0.23071,0.2435261 0.35119,0.5972798 0.12304,0.3511903 0.12304,0.799791 0,0.4486007 -0.12304,0.8023544 -0.12048,0.3511902 -0.35119,0.5947163 -0.22815,0.2435261 -0.56139,0.3716978 -0.33325,0.1281716 -0.75621,0.1281716 h -1.29967 V 4.31475 Z m -0.82799,3.3683504 h 0.79722 q 0.31787,0 0.56652,-0.09741 0.24866,-0.099974 0.42041,-0.2871044 0.17175,-0.189694 0.26147,-0.4614179 0.0897,-0.2742873 0.0897,-0.6203506 0,-0.3486269 -0.0923,-0.6229142 -0.0897,-0.2742872 -0.26147,-0.4639813 -0.17175,-0.189694 -0.4204,-0.2896678 -0.24865,-0.099974 -0.56396,-0.099974 h -0.79722 z"
         id="path5333" />
      <path
         d="m 109.25662,7.0217348 h -1.50987 l -0.37938,1.0868954 h -0.49731 L 108.26713,4.31475 h 0.46911 l 1.39963,3.7938802 h -0.4973 z m -1.36888,-0.3998955 h 1.23045 l -0.59472,-1.6944289 h -0.0436 z"
         id="path5335" />
      <path
         d="m 111.20611,6.7730818 q 0,0.2153284 0.0692,0.3973321 0.0692,0.1820037 0.19995,0.3127387 0.1333,0.1307351 0.32555,0.2050746 0.19482,0.07434 0.44091,0.07434 0.24609,0 0.43835,-0.07434 0.19226,-0.074339 0.32299,-0.2050746 0.1333,-0.130735 0.20251,-0.3127387 0.0692,-0.1820037 0.0692,-0.3973321 V 4.31475 h 0.47167 v 2.489093 q 0,0.3050485 -0.10254,0.5613917 -0.10254,0.2537799 -0.29736,0.4409104 -0.19482,0.1845672 -0.47423,0.2896679 -0.27685,0.1025373 -0.63061,0.1025373 -0.35375,0 -0.63316,-0.1025373 -0.27942,-0.1051007 -0.47424,-0.2896679 -0.19482,-0.1871305 -0.29736,-0.4409104 -0.10253,-0.2563432 -0.10253,-0.5613917 V 4.31475 h 0.47167 z"
         id="path5337" />
      <path
         d="m 116.02921,4.31475 q 0.42296,0 0.75364,0.1281716 0.33325,0.1281717 0.56396,0.3716977 0.23071,0.2435261 0.35119,0.5972798 0.12304,0.3511903 0.12304,0.799791 0,0.4486007 -0.12304,0.8023544 -0.12048,0.3511902 -0.35119,0.5947163 -0.22815,0.2435261 -0.56139,0.3716978 -0.33325,0.1281716 -0.75621,0.1281716 h -1.29967 V 4.31475 Z m -0.82799,3.3683504 h 0.79722 q 0.31787,0 0.56652,-0.09741 0.24866,-0.099974 0.42041,-0.2871044 0.17175,-0.189694 0.26147,-0.4614179 0.0897,-0.2742873 0.0897,-0.6203506 0,-0.3486269 -0.0923,-0.6229142 -0.0897,-0.2742872 -0.26147,-0.4639813 -0.17175,-0.189694 -0.4204,-0.2896678 -0.24865,-0.099974 -0.56396,-0.099974 h -0.79722 z"
         id="path5339" />
      <path
         d="M 118.81309,8.1086302 V 4.31475 h 0.47167 v 3.7938802 z"
         id="path5341" />
      <path
         d="m 122.02507,4.2250299 q 0.40502,0 0.72545,0.1409887 0.323,0.1384254 0.54602,0.3973321 0.22558,0.2563432 0.3435,0.6254775 0.12048,0.3665709 0.12048,0.8228619 0,0.4537276 -0.12048,0.8202984 -0.11792,0.3665709 -0.34094,0.628041 -0.22302,0.2589067 -0.54601,0.3998955 -0.32043,0.1384253 -0.72802,0.1384253 -0.40758,0 -0.73058,-0.1384253 -0.32299,-0.1409888 -0.54857,-0.3998955 -0.22558,-0.2589067 -0.34606,-0.6254776 -0.11792,-0.3691342 -0.11792,-0.8228618 0,-0.456291 0.12048,-0.8228619 0.12304,-0.3691343 0.34863,-0.6280409 0.22814,-0.2589067 0.54857,-0.3973321 0.32299,-0.1384253 0.72545,-0.1384253 z m 0,0.4357835 q -0.28967,0 -0.52294,0.1102276 -0.23071,0.1076642 -0.39477,0.3101753 -0.16406,0.1999478 -0.25121,0.4870522 -0.0872,0.2871045 -0.0872,0.6434216 0,0.3537537 0.0846,0.6408581 0.0872,0.284541 0.24866,0.4870522 0.16149,0.2025112 0.39477,0.3127388 0.23327,0.1102276 0.52806,0.1102276 0.29223,0 0.52294,-0.1102276 0.23328,-0.1102276 0.39221,-0.3127388 0.16149,-0.2025112 0.24609,-0.4870522 0.0871,-0.2871044 0.0871,-0.6408581 0,-0.3563171 -0.0871,-0.6434216 -0.0846,-0.2871044 -0.24609,-0.4870522 -0.1615,-0.2025111 -0.39221,-0.3101753 -0.23071,-0.1102276 -0.52294,-0.1102276 z"
         id="path5343" />
      <path
         d="m 127.93122,4.2250299 q 0.40502,0 0.72545,0.1409887 0.32299,0.1384254 0.54601,0.3973321 0.22558,0.2563432 0.3435,0.6254775 0.12048,0.3665709 0.12048,0.8228619 0,0.4537276 -0.12048,0.8202984 -0.11792,0.3665709 -0.34093,0.628041 -0.22302,0.2589067 -0.54602,0.3998955 -0.32042,0.1384253 -0.72801,0.1384253 -0.40759,0 -0.73058,-0.1384253 -0.32299,-0.1409888 -0.54857,-0.3998955 -0.22559,-0.2589067 -0.34607,-0.6254776 -0.11791,-0.3691342 -0.11791,-0.8228618 0,-0.456291 0.12048,-0.8228619 0.12304,-0.3691343 0.34862,-0.6280409 0.22815,-0.2589067 0.54858,-0.3973321 0.32299,-0.1384253 0.72545,-0.1384253 z m 0,0.4357835 q -0.28967,0 -0.52294,0.1102276 -0.23071,0.1076642 -0.39477,0.3101753 -0.16406,0.1999478 -0.25122,0.4870522 -0.0871,0.2871045 -0.0871,0.6434216 0,0.3537537 0.0846,0.6408581 0.0872,0.284541 0.24865,0.4870522 0.1615,0.2025112 0.39477,0.3127388 0.23327,0.1102276 0.52807,0.1102276 0.29223,0 0.52294,-0.1102276 0.23327,-0.1102276 0.39221,-0.3127388 0.16149,-0.2025112 0.24608,-0.4870522 0.0872,-0.2871044 0.0872,-0.6408581 0,-0.3563171 -0.0872,-0.6434216 -0.0846,-0.2871044 -0.24608,-0.4870522 -0.1615,-0.2025111 -0.39221,-0.3101753 -0.23071,-0.1102276 -0.52294,-0.1102276 z"
         id="path5345" />
      <path
         d="m 130.97401,6.7730818 q 0,0.2153284 0.0692,0.3973321 0.0692,0.1820037 0.19994,0.3127387 0.1333,0.1307351 0.32556,0.2050746 0.19482,0.07434 0.44091,0.07434 0.24609,0 0.43835,-0.07434 0.19225,-0.074339 0.32299,-0.2050746 0.1333,-0.130735 0.20251,-0.3127387 0.0692,-0.1820037 0.0692,-0.3973321 V 4.31475 h 0.47167 v 2.489093 q 0,0.3050485 -0.10253,0.5613917 -0.10254,0.2537799 -0.29736,0.4409104 -0.19482,0.1845672 -0.47424,0.2896679 -0.27685,0.1025373 -0.6306,0.1025373 -0.35375,0 -0.63317,-0.1025373 -0.27941,-0.1051007 -0.47423,-0.2896679 -0.19482,-0.1871305 -0.29736,-0.4409104 -0.10254,-0.2563432 -0.10254,-0.5613917 V 4.31475 h 0.47167 z"
         id="path5347" />
      <path
         d="M 135.48309,8.1086302 V 4.7402798 h -1.22276 V 4.31475 h 2.91975 v 0.4255298 h -1.22275 v 3.3683504 z"
         id="path5349" />
    </g>
    <path
       style="color:#000000;fill:#110000;-inkscape-stroke:none"
       d="m 50.642578,4.2265625 -1.5625,0.076172 -0.03906,3.6816406 -1.322266,0.019531 -2.498047,-3.6816407 -1.423828,0.011719 0.05273,3.6171875 -2.68164,-0.058594 -0.0098,-3.5527344 -1.533203,0.033203 0.01172,3.2578125 -2.525391,-3.3046875 -0.02148,3.5761718 -1.302735,0.019531 -2.416015,-3.6308594 -1.363282,0.044922 0.07227,3.7089844 -2.707031,0.019531 0.03906,-3.75 -1.355468,0.025391 -2.613282,3.5878907 0.107422,0.076172 2.572266,-3.5351563 1.158203,-0.021484 -0.04102,3.75 2.97461,-0.021484 -0.07227,-3.7128907 1.160156,-0.039063 2.416016,3.6308594 1.501953,-0.023437 0.01953,-3.3203125 2.527344,3.3085938 -0.01172,-3.5175782 1.269532,-0.027344 0.01172,3.546875 2.947266,0.0625 -0.05273,-3.6210938 1.21875,-0.00977 2.5,3.6835938 1.521484,-0.023437 0.03906,-3.6855469 1.304688,-0.0625 0.130859,3.8027344 2.960938,-0.00195 -0.144531,-3.7441406 1.382812,-0.00977 0.06055,3.7597656 2.513672,-0.035156 0.06055,-3.7421876 1.498047,0.00781 2.164062,3.7812501 0.113281,-0.064453 -2.201172,-3.8457031 -1.703125,-0.011719 -0.06055,3.7460938 -2.25586,0.03125 -0.06055,-3.7578125 -1.648437,0.00977 0.144531,3.7441407 -2.697266,0.00195 z"
       id="path22502" />
    <g
       aria-label="BEYOND OBNOXIOUS"
       id="text23912-2"
       style="font-size:2.11667px;line-height:1.25;font-family:'.Keyboard';-inkscape-font-specification:'.Keyboard, Normal';display:inline;stroke-width:0.131248">
      <path
         d="m 69.982859,125.6888 v -1.52963 h 0.584978 q 0.10542,0 0.189136,0.0269 0.08372,0.0269 0.142627,0.0765 0.05891,0.0496 0.08992,0.11988 0.03101,0.0703 0.03101,0.15813 0,0.06 -0.02067,0.11576 -0.02067,0.0548 -0.05684,0.0992 -0.03514,0.0444 -0.08372,0.0754 -0.04754,0.03 -0.103353,0.0393 v 0.0176 q 0.07855,0.009 0.141594,0.0403 0.06305,0.031 0.107487,0.0796 0.04444,0.0486 0.06821,0.11266 0.02481,0.0641 0.02481,0.13952 0,0.10129 -0.03514,0.18087 -0.03514,0.0796 -0.10232,0.13436 -0.06615,0.0548 -0.163298,0.0847 -0.09612,0.0289 -0.218074,0.0289 z m 0.190169,-0.87024 h 0.305925 q 0.3483,0 0.3483,-0.24494 0,-0.11782 -0.07855,-0.1819 -0.07855,-0.0641 -0.221175,-0.0641 h -0.354501 z m 0.377239,0.70177 q 0.173633,0 0.262516,-0.0682 0.08888,-0.0682 0.08888,-0.20257 0,-0.13333 -0.09302,-0.19947 -0.09198,-0.0672 -0.275952,-0.0672 h -0.359669 v 0.53743 z"
         id="path5352" />
      <path
         d="M 72.356877,125.6888 H 71.40913 v -1.52963 h 0.947747 v 0.17157 H 71.5993 v 0.49093 h 0.718303 v 0.16949 H 71.5993 v 0.52607 h 0.757577 z"
         id="path5354" />
      <path
         d="m 73.12479,125.6888 v -0.65836 l -0.542603,-0.87127 h 0.217041 l 0.412379,0.67903 h 0.01654 l 0.412379,-0.67903 h 0.218075 l -0.542603,0.87127 v 0.65836 z"
         id="path5356" />
      <path
         d="m 74.772238,124.123 q 0.163298,0 0.292489,0.0568 0.130225,0.0558 0.220142,0.1602 0.09095,0.10335 0.138493,0.25218 0.04858,0.1478 0.04858,0.33176 0,0.18294 -0.04858,0.33073 -0.04754,0.1478 -0.13746,0.25322 -0.08992,0.10439 -0.220142,0.16123 -0.129191,0.0558 -0.293522,0.0558 -0.164331,0 -0.294556,-0.0558 -0.130225,-0.0568 -0.221176,-0.16123 -0.09095,-0.10439 -0.139526,-0.25218 -0.04754,-0.14883 -0.04754,-0.33177 0,-0.18396 0.04858,-0.33176 0.04961,-0.14883 0.14056,-0.25321 0.09199,-0.10439 0.221176,-0.1602 0.130225,-0.0558 0.292489,-0.0558 z m 0,0.1757 q -0.116789,0 -0.21084,0.0444 -0.09302,0.0434 -0.159164,0.12506 -0.06615,0.0806 -0.101286,0.19637 -0.03514,0.11575 -0.03514,0.25941 0,0.14263 0.03411,0.25839 0.03514,0.11472 0.100252,0.19637 0.06511,0.0817 0.159164,0.12609 0.09405,0.0444 0.212907,0.0444 0.117822,0 0.21084,-0.0444 0.09405,-0.0444 0.15813,-0.12609 0.06511,-0.0816 0.09922,-0.19637 0.03514,-0.11576 0.03514,-0.25839 0,-0.14366 -0.03514,-0.25941 -0.03411,-0.11576 -0.09922,-0.19637 -0.06511,-0.0816 -0.15813,-0.12506 -0.09302,-0.0444 -0.21084,-0.0444 z"
         id="path5358" />
      <path
         d="m 75.803701,125.6888 v -1.52963 h 0.185002 l 0.829925,1.19063 h 0.01757 v -1.19063 H 77.0243 v 1.52963 h -0.185002 l -0.829925,-1.1865 h -0.01757 v 1.1865 z"
         id="path5360" />
      <path
         d="m 77.940008,124.15917 q 0.170532,0 0.303858,0.0517 0.134359,0.0517 0.227376,0.14986 0.09302,0.0982 0.141594,0.24081 0.04961,0.1416 0.04961,0.32246 0,0.18087 -0.04961,0.3235 -0.04858,0.14159 -0.141594,0.23978 -0.09198,0.0982 -0.226343,0.14986 -0.134359,0.0517 -0.304891,0.0517 h -0.524 v -1.52963 z m -0.333831,1.35806 h 0.321428 q 0.128158,0 0.228411,-0.0393 0.100252,-0.0403 0.169499,-0.11576 0.06925,-0.0765 0.10542,-0.18603 0.03617,-0.11059 0.03617,-0.25012 0,-0.14056 -0.03721,-0.25115 -0.03617,-0.11058 -0.10542,-0.18707 -0.06925,-0.0765 -0.169499,-0.11678 -0.100252,-0.0403 -0.227377,-0.0403 h -0.321428 z"
         id="path5362" />
      <path
         d="m 80.340899,124.123 q 0.163297,0 0.292489,0.0568 0.130224,0.0558 0.220142,0.1602 0.09095,0.10335 0.138493,0.25218 0.04858,0.1478 0.04858,0.33176 0,0.18294 -0.04858,0.33073 -0.04754,0.1478 -0.13746,0.25322 -0.08992,0.10439 -0.220142,0.16123 -0.129191,0.0558 -0.293522,0.0558 -0.164332,0 -0.294557,-0.0558 -0.130224,-0.0568 -0.221175,-0.16123 -0.09095,-0.10439 -0.139527,-0.25218 -0.04754,-0.14883 -0.04754,-0.33177 0,-0.18396 0.04858,-0.33176 0.04961,-0.14883 0.14056,-0.25321 0.09198,-0.10439 0.221176,-0.1602 0.130224,-0.0558 0.292489,-0.0558 z m 0,0.1757 q -0.116789,0 -0.210841,0.0444 -0.09302,0.0434 -0.159163,0.12506 -0.06615,0.0806 -0.101286,0.19637 -0.03514,0.11575 -0.03514,0.25941 0,0.14263 0.03411,0.25839 0.03514,0.11472 0.100253,0.19637 0.06511,0.0817 0.159163,0.12609 0.09405,0.0444 0.212908,0.0444 0.117822,0 0.21084,-0.0444 0.09405,-0.0444 0.15813,-0.12609 0.06511,-0.0816 0.09922,-0.19637 0.03514,-0.11576 0.03514,-0.25839 0,-0.14366 -0.03514,-0.25941 -0.03411,-0.11576 -0.09922,-0.19637 -0.06511,-0.0816 -0.15813,-0.12506 -0.09302,-0.0444 -0.21084,-0.0444 z"
         id="path5364" />
      <path
         d="m 81.372362,125.6888 v -1.52963 h 0.584978 q 0.10542,0 0.189136,0.0269 0.08372,0.0269 0.142627,0.0765 0.05891,0.0496 0.08992,0.11988 0.03101,0.0703 0.03101,0.15813 0,0.06 -0.02067,0.11576 -0.02067,0.0548 -0.05684,0.0992 -0.03514,0.0444 -0.08372,0.0754 -0.04754,0.03 -0.103353,0.0393 v 0.0176 q 0.07855,0.009 0.141593,0.0403 0.06305,0.031 0.107487,0.0796 0.04444,0.0486 0.06821,0.11266 0.0248,0.0641 0.0248,0.13952 0,0.10129 -0.03514,0.18087 -0.03514,0.0796 -0.102319,0.13436 -0.06615,0.0548 -0.163298,0.0847 -0.09612,0.0289 -0.218075,0.0289 z m 0.19017,-0.87024 h 0.305925 q 0.348299,0 0.348299,-0.24494 0,-0.11782 -0.07855,-0.1819 -0.07855,-0.0641 -0.221176,-0.0641 h -0.3545 z m 0.377238,0.70177 q 0.173633,0 0.262517,-0.0682 0.08888,-0.0682 0.08888,-0.20257 0,-0.13333 -0.09302,-0.19947 -0.09198,-0.0672 -0.275953,-0.0672 h -0.359668 v 0.53743 z"
         id="path5366" />
      <path
         d="m 82.798633,125.6888 v -1.52963 h 0.185002 l 0.829925,1.19063 h 0.01757 v -1.19063 h 0.188103 v 1.52963 h -0.185002 l -0.829925,-1.1865 h -0.01757 v 1.1865 z"
         id="path5368" />
      <path
         d="m 85.053796,124.123 q 0.163298,0 0.292489,0.0568 0.130225,0.0558 0.220142,0.1602 0.09095,0.10335 0.138493,0.25218 0.04858,0.1478 0.04858,0.33176 0,0.18294 -0.04858,0.33073 -0.04754,0.1478 -0.13746,0.25322 -0.08992,0.10439 -0.220142,0.16123 -0.129191,0.0558 -0.293522,0.0558 -0.164331,0 -0.294556,-0.0558 -0.130225,-0.0568 -0.221176,-0.16123 -0.09095,-0.10439 -0.139526,-0.25218 -0.04754,-0.14883 -0.04754,-0.33177 0,-0.18396 0.04858,-0.33176 0.04961,-0.14883 0.14056,-0.25321 0.09198,-0.10439 0.221176,-0.1602 0.130225,-0.0558 0.292489,-0.0558 z m 0,0.1757 q -0.116789,0 -0.21084,0.0444 -0.09302,0.0434 -0.159164,0.12506 -0.06615,0.0806 -0.101286,0.19637 -0.03514,0.11575 -0.03514,0.25941 0,0.14263 0.03411,0.25839 0.03514,0.11472 0.100252,0.19637 0.06511,0.0817 0.159164,0.12609 0.09405,0.0444 0.212907,0.0444 0.117822,0 0.21084,-0.0444 0.09405,-0.0444 0.15813,-0.12609 0.06511,-0.0816 0.09922,-0.19637 0.03514,-0.11576 0.03514,-0.25839 0,-0.14366 -0.03514,-0.25941 -0.03411,-0.11576 -0.09922,-0.19637 -0.06511,-0.0816 -0.15813,-0.12506 -0.09302,-0.0444 -0.21084,-0.0444 z"
         id="path5370" />
      <path
         d="m 86.509008,124.91882 -0.517799,-0.75965 h 0.230477 l 0.403077,0.60875 h 0.01654 l 0.409278,-0.60875 h 0.217041 l -0.530201,0.76895 0.518832,0.76068 h -0.229444 l -0.399976,-0.60358 h -0.01757 l -0.407211,0.60358 h -0.217041 z"
         id="path5372" />
      <path
         d="m 87.632454,125.6888 v -1.52963 h 0.190169 v 1.52963 z"
         id="path5374" />
      <path
         d="m 88.927468,124.123 q 0.163298,0 0.292489,0.0568 0.130225,0.0558 0.220142,0.1602 0.09095,0.10335 0.138493,0.25218 0.04858,0.1478 0.04858,0.33176 0,0.18294 -0.04858,0.33073 -0.04754,0.1478 -0.137459,0.25322 -0.08992,0.10439 -0.220142,0.16123 -0.129191,0.0558 -0.293523,0.0558 -0.164331,0 -0.294556,-0.0558 -0.130225,-0.0568 -0.221175,-0.16123 -0.09095,-0.10439 -0.139527,-0.25218 -0.04754,-0.14883 -0.04754,-0.33177 0,-0.18396 0.04858,-0.33176 0.04961,-0.14883 0.14056,-0.25321 0.09198,-0.10439 0.221175,-0.1602 0.130225,-0.0558 0.292489,-0.0558 z m 0,0.1757 q -0.116789,0 -0.21084,0.0444 -0.09302,0.0434 -0.159163,0.12506 -0.06615,0.0806 -0.101286,0.19637 -0.03514,0.11575 -0.03514,0.25941 0,0.14263 0.03411,0.25839 0.03514,0.11472 0.100252,0.19637 0.06511,0.0817 0.159164,0.12609 0.09405,0.0444 0.212907,0.0444 0.117823,0 0.210841,-0.0444 0.09405,-0.0444 0.15813,-0.12609 0.06511,-0.0816 0.09922,-0.19637 0.03514,-0.11576 0.03514,-0.25839 0,-0.14366 -0.03514,-0.25941 -0.03411,-0.11576 -0.09922,-0.19637 -0.06511,-0.0816 -0.15813,-0.12506 -0.09302,-0.0444 -0.210841,-0.0444 z"
         id="path5376" />
      <path
         d="m 90.154268,125.15033 q 0,0.0868 0.02791,0.16019 0.02791,0.0734 0.08062,0.1261 0.05374,0.0527 0.131258,0.0827 0.07855,0.03 0.177767,0.03 0.09922,0 0.176734,-0.03 0.07752,-0.03 0.130225,-0.0827 0.05374,-0.0527 0.08165,-0.1261 0.02791,-0.0734 0.02791,-0.16019 v -0.99116 h 0.19017 v 1.00356 q 0,0.12299 -0.04134,0.22634 -0.04134,0.10232 -0.119889,0.17777 -0.07855,0.0744 -0.191203,0.11679 -0.111622,0.0413 -0.254249,0.0413 -0.142627,0 -0.255282,-0.0413 -0.112654,-0.0424 -0.191203,-0.11679 -0.07855,-0.0755 -0.119889,-0.17777 -0.04134,-0.10335 -0.04134,-0.22634 v -1.00356 h 0.190169 z"
         id="path5378" />
      <path
         d="m 91.695262,125.28882 q 0.0083,0.06 0.04031,0.10852 0.03204,0.0486 0.08268,0.0827 0.05168,0.0341 0.11989,0.0527 0.06821,0.0186 0.149862,0.0186 0.07751,0 0.142627,-0.0196 0.06511,-0.0196 0.112655,-0.0548 0.04857,-0.0351 0.07545,-0.0837 0.02687,-0.0486 0.02687,-0.10542 0,-0.0982 -0.07441,-0.16227 -0.07338,-0.0641 -0.232544,-0.10335 l -0.195338,-0.0506 q -0.104386,-0.0258 -0.179834,-0.0631 -0.07441,-0.0372 -0.12299,-0.0879 -0.04754,-0.0506 -0.07131,-0.11472 -0.02274,-0.0651 -0.02274,-0.14676 0,-0.0971 0.03824,-0.17777 0.03927,-0.0806 0.110588,-0.13746 0.07131,-0.0579 0.170533,-0.0889 0.100252,-0.032 0.221175,-0.032 0.110588,0 0.205673,0.032 0.09508,0.031 0.165364,0.0868 0.07028,0.0558 0.112655,0.13333 0.04238,0.0775 0.04858,0.17053 h -0.192236 q -0.0093,-0.0589 -0.03824,-0.10438 -0.02791,-0.0465 -0.07338,-0.0785 -0.04444,-0.0331 -0.104386,-0.0496 -0.05891,-0.0176 -0.130225,-0.0176 -0.07648,0 -0.139527,0.0186 -0.06201,0.0186 -0.106453,0.0527 -0.04341,0.0331 -0.06821,0.0806 -0.02377,0.0475 -0.02377,0.10542 0,0.0444 0.01654,0.0806 0.01654,0.0351 0.05168,0.0651 0.03514,0.0289 0.09095,0.0527 0.05581,0.0238 0.135393,0.0434 l 0.160197,0.0424 q 0.118856,0.03 0.202572,0.0692 0.08372,0.0383 0.137459,0.0899 0.05374,0.0517 0.07855,0.11782 0.0248,0.0662 0.0248,0.1509 0,0.10542 -0.04031,0.1912 -0.03928,0.0847 -0.113689,0.1447 -0.07441,0.0589 -0.179834,0.091 -0.10542,0.0331 -0.236678,0.0331 -0.121957,0 -0.223243,-0.031 -0.101286,-0.031 -0.1757,-0.0879 -0.07441,-0.0568 -0.118856,-0.13745 -0.04341,-0.0806 -0.05064,-0.17984 z"
         id="path5380" />
    </g>
    <path
       style="color:#000000;fill:#000000;-inkscape-stroke:none"
       d="m 128.00781,38.40625 -95.203123,0.0957 0.002,0.265625 95.201169,-0.0957 z"
       id="path4227" />
    <path
       style="color:#000000;fill:#000000;-inkscape-stroke:none"
       d="m 127.91406,43.097656 -95.201169,0.0957 v 0.265625 l 95.203129,-0.0957 z"
       id="path4227-5" />
    <path
       style="color:#000000;fill:#000000;-inkscape-stroke:none"
       d="m 127.91406,51.46875 -95.201169,0.0957 v 0.263672 l 95.203129,-0.0957 z"
       id="path4227-5-5" />
    <path
       style="color:#000000;fill:#000000;-inkscape-stroke:none"
       d="M 127.91406,56.654297 32.712891,56.75 v 0.265625 l 95.203129,-0.0957 z"
       id="path4227-5-4" />
    <path
       style="color:#000000;fill:#000000;-inkscape-stroke:none"
       d="m 127.91406,69.716797 -95.201169,0.0957 v 0.263672 l 95.203129,-0.0957 z"
       id="path4227-5-2" />
    <path
       style="color:#000000;fill:#000000;-inkscape-stroke:none"
       d="m 127.91406,77.591797 -95.201169,0.0957 v 0.263672 l 95.203129,-0.0957 z"
       id="path4227-5-9" />
    <path
       style="color:#000000;fill:#000000;-inkscape-stroke:none"
       d="m 127.91406,82.777344 -95.201169,0.0957 v 0.265625 l 95.203129,-0.0957 z"
       id="path4227-5-24" />
    <path
       style="color:#000000;fill:#000000;-inkscape-stroke:none"
       d="m 127.91406,90.652344 -95.201169,0.0957 v 0.265625 l 95.203129,-0.0957 z"
       id="path4227-5-58" />
    <path
       style="color:#000000;fill:#000000;-inkscape-stroke:none"
       d="m 127.91406,95.839844 -95.201169,0.0957 v 0.263672 l 95.203129,-0.0957 z"
       id="path4227-5-6" />
    <path
       style="color:#000000;fill:#000000;-inkscape-stroke:none"
       d="m 127.91406,103.71484 -95.201169,0.0957 v 0.26367 l 95.203129,-0.0957 z"
       id="path4227-5-25" />
    <path
       style="color:#000000;fill:#000000;-inkscape-stroke:none"
       d="m 127.91406,108.90039 -95.201169,0.0957 v 0.26563 l 95.203129,-0.0957 z"
       id="path4227-5-13" />
    <path
       style="color:#000000;fill:#000000;-inkscape-stroke:none"
       d="M 127.91406,64.529297 32.712891,64.625 v 0.265625 l 95.203129,-0.0957 z"
       id="path4227-5-1" />
  </g>
</svg>
