<?xml version="1.0" encoding="UTF-8" standalone="no"?>
<!-- Created with Inkscape (http://www.inkscape.org/) -->

<svg
   width="71.120003mm"
   height="128.5mm"
   viewBox="0 0 71.120001 128.5"
   version="1.1"
   id="svg1"
   inkscape:version="1.1.2 (0a00cf5339, 2022-02-04)"
   sodipodi:docname="PeepingTom.svg"
   xmlns:inkscape="http://www.inkscape.org/namespaces/inkscape"
   xmlns:sodipodi="http://sodipodi.sourceforge.net/DTD/sodipodi-0.dtd"
   xmlns:xlink="http://www.w3.org/1999/xlink"
   xmlns="http://www.w3.org/2000/svg"
   xmlns:svg="http://www.w3.org/2000/svg">
  <sodipodi:namedview
     id="namedview1"
     pagecolor="#ffffff"
     bordercolor="#666666"
     borderopacity="1.0"
     inkscape:showpageshadow="2"
     inkscape:pageopacity="0.0"
     inkscape:pagecheckerboard="0"
     inkscape:deskcolor="#d1d1d1"
     inkscape:document-units="mm"
     showgrid="true"
     inkscape:zoom="1.0866215"
     inkscape:cx="234.21219"
     inkscape:cy="308.75517"
     inkscape:window-width="1480"
     inkscape:window-height="966"
     inkscape:window-x="106"
     inkscape:window-y="145"
     inkscape:window-maximized="0"
     showguides="true"
     inkscape:current-layer="layer3"
     inkscape:pageshadow="2">
    <inkscape:grid
       id="grid1"
       units="mm"
       originx="0"
       originy="0"
       spacingx="7"
       spacingy="7"
       empcolor="#0099e5"
       empopacity="0.30196078"
       color="#0099e5"
       opacity="0.14901961"
       empspacing="5"
       enabled="true"
       visible="false"
       dotted="false" />
    <sodipodi:guide
       position="3.0000001,128.5"
       orientation="-1,0"
       id="guide5"
       inkscape:locked="false"
       inkscape:label="keepout"
       inkscape:color="rgb(0,134,229)" />
    <sodipodi:guide
       position="0,124.5"
       orientation="0,1"
       id="guide6"
       inkscape:locked="false"
       inkscape:label="Keepout"
       inkscape:color="rgb(0,134,229)" />
    <sodipodi:guide
       position="0,4.0000001"
       orientation="0,1"
       id="guide7"
       inkscape:label="Keepout"
       inkscape:locked="false"
       inkscape:color="rgb(0,134,229)" />
    <sodipodi:guide
       position="0,119.5"
       orientation="0,1"
       id="guide8"
       inkscape:locked="false"
       inkscape:label="Title"
       inkscape:color="rgb(0,134,229)" />
    <sodipodi:guide
       position="0,115.5"
       orientation="0,1"
       id="guide9"
       inkscape:locked="false"
       inkscape:label="Body - top"
       inkscape:color="rgb(0,134,229)" />
    <sodipodi:guide
       position="0,6.0000001"
       orientation="0,1"
       id="guide10"
       inkscape:locked="false"
       inkscape:label="footer"
       inkscape:color="rgb(0,134,229)" />
    <sodipodi:guide
       position="0,14"
       orientation="0,1"
       id="guide11"
       inkscape:label="Body - bottom"
       inkscape:locked="false"
       inkscape:color="rgb(0,134,229)" />
    <sodipodi:guide
       position="26,128.5"
       orientation="-1,0"
       id="guide12"
       inkscape:label="core end"
       inkscape:locked="false"
       inkscape:color="rgb(0,134,229)" />
    <sodipodi:guide
       position="108.76,128.5"
       orientation="-1,0"
       id="guide13"
       inkscape:locked="false"
       inkscape:label="keepout"
       inkscape:color="rgb(0,134,229)" />
    <sodipodi:guide
       position="29.000001,128.5"
       orientation="-1,0"
       id="guide14"
       inkscape:label="mod start"
       inkscape:locked="false"
       inkscape:color="rgb(0,134,229)" />
    <sodipodi:guide
       position="52.000001,128.5"
       orientation="-1,0"
       id="guide15"
       inkscape:label="mod end"
       inkscape:locked="false"
       inkscape:color="rgb(0,134,229)" />
    <sodipodi:guide
       position="55.000001,128.5"
       orientation="-1,0"
       id="guide1"
       inkscape:label="sync start"
       inkscape:locked="false"
       inkscape:color="rgb(0,134,229)" />
    <sodipodi:guide
       position="78.000001,128.5"
       orientation="-1,0"
       id="guide2"
       inkscape:label="sync end"
       inkscape:locked="false"
       inkscape:color="rgb(0,134,229)" />
    <sodipodi:guide
       position="81.000001,128.5"
       orientation="-1,0"
       id="guide3"
       inkscape:label="dest start"
       inkscape:locked="false"
       inkscape:color="rgb(0,134,229)" />
    <sodipodi:guide
       position="14.5,128.5"
       orientation="-1,0"
       id="guide4"
       inkscape:label="core center"
       inkscape:locked="false"
       inkscape:color="rgb(0,134,229)" />
    <sodipodi:guide
       position="40.500001,128.5"
       orientation="-1,0"
       id="guide16"
       inkscape:label="mod center"
       inkscape:locked="false"
       inkscape:color="rgb(0,134,229)" />
    <sodipodi:guide
       position="66.500001,128.5"
       orientation="-1,0"
       id="guide17"
       inkscape:label="sync center"
       inkscape:locked="false"
       inkscape:color="rgb(0,134,229)" />
    <sodipodi:guide
       position="94.400002,128.5"
       orientation="-1,0"
       id="guide18"
       inkscape:label="dest center"
       inkscape:locked="false"
       inkscape:color="rgb(0,134,229)" />
    <sodipodi:guide
       position="0,70.500001"
       orientation="0,1"
       id="guide19"
       inkscape:locked="false"
       inkscape:label="knob"
       inkscape:color="rgb(0,134,229)" />
    <sodipodi:guide
       position="0,102.5"
       orientation="0,1"
       id="guide20"
       inkscape:locked="false"
       inkscape:label="freq knob"
       inkscape:color="rgb(0,134,229)" />
    <sodipodi:guide
       position="42,44.500003"
       orientation="0,-1"
       id="guide21"
       inkscape:locked="false" />
    <sodipodi:guide
       position="103,128.5"
       orientation="-1,0"
       id="guide22"
       inkscape:locked="false"
       inkscape:label="jack"
       inkscape:color="rgb(0,134,229)" />
    <sodipodi:guide
       position="88.750002,128.5"
       orientation="-1,0"
       id="guide23"
       inkscape:locked="false"
       inkscape:label="knob"
       inkscape:color="rgb(0,134,229)" />
  </sodipodi:namedview>
  <defs
     id="defs1">
    <inkscape:path-effect
       effect="powerclip"
       message=""
       id="path-effect58"
       is_visible="true"
       lpeversion="1"
       inverse="true"
       flatten="false"
       hide_clip="false" />
    <inkscape:path-effect
       effect="powerclip"
       message=""
       id="path-effect57"
       is_visible="true"
       lpeversion="1"
       inverse="true"
       flatten="false"
       hide_clip="false" />
    <inkscape:path-effect
       effect="powermask"
       id="path-effect55"
       is_visible="true"
       lpeversion="1"
       uri="#mask-powermask-path-effect55"
       invert="false"
       hide_mask="false"
       background="true"
       background_color="#ffffffff" />
    <linearGradient
       id="linearGradient53"
       inkscape:collect="always">
      <stop
         style="stop-color:#000000;stop-opacity:1;"
         offset="0"
         id="stop53" />
      <stop
         style="stop-color:#000000;stop-opacity:0;"
         offset="0.80392158"
         id="stop54" />
    </linearGradient>
    <inkscape:path-effect
       effect="powerclip"
       message=""
       id="path-effect52"
       is_visible="true"
       lpeversion="1"
       inverse="true"
       flatten="false"
       hide_clip="false" />
    <inkscape:path-effect
       effect="powerclip"
       message=""
       id="path-effect49"
       is_visible="true"
       lpeversion="1"
       inverse="true"
       flatten="false"
       hide_clip="false" />
    <inkscape:path-effect
       effect="powerclip"
       message=""
       id="path-effect42"
       is_visible="true"
       lpeversion="1"
       inverse="true"
       flatten="false"
       hide_clip="false" />
    <inkscape:path-effect
       effect="powerclip"
       message=""
       id="path-effect40"
       is_visible="true"
       lpeversion="1"
       inverse="true"
       flatten="false"
       hide_clip="false" />
    <inkscape:path-effect
       effect="powerclip"
       message=""
       id="path-effect38"
       is_visible="true"
       lpeversion="1"
       inverse="true"
       flatten="false"
       hide_clip="false" />
    <clipPath
       clipPathUnits="userSpaceOnUse"
       id="clipPath38">
      <rect
         style="display:block;fill:none;stroke:#000000;stroke-width:0.264999"
         id="rect38"
         width="21.166664"
         height="3.9687502"
         x="47.624996"
         y="11.90625" />
    </clipPath>
    <clipPath
       clipPathUnits="userSpaceOnUse"
       id="clipPath39">
      <rect
         style="display:block;fill:none;stroke:#000000;stroke-width:0.264999"
         id="rect40"
         width="21.166664"
         height="2.6458333"
         x="3.9687498"
         y="11.90625" />
    </clipPath>
    <clipPath
       clipPathUnits="userSpaceOnUse"
       id="clipPath41">
      <rect
         style="display:block;fill:none;stroke:#000000;stroke-width:0.264999"
         id="rect42"
         width="21.166664"
         height="2.6458333"
         x="47.624996"
         y="76.729164" />
    </clipPath>
    <clipPath
       clipPathUnits="userSpaceOnUse"
       id="clipath_lpe_path-effect49">
      <rect
         style="display:block;fill:none;stroke:#000000;stroke-width:0.264999"
         id="rect49"
         width="21.166664"
         height="2.6458333"
         x="3.9687498"
         y="11.90625" />
    </clipPath>
    <clipPath
       clipPathUnits="userSpaceOnUse"
       id="clipPath51">
      <rect
         style="display:none;fill:none;stroke:#000000;stroke-width:0.264999"
         id="rect52"
         width="38.364578"
         height="13.229168"
         x="-41.01041"
         y="104.51042"
         d="m -41.01041,104.51042 h 38.3645779 v 13.22917 H -41.01041 Z" />
    </clipPath>
    <mask
       maskUnits="userSpaceOnUse"
       id="mask-powermask-path-effect55">
      <rect
         style="opacity:1;fill:url(#linearGradient55);fill-opacity:1;stroke:#000000;stroke-width:0.303694"
         id="rect55"
         width="34.357136"
         height="43.485054"
         x="-35.699394"
         y="74.102692"
         rx="1.99775" />
    </mask>
    <linearGradient
       inkscape:collect="always"
       xlink:href="#linearGradient53"
       id="linearGradient55"
       gradientUnits="userSpaceOnUse"
       gradientTransform="matrix(0.99887511,0,0,1.3148236,1.3005972,-32.000838)"
       x1="-19.84375"
       y1="114.56485"
       x2="-19.843748"
       y2="79.903915" />
    <clipPath
       clipPathUnits="userSpaceOnUse"
       id="clipath_lpe_path-effect57">
      <rect
         style="display:none;fill:none;stroke:#000000;stroke-width:0.264999"
         id="rect57"
         width="38.364578"
         height="13.229168"
         x="-41.01041"
         y="104.51042"
         d="m -41.01041,104.51042 h 38.3645779 v 13.22917 H -41.01041 Z" />
    </clipPath>
    <clipPath
       clipPathUnits="userSpaceOnUse"
       id="clipPath57">
      <rect
         style="display:block;opacity:1;fill:none;fill-opacity:1;stroke:#000000;stroke-width:0.0745677;stroke-opacity:1"
         id="rect58"
         width="10.265318"
         height="2.6458359"
         x="-24.425148"
         y="82.020836"
         rx="1.1085159" />
    </clipPath>
    <linearGradient
       inkscape:collect="always"
       xlink:href="#linearGradient1-7"
       id="linearGradient2-2"
       x1="90.64563"
       y1="0.56384087"
       x2="65.227524"
       y2="127.93616"
       gradientUnits="userSpaceOnUse" />
    <linearGradient
       id="linearGradient1-7"
       inkscape:collect="always">
      <stop
         style="stop-color:#8f4637;stop-opacity:1;"
         offset="0"
         id="stop1-9" />
      <stop
         style="stop-color:#632910;stop-opacity:1;"
         offset="1"
         id="stop2-3" />
    </linearGradient>
  </defs>
  <g
     inkscape:groupmode="layer"
     id="layer3"
     inkscape:label="Background"
     style="display:inline;fill:#7a3d10;fill-opacity:1;stroke-width:0;stroke-dasharray:none"
     transform="matrix(1.0101931,0,0,1.0088534,-0.56958815,-0.56883277)">
    <rect
       style="font-variation-settings:normal;display:inline;opacity:1;vector-effect:none;fill:#dddbdd;fill-opacity:1;stroke:none;stroke-width:0;stroke-linecap:butt;stroke-linejoin:miter;stroke-miterlimit:1;stroke-dasharray:none;stroke-dashoffset:0;stroke-opacity:1;-inkscape-stroke:none;stop-color:#000000;stop-opacity:1"
       id="rect9-0"
       width="70.402382"
       height="127.37232"
       x="0.56384051"
       y="0.56384075" />
  </g>
  <g
     inkscape:label="components"
     inkscape:groupmode="layer"
     id="layer1"
     style="display:none">
    <rect
       id="rect219"
       data-name="Screen"
       y="74"
       width="18"
       height="3.636193"
       x="85.523071"
       style="display:inline;opacity:0.99;fill:#ffff00;stroke-width:0.0713581"
       inkscape:label="OUT1_TEXT" />
    <ellipse
       id="ellipse212"
       data-name="Tempo#RoundLargeBlackKnob"
       cx="40.500343"
       cy="102.92023"
       style="display:inline;opacity:0.99;fill:#ff0000;stroke-width:0.264591"
       inkscape:label="LINEAR_FM_BUTTON"
       rx="1.323"
       ry="1.3229166" />
    <ellipse
       id="ellipse210"
       data-name="Tempo#RoundLargeBlackKnob"
       cx="40.500343"
       cy="91.458267"
       style="display:inline;opacity:0.99;fill:#ff0000;stroke-width:0.264591"
       inkscape:label="EXP_FM_BUTTON"
       rx="1.323"
       ry="1.3229166" />
    <circle
       id="circle191"
       data-name="In03#PJ301MPort"
       cx="66.5"
       cy="72.10997"
       r="1.3229166"
       style="display:inline;opacity:0.99;fill:#00ff00;stroke-width:0.264583"
       inkscape:label="SYNC_PHASE_INPUT"
       inkscape:transform-center-x="-0.12594097"
       inkscape:transform-center-y="12.007235" />
    <ellipse
       id="ellipse191"
       data-name="Tempo#RoundLargeBlackKnob"
       cx="66.500076"
       cy="58.276142"
       style="display:inline;opacity:0.99;fill:#ff0000;stroke-width:0.264591"
       inkscape:label="SYNC_PHASE_KNOB"
       rx="1.3230188"
       ry="1.3229166" />
    <ellipse
       id="circle229"
       data-name="RGreen1#RedLight"
       cx="4.4679279"
       cy="121.58274"
       style="display:inline;opacity:0.99;fill:#ff00ff;stroke-width:0.264583"
       inkscape:label="COM_STATUS"
       rx="0.79400003"
       ry="0.79374999" />
    <ellipse
       id="ellipse211"
       data-name="Tempo#RoundLargeBlackKnob"
       cx="40.500343"
       cy="113.75739"
       style="display:inline;opacity:0.99;fill:#ff0000;stroke-width:0.264591"
       inkscape:label="EXT_MOD_PWM_BUTTON"
       rx="1.323"
       ry="1.3229166" />
    <circle
       id="circle538"
       data-name="In03#PJ301MPort"
       cx="40.5"
       cy="72.10997"
       r="1.3229166"
       style="display:inline;opacity:0.99;fill:#00ff00;stroke-width:0.264583"
       inkscape:label="EXT_MOD_AMOUNT_INPUT"
       inkscape:transform-center-x="-0.12594097"
       inkscape:transform-center-y="12.007235" />
    <ellipse
       id="ellipse539"
       data-name="Tempo#RoundLargeBlackKnob"
       cx="40.5"
       cy="58.110172"
       style="display:inline;opacity:0.99;fill:#ff0000;stroke-width:0.264591"
       inkscape:label="EXT_MOD_AMOUNT_KNOB"
       rx="1.323"
       ry="1.3229166" />
    <ellipse
       id="circle192"
       data-name="RGreen1#RedLight"
       cx="73.537926"
       cy="66.174927"
       style="display:inline;opacity:0.99;fill:#ff00ff;stroke-width:0.264587"
       inkscape:label="SYNC_PHASE_CLIP"
       rx="0.79400003"
       ry="0.79374999" />
    <ellipse
       id="ellipse279"
       data-name="Tempo#RoundLargeBlackKnob"
       cx="101.89226"
       cy="99.296516"
       style="display:inline;opacity:0.99;fill:#ff0000;stroke-width:0.264591"
       inkscape:label="MIX2_SAW_BUTTON"
       rx="1.323"
       ry="1.3229166" />
    <ellipse
       id="ellipse280"
       data-name="Tempo#RoundLargeBlackKnob"
       cx="88.834137"
       cy="99.296516"
       style="display:inline;opacity:0.99;fill:#ff0000;stroke-width:0.264591"
       inkscape:label="MIX2_PULSE_BUTTON"
       rx="1.323"
       ry="1.3229166" />
    <circle
       id="circle173"
       data-name="In03#PJ301MPort"
       cx="103"
       cy="23.299557"
       r="1.3229166"
       style="display:inline;opacity:0.99;fill:#00ff00;stroke-width:0.264583"
       inkscape:label="MIX1_PULSE_VCA_INPUT"
       inkscape:transform-center-x="-0.12594097"
       inkscape:transform-center-y="12.007235" />
    <ellipse
       id="ellipse173"
       data-name="Tempo#RoundLargeBlackKnob"
       cx="88.836105"
       cy="23.299557"
       style="display:inline;opacity:0.99;fill:#ff0000;stroke-width:0.264591"
       inkscape:label="MIX1_PULSE_KNOB"
       rx="1.323"
       ry="1.3229166" />
    <circle
       id="circle195"
       data-name="In03#PJ301MPort"
       cx="103"
       cy="43.649166"
       r="1.3229166"
       style="display:inline;opacity:0.99;fill:#00ff00;stroke-width:0.264583"
       inkscape:label="MIX1_SAW_VCA_INPUT"
       inkscape:transform-center-x="-0.12594097"
       inkscape:transform-center-y="12.007235" />
    <ellipse
       id="ellipse195"
       data-name="Tempo#RoundLargeBlackKnob"
       cx="88.836105"
       cy="43.649166"
       style="display:inline;opacity:0.99;fill:#ff0000;stroke-width:0.264591"
       inkscape:label="MIX1_SAW_KNOB"
       rx="1.323"
       ry="1.3229166" />
    <circle
       id="circle201"
       data-name="In03#PJ301MPort"
       cx="103"
       cy="64.369415"
       r="1.3229166"
       style="display:inline;opacity:0.99;fill:#00ff00;stroke-width:0.264583"
       inkscape:label="MIX1_TRIANGLE_VCA_INPUT"
       inkscape:transform-center-x="-0.12594097"
       inkscape:transform-center-y="12.007235" />
    <ellipse
       id="ellipse201"
       data-name="Tempo#RoundLargeBlackKnob"
       cx="88.836105"
       cy="64.369415"
       style="display:inline;opacity:0.99;fill:#ff0000;stroke-width:0.264591"
       inkscape:label="MIX1_TRIANGLE_KNOB"
       rx="1.323"
       ry="1.3229166" />
    <ellipse
       id="ellipse215"
       data-name="Tempo#RoundLargeBlackKnob"
       cx="72.159866"
       cy="99.296425"
       style="display:inline;opacity:0.99;fill:#ff0000;stroke-width:0.264591"
       inkscape:label="SYNC_POS_BUTTON"
       rx="1.323"
       ry="1.3229166" />
    <ellipse
       id="ellipse216"
       data-name="Tempo#RoundLargeBlackKnob"
       cx="60.840137"
       cy="99.296425"
       style="display:inline;opacity:0.99;fill:#ff0000;stroke-width:0.264591"
       inkscape:label="SYNC_HARD_BUTTON"
       rx="1.323"
       ry="1.3229166" />
    <rect
       id="rect5"
       data-name="Screen"
       y="104.30002"
       width="18"
       height="3.6367228"
       x="85.523071"
       style="display:inline;opacity:0.99;fill:#ffff00;stroke-width:0.0713632"
       inkscape:label="OUT2_TEXT" />
    <ellipse
       id="ellipse247"
       data-name="Tempo#RoundLargeBlackKnob"
       cx="72.159866"
       cy="110.69586"
       style="display:inline;opacity:0.99;fill:#ff0000;stroke-width:0.264591"
       inkscape:label="SYNC_NEG_BUTTON"
       rx="1.323"
       ry="1.3229166" />
    <ellipse
       id="ellipse248"
       data-name="Tempo#RoundLargeBlackKnob"
       cx="60.840137"
       cy="110.69586"
       style="display:inline;opacity:0.99;fill:#ff0000;stroke-width:0.264591"
       inkscape:label="SYNC_SOFT_BUTTON"
       rx="1.323"
       ry="1.3229166" />
    <circle
       id="circle17206"
       data-name="In03#PJ301MPort"
       cx="14.5"
       cy="40.111916"
       r="1.3229166"
       style="display:inline;opacity:0.99;fill:#00ff00;stroke-width:0.264583"
       inkscape:label="FREQ_INPUT"
       inkscape:transform-center-x="-0.12594097"
       inkscape:transform-center-y="12.007235" />
    <ellipse
       id="circle32678"
       data-name="Tempo#RoundLargeBlackKnob"
       cx="14.5"
       cy="26.1117"
       style="display:inline;opacity:0.99;fill:#ff0000;stroke-width:0.264591"
       inkscape:label="FREQ_KNOB"
       rx="1.323"
       ry="1.3229166" />
    <circle
       id="circle177"
       data-name="In03#PJ301MPort"
       cx="14.499981"
       cy="106.97791"
       r="1.3229166"
       style="display:inline;opacity:0.99;fill:#00ff00;stroke-width:0.264583"
       inkscape:label="PULSE_WIDTH_INPUT"
       inkscape:transform-center-x="-0.12594097"
       inkscape:transform-center-y="12.007235" />
    <ellipse
       id="ellipse177"
       data-name="Tempo#RoundLargeBlackKnob"
       cx="14.499981"
       cy="92.977554"
       style="display:inline;opacity:0.99;fill:#ff0000;stroke-width:0.264591"
       inkscape:label="PULSE_WIDTH_KNOB"
       rx="1.323"
       ry="1.3229166" />
    <circle
       id="circle537"
       data-name="In03#PJ301MPort"
       cx="14.5"
       cy="72.10997"
       r="1.3229166"
       style="display:inline;opacity:0.99;fill:#00ff00;stroke-width:0.264583"
       inkscape:label="LINEAR_INPUT"
       inkscape:transform-center-x="-0.12594097"
       inkscape:transform-center-y="12.007235" />
    <ellipse
       id="ellipse538"
       data-name="Tempo#RoundLargeBlackKnob"
       cx="14.5"
       cy="58.110172"
       style="display:inline;opacity:0.99;fill:#ff0000;stroke-width:0.264591"
       inkscape:label="LINEAR_KNOB"
       rx="1.323"
       ry="1.3229166" />
    <circle
       id="circle17"
       data-name="RGreen1#RedLight"
       cx="22.644928"
       cy="35.111927"
       r="0.79374999"
       style="display:inline;opacity:0.99;fill:#ff00ff;stroke-width:0.264583"
       inkscape:label="FREQ_CLIP" />
    <circle
       id="circle178"
       data-name="RGreen1#RedLight"
       cx="22.644928"
       cy="102.12292"
       r="0.79374999"
       style="display:inline;opacity:0.99;fill:#ff00ff;stroke-width:0.264583"
       inkscape:label="PULSE_WIDTH_CLIP" />
    <rect
       id="rect12209"
       data-name="Screen"
       y="24.91222"
       width="24.596848"
       height="3.6367228"
       x="40.68084"
       style="display:inline;opacity:0.99;fill:#ffff00;stroke-width:0.0713632"
       inkscape:label="MODULATION_TEXT" />
    <ellipse
       id="ellipse207"
       data-name="Tempo#RoundLargeBlackKnob"
       cx="56.373707"
       cy="35.391003"
       style="display:inline;opacity:0.99;fill:#ff0000;stroke-width:0.264591"
       inkscape:label="EXT_MOD_SELECT_SWITCH_UP"
       rx="1.323"
       ry="1.3229166" />
    <ellipse
       id="ellipse208"
       data-name="Tempo#RoundLargeBlackKnob"
       cx="47.304256"
       cy="35.391003"
       style="display:inline;opacity:0.99;fill:#ff0000;stroke-width:0.264591"
       inkscape:label="EXT_MOD_SELECT_SWITCH_DOWN"
       rx="1.323"
       ry="1.3229166" />
    <rect
       id="rect1"
       data-name="Screen"
       y="73.999741"
       width="18"
       height="3.6367228"
       x="85.523071"
       style="display:inline;opacity:0.99;fill:#ffff00;stroke-width:0.0713632"
       inkscape:label="OUT1_TEXT" />
    <path
       style="display:inline;opacity:0.5;fill:none;stroke:#f0e8d8;stroke-width:0.4;stroke-linecap:butt;stroke-linejoin:miter;stroke-dasharray:none;stroke-opacity:1"
       d="M 51.105595,40.010419 H 52 v 76.046931"
       id="path120"
       sodipodi:nodetypes="ccc" />
    <path
       style="display:inline;opacity:0.5;fill:none;stroke:#f0e8d8;stroke-width:0.4;stroke-linecap:butt;stroke-linejoin:miter;stroke-dasharray:none;stroke-opacity:1"
       d="M 56.214231,40.010419 H 55.1 v 76.046931"
       id="path121"
       sodipodi:nodetypes="ccc" />
    <path
       style="display:inline;opacity:0.5;fill:none;stroke:#f0e8d8;stroke-width:0.4;stroke-linecap:butt;stroke-linejoin:miter;stroke-dasharray:none;stroke-opacity:1"
       d="M 36.480074,19.87313 H 29.1 v 17.458016"
       id="path119"
       sodipodi:nodetypes="ccc" />
    <path
       style="display:inline;opacity:0.5;fill:none;stroke:#f0e8d8;stroke-width:0.4;stroke-linecap:butt;stroke-linejoin:miter;stroke-dasharray:none;stroke-opacity:1"
       d="M 69.014564,19.873129 78,19.87313 v 17.458016"
       id="path122"
       sodipodi:nodetypes="ccc" />
    <text
       xml:space="preserve"
       style="font-style:italic;font-variant:normal;font-weight:500;font-stretch:normal;font-size:2.11667px;line-height:1.25;font-family:Futura;-inkscape-font-specification:'Futura, Medium Italic';font-variant-ligatures:none;font-variant-caps:normal;font-variant-numeric:normal;font-variant-east-asian:normal;text-align:start;text-anchor:start;display:inline;opacity:0.6;fill:#f0e8d8;fill-opacity:1;stroke:none;stroke-width:0.264584;stroke-opacity:1"
       x="10.670752"
       y="17.76527"
       id="text24"><tspan
         sodipodi:role="line"
         id="tspan24"
         x="10.670752"
         y="17.76527">(octave)</tspan></text>
  </g>
  <g
     inkscape:groupmode="layer"
     id="layer2"
     inkscape:label="Text"
     style="display:inline">
    <g
       aria-label="PEEPING TOM"
       id="text1"
       style="font-weight:bold;font-size:4.23333px;font-family:Futura;-inkscape-font-specification:'Futura, Bold';font-variant-ligatures:none;text-align:center;letter-spacing:-0.0661458px;text-anchor:middle;fill:#f0e8d8;stroke:#7a3d10;stroke-width:0.264583"
       transform="translate(-20.311092)">
      <g
         id="path31521">
        <path
           style="color:#000000;-inkscape-font-specification:'Futura, Bold';stroke:none;-inkscape-stroke:none"
           d="m 40.213587,5.913888 h 1.320848 q 0.589111,0 0.903304,0.262516 0.316259,0.260449 0.316259,0.74414 0,0.4857581 -0.316259,0.7482741 -0.314193,0.260449 -0.903304,0.260449 h -0.525032 v 1.0707348 h -0.795816 z m 0.795816,0.5767085 v 0.8619621 h 0.440283 q 0.23151,0 0.357601,-0.111621 0.12609,-0.113688 0.12609,-0.3203936 0,-0.2067055 -0.12609,-0.3183265 -0.126091,-0.111621 -0.357601,-0.111621 z"
           id="path31562" />
        <path
           style="color:#000000;-inkscape-font-specification:'Futura, Bold';fill:#7a3d10;stroke:none;-inkscape-stroke:none"
           d="m 40.082031,5.78125 v 0.1328125 3.21875 h 1.060547 V 8.0625 h 0.392578 c 0.412236,0 0.745591,-0.091457 0.986328,-0.2910156 0.241695,-0.200623 0.365235,-0.4990141 0.365235,-0.8515625 0,-0.3512931 -0.123374,-0.6465232 -0.365235,-0.8457032 C 42.280898,5.8738839 41.946798,5.78125 41.535156,5.78125 Z m 0.263672,0.265625 h 1.189453 c 0.37309,0 0.640117,0.081543 0.81836,0.2304687 v 0.00195 c 0.179817,0.148085 0.267578,0.3469973 0.267578,0.640625 0,0.2951284 -0.0876,0.4970863 -0.267578,0.6464843 -0.178187,0.1477067 -0.445115,0.2304688 -0.81836,0.2304688 h -0.658203 v 1.0703125 h -0.53125 z m 0.53125,0.3105469 V 6.4902344 7.484375 h 0.572266 c 0.175601,0 0.331164,-0.043482 0.445312,-0.1445313 h 0.002 c 0.113675,-0.1024933 0.169922,-0.2552191 0.169922,-0.4199218 0,-0.1647027 -0.05747,-0.3147373 -0.171875,-0.4160157 C 41.780383,6.4028572 41.62482,6.3574219 41.449219,6.3574219 Z m 0.265625,0.265625 h 0.306641 c 0.133078,0 0.215558,0.030346 0.269531,0.078125 0.05371,0.047549 0.08203,0.1078456 0.08203,0.21875 0,0.1109044 -0.02759,0.1735657 -0.08203,0.2226562 -0.05397,0.047779 -0.136453,0.078125 -0.269531,0.078125 h -0.306641 z"
           id="path31564" />
      </g>
      <g
         id="path31523">
        <path
           style="color:#000000;-inkscape-font-specification:'Futura, Bold';stroke:none;-inkscape-stroke:none"
           d="m 43.250091,5.913888 h 2.147671 v 0.6015131 h -1.351854 v 0.5746415 h 1.271239 v 0.6015131 h -1.271239 v 0.706933 h 1.397329 v 0.6015132 h -2.193146 z"
           id="path31568" />
        <path
           style="color:#000000;-inkscape-font-specification:'Futura, Bold';fill:#7a3d10;stroke:none;-inkscape-stroke:none"
           d="m 43.117187,5.78125 v 0.1328125 3.21875 h 2.458985 V 8.265625 H 44.177734 V 7.8242187 h 1.271485 V 6.9570312 H 44.177734 V 6.6484375 h 1.351563 V 5.78125 Z m 0.265625,0.265625 h 1.882813 v 0.3359375 h -1.351563 v 0.8398437 h 1.271485 V 7.5585937 H 43.914062 V 8.53125 h 1.396485 v 0.3359375 h -1.927735 z"
           id="path31570" />
      </g>
      <g
         id="path31525">
        <path
           style="color:#000000;-inkscape-font-specification:'Futura, Bold';stroke:none;-inkscape-stroke:none"
           d="m 46.075756,5.913888 h 2.147671 v 0.6015131 h -1.351855 v 0.5746415 h 1.27124 v 0.6015131 h -1.27124 v 0.706933 h 1.39733 v 0.6015132 h -2.193146 z"
           id="path31574" />
        <path
           style="color:#000000;-inkscape-font-specification:'Futura, Bold';fill:#7a3d10;stroke:none;-inkscape-stroke:none"
           d="m 45.943359,5.78125 v 0.1328125 3.21875 h 2.457032 V 8.265625 H 47.003906 V 7.8242187 h 1.271485 V 6.9570312 H 47.003906 V 6.6484375 h 1.351563 V 5.78125 Z m 0.265625,0.265625 h 1.882813 v 0.3359375 h -1.351563 v 0.8398437 h 1.269532 V 7.5585937 H 46.740234 V 8.53125 h 1.396485 v 0.3359375 h -1.927735 z"
           id="path31576" />
      </g>
      <g
         id="path31527">
        <path
           style="color:#000000;-inkscape-font-specification:'Futura, Bold';stroke:none;-inkscape-stroke:none"
           d="m 48.901421,5.913888 h 1.320849 q 0.589111,0 0.903303,0.262516 0.31626,0.260449 0.31626,0.74414 0,0.4857581 -0.31626,0.7482741 -0.314192,0.260449 -0.903303,0.260449 h -0.525032 v 1.0707348 h -0.795817 z m 0.795817,0.5767085 v 0.8619621 h 0.440283 q 0.23151,0 0.3576,-0.111621 0.126091,-0.113688 0.126091,-0.3203936 0,-0.2067055 -0.126091,-0.3183265 -0.12609,-0.111621 -0.3576,-0.111621 z"
           id="path31580" />
        <path
           style="color:#000000;-inkscape-font-specification:'Futura, Bold';fill:#7a3d10;stroke:none;-inkscape-stroke:none"
           d="m 48.769531,5.78125 v 0.1328125 3.21875 h 1.060547 V 8.0625 h 0.392578 c 0.412236,0 0.747545,-0.091457 0.988281,-0.2910156 0.241696,-0.2006229 0.363282,-0.499014 0.363282,-0.8515625 0,-0.3512931 -0.123373,-0.6465232 -0.365235,-0.8457032 C 50.968399,5.8738837 50.634298,5.78125 50.222656,5.78125 Z m 0.263672,0.265625 h 1.189453 c 0.37309,0 0.640118,0.081543 0.81836,0.2304687 v 0.00195 c 0.179817,0.148085 0.267578,0.3469974 0.267578,0.640625 0,0.2951283 -0.0876,0.4970863 -0.267578,0.6464843 -0.178186,0.1477066 -0.445115,0.2304688 -0.81836,0.2304688 h -0.658203 v 1.0703125 h -0.53125 z m 0.53125,0.3105469 V 6.4902344 7.484375 h 0.572266 c 0.175601,0 0.331164,-0.043482 0.445312,-0.1445313 h 0.002 c 0.113675,-0.1024932 0.169922,-0.2552189 0.169922,-0.4199218 0,-0.1647029 -0.05747,-0.3147375 -0.171875,-0.4160157 C 50.467883,6.4028569 50.31232,6.3574219 50.136719,6.3574219 Z m 0.265625,0.265625 h 0.306641 c 0.133078,0 0.217512,0.030346 0.271484,0.078125 0.05371,0.04755 0.08008,0.1078458 0.08008,0.21875 0,0.1109042 -0.02759,0.1735656 -0.08203,0.2226562 -0.054,0.047234 -0.137337,0.078125 -0.269531,0.078125 h -0.306641 z"
           id="path31582" />
      </g>
      <g
         id="path31529">
        <path
           style="color:#000000;-inkscape-font-specification:'Futura, Bold';stroke:none;-inkscape-stroke:none"
           d="m 51.937925,5.913888 h 0.795817 v 3.0861139 h -0.795817 z"
           id="path31586" />
        <path
           style="color:#000000;-inkscape-font-specification:'Futura, Bold';fill:#7a3d10;stroke:none;-inkscape-stroke:none"
           d="m 51.804687,5.78125 v 0.1328125 3.21875 h 1.060547 V 5.78125 Z m 0.265625,0.265625 h 0.53125 v 2.8203125 h -0.53125 z"
           id="path31588" />
      </g>
      <g
         id="path31531">
        <path
           style="color:#000000;-inkscape-font-specification:'Futura, Bold';stroke:none;-inkscape-stroke:none"
           d="m 53.446876,5.913888 h 0.888834 l 1.122412,2.1166649 V 5.913888 h 0.754475 V 9.0000019 H 55.323763 L 54.201352,6.883337 v 2.1166649 h -0.754476 z"
           id="path31592" />
        <path
           style="color:#000000;-inkscape-font-specification:'Futura, Bold';fill:#7a3d10;stroke:none;-inkscape-stroke:none"
           d="m 53.314453,5.78125 v 0.1328125 3.21875 h 1.019531 V 7.4160156 l 0.910157,1.7167969 h 1.101562 V 5.78125 H 55.326172 V 7.5 L 54.416016,5.78125 Z m 0.265625,0.265625 h 0.675781 L 55.341797,8.0917969 55.589844,8.03125 V 6.046875 h 0.490234 v 2.8203125 h -0.675781 l -1.085938,-2.0449219 -0.25,0.060547 v 1.984375 h -0.488281 z"
           id="path31594" />
      </g>
      <g
         id="path31533">
        <path
           style="color:#000000;-inkscape-font-specification:'Futura, Bold';stroke:none;-inkscape-stroke:none"
           d="m 59.697653,8.7705587 q -0.297656,0.1446939 -0.61805,0.2170409 -0.320394,0.072347 -0.661458,0.072347 -0.771012,0 -1.22163,-0.4299475 -0.450618,-0.4320146 -0.450618,-1.1699535 0,-0.746207 0.458887,-1.1740875 0.458886,-0.4278805 1.256769,-0.4278805 0.307992,0 0.589111,0.057878 0.283187,0.057878 0.533301,0.1715656 V 6.7262408 Q 59.325583,6.5794799 59.069268,6.5071329 58.81502,6.434786 58.558705,6.434786 q -0.475423,0 -0.733805,0.2666501 -0.256315,0.2645831 -0.256315,0.7586094 0,0.4898922 0.248047,0.7565424 0.248047,0.2666501 0.704866,0.2666501 0.124023,0 0.229443,-0.014469 0.107487,-0.016536 0.192236,-0.049609 V 7.8197132 H 58.457419 V 7.2864129 h 1.240234 z"
           id="path31598" />
        <path
           style="color:#000000;-inkscape-font-specification:'Futura, Bold';fill:#7a3d10;stroke:none;-inkscape-stroke:none"
           d="m 58.460937,5.7265625 c -0.555569,0 -1.011809,0.1515568 -1.345703,0.4628906 -0.333978,0.3114122 -0.501953,0.7468956 -0.501953,1.2714844 0,0.5188864 0.164614,0.9496217 0.492188,1.2636719 v 0.00195 c 0.327676,0.3126452 0.773902,0.4648438 1.3125,0.4648438 0.236729,0 0.467972,-0.023766 0.691406,-0.074219 0.223493,-0.050466 0.439059,-0.1276838 0.646484,-0.2285156 l 0.07422,-0.035156 V 8.7714844 7.1542969 H 58.32422 v 0.796875 h 0.486328 v 0.3671875 c -0.02679,0.00684 -0.04902,0.014753 -0.08008,0.019531 -0.0629,0.00854 -0.132162,0.013672 -0.208985,0.013672 -0.278805,0 -0.469642,-0.076496 -0.607422,-0.2246094 -0.137846,-0.1481847 -0.21289,-0.3617488 -0.21289,-0.6660156 0,-0.3064717 0.0765,-0.5211344 0.21875,-0.6679688 0.144037,-0.1486459 0.346456,-0.2265625 0.638672,-0.2265625 0.158429,0 0.316366,0.023331 0.474609,0.068359 0.159554,0.045036 0.322291,0.1138583 0.486328,0.2070313 L 59.716797,6.953125 V 6.0019531 l -0.07813,-0.035156 C 59.462506,5.8867218 59.276079,5.8275674 59.078125,5.7871094 58.881366,5.7465998 58.674552,5.7265625 58.460937,5.7265625 Z m 0,0.2636719 c 0.197042,0 0.384434,0.018026 0.5625,0.054687 0.15185,0.031035 0.29191,0.080805 0.427735,0.1367187 V 6.5273437 C 59.335786,6.4737135 59.221528,6.4116651 59.105469,6.3789062 v 0.00195 c -0.180754,-0.051434 -0.363552,-0.078125 -0.546875,-0.078125 -0.341681,0 -0.627653,0.099753 -0.828125,0.3066406 -0.199507,0.2059427 -0.294922,0.4993331 -0.294922,0.8515625 0,0.3489222 0.09227,0.6383546 0.285156,0.8457031 0.192949,0.2074202 0.470496,0.3085938 0.800781,0.3085938 0.08783,0 0.170843,-0.00503 0.248047,-0.015625 h 0.002 c 0.07959,-0.012245 0.153515,-0.030421 0.220703,-0.056641 l 0.08398,-0.033203 V 7.6875 h -0.48637 V 7.4179687 h 0.974609 v 1.2617188 c -0.166456,0.074945 -0.336344,0.1396459 -0.513672,0.1796875 -0.203758,0.04601 -0.41479,0.068359 -0.632812,0.068359 -0.489417,0 -0.857712,-0.1319605 -1.13086,-0.3925781 -0.273249,-0.2619688 -0.408203,-0.6091877 -0.408203,-1.0742188 0,-0.4703529 0.138146,-0.8190304 0.416016,-1.078125 0.277953,-0.2591729 0.657742,-0.3925781 1.166015,-0.3925777 z"
           id="path31600" />
      </g>
      <g
         id="path31535">
        <path
           style="color:#000000;-inkscape-font-specification:'Futura, Bold';stroke:none;-inkscape-stroke:none"
           d="m 61.371967,5.913888 h 2.844268 V 6.5154011 H 63.193042 V 9.0000019 H 62.397226 V 6.5154011 h -1.025259 z"
           id="path31604" />
        <path
           style="color:#000000;-inkscape-font-specification:'Futura, Bold';fill:#7a3d10;stroke:none;-inkscape-stroke:none"
           d="m 61.240234,5.78125 v 0.1328125 0.734375 h 1.025391 v 2.484375 h 1.060547 v -2.484375 h 1.021484 V 5.78125 Z m 0.263672,0.265625 h 2.580078 v 0.3359375 h -1.023437 v 2.484375 h -0.53125 v -2.484375 h -1.025391 z"
           id="path31606" />
      </g>
      <g
         id="path31537">
        <path
           style="color:#000000;-inkscape-font-specification:'Futura, Bold';stroke:none;-inkscape-stroke:none"
           d="m 65.971166,6.434786 q -0.363802,0 -0.564307,0.2687172 -0.200504,0.2687172 -0.200504,0.7565423 0,0.4857581 0.200504,0.7544753 0.200505,0.2687172 0.564307,0.2687172 0.365868,0 0.566373,-0.2687172 0.200504,-0.2687172 0.200504,-0.7544753 0,-0.4878251 -0.200504,-0.7565423 Q 66.337034,6.434786 65.971166,6.434786 Z m 0,-0.5767085 q 0.74414,0 1.165819,0.4258134 0.421679,0.4258135 0.421679,1.1761546 0,0.7482741 -0.421679,1.1740876 -0.421679,0.4258134 -1.165819,0.4258134 -0.742073,0 -1.16582,-0.4258134 -0.421679,-0.4258135 -0.421679,-1.1740876 0,-0.7503411 0.421679,-1.1761546 0.423747,-0.4258134 1.16582,-0.4258134 z"
           id="path31610" />
        <path
           style="color:#000000;-inkscape-font-specification:'Futura, Bold';fill:#7a3d10;stroke:none;-inkscape-stroke:none"
           d="m 65.970703,5.7265625 c -0.520018,0 -0.950032,0.1535998 -1.259766,0.4648437 -0.308456,0.3114807 -0.458984,0.7445226 -0.458984,1.2695313 0,0.5236992 0.150604,0.9542204 0.458984,1.265625 0.309734,0.311244 0.739748,0.4648438 1.259766,0.4648438 0.521326,0 0.95127,-0.1533229 1.259766,-0.4648438 0.308381,-0.3114046 0.460937,-0.7419258 0.460937,-1.265625 0,-0.5250087 -0.152481,-0.9580506 -0.460937,-1.2695313 -0.308496,-0.3115208 -0.73844,-0.4648437 -1.259766,-0.4648437 z m 0,0.2636719 c 0.47086,0 0.818524,0.130489 1.072266,0.3867187 0.253782,0.2562701 0.382812,0.6085393 0.382812,1.0839844 0,0.4739986 -0.128955,0.823732 -0.382812,1.0800781 -0.253742,0.2562298 -0.601406,0.3867188 -1.072266,0.3867188 -0.469411,0 -0.817004,-0.1302121 -1.072266,-0.3867188 -0.253857,-0.2563461 -0.382812,-0.6060795 -0.382812,-1.0800781 0,-0.4754451 0.129031,-0.8277143 0.382812,-1.0839844 0.255262,-0.2565066 0.602855,-0.3867187 1.072266,-0.3867187 z m 0,0.3125 c -0.275106,0 -0.513318,0.1123847 -0.669922,0.3222656 -0.156615,0.2098972 -0.226562,0.4925965 -0.226562,0.8359375 0,0.3420402 0.07004,0.6222644 0.226562,0.8320313 0.156604,0.2098809 0.394816,0.3222656 0.669922,0.3222656 0.2763,0 0.517094,-0.1122102 0.673828,-0.3222656 0.156518,-0.2097669 0.226563,-0.4899911 0.226563,-0.8320313 0,-0.343341 -0.06995,-0.6260403 -0.226563,-0.8359375 C 66.487797,6.4149445 66.247003,6.3027344 65.970703,6.3027344 Z m 0,0.2636718 c 0.211524,0 0.350332,0.068563 0.460938,0.2167969 0.110723,0.1483921 0.173828,0.3706426 0.173828,0.6777344 0,0.3056367 -0.06301,0.5253057 -0.173828,0.6738281 -0.110606,0.1482338 -0.249414,0.2167969 -0.460938,0.2167969 -0.209963,0 -0.346295,-0.068389 -0.457031,-0.2167969 -0.11082,-0.1485224 -0.175781,-0.3681914 -0.175781,-0.6738281 0,-0.3070918 0.06506,-0.5293423 0.175781,-0.6777344 0.110736,-0.1484083 0.247068,-0.2167969 0.457031,-0.2167969 z"
           id="path31612" />
      </g>
      <g
         id="path31539">
        <path
           style="color:#000000;-inkscape-font-specification:'Futura, Bold';stroke:none;-inkscape-stroke:none"
           d="m 68.094032,5.913888 h 1.012857 l 0.702799,1.6515774 0.706933,-1.6515774 h 1.01079 V 9.0000019 H 70.775003 V 6.7427772 L 70.063936,8.406757 H 69.559575 L 68.848507,6.7427772 v 2.2572247 h -0.754475 z"
           id="path31616" />
        <path
           style="color:#000000;-inkscape-font-specification:'Futura, Bold';fill:#7a3d10;stroke:none;-inkscape-stroke:none"
           d="m 67.960937,5.78125 v 0.1328125 3.21875 h 1.019532 V 7.3886719 l 0.492187,1.1503906 h 0.677735 l 0.492187,-1.1503906 v 1.7441406 h 1.017578 V 5.78125 H 70.429687 L 69.810547,7.2285156 69.195312,5.78125 Z m 0.265625,0.265625 h 0.792969 l 0.789063,1.8554687 0.794922,-1.8554687 h 0.791015 v 2.8203125 h -0.486328 v -2.125 l -0.253906,-0.050781 -0.677735,1.5839844 h -0.330078 l -0.675781,-1.5839844 -0.253906,0.050781 v 2.125 h -0.490235 z"
           id="path31618" />
      </g>
    </g>
  </g>
  <g
     inkscape:groupmode="layer"
     id="layer4"
     inkscape:label="knob scales"
     style="display:inline" />
  <g
     inkscape:label="Graphics"
     inkscape:groupmode="layer"
     id="g1"
     style="display:inline" />
</svg>
