<?xml version="1.0" encoding="UTF-8" standalone="no"?>
<!-- Created with Inkscape (http://www.inkscape.org/) -->

<svg
   width="15"
   height="15"
   viewBox="0 0 15 15"
   version="1.1"
   id="svg1"
   sodipodi:docname="SlottedKnurledScrew.svg"
   inkscape:version="1.4 (e7c3feb1, 2024-10-09)"
   xmlns:inkscape="http://www.inkscape.org/namespaces/inkscape"
   xmlns:sodipodi="http://sodipodi.sourceforge.net/DTD/sodipodi-0.dtd"
   xmlns:xlink="http://www.w3.org/1999/xlink"
   xmlns="http://www.w3.org/2000/svg"
   xmlns:svg="http://www.w3.org/2000/svg">
  <sodipodi:namedview
     id="namedview1"
     pagecolor="#ffffff"
     bordercolor="#666666"
     borderopacity="1.0"
     inkscape:showpageshadow="2"
     inkscape:pageopacity="0.0"
     inkscape:pagecheckerboard="0"
     inkscape:deskcolor="#d1d1d1"
     inkscape:document-units="mm"
     inkscape:zoom="16.525257"
     inkscape:cx="15.672979"
     inkscape:cy="10.983188"
     inkscape:window-width="1464"
     inkscape:window-height="720"
     inkscape:window-x="48"
     inkscape:window-y="161"
     inkscape:window-maximized="0"
     inkscape:current-layer="layer1"
     showguides="false" />
  <defs
     id="defs1">
    <linearGradient
       id="linearGradient18"
       inkscape:collect="always">
      <stop
         style="stop-color:#434242;stop-opacity:1;"
         offset="0.46435845"
         id="stop17" />
      <stop
         style="stop-color:#d7dcdc;stop-opacity:1;"
         offset="1"
         id="stop18" />
    </linearGradient>
    <linearGradient
       id="linearGradient16"
       inkscape:collect="always">
      <stop
         style="stop-color:#f6f6f6;stop-opacity:1;"
         offset="0.46435845"
         id="stop15" />
      <stop
         style="stop-color:#f0f5fa;stop-opacity:1;"
         offset="1"
         id="stop16" />
    </linearGradient>
    <linearGradient
       id="linearGradient5"
       inkscape:collect="always">
      <stop
         style="stop-color:#71716e;stop-opacity:1;"
         offset="0.46435845"
         id="stop2" />
      <stop
         style="stop-color:#d7dcdc;stop-opacity:1;"
         offset="1"
         id="stop5" />
    </linearGradient>
    <linearGradient
       id="linearGradient12"
       inkscape:collect="always">
      <stop
         style="stop-color:#dcdadc;stop-opacity:1;"
         offset="0"
         id="stop12" />
      <stop
         style="stop-color:#bcbcbc;stop-opacity:1;"
         offset="1"
         id="stop13" />
    </linearGradient>
    <linearGradient
       id="linearGradient3"
       inkscape:collect="always">
      <stop
         style="stop-color:#edebf0;stop-opacity:1;"
         offset="0.46435845"
         id="stop3" />
      <stop
         style="stop-color:#d7dcdc;stop-opacity:1;"
         offset="1"
         id="stop4" />
    </linearGradient>
    <linearGradient
       inkscape:collect="always"
       xlink:href="#linearGradient3"
       id="linearGradient4"
       x1="1.1893556"
       y1="-1.226771"
       x2="3.7553678"
       y2="1.0038294"
       gradientUnits="userSpaceOnUse"
       gradientTransform="matrix(3.7219893,0,0,3.7213064,1.3942338,-0.07367569)" />
    <linearGradient
       inkscape:collect="always"
       xlink:href="#linearGradient12"
       id="linearGradient13"
       x1="1.4969155"
       y1="-1.3160472"
       x2="3.447809"
       y2="1.0931056"
       gradientUnits="userSpaceOnUse"
       gradientTransform="matrix(3.7219893,0,0,3.7213064,1.3942338,-0.07367569)" />
    <linearGradient
       inkscape:collect="always"
       xlink:href="#linearGradient5"
       id="linearGradient2"
       gradientUnits="userSpaceOnUse"
       gradientTransform="matrix(1.9355188,3.3435208,-3.4602192,1.6914395,2.2381409,-0.64765258)"
       x1="1.1893556"
       y1="-1.226771"
       x2="3.7553678"
       y2="1.0038294" />
    <linearGradient
       inkscape:collect="always"
       xlink:href="#linearGradient18"
       id="linearGradient6"
       gradientUnits="userSpaceOnUse"
       gradientTransform="matrix(1.9355188,3.3435208,-3.4602192,1.6914395,2.2422702,-0.6461796)"
       x1="1.1893556"
       y1="-1.226771"
       x2="3.7553678"
       y2="1.0038294" />
    <linearGradient
       inkscape:collect="always"
       xlink:href="#linearGradient16"
       id="linearGradient11"
       gradientUnits="userSpaceOnUse"
       gradientTransform="matrix(1.9355188,3.3435208,-3.4602192,1.6914395,2.2360377,-0.64795737)"
       x1="1.1893556"
       y1="-1.226771"
       x2="3.7553678"
       y2="1.0038294" />
  </defs>
  <g
     inkscape:groupmode="layer"
     id="layer3"
     inkscape:label="remove"
     style="display:none">
    <path
       id="path17"
       style="fill:#dbdada;fill-opacity:1;stroke:none;stroke-width:0.3;stroke-linejoin:round"
       d="M 1.6222183,9.509215e-5 C 1.5806743,0.00342609 1.508207,0.10122919 1.4671891,0.10861558 1.4261711,0.11600258 1.3238342,0.04970198 1.2837378,0.06107338 1.2436418,0.07244468 1.1912688,0.18276914 1.1524796,0.19801589 1.1136906,0.21326269 1.0004513,0.16818849 0.96334391,0.18716389 0.92623641,0.20613909 0.89661021,0.32432292 0.86154124,0.346844 0.82647234,0.3693651 0.70664844,0.34734903 0.6739558,0.373199 0.6412633,0.3990491 0.6352276,0.52048573 0.6052262,0.5494157 0.5752248,0.5783456 0.45344702,0.5802129 0.42642576,0.6119441 c -0.0270214,0.0317312 -0.009292,0.15232481 -0.0330729,0.18655186 -0.023781,0.0342271 -0.14298594,0.059725 -0.1632975,0.0961182 -0.0203117,0.036393 0.020264,0.15092694 0.003617,0.18913574 -0.0166466,0.038209 -0.12825526,0.086434 -0.1410766,0.1260905 -0.0128215,0.039656 0.04969699,0.1442794 0.0408244,0.1850016 -0.006063,0.027826 -0.05393756,0.068471 -0.0857829,0.1049032 H 3.4314103 C 3.4173793,1.4829364 3.4057803,1.4669035 3.4035053,1.4542699 3.3961153,1.4132521 3.4624193,1.310915 3.4510473,1.2708186 3.4396763,1.2307222 3.3298682,1.1788659 3.3146215,1.1400772 3.2993745,1.1012885 3.3444485,0.98804898 3.3254735,0.95094148 3.3064985,0.91383398 3.1883144,0.88369108 3.1657933,0.84862218 3.1432723,0.81355323 3.1652883,0.69372927 3.1394383,0.66103668 3.1135883,0.62834408 2.9916349,0.62230848 2.9627049,0.59230708 2.9337749,0.56230568 2.9324249,0.44052794 2.9006929,0.41350668 2.8689619,0.38648528 2.7483679,0.40421468 2.7141409,0.38043378 2.6799139,0.35665278 2.6544159,0.23744784 2.6180229,0.21713616 2.5816299,0.19682466 2.467096,0.23791696 2.4288871,0.22127016 2.3906781,0.20462336 2.3424531,0.09249808 2.3027966,0.07967674 2.2631406,0.06685524 2.1585173,0.12937374 2.1177951,0.12050114 2.0770731,0.11162814 2.007779,0.01113462 1.9663831,0.00629622 1.9249871,0.00145722 1.8344211,0.08353502 1.7927503,0.08277732 1.7510793,0.08201964 1.6637625,-0.00323538 1.6222183,9.509215e-5 Z" />
  </g>
  <g
     inkscape:label="Layer 1"
     inkscape:groupmode="layer"
     id="layer1">
    <path
       sodipodi:type="star"
       style="fill:#b0b0b0;fill-opacity:1;stroke:none;stroke-width:0.0608788;stroke-linejoin:round"
       id="path17-5"
       inkscape:flatsided="false"
       sodipodi:sides="18"
       sodipodi:cx="-3.1859398"
       sodipodi:cy="-0.05339564"
       sodipodi:r1="1.2461677"
       sodipodi:r2="1.3846308"
       sodipodi:arg1="0.80357798"
       sodipodi:arg2="0.97811091"
       inkscape:rounded="0.71"
       inkscape:randomized="0"
       d="m -2.3209305,0.84365104 c -0.1367582,0.13187394 0.066012,0.14530383 -0.091568,0.25142646 -0.1575801,0.1061227 -0.093792,-0.086821 -0.2674067,-0.00967 -0.1736142,0.077147 0.012335,0.1591185 -0.1720385,0.2049456 -0.184373,0.045827 -0.058442,-0.1136643 -0.2479712,-0.1005495 -0.1895298,0.013115 -0.042831,0.1537412 -0.2317588,0.1337453 C -3.5206013,1.3035486 -3.3477151,1.1967468 -3.5303004,1.1442477 -3.7128856,1.0917487 -3.623131,1.2740681 -3.793826,1.190661 -3.964521,1.1072539 -3.7655327,1.0660236 -3.919151,0.95424274 -4.0727693,0.84246191 -4.0507844,1.044484 -4.1826584,0.90772584 -4.3145323,0.77096769 -4.1134429,0.80028187 -4.2195656,0.6427017 -4.3256883,0.48512153 -4.3741249,0.68247947 -4.4512718,0.50886529 c -0.077147,-0.17361417 0.1017892,-0.0772912 0.055962,-0.26166424 -0.045827,-0.18437302 -0.158843,-0.0154835 -0.1719578,-0.20501328 -0.013115,-0.18952976 0.1220858,-0.03781603 0.1420817,-0.22674378 0.019996,-0.18892775 -0.143968,-0.0688772 -0.091469,-0.25146251 0.052499,-0.18258526 0.1276569,0.00622 0.211064,-0.16447466 0.083407,-0.17069502 -0.1117282,-0.11396337 5.27e-5,-0.26758166 0.1117808,-0.15361826 0.1178308,0.0495064 0.2545889,-0.0823675 0.1367582,-0.13187398 -0.066012,-0.14530388 0.091568,-0.25142648 0.1575802,-0.1061227 0.093793,0.086821 0.2674067,0.00967 0.1736142,-0.077147 -0.012335,-0.1591185 0.1720385,-0.2049456 0.184373,-0.045827 0.058441,0.1136643 0.2479712,0.1005495 0.1895298,-0.013115 0.042831,-0.1537412 0.2317589,-0.1337453 0.1889277,0.019996 0.016042,0.1267977 0.1986268,0.1792968 0.1825852,0.052499 0.092831,-0.1298203 0.2635256,-0.046413 0.170695,0.083407 -0.028293,0.1246373 0.1253251,0.2364182 0.1536182,0.11178081 0.1316334,-0.090241 0.2635073,0.046517 0.1318739,0.13675813 -0.069215,0.10744395 0.036907,0.26502412 0.1061227,0.15758017 0.1545593,-0.0397778 0.2317062,0.13383641 0.077147,0.17361417 -0.1017892,0.0772912 -0.055962,0.26166424 0.045827,0.18437302 0.158843,0.0154835 0.1719578,0.20501328 0.013115,0.18952976 -0.1220857,0.037816 -0.1420816,0.22674378 -0.019996,0.18892775 0.1439679,0.06887724 0.091469,0.25146251 -0.052499,0.18258526 -0.1276569,-0.00622 -0.211064,0.16447466 -0.083407,0.17069502 0.1117282,0.11396337 -5.26e-5,0.26758166 -0.1117809,0.15361828 -0.1178308,-0.0495065 -0.254589,0.0823675 z"
       transform="matrix(4.9218946,0,0,4.9338115,23.18086,7.763444)" />
    <ellipse
       style="fill:url(#linearGradient4);fill-opacity:1;stroke:none;stroke-width:0.299998;stroke-linejoin:round"
       id="circle1"
       cx="10.596339"
       cy="-0.48849306"
       transform="matrix(0.67379032,0.7389226,-0.7375525,0.67528979,0,0)"
       rx="6.3273821"
       ry="6.3262205" />
    <ellipse
       style="fill:#837e7e;fill-opacity:1;stroke:none;stroke-width:0.30001;stroke-linejoin:round"
       id="ellipse22"
       cx="10.571396"
       cy="-0.56481141"
       transform="matrix(0.67022962,0.74215379,-0.734293,0.67883267,0,0)"
       rx="5.8673072"
       ry="5.8611341" />
    <ellipse
       style="fill:url(#linearGradient13);fill-opacity:1;stroke:none;stroke-width:0.3;stroke-linejoin:round"
       id="circle3"
       cx="10.596339"
       cy="-0.48849306"
       transform="matrix(0.67379032,0.7389226,-0.7375525,0.67528979,0,0)"
       rx="5.769083"
       ry="5.7680249" />
    <g
       id="g19"
       transform="matrix(0.97399296,-0.00620727,-0.00456812,0.99888351,0.31331919,0.05476146)"
       style="stroke-width:1.01384">
      <path
         id="ellipse2"
         style="fill:url(#linearGradient2);fill-opacity:1;stroke:none;stroke-width:0.304149;stroke-linejoin:round"
         d="M 1.0792647,4.9992009 A 6.7835498,6.3236275 18.192751 0 0 0.72395655,6.4675306 L 13.737499,9.8613055 A 6.7835498,6.3236275 18.192751 0 0 13.97801,9.1173151 6.7835498,6.3236275 18.192751 0 0 14.106976,8.3966718 Z" />
      <path
         id="ellipse5"
         style="fill:url(#linearGradient6);fill-opacity:1;stroke:none;stroke-width:0.304149;stroke-linejoin:round"
         d="m 1.4410523,4.9220362 c -0.028448,0.057603 -0.3304714,0.019944 -0.3570141,0.078412 L 14.109727,8.3973886 c 0.0083,-0.063171 -0.513233,-0.2156317 -0.507001,-0.2790893 z"
         sodipodi:nodetypes="ccccc" />
      <path
         id="ellipse8"
         style="fill:url(#linearGradient11);fill-opacity:1;stroke:none;stroke-width:0.304149;stroke-linejoin:round"
         d="m 0.72265599,6.4671923 c -0.00961,0.0628 0.51235041,0.1925757 0.50475761,0.2556993 L 13.334459,9.9351608 c 0.0244,-0.058719 0.379249,-0.014732 0.401736,-0.074194 z"
         sodipodi:nodetypes="ccccc" />
    </g>
  </g>
</svg>
