<?xml version="1.0" encoding="UTF-8" standalone="no"?>
<!-- Created with Inkscape (http://www.inkscape.org/) -->

<svg
   width="15mm"
   height="15mm"
   viewBox="0 0 15 15"
   version="1.1"
   id="svg1"
   inkscape:version="1.4 (e7c3feb1, 2024-10-09)"
   sodipodi:docname="TurnsCountingDial_fg.svg"
   xmlns:inkscape="http://www.inkscape.org/namespaces/inkscape"
   xmlns:sodipodi="http://sodipodi.sourceforge.net/DTD/sodipodi-0.dtd"
   xmlns:xlink="http://www.w3.org/1999/xlink"
   xmlns="http://www.w3.org/2000/svg"
   xmlns:svg="http://www.w3.org/2000/svg">
  <sodipodi:namedview
     id="namedview1"
     pagecolor="#ffffff"
     bordercolor="#666666"
     borderopacity="1.0"
     inkscape:showpageshadow="2"
     inkscape:pageopacity="0.0"
     inkscape:pagecheckerboard="0"
     inkscape:deskcolor="#d1d1d1"
     inkscape:document-units="mm"
     inkscape:zoom="10.793468"
     inkscape:cx="24.042319"
     inkscape:cy="20.058428"
     inkscape:window-width="1440"
     inkscape:window-height="840"
     inkscape:window-x="89"
     inkscape:window-y="65"
     inkscape:window-maximized="0"
     inkscape:current-layer="svg1"
     inkscape:pageshadow="2"
     showgrid="false" />
  <defs
     id="defs1">
    <linearGradient
       inkscape:collect="always"
       id="linearGradient6378">
      <stop
         style="stop-color:#000000;stop-opacity:1"
         offset="0"
         id="stop6374" />
      <stop
         style="stop-color:#313233;stop-opacity:0;"
         offset="1"
         id="stop6376" />
    </linearGradient>
    <linearGradient
       id="linearGradient12"
       inkscape:collect="always">
      <stop
         style="stop-color:#f0f2f3;stop-opacity:0.10815939;"
         offset="0"
         id="stop10" />
      <stop
         style="stop-color:#c3c0c4;stop-opacity:0;"
         offset="1"
         id="stop11" />
    </linearGradient>
    <linearGradient
       id="linearGradient8"
       inkscape:collect="always">
      <stop
         style="stop-color:#f0f2f3;stop-opacity:0.08349146;"
         offset="0"
         id="stop8" />
      <stop
         style="stop-color:#c3c0c4;stop-opacity:0;"
         offset="1"
         id="stop9" />
    </linearGradient>
    <linearGradient
       id="linearGradient3"
       inkscape:collect="always">
      <stop
         style="stop-color:#181f23;stop-opacity:0.39089185;"
         offset="0"
         id="stop3" />
      <stop
         style="stop-color:#181f23;stop-opacity:0;"
         offset="0.828614"
         id="stop4" />
    </linearGradient>
    <linearGradient
       inkscape:collect="always"
       xlink:href="#linearGradient11"
       id="linearGradient14"
       x1="-14.534959"
       y1="24.753469"
       x2="-28.2341"
       y2="16.522194"
       gradientUnits="userSpaceOnUse"
       gradientTransform="translate(17.494233,-13.791243)" />
    <linearGradient
       id="linearGradient11"
       inkscape:collect="always">
      <stop
         style="stop-color:#a6a5a6;stop-opacity:1;"
         offset="0"
         id="stop11-3" />
      <stop
         style="stop-color:#8e8f8c;stop-opacity:1;"
         offset="1"
         id="stop14" />
    </linearGradient>
    <linearGradient
       inkscape:collect="always"
       xlink:href="#linearGradient3"
       id="linearGradient4-3"
       x1="16.104761"
       y1="6.8790069"
       x2="17.927141"
       y2="0.077790461"
       gradientUnits="userSpaceOnUse" />
    <linearGradient
       inkscape:collect="always"
       xlink:href="#linearGradient12"
       id="linearGradient9"
       x1="4.5511356"
       y1="7.4996883"
       x2="10.44631"
       y2="7.4996883"
       gradientUnits="userSpaceOnUse"
       gradientTransform="rotate(-2.0886463,7.4943616,7.4974546)" />
    <linearGradient
       inkscape:collect="always"
       xlink:href="#linearGradient8"
       id="linearGradient10"
       gradientUnits="userSpaceOnUse"
       x1="4.5511356"
       y1="7.4996883"
       x2="10.44631"
       y2="7.4996883"
       gradientTransform="rotate(177.91135,7.4984541,7.4995419)" />
    <linearGradient
       inkscape:collect="always"
       xlink:href="#linearGradient6378"
       id="linearGradient6380"
       x1="7.7529135"
       y1="9.4724808"
       x2="7.7803349"
       y2="8.8338804"
       gradientUnits="userSpaceOnUse"
       gradientTransform="matrix(1.0525048,0,0,1.008393,-0.23627337,-0.45705389)" />
  </defs>
  <g
     inkscape:groupmode="layer"
     id="layer4"
     inkscape:label="non visible"
     style="display:none">
    <rect
       style="display:inline;fill:#000000;fill-opacity:1;stroke:#3a1a00;stroke-width:0.600001;stroke-linejoin:round;stroke-dasharray:none;stroke-opacity:1"
       id="rect11"
       width="8.3999987"
       height="8.1999989"
       x="1.4500008"
       y="-3.6687498" />
    <path
       style="display:inline;fill:url(#linearGradient14);fill-opacity:1;stroke:none;stroke-width:0.01;stroke-linejoin:round"
       id="path1"
       sodipodi:type="arc"
       sodipodi:cx="-3.7517939"
       sodipodi:cy="6.8465977"
       sodipodi:rx="8.1294441"
       sodipodi:ry="8.0093632"
       sodipodi:start="0.26179939"
       sodipodi:end="5.4977871"
       sodipodi:arc-type="slice"
       d="M 4.1006462,8.9195734 A 8.1294441,8.0093632 0 0 1 -3.7517939,14.855961 8.1294441,8.0093632 0 0 1 -11.604234,8.9195736 8.1294441,8.0093632 0 0 1 -7.8165161,-0.08971418 8.1294441,8.0093632 0 0 1 1.996591,1.1831224 l -5.7483849,5.6634753 z"
       transform="matrix(0.25469789,-0.96702067,0.9647966,0.26299718,0,0)" />
  </g>
  <g
     inkscape:label="dial"
     inkscape:groupmode="layer"
     id="layer1"
     style="display:inline" />
  <path
     id="circle8"
     style="font-variation-settings:normal;opacity:1;vector-effect:none;fill:url(#linearGradient9);stroke:none;stroke-width:0.300001;stroke-linecap:butt;stroke-linejoin:round;stroke-miterlimit:4;stroke-dasharray:none;stroke-dashoffset:0;stroke-opacity:1;-inkscape-stroke:none"
     d="M 4.9281402,8.9444828 A 2.95,2.95 0 0 0 5.0147175,9.0754439 2.95,2.95 0 0 1 4.8820616,8.857159 2.95,2.95 0 0 0 4.9281402,8.9444828 Z M 4.8726434,8.8393337 A 2.95,2.95 0 0 1 4.715155,8.4702314 2.95,2.95 0 0 0 4.8726434,8.8393337 Z m 0.257873,0.4117059 A 2.95,2.95 0 0 0 5.2673475,9.4166027 2.95,2.95 0 0 1 5.1305164,9.2510396 Z M 4.706871,8.4470275 A 2.95,2.95 0 0 1 4.6044575,8.0588509 2.95,2.95 0 0 0 4.706871,8.4470275 Z M 5.4036248,9.5706236 A 2.95,2.95 0 0 0 5.5633003,9.7156537 2.95,2.95 0 0 1 5.4036248,9.5706236 Z M 4.5999409,8.0370877 a 2.95,2.95 0 0 1 -0.04529,-0.398326 2.95,2.95 0 0 0 0.04529,0.398326 z M 5.7231794,9.8504942 A 2.95,2.95 0 0 0 5.8984411,9.9683987 2.95,2.95 0 0 1 5.7231794,9.8504942 Z M 4.5533749,7.6122153 a 2.95,2.95 0 0 1 0.011376,-0.3987358 2.95,2.95 0 0 0 -0.011376,0.3987358 z m 1.5225565,2.4675027 a 2.95,2.95 0 0 0 0.1911568,0.09239 2.95,2.95 0 0 1 -0.1911568,-0.09239 z M 4.5672461,7.1883715 A 2.95,2.95 0 0 1 4.6365224,6.7956446 2.95,2.95 0 0 0 4.5672461,7.1883715 Z M 6.4602203,10.25745 a 2.95,2.95 0 0 0 0.2008612,0.06323 2.95,2.95 0 0 1 -0.2008612,-0.06323 z M 4.6433257,6.76871 A 2.95,2.95 0 0 1 4.7676254,6.3895345 2.95,2.95 0 0 0 4.6433257,6.76871 Z m 2.2203946,3.608863 a 2.95,2.95 0 0 0 0.2133796,0.03486 2.95,2.95 0 0 1 -0.2133796,-0.03486 z M 4.7763662,6.3692165 A 2.95,2.95 0 0 1 4.9572075,6.0062956 2.95,2.95 0 0 0 4.7763662,6.3692165 Z m 2.5046892,4.0697405 a 2.95,2.95 0 0 0 0.2102778,0.004 2.95,2.95 0 0 1 -0.2102778,-0.004 z M 4.9608436,6.0001054 7.5000513,7.5002013 6.0555169,4.9278398 A 2.95,2.95 0 0 0 4.9608436,6.0001054 Z M 6.0555169,4.9278398 A 2.95,2.95 0 0 1 6.4385694,4.7477001 2.95,2.95 0 0 0 6.0555169,4.9278398 Z m 1.6499266,5.5122362 a 2.95,2.95 0 0 0 0.2062743,-0.02634 2.95,2.95 0 0 1 -0.2062743,0.02634 z m 0.4157323,-0.05862 a 2.95,2.95 0 0 0 0.2084358,-0.05838 2.95,2.95 0 0 1 -0.2084358,0.05838 z m 0.4056694,-0.118757 a 2.95,2.95 0 0 0 0.2000663,-0.08805 2.95,2.95 0 0 1 -0.2000663,0.08805 z m 0.3833312,-0.174365 a 2.95,2.95 0 0 0 0.034154,-0.01622 2.95,2.95 0 0 0 0.1484865,-0.09759 2.95,2.95 0 0 1 -0.182634,0.11382 z M 9.267061,9.8594826 A 2.95,2.95 0 0 0 9.4313567,9.7203948 2.95,2.95 0 0 1 9.267061,9.8594826 Z M 6.5124509,4.7251765 A 2.95,2.95 0 0 1 6.843764,4.623877 2.95,2.95 0 0 0 6.5124509,4.7251765 Z m 3.0726703,4.8584859 a 2.95,2.95 0 0 0 0.1468067,-0.16601 2.95,2.95 0 0 1 -0.1468067,0.16601 z M 6.9604304,4.6057754 A 2.95,2.95 0 0 1 7.2590211,4.5601885 2.95,2.95 0 0 0 6.9604304,4.6057754 Z M 9.8615289,9.2642732 A 2.95,2.95 0 0 0 9.9822553,9.080316 2.95,2.95 0 0 1 9.8615289,9.2642732 Z M 7.4414626,4.5578977 a 2.95,2.95 0 0 1 0.2419223,-0.00191 2.95,2.95 0 0 0 -0.2419223,0.00191 z m 2.6480254,4.3513706 a 2.95,2.95 0 0 0 0.09504,-0.2033157 2.95,2.95 0 0 1 -0.09504,0.2033157 z M 7.814467,4.5730561 A 2.95,2.95 0 0 1 8.1042141,4.613039 2.95,2.95 0 0 0 7.814467,4.5730561 Z m 2.449741,3.9518367 a 2.95,2.95 0 0 0 0.06447,-0.213415 2.95,2.95 0 0 1 -0.06447,0.213415 z M 8.2259382,4.6472156 A 2.95,2.95 0 0 1 8.50935,4.728687 2.95,2.95 0 0 0 8.2259382,4.6472156 Z m 2.1566768,3.4721773 a 2.95,2.95 0 0 0 0.03462,-0.2328036 2.95,2.95 0 0 1 -0.03462,0.2328036 z M 8.6443425,4.7886021 a 2.95,2.95 0 0 1 0.250932,0.1133422 2.95,2.95 0 0 0 -0.250932,-0.1133422 z m 1.7969525,2.9149734 a 2.95,2.95 0 0 0 0.0012,-0.2300412 2.95,2.95 0 0 1 -0.0012,0.2300412 z M 9.0360173,4.9900419 A 2.95,2.95 0 0 1 9.2508169,5.126638 2.95,2.95 0 0 0 9.0360173,4.9900419 Z m 1.4042347,2.2873968 a 2.95,2.95 0 0 0 -0.03123,-0.221309 2.95,2.95 0 0 1 0.03123,0.221309 z M 9.3933693,5.2475013 A 2.95,2.95 0 0 1 9.5715058,5.4011296 2.95,2.95 0 0 0 9.3933693,5.2475013 Z m 0.9857547,1.61502 a 2.95,2.95 0 0 0 -0.06726,-0.229526 2.95,2.95 0 0 1 0.06726,0.229526 z M 9.7045476,5.5504483 A 2.95,2.95 0 0 1 9.849317,5.7174803 2.95,2.95 0 0 0 9.7045476,5.5504483 Z m 0.5535104,0.9065155 a 2.95,2.95 0 0 0 -0.09081,-0.1997023 2.95,2.95 0 0 1 0.09081,0.1997023 z M 9.9680864,5.8973356 A 2.95,2.95 0 0 1 10.07957,6.0706161 2.95,2.95 0 0 0 10.072444,6.055675 2.95,2.95 0 0 0 9.9680996,5.8973567 Z" />
  <path
     id="path9"
     style="font-variation-settings:normal;opacity:1;vector-effect:none;fill:url(#linearGradient10);fill-opacity:1;stroke:none;stroke-width:0.300001;stroke-linecap:butt;stroke-linejoin:round;stroke-miterlimit:4;stroke-dasharray:none;stroke-dashoffset:0;stroke-opacity:1;-inkscape-stroke:none"
     d="m 10.068841,6.0544505 a 2.95,2.95 0 0 0 -0.086593,-0.1309488 2.95,2.95 0 0 1 0.1326308,0.2183008 2.95,2.95 0 0 0 -0.04604,-0.087349 z m 0.05553,0.1051269 A 2.95,2.95 0 0 1 10.28186,6.5286807 2.95,2.95 0 0 0 10.124372,6.1595782 Z M 9.8665051,5.7478687 A 2.95,2.95 0 0 0 9.7296695,5.5823082 2.95,2.95 0 0 1 9.8665051,5.7478687 Z M 10.29011,6.5519061 A 2.95,2.95 0 0 1 10.392525,6.9400826 2.95,2.95 0 0 0 10.29011,6.5519061 Z M 9.5933729,5.4282995 A 2.95,2.95 0 0 0 9.4336949,5.283271 2.95,2.95 0 0 1 9.5933729,5.4282995 Z m 0.8036841,1.5335363 a 2.95,2.95 0 0 1 0.04529,0.3983263 2.95,2.95 0 0 0 -0.04529,-0.3983263 z M 9.2738188,5.1484287 A 2.95,2.95 0 0 0 9.0985587,5.0305229 2.95,2.95 0 0 1 9.2738188,5.1484287 Z M 10.443607,7.386718 a 2.95,2.95 0 0 1 -0.01138,0.3987358 2.95,2.95 0 0 0 0.01138,-0.3987358 z M 8.9210483,4.9192161 A 2.95,2.95 0 0 0 8.7298934,4.8268305 2.95,2.95 0 0 1 8.92105,4.919215 Z m 1.5086877,2.8913456 a 2.95,2.95 0 0 1 -0.06927,0.3927268 2.95,2.95 0 0 0 0.06927,-0.3927268 z M 8.5367612,4.7414836 a 2.95,2.95 0 0 0 -0.2008611,-0.063231 2.95,2.95 0 0 1 0.2008611,0.063231 z m 1.8168948,3.4887396 a 2.95,2.95 0 0 1 -0.1243,0.3791755 2.95,2.95 0 0 0 0.1243,-0.3791755 z M 8.1332614,4.6213604 A 2.95,2.95 0 0 0 7.9198816,4.5865041 2.95,2.95 0 0 1 8.1332614,4.6213604 Z M 10.220615,8.6297167 A 2.95,2.95 0 0 1 10.039774,8.9926375 2.95,2.95 0 0 0 10.220615,8.6297167 Z M 7.7159261,4.5599768 a 2.95,2.95 0 0 0 -0.2102777,-0.00401 2.95,2.95 0 0 1 0.2102777,0.00401 z M 10.036138,8.9988277 7.4969302,7.4987319 8.9414646,10.071094 A 2.95,2.95 0 0 0 10.036138,8.9988277 Z M 8.9414646,10.071094 A 2.95,2.95 0 0 1 8.5584124,10.251233 2.95,2.95 0 0 0 8.9414646,10.071094 Z M 7.2915378,4.5588572 A 2.95,2.95 0 0 0 7.0852644,4.5852025 2.95,2.95 0 0 1 7.2915378,4.5588572 Z M 6.8758057,4.6174779 A 2.95,2.95 0 0 0 6.66737,4.6758535 2.95,2.95 0 0 1 6.8758057,4.6174779 Z M 6.4701362,4.7362347 a 2.95,2.95 0 0 0 -0.2000684,0.08805 2.95,2.95 0 0 1 0.2000684,-0.08805 z m -0.38333,0.1743676 A 2.95,2.95 0 0 0 6.0526467,4.9268159 2.95,2.95 0 0 0 5.904171,5.0244223 2.95,2.95 0 0 1 6.0868048,4.9106016 Z M 5.729927,5.1394609 A 2.95,2.95 0 0 0 5.5656285,5.2785442 2.95,2.95 0 0 1 5.729927,5.1394609 Z m 2.7546034,5.1342961 a 2.95,2.95 0 0 1 -0.3313143,0.1013 2.95,2.95 0 0 0 0.3313143,-0.1013 z M 5.4118601,5.4152712 a 2.95,2.95 0 0 0 -0.146808,0.1660079 2.95,2.95 0 0 1 0.146808,-0.1660079 z m 2.6246908,4.9778858 a 2.95,2.95 0 0 1 -0.2985904,0.04559 2.95,2.95 0 0 0 0.2985904,-0.04559 z M 5.1354527,5.73466 A 2.95,2.95 0 0 0 5.0147268,5.9186181 2.95,2.95 0 0 1 5.1354527,5.73466 Z m 2.4200665,4.706376 a 2.95,2.95 0 0 1 -0.2419221,0.0019 2.95,2.95 0 0 0 0.2419221,-0.0019 z M 4.9074939,6.0896652 a 2.95,2.95 0 0 0 -0.095039,0.2033155 2.95,2.95 0 0 1 0.095039,-0.2033155 z m 2.2750205,4.3362118 a 2.95,2.95 0 0 1 -0.289747,-0.03999 2.95,2.95 0 0 0 0.289747,0.03999 z M 4.7327738,6.4740405 a 2.95,2.95 0 0 0 -0.064475,0.213415 2.95,2.95 0 0 1 0.064475,-0.213415 z m 2.0382696,3.8776765 a 2.95,2.95 0 0 1 -0.283412,-0.08148 2.95,2.95 0 0 0 0.283412,0.08148 z M 4.6143667,6.8795404 A 2.95,2.95 0 0 0 4.5797484,7.1123438 2.95,2.95 0 0 1 4.6143667,6.8795404 Z M 6.3526389,10.210331 A 2.95,2.95 0 0 1 6.101707,10.096989 2.95,2.95 0 0 0 6.3526389,10.210331 Z M 4.5556865,7.2953578 a 2.95,2.95 0 0 0 -0.00122,0.2300412 2.95,2.95 0 0 1 0.00122,-0.2300412 z M 5.960964,10.008892 A 2.95,2.95 0 0 1 5.746165,9.872295 2.95,2.95 0 0 0 5.960964,10.008892 Z M 4.5567331,7.7214925 a 2.95,2.95 0 0 0 0.031227,0.221309 2.95,2.95 0 0 1 -0.031227,-0.221309 z M 5.603615,9.7514303 A 2.95,2.95 0 0 1 5.4254801,9.5978008 2.95,2.95 0 0 0 5.603615,9.7514303 Z M 4.6178602,8.1364101 A 2.95,2.95 0 0 0 4.6851156,8.3659367 2.95,2.95 0 0 1 4.6178602,8.1364101 Z M 5.2924367,9.4484833 A 2.95,2.95 0 0 1 5.147669,9.2814501 2.95,2.95 0 0 0 5.2924367,9.4484833 Z M 4.7389248,8.5419688 a 2.95,2.95 0 0 0 0.090809,0.1997038 2.95,2.95 0 0 1 -0.090809,-0.1997038 z m 0.2899671,0.5596307 a 2.95,2.95 0 0 1 -0.1115174,-0.1732591 2.95,2.95 0 0 0 0.00715,0.014924 2.95,2.95 0 0 0 0.1043191,0.158334 z" />
  <path
     id="path3549"
     style="opacity:0.122786;fill:url(#linearGradient6380);fill-opacity:1;stroke:none;stroke-width:0.736254;paint-order:markers fill stroke"
     d="m 4.638617,8.2 a 3.1575143,2.8459807 0 0 0 -0.031002,0.090204 3.1575143,2.8459807 0 0 0 2.2326967,3.485561 3.1575143,2.8459807 0 0 0 3.8671063,-2.012409 3.1575143,2.8459807 0 0 0 -0.0049,-1.4893298 c -0.0371,0.070096 -0.08624,0.168128 -0.151747,0.3127692 -0.363843,0.8035182 0.01385,0.2881334 -0.6635013,0.9049708 C 9.209875,10.108603 9.7779419,9.7629172 8.8902607,10.099166 8.0025792,10.435415 8.6734209,10.31187 7.7105482,10.316339 6.7476756,10.32093 7.4206796,10.437938 6.5292042,10.109949 5.6377273,9.7819575 6.2089844,10.122383 5.5246252,9.5118657 4.8402662,8.9013468 5.2243361,9.4133661 4.8512808,8.6132669 4.7391541,8.3727869 4.6762766,8.2647474 4.638617,8.2 Z" />
</svg>
