<?xml version="1.0" encoding="UTF-8" standalone="no"?>
<!-- Created with Inkscape (http://www.inkscape.org/) -->

<svg
   width="15mm"
   height="15mm"
   viewBox="0 0 15 15"
   version="1.1"
   id="svg1"
   inkscape:version="1.4 (e7c3feb1, 2024-10-09)"
   sodipodi:docname="TurnsCountingDial.svg"
   xmlns:inkscape="http://www.inkscape.org/namespaces/inkscape"
   xmlns:sodipodi="http://sodipodi.sourceforge.net/DTD/sodipodi-0.dtd"
   xmlns:xlink="http://www.w3.org/1999/xlink"
   xmlns="http://www.w3.org/2000/svg"
   xmlns:svg="http://www.w3.org/2000/svg">
  <sodipodi:namedview
     id="namedview1"
     pagecolor="#ffffff"
     bordercolor="#666666"
     borderopacity="1.0"
     inkscape:showpageshadow="2"
     inkscape:pageopacity="0.0"
     inkscape:pagecheckerboard="0"
     inkscape:deskcolor="#d1d1d1"
     inkscape:document-units="mm"
     inkscape:zoom="6.1469891"
     inkscape:cx="14.722655"
     inkscape:cy="26.273025"
     inkscape:window-width="1440"
     inkscape:window-height="840"
     inkscape:window-x="67"
     inkscape:window-y="25"
     inkscape:window-maximized="0"
     inkscape:current-layer="svg1"
     showgrid="false" />
  <defs
     id="defs1">
    <radialGradient
       inkscape:collect="always"
       xlink:href="#linearGradient12"
       id="radialGradient13"
       cx="-2.9122875"
       cy="6.7762928"
       fx="-2.9122875"
       fy="6.7762928"
       r="2.7"
       gradientUnits="userSpaceOnUse"
       gradientTransform="matrix(0.96296295,0,0,0.96296295,10.304424,0.97468095)" />
    <linearGradient
       id="linearGradient12"
       inkscape:collect="always">
      <stop
         style="stop-color:#1f1f24;stop-opacity:1;"
         offset="0"
         id="stop12" />
      <stop
         style="stop-color:#363838;stop-opacity:1;"
         offset="1"
         id="stop13" />
    </linearGradient>
  </defs>
  <g
     inkscape:label="dial"
     inkscape:groupmode="layer"
     id="layer1"
     style="display:inline" />
  <circle
     style="fill:#c3c0c4;fill-opacity:1;stroke:none;stroke-width:0.300002;stroke-linejoin:round;stroke-dasharray:none;stroke-opacity:1"
     id="path9"
     cx="7.5"
     cy="7.5"
     r="6" />
  <path
     sodipodi:type="star"
     style="fill:#61606a;fill-opacity:1;stroke:none;stroke-width:0.326372;stroke-linejoin:round;stroke-dasharray:none;stroke-opacity:1"
     id="path1"
     inkscape:flatsided="true"
     sodipodi:sides="16"
     sodipodi:cx="17.015949"
     sodipodi:cy="3.4783986"
     sodipodi:r1="3.2682171"
     sodipodi:r2="2.9413955"
     sodipodi:arg1="0.96949663"
     sodipodi:arg2="1.1658462"
     inkscape:rounded="0.8"
     inkscape:randomized="0"
     d="m 18.864828,6.1733738 c -0.841222,0.5771173 -0.174019,0.2911272 -1.17206,0.5023924 -0.998041,0.2112652 -0.272182,0.2023722 -1.2751,0.015622 C 15.414751,6.5046382 16.08876,6.7741962 15.233652,6.2178618 14.378543,5.6615275 14.898091,6.1684987 14.320974,5.327277 13.743857,4.4860552 14.029847,5.1532578 13.818582,4.1552171 13.607316,3.1571763 13.616209,3.8830349 13.80296,2.8801177 c 0.18675,-1.0029171 -0.08281,-0.328908 0.473526,-1.1840165 0.556334,-0.85510843 0.04936,-0.3355606 0.890585,-0.91267789 0.841222,-0.57711725 0.174019,-0.29112717 1.17206,-0.50239236 0.99804,-0.21126519 0.272182,-0.20237219 1.275099,-0.0156221 1.002917,0.18675008 0.328908,-0.0828079 1.184017,0.47352644 0.855108,0.55633432 0.33556,0.0493632 0.912678,0.89058492 0.577117,0.8412217 0.291127,0.1740191 0.502392,1.1720598 0.211265,0.9980408 0.202372,0.2721823 0.01562,1.2750994 -0.18675,1.0029171 0.08281,0.3289081 -0.473526,1.1840165 -0.556335,0.8551084 -0.04936,0.3355607 -0.890585,0.9126779 z"
     transform="matrix(0.90278434,-0.17291821,0.17291821,0.90278434,-8.463211,7.3021237)" />
  <path
     sodipodi:type="star"
     style="fill:#181f23;fill-opacity:1;stroke:none;stroke-width:0.334531;stroke-linejoin:round;stroke-dasharray:none;stroke-opacity:1"
     id="path10"
     inkscape:flatsided="true"
     sodipodi:sides="16"
     sodipodi:cx="17.015949"
     sodipodi:cy="3.4783986"
     sodipodi:r1="3.2682171"
     sodipodi:r2="2.9413955"
     sodipodi:arg1="0.96949663"
     sodipodi:arg2="1.1658462"
     inkscape:rounded="0.8"
     inkscape:randomized="0"
     d="m 18.864828,6.1733738 c -0.841222,0.5771173 -0.174019,0.2911272 -1.17206,0.5023924 -0.998041,0.2112652 -0.272182,0.2023722 -1.2751,0.015622 C 15.414751,6.5046382 16.08876,6.7741962 15.233652,6.2178618 14.378543,5.6615275 14.898091,6.1684987 14.320974,5.327277 13.743857,4.4860552 14.029847,5.1532578 13.818582,4.1552171 13.607316,3.1571763 13.616209,3.8830349 13.80296,2.8801177 c 0.18675,-1.0029171 -0.08281,-0.328908 0.473526,-1.1840165 0.556334,-0.85510843 0.04936,-0.3355606 0.890585,-0.91267789 0.841222,-0.57711725 0.174019,-0.29112717 1.17206,-0.50239236 0.99804,-0.21126519 0.272182,-0.20237219 1.275099,-0.0156221 1.002917,0.18675008 0.328908,-0.0828079 1.184017,0.47352644 0.855108,0.55633432 0.33556,0.0493632 0.912678,0.89058492 0.577117,0.8412217 0.291127,0.1740191 0.502392,1.1720598 0.211265,0.9980408 0.202372,0.2721823 0.01562,1.2750994 -0.18675,1.0029171 0.08281,0.3289081 -0.473526,1.1840165 -0.556335,0.8551084 -0.04936,0.3355607 -0.890585,0.9126779 z"
     transform="matrix(0.88076522,-0.16870069,0.16870069,0.88076522,-8.0738645,7.3069499)" />
  <circle
     style="fill:url(#radialGradient13);stroke:none;stroke-width:0.3;stroke-linejoin:round;stroke-dasharray:none;stroke-opacity:1"
     id="path11"
     cx="7.5"
     cy="7.5"
     r="2.5999999" />
  <circle
     style="fill:#201a00;fill-opacity:1;stroke:none;stroke-width:0.3;stroke-linejoin:round;stroke-dasharray:none;stroke-opacity:1"
     id="circle13"
     cx="7.5"
     cy="7.5"
     r="1.875" />
  <path
     style="fill:none;stroke:#000000;stroke-width:0.2"
     inkscape:label="none"
     d="m 7.5,13 v 0.5"
     id="path2" />
  <path
     style="fill:none;stroke:#000000;stroke-width:0.2"
     inkscape:label="none"
     d="M 3.6109127,11.389087 3.2573593,11.742641"
     id="path3" />
  <path
     style="fill:none;stroke:#000000;stroke-width:0.2"
     inkscape:label="none"
     d="M 2,7.5 H 1.5"
     id="path4" />
  <path
     style="fill:none;stroke:#000000;stroke-width:0.2"
     inkscape:label="none"
     d="M 3.6109127,3.6109128 3.2573593,3.2573594"
     id="path5" />
  <path
     style="fill:none;stroke:#000000;stroke-width:0.2"
     inkscape:label="none"
     d="M 7.4999997,4 V 1.5"
     id="path6" />
  <path
     style="fill:none;stroke:#000000;stroke-width:0.2"
     inkscape:label="none"
     d="M 11.389087,3.6109128 11.742641,3.2573594"
     id="path7" />
  <path
     style="fill:none;stroke:#000000;stroke-width:0.2"
     inkscape:label="none"
     d="m 13,7.5 h 0.5"
     id="path8" />
  <path
     style="fill:none;stroke:#000000;stroke-width:0.2"
     inkscape:label="none"
     d="m 11.389087,11.389087 0.353554,0.353554"
     id="path12" />
</svg>
