<?xml version="1.0" encoding="UTF-8" standalone="no"?>
<!-- Created with Inkscape (http://www.inkscape.org/) -->

<svg
   width="15mm"
   height="15mm"
   viewBox="0 0 15 15"
   version="1.1"
   id="svg1"
   inkscape:version="1.1.2 (0a00cf5339, 2022-02-04)"
   sodipodi:docname="TurnsCountingDial_fg.svg"
   xmlns:inkscape="http://www.inkscape.org/namespaces/inkscape"
   xmlns:sodipodi="http://sodipodi.sourceforge.net/DTD/sodipodi-0.dtd"
   xmlns:xlink="http://www.w3.org/1999/xlink"
   xmlns="http://www.w3.org/2000/svg"
   xmlns:svg="http://www.w3.org/2000/svg">
  <sodipodi:namedview
     id="namedview1"
     pagecolor="#ffffff"
     bordercolor="#666666"
     borderopacity="1.0"
     inkscape:showpageshadow="2"
     inkscape:pageopacity="0.0"
     inkscape:pagecheckerboard="0"
     inkscape:deskcolor="#d1d1d1"
     inkscape:document-units="mm"
     inkscape:zoom="8.1054187"
     inkscape:cx="25.230035"
     inkscape:cy="29.548134"
     inkscape:window-width="1440"
     inkscape:window-height="840"
     inkscape:window-x="80"
     inkscape:window-y="156"
     inkscape:window-maximized="0"
     inkscape:current-layer="svg1"
     inkscape:pageshadow="2"
     showgrid="false" />
  <defs
     id="defs1">
    <linearGradient
       inkscape:collect="always"
       id="linearGradient6378">
      <stop
         style="stop-color:#000000;stop-opacity:1"
         offset="0"
         id="stop6374" />
      <stop
         style="stop-color:#313233;stop-opacity:0;"
         offset="1"
         id="stop6376" />
    </linearGradient>
    <linearGradient
       id="linearGradient12"
       inkscape:collect="always">
      <stop
         style="stop-color:#f0f2f3;stop-opacity:0.10815939;"
         offset="0"
         id="stop10" />
      <stop
         style="stop-color:#c3c0c4;stop-opacity:0;"
         offset="1"
         id="stop11" />
    </linearGradient>
    <linearGradient
       id="linearGradient8"
       inkscape:collect="always">
      <stop
         style="stop-color:#f0f2f3;stop-opacity:0.08349146;"
         offset="0"
         id="stop8" />
      <stop
         style="stop-color:#c3c0c4;stop-opacity:0;"
         offset="1"
         id="stop9" />
    </linearGradient>
    <linearGradient
       id="linearGradient3"
       inkscape:collect="always">
      <stop
         style="stop-color:#181f23;stop-opacity:0.39089185;"
         offset="0"
         id="stop3" />
      <stop
         style="stop-color:#181f23;stop-opacity:0;"
         offset="0.828614"
         id="stop4" />
    </linearGradient>
    <linearGradient
       inkscape:collect="always"
       xlink:href="#linearGradient11"
       id="linearGradient14"
       x1="-14.534959"
       y1="24.753469"
       x2="-28.2341"
       y2="16.522194"
       gradientUnits="userSpaceOnUse"
       gradientTransform="translate(17.494233,-13.791243)" />
    <linearGradient
       id="linearGradient11"
       inkscape:collect="always">
      <stop
         style="stop-color:#a6a5a6;stop-opacity:1;"
         offset="0"
         id="stop11-3" />
      <stop
         style="stop-color:#8e8f8c;stop-opacity:1;"
         offset="1"
         id="stop14" />
    </linearGradient>
    <linearGradient
       inkscape:collect="always"
       xlink:href="#linearGradient3"
       id="linearGradient4-3"
       x1="16.104761"
       y1="6.8790069"
       x2="17.927141"
       y2="0.077790461"
       gradientUnits="userSpaceOnUse" />
    <linearGradient
       inkscape:collect="always"
       xlink:href="#linearGradient12"
       id="linearGradient9"
       x1="4.5511356"
       y1="7.4996883"
       x2="10.44631"
       y2="7.4996883"
       gradientUnits="userSpaceOnUse"
       gradientTransform="rotate(30,7.4987228,7.4996883)" />
    <linearGradient
       inkscape:collect="always"
       xlink:href="#linearGradient8"
       id="linearGradient10"
       gradientUnits="userSpaceOnUse"
       x1="4.5511356"
       y1="7.4996883"
       x2="10.44631"
       y2="7.4996883"
       gradientTransform="rotate(-150,7.4984341,7.4995332)" />
    <linearGradient
       inkscape:collect="always"
       xlink:href="#linearGradient6378"
       id="linearGradient6380"
       x1="7.7529135"
       y1="9.4724808"
       x2="7.7803349"
       y2="8.8338804"
       gradientUnits="userSpaceOnUse"
       gradientTransform="matrix(1.0000162,0,0,1.008393,-7.288995e-5,-0.85705389)" />
  </defs>
  <g
     inkscape:groupmode="layer"
     id="layer4"
     inkscape:label="non visible"
     style="display:none">
    <rect
       style="display:inline;fill:#000000;fill-opacity:1;stroke:#3a1a00;stroke-width:0.600001;stroke-linejoin:round;stroke-dasharray:none;stroke-opacity:1"
       id="rect11"
       width="8.3999987"
       height="8.1999989"
       x="1.4500008"
       y="-3.6687498" />
    <path
       style="display:inline;fill:url(#linearGradient14);fill-opacity:1;stroke:none;stroke-width:0.01;stroke-linejoin:round"
       id="path1"
       sodipodi:type="arc"
       sodipodi:cx="-3.7517939"
       sodipodi:cy="6.8465977"
       sodipodi:rx="8.1294441"
       sodipodi:ry="8.0093632"
       sodipodi:start="0.26179939"
       sodipodi:end="5.4977871"
       sodipodi:arc-type="slice"
       d="M 4.1006462,8.9195734 A 8.1294441,8.0093632 0 0 1 -3.7517939,14.855961 8.1294441,8.0093632 0 0 1 -11.604234,8.9195736 8.1294441,8.0093632 0 0 1 -7.8165161,-0.08971418 8.1294441,8.0093632 0 0 1 1.996591,1.1831224 l -5.7483849,5.6634753 z"
       transform="matrix(0.25469789,-0.96702067,0.9647966,0.26299718,0,0)" />
  </g>
  <g
     inkscape:label="dial"
     inkscape:groupmode="layer"
     id="layer1"
     style="display:inline" />
  <path
     id="circle8"
     style="font-variation-settings:normal;opacity:1;vector-effect:none;fill:url(#linearGradient9);stroke:none;stroke-width:0.300001;stroke-linecap:butt;stroke-linejoin:round;stroke-miterlimit:4;stroke-dasharray:none;stroke-dashoffset:0;stroke-opacity:1;-inkscape-stroke:none"
     d="m 4.5531844,7.3582793 a 2.95,2.95 0 0 0 0.00378,0.1569463 2.95,2.95 0 0 1 0.00357,-0.2554077 2.95,2.95 0 0 0 -0.00735,0.098461 z m 0.00884,-0.1185668 a 2.95,2.95 0 0 1 0.06265,-0.3963762 2.95,2.95 0 0 0 -0.06265,0.3963762 z M 4.5617906,7.725511 A 2.95,2.95 0 0 0 4.5897654,7.9384695 2.95,2.95 0 0 1 4.5617906,7.725511 Z m 0.068192,-0.9062343 a 2.95,2.95 0 0 1 0.1194438,-0.383279 2.95,2.95 0 0 0 -0.1194438,0.383279 z m -0.00658,1.3220781 a 2.95,2.95 0 0 0 0.058237,0.207698 2.95,2.95 0 0 1 -0.058237,-0.207698 z M 4.7571611,6.41516 A 2.95,2.95 0 0 1 4.9303931,6.0536278 2.95,2.95 0 0 0 4.7571611,6.41516 Z M 4.7454621,8.548226 A 2.95,2.95 0 0 0 4.8313141,8.7412224 2.95,2.95 0 0 1 4.7454621,8.548226 Z M 4.9434144,6.0304592 A 2.95,2.95 0 0 1 5.1648734,5.6986828 2.95,2.95 0 0 0 4.9434144,6.0304592 Z M 4.9225524,8.9298236 A 2.95,2.95 0 0 0 5.0354281,9.1096426 2.95,2.95 0 0 1 4.9225524,8.9298236 Z M 5.1803253,5.678736 A 2.95,2.95 0 0 1 5.4476466,5.3828088 2.95,2.95 0 0 0 5.1803253,5.678736 Z M 5.153716,9.2845485 A 2.95,2.95 0 0 0 5.2903005,9.4448236 2.95,2.95 0 0 1 5.153716,9.2845485 Z M 5.4677191,5.3636032 a 2.95,2.95 0 0 1 0.3067397,-0.255216 2.95,2.95 0 0 0 -0.3067397,0.255216 z m -0.03596,4.2370684 A 2.95,2.95 0 0 0 5.5940234,9.7435567 2.95,2.95 0 0 1 5.4317592,9.6006716 Z m 0.3608987,-4.504855 a 2.95,2.95 0 0 1 0.3460084,-0.211408 2.95,2.95 0 0 0 -0.3460084,0.211408 z m -0.03993,4.7785623 A 2.95,2.95 0 0 0 5.9287513,9.9894812 2.95,2.95 0 0 1 5.7527282,9.8743789 Z M 6.1450352,4.8810957 7.4994241,7.5009229 7.6420927,4.5541672 A 2.95,2.95 0 0 0 6.1450352,4.8810957 Z M 7.6420927,4.5541672 a 2.95,2.95 0 0 1 0.4202282,0.05087 2.95,2.95 0 0 0 -0.4202282,-0.05087 z M 6.1116864,10.100775 a 2.95,2.95 0 0 0 0.1887559,0.08726 2.95,2.95 0 0 1 -0.1887559,-0.08726 z m 0.3833607,0.171185 a 2.95,2.95 0 0 0 0.2076034,0.06127 2.95,2.95 0 0 1 -0.2076034,-0.06127 z m 0.4067815,0.11489 a 2.95,2.95 0 0 0 0.2162783,0.03168 2.95,2.95 0 0 1 -0.2162783,-0.03168 z m 0.4173969,0.05591 a 2.95,2.95 0 0 0 0.037554,0.0044 2.95,2.95 0 0 0 0.1776445,-0.0038 2.95,2.95 0 0 1 -0.2151974,-5.89e-4 z m 0.4239346,-0.0043 a 2.95,2.95 0 0 0 0.2130835,-0.03056 2.95,2.95 0 0 1 -0.2130835,0.03056 z M 8.1368805,4.6252027 a 2.95,2.95 0 0 1 0.3345109,0.09018 2.95,2.95 0 0 0 -0.3345109,-0.09018 z m 0.022273,5.7485383 a 2.95,2.95 0 0 0 0.2125683,-0.06266 2.95,2.95 0 0 1 -0.2125683,0.06266 z M 8.5798505,4.7620233 A 2.95,2.95 0 0 1 8.8570418,4.8820214 2.95,2.95 0 0 0 8.5798505,4.7620233 Z M 8.563003,10.249982 a 2.95,2.95 0 0 0 0.2000064,-0.09172 2.95,2.95 0 0 1 -0.2000064,0.09172 z M 9.0128281,4.9769991 A 2.95,2.95 0 0 1 9.218805,5.1038989 2.95,2.95 0 0 0 9.0128281,4.9769991 Z M 8.9447255,10.070311 A 2.95,2.95 0 0 0 9.1332527,9.948544 2.95,2.95 0 0 1 8.9447255,10.070311 Z M 9.320795,5.1879931 A 2.95,2.95 0 0 1 9.5450365,5.3757903 2.95,2.95 0 0 0 9.320795,5.1879931 Z m -0.02385,4.649481 a 2.95,2.95 0 0 0 0.1679974,-0.14656 2.95,2.95 0 0 1 -0.1679974,0.14656 z M 9.6300088,5.4694092 A 2.95,2.95 0 0 1 9.8268429,5.688991 2.95,2.95 0 0 0 9.6300088,5.4694092 Z M 9.6126768,9.5568251 A 2.95,2.95 0 0 0 9.7656787,9.3779779 2.95,2.95 0 0 1 9.6126768,9.5568251 Z M 9.9093834,5.8114649 A 2.95,2.95 0 0 1 10.061769,6.0407943 2.95,2.95 0 0 0 9.9093834,5.8114649 Z M 9.8832872,9.235706 A 2.95,2.95 0 0 0 10.006523,9.0414552 2.95,2.95 0 0 1 9.8832872,9.235706 Z M 10.13421,6.1901998 a 2.95,2.95 0 0 1 0.10942,0.2298361 2.95,2.95 0 0 0 -0.10942,-0.2298361 z m -0.02543,2.6839172 a 2.95,2.95 0 0 0 0.09111,-0.2040877 2.95,2.95 0 0 1 -0.09111,0.2040877 z m 0.191418,-2.2759542 a 2.95,2.95 0 0 1 0.06931,0.2247897 2.95,2.95 0 0 0 -0.06931,-0.2247897 z m -0.02279,1.8919521 a 2.95,2.95 0 0 0 0.06495,-0.2301892 2.95,2.95 0 0 1 -0.06495,0.2301892 z m 0.125494,-1.4699797 a 2.95,2.95 0 0 1 0.03392,0.21842 2.95,2.95 0 0 0 -0.03392,-0.21842 z m -0.01262,1.0620662 a 2.95,2.95 0 0 0 0.02915,-0.2174351 2.95,2.95 0 0 1 -0.02915,0.2174351 z m 0.05162,-0.6281739 a 2.95,2.95 0 0 1 0.0024,0.2060314 2.95,2.95 0 0 0 0.0019,-0.016444 2.95,2.95 0 0 0 -0.0043,-0.1895625 z" />
  <path
     id="path9"
     style="font-variation-settings:normal;opacity:1;vector-effect:none;fill:url(#linearGradient10);fill-opacity:1;stroke:none;stroke-width:0.300001;stroke-linecap:butt;stroke-linejoin:round;stroke-miterlimit:4;stroke-dasharray:none;stroke-dashoffset:0;stroke-opacity:1;-inkscape-stroke:none"
     d="m 10.4438,7.6406636 a 2.95,2.95 0 0 0 -0.0038,-0.1569443 2.95,2.95 0 0 1 -0.0036,0.2554077 2.95,2.95 0 0 0 0.0074,-0.09846 z m -0.0088,0.1185656 A 2.95,2.95 0 0 1 10.37235,8.1556066 2.95,2.95 0 0 0 10.435,7.7592302 Z m 2.41e-4,-0.4857973 a 2.95,2.95 0 0 0 -0.02798,-0.2129586 2.95,2.95 0 0 1 0.02798,0.2129586 z m -0.06824,0.9062342 a 2.95,2.95 0 0 1 -0.119442,0.38328 2.95,2.95 0 0 0 0.119442,-0.38328 z m 0.0066,-1.3220781 a 2.95,2.95 0 0 0 -0.05824,-0.2076979 2.95,2.95 0 0 1 0.05824,0.2076979 z m -0.133759,1.7261951 a 2.95,2.95 0 0 1 -0.173234,0.3615312 2.95,2.95 0 0 0 0.173234,-0.3615312 z m 0.0117,-2.1330662 a 2.95,2.95 0 0 0 -0.08585,-0.1929965 2.95,2.95 0 0 1 0.08585,0.1929965 z M 10.05357,8.9684837 A 2.95,2.95 0 0 1 9.8321119,9.3002606 2.95,2.95 0 0 0 10.05357,8.9684837 Z M 10.07443,6.0691193 A 2.95,2.95 0 0 0 9.9615564,5.8893003 2.95,2.95 0 0 1 10.074432,6.0691192 Z M 9.8166595,9.320207 A 2.95,2.95 0 0 1 9.5493411,9.6161359 2.95,2.95 0 0 0 9.8166595,9.320207 Z M 9.8432685,5.7143943 A 2.95,2.95 0 0 0 9.706684,5.5541193 2.95,2.95 0 0 1 9.8432685,5.7143943 Z M 9.5292656,9.6353397 A 2.95,2.95 0 0 1 9.2225254,9.8905554 2.95,2.95 0 0 0 9.5292656,9.6353397 Z m 0.03596,-4.2370685 A 2.95,2.95 0 0 0 9.4029611,5.2553861 2.95,2.95 0 0 1 9.5652255,5.3982712 Z M 9.2043268,9.9031263 A 2.95,2.95 0 0 1 8.8583182,10.114534 2.95,2.95 0 0 0 9.2043268,9.9031263 Z M 9.2442566,5.124564 A 2.95,2.95 0 0 0 9.0682333,5.0094615 2.95,2.95 0 0 1 9.2442566,5.124564 Z M 8.8519493,10.117847 7.4975604,7.49802 7.3548916,10.444776 a 2.95,2.95 0 0 0 1.4970577,-0.326929 z m -1.4970577,0.326929 a 2.95,2.95 0 0 1 -0.4202279,-0.05087 2.95,2.95 0 0 0 0.4202279,0.05087 z M 8.8852981,4.8981674 A 2.95,2.95 0 0 0 8.6965422,4.8109091 2.95,2.95 0 0 1 8.8852981,4.8981674 Z M 8.5019374,4.7269827 a 2.95,2.95 0 0 0 -0.2076033,-0.06127 2.95,2.95 0 0 1 0.2076033,0.06127 z M 8.0951559,4.6120926 A 2.95,2.95 0 0 0 7.8788776,4.5804086 2.95,2.95 0 0 1 8.0951559,4.6120926 Z M 7.6777589,4.556185 a 2.95,2.95 0 0 0 -0.037554,-0.00441 2.95,2.95 0 0 0 -0.1776442,0.00382 2.95,2.95 0 0 1 0.2151974,5.886e-4 z M 7.2538244,4.560495 A 2.95,2.95 0 0 0 7.0407409,4.5910498 2.95,2.95 0 0 1 7.2538244,4.560495 Z M 6.8601038,10.37374 a 2.95,2.95 0 0 1 -0.3345123,-0.09018 2.95,2.95 0 0 0 0.3345123,0.09018 z M 6.8378306,4.6252021 A 2.95,2.95 0 0 0 6.6252623,4.6878596 2.95,2.95 0 0 1 6.8378306,4.6252021 Z M 6.4171341,10.236919 A 2.95,2.95 0 0 1 6.1399399,10.116926 2.95,2.95 0 0 0 6.4171341,10.236919 Z M 6.4339815,4.7489609 A 2.95,2.95 0 0 0 6.2339751,4.8406819 2.95,2.95 0 0 1 6.4339815,4.7489609 Z M 5.9841565,10.021944 A 2.95,2.95 0 0 1 5.7781744,9.8950528 2.95,2.95 0 0 0 5.9841565,10.021944 Z M 6.052259,4.9286322 A 2.95,2.95 0 0 0 5.8637318,5.0503989 2.95,2.95 0 0 1 6.052259,4.9286322 Z M 5.6761894,9.8109496 A 2.95,2.95 0 0 1 5.4519499,9.6231494 2.95,2.95 0 0 0 5.6761894,9.8109496 Z m 0.02385,-4.6494808 A 2.95,2.95 0 0 0 5.532042,5.3080287 2.95,2.95 0 0 1 5.7000394,5.1614688 Z M 5.366976,9.5295333 A 2.95,2.95 0 0 1 5.1701436,9.3099483 2.95,2.95 0 0 0 5.366976,9.5295333 Z M 5.3843077,5.4421178 A 2.95,2.95 0 0 0 5.2313058,5.6209649 2.95,2.95 0 0 1 5.3843077,5.4421178 Z M 5.0876009,9.187478 A 2.95,2.95 0 0 1 4.9352152,8.9581489 2.95,2.95 0 0 0 5.0876009,9.187478 Z M 5.1136973,5.7632369 A 2.95,2.95 0 0 0 4.9904614,5.9574877 2.95,2.95 0 0 1 5.1136973,5.7632369 Z M 4.8627742,8.8087431 A 2.95,2.95 0 0 1 4.7533549,8.5789069 2.95,2.95 0 0 0 4.8627742,8.8087431 Z m 0.025434,-2.6839173 a 2.95,2.95 0 0 0 -0.09111,0.2040876 2.95,2.95 0 0 1 0.09111,-0.2040876 z M 4.6967897,8.4007801 a 2.95,2.95 0 0 1 -0.069308,-0.2247898 2.95,2.95 0 0 0 0.069308,0.2247898 z m 0.02279,-1.8919522 a 2.95,2.95 0 0 0 -0.064951,0.2301893 2.95,2.95 0 0 1 0.064951,-0.2301893 z m -0.125494,1.4699798 a 2.95,2.95 0 0 1 -0.033918,-0.2184201 2.95,2.95 0 0 0 0.033918,0.2184201 z m 0.012618,-1.0620662 a 2.95,2.95 0 0 0 -0.029153,0.2174349 2.95,2.95 0 0 1 0.029153,-0.2174349 z m -0.051625,0.6281738 a 2.95,2.95 0 0 1 -0.00244,-0.2060313 2.95,2.95 0 0 0 -0.00187,0.016443 2.95,2.95 0 0 0 0.00427,0.1895624 z" />
  <path
     id="path3549"
     style="opacity:0.122786;fill:url(#linearGradient6380);fill-opacity:1;stroke:none;stroke-width:0.736254;paint-order:markers fill stroke"
     d="m 4.6317061,7.8 a 3.0000486,2.8459807 0 0 0 -0.029456,0.090204 3.0000486,2.8459807 0 0 0 2.1213518,3.485561 3.0000486,2.8459807 0 0 0 3.6742531,-2.012409 3.0000486,2.8459807 0 0 0 -0.0047,-1.4893298 c -0.03525,0.070096 -0.08194,0.168128 -0.144179,0.3127692 C 9.9032776,8.9903136 10.262136,8.4749288 9.6185632,9.0917662 8.974995,9.7086037 9.5147323,9.3629172 8.6713199,9.6991666 7.8279071,10.035415 8.4652939,9.91187 7.5504397,9.916339 6.6355857,9.92093 7.2750269,10.037938 6.4280095,9.7099497 5.5809907,9.3819575 6.1237591,9.7223829 5.473529,9.1118657 4.823299,8.5013468 5.1882153,9.0133661 4.8337643,8.2132669 4.7272294,7.9727869 4.6674876,7.8647474 4.6317061,7.8 Z" />
</svg>
