<?xml version="1.0" encoding="UTF-8" standalone="no"?>
<!-- Created with Inkscape (http://www.inkscape.org/) -->

<svg
   width="15mm"
   height="15mm"
   viewBox="0 0 15 15"
   version="1.1"
   id="svg1"
   inkscape:version="1.4 (e7c3feb1, 2024-10-09)"
   sodipodi:docname="TurnsCountingDial.svg"
   xmlns:inkscape="http://www.inkscape.org/namespaces/inkscape"
   xmlns:sodipodi="http://sodipodi.sourceforge.net/DTD/sodipodi-0.dtd"
   xmlns:xlink="http://www.w3.org/1999/xlink"
   xmlns="http://www.w3.org/2000/svg"
   xmlns:svg="http://www.w3.org/2000/svg">
  <sodipodi:namedview
     id="namedview1"
     pagecolor="#ffffff"
     bordercolor="#666666"
     borderopacity="1.0"
     inkscape:showpageshadow="2"
     inkscape:pageopacity="0.0"
     inkscape:pagecheckerboard="0"
     inkscape:deskcolor="#d1d1d1"
     inkscape:document-units="mm"
     inkscape:zoom="9.1715402"
     inkscape:cx="23.823698"
     inkscape:cy="37.779914"
     inkscape:window-width="1440"
     inkscape:window-height="902"
     inkscape:window-x="65"
     inkscape:window-y="74"
     inkscape:window-maximized="0"
     inkscape:current-layer="svg1"
     showgrid="false" />
  <defs
     id="defs1">
    <radialGradient
       inkscape:collect="always"
       xlink:href="#linearGradient12"
       id="radialGradient13"
       cx="-2.9122875"
       cy="6.7762928"
       fx="-2.9122875"
       fy="6.7762928"
       r="2.7"
       gradientUnits="userSpaceOnUse"
       gradientTransform="matrix(0.96296295,0,0,0.96296295,10.304424,0.97468095)" />
    <linearGradient
       id="linearGradient12"
       inkscape:collect="always">
      <stop
         style="stop-color:#1f1f24;stop-opacity:1;"
         offset="0"
         id="stop12" />
      <stop
         style="stop-color:#363838;stop-opacity:1;"
         offset="1"
         id="stop13" />
    </linearGradient>
  </defs>
  <g
     inkscape:label="dial"
     inkscape:groupmode="layer"
     id="layer1"
     style="display:inline" />
  <circle
     style="fill:#bdbdbd;fill-opacity:1;stroke:none;stroke-width:0.300002;stroke-linejoin:round;stroke-dasharray:none;stroke-opacity:1"
     id="path9"
     cx="7.5"
     cy="7.5"
     r="5.75" />
  <path
     style="fill:none;stroke:#000000;stroke-width:0.2"
     inkscape:label="none"
     d="m 7.4999993,4.2760017 0,-2.5260017"
     id="path6"
     sodipodi:nodetypes="cc" />
  <path
     sodipodi:type="star"
     style="fill:#61606a;fill-opacity:1;stroke:none;stroke-width:0.297361;stroke-linejoin:round;stroke-dasharray:none;stroke-opacity:1"
     id="path1"
     inkscape:flatsided="true"
     sodipodi:sides="8"
     sodipodi:cx="17.015949"
     sodipodi:cy="3.4783986"
     sodipodi:r1="3.2682171"
     sodipodi:r2="2.9413955"
     sodipodi:arg1="0.96949663"
     sodipodi:arg2="1.3621957"
     inkscape:rounded="0.8"
     inkscape:randomized="0"
     d="M 18.864828,6.1733738 C 17.214712,7.30543 18.384961,7.0577117 16.417668,6.6913883 14.450376,6.3250648 15.45303,6.9773928 14.320974,5.327277 13.188918,3.6771611 13.436636,4.8474104 13.80296,2.8801177 14.169283,0.91282503 13.516955,1.9154795 15.167071,0.78342331 c 1.650116,-1.13205621 0.479866,-0.88433793 2.447159,-0.51801447 1.967293,0.36632345 0.964638,-0.28600448 2.096695,1.36411136 1.132056,1.6501158 0.884337,0.4798665 0.518014,2.4471592 -0.366323,1.9672927 0.286004,0.9646382 -1.364111,2.0966944 z"
     transform="matrix(0.99086086,-0.18978828,0.18978828,0.99086086,-10.020597,7.2828188)" />
  <path
     sodipodi:type="star"
     style="fill:#181f1f;fill-opacity:1;stroke:none;stroke-width:0.304119;stroke-linejoin:round;stroke-dasharray:none;stroke-opacity:1"
     id="path10"
     inkscape:flatsided="true"
     sodipodi:sides="8"
     sodipodi:cx="17.015949"
     sodipodi:cy="3.4783986"
     sodipodi:r1="3.2682171"
     sodipodi:r2="2.9413955"
     sodipodi:arg1="0.96949663"
     sodipodi:arg2="1.3621957"
     inkscape:rounded="0.8"
     inkscape:randomized="0"
     d="M 18.864828,6.1733738 C 17.214712,7.30543 18.384961,7.0577117 16.417668,6.6913883 14.450376,6.3250648 15.45303,6.9773928 14.320974,5.327277 13.188918,3.6771611 13.436636,4.8474104 13.80296,2.8801177 14.169283,0.91282503 13.516955,1.9154795 15.167071,0.78342331 c 1.650116,-1.13205621 0.479866,-0.88433793 2.447159,-0.51801447 1.967293,0.36632345 0.964638,-0.28600448 2.096695,1.36411136 1.132056,1.6501158 0.884337,0.4798665 0.518014,2.4471592 -0.366323,1.9672927 0.286004,0.9646382 -1.364111,2.0966944 z"
     transform="matrix(0.96884174,-0.18557076,0.18557076,0.96884174,-9.6312509,7.2876449)" />
  <circle
     style="fill:url(#radialGradient13);stroke:none;stroke-width:0.3;stroke-linejoin:round;stroke-dasharray:none;stroke-opacity:1"
     id="path11"
     cx="7.5"
     cy="7.5"
     r="2.5999999" />
  <circle
     style="fill:#201a00;fill-opacity:1;stroke:none;stroke-width:0.3;stroke-linejoin:round;stroke-dasharray:none;stroke-opacity:1"
     id="circle13"
     cx="7.5"
     cy="7.5"
     r="1.875" />
  <path
     style="fill:none;stroke:#000000;stroke-width:0.2"
     inkscape:label="none"
     d="m 7.5,12.75 v 0.5"
     id="path2" />
  <path
     style="fill:none;stroke:#000000;stroke-width:0.2"
     inkscape:label="none"
     d="M 3.7724102,11.196973 3.4188568,11.550527"
     id="path3" />
  <path
     style="fill:none;stroke:#000000;stroke-width:0.2"
     inkscape:label="none"
     d="M 2.25,7.5 H 1.75"
     id="path4" />
  <path
     style="fill:none;stroke:#000000;stroke-width:0.2"
     inkscape:label="none"
     d="M 3.8652583,3.8855861 3.4241197,3.444177"
     id="path5"
     sodipodi:nodetypes="cc" />
  <path
     style="fill:none;stroke:#000000;stroke-width:0.2"
     inkscape:label="none"
     d="M 11.22249,3.7978951 11.576044,3.4443417"
     id="path7" />
  <path
     style="fill:none;stroke:#000000;stroke-width:0.2"
     inkscape:label="none"
     d="m 12.75,7.5 h 0.5"
     id="path8" />
  <path
     style="fill:none;stroke:#000000;stroke-width:0.2"
     inkscape:label="none"
     d="m 11.207165,11.217448 0.353554,0.353554"
     id="path12" />
</svg>
