<?xml version="1.0" encoding="UTF-8" standalone="no"?>
<!-- Created with Inkscape (http://www.inkscape.org/) -->

<svg
   width="12.5mm"
   height="12.5mm"
   viewBox="0 0 12.5 12.5"
   version="1.1"
   id="svg1"
   inkscape:version="1.4 (e7c3feb1, 2024-10-09)"
   sodipodi:docname="ZKnobLarge_bg.svg"
   xmlns:inkscape="http://www.inkscape.org/namespaces/inkscape"
   xmlns:sodipodi="http://sodipodi.sourceforge.net/DTD/sodipodi-0.dtd"
   xmlns:xlink="http://www.w3.org/1999/xlink"
   xmlns="http://www.w3.org/2000/svg"
   xmlns:svg="http://www.w3.org/2000/svg">
  <sodipodi:namedview
     id="namedview1"
     pagecolor="#ffffff"
     bordercolor="#666666"
     borderopacity="1.0"
     inkscape:showpageshadow="2"
     inkscape:pageopacity="0.0"
     inkscape:pagecheckerboard="0"
     inkscape:deskcolor="#d1d1d1"
     inkscape:document-units="mm"
     inkscape:zoom="23.113025"
     inkscape:cx="19.512807"
     inkscape:cy="23.06059"
     inkscape:window-width="1320"
     inkscape:window-height="923"
     inkscape:window-x="10"
     inkscape:window-y="86"
     inkscape:window-maximized="0"
     inkscape:current-layer="layer1"
     showgrid="false" />
  <defs
     id="defs1">
    <linearGradient
       id="linearGradient10"
       inkscape:collect="always">
      <stop
         style="stop-color:#696d6d;stop-opacity:1;"
         offset="0"
         id="stop9" />
      <stop
         style="stop-color:#0d0f0f;stop-opacity:1;"
         offset="1"
         id="stop10" />
    </linearGradient>
    <linearGradient
       id="linearGradient7"
       inkscape:collect="always">
      <stop
         style="stop-color:#989a9a;stop-opacity:1;"
         offset="0"
         id="stop7" />
      <stop
         style="stop-color:#616363;stop-opacity:1;"
         offset="1"
         id="stop8" />
    </linearGradient>
    <linearGradient
       id="linearGradient3"
       inkscape:collect="always">
      <stop
         style="stop-color:#c7c8c8;stop-opacity:1;"
         offset="0"
         id="stop4" />
      <stop
         style="stop-color:#353535;stop-opacity:1;"
         offset="1"
         id="stop3" />
    </linearGradient>
    <radialGradient
       inkscape:collect="always"
       xlink:href="#linearGradient3"
       id="radialGradient4-4"
       cx="-8.2970028"
       cy="6.7709126"
       fx="-8.2970028"
       fy="6.7709126"
       r="6.2499428"
       gradientUnits="userSpaceOnUse"
       gradientTransform="translate(-15.967745,-3.5887976)" />
    <radialGradient
       inkscape:collect="always"
       xlink:href="#linearGradient3"
       id="radialGradient4-47"
       cx="-8.2970028"
       cy="6.7709126"
       fx="-8.2970028"
       fy="6.7709126"
       r="6.2499428"
       gradientUnits="userSpaceOnUse"
       gradientTransform="translate(-15.967745,-3.5887976)" />
    <linearGradient
       inkscape:collect="always"
       xlink:href="#linearGradient7"
       id="linearGradient8"
       x1="-1.0709603"
       y1="6.1339979"
       x2="-7.2114038"
       y2="5.1108365"
       gradientUnits="userSpaceOnUse"
       gradientTransform="rotate(-99.674195)" />
    <linearGradient
       inkscape:collect="always"
       xlink:href="#linearGradient10"
       id="linearGradient9"
       gradientUnits="userSpaceOnUse"
       x1="-7.8795314"
       y1="4.9720626"
       x2="-11.996408"
       y2="4.3200135"
       gradientTransform="rotate(-99.674195)" />
  </defs>
  <g
     inkscape:label="Layer 1"
     inkscape:groupmode="layer"
     id="layer1">
    <g
       id="g6"
       style="fill:#373a3a;fill-opacity:1;stroke-width:0.814436"
       transform="matrix(1.2278482,0,0,1.2278482,1.3386072,1.3386072)">
      <circle
         style="fill:#373a3a;fill-opacity:1;stroke:none;stroke-width:0.0814432;stroke-linejoin:round"
         id="path22"
         cx="4"
         cy="4"
         r="3.9499998" />
    </g>
    <circle
       style="fill:#2f3132;fill-opacity:1;stroke:#7a7a7a;stroke-width:0.05;stroke-linejoin:round;stroke-dasharray:none;stroke-opacity:1"
       id="path1"
       cx="6.25"
       cy="6.25"
       r="4.5500002" />
    <path
       style="opacity:0.5;fill:#141314;fill-opacity:1;stroke-width:0.0999982;stroke-linejoin:round"
       id="path2"
       sodipodi:type="arc"
       sodipodi:cx="6.25"
       sodipodi:cy="6.371521"
       sodipodi:rx="4.5750003"
       sodipodi:ry="4.0537977"
       sodipodi:start="5.5847424"
       sodipodi:end="0.52211013"
       sodipodi:arc-type="slice"
       d="M 9.7537382,3.7648238 A 4.5750003,4.0537977 0 0 1 10.215467,8.3931914 L 6.25,6.371521 Z" />
    <path
       style="opacity:0.5;fill:#121214;fill-opacity:1;stroke-width:0.099999;stroke-linejoin:round"
       id="path3"
       transform="scale(-1,1)"
       d="m -2.6001729,3.9567498 a 4.5500002,3.8405859 0 0 1 0.293971,4.2085897 L -6.25,6.25 Z"
       sodipodi:type="arc"
       sodipodi:arc-type="slice"
       sodipodi:start="5.6432925"
       sodipodi:end="0.52211013"
       sodipodi:ry="3.8405859"
       sodipodi:rx="4.5500002"
       sodipodi:cy="6.25"
       sodipodi:cx="-6.25" />
    <path
       style="opacity:0.0738739;fill:#e1e1e0;fill-opacity:1;stroke-width:0.0999842;stroke-linejoin:round"
       id="path5"
       sodipodi:type="arc"
       sodipodi:cx="-8.2948265"
       sodipodi:cy="-3.3014441"
       sodipodi:rx="4.5501599"
       sodipodi:ry="4.0571232"
       sodipodi:start="6.1137037"
       sodipodi:end="0.26630166"
       sodipodi:arc-type="slice"
       d="m -3.8098597,-3.9857647 a 4.5501599,4.0571232 0 0 1 -0.095197,1.7520146 l -4.3897703,-1.067694 z"
       transform="matrix(-0.39196749,-0.91997907,-0.90829873,0.41832214,0,0)" />
    <path
       style="opacity:0.078;fill:#e1e1e0;fill-opacity:1;stroke-width:0.0999901;stroke-linejoin:round"
       id="path6"
       sodipodi:type="arc"
       sodipodi:cx="8.3018236"
       sodipodi:cy="3.3171108"
       sodipodi:rx="4.5500007"
       sodipodi:ry="4.0429111"
       sodipodi:start="6.1137037"
       sodipodi:end="0.26630166"
       sodipodi:arc-type="slice"
       d="M 12.786633,2.6351873 A 4.5500007,4.0429111 0 0 1 12.69144,4.3810645 L 8.3018236,3.3171108 Z"
       transform="matrix(0.39025297,0.92070767,0.90747298,-0.42011045,0,0)" />
    <path
       id="path4"
       style="font-variation-settings:normal;opacity:1;vector-effect:none;fill:#373a38;fill-opacity:1;stroke:none;stroke-width:0.05;stroke-linecap:butt;stroke-linejoin:round;stroke-miterlimit:0.1;stroke-dasharray:none;stroke-dashoffset:0;stroke-opacity:1;-inkscape-stroke:none;stop-color:#000000;stop-opacity:1"
       d="M 6.2497414,0.02480469 A 6.2249999,6.2249999 0 0 0 0.02479845,6.2497477 6.2249999,6.2249999 0 0 0 6.2497414,12.475208 6.2249999,6.2249999 0 0 0 12.475202,6.2497477 6.2249999,6.2249999 0 0 0 6.2497414,0.02480469 Z m 0,1.37510991 A 4.8499999,4.8499999 0 0 1 11.100092,6.2497477 4.8499999,4.8499999 0 0 1 6.2497414,11.100098 4.8499999,4.8499999 0 0 1 1.3999084,6.2497477 4.8499999,4.8499999 0 0 1 6.2497414,1.3999146 Z" />
    <path
       id="path7"
       style="opacity:0.420472;fill:url(#linearGradient8);fill-opacity:1;stroke-width:0.0499999;stroke-linejoin:round;stroke-miterlimit:0.1;-inkscape-stroke:none"
       d="M 6.0285616,12.496058 A 6.2249999,6.2249999 0 0 1 3.1486336,11.672336 6.2249999,6.2249999 0 0 1 0.03099459,6.0003307 l 1.38234401,0.060978 a 4.8499999,4.8499999 0 0 0 -0.01343,0.1891358 4.8499999,4.8499999 0 0 0 4.849833,4.8498335 4.8499999,4.8499999 0 0 0 4.8503494,-4.8498335 4.8499999,4.8499999 0 0 0 -0.03101,-0.432015 L 12.447292,5.6876881 A 6.2249999,6.2249999 0 0 1 9.6190398,11.509555 6.2249999,6.2249999 0 0 1 6.0285616,12.496058 Z" />
    <path
       id="path9"
       style="opacity:0.535433;fill:url(#linearGradient9);fill-opacity:1;stroke-width:0.0499999;stroke-linejoin:round;stroke-miterlimit:0.1;-inkscape-stroke:none"
       d="m 12.458473,5.6872923 -1.378211,0.130742 c 0.01315,-0.143805 -2.77e-4,0.144405 0,0 C 10.795574,3.2024867 8.8975781,1.6843878 6.2609291,1.3996988 c -2.668102,0.190013 -4.393453,1.6464961 -4.836409,4.2196365 0.0033,0.06295 -0.0057,0.378798 0,0.441578 l -1.38234395,-0.06098 c -0.031,-1.714401 1.04829795,-3.9957395 3.11764995,-5.17229448 2.017687,-1.159415 4.513572,-1.096624 6.470406,0.162781 C 11.58707,2.2498478 11.852172,3.5121245 12.458473,5.6872903 Z"
       sodipodi:nodetypes="cccccccccc" />
  </g>
</svg>
