<?xml version="1.0" encoding="UTF-8" standalone="no"?>
<!-- Created with Inkscape (http://www.inkscape.org/) -->

<svg
   width="4.4000001mm"
   height="6.1999998mm"
   viewBox="0 0 4.4000001 6.1999998"
   version="1.1"
   id="svg1"
   inkscape:version="1.4 (e7c3feb1, 2024-10-09)"
   sodipodi:docname="ZoxSliderHandle.svg"
   xmlns:inkscape="http://www.inkscape.org/namespaces/inkscape"
   xmlns:sodipodi="http://sodipodi.sourceforge.net/DTD/sodipodi-0.dtd"
   xmlns:xlink="http://www.w3.org/1999/xlink"
   xmlns="http://www.w3.org/2000/svg"
   xmlns:svg="http://www.w3.org/2000/svg">
  <sodipodi:namedview
     id="namedview1"
     pagecolor="#ffffff"
     bordercolor="#666666"
     borderopacity="1.0"
     inkscape:showpageshadow="2"
     inkscape:pageopacity="0.0"
     inkscape:pagecheckerboard="0"
     inkscape:deskcolor="#d1d1d1"
     inkscape:document-units="mm"
     inkscape:zoom="24.331428"
     inkscape:cx="6.5142088"
     inkscape:cy="11.939291"
     inkscape:window-width="1344"
     inkscape:window-height="786"
     inkscape:window-x="111"
     inkscape:window-y="48"
     inkscape:window-maximized="0"
     inkscape:current-layer="layer1" />
  <defs
     id="defs1">
    <linearGradient
       id="linearGradient3"
       inkscape:collect="always">
      <stop
         style="stop-color:#e6e1da;stop-opacity:1;"
         offset="0"
         id="stop3" />
      <stop
         style="stop-color:#bdb6ad;stop-opacity:1;"
         offset="1"
         id="stop4" />
    </linearGradient>
    <linearGradient
       inkscape:collect="always"
       xlink:href="#linearGradient3"
       id="linearGradient4"
       x1="2.2384832"
       y1="2.1346285"
       x2="2.2743101"
       y2="4.8617725"
       gradientUnits="userSpaceOnUse" />
  </defs>
  <g
     inkscape:label="Layer 1"
     inkscape:groupmode="layer"
     id="layer1">
    <rect
       style="fill:url(#linearGradient4);fill-opacity:1;stroke:none;stroke-width:0.1;stroke-miterlimit:1;-inkscape-stroke:none"
       id="rect1"
       width="4.4000001"
       height="6.1999998"
       x="4.3422056e-16"
       y="-1.9666808e-16"
       rx="0.30000001"
       ry="1" />
    <path
       id="rect4"
       style="opacity:0.235562;fill:#a8a29a;fill-opacity:1;stroke:none;stroke-width:0.0999996;stroke-miterlimit:1;-inkscape-stroke:none"
       d="M 0.25735639,0 C 0.13533089,0.12706059 0,0.506789 0,0.95754351 V 5.168559 c 0,0.4513331 0.0885706,0.830969 0.2108398,0.9575435 0.0215206,-0.1384389 0.03514,-0.2937826 0.03514,-0.4611546 V 0.46581798 C 0.2459798,0.29656143 0.27933229,0.13956162 0.25735639,0 Z"
       sodipodi:nodetypes="csscssc" />
    <path
       id="path6"
       style="opacity:0.49691992;fill:#ddd8d1;fill-opacity:1;stroke:none;stroke-width:0.1;stroke-miterlimit:1;-inkscape-stroke:none"
       d="M 4.189677,0.04514763 C 4.3117025,0.17186811 4.4000001,0.5505801 4.4000001,1.0001281 v 4.1997437 c 0,0.450125 -0.088571,0.8287446 -0.2108398,0.9549804 C 4.1676393,6.0167838 4.1540203,5.861856 4.1540203,5.694932 V 0.50971875 c 0,-0.1688035 0.013681,-0.32538307 0.035657,-0.46457112 z" />
    <path
       id="path7"
       style="opacity:0.94045175;fill:#f5f2eb;fill-opacity:1;stroke:none;stroke-width:0.1;stroke-miterlimit:1;-inkscape-stroke:none"
       d="M 0.30011605,0 C 0.24279735,0 0.18980035,0.0545116 0.14456995,0.1472778 H 4.1742986 c 0.027077,0 0.052595,-0.002917 0.077514,-0.007235 C 4.2073236,0.0514733 4.1557796,0 4.0998836,0 Z" />
    <path
       id="rect3"
       style="fill:#f7f3ed;fill-opacity:1;stroke:none;stroke-width:0.1;stroke-miterlimit:1;-inkscape-stroke:none;opacity:0.79671458"
       d="M 0.30011605,0 C 0.21282345,0 0.13521595,0.12484784 0.08049115,0.32194418 H 4.3195089 C 4.264784,0.12484784 4.1871766,0 4.099884,0 Z" />
    <path
       id="path3"
       style="opacity:0.7926078;fill:#847d74;fill-opacity:1;stroke:none;stroke-width:0.1;stroke-miterlimit:1;-inkscape-stroke:none"
       d="m 4.2766542,6.0129311 c -0.0068,2.959e-4 -0.013232,0.00103 -0.020153,0.00103 H 0.12910416 c 0.0488332,0.1169073 0.1085793,0.1860387 0.1736328,0.1860387 H 4.1025052 c 0.065261,0 0.125229,-0.069488 0.174149,-0.1870687 z" />
    <path
       id="path8"
       style="opacity:0.84394251;fill:#818173;fill-opacity:1;stroke:none;stroke-width:0.1;stroke-miterlimit:1;-inkscape-stroke:none"
       d="m 0.19008236,6.1261028 c 0.0347192,0.047423 0.0726041,0.073897 0.1126546,0.073897 H 4.1025051 c 0.040006,0 0.078469,-0.026599 0.113171,-0.073897 z" />
    <rect
       style="opacity:0.01026694;fill:#818173;fill-opacity:1;stroke:none;stroke-width:0.1;stroke-miterlimit:1;-inkscape-stroke:none"
       id="rect8"
       width="4.4000001"
       height="1.86"
       x="0"
       y="2.1699998"
       ry="1.3877788e-16"
       rx="1.3877788e-16" />
    <rect
       style="fill:#b7b0a6;fill-opacity:1;stroke:none;stroke-width:0.0999998;stroke-miterlimit:1;-inkscape-stroke:none;opacity:0.95"
       id="rect11"
       width="3.5999999"
       height="0.16"
       x="0.40000007"
       y="3.1399999"
       ry="1.3877788e-16"
       rx="1.3877788e-16" />
    <rect
       style="opacity:0.451745;fill:#eae5de;fill-opacity:1;stroke:none;stroke-width:0.0999998;stroke-miterlimit:1;-inkscape-stroke:none"
       id="rect12"
       width="3.5999999"
       height="0.059999999"
       x="0.40000007"
       y="3.0697916"
       ry="1.3877786e-16"
       rx="1.3877788e-16" />
    <rect
       style="fill:#bdb6ad;fill-opacity:1;stroke:none;stroke-width:0.0999998;stroke-miterlimit:1;-inkscape-stroke:none;opacity:0.9"
       id="rect13"
       width="3.5999999"
       height="0.16"
       x="0.40000007"
       y="2.0099998"
       ry="1.3877788e-16"
       rx="1.3877788e-16" />
    <rect
       style="opacity:0.451745;fill:#eae5de;fill-opacity:1;stroke:none;stroke-width:0.0999998;stroke-miterlimit:1;-inkscape-stroke:none"
       id="rect14"
       width="3.5999999"
       height="0.059999999"
       x="0.40000007"
       y="1.9397913"
       ry="1.3877786e-16"
       rx="1.3877788e-16" />
    <rect
       style="fill:#bdb6ad;fill-opacity:1;stroke:none;stroke-width:0.0999998;stroke-miterlimit:1;-inkscape-stroke:none;opacity:0.85"
       id="rect15"
       width="3.5999999"
       height="0.16"
       x="0.40000007"
       y="0.87999976"
       ry="1.3877788e-16"
       rx="1.3877788e-16" />
    <rect
       style="opacity:0.451745;fill:#eae5de;fill-opacity:1;stroke:none;stroke-width:0.0999998;stroke-miterlimit:1;-inkscape-stroke:none"
       id="rect16"
       width="3.5999999"
       height="0.059999999"
       x="0.40000007"
       y="0.80979133"
       ry="1.3877786e-16"
       rx="1.3877788e-16" />
    <rect
       style="fill:#b2aba1;fill-opacity:1;stroke:none;stroke-width:0.0999998;stroke-miterlimit:1;-inkscape-stroke:none"
       id="rect17"
       width="3.5999999"
       height="0.16"
       x="0.40000007"
       y="5.4000001"
       ry="1.3877788e-16"
       rx="1.3877788e-16" />
    <rect
       style="opacity:0.451745;fill:#eae5de;fill-opacity:1;stroke:none;stroke-width:0.0999998;stroke-miterlimit:1;-inkscape-stroke:none"
       id="rect18"
       width="3.5999999"
       height="0.059999999"
       x="0.40000007"
       y="5.3297915"
       ry="1.3877786e-16"
       rx="1.3877788e-16" />
    <rect
       style="fill:#b2aba1;fill-opacity:1;stroke:none;stroke-width:0.0999998;stroke-miterlimit:1;-inkscape-stroke:none;opacity:0.95"
       id="rect19"
       width="3.5999999"
       height="0.16"
       x="0.40000007"
       y="4.27"
       ry="1.3877788e-16"
       rx="1.3877788e-16" />
    <rect
       style="opacity:0.451745;fill:#eae5de;fill-opacity:1;stroke:none;stroke-width:0.0999998;stroke-miterlimit:1;-inkscape-stroke:none"
       id="rect20"
       width="3.5999999"
       height="0.059999999"
       x="0.40000007"
       y="4.1997919"
       ry="1.3877786e-16"
       rx="1.3877788e-16" />
    <rect
       style="opacity:1;fill:#5f5951;fill-opacity:1;stroke:none;stroke-width:0.1;stroke-miterlimit:1;-inkscape-stroke:none"
       id="rect9"
       width="4"
       height="0.25"
       x="0.20000005"
       y="3"
       ry="1.3877788e-16"
       rx="1.3877788e-16" />
    <rect
       style="opacity:0.67967146;fill:#f6f2ec;fill-opacity:1;stroke:none;stroke-width:0.0999997;stroke-miterlimit:1;-inkscape-stroke:none"
       id="rect10"
       width="4"
       height="0.1"
       x="0.25"
       y="2.95"
       ry="1.3877788e-16"
       rx="1.3877788e-16" />
    <path
       id="rect22"
       style="opacity:0.025;fill:#c30000;fill-opacity:1;stroke:none;stroke-width:0.1;stroke-miterlimit:1;-inkscape-stroke:none"
       d="m 0.30011604,0 c -0.1662,0 -0.30024010232,0.44593896 -0.30024010232,0.99993896 V 3.1016195 H 4.4001242 V 0.99993896 C 4.4001242,0.44593896 4.2660841,0 4.0998841,0 Z" />
  </g>
</svg>
