G04 #@! TF.GenerationSoftware,KiCad,Pcbnew,7.0.11*
G04 #@! TF.CreationDate,2025-11-18T22:53:00-08:00*
G04 #@! TF.ProjectId,z2203,7a323230-332e-46b6-9963-61645f706362,rev?*
G04 #@! TF.SameCoordinates,PX3d83120PY6590fa0*
G04 #@! TF.FileFunction,Soldermask,Top*
G04 #@! TF.FilePolarity,Negative*
%FSLAX46Y46*%
G04 Gerber Fmt 4.6, Leading zero omitted, Abs format (unit mm)*
G04 Created by KiCad (PCBNEW 7.0.11) date 2025-11-18 22:53:00*
%MOMM*%
%LPD*%
G01*
G04 APERTURE LIST*
G04 Aperture macros list*
%AMRoundRect*
0 Rectangle with rounded corners*
0 $1 Rounding radius*
0 $2 $3 $4 $5 $6 $7 $8 $9 X,Y pos of 4 corners*
0 Add a 4 corners polygon primitive as box body*
4,1,4,$2,$3,$4,$5,$6,$7,$8,$9,$2,$3,0*
0 Add four circle primitives for the rounded corners*
1,1,$1+$1,$2,$3*
1,1,$1+$1,$4,$5*
1,1,$1+$1,$6,$7*
1,1,$1+$1,$8,$9*
0 Add four rect primitives between the rounded corners*
20,1,$1+$1,$2,$3,$4,$5,0*
20,1,$1+$1,$4,$5,$6,$7,0*
20,1,$1+$1,$6,$7,$8,$9,0*
20,1,$1+$1,$8,$9,$2,$3,0*%
%AMHorizOval*
0 Thick line with rounded ends*
0 $1 width*
0 $2 $3 position (X,Y) of the first rounded end (center of the circle)*
0 $4 $5 position (X,Y) of the second rounded end (center of the circle)*
0 Add line between two ends*
20,1,$1,$2,$3,$4,$5,0*
0 Add two circle primitives to create the rounded ends*
1,1,$1,$2,$3*
1,1,$1,$4,$5*%
G04 Aperture macros list end*
%ADD10C,3.200000*%
%ADD11RoundRect,0.200000X0.200000X0.275000X-0.200000X0.275000X-0.200000X-0.275000X0.200000X-0.275000X0*%
%ADD12RoundRect,0.218750X0.218750X0.256250X-0.218750X0.256250X-0.218750X-0.256250X0.218750X-0.256250X0*%
%ADD13R,1.700000X1.700000*%
%ADD14O,1.700000X1.700000*%
%ADD15HorizOval,1.700000X0.000000X0.000000X0.000000X0.000000X0*%
%ADD16RoundRect,0.225000X0.250000X-0.225000X0.250000X0.225000X-0.250000X0.225000X-0.250000X-0.225000X0*%
%ADD17RoundRect,0.150000X-0.150000X0.825000X-0.150000X-0.825000X0.150000X-0.825000X0.150000X0.825000X0*%
%ADD18R,2.000000X2.000000*%
%ADD19RoundRect,0.200000X-0.200000X-0.275000X0.200000X-0.275000X0.200000X0.275000X-0.200000X0.275000X0*%
%ADD20RoundRect,0.100000X0.100000X-0.637500X0.100000X0.637500X-0.100000X0.637500X-0.100000X-0.637500X0*%
%ADD21RoundRect,0.225000X-0.250000X0.225000X-0.250000X-0.225000X0.250000X-0.225000X0.250000X0.225000X0*%
%ADD22RoundRect,0.100000X-0.637500X-0.100000X0.637500X-0.100000X0.637500X0.100000X-0.637500X0.100000X0*%
%ADD23RoundRect,0.225000X0.225000X0.250000X-0.225000X0.250000X-0.225000X-0.250000X0.225000X-0.250000X0*%
%ADD24RoundRect,0.250000X0.475000X-0.250000X0.475000X0.250000X-0.475000X0.250000X-0.475000X-0.250000X0*%
%ADD25RoundRect,0.100000X-0.100000X0.637500X-0.100000X-0.637500X0.100000X-0.637500X0.100000X0.637500X0*%
%ADD26R,1.300000X1.100000*%
%ADD27RoundRect,0.225000X-0.225000X-0.250000X0.225000X-0.250000X0.225000X0.250000X-0.225000X0.250000X0*%
%ADD28RoundRect,0.218750X-0.256250X0.218750X-0.256250X-0.218750X0.256250X-0.218750X0.256250X0.218750X0*%
%ADD29RoundRect,0.200000X-0.275000X0.200000X-0.275000X-0.200000X0.275000X-0.200000X0.275000X0.200000X0*%
%ADD30R,1.600000X1.600000*%
%ADD31O,1.600000X1.600000*%
%ADD32RoundRect,0.150000X0.150000X-0.825000X0.150000X0.825000X-0.150000X0.825000X-0.150000X-0.825000X0*%
%ADD33HorizOval,1.600000X0.000000X0.000000X0.000000X0.000000X0*%
G04 #@! TA.AperFunction,Profile*
%ADD34C,0.150000*%
G04 #@! TD*
G04 #@! TA.AperFunction,Profile*
%ADD35C,0.050000*%
G04 #@! TD*
G04 APERTURE END LIST*
D10*
X76500000Y5900000D03*
X76300000Y77300000D03*
X5500000Y5900000D03*
X5500000Y77300000D03*
D11*
X24975000Y78785000D03*
X23325000Y78785000D03*
D12*
X21475000Y78785000D03*
X19900000Y78785000D03*
D13*
X64860000Y13300000D03*
D14*
X64860000Y10760000D03*
X62320000Y13300000D03*
D15*
X62320000Y10760000D03*
D14*
X59780000Y13300000D03*
X59780000Y10760000D03*
X57240000Y13300000D03*
D15*
X57240000Y10760000D03*
D14*
X54700000Y13300000D03*
X54700000Y10760000D03*
X52160000Y13300000D03*
D15*
X52160000Y10760000D03*
D14*
X49620000Y13300000D03*
X49620000Y10760000D03*
X47080000Y13300000D03*
D15*
X47080000Y10760000D03*
D14*
X44540000Y13300000D03*
D15*
X44540000Y10760000D03*
D14*
X42000000Y13300000D03*
D15*
X42000000Y10760000D03*
D14*
X39460000Y13300000D03*
X39460000Y10760000D03*
X36920000Y13300000D03*
D15*
X36920000Y10760000D03*
D14*
X34380000Y13300000D03*
X34380000Y10760000D03*
X31840000Y13300000D03*
D15*
X31840000Y10760000D03*
D14*
X29300000Y13300000D03*
X29300000Y10760000D03*
X26760000Y13300000D03*
D15*
X26760000Y10760000D03*
D14*
X24220000Y13300000D03*
X24220000Y10760000D03*
X21680000Y13300000D03*
D15*
X21680000Y10760000D03*
D14*
X19140000Y13300000D03*
D15*
X19140000Y10760000D03*
D14*
X16600000Y13300000D03*
X16600000Y10760000D03*
D16*
X61100000Y20325000D03*
X61100000Y21875000D03*
D17*
X61005000Y30375000D03*
X59735000Y30375000D03*
X58465000Y30375000D03*
X57195000Y30375000D03*
X57195000Y25425000D03*
X58465000Y25425000D03*
X59735000Y25425000D03*
X61005000Y25425000D03*
D18*
X56700000Y54700000D03*
X66300000Y58100000D03*
X4700000Y47500000D03*
X72322500Y55650000D03*
D13*
X78500000Y23175000D03*
D14*
X78500000Y20635000D03*
D18*
X67300000Y68900000D03*
D11*
X10125000Y28475000D03*
X8475000Y28475000D03*
D19*
X77472500Y33700000D03*
X79122500Y33700000D03*
D20*
X9950000Y30712500D03*
X10600000Y30712500D03*
X11250000Y30712500D03*
X11900000Y30712500D03*
X12550000Y30712500D03*
X13200000Y30712500D03*
X13850000Y30712500D03*
X13850000Y36437500D03*
X13200000Y36437500D03*
X12550000Y36437500D03*
X11900000Y36437500D03*
X11250000Y36437500D03*
X10600000Y36437500D03*
X9950000Y36437500D03*
D21*
X12100000Y40450000D03*
X12100000Y38900000D03*
D22*
X69837500Y65175000D03*
X69837500Y64525000D03*
X69837500Y63875000D03*
X69837500Y63225000D03*
X69837500Y62575000D03*
X69837500Y61925000D03*
X69837500Y61275000D03*
X69837500Y60625000D03*
X75562500Y60625000D03*
X75562500Y61275000D03*
X75562500Y61925000D03*
X75562500Y62575000D03*
X75562500Y63225000D03*
X75562500Y63875000D03*
X75562500Y64525000D03*
X75562500Y65175000D03*
D11*
X10125000Y26475000D03*
X8475000Y26475000D03*
D18*
X74622500Y41350000D03*
D11*
X16525000Y26500000D03*
X14875000Y26500000D03*
D23*
X28680000Y51880000D03*
X27130000Y51880000D03*
D18*
X63900000Y36500000D03*
D24*
X14500000Y38925000D03*
X14500000Y40825000D03*
D18*
X73300000Y26750000D03*
D25*
X74597500Y38312500D03*
X73947500Y38312500D03*
X73297500Y38312500D03*
X72647500Y38312500D03*
X71997500Y38312500D03*
X71347500Y38312500D03*
X70697500Y38312500D03*
X70047500Y38312500D03*
X70047500Y32587500D03*
X70697500Y32587500D03*
X71347500Y32587500D03*
X71997500Y32587500D03*
X72647500Y32587500D03*
X73297500Y32587500D03*
X73947500Y32587500D03*
X74597500Y32587500D03*
D26*
X54650000Y49875000D03*
X56750000Y49875000D03*
X56750000Y51525000D03*
X54650000Y51525000D03*
D27*
X66685000Y54100000D03*
X68235000Y54100000D03*
D28*
X79122500Y38037500D03*
X79122500Y36462500D03*
D18*
X70500000Y42100000D03*
D19*
X8650000Y40675000D03*
X10300000Y40675000D03*
D29*
X6900000Y34500000D03*
X6900000Y32850000D03*
D16*
X12100000Y26900000D03*
X12100000Y28450000D03*
D30*
X27000000Y49550000D03*
D31*
X24460000Y49550000D03*
X21920000Y49550000D03*
X19380000Y49550000D03*
X19380000Y41930000D03*
X21920000Y41930000D03*
X24460000Y41930000D03*
X27000000Y41930000D03*
D27*
X50325000Y51500000D03*
X51875000Y51500000D03*
D32*
X68490000Y46425000D03*
X69760000Y46425000D03*
X71030000Y46425000D03*
X72300000Y46425000D03*
X73570000Y46425000D03*
X74840000Y46425000D03*
X76110000Y46425000D03*
X76110000Y51375000D03*
X74840000Y51375000D03*
X73570000Y51375000D03*
X72300000Y51375000D03*
X71030000Y51375000D03*
X69760000Y51375000D03*
X68490000Y51375000D03*
D23*
X76322500Y30187500D03*
X74772500Y30187500D03*
D19*
X8650000Y42675000D03*
X10300000Y42675000D03*
X8650000Y44675000D03*
X10300000Y44675000D03*
X76875000Y27500000D03*
X78525000Y27500000D03*
D13*
X67900000Y77900000D03*
D27*
X11925000Y55300000D03*
X13475000Y55300000D03*
D11*
X10275000Y38875000D03*
X8625000Y38875000D03*
D21*
X77650000Y67025000D03*
X77650000Y65475000D03*
D18*
X76122500Y55650000D03*
D30*
X61825000Y73475000D03*
D31*
X59285000Y73475000D03*
X56745000Y73475000D03*
X54205000Y73475000D03*
X51665000Y73475000D03*
X49125000Y73475000D03*
X46585000Y73475000D03*
X44045000Y73475000D03*
X41505000Y73475000D03*
X38965000Y73475000D03*
X36425000Y73475000D03*
X33885000Y73475000D03*
X31345000Y73475000D03*
X28805000Y73475000D03*
X26265000Y73475000D03*
X23725000Y73475000D03*
X21185000Y73475000D03*
X18645000Y73475000D03*
X16105000Y73475000D03*
X13565000Y73475000D03*
X13565000Y58235000D03*
X16105000Y58235000D03*
X18645000Y58235000D03*
X21185000Y58235000D03*
X23725000Y58235000D03*
X26265000Y58235000D03*
X28805000Y58235000D03*
X31345000Y58235000D03*
X33885000Y58235000D03*
X36425000Y58235000D03*
X38965000Y58235000D03*
X41505000Y58235000D03*
X44045000Y58235000D03*
X46585000Y58235000D03*
D33*
X49125000Y58235000D03*
D31*
X51665000Y58235000D03*
X54205000Y58235000D03*
X56745000Y58235000D03*
X59285000Y58235000D03*
X61825000Y58235000D03*
D34*
X900000Y7100000D02*
G75*
G03*
X6400000Y1600000I5500000J0D01*
G01*
X75900000Y1600000D02*
G75*
G03*
X80900000Y6600000I0J5000000D01*
G01*
X75900000Y1600000D02*
X6400000Y1600000D01*
X5900000Y81600000D02*
G75*
G03*
X900000Y76600000I0J-5000000D01*
G01*
X80900000Y76100000D02*
G75*
G03*
X75400000Y81600000I-5500000J0D01*
G01*
X5900000Y81600000D02*
X75400000Y81600000D01*
X80900000Y6600000D02*
X80900000Y76100000D01*
X900000Y76600000D02*
X900000Y7100000D01*
D35*
X10676000Y3100000D02*
G75*
G03*
X9524000Y3100000I-576000J0D01*
G01*
X9524000Y3100000D02*
G75*
G03*
X10676000Y3100000I576000J0D01*
G01*
X73276000Y80100000D02*
G75*
G03*
X72124000Y80100000I-576000J0D01*
G01*
X72124000Y80100000D02*
G75*
G03*
X73276000Y80100000I576000J0D01*
G01*
X73276000Y3100000D02*
G75*
G03*
X72124000Y3100000I-576000J0D01*
G01*
X72124000Y3100000D02*
G75*
G03*
X73276000Y3100000I576000J0D01*
G01*
M02*
