G04 #@! TF.GenerationSoftware,KiCad,Pcbnew,7.0.11*
G04 #@! TF.CreationDate,2025-11-18T22:53:01-08:00*
G04 #@! TF.ProjectId,z2203,7a323230-332e-46b6-9963-61645f706362,rev?*
G04 #@! TF.SameCoordinates,PX3d83120PY6590fa0*
G04 #@! TF.FileFunction,Soldermask,Bot*
G04 #@! TF.FilePolarity,Negative*
%FSLAX46Y46*%
G04 Gerber Fmt 4.6, Leading zero omitted, Abs format (unit mm)*
G04 Created by KiCad (PCBNEW 7.0.11) date 2025-11-18 22:53:01*
%MOMM*%
%LPD*%
G01*
G04 APERTURE LIST*
G04 Aperture macros list*
%AMHorizOval*
0 Thick line with rounded ends*
0 $1 width*
0 $2 $3 position (X,Y) of the first rounded end (center of the circle)*
0 $4 $5 position (X,Y) of the second rounded end (center of the circle)*
0 Add line between two ends*
20,1,$1,$2,$3,$4,$5,0*
0 Add two circle primitives to create the rounded ends*
1,1,$1,$2,$3*
1,1,$1,$4,$5*%
G04 Aperture macros list end*
%ADD10C,3.200000*%
%ADD11R,1.700000X1.700000*%
%ADD12O,1.700000X1.700000*%
%ADD13HorizOval,1.700000X0.000000X0.000000X0.000000X0.000000X0*%
%ADD14R,1.600000X1.600000*%
%ADD15O,1.600000X1.600000*%
%ADD16HorizOval,1.600000X0.000000X0.000000X0.000000X0.000000X0*%
G04 #@! TA.AperFunction,Profile*
%ADD17C,0.150000*%
G04 #@! TD*
G04 #@! TA.AperFunction,Profile*
%ADD18C,0.050000*%
G04 #@! TD*
G04 APERTURE END LIST*
D10*
X76500000Y5900000D03*
X76300000Y77300000D03*
X5500000Y5900000D03*
X5500000Y77300000D03*
D11*
X64860000Y13300000D03*
D12*
X64860000Y10760000D03*
X62320000Y13300000D03*
D13*
X62320000Y10760000D03*
D12*
X59780000Y13300000D03*
X59780000Y10760000D03*
X57240000Y13300000D03*
D13*
X57240000Y10760000D03*
D12*
X54700000Y13300000D03*
X54700000Y10760000D03*
X52160000Y13300000D03*
D13*
X52160000Y10760000D03*
D12*
X49620000Y13300000D03*
X49620000Y10760000D03*
X47080000Y13300000D03*
D13*
X47080000Y10760000D03*
D12*
X44540000Y13300000D03*
D13*
X44540000Y10760000D03*
D12*
X42000000Y13300000D03*
D13*
X42000000Y10760000D03*
D12*
X39460000Y13300000D03*
X39460000Y10760000D03*
X36920000Y13300000D03*
D13*
X36920000Y10760000D03*
D12*
X34380000Y13300000D03*
X34380000Y10760000D03*
X31840000Y13300000D03*
D13*
X31840000Y10760000D03*
D12*
X29300000Y13300000D03*
X29300000Y10760000D03*
X26760000Y13300000D03*
D13*
X26760000Y10760000D03*
D12*
X24220000Y13300000D03*
X24220000Y10760000D03*
X21680000Y13300000D03*
D13*
X21680000Y10760000D03*
D12*
X19140000Y13300000D03*
D13*
X19140000Y10760000D03*
D12*
X16600000Y13300000D03*
X16600000Y10760000D03*
D11*
X78500000Y23175000D03*
D12*
X78500000Y20635000D03*
D14*
X27000000Y49550000D03*
D15*
X24460000Y49550000D03*
X21920000Y49550000D03*
X19380000Y49550000D03*
X19380000Y41930000D03*
X21920000Y41930000D03*
X24460000Y41930000D03*
X27000000Y41930000D03*
D11*
X67900000Y77900000D03*
D14*
X61825000Y73475000D03*
D15*
X59285000Y73475000D03*
X56745000Y73475000D03*
X54205000Y73475000D03*
X51665000Y73475000D03*
X49125000Y73475000D03*
X46585000Y73475000D03*
X44045000Y73475000D03*
X41505000Y73475000D03*
X38965000Y73475000D03*
X36425000Y73475000D03*
X33885000Y73475000D03*
X31345000Y73475000D03*
X28805000Y73475000D03*
X26265000Y73475000D03*
X23725000Y73475000D03*
X21185000Y73475000D03*
X18645000Y73475000D03*
X16105000Y73475000D03*
X13565000Y73475000D03*
X13565000Y58235000D03*
X16105000Y58235000D03*
X18645000Y58235000D03*
X21185000Y58235000D03*
X23725000Y58235000D03*
X26265000Y58235000D03*
X28805000Y58235000D03*
X31345000Y58235000D03*
X33885000Y58235000D03*
X36425000Y58235000D03*
X38965000Y58235000D03*
X41505000Y58235000D03*
X44045000Y58235000D03*
X46585000Y58235000D03*
D16*
X49125000Y58235000D03*
D15*
X51665000Y58235000D03*
X54205000Y58235000D03*
X56745000Y58235000D03*
X59285000Y58235000D03*
X61825000Y58235000D03*
D17*
X900000Y7100000D02*
G75*
G03*
X6400000Y1600000I5500000J0D01*
G01*
X75900000Y1600000D02*
G75*
G03*
X80900000Y6600000I0J5000000D01*
G01*
X75900000Y1600000D02*
X6400000Y1600000D01*
X5900000Y81600000D02*
G75*
G03*
X900000Y76600000I0J-5000000D01*
G01*
X80900000Y76100000D02*
G75*
G03*
X75400000Y81600000I-5500000J0D01*
G01*
X5900000Y81600000D02*
X75400000Y81600000D01*
X80900000Y6600000D02*
X80900000Y76100000D01*
X900000Y76600000D02*
X900000Y7100000D01*
D18*
X10676000Y3100000D02*
G75*
G03*
X9524000Y3100000I-576000J0D01*
G01*
X9524000Y3100000D02*
G75*
G03*
X10676000Y3100000I576000J0D01*
G01*
X73276000Y80100000D02*
G75*
G03*
X72124000Y80100000I-576000J0D01*
G01*
X72124000Y80100000D02*
G75*
G03*
X73276000Y80100000I576000J0D01*
G01*
X73276000Y3100000D02*
G75*
G03*
X72124000Y3100000I-576000J0D01*
G01*
X72124000Y3100000D02*
G75*
G03*
X73276000Y3100000I576000J0D01*
G01*
M02*
