M48
; DRILL file {KiCad 7.0.11} date Tuesday, November 18, 2025 at 10:52:37 PM
; FORMAT={-:-/ absolute / inch / decimal}
; #@! TF.CreationDate,2025-11-18T22:52:37-08:00
; #@! TF.GenerationSoftware,Kicad,Pcbnew,7.0.11
; #@! TF.FileFunction,Plated,1,4,PTH
FMAT,2
INCH
; #@! TA.AperFunction,Plated,PTH,ViaDrill
T1C0.0157
; #@! TA.AperFunction,Plated,PTH,ComponentDrill
T2C0.0315
; #@! TA.AperFunction,Plated,PTH,ComponentDrill
T3C0.0394
%
G90
G05
T1
X0.2323Y1.9803
X0.3819Y2.563
X0.437Y1.3661
X0.437Y1.2874
X0.4449Y2.4606
X0.4685Y2.122
X0.4764Y1.6417
X0.4764Y1.0118
X0.4941Y1.2717
X0.5157Y1.563
X0.5236Y1.122
X0.5709Y1.6575
X0.5866Y2.1772
X0.6969Y2.0669
X0.7888Y3.0486
X1.0669Y2.1299
X1.1772Y2.0906
X1.9803Y1.9567
X2.0039Y2.6654
X2.0433Y1.9567
X2.0984Y2.6811
X2.0984Y2.1457
X2.1929Y2.6811
X2.2087Y0.7205
X2.2323Y1.9094
X2.248Y1.2717
X2.2874Y2.689
X2.3031Y1.122
X2.3504Y0.9252
X2.3504Y0.8622
X2.3504Y0.7992
X2.3898Y2.689
X2.3976Y1.122
X2.5394Y2.6575
X2.5709Y0.626
X2.5787Y2.1772
X2.689Y2.3504
X2.689Y2.2165
X2.6969Y1.6575
X2.7441Y1.8937
X2.752Y1.9567
X2.752Y1.4528
X2.7598Y2.1063
X2.7598Y1.0906
X2.7677Y1.185
X2.7913Y1.3504
X2.8543Y1.2087
X2.8543Y0.8307
X2.8858Y2.4134
X2.9252Y2.311
X2.9409Y1.9488
X2.9409Y1.1378
X2.9488Y2.0984
X2.9961Y1.752
X3.0512Y2.4606
X3.0512Y1.1929
X3.1063Y2.6417
X3.1063Y2.5787
T2
X0.5341Y2.8927
X0.5341Y2.2927
X0.6341Y2.8927
X0.6341Y2.2927
X0.7341Y2.8927
X0.7341Y2.2927
X0.763Y1.9508
X0.763Y1.6508
X0.8341Y2.8927
X0.8341Y2.2927
X0.863Y1.9508
X0.863Y1.6508
X0.9341Y2.8927
X0.9341Y2.2927
X0.963Y1.9508
X0.963Y1.6508
X1.0341Y2.8927
X1.0341Y2.2927
X1.063Y1.9508
X1.063Y1.6508
X1.1341Y2.8927
X1.1341Y2.2927
X1.2341Y2.8927
X1.2341Y2.2927
X1.3341Y2.8927
X1.3341Y2.2927
X1.4341Y2.8927
X1.4341Y2.2927
X1.5341Y2.8927
X1.5341Y2.2927
X1.6341Y2.8927
X1.6341Y2.2927
X1.7341Y2.8927
X1.7341Y2.2927
X1.8341Y2.8927
X1.8341Y2.2927
X1.9341Y2.8927
X1.9341Y2.2927
X2.0341Y2.8927
X2.0341Y2.2927
X2.1341Y2.8927
X2.1341Y2.2927
X2.2341Y2.8927
X2.2341Y2.2927
X2.3341Y2.8927
X2.3341Y2.2927
X2.4341Y2.8927
X2.4341Y2.2927
T3
X0.6535Y0.5236
X0.6535Y0.4236
X0.7535Y0.5236
X0.7535Y0.4236
X0.8535Y0.5236
X0.8535Y0.4236
X0.9535Y0.5236
X0.9535Y0.4236
X1.0535Y0.5236
X1.0535Y0.4236
X1.1535Y0.5236
X1.1535Y0.4236
X1.2535Y0.5236
X1.2535Y0.4236
X1.3535Y0.5236
X1.3535Y0.4236
X1.4535Y0.5236
X1.4535Y0.4236
X1.5535Y0.5236
X1.5535Y0.4236
X1.6535Y0.5236
X1.6535Y0.4236
X1.7535Y0.5236
X1.7535Y0.4236
X1.8535Y0.5236
X1.8535Y0.4236
X1.9535Y0.5236
X1.9535Y0.4236
X2.0535Y0.5236
X2.0535Y0.4236
X2.1535Y0.5236
X2.1535Y0.4236
X2.2535Y0.5236
X2.2535Y0.4236
X2.3535Y0.5236
X2.3535Y0.4236
X2.4535Y0.5236
X2.4535Y0.4236
X2.5535Y0.5236
X2.5535Y0.4236
X2.6732Y3.0669
X3.0906Y0.9124
X3.0906Y0.8124
M30
