G04 #@! TF.GenerationSoftware,KiCad,Pcbnew,7.0.11*
G04 #@! TF.CreationDate,2025-11-18T22:53:00-08:00*
G04 #@! TF.ProjectId,z2203,7a323230-332e-46b6-9963-61645f706362,rev?*
G04 #@! TF.SameCoordinates,PX3d83120PY6590fa0*
G04 #@! TF.FileFunction,Legend,Top*
G04 #@! TF.FilePolarity,Positive*
%FSLAX46Y46*%
G04 Gerber Fmt 4.6, Leading zero omitted, Abs format (unit mm)*
G04 Created by KiCad (PCBNEW 7.0.11) date 2025-11-18 22:53:00*
%MOMM*%
%LPD*%
G01*
G04 APERTURE LIST*
%ADD10C,0.150000*%
%ADD11C,0.090000*%
%ADD12C,0.010000*%
%ADD13C,0.120000*%
G04 #@! TA.AperFunction,Profile*
%ADD14C,0.150000*%
G04 #@! TD*
G04 #@! TA.AperFunction,Profile*
%ADD15C,0.050000*%
G04 #@! TD*
G04 APERTURE END LIST*
D10*
X20300000Y80835000D02*
X20300000Y79735000D01*
X21000000Y80835000D02*
X21000000Y79735000D01*
X20300000Y79735000D02*
X21000000Y80335000D01*
X21000000Y79735000D02*
X21000000Y80235000D01*
X21000000Y80235000D02*
X20300000Y80835000D01*
X21500000Y80335000D02*
X19700000Y80335000D01*
X77000000Y37800000D02*
X78100000Y37800000D01*
X77000000Y37100000D02*
X78100000Y37100000D01*
X77500000Y38300000D02*
X77500000Y36500000D01*
X78100000Y37100000D02*
X77500000Y37800000D01*
X78100000Y37800000D02*
X77600000Y37800000D01*
X77600000Y37800000D02*
X77000000Y37100000D01*
D11*
X47849286Y15694320D02*
X47392144Y15694320D01*
X47620715Y15922892D02*
X47620715Y15465749D01*
X46820715Y15322892D02*
X47106429Y15322892D01*
X47106429Y15322892D02*
X47135001Y15608606D01*
X47135001Y15608606D02*
X47106429Y15580035D01*
X47106429Y15580035D02*
X47049287Y15551463D01*
X47049287Y15551463D02*
X46906429Y15551463D01*
X46906429Y15551463D02*
X46849287Y15580035D01*
X46849287Y15580035D02*
X46820715Y15608606D01*
X46820715Y15608606D02*
X46792144Y15665749D01*
X46792144Y15665749D02*
X46792144Y15808606D01*
X46792144Y15808606D02*
X46820715Y15865749D01*
X46820715Y15865749D02*
X46849287Y15894320D01*
X46849287Y15894320D02*
X46906429Y15922892D01*
X46906429Y15922892D02*
X47049287Y15922892D01*
X47049287Y15922892D02*
X47106429Y15894320D01*
X47106429Y15894320D02*
X47135001Y15865749D01*
X45620714Y15694320D02*
X45163572Y15694320D01*
X45392143Y15922892D02*
X45392143Y15465749D01*
X44563572Y15922892D02*
X44906429Y15922892D01*
X44735000Y15922892D02*
X44735000Y15322892D01*
X44735000Y15322892D02*
X44792143Y15408606D01*
X44792143Y15408606D02*
X44849286Y15465749D01*
X44849286Y15465749D02*
X44906429Y15494320D01*
X44335000Y15380035D02*
X44306428Y15351463D01*
X44306428Y15351463D02*
X44249286Y15322892D01*
X44249286Y15322892D02*
X44106428Y15322892D01*
X44106428Y15322892D02*
X44049286Y15351463D01*
X44049286Y15351463D02*
X44020714Y15380035D01*
X44020714Y15380035D02*
X43992143Y15437178D01*
X43992143Y15437178D02*
X43992143Y15494320D01*
X43992143Y15494320D02*
X44020714Y15580035D01*
X44020714Y15580035D02*
X44363571Y15922892D01*
X44363571Y15922892D02*
X43992143Y15922892D01*
X42820713Y15694320D02*
X42363571Y15694320D01*
X41763571Y15922892D02*
X42106428Y15922892D01*
X41934999Y15922892D02*
X41934999Y15322892D01*
X41934999Y15322892D02*
X41992142Y15408606D01*
X41992142Y15408606D02*
X42049285Y15465749D01*
X42049285Y15465749D02*
X42106428Y15494320D01*
X41534999Y15380035D02*
X41506427Y15351463D01*
X41506427Y15351463D02*
X41449285Y15322892D01*
X41449285Y15322892D02*
X41306427Y15322892D01*
X41306427Y15322892D02*
X41249285Y15351463D01*
X41249285Y15351463D02*
X41220713Y15380035D01*
X41220713Y15380035D02*
X41192142Y15437178D01*
X41192142Y15437178D02*
X41192142Y15494320D01*
X41192142Y15494320D02*
X41220713Y15580035D01*
X41220713Y15580035D02*
X41563570Y15922892D01*
X41563570Y15922892D02*
X41192142Y15922892D01*
D10*
X14146847Y10935715D02*
X13480180Y10935715D01*
X14527800Y11173810D02*
X13813514Y11411905D01*
X13813514Y11411905D02*
X13813514Y10792858D01*
X14480180Y10221429D02*
X14480180Y10126191D01*
X14480180Y10126191D02*
X14432561Y10030953D01*
X14432561Y10030953D02*
X14384942Y9983334D01*
X14384942Y9983334D02*
X14289704Y9935715D01*
X14289704Y9935715D02*
X14099228Y9888096D01*
X14099228Y9888096D02*
X13861133Y9888096D01*
X13861133Y9888096D02*
X13670657Y9935715D01*
X13670657Y9935715D02*
X13575419Y9983334D01*
X13575419Y9983334D02*
X13527800Y10030953D01*
X13527800Y10030953D02*
X13480180Y10126191D01*
X13480180Y10126191D02*
X13480180Y10221429D01*
X13480180Y10221429D02*
X13527800Y10316667D01*
X13527800Y10316667D02*
X13575419Y10364286D01*
X13575419Y10364286D02*
X13670657Y10411905D01*
X13670657Y10411905D02*
X13861133Y10459524D01*
X13861133Y10459524D02*
X14099228Y10459524D01*
X14099228Y10459524D02*
X14289704Y10411905D01*
X14289704Y10411905D02*
X14384942Y10364286D01*
X14384942Y10364286D02*
X14432561Y10316667D01*
X14432561Y10316667D02*
X14480180Y10221429D01*
D11*
X8234129Y57252382D02*
X8281748Y57395239D01*
X8281748Y57395239D02*
X8329367Y57442858D01*
X8329367Y57442858D02*
X8424605Y57490477D01*
X8424605Y57490477D02*
X8567462Y57490477D01*
X8567462Y57490477D02*
X8662700Y57442858D01*
X8662700Y57442858D02*
X8710320Y57395239D01*
X8710320Y57395239D02*
X8757939Y57300001D01*
X8757939Y57300001D02*
X8757939Y56919049D01*
X8757939Y56919049D02*
X7757939Y56919049D01*
X7757939Y56919049D02*
X7757939Y57252382D01*
X7757939Y57252382D02*
X7805558Y57347620D01*
X7805558Y57347620D02*
X7853177Y57395239D01*
X7853177Y57395239D02*
X7948415Y57442858D01*
X7948415Y57442858D02*
X8043653Y57442858D01*
X8043653Y57442858D02*
X8138891Y57395239D01*
X8138891Y57395239D02*
X8186510Y57347620D01*
X8186510Y57347620D02*
X8234129Y57252382D01*
X8234129Y57252382D02*
X8234129Y56919049D01*
X8234129Y57919049D02*
X8234129Y58252382D01*
X8757939Y58395239D02*
X8757939Y57919049D01*
X8757939Y57919049D02*
X7757939Y57919049D01*
X7757939Y57919049D02*
X7757939Y58395239D01*
X8281748Y59014287D02*
X8757939Y59014287D01*
X7757939Y58680954D02*
X8281748Y59014287D01*
X8281748Y59014287D02*
X7757939Y59347620D01*
X7757939Y59871430D02*
X7757939Y60061906D01*
X7757939Y60061906D02*
X7805558Y60157144D01*
X7805558Y60157144D02*
X7900796Y60252382D01*
X7900796Y60252382D02*
X8091272Y60300001D01*
X8091272Y60300001D02*
X8424605Y60300001D01*
X8424605Y60300001D02*
X8615081Y60252382D01*
X8615081Y60252382D02*
X8710320Y60157144D01*
X8710320Y60157144D02*
X8757939Y60061906D01*
X8757939Y60061906D02*
X8757939Y59871430D01*
X8757939Y59871430D02*
X8710320Y59776192D01*
X8710320Y59776192D02*
X8615081Y59680954D01*
X8615081Y59680954D02*
X8424605Y59633335D01*
X8424605Y59633335D02*
X8091272Y59633335D01*
X8091272Y59633335D02*
X7900796Y59680954D01*
X7900796Y59680954D02*
X7805558Y59776192D01*
X7805558Y59776192D02*
X7757939Y59871430D01*
X8757939Y60728573D02*
X7757939Y60728573D01*
X7757939Y60728573D02*
X8757939Y61300001D01*
X8757939Y61300001D02*
X7757939Y61300001D01*
X8757939Y61776192D02*
X7757939Y61776192D01*
X7757939Y61776192D02*
X7757939Y62014287D01*
X7757939Y62014287D02*
X7805558Y62157144D01*
X7805558Y62157144D02*
X7900796Y62252382D01*
X7900796Y62252382D02*
X7996034Y62300001D01*
X7996034Y62300001D02*
X8186510Y62347620D01*
X8186510Y62347620D02*
X8329367Y62347620D01*
X8329367Y62347620D02*
X8519843Y62300001D01*
X8519843Y62300001D02*
X8615081Y62252382D01*
X8615081Y62252382D02*
X8710320Y62157144D01*
X8710320Y62157144D02*
X8757939Y62014287D01*
X8757939Y62014287D02*
X8757939Y61776192D01*
X7757939Y63728573D02*
X7757939Y63919049D01*
X7757939Y63919049D02*
X7805558Y64014287D01*
X7805558Y64014287D02*
X7900796Y64109525D01*
X7900796Y64109525D02*
X8091272Y64157144D01*
X8091272Y64157144D02*
X8424605Y64157144D01*
X8424605Y64157144D02*
X8615081Y64109525D01*
X8615081Y64109525D02*
X8710320Y64014287D01*
X8710320Y64014287D02*
X8757939Y63919049D01*
X8757939Y63919049D02*
X8757939Y63728573D01*
X8757939Y63728573D02*
X8710320Y63633335D01*
X8710320Y63633335D02*
X8615081Y63538097D01*
X8615081Y63538097D02*
X8424605Y63490478D01*
X8424605Y63490478D02*
X8091272Y63490478D01*
X8091272Y63490478D02*
X7900796Y63538097D01*
X7900796Y63538097D02*
X7805558Y63633335D01*
X7805558Y63633335D02*
X7757939Y63728573D01*
X8234129Y64919049D02*
X8281748Y65061906D01*
X8281748Y65061906D02*
X8329367Y65109525D01*
X8329367Y65109525D02*
X8424605Y65157144D01*
X8424605Y65157144D02*
X8567462Y65157144D01*
X8567462Y65157144D02*
X8662700Y65109525D01*
X8662700Y65109525D02*
X8710320Y65061906D01*
X8710320Y65061906D02*
X8757939Y64966668D01*
X8757939Y64966668D02*
X8757939Y64585716D01*
X8757939Y64585716D02*
X7757939Y64585716D01*
X7757939Y64585716D02*
X7757939Y64919049D01*
X7757939Y64919049D02*
X7805558Y65014287D01*
X7805558Y65014287D02*
X7853177Y65061906D01*
X7853177Y65061906D02*
X7948415Y65109525D01*
X7948415Y65109525D02*
X8043653Y65109525D01*
X8043653Y65109525D02*
X8138891Y65061906D01*
X8138891Y65061906D02*
X8186510Y65014287D01*
X8186510Y65014287D02*
X8234129Y64919049D01*
X8234129Y64919049D02*
X8234129Y64585716D01*
X8757939Y65585716D02*
X7757939Y65585716D01*
X7757939Y65585716D02*
X8757939Y66157144D01*
X8757939Y66157144D02*
X7757939Y66157144D01*
X7757939Y66823811D02*
X7757939Y67014287D01*
X7757939Y67014287D02*
X7805558Y67109525D01*
X7805558Y67109525D02*
X7900796Y67204763D01*
X7900796Y67204763D02*
X8091272Y67252382D01*
X8091272Y67252382D02*
X8424605Y67252382D01*
X8424605Y67252382D02*
X8615081Y67204763D01*
X8615081Y67204763D02*
X8710320Y67109525D01*
X8710320Y67109525D02*
X8757939Y67014287D01*
X8757939Y67014287D02*
X8757939Y66823811D01*
X8757939Y66823811D02*
X8710320Y66728573D01*
X8710320Y66728573D02*
X8615081Y66633335D01*
X8615081Y66633335D02*
X8424605Y66585716D01*
X8424605Y66585716D02*
X8091272Y66585716D01*
X8091272Y66585716D02*
X7900796Y66633335D01*
X7900796Y66633335D02*
X7805558Y66728573D01*
X7805558Y66728573D02*
X7757939Y66823811D01*
X7757939Y67585716D02*
X8757939Y68252382D01*
X7757939Y68252382D02*
X8757939Y67585716D01*
X8757939Y68633335D02*
X7757939Y68633335D01*
X7757939Y69300001D02*
X7757939Y69490477D01*
X7757939Y69490477D02*
X7805558Y69585715D01*
X7805558Y69585715D02*
X7900796Y69680953D01*
X7900796Y69680953D02*
X8091272Y69728572D01*
X8091272Y69728572D02*
X8424605Y69728572D01*
X8424605Y69728572D02*
X8615081Y69680953D01*
X8615081Y69680953D02*
X8710320Y69585715D01*
X8710320Y69585715D02*
X8757939Y69490477D01*
X8757939Y69490477D02*
X8757939Y69300001D01*
X8757939Y69300001D02*
X8710320Y69204763D01*
X8710320Y69204763D02*
X8615081Y69109525D01*
X8615081Y69109525D02*
X8424605Y69061906D01*
X8424605Y69061906D02*
X8091272Y69061906D01*
X8091272Y69061906D02*
X7900796Y69109525D01*
X7900796Y69109525D02*
X7805558Y69204763D01*
X7805558Y69204763D02*
X7757939Y69300001D01*
X7757939Y70157144D02*
X8567462Y70157144D01*
X8567462Y70157144D02*
X8662700Y70204763D01*
X8662700Y70204763D02*
X8710320Y70252382D01*
X8710320Y70252382D02*
X8757939Y70347620D01*
X8757939Y70347620D02*
X8757939Y70538096D01*
X8757939Y70538096D02*
X8710320Y70633334D01*
X8710320Y70633334D02*
X8662700Y70680953D01*
X8662700Y70680953D02*
X8567462Y70728572D01*
X8567462Y70728572D02*
X7757939Y70728572D01*
X8710320Y71157144D02*
X8757939Y71300001D01*
X8757939Y71300001D02*
X8757939Y71538096D01*
X8757939Y71538096D02*
X8710320Y71633334D01*
X8710320Y71633334D02*
X8662700Y71680953D01*
X8662700Y71680953D02*
X8567462Y71728572D01*
X8567462Y71728572D02*
X8472224Y71728572D01*
X8472224Y71728572D02*
X8376986Y71680953D01*
X8376986Y71680953D02*
X8329367Y71633334D01*
X8329367Y71633334D02*
X8281748Y71538096D01*
X8281748Y71538096D02*
X8234129Y71347620D01*
X8234129Y71347620D02*
X8186510Y71252382D01*
X8186510Y71252382D02*
X8138891Y71204763D01*
X8138891Y71204763D02*
X8043653Y71157144D01*
X8043653Y71157144D02*
X7948415Y71157144D01*
X7948415Y71157144D02*
X7853177Y71204763D01*
X7853177Y71204763D02*
X7805558Y71252382D01*
X7805558Y71252382D02*
X7757939Y71347620D01*
X7757939Y71347620D02*
X7757939Y71585715D01*
X7757939Y71585715D02*
X7805558Y71728572D01*
X75572891Y18814287D02*
X76172891Y18957144D01*
X76172891Y18957144D02*
X75744320Y19071430D01*
X75744320Y19071430D02*
X76172891Y19185715D01*
X76172891Y19185715D02*
X75572891Y19328572D01*
X76172891Y19900001D02*
X75887177Y19700001D01*
X76172891Y19557144D02*
X75572891Y19557144D01*
X75572891Y19557144D02*
X75572891Y19785715D01*
X75572891Y19785715D02*
X75601462Y19842858D01*
X75601462Y19842858D02*
X75630034Y19871429D01*
X75630034Y19871429D02*
X75687177Y19900001D01*
X75687177Y19900001D02*
X75772891Y19900001D01*
X75772891Y19900001D02*
X75830034Y19871429D01*
X75830034Y19871429D02*
X75858605Y19842858D01*
X75858605Y19842858D02*
X75887177Y19785715D01*
X75887177Y19785715D02*
X75887177Y19557144D01*
X76172891Y20157144D02*
X75572891Y20157144D01*
X75572891Y20357143D02*
X75572891Y20700000D01*
X76172891Y20528572D02*
X75572891Y20528572D01*
X75858605Y20900001D02*
X75858605Y21100001D01*
X76172891Y21185715D02*
X76172891Y20900001D01*
X76172891Y20900001D02*
X75572891Y20900001D01*
X75572891Y20900001D02*
X75572891Y21185715D01*
X75858605Y21900001D02*
X75858605Y22100001D01*
X76172891Y22185715D02*
X76172891Y21900001D01*
X76172891Y21900001D02*
X75572891Y21900001D01*
X75572891Y21900001D02*
X75572891Y22185715D01*
X76172891Y22442858D02*
X75572891Y22442858D01*
X75572891Y22442858D02*
X76172891Y22785715D01*
X76172891Y22785715D02*
X75572891Y22785715D01*
X76001462Y23042857D02*
X76001462Y23328571D01*
X76172891Y22985714D02*
X75572891Y23185714D01*
X75572891Y23185714D02*
X76172891Y23385714D01*
X75858605Y23785715D02*
X75887177Y23871429D01*
X75887177Y23871429D02*
X75915748Y23900000D01*
X75915748Y23900000D02*
X75972891Y23928572D01*
X75972891Y23928572D02*
X76058605Y23928572D01*
X76058605Y23928572D02*
X76115748Y23900000D01*
X76115748Y23900000D02*
X76144320Y23871429D01*
X76144320Y23871429D02*
X76172891Y23814286D01*
X76172891Y23814286D02*
X76172891Y23585715D01*
X76172891Y23585715D02*
X75572891Y23585715D01*
X75572891Y23585715D02*
X75572891Y23785715D01*
X75572891Y23785715D02*
X75601462Y23842857D01*
X75601462Y23842857D02*
X75630034Y23871429D01*
X75630034Y23871429D02*
X75687177Y23900000D01*
X75687177Y23900000D02*
X75744320Y23900000D01*
X75744320Y23900000D02*
X75801462Y23871429D01*
X75801462Y23871429D02*
X75830034Y23842857D01*
X75830034Y23842857D02*
X75858605Y23785715D01*
X75858605Y23785715D02*
X75858605Y23585715D01*
X76172891Y24471429D02*
X76172891Y24185715D01*
X76172891Y24185715D02*
X75572891Y24185715D01*
X75858605Y24671429D02*
X75858605Y24871429D01*
X76172891Y24957143D02*
X76172891Y24671429D01*
X76172891Y24671429D02*
X75572891Y24671429D01*
X75572891Y24671429D02*
X75572891Y24957143D01*
D10*
X65865181Y16134287D02*
X65865181Y16705715D01*
X65865181Y16420001D02*
X66865181Y16420001D01*
X66865181Y16420001D02*
X66722324Y16515239D01*
X66722324Y16515239D02*
X66627086Y16610477D01*
X66627086Y16610477D02*
X66579467Y16705715D01*
D11*
X2357939Y16766667D02*
X2357939Y17433333D01*
X2357939Y17433333D02*
X3357939Y16766667D01*
X3357939Y16766667D02*
X3357939Y17433333D01*
X2453177Y17766667D02*
X2405558Y17814286D01*
X2405558Y17814286D02*
X2357939Y17909524D01*
X2357939Y17909524D02*
X2357939Y18147619D01*
X2357939Y18147619D02*
X2405558Y18242857D01*
X2405558Y18242857D02*
X2453177Y18290476D01*
X2453177Y18290476D02*
X2548415Y18338095D01*
X2548415Y18338095D02*
X2643653Y18338095D01*
X2643653Y18338095D02*
X2786510Y18290476D01*
X2786510Y18290476D02*
X3357939Y17719048D01*
X3357939Y17719048D02*
X3357939Y18338095D01*
X2453177Y18719048D02*
X2405558Y18766667D01*
X2405558Y18766667D02*
X2357939Y18861905D01*
X2357939Y18861905D02*
X2357939Y19100000D01*
X2357939Y19100000D02*
X2405558Y19195238D01*
X2405558Y19195238D02*
X2453177Y19242857D01*
X2453177Y19242857D02*
X2548415Y19290476D01*
X2548415Y19290476D02*
X2643653Y19290476D01*
X2643653Y19290476D02*
X2786510Y19242857D01*
X2786510Y19242857D02*
X3357939Y18671429D01*
X3357939Y18671429D02*
X3357939Y19290476D01*
X2357939Y19909524D02*
X2357939Y20004762D01*
X2357939Y20004762D02*
X2405558Y20100000D01*
X2405558Y20100000D02*
X2453177Y20147619D01*
X2453177Y20147619D02*
X2548415Y20195238D01*
X2548415Y20195238D02*
X2738891Y20242857D01*
X2738891Y20242857D02*
X2976986Y20242857D01*
X2976986Y20242857D02*
X3167462Y20195238D01*
X3167462Y20195238D02*
X3262700Y20147619D01*
X3262700Y20147619D02*
X3310320Y20100000D01*
X3310320Y20100000D02*
X3357939Y20004762D01*
X3357939Y20004762D02*
X3357939Y19909524D01*
X3357939Y19909524D02*
X3310320Y19814286D01*
X3310320Y19814286D02*
X3262700Y19766667D01*
X3262700Y19766667D02*
X3167462Y19719048D01*
X3167462Y19719048D02*
X2976986Y19671429D01*
X2976986Y19671429D02*
X2738891Y19671429D01*
X2738891Y19671429D02*
X2548415Y19719048D01*
X2548415Y19719048D02*
X2453177Y19766667D01*
X2453177Y19766667D02*
X2405558Y19814286D01*
X2405558Y19814286D02*
X2357939Y19909524D01*
X2357939Y20576191D02*
X2357939Y21195238D01*
X2357939Y21195238D02*
X2738891Y20861905D01*
X2738891Y20861905D02*
X2738891Y21004762D01*
X2738891Y21004762D02*
X2786510Y21100000D01*
X2786510Y21100000D02*
X2834129Y21147619D01*
X2834129Y21147619D02*
X2929367Y21195238D01*
X2929367Y21195238D02*
X3167462Y21195238D01*
X3167462Y21195238D02*
X3262700Y21147619D01*
X3262700Y21147619D02*
X3310320Y21100000D01*
X3310320Y21100000D02*
X3357939Y21004762D01*
X3357939Y21004762D02*
X3357939Y20719048D01*
X3357939Y20719048D02*
X3310320Y20623810D01*
X3310320Y20623810D02*
X3262700Y20576191D01*
X2834129Y22719048D02*
X2834129Y22385715D01*
X3357939Y22385715D02*
X2357939Y22385715D01*
X2357939Y22385715D02*
X2357939Y22861905D01*
X3357939Y23242858D02*
X2357939Y23242858D01*
X2357939Y23242858D02*
X3072224Y23576191D01*
X3072224Y23576191D02*
X2357939Y23909524D01*
X2357939Y23909524D02*
X3357939Y23909524D01*
X3310320Y25100001D02*
X3357939Y25242858D01*
X3357939Y25242858D02*
X3357939Y25480953D01*
X3357939Y25480953D02*
X3310320Y25576191D01*
X3310320Y25576191D02*
X3262700Y25623810D01*
X3262700Y25623810D02*
X3167462Y25671429D01*
X3167462Y25671429D02*
X3072224Y25671429D01*
X3072224Y25671429D02*
X2976986Y25623810D01*
X2976986Y25623810D02*
X2929367Y25576191D01*
X2929367Y25576191D02*
X2881748Y25480953D01*
X2881748Y25480953D02*
X2834129Y25290477D01*
X2834129Y25290477D02*
X2786510Y25195239D01*
X2786510Y25195239D02*
X2738891Y25147620D01*
X2738891Y25147620D02*
X2643653Y25100001D01*
X2643653Y25100001D02*
X2548415Y25100001D01*
X2548415Y25100001D02*
X2453177Y25147620D01*
X2453177Y25147620D02*
X2405558Y25195239D01*
X2405558Y25195239D02*
X2357939Y25290477D01*
X2357939Y25290477D02*
X2357939Y25528572D01*
X2357939Y25528572D02*
X2405558Y25671429D01*
X2881748Y26290477D02*
X3357939Y26290477D01*
X2357939Y25957144D02*
X2881748Y26290477D01*
X2881748Y26290477D02*
X2357939Y26623810D01*
X3357939Y26957144D02*
X2357939Y26957144D01*
X2357939Y26957144D02*
X3357939Y27528572D01*
X3357939Y27528572D02*
X2357939Y27528572D01*
X2357939Y27861906D02*
X2357939Y28433334D01*
X3357939Y28147620D02*
X2357939Y28147620D01*
X3357939Y28766668D02*
X2357939Y28766668D01*
X2834129Y28766668D02*
X2834129Y29338096D01*
X3357939Y29338096D02*
X2357939Y29338096D01*
X2357939Y30433335D02*
X3357939Y30766668D01*
X3357939Y30766668D02*
X2357939Y31100001D01*
X2357939Y31623811D02*
X2357939Y31719049D01*
X2357939Y31719049D02*
X2405558Y31814287D01*
X2405558Y31814287D02*
X2453177Y31861906D01*
X2453177Y31861906D02*
X2548415Y31909525D01*
X2548415Y31909525D02*
X2738891Y31957144D01*
X2738891Y31957144D02*
X2976986Y31957144D01*
X2976986Y31957144D02*
X3167462Y31909525D01*
X3167462Y31909525D02*
X3262700Y31861906D01*
X3262700Y31861906D02*
X3310320Y31814287D01*
X3310320Y31814287D02*
X3357939Y31719049D01*
X3357939Y31719049D02*
X3357939Y31623811D01*
X3357939Y31623811D02*
X3310320Y31528573D01*
X3310320Y31528573D02*
X3262700Y31480954D01*
X3262700Y31480954D02*
X3167462Y31433335D01*
X3167462Y31433335D02*
X2976986Y31385716D01*
X2976986Y31385716D02*
X2738891Y31385716D01*
X2738891Y31385716D02*
X2548415Y31433335D01*
X2548415Y31433335D02*
X2453177Y31480954D01*
X2453177Y31480954D02*
X2405558Y31528573D01*
X2405558Y31528573D02*
X2357939Y31623811D01*
X3262700Y32385716D02*
X3310320Y32433335D01*
X3310320Y32433335D02*
X3357939Y32385716D01*
X3357939Y32385716D02*
X3310320Y32338097D01*
X3310320Y32338097D02*
X3262700Y32385716D01*
X3262700Y32385716D02*
X3357939Y32385716D01*
X3357939Y33385715D02*
X3357939Y32814287D01*
X3357939Y33100001D02*
X2357939Y33100001D01*
X2357939Y33100001D02*
X2500796Y33004763D01*
X2500796Y33004763D02*
X2596034Y32909525D01*
X2596034Y32909525D02*
X2643653Y32814287D01*
X67442857Y80498538D02*
X67385715Y80527109D01*
X67385715Y80527109D02*
X67300000Y80527109D01*
X67300000Y80527109D02*
X67214286Y80498538D01*
X67214286Y80498538D02*
X67157143Y80441395D01*
X67157143Y80441395D02*
X67128572Y80384252D01*
X67128572Y80384252D02*
X67100000Y80269966D01*
X67100000Y80269966D02*
X67100000Y80184252D01*
X67100000Y80184252D02*
X67128572Y80069966D01*
X67128572Y80069966D02*
X67157143Y80012823D01*
X67157143Y80012823D02*
X67214286Y79955680D01*
X67214286Y79955680D02*
X67300000Y79927109D01*
X67300000Y79927109D02*
X67357143Y79927109D01*
X67357143Y79927109D02*
X67442857Y79955680D01*
X67442857Y79955680D02*
X67471429Y79984252D01*
X67471429Y79984252D02*
X67471429Y80184252D01*
X67471429Y80184252D02*
X67357143Y80184252D01*
X67728572Y79927109D02*
X67728572Y80527109D01*
X67728572Y80527109D02*
X68071429Y79927109D01*
X68071429Y79927109D02*
X68071429Y80527109D01*
X68357143Y79927109D02*
X68357143Y80527109D01*
X68357143Y80527109D02*
X68500000Y80527109D01*
X68500000Y80527109D02*
X68585714Y80498538D01*
X68585714Y80498538D02*
X68642857Y80441395D01*
X68642857Y80441395D02*
X68671428Y80384252D01*
X68671428Y80384252D02*
X68700000Y80269966D01*
X68700000Y80269966D02*
X68700000Y80184252D01*
X68700000Y80184252D02*
X68671428Y80069966D01*
X68671428Y80069966D02*
X68642857Y80012823D01*
X68642857Y80012823D02*
X68585714Y79955680D01*
X68585714Y79955680D02*
X68500000Y79927109D01*
X68500000Y79927109D02*
X68357143Y79927109D01*
D10*
X24008333Y76630181D02*
X23675000Y77106372D01*
X23436905Y76630181D02*
X23436905Y77630181D01*
X23436905Y77630181D02*
X23817857Y77630181D01*
X23817857Y77630181D02*
X23913095Y77582562D01*
X23913095Y77582562D02*
X23960714Y77534943D01*
X23960714Y77534943D02*
X24008333Y77439705D01*
X24008333Y77439705D02*
X24008333Y77296848D01*
X24008333Y77296848D02*
X23960714Y77201610D01*
X23960714Y77201610D02*
X23913095Y77153991D01*
X23913095Y77153991D02*
X23817857Y77106372D01*
X23817857Y77106372D02*
X23436905Y77106372D01*
X24960714Y76630181D02*
X24389286Y76630181D01*
X24675000Y76630181D02*
X24675000Y77630181D01*
X24675000Y77630181D02*
X24579762Y77487324D01*
X24579762Y77487324D02*
X24484524Y77392086D01*
X24484524Y77392086D02*
X24389286Y77344467D01*
X20549405Y76645181D02*
X20549405Y77645181D01*
X20549405Y77645181D02*
X20787500Y77645181D01*
X20787500Y77645181D02*
X20930357Y77597562D01*
X20930357Y77597562D02*
X21025595Y77502324D01*
X21025595Y77502324D02*
X21073214Y77407086D01*
X21073214Y77407086D02*
X21120833Y77216610D01*
X21120833Y77216610D02*
X21120833Y77073753D01*
X21120833Y77073753D02*
X21073214Y76883277D01*
X21073214Y76883277D02*
X21025595Y76788039D01*
X21025595Y76788039D02*
X20930357Y76692800D01*
X20930357Y76692800D02*
X20787500Y76645181D01*
X20787500Y76645181D02*
X20549405Y76645181D01*
X22073214Y76645181D02*
X21501786Y76645181D01*
X21787500Y76645181D02*
X21787500Y77645181D01*
X21787500Y77645181D02*
X21692262Y77502324D01*
X21692262Y77502324D02*
X21597024Y77407086D01*
X21597024Y77407086D02*
X21501786Y77359467D01*
X66584819Y7311667D02*
X67299104Y7311667D01*
X67299104Y7311667D02*
X67441961Y7264048D01*
X67441961Y7264048D02*
X67537200Y7168810D01*
X67537200Y7168810D02*
X67584819Y7025953D01*
X67584819Y7025953D02*
X67584819Y6930715D01*
X66584819Y7692620D02*
X66584819Y8311667D01*
X66584819Y8311667D02*
X66965771Y7978334D01*
X66965771Y7978334D02*
X66965771Y8121191D01*
X66965771Y8121191D02*
X67013390Y8216429D01*
X67013390Y8216429D02*
X67061009Y8264048D01*
X67061009Y8264048D02*
X67156247Y8311667D01*
X67156247Y8311667D02*
X67394342Y8311667D01*
X67394342Y8311667D02*
X67489580Y8264048D01*
X67489580Y8264048D02*
X67537200Y8216429D01*
X67537200Y8216429D02*
X67584819Y8121191D01*
X67584819Y8121191D02*
X67584819Y7835477D01*
X67584819Y7835477D02*
X67537200Y7740239D01*
X67537200Y7740239D02*
X67489580Y7692620D01*
X62859580Y20933334D02*
X62907200Y20885715D01*
X62907200Y20885715D02*
X62954819Y20742858D01*
X62954819Y20742858D02*
X62954819Y20647620D01*
X62954819Y20647620D02*
X62907200Y20504763D01*
X62907200Y20504763D02*
X62811961Y20409525D01*
X62811961Y20409525D02*
X62716723Y20361906D01*
X62716723Y20361906D02*
X62526247Y20314287D01*
X62526247Y20314287D02*
X62383390Y20314287D01*
X62383390Y20314287D02*
X62192914Y20361906D01*
X62192914Y20361906D02*
X62097676Y20409525D01*
X62097676Y20409525D02*
X62002438Y20504763D01*
X62002438Y20504763D02*
X61954819Y20647620D01*
X61954819Y20647620D02*
X61954819Y20742858D01*
X61954819Y20742858D02*
X62002438Y20885715D01*
X62002438Y20885715D02*
X62050057Y20933334D01*
X62954819Y21409525D02*
X62954819Y21600001D01*
X62954819Y21600001D02*
X62907200Y21695239D01*
X62907200Y21695239D02*
X62859580Y21742858D01*
X62859580Y21742858D02*
X62716723Y21838096D01*
X62716723Y21838096D02*
X62526247Y21885715D01*
X62526247Y21885715D02*
X62145295Y21885715D01*
X62145295Y21885715D02*
X62050057Y21838096D01*
X62050057Y21838096D02*
X62002438Y21790477D01*
X62002438Y21790477D02*
X61954819Y21695239D01*
X61954819Y21695239D02*
X61954819Y21504763D01*
X61954819Y21504763D02*
X62002438Y21409525D01*
X62002438Y21409525D02*
X62050057Y21361906D01*
X62050057Y21361906D02*
X62145295Y21314287D01*
X62145295Y21314287D02*
X62383390Y21314287D01*
X62383390Y21314287D02*
X62478628Y21361906D01*
X62478628Y21361906D02*
X62526247Y21409525D01*
X62526247Y21409525D02*
X62573866Y21504763D01*
X62573866Y21504763D02*
X62573866Y21695239D01*
X62573866Y21695239D02*
X62526247Y21790477D01*
X62526247Y21790477D02*
X62478628Y21838096D01*
X62478628Y21838096D02*
X62383390Y21885715D01*
X54754819Y26538096D02*
X55564342Y26538096D01*
X55564342Y26538096D02*
X55659580Y26585715D01*
X55659580Y26585715D02*
X55707200Y26633334D01*
X55707200Y26633334D02*
X55754819Y26728572D01*
X55754819Y26728572D02*
X55754819Y26919048D01*
X55754819Y26919048D02*
X55707200Y27014286D01*
X55707200Y27014286D02*
X55659580Y27061905D01*
X55659580Y27061905D02*
X55564342Y27109524D01*
X55564342Y27109524D02*
X54754819Y27109524D01*
X54754819Y28014286D02*
X54754819Y27823810D01*
X54754819Y27823810D02*
X54802438Y27728572D01*
X54802438Y27728572D02*
X54850057Y27680953D01*
X54850057Y27680953D02*
X54992914Y27585715D01*
X54992914Y27585715D02*
X55183390Y27538096D01*
X55183390Y27538096D02*
X55564342Y27538096D01*
X55564342Y27538096D02*
X55659580Y27585715D01*
X55659580Y27585715D02*
X55707200Y27633334D01*
X55707200Y27633334D02*
X55754819Y27728572D01*
X55754819Y27728572D02*
X55754819Y27919048D01*
X55754819Y27919048D02*
X55707200Y28014286D01*
X55707200Y28014286D02*
X55659580Y28061905D01*
X55659580Y28061905D02*
X55564342Y28109524D01*
X55564342Y28109524D02*
X55326247Y28109524D01*
X55326247Y28109524D02*
X55231009Y28061905D01*
X55231009Y28061905D02*
X55183390Y28014286D01*
X55183390Y28014286D02*
X55135771Y27919048D01*
X55135771Y27919048D02*
X55135771Y27728572D01*
X55135771Y27728572D02*
X55183390Y27633334D01*
X55183390Y27633334D02*
X55231009Y27585715D01*
X55231009Y27585715D02*
X55326247Y27538096D01*
X54156819Y53438096D02*
X54156819Y54009524D01*
X55156819Y53723810D02*
X54156819Y53723810D01*
X55156819Y54342858D02*
X54156819Y54342858D01*
X54156819Y54342858D02*
X54156819Y54723810D01*
X54156819Y54723810D02*
X54204438Y54819048D01*
X54204438Y54819048D02*
X54252057Y54866667D01*
X54252057Y54866667D02*
X54347295Y54914286D01*
X54347295Y54914286D02*
X54490152Y54914286D01*
X54490152Y54914286D02*
X54585390Y54866667D01*
X54585390Y54866667D02*
X54633009Y54819048D01*
X54633009Y54819048D02*
X54680628Y54723810D01*
X54680628Y54723810D02*
X54680628Y54342858D01*
X54156819Y55819048D02*
X54156819Y55342858D01*
X54156819Y55342858D02*
X54633009Y55295239D01*
X54633009Y55295239D02*
X54585390Y55342858D01*
X54585390Y55342858D02*
X54537771Y55438096D01*
X54537771Y55438096D02*
X54537771Y55676191D01*
X54537771Y55676191D02*
X54585390Y55771429D01*
X54585390Y55771429D02*
X54633009Y55819048D01*
X54633009Y55819048D02*
X54728247Y55866667D01*
X54728247Y55866667D02*
X54966342Y55866667D01*
X54966342Y55866667D02*
X55061580Y55819048D01*
X55061580Y55819048D02*
X55109200Y55771429D01*
X55109200Y55771429D02*
X55156819Y55676191D01*
X55156819Y55676191D02*
X55156819Y55438096D01*
X55156819Y55438096D02*
X55109200Y55342858D01*
X55109200Y55342858D02*
X55061580Y55295239D01*
X67752819Y56838096D02*
X67752819Y57409524D01*
X68752819Y57123810D02*
X67752819Y57123810D01*
X68752819Y57742858D02*
X67752819Y57742858D01*
X67752819Y57742858D02*
X67752819Y58123810D01*
X67752819Y58123810D02*
X67800438Y58219048D01*
X67800438Y58219048D02*
X67848057Y58266667D01*
X67848057Y58266667D02*
X67943295Y58314286D01*
X67943295Y58314286D02*
X68086152Y58314286D01*
X68086152Y58314286D02*
X68181390Y58266667D01*
X68181390Y58266667D02*
X68229009Y58219048D01*
X68229009Y58219048D02*
X68276628Y58123810D01*
X68276628Y58123810D02*
X68276628Y57742858D01*
X67752819Y59171429D02*
X67752819Y58980953D01*
X67752819Y58980953D02*
X67800438Y58885715D01*
X67800438Y58885715D02*
X67848057Y58838096D01*
X67848057Y58838096D02*
X67990914Y58742858D01*
X67990914Y58742858D02*
X68181390Y58695239D01*
X68181390Y58695239D02*
X68562342Y58695239D01*
X68562342Y58695239D02*
X68657580Y58742858D01*
X68657580Y58742858D02*
X68705200Y58790477D01*
X68705200Y58790477D02*
X68752819Y58885715D01*
X68752819Y58885715D02*
X68752819Y59076191D01*
X68752819Y59076191D02*
X68705200Y59171429D01*
X68705200Y59171429D02*
X68657580Y59219048D01*
X68657580Y59219048D02*
X68562342Y59266667D01*
X68562342Y59266667D02*
X68324247Y59266667D01*
X68324247Y59266667D02*
X68229009Y59219048D01*
X68229009Y59219048D02*
X68181390Y59171429D01*
X68181390Y59171429D02*
X68133771Y59076191D01*
X68133771Y59076191D02*
X68133771Y58885715D01*
X68133771Y58885715D02*
X68181390Y58790477D01*
X68181390Y58790477D02*
X68229009Y58742858D01*
X68229009Y58742858D02*
X68324247Y58695239D01*
X6152819Y46238096D02*
X6152819Y46809524D01*
X7152819Y46523810D02*
X6152819Y46523810D01*
X7152819Y47142858D02*
X6152819Y47142858D01*
X6152819Y47142858D02*
X6152819Y47523810D01*
X6152819Y47523810D02*
X6200438Y47619048D01*
X6200438Y47619048D02*
X6248057Y47666667D01*
X6248057Y47666667D02*
X6343295Y47714286D01*
X6343295Y47714286D02*
X6486152Y47714286D01*
X6486152Y47714286D02*
X6581390Y47666667D01*
X6581390Y47666667D02*
X6629009Y47619048D01*
X6629009Y47619048D02*
X6676628Y47523810D01*
X6676628Y47523810D02*
X6676628Y47142858D01*
X6248057Y48095239D02*
X6200438Y48142858D01*
X6200438Y48142858D02*
X6152819Y48238096D01*
X6152819Y48238096D02*
X6152819Y48476191D01*
X6152819Y48476191D02*
X6200438Y48571429D01*
X6200438Y48571429D02*
X6248057Y48619048D01*
X6248057Y48619048D02*
X6343295Y48666667D01*
X6343295Y48666667D02*
X6438533Y48666667D01*
X6438533Y48666667D02*
X6581390Y48619048D01*
X6581390Y48619048D02*
X7152819Y48047620D01*
X7152819Y48047620D02*
X7152819Y48666667D01*
X69577319Y54388096D02*
X69577319Y54959524D01*
X70577319Y54673810D02*
X69577319Y54673810D01*
X70577319Y55292858D02*
X69577319Y55292858D01*
X69577319Y55292858D02*
X69577319Y55673810D01*
X69577319Y55673810D02*
X69624938Y55769048D01*
X69624938Y55769048D02*
X69672557Y55816667D01*
X69672557Y55816667D02*
X69767795Y55864286D01*
X69767795Y55864286D02*
X69910652Y55864286D01*
X69910652Y55864286D02*
X70005890Y55816667D01*
X70005890Y55816667D02*
X70053509Y55769048D01*
X70053509Y55769048D02*
X70101128Y55673810D01*
X70101128Y55673810D02*
X70101128Y55292858D01*
X69910652Y56721429D02*
X70577319Y56721429D01*
X69529700Y56483334D02*
X70243985Y56245239D01*
X70243985Y56245239D02*
X70243985Y56864286D01*
X78166666Y26145181D02*
X78166666Y25430896D01*
X78166666Y25430896D02*
X78119047Y25288039D01*
X78119047Y25288039D02*
X78023809Y25192800D01*
X78023809Y25192800D02*
X77880952Y25145181D01*
X77880952Y25145181D02*
X77785714Y25145181D01*
X78595238Y26049943D02*
X78642857Y26097562D01*
X78642857Y26097562D02*
X78738095Y26145181D01*
X78738095Y26145181D02*
X78976190Y26145181D01*
X78976190Y26145181D02*
X79071428Y26097562D01*
X79071428Y26097562D02*
X79119047Y26049943D01*
X79119047Y26049943D02*
X79166666Y25954705D01*
X79166666Y25954705D02*
X79166666Y25859467D01*
X79166666Y25859467D02*
X79119047Y25716610D01*
X79119047Y25716610D02*
X78547619Y25145181D01*
X78547619Y25145181D02*
X79166666Y25145181D01*
X66038095Y71443181D02*
X66609523Y71443181D01*
X66323809Y70443181D02*
X66323809Y71443181D01*
X66942857Y70443181D02*
X66942857Y71443181D01*
X66942857Y71443181D02*
X67323809Y71443181D01*
X67323809Y71443181D02*
X67419047Y71395562D01*
X67419047Y71395562D02*
X67466666Y71347943D01*
X67466666Y71347943D02*
X67514285Y71252705D01*
X67514285Y71252705D02*
X67514285Y71109848D01*
X67514285Y71109848D02*
X67466666Y71014610D01*
X67466666Y71014610D02*
X67419047Y70966991D01*
X67419047Y70966991D02*
X67323809Y70919372D01*
X67323809Y70919372D02*
X66942857Y70919372D01*
X68466666Y70443181D02*
X67895238Y70443181D01*
X68180952Y70443181D02*
X68180952Y71443181D01*
X68180952Y71443181D02*
X68085714Y71300324D01*
X68085714Y71300324D02*
X67990476Y71205086D01*
X67990476Y71205086D02*
X67895238Y71157467D01*
X6733333Y27820181D02*
X6400000Y28296372D01*
X6161905Y27820181D02*
X6161905Y28820181D01*
X6161905Y28820181D02*
X6542857Y28820181D01*
X6542857Y28820181D02*
X6638095Y28772562D01*
X6638095Y28772562D02*
X6685714Y28724943D01*
X6685714Y28724943D02*
X6733333Y28629705D01*
X6733333Y28629705D02*
X6733333Y28486848D01*
X6733333Y28486848D02*
X6685714Y28391610D01*
X6685714Y28391610D02*
X6638095Y28343991D01*
X6638095Y28343991D02*
X6542857Y28296372D01*
X6542857Y28296372D02*
X6161905Y28296372D01*
X7066667Y28820181D02*
X7733333Y28820181D01*
X7733333Y28820181D02*
X7304762Y27820181D01*
X77657142Y31845181D02*
X77323809Y32321372D01*
X77085714Y31845181D02*
X77085714Y32845181D01*
X77085714Y32845181D02*
X77466666Y32845181D01*
X77466666Y32845181D02*
X77561904Y32797562D01*
X77561904Y32797562D02*
X77609523Y32749943D01*
X77609523Y32749943D02*
X77657142Y32654705D01*
X77657142Y32654705D02*
X77657142Y32511848D01*
X77657142Y32511848D02*
X77609523Y32416610D01*
X77609523Y32416610D02*
X77561904Y32368991D01*
X77561904Y32368991D02*
X77466666Y32321372D01*
X77466666Y32321372D02*
X77085714Y32321372D01*
X78609523Y31845181D02*
X78038095Y31845181D01*
X78323809Y31845181D02*
X78323809Y32845181D01*
X78323809Y32845181D02*
X78228571Y32702324D01*
X78228571Y32702324D02*
X78133333Y32607086D01*
X78133333Y32607086D02*
X78038095Y32559467D01*
X79561904Y31845181D02*
X78990476Y31845181D01*
X79276190Y31845181D02*
X79276190Y32845181D01*
X79276190Y32845181D02*
X79180952Y32702324D01*
X79180952Y32702324D02*
X79085714Y32607086D01*
X79085714Y32607086D02*
X78990476Y32559467D01*
X7904819Y32813096D02*
X8714342Y32813096D01*
X8714342Y32813096D02*
X8809580Y32860715D01*
X8809580Y32860715D02*
X8857200Y32908334D01*
X8857200Y32908334D02*
X8904819Y33003572D01*
X8904819Y33003572D02*
X8904819Y33194048D01*
X8904819Y33194048D02*
X8857200Y33289286D01*
X8857200Y33289286D02*
X8809580Y33336905D01*
X8809580Y33336905D02*
X8714342Y33384524D01*
X8714342Y33384524D02*
X7904819Y33384524D01*
X7904819Y34336905D02*
X7904819Y33860715D01*
X7904819Y33860715D02*
X8381009Y33813096D01*
X8381009Y33813096D02*
X8333390Y33860715D01*
X8333390Y33860715D02*
X8285771Y33955953D01*
X8285771Y33955953D02*
X8285771Y34194048D01*
X8285771Y34194048D02*
X8333390Y34289286D01*
X8333390Y34289286D02*
X8381009Y34336905D01*
X8381009Y34336905D02*
X8476247Y34384524D01*
X8476247Y34384524D02*
X8714342Y34384524D01*
X8714342Y34384524D02*
X8809580Y34336905D01*
X8809580Y34336905D02*
X8857200Y34289286D01*
X8857200Y34289286D02*
X8904819Y34194048D01*
X8904819Y34194048D02*
X8904819Y33955953D01*
X8904819Y33955953D02*
X8857200Y33860715D01*
X8857200Y33860715D02*
X8809580Y33813096D01*
X12459580Y42533334D02*
X12507200Y42485715D01*
X12507200Y42485715D02*
X12554819Y42342858D01*
X12554819Y42342858D02*
X12554819Y42247620D01*
X12554819Y42247620D02*
X12507200Y42104763D01*
X12507200Y42104763D02*
X12411961Y42009525D01*
X12411961Y42009525D02*
X12316723Y41961906D01*
X12316723Y41961906D02*
X12126247Y41914287D01*
X12126247Y41914287D02*
X11983390Y41914287D01*
X11983390Y41914287D02*
X11792914Y41961906D01*
X11792914Y41961906D02*
X11697676Y42009525D01*
X11697676Y42009525D02*
X11602438Y42104763D01*
X11602438Y42104763D02*
X11554819Y42247620D01*
X11554819Y42247620D02*
X11554819Y42342858D01*
X11554819Y42342858D02*
X11602438Y42485715D01*
X11602438Y42485715D02*
X11650057Y42533334D01*
X11554819Y42866668D02*
X11554819Y43533334D01*
X11554819Y43533334D02*
X12554819Y43104763D01*
X71938095Y66895181D02*
X71938095Y66085658D01*
X71938095Y66085658D02*
X71985714Y65990420D01*
X71985714Y65990420D02*
X72033333Y65942800D01*
X72033333Y65942800D02*
X72128571Y65895181D01*
X72128571Y65895181D02*
X72319047Y65895181D01*
X72319047Y65895181D02*
X72414285Y65942800D01*
X72414285Y65942800D02*
X72461904Y65990420D01*
X72461904Y65990420D02*
X72509523Y66085658D01*
X72509523Y66085658D02*
X72509523Y66895181D01*
X73414285Y66561848D02*
X73414285Y65895181D01*
X73176190Y66942800D02*
X72938095Y66228515D01*
X72938095Y66228515D02*
X73557142Y66228515D01*
X6733333Y26020181D02*
X6400000Y26496372D01*
X6161905Y26020181D02*
X6161905Y27020181D01*
X6161905Y27020181D02*
X6542857Y27020181D01*
X6542857Y27020181D02*
X6638095Y26972562D01*
X6638095Y26972562D02*
X6685714Y26924943D01*
X6685714Y26924943D02*
X6733333Y26829705D01*
X6733333Y26829705D02*
X6733333Y26686848D01*
X6733333Y26686848D02*
X6685714Y26591610D01*
X6685714Y26591610D02*
X6638095Y26543991D01*
X6638095Y26543991D02*
X6542857Y26496372D01*
X6542857Y26496372D02*
X6161905Y26496372D01*
X7066667Y27020181D02*
X7685714Y27020181D01*
X7685714Y27020181D02*
X7352381Y26639229D01*
X7352381Y26639229D02*
X7495238Y26639229D01*
X7495238Y26639229D02*
X7590476Y26591610D01*
X7590476Y26591610D02*
X7638095Y26543991D01*
X7638095Y26543991D02*
X7685714Y26448753D01*
X7685714Y26448753D02*
X7685714Y26210658D01*
X7685714Y26210658D02*
X7638095Y26115420D01*
X7638095Y26115420D02*
X7590476Y26067800D01*
X7590476Y26067800D02*
X7495238Y26020181D01*
X7495238Y26020181D02*
X7209524Y26020181D01*
X7209524Y26020181D02*
X7114286Y26067800D01*
X7114286Y26067800D02*
X7066667Y26115420D01*
X76154819Y40088096D02*
X76154819Y40659524D01*
X77154819Y40373810D02*
X76154819Y40373810D01*
X77154819Y40992858D02*
X76154819Y40992858D01*
X76154819Y40992858D02*
X76154819Y41373810D01*
X76154819Y41373810D02*
X76202438Y41469048D01*
X76202438Y41469048D02*
X76250057Y41516667D01*
X76250057Y41516667D02*
X76345295Y41564286D01*
X76345295Y41564286D02*
X76488152Y41564286D01*
X76488152Y41564286D02*
X76583390Y41516667D01*
X76583390Y41516667D02*
X76631009Y41469048D01*
X76631009Y41469048D02*
X76678628Y41373810D01*
X76678628Y41373810D02*
X76678628Y40992858D01*
X77154819Y42040477D02*
X77154819Y42230953D01*
X77154819Y42230953D02*
X77107200Y42326191D01*
X77107200Y42326191D02*
X77059580Y42373810D01*
X77059580Y42373810D02*
X76916723Y42469048D01*
X76916723Y42469048D02*
X76726247Y42516667D01*
X76726247Y42516667D02*
X76345295Y42516667D01*
X76345295Y42516667D02*
X76250057Y42469048D01*
X76250057Y42469048D02*
X76202438Y42421429D01*
X76202438Y42421429D02*
X76154819Y42326191D01*
X76154819Y42326191D02*
X76154819Y42135715D01*
X76154819Y42135715D02*
X76202438Y42040477D01*
X76202438Y42040477D02*
X76250057Y41992858D01*
X76250057Y41992858D02*
X76345295Y41945239D01*
X76345295Y41945239D02*
X76583390Y41945239D01*
X76583390Y41945239D02*
X76678628Y41992858D01*
X76678628Y41992858D02*
X76726247Y42040477D01*
X76726247Y42040477D02*
X76773866Y42135715D01*
X76773866Y42135715D02*
X76773866Y42326191D01*
X76773866Y42326191D02*
X76726247Y42421429D01*
X76726247Y42421429D02*
X76678628Y42469048D01*
X76678628Y42469048D02*
X76583390Y42516667D01*
X18133333Y26045181D02*
X17800000Y26521372D01*
X17561905Y26045181D02*
X17561905Y27045181D01*
X17561905Y27045181D02*
X17942857Y27045181D01*
X17942857Y27045181D02*
X18038095Y26997562D01*
X18038095Y26997562D02*
X18085714Y26949943D01*
X18085714Y26949943D02*
X18133333Y26854705D01*
X18133333Y26854705D02*
X18133333Y26711848D01*
X18133333Y26711848D02*
X18085714Y26616610D01*
X18085714Y26616610D02*
X18038095Y26568991D01*
X18038095Y26568991D02*
X17942857Y26521372D01*
X17942857Y26521372D02*
X17561905Y26521372D01*
X18990476Y27045181D02*
X18800000Y27045181D01*
X18800000Y27045181D02*
X18704762Y26997562D01*
X18704762Y26997562D02*
X18657143Y26949943D01*
X18657143Y26949943D02*
X18561905Y26807086D01*
X18561905Y26807086D02*
X18514286Y26616610D01*
X18514286Y26616610D02*
X18514286Y26235658D01*
X18514286Y26235658D02*
X18561905Y26140420D01*
X18561905Y26140420D02*
X18609524Y26092800D01*
X18609524Y26092800D02*
X18704762Y26045181D01*
X18704762Y26045181D02*
X18895238Y26045181D01*
X18895238Y26045181D02*
X18990476Y26092800D01*
X18990476Y26092800D02*
X19038095Y26140420D01*
X19038095Y26140420D02*
X19085714Y26235658D01*
X19085714Y26235658D02*
X19085714Y26473753D01*
X19085714Y26473753D02*
X19038095Y26568991D01*
X19038095Y26568991D02*
X18990476Y26616610D01*
X18990476Y26616610D02*
X18895238Y26664229D01*
X18895238Y26664229D02*
X18704762Y26664229D01*
X18704762Y26664229D02*
X18609524Y26616610D01*
X18609524Y26616610D02*
X18561905Y26568991D01*
X18561905Y26568991D02*
X18514286Y26473753D01*
X30333333Y51540420D02*
X30285714Y51492800D01*
X30285714Y51492800D02*
X30142857Y51445181D01*
X30142857Y51445181D02*
X30047619Y51445181D01*
X30047619Y51445181D02*
X29904762Y51492800D01*
X29904762Y51492800D02*
X29809524Y51588039D01*
X29809524Y51588039D02*
X29761905Y51683277D01*
X29761905Y51683277D02*
X29714286Y51873753D01*
X29714286Y51873753D02*
X29714286Y52016610D01*
X29714286Y52016610D02*
X29761905Y52207086D01*
X29761905Y52207086D02*
X29809524Y52302324D01*
X29809524Y52302324D02*
X29904762Y52397562D01*
X29904762Y52397562D02*
X30047619Y52445181D01*
X30047619Y52445181D02*
X30142857Y52445181D01*
X30142857Y52445181D02*
X30285714Y52397562D01*
X30285714Y52397562D02*
X30333333Y52349943D01*
X30714286Y52349943D02*
X30761905Y52397562D01*
X30761905Y52397562D02*
X30857143Y52445181D01*
X30857143Y52445181D02*
X31095238Y52445181D01*
X31095238Y52445181D02*
X31190476Y52397562D01*
X31190476Y52397562D02*
X31238095Y52349943D01*
X31238095Y52349943D02*
X31285714Y52254705D01*
X31285714Y52254705D02*
X31285714Y52159467D01*
X31285714Y52159467D02*
X31238095Y52016610D01*
X31238095Y52016610D02*
X30666667Y51445181D01*
X30666667Y51445181D02*
X31285714Y51445181D01*
X65352819Y35238096D02*
X65352819Y35809524D01*
X66352819Y35523810D02*
X65352819Y35523810D01*
X66352819Y36142858D02*
X65352819Y36142858D01*
X65352819Y36142858D02*
X65352819Y36523810D01*
X65352819Y36523810D02*
X65400438Y36619048D01*
X65400438Y36619048D02*
X65448057Y36666667D01*
X65448057Y36666667D02*
X65543295Y36714286D01*
X65543295Y36714286D02*
X65686152Y36714286D01*
X65686152Y36714286D02*
X65781390Y36666667D01*
X65781390Y36666667D02*
X65829009Y36619048D01*
X65829009Y36619048D02*
X65876628Y36523810D01*
X65876628Y36523810D02*
X65876628Y36142858D01*
X65352819Y37047620D02*
X65352819Y37666667D01*
X65352819Y37666667D02*
X65733771Y37333334D01*
X65733771Y37333334D02*
X65733771Y37476191D01*
X65733771Y37476191D02*
X65781390Y37571429D01*
X65781390Y37571429D02*
X65829009Y37619048D01*
X65829009Y37619048D02*
X65924247Y37666667D01*
X65924247Y37666667D02*
X66162342Y37666667D01*
X66162342Y37666667D02*
X66257580Y37619048D01*
X66257580Y37619048D02*
X66305200Y37571429D01*
X66305200Y37571429D02*
X66352819Y37476191D01*
X66352819Y37476191D02*
X66352819Y37190477D01*
X66352819Y37190477D02*
X66305200Y37095239D01*
X66305200Y37095239D02*
X66257580Y37047620D01*
X14859580Y42933334D02*
X14907200Y42885715D01*
X14907200Y42885715D02*
X14954819Y42742858D01*
X14954819Y42742858D02*
X14954819Y42647620D01*
X14954819Y42647620D02*
X14907200Y42504763D01*
X14907200Y42504763D02*
X14811961Y42409525D01*
X14811961Y42409525D02*
X14716723Y42361906D01*
X14716723Y42361906D02*
X14526247Y42314287D01*
X14526247Y42314287D02*
X14383390Y42314287D01*
X14383390Y42314287D02*
X14192914Y42361906D01*
X14192914Y42361906D02*
X14097676Y42409525D01*
X14097676Y42409525D02*
X14002438Y42504763D01*
X14002438Y42504763D02*
X13954819Y42647620D01*
X13954819Y42647620D02*
X13954819Y42742858D01*
X13954819Y42742858D02*
X14002438Y42885715D01*
X14002438Y42885715D02*
X14050057Y42933334D01*
X13954819Y43790477D02*
X13954819Y43600001D01*
X13954819Y43600001D02*
X14002438Y43504763D01*
X14002438Y43504763D02*
X14050057Y43457144D01*
X14050057Y43457144D02*
X14192914Y43361906D01*
X14192914Y43361906D02*
X14383390Y43314287D01*
X14383390Y43314287D02*
X14764342Y43314287D01*
X14764342Y43314287D02*
X14859580Y43361906D01*
X14859580Y43361906D02*
X14907200Y43409525D01*
X14907200Y43409525D02*
X14954819Y43504763D01*
X14954819Y43504763D02*
X14954819Y43695239D01*
X14954819Y43695239D02*
X14907200Y43790477D01*
X14907200Y43790477D02*
X14859580Y43838096D01*
X14859580Y43838096D02*
X14764342Y43885715D01*
X14764342Y43885715D02*
X14526247Y43885715D01*
X14526247Y43885715D02*
X14431009Y43838096D01*
X14431009Y43838096D02*
X14383390Y43790477D01*
X14383390Y43790477D02*
X14335771Y43695239D01*
X14335771Y43695239D02*
X14335771Y43504763D01*
X14335771Y43504763D02*
X14383390Y43409525D01*
X14383390Y43409525D02*
X14431009Y43361906D01*
X14431009Y43361906D02*
X14526247Y43314287D01*
X70354819Y25011906D02*
X70354819Y25583334D01*
X71354819Y25297620D02*
X70354819Y25297620D01*
X71354819Y25916668D02*
X70354819Y25916668D01*
X70354819Y25916668D02*
X70354819Y26297620D01*
X70354819Y26297620D02*
X70402438Y26392858D01*
X70402438Y26392858D02*
X70450057Y26440477D01*
X70450057Y26440477D02*
X70545295Y26488096D01*
X70545295Y26488096D02*
X70688152Y26488096D01*
X70688152Y26488096D02*
X70783390Y26440477D01*
X70783390Y26440477D02*
X70831009Y26392858D01*
X70831009Y26392858D02*
X70878628Y26297620D01*
X70878628Y26297620D02*
X70878628Y25916668D01*
X71354819Y27440477D02*
X71354819Y26869049D01*
X71354819Y27154763D02*
X70354819Y27154763D01*
X70354819Y27154763D02*
X70497676Y27059525D01*
X70497676Y27059525D02*
X70592914Y26964287D01*
X70592914Y26964287D02*
X70640533Y26869049D01*
X70354819Y28059525D02*
X70354819Y28154763D01*
X70354819Y28154763D02*
X70402438Y28250001D01*
X70402438Y28250001D02*
X70450057Y28297620D01*
X70450057Y28297620D02*
X70545295Y28345239D01*
X70545295Y28345239D02*
X70735771Y28392858D01*
X70735771Y28392858D02*
X70973866Y28392858D01*
X70973866Y28392858D02*
X71164342Y28345239D01*
X71164342Y28345239D02*
X71259580Y28297620D01*
X71259580Y28297620D02*
X71307200Y28250001D01*
X71307200Y28250001D02*
X71354819Y28154763D01*
X71354819Y28154763D02*
X71354819Y28059525D01*
X71354819Y28059525D02*
X71307200Y27964287D01*
X71307200Y27964287D02*
X71259580Y27916668D01*
X71259580Y27916668D02*
X71164342Y27869049D01*
X71164342Y27869049D02*
X70973866Y27821430D01*
X70973866Y27821430D02*
X70735771Y27821430D01*
X70735771Y27821430D02*
X70545295Y27869049D01*
X70545295Y27869049D02*
X70450057Y27916668D01*
X70450057Y27916668D02*
X70402438Y27964287D01*
X70402438Y27964287D02*
X70354819Y28059525D01*
X75354819Y34688096D02*
X76164342Y34688096D01*
X76164342Y34688096D02*
X76259580Y34735715D01*
X76259580Y34735715D02*
X76307200Y34783334D01*
X76307200Y34783334D02*
X76354819Y34878572D01*
X76354819Y34878572D02*
X76354819Y35069048D01*
X76354819Y35069048D02*
X76307200Y35164286D01*
X76307200Y35164286D02*
X76259580Y35211905D01*
X76259580Y35211905D02*
X76164342Y35259524D01*
X76164342Y35259524D02*
X75354819Y35259524D01*
X75354819Y35640477D02*
X75354819Y36307143D01*
X75354819Y36307143D02*
X76354819Y35878572D01*
X53490476Y48645181D02*
X54157142Y47645181D01*
X54157142Y48645181D02*
X53490476Y47645181D01*
X55061904Y47645181D02*
X54490476Y47645181D01*
X54776190Y47645181D02*
X54776190Y48645181D01*
X54776190Y48645181D02*
X54680952Y48502324D01*
X54680952Y48502324D02*
X54585714Y48407086D01*
X54585714Y48407086D02*
X54490476Y48359467D01*
X64933333Y53665420D02*
X64885714Y53617800D01*
X64885714Y53617800D02*
X64742857Y53570181D01*
X64742857Y53570181D02*
X64647619Y53570181D01*
X64647619Y53570181D02*
X64504762Y53617800D01*
X64504762Y53617800D02*
X64409524Y53713039D01*
X64409524Y53713039D02*
X64361905Y53808277D01*
X64361905Y53808277D02*
X64314286Y53998753D01*
X64314286Y53998753D02*
X64314286Y54141610D01*
X64314286Y54141610D02*
X64361905Y54332086D01*
X64361905Y54332086D02*
X64409524Y54427324D01*
X64409524Y54427324D02*
X64504762Y54522562D01*
X64504762Y54522562D02*
X64647619Y54570181D01*
X64647619Y54570181D02*
X64742857Y54570181D01*
X64742857Y54570181D02*
X64885714Y54522562D01*
X64885714Y54522562D02*
X64933333Y54474943D01*
X65266667Y54570181D02*
X65885714Y54570181D01*
X65885714Y54570181D02*
X65552381Y54189229D01*
X65552381Y54189229D02*
X65695238Y54189229D01*
X65695238Y54189229D02*
X65790476Y54141610D01*
X65790476Y54141610D02*
X65838095Y54093991D01*
X65838095Y54093991D02*
X65885714Y53998753D01*
X65885714Y53998753D02*
X65885714Y53760658D01*
X65885714Y53760658D02*
X65838095Y53665420D01*
X65838095Y53665420D02*
X65790476Y53617800D01*
X65790476Y53617800D02*
X65695238Y53570181D01*
X65695238Y53570181D02*
X65409524Y53570181D01*
X65409524Y53570181D02*
X65314286Y53617800D01*
X65314286Y53617800D02*
X65266667Y53665420D01*
X79554819Y39161906D02*
X78554819Y39161906D01*
X78554819Y39161906D02*
X78554819Y39400001D01*
X78554819Y39400001D02*
X78602438Y39542858D01*
X78602438Y39542858D02*
X78697676Y39638096D01*
X78697676Y39638096D02*
X78792914Y39685715D01*
X78792914Y39685715D02*
X78983390Y39733334D01*
X78983390Y39733334D02*
X79126247Y39733334D01*
X79126247Y39733334D02*
X79316723Y39685715D01*
X79316723Y39685715D02*
X79411961Y39638096D01*
X79411961Y39638096D02*
X79507200Y39542858D01*
X79507200Y39542858D02*
X79554819Y39400001D01*
X79554819Y39400001D02*
X79554819Y39161906D01*
X78650057Y40114287D02*
X78602438Y40161906D01*
X78602438Y40161906D02*
X78554819Y40257144D01*
X78554819Y40257144D02*
X78554819Y40495239D01*
X78554819Y40495239D02*
X78602438Y40590477D01*
X78602438Y40590477D02*
X78650057Y40638096D01*
X78650057Y40638096D02*
X78745295Y40685715D01*
X78745295Y40685715D02*
X78840533Y40685715D01*
X78840533Y40685715D02*
X78983390Y40638096D01*
X78983390Y40638096D02*
X79554819Y40066668D01*
X79554819Y40066668D02*
X79554819Y40685715D01*
X67554819Y40838096D02*
X67554819Y41409524D01*
X68554819Y41123810D02*
X67554819Y41123810D01*
X68554819Y41742858D02*
X67554819Y41742858D01*
X67554819Y41742858D02*
X67554819Y42123810D01*
X67554819Y42123810D02*
X67602438Y42219048D01*
X67602438Y42219048D02*
X67650057Y42266667D01*
X67650057Y42266667D02*
X67745295Y42314286D01*
X67745295Y42314286D02*
X67888152Y42314286D01*
X67888152Y42314286D02*
X67983390Y42266667D01*
X67983390Y42266667D02*
X68031009Y42219048D01*
X68031009Y42219048D02*
X68078628Y42123810D01*
X68078628Y42123810D02*
X68078628Y41742858D01*
X67983390Y42885715D02*
X67935771Y42790477D01*
X67935771Y42790477D02*
X67888152Y42742858D01*
X67888152Y42742858D02*
X67792914Y42695239D01*
X67792914Y42695239D02*
X67745295Y42695239D01*
X67745295Y42695239D02*
X67650057Y42742858D01*
X67650057Y42742858D02*
X67602438Y42790477D01*
X67602438Y42790477D02*
X67554819Y42885715D01*
X67554819Y42885715D02*
X67554819Y43076191D01*
X67554819Y43076191D02*
X67602438Y43171429D01*
X67602438Y43171429D02*
X67650057Y43219048D01*
X67650057Y43219048D02*
X67745295Y43266667D01*
X67745295Y43266667D02*
X67792914Y43266667D01*
X67792914Y43266667D02*
X67888152Y43219048D01*
X67888152Y43219048D02*
X67935771Y43171429D01*
X67935771Y43171429D02*
X67983390Y43076191D01*
X67983390Y43076191D02*
X67983390Y42885715D01*
X67983390Y42885715D02*
X68031009Y42790477D01*
X68031009Y42790477D02*
X68078628Y42742858D01*
X68078628Y42742858D02*
X68173866Y42695239D01*
X68173866Y42695239D02*
X68364342Y42695239D01*
X68364342Y42695239D02*
X68459580Y42742858D01*
X68459580Y42742858D02*
X68507200Y42790477D01*
X68507200Y42790477D02*
X68554819Y42885715D01*
X68554819Y42885715D02*
X68554819Y43076191D01*
X68554819Y43076191D02*
X68507200Y43171429D01*
X68507200Y43171429D02*
X68459580Y43219048D01*
X68459580Y43219048D02*
X68364342Y43266667D01*
X68364342Y43266667D02*
X68173866Y43266667D01*
X68173866Y43266667D02*
X68078628Y43219048D01*
X68078628Y43219048D02*
X68031009Y43171429D01*
X68031009Y43171429D02*
X67983390Y43076191D01*
X6908333Y40220181D02*
X6575000Y40696372D01*
X6336905Y40220181D02*
X6336905Y41220181D01*
X6336905Y41220181D02*
X6717857Y41220181D01*
X6717857Y41220181D02*
X6813095Y41172562D01*
X6813095Y41172562D02*
X6860714Y41124943D01*
X6860714Y41124943D02*
X6908333Y41029705D01*
X6908333Y41029705D02*
X6908333Y40886848D01*
X6908333Y40886848D02*
X6860714Y40791610D01*
X6860714Y40791610D02*
X6813095Y40743991D01*
X6813095Y40743991D02*
X6717857Y40696372D01*
X6717857Y40696372D02*
X6336905Y40696372D01*
X7479762Y40791610D02*
X7384524Y40839229D01*
X7384524Y40839229D02*
X7336905Y40886848D01*
X7336905Y40886848D02*
X7289286Y40982086D01*
X7289286Y40982086D02*
X7289286Y41029705D01*
X7289286Y41029705D02*
X7336905Y41124943D01*
X7336905Y41124943D02*
X7384524Y41172562D01*
X7384524Y41172562D02*
X7479762Y41220181D01*
X7479762Y41220181D02*
X7670238Y41220181D01*
X7670238Y41220181D02*
X7765476Y41172562D01*
X7765476Y41172562D02*
X7813095Y41124943D01*
X7813095Y41124943D02*
X7860714Y41029705D01*
X7860714Y41029705D02*
X7860714Y40982086D01*
X7860714Y40982086D02*
X7813095Y40886848D01*
X7813095Y40886848D02*
X7765476Y40839229D01*
X7765476Y40839229D02*
X7670238Y40791610D01*
X7670238Y40791610D02*
X7479762Y40791610D01*
X7479762Y40791610D02*
X7384524Y40743991D01*
X7384524Y40743991D02*
X7336905Y40696372D01*
X7336905Y40696372D02*
X7289286Y40601134D01*
X7289286Y40601134D02*
X7289286Y40410658D01*
X7289286Y40410658D02*
X7336905Y40315420D01*
X7336905Y40315420D02*
X7384524Y40267800D01*
X7384524Y40267800D02*
X7479762Y40220181D01*
X7479762Y40220181D02*
X7670238Y40220181D01*
X7670238Y40220181D02*
X7765476Y40267800D01*
X7765476Y40267800D02*
X7813095Y40315420D01*
X7813095Y40315420D02*
X7860714Y40410658D01*
X7860714Y40410658D02*
X7860714Y40601134D01*
X7860714Y40601134D02*
X7813095Y40696372D01*
X7813095Y40696372D02*
X7765476Y40743991D01*
X7765476Y40743991D02*
X7670238Y40791610D01*
X7364819Y36033334D02*
X6888628Y35700001D01*
X7364819Y35461906D02*
X6364819Y35461906D01*
X6364819Y35461906D02*
X6364819Y35842858D01*
X6364819Y35842858D02*
X6412438Y35938096D01*
X6412438Y35938096D02*
X6460057Y35985715D01*
X6460057Y35985715D02*
X6555295Y36033334D01*
X6555295Y36033334D02*
X6698152Y36033334D01*
X6698152Y36033334D02*
X6793390Y35985715D01*
X6793390Y35985715D02*
X6841009Y35938096D01*
X6841009Y35938096D02*
X6888628Y35842858D01*
X6888628Y35842858D02*
X6888628Y35461906D01*
X7364819Y36509525D02*
X7364819Y36700001D01*
X7364819Y36700001D02*
X7317200Y36795239D01*
X7317200Y36795239D02*
X7269580Y36842858D01*
X7269580Y36842858D02*
X7126723Y36938096D01*
X7126723Y36938096D02*
X6936247Y36985715D01*
X6936247Y36985715D02*
X6555295Y36985715D01*
X6555295Y36985715D02*
X6460057Y36938096D01*
X6460057Y36938096D02*
X6412438Y36890477D01*
X6412438Y36890477D02*
X6364819Y36795239D01*
X6364819Y36795239D02*
X6364819Y36604763D01*
X6364819Y36604763D02*
X6412438Y36509525D01*
X6412438Y36509525D02*
X6460057Y36461906D01*
X6460057Y36461906D02*
X6555295Y36414287D01*
X6555295Y36414287D02*
X6793390Y36414287D01*
X6793390Y36414287D02*
X6888628Y36461906D01*
X6888628Y36461906D02*
X6936247Y36509525D01*
X6936247Y36509525D02*
X6983866Y36604763D01*
X6983866Y36604763D02*
X6983866Y36795239D01*
X6983866Y36795239D02*
X6936247Y36890477D01*
X6936247Y36890477D02*
X6888628Y36938096D01*
X6888628Y36938096D02*
X6793390Y36985715D01*
X12359580Y24908334D02*
X12407200Y24860715D01*
X12407200Y24860715D02*
X12454819Y24717858D01*
X12454819Y24717858D02*
X12454819Y24622620D01*
X12454819Y24622620D02*
X12407200Y24479763D01*
X12407200Y24479763D02*
X12311961Y24384525D01*
X12311961Y24384525D02*
X12216723Y24336906D01*
X12216723Y24336906D02*
X12026247Y24289287D01*
X12026247Y24289287D02*
X11883390Y24289287D01*
X11883390Y24289287D02*
X11692914Y24336906D01*
X11692914Y24336906D02*
X11597676Y24384525D01*
X11597676Y24384525D02*
X11502438Y24479763D01*
X11502438Y24479763D02*
X11454819Y24622620D01*
X11454819Y24622620D02*
X11454819Y24717858D01*
X11454819Y24717858D02*
X11502438Y24860715D01*
X11502438Y24860715D02*
X11550057Y24908334D01*
X11883390Y25479763D02*
X11835771Y25384525D01*
X11835771Y25384525D02*
X11788152Y25336906D01*
X11788152Y25336906D02*
X11692914Y25289287D01*
X11692914Y25289287D02*
X11645295Y25289287D01*
X11645295Y25289287D02*
X11550057Y25336906D01*
X11550057Y25336906D02*
X11502438Y25384525D01*
X11502438Y25384525D02*
X11454819Y25479763D01*
X11454819Y25479763D02*
X11454819Y25670239D01*
X11454819Y25670239D02*
X11502438Y25765477D01*
X11502438Y25765477D02*
X11550057Y25813096D01*
X11550057Y25813096D02*
X11645295Y25860715D01*
X11645295Y25860715D02*
X11692914Y25860715D01*
X11692914Y25860715D02*
X11788152Y25813096D01*
X11788152Y25813096D02*
X11835771Y25765477D01*
X11835771Y25765477D02*
X11883390Y25670239D01*
X11883390Y25670239D02*
X11883390Y25479763D01*
X11883390Y25479763D02*
X11931009Y25384525D01*
X11931009Y25384525D02*
X11978628Y25336906D01*
X11978628Y25336906D02*
X12073866Y25289287D01*
X12073866Y25289287D02*
X12264342Y25289287D01*
X12264342Y25289287D02*
X12359580Y25336906D01*
X12359580Y25336906D02*
X12407200Y25384525D01*
X12407200Y25384525D02*
X12454819Y25479763D01*
X12454819Y25479763D02*
X12454819Y25670239D01*
X12454819Y25670239D02*
X12407200Y25765477D01*
X12407200Y25765477D02*
X12359580Y25813096D01*
X12359580Y25813096D02*
X12264342Y25860715D01*
X12264342Y25860715D02*
X12073866Y25860715D01*
X12073866Y25860715D02*
X11978628Y25813096D01*
X11978628Y25813096D02*
X11931009Y25765477D01*
X11931009Y25765477D02*
X11883390Y25670239D01*
X28784819Y44978096D02*
X29594342Y44978096D01*
X29594342Y44978096D02*
X29689580Y45025715D01*
X29689580Y45025715D02*
X29737200Y45073334D01*
X29737200Y45073334D02*
X29784819Y45168572D01*
X29784819Y45168572D02*
X29784819Y45359048D01*
X29784819Y45359048D02*
X29737200Y45454286D01*
X29737200Y45454286D02*
X29689580Y45501905D01*
X29689580Y45501905D02*
X29594342Y45549524D01*
X29594342Y45549524D02*
X28784819Y45549524D01*
X28880057Y45978096D02*
X28832438Y46025715D01*
X28832438Y46025715D02*
X28784819Y46120953D01*
X28784819Y46120953D02*
X28784819Y46359048D01*
X28784819Y46359048D02*
X28832438Y46454286D01*
X28832438Y46454286D02*
X28880057Y46501905D01*
X28880057Y46501905D02*
X28975295Y46549524D01*
X28975295Y46549524D02*
X29070533Y46549524D01*
X29070533Y46549524D02*
X29213390Y46501905D01*
X29213390Y46501905D02*
X29784819Y45930477D01*
X29784819Y45930477D02*
X29784819Y46549524D01*
X47958333Y51190420D02*
X47910714Y51142800D01*
X47910714Y51142800D02*
X47767857Y51095181D01*
X47767857Y51095181D02*
X47672619Y51095181D01*
X47672619Y51095181D02*
X47529762Y51142800D01*
X47529762Y51142800D02*
X47434524Y51238039D01*
X47434524Y51238039D02*
X47386905Y51333277D01*
X47386905Y51333277D02*
X47339286Y51523753D01*
X47339286Y51523753D02*
X47339286Y51666610D01*
X47339286Y51666610D02*
X47386905Y51857086D01*
X47386905Y51857086D02*
X47434524Y51952324D01*
X47434524Y51952324D02*
X47529762Y52047562D01*
X47529762Y52047562D02*
X47672619Y52095181D01*
X47672619Y52095181D02*
X47767857Y52095181D01*
X47767857Y52095181D02*
X47910714Y52047562D01*
X47910714Y52047562D02*
X47958333Y51999943D01*
X48815476Y51761848D02*
X48815476Y51095181D01*
X48577381Y52142800D02*
X48339286Y51428515D01*
X48339286Y51428515D02*
X48958333Y51428515D01*
X66474819Y48138096D02*
X67284342Y48138096D01*
X67284342Y48138096D02*
X67379580Y48185715D01*
X67379580Y48185715D02*
X67427200Y48233334D01*
X67427200Y48233334D02*
X67474819Y48328572D01*
X67474819Y48328572D02*
X67474819Y48519048D01*
X67474819Y48519048D02*
X67427200Y48614286D01*
X67427200Y48614286D02*
X67379580Y48661905D01*
X67379580Y48661905D02*
X67284342Y48709524D01*
X67284342Y48709524D02*
X66474819Y48709524D01*
X66474819Y49090477D02*
X66474819Y49709524D01*
X66474819Y49709524D02*
X66855771Y49376191D01*
X66855771Y49376191D02*
X66855771Y49519048D01*
X66855771Y49519048D02*
X66903390Y49614286D01*
X66903390Y49614286D02*
X66951009Y49661905D01*
X66951009Y49661905D02*
X67046247Y49709524D01*
X67046247Y49709524D02*
X67284342Y49709524D01*
X67284342Y49709524D02*
X67379580Y49661905D01*
X67379580Y49661905D02*
X67427200Y49614286D01*
X67427200Y49614286D02*
X67474819Y49519048D01*
X67474819Y49519048D02*
X67474819Y49233334D01*
X67474819Y49233334D02*
X67427200Y49138096D01*
X67427200Y49138096D02*
X67379580Y49090477D01*
X72057142Y29540420D02*
X72009523Y29492800D01*
X72009523Y29492800D02*
X71866666Y29445181D01*
X71866666Y29445181D02*
X71771428Y29445181D01*
X71771428Y29445181D02*
X71628571Y29492800D01*
X71628571Y29492800D02*
X71533333Y29588039D01*
X71533333Y29588039D02*
X71485714Y29683277D01*
X71485714Y29683277D02*
X71438095Y29873753D01*
X71438095Y29873753D02*
X71438095Y30016610D01*
X71438095Y30016610D02*
X71485714Y30207086D01*
X71485714Y30207086D02*
X71533333Y30302324D01*
X71533333Y30302324D02*
X71628571Y30397562D01*
X71628571Y30397562D02*
X71771428Y30445181D01*
X71771428Y30445181D02*
X71866666Y30445181D01*
X71866666Y30445181D02*
X72009523Y30397562D01*
X72009523Y30397562D02*
X72057142Y30349943D01*
X73009523Y29445181D02*
X72438095Y29445181D01*
X72723809Y29445181D02*
X72723809Y30445181D01*
X72723809Y30445181D02*
X72628571Y30302324D01*
X72628571Y30302324D02*
X72533333Y30207086D01*
X72533333Y30207086D02*
X72438095Y30159467D01*
X73628571Y30445181D02*
X73723809Y30445181D01*
X73723809Y30445181D02*
X73819047Y30397562D01*
X73819047Y30397562D02*
X73866666Y30349943D01*
X73866666Y30349943D02*
X73914285Y30254705D01*
X73914285Y30254705D02*
X73961904Y30064229D01*
X73961904Y30064229D02*
X73961904Y29826134D01*
X73961904Y29826134D02*
X73914285Y29635658D01*
X73914285Y29635658D02*
X73866666Y29540420D01*
X73866666Y29540420D02*
X73819047Y29492800D01*
X73819047Y29492800D02*
X73723809Y29445181D01*
X73723809Y29445181D02*
X73628571Y29445181D01*
X73628571Y29445181D02*
X73533333Y29492800D01*
X73533333Y29492800D02*
X73485714Y29540420D01*
X73485714Y29540420D02*
X73438095Y29635658D01*
X73438095Y29635658D02*
X73390476Y29826134D01*
X73390476Y29826134D02*
X73390476Y30064229D01*
X73390476Y30064229D02*
X73438095Y30254705D01*
X73438095Y30254705D02*
X73485714Y30349943D01*
X73485714Y30349943D02*
X73533333Y30397562D01*
X73533333Y30397562D02*
X73628571Y30445181D01*
X6708333Y42220181D02*
X6375000Y42696372D01*
X6136905Y42220181D02*
X6136905Y43220181D01*
X6136905Y43220181D02*
X6517857Y43220181D01*
X6517857Y43220181D02*
X6613095Y43172562D01*
X6613095Y43172562D02*
X6660714Y43124943D01*
X6660714Y43124943D02*
X6708333Y43029705D01*
X6708333Y43029705D02*
X6708333Y42886848D01*
X6708333Y42886848D02*
X6660714Y42791610D01*
X6660714Y42791610D02*
X6613095Y42743991D01*
X6613095Y42743991D02*
X6517857Y42696372D01*
X6517857Y42696372D02*
X6136905Y42696372D01*
X7613095Y43220181D02*
X7136905Y43220181D01*
X7136905Y43220181D02*
X7089286Y42743991D01*
X7089286Y42743991D02*
X7136905Y42791610D01*
X7136905Y42791610D02*
X7232143Y42839229D01*
X7232143Y42839229D02*
X7470238Y42839229D01*
X7470238Y42839229D02*
X7565476Y42791610D01*
X7565476Y42791610D02*
X7613095Y42743991D01*
X7613095Y42743991D02*
X7660714Y42648753D01*
X7660714Y42648753D02*
X7660714Y42410658D01*
X7660714Y42410658D02*
X7613095Y42315420D01*
X7613095Y42315420D02*
X7565476Y42267800D01*
X7565476Y42267800D02*
X7470238Y42220181D01*
X7470238Y42220181D02*
X7232143Y42220181D01*
X7232143Y42220181D02*
X7136905Y42267800D01*
X7136905Y42267800D02*
X7089286Y42315420D01*
X6908333Y44220181D02*
X6575000Y44696372D01*
X6336905Y44220181D02*
X6336905Y45220181D01*
X6336905Y45220181D02*
X6717857Y45220181D01*
X6717857Y45220181D02*
X6813095Y45172562D01*
X6813095Y45172562D02*
X6860714Y45124943D01*
X6860714Y45124943D02*
X6908333Y45029705D01*
X6908333Y45029705D02*
X6908333Y44886848D01*
X6908333Y44886848D02*
X6860714Y44791610D01*
X6860714Y44791610D02*
X6813095Y44743991D01*
X6813095Y44743991D02*
X6717857Y44696372D01*
X6717857Y44696372D02*
X6336905Y44696372D01*
X7289286Y45124943D02*
X7336905Y45172562D01*
X7336905Y45172562D02*
X7432143Y45220181D01*
X7432143Y45220181D02*
X7670238Y45220181D01*
X7670238Y45220181D02*
X7765476Y45172562D01*
X7765476Y45172562D02*
X7813095Y45124943D01*
X7813095Y45124943D02*
X7860714Y45029705D01*
X7860714Y45029705D02*
X7860714Y44934467D01*
X7860714Y44934467D02*
X7813095Y44791610D01*
X7813095Y44791610D02*
X7241667Y44220181D01*
X7241667Y44220181D02*
X7860714Y44220181D01*
X78257142Y28445181D02*
X77923809Y28921372D01*
X77685714Y28445181D02*
X77685714Y29445181D01*
X77685714Y29445181D02*
X78066666Y29445181D01*
X78066666Y29445181D02*
X78161904Y29397562D01*
X78161904Y29397562D02*
X78209523Y29349943D01*
X78209523Y29349943D02*
X78257142Y29254705D01*
X78257142Y29254705D02*
X78257142Y29111848D01*
X78257142Y29111848D02*
X78209523Y29016610D01*
X78209523Y29016610D02*
X78161904Y28968991D01*
X78161904Y28968991D02*
X78066666Y28921372D01*
X78066666Y28921372D02*
X77685714Y28921372D01*
X79209523Y28445181D02*
X78638095Y28445181D01*
X78923809Y28445181D02*
X78923809Y29445181D01*
X78923809Y29445181D02*
X78828571Y29302324D01*
X78828571Y29302324D02*
X78733333Y29207086D01*
X78733333Y29207086D02*
X78638095Y29159467D01*
X79828571Y29445181D02*
X79923809Y29445181D01*
X79923809Y29445181D02*
X80019047Y29397562D01*
X80019047Y29397562D02*
X80066666Y29349943D01*
X80066666Y29349943D02*
X80114285Y29254705D01*
X80114285Y29254705D02*
X80161904Y29064229D01*
X80161904Y29064229D02*
X80161904Y28826134D01*
X80161904Y28826134D02*
X80114285Y28635658D01*
X80114285Y28635658D02*
X80066666Y28540420D01*
X80066666Y28540420D02*
X80019047Y28492800D01*
X80019047Y28492800D02*
X79923809Y28445181D01*
X79923809Y28445181D02*
X79828571Y28445181D01*
X79828571Y28445181D02*
X79733333Y28492800D01*
X79733333Y28492800D02*
X79685714Y28540420D01*
X79685714Y28540420D02*
X79638095Y28635658D01*
X79638095Y28635658D02*
X79590476Y28826134D01*
X79590476Y28826134D02*
X79590476Y29064229D01*
X79590476Y29064229D02*
X79638095Y29254705D01*
X79638095Y29254705D02*
X79685714Y29349943D01*
X79685714Y29349943D02*
X79733333Y29397562D01*
X79733333Y29397562D02*
X79828571Y29445181D01*
X9933333Y54940420D02*
X9885714Y54892800D01*
X9885714Y54892800D02*
X9742857Y54845181D01*
X9742857Y54845181D02*
X9647619Y54845181D01*
X9647619Y54845181D02*
X9504762Y54892800D01*
X9504762Y54892800D02*
X9409524Y54988039D01*
X9409524Y54988039D02*
X9361905Y55083277D01*
X9361905Y55083277D02*
X9314286Y55273753D01*
X9314286Y55273753D02*
X9314286Y55416610D01*
X9314286Y55416610D02*
X9361905Y55607086D01*
X9361905Y55607086D02*
X9409524Y55702324D01*
X9409524Y55702324D02*
X9504762Y55797562D01*
X9504762Y55797562D02*
X9647619Y55845181D01*
X9647619Y55845181D02*
X9742857Y55845181D01*
X9742857Y55845181D02*
X9885714Y55797562D01*
X9885714Y55797562D02*
X9933333Y55749943D01*
X10885714Y54845181D02*
X10314286Y54845181D01*
X10600000Y54845181D02*
X10600000Y55845181D01*
X10600000Y55845181D02*
X10504762Y55702324D01*
X10504762Y55702324D02*
X10409524Y55607086D01*
X10409524Y55607086D02*
X10314286Y55559467D01*
X6883333Y38420181D02*
X6550000Y38896372D01*
X6311905Y38420181D02*
X6311905Y39420181D01*
X6311905Y39420181D02*
X6692857Y39420181D01*
X6692857Y39420181D02*
X6788095Y39372562D01*
X6788095Y39372562D02*
X6835714Y39324943D01*
X6835714Y39324943D02*
X6883333Y39229705D01*
X6883333Y39229705D02*
X6883333Y39086848D01*
X6883333Y39086848D02*
X6835714Y38991610D01*
X6835714Y38991610D02*
X6788095Y38943991D01*
X6788095Y38943991D02*
X6692857Y38896372D01*
X6692857Y38896372D02*
X6311905Y38896372D01*
X7740476Y39086848D02*
X7740476Y38420181D01*
X7502381Y39467800D02*
X7264286Y38753515D01*
X7264286Y38753515D02*
X7883333Y38753515D01*
X78059580Y68533334D02*
X78107200Y68485715D01*
X78107200Y68485715D02*
X78154819Y68342858D01*
X78154819Y68342858D02*
X78154819Y68247620D01*
X78154819Y68247620D02*
X78107200Y68104763D01*
X78107200Y68104763D02*
X78011961Y68009525D01*
X78011961Y68009525D02*
X77916723Y67961906D01*
X77916723Y67961906D02*
X77726247Y67914287D01*
X77726247Y67914287D02*
X77583390Y67914287D01*
X77583390Y67914287D02*
X77392914Y67961906D01*
X77392914Y67961906D02*
X77297676Y68009525D01*
X77297676Y68009525D02*
X77202438Y68104763D01*
X77202438Y68104763D02*
X77154819Y68247620D01*
X77154819Y68247620D02*
X77154819Y68342858D01*
X77154819Y68342858D02*
X77202438Y68485715D01*
X77202438Y68485715D02*
X77250057Y68533334D01*
X77154819Y69438096D02*
X77154819Y68961906D01*
X77154819Y68961906D02*
X77631009Y68914287D01*
X77631009Y68914287D02*
X77583390Y68961906D01*
X77583390Y68961906D02*
X77535771Y69057144D01*
X77535771Y69057144D02*
X77535771Y69295239D01*
X77535771Y69295239D02*
X77583390Y69390477D01*
X77583390Y69390477D02*
X77631009Y69438096D01*
X77631009Y69438096D02*
X77726247Y69485715D01*
X77726247Y69485715D02*
X77964342Y69485715D01*
X77964342Y69485715D02*
X78059580Y69438096D01*
X78059580Y69438096D02*
X78107200Y69390477D01*
X78107200Y69390477D02*
X78154819Y69295239D01*
X78154819Y69295239D02*
X78154819Y69057144D01*
X78154819Y69057144D02*
X78107200Y68961906D01*
X78107200Y68961906D02*
X78059580Y68914287D01*
X77777319Y54388096D02*
X77777319Y54959524D01*
X78777319Y54673810D02*
X77777319Y54673810D01*
X78777319Y55292858D02*
X77777319Y55292858D01*
X77777319Y55292858D02*
X77777319Y55673810D01*
X77777319Y55673810D02*
X77824938Y55769048D01*
X77824938Y55769048D02*
X77872557Y55816667D01*
X77872557Y55816667D02*
X77967795Y55864286D01*
X77967795Y55864286D02*
X78110652Y55864286D01*
X78110652Y55864286D02*
X78205890Y55816667D01*
X78205890Y55816667D02*
X78253509Y55769048D01*
X78253509Y55769048D02*
X78301128Y55673810D01*
X78301128Y55673810D02*
X78301128Y55292858D01*
X77777319Y56197620D02*
X77777319Y56864286D01*
X77777319Y56864286D02*
X78777319Y56435715D01*
X63609819Y65093096D02*
X64419342Y65093096D01*
X64419342Y65093096D02*
X64514580Y65140715D01*
X64514580Y65140715D02*
X64562200Y65188334D01*
X64562200Y65188334D02*
X64609819Y65283572D01*
X64609819Y65283572D02*
X64609819Y65474048D01*
X64609819Y65474048D02*
X64562200Y65569286D01*
X64562200Y65569286D02*
X64514580Y65616905D01*
X64514580Y65616905D02*
X64419342Y65664524D01*
X64419342Y65664524D02*
X63609819Y65664524D01*
X64609819Y66664524D02*
X64609819Y66093096D01*
X64609819Y66378810D02*
X63609819Y66378810D01*
X63609819Y66378810D02*
X63752676Y66283572D01*
X63752676Y66283572D02*
X63847914Y66188334D01*
X63847914Y66188334D02*
X63895533Y66093096D01*
D12*
X7338400Y65652800D02*
X5039700Y65652800D01*
X5039700Y65944900D01*
X7338400Y65944900D01*
X7338400Y65652800D01*
G36*
X7338400Y65652800D02*
G01*
X5039700Y65652800D01*
X5039700Y65944900D01*
X7338400Y65944900D01*
X7338400Y65652800D01*
G37*
X7338400Y51454200D02*
X7138014Y51454200D01*
X6227735Y52108491D01*
X6092481Y52205534D01*
X5963036Y52298066D01*
X5840892Y52385042D01*
X5727540Y52465415D01*
X5624472Y52538139D01*
X5533177Y52602169D01*
X5455147Y52656457D01*
X5391873Y52699959D01*
X5344847Y52731628D01*
X5315559Y52750418D01*
X5305578Y52755442D01*
X5302917Y52741307D01*
X5300528Y52703493D01*
X5298444Y52643719D01*
X5296697Y52563704D01*
X5295320Y52465167D01*
X5294344Y52349829D01*
X5293803Y52219409D01*
X5293700Y52126550D01*
X5293700Y51505000D01*
X5039700Y51505000D01*
X5039700Y53130600D01*
X5142013Y53130600D01*
X5244327Y53130599D01*
X6150950Y52482899D01*
X6286016Y52386463D01*
X6415155Y52294368D01*
X6536875Y52207672D01*
X6649684Y52127432D01*
X6752093Y52054705D01*
X6842608Y51990548D01*
X6919740Y51936018D01*
X6981998Y51892173D01*
X7027889Y51860069D01*
X7055924Y51840763D01*
X7064636Y51835200D01*
X7065992Y51847506D01*
X7067263Y51882856D01*
X7068424Y51938889D01*
X7069448Y52013248D01*
X7070311Y52103576D01*
X7070988Y52207515D01*
X7071452Y52322706D01*
X7071680Y52446793D01*
X7071700Y52495600D01*
X7071700Y53156000D01*
X7338400Y53156000D01*
X7338400Y51454200D01*
G36*
X7338400Y51454200D02*
G01*
X7138014Y51454200D01*
X6227735Y52108491D01*
X6092481Y52205534D01*
X5963036Y52298066D01*
X5840892Y52385042D01*
X5727540Y52465415D01*
X5624472Y52538139D01*
X5533177Y52602169D01*
X5455147Y52656457D01*
X5391873Y52699959D01*
X5344847Y52731628D01*
X5315559Y52750418D01*
X5305578Y52755442D01*
X5302917Y52741307D01*
X5300528Y52703493D01*
X5298444Y52643719D01*
X5296697Y52563704D01*
X5295320Y52465167D01*
X5294344Y52349829D01*
X5293803Y52219409D01*
X5293700Y52126550D01*
X5293700Y51505000D01*
X5039700Y51505000D01*
X5039700Y53130600D01*
X5142013Y53130600D01*
X5244327Y53130599D01*
X6150950Y52482899D01*
X6286016Y52386463D01*
X6415155Y52294368D01*
X6536875Y52207672D01*
X6649684Y52127432D01*
X6752093Y52054705D01*
X6842608Y51990548D01*
X6919740Y51936018D01*
X6981998Y51892173D01*
X7027889Y51860069D01*
X7055924Y51840763D01*
X7064636Y51835200D01*
X7065992Y51847506D01*
X7067263Y51882856D01*
X7068424Y51938889D01*
X7069448Y52013248D01*
X7070311Y52103576D01*
X7070988Y52207515D01*
X7071452Y52322706D01*
X7071680Y52446793D01*
X7071700Y52495600D01*
X7071700Y53156000D01*
X7338400Y53156000D01*
X7338400Y51454200D01*
G37*
X7335640Y60100056D02*
X7332050Y59957513D01*
X6450067Y59340060D01*
X6316374Y59246335D01*
X6188727Y59156595D01*
X6068655Y59071930D01*
X5957683Y58993429D01*
X5857340Y58922179D01*
X5769153Y58859269D01*
X5694647Y58805787D01*
X5635352Y58762823D01*
X5592792Y58731464D01*
X5568497Y58712799D01*
X5563184Y58707903D01*
X5568660Y58704889D01*
X5588056Y58702273D01*
X5622609Y58700035D01*
X5673553Y58698153D01*
X5742125Y58696608D01*
X5829559Y58695378D01*
X5937091Y58694444D01*
X6065956Y58693785D01*
X6217389Y58693380D01*
X6392627Y58693208D01*
X6448341Y58693200D01*
X7338400Y58693200D01*
X7338400Y58401100D01*
X5039700Y58401100D01*
X5039843Y58543975D01*
X5039987Y58686850D01*
X5923340Y59302518D01*
X6057439Y59396060D01*
X6185658Y59485653D01*
X6306450Y59570207D01*
X6418266Y59648631D01*
X6519559Y59719836D01*
X6608782Y59782730D01*
X6684386Y59836224D01*
X6744824Y59879227D01*
X6788550Y59910648D01*
X6814014Y59929398D01*
X6820101Y59934343D01*
X6818551Y59937540D01*
X6807226Y59940310D01*
X6784631Y59942678D01*
X6749268Y59944674D01*
X6699644Y59946323D01*
X6634260Y59947654D01*
X6551623Y59948693D01*
X6450235Y59949469D01*
X6328601Y59950007D01*
X6185224Y59950337D01*
X6018610Y59950485D01*
X5936605Y59950500D01*
X5039700Y59950500D01*
X5039700Y60242600D01*
X7339231Y60242600D01*
X7335640Y60100056D01*
G36*
X7335640Y60100056D02*
G01*
X7332050Y59957513D01*
X6450067Y59340060D01*
X6316374Y59246335D01*
X6188727Y59156595D01*
X6068655Y59071930D01*
X5957683Y58993429D01*
X5857340Y58922179D01*
X5769153Y58859269D01*
X5694647Y58805787D01*
X5635352Y58762823D01*
X5592792Y58731464D01*
X5568497Y58712799D01*
X5563184Y58707903D01*
X5568660Y58704889D01*
X5588056Y58702273D01*
X5622609Y58700035D01*
X5673553Y58698153D01*
X5742125Y58696608D01*
X5829559Y58695378D01*
X5937091Y58694444D01*
X6065956Y58693785D01*
X6217389Y58693380D01*
X6392627Y58693208D01*
X6448341Y58693200D01*
X7338400Y58693200D01*
X7338400Y58401100D01*
X5039700Y58401100D01*
X5039843Y58543975D01*
X5039987Y58686850D01*
X5923340Y59302518D01*
X6057439Y59396060D01*
X6185658Y59485653D01*
X6306450Y59570207D01*
X6418266Y59648631D01*
X6519559Y59719836D01*
X6608782Y59782730D01*
X6684386Y59836224D01*
X6744824Y59879227D01*
X6788550Y59910648D01*
X6814014Y59929398D01*
X6820101Y59934343D01*
X6818551Y59937540D01*
X6807226Y59940310D01*
X6784631Y59942678D01*
X6749268Y59944674D01*
X6699644Y59946323D01*
X6634260Y59947654D01*
X6551623Y59948693D01*
X6450235Y59949469D01*
X6328601Y59950007D01*
X6185224Y59950337D01*
X6018610Y59950485D01*
X5936605Y59950500D01*
X5039700Y59950500D01*
X5039700Y60242600D01*
X7339231Y60242600D01*
X7335640Y60100056D01*
G37*
X5862025Y70973912D02*
X6035582Y70973854D01*
X6185801Y70973655D01*
X6314745Y70973154D01*
X6424475Y70972185D01*
X6517054Y70970586D01*
X6594543Y70968194D01*
X6659006Y70964846D01*
X6712503Y70960378D01*
X6757098Y70954626D01*
X6794852Y70947429D01*
X6827828Y70938621D01*
X6858088Y70928041D01*
X6887693Y70915524D01*
X6918706Y70900908D01*
X6944700Y70888191D01*
X7032011Y70834882D01*
X7118091Y70763473D01*
X7196141Y70680647D01*
X7259361Y70593085D01*
X7277467Y70561142D01*
X7318237Y70474596D01*
X7347555Y70390504D01*
X7367069Y70301721D01*
X7378425Y70201103D01*
X7382819Y70104150D01*
X7383942Y70036115D01*
X7384063Y69974224D01*
X7383232Y69924408D01*
X7381501Y69892601D01*
X7380949Y69888250D01*
X7346993Y69746215D01*
X7291056Y69602851D01*
X7285338Y69590779D01*
X7252326Y69528225D01*
X7216316Y69474995D01*
X7170465Y69421711D01*
X7136949Y69387365D01*
X7051121Y69311480D01*
X6962494Y69253979D01*
X6863233Y69210475D01*
X6772386Y69183179D01*
X6751442Y69178098D01*
X6729978Y69173748D01*
X6705934Y69170074D01*
X6677250Y69167019D01*
X6641865Y69164525D01*
X6597719Y69162536D01*
X6542753Y69160996D01*
X6474906Y69159848D01*
X6392118Y69159034D01*
X6292328Y69158499D01*
X6173477Y69158187D01*
X6033505Y69158039D01*
X5870351Y69158000D01*
X5039700Y69158000D01*
X5039700Y69435858D01*
X5842975Y69440207D01*
X6005962Y69441114D01*
X6145582Y69441985D01*
X6263866Y69442891D01*
X6362846Y69443903D01*
X6444554Y69445093D01*
X6511022Y69446533D01*
X6564282Y69448294D01*
X6606366Y69450448D01*
X6639305Y69453066D01*
X6665131Y69456219D01*
X6685878Y69459979D01*
X6703575Y69464418D01*
X6720256Y69469607D01*
X6725170Y69471254D01*
X6823438Y69511680D01*
X6902848Y69561230D01*
X6969360Y69623634D01*
X6970147Y69624524D01*
X7030875Y69704853D01*
X7074211Y69790523D01*
X7102390Y69887334D01*
X7117646Y70001086D01*
X7118225Y70008937D01*
X7117563Y70143673D01*
X7096443Y70267682D01*
X7055722Y70379207D01*
X6996262Y70476490D01*
X6918922Y70557772D01*
X6824561Y70621295D01*
X6816850Y70625280D01*
X6789199Y70638646D01*
X6761472Y70650160D01*
X6731624Y70659961D01*
X6697609Y70668186D01*
X6657379Y70674975D01*
X6608890Y70680465D01*
X6550093Y70684797D01*
X6478944Y70688108D01*
X6393397Y70690537D01*
X6291403Y70692223D01*
X6170918Y70693304D01*
X6029896Y70693918D01*
X5866289Y70694205D01*
X5798525Y70694256D01*
X5039700Y70694700D01*
X5039700Y70974100D01*
X5862025Y70973912D01*
G36*
X5862025Y70973912D02*
G01*
X6035582Y70973854D01*
X6185801Y70973655D01*
X6314745Y70973154D01*
X6424475Y70972185D01*
X6517054Y70970586D01*
X6594543Y70968194D01*
X6659006Y70964846D01*
X6712503Y70960378D01*
X6757098Y70954626D01*
X6794852Y70947429D01*
X6827828Y70938621D01*
X6858088Y70928041D01*
X6887693Y70915524D01*
X6918706Y70900908D01*
X6944700Y70888191D01*
X7032011Y70834882D01*
X7118091Y70763473D01*
X7196141Y70680647D01*
X7259361Y70593085D01*
X7277467Y70561142D01*
X7318237Y70474596D01*
X7347555Y70390504D01*
X7367069Y70301721D01*
X7378425Y70201103D01*
X7382819Y70104150D01*
X7383942Y70036115D01*
X7384063Y69974224D01*
X7383232Y69924408D01*
X7381501Y69892601D01*
X7380949Y69888250D01*
X7346993Y69746215D01*
X7291056Y69602851D01*
X7285338Y69590779D01*
X7252326Y69528225D01*
X7216316Y69474995D01*
X7170465Y69421711D01*
X7136949Y69387365D01*
X7051121Y69311480D01*
X6962494Y69253979D01*
X6863233Y69210475D01*
X6772386Y69183179D01*
X6751442Y69178098D01*
X6729978Y69173748D01*
X6705934Y69170074D01*
X6677250Y69167019D01*
X6641865Y69164525D01*
X6597719Y69162536D01*
X6542753Y69160996D01*
X6474906Y69159848D01*
X6392118Y69159034D01*
X6292328Y69158499D01*
X6173477Y69158187D01*
X6033505Y69158039D01*
X5870351Y69158000D01*
X5039700Y69158000D01*
X5039700Y69435858D01*
X5842975Y69440207D01*
X6005962Y69441114D01*
X6145582Y69441985D01*
X6263866Y69442891D01*
X6362846Y69443903D01*
X6444554Y69445093D01*
X6511022Y69446533D01*
X6564282Y69448294D01*
X6606366Y69450448D01*
X6639305Y69453066D01*
X6665131Y69456219D01*
X6685878Y69459979D01*
X6703575Y69464418D01*
X6720256Y69469607D01*
X6725170Y69471254D01*
X6823438Y69511680D01*
X6902848Y69561230D01*
X6969360Y69623634D01*
X6970147Y69624524D01*
X7030875Y69704853D01*
X7074211Y69790523D01*
X7102390Y69887334D01*
X7117646Y70001086D01*
X7118225Y70008937D01*
X7117563Y70143673D01*
X7096443Y70267682D01*
X7055722Y70379207D01*
X6996262Y70476490D01*
X6918922Y70557772D01*
X6824561Y70621295D01*
X6816850Y70625280D01*
X6789199Y70638646D01*
X6761472Y70650160D01*
X6731624Y70659961D01*
X6697609Y70668186D01*
X6657379Y70674975D01*
X6608890Y70680465D01*
X6550093Y70684797D01*
X6478944Y70688108D01*
X6393397Y70690537D01*
X6291403Y70692223D01*
X6170918Y70693304D01*
X6029896Y70693918D01*
X5866289Y70694205D01*
X5798525Y70694256D01*
X5039700Y70694700D01*
X5039700Y70974100D01*
X5862025Y70973912D01*
G37*
X5119075Y57915338D02*
X5179179Y57873051D01*
X5251009Y57822946D01*
X5332240Y57766610D01*
X5420546Y57705630D01*
X5513604Y57641590D01*
X5609088Y57576078D01*
X5704674Y57510679D01*
X5798035Y57446980D01*
X5886849Y57386566D01*
X5968789Y57331024D01*
X6041532Y57281940D01*
X6102752Y57240901D01*
X6150124Y57209491D01*
X6181323Y57189298D01*
X6194025Y57181907D01*
X6194100Y57181900D01*
X6206605Y57188861D01*
X6238082Y57208866D01*
X6286555Y57240594D01*
X6350048Y57282725D01*
X6426583Y57333939D01*
X6514184Y57392916D01*
X6610875Y57458336D01*
X6714679Y57528878D01*
X6764588Y57562900D01*
X6870873Y57635325D01*
X6970819Y57703244D01*
X7062467Y57765340D01*
X7143860Y57820295D01*
X7213039Y57866792D01*
X7268048Y57903512D01*
X7306928Y57929137D01*
X7327721Y57942351D01*
X7330686Y57943900D01*
X7333524Y57931977D01*
X7335891Y57899315D01*
X7337577Y57850573D01*
X7338367Y57790412D01*
X7338400Y57774817D01*
X7338400Y57605735D01*
X6887643Y57308092D01*
X6781855Y57237791D01*
X6687139Y57173954D01*
X6605157Y57117749D01*
X6537571Y57070346D01*
X6486042Y57032913D01*
X6452232Y57006618D01*
X6437802Y56992632D01*
X6437388Y56991400D01*
X6447752Y56980394D01*
X6477222Y56956897D01*
X6523701Y56922403D01*
X6585090Y56878407D01*
X6659292Y56826401D01*
X6744211Y56767881D01*
X6837748Y56704340D01*
X6884969Y56672577D01*
X7332050Y56372805D01*
X7335615Y56210694D01*
X7336685Y56142942D01*
X7336167Y56097039D01*
X7333744Y56069465D01*
X7329094Y56056699D01*
X7321898Y56055221D01*
X7321508Y56055364D01*
X7307915Y56063626D01*
X7275352Y56084877D01*
X7225816Y56117772D01*
X7161308Y56160967D01*
X7083826Y56213118D01*
X6995371Y56272881D01*
X6897940Y56338912D01*
X6793534Y56409867D01*
X6742158Y56444851D01*
X6180481Y56827556D01*
X6070465Y56752548D01*
X6033723Y56727497D01*
X5979314Y56690401D01*
X5910556Y56643522D01*
X5830769Y56589123D01*
X5743270Y56529466D01*
X5651380Y56466815D01*
X5579450Y56417773D01*
X5488168Y56355549D01*
X5400215Y56295617D01*
X5318617Y56240038D01*
X5246397Y56190869D01*
X5186578Y56150170D01*
X5142186Y56120000D01*
X5119075Y56104329D01*
X5039700Y56050653D01*
X5039806Y56225751D01*
X5039912Y56400850D01*
X5497006Y56702611D01*
X5593242Y56766379D01*
X5682588Y56826033D01*
X5762876Y56880094D01*
X5831938Y56927081D01*
X5887606Y56965512D01*
X5927710Y56993906D01*
X5950084Y57010783D01*
X5954100Y57014817D01*
X5943896Y57023875D01*
X5914719Y57045543D01*
X5868716Y57078327D01*
X5808038Y57120731D01*
X5734834Y57171261D01*
X5651251Y57228421D01*
X5559440Y57290715D01*
X5496900Y57332895D01*
X5039700Y57640529D01*
X5039700Y57971529D01*
X5119075Y57915338D01*
G36*
X5119075Y57915338D02*
G01*
X5179179Y57873051D01*
X5251009Y57822946D01*
X5332240Y57766610D01*
X5420546Y57705630D01*
X5513604Y57641590D01*
X5609088Y57576078D01*
X5704674Y57510679D01*
X5798035Y57446980D01*
X5886849Y57386566D01*
X5968789Y57331024D01*
X6041532Y57281940D01*
X6102752Y57240901D01*
X6150124Y57209491D01*
X6181323Y57189298D01*
X6194025Y57181907D01*
X6194100Y57181900D01*
X6206605Y57188861D01*
X6238082Y57208866D01*
X6286555Y57240594D01*
X6350048Y57282725D01*
X6426583Y57333939D01*
X6514184Y57392916D01*
X6610875Y57458336D01*
X6714679Y57528878D01*
X6764588Y57562900D01*
X6870873Y57635325D01*
X6970819Y57703244D01*
X7062467Y57765340D01*
X7143860Y57820295D01*
X7213039Y57866792D01*
X7268048Y57903512D01*
X7306928Y57929137D01*
X7327721Y57942351D01*
X7330686Y57943900D01*
X7333524Y57931977D01*
X7335891Y57899315D01*
X7337577Y57850573D01*
X7338367Y57790412D01*
X7338400Y57774817D01*
X7338400Y57605735D01*
X6887643Y57308092D01*
X6781855Y57237791D01*
X6687139Y57173954D01*
X6605157Y57117749D01*
X6537571Y57070346D01*
X6486042Y57032913D01*
X6452232Y57006618D01*
X6437802Y56992632D01*
X6437388Y56991400D01*
X6447752Y56980394D01*
X6477222Y56956897D01*
X6523701Y56922403D01*
X6585090Y56878407D01*
X6659292Y56826401D01*
X6744211Y56767881D01*
X6837748Y56704340D01*
X6884969Y56672577D01*
X7332050Y56372805D01*
X7335615Y56210694D01*
X7336685Y56142942D01*
X7336167Y56097039D01*
X7333744Y56069465D01*
X7329094Y56056699D01*
X7321898Y56055221D01*
X7321508Y56055364D01*
X7307915Y56063626D01*
X7275352Y56084877D01*
X7225816Y56117772D01*
X7161308Y56160967D01*
X7083826Y56213118D01*
X6995371Y56272881D01*
X6897940Y56338912D01*
X6793534Y56409867D01*
X6742158Y56444851D01*
X6180481Y56827556D01*
X6070465Y56752548D01*
X6033723Y56727497D01*
X5979314Y56690401D01*
X5910556Y56643522D01*
X5830769Y56589123D01*
X5743270Y56529466D01*
X5651380Y56466815D01*
X5579450Y56417773D01*
X5488168Y56355549D01*
X5400215Y56295617D01*
X5318617Y56240038D01*
X5246397Y56190869D01*
X5186578Y56150170D01*
X5142186Y56120000D01*
X5119075Y56104329D01*
X5039700Y56050653D01*
X5039806Y56225751D01*
X5039912Y56400850D01*
X5497006Y56702611D01*
X5593242Y56766379D01*
X5682588Y56826033D01*
X5762876Y56880094D01*
X5831938Y56927081D01*
X5887606Y56965512D01*
X5927710Y56993906D01*
X5950084Y57010783D01*
X5954100Y57014817D01*
X5943896Y57023875D01*
X5914719Y57045543D01*
X5868716Y57078327D01*
X5808038Y57120731D01*
X5734834Y57171261D01*
X5651251Y57228421D01*
X5559440Y57290715D01*
X5496900Y57332895D01*
X5039700Y57640529D01*
X5039700Y57971529D01*
X5119075Y57915338D01*
G37*
X6334114Y62834612D02*
X6338028Y62834252D01*
X6524624Y62807104D01*
X6694802Y62762219D01*
X6847941Y62700108D01*
X6983417Y62621283D01*
X7100608Y62526254D01*
X7198890Y62415533D01*
X7277640Y62289631D01*
X7336236Y62149059D01*
X7374054Y61994328D01*
X7375983Y61982500D01*
X7385895Y61882759D01*
X7387551Y61770260D01*
X7381262Y61656152D01*
X7367338Y61551589D01*
X7363423Y61531650D01*
X7329604Y61413943D01*
X7279674Y61296700D01*
X7249484Y61238934D01*
X7220145Y61191744D01*
X7186146Y61147735D01*
X7141977Y61099516D01*
X7104532Y61061750D01*
X7042181Y61002558D01*
X6987598Y60957435D01*
X6932917Y60920430D01*
X6874850Y60887964D01*
X6741454Y60827547D01*
X6603176Y60783521D01*
X6455802Y60755075D01*
X6295122Y60741396D01*
X6116922Y60741671D01*
X6116644Y60741681D01*
X6107359Y60742379D01*
X5941043Y60754896D01*
X5784701Y60781475D01*
X5644603Y60822577D01*
X5517732Y60879365D01*
X5401071Y60952998D01*
X5291605Y61044636D01*
X5266904Y61068604D01*
X5213530Y61123697D01*
X5173767Y61170595D01*
X5141700Y61217348D01*
X5111412Y61272003D01*
X5098704Y61297403D01*
X5060602Y61379839D01*
X5032986Y61453129D01*
X5013999Y61525043D01*
X5001785Y61603346D01*
X4994488Y61695808D01*
X4992381Y61742338D01*
X4992822Y61783683D01*
X5255600Y61783683D01*
X5265894Y61649648D01*
X5297415Y61528579D01*
X5351118Y61418137D01*
X5427958Y61315982D01*
X5460629Y61281619D01*
X5559122Y61200763D01*
X5675896Y61134790D01*
X5808096Y61084493D01*
X5952868Y61050666D01*
X6107359Y61034104D01*
X6268713Y61035601D01*
X6326845Y61040598D01*
X6431677Y61053846D01*
X6518891Y61070296D01*
X6596241Y61091983D01*
X6671484Y61120943D01*
X6722450Y61144395D01*
X6837167Y61212958D01*
X6935156Y61298522D01*
X7014565Y61398684D01*
X7073546Y61511045D01*
X7110249Y61633203D01*
X7113732Y61652300D01*
X7119311Y61710578D01*
X7120368Y61783116D01*
X7117254Y61859250D01*
X7110319Y61928319D01*
X7103379Y61966755D01*
X7063966Y62081996D01*
X7003273Y62190708D01*
X6925002Y62287791D01*
X6832853Y62368148D01*
X6792963Y62394448D01*
X6673320Y62453438D01*
X6536864Y62497857D01*
X6388041Y62527035D01*
X6231297Y62540302D01*
X6071076Y62536989D01*
X5944833Y62522187D01*
X5796316Y62488213D01*
X5663070Y62437429D01*
X5546577Y62370805D01*
X5448319Y62289308D01*
X5369775Y62193908D01*
X5326572Y62117806D01*
X5291193Y62032765D01*
X5269012Y61950926D01*
X5257918Y61862341D01*
X5255600Y61783683D01*
X4992822Y61783683D01*
X4994085Y61902250D01*
X5012808Y62046125D01*
X5049540Y62177625D01*
X5105271Y62300415D01*
X5171317Y62404875D01*
X5264447Y62513371D01*
X5377041Y62607889D01*
X5506826Y62687591D01*
X5651531Y62751642D01*
X5808885Y62799205D01*
X5976614Y62829446D01*
X6152447Y62841526D01*
X6334114Y62834612D01*
G36*
X6334114Y62834612D02*
G01*
X6338028Y62834252D01*
X6524624Y62807104D01*
X6694802Y62762219D01*
X6847941Y62700108D01*
X6983417Y62621283D01*
X7100608Y62526254D01*
X7198890Y62415533D01*
X7277640Y62289631D01*
X7336236Y62149059D01*
X7374054Y61994328D01*
X7375983Y61982500D01*
X7385895Y61882759D01*
X7387551Y61770260D01*
X7381262Y61656152D01*
X7367338Y61551589D01*
X7363423Y61531650D01*
X7329604Y61413943D01*
X7279674Y61296700D01*
X7249484Y61238934D01*
X7220145Y61191744D01*
X7186146Y61147735D01*
X7141977Y61099516D01*
X7104532Y61061750D01*
X7042181Y61002558D01*
X6987598Y60957435D01*
X6932917Y60920430D01*
X6874850Y60887964D01*
X6741454Y60827547D01*
X6603176Y60783521D01*
X6455802Y60755075D01*
X6295122Y60741396D01*
X6116922Y60741671D01*
X6116644Y60741681D01*
X6107359Y60742379D01*
X5941043Y60754896D01*
X5784701Y60781475D01*
X5644603Y60822577D01*
X5517732Y60879365D01*
X5401071Y60952998D01*
X5291605Y61044636D01*
X5266904Y61068604D01*
X5213530Y61123697D01*
X5173767Y61170595D01*
X5141700Y61217348D01*
X5111412Y61272003D01*
X5098704Y61297403D01*
X5060602Y61379839D01*
X5032986Y61453129D01*
X5013999Y61525043D01*
X5001785Y61603346D01*
X4994488Y61695808D01*
X4992381Y61742338D01*
X4992822Y61783683D01*
X5255600Y61783683D01*
X5265894Y61649648D01*
X5297415Y61528579D01*
X5351118Y61418137D01*
X5427958Y61315982D01*
X5460629Y61281619D01*
X5559122Y61200763D01*
X5675896Y61134790D01*
X5808096Y61084493D01*
X5952868Y61050666D01*
X6107359Y61034104D01*
X6268713Y61035601D01*
X6326845Y61040598D01*
X6431677Y61053846D01*
X6518891Y61070296D01*
X6596241Y61091983D01*
X6671484Y61120943D01*
X6722450Y61144395D01*
X6837167Y61212958D01*
X6935156Y61298522D01*
X7014565Y61398684D01*
X7073546Y61511045D01*
X7110249Y61633203D01*
X7113732Y61652300D01*
X7119311Y61710578D01*
X7120368Y61783116D01*
X7117254Y61859250D01*
X7110319Y61928319D01*
X7103379Y61966755D01*
X7063966Y62081996D01*
X7003273Y62190708D01*
X6925002Y62287791D01*
X6832853Y62368148D01*
X6792963Y62394448D01*
X6673320Y62453438D01*
X6536864Y62497857D01*
X6388041Y62527035D01*
X6231297Y62540302D01*
X6071076Y62536989D01*
X5944833Y62522187D01*
X5796316Y62488213D01*
X5663070Y62437429D01*
X5546577Y62370805D01*
X5448319Y62289308D01*
X5369775Y62193908D01*
X5326572Y62117806D01*
X5291193Y62032765D01*
X5269012Y61950926D01*
X5257918Y61862341D01*
X5255600Y61783683D01*
X4992822Y61783683D01*
X4994085Y61902250D01*
X5012808Y62046125D01*
X5049540Y62177625D01*
X5105271Y62300415D01*
X5171317Y62404875D01*
X5264447Y62513371D01*
X5377041Y62607889D01*
X5506826Y62687591D01*
X5651531Y62751642D01*
X5808885Y62799205D01*
X5976614Y62829446D01*
X6152447Y62841526D01*
X6334114Y62834612D01*
G37*
X5074624Y65087116D02*
X5092065Y65075426D01*
X5128155Y65050874D01*
X5180631Y65015013D01*
X5247228Y64969396D01*
X5325682Y64915574D01*
X5413729Y64855100D01*
X5509103Y64789526D01*
X5592150Y64732377D01*
X5693022Y64662945D01*
X5789378Y64596641D01*
X5878801Y64535129D01*
X5958871Y64480070D01*
X6027170Y64433129D01*
X6081278Y64395968D01*
X6118777Y64370250D01*
X6134967Y64359185D01*
X6195185Y64318227D01*
X6750917Y64697262D01*
X6857310Y64769804D01*
X6957610Y64838149D01*
X7049814Y64900933D01*
X7131919Y64956796D01*
X7201920Y65004375D01*
X7257816Y65042307D01*
X7297601Y65069230D01*
X7319273Y65083783D01*
X7322525Y65085898D01*
X7329115Y65084507D01*
X7333709Y65069069D01*
X7336594Y65036629D01*
X7338058Y64984235D01*
X7338400Y64922830D01*
X7338400Y64750160D01*
X6887550Y64451319D01*
X6791991Y64387615D01*
X6703338Y64327812D01*
X6623774Y64273435D01*
X6555482Y64226009D01*
X6500645Y64187058D01*
X6461447Y64158107D01*
X6440072Y64140680D01*
X6436700Y64136492D01*
X6446908Y64126231D01*
X6476089Y64103427D01*
X6522076Y64069615D01*
X6582702Y64026334D01*
X6655799Y63975121D01*
X6739202Y63917513D01*
X6830743Y63855047D01*
X6887482Y63816678D01*
X7338265Y63512850D01*
X7338332Y63349464D01*
X7338400Y63186078D01*
X7303475Y63208570D01*
X7286298Y63220006D01*
X7250284Y63244274D01*
X7197589Y63279909D01*
X7130371Y63325450D01*
X7050788Y63379434D01*
X6960997Y63440397D01*
X6863157Y63506876D01*
X6759425Y63577409D01*
X6739446Y63590999D01*
X6635525Y63661582D01*
X6537599Y63727877D01*
X6447744Y63788494D01*
X6368036Y63842043D01*
X6300549Y63887134D01*
X6247360Y63922377D01*
X6210544Y63946382D01*
X6192176Y63957759D01*
X6190823Y63958426D01*
X6175615Y63953038D01*
X6140361Y63933338D01*
X6085710Y63899745D01*
X6012309Y63852677D01*
X5920805Y63792553D01*
X5811845Y63719790D01*
X5686077Y63634808D01*
X5611143Y63583808D01*
X5504747Y63511301D01*
X5404756Y63443294D01*
X5313116Y63381101D01*
X5231772Y63326037D01*
X5162671Y63279415D01*
X5107759Y63242551D01*
X5068981Y63216758D01*
X5048285Y63203350D01*
X5045341Y63201700D01*
X5043276Y63213627D01*
X5041550Y63246318D01*
X5040316Y63295139D01*
X5039728Y63355455D01*
X5039700Y63372592D01*
X5039700Y63543485D01*
X5496768Y63845667D01*
X5592988Y63909573D01*
X5682301Y63969454D01*
X5762540Y64023816D01*
X5831539Y64071167D01*
X5887134Y64110012D01*
X5927157Y64138859D01*
X5949443Y64156213D01*
X5953403Y64160550D01*
X5943078Y64170055D01*
X5913734Y64192074D01*
X5867533Y64225105D01*
X5806637Y64267644D01*
X5733210Y64318188D01*
X5649415Y64375234D01*
X5557412Y64437280D01*
X5496525Y64478050D01*
X5040081Y64782850D01*
X5039890Y64946235D01*
X5039699Y65109621D01*
X5074624Y65087116D01*
G36*
X5074624Y65087116D02*
G01*
X5092065Y65075426D01*
X5128155Y65050874D01*
X5180631Y65015013D01*
X5247228Y64969396D01*
X5325682Y64915574D01*
X5413729Y64855100D01*
X5509103Y64789526D01*
X5592150Y64732377D01*
X5693022Y64662945D01*
X5789378Y64596641D01*
X5878801Y64535129D01*
X5958871Y64480070D01*
X6027170Y64433129D01*
X6081278Y64395968D01*
X6118777Y64370250D01*
X6134967Y64359185D01*
X6195185Y64318227D01*
X6750917Y64697262D01*
X6857310Y64769804D01*
X6957610Y64838149D01*
X7049814Y64900933D01*
X7131919Y64956796D01*
X7201920Y65004375D01*
X7257816Y65042307D01*
X7297601Y65069230D01*
X7319273Y65083783D01*
X7322525Y65085898D01*
X7329115Y65084507D01*
X7333709Y65069069D01*
X7336594Y65036629D01*
X7338058Y64984235D01*
X7338400Y64922830D01*
X7338400Y64750160D01*
X6887550Y64451319D01*
X6791991Y64387615D01*
X6703338Y64327812D01*
X6623774Y64273435D01*
X6555482Y64226009D01*
X6500645Y64187058D01*
X6461447Y64158107D01*
X6440072Y64140680D01*
X6436700Y64136492D01*
X6446908Y64126231D01*
X6476089Y64103427D01*
X6522076Y64069615D01*
X6582702Y64026334D01*
X6655799Y63975121D01*
X6739202Y63917513D01*
X6830743Y63855047D01*
X6887482Y63816678D01*
X7338265Y63512850D01*
X7338332Y63349464D01*
X7338400Y63186078D01*
X7303475Y63208570D01*
X7286298Y63220006D01*
X7250284Y63244274D01*
X7197589Y63279909D01*
X7130371Y63325450D01*
X7050788Y63379434D01*
X6960997Y63440397D01*
X6863157Y63506876D01*
X6759425Y63577409D01*
X6739446Y63590999D01*
X6635525Y63661582D01*
X6537599Y63727877D01*
X6447744Y63788494D01*
X6368036Y63842043D01*
X6300549Y63887134D01*
X6247360Y63922377D01*
X6210544Y63946382D01*
X6192176Y63957759D01*
X6190823Y63958426D01*
X6175615Y63953038D01*
X6140361Y63933338D01*
X6085710Y63899745D01*
X6012309Y63852677D01*
X5920805Y63792553D01*
X5811845Y63719790D01*
X5686077Y63634808D01*
X5611143Y63583808D01*
X5504747Y63511301D01*
X5404756Y63443294D01*
X5313116Y63381101D01*
X5231772Y63326037D01*
X5162671Y63279415D01*
X5107759Y63242551D01*
X5068981Y63216758D01*
X5048285Y63203350D01*
X5045341Y63201700D01*
X5043276Y63213627D01*
X5041550Y63246318D01*
X5040316Y63295139D01*
X5039728Y63355455D01*
X5039700Y63372592D01*
X5039700Y63543485D01*
X5496768Y63845667D01*
X5592988Y63909573D01*
X5682301Y63969454D01*
X5762540Y64023816D01*
X5831539Y64071167D01*
X5887134Y64110012D01*
X5927157Y64138859D01*
X5949443Y64156213D01*
X5953403Y64160550D01*
X5943078Y64170055D01*
X5913734Y64192074D01*
X5867533Y64225105D01*
X5806637Y64267644D01*
X5733210Y64318188D01*
X5649415Y64375234D01*
X5557412Y64437280D01*
X5496525Y64478050D01*
X5040081Y64782850D01*
X5039890Y64946235D01*
X5039699Y65109621D01*
X5074624Y65087116D01*
G37*
X6389486Y55684386D02*
X6561956Y55655194D01*
X6724698Y55608576D01*
X6873512Y55544855D01*
X6906600Y55527103D01*
X6995158Y55468289D01*
X7083242Y55393253D01*
X7164533Y55308421D01*
X7232716Y55220223D01*
X7271363Y55155902D01*
X7313816Y55066362D01*
X7344449Y54982203D01*
X7365080Y54895828D01*
X7377522Y54799641D01*
X7383584Y54686350D01*
X7384293Y54570098D01*
X7379176Y54477331D01*
X7370941Y54419650D01*
X7330048Y54267690D01*
X7270310Y54131709D01*
X7190510Y54009406D01*
X7103122Y53911650D01*
X6983923Y53811704D01*
X6849198Y53730591D01*
X6697890Y53667775D01*
X6538300Y53624655D01*
X6451895Y53610760D01*
X6349359Y53601065D01*
X6238344Y53595728D01*
X6228617Y53595657D01*
X6126502Y53594902D01*
X6021487Y53598745D01*
X5930952Y53607410D01*
X5903300Y53611754D01*
X5728917Y53653350D01*
X5570711Y53712489D01*
X5429579Y53788554D01*
X5306415Y53880925D01*
X5202115Y53988983D01*
X5117575Y54112110D01*
X5083358Y54178350D01*
X5052031Y54249616D01*
X5028978Y54313605D01*
X5013004Y54376619D01*
X5002915Y54444958D01*
X4997519Y54524926D01*
X4995621Y54622822D01*
X4995578Y54636133D01*
X5257745Y54636133D01*
X5259003Y54604037D01*
X5275685Y54467723D01*
X5312347Y54346671D01*
X5369748Y54239535D01*
X5448649Y54144974D01*
X5549808Y54061645D01*
X5575106Y54044698D01*
X5651479Y54000686D01*
X5732694Y53965544D01*
X5826049Y53936505D01*
X5916000Y53915471D01*
X6007553Y53901867D01*
X6114447Y53894891D01*
X6228617Y53894367D01*
X6342001Y53900114D01*
X6446536Y53911954D01*
X6531950Y53929116D01*
X6675092Y53977925D01*
X6799720Y54043226D01*
X6905301Y54124532D01*
X6991304Y54221354D01*
X7057198Y54333203D01*
X7100271Y54451400D01*
X7114205Y54529655D01*
X7119273Y54622177D01*
X7115827Y54719562D01*
X7104218Y54812406D01*
X7084797Y54891307D01*
X7083710Y54894480D01*
X7031200Y55007893D01*
X6957983Y55108535D01*
X6865766Y55195583D01*
X6756258Y55268209D01*
X6631167Y55325590D01*
X6492203Y55366899D01*
X6341073Y55391311D01*
X6179486Y55398001D01*
X6055624Y55391192D01*
X5888230Y55366464D01*
X5740371Y55325628D01*
X5611851Y55268570D01*
X5502472Y55195177D01*
X5412038Y55105333D01*
X5340351Y54998926D01*
X5324150Y54967270D01*
X5290552Y54887981D01*
X5269284Y54811927D01*
X5258847Y54730761D01*
X5257745Y54636133D01*
X4995578Y54636133D01*
X4995560Y54641900D01*
X4996607Y54743243D01*
X5000973Y54825681D01*
X5009996Y54895632D01*
X5025013Y54959512D01*
X5047359Y55023739D01*
X5078372Y55094730D01*
X5098735Y55137200D01*
X5129970Y55197441D01*
X5160597Y55246517D01*
X5196527Y55292505D01*
X5243670Y55343477D01*
X5266996Y55367077D01*
X5361749Y55452769D01*
X5458854Y55520719D01*
X5565971Y55575553D01*
X5686335Y55620478D01*
X5855713Y55664199D01*
X6032165Y55689210D01*
X6211489Y55695832D01*
X6389486Y55684386D01*
G36*
X6389486Y55684386D02*
G01*
X6561956Y55655194D01*
X6724698Y55608576D01*
X6873512Y55544855D01*
X6906600Y55527103D01*
X6995158Y55468289D01*
X7083242Y55393253D01*
X7164533Y55308421D01*
X7232716Y55220223D01*
X7271363Y55155902D01*
X7313816Y55066362D01*
X7344449Y54982203D01*
X7365080Y54895828D01*
X7377522Y54799641D01*
X7383584Y54686350D01*
X7384293Y54570098D01*
X7379176Y54477331D01*
X7370941Y54419650D01*
X7330048Y54267690D01*
X7270310Y54131709D01*
X7190510Y54009406D01*
X7103122Y53911650D01*
X6983923Y53811704D01*
X6849198Y53730591D01*
X6697890Y53667775D01*
X6538300Y53624655D01*
X6451895Y53610760D01*
X6349359Y53601065D01*
X6238344Y53595728D01*
X6228617Y53595657D01*
X6126502Y53594902D01*
X6021487Y53598745D01*
X5930952Y53607410D01*
X5903300Y53611754D01*
X5728917Y53653350D01*
X5570711Y53712489D01*
X5429579Y53788554D01*
X5306415Y53880925D01*
X5202115Y53988983D01*
X5117575Y54112110D01*
X5083358Y54178350D01*
X5052031Y54249616D01*
X5028978Y54313605D01*
X5013004Y54376619D01*
X5002915Y54444958D01*
X4997519Y54524926D01*
X4995621Y54622822D01*
X4995578Y54636133D01*
X5257745Y54636133D01*
X5259003Y54604037D01*
X5275685Y54467723D01*
X5312347Y54346671D01*
X5369748Y54239535D01*
X5448649Y54144974D01*
X5549808Y54061645D01*
X5575106Y54044698D01*
X5651479Y54000686D01*
X5732694Y53965544D01*
X5826049Y53936505D01*
X5916000Y53915471D01*
X6007553Y53901867D01*
X6114447Y53894891D01*
X6228617Y53894367D01*
X6342001Y53900114D01*
X6446536Y53911954D01*
X6531950Y53929116D01*
X6675092Y53977925D01*
X6799720Y54043226D01*
X6905301Y54124532D01*
X6991304Y54221354D01*
X7057198Y54333203D01*
X7100271Y54451400D01*
X7114205Y54529655D01*
X7119273Y54622177D01*
X7115827Y54719562D01*
X7104218Y54812406D01*
X7084797Y54891307D01*
X7083710Y54894480D01*
X7031200Y55007893D01*
X6957983Y55108535D01*
X6865766Y55195583D01*
X6756258Y55268209D01*
X6631167Y55325590D01*
X6492203Y55366899D01*
X6341073Y55391311D01*
X6179486Y55398001D01*
X6055624Y55391192D01*
X5888230Y55366464D01*
X5740371Y55325628D01*
X5611851Y55268570D01*
X5502472Y55195177D01*
X5412038Y55105333D01*
X5340351Y54998926D01*
X5324150Y54967270D01*
X5290552Y54887981D01*
X5269284Y54811927D01*
X5258847Y54730761D01*
X5257745Y54636133D01*
X4995578Y54636133D01*
X4995560Y54641900D01*
X4996607Y54743243D01*
X5000973Y54825681D01*
X5009996Y54895632D01*
X5025013Y54959512D01*
X5047359Y55023739D01*
X5078372Y55094730D01*
X5098735Y55137200D01*
X5129970Y55197441D01*
X5160597Y55246517D01*
X5196527Y55292505D01*
X5243670Y55343477D01*
X5266996Y55367077D01*
X5361749Y55452769D01*
X5458854Y55520719D01*
X5565971Y55575553D01*
X5686335Y55620478D01*
X5855713Y55664199D01*
X6032165Y55689210D01*
X6211489Y55695832D01*
X6389486Y55684386D01*
G37*
X6252550Y68646653D02*
X6386878Y68638156D01*
X6504625Y68622456D01*
X6613964Y68598043D01*
X6723067Y68563404D01*
X6743736Y68555807D01*
X6845159Y68513669D01*
X6930496Y68467686D01*
X7008467Y68412243D01*
X7087789Y68341725D01*
X7110139Y68319800D01*
X7205170Y68211749D01*
X7278361Y68097196D01*
X7333268Y67970145D01*
X7351320Y67913052D01*
X7366271Y67843011D01*
X7377142Y67755663D01*
X7383644Y67658815D01*
X7385487Y67560277D01*
X7382383Y67467855D01*
X7374044Y67389359D01*
X7371269Y67373650D01*
X7329121Y67218658D01*
X7266107Y67077881D01*
X7182853Y66951999D01*
X7079984Y66841691D01*
X6958126Y66747636D01*
X6817907Y66670514D01*
X6671650Y66614605D01*
X6573619Y66587125D01*
X6478736Y66567952D01*
X6379211Y66556034D01*
X6267255Y66550320D01*
X6189050Y66549431D01*
X6163187Y66549827D01*
X6112313Y66550606D01*
X6035495Y66553825D01*
X5966452Y66558629D01*
X5913037Y66564559D01*
X5903300Y66566120D01*
X5730212Y66606893D01*
X5572694Y66665477D01*
X5431780Y66741157D01*
X5308507Y66833215D01*
X5203911Y66940939D01*
X5119027Y67063611D01*
X5083358Y67132350D01*
X5052031Y67203616D01*
X5028978Y67267605D01*
X5013004Y67330619D01*
X5002915Y67398958D01*
X4997519Y67478926D01*
X4995621Y67576822D01*
X4995560Y67595900D01*
X4995745Y67613812D01*
X5256996Y67613812D01*
X5261012Y67526327D01*
X5270611Y67442698D01*
X5285274Y67371770D01*
X5292319Y67349275D01*
X5347346Y67232002D01*
X5423010Y67128722D01*
X5518279Y67040173D01*
X5632125Y66967089D01*
X5763518Y66910208D01*
X5911428Y66870267D01*
X5978356Y66858701D01*
X6063713Y66850549D01*
X6163187Y66847963D01*
X6268709Y66850581D01*
X6372213Y66858040D01*
X6465632Y66869976D01*
X6531950Y66883596D01*
X6669954Y66930676D01*
X6792704Y66995287D01*
X6898620Y67075964D01*
X6986119Y67171239D01*
X7053622Y67279647D01*
X7099547Y67399719D01*
X7103217Y67413590D01*
X7114396Y67482148D01*
X7118678Y67565447D01*
X7116432Y67654604D01*
X7108024Y67740738D01*
X7093821Y67814968D01*
X7085491Y67842535D01*
X7030675Y67963484D01*
X6957562Y68067798D01*
X6865828Y68155692D01*
X6755146Y68227378D01*
X6625193Y68283071D01*
X6475642Y68322984D01*
X6319677Y68346030D01*
X6156554Y68353103D01*
X5998863Y68341914D01*
X5849642Y68313284D01*
X5711928Y68268034D01*
X5588759Y68206987D01*
X5483172Y68130964D01*
X5465420Y68114962D01*
X5391340Y68031071D01*
X5329383Y67932004D01*
X5284338Y67826245D01*
X5267806Y67764973D01*
X5259087Y67696309D01*
X5256996Y67613812D01*
X4995745Y67613812D01*
X4996605Y67697195D01*
X5000964Y67779595D01*
X5009976Y67849525D01*
X5024976Y67913413D01*
X5047301Y67977687D01*
X5078288Y68048772D01*
X5098580Y68091200D01*
X5127641Y68147787D01*
X5155707Y68193875D01*
X5188078Y68236607D01*
X5230051Y68283124D01*
X5274367Y68328122D01*
X5328573Y68380639D01*
X5373298Y68419617D01*
X5415993Y68450453D01*
X5464109Y68478541D01*
X5523475Y68508491D01*
X5663563Y68568005D01*
X5805215Y68610396D01*
X5953731Y68636670D01*
X6114411Y68647829D01*
X6252550Y68646653D01*
G36*
X6252550Y68646653D02*
G01*
X6386878Y68638156D01*
X6504625Y68622456D01*
X6613964Y68598043D01*
X6723067Y68563404D01*
X6743736Y68555807D01*
X6845159Y68513669D01*
X6930496Y68467686D01*
X7008467Y68412243D01*
X7087789Y68341725D01*
X7110139Y68319800D01*
X7205170Y68211749D01*
X7278361Y68097196D01*
X7333268Y67970145D01*
X7351320Y67913052D01*
X7366271Y67843011D01*
X7377142Y67755663D01*
X7383644Y67658815D01*
X7385487Y67560277D01*
X7382383Y67467855D01*
X7374044Y67389359D01*
X7371269Y67373650D01*
X7329121Y67218658D01*
X7266107Y67077881D01*
X7182853Y66951999D01*
X7079984Y66841691D01*
X6958126Y66747636D01*
X6817907Y66670514D01*
X6671650Y66614605D01*
X6573619Y66587125D01*
X6478736Y66567952D01*
X6379211Y66556034D01*
X6267255Y66550320D01*
X6189050Y66549431D01*
X6163187Y66549827D01*
X6112313Y66550606D01*
X6035495Y66553825D01*
X5966452Y66558629D01*
X5913037Y66564559D01*
X5903300Y66566120D01*
X5730212Y66606893D01*
X5572694Y66665477D01*
X5431780Y66741157D01*
X5308507Y66833215D01*
X5203911Y66940939D01*
X5119027Y67063611D01*
X5083358Y67132350D01*
X5052031Y67203616D01*
X5028978Y67267605D01*
X5013004Y67330619D01*
X5002915Y67398958D01*
X4997519Y67478926D01*
X4995621Y67576822D01*
X4995560Y67595900D01*
X4995745Y67613812D01*
X5256996Y67613812D01*
X5261012Y67526327D01*
X5270611Y67442698D01*
X5285274Y67371770D01*
X5292319Y67349275D01*
X5347346Y67232002D01*
X5423010Y67128722D01*
X5518279Y67040173D01*
X5632125Y66967089D01*
X5763518Y66910208D01*
X5911428Y66870267D01*
X5978356Y66858701D01*
X6063713Y66850549D01*
X6163187Y66847963D01*
X6268709Y66850581D01*
X6372213Y66858040D01*
X6465632Y66869976D01*
X6531950Y66883596D01*
X6669954Y66930676D01*
X6792704Y66995287D01*
X6898620Y67075964D01*
X6986119Y67171239D01*
X7053622Y67279647D01*
X7099547Y67399719D01*
X7103217Y67413590D01*
X7114396Y67482148D01*
X7118678Y67565447D01*
X7116432Y67654604D01*
X7108024Y67740738D01*
X7093821Y67814968D01*
X7085491Y67842535D01*
X7030675Y67963484D01*
X6957562Y68067798D01*
X6865828Y68155692D01*
X6755146Y68227378D01*
X6625193Y68283071D01*
X6475642Y68322984D01*
X6319677Y68346030D01*
X6156554Y68353103D01*
X5998863Y68341914D01*
X5849642Y68313284D01*
X5711928Y68268034D01*
X5588759Y68206987D01*
X5483172Y68130964D01*
X5465420Y68114962D01*
X5391340Y68031071D01*
X5329383Y67932004D01*
X5284338Y67826245D01*
X5267806Y67764973D01*
X5259087Y67696309D01*
X5256996Y67613812D01*
X4995745Y67613812D01*
X4996605Y67697195D01*
X5000964Y67779595D01*
X5009976Y67849525D01*
X5024976Y67913413D01*
X5047301Y67977687D01*
X5078288Y68048772D01*
X5098580Y68091200D01*
X5127641Y68147787D01*
X5155707Y68193875D01*
X5188078Y68236607D01*
X5230051Y68283124D01*
X5274367Y68328122D01*
X5328573Y68380639D01*
X5373298Y68419617D01*
X5415993Y68450453D01*
X5464109Y68478541D01*
X5523475Y68508491D01*
X5663563Y68568005D01*
X5805215Y68610396D01*
X5953731Y68636670D01*
X6114411Y68647829D01*
X6252550Y68646653D01*
G37*
X6789953Y73164998D02*
X6907416Y73141625D01*
X7013556Y73096727D01*
X7110588Y73029503D01*
X7155553Y72988098D01*
X7235854Y72890439D01*
X7300791Y72774275D01*
X7348834Y72642401D01*
X7353084Y72626822D01*
X7368453Y72548643D01*
X7378968Y72453832D01*
X7384369Y72350739D01*
X7384399Y72247712D01*
X7378797Y72153101D01*
X7369791Y72087498D01*
X7334039Y71953740D01*
X7280675Y71831888D01*
X7211645Y71723987D01*
X7128898Y71632078D01*
X7034377Y71558205D01*
X6930031Y71504411D01*
X6817805Y71472739D01*
X6779091Y71467461D01*
X6735150Y71463050D01*
X6731556Y71606163D01*
X6730660Y71672641D01*
X6732106Y71717144D01*
X6736183Y71743010D01*
X6743178Y71753580D01*
X6744256Y71753988D01*
X6849542Y71793504D01*
X6934700Y71846508D01*
X7002539Y71915582D01*
X7055869Y72003306D01*
X7081115Y72063354D01*
X7100349Y72133721D01*
X7113850Y72219914D01*
X7121009Y72312881D01*
X7121216Y72403570D01*
X7113863Y72482930D01*
X7110576Y72500887D01*
X7079982Y72602433D01*
X7035035Y72689672D01*
X6978354Y72761482D01*
X6912558Y72816745D01*
X6840266Y72854341D01*
X6764099Y72873149D01*
X6686677Y72872052D01*
X6610618Y72849928D01*
X6538541Y72805658D01*
X6494738Y72764111D01*
X6465830Y72728549D01*
X6439550Y72687597D01*
X6414658Y72638122D01*
X6389914Y72576991D01*
X6364076Y72501073D01*
X6335904Y72407235D01*
X6304158Y72292346D01*
X6296445Y72263463D01*
X6262075Y72138103D01*
X6231011Y72034329D01*
X6201904Y71948754D01*
X6173409Y71877992D01*
X6144177Y71818660D01*
X6112861Y71767371D01*
X6082694Y71726435D01*
X6009610Y71649662D01*
X5927661Y71593324D01*
X5834103Y71556312D01*
X5726192Y71537519D01*
X5609649Y71535457D01*
X5546178Y71538705D01*
X5499873Y71543533D01*
X5462498Y71551808D01*
X5425822Y71565396D01*
X5381609Y71586166D01*
X5377818Y71588037D01*
X5269347Y71655214D01*
X5178110Y71740619D01*
X5104480Y71843487D01*
X5048829Y71963050D01*
X5011529Y72098541D01*
X4992953Y72249195D01*
X4991927Y72382867D01*
X5004406Y72521174D01*
X5031131Y72642318D01*
X5073434Y72751005D01*
X5118500Y72830782D01*
X5187920Y72921111D01*
X5269809Y72999117D01*
X5359717Y73061735D01*
X5453199Y73105900D01*
X5545805Y73128546D01*
X5551457Y73129176D01*
X5623900Y73136653D01*
X5623900Y72994778D01*
X5622955Y72926721D01*
X5619930Y72881358D01*
X5614539Y72856042D01*
X5608025Y72848351D01*
X5501231Y72806462D01*
X5413133Y72747387D01*
X5343714Y72671106D01*
X5292959Y72577600D01*
X5260850Y72466849D01*
X5254725Y72429345D01*
X5247877Y72314021D01*
X5258342Y72203420D01*
X5284789Y72101007D01*
X5325883Y72010244D01*
X5380293Y71934597D01*
X5446686Y71877529D01*
X5472868Y71862401D01*
X5538255Y71839436D01*
X5613510Y71828838D01*
X5686059Y71831953D01*
X5710344Y71837022D01*
X5758388Y71854969D01*
X5801442Y71882757D01*
X5840688Y71922503D01*
X5877312Y71976320D01*
X5912497Y72046325D01*
X5947427Y72134631D01*
X5983287Y72243353D01*
X6021260Y72374607D01*
X6030685Y72409200D01*
X6069102Y72545950D01*
X6104976Y72660634D01*
X6139695Y72756275D01*
X6174645Y72835902D01*
X6211214Y72902539D01*
X6250789Y72959214D01*
X6294757Y73008952D01*
X6314304Y73027976D01*
X6384425Y73085937D01*
X6454663Y73126192D01*
X6532227Y73151663D01*
X6624329Y73165272D01*
X6658950Y73167648D01*
X6789953Y73164998D01*
G36*
X6789953Y73164998D02*
G01*
X6907416Y73141625D01*
X7013556Y73096727D01*
X7110588Y73029503D01*
X7155553Y72988098D01*
X7235854Y72890439D01*
X7300791Y72774275D01*
X7348834Y72642401D01*
X7353084Y72626822D01*
X7368453Y72548643D01*
X7378968Y72453832D01*
X7384369Y72350739D01*
X7384399Y72247712D01*
X7378797Y72153101D01*
X7369791Y72087498D01*
X7334039Y71953740D01*
X7280675Y71831888D01*
X7211645Y71723987D01*
X7128898Y71632078D01*
X7034377Y71558205D01*
X6930031Y71504411D01*
X6817805Y71472739D01*
X6779091Y71467461D01*
X6735150Y71463050D01*
X6731556Y71606163D01*
X6730660Y71672641D01*
X6732106Y71717144D01*
X6736183Y71743010D01*
X6743178Y71753580D01*
X6744256Y71753988D01*
X6849542Y71793504D01*
X6934700Y71846508D01*
X7002539Y71915582D01*
X7055869Y72003306D01*
X7081115Y72063354D01*
X7100349Y72133721D01*
X7113850Y72219914D01*
X7121009Y72312881D01*
X7121216Y72403570D01*
X7113863Y72482930D01*
X7110576Y72500887D01*
X7079982Y72602433D01*
X7035035Y72689672D01*
X6978354Y72761482D01*
X6912558Y72816745D01*
X6840266Y72854341D01*
X6764099Y72873149D01*
X6686677Y72872052D01*
X6610618Y72849928D01*
X6538541Y72805658D01*
X6494738Y72764111D01*
X6465830Y72728549D01*
X6439550Y72687597D01*
X6414658Y72638122D01*
X6389914Y72576991D01*
X6364076Y72501073D01*
X6335904Y72407235D01*
X6304158Y72292346D01*
X6296445Y72263463D01*
X6262075Y72138103D01*
X6231011Y72034329D01*
X6201904Y71948754D01*
X6173409Y71877992D01*
X6144177Y71818660D01*
X6112861Y71767371D01*
X6082694Y71726435D01*
X6009610Y71649662D01*
X5927661Y71593324D01*
X5834103Y71556312D01*
X5726192Y71537519D01*
X5609649Y71535457D01*
X5546178Y71538705D01*
X5499873Y71543533D01*
X5462498Y71551808D01*
X5425822Y71565396D01*
X5381609Y71586166D01*
X5377818Y71588037D01*
X5269347Y71655214D01*
X5178110Y71740619D01*
X5104480Y71843487D01*
X5048829Y71963050D01*
X5011529Y72098541D01*
X4992953Y72249195D01*
X4991927Y72382867D01*
X5004406Y72521174D01*
X5031131Y72642318D01*
X5073434Y72751005D01*
X5118500Y72830782D01*
X5187920Y72921111D01*
X5269809Y72999117D01*
X5359717Y73061735D01*
X5453199Y73105900D01*
X5545805Y73128546D01*
X5551457Y73129176D01*
X5623900Y73136653D01*
X5623900Y72994778D01*
X5622955Y72926721D01*
X5619930Y72881358D01*
X5614539Y72856042D01*
X5608025Y72848351D01*
X5501231Y72806462D01*
X5413133Y72747387D01*
X5343714Y72671106D01*
X5292959Y72577600D01*
X5260850Y72466849D01*
X5254725Y72429345D01*
X5247877Y72314021D01*
X5258342Y72203420D01*
X5284789Y72101007D01*
X5325883Y72010244D01*
X5380293Y71934597D01*
X5446686Y71877529D01*
X5472868Y71862401D01*
X5538255Y71839436D01*
X5613510Y71828838D01*
X5686059Y71831953D01*
X5710344Y71837022D01*
X5758388Y71854969D01*
X5801442Y71882757D01*
X5840688Y71922503D01*
X5877312Y71976320D01*
X5912497Y72046325D01*
X5947427Y72134631D01*
X5983287Y72243353D01*
X6021260Y72374607D01*
X6030685Y72409200D01*
X6069102Y72545950D01*
X6104976Y72660634D01*
X6139695Y72756275D01*
X6174645Y72835902D01*
X6211214Y72902539D01*
X6250789Y72959214D01*
X6294757Y73008952D01*
X6314304Y73027976D01*
X6384425Y73085937D01*
X6454663Y73126192D01*
X6532227Y73151663D01*
X6624329Y73165272D01*
X6658950Y73167648D01*
X6789953Y73164998D01*
G37*
X4784076Y73086228D02*
X4798895Y73066402D01*
X4808568Y73042892D01*
X4808220Y73025339D01*
X4804600Y73022294D01*
X4792064Y73015432D01*
X4758975Y72996779D01*
X4706817Y72967182D01*
X4637072Y72927488D01*
X4551221Y72878543D01*
X4450747Y72821194D01*
X4337131Y72756285D01*
X4211857Y72684664D01*
X4076405Y72607178D01*
X3932259Y72524671D01*
X3780899Y72437990D01*
X3668100Y72373364D01*
X2544150Y71729306D01*
X2535566Y71672378D01*
X2533391Y71645564D01*
X2531357Y71597009D01*
X2529541Y71530374D01*
X2528020Y71449317D01*
X2526872Y71357498D01*
X2526173Y71258577D01*
X2526041Y71219940D01*
X2525100Y70824430D01*
X2744175Y70816826D01*
X2794240Y70815342D01*
X2866992Y70813548D01*
X2959720Y70811497D01*
X3069714Y70809241D01*
X3194263Y70806831D01*
X3330656Y70804318D01*
X3476184Y70801755D01*
X3628135Y70799194D01*
X3783798Y70796685D01*
X3871300Y70795326D01*
X4020801Y70792969D01*
X4162771Y70790595D01*
X4295184Y70788247D01*
X4416015Y70785966D01*
X4523237Y70783797D01*
X4614824Y70781780D01*
X4688750Y70779958D01*
X4742990Y70778374D01*
X4775518Y70777070D01*
X4784566Y70776240D01*
X4785792Y70762897D01*
X4787234Y70726866D01*
X4788854Y70670852D01*
X4790612Y70597560D01*
X4792468Y70509696D01*
X4794382Y70409963D01*
X4796315Y70301067D01*
X4798227Y70185712D01*
X4800079Y70066603D01*
X4801830Y69946446D01*
X4803440Y69827945D01*
X4804872Y69713805D01*
X4806083Y69606730D01*
X4807035Y69509426D01*
X4807689Y69424598D01*
X4808003Y69354950D01*
X4807940Y69303187D01*
X4807458Y69272014D01*
X4806770Y69263737D01*
X4793863Y69262950D01*
X4757777Y69261774D01*
X4700731Y69260252D01*
X4624942Y69258427D01*
X4532628Y69256339D01*
X4426007Y69254033D01*
X4307297Y69251549D01*
X4178716Y69248930D01*
X4042481Y69246219D01*
X3900811Y69243457D01*
X3755924Y69240687D01*
X3610037Y69237952D01*
X3465368Y69235293D01*
X3324135Y69232752D01*
X3188556Y69230373D01*
X3060848Y69228197D01*
X2943231Y69226266D01*
X2837921Y69224623D01*
X2747137Y69223310D01*
X2673095Y69222370D01*
X2618015Y69221844D01*
X2604475Y69221769D01*
X2537800Y69221500D01*
X2537799Y68810866D01*
X2537960Y68711334D01*
X2538416Y68620172D01*
X2539127Y68540422D01*
X2540054Y68475126D01*
X2541157Y68427328D01*
X2542398Y68400070D01*
X2543189Y68394844D01*
X2556410Y68394497D01*
X2593120Y68395108D01*
X2651428Y68396612D01*
X2729445Y68398946D01*
X2825280Y68402047D01*
X2937043Y68405850D01*
X3062843Y68410292D01*
X3200789Y68415309D01*
X3348993Y68420838D01*
X3505562Y68426816D01*
X3587764Y68430006D01*
X3750391Y68436318D01*
X3907452Y68442350D01*
X4056843Y68448023D01*
X4196458Y68453261D01*
X4324191Y68457987D01*
X4437936Y68462124D01*
X4535587Y68465595D01*
X4615040Y68468323D01*
X4674187Y68470231D01*
X4710924Y68471241D01*
X4719025Y68471378D01*
X4811100Y68472200D01*
X4811100Y66684916D01*
X4630125Y66676742D01*
X4587737Y66674971D01*
X4522431Y66672437D01*
X4436672Y66669227D01*
X4332927Y66665430D01*
X4213663Y66661135D01*
X4081347Y66656429D01*
X3938445Y66651402D01*
X3787424Y66646140D01*
X3630750Y66640733D01*
X3483950Y66635713D01*
X3329766Y66630408D01*
X3183067Y66625249D01*
X3045812Y66620312D01*
X2919964Y66615673D01*
X2807485Y66611408D01*
X2710335Y66607593D01*
X2630477Y66604303D01*
X2569873Y66601614D01*
X2530483Y66599602D01*
X2514271Y66598343D01*
X2513970Y66598241D01*
X2513214Y66584776D01*
X2513758Y66549749D01*
X2515414Y66496955D01*
X2517994Y66430188D01*
X2521310Y66353244D01*
X2525173Y66269917D01*
X2529396Y66184001D01*
X2533789Y66099292D01*
X2538164Y66019584D01*
X2542334Y65948672D01*
X2546110Y65890350D01*
X2549303Y65848413D01*
X2551725Y65826655D01*
X2552366Y65824499D01*
X2565639Y65823485D01*
X2602473Y65822222D01*
X2661033Y65820742D01*
X2739482Y65819077D01*
X2835982Y65817259D01*
X2948698Y65815319D01*
X3075793Y65813290D01*
X3215430Y65811203D01*
X3365773Y65809091D01*
X3524985Y65806984D01*
X3661676Y65805273D01*
X3826820Y65803196D01*
X3984610Y65801087D01*
X4133208Y65798977D01*
X4270779Y65796900D01*
X4395485Y65794886D01*
X4505491Y65792968D01*
X4598959Y65791177D01*
X4674053Y65789545D01*
X4728936Y65788103D01*
X4761772Y65786885D01*
X4770963Y65786069D01*
X4772456Y65772486D01*
X4774152Y65736393D01*
X4775976Y65680681D01*
X4777853Y65608239D01*
X4779707Y65521957D01*
X4781463Y65424724D01*
X4782961Y65325660D01*
X4789211Y64870998D01*
X3676266Y64115724D01*
X2563322Y63360450D01*
X2563200Y62630200D01*
X2821990Y62630199D01*
X2881157Y62630416D01*
X2962663Y62631041D01*
X3063450Y62632036D01*
X3180459Y62633363D01*
X3310633Y62634983D01*
X3450915Y62636859D01*
X3598246Y62638951D01*
X3749569Y62641223D01*
X3901825Y62643635D01*
X3915350Y62643856D01*
X4058523Y62646129D01*
X4194075Y62648146D01*
X4319892Y62649883D01*
X4433863Y62651318D01*
X4533874Y62652429D01*
X4617814Y62653192D01*
X4683569Y62653585D01*
X4729027Y62653585D01*
X4752075Y62653170D01*
X4754560Y62652872D01*
X4755171Y62639666D01*
X4755185Y62603562D01*
X4754659Y62547057D01*
X4753647Y62472645D01*
X4752203Y62382821D01*
X4750383Y62280080D01*
X4748240Y62166916D01*
X4745830Y62045824D01*
X4743208Y61919301D01*
X4740428Y61789839D01*
X4737544Y61659935D01*
X4734613Y61532082D01*
X4731687Y61408777D01*
X4728823Y61292514D01*
X4726075Y61185787D01*
X4723497Y61091092D01*
X4721144Y61010924D01*
X4719071Y60947776D01*
X4717333Y60904146D01*
X4715985Y60882526D01*
X4715691Y60880775D01*
X4709843Y60877848D01*
X4693518Y60875279D01*
X4665368Y60873048D01*
X4624046Y60871136D01*
X4568206Y60869521D01*
X4496501Y60868185D01*
X4407584Y60867108D01*
X4300109Y60866269D01*
X4172728Y60865648D01*
X4024095Y60865227D01*
X3852863Y60864984D01*
X3657685Y60864900D01*
X2571902Y60864900D01*
X2580212Y60645825D01*
X2583159Y60557643D01*
X2585652Y60463080D01*
X2587486Y60371437D01*
X2588458Y60292015D01*
X2588561Y60264897D01*
X2588599Y60103045D01*
X3648504Y60099797D01*
X4708408Y60096550D01*
X2730380Y58585250D01*
X3234165Y58577449D01*
X3373348Y58575476D01*
X3529186Y58573576D01*
X3694006Y58571824D01*
X3860132Y58570293D01*
X4019889Y58569056D01*
X4165603Y58568188D01*
X4228192Y58567924D01*
X4718435Y58566200D01*
X4726591Y58461425D01*
X4728785Y58420279D01*
X4730761Y58358372D01*
X4732436Y58280338D01*
X4733727Y58190817D01*
X4734551Y58094444D01*
X4734823Y58004029D01*
X4734900Y57651409D01*
X3641709Y56924529D01*
X2548519Y56197650D01*
X2557148Y55848400D01*
X2559480Y55757043D01*
X2561733Y55674432D01*
X2563805Y55603838D01*
X2565597Y55548531D01*
X2567007Y55511783D01*
X2567934Y55496865D01*
X2567990Y55496705D01*
X2580720Y55496588D01*
X2617028Y55496957D01*
X2675096Y55497778D01*
X2753108Y55499021D01*
X2849247Y55500652D01*
X2961695Y55502640D01*
X3088636Y55504954D01*
X3228253Y55507559D01*
X3378728Y55510426D01*
X3538246Y55513521D01*
X3687477Y55516465D01*
X3853590Y55519742D01*
X4012316Y55522829D01*
X4161833Y55525691D01*
X4300322Y55528296D01*
X4425964Y55530611D01*
X4536939Y55532604D01*
X4631427Y55534242D01*
X4707609Y55535492D01*
X4763664Y55536321D01*
X4797774Y55536697D01*
X4808203Y55536622D01*
X4808886Y55523915D01*
X4809752Y55487836D01*
X4810776Y55430413D01*
X4811930Y55353673D01*
X4813188Y55259644D01*
X4814525Y55150352D01*
X4815915Y55027826D01*
X4817330Y54894093D01*
X4818745Y54751180D01*
X4819820Y54636010D01*
X4827985Y53737443D01*
X3730517Y53745918D01*
X3565022Y53747268D01*
X3406304Y53748703D01*
X3256272Y53750197D01*
X3116832Y53751725D01*
X2989893Y53753262D01*
X2877361Y53754782D01*
X2781144Y53756260D01*
X2703149Y53757670D01*
X2645284Y53758987D01*
X2609457Y53760186D01*
X2598125Y53761005D01*
X2563200Y53767618D01*
X2564684Y53490384D01*
X2565504Y53403343D01*
X2566941Y53319776D01*
X2568855Y53244835D01*
X2571110Y53183675D01*
X2573568Y53141449D01*
X2574209Y53134347D01*
X2582250Y53055545D01*
X3623650Y52297973D01*
X3768574Y52192495D01*
X3907931Y52090970D01*
X4040318Y51994426D01*
X4164328Y51903891D01*
X4278559Y51820394D01*
X4381605Y51744963D01*
X4472063Y51678627D01*
X4548528Y51622415D01*
X4609597Y51577354D01*
X4653863Y51544474D01*
X4679924Y51524803D01*
X4686501Y51519525D01*
X4700232Y51502944D01*
X4697767Y51487820D01*
X4684012Y51469515D01*
X4660071Y51440381D01*
X3583060Y52224012D01*
X3436013Y52331020D01*
X3294743Y52433855D01*
X3160604Y52531528D01*
X3034954Y52623052D01*
X2919149Y52707436D01*
X2814545Y52783693D01*
X2722498Y52850832D01*
X2644364Y52907867D01*
X2581500Y52953806D01*
X2535261Y52987663D01*
X2507003Y53008447D01*
X2498079Y53015147D01*
X2495890Y53029212D01*
X2493394Y53065611D01*
X2490712Y53121283D01*
X2487966Y53193167D01*
X2485278Y53278200D01*
X2482770Y53373321D01*
X2481411Y53433569D01*
X2472714Y53844488D01*
X3289482Y53836697D01*
X3442557Y53835164D01*
X3596897Y53833480D01*
X3749129Y53831693D01*
X3895881Y53829846D01*
X4033780Y53827985D01*
X4159453Y53826156D01*
X4269527Y53824404D01*
X4360632Y53822774D01*
X4423979Y53821441D01*
X4741708Y53813976D01*
X4736959Y54631163D01*
X4736095Y54772759D01*
X4735198Y54906669D01*
X4734289Y55030765D01*
X4733385Y55142915D01*
X4732508Y55240990D01*
X4731675Y55322859D01*
X4730907Y55386392D01*
X4730223Y55429460D01*
X4729642Y55449933D01*
X4729483Y55451362D01*
X4716665Y55451606D01*
X4680471Y55451347D01*
X4622921Y55450621D01*
X4546034Y55449461D01*
X4451830Y55447902D01*
X4342327Y55445978D01*
X4219546Y55443723D01*
X4085504Y55441173D01*
X3942221Y55438360D01*
X3819604Y55435889D01*
X3663454Y55432745D01*
X3509749Y55429722D01*
X3361168Y55426868D01*
X3220390Y55424232D01*
X3090095Y55421862D01*
X2972961Y55419806D01*
X2871668Y55418112D01*
X2788896Y55416829D01*
X2727323Y55416006D01*
X2702900Y55415761D01*
X2493350Y55414118D01*
X2485517Y55551884D01*
X2482653Y55608136D01*
X2479316Y55683219D01*
X2475771Y55770573D01*
X2472283Y55863640D01*
X2469117Y55955861D01*
X2468854Y55963978D01*
X2460024Y56238306D01*
X4659060Y57696250D01*
X4651510Y58077250D01*
X4649452Y58173625D01*
X4647277Y58262094D01*
X4645090Y58339378D01*
X4642993Y58402198D01*
X4641090Y58447277D01*
X4639483Y58471336D01*
X4639029Y58474125D01*
X4633274Y58477053D01*
X4617047Y58479623D01*
X4589000Y58481855D01*
X4547784Y58483768D01*
X4492051Y58485383D01*
X4420454Y58486719D01*
X4331645Y58487796D01*
X4224275Y58488634D01*
X4096997Y58489254D01*
X3948462Y58489674D01*
X3777322Y58489916D01*
X3582231Y58489999D01*
X3566898Y58490000D01*
X3398284Y58490129D01*
X3238949Y58490506D01*
X3090594Y58491112D01*
X2954922Y58491930D01*
X2833633Y58492942D01*
X2728431Y58494130D01*
X2641015Y58495476D01*
X2573090Y58496964D01*
X2526355Y58498574D01*
X2502513Y58500289D01*
X2499699Y58501132D01*
X2509574Y58510252D01*
X2538286Y58533699D01*
X2584462Y58570410D01*
X2646735Y58619324D01*
X2723732Y58679376D01*
X2814083Y58749505D01*
X2916419Y58828647D01*
X3029368Y58915741D01*
X3151560Y59009722D01*
X3281624Y59109529D01*
X3418191Y59214099D01*
X3483949Y59264372D01*
X3623046Y59370717D01*
X3756286Y59472690D01*
X3882301Y59569239D01*
X3999720Y59659309D01*
X4107174Y59741846D01*
X4203296Y59815797D01*
X4286714Y59880107D01*
X4356061Y59933724D01*
X4409967Y59975592D01*
X4447062Y60004659D01*
X4465978Y60019870D01*
X4468200Y60021935D01*
X4455823Y60022690D01*
X4419987Y60023192D01*
X4362631Y60023448D01*
X4285692Y60023465D01*
X4191111Y60023249D01*
X4080825Y60022806D01*
X3956775Y60022143D01*
X3820898Y60021267D01*
X3675135Y60020184D01*
X3521423Y60018901D01*
X3491750Y60018638D01*
X2515301Y60009885D01*
X2507777Y60231017D01*
X2504856Y60322440D01*
X2501761Y60428815D01*
X2498778Y60539699D01*
X2496192Y60644648D01*
X2495073Y60694687D01*
X2489894Y60937225D01*
X2700025Y60945512D01*
X2749526Y60946950D01*
X2821633Y60948308D01*
X2913555Y60949566D01*
X3022497Y60950701D01*
X3145666Y60951693D01*
X3280270Y60952519D01*
X3423515Y60953158D01*
X3572609Y60953588D01*
X3724757Y60953788D01*
X3771152Y60953800D01*
X4632149Y60953799D01*
X4638316Y60995075D01*
X4640004Y61017246D01*
X4641931Y61061186D01*
X4644049Y61124237D01*
X4646311Y61203741D01*
X4648669Y61297039D01*
X4651079Y61401474D01*
X4653491Y61514388D01*
X4655861Y61633121D01*
X4658139Y61755017D01*
X4660281Y61877418D01*
X4662238Y61997665D01*
X4663964Y62113099D01*
X4665411Y62221064D01*
X4666534Y62318901D01*
X4667285Y62403952D01*
X4667617Y62473559D01*
X4667484Y62525064D01*
X4666838Y62555808D01*
X4665998Y62563634D01*
X4652449Y62564593D01*
X4615363Y62565157D01*
X4556600Y62565339D01*
X4478020Y62565155D01*
X4381484Y62564617D01*
X4268851Y62563741D01*
X4141981Y62562538D01*
X4002735Y62561025D01*
X3852971Y62559214D01*
X3694551Y62557120D01*
X3577731Y62555468D01*
X3414397Y62553140D01*
X3258477Y62551008D01*
X3111821Y62549090D01*
X2976281Y62547408D01*
X2853708Y62545980D01*
X2745953Y62544828D01*
X2654867Y62543971D01*
X2582302Y62543429D01*
X2530108Y62543223D01*
X2500136Y62543372D01*
X2493358Y62543707D01*
X2492365Y62556878D01*
X2491207Y62592483D01*
X2489939Y62647557D01*
X2488618Y62719137D01*
X2487300Y62804256D01*
X2486041Y62899950D01*
X2485183Y62975658D01*
X2480650Y63403667D01*
X3591900Y64157914D01*
X4703150Y64912162D01*
X4698357Y65311056D01*
X4697135Y65408905D01*
X4695929Y65498169D01*
X4694789Y65575795D01*
X4693762Y65638732D01*
X4692898Y65683927D01*
X4692244Y65708329D01*
X4692007Y65711783D01*
X4679375Y65712177D01*
X4643164Y65712790D01*
X4585197Y65713600D01*
X4507294Y65714587D01*
X4411275Y65715730D01*
X4298963Y65717009D01*
X4172177Y65718402D01*
X4032740Y65719888D01*
X3882471Y65721448D01*
X3723192Y65723059D01*
X3579200Y65724483D01*
X2467950Y65735350D01*
X2445128Y66203595D01*
X2440086Y66310014D01*
X2435708Y66408230D01*
X2432101Y66495406D01*
X2429370Y66568706D01*
X2427620Y66625293D01*
X2426957Y66662332D01*
X2427486Y66676984D01*
X2427546Y66677080D01*
X2440588Y66678215D01*
X2476791Y66680129D01*
X2533935Y66682741D01*
X2609795Y66685969D01*
X2702150Y66689735D01*
X2808775Y66693955D01*
X2927448Y66698551D01*
X3055947Y66703441D01*
X3192048Y66708544D01*
X3333529Y66713780D01*
X3478166Y66719067D01*
X3623737Y66724326D01*
X3768019Y66729475D01*
X3908788Y66734433D01*
X4043823Y66739121D01*
X4170900Y66743456D01*
X4287797Y66747359D01*
X4392289Y66750748D01*
X4482156Y66753543D01*
X4555173Y66755663D01*
X4609117Y66757027D01*
X4641767Y66757555D01*
X4642825Y66757558D01*
X4722200Y66757700D01*
X4722200Y68383300D01*
X4630125Y68383244D01*
X4602697Y68382741D01*
X4552084Y68381303D01*
X4480481Y68379009D01*
X4390082Y68375937D01*
X4283081Y68372166D01*
X4161674Y68367774D01*
X4028056Y68362839D01*
X3884419Y68357441D01*
X3732960Y68351657D01*
X3575873Y68345566D01*
X3566500Y68345200D01*
X3409976Y68339112D01*
X3259566Y68333324D01*
X3117388Y68327914D01*
X2985561Y68322960D01*
X2866206Y68318539D01*
X2761442Y68314730D01*
X2673388Y68311610D01*
X2604165Y68309256D01*
X2555891Y68307747D01*
X2530687Y68307160D01*
X2529620Y68307155D01*
X2464291Y68307099D01*
X2459114Y68799225D01*
X2458084Y68908514D01*
X2457362Y69009687D01*
X2456949Y69099967D01*
X2456849Y69176577D01*
X2457064Y69236739D01*
X2457596Y69277677D01*
X2458448Y69296613D01*
X2458681Y69297555D01*
X2471733Y69298686D01*
X2507917Y69300143D01*
X2564970Y69301885D01*
X2640628Y69303870D01*
X2732626Y69306057D01*
X2838700Y69308404D01*
X2956586Y69310871D01*
X3084020Y69313415D01*
X3218737Y69315995D01*
X3358474Y69318570D01*
X3500965Y69321099D01*
X3643947Y69323539D01*
X3785156Y69325851D01*
X3922326Y69327991D01*
X4053195Y69329920D01*
X4175497Y69331595D01*
X4286969Y69332976D01*
X4385346Y69334020D01*
X4468364Y69334686D01*
X4498772Y69334846D01*
X4726195Y69335800D01*
X4717122Y70011741D01*
X4715276Y70140361D01*
X4713308Y70261214D01*
X4711274Y70371941D01*
X4709228Y70470179D01*
X4707225Y70553567D01*
X4705318Y70619745D01*
X4703563Y70666350D01*
X4702014Y70691022D01*
X4701375Y70694366D01*
X4687993Y70695605D01*
X4651487Y70697164D01*
X4594131Y70699002D01*
X4518199Y70701075D01*
X4425966Y70703342D01*
X4319703Y70705761D01*
X4201687Y70708288D01*
X4074190Y70710882D01*
X3939485Y70713499D01*
X3799848Y70716099D01*
X3657552Y70718638D01*
X3514870Y70721073D01*
X3374077Y70723364D01*
X3237446Y70725466D01*
X3107252Y70727339D01*
X2985767Y70728939D01*
X2875266Y70730224D01*
X2778022Y70731152D01*
X2699725Y70731665D01*
X2448900Y70732800D01*
X2448900Y71770278D01*
X3600725Y72429464D01*
X3758411Y72519657D01*
X3910031Y72606283D01*
X4054114Y72688507D01*
X4189188Y72765493D01*
X4313785Y72836408D01*
X4426435Y72900416D01*
X4525665Y72956683D01*
X4610008Y73004374D01*
X4677992Y73042655D01*
X4728147Y73070690D01*
X4759003Y73087645D01*
X4768985Y73092729D01*
X4784076Y73086228D01*
G36*
X4784076Y73086228D02*
G01*
X4798895Y73066402D01*
X4808568Y73042892D01*
X4808220Y73025339D01*
X4804600Y73022294D01*
X4792064Y73015432D01*
X4758975Y72996779D01*
X4706817Y72967182D01*
X4637072Y72927488D01*
X4551221Y72878543D01*
X4450747Y72821194D01*
X4337131Y72756285D01*
X4211857Y72684664D01*
X4076405Y72607178D01*
X3932259Y72524671D01*
X3780899Y72437990D01*
X3668100Y72373364D01*
X2544150Y71729306D01*
X2535566Y71672378D01*
X2533391Y71645564D01*
X2531357Y71597009D01*
X2529541Y71530374D01*
X2528020Y71449317D01*
X2526872Y71357498D01*
X2526173Y71258577D01*
X2526041Y71219940D01*
X2525100Y70824430D01*
X2744175Y70816826D01*
X2794240Y70815342D01*
X2866992Y70813548D01*
X2959720Y70811497D01*
X3069714Y70809241D01*
X3194263Y70806831D01*
X3330656Y70804318D01*
X3476184Y70801755D01*
X3628135Y70799194D01*
X3783798Y70796685D01*
X3871300Y70795326D01*
X4020801Y70792969D01*
X4162771Y70790595D01*
X4295184Y70788247D01*
X4416015Y70785966D01*
X4523237Y70783797D01*
X4614824Y70781780D01*
X4688750Y70779958D01*
X4742990Y70778374D01*
X4775518Y70777070D01*
X4784566Y70776240D01*
X4785792Y70762897D01*
X4787234Y70726866D01*
X4788854Y70670852D01*
X4790612Y70597560D01*
X4792468Y70509696D01*
X4794382Y70409963D01*
X4796315Y70301067D01*
X4798227Y70185712D01*
X4800079Y70066603D01*
X4801830Y69946446D01*
X4803440Y69827945D01*
X4804872Y69713805D01*
X4806083Y69606730D01*
X4807035Y69509426D01*
X4807689Y69424598D01*
X4808003Y69354950D01*
X4807940Y69303187D01*
X4807458Y69272014D01*
X4806770Y69263737D01*
X4793863Y69262950D01*
X4757777Y69261774D01*
X4700731Y69260252D01*
X4624942Y69258427D01*
X4532628Y69256339D01*
X4426007Y69254033D01*
X4307297Y69251549D01*
X4178716Y69248930D01*
X4042481Y69246219D01*
X3900811Y69243457D01*
X3755924Y69240687D01*
X3610037Y69237952D01*
X3465368Y69235293D01*
X3324135Y69232752D01*
X3188556Y69230373D01*
X3060848Y69228197D01*
X2943231Y69226266D01*
X2837921Y69224623D01*
X2747137Y69223310D01*
X2673095Y69222370D01*
X2618015Y69221844D01*
X2604475Y69221769D01*
X2537800Y69221500D01*
X2537799Y68810866D01*
X2537960Y68711334D01*
X2538416Y68620172D01*
X2539127Y68540422D01*
X2540054Y68475126D01*
X2541157Y68427328D01*
X2542398Y68400070D01*
X2543189Y68394844D01*
X2556410Y68394497D01*
X2593120Y68395108D01*
X2651428Y68396612D01*
X2729445Y68398946D01*
X2825280Y68402047D01*
X2937043Y68405850D01*
X3062843Y68410292D01*
X3200789Y68415309D01*
X3348993Y68420838D01*
X3505562Y68426816D01*
X3587764Y68430006D01*
X3750391Y68436318D01*
X3907452Y68442350D01*
X4056843Y68448023D01*
X4196458Y68453261D01*
X4324191Y68457987D01*
X4437936Y68462124D01*
X4535587Y68465595D01*
X4615040Y68468323D01*
X4674187Y68470231D01*
X4710924Y68471241D01*
X4719025Y68471378D01*
X4811100Y68472200D01*
X4811100Y66684916D01*
X4630125Y66676742D01*
X4587737Y66674971D01*
X4522431Y66672437D01*
X4436672Y66669227D01*
X4332927Y66665430D01*
X4213663Y66661135D01*
X4081347Y66656429D01*
X3938445Y66651402D01*
X3787424Y66646140D01*
X3630750Y66640733D01*
X3483950Y66635713D01*
X3329766Y66630408D01*
X3183067Y66625249D01*
X3045812Y66620312D01*
X2919964Y66615673D01*
X2807485Y66611408D01*
X2710335Y66607593D01*
X2630477Y66604303D01*
X2569873Y66601614D01*
X2530483Y66599602D01*
X2514271Y66598343D01*
X2513970Y66598241D01*
X2513214Y66584776D01*
X2513758Y66549749D01*
X2515414Y66496955D01*
X2517994Y66430188D01*
X2521310Y66353244D01*
X2525173Y66269917D01*
X2529396Y66184001D01*
X2533789Y66099292D01*
X2538164Y66019584D01*
X2542334Y65948672D01*
X2546110Y65890350D01*
X2549303Y65848413D01*
X2551725Y65826655D01*
X2552366Y65824499D01*
X2565639Y65823485D01*
X2602473Y65822222D01*
X2661033Y65820742D01*
X2739482Y65819077D01*
X2835982Y65817259D01*
X2948698Y65815319D01*
X3075793Y65813290D01*
X3215430Y65811203D01*
X3365773Y65809091D01*
X3524985Y65806984D01*
X3661676Y65805273D01*
X3826820Y65803196D01*
X3984610Y65801087D01*
X4133208Y65798977D01*
X4270779Y65796900D01*
X4395485Y65794886D01*
X4505491Y65792968D01*
X4598959Y65791177D01*
X4674053Y65789545D01*
X4728936Y65788103D01*
X4761772Y65786885D01*
X4770963Y65786069D01*
X4772456Y65772486D01*
X4774152Y65736393D01*
X4775976Y65680681D01*
X4777853Y65608239D01*
X4779707Y65521957D01*
X4781463Y65424724D01*
X4782961Y65325660D01*
X4789211Y64870998D01*
X3676266Y64115724D01*
X2563322Y63360450D01*
X2563200Y62630200D01*
X2821990Y62630199D01*
X2881157Y62630416D01*
X2962663Y62631041D01*
X3063450Y62632036D01*
X3180459Y62633363D01*
X3310633Y62634983D01*
X3450915Y62636859D01*
X3598246Y62638951D01*
X3749569Y62641223D01*
X3901825Y62643635D01*
X3915350Y62643856D01*
X4058523Y62646129D01*
X4194075Y62648146D01*
X4319892Y62649883D01*
X4433863Y62651318D01*
X4533874Y62652429D01*
X4617814Y62653192D01*
X4683569Y62653585D01*
X4729027Y62653585D01*
X4752075Y62653170D01*
X4754560Y62652872D01*
X4755171Y62639666D01*
X4755185Y62603562D01*
X4754659Y62547057D01*
X4753647Y62472645D01*
X4752203Y62382821D01*
X4750383Y62280080D01*
X4748240Y62166916D01*
X4745830Y62045824D01*
X4743208Y61919301D01*
X4740428Y61789839D01*
X4737544Y61659935D01*
X4734613Y61532082D01*
X4731687Y61408777D01*
X4728823Y61292514D01*
X4726075Y61185787D01*
X4723497Y61091092D01*
X4721144Y61010924D01*
X4719071Y60947776D01*
X4717333Y60904146D01*
X4715985Y60882526D01*
X4715691Y60880775D01*
X4709843Y60877848D01*
X4693518Y60875279D01*
X4665368Y60873048D01*
X4624046Y60871136D01*
X4568206Y60869521D01*
X4496501Y60868185D01*
X4407584Y60867108D01*
X4300109Y60866269D01*
X4172728Y60865648D01*
X4024095Y60865227D01*
X3852863Y60864984D01*
X3657685Y60864900D01*
X2571902Y60864900D01*
X2580212Y60645825D01*
X2583159Y60557643D01*
X2585652Y60463080D01*
X2587486Y60371437D01*
X2588458Y60292015D01*
X2588561Y60264897D01*
X2588599Y60103045D01*
X3648504Y60099797D01*
X4708408Y60096550D01*
X2730380Y58585250D01*
X3234165Y58577449D01*
X3373348Y58575476D01*
X3529186Y58573576D01*
X3694006Y58571824D01*
X3860132Y58570293D01*
X4019889Y58569056D01*
X4165603Y58568188D01*
X4228192Y58567924D01*
X4718435Y58566200D01*
X4726591Y58461425D01*
X4728785Y58420279D01*
X4730761Y58358372D01*
X4732436Y58280338D01*
X4733727Y58190817D01*
X4734551Y58094444D01*
X4734823Y58004029D01*
X4734900Y57651409D01*
X3641709Y56924529D01*
X2548519Y56197650D01*
X2557148Y55848400D01*
X2559480Y55757043D01*
X2561733Y55674432D01*
X2563805Y55603838D01*
X2565597Y55548531D01*
X2567007Y55511783D01*
X2567934Y55496865D01*
X2567990Y55496705D01*
X2580720Y55496588D01*
X2617028Y55496957D01*
X2675096Y55497778D01*
X2753108Y55499021D01*
X2849247Y55500652D01*
X2961695Y55502640D01*
X3088636Y55504954D01*
X3228253Y55507559D01*
X3378728Y55510426D01*
X3538246Y55513521D01*
X3687477Y55516465D01*
X3853590Y55519742D01*
X4012316Y55522829D01*
X4161833Y55525691D01*
X4300322Y55528296D01*
X4425964Y55530611D01*
X4536939Y55532604D01*
X4631427Y55534242D01*
X4707609Y55535492D01*
X4763664Y55536321D01*
X4797774Y55536697D01*
X4808203Y55536622D01*
X4808886Y55523915D01*
X4809752Y55487836D01*
X4810776Y55430413D01*
X4811930Y55353673D01*
X4813188Y55259644D01*
X4814525Y55150352D01*
X4815915Y55027826D01*
X4817330Y54894093D01*
X4818745Y54751180D01*
X4819820Y54636010D01*
X4827985Y53737443D01*
X3730517Y53745918D01*
X3565022Y53747268D01*
X3406304Y53748703D01*
X3256272Y53750197D01*
X3116832Y53751725D01*
X2989893Y53753262D01*
X2877361Y53754782D01*
X2781144Y53756260D01*
X2703149Y53757670D01*
X2645284Y53758987D01*
X2609457Y53760186D01*
X2598125Y53761005D01*
X2563200Y53767618D01*
X2564684Y53490384D01*
X2565504Y53403343D01*
X2566941Y53319776D01*
X2568855Y53244835D01*
X2571110Y53183675D01*
X2573568Y53141449D01*
X2574209Y53134347D01*
X2582250Y53055545D01*
X3623650Y52297973D01*
X3768574Y52192495D01*
X3907931Y52090970D01*
X4040318Y51994426D01*
X4164328Y51903891D01*
X4278559Y51820394D01*
X4381605Y51744963D01*
X4472063Y51678627D01*
X4548528Y51622415D01*
X4609597Y51577354D01*
X4653863Y51544474D01*
X4679924Y51524803D01*
X4686501Y51519525D01*
X4700232Y51502944D01*
X4697767Y51487820D01*
X4684012Y51469515D01*
X4660071Y51440381D01*
X3583060Y52224012D01*
X3436013Y52331020D01*
X3294743Y52433855D01*
X3160604Y52531528D01*
X3034954Y52623052D01*
X2919149Y52707436D01*
X2814545Y52783693D01*
X2722498Y52850832D01*
X2644364Y52907867D01*
X2581500Y52953806D01*
X2535261Y52987663D01*
X2507003Y53008447D01*
X2498079Y53015147D01*
X2495890Y53029212D01*
X2493394Y53065611D01*
X2490712Y53121283D01*
X2487966Y53193167D01*
X2485278Y53278200D01*
X2482770Y53373321D01*
X2481411Y53433569D01*
X2472714Y53844488D01*
X3289482Y53836697D01*
X3442557Y53835164D01*
X3596897Y53833480D01*
X3749129Y53831693D01*
X3895881Y53829846D01*
X4033780Y53827985D01*
X4159453Y53826156D01*
X4269527Y53824404D01*
X4360632Y53822774D01*
X4423979Y53821441D01*
X4741708Y53813976D01*
X4736959Y54631163D01*
X4736095Y54772759D01*
X4735198Y54906669D01*
X4734289Y55030765D01*
X4733385Y55142915D01*
X4732508Y55240990D01*
X4731675Y55322859D01*
X4730907Y55386392D01*
X4730223Y55429460D01*
X4729642Y55449933D01*
X4729483Y55451362D01*
X4716665Y55451606D01*
X4680471Y55451347D01*
X4622921Y55450621D01*
X4546034Y55449461D01*
X4451830Y55447902D01*
X4342327Y55445978D01*
X4219546Y55443723D01*
X4085504Y55441173D01*
X3942221Y55438360D01*
X3819604Y55435889D01*
X3663454Y55432745D01*
X3509749Y55429722D01*
X3361168Y55426868D01*
X3220390Y55424232D01*
X3090095Y55421862D01*
X2972961Y55419806D01*
X2871668Y55418112D01*
X2788896Y55416829D01*
X2727323Y55416006D01*
X2702900Y55415761D01*
X2493350Y55414118D01*
X2485517Y55551884D01*
X2482653Y55608136D01*
X2479316Y55683219D01*
X2475771Y55770573D01*
X2472283Y55863640D01*
X2469117Y55955861D01*
X2468854Y55963978D01*
X2460024Y56238306D01*
X4659060Y57696250D01*
X4651510Y58077250D01*
X4649452Y58173625D01*
X4647277Y58262094D01*
X4645090Y58339378D01*
X4642993Y58402198D01*
X4641090Y58447277D01*
X4639483Y58471336D01*
X4639029Y58474125D01*
X4633274Y58477053D01*
X4617047Y58479623D01*
X4589000Y58481855D01*
X4547784Y58483768D01*
X4492051Y58485383D01*
X4420454Y58486719D01*
X4331645Y58487796D01*
X4224275Y58488634D01*
X4096997Y58489254D01*
X3948462Y58489674D01*
X3777322Y58489916D01*
X3582231Y58489999D01*
X3566898Y58490000D01*
X3398284Y58490129D01*
X3238949Y58490506D01*
X3090594Y58491112D01*
X2954922Y58491930D01*
X2833633Y58492942D01*
X2728431Y58494130D01*
X2641015Y58495476D01*
X2573090Y58496964D01*
X2526355Y58498574D01*
X2502513Y58500289D01*
X2499699Y58501132D01*
X2509574Y58510252D01*
X2538286Y58533699D01*
X2584462Y58570410D01*
X2646735Y58619324D01*
X2723732Y58679376D01*
X2814083Y58749505D01*
X2916419Y58828647D01*
X3029368Y58915741D01*
X3151560Y59009722D01*
X3281624Y59109529D01*
X3418191Y59214099D01*
X3483949Y59264372D01*
X3623046Y59370717D01*
X3756286Y59472690D01*
X3882301Y59569239D01*
X3999720Y59659309D01*
X4107174Y59741846D01*
X4203296Y59815797D01*
X4286714Y59880107D01*
X4356061Y59933724D01*
X4409967Y59975592D01*
X4447062Y60004659D01*
X4465978Y60019870D01*
X4468200Y60021935D01*
X4455823Y60022690D01*
X4419987Y60023192D01*
X4362631Y60023448D01*
X4285692Y60023465D01*
X4191111Y60023249D01*
X4080825Y60022806D01*
X3956775Y60022143D01*
X3820898Y60021267D01*
X3675135Y60020184D01*
X3521423Y60018901D01*
X3491750Y60018638D01*
X2515301Y60009885D01*
X2507777Y60231017D01*
X2504856Y60322440D01*
X2501761Y60428815D01*
X2498778Y60539699D01*
X2496192Y60644648D01*
X2495073Y60694687D01*
X2489894Y60937225D01*
X2700025Y60945512D01*
X2749526Y60946950D01*
X2821633Y60948308D01*
X2913555Y60949566D01*
X3022497Y60950701D01*
X3145666Y60951693D01*
X3280270Y60952519D01*
X3423515Y60953158D01*
X3572609Y60953588D01*
X3724757Y60953788D01*
X3771152Y60953800D01*
X4632149Y60953799D01*
X4638316Y60995075D01*
X4640004Y61017246D01*
X4641931Y61061186D01*
X4644049Y61124237D01*
X4646311Y61203741D01*
X4648669Y61297039D01*
X4651079Y61401474D01*
X4653491Y61514388D01*
X4655861Y61633121D01*
X4658139Y61755017D01*
X4660281Y61877418D01*
X4662238Y61997665D01*
X4663964Y62113099D01*
X4665411Y62221064D01*
X4666534Y62318901D01*
X4667285Y62403952D01*
X4667617Y62473559D01*
X4667484Y62525064D01*
X4666838Y62555808D01*
X4665998Y62563634D01*
X4652449Y62564593D01*
X4615363Y62565157D01*
X4556600Y62565339D01*
X4478020Y62565155D01*
X4381484Y62564617D01*
X4268851Y62563741D01*
X4141981Y62562538D01*
X4002735Y62561025D01*
X3852971Y62559214D01*
X3694551Y62557120D01*
X3577731Y62555468D01*
X3414397Y62553140D01*
X3258477Y62551008D01*
X3111821Y62549090D01*
X2976281Y62547408D01*
X2853708Y62545980D01*
X2745953Y62544828D01*
X2654867Y62543971D01*
X2582302Y62543429D01*
X2530108Y62543223D01*
X2500136Y62543372D01*
X2493358Y62543707D01*
X2492365Y62556878D01*
X2491207Y62592483D01*
X2489939Y62647557D01*
X2488618Y62719137D01*
X2487300Y62804256D01*
X2486041Y62899950D01*
X2485183Y62975658D01*
X2480650Y63403667D01*
X3591900Y64157914D01*
X4703150Y64912162D01*
X4698357Y65311056D01*
X4697135Y65408905D01*
X4695929Y65498169D01*
X4694789Y65575795D01*
X4693762Y65638732D01*
X4692898Y65683927D01*
X4692244Y65708329D01*
X4692007Y65711783D01*
X4679375Y65712177D01*
X4643164Y65712790D01*
X4585197Y65713600D01*
X4507294Y65714587D01*
X4411275Y65715730D01*
X4298963Y65717009D01*
X4172177Y65718402D01*
X4032740Y65719888D01*
X3882471Y65721448D01*
X3723192Y65723059D01*
X3579200Y65724483D01*
X2467950Y65735350D01*
X2445128Y66203595D01*
X2440086Y66310014D01*
X2435708Y66408230D01*
X2432101Y66495406D01*
X2429370Y66568706D01*
X2427620Y66625293D01*
X2426957Y66662332D01*
X2427486Y66676984D01*
X2427546Y66677080D01*
X2440588Y66678215D01*
X2476791Y66680129D01*
X2533935Y66682741D01*
X2609795Y66685969D01*
X2702150Y66689735D01*
X2808775Y66693955D01*
X2927448Y66698551D01*
X3055947Y66703441D01*
X3192048Y66708544D01*
X3333529Y66713780D01*
X3478166Y66719067D01*
X3623737Y66724326D01*
X3768019Y66729475D01*
X3908788Y66734433D01*
X4043823Y66739121D01*
X4170900Y66743456D01*
X4287797Y66747359D01*
X4392289Y66750748D01*
X4482156Y66753543D01*
X4555173Y66755663D01*
X4609117Y66757027D01*
X4641767Y66757555D01*
X4642825Y66757558D01*
X4722200Y66757700D01*
X4722200Y68383300D01*
X4630125Y68383244D01*
X4602697Y68382741D01*
X4552084Y68381303D01*
X4480481Y68379009D01*
X4390082Y68375937D01*
X4283081Y68372166D01*
X4161674Y68367774D01*
X4028056Y68362839D01*
X3884419Y68357441D01*
X3732960Y68351657D01*
X3575873Y68345566D01*
X3566500Y68345200D01*
X3409976Y68339112D01*
X3259566Y68333324D01*
X3117388Y68327914D01*
X2985561Y68322960D01*
X2866206Y68318539D01*
X2761442Y68314730D01*
X2673388Y68311610D01*
X2604165Y68309256D01*
X2555891Y68307747D01*
X2530687Y68307160D01*
X2529620Y68307155D01*
X2464291Y68307099D01*
X2459114Y68799225D01*
X2458084Y68908514D01*
X2457362Y69009687D01*
X2456949Y69099967D01*
X2456849Y69176577D01*
X2457064Y69236739D01*
X2457596Y69277677D01*
X2458448Y69296613D01*
X2458681Y69297555D01*
X2471733Y69298686D01*
X2507917Y69300143D01*
X2564970Y69301885D01*
X2640628Y69303870D01*
X2732626Y69306057D01*
X2838700Y69308404D01*
X2956586Y69310871D01*
X3084020Y69313415D01*
X3218737Y69315995D01*
X3358474Y69318570D01*
X3500965Y69321099D01*
X3643947Y69323539D01*
X3785156Y69325851D01*
X3922326Y69327991D01*
X4053195Y69329920D01*
X4175497Y69331595D01*
X4286969Y69332976D01*
X4385346Y69334020D01*
X4468364Y69334686D01*
X4498772Y69334846D01*
X4726195Y69335800D01*
X4717122Y70011741D01*
X4715276Y70140361D01*
X4713308Y70261214D01*
X4711274Y70371941D01*
X4709228Y70470179D01*
X4707225Y70553567D01*
X4705318Y70619745D01*
X4703563Y70666350D01*
X4702014Y70691022D01*
X4701375Y70694366D01*
X4687993Y70695605D01*
X4651487Y70697164D01*
X4594131Y70699002D01*
X4518199Y70701075D01*
X4425966Y70703342D01*
X4319703Y70705761D01*
X4201687Y70708288D01*
X4074190Y70710882D01*
X3939485Y70713499D01*
X3799848Y70716099D01*
X3657552Y70718638D01*
X3514870Y70721073D01*
X3374077Y70723364D01*
X3237446Y70725466D01*
X3107252Y70727339D01*
X2985767Y70728939D01*
X2875266Y70730224D01*
X2778022Y70731152D01*
X2699725Y70731665D01*
X2448900Y70732800D01*
X2448900Y71770278D01*
X3600725Y72429464D01*
X3758411Y72519657D01*
X3910031Y72606283D01*
X4054114Y72688507D01*
X4189188Y72765493D01*
X4313785Y72836408D01*
X4426435Y72900416D01*
X4525665Y72956683D01*
X4610008Y73004374D01*
X4677992Y73042655D01*
X4728147Y73070690D01*
X4759003Y73087645D01*
X4768985Y73092729D01*
X4784076Y73086228D01*
G37*
D13*
X24387258Y78262500D02*
X23912742Y78262500D01*
X24387258Y79307500D02*
X23912742Y79307500D01*
X22172500Y78050000D02*
X22172500Y79520000D01*
X22172500Y79520000D02*
X19887500Y79520000D01*
X19887500Y78050000D02*
X22172500Y78050000D01*
X66130000Y14570000D02*
X66130000Y13300000D01*
X64860000Y14570000D02*
X66130000Y14570000D01*
X62700000Y12257071D02*
X62700000Y11802929D01*
X61940000Y12257071D02*
X61940000Y11802929D01*
X60160000Y12257071D02*
X60160000Y11802929D01*
X59400000Y12257071D02*
X59400000Y11802929D01*
X57620000Y12257071D02*
X57620000Y11802929D01*
X56860000Y12257071D02*
X56860000Y11802929D01*
X55080000Y12257071D02*
X55080000Y11802929D01*
X54320000Y12257071D02*
X54320000Y11802929D01*
X52540000Y12257071D02*
X52540000Y11802929D01*
X51780000Y12257071D02*
X51780000Y11802929D01*
X50000000Y12257071D02*
X50000000Y11802929D01*
X49240000Y12257071D02*
X49240000Y11802929D01*
X47460000Y12257071D02*
X47460000Y11802929D01*
X46700000Y12257071D02*
X46700000Y11802929D01*
X44920000Y12257071D02*
X44920000Y11802929D01*
X44160000Y12257071D02*
X44160000Y11802929D01*
X42380000Y12257071D02*
X42380000Y11802929D01*
X41620000Y12257071D02*
X41620000Y11802929D01*
X39840000Y12257071D02*
X39840000Y11802929D01*
X39080000Y12257071D02*
X39080000Y11802929D01*
X37300000Y12257071D02*
X37300000Y11802929D01*
X36540000Y12257071D02*
X36540000Y11802929D01*
X34760000Y12257071D02*
X34760000Y11802929D01*
X34000000Y12257071D02*
X34000000Y11802929D01*
X32220000Y12257071D02*
X32220000Y11802929D01*
X31460000Y12257071D02*
X31460000Y11802929D01*
X29680000Y12257071D02*
X29680000Y11802929D01*
X28920000Y12257071D02*
X28920000Y11802929D01*
X27140000Y12257071D02*
X27140000Y11802929D01*
X26380000Y12257071D02*
X26380000Y11802929D01*
X24600000Y12257071D02*
X24600000Y11802929D01*
X23840000Y12257071D02*
X23840000Y11802929D01*
X22060000Y12257071D02*
X22060000Y11802929D01*
X21300000Y12257071D02*
X21300000Y11802929D01*
X19520000Y12257071D02*
X19520000Y11802929D01*
X18760000Y12257071D02*
X18760000Y11802929D01*
X16980000Y12257071D02*
X16980000Y11802929D01*
X16220000Y12257071D02*
X16220000Y11802929D01*
X65240000Y12190000D02*
X65240000Y11802929D01*
X64480000Y12190000D02*
X64480000Y11802929D01*
X65240000Y9717071D02*
X65240000Y9320000D01*
X64480000Y9717071D02*
X64480000Y9320000D01*
X62700000Y9717071D02*
X62700000Y9320000D01*
X61940000Y9717071D02*
X61940000Y9320000D01*
X60160000Y9717071D02*
X60160000Y9320000D01*
X59400000Y9717071D02*
X59400000Y9320000D01*
X57620000Y9717071D02*
X57620000Y9320000D01*
X56860000Y9717071D02*
X56860000Y9320000D01*
X55080000Y9717071D02*
X55080000Y9320000D01*
X54320000Y9717071D02*
X54320000Y9320000D01*
X52540000Y9717071D02*
X52540000Y9320000D01*
X51780000Y9717071D02*
X51780000Y9320000D01*
X50000000Y9717071D02*
X50000000Y9320000D01*
X49240000Y9717071D02*
X49240000Y9320000D01*
X47460000Y9717071D02*
X47460000Y9320000D01*
X46700000Y9717071D02*
X46700000Y9320000D01*
X44920000Y9717071D02*
X44920000Y9320000D01*
X44160000Y9717071D02*
X44160000Y9320000D01*
X42380000Y9717071D02*
X42380000Y9320000D01*
X41620000Y9717071D02*
X41620000Y9320000D01*
X39840000Y9717071D02*
X39840000Y9320000D01*
X39080000Y9717071D02*
X39080000Y9320000D01*
X37300000Y9717071D02*
X37300000Y9320000D01*
X36540000Y9717071D02*
X36540000Y9320000D01*
X34760000Y9717071D02*
X34760000Y9320000D01*
X34000000Y9717071D02*
X34000000Y9320000D01*
X32220000Y9717071D02*
X32220000Y9320000D01*
X31460000Y9717071D02*
X31460000Y9320000D01*
X29680000Y9717071D02*
X29680000Y9320000D01*
X28920000Y9717071D02*
X28920000Y9320000D01*
X27140000Y9717071D02*
X27140000Y9320000D01*
X26380000Y9717071D02*
X26380000Y9320000D01*
X24600000Y9717071D02*
X24600000Y9320000D01*
X23840000Y9717071D02*
X23840000Y9320000D01*
X22060000Y9717071D02*
X22060000Y9320000D01*
X21300000Y9717071D02*
X21300000Y9320000D01*
X19520000Y9717071D02*
X19520000Y9320000D01*
X18760000Y9717071D02*
X18760000Y9320000D01*
X16980000Y9717071D02*
X16980000Y9320000D01*
X16220000Y9717071D02*
X16220000Y9320000D01*
X66190000Y9320000D02*
X15270000Y9320000D01*
X63590000Y9320000D02*
X63590000Y6660000D01*
X61050000Y9320000D02*
X61050000Y6660000D01*
X58510000Y9320000D02*
X58510000Y6660000D01*
X55970000Y9320000D02*
X55970000Y6660000D01*
X53430000Y9320000D02*
X53430000Y6660000D01*
X50890000Y9320000D02*
X50890000Y6660000D01*
X48350000Y9320000D02*
X48350000Y6660000D01*
X45810000Y9320000D02*
X45810000Y6660000D01*
X43270000Y9320000D02*
X43270000Y6660000D01*
X40730000Y9320000D02*
X40730000Y6660000D01*
X38190000Y9320000D02*
X38190000Y6660000D01*
X35650000Y9320000D02*
X35650000Y6660000D01*
X33110000Y9320000D02*
X33110000Y6660000D01*
X30570000Y9320000D02*
X30570000Y6660000D01*
X28030000Y9320000D02*
X28030000Y6660000D01*
X25490000Y9320000D02*
X25490000Y6660000D01*
X22950000Y9320000D02*
X22950000Y6660000D01*
X20410000Y9320000D02*
X20410000Y6660000D01*
X17870000Y9320000D02*
X17870000Y6660000D01*
X15270000Y9320000D02*
X15270000Y6660000D01*
X66190000Y6660000D02*
X66190000Y9320000D01*
X65240000Y6660000D02*
X65240000Y660000D01*
X65180000Y6660000D02*
X65180000Y660000D01*
X65060000Y6660000D02*
X65060000Y660000D01*
X64940000Y6660000D02*
X64940000Y660000D01*
X64820000Y6660000D02*
X64820000Y660000D01*
X64700000Y6660000D02*
X64700000Y660000D01*
X64580000Y6660000D02*
X64580000Y660000D01*
X62700000Y6660000D02*
X62700000Y660000D01*
X60160000Y6660000D02*
X60160000Y660000D01*
X57620000Y6660000D02*
X57620000Y660000D01*
X55080000Y6660000D02*
X55080000Y660000D01*
X52540000Y6660000D02*
X52540000Y660000D01*
X50000000Y6660000D02*
X50000000Y660000D01*
X47460000Y6660000D02*
X47460000Y660000D01*
X44920000Y6660000D02*
X44920000Y660000D01*
X42380000Y6660000D02*
X42380000Y660000D01*
X39840000Y6660000D02*
X39840000Y660000D01*
X37300000Y6660000D02*
X37300000Y660000D01*
X34760000Y6660000D02*
X34760000Y660000D01*
X32220000Y6660000D02*
X32220000Y660000D01*
X29680000Y6660000D02*
X29680000Y660000D01*
X27140000Y6660000D02*
X27140000Y660000D01*
X24600000Y6660000D02*
X24600000Y660000D01*
X22060000Y6660000D02*
X22060000Y660000D01*
X19520000Y6660000D02*
X19520000Y660000D01*
X16980000Y6660000D02*
X16980000Y660000D01*
X15270000Y6660000D02*
X66190000Y6660000D01*
X65240000Y660000D02*
X64480000Y660000D01*
X64480000Y660000D02*
X64480000Y6660000D01*
X62700000Y660000D02*
X61940000Y660000D01*
X61940000Y660000D02*
X61940000Y6660000D01*
X60160000Y660000D02*
X59400000Y660000D01*
X59400000Y660000D02*
X59400000Y6660000D01*
X57620000Y660000D02*
X56860000Y660000D01*
X56860000Y660000D02*
X56860000Y6660000D01*
X55080000Y660000D02*
X54320000Y660000D01*
X54320000Y660000D02*
X54320000Y6660000D01*
X52540000Y660000D02*
X51780000Y660000D01*
X51780000Y660000D02*
X51780000Y6660000D01*
X50000000Y660000D02*
X49240000Y660000D01*
X49240000Y660000D02*
X49240000Y6660000D01*
X47460000Y660000D02*
X46700000Y660000D01*
X46700000Y660000D02*
X46700000Y6660000D01*
X44920000Y660000D02*
X44160000Y660000D01*
X44160000Y660000D02*
X44160000Y6660000D01*
X42380000Y660000D02*
X41620000Y660000D01*
X41620000Y660000D02*
X41620000Y6660000D01*
X39840000Y660000D02*
X39080000Y660000D01*
X39080000Y660000D02*
X39080000Y6660000D01*
X37300000Y660000D02*
X36540000Y660000D01*
X36540000Y660000D02*
X36540000Y6660000D01*
X34760000Y660000D02*
X34000000Y660000D01*
X34000000Y660000D02*
X34000000Y6660000D01*
X32220000Y660000D02*
X31460000Y660000D01*
X31460000Y660000D02*
X31460000Y6660000D01*
X29680000Y660000D02*
X28920000Y660000D01*
X28920000Y660000D02*
X28920000Y6660000D01*
X27140000Y660000D02*
X26380000Y660000D01*
X26380000Y660000D02*
X26380000Y6660000D01*
X24600000Y660000D02*
X23840000Y660000D01*
X23840000Y660000D02*
X23840000Y6660000D01*
X22060000Y660000D02*
X21300000Y660000D01*
X21300000Y660000D02*
X21300000Y6660000D01*
X19520000Y660000D02*
X18760000Y660000D01*
X18760000Y660000D02*
X18760000Y6660000D01*
X16980000Y660000D02*
X16220000Y660000D01*
X16220000Y660000D02*
X16220000Y6660000D01*
X60590000Y20959420D02*
X60590000Y21240580D01*
X61610000Y20959420D02*
X61610000Y21240580D01*
X61660000Y27900000D02*
X61660000Y29850000D01*
X61660000Y27900000D02*
X61660000Y25950000D01*
X56540000Y27900000D02*
X56540000Y29850000D01*
X56540000Y27900000D02*
X56540000Y25950000D01*
X61895000Y30360000D02*
X61565000Y30600000D01*
X61895000Y30840000D01*
X61895000Y30360000D01*
G36*
X61895000Y30360000D02*
G01*
X61565000Y30600000D01*
X61895000Y30840000D01*
X61895000Y30360000D01*
G37*
X55500000Y53500000D02*
X55500000Y55900000D01*
X57900000Y53500000D02*
X55500000Y53500000D01*
X55500000Y55900000D02*
X57900000Y55900000D01*
X57900000Y55900000D02*
X57900000Y53500000D01*
X67500000Y59300000D02*
X67500000Y56900000D01*
X65100000Y59300000D02*
X67500000Y59300000D01*
X67500000Y56900000D02*
X65100000Y56900000D01*
X65100000Y56900000D02*
X65100000Y59300000D01*
X5900000Y48700000D02*
X5900000Y46300000D01*
X3500000Y48700000D02*
X5900000Y48700000D01*
X5900000Y46300000D02*
X3500000Y46300000D01*
X3500000Y46300000D02*
X3500000Y48700000D01*
X73522500Y56850000D02*
X73522500Y54450000D01*
X71122500Y56850000D02*
X73522500Y56850000D01*
X73522500Y54450000D02*
X71122500Y54450000D01*
X71122500Y54450000D02*
X71122500Y56850000D01*
X77170000Y24505000D02*
X78500000Y24505000D01*
X77170000Y23175000D02*
X77170000Y24505000D01*
X77170000Y21905000D02*
X77170000Y19305000D01*
X77170000Y21905000D02*
X79830000Y21905000D01*
X77170000Y19305000D02*
X79830000Y19305000D01*
X79830000Y21905000D02*
X79830000Y19305000D01*
X66100000Y70100000D02*
X68500000Y70100000D01*
X66100000Y67700000D02*
X66100000Y70100000D01*
X68500000Y70100000D02*
X68500000Y67700000D01*
X68500000Y67700000D02*
X66100000Y67700000D01*
X9537258Y27952500D02*
X9062742Y27952500D01*
X9537258Y28997500D02*
X9062742Y28997500D01*
X78060242Y34222500D02*
X78534758Y34222500D01*
X78060242Y33177500D02*
X78534758Y33177500D01*
X9290000Y33575000D02*
X9290000Y31375000D01*
X9290000Y33575000D02*
X9290000Y35775000D01*
X14510000Y33575000D02*
X14510000Y31375000D01*
X14510000Y33575000D02*
X14510000Y35775000D01*
X9490000Y30675000D02*
X9160000Y30435000D01*
X9160000Y30915000D01*
X9490000Y30675000D01*
G36*
X9490000Y30675000D02*
G01*
X9160000Y30435000D01*
X9160000Y30915000D01*
X9490000Y30675000D01*
G37*
X12610000Y39815580D02*
X12610000Y39534420D01*
X11590000Y39815580D02*
X11590000Y39534420D01*
X72700000Y65635000D02*
X70500000Y65635000D01*
X72700000Y65635000D02*
X74900000Y65635000D01*
X72700000Y60165000D02*
X70500000Y60165000D01*
X72700000Y60165000D02*
X74900000Y60165000D01*
X68840000Y65175000D02*
X68510000Y64935000D01*
X68510000Y65415000D01*
X68840000Y65175000D01*
G36*
X68840000Y65175000D02*
G01*
X68510000Y64935000D01*
X68510000Y65415000D01*
X68840000Y65175000D01*
G37*
X9537258Y25952500D02*
X9062742Y25952500D01*
X9537258Y26997500D02*
X9062742Y26997500D01*
X75822500Y42550000D02*
X75822500Y40150000D01*
X73422500Y42550000D02*
X75822500Y42550000D01*
X75822500Y40150000D02*
X73422500Y40150000D01*
X73422500Y40150000D02*
X73422500Y42550000D01*
X15937258Y25977500D02*
X15462742Y25977500D01*
X15937258Y27022500D02*
X15462742Y27022500D01*
X28045580Y51370000D02*
X27764420Y51370000D01*
X28045580Y52390000D02*
X27764420Y52390000D01*
X65100000Y37700000D02*
X65100000Y35300000D01*
X62700000Y37700000D02*
X65100000Y37700000D01*
X65100000Y35300000D02*
X62700000Y35300000D01*
X62700000Y35300000D02*
X62700000Y37700000D01*
X13765000Y39613748D02*
X13765000Y40136252D01*
X15235000Y39613748D02*
X15235000Y40136252D01*
X74500000Y27950000D02*
X74500000Y25550000D01*
X72100000Y27950000D02*
X74500000Y27950000D01*
X74500000Y25550000D02*
X72100000Y25550000D01*
X72100000Y25550000D02*
X72100000Y27950000D01*
X75057500Y35450000D02*
X75057500Y37650000D01*
X75057500Y35450000D02*
X75057500Y33250000D01*
X69587500Y35450000D02*
X69587500Y37650000D01*
X69587500Y35450000D02*
X69587500Y33250000D01*
X74597500Y39310000D02*
X74357500Y39640000D01*
X74837500Y39640000D01*
X74597500Y39310000D01*
G36*
X74597500Y39310000D02*
G01*
X74357500Y39640000D01*
X74837500Y39640000D01*
X74597500Y39310000D01*
G37*
X53800000Y52275000D02*
X53800000Y49125000D01*
X53800000Y49125000D02*
X57600000Y49125000D01*
X67319420Y54610000D02*
X67600580Y54610000D01*
X67319420Y53590000D02*
X67600580Y53590000D01*
X79857500Y38735000D02*
X78387500Y38735000D01*
X78387500Y38735000D02*
X78387500Y36450000D01*
X79857500Y36450000D02*
X79857500Y38735000D01*
X71700000Y43300000D02*
X71700000Y40900000D01*
X69300000Y43300000D02*
X71700000Y43300000D01*
X71700000Y40900000D02*
X69300000Y40900000D01*
X69300000Y40900000D02*
X69300000Y43300000D01*
X9237742Y41197500D02*
X9712258Y41197500D01*
X9237742Y40152500D02*
X9712258Y40152500D01*
X7422500Y33912258D02*
X7422500Y33437742D01*
X6377500Y33912258D02*
X6377500Y33437742D01*
X11590000Y27534420D02*
X11590000Y27815580D01*
X12610000Y27534420D02*
X12610000Y27815580D01*
X28330000Y48390000D02*
X18050000Y48390000D01*
X18050000Y48390000D02*
X18050000Y43090000D01*
X28330000Y46740000D02*
X28330000Y48390000D01*
X28330000Y43090000D02*
X28330000Y44740000D01*
X18050000Y43090000D02*
X28330000Y43090000D01*
X28330000Y46740000D02*
G75*
G03*
X28330000Y44740000I0J-1000000D01*
G01*
X50959420Y52010000D02*
X51240580Y52010000D01*
X50959420Y50990000D02*
X51240580Y50990000D01*
X67865000Y48900000D02*
X67865000Y46950000D01*
X67865000Y48900000D02*
X67865000Y50850000D01*
X76735000Y48900000D02*
X76735000Y46950000D01*
X76735000Y48900000D02*
X76735000Y50850000D01*
X67930000Y46200000D02*
X67600000Y45960000D01*
X67600000Y46440000D01*
X67930000Y46200000D01*
G36*
X67930000Y46200000D02*
G01*
X67600000Y45960000D01*
X67600000Y46440000D01*
X67930000Y46200000D01*
G37*
X75688080Y29677500D02*
X75406920Y29677500D01*
X75688080Y30697500D02*
X75406920Y30697500D01*
X9237742Y43197500D02*
X9712258Y43197500D01*
X9237742Y42152500D02*
X9712258Y42152500D01*
X9237742Y45197500D02*
X9712258Y45197500D01*
X9237742Y44152500D02*
X9712258Y44152500D01*
X77462742Y28022500D02*
X77937258Y28022500D01*
X77462742Y26977500D02*
X77937258Y26977500D01*
X69230000Y76570000D02*
X67900000Y76570000D01*
X69230000Y77900000D02*
X69230000Y76570000D01*
X69230000Y79170000D02*
X69230000Y79230000D01*
X69230000Y79170000D02*
X66570000Y79170000D01*
X69230000Y79230000D02*
X66570000Y79230000D01*
X66570000Y79170000D02*
X66570000Y79230000D01*
X12559420Y55810000D02*
X12840580Y55810000D01*
X12559420Y54790000D02*
X12840580Y54790000D01*
X9687258Y38352500D02*
X9212742Y38352500D01*
X9687258Y39397500D02*
X9212742Y39397500D01*
X78160000Y66390580D02*
X78160000Y66109420D01*
X77140000Y66390580D02*
X77140000Y66109420D01*
X77322500Y56850000D02*
X77322500Y54450000D01*
X74922500Y56850000D02*
X77322500Y56850000D01*
X77322500Y54450000D02*
X74922500Y54450000D01*
X74922500Y54450000D02*
X74922500Y56850000D01*
X63155000Y72315000D02*
X12235000Y72315000D01*
X12235000Y72315000D02*
X12235000Y59395000D01*
X63155000Y66855000D02*
X63155000Y72315000D01*
X63155000Y59395000D02*
X63155000Y64855000D01*
X12235000Y59395000D02*
X63155000Y59395000D01*
X63155000Y66855000D02*
G75*
G03*
X63155000Y64855000I0J-1000000D01*
G01*
D14*
X900000Y7100000D02*
G75*
G03*
X6400000Y1600000I5500000J0D01*
G01*
X75900000Y1600000D02*
G75*
G03*
X80900000Y6600000I0J5000000D01*
G01*
X75900000Y1600000D02*
X6400000Y1600000D01*
X5900000Y81600000D02*
G75*
G03*
X900000Y76600000I0J-5000000D01*
G01*
X80900000Y76100000D02*
G75*
G03*
X75400000Y81600000I-5500000J0D01*
G01*
X5900000Y81600000D02*
X75400000Y81600000D01*
X80900000Y6600000D02*
X80900000Y76100000D01*
X900000Y76600000D02*
X900000Y7100000D01*
D15*
X10676000Y3100000D02*
G75*
G03*
X9524000Y3100000I-576000J0D01*
G01*
X9524000Y3100000D02*
G75*
G03*
X10676000Y3100000I576000J0D01*
G01*
X73276000Y80100000D02*
G75*
G03*
X72124000Y80100000I-576000J0D01*
G01*
X72124000Y80100000D02*
G75*
G03*
X73276000Y80100000I576000J0D01*
G01*
X73276000Y3100000D02*
G75*
G03*
X72124000Y3100000I-576000J0D01*
G01*
X72124000Y3100000D02*
G75*
G03*
X73276000Y3100000I576000J0D01*
G01*
M02*
