G04 #@! TF.GenerationSoftware,KiCad,Pcbnew,7.0.11*
G04 #@! TF.CreationDate,2025-11-18T22:52:58-08:00*
G04 #@! TF.ProjectId,z2203,7a323230-332e-46b6-9963-61645f706362,rev?*
G04 #@! TF.SameCoordinates,PX3d83120PY6590fa0*
G04 #@! TF.FileFunction,Copper,L2,Inr*
G04 #@! TF.FilePolarity,Positive*
%FSLAX46Y46*%
G04 Gerber Fmt 4.6, Leading zero omitted, Abs format (unit mm)*
G04 Created by KiCad (PCBNEW 7.0.11) date 2025-11-18 22:52:58*
%MOMM*%
%LPD*%
G01*
G04 APERTURE LIST*
G04 Aperture macros list*
%AMHorizOval*
0 Thick line with rounded ends*
0 $1 width*
0 $2 $3 position (X,Y) of the first rounded end (center of the circle)*
0 $4 $5 position (X,Y) of the second rounded end (center of the circle)*
0 Add line between two ends*
20,1,$1,$2,$3,$4,$5,0*
0 Add two circle primitives to create the rounded ends*
1,1,$1,$2,$3*
1,1,$1,$4,$5*%
G04 Aperture macros list end*
G04 #@! TA.AperFunction,ComponentPad*
%ADD10R,1.700000X1.700000*%
G04 #@! TD*
G04 #@! TA.AperFunction,ComponentPad*
%ADD11O,1.700000X1.700000*%
G04 #@! TD*
G04 #@! TA.AperFunction,ComponentPad*
%ADD12HorizOval,1.700000X0.000000X0.000000X0.000000X0.000000X0*%
G04 #@! TD*
G04 #@! TA.AperFunction,ComponentPad*
%ADD13R,1.600000X1.600000*%
G04 #@! TD*
G04 #@! TA.AperFunction,ComponentPad*
%ADD14O,1.600000X1.600000*%
G04 #@! TD*
G04 #@! TA.AperFunction,ComponentPad*
%ADD15HorizOval,1.600000X0.000000X0.000000X0.000000X0.000000X0*%
G04 #@! TD*
G04 #@! TA.AperFunction,ViaPad*
%ADD16C,0.800000*%
G04 #@! TD*
G04 #@! TA.AperFunction,Conductor*
%ADD17C,0.300000*%
G04 #@! TD*
G04 #@! TA.AperFunction,Profile*
%ADD18C,0.150000*%
G04 #@! TD*
G04 #@! TA.AperFunction,Profile*
%ADD19C,0.050000*%
G04 #@! TD*
G04 APERTURE END LIST*
D10*
X64860000Y13300000D03*
D11*
X64860000Y10760000D03*
X62320000Y13300000D03*
D12*
X62320000Y10760000D03*
D11*
X59780000Y13300000D03*
X59780000Y10760000D03*
X57240000Y13300000D03*
D12*
X57240000Y10760000D03*
D11*
X54700000Y13300000D03*
X54700000Y10760000D03*
X52160000Y13300000D03*
D12*
X52160000Y10760000D03*
D11*
X49620000Y13300000D03*
X49620000Y10760000D03*
X47080000Y13300000D03*
D12*
X47080000Y10760000D03*
D11*
X44540000Y13300000D03*
D12*
X44540000Y10760000D03*
D11*
X42000000Y13300000D03*
D12*
X42000000Y10760000D03*
D11*
X39460000Y13300000D03*
X39460000Y10760000D03*
X36920000Y13300000D03*
D12*
X36920000Y10760000D03*
D11*
X34380000Y13300000D03*
X34380000Y10760000D03*
X31840000Y13300000D03*
D12*
X31840000Y10760000D03*
D11*
X29300000Y13300000D03*
X29300000Y10760000D03*
X26760000Y13300000D03*
D12*
X26760000Y10760000D03*
D11*
X24220000Y13300000D03*
X24220000Y10760000D03*
X21680000Y13300000D03*
D12*
X21680000Y10760000D03*
D11*
X19140000Y13300000D03*
D12*
X19140000Y10760000D03*
D11*
X16600000Y13300000D03*
X16600000Y10760000D03*
D10*
X78500000Y23175000D03*
D11*
X78500000Y20635000D03*
D13*
X27000000Y49550000D03*
D14*
X24460000Y49550000D03*
X21920000Y49550000D03*
X19380000Y49550000D03*
X19380000Y41930000D03*
X21920000Y41930000D03*
X24460000Y41930000D03*
X27000000Y41930000D03*
D10*
X67900000Y77900000D03*
D13*
X61825000Y73475000D03*
D14*
X59285000Y73475000D03*
X56745000Y73475000D03*
X54205000Y73475000D03*
X51665000Y73475000D03*
X49125000Y73475000D03*
X46585000Y73475000D03*
X44045000Y73475000D03*
X41505000Y73475000D03*
X38965000Y73475000D03*
X36425000Y73475000D03*
X33885000Y73475000D03*
X31345000Y73475000D03*
X28805000Y73475000D03*
X26265000Y73475000D03*
X23725000Y73475000D03*
X21185000Y73475000D03*
X18645000Y73475000D03*
X16105000Y73475000D03*
X13565000Y73475000D03*
X13565000Y58235000D03*
X16105000Y58235000D03*
X18645000Y58235000D03*
X21185000Y58235000D03*
X23725000Y58235000D03*
X26265000Y58235000D03*
X28805000Y58235000D03*
X31345000Y58235000D03*
X33885000Y58235000D03*
X36425000Y58235000D03*
X38965000Y58235000D03*
X41505000Y58235000D03*
X44045000Y58235000D03*
X46585000Y58235000D03*
D15*
X49125000Y58235000D03*
D14*
X51665000Y58235000D03*
X54205000Y58235000D03*
X56745000Y58235000D03*
X59285000Y58235000D03*
X61825000Y58235000D03*
D16*
X53300000Y68100000D03*
X11100000Y34700000D03*
X55700000Y68100000D03*
X60700000Y68300000D03*
X29900000Y53100000D03*
X59700000Y20300000D03*
X70100000Y27700000D03*
X72500000Y30700000D03*
X5900000Y50300000D03*
X64500000Y67500000D03*
X72500000Y21100000D03*
X74300000Y58700000D03*
X56100000Y18300000D03*
X12100000Y25700000D03*
X77500000Y30300000D03*
X11900000Y53900000D03*
X74900000Y53300000D03*
X12100000Y41700000D03*
X78900000Y67100000D03*
X11300000Y62500000D03*
X53300000Y54500000D03*
X70100000Y53500000D03*
X77500000Y62500000D03*
X65500000Y55300000D03*
X11100000Y32700000D03*
X14500000Y42100000D03*
X9700000Y65100000D03*
X17700000Y52500000D03*
X58100000Y68300000D03*
X50900000Y67700000D03*
X68300000Y59700000D03*
X56700000Y48500000D03*
X50300000Y49700000D03*
X65300000Y15900000D03*
X76100000Y44500000D03*
X57100000Y32300000D03*
X69900000Y36900000D03*
X13100000Y39700000D03*
X13300000Y28500000D03*
X74700000Y28900000D03*
X51900000Y49700000D03*
X59700000Y21900000D03*
X27100000Y54100000D03*
X20035000Y77435000D03*
X68300000Y56300000D03*
X70300000Y30100000D03*
X73300000Y61300000D03*
X14900000Y55300000D03*
X74700000Y49500000D03*
X78900000Y65500000D03*
X59700000Y23500000D03*
X60900000Y28500000D03*
X58500000Y28500000D03*
X68500000Y42100000D03*
X69900000Y49700000D03*
X70900000Y34300000D03*
X69700000Y48100000D03*
X12550000Y32300000D03*
D17*
X31840000Y10760000D02*
X33180000Y12100000D01*
X45880000Y11960000D02*
X45880000Y12100000D01*
X20480000Y11960000D02*
X20480000Y12120000D01*
X22880000Y11960000D02*
X22880000Y14880000D01*
X19140000Y10760000D02*
X20480000Y12100000D01*
X35720000Y11960000D02*
X35720000Y15080000D01*
X50960000Y11960000D02*
X50960000Y15040000D01*
X26760000Y10760000D02*
X25500000Y12020000D01*
X42000000Y10760000D02*
X43340000Y12100000D01*
X47080000Y10760000D02*
X48420000Y12100000D01*
X43340000Y12100000D02*
X43340000Y15060000D01*
X52160000Y10760000D02*
X50960000Y11960000D01*
X45880000Y12100000D02*
X45880000Y15280000D01*
X21680000Y10760000D02*
X20480000Y11960000D01*
X19140000Y10760000D02*
X17940000Y11960000D01*
X21680000Y10760000D02*
X22880000Y11960000D01*
X48420000Y12100000D02*
X48420000Y14780000D01*
X42000000Y10760000D02*
X40700000Y12060000D01*
X20480000Y12100000D02*
X20480000Y12120000D01*
X47080000Y10760000D02*
X45880000Y11960000D01*
X36920000Y10760000D02*
X35720000Y11960000D01*
X20480000Y12120000D02*
X20480000Y15280000D01*
X26760000Y10760000D02*
X28100000Y12100000D01*
X52160000Y10760000D02*
X53500000Y12100000D01*
X62320000Y10760000D02*
X61100000Y11980000D01*
X28100000Y12100000D02*
X28100000Y15100000D01*
X17940000Y11960000D02*
X14160000Y11960000D01*
X53500000Y12100000D02*
X53500000Y14900000D01*
X58500000Y12020000D02*
X58500000Y14900000D01*
X30500000Y12100000D02*
X30500000Y15100000D01*
X38260000Y12100000D02*
X38260000Y15060000D01*
X25500000Y12020000D02*
X25500000Y15300000D01*
X61100000Y11980000D02*
X61100000Y15100000D01*
X44540000Y10760000D02*
X43340000Y11960000D01*
X40700000Y12060000D02*
X40700000Y15100000D01*
X56040000Y11960000D02*
X56040000Y14840000D01*
X62320000Y10760000D02*
X63520000Y11960000D01*
X44540000Y10760000D02*
X45880000Y12100000D01*
X43340000Y11960000D02*
X43340000Y12100000D01*
X57240000Y10760000D02*
X56040000Y11960000D01*
X57240000Y10760000D02*
X58500000Y12020000D01*
X31840000Y10760000D02*
X30500000Y12100000D01*
X63520000Y11960000D02*
X63520000Y15080000D01*
X33180000Y12100000D02*
X33180000Y15020000D01*
X36920000Y10760000D02*
X38260000Y12100000D01*
G04 #@! TA.AperFunction,Conductor*
G36*
X17938959Y12871900D02*
G01*
X17984194Y12819698D01*
X18052898Y12672361D01*
X18178402Y12493123D01*
X18333123Y12338402D01*
X18333126Y12338400D01*
X18512359Y12212899D01*
X18512360Y12212899D01*
X18512361Y12212898D01*
X18532022Y12203730D01*
X18585307Y12156815D01*
X18604769Y12088538D01*
X18584228Y12020577D01*
X18538743Y11978722D01*
X18394705Y11900773D01*
X18394693Y11900765D01*
X18374311Y11884901D01*
X18374310Y11884900D01*
X19012412Y11246798D01*
X18997685Y11244680D01*
X18866900Y11184952D01*
X18758239Y11090798D01*
X18680507Y10969844D01*
X18655639Y10885151D01*
X18016921Y11523869D01*
X18016920Y11523868D01*
X17941586Y11408561D01*
X17941579Y11408547D01*
X17925382Y11371621D01*
X17879701Y11317272D01*
X17811888Y11296249D01*
X17743474Y11315226D01*
X17696181Y11368177D01*
X17695800Y11368985D01*
X17687100Y11387642D01*
X17561604Y11566869D01*
X17561601Y11566873D01*
X17561598Y11566877D01*
X17406877Y11721598D01*
X17227639Y11847102D01*
X17080302Y11915806D01*
X17027019Y11962722D01*
X17007558Y12030999D01*
X17028100Y12098959D01*
X17080302Y12144195D01*
X17227639Y12212898D01*
X17406877Y12338402D01*
X17561598Y12493123D01*
X17687102Y12672361D01*
X17755805Y12819698D01*
X17802722Y12872981D01*
X17870999Y12892442D01*
X17938959Y12871900D01*
G37*
G04 #@! TD.AperFunction*
G04 #@! TA.AperFunction,Conductor*
G36*
X20478959Y12871900D02*
G01*
X20524194Y12819698D01*
X20592898Y12672361D01*
X20718402Y12493123D01*
X20873123Y12338402D01*
X20873126Y12338400D01*
X21052359Y12212899D01*
X21052360Y12212899D01*
X21052361Y12212898D01*
X21072022Y12203730D01*
X21125307Y12156815D01*
X21144769Y12088538D01*
X21124228Y12020577D01*
X21078743Y11978722D01*
X20934705Y11900773D01*
X20934693Y11900765D01*
X20914311Y11884901D01*
X20914310Y11884900D01*
X21552412Y11246798D01*
X21537685Y11244680D01*
X21406900Y11184952D01*
X21298239Y11090798D01*
X21220507Y10969844D01*
X21195639Y10885151D01*
X20556921Y11523869D01*
X20556920Y11523868D01*
X20515482Y11460442D01*
X20461479Y11414353D01*
X20391131Y11404778D01*
X20326773Y11434755D01*
X20304516Y11460442D01*
X20263078Y11523868D01*
X19624360Y10885152D01*
X19599493Y10969844D01*
X19521761Y11090798D01*
X19413100Y11184952D01*
X19282315Y11244680D01*
X19267586Y11246798D01*
X19905688Y11884900D01*
X19905687Y11884901D01*
X19885308Y11900763D01*
X19885303Y11900766D01*
X19741256Y11978721D01*
X19690866Y12028735D01*
X19675514Y12098052D01*
X19700075Y12164665D01*
X19747976Y12203730D01*
X19767639Y12212898D01*
X19946877Y12338402D01*
X20101598Y12493123D01*
X20227102Y12672361D01*
X20295805Y12819698D01*
X20342722Y12872981D01*
X20410999Y12892442D01*
X20478959Y12871900D01*
G37*
G04 #@! TD.AperFunction*
G04 #@! TA.AperFunction,Conductor*
G36*
X25558959Y12871900D02*
G01*
X25604194Y12819698D01*
X25672898Y12672361D01*
X25798402Y12493123D01*
X25953123Y12338402D01*
X25953126Y12338400D01*
X26132359Y12212899D01*
X26132360Y12212899D01*
X26132361Y12212898D01*
X26152022Y12203730D01*
X26205307Y12156815D01*
X26224769Y12088538D01*
X26204228Y12020577D01*
X26158743Y11978722D01*
X26014705Y11900773D01*
X26014693Y11900765D01*
X25994311Y11884901D01*
X25994310Y11884900D01*
X26632412Y11246798D01*
X26617685Y11244680D01*
X26486900Y11184952D01*
X26378239Y11090798D01*
X26300507Y10969844D01*
X26275639Y10885151D01*
X25636921Y11523869D01*
X25636920Y11523868D01*
X25561586Y11408561D01*
X25561579Y11408547D01*
X25545382Y11371621D01*
X25499701Y11317272D01*
X25431888Y11296249D01*
X25363474Y11315226D01*
X25316181Y11368177D01*
X25315800Y11368985D01*
X25307100Y11387642D01*
X25181604Y11566869D01*
X25181601Y11566873D01*
X25181598Y11566877D01*
X25026877Y11721598D01*
X24847639Y11847102D01*
X24700302Y11915806D01*
X24647019Y11962722D01*
X24627558Y12030999D01*
X24648100Y12098959D01*
X24700302Y12144195D01*
X24847639Y12212898D01*
X25026877Y12338402D01*
X25181598Y12493123D01*
X25307102Y12672361D01*
X25375805Y12819698D01*
X25422722Y12872981D01*
X25490999Y12892442D01*
X25558959Y12871900D01*
G37*
G04 #@! TD.AperFunction*
G04 #@! TA.AperFunction,Conductor*
G36*
X30638959Y12871900D02*
G01*
X30684194Y12819698D01*
X30752898Y12672361D01*
X30878402Y12493123D01*
X31033123Y12338402D01*
X31033126Y12338400D01*
X31212359Y12212899D01*
X31212360Y12212899D01*
X31212361Y12212898D01*
X31232022Y12203730D01*
X31285307Y12156815D01*
X31304769Y12088538D01*
X31284228Y12020577D01*
X31238743Y11978722D01*
X31094705Y11900773D01*
X31094693Y11900765D01*
X31074311Y11884901D01*
X31074310Y11884900D01*
X31712412Y11246798D01*
X31697685Y11244680D01*
X31566900Y11184952D01*
X31458239Y11090798D01*
X31380507Y10969844D01*
X31355639Y10885151D01*
X30716921Y11523869D01*
X30716920Y11523868D01*
X30641586Y11408561D01*
X30641579Y11408547D01*
X30625382Y11371621D01*
X30579701Y11317272D01*
X30511888Y11296249D01*
X30443474Y11315226D01*
X30396181Y11368177D01*
X30395800Y11368985D01*
X30387100Y11387642D01*
X30261604Y11566869D01*
X30261601Y11566873D01*
X30261598Y11566877D01*
X30106877Y11721598D01*
X29927639Y11847102D01*
X29780302Y11915806D01*
X29727019Y11962722D01*
X29707558Y12030999D01*
X29728100Y12098959D01*
X29780302Y12144195D01*
X29927639Y12212898D01*
X30106877Y12338402D01*
X30261598Y12493123D01*
X30387102Y12672361D01*
X30455805Y12819698D01*
X30502722Y12872981D01*
X30570999Y12892442D01*
X30638959Y12871900D01*
G37*
G04 #@! TD.AperFunction*
G04 #@! TA.AperFunction,Conductor*
G36*
X35718959Y12871900D02*
G01*
X35764194Y12819698D01*
X35832898Y12672361D01*
X35958402Y12493123D01*
X36113123Y12338402D01*
X36113126Y12338400D01*
X36292359Y12212899D01*
X36292360Y12212899D01*
X36292361Y12212898D01*
X36312022Y12203730D01*
X36365307Y12156815D01*
X36384769Y12088538D01*
X36364228Y12020577D01*
X36318743Y11978722D01*
X36174705Y11900773D01*
X36174693Y11900765D01*
X36154311Y11884901D01*
X36154310Y11884900D01*
X36792412Y11246798D01*
X36777685Y11244680D01*
X36646900Y11184952D01*
X36538239Y11090798D01*
X36460507Y10969844D01*
X36435639Y10885151D01*
X35796921Y11523869D01*
X35796920Y11523868D01*
X35721586Y11408561D01*
X35721579Y11408547D01*
X35705382Y11371621D01*
X35659701Y11317272D01*
X35591888Y11296249D01*
X35523474Y11315226D01*
X35476181Y11368177D01*
X35475800Y11368985D01*
X35467100Y11387642D01*
X35341604Y11566869D01*
X35341601Y11566873D01*
X35341598Y11566877D01*
X35186877Y11721598D01*
X35007639Y11847102D01*
X34860302Y11915806D01*
X34807019Y11962722D01*
X34787558Y12030999D01*
X34808100Y12098959D01*
X34860302Y12144195D01*
X35007639Y12212898D01*
X35186877Y12338402D01*
X35341598Y12493123D01*
X35467102Y12672361D01*
X35535805Y12819698D01*
X35582722Y12872981D01*
X35650999Y12892442D01*
X35718959Y12871900D01*
G37*
G04 #@! TD.AperFunction*
G04 #@! TA.AperFunction,Conductor*
G36*
X40798959Y12871900D02*
G01*
X40844194Y12819698D01*
X40912898Y12672361D01*
X41038402Y12493123D01*
X41193123Y12338402D01*
X41193126Y12338400D01*
X41372359Y12212899D01*
X41372360Y12212899D01*
X41372361Y12212898D01*
X41392022Y12203730D01*
X41445307Y12156815D01*
X41464769Y12088538D01*
X41444228Y12020577D01*
X41398743Y11978722D01*
X41254705Y11900773D01*
X41254693Y11900765D01*
X41234311Y11884901D01*
X41234310Y11884900D01*
X41872412Y11246798D01*
X41857685Y11244680D01*
X41726900Y11184952D01*
X41618239Y11090798D01*
X41540507Y10969844D01*
X41515639Y10885151D01*
X40876921Y11523869D01*
X40876920Y11523868D01*
X40801586Y11408561D01*
X40801579Y11408547D01*
X40785382Y11371621D01*
X40739701Y11317272D01*
X40671888Y11296249D01*
X40603474Y11315226D01*
X40556181Y11368177D01*
X40555800Y11368985D01*
X40547100Y11387642D01*
X40421604Y11566869D01*
X40421601Y11566873D01*
X40421598Y11566877D01*
X40266877Y11721598D01*
X40087639Y11847102D01*
X39940302Y11915806D01*
X39887019Y11962722D01*
X39867558Y12030999D01*
X39888100Y12098959D01*
X39940302Y12144195D01*
X40087639Y12212898D01*
X40266877Y12338402D01*
X40421598Y12493123D01*
X40547102Y12672361D01*
X40615805Y12819698D01*
X40662722Y12872981D01*
X40730999Y12892442D01*
X40798959Y12871900D01*
G37*
G04 #@! TD.AperFunction*
G04 #@! TA.AperFunction,Conductor*
G36*
X43338959Y12871900D02*
G01*
X43384194Y12819698D01*
X43452898Y12672361D01*
X43578402Y12493123D01*
X43733123Y12338402D01*
X43733126Y12338400D01*
X43912359Y12212899D01*
X43912360Y12212899D01*
X43912361Y12212898D01*
X43932022Y12203730D01*
X43985307Y12156815D01*
X44004769Y12088538D01*
X43984228Y12020577D01*
X43938743Y11978722D01*
X43794705Y11900773D01*
X43794693Y11900765D01*
X43774311Y11884901D01*
X43774310Y11884900D01*
X44412412Y11246798D01*
X44397685Y11244680D01*
X44266900Y11184952D01*
X44158239Y11090798D01*
X44080507Y10969844D01*
X44055639Y10885151D01*
X43416921Y11523869D01*
X43416920Y11523868D01*
X43375482Y11460442D01*
X43321479Y11414353D01*
X43251131Y11404778D01*
X43186773Y11434755D01*
X43164516Y11460442D01*
X43123078Y11523868D01*
X42484360Y10885152D01*
X42459493Y10969844D01*
X42381761Y11090798D01*
X42273100Y11184952D01*
X42142315Y11244680D01*
X42127586Y11246798D01*
X42765688Y11884900D01*
X42765687Y11884901D01*
X42745308Y11900763D01*
X42745303Y11900766D01*
X42601256Y11978721D01*
X42550866Y12028735D01*
X42535514Y12098052D01*
X42560075Y12164665D01*
X42607976Y12203730D01*
X42627639Y12212898D01*
X42806877Y12338402D01*
X42961598Y12493123D01*
X43087102Y12672361D01*
X43155805Y12819698D01*
X43202722Y12872981D01*
X43270999Y12892442D01*
X43338959Y12871900D01*
G37*
G04 #@! TD.AperFunction*
G04 #@! TA.AperFunction,Conductor*
G36*
X45878959Y12871900D02*
G01*
X45924194Y12819698D01*
X45992898Y12672361D01*
X46118402Y12493123D01*
X46273123Y12338402D01*
X46273126Y12338400D01*
X46452359Y12212899D01*
X46452360Y12212899D01*
X46452361Y12212898D01*
X46472022Y12203730D01*
X46525307Y12156815D01*
X46544769Y12088538D01*
X46524228Y12020577D01*
X46478743Y11978722D01*
X46334705Y11900773D01*
X46334693Y11900765D01*
X46314311Y11884901D01*
X46314310Y11884900D01*
X46952412Y11246798D01*
X46937685Y11244680D01*
X46806900Y11184952D01*
X46698239Y11090798D01*
X46620507Y10969844D01*
X46595639Y10885151D01*
X45956921Y11523869D01*
X45956920Y11523868D01*
X45915482Y11460442D01*
X45861479Y11414353D01*
X45791131Y11404778D01*
X45726773Y11434755D01*
X45704516Y11460442D01*
X45663078Y11523868D01*
X45024360Y10885152D01*
X44999493Y10969844D01*
X44921761Y11090798D01*
X44813100Y11184952D01*
X44682315Y11244680D01*
X44667586Y11246798D01*
X45305688Y11884900D01*
X45305687Y11884901D01*
X45285308Y11900763D01*
X45285303Y11900766D01*
X45141256Y11978721D01*
X45090866Y12028735D01*
X45075514Y12098052D01*
X45100075Y12164665D01*
X45147976Y12203730D01*
X45167639Y12212898D01*
X45346877Y12338402D01*
X45501598Y12493123D01*
X45627102Y12672361D01*
X45695805Y12819698D01*
X45742722Y12872981D01*
X45810999Y12892442D01*
X45878959Y12871900D01*
G37*
G04 #@! TD.AperFunction*
G04 #@! TA.AperFunction,Conductor*
G36*
X50958959Y12871900D02*
G01*
X51004194Y12819698D01*
X51072898Y12672361D01*
X51198402Y12493123D01*
X51353123Y12338402D01*
X51353126Y12338400D01*
X51532359Y12212899D01*
X51532360Y12212899D01*
X51532361Y12212898D01*
X51552022Y12203730D01*
X51605307Y12156815D01*
X51624769Y12088538D01*
X51604228Y12020577D01*
X51558743Y11978722D01*
X51414705Y11900773D01*
X51414693Y11900765D01*
X51394311Y11884901D01*
X51394310Y11884900D01*
X52032412Y11246798D01*
X52017685Y11244680D01*
X51886900Y11184952D01*
X51778239Y11090798D01*
X51700507Y10969844D01*
X51675639Y10885151D01*
X51036921Y11523869D01*
X51036920Y11523868D01*
X50961586Y11408561D01*
X50961579Y11408547D01*
X50945382Y11371621D01*
X50899701Y11317272D01*
X50831888Y11296249D01*
X50763474Y11315226D01*
X50716181Y11368177D01*
X50715800Y11368985D01*
X50707100Y11387642D01*
X50581604Y11566869D01*
X50581601Y11566873D01*
X50581598Y11566877D01*
X50426877Y11721598D01*
X50247639Y11847102D01*
X50100302Y11915806D01*
X50047019Y11962722D01*
X50027558Y12030999D01*
X50048100Y12098959D01*
X50100302Y12144195D01*
X50247639Y12212898D01*
X50426877Y12338402D01*
X50581598Y12493123D01*
X50707102Y12672361D01*
X50775805Y12819698D01*
X50822722Y12872981D01*
X50890999Y12892442D01*
X50958959Y12871900D01*
G37*
G04 #@! TD.AperFunction*
G04 #@! TA.AperFunction,Conductor*
G36*
X56038959Y12871900D02*
G01*
X56084194Y12819698D01*
X56152898Y12672361D01*
X56278402Y12493123D01*
X56433123Y12338402D01*
X56433126Y12338400D01*
X56612359Y12212899D01*
X56612360Y12212899D01*
X56612361Y12212898D01*
X56632022Y12203730D01*
X56685307Y12156815D01*
X56704769Y12088538D01*
X56684228Y12020577D01*
X56638743Y11978722D01*
X56494705Y11900773D01*
X56494693Y11900765D01*
X56474311Y11884901D01*
X56474310Y11884900D01*
X57112412Y11246798D01*
X57097685Y11244680D01*
X56966900Y11184952D01*
X56858239Y11090798D01*
X56780507Y10969844D01*
X56755639Y10885151D01*
X56116921Y11523869D01*
X56116920Y11523868D01*
X56041586Y11408561D01*
X56041579Y11408547D01*
X56025382Y11371621D01*
X55979701Y11317272D01*
X55911888Y11296249D01*
X55843474Y11315226D01*
X55796181Y11368177D01*
X55795800Y11368985D01*
X55787100Y11387642D01*
X55661604Y11566869D01*
X55661601Y11566873D01*
X55661598Y11566877D01*
X55506877Y11721598D01*
X55327639Y11847102D01*
X55180302Y11915806D01*
X55127019Y11962722D01*
X55107558Y12030999D01*
X55128100Y12098959D01*
X55180302Y12144195D01*
X55327639Y12212898D01*
X55506877Y12338402D01*
X55661598Y12493123D01*
X55787102Y12672361D01*
X55855805Y12819698D01*
X55902722Y12872981D01*
X55970999Y12892442D01*
X56038959Y12871900D01*
G37*
G04 #@! TD.AperFunction*
G04 #@! TA.AperFunction,Conductor*
G36*
X61118959Y12871900D02*
G01*
X61164194Y12819698D01*
X61232898Y12672361D01*
X61358402Y12493123D01*
X61513123Y12338402D01*
X61513126Y12338400D01*
X61692359Y12212899D01*
X61692360Y12212899D01*
X61692361Y12212898D01*
X61712022Y12203730D01*
X61765307Y12156815D01*
X61784769Y12088538D01*
X61764228Y12020577D01*
X61718743Y11978722D01*
X61574705Y11900773D01*
X61574693Y11900765D01*
X61554311Y11884901D01*
X61554310Y11884900D01*
X62192412Y11246798D01*
X62177685Y11244680D01*
X62046900Y11184952D01*
X61938239Y11090798D01*
X61860507Y10969844D01*
X61835639Y10885151D01*
X61196921Y11523869D01*
X61196920Y11523868D01*
X61121586Y11408561D01*
X61121579Y11408547D01*
X61105382Y11371621D01*
X61059701Y11317272D01*
X60991888Y11296249D01*
X60923474Y11315226D01*
X60876181Y11368177D01*
X60875800Y11368985D01*
X60867100Y11387642D01*
X60741604Y11566869D01*
X60741601Y11566873D01*
X60741598Y11566877D01*
X60586877Y11721598D01*
X60407639Y11847102D01*
X60260302Y11915806D01*
X60207019Y11962722D01*
X60187558Y12030999D01*
X60208100Y12098959D01*
X60260302Y12144195D01*
X60407639Y12212898D01*
X60586877Y12338402D01*
X60741598Y12493123D01*
X60867102Y12672361D01*
X60935805Y12819698D01*
X60982722Y12872981D01*
X61050999Y12892442D01*
X61118959Y12871900D01*
G37*
G04 #@! TD.AperFunction*
G04 #@! TA.AperFunction,Conductor*
G36*
X23018959Y12871900D02*
G01*
X23064194Y12819698D01*
X23132898Y12672361D01*
X23258402Y12493123D01*
X23413123Y12338402D01*
X23592361Y12212898D01*
X23731485Y12148024D01*
X23739695Y12144195D01*
X23792980Y12097278D01*
X23812441Y12029000D01*
X23791899Y11961040D01*
X23739695Y11915805D01*
X23592358Y11847101D01*
X23413131Y11721605D01*
X23413120Y11721596D01*
X23258404Y11566880D01*
X23258395Y11566869D01*
X23132899Y11387642D01*
X23132898Y11387640D01*
X23124197Y11368981D01*
X23077278Y11315698D01*
X23009000Y11296239D01*
X22941041Y11316783D01*
X22894977Y11370807D01*
X22894616Y11371623D01*
X22878419Y11408550D01*
X22803077Y11523868D01*
X22164360Y10885152D01*
X22139493Y10969844D01*
X22061761Y11090798D01*
X21953100Y11184952D01*
X21822315Y11244680D01*
X21807586Y11246798D01*
X22445688Y11884900D01*
X22445687Y11884901D01*
X22425308Y11900763D01*
X22425303Y11900766D01*
X22281256Y11978721D01*
X22230866Y12028735D01*
X22215514Y12098052D01*
X22240075Y12164665D01*
X22287976Y12203730D01*
X22307639Y12212898D01*
X22486877Y12338402D01*
X22641598Y12493123D01*
X22767102Y12672361D01*
X22835805Y12819698D01*
X22882722Y12872981D01*
X22950999Y12892442D01*
X23018959Y12871900D01*
G37*
G04 #@! TD.AperFunction*
G04 #@! TA.AperFunction,Conductor*
G36*
X28098959Y12871900D02*
G01*
X28144194Y12819698D01*
X28212898Y12672361D01*
X28338402Y12493123D01*
X28493123Y12338402D01*
X28672361Y12212898D01*
X28811485Y12148024D01*
X28819695Y12144195D01*
X28872980Y12097278D01*
X28892441Y12029000D01*
X28871899Y11961040D01*
X28819695Y11915805D01*
X28672358Y11847101D01*
X28493131Y11721605D01*
X28493120Y11721596D01*
X28338404Y11566880D01*
X28338395Y11566869D01*
X28212899Y11387642D01*
X28212898Y11387640D01*
X28204197Y11368981D01*
X28157278Y11315698D01*
X28089000Y11296239D01*
X28021041Y11316783D01*
X27974977Y11370807D01*
X27974616Y11371623D01*
X27958419Y11408550D01*
X27883077Y11523868D01*
X27244360Y10885152D01*
X27219493Y10969844D01*
X27141761Y11090798D01*
X27033100Y11184952D01*
X26902315Y11244680D01*
X26887586Y11246798D01*
X27525688Y11884900D01*
X27525687Y11884901D01*
X27505308Y11900763D01*
X27505303Y11900766D01*
X27361256Y11978721D01*
X27310866Y12028735D01*
X27295514Y12098052D01*
X27320075Y12164665D01*
X27367976Y12203730D01*
X27387639Y12212898D01*
X27566877Y12338402D01*
X27721598Y12493123D01*
X27847102Y12672361D01*
X27915805Y12819698D01*
X27962722Y12872981D01*
X28030999Y12892442D01*
X28098959Y12871900D01*
G37*
G04 #@! TD.AperFunction*
G04 #@! TA.AperFunction,Conductor*
G36*
X33178959Y12871900D02*
G01*
X33224194Y12819698D01*
X33292898Y12672361D01*
X33418402Y12493123D01*
X33573123Y12338402D01*
X33752361Y12212898D01*
X33891485Y12148024D01*
X33899695Y12144195D01*
X33952980Y12097278D01*
X33972441Y12029000D01*
X33951899Y11961040D01*
X33899695Y11915805D01*
X33752358Y11847101D01*
X33573131Y11721605D01*
X33573120Y11721596D01*
X33418404Y11566880D01*
X33418395Y11566869D01*
X33292899Y11387642D01*
X33292898Y11387640D01*
X33284197Y11368981D01*
X33237278Y11315698D01*
X33169000Y11296239D01*
X33101041Y11316783D01*
X33054977Y11370807D01*
X33054616Y11371623D01*
X33038419Y11408550D01*
X32963077Y11523868D01*
X32324360Y10885152D01*
X32299493Y10969844D01*
X32221761Y11090798D01*
X32113100Y11184952D01*
X31982315Y11244680D01*
X31967586Y11246798D01*
X32605688Y11884900D01*
X32605687Y11884901D01*
X32585308Y11900763D01*
X32585303Y11900766D01*
X32441256Y11978721D01*
X32390866Y12028735D01*
X32375514Y12098052D01*
X32400075Y12164665D01*
X32447976Y12203730D01*
X32467639Y12212898D01*
X32646877Y12338402D01*
X32801598Y12493123D01*
X32927102Y12672361D01*
X32995805Y12819698D01*
X33042722Y12872981D01*
X33110999Y12892442D01*
X33178959Y12871900D01*
G37*
G04 #@! TD.AperFunction*
G04 #@! TA.AperFunction,Conductor*
G36*
X38258959Y12871900D02*
G01*
X38304194Y12819698D01*
X38372898Y12672361D01*
X38498402Y12493123D01*
X38653123Y12338402D01*
X38832361Y12212898D01*
X38971485Y12148024D01*
X38979695Y12144195D01*
X39032980Y12097278D01*
X39052441Y12029000D01*
X39031899Y11961040D01*
X38979695Y11915805D01*
X38832358Y11847101D01*
X38653131Y11721605D01*
X38653120Y11721596D01*
X38498404Y11566880D01*
X38498395Y11566869D01*
X38372899Y11387642D01*
X38372898Y11387640D01*
X38364197Y11368981D01*
X38317278Y11315698D01*
X38249000Y11296239D01*
X38181041Y11316783D01*
X38134977Y11370807D01*
X38134616Y11371623D01*
X38118419Y11408550D01*
X38043077Y11523868D01*
X37404360Y10885152D01*
X37379493Y10969844D01*
X37301761Y11090798D01*
X37193100Y11184952D01*
X37062315Y11244680D01*
X37047586Y11246798D01*
X37685688Y11884900D01*
X37685687Y11884901D01*
X37665308Y11900763D01*
X37665303Y11900766D01*
X37521256Y11978721D01*
X37470866Y12028735D01*
X37455514Y12098052D01*
X37480075Y12164665D01*
X37527976Y12203730D01*
X37547639Y12212898D01*
X37726877Y12338402D01*
X37881598Y12493123D01*
X38007102Y12672361D01*
X38075805Y12819698D01*
X38122722Y12872981D01*
X38190999Y12892442D01*
X38258959Y12871900D01*
G37*
G04 #@! TD.AperFunction*
G04 #@! TA.AperFunction,Conductor*
G36*
X48418959Y12871900D02*
G01*
X48464194Y12819698D01*
X48532898Y12672361D01*
X48658402Y12493123D01*
X48813123Y12338402D01*
X48992361Y12212898D01*
X49131485Y12148024D01*
X49139695Y12144195D01*
X49192980Y12097278D01*
X49212441Y12029000D01*
X49191899Y11961040D01*
X49139695Y11915805D01*
X48992358Y11847101D01*
X48813131Y11721605D01*
X48813120Y11721596D01*
X48658404Y11566880D01*
X48658395Y11566869D01*
X48532899Y11387642D01*
X48532898Y11387640D01*
X48524197Y11368981D01*
X48477278Y11315698D01*
X48409000Y11296239D01*
X48341041Y11316783D01*
X48294977Y11370807D01*
X48294616Y11371623D01*
X48278419Y11408550D01*
X48203077Y11523868D01*
X47564360Y10885152D01*
X47539493Y10969844D01*
X47461761Y11090798D01*
X47353100Y11184952D01*
X47222315Y11244680D01*
X47207586Y11246798D01*
X47845688Y11884900D01*
X47845687Y11884901D01*
X47825308Y11900763D01*
X47825303Y11900766D01*
X47681256Y11978721D01*
X47630866Y12028735D01*
X47615514Y12098052D01*
X47640075Y12164665D01*
X47687976Y12203730D01*
X47707639Y12212898D01*
X47886877Y12338402D01*
X48041598Y12493123D01*
X48167102Y12672361D01*
X48235805Y12819698D01*
X48282722Y12872981D01*
X48350999Y12892442D01*
X48418959Y12871900D01*
G37*
G04 #@! TD.AperFunction*
G04 #@! TA.AperFunction,Conductor*
G36*
X53498959Y12871900D02*
G01*
X53544194Y12819698D01*
X53612898Y12672361D01*
X53738402Y12493123D01*
X53893123Y12338402D01*
X54072361Y12212898D01*
X54211485Y12148024D01*
X54219695Y12144195D01*
X54272980Y12097278D01*
X54292441Y12029000D01*
X54271899Y11961040D01*
X54219695Y11915805D01*
X54072358Y11847101D01*
X53893131Y11721605D01*
X53893120Y11721596D01*
X53738404Y11566880D01*
X53738395Y11566869D01*
X53612899Y11387642D01*
X53612898Y11387640D01*
X53604197Y11368981D01*
X53557278Y11315698D01*
X53489000Y11296239D01*
X53421041Y11316783D01*
X53374977Y11370807D01*
X53374616Y11371623D01*
X53358419Y11408550D01*
X53283077Y11523868D01*
X52644360Y10885152D01*
X52619493Y10969844D01*
X52541761Y11090798D01*
X52433100Y11184952D01*
X52302315Y11244680D01*
X52287586Y11246798D01*
X52925688Y11884900D01*
X52925687Y11884901D01*
X52905308Y11900763D01*
X52905303Y11900766D01*
X52761256Y11978721D01*
X52710866Y12028735D01*
X52695514Y12098052D01*
X52720075Y12164665D01*
X52767976Y12203730D01*
X52787639Y12212898D01*
X52966877Y12338402D01*
X53121598Y12493123D01*
X53247102Y12672361D01*
X53315805Y12819698D01*
X53362722Y12872981D01*
X53430999Y12892442D01*
X53498959Y12871900D01*
G37*
G04 #@! TD.AperFunction*
G04 #@! TA.AperFunction,Conductor*
G36*
X58578959Y12871900D02*
G01*
X58624194Y12819698D01*
X58692898Y12672361D01*
X58818402Y12493123D01*
X58973123Y12338402D01*
X59152361Y12212898D01*
X59291485Y12148024D01*
X59299695Y12144195D01*
X59352980Y12097278D01*
X59372441Y12029000D01*
X59351899Y11961040D01*
X59299695Y11915805D01*
X59152358Y11847101D01*
X58973131Y11721605D01*
X58973120Y11721596D01*
X58818404Y11566880D01*
X58818395Y11566869D01*
X58692899Y11387642D01*
X58692898Y11387640D01*
X58684197Y11368981D01*
X58637278Y11315698D01*
X58569000Y11296239D01*
X58501041Y11316783D01*
X58454977Y11370807D01*
X58454616Y11371623D01*
X58438419Y11408550D01*
X58363077Y11523868D01*
X57724360Y10885152D01*
X57699493Y10969844D01*
X57621761Y11090798D01*
X57513100Y11184952D01*
X57382315Y11244680D01*
X57367586Y11246798D01*
X58005688Y11884900D01*
X58005687Y11884901D01*
X57985308Y11900763D01*
X57985303Y11900766D01*
X57841256Y11978721D01*
X57790866Y12028735D01*
X57775514Y12098052D01*
X57800075Y12164665D01*
X57847976Y12203730D01*
X57867639Y12212898D01*
X58046877Y12338402D01*
X58201598Y12493123D01*
X58327102Y12672361D01*
X58395805Y12819698D01*
X58442722Y12872981D01*
X58510999Y12892442D01*
X58578959Y12871900D01*
G37*
G04 #@! TD.AperFunction*
G04 #@! TA.AperFunction,Conductor*
G36*
X63569723Y12653674D02*
G01*
X63605709Y12592473D01*
X63609500Y12561797D01*
X63609500Y12418484D01*
X63624353Y12324698D01*
X63681949Y12211658D01*
X63771657Y12121950D01*
X63810299Y12102262D01*
X63884696Y12064354D01*
X63978481Y12049500D01*
X64121796Y12049501D01*
X64189914Y12029499D01*
X64236407Y11975844D01*
X64246512Y11905570D01*
X64217019Y11840989D01*
X64194065Y11820288D01*
X64053126Y11721601D01*
X64053120Y11721596D01*
X63898404Y11566880D01*
X63898395Y11566869D01*
X63772899Y11387642D01*
X63772898Y11387640D01*
X63764197Y11368981D01*
X63717278Y11315698D01*
X63649000Y11296239D01*
X63581041Y11316783D01*
X63534977Y11370807D01*
X63534616Y11371623D01*
X63518419Y11408550D01*
X63443077Y11523868D01*
X62804360Y10885152D01*
X62779493Y10969844D01*
X62701761Y11090798D01*
X62593100Y11184952D01*
X62462315Y11244680D01*
X62447586Y11246798D01*
X63085688Y11884900D01*
X63085687Y11884901D01*
X63065308Y11900763D01*
X63065303Y11900766D01*
X62921256Y11978721D01*
X62870866Y12028735D01*
X62855514Y12098052D01*
X62880075Y12164665D01*
X62927976Y12203730D01*
X62947639Y12212898D01*
X63126877Y12338402D01*
X63281598Y12493123D01*
X63380289Y12634069D01*
X63435743Y12678395D01*
X63506363Y12685704D01*
X63569723Y12653674D01*
G37*
G04 #@! TD.AperFunction*
G04 #@! TA.AperFunction,Conductor*
G36*
X75402611Y81524392D02*
G01*
X75842760Y81506188D01*
X75853109Y81505331D01*
X76287674Y81451162D01*
X76297938Y81449449D01*
X76726544Y81359580D01*
X76736612Y81357031D01*
X77156351Y81232069D01*
X77166183Y81228693D01*
X77323625Y81167259D01*
X77574138Y81069508D01*
X77583675Y81065325D01*
X77977094Y80872994D01*
X77986252Y80868038D01*
X78362439Y80643880D01*
X78371158Y80638184D01*
X78727560Y80383718D01*
X78735767Y80377331D01*
X79069954Y80094288D01*
X79077602Y80087246D01*
X79387245Y79777603D01*
X79394288Y79769954D01*
X79677327Y79435771D01*
X79683717Y79427561D01*
X79938183Y79071159D01*
X79943879Y79062440D01*
X80168037Y78686253D01*
X80172993Y78677095D01*
X80365324Y78283676D01*
X80369507Y78274139D01*
X80528689Y77866193D01*
X80532071Y77856343D01*
X80657026Y77436627D01*
X80659582Y77426532D01*
X80749447Y76997943D01*
X80751161Y76987671D01*
X80805328Y76553124D01*
X80806188Y76542746D01*
X80824392Y76102612D01*
X80824500Y76097405D01*
X80824500Y6602748D01*
X80824380Y6597252D01*
X80806000Y6176298D01*
X80805042Y6165348D01*
X80750403Y5750322D01*
X80748494Y5739497D01*
X80657892Y5330819D01*
X80655047Y5320201D01*
X80529171Y4920974D01*
X80525412Y4910645D01*
X80365215Y4523893D01*
X80360569Y4513931D01*
X80167284Y4142634D01*
X80161788Y4133114D01*
X79936873Y3780068D01*
X79930569Y3771064D01*
X79675735Y3438958D01*
X79668669Y3430538D01*
X79385863Y3121910D01*
X79378090Y3114137D01*
X79069462Y2831331D01*
X79061042Y2824265D01*
X78728936Y2569431D01*
X78719932Y2563127D01*
X78366886Y2338212D01*
X78357366Y2332716D01*
X77986069Y2139431D01*
X77976107Y2134785D01*
X77589355Y1974588D01*
X77579026Y1970829D01*
X77179799Y1844953D01*
X77169181Y1842108D01*
X76760503Y1751506D01*
X76749678Y1749597D01*
X76334652Y1694958D01*
X76323702Y1694000D01*
X75902748Y1675620D01*
X75897252Y1675500D01*
X6402596Y1675500D01*
X6397389Y1675608D01*
X5957254Y1693812D01*
X5946876Y1694672D01*
X5512329Y1748839D01*
X5502057Y1750553D01*
X5073468Y1840418D01*
X5063373Y1842974D01*
X4643657Y1967929D01*
X4633807Y1971311D01*
X4225861Y2130493D01*
X4216324Y2134676D01*
X3822905Y2327007D01*
X3813747Y2331963D01*
X3437560Y2556121D01*
X3428841Y2561817D01*
X3072439Y2816283D01*
X3064229Y2822673D01*
X2736792Y3099998D01*
X9443715Y3099998D01*
X9462783Y2942946D01*
X9462785Y2942939D01*
X9508394Y2822679D01*
X9518888Y2795009D01*
X9608764Y2664803D01*
X9727188Y2559888D01*
X9727189Y2559888D01*
X9727191Y2559886D01*
X9734365Y2556121D01*
X9867278Y2486363D01*
X10020894Y2448500D01*
X10020895Y2448500D01*
X10179105Y2448500D01*
X10179106Y2448500D01*
X10332722Y2486363D01*
X10472812Y2559888D01*
X10591236Y2664803D01*
X10681112Y2795009D01*
X10737215Y2942941D01*
X10756285Y3099998D01*
X72043715Y3099998D01*
X72062783Y2942946D01*
X72062785Y2942939D01*
X72108394Y2822679D01*
X72118888Y2795009D01*
X72208764Y2664803D01*
X72327188Y2559888D01*
X72327189Y2559888D01*
X72327191Y2559886D01*
X72334365Y2556121D01*
X72467278Y2486363D01*
X72620894Y2448500D01*
X72620895Y2448500D01*
X72779105Y2448500D01*
X72779106Y2448500D01*
X72932722Y2486363D01*
X73072812Y2559888D01*
X73191236Y2664803D01*
X73281112Y2795009D01*
X73337215Y2942941D01*
X73356285Y3100000D01*
X73355593Y3105701D01*
X73337216Y3257055D01*
X73337214Y3257062D01*
X73294158Y3370591D01*
X73281112Y3404991D01*
X73191236Y3535197D01*
X73072812Y3640112D01*
X73072811Y3640113D01*
X73072808Y3640115D01*
X72932726Y3713635D01*
X72932724Y3713636D01*
X72932722Y3713637D01*
X72932720Y3713638D01*
X72932719Y3713638D01*
X72779107Y3751500D01*
X72779106Y3751500D01*
X72620894Y3751500D01*
X72620892Y3751500D01*
X72467280Y3713638D01*
X72467273Y3713635D01*
X72327191Y3640115D01*
X72327186Y3640111D01*
X72231423Y3555271D01*
X72208764Y3535197D01*
X72118888Y3404991D01*
X72118888Y3404990D01*
X72118886Y3404987D01*
X72062785Y3257062D01*
X72062783Y3257055D01*
X72043715Y3100003D01*
X72043715Y3099998D01*
X10756285Y3099998D01*
X10756285Y3100000D01*
X10755593Y3105701D01*
X10737216Y3257055D01*
X10737214Y3257062D01*
X10694158Y3370591D01*
X10681112Y3404991D01*
X10591236Y3535197D01*
X10472812Y3640112D01*
X10472811Y3640113D01*
X10472808Y3640115D01*
X10332726Y3713635D01*
X10332724Y3713636D01*
X10332722Y3713637D01*
X10332720Y3713638D01*
X10332719Y3713638D01*
X10179107Y3751500D01*
X10179106Y3751500D01*
X10020894Y3751500D01*
X10020892Y3751500D01*
X9867280Y3713638D01*
X9867273Y3713635D01*
X9727191Y3640115D01*
X9727186Y3640111D01*
X9631423Y3555271D01*
X9608764Y3535197D01*
X9518888Y3404991D01*
X9518888Y3404990D01*
X9518886Y3404987D01*
X9462785Y3257062D01*
X9462783Y3257055D01*
X9443715Y3100003D01*
X9443715Y3099998D01*
X2736792Y3099998D01*
X2730046Y3105712D01*
X2722397Y3112755D01*
X2412754Y3422398D01*
X2405712Y3430046D01*
X2122669Y3764233D01*
X2116282Y3772440D01*
X1861816Y4128842D01*
X1856120Y4137561D01*
X1631962Y4513748D01*
X1627006Y4522906D01*
X1434675Y4916325D01*
X1430492Y4925862D01*
X1274573Y5325446D01*
X1271307Y5333817D01*
X1267928Y5343658D01*
X1142969Y5763388D01*
X1140420Y5773456D01*
X1128095Y5832235D01*
X3645788Y5832235D01*
X3675412Y5562986D01*
X3743928Y5300910D01*
X3849869Y5051611D01*
X3849870Y5051610D01*
X3990982Y4820390D01*
X4164255Y4612180D01*
X4164257Y4612178D01*
X4164259Y4612176D01*
X4269236Y4518117D01*
X4365998Y4431418D01*
X4591910Y4281956D01*
X4837176Y4166980D01*
X5096569Y4088940D01*
X5096572Y4088940D01*
X5096574Y4088939D01*
X5364557Y4049500D01*
X5364561Y4049500D01*
X5567631Y4049500D01*
X5770156Y4064323D01*
X5770160Y4064324D01*
X5770161Y4064324D01*
X5880665Y4088940D01*
X6034553Y4123220D01*
X6287558Y4219986D01*
X6523777Y4352559D01*
X6738177Y4518112D01*
X6926186Y4713119D01*
X7083799Y4933421D01*
X7207656Y5174325D01*
X7295118Y5430695D01*
X7344319Y5697067D01*
X7349259Y5832235D01*
X74645788Y5832235D01*
X74675412Y5562986D01*
X74743928Y5300910D01*
X74849869Y5051611D01*
X74849870Y5051610D01*
X74990982Y4820390D01*
X75164255Y4612180D01*
X75164257Y4612178D01*
X75164259Y4612176D01*
X75269236Y4518117D01*
X75365998Y4431418D01*
X75591910Y4281956D01*
X75837176Y4166980D01*
X76096569Y4088940D01*
X76096572Y4088940D01*
X76096574Y4088939D01*
X76364557Y4049500D01*
X76364561Y4049500D01*
X76567631Y4049500D01*
X76770156Y4064323D01*
X76770160Y4064324D01*
X76770161Y4064324D01*
X76880665Y4088940D01*
X77034553Y4123220D01*
X77287558Y4219986D01*
X77523777Y4352559D01*
X77738177Y4518112D01*
X77926186Y4713119D01*
X78083799Y4933421D01*
X78207656Y5174325D01*
X78295118Y5430695D01*
X78344319Y5697067D01*
X78354212Y5967765D01*
X78327872Y6207157D01*
X78324587Y6237015D01*
X78256071Y6499091D01*
X78150130Y6748390D01*
X78009018Y6979610D01*
X77835745Y7187820D01*
X77835741Y7187823D01*
X77835740Y7187825D01*
X77634012Y7368573D01*
X77634002Y7368582D01*
X77408090Y7518044D01*
X77162824Y7633020D01*
X77005392Y7680385D01*
X76903425Y7711062D01*
X76635442Y7750500D01*
X76635439Y7750500D01*
X76432369Y7750500D01*
X76229839Y7735677D01*
X76229838Y7735677D01*
X75965456Y7676783D01*
X75965441Y7676778D01*
X75712441Y7580014D01*
X75476229Y7447445D01*
X75476225Y7447443D01*
X75261818Y7281884D01*
X75073815Y7086883D01*
X75073810Y7086877D01*
X74916203Y6866583D01*
X74916196Y6866573D01*
X74792343Y6625676D01*
X74792342Y6625673D01*
X74704883Y6369311D01*
X74704880Y6369298D01*
X74655681Y6102942D01*
X74655680Y6102931D01*
X74645788Y5832235D01*
X7349259Y5832235D01*
X7354212Y5967765D01*
X7327872Y6207157D01*
X7324587Y6237015D01*
X7256071Y6499091D01*
X7150130Y6748390D01*
X7009018Y6979610D01*
X6835745Y7187820D01*
X6835741Y7187823D01*
X6835740Y7187825D01*
X6634012Y7368573D01*
X6634002Y7368582D01*
X6408090Y7518044D01*
X6162824Y7633020D01*
X6005392Y7680385D01*
X5903425Y7711062D01*
X5635442Y7750500D01*
X5635439Y7750500D01*
X5432369Y7750500D01*
X5229839Y7735677D01*
X5229838Y7735677D01*
X4965456Y7676783D01*
X4965441Y7676778D01*
X4712441Y7580014D01*
X4476229Y7447445D01*
X4476225Y7447443D01*
X4261818Y7281884D01*
X4073815Y7086883D01*
X4073810Y7086877D01*
X3916203Y6866583D01*
X3916196Y6866573D01*
X3792343Y6625676D01*
X3792342Y6625673D01*
X3704883Y6369311D01*
X3704880Y6369298D01*
X3655681Y6102942D01*
X3655680Y6102931D01*
X3645788Y5832235D01*
X1128095Y5832235D01*
X1050551Y6202062D01*
X1048838Y6212330D01*
X1026682Y6390076D01*
X994669Y6646891D01*
X993812Y6657240D01*
X975608Y7097389D01*
X975500Y7102596D01*
X975500Y10760000D01*
X15344723Y10760000D01*
X15363793Y10542023D01*
X15394023Y10429202D01*
X15419251Y10335048D01*
X15420425Y10330670D01*
X15512898Y10132361D01*
X15638402Y9953123D01*
X15793123Y9798402D01*
X15972361Y9672898D01*
X16170670Y9580425D01*
X16382023Y9523793D01*
X16600000Y9504723D01*
X16817977Y9523793D01*
X17029330Y9580425D01*
X17227639Y9672898D01*
X17406877Y9798402D01*
X17561598Y9953123D01*
X17687102Y10132361D01*
X17695800Y10151015D01*
X17742715Y10204299D01*
X17810992Y10223761D01*
X17878953Y10203220D01*
X17925019Y10149198D01*
X17925382Y10148379D01*
X17941580Y10111452D01*
X18016921Y9996134D01*
X18655638Y10634851D01*
X18680507Y10550156D01*
X18758239Y10429202D01*
X18866900Y10335048D01*
X18997685Y10275320D01*
X19012411Y10273203D01*
X18374310Y9635102D01*
X18394697Y9619234D01*
X18394701Y9619232D01*
X18592628Y9512118D01*
X18592630Y9512117D01*
X18805483Y9439045D01*
X18805490Y9439043D01*
X19027477Y9402000D01*
X19252523Y9402000D01*
X19474509Y9439043D01*
X19474516Y9439045D01*
X19687369Y9512117D01*
X19687371Y9512119D01*
X19885298Y9619231D01*
X19905687Y9635102D01*
X19267587Y10273203D01*
X19282315Y10275320D01*
X19413100Y10335048D01*
X19521761Y10429202D01*
X19599493Y10550156D01*
X19624361Y10634850D01*
X20263077Y9996134D01*
X20263078Y9996134D01*
X20304516Y10059559D01*
X20358519Y10105648D01*
X20428867Y10115223D01*
X20493225Y10085246D01*
X20515482Y10059560D01*
X20556921Y9996134D01*
X21195638Y10634851D01*
X21220507Y10550156D01*
X21298239Y10429202D01*
X21406900Y10335048D01*
X21537685Y10275320D01*
X21552411Y10273203D01*
X20914310Y9635102D01*
X20934697Y9619234D01*
X20934701Y9619232D01*
X21132628Y9512118D01*
X21132630Y9512117D01*
X21345483Y9439045D01*
X21345490Y9439043D01*
X21567477Y9402000D01*
X21792523Y9402000D01*
X22014509Y9439043D01*
X22014516Y9439045D01*
X22227369Y9512117D01*
X22227371Y9512119D01*
X22425298Y9619231D01*
X22445687Y9635102D01*
X21807587Y10273203D01*
X21822315Y10275320D01*
X21953100Y10335048D01*
X22061761Y10429202D01*
X22139493Y10550156D01*
X22164361Y10634850D01*
X22803077Y9996134D01*
X22878419Y10111451D01*
X22894616Y10148377D01*
X22940296Y10202726D01*
X23008108Y10223751D01*
X23076522Y10204776D01*
X23123817Y10151826D01*
X23124198Y10151017D01*
X23132897Y10132362D01*
X23228285Y9996134D01*
X23258402Y9953123D01*
X23413123Y9798402D01*
X23592361Y9672898D01*
X23790670Y9580425D01*
X24002023Y9523793D01*
X24220000Y9504723D01*
X24437977Y9523793D01*
X24649330Y9580425D01*
X24847639Y9672898D01*
X25026877Y9798402D01*
X25181598Y9953123D01*
X25307102Y10132361D01*
X25315800Y10151015D01*
X25362715Y10204299D01*
X25430992Y10223761D01*
X25498953Y10203220D01*
X25545019Y10149198D01*
X25545382Y10148379D01*
X25561580Y10111452D01*
X25636921Y9996134D01*
X26275638Y10634851D01*
X26300507Y10550156D01*
X26378239Y10429202D01*
X26486900Y10335048D01*
X26617685Y10275320D01*
X26632411Y10273203D01*
X25994310Y9635102D01*
X26014697Y9619234D01*
X26014701Y9619232D01*
X26212628Y9512118D01*
X26212630Y9512117D01*
X26425483Y9439045D01*
X26425490Y9439043D01*
X26647477Y9402000D01*
X26872523Y9402000D01*
X27094509Y9439043D01*
X27094516Y9439045D01*
X27307369Y9512117D01*
X27307371Y9512119D01*
X27505298Y9619231D01*
X27525687Y9635102D01*
X26887587Y10273203D01*
X26902315Y10275320D01*
X27033100Y10335048D01*
X27141761Y10429202D01*
X27219493Y10550156D01*
X27244361Y10634850D01*
X27883077Y9996134D01*
X27958419Y10111451D01*
X27974616Y10148377D01*
X28020296Y10202726D01*
X28088108Y10223751D01*
X28156522Y10204776D01*
X28203817Y10151826D01*
X28204198Y10151017D01*
X28212897Y10132362D01*
X28308285Y9996134D01*
X28338402Y9953123D01*
X28493123Y9798402D01*
X28672361Y9672898D01*
X28870670Y9580425D01*
X29082023Y9523793D01*
X29300000Y9504723D01*
X29517977Y9523793D01*
X29729330Y9580425D01*
X29927639Y9672898D01*
X30106877Y9798402D01*
X30261598Y9953123D01*
X30387102Y10132361D01*
X30395800Y10151015D01*
X30442715Y10204299D01*
X30510992Y10223761D01*
X30578953Y10203220D01*
X30625019Y10149198D01*
X30625382Y10148379D01*
X30641580Y10111452D01*
X30716921Y9996134D01*
X31355638Y10634851D01*
X31380507Y10550156D01*
X31458239Y10429202D01*
X31566900Y10335048D01*
X31697685Y10275320D01*
X31712411Y10273203D01*
X31074310Y9635102D01*
X31094697Y9619234D01*
X31094701Y9619232D01*
X31292628Y9512118D01*
X31292630Y9512117D01*
X31505483Y9439045D01*
X31505490Y9439043D01*
X31727477Y9402000D01*
X31952523Y9402000D01*
X32174509Y9439043D01*
X32174516Y9439045D01*
X32387369Y9512117D01*
X32387371Y9512119D01*
X32585298Y9619231D01*
X32605687Y9635102D01*
X31967587Y10273203D01*
X31982315Y10275320D01*
X32113100Y10335048D01*
X32221761Y10429202D01*
X32299493Y10550156D01*
X32324361Y10634850D01*
X32963077Y9996134D01*
X33038419Y10111451D01*
X33054616Y10148377D01*
X33100296Y10202726D01*
X33168108Y10223751D01*
X33236522Y10204776D01*
X33283817Y10151826D01*
X33284198Y10151017D01*
X33292897Y10132362D01*
X33388285Y9996134D01*
X33418402Y9953123D01*
X33573123Y9798402D01*
X33752361Y9672898D01*
X33950670Y9580425D01*
X34162023Y9523793D01*
X34380000Y9504723D01*
X34597977Y9523793D01*
X34809330Y9580425D01*
X35007639Y9672898D01*
X35186877Y9798402D01*
X35341598Y9953123D01*
X35467102Y10132361D01*
X35475800Y10151015D01*
X35522715Y10204299D01*
X35590992Y10223761D01*
X35658953Y10203220D01*
X35705019Y10149198D01*
X35705382Y10148379D01*
X35721580Y10111452D01*
X35796921Y9996134D01*
X36435638Y10634851D01*
X36460507Y10550156D01*
X36538239Y10429202D01*
X36646900Y10335048D01*
X36777685Y10275320D01*
X36792411Y10273203D01*
X36154310Y9635102D01*
X36174697Y9619234D01*
X36174701Y9619232D01*
X36372628Y9512118D01*
X36372630Y9512117D01*
X36585483Y9439045D01*
X36585490Y9439043D01*
X36807477Y9402000D01*
X37032523Y9402000D01*
X37254509Y9439043D01*
X37254516Y9439045D01*
X37467369Y9512117D01*
X37467371Y9512119D01*
X37665298Y9619231D01*
X37685688Y9635102D01*
X37047587Y10273203D01*
X37062315Y10275320D01*
X37193100Y10335048D01*
X37301761Y10429202D01*
X37379493Y10550156D01*
X37404361Y10634850D01*
X38043077Y9996134D01*
X38118419Y10111451D01*
X38134616Y10148377D01*
X38180296Y10202726D01*
X38248108Y10223751D01*
X38316522Y10204776D01*
X38363817Y10151826D01*
X38364198Y10151017D01*
X38372897Y10132362D01*
X38468285Y9996134D01*
X38498402Y9953123D01*
X38653123Y9798402D01*
X38832361Y9672898D01*
X39030670Y9580425D01*
X39242023Y9523793D01*
X39460000Y9504723D01*
X39677977Y9523793D01*
X39889330Y9580425D01*
X40087639Y9672898D01*
X40266877Y9798402D01*
X40421598Y9953123D01*
X40547102Y10132361D01*
X40555800Y10151015D01*
X40602715Y10204299D01*
X40670992Y10223761D01*
X40738953Y10203220D01*
X40785019Y10149198D01*
X40785382Y10148379D01*
X40801580Y10111452D01*
X40876921Y9996134D01*
X41515638Y10634851D01*
X41540507Y10550156D01*
X41618239Y10429202D01*
X41726900Y10335048D01*
X41857685Y10275320D01*
X41872411Y10273203D01*
X41234310Y9635102D01*
X41254697Y9619234D01*
X41254701Y9619232D01*
X41452628Y9512118D01*
X41452630Y9512117D01*
X41665483Y9439045D01*
X41665490Y9439043D01*
X41887477Y9402000D01*
X42112523Y9402000D01*
X42334509Y9439043D01*
X42334516Y9439045D01*
X42547369Y9512117D01*
X42547371Y9512119D01*
X42745298Y9619231D01*
X42765688Y9635102D01*
X42127587Y10273203D01*
X42142315Y10275320D01*
X42273100Y10335048D01*
X42381761Y10429202D01*
X42459493Y10550156D01*
X42484361Y10634850D01*
X43123077Y9996134D01*
X43123078Y9996134D01*
X43164516Y10059559D01*
X43218519Y10105648D01*
X43288867Y10115223D01*
X43353225Y10085246D01*
X43375482Y10059560D01*
X43416921Y9996134D01*
X44055638Y10634851D01*
X44080507Y10550156D01*
X44158239Y10429202D01*
X44266900Y10335048D01*
X44397685Y10275320D01*
X44412411Y10273203D01*
X43774310Y9635102D01*
X43794697Y9619234D01*
X43794701Y9619232D01*
X43992628Y9512118D01*
X43992630Y9512117D01*
X44205483Y9439045D01*
X44205490Y9439043D01*
X44427477Y9402000D01*
X44652523Y9402000D01*
X44874509Y9439043D01*
X44874516Y9439045D01*
X45087369Y9512117D01*
X45087371Y9512119D01*
X45285298Y9619231D01*
X45305687Y9635102D01*
X44667587Y10273203D01*
X44682315Y10275320D01*
X44813100Y10335048D01*
X44921761Y10429202D01*
X44999493Y10550156D01*
X45024361Y10634850D01*
X45663077Y9996134D01*
X45663078Y9996134D01*
X45704516Y10059559D01*
X45758519Y10105648D01*
X45828867Y10115223D01*
X45893225Y10085246D01*
X45915482Y10059560D01*
X45956921Y9996134D01*
X46595638Y10634851D01*
X46620507Y10550156D01*
X46698239Y10429202D01*
X46806900Y10335048D01*
X46937685Y10275320D01*
X46952411Y10273203D01*
X46314310Y9635102D01*
X46334697Y9619234D01*
X46334701Y9619232D01*
X46532628Y9512118D01*
X46532630Y9512117D01*
X46745483Y9439045D01*
X46745490Y9439043D01*
X46967477Y9402000D01*
X47192523Y9402000D01*
X47414509Y9439043D01*
X47414516Y9439045D01*
X47627369Y9512117D01*
X47627371Y9512119D01*
X47825298Y9619231D01*
X47845687Y9635102D01*
X47207587Y10273203D01*
X47222315Y10275320D01*
X47353100Y10335048D01*
X47461761Y10429202D01*
X47539493Y10550156D01*
X47564361Y10634850D01*
X48203077Y9996134D01*
X48278419Y10111451D01*
X48294616Y10148377D01*
X48340296Y10202726D01*
X48408108Y10223751D01*
X48476522Y10204776D01*
X48523817Y10151826D01*
X48524198Y10151017D01*
X48532897Y10132362D01*
X48628285Y9996134D01*
X48658402Y9953123D01*
X48813123Y9798402D01*
X48992361Y9672898D01*
X49190670Y9580425D01*
X49402023Y9523793D01*
X49620000Y9504723D01*
X49837977Y9523793D01*
X50049330Y9580425D01*
X50247639Y9672898D01*
X50426877Y9798402D01*
X50581598Y9953123D01*
X50707102Y10132361D01*
X50715800Y10151015D01*
X50762715Y10204299D01*
X50830992Y10223761D01*
X50898953Y10203220D01*
X50945019Y10149198D01*
X50945382Y10148379D01*
X50961580Y10111452D01*
X51036921Y9996134D01*
X51675638Y10634851D01*
X51700507Y10550156D01*
X51778239Y10429202D01*
X51886900Y10335048D01*
X52017685Y10275320D01*
X52032411Y10273203D01*
X51394310Y9635102D01*
X51414697Y9619234D01*
X51414701Y9619232D01*
X51612628Y9512118D01*
X51612630Y9512117D01*
X51825483Y9439045D01*
X51825490Y9439043D01*
X52047477Y9402000D01*
X52272523Y9402000D01*
X52494509Y9439043D01*
X52494516Y9439045D01*
X52707369Y9512117D01*
X52707371Y9512119D01*
X52905298Y9619231D01*
X52925687Y9635102D01*
X52287587Y10273203D01*
X52302315Y10275320D01*
X52433100Y10335048D01*
X52541761Y10429202D01*
X52619493Y10550156D01*
X52644361Y10634850D01*
X53283077Y9996134D01*
X53358419Y10111451D01*
X53374616Y10148377D01*
X53420296Y10202726D01*
X53488108Y10223751D01*
X53556522Y10204776D01*
X53603817Y10151826D01*
X53604198Y10151017D01*
X53612897Y10132362D01*
X53708285Y9996134D01*
X53738402Y9953123D01*
X53893123Y9798402D01*
X54072361Y9672898D01*
X54270670Y9580425D01*
X54482023Y9523793D01*
X54700000Y9504723D01*
X54917977Y9523793D01*
X55129330Y9580425D01*
X55327639Y9672898D01*
X55506877Y9798402D01*
X55661598Y9953123D01*
X55787102Y10132361D01*
X55795800Y10151015D01*
X55842715Y10204299D01*
X55910992Y10223761D01*
X55978953Y10203220D01*
X56025019Y10149198D01*
X56025382Y10148379D01*
X56041580Y10111452D01*
X56116921Y9996134D01*
X56755638Y10634851D01*
X56780507Y10550156D01*
X56858239Y10429202D01*
X56966900Y10335048D01*
X57097685Y10275320D01*
X57112411Y10273203D01*
X56474310Y9635102D01*
X56494697Y9619234D01*
X56494701Y9619232D01*
X56692628Y9512118D01*
X56692630Y9512117D01*
X56905483Y9439045D01*
X56905490Y9439043D01*
X57127477Y9402000D01*
X57352523Y9402000D01*
X57574509Y9439043D01*
X57574516Y9439045D01*
X57787369Y9512117D01*
X57787371Y9512119D01*
X57985298Y9619231D01*
X58005687Y9635102D01*
X57367587Y10273203D01*
X57382315Y10275320D01*
X57513100Y10335048D01*
X57621761Y10429202D01*
X57699493Y10550156D01*
X57724361Y10634850D01*
X58363077Y9996134D01*
X58438419Y10111451D01*
X58454616Y10148377D01*
X58500296Y10202726D01*
X58568108Y10223751D01*
X58636522Y10204776D01*
X58683817Y10151826D01*
X58684198Y10151017D01*
X58692897Y10132362D01*
X58788285Y9996134D01*
X58818402Y9953123D01*
X58973123Y9798402D01*
X59152361Y9672898D01*
X59350670Y9580425D01*
X59562023Y9523793D01*
X59780000Y9504723D01*
X59997977Y9523793D01*
X60209330Y9580425D01*
X60407639Y9672898D01*
X60586877Y9798402D01*
X60741598Y9953123D01*
X60867102Y10132361D01*
X60875800Y10151015D01*
X60922715Y10204299D01*
X60990992Y10223761D01*
X61058953Y10203220D01*
X61105019Y10149198D01*
X61105382Y10148379D01*
X61121580Y10111452D01*
X61196921Y9996134D01*
X61835638Y10634851D01*
X61860507Y10550156D01*
X61938239Y10429202D01*
X62046900Y10335048D01*
X62177685Y10275320D01*
X62192411Y10273203D01*
X61554310Y9635102D01*
X61574697Y9619234D01*
X61574701Y9619232D01*
X61772628Y9512118D01*
X61772630Y9512117D01*
X61985483Y9439045D01*
X61985490Y9439043D01*
X62207477Y9402000D01*
X62432523Y9402000D01*
X62654509Y9439043D01*
X62654516Y9439045D01*
X62867369Y9512117D01*
X62867371Y9512119D01*
X63065298Y9619231D01*
X63085687Y9635102D01*
X62447587Y10273203D01*
X62462315Y10275320D01*
X62593100Y10335048D01*
X62701761Y10429202D01*
X62779493Y10550156D01*
X62804361Y10634850D01*
X63443077Y9996134D01*
X63518419Y10111451D01*
X63534616Y10148377D01*
X63580296Y10202726D01*
X63648108Y10223751D01*
X63716522Y10204776D01*
X63763817Y10151826D01*
X63764198Y10151017D01*
X63772897Y10132362D01*
X63868285Y9996134D01*
X63898402Y9953123D01*
X64053123Y9798402D01*
X64232361Y9672898D01*
X64430670Y9580425D01*
X64642023Y9523793D01*
X64860000Y9504723D01*
X65077977Y9523793D01*
X65289330Y9580425D01*
X65487639Y9672898D01*
X65666877Y9798402D01*
X65821598Y9953123D01*
X65947102Y10132361D01*
X66039575Y10330670D01*
X66096207Y10542023D01*
X66115277Y10760000D01*
X66096207Y10977977D01*
X66039575Y11189330D01*
X65947102Y11387638D01*
X65947101Y11387640D01*
X65947100Y11387642D01*
X65821604Y11566869D01*
X65821601Y11566873D01*
X65821598Y11566877D01*
X65666877Y11721598D01*
X65525932Y11820289D01*
X65481605Y11875745D01*
X65474296Y11946364D01*
X65506327Y12009725D01*
X65567528Y12045710D01*
X65598203Y12049501D01*
X65741518Y12049501D01*
X65835304Y12064354D01*
X65948342Y12121950D01*
X66038050Y12211658D01*
X66095646Y12324696D01*
X66110500Y12418481D01*
X66110499Y14181518D01*
X66095646Y14275304D01*
X66066848Y14331823D01*
X66038050Y14388343D01*
X65948342Y14478051D01*
X65872502Y14516693D01*
X65835304Y14535646D01*
X65741519Y14550500D01*
X65741515Y14550500D01*
X63978483Y14550500D01*
X63884697Y14535647D01*
X63771657Y14478051D01*
X63681949Y14388343D01*
X63624355Y14275306D01*
X63624354Y14275304D01*
X63609500Y14181519D01*
X63609500Y14181516D01*
X63609500Y14038206D01*
X63589498Y13970085D01*
X63535842Y13923592D01*
X63465568Y13913488D01*
X63400988Y13942982D01*
X63380287Y13965935D01*
X63281600Y14106874D01*
X63281595Y14106880D01*
X63126879Y14261596D01*
X63126873Y14261601D01*
X62947639Y14387102D01*
X62749333Y14479574D01*
X62749328Y14479576D01*
X62671967Y14500305D01*
X62537977Y14536207D01*
X62320000Y14555277D01*
X62102023Y14536207D01*
X62012696Y14512272D01*
X61890671Y14479576D01*
X61890667Y14479574D01*
X61692358Y14387101D01*
X61513131Y14261605D01*
X61513120Y14261596D01*
X61358404Y14106880D01*
X61358395Y14106869D01*
X61232899Y13927642D01*
X61164195Y13780305D01*
X61117277Y13727020D01*
X61049000Y13707559D01*
X60981040Y13728101D01*
X60935805Y13780305D01*
X60867100Y13927642D01*
X60741604Y14106869D01*
X60741600Y14106874D01*
X60741598Y14106877D01*
X60586877Y14261598D01*
X60567304Y14275303D01*
X60407639Y14387102D01*
X60209333Y14479574D01*
X60209328Y14479576D01*
X60131967Y14500305D01*
X59997977Y14536207D01*
X59780000Y14555277D01*
X59562023Y14536207D01*
X59472696Y14512272D01*
X59350671Y14479576D01*
X59350667Y14479574D01*
X59152358Y14387101D01*
X58973131Y14261605D01*
X58973120Y14261596D01*
X58818404Y14106880D01*
X58818395Y14106869D01*
X58692899Y13927642D01*
X58624195Y13780305D01*
X58577277Y13727020D01*
X58509000Y13707559D01*
X58441040Y13728101D01*
X58395805Y13780305D01*
X58327100Y13927642D01*
X58201604Y14106869D01*
X58201600Y14106874D01*
X58201598Y14106877D01*
X58046877Y14261598D01*
X58027304Y14275303D01*
X57867639Y14387102D01*
X57669333Y14479574D01*
X57669328Y14479576D01*
X57591967Y14500305D01*
X57457977Y14536207D01*
X57240000Y14555277D01*
X57022023Y14536207D01*
X56932696Y14512272D01*
X56810671Y14479576D01*
X56810667Y14479574D01*
X56612358Y14387101D01*
X56433131Y14261605D01*
X56433120Y14261596D01*
X56278404Y14106880D01*
X56278395Y14106869D01*
X56152899Y13927642D01*
X56084195Y13780305D01*
X56037277Y13727020D01*
X55969000Y13707559D01*
X55901040Y13728101D01*
X55855805Y13780305D01*
X55787100Y13927642D01*
X55661604Y14106869D01*
X55661600Y14106874D01*
X55661598Y14106877D01*
X55506877Y14261598D01*
X55487304Y14275303D01*
X55327639Y14387102D01*
X55129333Y14479574D01*
X55129328Y14479576D01*
X55051967Y14500305D01*
X54917977Y14536207D01*
X54700000Y14555277D01*
X54482023Y14536207D01*
X54392696Y14512272D01*
X54270671Y14479576D01*
X54270667Y14479574D01*
X54072358Y14387101D01*
X53893131Y14261605D01*
X53893120Y14261596D01*
X53738404Y14106880D01*
X53738395Y14106869D01*
X53612899Y13927642D01*
X53544195Y13780305D01*
X53497277Y13727020D01*
X53429000Y13707559D01*
X53361040Y13728101D01*
X53315805Y13780305D01*
X53247100Y13927642D01*
X53121604Y14106869D01*
X53121600Y14106874D01*
X53121598Y14106877D01*
X52966877Y14261598D01*
X52947304Y14275303D01*
X52787639Y14387102D01*
X52589333Y14479574D01*
X52589328Y14479576D01*
X52511967Y14500305D01*
X52377977Y14536207D01*
X52160000Y14555277D01*
X51942023Y14536207D01*
X51852696Y14512272D01*
X51730671Y14479576D01*
X51730667Y14479574D01*
X51532358Y14387101D01*
X51353131Y14261605D01*
X51353120Y14261596D01*
X51198404Y14106880D01*
X51198395Y14106869D01*
X51072899Y13927642D01*
X51004195Y13780305D01*
X50957277Y13727020D01*
X50889000Y13707559D01*
X50821040Y13728101D01*
X50775805Y13780305D01*
X50707100Y13927642D01*
X50581604Y14106869D01*
X50581600Y14106874D01*
X50581598Y14106877D01*
X50426877Y14261598D01*
X50407304Y14275303D01*
X50247639Y14387102D01*
X50049333Y14479574D01*
X50049328Y14479576D01*
X49971967Y14500305D01*
X49837977Y14536207D01*
X49620000Y14555277D01*
X49402023Y14536207D01*
X49312696Y14512272D01*
X49190671Y14479576D01*
X49190667Y14479574D01*
X48992358Y14387101D01*
X48813131Y14261605D01*
X48813120Y14261596D01*
X48658404Y14106880D01*
X48658395Y14106869D01*
X48532899Y13927642D01*
X48464195Y13780305D01*
X48417277Y13727020D01*
X48349000Y13707559D01*
X48281040Y13728101D01*
X48235805Y13780305D01*
X48167100Y13927642D01*
X48041604Y14106869D01*
X48041600Y14106874D01*
X48041598Y14106877D01*
X47886877Y14261598D01*
X47867304Y14275303D01*
X47707639Y14387102D01*
X47509333Y14479574D01*
X47509328Y14479576D01*
X47431967Y14500305D01*
X47297977Y14536207D01*
X47080000Y14555277D01*
X46862023Y14536207D01*
X46772696Y14512272D01*
X46650671Y14479576D01*
X46650667Y14479574D01*
X46452358Y14387101D01*
X46273131Y14261605D01*
X46273120Y14261596D01*
X46118404Y14106880D01*
X46118395Y14106869D01*
X45992899Y13927642D01*
X45924195Y13780305D01*
X45877277Y13727020D01*
X45809000Y13707559D01*
X45741040Y13728101D01*
X45695805Y13780305D01*
X45627100Y13927642D01*
X45501604Y14106869D01*
X45501600Y14106874D01*
X45501598Y14106877D01*
X45346877Y14261598D01*
X45327304Y14275303D01*
X45167639Y14387102D01*
X44969333Y14479574D01*
X44969328Y14479576D01*
X44891967Y14500305D01*
X44757977Y14536207D01*
X44540000Y14555277D01*
X44322023Y14536207D01*
X44232696Y14512272D01*
X44110671Y14479576D01*
X44110667Y14479574D01*
X43912358Y14387101D01*
X43733131Y14261605D01*
X43733120Y14261596D01*
X43578404Y14106880D01*
X43578395Y14106869D01*
X43452899Y13927642D01*
X43384195Y13780305D01*
X43337277Y13727020D01*
X43269000Y13707559D01*
X43201040Y13728101D01*
X43155805Y13780305D01*
X43087100Y13927642D01*
X42961604Y14106869D01*
X42961600Y14106874D01*
X42961598Y14106877D01*
X42806877Y14261598D01*
X42787304Y14275303D01*
X42627639Y14387102D01*
X42429333Y14479574D01*
X42429328Y14479576D01*
X42351967Y14500305D01*
X42217977Y14536207D01*
X42000000Y14555277D01*
X41782023Y14536207D01*
X41692696Y14512272D01*
X41570671Y14479576D01*
X41570667Y14479574D01*
X41372358Y14387101D01*
X41193131Y14261605D01*
X41193120Y14261596D01*
X41038404Y14106880D01*
X41038395Y14106869D01*
X40912899Y13927642D01*
X40844195Y13780305D01*
X40797277Y13727020D01*
X40729000Y13707559D01*
X40661040Y13728101D01*
X40615805Y13780305D01*
X40547100Y13927642D01*
X40421604Y14106869D01*
X40421600Y14106874D01*
X40421598Y14106877D01*
X40266877Y14261598D01*
X40247304Y14275303D01*
X40087639Y14387102D01*
X39889333Y14479574D01*
X39889328Y14479576D01*
X39811967Y14500305D01*
X39677977Y14536207D01*
X39460000Y14555277D01*
X39242023Y14536207D01*
X39152696Y14512272D01*
X39030671Y14479576D01*
X39030667Y14479574D01*
X38832358Y14387101D01*
X38653131Y14261605D01*
X38653120Y14261596D01*
X38498404Y14106880D01*
X38498395Y14106869D01*
X38372899Y13927642D01*
X38304195Y13780305D01*
X38257277Y13727020D01*
X38189000Y13707559D01*
X38121040Y13728101D01*
X38075805Y13780305D01*
X38007100Y13927642D01*
X37881604Y14106869D01*
X37881600Y14106874D01*
X37881598Y14106877D01*
X37726877Y14261598D01*
X37707304Y14275303D01*
X37547639Y14387102D01*
X37349333Y14479574D01*
X37349328Y14479576D01*
X37271967Y14500305D01*
X37137977Y14536207D01*
X36920000Y14555277D01*
X36702023Y14536207D01*
X36612696Y14512272D01*
X36490671Y14479576D01*
X36490667Y14479574D01*
X36292358Y14387101D01*
X36113131Y14261605D01*
X36113120Y14261596D01*
X35958404Y14106880D01*
X35958395Y14106869D01*
X35832899Y13927642D01*
X35764195Y13780305D01*
X35717277Y13727020D01*
X35649000Y13707559D01*
X35581040Y13728101D01*
X35535805Y13780305D01*
X35467100Y13927642D01*
X35341604Y14106869D01*
X35341600Y14106874D01*
X35341598Y14106877D01*
X35186877Y14261598D01*
X35167304Y14275303D01*
X35007639Y14387102D01*
X34809333Y14479574D01*
X34809328Y14479576D01*
X34731967Y14500305D01*
X34597977Y14536207D01*
X34380000Y14555277D01*
X34162023Y14536207D01*
X34072696Y14512272D01*
X33950671Y14479576D01*
X33950667Y14479574D01*
X33752358Y14387101D01*
X33573131Y14261605D01*
X33573120Y14261596D01*
X33418404Y14106880D01*
X33418395Y14106869D01*
X33292899Y13927642D01*
X33224195Y13780305D01*
X33177277Y13727020D01*
X33109000Y13707559D01*
X33041040Y13728101D01*
X32995805Y13780305D01*
X32927100Y13927642D01*
X32801604Y14106869D01*
X32801600Y14106874D01*
X32801598Y14106877D01*
X32646877Y14261598D01*
X32627304Y14275303D01*
X32467639Y14387102D01*
X32269333Y14479574D01*
X32269328Y14479576D01*
X32191967Y14500305D01*
X32057977Y14536207D01*
X31840000Y14555277D01*
X31622023Y14536207D01*
X31532696Y14512272D01*
X31410671Y14479576D01*
X31410667Y14479574D01*
X31212358Y14387101D01*
X31033131Y14261605D01*
X31033120Y14261596D01*
X30878404Y14106880D01*
X30878395Y14106869D01*
X30752899Y13927642D01*
X30684195Y13780305D01*
X30637277Y13727020D01*
X30569000Y13707559D01*
X30501040Y13728101D01*
X30455805Y13780305D01*
X30387100Y13927642D01*
X30261604Y14106869D01*
X30261600Y14106874D01*
X30261598Y14106877D01*
X30106877Y14261598D01*
X30087304Y14275303D01*
X29927639Y14387102D01*
X29729333Y14479574D01*
X29729328Y14479576D01*
X29651967Y14500305D01*
X29517977Y14536207D01*
X29300000Y14555277D01*
X29082023Y14536207D01*
X28992696Y14512272D01*
X28870671Y14479576D01*
X28870667Y14479574D01*
X28672358Y14387101D01*
X28493131Y14261605D01*
X28493120Y14261596D01*
X28338404Y14106880D01*
X28338395Y14106869D01*
X28212899Y13927642D01*
X28144195Y13780305D01*
X28097277Y13727020D01*
X28029000Y13707559D01*
X27961040Y13728101D01*
X27915805Y13780305D01*
X27847100Y13927642D01*
X27721604Y14106869D01*
X27721600Y14106874D01*
X27721598Y14106877D01*
X27566877Y14261598D01*
X27547304Y14275303D01*
X27387639Y14387102D01*
X27189333Y14479574D01*
X27189328Y14479576D01*
X27111967Y14500305D01*
X26977977Y14536207D01*
X26760000Y14555277D01*
X26542023Y14536207D01*
X26452696Y14512272D01*
X26330671Y14479576D01*
X26330667Y14479574D01*
X26132358Y14387101D01*
X25953131Y14261605D01*
X25953120Y14261596D01*
X25798404Y14106880D01*
X25798395Y14106869D01*
X25672899Y13927642D01*
X25604195Y13780305D01*
X25557277Y13727020D01*
X25489000Y13707559D01*
X25421040Y13728101D01*
X25375805Y13780305D01*
X25307100Y13927642D01*
X25181604Y14106869D01*
X25181600Y14106874D01*
X25181598Y14106877D01*
X25026877Y14261598D01*
X25007304Y14275303D01*
X24847639Y14387102D01*
X24649333Y14479574D01*
X24649328Y14479576D01*
X24571967Y14500305D01*
X24437977Y14536207D01*
X24220000Y14555277D01*
X24002023Y14536207D01*
X23912696Y14512272D01*
X23790671Y14479576D01*
X23790667Y14479574D01*
X23592358Y14387101D01*
X23413131Y14261605D01*
X23413120Y14261596D01*
X23258404Y14106880D01*
X23258395Y14106869D01*
X23132899Y13927642D01*
X23064195Y13780305D01*
X23017277Y13727020D01*
X22949000Y13707559D01*
X22881040Y13728101D01*
X22835805Y13780305D01*
X22767100Y13927642D01*
X22641604Y14106869D01*
X22641600Y14106874D01*
X22641598Y14106877D01*
X22486877Y14261598D01*
X22467304Y14275303D01*
X22307639Y14387102D01*
X22109333Y14479574D01*
X22109328Y14479576D01*
X22031967Y14500305D01*
X21897977Y14536207D01*
X21680000Y14555277D01*
X21462023Y14536207D01*
X21372696Y14512272D01*
X21250671Y14479576D01*
X21250667Y14479574D01*
X21052358Y14387101D01*
X20873131Y14261605D01*
X20873120Y14261596D01*
X20718404Y14106880D01*
X20718395Y14106869D01*
X20592899Y13927642D01*
X20524195Y13780305D01*
X20477277Y13727020D01*
X20409000Y13707559D01*
X20341040Y13728101D01*
X20295805Y13780305D01*
X20227100Y13927642D01*
X20101604Y14106869D01*
X20101600Y14106874D01*
X20101598Y14106877D01*
X19946877Y14261598D01*
X19927304Y14275303D01*
X19767639Y14387102D01*
X19569333Y14479574D01*
X19569328Y14479576D01*
X19491967Y14500305D01*
X19357977Y14536207D01*
X19140000Y14555277D01*
X18922023Y14536207D01*
X18832696Y14512272D01*
X18710671Y14479576D01*
X18710667Y14479574D01*
X18512358Y14387101D01*
X18333131Y14261605D01*
X18333120Y14261596D01*
X18178404Y14106880D01*
X18178395Y14106869D01*
X18052899Y13927642D01*
X17984195Y13780305D01*
X17937277Y13727020D01*
X17869000Y13707559D01*
X17801040Y13728101D01*
X17755805Y13780305D01*
X17687100Y13927642D01*
X17561604Y14106869D01*
X17561600Y14106874D01*
X17561598Y14106877D01*
X17406877Y14261598D01*
X17387304Y14275303D01*
X17227639Y14387102D01*
X17029333Y14479574D01*
X17029328Y14479576D01*
X16951967Y14500305D01*
X16817977Y14536207D01*
X16600000Y14555277D01*
X16382023Y14536207D01*
X16292696Y14512272D01*
X16170671Y14479576D01*
X16170667Y14479574D01*
X15972358Y14387101D01*
X15793131Y14261605D01*
X15793120Y14261596D01*
X15638404Y14106880D01*
X15638395Y14106869D01*
X15512899Y13927642D01*
X15420426Y13729333D01*
X15420424Y13729329D01*
X15414591Y13707559D01*
X15363793Y13517977D01*
X15344723Y13300000D01*
X15363793Y13082023D01*
X15399695Y12948033D01*
X15420424Y12870672D01*
X15420426Y12870667D01*
X15506676Y12685704D01*
X15512898Y12672361D01*
X15638402Y12493123D01*
X15793123Y12338402D01*
X15972361Y12212898D01*
X16111485Y12148024D01*
X16119695Y12144195D01*
X16172980Y12097278D01*
X16192441Y12029000D01*
X16171899Y11961040D01*
X16119695Y11915805D01*
X15972358Y11847101D01*
X15793131Y11721605D01*
X15793120Y11721596D01*
X15638404Y11566880D01*
X15638395Y11566869D01*
X15512899Y11387642D01*
X15420426Y11189333D01*
X15420424Y11189329D01*
X15394023Y11090798D01*
X15363793Y10977977D01*
X15344723Y10760000D01*
X975500Y10760000D01*
X975500Y20381000D01*
X77163455Y20381000D01*
X77211176Y20192551D01*
X77211179Y20192544D01*
X77301580Y19986452D01*
X77424674Y19798042D01*
X77577097Y19632466D01*
X77754698Y19494233D01*
X77754699Y19494232D01*
X77952628Y19387118D01*
X77952630Y19387117D01*
X78165483Y19314045D01*
X78165492Y19314043D01*
X78246000Y19300609D01*
X78246000Y20201326D01*
X78357685Y20150320D01*
X78464237Y20135000D01*
X78535763Y20135000D01*
X78642315Y20150320D01*
X78754000Y20201326D01*
X78754000Y19300610D01*
X78834507Y19314043D01*
X78834516Y19314045D01*
X79047369Y19387117D01*
X79047371Y19387118D01*
X79245300Y19494232D01*
X79245301Y19494233D01*
X79422902Y19632466D01*
X79575325Y19798042D01*
X79698419Y19986452D01*
X79788820Y20192544D01*
X79788823Y20192551D01*
X79836544Y20381000D01*
X78931116Y20381000D01*
X78959493Y20425156D01*
X79000000Y20563111D01*
X79000000Y20706889D01*
X78959493Y20844844D01*
X78931116Y20889000D01*
X79836544Y20889000D01*
X79836544Y20889001D01*
X79788823Y21077450D01*
X79788820Y21077457D01*
X79698419Y21283549D01*
X79575325Y21471959D01*
X79422902Y21637535D01*
X79338804Y21702991D01*
X79297333Y21760616D01*
X79293599Y21831515D01*
X79328789Y21893177D01*
X79391730Y21926025D01*
X79396469Y21926869D01*
X79475304Y21939354D01*
X79588342Y21996950D01*
X79678050Y22086658D01*
X79735646Y22199696D01*
X79750500Y22293481D01*
X79750499Y24056518D01*
X79735646Y24150304D01*
X79697184Y24225789D01*
X79678050Y24263343D01*
X79588342Y24353051D01*
X79512502Y24391693D01*
X79475304Y24410646D01*
X79381519Y24425500D01*
X79381515Y24425500D01*
X77618483Y24425500D01*
X77524697Y24410647D01*
X77411657Y24353051D01*
X77321949Y24263343D01*
X77264355Y24150306D01*
X77264354Y24150304D01*
X77249500Y24056519D01*
X77249500Y24056516D01*
X77249500Y22293484D01*
X77264353Y22199698D01*
X77321949Y22086658D01*
X77411657Y21996950D01*
X77524694Y21939355D01*
X77524696Y21939354D01*
X77603517Y21926871D01*
X77667666Y21896460D01*
X77705193Y21836192D01*
X77704180Y21765203D01*
X77664948Y21706031D01*
X77661195Y21702992D01*
X77577098Y21637536D01*
X77424674Y21471959D01*
X77301580Y21283549D01*
X77211179Y21077457D01*
X77211176Y21077450D01*
X77163455Y20889001D01*
X77163456Y20889000D01*
X78068884Y20889000D01*
X78040507Y20844844D01*
X78000000Y20706889D01*
X78000000Y20563111D01*
X78040507Y20425156D01*
X78068884Y20381000D01*
X77163455Y20381000D01*
X975500Y20381000D01*
X975500Y21900000D01*
X58894435Y21900000D01*
X58914632Y21720745D01*
X58974211Y21550478D01*
X58974212Y21550475D01*
X59070182Y21397740D01*
X59070183Y21397738D01*
X59197737Y21270184D01*
X59197739Y21270183D01*
X59350474Y21174213D01*
X59350475Y21174213D01*
X59350478Y21174211D01*
X59520745Y21114632D01*
X59700000Y21094435D01*
X59879255Y21114632D01*
X60049522Y21174211D01*
X60202262Y21270184D01*
X60329816Y21397738D01*
X60425789Y21550478D01*
X60485368Y21720745D01*
X60505565Y21900000D01*
X60485368Y22079255D01*
X60425789Y22249522D01*
X60425787Y22249525D01*
X60425787Y22249526D01*
X60329817Y22402261D01*
X60329816Y22402263D01*
X60202262Y22529817D01*
X60202260Y22529818D01*
X60101208Y22593313D01*
X60054170Y22646491D01*
X60043350Y22716658D01*
X60072183Y22781537D01*
X60101208Y22806687D01*
X60202260Y22870183D01*
X60202262Y22870184D01*
X60329816Y22997738D01*
X60329817Y22997740D01*
X60425787Y23150475D01*
X60425786Y23150475D01*
X60425789Y23150478D01*
X60485368Y23320745D01*
X60505565Y23500000D01*
X60485368Y23679255D01*
X60425789Y23849522D01*
X60425787Y23849525D01*
X60425787Y23849526D01*
X60329817Y24002261D01*
X60329816Y24002263D01*
X60202262Y24129817D01*
X60202260Y24129818D01*
X60049525Y24225788D01*
X60049522Y24225789D01*
X59879255Y24285368D01*
X59700000Y24305565D01*
X59520745Y24285368D01*
X59520742Y24285368D01*
X59520742Y24285367D01*
X59350477Y24225789D01*
X59350474Y24225788D01*
X59197739Y24129818D01*
X59197737Y24129817D01*
X59070183Y24002263D01*
X59070182Y24002261D01*
X58974212Y23849526D01*
X58974211Y23849523D01*
X58974211Y23849522D01*
X58914632Y23679255D01*
X58894435Y23500000D01*
X58914632Y23320745D01*
X58914633Y23320743D01*
X58974211Y23150478D01*
X58974212Y23150475D01*
X59070182Y22997740D01*
X59070183Y22997738D01*
X59197737Y22870184D01*
X59197739Y22870183D01*
X59298791Y22806687D01*
X59345829Y22753508D01*
X59356649Y22683341D01*
X59327816Y22618463D01*
X59298791Y22593313D01*
X59197739Y22529818D01*
X59197737Y22529817D01*
X59070183Y22402263D01*
X59070182Y22402261D01*
X58974212Y22249526D01*
X58974211Y22249523D01*
X58974211Y22249522D01*
X58914632Y22079255D01*
X58894435Y21900000D01*
X975500Y21900000D01*
X975500Y28500000D01*
X12494435Y28500000D01*
X12514632Y28320745D01*
X12574211Y28150478D01*
X12574212Y28150475D01*
X12670182Y27997740D01*
X12670183Y27997738D01*
X12797737Y27870184D01*
X12797739Y27870183D01*
X12950474Y27774213D01*
X12950475Y27774213D01*
X12950478Y27774211D01*
X13120745Y27714632D01*
X13300000Y27694435D01*
X13479255Y27714632D01*
X13649522Y27774211D01*
X13802262Y27870184D01*
X13929816Y27997738D01*
X14025789Y28150478D01*
X14085368Y28320745D01*
X14105565Y28500000D01*
X57694435Y28500000D01*
X57714632Y28320745D01*
X57774211Y28150478D01*
X57774212Y28150475D01*
X57870182Y27997740D01*
X57870183Y27997738D01*
X57997737Y27870184D01*
X57997739Y27870183D01*
X58150474Y27774213D01*
X58150475Y27774213D01*
X58150478Y27774211D01*
X58320745Y27714632D01*
X58500000Y27694435D01*
X58679255Y27714632D01*
X58849522Y27774211D01*
X59002262Y27870184D01*
X59129816Y27997738D01*
X59225789Y28150478D01*
X59285368Y28320745D01*
X59305565Y28500000D01*
X60094435Y28500000D01*
X60114632Y28320745D01*
X60174211Y28150478D01*
X60174212Y28150475D01*
X60270182Y27997740D01*
X60270183Y27997738D01*
X60397737Y27870184D01*
X60397739Y27870183D01*
X60550474Y27774213D01*
X60550475Y27774213D01*
X60550478Y27774211D01*
X60720745Y27714632D01*
X60900000Y27694435D01*
X61079255Y27714632D01*
X61249522Y27774211D01*
X61402262Y27870184D01*
X61529816Y27997738D01*
X61625789Y28150478D01*
X61685368Y28320745D01*
X61705565Y28500000D01*
X61685368Y28679255D01*
X61625789Y28849522D01*
X61625787Y28849525D01*
X61625787Y28849526D01*
X61594072Y28900000D01*
X73894435Y28900000D01*
X73914632Y28720745D01*
X73914633Y28720743D01*
X73974211Y28550478D01*
X73974212Y28550475D01*
X74070182Y28397740D01*
X74070183Y28397738D01*
X74197737Y28270184D01*
X74197739Y28270183D01*
X74350474Y28174213D01*
X74350475Y28174213D01*
X74350478Y28174211D01*
X74520745Y28114632D01*
X74700000Y28094435D01*
X74879255Y28114632D01*
X75049522Y28174211D01*
X75202262Y28270184D01*
X75329816Y28397738D01*
X75425789Y28550478D01*
X75485368Y28720745D01*
X75505565Y28900000D01*
X75485368Y29079255D01*
X75425789Y29249522D01*
X75425787Y29249525D01*
X75425787Y29249526D01*
X75329817Y29402261D01*
X75329816Y29402263D01*
X75202262Y29529817D01*
X75202260Y29529818D01*
X75049525Y29625788D01*
X75049522Y29625789D01*
X74879255Y29685368D01*
X74700000Y29705565D01*
X74520745Y29685368D01*
X74520742Y29685368D01*
X74520742Y29685367D01*
X74350477Y29625789D01*
X74350474Y29625788D01*
X74197739Y29529818D01*
X74197737Y29529817D01*
X74070183Y29402263D01*
X74070182Y29402261D01*
X73974212Y29249526D01*
X73974211Y29249523D01*
X73974211Y29249522D01*
X73914632Y29079255D01*
X73894435Y28900000D01*
X61594072Y28900000D01*
X61529817Y29002261D01*
X61529816Y29002263D01*
X61402262Y29129817D01*
X61402260Y29129818D01*
X61249525Y29225788D01*
X61249522Y29225789D01*
X61181694Y29249523D01*
X61079255Y29285368D01*
X60900000Y29305565D01*
X60720745Y29285368D01*
X60720742Y29285368D01*
X60720742Y29285367D01*
X60550477Y29225789D01*
X60550474Y29225788D01*
X60397739Y29129818D01*
X60397737Y29129817D01*
X60270183Y29002263D01*
X60270182Y29002261D01*
X60174212Y28849526D01*
X60174211Y28849523D01*
X60174211Y28849522D01*
X60114632Y28679255D01*
X60094435Y28500000D01*
X59305565Y28500000D01*
X59285368Y28679255D01*
X59225789Y28849522D01*
X59225787Y28849525D01*
X59225787Y28849526D01*
X59129817Y29002261D01*
X59129816Y29002263D01*
X59002262Y29129817D01*
X59002260Y29129818D01*
X58849525Y29225788D01*
X58849522Y29225789D01*
X58781694Y29249523D01*
X58679255Y29285368D01*
X58500000Y29305565D01*
X58320745Y29285368D01*
X58320742Y29285368D01*
X58320742Y29285367D01*
X58150477Y29225789D01*
X58150474Y29225788D01*
X57997739Y29129818D01*
X57997737Y29129817D01*
X57870183Y29002263D01*
X57870182Y29002261D01*
X57774212Y28849526D01*
X57774211Y28849523D01*
X57774211Y28849522D01*
X57714632Y28679255D01*
X57694435Y28500000D01*
X14105565Y28500000D01*
X14085368Y28679255D01*
X14025789Y28849522D01*
X14025787Y28849525D01*
X14025787Y28849526D01*
X13929817Y29002261D01*
X13929816Y29002263D01*
X13802262Y29129817D01*
X13802260Y29129818D01*
X13649525Y29225788D01*
X13649522Y29225789D01*
X13581694Y29249523D01*
X13479255Y29285368D01*
X13300000Y29305565D01*
X13120745Y29285368D01*
X13120742Y29285368D01*
X13120742Y29285367D01*
X12950477Y29225789D01*
X12950474Y29225788D01*
X12797739Y29129818D01*
X12797737Y29129817D01*
X12670183Y29002263D01*
X12670182Y29002261D01*
X12574212Y28849526D01*
X12574211Y28849523D01*
X12574211Y28849522D01*
X12514632Y28679255D01*
X12494435Y28500000D01*
X975500Y28500000D01*
X975500Y30100000D01*
X69494435Y30100000D01*
X69514632Y29920745D01*
X69514633Y29920743D01*
X69574211Y29750478D01*
X69574212Y29750475D01*
X69670182Y29597740D01*
X69670183Y29597738D01*
X69797737Y29470184D01*
X69797739Y29470183D01*
X69950474Y29374213D01*
X69950475Y29374213D01*
X69950478Y29374211D01*
X70120745Y29314632D01*
X70300000Y29294435D01*
X70479255Y29314632D01*
X70649522Y29374211D01*
X70802262Y29470184D01*
X70929816Y29597738D01*
X71025789Y29750478D01*
X71085368Y29920745D01*
X71105565Y30100000D01*
X71085368Y30279255D01*
X71025789Y30449522D01*
X71025787Y30449525D01*
X71025787Y30449526D01*
X70929817Y30602261D01*
X70929816Y30602263D01*
X70802262Y30729817D01*
X70802260Y30729818D01*
X70649525Y30825788D01*
X70649522Y30825789D01*
X70479255Y30885368D01*
X70300000Y30905565D01*
X70120745Y30885368D01*
X70120742Y30885368D01*
X70120742Y30885367D01*
X69950477Y30825789D01*
X69950474Y30825788D01*
X69797739Y30729818D01*
X69797737Y30729817D01*
X69670183Y30602263D01*
X69670182Y30602261D01*
X69574212Y30449526D01*
X69574211Y30449523D01*
X69574211Y30449522D01*
X69514632Y30279255D01*
X69494435Y30100000D01*
X975500Y30100000D01*
X975500Y32300000D01*
X11744435Y32300000D01*
X11764632Y32120745D01*
X11764633Y32120743D01*
X11824211Y31950478D01*
X11824212Y31950475D01*
X11920182Y31797740D01*
X11920183Y31797738D01*
X12047737Y31670184D01*
X12047739Y31670183D01*
X12200474Y31574213D01*
X12200475Y31574213D01*
X12200478Y31574211D01*
X12370745Y31514632D01*
X12550000Y31494435D01*
X12729255Y31514632D01*
X12899522Y31574211D01*
X13052262Y31670184D01*
X13179816Y31797738D01*
X13275789Y31950478D01*
X13335368Y32120745D01*
X13355565Y32300000D01*
X13335368Y32479255D01*
X13275789Y32649522D01*
X13275787Y32649525D01*
X13275787Y32649526D01*
X13179817Y32802261D01*
X13179816Y32802263D01*
X13052262Y32929817D01*
X13052260Y32929818D01*
X12899525Y33025788D01*
X12899522Y33025789D01*
X12729255Y33085368D01*
X12550000Y33105565D01*
X12370745Y33085368D01*
X12370742Y33085368D01*
X12370742Y33085367D01*
X12200477Y33025789D01*
X12200474Y33025788D01*
X12047739Y32929818D01*
X12047737Y32929817D01*
X11920183Y32802263D01*
X11920182Y32802261D01*
X11824212Y32649526D01*
X11824211Y32649523D01*
X11824211Y32649522D01*
X11764632Y32479255D01*
X11744435Y32300000D01*
X975500Y32300000D01*
X975500Y34300000D01*
X70094435Y34300000D01*
X70114632Y34120745D01*
X70114633Y34120743D01*
X70174211Y33950478D01*
X70174212Y33950475D01*
X70270182Y33797740D01*
X70270183Y33797738D01*
X70397737Y33670184D01*
X70397739Y33670183D01*
X70550474Y33574213D01*
X70550475Y33574213D01*
X70550478Y33574211D01*
X70720745Y33514632D01*
X70900000Y33494435D01*
X71079255Y33514632D01*
X71249522Y33574211D01*
X71402262Y33670184D01*
X71529816Y33797738D01*
X71625789Y33950478D01*
X71685368Y34120745D01*
X71705565Y34300000D01*
X71685368Y34479255D01*
X71625789Y34649522D01*
X71625787Y34649525D01*
X71625787Y34649526D01*
X71529817Y34802261D01*
X71529816Y34802263D01*
X71402262Y34929817D01*
X71402260Y34929818D01*
X71249525Y35025788D01*
X71249522Y35025789D01*
X71079255Y35085368D01*
X70900000Y35105565D01*
X70720745Y35085368D01*
X70720742Y35085368D01*
X70720742Y35085367D01*
X70550477Y35025789D01*
X70550474Y35025788D01*
X70397739Y34929818D01*
X70397737Y34929817D01*
X70270183Y34802263D01*
X70270182Y34802261D01*
X70174212Y34649526D01*
X70174211Y34649523D01*
X70174211Y34649522D01*
X70114632Y34479255D01*
X70094435Y34300000D01*
X975500Y34300000D01*
X975500Y39700000D01*
X12294435Y39700000D01*
X12314632Y39520745D01*
X12314633Y39520743D01*
X12374211Y39350478D01*
X12374212Y39350475D01*
X12470182Y39197740D01*
X12470183Y39197738D01*
X12597737Y39070184D01*
X12597739Y39070183D01*
X12750474Y38974213D01*
X12750475Y38974213D01*
X12750478Y38974211D01*
X12920745Y38914632D01*
X13100000Y38894435D01*
X13279255Y38914632D01*
X13449522Y38974211D01*
X13602262Y39070184D01*
X13729816Y39197738D01*
X13825789Y39350478D01*
X13885368Y39520745D01*
X13905565Y39700000D01*
X13885368Y39879255D01*
X13825789Y40049522D01*
X13825787Y40049525D01*
X13825787Y40049526D01*
X13729817Y40202261D01*
X13729816Y40202263D01*
X13602262Y40329817D01*
X13602260Y40329818D01*
X13449525Y40425788D01*
X13449522Y40425789D01*
X13279255Y40485368D01*
X13100000Y40505565D01*
X12920745Y40485368D01*
X12920742Y40485368D01*
X12920742Y40485367D01*
X12750477Y40425789D01*
X12750474Y40425788D01*
X12597739Y40329818D01*
X12597737Y40329817D01*
X12470183Y40202263D01*
X12470182Y40202261D01*
X12374212Y40049526D01*
X12374211Y40049523D01*
X12374211Y40049522D01*
X12314632Y39879255D01*
X12294435Y39700000D01*
X975500Y39700000D01*
X975500Y41930000D01*
X18174357Y41930000D01*
X18194885Y41708461D01*
X18255768Y41494480D01*
X18255774Y41494463D01*
X18354938Y41295316D01*
X18354942Y41295311D01*
X18489017Y41117765D01*
X18653438Y40967876D01*
X18653439Y40967875D01*
X18842587Y40850760D01*
X18842590Y40850759D01*
X18842599Y40850753D01*
X18932989Y40815736D01*
X19050053Y40770384D01*
X19050056Y40770384D01*
X19050060Y40770382D01*
X19268757Y40729500D01*
X19268760Y40729500D01*
X19491240Y40729500D01*
X19491243Y40729500D01*
X19709940Y40770382D01*
X19709944Y40770384D01*
X19709946Y40770384D01*
X19768099Y40792913D01*
X19917401Y40850753D01*
X20106562Y40967876D01*
X20270981Y41117764D01*
X20405058Y41295311D01*
X20478418Y41442638D01*
X20526685Y41494698D01*
X20595440Y41512401D01*
X20662850Y41490122D01*
X20705402Y41439722D01*
X20782912Y41273502D01*
X20914184Y41086026D01*
X20914189Y41086020D01*
X21076019Y40924190D01*
X21076025Y40924185D01*
X21263501Y40792913D01*
X21470926Y40696189D01*
X21470931Y40696187D01*
X21666000Y40643919D01*
X21666000Y41618314D01*
X21681955Y41602359D01*
X21794852Y41544835D01*
X21888519Y41530000D01*
X21951481Y41530000D01*
X22045148Y41544835D01*
X22158045Y41602359D01*
X22174000Y41618314D01*
X22174000Y40643919D01*
X22369068Y40696187D01*
X22369073Y40696189D01*
X22576498Y40792913D01*
X22763974Y40924185D01*
X22763980Y40924190D01*
X22925810Y41086020D01*
X22925815Y41086026D01*
X23057087Y41273502D01*
X23134597Y41439722D01*
X23181514Y41493007D01*
X23249791Y41512468D01*
X23317751Y41491926D01*
X23361582Y41442635D01*
X23434938Y41295316D01*
X23434942Y41295311D01*
X23569017Y41117765D01*
X23733438Y40967876D01*
X23733439Y40967875D01*
X23922587Y40850760D01*
X23922590Y40850759D01*
X23922599Y40850753D01*
X24012989Y40815736D01*
X24130053Y40770384D01*
X24130056Y40770384D01*
X24130060Y40770382D01*
X24348757Y40729500D01*
X24348760Y40729500D01*
X24571240Y40729500D01*
X24571243Y40729500D01*
X24789940Y40770382D01*
X24789944Y40770384D01*
X24789946Y40770384D01*
X24848099Y40792913D01*
X24997401Y40850753D01*
X25186562Y40967876D01*
X25350981Y41117764D01*
X25485058Y41295311D01*
X25485059Y41295315D01*
X25485061Y41295316D01*
X25584225Y41494463D01*
X25584226Y41494467D01*
X25584229Y41494472D01*
X25608810Y41580865D01*
X25646690Y41640912D01*
X25711021Y41670946D01*
X25781377Y41661433D01*
X25835422Y41615393D01*
X25851190Y41580865D01*
X25875768Y41494480D01*
X25875774Y41494463D01*
X25974938Y41295316D01*
X25974942Y41295311D01*
X26109017Y41117765D01*
X26273438Y40967876D01*
X26273439Y40967875D01*
X26462587Y40850760D01*
X26462590Y40850759D01*
X26462599Y40850753D01*
X26552989Y40815736D01*
X26670053Y40770384D01*
X26670056Y40770384D01*
X26670060Y40770382D01*
X26888757Y40729500D01*
X26888760Y40729500D01*
X27111240Y40729500D01*
X27111243Y40729500D01*
X27329940Y40770382D01*
X27329944Y40770384D01*
X27329946Y40770384D01*
X27388099Y40792913D01*
X27537401Y40850753D01*
X27726562Y40967876D01*
X27890981Y41117764D01*
X28025058Y41295311D01*
X28025059Y41295315D01*
X28025061Y41295316D01*
X28124225Y41494463D01*
X28124226Y41494467D01*
X28124229Y41494472D01*
X28185115Y41708464D01*
X28205643Y41930000D01*
X28189890Y42100000D01*
X67694435Y42100000D01*
X67714632Y41920745D01*
X67714633Y41920743D01*
X67774211Y41750478D01*
X67774212Y41750475D01*
X67870182Y41597740D01*
X67870183Y41597738D01*
X67997737Y41470184D01*
X67997739Y41470183D01*
X68150474Y41374213D01*
X68150475Y41374213D01*
X68150478Y41374211D01*
X68320745Y41314632D01*
X68500000Y41294435D01*
X68679255Y41314632D01*
X68849522Y41374211D01*
X69002262Y41470184D01*
X69129816Y41597738D01*
X69225789Y41750478D01*
X69285368Y41920745D01*
X69305565Y42100000D01*
X69285368Y42279255D01*
X69225789Y42449522D01*
X69225787Y42449525D01*
X69225787Y42449526D01*
X69129817Y42602261D01*
X69129816Y42602263D01*
X69002262Y42729817D01*
X69002260Y42729818D01*
X68849525Y42825788D01*
X68849522Y42825789D01*
X68679255Y42885368D01*
X68500000Y42905565D01*
X68320745Y42885368D01*
X68320742Y42885368D01*
X68320742Y42885367D01*
X68150477Y42825789D01*
X68150474Y42825788D01*
X67997739Y42729818D01*
X67997737Y42729817D01*
X67870183Y42602263D01*
X67870182Y42602261D01*
X67774212Y42449526D01*
X67774211Y42449523D01*
X67732388Y42330000D01*
X67714632Y42279255D01*
X67694435Y42100000D01*
X28189890Y42100000D01*
X28185115Y42151536D01*
X28124229Y42365528D01*
X28124227Y42365532D01*
X28124225Y42365538D01*
X28025061Y42564685D01*
X28025057Y42564690D01*
X27890982Y42742236D01*
X27726561Y42892125D01*
X27726560Y42892126D01*
X27537412Y43009241D01*
X27537405Y43009245D01*
X27537401Y43009247D01*
X27537396Y43009249D01*
X27329946Y43089617D01*
X27290972Y43096903D01*
X27111243Y43130500D01*
X26888757Y43130500D01*
X26747674Y43104127D01*
X26670053Y43089617D01*
X26462603Y43009249D01*
X26462587Y43009241D01*
X26273439Y42892126D01*
X26273438Y42892125D01*
X26109017Y42742236D01*
X25974942Y42564690D01*
X25974938Y42564685D01*
X25875774Y42365538D01*
X25875768Y42365521D01*
X25851190Y42279136D01*
X25813310Y42219089D01*
X25748979Y42189055D01*
X25678622Y42198568D01*
X25624578Y42244608D01*
X25608810Y42279136D01*
X25584231Y42365521D01*
X25584225Y42365538D01*
X25485061Y42564685D01*
X25485057Y42564690D01*
X25350982Y42742236D01*
X25186561Y42892125D01*
X25186560Y42892126D01*
X24997412Y43009241D01*
X24997405Y43009245D01*
X24997401Y43009247D01*
X24997396Y43009249D01*
X24789946Y43089617D01*
X24750972Y43096903D01*
X24571243Y43130500D01*
X24348757Y43130500D01*
X24207674Y43104127D01*
X24130053Y43089617D01*
X23922603Y43009249D01*
X23922587Y43009241D01*
X23733439Y42892126D01*
X23733438Y42892125D01*
X23569017Y42742236D01*
X23434942Y42564690D01*
X23434941Y42564689D01*
X23361582Y42417365D01*
X23313313Y42365302D01*
X23244558Y42347600D01*
X23177148Y42369880D01*
X23134597Y42420279D01*
X23057087Y42586499D01*
X22925815Y42773975D01*
X22925810Y42773981D01*
X22763980Y42935811D01*
X22763974Y42935816D01*
X22576498Y43067088D01*
X22369073Y43163812D01*
X22369071Y43163813D01*
X22174000Y43216083D01*
X22174000Y42241686D01*
X22158045Y42257641D01*
X22045148Y42315165D01*
X21951481Y42330000D01*
X21888519Y42330000D01*
X21794852Y42315165D01*
X21681955Y42257641D01*
X21666000Y42241686D01*
X21666000Y43216083D01*
X21665999Y43216083D01*
X21470928Y43163813D01*
X21470926Y43163812D01*
X21263501Y43067088D01*
X21076025Y42935816D01*
X21076019Y42935811D01*
X20914189Y42773981D01*
X20914184Y42773975D01*
X20782912Y42586499D01*
X20705402Y42420279D01*
X20658484Y42366994D01*
X20590207Y42347533D01*
X20522247Y42368075D01*
X20478417Y42417365D01*
X20405058Y42564689D01*
X20360984Y42623053D01*
X20270982Y42742236D01*
X20106561Y42892125D01*
X20106560Y42892126D01*
X19917412Y43009241D01*
X19917405Y43009245D01*
X19917401Y43009247D01*
X19917396Y43009249D01*
X19709946Y43089617D01*
X19670972Y43096903D01*
X19491243Y43130500D01*
X19268757Y43130500D01*
X19127674Y43104127D01*
X19050053Y43089617D01*
X18842603Y43009249D01*
X18842587Y43009241D01*
X18653439Y42892126D01*
X18653438Y42892125D01*
X18489017Y42742236D01*
X18354942Y42564690D01*
X18354938Y42564685D01*
X18255774Y42365538D01*
X18255768Y42365521D01*
X18194885Y42151540D01*
X18174357Y41930000D01*
X975500Y41930000D01*
X975500Y48100000D01*
X68894435Y48100000D01*
X68914632Y47920745D01*
X68914633Y47920743D01*
X68974211Y47750478D01*
X68974212Y47750475D01*
X69070182Y47597740D01*
X69070183Y47597738D01*
X69197737Y47470184D01*
X69197739Y47470183D01*
X69350474Y47374213D01*
X69350475Y47374213D01*
X69350478Y47374211D01*
X69520745Y47314632D01*
X69700000Y47294435D01*
X69879255Y47314632D01*
X70049522Y47374211D01*
X70202262Y47470184D01*
X70329816Y47597738D01*
X70425789Y47750478D01*
X70485368Y47920745D01*
X70505565Y48100000D01*
X70485368Y48279255D01*
X70425789Y48449522D01*
X70425787Y48449525D01*
X70425787Y48449526D01*
X70329817Y48602261D01*
X70329816Y48602263D01*
X70202262Y48729817D01*
X70202260Y48729818D01*
X70190878Y48736970D01*
X70143840Y48790148D01*
X70133020Y48860315D01*
X70161853Y48925194D01*
X70216297Y48962586D01*
X70249522Y48974211D01*
X70402262Y49070184D01*
X70529816Y49197738D01*
X70625789Y49350478D01*
X70678109Y49500000D01*
X73894435Y49500000D01*
X73914632Y49320745D01*
X73944498Y49235393D01*
X73974211Y49150478D01*
X73974212Y49150475D01*
X74070182Y48997740D01*
X74070183Y48997738D01*
X74197737Y48870184D01*
X74197739Y48870183D01*
X74350474Y48774213D01*
X74350475Y48774213D01*
X74350478Y48774211D01*
X74520745Y48714632D01*
X74700000Y48694435D01*
X74879255Y48714632D01*
X75049522Y48774211D01*
X75202262Y48870184D01*
X75329816Y48997738D01*
X75425789Y49150478D01*
X75485368Y49320745D01*
X75505565Y49500000D01*
X75485368Y49679255D01*
X75425789Y49849522D01*
X75425787Y49849525D01*
X75425787Y49849526D01*
X75329817Y50002261D01*
X75329816Y50002263D01*
X75202262Y50129817D01*
X75202260Y50129818D01*
X75049525Y50225788D01*
X75049522Y50225789D01*
X74879255Y50285368D01*
X74700000Y50305565D01*
X74520745Y50285368D01*
X74520742Y50285368D01*
X74520742Y50285367D01*
X74350477Y50225789D01*
X74350474Y50225788D01*
X74197739Y50129818D01*
X74197737Y50129817D01*
X74070183Y50002263D01*
X74070182Y50002261D01*
X73974212Y49849526D01*
X73974211Y49849523D01*
X73921891Y49700000D01*
X73914632Y49679255D01*
X73894435Y49500000D01*
X70678109Y49500000D01*
X70685368Y49520745D01*
X70705565Y49700000D01*
X70685368Y49879255D01*
X70625789Y50049522D01*
X70625787Y50049525D01*
X70625787Y50049526D01*
X70529817Y50202261D01*
X70529816Y50202263D01*
X70402262Y50329817D01*
X70402260Y50329818D01*
X70249525Y50425788D01*
X70249522Y50425789D01*
X70079255Y50485368D01*
X69900000Y50505565D01*
X69720745Y50485368D01*
X69720742Y50485368D01*
X69720742Y50485367D01*
X69550477Y50425789D01*
X69550474Y50425788D01*
X69397739Y50329818D01*
X69397737Y50329817D01*
X69270183Y50202263D01*
X69270182Y50202261D01*
X69174212Y50049526D01*
X69174211Y50049523D01*
X69144358Y49964207D01*
X69114632Y49879255D01*
X69094435Y49700000D01*
X69114632Y49520745D01*
X69114633Y49520743D01*
X69174211Y49350478D01*
X69174212Y49350475D01*
X69270182Y49197740D01*
X69270183Y49197738D01*
X69397739Y49070182D01*
X69409119Y49063032D01*
X69456158Y49009855D01*
X69466979Y48939688D01*
X69438148Y48874809D01*
X69383703Y48837416D01*
X69350478Y48825790D01*
X69350474Y48825788D01*
X69197739Y48729818D01*
X69197737Y48729817D01*
X69070183Y48602263D01*
X69070182Y48602261D01*
X68974212Y48449526D01*
X68974211Y48449523D01*
X68953517Y48390382D01*
X68914632Y48279255D01*
X68894435Y48100000D01*
X975500Y48100000D01*
X975500Y49550000D01*
X18174357Y49550000D01*
X18194885Y49328461D01*
X18255768Y49114480D01*
X18255774Y49114463D01*
X18354938Y48915316D01*
X18354942Y48915311D01*
X18489017Y48737765D01*
X18653438Y48587876D01*
X18653439Y48587875D01*
X18842587Y48470760D01*
X18842590Y48470759D01*
X18842599Y48470753D01*
X18932989Y48435736D01*
X19050053Y48390384D01*
X19050056Y48390384D01*
X19050060Y48390382D01*
X19268757Y48349500D01*
X19268760Y48349500D01*
X19491240Y48349500D01*
X19491243Y48349500D01*
X19709940Y48390382D01*
X19709944Y48390384D01*
X19709946Y48390384D01*
X19791426Y48421950D01*
X19917401Y48470753D01*
X20106562Y48587876D01*
X20270981Y48737764D01*
X20405058Y48915311D01*
X20405059Y48915315D01*
X20405061Y48915316D01*
X20504225Y49114463D01*
X20504226Y49114467D01*
X20504229Y49114472D01*
X20528810Y49200865D01*
X20566690Y49260912D01*
X20631021Y49290946D01*
X20701377Y49281433D01*
X20755422Y49235393D01*
X20771190Y49200865D01*
X20795768Y49114480D01*
X20795774Y49114463D01*
X20894938Y48915316D01*
X20894942Y48915311D01*
X21029017Y48737765D01*
X21193438Y48587876D01*
X21193439Y48587875D01*
X21382587Y48470760D01*
X21382590Y48470759D01*
X21382599Y48470753D01*
X21472989Y48435736D01*
X21590053Y48390384D01*
X21590056Y48390384D01*
X21590060Y48390382D01*
X21808757Y48349500D01*
X21808760Y48349500D01*
X22031240Y48349500D01*
X22031243Y48349500D01*
X22249940Y48390382D01*
X22249944Y48390384D01*
X22249946Y48390384D01*
X22331426Y48421950D01*
X22457401Y48470753D01*
X22646562Y48587876D01*
X22810981Y48737764D01*
X22945058Y48915311D01*
X22945059Y48915315D01*
X22945061Y48915316D01*
X23044225Y49114463D01*
X23044226Y49114467D01*
X23044229Y49114472D01*
X23068810Y49200865D01*
X23106690Y49260912D01*
X23171021Y49290946D01*
X23241377Y49281433D01*
X23295422Y49235393D01*
X23311190Y49200865D01*
X23335768Y49114480D01*
X23335774Y49114463D01*
X23434938Y48915316D01*
X23434942Y48915311D01*
X23569017Y48737765D01*
X23733438Y48587876D01*
X23733439Y48587875D01*
X23922587Y48470760D01*
X23922590Y48470759D01*
X23922599Y48470753D01*
X24012989Y48435736D01*
X24130053Y48390384D01*
X24130056Y48390384D01*
X24130060Y48390382D01*
X24348757Y48349500D01*
X24348760Y48349500D01*
X24571240Y48349500D01*
X24571243Y48349500D01*
X24789940Y48390382D01*
X24789944Y48390384D01*
X24789946Y48390384D01*
X24871426Y48421950D01*
X24997401Y48470753D01*
X25186562Y48587876D01*
X25350981Y48737764D01*
X25485058Y48915311D01*
X25560711Y49067243D01*
X25608978Y49119303D01*
X25677733Y49137006D01*
X25745143Y49114727D01*
X25789807Y49059540D01*
X25799500Y49011077D01*
X25799500Y48718484D01*
X25814353Y48624698D01*
X25871949Y48511658D01*
X25961657Y48421950D01*
X26000299Y48402262D01*
X26074696Y48364354D01*
X26168481Y48349500D01*
X27831518Y48349501D01*
X27925304Y48364354D01*
X28038342Y48421950D01*
X28128050Y48511658D01*
X28185646Y48624696D01*
X28200500Y48718481D01*
X28200499Y49700000D01*
X51094435Y49700000D01*
X51114632Y49520745D01*
X51114633Y49520743D01*
X51174211Y49350478D01*
X51174212Y49350475D01*
X51270182Y49197740D01*
X51270183Y49197738D01*
X51397737Y49070184D01*
X51397739Y49070183D01*
X51550474Y48974213D01*
X51550475Y48974213D01*
X51550478Y48974211D01*
X51720745Y48914632D01*
X51900000Y48894435D01*
X52079255Y48914632D01*
X52249522Y48974211D01*
X52402262Y49070184D01*
X52529816Y49197738D01*
X52625789Y49350478D01*
X52685368Y49520745D01*
X52705565Y49700000D01*
X52685368Y49879255D01*
X52625789Y50049522D01*
X52625787Y50049525D01*
X52625787Y50049526D01*
X52529817Y50202261D01*
X52529816Y50202263D01*
X52402262Y50329817D01*
X52402260Y50329818D01*
X52249525Y50425788D01*
X52249522Y50425789D01*
X52079255Y50485368D01*
X51900000Y50505565D01*
X51720745Y50485368D01*
X51720742Y50485368D01*
X51720742Y50485367D01*
X51550477Y50425789D01*
X51550474Y50425788D01*
X51397739Y50329818D01*
X51397737Y50329817D01*
X51270183Y50202263D01*
X51270182Y50202261D01*
X51174212Y50049526D01*
X51174211Y50049523D01*
X51144358Y49964207D01*
X51114632Y49879255D01*
X51094435Y49700000D01*
X28200499Y49700000D01*
X28200499Y50381518D01*
X28185646Y50475304D01*
X28156848Y50531823D01*
X28128050Y50588343D01*
X28038342Y50678051D01*
X27962502Y50716693D01*
X27925304Y50735646D01*
X27831519Y50750500D01*
X27831515Y50750500D01*
X26168483Y50750500D01*
X26074697Y50735647D01*
X25961657Y50678051D01*
X25871949Y50588343D01*
X25819482Y50485368D01*
X25814354Y50475304D01*
X25799500Y50381519D01*
X25799500Y50381516D01*
X25799500Y50088925D01*
X25779498Y50020804D01*
X25725842Y49974311D01*
X25655568Y49964207D01*
X25590988Y49993701D01*
X25560710Y50032762D01*
X25485061Y50184685D01*
X25485057Y50184690D01*
X25471787Y50202262D01*
X25393777Y50305565D01*
X25350982Y50362236D01*
X25186561Y50512125D01*
X25186560Y50512126D01*
X24997412Y50629241D01*
X24997405Y50629245D01*
X24997401Y50629247D01*
X24997396Y50629249D01*
X24789946Y50709617D01*
X24750972Y50716903D01*
X24571243Y50750500D01*
X24348757Y50750500D01*
X24207674Y50724127D01*
X24130053Y50709617D01*
X23922603Y50629249D01*
X23922587Y50629241D01*
X23733439Y50512126D01*
X23733438Y50512125D01*
X23569017Y50362236D01*
X23434942Y50184690D01*
X23434938Y50184685D01*
X23335774Y49985538D01*
X23335768Y49985521D01*
X23311190Y49899136D01*
X23273310Y49839089D01*
X23208979Y49809055D01*
X23138622Y49818568D01*
X23084578Y49864608D01*
X23068810Y49899136D01*
X23044231Y49985521D01*
X23044225Y49985538D01*
X22945061Y50184685D01*
X22945057Y50184690D01*
X22931787Y50202262D01*
X22853777Y50305565D01*
X22810982Y50362236D01*
X22646561Y50512125D01*
X22646560Y50512126D01*
X22457412Y50629241D01*
X22457405Y50629245D01*
X22457401Y50629247D01*
X22457396Y50629249D01*
X22249946Y50709617D01*
X22210972Y50716903D01*
X22031243Y50750500D01*
X21808757Y50750500D01*
X21667674Y50724127D01*
X21590053Y50709617D01*
X21382603Y50629249D01*
X21382587Y50629241D01*
X21193439Y50512126D01*
X21193438Y50512125D01*
X21029017Y50362236D01*
X20894942Y50184690D01*
X20894938Y50184685D01*
X20795774Y49985538D01*
X20795768Y49985521D01*
X20771190Y49899136D01*
X20733310Y49839089D01*
X20668979Y49809055D01*
X20598622Y49818568D01*
X20544578Y49864608D01*
X20528810Y49899136D01*
X20504231Y49985521D01*
X20504225Y49985538D01*
X20405061Y50184685D01*
X20405057Y50184690D01*
X20391787Y50202262D01*
X20313777Y50305565D01*
X20270982Y50362236D01*
X20106561Y50512125D01*
X20106560Y50512126D01*
X19917412Y50629241D01*
X19917405Y50629245D01*
X19917401Y50629247D01*
X19917396Y50629249D01*
X19709946Y50709617D01*
X19670972Y50716903D01*
X19491243Y50750500D01*
X19268757Y50750500D01*
X19127674Y50724127D01*
X19050053Y50709617D01*
X18842603Y50629249D01*
X18842587Y50629241D01*
X18653439Y50512126D01*
X18653438Y50512125D01*
X18489017Y50362236D01*
X18354942Y50184690D01*
X18354938Y50184685D01*
X18255774Y49985538D01*
X18255768Y49985521D01*
X18194885Y49771540D01*
X18174357Y49550000D01*
X975500Y49550000D01*
X975500Y54100000D01*
X26294435Y54100000D01*
X26314632Y53920745D01*
X26314633Y53920743D01*
X26374211Y53750478D01*
X26374212Y53750475D01*
X26470182Y53597740D01*
X26470183Y53597738D01*
X26597737Y53470184D01*
X26597739Y53470183D01*
X26750474Y53374213D01*
X26750475Y53374213D01*
X26750478Y53374211D01*
X26920745Y53314632D01*
X27100000Y53294435D01*
X27279255Y53314632D01*
X27449522Y53374211D01*
X27602262Y53470184D01*
X27729816Y53597738D01*
X27825789Y53750478D01*
X27885368Y53920745D01*
X27905565Y54100000D01*
X27885368Y54279255D01*
X27825789Y54449522D01*
X27825787Y54449525D01*
X27825787Y54449526D01*
X27729817Y54602261D01*
X27729816Y54602263D01*
X27602262Y54729817D01*
X27602260Y54729818D01*
X27449525Y54825788D01*
X27449522Y54825789D01*
X27279255Y54885368D01*
X27100000Y54905565D01*
X26920745Y54885368D01*
X26920742Y54885368D01*
X26920742Y54885367D01*
X26750477Y54825789D01*
X26750474Y54825788D01*
X26597739Y54729818D01*
X26597737Y54729817D01*
X26470183Y54602263D01*
X26470182Y54602261D01*
X26374212Y54449526D01*
X26374211Y54449523D01*
X26374211Y54449522D01*
X26314632Y54279255D01*
X26294435Y54100000D01*
X975500Y54100000D01*
X975500Y55300000D01*
X14094435Y55300000D01*
X14114632Y55120745D01*
X14114633Y55120743D01*
X14174211Y54950478D01*
X14174212Y54950475D01*
X14270182Y54797740D01*
X14270183Y54797738D01*
X14397737Y54670184D01*
X14397739Y54670183D01*
X14550474Y54574213D01*
X14550475Y54574213D01*
X14550478Y54574211D01*
X14720745Y54514632D01*
X14900000Y54494435D01*
X15079255Y54514632D01*
X15249522Y54574211D01*
X15402262Y54670184D01*
X15529816Y54797738D01*
X15625789Y54950478D01*
X15685368Y55120745D01*
X15705565Y55300000D01*
X15685368Y55479255D01*
X15625789Y55649522D01*
X15625787Y55649525D01*
X15625787Y55649526D01*
X15529817Y55802261D01*
X15529816Y55802263D01*
X15402262Y55929817D01*
X15402260Y55929818D01*
X15249525Y56025788D01*
X15249522Y56025789D01*
X15079255Y56085368D01*
X14900000Y56105565D01*
X14720745Y56085368D01*
X14720742Y56085368D01*
X14720742Y56085367D01*
X14550477Y56025789D01*
X14550474Y56025788D01*
X14397739Y55929818D01*
X14397737Y55929817D01*
X14270183Y55802263D01*
X14270182Y55802261D01*
X14174212Y55649526D01*
X14174211Y55649523D01*
X14127012Y55514634D01*
X14114632Y55479255D01*
X14094435Y55300000D01*
X975500Y55300000D01*
X975500Y56300000D01*
X67494435Y56300000D01*
X67514632Y56120745D01*
X67547859Y56025789D01*
X67574211Y55950478D01*
X67574212Y55950475D01*
X67670182Y55797740D01*
X67670183Y55797738D01*
X67797737Y55670184D01*
X67797739Y55670183D01*
X67950474Y55574213D01*
X67950475Y55574213D01*
X67950478Y55574211D01*
X68120745Y55514632D01*
X68300000Y55494435D01*
X68479255Y55514632D01*
X68649522Y55574211D01*
X68802262Y55670184D01*
X68929816Y55797738D01*
X69025789Y55950478D01*
X69085368Y56120745D01*
X69105565Y56300000D01*
X69085368Y56479255D01*
X69025789Y56649522D01*
X69025787Y56649525D01*
X69025787Y56649526D01*
X68929817Y56802261D01*
X68929816Y56802263D01*
X68802262Y56929817D01*
X68802260Y56929818D01*
X68649525Y57025788D01*
X68649522Y57025789D01*
X68507793Y57075382D01*
X68479255Y57085368D01*
X68300000Y57105565D01*
X68120745Y57085368D01*
X68120742Y57085368D01*
X68120742Y57085367D01*
X67950477Y57025789D01*
X67950474Y57025788D01*
X67797739Y56929818D01*
X67797737Y56929817D01*
X67670183Y56802263D01*
X67670182Y56802261D01*
X67574212Y56649526D01*
X67574211Y56649523D01*
X67574211Y56649522D01*
X67514632Y56479255D01*
X67494435Y56300000D01*
X975500Y56300000D01*
X975500Y58235000D01*
X12359357Y58235000D01*
X12379885Y58013461D01*
X12440768Y57799480D01*
X12440774Y57799463D01*
X12539938Y57600316D01*
X12539942Y57600311D01*
X12674017Y57422765D01*
X12838438Y57272876D01*
X12838439Y57272875D01*
X13027587Y57155760D01*
X13027590Y57155759D01*
X13027599Y57155753D01*
X13117989Y57120736D01*
X13235053Y57075384D01*
X13235056Y57075384D01*
X13235060Y57075382D01*
X13453757Y57034500D01*
X13453760Y57034500D01*
X13676240Y57034500D01*
X13676243Y57034500D01*
X13894940Y57075382D01*
X13894944Y57075384D01*
X13894946Y57075384D01*
X13948298Y57096054D01*
X14102401Y57155753D01*
X14291562Y57272876D01*
X14455981Y57422764D01*
X14590058Y57600311D01*
X14590059Y57600315D01*
X14590061Y57600316D01*
X14689225Y57799463D01*
X14689226Y57799467D01*
X14689229Y57799472D01*
X14713810Y57885865D01*
X14751690Y57945912D01*
X14816021Y57975946D01*
X14886377Y57966433D01*
X14940422Y57920393D01*
X14956190Y57885865D01*
X14980768Y57799480D01*
X14980774Y57799463D01*
X15079938Y57600316D01*
X15079942Y57600311D01*
X15214017Y57422765D01*
X15378438Y57272876D01*
X15378439Y57272875D01*
X15567587Y57155760D01*
X15567590Y57155759D01*
X15567599Y57155753D01*
X15657989Y57120736D01*
X15775053Y57075384D01*
X15775056Y57075384D01*
X15775060Y57075382D01*
X15993757Y57034500D01*
X15993760Y57034500D01*
X16216240Y57034500D01*
X16216243Y57034500D01*
X16434940Y57075382D01*
X16434944Y57075384D01*
X16434946Y57075384D01*
X16488298Y57096054D01*
X16642401Y57155753D01*
X16831562Y57272876D01*
X16995981Y57422764D01*
X17130058Y57600311D01*
X17130059Y57600315D01*
X17130061Y57600316D01*
X17229225Y57799463D01*
X17229226Y57799467D01*
X17229229Y57799472D01*
X17253810Y57885865D01*
X17291690Y57945912D01*
X17356021Y57975946D01*
X17426377Y57966433D01*
X17480422Y57920393D01*
X17496190Y57885865D01*
X17520768Y57799480D01*
X17520774Y57799463D01*
X17619938Y57600316D01*
X17619942Y57600311D01*
X17754017Y57422765D01*
X17918438Y57272876D01*
X17918439Y57272875D01*
X18107587Y57155760D01*
X18107590Y57155759D01*
X18107599Y57155753D01*
X18197989Y57120736D01*
X18315053Y57075384D01*
X18315056Y57075384D01*
X18315060Y57075382D01*
X18533757Y57034500D01*
X18533760Y57034500D01*
X18756240Y57034500D01*
X18756243Y57034500D01*
X18974940Y57075382D01*
X18974944Y57075384D01*
X18974946Y57075384D01*
X19028298Y57096054D01*
X19182401Y57155753D01*
X19371562Y57272876D01*
X19535981Y57422764D01*
X19670058Y57600311D01*
X19670059Y57600315D01*
X19670061Y57600316D01*
X19769225Y57799463D01*
X19769226Y57799467D01*
X19769229Y57799472D01*
X19793810Y57885865D01*
X19831690Y57945912D01*
X19896021Y57975946D01*
X19966377Y57966433D01*
X20020422Y57920393D01*
X20036190Y57885865D01*
X20060768Y57799480D01*
X20060774Y57799463D01*
X20159938Y57600316D01*
X20159942Y57600311D01*
X20294017Y57422765D01*
X20458438Y57272876D01*
X20458439Y57272875D01*
X20647587Y57155760D01*
X20647590Y57155759D01*
X20647599Y57155753D01*
X20737989Y57120736D01*
X20855053Y57075384D01*
X20855056Y57075384D01*
X20855060Y57075382D01*
X21073757Y57034500D01*
X21073760Y57034500D01*
X21296240Y57034500D01*
X21296243Y57034500D01*
X21514940Y57075382D01*
X21514944Y57075384D01*
X21514946Y57075384D01*
X21568298Y57096054D01*
X21722401Y57155753D01*
X21911562Y57272876D01*
X22075981Y57422764D01*
X22210058Y57600311D01*
X22210059Y57600315D01*
X22210061Y57600316D01*
X22309225Y57799463D01*
X22309226Y57799467D01*
X22309229Y57799472D01*
X22333810Y57885865D01*
X22371690Y57945912D01*
X22436021Y57975946D01*
X22506377Y57966433D01*
X22560422Y57920393D01*
X22576190Y57885865D01*
X22600768Y57799480D01*
X22600774Y57799463D01*
X22699938Y57600316D01*
X22699942Y57600311D01*
X22834017Y57422765D01*
X22998438Y57272876D01*
X22998439Y57272875D01*
X23187587Y57155760D01*
X23187590Y57155759D01*
X23187599Y57155753D01*
X23277989Y57120736D01*
X23395053Y57075384D01*
X23395056Y57075384D01*
X23395060Y57075382D01*
X23613757Y57034500D01*
X23613760Y57034500D01*
X23836240Y57034500D01*
X23836243Y57034500D01*
X24054940Y57075382D01*
X24054944Y57075384D01*
X24054946Y57075384D01*
X24108298Y57096054D01*
X24262401Y57155753D01*
X24451562Y57272876D01*
X24615981Y57422764D01*
X24750058Y57600311D01*
X24750059Y57600315D01*
X24750061Y57600316D01*
X24849225Y57799463D01*
X24849226Y57799467D01*
X24849229Y57799472D01*
X24873810Y57885865D01*
X24911690Y57945912D01*
X24976021Y57975946D01*
X25046377Y57966433D01*
X25100422Y57920393D01*
X25116190Y57885865D01*
X25140768Y57799480D01*
X25140774Y57799463D01*
X25239938Y57600316D01*
X25239942Y57600311D01*
X25374017Y57422765D01*
X25538438Y57272876D01*
X25538439Y57272875D01*
X25727587Y57155760D01*
X25727590Y57155759D01*
X25727599Y57155753D01*
X25817989Y57120736D01*
X25935053Y57075384D01*
X25935056Y57075384D01*
X25935060Y57075382D01*
X26153757Y57034500D01*
X26153760Y57034500D01*
X26376240Y57034500D01*
X26376243Y57034500D01*
X26594940Y57075382D01*
X26594944Y57075384D01*
X26594946Y57075384D01*
X26648298Y57096054D01*
X26802401Y57155753D01*
X26991562Y57272876D01*
X27155981Y57422764D01*
X27290058Y57600311D01*
X27290059Y57600315D01*
X27290061Y57600316D01*
X27389225Y57799463D01*
X27389226Y57799467D01*
X27389229Y57799472D01*
X27413810Y57885865D01*
X27451690Y57945912D01*
X27516021Y57975946D01*
X27586377Y57966433D01*
X27640422Y57920393D01*
X27656190Y57885865D01*
X27680768Y57799480D01*
X27680774Y57799463D01*
X27779938Y57600316D01*
X27779942Y57600311D01*
X27914017Y57422765D01*
X28078438Y57272876D01*
X28078439Y57272875D01*
X28267587Y57155760D01*
X28267590Y57155759D01*
X28267599Y57155753D01*
X28357989Y57120736D01*
X28475053Y57075384D01*
X28475056Y57075384D01*
X28475060Y57075382D01*
X28693757Y57034500D01*
X28693760Y57034500D01*
X28916240Y57034500D01*
X28916243Y57034500D01*
X29134940Y57075382D01*
X29134944Y57075384D01*
X29134946Y57075384D01*
X29188298Y57096054D01*
X29342401Y57155753D01*
X29531562Y57272876D01*
X29695981Y57422764D01*
X29830058Y57600311D01*
X29830059Y57600315D01*
X29830061Y57600316D01*
X29929225Y57799463D01*
X29929226Y57799467D01*
X29929229Y57799472D01*
X29953810Y57885865D01*
X29991690Y57945912D01*
X30056021Y57975946D01*
X30126377Y57966433D01*
X30180422Y57920393D01*
X30196190Y57885865D01*
X30220768Y57799480D01*
X30220774Y57799463D01*
X30319938Y57600316D01*
X30319942Y57600311D01*
X30454017Y57422765D01*
X30618438Y57272876D01*
X30618439Y57272875D01*
X30807587Y57155760D01*
X30807590Y57155759D01*
X30807599Y57155753D01*
X30897989Y57120736D01*
X31015053Y57075384D01*
X31015056Y57075384D01*
X31015060Y57075382D01*
X31233757Y57034500D01*
X31233760Y57034500D01*
X31456240Y57034500D01*
X31456243Y57034500D01*
X31674940Y57075382D01*
X31674944Y57075384D01*
X31674946Y57075384D01*
X31728298Y57096054D01*
X31882401Y57155753D01*
X32071562Y57272876D01*
X32235981Y57422764D01*
X32370058Y57600311D01*
X32370059Y57600315D01*
X32370061Y57600316D01*
X32469225Y57799463D01*
X32469226Y57799467D01*
X32469229Y57799472D01*
X32493810Y57885865D01*
X32531690Y57945912D01*
X32596021Y57975946D01*
X32666377Y57966433D01*
X32720422Y57920393D01*
X32736190Y57885865D01*
X32760768Y57799480D01*
X32760774Y57799463D01*
X32859938Y57600316D01*
X32859942Y57600311D01*
X32994017Y57422765D01*
X33158438Y57272876D01*
X33158439Y57272875D01*
X33347587Y57155760D01*
X33347590Y57155759D01*
X33347599Y57155753D01*
X33437989Y57120736D01*
X33555053Y57075384D01*
X33555056Y57075384D01*
X33555060Y57075382D01*
X33773757Y57034500D01*
X33773760Y57034500D01*
X33996240Y57034500D01*
X33996243Y57034500D01*
X34214940Y57075382D01*
X34214944Y57075384D01*
X34214946Y57075384D01*
X34268298Y57096054D01*
X34422401Y57155753D01*
X34611562Y57272876D01*
X34775981Y57422764D01*
X34910058Y57600311D01*
X34910059Y57600315D01*
X34910061Y57600316D01*
X35009225Y57799463D01*
X35009226Y57799467D01*
X35009229Y57799472D01*
X35033810Y57885865D01*
X35071690Y57945912D01*
X35136021Y57975946D01*
X35206377Y57966433D01*
X35260422Y57920393D01*
X35276190Y57885865D01*
X35300768Y57799480D01*
X35300774Y57799463D01*
X35399938Y57600316D01*
X35399942Y57600311D01*
X35534017Y57422765D01*
X35698438Y57272876D01*
X35698439Y57272875D01*
X35887587Y57155760D01*
X35887590Y57155759D01*
X35887599Y57155753D01*
X35977989Y57120736D01*
X36095053Y57075384D01*
X36095056Y57075384D01*
X36095060Y57075382D01*
X36313757Y57034500D01*
X36313760Y57034500D01*
X36536240Y57034500D01*
X36536243Y57034500D01*
X36754940Y57075382D01*
X36754944Y57075384D01*
X36754946Y57075384D01*
X36808298Y57096054D01*
X36962401Y57155753D01*
X37151562Y57272876D01*
X37315981Y57422764D01*
X37450058Y57600311D01*
X37450059Y57600315D01*
X37450061Y57600316D01*
X37549225Y57799463D01*
X37549226Y57799467D01*
X37549229Y57799472D01*
X37573810Y57885865D01*
X37611690Y57945912D01*
X37676021Y57975946D01*
X37746377Y57966433D01*
X37800422Y57920393D01*
X37816190Y57885865D01*
X37840768Y57799480D01*
X37840774Y57799463D01*
X37939938Y57600316D01*
X37939942Y57600311D01*
X38074017Y57422765D01*
X38238438Y57272876D01*
X38238439Y57272875D01*
X38427587Y57155760D01*
X38427590Y57155759D01*
X38427599Y57155753D01*
X38517989Y57120736D01*
X38635053Y57075384D01*
X38635056Y57075384D01*
X38635060Y57075382D01*
X38853757Y57034500D01*
X38853760Y57034500D01*
X39076240Y57034500D01*
X39076243Y57034500D01*
X39294940Y57075382D01*
X39294944Y57075384D01*
X39294946Y57075384D01*
X39348298Y57096054D01*
X39502401Y57155753D01*
X39691562Y57272876D01*
X39855981Y57422764D01*
X39990058Y57600311D01*
X39990059Y57600315D01*
X39990061Y57600316D01*
X40089225Y57799463D01*
X40089226Y57799467D01*
X40089229Y57799472D01*
X40113810Y57885865D01*
X40151690Y57945912D01*
X40216021Y57975946D01*
X40286377Y57966433D01*
X40340422Y57920393D01*
X40356190Y57885865D01*
X40380768Y57799480D01*
X40380774Y57799463D01*
X40479938Y57600316D01*
X40479942Y57600311D01*
X40614017Y57422765D01*
X40778438Y57272876D01*
X40778439Y57272875D01*
X40967587Y57155760D01*
X40967590Y57155759D01*
X40967599Y57155753D01*
X41057989Y57120736D01*
X41175053Y57075384D01*
X41175056Y57075384D01*
X41175060Y57075382D01*
X41393757Y57034500D01*
X41393760Y57034500D01*
X41616240Y57034500D01*
X41616243Y57034500D01*
X41834940Y57075382D01*
X41834944Y57075384D01*
X41834946Y57075384D01*
X41888298Y57096054D01*
X42042401Y57155753D01*
X42231562Y57272876D01*
X42395981Y57422764D01*
X42530058Y57600311D01*
X42530059Y57600315D01*
X42530061Y57600316D01*
X42629225Y57799463D01*
X42629226Y57799467D01*
X42629229Y57799472D01*
X42653810Y57885865D01*
X42691690Y57945912D01*
X42756021Y57975946D01*
X42826377Y57966433D01*
X42880422Y57920393D01*
X42896190Y57885865D01*
X42920768Y57799480D01*
X42920774Y57799463D01*
X43019938Y57600316D01*
X43019942Y57600311D01*
X43154017Y57422765D01*
X43318438Y57272876D01*
X43318439Y57272875D01*
X43507587Y57155760D01*
X43507590Y57155759D01*
X43507599Y57155753D01*
X43597989Y57120736D01*
X43715053Y57075384D01*
X43715056Y57075384D01*
X43715060Y57075382D01*
X43933757Y57034500D01*
X43933760Y57034500D01*
X44156240Y57034500D01*
X44156243Y57034500D01*
X44374940Y57075382D01*
X44374944Y57075384D01*
X44374946Y57075384D01*
X44428298Y57096054D01*
X44582401Y57155753D01*
X44771562Y57272876D01*
X44935981Y57422764D01*
X45070058Y57600311D01*
X45070059Y57600315D01*
X45070061Y57600316D01*
X45169225Y57799463D01*
X45169226Y57799467D01*
X45169229Y57799472D01*
X45193810Y57885865D01*
X45231690Y57945912D01*
X45296021Y57975946D01*
X45366377Y57966433D01*
X45420422Y57920393D01*
X45436190Y57885865D01*
X45460768Y57799480D01*
X45460774Y57799463D01*
X45559938Y57600316D01*
X45559942Y57600311D01*
X45694017Y57422765D01*
X45858438Y57272876D01*
X45858439Y57272875D01*
X46047587Y57155760D01*
X46047590Y57155759D01*
X46047599Y57155753D01*
X46137989Y57120736D01*
X46255053Y57075384D01*
X46255056Y57075384D01*
X46255060Y57075382D01*
X46473757Y57034500D01*
X46473760Y57034500D01*
X46696240Y57034500D01*
X46696243Y57034500D01*
X46914940Y57075382D01*
X46914944Y57075384D01*
X46914946Y57075384D01*
X46968298Y57096054D01*
X47122401Y57155753D01*
X47311562Y57272876D01*
X47475981Y57422764D01*
X47610058Y57600311D01*
X47683418Y57747638D01*
X47731685Y57799698D01*
X47800440Y57817401D01*
X47867850Y57795122D01*
X47910402Y57744722D01*
X47987913Y57578499D01*
X48037899Y57507112D01*
X48726272Y58195484D01*
X48739835Y58109852D01*
X48797359Y57996955D01*
X48886955Y57907359D01*
X48999852Y57849835D01*
X49085482Y57836273D01*
X48397110Y57147902D01*
X48397110Y57147900D01*
X48468498Y57097914D01*
X48675926Y57001189D01*
X48675931Y57001187D01*
X48896999Y56941952D01*
X48896995Y56941952D01*
X49125000Y56922005D01*
X49353002Y56941952D01*
X49574068Y57001187D01*
X49574073Y57001189D01*
X49781497Y57097912D01*
X49852888Y57147901D01*
X49852888Y57147903D01*
X49164518Y57836273D01*
X49250148Y57849835D01*
X49363045Y57907359D01*
X49452641Y57996955D01*
X49510165Y58109852D01*
X49523727Y58195482D01*
X50212097Y57507112D01*
X50212099Y57507112D01*
X50262088Y57578503D01*
X50339597Y57744722D01*
X50386514Y57798007D01*
X50454791Y57817468D01*
X50522751Y57796926D01*
X50566582Y57747635D01*
X50639938Y57600316D01*
X50639942Y57600311D01*
X50774017Y57422765D01*
X50938438Y57272876D01*
X50938439Y57272875D01*
X51127587Y57155760D01*
X51127590Y57155759D01*
X51127599Y57155753D01*
X51217989Y57120736D01*
X51335053Y57075384D01*
X51335056Y57075384D01*
X51335060Y57075382D01*
X51553757Y57034500D01*
X51553760Y57034500D01*
X51776240Y57034500D01*
X51776243Y57034500D01*
X51994940Y57075382D01*
X51994944Y57075384D01*
X51994946Y57075384D01*
X52048298Y57096054D01*
X52202401Y57155753D01*
X52391562Y57272876D01*
X52555981Y57422764D01*
X52690058Y57600311D01*
X52690059Y57600315D01*
X52690061Y57600316D01*
X52789225Y57799463D01*
X52789226Y57799467D01*
X52789229Y57799472D01*
X52813810Y57885865D01*
X52851690Y57945912D01*
X52916021Y57975946D01*
X52986377Y57966433D01*
X53040422Y57920393D01*
X53056190Y57885865D01*
X53080768Y57799480D01*
X53080774Y57799463D01*
X53179938Y57600316D01*
X53179942Y57600311D01*
X53314017Y57422765D01*
X53478438Y57272876D01*
X53478439Y57272875D01*
X53667587Y57155760D01*
X53667590Y57155759D01*
X53667599Y57155753D01*
X53757989Y57120736D01*
X53875053Y57075384D01*
X53875056Y57075384D01*
X53875060Y57075382D01*
X54093757Y57034500D01*
X54093760Y57034500D01*
X54316240Y57034500D01*
X54316243Y57034500D01*
X54534940Y57075382D01*
X54534944Y57075384D01*
X54534946Y57075384D01*
X54588298Y57096054D01*
X54742401Y57155753D01*
X54931562Y57272876D01*
X55095981Y57422764D01*
X55230058Y57600311D01*
X55230059Y57600315D01*
X55230061Y57600316D01*
X55329225Y57799463D01*
X55329226Y57799467D01*
X55329229Y57799472D01*
X55353810Y57885865D01*
X55391690Y57945912D01*
X55456021Y57975946D01*
X55526377Y57966433D01*
X55580422Y57920393D01*
X55596190Y57885865D01*
X55620768Y57799480D01*
X55620774Y57799463D01*
X55719938Y57600316D01*
X55719942Y57600311D01*
X55854017Y57422765D01*
X56018438Y57272876D01*
X56018439Y57272875D01*
X56207587Y57155760D01*
X56207590Y57155759D01*
X56207599Y57155753D01*
X56297989Y57120736D01*
X56415053Y57075384D01*
X56415056Y57075384D01*
X56415060Y57075382D01*
X56633757Y57034500D01*
X56633760Y57034500D01*
X56856240Y57034500D01*
X56856243Y57034500D01*
X57074940Y57075382D01*
X57074944Y57075384D01*
X57074946Y57075384D01*
X57128298Y57096054D01*
X57282401Y57155753D01*
X57471562Y57272876D01*
X57635981Y57422764D01*
X57770058Y57600311D01*
X57770059Y57600315D01*
X57770061Y57600316D01*
X57869225Y57799463D01*
X57869226Y57799467D01*
X57869229Y57799472D01*
X57893810Y57885865D01*
X57931690Y57945912D01*
X57996021Y57975946D01*
X58066377Y57966433D01*
X58120422Y57920393D01*
X58136190Y57885865D01*
X58160768Y57799480D01*
X58160774Y57799463D01*
X58259938Y57600316D01*
X58259942Y57600311D01*
X58394017Y57422765D01*
X58558438Y57272876D01*
X58558439Y57272875D01*
X58747587Y57155760D01*
X58747590Y57155759D01*
X58747599Y57155753D01*
X58837989Y57120736D01*
X58955053Y57075384D01*
X58955056Y57075384D01*
X58955060Y57075382D01*
X59173757Y57034500D01*
X59173760Y57034500D01*
X59396240Y57034500D01*
X59396243Y57034500D01*
X59614940Y57075382D01*
X59614944Y57075384D01*
X59614946Y57075384D01*
X59668298Y57096054D01*
X59822401Y57155753D01*
X60011562Y57272876D01*
X60175981Y57422764D01*
X60310058Y57600311D01*
X60310059Y57600315D01*
X60310061Y57600316D01*
X60409225Y57799463D01*
X60409226Y57799467D01*
X60409229Y57799472D01*
X60433810Y57885865D01*
X60471690Y57945912D01*
X60536021Y57975946D01*
X60606377Y57966433D01*
X60660422Y57920393D01*
X60676190Y57885865D01*
X60700768Y57799480D01*
X60700774Y57799463D01*
X60799938Y57600316D01*
X60799942Y57600311D01*
X60934017Y57422765D01*
X61098438Y57272876D01*
X61098439Y57272875D01*
X61287587Y57155760D01*
X61287590Y57155759D01*
X61287599Y57155753D01*
X61377989Y57120736D01*
X61495053Y57075384D01*
X61495056Y57075384D01*
X61495060Y57075382D01*
X61713757Y57034500D01*
X61713760Y57034500D01*
X61936240Y57034500D01*
X61936243Y57034500D01*
X62154940Y57075382D01*
X62154944Y57075384D01*
X62154946Y57075384D01*
X62208298Y57096054D01*
X62362401Y57155753D01*
X62551562Y57272876D01*
X62715981Y57422764D01*
X62850058Y57600311D01*
X62850059Y57600315D01*
X62850061Y57600316D01*
X62949225Y57799463D01*
X62949226Y57799467D01*
X62949229Y57799472D01*
X63010115Y58013464D01*
X63030643Y58235000D01*
X63010115Y58456536D01*
X62949229Y58670528D01*
X62949227Y58670532D01*
X62949225Y58670538D01*
X62850061Y58869685D01*
X62850057Y58869690D01*
X62715982Y59047236D01*
X62551561Y59197125D01*
X62551560Y59197126D01*
X62362412Y59314241D01*
X62362405Y59314245D01*
X62362401Y59314247D01*
X62362396Y59314249D01*
X62154946Y59394617D01*
X62115972Y59401903D01*
X61936243Y59435500D01*
X61713757Y59435500D01*
X61572674Y59409127D01*
X61495053Y59394617D01*
X61287603Y59314249D01*
X61287587Y59314241D01*
X61098439Y59197126D01*
X61098438Y59197125D01*
X60934017Y59047236D01*
X60799942Y58869690D01*
X60799938Y58869685D01*
X60700774Y58670538D01*
X60700768Y58670521D01*
X60676190Y58584136D01*
X60638310Y58524089D01*
X60573979Y58494055D01*
X60503622Y58503568D01*
X60449578Y58549608D01*
X60433810Y58584136D01*
X60409231Y58670521D01*
X60409225Y58670538D01*
X60310061Y58869685D01*
X60310057Y58869690D01*
X60175982Y59047236D01*
X60011561Y59197125D01*
X60011560Y59197126D01*
X59822412Y59314241D01*
X59822405Y59314245D01*
X59822401Y59314247D01*
X59822396Y59314249D01*
X59614946Y59394617D01*
X59575972Y59401903D01*
X59396243Y59435500D01*
X59173757Y59435500D01*
X59032674Y59409127D01*
X58955053Y59394617D01*
X58747603Y59314249D01*
X58747587Y59314241D01*
X58558439Y59197126D01*
X58558438Y59197125D01*
X58394017Y59047236D01*
X58259942Y58869690D01*
X58259938Y58869685D01*
X58160774Y58670538D01*
X58160768Y58670521D01*
X58136190Y58584136D01*
X58098310Y58524089D01*
X58033979Y58494055D01*
X57963622Y58503568D01*
X57909578Y58549608D01*
X57893810Y58584136D01*
X57869231Y58670521D01*
X57869225Y58670538D01*
X57770061Y58869685D01*
X57770057Y58869690D01*
X57635982Y59047236D01*
X57471561Y59197125D01*
X57471560Y59197126D01*
X57282412Y59314241D01*
X57282405Y59314245D01*
X57282401Y59314247D01*
X57282396Y59314249D01*
X57074946Y59394617D01*
X57035972Y59401903D01*
X56856243Y59435500D01*
X56633757Y59435500D01*
X56492674Y59409127D01*
X56415053Y59394617D01*
X56207603Y59314249D01*
X56207587Y59314241D01*
X56018439Y59197126D01*
X56018438Y59197125D01*
X55854017Y59047236D01*
X55719942Y58869690D01*
X55719938Y58869685D01*
X55620774Y58670538D01*
X55620768Y58670521D01*
X55596190Y58584136D01*
X55558310Y58524089D01*
X55493979Y58494055D01*
X55423622Y58503568D01*
X55369578Y58549608D01*
X55353810Y58584136D01*
X55329231Y58670521D01*
X55329225Y58670538D01*
X55230061Y58869685D01*
X55230057Y58869690D01*
X55095982Y59047236D01*
X54931561Y59197125D01*
X54931560Y59197126D01*
X54742412Y59314241D01*
X54742405Y59314245D01*
X54742401Y59314247D01*
X54742396Y59314249D01*
X54534946Y59394617D01*
X54495972Y59401903D01*
X54316243Y59435500D01*
X54093757Y59435500D01*
X53952674Y59409127D01*
X53875053Y59394617D01*
X53667603Y59314249D01*
X53667587Y59314241D01*
X53478439Y59197126D01*
X53478438Y59197125D01*
X53314017Y59047236D01*
X53179942Y58869690D01*
X53179938Y58869685D01*
X53080774Y58670538D01*
X53080768Y58670521D01*
X53056190Y58584136D01*
X53018310Y58524089D01*
X52953979Y58494055D01*
X52883622Y58503568D01*
X52829578Y58549608D01*
X52813810Y58584136D01*
X52789231Y58670521D01*
X52789225Y58670538D01*
X52690061Y58869685D01*
X52690057Y58869690D01*
X52555982Y59047236D01*
X52391561Y59197125D01*
X52391560Y59197126D01*
X52202412Y59314241D01*
X52202405Y59314245D01*
X52202401Y59314247D01*
X52202396Y59314249D01*
X51994946Y59394617D01*
X51955972Y59401903D01*
X51776243Y59435500D01*
X51553757Y59435500D01*
X51412674Y59409127D01*
X51335053Y59394617D01*
X51127603Y59314249D01*
X51127587Y59314241D01*
X50938439Y59197126D01*
X50938438Y59197125D01*
X50774017Y59047236D01*
X50639942Y58869690D01*
X50639941Y58869689D01*
X50566582Y58722365D01*
X50518313Y58670302D01*
X50449558Y58652600D01*
X50382148Y58674880D01*
X50339597Y58725279D01*
X50262086Y58891502D01*
X50212100Y58962890D01*
X50212098Y58962890D01*
X49523727Y58274519D01*
X49510165Y58360148D01*
X49452641Y58473045D01*
X49363045Y58562641D01*
X49250148Y58620165D01*
X49164517Y58633728D01*
X49852888Y59322101D01*
X49852888Y59322102D01*
X49781501Y59372087D01*
X49574073Y59468812D01*
X49574068Y59468814D01*
X49353000Y59528049D01*
X49353004Y59528049D01*
X49125000Y59547996D01*
X48896997Y59528049D01*
X48675931Y59468814D01*
X48675926Y59468812D01*
X48468500Y59372087D01*
X48397109Y59322100D01*
X49085481Y58633728D01*
X48999852Y58620165D01*
X48886955Y58562641D01*
X48797359Y58473045D01*
X48739835Y58360148D01*
X48726272Y58274519D01*
X48037900Y58962891D01*
X47987912Y58891499D01*
X47987911Y58891497D01*
X47910401Y58725278D01*
X47863484Y58671994D01*
X47795207Y58652533D01*
X47727247Y58673075D01*
X47683417Y58722365D01*
X47610058Y58869689D01*
X47539676Y58962890D01*
X47475982Y59047236D01*
X47311561Y59197125D01*
X47311560Y59197126D01*
X47122412Y59314241D01*
X47122405Y59314245D01*
X47122401Y59314247D01*
X47122396Y59314249D01*
X46914946Y59394617D01*
X46875972Y59401903D01*
X46696243Y59435500D01*
X46473757Y59435500D01*
X46332674Y59409127D01*
X46255053Y59394617D01*
X46047603Y59314249D01*
X46047587Y59314241D01*
X45858439Y59197126D01*
X45858438Y59197125D01*
X45694017Y59047236D01*
X45559942Y58869690D01*
X45559938Y58869685D01*
X45460774Y58670538D01*
X45460768Y58670521D01*
X45436190Y58584136D01*
X45398310Y58524089D01*
X45333979Y58494055D01*
X45263622Y58503568D01*
X45209578Y58549608D01*
X45193810Y58584136D01*
X45169231Y58670521D01*
X45169225Y58670538D01*
X45070061Y58869685D01*
X45070057Y58869690D01*
X44935982Y59047236D01*
X44771561Y59197125D01*
X44771560Y59197126D01*
X44582412Y59314241D01*
X44582405Y59314245D01*
X44582401Y59314247D01*
X44582396Y59314249D01*
X44374946Y59394617D01*
X44335972Y59401903D01*
X44156243Y59435500D01*
X43933757Y59435500D01*
X43792674Y59409127D01*
X43715053Y59394617D01*
X43507603Y59314249D01*
X43507587Y59314241D01*
X43318439Y59197126D01*
X43318438Y59197125D01*
X43154017Y59047236D01*
X43019942Y58869690D01*
X43019938Y58869685D01*
X42920774Y58670538D01*
X42920768Y58670521D01*
X42896190Y58584136D01*
X42858310Y58524089D01*
X42793979Y58494055D01*
X42723622Y58503568D01*
X42669578Y58549608D01*
X42653810Y58584136D01*
X42629231Y58670521D01*
X42629225Y58670538D01*
X42530061Y58869685D01*
X42530057Y58869690D01*
X42395982Y59047236D01*
X42231561Y59197125D01*
X42231560Y59197126D01*
X42042412Y59314241D01*
X42042405Y59314245D01*
X42042401Y59314247D01*
X42042396Y59314249D01*
X41834946Y59394617D01*
X41795972Y59401903D01*
X41616243Y59435500D01*
X41393757Y59435500D01*
X41252674Y59409127D01*
X41175053Y59394617D01*
X40967603Y59314249D01*
X40967587Y59314241D01*
X40778439Y59197126D01*
X40778438Y59197125D01*
X40614017Y59047236D01*
X40479942Y58869690D01*
X40479938Y58869685D01*
X40380774Y58670538D01*
X40380768Y58670521D01*
X40356190Y58584136D01*
X40318310Y58524089D01*
X40253979Y58494055D01*
X40183622Y58503568D01*
X40129578Y58549608D01*
X40113810Y58584136D01*
X40089231Y58670521D01*
X40089225Y58670538D01*
X39990061Y58869685D01*
X39990057Y58869690D01*
X39855982Y59047236D01*
X39691561Y59197125D01*
X39691560Y59197126D01*
X39502412Y59314241D01*
X39502405Y59314245D01*
X39502401Y59314247D01*
X39502396Y59314249D01*
X39294946Y59394617D01*
X39255972Y59401903D01*
X39076243Y59435500D01*
X38853757Y59435500D01*
X38712674Y59409127D01*
X38635053Y59394617D01*
X38427603Y59314249D01*
X38427587Y59314241D01*
X38238439Y59197126D01*
X38238438Y59197125D01*
X38074017Y59047236D01*
X37939942Y58869690D01*
X37939938Y58869685D01*
X37840774Y58670538D01*
X37840768Y58670521D01*
X37816190Y58584136D01*
X37778310Y58524089D01*
X37713979Y58494055D01*
X37643622Y58503568D01*
X37589578Y58549608D01*
X37573810Y58584136D01*
X37549231Y58670521D01*
X37549225Y58670538D01*
X37450061Y58869685D01*
X37450057Y58869690D01*
X37315982Y59047236D01*
X37151561Y59197125D01*
X37151560Y59197126D01*
X36962412Y59314241D01*
X36962405Y59314245D01*
X36962401Y59314247D01*
X36962396Y59314249D01*
X36754946Y59394617D01*
X36715972Y59401903D01*
X36536243Y59435500D01*
X36313757Y59435500D01*
X36172674Y59409127D01*
X36095053Y59394617D01*
X35887603Y59314249D01*
X35887587Y59314241D01*
X35698439Y59197126D01*
X35698438Y59197125D01*
X35534017Y59047236D01*
X35399942Y58869690D01*
X35399938Y58869685D01*
X35300774Y58670538D01*
X35300768Y58670521D01*
X35276190Y58584136D01*
X35238310Y58524089D01*
X35173979Y58494055D01*
X35103622Y58503568D01*
X35049578Y58549608D01*
X35033810Y58584136D01*
X35009231Y58670521D01*
X35009225Y58670538D01*
X34910061Y58869685D01*
X34910057Y58869690D01*
X34775982Y59047236D01*
X34611561Y59197125D01*
X34611560Y59197126D01*
X34422412Y59314241D01*
X34422405Y59314245D01*
X34422401Y59314247D01*
X34422396Y59314249D01*
X34214946Y59394617D01*
X34175972Y59401903D01*
X33996243Y59435500D01*
X33773757Y59435500D01*
X33632674Y59409127D01*
X33555053Y59394617D01*
X33347603Y59314249D01*
X33347587Y59314241D01*
X33158439Y59197126D01*
X33158438Y59197125D01*
X32994017Y59047236D01*
X32859942Y58869690D01*
X32859938Y58869685D01*
X32760774Y58670538D01*
X32760768Y58670521D01*
X32736190Y58584136D01*
X32698310Y58524089D01*
X32633979Y58494055D01*
X32563622Y58503568D01*
X32509578Y58549608D01*
X32493810Y58584136D01*
X32469231Y58670521D01*
X32469225Y58670538D01*
X32370061Y58869685D01*
X32370057Y58869690D01*
X32235982Y59047236D01*
X32071561Y59197125D01*
X32071560Y59197126D01*
X31882412Y59314241D01*
X31882405Y59314245D01*
X31882401Y59314247D01*
X31882396Y59314249D01*
X31674946Y59394617D01*
X31635972Y59401903D01*
X31456243Y59435500D01*
X31233757Y59435500D01*
X31092674Y59409127D01*
X31015053Y59394617D01*
X30807603Y59314249D01*
X30807587Y59314241D01*
X30618439Y59197126D01*
X30618438Y59197125D01*
X30454017Y59047236D01*
X30319942Y58869690D01*
X30319938Y58869685D01*
X30220774Y58670538D01*
X30220768Y58670521D01*
X30196190Y58584136D01*
X30158310Y58524089D01*
X30093979Y58494055D01*
X30023622Y58503568D01*
X29969578Y58549608D01*
X29953810Y58584136D01*
X29929231Y58670521D01*
X29929225Y58670538D01*
X29830061Y58869685D01*
X29830057Y58869690D01*
X29695982Y59047236D01*
X29531561Y59197125D01*
X29531560Y59197126D01*
X29342412Y59314241D01*
X29342405Y59314245D01*
X29342401Y59314247D01*
X29342396Y59314249D01*
X29134946Y59394617D01*
X29095972Y59401903D01*
X28916243Y59435500D01*
X28693757Y59435500D01*
X28552674Y59409127D01*
X28475053Y59394617D01*
X28267603Y59314249D01*
X28267587Y59314241D01*
X28078439Y59197126D01*
X28078438Y59197125D01*
X27914017Y59047236D01*
X27779942Y58869690D01*
X27779938Y58869685D01*
X27680774Y58670538D01*
X27680768Y58670521D01*
X27656190Y58584136D01*
X27618310Y58524089D01*
X27553979Y58494055D01*
X27483622Y58503568D01*
X27429578Y58549608D01*
X27413810Y58584136D01*
X27389231Y58670521D01*
X27389225Y58670538D01*
X27290061Y58869685D01*
X27290057Y58869690D01*
X27155982Y59047236D01*
X26991561Y59197125D01*
X26991560Y59197126D01*
X26802412Y59314241D01*
X26802405Y59314245D01*
X26802401Y59314247D01*
X26802396Y59314249D01*
X26594946Y59394617D01*
X26555972Y59401903D01*
X26376243Y59435500D01*
X26153757Y59435500D01*
X26012674Y59409127D01*
X25935053Y59394617D01*
X25727603Y59314249D01*
X25727587Y59314241D01*
X25538439Y59197126D01*
X25538438Y59197125D01*
X25374017Y59047236D01*
X25239942Y58869690D01*
X25239938Y58869685D01*
X25140774Y58670538D01*
X25140768Y58670521D01*
X25116190Y58584136D01*
X25078310Y58524089D01*
X25013979Y58494055D01*
X24943622Y58503568D01*
X24889578Y58549608D01*
X24873810Y58584136D01*
X24849231Y58670521D01*
X24849225Y58670538D01*
X24750061Y58869685D01*
X24750057Y58869690D01*
X24615982Y59047236D01*
X24451561Y59197125D01*
X24451560Y59197126D01*
X24262412Y59314241D01*
X24262405Y59314245D01*
X24262401Y59314247D01*
X24262396Y59314249D01*
X24054946Y59394617D01*
X24015972Y59401903D01*
X23836243Y59435500D01*
X23613757Y59435500D01*
X23472674Y59409127D01*
X23395053Y59394617D01*
X23187603Y59314249D01*
X23187587Y59314241D01*
X22998439Y59197126D01*
X22998438Y59197125D01*
X22834017Y59047236D01*
X22699942Y58869690D01*
X22699938Y58869685D01*
X22600774Y58670538D01*
X22600768Y58670521D01*
X22576190Y58584136D01*
X22538310Y58524089D01*
X22473979Y58494055D01*
X22403622Y58503568D01*
X22349578Y58549608D01*
X22333810Y58584136D01*
X22309231Y58670521D01*
X22309225Y58670538D01*
X22210061Y58869685D01*
X22210057Y58869690D01*
X22075982Y59047236D01*
X21911561Y59197125D01*
X21911560Y59197126D01*
X21722412Y59314241D01*
X21722405Y59314245D01*
X21722401Y59314247D01*
X21722396Y59314249D01*
X21514946Y59394617D01*
X21475972Y59401903D01*
X21296243Y59435500D01*
X21073757Y59435500D01*
X20932674Y59409127D01*
X20855053Y59394617D01*
X20647603Y59314249D01*
X20647587Y59314241D01*
X20458439Y59197126D01*
X20458438Y59197125D01*
X20294017Y59047236D01*
X20159942Y58869690D01*
X20159938Y58869685D01*
X20060774Y58670538D01*
X20060768Y58670521D01*
X20036190Y58584136D01*
X19998310Y58524089D01*
X19933979Y58494055D01*
X19863622Y58503568D01*
X19809578Y58549608D01*
X19793810Y58584136D01*
X19769231Y58670521D01*
X19769225Y58670538D01*
X19670061Y58869685D01*
X19670057Y58869690D01*
X19535982Y59047236D01*
X19371561Y59197125D01*
X19371560Y59197126D01*
X19182412Y59314241D01*
X19182405Y59314245D01*
X19182401Y59314247D01*
X19182396Y59314249D01*
X18974946Y59394617D01*
X18935972Y59401903D01*
X18756243Y59435500D01*
X18533757Y59435500D01*
X18392674Y59409127D01*
X18315053Y59394617D01*
X18107603Y59314249D01*
X18107587Y59314241D01*
X17918439Y59197126D01*
X17918438Y59197125D01*
X17754017Y59047236D01*
X17619942Y58869690D01*
X17619938Y58869685D01*
X17520774Y58670538D01*
X17520768Y58670521D01*
X17496190Y58584136D01*
X17458310Y58524089D01*
X17393979Y58494055D01*
X17323622Y58503568D01*
X17269578Y58549608D01*
X17253810Y58584136D01*
X17229231Y58670521D01*
X17229225Y58670538D01*
X17130061Y58869685D01*
X17130057Y58869690D01*
X16995982Y59047236D01*
X16831561Y59197125D01*
X16831560Y59197126D01*
X16642412Y59314241D01*
X16642405Y59314245D01*
X16642401Y59314247D01*
X16642396Y59314249D01*
X16434946Y59394617D01*
X16395972Y59401903D01*
X16216243Y59435500D01*
X15993757Y59435500D01*
X15852674Y59409127D01*
X15775053Y59394617D01*
X15567603Y59314249D01*
X15567587Y59314241D01*
X15378439Y59197126D01*
X15378438Y59197125D01*
X15214017Y59047236D01*
X15079942Y58869690D01*
X15079938Y58869685D01*
X14980774Y58670538D01*
X14980768Y58670521D01*
X14956190Y58584136D01*
X14918310Y58524089D01*
X14853979Y58494055D01*
X14783622Y58503568D01*
X14729578Y58549608D01*
X14713810Y58584136D01*
X14689231Y58670521D01*
X14689225Y58670538D01*
X14590061Y58869685D01*
X14590057Y58869690D01*
X14455982Y59047236D01*
X14291561Y59197125D01*
X14291560Y59197126D01*
X14102412Y59314241D01*
X14102405Y59314245D01*
X14102401Y59314247D01*
X14102396Y59314249D01*
X13894946Y59394617D01*
X13855972Y59401903D01*
X13676243Y59435500D01*
X13453757Y59435500D01*
X13312674Y59409127D01*
X13235053Y59394617D01*
X13027603Y59314249D01*
X13027587Y59314241D01*
X12838439Y59197126D01*
X12838438Y59197125D01*
X12674017Y59047236D01*
X12539942Y58869690D01*
X12539938Y58869685D01*
X12440774Y58670538D01*
X12440768Y58670521D01*
X12379885Y58456540D01*
X12359357Y58235000D01*
X975500Y58235000D01*
X975500Y61300000D01*
X72494435Y61300000D01*
X72514632Y61120745D01*
X72514633Y61120743D01*
X72574211Y60950478D01*
X72574212Y60950475D01*
X72670182Y60797740D01*
X72670183Y60797738D01*
X72797737Y60670184D01*
X72797739Y60670183D01*
X72950474Y60574213D01*
X72950475Y60574213D01*
X72950478Y60574211D01*
X73120745Y60514632D01*
X73300000Y60494435D01*
X73479255Y60514632D01*
X73649522Y60574211D01*
X73802262Y60670184D01*
X73929816Y60797738D01*
X74025789Y60950478D01*
X74085368Y61120745D01*
X74105565Y61300000D01*
X74085368Y61479255D01*
X74025789Y61649522D01*
X74025787Y61649525D01*
X74025787Y61649526D01*
X73929817Y61802261D01*
X73929816Y61802263D01*
X73802262Y61929817D01*
X73802260Y61929818D01*
X73649525Y62025788D01*
X73649522Y62025789D01*
X73479255Y62085368D01*
X73300000Y62105565D01*
X73120745Y62085368D01*
X73120742Y62085368D01*
X73120742Y62085367D01*
X72950477Y62025789D01*
X72950474Y62025788D01*
X72797739Y61929818D01*
X72797737Y61929817D01*
X72670183Y61802263D01*
X72670182Y61802261D01*
X72574212Y61649526D01*
X72574211Y61649523D01*
X72574211Y61649522D01*
X72514632Y61479255D01*
X72494435Y61300000D01*
X975500Y61300000D01*
X975500Y65500000D01*
X78094435Y65500000D01*
X78114632Y65320745D01*
X78114633Y65320743D01*
X78174211Y65150478D01*
X78174212Y65150475D01*
X78270182Y64997740D01*
X78270183Y64997738D01*
X78397737Y64870184D01*
X78397739Y64870183D01*
X78550474Y64774213D01*
X78550475Y64774213D01*
X78550478Y64774211D01*
X78720745Y64714632D01*
X78900000Y64694435D01*
X79079255Y64714632D01*
X79249522Y64774211D01*
X79402262Y64870184D01*
X79529816Y64997738D01*
X79625789Y65150478D01*
X79685368Y65320745D01*
X79705565Y65500000D01*
X79685368Y65679255D01*
X79625789Y65849522D01*
X79625787Y65849525D01*
X79625787Y65849526D01*
X79529817Y66002261D01*
X79529816Y66002263D01*
X79402262Y66129817D01*
X79402260Y66129818D01*
X79249525Y66225788D01*
X79249522Y66225789D01*
X79079255Y66285368D01*
X78900000Y66305565D01*
X78720745Y66285368D01*
X78720742Y66285368D01*
X78720742Y66285367D01*
X78550477Y66225789D01*
X78550474Y66225788D01*
X78397739Y66129818D01*
X78397737Y66129817D01*
X78270183Y66002263D01*
X78270182Y66002261D01*
X78174212Y65849526D01*
X78174211Y65849523D01*
X78174211Y65849522D01*
X78114632Y65679255D01*
X78094435Y65500000D01*
X975500Y65500000D01*
X975500Y73475000D01*
X12359357Y73475000D01*
X12379885Y73253461D01*
X12440768Y73039480D01*
X12440774Y73039463D01*
X12539938Y72840316D01*
X12539942Y72840311D01*
X12674017Y72662765D01*
X12838438Y72512876D01*
X12838439Y72512875D01*
X13027587Y72395760D01*
X13027590Y72395759D01*
X13027599Y72395753D01*
X13117989Y72360736D01*
X13235053Y72315384D01*
X13235056Y72315384D01*
X13235060Y72315382D01*
X13453757Y72274500D01*
X13453760Y72274500D01*
X13676240Y72274500D01*
X13676243Y72274500D01*
X13894940Y72315382D01*
X13894944Y72315384D01*
X13894946Y72315384D01*
X13953099Y72337913D01*
X14102401Y72395753D01*
X14291562Y72512876D01*
X14455981Y72662764D01*
X14590058Y72840311D01*
X14590059Y72840315D01*
X14590061Y72840316D01*
X14689225Y73039463D01*
X14689226Y73039467D01*
X14689229Y73039472D01*
X14713810Y73125865D01*
X14751690Y73185912D01*
X14816021Y73215946D01*
X14886377Y73206433D01*
X14940422Y73160393D01*
X14956190Y73125865D01*
X14980768Y73039480D01*
X14980774Y73039463D01*
X15079938Y72840316D01*
X15079942Y72840311D01*
X15214017Y72662765D01*
X15378438Y72512876D01*
X15378439Y72512875D01*
X15567587Y72395760D01*
X15567590Y72395759D01*
X15567599Y72395753D01*
X15657989Y72360736D01*
X15775053Y72315384D01*
X15775056Y72315384D01*
X15775060Y72315382D01*
X15993757Y72274500D01*
X15993760Y72274500D01*
X16216240Y72274500D01*
X16216243Y72274500D01*
X16434940Y72315382D01*
X16434944Y72315384D01*
X16434946Y72315384D01*
X16493099Y72337913D01*
X16642401Y72395753D01*
X16831562Y72512876D01*
X16995981Y72662764D01*
X17130058Y72840311D01*
X17130059Y72840315D01*
X17130061Y72840316D01*
X17229225Y73039463D01*
X17229226Y73039467D01*
X17229229Y73039472D01*
X17253810Y73125865D01*
X17291690Y73185912D01*
X17356021Y73215946D01*
X17426377Y73206433D01*
X17480422Y73160393D01*
X17496190Y73125865D01*
X17520768Y73039480D01*
X17520774Y73039463D01*
X17619938Y72840316D01*
X17619942Y72840311D01*
X17754017Y72662765D01*
X17918438Y72512876D01*
X17918439Y72512875D01*
X18107587Y72395760D01*
X18107590Y72395759D01*
X18107599Y72395753D01*
X18197989Y72360736D01*
X18315053Y72315384D01*
X18315056Y72315384D01*
X18315060Y72315382D01*
X18533757Y72274500D01*
X18533760Y72274500D01*
X18756240Y72274500D01*
X18756243Y72274500D01*
X18974940Y72315382D01*
X18974944Y72315384D01*
X18974946Y72315384D01*
X19033099Y72337913D01*
X19182401Y72395753D01*
X19371562Y72512876D01*
X19535981Y72662764D01*
X19670058Y72840311D01*
X19743418Y72987638D01*
X19791685Y73039698D01*
X19860440Y73057401D01*
X19927850Y73035122D01*
X19970402Y72984722D01*
X20047912Y72818502D01*
X20179184Y72631026D01*
X20179189Y72631020D01*
X20341019Y72469190D01*
X20341025Y72469185D01*
X20528501Y72337913D01*
X20735926Y72241189D01*
X20735931Y72241187D01*
X20931000Y72188919D01*
X20931000Y73163314D01*
X20946955Y73147359D01*
X21059852Y73089835D01*
X21153519Y73075000D01*
X21216481Y73075000D01*
X21310148Y73089835D01*
X21423045Y73147359D01*
X21439000Y73163314D01*
X21439000Y72188919D01*
X21634068Y72241187D01*
X21634073Y72241189D01*
X21841498Y72337913D01*
X22028974Y72469185D01*
X22028980Y72469190D01*
X22190810Y72631020D01*
X22190815Y72631026D01*
X22322087Y72818502D01*
X22399597Y72984722D01*
X22446514Y73038007D01*
X22514791Y73057468D01*
X22582751Y73036926D01*
X22626582Y72987635D01*
X22699938Y72840316D01*
X22699942Y72840311D01*
X22834017Y72662765D01*
X22998438Y72512876D01*
X22998439Y72512875D01*
X23187587Y72395760D01*
X23187590Y72395759D01*
X23187599Y72395753D01*
X23277989Y72360736D01*
X23395053Y72315384D01*
X23395056Y72315384D01*
X23395060Y72315382D01*
X23613757Y72274500D01*
X23613760Y72274500D01*
X23836240Y72274500D01*
X23836243Y72274500D01*
X24054940Y72315382D01*
X24054944Y72315384D01*
X24054946Y72315384D01*
X24113099Y72337913D01*
X24262401Y72395753D01*
X24451562Y72512876D01*
X24615981Y72662764D01*
X24750058Y72840311D01*
X24750059Y72840315D01*
X24750061Y72840316D01*
X24849225Y73039463D01*
X24849226Y73039467D01*
X24849229Y73039472D01*
X24873810Y73125865D01*
X24911690Y73185912D01*
X24976021Y73215946D01*
X25046377Y73206433D01*
X25100422Y73160393D01*
X25116190Y73125865D01*
X25140768Y73039480D01*
X25140774Y73039463D01*
X25239938Y72840316D01*
X25239942Y72840311D01*
X25374017Y72662765D01*
X25538438Y72512876D01*
X25538439Y72512875D01*
X25727587Y72395760D01*
X25727590Y72395759D01*
X25727599Y72395753D01*
X25817989Y72360736D01*
X25935053Y72315384D01*
X25935056Y72315384D01*
X25935060Y72315382D01*
X26153757Y72274500D01*
X26153760Y72274500D01*
X26376240Y72274500D01*
X26376243Y72274500D01*
X26594940Y72315382D01*
X26594944Y72315384D01*
X26594946Y72315384D01*
X26653099Y72337913D01*
X26802401Y72395753D01*
X26991562Y72512876D01*
X27155981Y72662764D01*
X27290058Y72840311D01*
X27290059Y72840315D01*
X27290061Y72840316D01*
X27389225Y73039463D01*
X27389226Y73039467D01*
X27389229Y73039472D01*
X27413810Y73125865D01*
X27451690Y73185912D01*
X27516021Y73215946D01*
X27586377Y73206433D01*
X27640422Y73160393D01*
X27656190Y73125865D01*
X27680768Y73039480D01*
X27680774Y73039463D01*
X27779938Y72840316D01*
X27779942Y72840311D01*
X27914017Y72662765D01*
X28078438Y72512876D01*
X28078439Y72512875D01*
X28267587Y72395760D01*
X28267590Y72395759D01*
X28267599Y72395753D01*
X28357989Y72360736D01*
X28475053Y72315384D01*
X28475056Y72315384D01*
X28475060Y72315382D01*
X28693757Y72274500D01*
X28693760Y72274500D01*
X28916240Y72274500D01*
X28916243Y72274500D01*
X29134940Y72315382D01*
X29134944Y72315384D01*
X29134946Y72315384D01*
X29193099Y72337913D01*
X29342401Y72395753D01*
X29531562Y72512876D01*
X29695981Y72662764D01*
X29830058Y72840311D01*
X29830059Y72840315D01*
X29830061Y72840316D01*
X29929225Y73039463D01*
X29929226Y73039467D01*
X29929229Y73039472D01*
X29953810Y73125865D01*
X29991690Y73185912D01*
X30056021Y73215946D01*
X30126377Y73206433D01*
X30180422Y73160393D01*
X30196190Y73125865D01*
X30220768Y73039480D01*
X30220774Y73039463D01*
X30319938Y72840316D01*
X30319942Y72840311D01*
X30454017Y72662765D01*
X30618438Y72512876D01*
X30618439Y72512875D01*
X30807587Y72395760D01*
X30807590Y72395759D01*
X30807599Y72395753D01*
X30897989Y72360736D01*
X31015053Y72315384D01*
X31015056Y72315384D01*
X31015060Y72315382D01*
X31233757Y72274500D01*
X31233760Y72274500D01*
X31456240Y72274500D01*
X31456243Y72274500D01*
X31674940Y72315382D01*
X31674944Y72315384D01*
X31674946Y72315384D01*
X31733099Y72337913D01*
X31882401Y72395753D01*
X32071562Y72512876D01*
X32235981Y72662764D01*
X32370058Y72840311D01*
X32370059Y72840315D01*
X32370061Y72840316D01*
X32469225Y73039463D01*
X32469226Y73039467D01*
X32469229Y73039472D01*
X32493810Y73125865D01*
X32531690Y73185912D01*
X32596021Y73215946D01*
X32666377Y73206433D01*
X32720422Y73160393D01*
X32736190Y73125865D01*
X32760768Y73039480D01*
X32760774Y73039463D01*
X32859938Y72840316D01*
X32859942Y72840311D01*
X32994017Y72662765D01*
X33158438Y72512876D01*
X33158439Y72512875D01*
X33347587Y72395760D01*
X33347590Y72395759D01*
X33347599Y72395753D01*
X33437989Y72360736D01*
X33555053Y72315384D01*
X33555056Y72315384D01*
X33555060Y72315382D01*
X33773757Y72274500D01*
X33773760Y72274500D01*
X33996240Y72274500D01*
X33996243Y72274500D01*
X34214940Y72315382D01*
X34214944Y72315384D01*
X34214946Y72315384D01*
X34273099Y72337913D01*
X34422401Y72395753D01*
X34611562Y72512876D01*
X34775981Y72662764D01*
X34910058Y72840311D01*
X34910059Y72840315D01*
X34910061Y72840316D01*
X35009225Y73039463D01*
X35009226Y73039467D01*
X35009229Y73039472D01*
X35033810Y73125865D01*
X35071690Y73185912D01*
X35136021Y73215946D01*
X35206377Y73206433D01*
X35260422Y73160393D01*
X35276190Y73125865D01*
X35300768Y73039480D01*
X35300774Y73039463D01*
X35399938Y72840316D01*
X35399942Y72840311D01*
X35534017Y72662765D01*
X35698438Y72512876D01*
X35698439Y72512875D01*
X35887587Y72395760D01*
X35887590Y72395759D01*
X35887599Y72395753D01*
X35977989Y72360736D01*
X36095053Y72315384D01*
X36095056Y72315384D01*
X36095060Y72315382D01*
X36313757Y72274500D01*
X36313760Y72274500D01*
X36536240Y72274500D01*
X36536243Y72274500D01*
X36754940Y72315382D01*
X36754944Y72315384D01*
X36754946Y72315384D01*
X36813099Y72337913D01*
X36962401Y72395753D01*
X37151562Y72512876D01*
X37315981Y72662764D01*
X37450058Y72840311D01*
X37450059Y72840315D01*
X37450061Y72840316D01*
X37549225Y73039463D01*
X37549226Y73039467D01*
X37549229Y73039472D01*
X37573810Y73125865D01*
X37611690Y73185912D01*
X37676021Y73215946D01*
X37746377Y73206433D01*
X37800422Y73160393D01*
X37816190Y73125865D01*
X37840768Y73039480D01*
X37840774Y73039463D01*
X37939938Y72840316D01*
X37939942Y72840311D01*
X38074017Y72662765D01*
X38238438Y72512876D01*
X38238439Y72512875D01*
X38427587Y72395760D01*
X38427590Y72395759D01*
X38427599Y72395753D01*
X38517989Y72360736D01*
X38635053Y72315384D01*
X38635056Y72315384D01*
X38635060Y72315382D01*
X38853757Y72274500D01*
X38853760Y72274500D01*
X39076240Y72274500D01*
X39076243Y72274500D01*
X39294940Y72315382D01*
X39294944Y72315384D01*
X39294946Y72315384D01*
X39353099Y72337913D01*
X39502401Y72395753D01*
X39691562Y72512876D01*
X39855981Y72662764D01*
X39990058Y72840311D01*
X39990059Y72840315D01*
X39990061Y72840316D01*
X40089225Y73039463D01*
X40089226Y73039467D01*
X40089229Y73039472D01*
X40113810Y73125865D01*
X40151690Y73185912D01*
X40216021Y73215946D01*
X40286377Y73206433D01*
X40340422Y73160393D01*
X40356190Y73125865D01*
X40380768Y73039480D01*
X40380774Y73039463D01*
X40479938Y72840316D01*
X40479942Y72840311D01*
X40614017Y72662765D01*
X40778438Y72512876D01*
X40778439Y72512875D01*
X40967587Y72395760D01*
X40967590Y72395759D01*
X40967599Y72395753D01*
X41057989Y72360736D01*
X41175053Y72315384D01*
X41175056Y72315384D01*
X41175060Y72315382D01*
X41393757Y72274500D01*
X41393760Y72274500D01*
X41616240Y72274500D01*
X41616243Y72274500D01*
X41834940Y72315382D01*
X41834944Y72315384D01*
X41834946Y72315384D01*
X41893099Y72337913D01*
X42042401Y72395753D01*
X42231562Y72512876D01*
X42395981Y72662764D01*
X42530058Y72840311D01*
X42530059Y72840315D01*
X42530061Y72840316D01*
X42629225Y73039463D01*
X42629226Y73039467D01*
X42629229Y73039472D01*
X42653810Y73125865D01*
X42691690Y73185912D01*
X42756021Y73215946D01*
X42826377Y73206433D01*
X42880422Y73160393D01*
X42896190Y73125865D01*
X42920768Y73039480D01*
X42920774Y73039463D01*
X43019938Y72840316D01*
X43019942Y72840311D01*
X43154017Y72662765D01*
X43318438Y72512876D01*
X43318439Y72512875D01*
X43507587Y72395760D01*
X43507590Y72395759D01*
X43507599Y72395753D01*
X43597989Y72360736D01*
X43715053Y72315384D01*
X43715056Y72315384D01*
X43715060Y72315382D01*
X43933757Y72274500D01*
X43933760Y72274500D01*
X44156240Y72274500D01*
X44156243Y72274500D01*
X44374940Y72315382D01*
X44374944Y72315384D01*
X44374946Y72315384D01*
X44433099Y72337913D01*
X44582401Y72395753D01*
X44771562Y72512876D01*
X44935981Y72662764D01*
X45070058Y72840311D01*
X45070059Y72840315D01*
X45070061Y72840316D01*
X45169225Y73039463D01*
X45169226Y73039467D01*
X45169229Y73039472D01*
X45193810Y73125865D01*
X45231690Y73185912D01*
X45296021Y73215946D01*
X45366377Y73206433D01*
X45420422Y73160393D01*
X45436190Y73125865D01*
X45460768Y73039480D01*
X45460774Y73039463D01*
X45559938Y72840316D01*
X45559942Y72840311D01*
X45694017Y72662765D01*
X45858438Y72512876D01*
X45858439Y72512875D01*
X46047587Y72395760D01*
X46047590Y72395759D01*
X46047599Y72395753D01*
X46137989Y72360736D01*
X46255053Y72315384D01*
X46255056Y72315384D01*
X46255060Y72315382D01*
X46473757Y72274500D01*
X46473760Y72274500D01*
X46696240Y72274500D01*
X46696243Y72274500D01*
X46914940Y72315382D01*
X46914944Y72315384D01*
X46914946Y72315384D01*
X46973099Y72337913D01*
X47122401Y72395753D01*
X47311562Y72512876D01*
X47475981Y72662764D01*
X47610058Y72840311D01*
X47610059Y72840315D01*
X47610061Y72840316D01*
X47709225Y73039463D01*
X47709226Y73039467D01*
X47709229Y73039472D01*
X47733810Y73125865D01*
X47771690Y73185912D01*
X47836021Y73215946D01*
X47906377Y73206433D01*
X47960422Y73160393D01*
X47976190Y73125865D01*
X48000768Y73039480D01*
X48000774Y73039463D01*
X48099938Y72840316D01*
X48099942Y72840311D01*
X48234017Y72662765D01*
X48398438Y72512876D01*
X48398439Y72512875D01*
X48587587Y72395760D01*
X48587590Y72395759D01*
X48587599Y72395753D01*
X48677989Y72360736D01*
X48795053Y72315384D01*
X48795056Y72315384D01*
X48795060Y72315382D01*
X49013757Y72274500D01*
X49013760Y72274500D01*
X49236240Y72274500D01*
X49236243Y72274500D01*
X49454940Y72315382D01*
X49454944Y72315384D01*
X49454946Y72315384D01*
X49513099Y72337913D01*
X49662401Y72395753D01*
X49851562Y72512876D01*
X50015981Y72662764D01*
X50150058Y72840311D01*
X50150059Y72840315D01*
X50150061Y72840316D01*
X50249225Y73039463D01*
X50249226Y73039467D01*
X50249229Y73039472D01*
X50273810Y73125865D01*
X50311690Y73185912D01*
X50376021Y73215946D01*
X50446377Y73206433D01*
X50500422Y73160393D01*
X50516190Y73125865D01*
X50540768Y73039480D01*
X50540774Y73039463D01*
X50639938Y72840316D01*
X50639942Y72840311D01*
X50774017Y72662765D01*
X50938438Y72512876D01*
X50938439Y72512875D01*
X51127587Y72395760D01*
X51127590Y72395759D01*
X51127599Y72395753D01*
X51217989Y72360736D01*
X51335053Y72315384D01*
X51335056Y72315384D01*
X51335060Y72315382D01*
X51553757Y72274500D01*
X51553760Y72274500D01*
X51776240Y72274500D01*
X51776243Y72274500D01*
X51994940Y72315382D01*
X51994944Y72315384D01*
X51994946Y72315384D01*
X52053099Y72337913D01*
X52202401Y72395753D01*
X52391562Y72512876D01*
X52555981Y72662764D01*
X52690058Y72840311D01*
X52690059Y72840315D01*
X52690061Y72840316D01*
X52789225Y73039463D01*
X52789226Y73039467D01*
X52789229Y73039472D01*
X52813810Y73125865D01*
X52851690Y73185912D01*
X52916021Y73215946D01*
X52986377Y73206433D01*
X53040422Y73160393D01*
X53056190Y73125865D01*
X53080768Y73039480D01*
X53080774Y73039463D01*
X53179938Y72840316D01*
X53179942Y72840311D01*
X53314017Y72662765D01*
X53478438Y72512876D01*
X53478439Y72512875D01*
X53667587Y72395760D01*
X53667590Y72395759D01*
X53667599Y72395753D01*
X53757989Y72360736D01*
X53875053Y72315384D01*
X53875056Y72315384D01*
X53875060Y72315382D01*
X54093757Y72274500D01*
X54093760Y72274500D01*
X54316240Y72274500D01*
X54316243Y72274500D01*
X54534940Y72315382D01*
X54534944Y72315384D01*
X54534946Y72315384D01*
X54593099Y72337913D01*
X54742401Y72395753D01*
X54931562Y72512876D01*
X55095981Y72662764D01*
X55230058Y72840311D01*
X55230059Y72840315D01*
X55230061Y72840316D01*
X55329225Y73039463D01*
X55329226Y73039467D01*
X55329229Y73039472D01*
X55353810Y73125865D01*
X55391690Y73185912D01*
X55456021Y73215946D01*
X55526377Y73206433D01*
X55580422Y73160393D01*
X55596190Y73125865D01*
X55620768Y73039480D01*
X55620774Y73039463D01*
X55719938Y72840316D01*
X55719942Y72840311D01*
X55854017Y72662765D01*
X56018438Y72512876D01*
X56018439Y72512875D01*
X56207587Y72395760D01*
X56207590Y72395759D01*
X56207599Y72395753D01*
X56297989Y72360736D01*
X56415053Y72315384D01*
X56415056Y72315384D01*
X56415060Y72315382D01*
X56633757Y72274500D01*
X56633760Y72274500D01*
X56856240Y72274500D01*
X56856243Y72274500D01*
X57074940Y72315382D01*
X57074944Y72315384D01*
X57074946Y72315384D01*
X57133099Y72337913D01*
X57282401Y72395753D01*
X57471562Y72512876D01*
X57635981Y72662764D01*
X57770058Y72840311D01*
X57770059Y72840315D01*
X57770061Y72840316D01*
X57869225Y73039463D01*
X57869226Y73039467D01*
X57869229Y73039472D01*
X57893810Y73125865D01*
X57931690Y73185912D01*
X57996021Y73215946D01*
X58066377Y73206433D01*
X58120422Y73160393D01*
X58136190Y73125865D01*
X58160768Y73039480D01*
X58160774Y73039463D01*
X58259938Y72840316D01*
X58259942Y72840311D01*
X58394017Y72662765D01*
X58558438Y72512876D01*
X58558439Y72512875D01*
X58747587Y72395760D01*
X58747590Y72395759D01*
X58747599Y72395753D01*
X58837989Y72360736D01*
X58955053Y72315384D01*
X58955056Y72315384D01*
X58955060Y72315382D01*
X59173757Y72274500D01*
X59173760Y72274500D01*
X59396240Y72274500D01*
X59396243Y72274500D01*
X59614940Y72315382D01*
X59614944Y72315384D01*
X59614946Y72315384D01*
X59673099Y72337913D01*
X59822401Y72395753D01*
X60011562Y72512876D01*
X60175981Y72662764D01*
X60290449Y72814346D01*
X60347463Y72856653D01*
X60418300Y72861421D01*
X60480468Y72827135D01*
X60514232Y72764680D01*
X60517000Y72738414D01*
X60517000Y72626403D01*
X60523505Y72565907D01*
X60574555Y72429036D01*
X60574555Y72429035D01*
X60662095Y72312096D01*
X60779034Y72224556D01*
X60915906Y72173506D01*
X60976402Y72167001D01*
X60976415Y72167000D01*
X61571000Y72167000D01*
X61571000Y73163314D01*
X61586955Y73147359D01*
X61699852Y73089835D01*
X61793519Y73075000D01*
X61856481Y73075000D01*
X61950148Y73089835D01*
X62063045Y73147359D01*
X62079000Y73163314D01*
X62079000Y72167000D01*
X62673585Y72167000D01*
X62673597Y72167001D01*
X62734093Y72173506D01*
X62870964Y72224556D01*
X62870965Y72224556D01*
X62987904Y72312096D01*
X63075444Y72429035D01*
X63075444Y72429036D01*
X63126494Y72565907D01*
X63132999Y72626403D01*
X63133000Y72626415D01*
X63133000Y73221000D01*
X62136686Y73221000D01*
X62152641Y73236955D01*
X62210165Y73349852D01*
X62229986Y73475000D01*
X62210165Y73600148D01*
X62152641Y73713045D01*
X62136686Y73729000D01*
X63133000Y73729000D01*
X63133000Y74323586D01*
X63132999Y74323598D01*
X63126494Y74384094D01*
X63075444Y74520965D01*
X63075444Y74520966D01*
X62987904Y74637905D01*
X62870965Y74725445D01*
X62734093Y74776495D01*
X62673597Y74783000D01*
X62079000Y74783000D01*
X62079000Y73786686D01*
X62063045Y73802641D01*
X61950148Y73860165D01*
X61856481Y73875000D01*
X61793519Y73875000D01*
X61699852Y73860165D01*
X61586955Y73802641D01*
X61571000Y73786686D01*
X61571000Y74783000D01*
X60976402Y74783000D01*
X60915906Y74776495D01*
X60779035Y74725445D01*
X60779034Y74725445D01*
X60662095Y74637905D01*
X60574555Y74520966D01*
X60574555Y74520965D01*
X60523505Y74384094D01*
X60517000Y74323598D01*
X60517000Y74211587D01*
X60496998Y74143466D01*
X60443342Y74096973D01*
X60373068Y74086869D01*
X60308488Y74116363D01*
X60290450Y74135655D01*
X60175982Y74287236D01*
X60011561Y74437125D01*
X60011560Y74437126D01*
X59822412Y74554241D01*
X59822405Y74554245D01*
X59822401Y74554247D01*
X59822396Y74554249D01*
X59614946Y74634617D01*
X59575972Y74641903D01*
X59396243Y74675500D01*
X59173757Y74675500D01*
X59032674Y74649127D01*
X58955053Y74634617D01*
X58747603Y74554249D01*
X58747587Y74554241D01*
X58558439Y74437126D01*
X58558438Y74437125D01*
X58394017Y74287236D01*
X58259942Y74109690D01*
X58259938Y74109685D01*
X58160774Y73910538D01*
X58160768Y73910521D01*
X58136190Y73824136D01*
X58098310Y73764089D01*
X58033979Y73734055D01*
X57963622Y73743568D01*
X57909578Y73789608D01*
X57893810Y73824136D01*
X57869231Y73910521D01*
X57869225Y73910538D01*
X57770061Y74109685D01*
X57770057Y74109690D01*
X57635982Y74287236D01*
X57471561Y74437125D01*
X57471560Y74437126D01*
X57282412Y74554241D01*
X57282405Y74554245D01*
X57282401Y74554247D01*
X57282396Y74554249D01*
X57074946Y74634617D01*
X57035972Y74641903D01*
X56856243Y74675500D01*
X56633757Y74675500D01*
X56492674Y74649127D01*
X56415053Y74634617D01*
X56207603Y74554249D01*
X56207587Y74554241D01*
X56018439Y74437126D01*
X56018438Y74437125D01*
X55854017Y74287236D01*
X55719942Y74109690D01*
X55719938Y74109685D01*
X55620774Y73910538D01*
X55620768Y73910521D01*
X55596190Y73824136D01*
X55558310Y73764089D01*
X55493979Y73734055D01*
X55423622Y73743568D01*
X55369578Y73789608D01*
X55353810Y73824136D01*
X55329231Y73910521D01*
X55329225Y73910538D01*
X55230061Y74109685D01*
X55230057Y74109690D01*
X55095982Y74287236D01*
X54931561Y74437125D01*
X54931560Y74437126D01*
X54742412Y74554241D01*
X54742405Y74554245D01*
X54742401Y74554247D01*
X54742396Y74554249D01*
X54534946Y74634617D01*
X54495972Y74641903D01*
X54316243Y74675500D01*
X54093757Y74675500D01*
X53952674Y74649127D01*
X53875053Y74634617D01*
X53667603Y74554249D01*
X53667587Y74554241D01*
X53478439Y74437126D01*
X53478438Y74437125D01*
X53314017Y74287236D01*
X53179942Y74109690D01*
X53179938Y74109685D01*
X53080774Y73910538D01*
X53080768Y73910521D01*
X53056190Y73824136D01*
X53018310Y73764089D01*
X52953979Y73734055D01*
X52883622Y73743568D01*
X52829578Y73789608D01*
X52813810Y73824136D01*
X52789231Y73910521D01*
X52789225Y73910538D01*
X52690061Y74109685D01*
X52690057Y74109690D01*
X52555982Y74287236D01*
X52391561Y74437125D01*
X52391560Y74437126D01*
X52202412Y74554241D01*
X52202405Y74554245D01*
X52202401Y74554247D01*
X52202396Y74554249D01*
X51994946Y74634617D01*
X51955972Y74641903D01*
X51776243Y74675500D01*
X51553757Y74675500D01*
X51412674Y74649127D01*
X51335053Y74634617D01*
X51127603Y74554249D01*
X51127587Y74554241D01*
X50938439Y74437126D01*
X50938438Y74437125D01*
X50774017Y74287236D01*
X50639942Y74109690D01*
X50639938Y74109685D01*
X50540774Y73910538D01*
X50540768Y73910521D01*
X50516190Y73824136D01*
X50478310Y73764089D01*
X50413979Y73734055D01*
X50343622Y73743568D01*
X50289578Y73789608D01*
X50273810Y73824136D01*
X50249231Y73910521D01*
X50249225Y73910538D01*
X50150061Y74109685D01*
X50150057Y74109690D01*
X50015982Y74287236D01*
X49851561Y74437125D01*
X49851560Y74437126D01*
X49662412Y74554241D01*
X49662405Y74554245D01*
X49662401Y74554247D01*
X49662396Y74554249D01*
X49454946Y74634617D01*
X49415972Y74641903D01*
X49236243Y74675500D01*
X49013757Y74675500D01*
X48872674Y74649127D01*
X48795053Y74634617D01*
X48587603Y74554249D01*
X48587587Y74554241D01*
X48398439Y74437126D01*
X48398438Y74437125D01*
X48234017Y74287236D01*
X48099942Y74109690D01*
X48099938Y74109685D01*
X48000774Y73910538D01*
X48000768Y73910521D01*
X47976190Y73824136D01*
X47938310Y73764089D01*
X47873979Y73734055D01*
X47803622Y73743568D01*
X47749578Y73789608D01*
X47733810Y73824136D01*
X47709231Y73910521D01*
X47709225Y73910538D01*
X47610061Y74109685D01*
X47610057Y74109690D01*
X47475982Y74287236D01*
X47311561Y74437125D01*
X47311560Y74437126D01*
X47122412Y74554241D01*
X47122405Y74554245D01*
X47122401Y74554247D01*
X47122396Y74554249D01*
X46914946Y74634617D01*
X46875972Y74641903D01*
X46696243Y74675500D01*
X46473757Y74675500D01*
X46332674Y74649127D01*
X46255053Y74634617D01*
X46047603Y74554249D01*
X46047587Y74554241D01*
X45858439Y74437126D01*
X45858438Y74437125D01*
X45694017Y74287236D01*
X45559942Y74109690D01*
X45559938Y74109685D01*
X45460774Y73910538D01*
X45460768Y73910521D01*
X45436190Y73824136D01*
X45398310Y73764089D01*
X45333979Y73734055D01*
X45263622Y73743568D01*
X45209578Y73789608D01*
X45193810Y73824136D01*
X45169231Y73910521D01*
X45169225Y73910538D01*
X45070061Y74109685D01*
X45070057Y74109690D01*
X44935982Y74287236D01*
X44771561Y74437125D01*
X44771560Y74437126D01*
X44582412Y74554241D01*
X44582405Y74554245D01*
X44582401Y74554247D01*
X44582396Y74554249D01*
X44374946Y74634617D01*
X44335972Y74641903D01*
X44156243Y74675500D01*
X43933757Y74675500D01*
X43792674Y74649127D01*
X43715053Y74634617D01*
X43507603Y74554249D01*
X43507587Y74554241D01*
X43318439Y74437126D01*
X43318438Y74437125D01*
X43154017Y74287236D01*
X43019942Y74109690D01*
X43019938Y74109685D01*
X42920774Y73910538D01*
X42920768Y73910521D01*
X42896190Y73824136D01*
X42858310Y73764089D01*
X42793979Y73734055D01*
X42723622Y73743568D01*
X42669578Y73789608D01*
X42653810Y73824136D01*
X42629231Y73910521D01*
X42629225Y73910538D01*
X42530061Y74109685D01*
X42530057Y74109690D01*
X42395982Y74287236D01*
X42231561Y74437125D01*
X42231560Y74437126D01*
X42042412Y74554241D01*
X42042405Y74554245D01*
X42042401Y74554247D01*
X42042396Y74554249D01*
X41834946Y74634617D01*
X41795972Y74641903D01*
X41616243Y74675500D01*
X41393757Y74675500D01*
X41252674Y74649127D01*
X41175053Y74634617D01*
X40967603Y74554249D01*
X40967587Y74554241D01*
X40778439Y74437126D01*
X40778438Y74437125D01*
X40614017Y74287236D01*
X40479942Y74109690D01*
X40479938Y74109685D01*
X40380774Y73910538D01*
X40380768Y73910521D01*
X40356190Y73824136D01*
X40318310Y73764089D01*
X40253979Y73734055D01*
X40183622Y73743568D01*
X40129578Y73789608D01*
X40113810Y73824136D01*
X40089231Y73910521D01*
X40089225Y73910538D01*
X39990061Y74109685D01*
X39990057Y74109690D01*
X39855982Y74287236D01*
X39691561Y74437125D01*
X39691560Y74437126D01*
X39502412Y74554241D01*
X39502405Y74554245D01*
X39502401Y74554247D01*
X39502396Y74554249D01*
X39294946Y74634617D01*
X39255972Y74641903D01*
X39076243Y74675500D01*
X38853757Y74675500D01*
X38712674Y74649127D01*
X38635053Y74634617D01*
X38427603Y74554249D01*
X38427587Y74554241D01*
X38238439Y74437126D01*
X38238438Y74437125D01*
X38074017Y74287236D01*
X37939942Y74109690D01*
X37939938Y74109685D01*
X37840774Y73910538D01*
X37840768Y73910521D01*
X37816190Y73824136D01*
X37778310Y73764089D01*
X37713979Y73734055D01*
X37643622Y73743568D01*
X37589578Y73789608D01*
X37573810Y73824136D01*
X37549231Y73910521D01*
X37549225Y73910538D01*
X37450061Y74109685D01*
X37450057Y74109690D01*
X37315982Y74287236D01*
X37151561Y74437125D01*
X37151560Y74437126D01*
X36962412Y74554241D01*
X36962405Y74554245D01*
X36962401Y74554247D01*
X36962396Y74554249D01*
X36754946Y74634617D01*
X36715972Y74641903D01*
X36536243Y74675500D01*
X36313757Y74675500D01*
X36172674Y74649127D01*
X36095053Y74634617D01*
X35887603Y74554249D01*
X35887587Y74554241D01*
X35698439Y74437126D01*
X35698438Y74437125D01*
X35534017Y74287236D01*
X35399942Y74109690D01*
X35399938Y74109685D01*
X35300774Y73910538D01*
X35300768Y73910521D01*
X35276190Y73824136D01*
X35238310Y73764089D01*
X35173979Y73734055D01*
X35103622Y73743568D01*
X35049578Y73789608D01*
X35033810Y73824136D01*
X35009231Y73910521D01*
X35009225Y73910538D01*
X34910061Y74109685D01*
X34910057Y74109690D01*
X34775982Y74287236D01*
X34611561Y74437125D01*
X34611560Y74437126D01*
X34422412Y74554241D01*
X34422405Y74554245D01*
X34422401Y74554247D01*
X34422396Y74554249D01*
X34214946Y74634617D01*
X34175972Y74641903D01*
X33996243Y74675500D01*
X33773757Y74675500D01*
X33632674Y74649127D01*
X33555053Y74634617D01*
X33347603Y74554249D01*
X33347587Y74554241D01*
X33158439Y74437126D01*
X33158438Y74437125D01*
X32994017Y74287236D01*
X32859942Y74109690D01*
X32859938Y74109685D01*
X32760774Y73910538D01*
X32760768Y73910521D01*
X32736190Y73824136D01*
X32698310Y73764089D01*
X32633979Y73734055D01*
X32563622Y73743568D01*
X32509578Y73789608D01*
X32493810Y73824136D01*
X32469231Y73910521D01*
X32469225Y73910538D01*
X32370061Y74109685D01*
X32370057Y74109690D01*
X32235982Y74287236D01*
X32071561Y74437125D01*
X32071560Y74437126D01*
X31882412Y74554241D01*
X31882405Y74554245D01*
X31882401Y74554247D01*
X31882396Y74554249D01*
X31674946Y74634617D01*
X31635972Y74641903D01*
X31456243Y74675500D01*
X31233757Y74675500D01*
X31092674Y74649127D01*
X31015053Y74634617D01*
X30807603Y74554249D01*
X30807587Y74554241D01*
X30618439Y74437126D01*
X30618438Y74437125D01*
X30454017Y74287236D01*
X30319942Y74109690D01*
X30319938Y74109685D01*
X30220774Y73910538D01*
X30220768Y73910521D01*
X30196190Y73824136D01*
X30158310Y73764089D01*
X30093979Y73734055D01*
X30023622Y73743568D01*
X29969578Y73789608D01*
X29953810Y73824136D01*
X29929231Y73910521D01*
X29929225Y73910538D01*
X29830061Y74109685D01*
X29830057Y74109690D01*
X29695982Y74287236D01*
X29531561Y74437125D01*
X29531560Y74437126D01*
X29342412Y74554241D01*
X29342405Y74554245D01*
X29342401Y74554247D01*
X29342396Y74554249D01*
X29134946Y74634617D01*
X29095972Y74641903D01*
X28916243Y74675500D01*
X28693757Y74675500D01*
X28552674Y74649127D01*
X28475053Y74634617D01*
X28267603Y74554249D01*
X28267587Y74554241D01*
X28078439Y74437126D01*
X28078438Y74437125D01*
X27914017Y74287236D01*
X27779942Y74109690D01*
X27779938Y74109685D01*
X27680774Y73910538D01*
X27680768Y73910521D01*
X27656190Y73824136D01*
X27618310Y73764089D01*
X27553979Y73734055D01*
X27483622Y73743568D01*
X27429578Y73789608D01*
X27413810Y73824136D01*
X27389231Y73910521D01*
X27389225Y73910538D01*
X27290061Y74109685D01*
X27290057Y74109690D01*
X27155982Y74287236D01*
X26991561Y74437125D01*
X26991560Y74437126D01*
X26802412Y74554241D01*
X26802405Y74554245D01*
X26802401Y74554247D01*
X26802396Y74554249D01*
X26594946Y74634617D01*
X26555972Y74641903D01*
X26376243Y74675500D01*
X26153757Y74675500D01*
X26012674Y74649127D01*
X25935053Y74634617D01*
X25727603Y74554249D01*
X25727587Y74554241D01*
X25538439Y74437126D01*
X25538438Y74437125D01*
X25374017Y74287236D01*
X25239942Y74109690D01*
X25239938Y74109685D01*
X25140774Y73910538D01*
X25140768Y73910521D01*
X25116190Y73824136D01*
X25078310Y73764089D01*
X25013979Y73734055D01*
X24943622Y73743568D01*
X24889578Y73789608D01*
X24873810Y73824136D01*
X24849231Y73910521D01*
X24849225Y73910538D01*
X24750061Y74109685D01*
X24750057Y74109690D01*
X24615982Y74287236D01*
X24451561Y74437125D01*
X24451560Y74437126D01*
X24262412Y74554241D01*
X24262405Y74554245D01*
X24262401Y74554247D01*
X24262396Y74554249D01*
X24054946Y74634617D01*
X24015972Y74641903D01*
X23836243Y74675500D01*
X23613757Y74675500D01*
X23472674Y74649127D01*
X23395053Y74634617D01*
X23187603Y74554249D01*
X23187587Y74554241D01*
X22998439Y74437126D01*
X22998438Y74437125D01*
X22834017Y74287236D01*
X22699942Y74109690D01*
X22699941Y74109689D01*
X22626582Y73962365D01*
X22578313Y73910302D01*
X22509558Y73892600D01*
X22442148Y73914880D01*
X22399597Y73965279D01*
X22322087Y74131499D01*
X22190815Y74318975D01*
X22190810Y74318981D01*
X22028980Y74480811D01*
X22028974Y74480816D01*
X21841498Y74612088D01*
X21634073Y74708812D01*
X21634071Y74708813D01*
X21439000Y74761083D01*
X21439000Y73786686D01*
X21423045Y73802641D01*
X21310148Y73860165D01*
X21216481Y73875000D01*
X21153519Y73875000D01*
X21059852Y73860165D01*
X20946955Y73802641D01*
X20931000Y73786686D01*
X20931000Y74761083D01*
X20930999Y74761083D01*
X20735928Y74708813D01*
X20735926Y74708812D01*
X20528501Y74612088D01*
X20341025Y74480816D01*
X20341019Y74480811D01*
X20179189Y74318981D01*
X20179184Y74318975D01*
X20047912Y74131499D01*
X19970402Y73965279D01*
X19923484Y73911994D01*
X19855207Y73892533D01*
X19787247Y73913075D01*
X19743417Y73962365D01*
X19670058Y74109689D01*
X19625984Y74168053D01*
X19535982Y74287236D01*
X19371561Y74437125D01*
X19371560Y74437126D01*
X19182412Y74554241D01*
X19182405Y74554245D01*
X19182401Y74554247D01*
X19182396Y74554249D01*
X18974946Y74634617D01*
X18935972Y74641903D01*
X18756243Y74675500D01*
X18533757Y74675500D01*
X18392674Y74649127D01*
X18315053Y74634617D01*
X18107603Y74554249D01*
X18107587Y74554241D01*
X17918439Y74437126D01*
X17918438Y74437125D01*
X17754017Y74287236D01*
X17619942Y74109690D01*
X17619938Y74109685D01*
X17520774Y73910538D01*
X17520768Y73910521D01*
X17496190Y73824136D01*
X17458310Y73764089D01*
X17393979Y73734055D01*
X17323622Y73743568D01*
X17269578Y73789608D01*
X17253810Y73824136D01*
X17229231Y73910521D01*
X17229225Y73910538D01*
X17130061Y74109685D01*
X17130057Y74109690D01*
X16995982Y74287236D01*
X16831561Y74437125D01*
X16831560Y74437126D01*
X16642412Y74554241D01*
X16642405Y74554245D01*
X16642401Y74554247D01*
X16642396Y74554249D01*
X16434946Y74634617D01*
X16395972Y74641903D01*
X16216243Y74675500D01*
X15993757Y74675500D01*
X15852674Y74649127D01*
X15775053Y74634617D01*
X15567603Y74554249D01*
X15567587Y74554241D01*
X15378439Y74437126D01*
X15378438Y74437125D01*
X15214017Y74287236D01*
X15079942Y74109690D01*
X15079938Y74109685D01*
X14980774Y73910538D01*
X14980768Y73910521D01*
X14956190Y73824136D01*
X14918310Y73764089D01*
X14853979Y73734055D01*
X14783622Y73743568D01*
X14729578Y73789608D01*
X14713810Y73824136D01*
X14689231Y73910521D01*
X14689225Y73910538D01*
X14590061Y74109685D01*
X14590057Y74109690D01*
X14455982Y74287236D01*
X14291561Y74437125D01*
X14291560Y74437126D01*
X14102412Y74554241D01*
X14102405Y74554245D01*
X14102401Y74554247D01*
X14102396Y74554249D01*
X13894946Y74634617D01*
X13855972Y74641903D01*
X13676243Y74675500D01*
X13453757Y74675500D01*
X13312674Y74649127D01*
X13235053Y74634617D01*
X13027603Y74554249D01*
X13027587Y74554241D01*
X12838439Y74437126D01*
X12838438Y74437125D01*
X12674017Y74287236D01*
X12539942Y74109690D01*
X12539938Y74109685D01*
X12440774Y73910538D01*
X12440768Y73910521D01*
X12379885Y73696540D01*
X12359357Y73475000D01*
X975500Y73475000D01*
X975500Y76597253D01*
X975620Y76602749D01*
X985573Y76830703D01*
X993999Y77023705D01*
X994957Y77034653D01*
X1003174Y77097067D01*
X1020969Y77232235D01*
X3645788Y77232235D01*
X3675412Y76962986D01*
X3743928Y76700910D01*
X3849869Y76451611D01*
X3849870Y76451610D01*
X3990982Y76220390D01*
X4164255Y76012180D01*
X4365998Y75831418D01*
X4591910Y75681956D01*
X4837176Y75566980D01*
X5096569Y75488940D01*
X5096572Y75488940D01*
X5096574Y75488939D01*
X5364557Y75449500D01*
X5364561Y75449500D01*
X5567631Y75449500D01*
X5770156Y75464323D01*
X5770160Y75464324D01*
X5770161Y75464324D01*
X5880665Y75488940D01*
X6034553Y75523220D01*
X6287558Y75619986D01*
X6523777Y75752559D01*
X6738177Y75918112D01*
X6926186Y76113119D01*
X7083799Y76333421D01*
X7207656Y76574325D01*
X7295118Y76830695D01*
X7342178Y77085475D01*
X7344318Y77097059D01*
X7344319Y77097070D01*
X7354212Y77367765D01*
X7346814Y77435000D01*
X19229435Y77435000D01*
X19249632Y77255745D01*
X19249633Y77255743D01*
X19309211Y77085478D01*
X19309212Y77085475D01*
X19405182Y76932740D01*
X19405183Y76932738D01*
X19532737Y76805184D01*
X19532739Y76805183D01*
X19685474Y76709213D01*
X19685475Y76709213D01*
X19685478Y76709211D01*
X19855745Y76649632D01*
X20035000Y76629435D01*
X20214255Y76649632D01*
X20384522Y76709211D01*
X20537262Y76805184D01*
X20664816Y76932738D01*
X20707961Y77001403D01*
X66542000Y77001403D01*
X66548505Y76940907D01*
X66599555Y76804036D01*
X66599555Y76804035D01*
X66687095Y76687096D01*
X66804034Y76599556D01*
X66940906Y76548506D01*
X67001402Y76542001D01*
X67001415Y76542000D01*
X67646000Y76542000D01*
X67646000Y77466326D01*
X67757685Y77415320D01*
X67864237Y77400000D01*
X67935763Y77400000D01*
X68042315Y77415320D01*
X68154000Y77466326D01*
X68154000Y76542000D01*
X68798585Y76542000D01*
X68798597Y76542001D01*
X68859093Y76548506D01*
X68995964Y76599556D01*
X68995965Y76599556D01*
X69112904Y76687096D01*
X69200444Y76804035D01*
X69200444Y76804036D01*
X69251494Y76940907D01*
X69257999Y77001403D01*
X69258000Y77001415D01*
X69258000Y77232235D01*
X74445788Y77232235D01*
X74475412Y76962986D01*
X74543928Y76700910D01*
X74649869Y76451611D01*
X74649870Y76451610D01*
X74790982Y76220390D01*
X74964255Y76012180D01*
X75165998Y75831418D01*
X75391910Y75681956D01*
X75637176Y75566980D01*
X75896569Y75488940D01*
X75896572Y75488940D01*
X75896574Y75488939D01*
X76164557Y75449500D01*
X76164561Y75449500D01*
X76367631Y75449500D01*
X76570156Y75464323D01*
X76570160Y75464324D01*
X76570161Y75464324D01*
X76680665Y75488940D01*
X76834553Y75523220D01*
X77087558Y75619986D01*
X77323777Y75752559D01*
X77538177Y75918112D01*
X77726186Y76113119D01*
X77883799Y76333421D01*
X78007656Y76574325D01*
X78095118Y76830695D01*
X78142178Y77085475D01*
X78144318Y77097059D01*
X78144319Y77097070D01*
X78154212Y77367765D01*
X78127091Y77614255D01*
X78124587Y77637015D01*
X78062486Y77874554D01*
X78056072Y77899088D01*
X78039849Y77937263D01*
X77950130Y78148390D01*
X77893876Y78240565D01*
X77809018Y78379610D01*
X77635745Y78587820D01*
X77635741Y78587823D01*
X77635740Y78587825D01*
X77434012Y78768573D01*
X77434002Y78768582D01*
X77208090Y78918044D01*
X76962824Y79033020D01*
X76805392Y79080385D01*
X76703425Y79111062D01*
X76435442Y79150500D01*
X76435439Y79150500D01*
X76232369Y79150500D01*
X76029839Y79135677D01*
X76029838Y79135677D01*
X75765456Y79076783D01*
X75765441Y79076778D01*
X75512441Y78980014D01*
X75276229Y78847445D01*
X75276225Y78847443D01*
X75061818Y78681884D01*
X74873815Y78486883D01*
X74873810Y78486877D01*
X74716203Y78266583D01*
X74716196Y78266573D01*
X74592343Y78025676D01*
X74592342Y78025673D01*
X74504883Y77769311D01*
X74504880Y77769298D01*
X74455681Y77502942D01*
X74455680Y77502931D01*
X74445788Y77232235D01*
X69258000Y77232235D01*
X69258000Y77646000D01*
X68331116Y77646000D01*
X68359493Y77690156D01*
X68400000Y77828111D01*
X68400000Y77971889D01*
X68359493Y78109844D01*
X68331116Y78154000D01*
X69258000Y78154000D01*
X69258000Y78798586D01*
X69257999Y78798598D01*
X69251494Y78859094D01*
X69200444Y78995965D01*
X69200444Y78995966D01*
X69112904Y79112905D01*
X68995965Y79200445D01*
X68859093Y79251495D01*
X68798597Y79258000D01*
X68154000Y79258000D01*
X68154000Y78333675D01*
X68042315Y78384680D01*
X67935763Y78400000D01*
X67864237Y78400000D01*
X67757685Y78384680D01*
X67646000Y78333675D01*
X67646000Y79258000D01*
X67001402Y79258000D01*
X66940906Y79251495D01*
X66804035Y79200445D01*
X66804034Y79200445D01*
X66687095Y79112905D01*
X66599555Y78995966D01*
X66599555Y78995965D01*
X66548505Y78859094D01*
X66542000Y78798598D01*
X66542000Y78154000D01*
X67468884Y78154000D01*
X67440507Y78109844D01*
X67400000Y77971889D01*
X67400000Y77828111D01*
X67440507Y77690156D01*
X67468884Y77646000D01*
X66542000Y77646000D01*
X66542000Y77001403D01*
X20707961Y77001403D01*
X20760789Y77085478D01*
X20820368Y77255745D01*
X20840565Y77435000D01*
X20820368Y77614255D01*
X20760789Y77784522D01*
X20760787Y77784525D01*
X20760787Y77784526D01*
X20664817Y77937261D01*
X20664816Y77937263D01*
X20537262Y78064817D01*
X20537260Y78064818D01*
X20384525Y78160788D01*
X20384522Y78160789D01*
X20214255Y78220368D01*
X20035000Y78240565D01*
X19855745Y78220368D01*
X19855742Y78220368D01*
X19855742Y78220367D01*
X19685477Y78160789D01*
X19685474Y78160788D01*
X19532739Y78064818D01*
X19532737Y78064817D01*
X19405183Y77937263D01*
X19405182Y77937261D01*
X19309212Y77784526D01*
X19309211Y77784523D01*
X19309211Y77784522D01*
X19249632Y77614255D01*
X19229435Y77435000D01*
X7346814Y77435000D01*
X7327091Y77614255D01*
X7324587Y77637015D01*
X7262486Y77874554D01*
X7256072Y77899088D01*
X7239849Y77937263D01*
X7150130Y78148390D01*
X7093876Y78240565D01*
X7009018Y78379610D01*
X6835745Y78587820D01*
X6835741Y78587823D01*
X6835740Y78587825D01*
X6634012Y78768573D01*
X6634002Y78768582D01*
X6408090Y78918044D01*
X6162824Y79033020D01*
X6005392Y79080385D01*
X5903425Y79111062D01*
X5635442Y79150500D01*
X5635439Y79150500D01*
X5432369Y79150500D01*
X5229839Y79135677D01*
X5229838Y79135677D01*
X4965456Y79076783D01*
X4965441Y79076778D01*
X4712441Y78980014D01*
X4476229Y78847445D01*
X4476225Y78847443D01*
X4261818Y78681884D01*
X4073815Y78486883D01*
X4073810Y78486877D01*
X3916203Y78266583D01*
X3916196Y78266573D01*
X3792343Y78025676D01*
X3792342Y78025673D01*
X3704883Y77769311D01*
X3704880Y77769298D01*
X3655681Y77502942D01*
X3655680Y77502931D01*
X3645788Y77232235D01*
X1020969Y77232235D01*
X1049597Y77449688D01*
X1051505Y77460504D01*
X1054730Y77475048D01*
X1142107Y77869184D01*
X1144952Y77879800D01*
X1270830Y78279035D01*
X1274587Y78289356D01*
X1434788Y78676117D01*
X1439430Y78686070D01*
X1632725Y79057386D01*
X1638200Y79066869D01*
X1863142Y79419956D01*
X1869414Y79428915D01*
X2124271Y79761052D01*
X2131330Y79769463D01*
X2414136Y80078091D01*
X2421909Y80085864D01*
X2423418Y80087246D01*
X2437334Y80099998D01*
X72043715Y80099998D01*
X72062783Y79942946D01*
X72062785Y79942939D01*
X72085481Y79883096D01*
X72118888Y79795009D01*
X72208764Y79664803D01*
X72327188Y79559888D01*
X72327189Y79559888D01*
X72327191Y79559886D01*
X72342642Y79551777D01*
X72467278Y79486363D01*
X72620894Y79448500D01*
X72620895Y79448500D01*
X72779105Y79448500D01*
X72779106Y79448500D01*
X72932722Y79486363D01*
X73072812Y79559888D01*
X73191236Y79664803D01*
X73281112Y79795009D01*
X73337215Y79942941D01*
X73354118Y80082147D01*
X73356285Y80099998D01*
X73356285Y80100003D01*
X73337216Y80257055D01*
X73337214Y80257062D01*
X73325411Y80288183D01*
X73281112Y80404991D01*
X73191236Y80535197D01*
X73072812Y80640112D01*
X73072811Y80640113D01*
X73072808Y80640115D01*
X72932726Y80713635D01*
X72932724Y80713636D01*
X72932722Y80713637D01*
X72932720Y80713638D01*
X72932719Y80713638D01*
X72779107Y80751500D01*
X72779106Y80751500D01*
X72620894Y80751500D01*
X72620892Y80751500D01*
X72467280Y80713638D01*
X72467273Y80713635D01*
X72327191Y80640115D01*
X72327186Y80640111D01*
X72231423Y80555271D01*
X72208764Y80535197D01*
X72118888Y80404991D01*
X72118888Y80404990D01*
X72118886Y80404987D01*
X72062785Y80257062D01*
X72062783Y80257055D01*
X72043715Y80100003D01*
X72043715Y80099998D01*
X2437334Y80099998D01*
X2730537Y80368670D01*
X2738948Y80375729D01*
X3071085Y80630586D01*
X3080044Y80636858D01*
X3433131Y80861800D01*
X3442614Y80867275D01*
X3813939Y81060575D01*
X3823883Y81065212D01*
X4210651Y81225416D01*
X4220965Y81229170D01*
X4620201Y81355049D01*
X4630818Y81357893D01*
X4638441Y81359583D01*
X5039504Y81448497D01*
X5050312Y81450403D01*
X5465350Y81505044D01*
X5476295Y81506001D01*
X5897252Y81524380D01*
X5902748Y81524500D01*
X5924531Y81524500D01*
X75375469Y81524500D01*
X75397404Y81524500D01*
X75402611Y81524392D01*
G37*
G04 #@! TD.AperFunction*
D18*
X900000Y7100000D02*
G75*
G03*
X6400000Y1600000I5500000J0D01*
G01*
X75900000Y1600000D02*
G75*
G03*
X80900000Y6600000I0J5000000D01*
G01*
X75900000Y1600000D02*
X6400000Y1600000D01*
X5900000Y81600000D02*
G75*
G03*
X900000Y76600000I0J-5000000D01*
G01*
X80900000Y76100000D02*
G75*
G03*
X75400000Y81600000I-5500000J0D01*
G01*
X5900000Y81600000D02*
X75400000Y81600000D01*
X80900000Y6600000D02*
X80900000Y76100000D01*
X900000Y76600000D02*
X900000Y7100000D01*
D19*
X10676000Y3100000D02*
G75*
G03*
X9524000Y3100000I-576000J0D01*
G01*
X9524000Y3100000D02*
G75*
G03*
X10676000Y3100000I576000J0D01*
G01*
X73276000Y80100000D02*
G75*
G03*
X72124000Y80100000I-576000J0D01*
G01*
X72124000Y80100000D02*
G75*
G03*
X73276000Y80100000I576000J0D01*
G01*
X73276000Y3100000D02*
G75*
G03*
X72124000Y3100000I-576000J0D01*
G01*
X72124000Y3100000D02*
G75*
G03*
X73276000Y3100000I576000J0D01*
G01*
M02*
