G04 #@! TF.GenerationSoftware,KiCad,Pcbnew,7.0.11*
G04 #@! TF.CreationDate,2025-11-18T22:53:00-08:00*
G04 #@! TF.ProjectId,z2203,7a323230-332e-46b6-9963-61645f706362,rev?*
G04 #@! TF.SameCoordinates,PX3d83120PY6590fa0*
G04 #@! TF.FileFunction,Legend,Bot*
G04 #@! TF.FilePolarity,Positive*
%FSLAX46Y46*%
G04 Gerber Fmt 4.6, Leading zero omitted, Abs format (unit mm)*
G04 Created by KiCad (PCBNEW 7.0.11) date 2025-11-18 22:53:00*
%MOMM*%
%LPD*%
G01*
G04 APERTURE LIST*
%ADD10C,0.150000*%
%ADD11C,0.090000*%
G04 #@! TA.AperFunction,Profile*
%ADD12C,0.150000*%
G04 #@! TD*
G04 #@! TA.AperFunction,Profile*
%ADD13C,0.050000*%
G04 #@! TD*
G04 APERTURE END LIST*
D10*
X48700000Y55900000D02*
X64100000Y55900000D01*
X64100000Y40900000D01*
X48700000Y40900000D01*
X48700000Y55900000D01*
D11*
X40820713Y15694320D02*
X41277856Y15694320D01*
X41877855Y15922892D02*
X41534998Y15922892D01*
X41706427Y15922892D02*
X41706427Y15322892D01*
X41706427Y15322892D02*
X41649284Y15408606D01*
X41649284Y15408606D02*
X41592141Y15465749D01*
X41592141Y15465749D02*
X41534998Y15494320D01*
X42106427Y15380035D02*
X42134999Y15351463D01*
X42134999Y15351463D02*
X42192142Y15322892D01*
X42192142Y15322892D02*
X42334999Y15322892D01*
X42334999Y15322892D02*
X42392142Y15351463D01*
X42392142Y15351463D02*
X42420713Y15380035D01*
X42420713Y15380035D02*
X42449284Y15437178D01*
X42449284Y15437178D02*
X42449284Y15494320D01*
X42449284Y15494320D02*
X42420713Y15580035D01*
X42420713Y15580035D02*
X42077856Y15922892D01*
X42077856Y15922892D02*
X42449284Y15922892D01*
X43620714Y15694320D02*
X44077857Y15694320D01*
X43849285Y15922892D02*
X43849285Y15465749D01*
X44677856Y15922892D02*
X44334999Y15922892D01*
X44506428Y15922892D02*
X44506428Y15322892D01*
X44506428Y15322892D02*
X44449285Y15408606D01*
X44449285Y15408606D02*
X44392142Y15465749D01*
X44392142Y15465749D02*
X44334999Y15494320D01*
X44906428Y15380035D02*
X44935000Y15351463D01*
X44935000Y15351463D02*
X44992143Y15322892D01*
X44992143Y15322892D02*
X45135000Y15322892D01*
X45135000Y15322892D02*
X45192143Y15351463D01*
X45192143Y15351463D02*
X45220714Y15380035D01*
X45220714Y15380035D02*
X45249285Y15437178D01*
X45249285Y15437178D02*
X45249285Y15494320D01*
X45249285Y15494320D02*
X45220714Y15580035D01*
X45220714Y15580035D02*
X44877857Y15922892D01*
X44877857Y15922892D02*
X45249285Y15922892D01*
X46420715Y15694320D02*
X46877858Y15694320D01*
X46649286Y15922892D02*
X46649286Y15465749D01*
X47449286Y15322892D02*
X47163572Y15322892D01*
X47163572Y15322892D02*
X47135000Y15608606D01*
X47135000Y15608606D02*
X47163572Y15580035D01*
X47163572Y15580035D02*
X47220715Y15551463D01*
X47220715Y15551463D02*
X47363572Y15551463D01*
X47363572Y15551463D02*
X47420715Y15580035D01*
X47420715Y15580035D02*
X47449286Y15608606D01*
X47449286Y15608606D02*
X47477857Y15665749D01*
X47477857Y15665749D02*
X47477857Y15808606D01*
X47477857Y15808606D02*
X47449286Y15865749D01*
X47449286Y15865749D02*
X47420715Y15894320D01*
X47420715Y15894320D02*
X47363572Y15922892D01*
X47363572Y15922892D02*
X47220715Y15922892D01*
X47220715Y15922892D02*
X47163572Y15894320D01*
X47163572Y15894320D02*
X47135000Y15865749D01*
X63564599Y55282585D02*
X63107456Y55282585D01*
X63336028Y54482585D02*
X63336028Y55282585D01*
X62840789Y54901633D02*
X62574123Y54901633D01*
X62459837Y54482585D02*
X62840789Y54482585D01*
X62840789Y54482585D02*
X62840789Y55282585D01*
X62840789Y55282585D02*
X62459837Y55282585D01*
X62155075Y54520680D02*
X62040789Y54482585D01*
X62040789Y54482585D02*
X61850313Y54482585D01*
X61850313Y54482585D02*
X61774122Y54520680D01*
X61774122Y54520680D02*
X61736027Y54558776D01*
X61736027Y54558776D02*
X61697932Y54634966D01*
X61697932Y54634966D02*
X61697932Y54711157D01*
X61697932Y54711157D02*
X61736027Y54787347D01*
X61736027Y54787347D02*
X61774122Y54825442D01*
X61774122Y54825442D02*
X61850313Y54863538D01*
X61850313Y54863538D02*
X62002694Y54901633D01*
X62002694Y54901633D02*
X62078884Y54939728D01*
X62078884Y54939728D02*
X62116979Y54977823D01*
X62116979Y54977823D02*
X62155075Y55054014D01*
X62155075Y55054014D02*
X62155075Y55130204D01*
X62155075Y55130204D02*
X62116979Y55206395D01*
X62116979Y55206395D02*
X62078884Y55244490D01*
X62078884Y55244490D02*
X62002694Y55282585D01*
X62002694Y55282585D02*
X61812217Y55282585D01*
X61812217Y55282585D02*
X61697932Y55244490D01*
X61469360Y55282585D02*
X61012217Y55282585D01*
X61240789Y54482585D02*
X61240789Y55282585D01*
X60136026Y54482585D02*
X60136026Y55282585D01*
X60136026Y55282585D02*
X59831264Y55282585D01*
X59831264Y55282585D02*
X59755074Y55244490D01*
X59755074Y55244490D02*
X59716979Y55206395D01*
X59716979Y55206395D02*
X59678883Y55130204D01*
X59678883Y55130204D02*
X59678883Y55015919D01*
X59678883Y55015919D02*
X59716979Y54939728D01*
X59716979Y54939728D02*
X59755074Y54901633D01*
X59755074Y54901633D02*
X59831264Y54863538D01*
X59831264Y54863538D02*
X60136026Y54863538D01*
X59183645Y55282585D02*
X59031264Y55282585D01*
X59031264Y55282585D02*
X58955074Y55244490D01*
X58955074Y55244490D02*
X58878883Y55168300D01*
X58878883Y55168300D02*
X58840788Y55015919D01*
X58840788Y55015919D02*
X58840788Y54749252D01*
X58840788Y54749252D02*
X58878883Y54596871D01*
X58878883Y54596871D02*
X58955074Y54520680D01*
X58955074Y54520680D02*
X59031264Y54482585D01*
X59031264Y54482585D02*
X59183645Y54482585D01*
X59183645Y54482585D02*
X59259836Y54520680D01*
X59259836Y54520680D02*
X59336026Y54596871D01*
X59336026Y54596871D02*
X59374122Y54749252D01*
X59374122Y54749252D02*
X59374122Y55015919D01*
X59374122Y55015919D02*
X59336026Y55168300D01*
X59336026Y55168300D02*
X59259836Y55244490D01*
X59259836Y55244490D02*
X59183645Y55282585D01*
X58497931Y54482585D02*
X58497931Y55282585D01*
X58116979Y54482585D02*
X58116979Y55282585D01*
X58116979Y55282585D02*
X57659836Y54482585D01*
X57659836Y54482585D02*
X57659836Y55282585D01*
X57393170Y55282585D02*
X56936027Y55282585D01*
X57164599Y54482585D02*
X57164599Y55282585D01*
X56707456Y54520680D02*
X56593170Y54482585D01*
X56593170Y54482585D02*
X56402694Y54482585D01*
X56402694Y54482585D02*
X56326503Y54520680D01*
X56326503Y54520680D02*
X56288408Y54558776D01*
X56288408Y54558776D02*
X56250313Y54634966D01*
X56250313Y54634966D02*
X56250313Y54711157D01*
X56250313Y54711157D02*
X56288408Y54787347D01*
X56288408Y54787347D02*
X56326503Y54825442D01*
X56326503Y54825442D02*
X56402694Y54863538D01*
X56402694Y54863538D02*
X56555075Y54901633D01*
X56555075Y54901633D02*
X56631265Y54939728D01*
X56631265Y54939728D02*
X56669360Y54977823D01*
X56669360Y54977823D02*
X56707456Y55054014D01*
X56707456Y55054014D02*
X56707456Y55130204D01*
X56707456Y55130204D02*
X56669360Y55206395D01*
X56669360Y55206395D02*
X56631265Y55244490D01*
X56631265Y55244490D02*
X56555075Y55282585D01*
X56555075Y55282585D02*
X56364598Y55282585D01*
X56364598Y55282585D02*
X56250313Y55244490D01*
X63564599Y53994585D02*
X63107456Y53994585D01*
X63336028Y53194585D02*
X63336028Y53994585D01*
X62840789Y53194585D02*
X62840789Y53994585D01*
X62840789Y53994585D02*
X62536027Y53994585D01*
X62536027Y53994585D02*
X62459837Y53956490D01*
X62459837Y53956490D02*
X62421742Y53918395D01*
X62421742Y53918395D02*
X62383646Y53842204D01*
X62383646Y53842204D02*
X62383646Y53727919D01*
X62383646Y53727919D02*
X62421742Y53651728D01*
X62421742Y53651728D02*
X62459837Y53613633D01*
X62459837Y53613633D02*
X62536027Y53575538D01*
X62536027Y53575538D02*
X62840789Y53575538D01*
X61621742Y53194585D02*
X62078885Y53194585D01*
X61850313Y53194585D02*
X61850313Y53994585D01*
X61850313Y53994585D02*
X61926504Y53880300D01*
X61926504Y53880300D02*
X62002694Y53804109D01*
X62002694Y53804109D02*
X62078885Y53766014D01*
X60669360Y53270776D02*
X60631265Y53232680D01*
X60631265Y53232680D02*
X60669360Y53194585D01*
X60669360Y53194585D02*
X60707456Y53232680D01*
X60707456Y53232680D02*
X60669360Y53270776D01*
X60669360Y53270776D02*
X60669360Y53194585D01*
X60669360Y53689823D02*
X60631265Y53651728D01*
X60631265Y53651728D02*
X60669360Y53613633D01*
X60669360Y53613633D02*
X60707456Y53651728D01*
X60707456Y53651728D02*
X60669360Y53689823D01*
X60669360Y53689823D02*
X60669360Y53613633D01*
X59526503Y53575538D02*
X59526503Y53194585D01*
X59793170Y53994585D02*
X59526503Y53575538D01*
X59526503Y53575538D02*
X59259837Y53994585D01*
X58993170Y53194585D02*
X58993170Y53994585D01*
X58993170Y53994585D02*
X58726504Y53423157D01*
X58726504Y53423157D02*
X58459837Y53994585D01*
X58459837Y53994585D02*
X58459837Y53194585D01*
X57469360Y53194585D02*
X57469360Y53994585D01*
X57469360Y53994585D02*
X57278884Y53994585D01*
X57278884Y53994585D02*
X57164598Y53956490D01*
X57164598Y53956490D02*
X57088408Y53880300D01*
X57088408Y53880300D02*
X57050313Y53804109D01*
X57050313Y53804109D02*
X57012217Y53651728D01*
X57012217Y53651728D02*
X57012217Y53537442D01*
X57012217Y53537442D02*
X57050313Y53385061D01*
X57050313Y53385061D02*
X57088408Y53308871D01*
X57088408Y53308871D02*
X57164598Y53232680D01*
X57164598Y53232680D02*
X57278884Y53194585D01*
X57278884Y53194585D02*
X57469360Y53194585D01*
X56250313Y53194585D02*
X56707456Y53194585D01*
X56478884Y53194585D02*
X56478884Y53994585D01*
X56478884Y53994585D02*
X56555075Y53880300D01*
X56555075Y53880300D02*
X56631265Y53804109D01*
X56631265Y53804109D02*
X56707456Y53766014D01*
X63564599Y52706585D02*
X63107456Y52706585D01*
X63336028Y51906585D02*
X63336028Y52706585D01*
X62840789Y51906585D02*
X62840789Y52706585D01*
X62840789Y52706585D02*
X62536027Y52706585D01*
X62536027Y52706585D02*
X62459837Y52668490D01*
X62459837Y52668490D02*
X62421742Y52630395D01*
X62421742Y52630395D02*
X62383646Y52554204D01*
X62383646Y52554204D02*
X62383646Y52439919D01*
X62383646Y52439919D02*
X62421742Y52363728D01*
X62421742Y52363728D02*
X62459837Y52325633D01*
X62459837Y52325633D02*
X62536027Y52287538D01*
X62536027Y52287538D02*
X62840789Y52287538D01*
X62078885Y52630395D02*
X62040789Y52668490D01*
X62040789Y52668490D02*
X61964599Y52706585D01*
X61964599Y52706585D02*
X61774123Y52706585D01*
X61774123Y52706585D02*
X61697932Y52668490D01*
X61697932Y52668490D02*
X61659837Y52630395D01*
X61659837Y52630395D02*
X61621742Y52554204D01*
X61621742Y52554204D02*
X61621742Y52478014D01*
X61621742Y52478014D02*
X61659837Y52363728D01*
X61659837Y52363728D02*
X62116980Y51906585D01*
X62116980Y51906585D02*
X61621742Y51906585D01*
X60669360Y51982776D02*
X60631265Y51944680D01*
X60631265Y51944680D02*
X60669360Y51906585D01*
X60669360Y51906585D02*
X60707456Y51944680D01*
X60707456Y51944680D02*
X60669360Y51982776D01*
X60669360Y51982776D02*
X60669360Y51906585D01*
X60669360Y52401823D02*
X60631265Y52363728D01*
X60631265Y52363728D02*
X60669360Y52325633D01*
X60669360Y52325633D02*
X60707456Y52363728D01*
X60707456Y52363728D02*
X60669360Y52401823D01*
X60669360Y52401823D02*
X60669360Y52325633D01*
X59526503Y52287538D02*
X59526503Y51906585D01*
X59793170Y52706585D02*
X59526503Y52287538D01*
X59526503Y52287538D02*
X59259837Y52706585D01*
X58993170Y51906585D02*
X58993170Y52706585D01*
X58993170Y52706585D02*
X58726504Y52135157D01*
X58726504Y52135157D02*
X58459837Y52706585D01*
X58459837Y52706585D02*
X58459837Y51906585D01*
X57012217Y51982776D02*
X57050313Y51944680D01*
X57050313Y51944680D02*
X57164598Y51906585D01*
X57164598Y51906585D02*
X57240789Y51906585D01*
X57240789Y51906585D02*
X57355075Y51944680D01*
X57355075Y51944680D02*
X57431265Y52020871D01*
X57431265Y52020871D02*
X57469360Y52097061D01*
X57469360Y52097061D02*
X57507456Y52249442D01*
X57507456Y52249442D02*
X57507456Y52363728D01*
X57507456Y52363728D02*
X57469360Y52516109D01*
X57469360Y52516109D02*
X57431265Y52592300D01*
X57431265Y52592300D02*
X57355075Y52668490D01*
X57355075Y52668490D02*
X57240789Y52706585D01*
X57240789Y52706585D02*
X57164598Y52706585D01*
X57164598Y52706585D02*
X57050313Y52668490D01*
X57050313Y52668490D02*
X57012217Y52630395D01*
X56669360Y51906585D02*
X56669360Y52706585D01*
X56669360Y52325633D02*
X56212217Y52325633D01*
X56212217Y51906585D02*
X56212217Y52706585D01*
X55869361Y52135157D02*
X55488408Y52135157D01*
X55945551Y51906585D02*
X55678884Y52706585D01*
X55678884Y52706585D02*
X55412218Y51906585D01*
X55145551Y51906585D02*
X55145551Y52706585D01*
X55145551Y52706585D02*
X54688408Y51906585D01*
X54688408Y51906585D02*
X54688408Y52706585D01*
X54307456Y51906585D02*
X54307456Y52706585D01*
X54307456Y52706585D02*
X53850313Y51906585D01*
X53850313Y51906585D02*
X53850313Y52706585D01*
X53469361Y52325633D02*
X53202695Y52325633D01*
X53088409Y51906585D02*
X53469361Y51906585D01*
X53469361Y51906585D02*
X53469361Y52706585D01*
X53469361Y52706585D02*
X53088409Y52706585D01*
X52364599Y51906585D02*
X52745551Y51906585D01*
X52745551Y51906585D02*
X52745551Y52706585D01*
X51526504Y52135157D02*
X51145551Y52135157D01*
X51602694Y51906585D02*
X51336027Y52706585D01*
X51336027Y52706585D02*
X51069361Y51906585D01*
X63564599Y51418585D02*
X63107456Y51418585D01*
X63336028Y50618585D02*
X63336028Y51418585D01*
X62840789Y50618585D02*
X62840789Y51418585D01*
X62840789Y51418585D02*
X62536027Y51418585D01*
X62536027Y51418585D02*
X62459837Y51380490D01*
X62459837Y51380490D02*
X62421742Y51342395D01*
X62421742Y51342395D02*
X62383646Y51266204D01*
X62383646Y51266204D02*
X62383646Y51151919D01*
X62383646Y51151919D02*
X62421742Y51075728D01*
X62421742Y51075728D02*
X62459837Y51037633D01*
X62459837Y51037633D02*
X62536027Y50999538D01*
X62536027Y50999538D02*
X62840789Y50999538D01*
X62116980Y51418585D02*
X61621742Y51418585D01*
X61621742Y51418585D02*
X61888408Y51113823D01*
X61888408Y51113823D02*
X61774123Y51113823D01*
X61774123Y51113823D02*
X61697932Y51075728D01*
X61697932Y51075728D02*
X61659837Y51037633D01*
X61659837Y51037633D02*
X61621742Y50961442D01*
X61621742Y50961442D02*
X61621742Y50770966D01*
X61621742Y50770966D02*
X61659837Y50694776D01*
X61659837Y50694776D02*
X61697932Y50656680D01*
X61697932Y50656680D02*
X61774123Y50618585D01*
X61774123Y50618585D02*
X62002694Y50618585D01*
X62002694Y50618585D02*
X62078885Y50656680D01*
X62078885Y50656680D02*
X62116980Y50694776D01*
X60669360Y50694776D02*
X60631265Y50656680D01*
X60631265Y50656680D02*
X60669360Y50618585D01*
X60669360Y50618585D02*
X60707456Y50656680D01*
X60707456Y50656680D02*
X60669360Y50694776D01*
X60669360Y50694776D02*
X60669360Y50618585D01*
X60669360Y51113823D02*
X60631265Y51075728D01*
X60631265Y51075728D02*
X60669360Y51037633D01*
X60669360Y51037633D02*
X60707456Y51075728D01*
X60707456Y51075728D02*
X60669360Y51113823D01*
X60669360Y51113823D02*
X60669360Y51037633D01*
X59716980Y50656680D02*
X59602694Y50618585D01*
X59602694Y50618585D02*
X59412218Y50618585D01*
X59412218Y50618585D02*
X59336027Y50656680D01*
X59336027Y50656680D02*
X59297932Y50694776D01*
X59297932Y50694776D02*
X59259837Y50770966D01*
X59259837Y50770966D02*
X59259837Y50847157D01*
X59259837Y50847157D02*
X59297932Y50923347D01*
X59297932Y50923347D02*
X59336027Y50961442D01*
X59336027Y50961442D02*
X59412218Y50999538D01*
X59412218Y50999538D02*
X59564599Y51037633D01*
X59564599Y51037633D02*
X59640789Y51075728D01*
X59640789Y51075728D02*
X59678884Y51113823D01*
X59678884Y51113823D02*
X59716980Y51190014D01*
X59716980Y51190014D02*
X59716980Y51266204D01*
X59716980Y51266204D02*
X59678884Y51342395D01*
X59678884Y51342395D02*
X59640789Y51380490D01*
X59640789Y51380490D02*
X59564599Y51418585D01*
X59564599Y51418585D02*
X59374122Y51418585D01*
X59374122Y51418585D02*
X59259837Y51380490D01*
X58916979Y50618585D02*
X58916979Y51418585D01*
X58916979Y51418585D02*
X58612217Y51418585D01*
X58612217Y51418585D02*
X58536027Y51380490D01*
X58536027Y51380490D02*
X58497932Y51342395D01*
X58497932Y51342395D02*
X58459836Y51266204D01*
X58459836Y51266204D02*
X58459836Y51151919D01*
X58459836Y51151919D02*
X58497932Y51075728D01*
X58497932Y51075728D02*
X58536027Y51037633D01*
X58536027Y51037633D02*
X58612217Y50999538D01*
X58612217Y50999538D02*
X58916979Y50999538D01*
X58116979Y50618585D02*
X58116979Y51418585D01*
X56669360Y50694776D02*
X56707456Y50656680D01*
X56707456Y50656680D02*
X56821741Y50618585D01*
X56821741Y50618585D02*
X56897932Y50618585D01*
X56897932Y50618585D02*
X57012218Y50656680D01*
X57012218Y50656680D02*
X57088408Y50732871D01*
X57088408Y50732871D02*
X57126503Y50809061D01*
X57126503Y50809061D02*
X57164599Y50961442D01*
X57164599Y50961442D02*
X57164599Y51075728D01*
X57164599Y51075728D02*
X57126503Y51228109D01*
X57126503Y51228109D02*
X57088408Y51304300D01*
X57088408Y51304300D02*
X57012218Y51380490D01*
X57012218Y51380490D02*
X56897932Y51418585D01*
X56897932Y51418585D02*
X56821741Y51418585D01*
X56821741Y51418585D02*
X56707456Y51380490D01*
X56707456Y51380490D02*
X56669360Y51342395D01*
X56364599Y50656680D02*
X56250313Y50618585D01*
X56250313Y50618585D02*
X56059837Y50618585D01*
X56059837Y50618585D02*
X55983646Y50656680D01*
X55983646Y50656680D02*
X55945551Y50694776D01*
X55945551Y50694776D02*
X55907456Y50770966D01*
X55907456Y50770966D02*
X55907456Y50847157D01*
X55907456Y50847157D02*
X55945551Y50923347D01*
X55945551Y50923347D02*
X55983646Y50961442D01*
X55983646Y50961442D02*
X56059837Y50999538D01*
X56059837Y50999538D02*
X56212218Y51037633D01*
X56212218Y51037633D02*
X56288408Y51075728D01*
X56288408Y51075728D02*
X56326503Y51113823D01*
X56326503Y51113823D02*
X56364599Y51190014D01*
X56364599Y51190014D02*
X56364599Y51266204D01*
X56364599Y51266204D02*
X56326503Y51342395D01*
X56326503Y51342395D02*
X56288408Y51380490D01*
X56288408Y51380490D02*
X56212218Y51418585D01*
X56212218Y51418585D02*
X56021741Y51418585D01*
X56021741Y51418585D02*
X55907456Y51380490D01*
X55145551Y50618585D02*
X55602694Y50618585D01*
X55374122Y50618585D02*
X55374122Y51418585D01*
X55374122Y51418585D02*
X55450313Y51304300D01*
X55450313Y51304300D02*
X55526503Y51228109D01*
X55526503Y51228109D02*
X55602694Y51190014D01*
X63564599Y50130585D02*
X63107456Y50130585D01*
X63336028Y49330585D02*
X63336028Y50130585D01*
X62840789Y49330585D02*
X62840789Y50130585D01*
X62840789Y50130585D02*
X62536027Y50130585D01*
X62536027Y50130585D02*
X62459837Y50092490D01*
X62459837Y50092490D02*
X62421742Y50054395D01*
X62421742Y50054395D02*
X62383646Y49978204D01*
X62383646Y49978204D02*
X62383646Y49863919D01*
X62383646Y49863919D02*
X62421742Y49787728D01*
X62421742Y49787728D02*
X62459837Y49749633D01*
X62459837Y49749633D02*
X62536027Y49711538D01*
X62536027Y49711538D02*
X62840789Y49711538D01*
X61697932Y49863919D02*
X61697932Y49330585D01*
X61888408Y50168680D02*
X62078885Y49597252D01*
X62078885Y49597252D02*
X61583646Y49597252D01*
X60669360Y49406776D02*
X60631265Y49368680D01*
X60631265Y49368680D02*
X60669360Y49330585D01*
X60669360Y49330585D02*
X60707456Y49368680D01*
X60707456Y49368680D02*
X60669360Y49406776D01*
X60669360Y49406776D02*
X60669360Y49330585D01*
X60669360Y49825823D02*
X60631265Y49787728D01*
X60631265Y49787728D02*
X60669360Y49749633D01*
X60669360Y49749633D02*
X60707456Y49787728D01*
X60707456Y49787728D02*
X60669360Y49825823D01*
X60669360Y49825823D02*
X60669360Y49749633D01*
X59221741Y49406776D02*
X59259837Y49368680D01*
X59259837Y49368680D02*
X59374122Y49330585D01*
X59374122Y49330585D02*
X59450313Y49330585D01*
X59450313Y49330585D02*
X59564599Y49368680D01*
X59564599Y49368680D02*
X59640789Y49444871D01*
X59640789Y49444871D02*
X59678884Y49521061D01*
X59678884Y49521061D02*
X59716980Y49673442D01*
X59716980Y49673442D02*
X59716980Y49787728D01*
X59716980Y49787728D02*
X59678884Y49940109D01*
X59678884Y49940109D02*
X59640789Y50016300D01*
X59640789Y50016300D02*
X59564599Y50092490D01*
X59564599Y50092490D02*
X59450313Y50130585D01*
X59450313Y50130585D02*
X59374122Y50130585D01*
X59374122Y50130585D02*
X59259837Y50092490D01*
X59259837Y50092490D02*
X59221741Y50054395D01*
X58497932Y49330585D02*
X58878884Y49330585D01*
X58878884Y49330585D02*
X58878884Y50130585D01*
X58231265Y49330585D02*
X58231265Y50130585D01*
X57774122Y49330585D02*
X58116980Y49787728D01*
X57774122Y50130585D02*
X58231265Y49673442D01*
X56821741Y49330585D02*
X56821741Y50130585D01*
X56821741Y50130585D02*
X56364598Y49330585D01*
X56364598Y49330585D02*
X56364598Y50130585D01*
X56021742Y49559157D02*
X55640789Y49559157D01*
X56097932Y49330585D02*
X55831265Y50130585D01*
X55831265Y50130585D02*
X55564599Y49330585D01*
X55297932Y49330585D02*
X55297932Y50130585D01*
X55297932Y50130585D02*
X54840789Y49330585D01*
X54840789Y49330585D02*
X54840789Y50130585D01*
X54459837Y49330585D02*
X54459837Y50130585D01*
X54459837Y50130585D02*
X54269361Y50130585D01*
X54269361Y50130585D02*
X54155075Y50092490D01*
X54155075Y50092490D02*
X54078885Y50016300D01*
X54078885Y50016300D02*
X54040790Y49940109D01*
X54040790Y49940109D02*
X54002694Y49787728D01*
X54002694Y49787728D02*
X54002694Y49673442D01*
X54002694Y49673442D02*
X54040790Y49521061D01*
X54040790Y49521061D02*
X54078885Y49444871D01*
X54078885Y49444871D02*
X54155075Y49368680D01*
X54155075Y49368680D02*
X54269361Y49330585D01*
X54269361Y49330585D02*
X54459837Y49330585D01*
X52593170Y49406776D02*
X52631266Y49368680D01*
X52631266Y49368680D02*
X52745551Y49330585D01*
X52745551Y49330585D02*
X52821742Y49330585D01*
X52821742Y49330585D02*
X52936028Y49368680D01*
X52936028Y49368680D02*
X53012218Y49444871D01*
X53012218Y49444871D02*
X53050313Y49521061D01*
X53050313Y49521061D02*
X53088409Y49673442D01*
X53088409Y49673442D02*
X53088409Y49787728D01*
X53088409Y49787728D02*
X53050313Y49940109D01*
X53050313Y49940109D02*
X53012218Y50016300D01*
X53012218Y50016300D02*
X52936028Y50092490D01*
X52936028Y50092490D02*
X52821742Y50130585D01*
X52821742Y50130585D02*
X52745551Y50130585D01*
X52745551Y50130585D02*
X52631266Y50092490D01*
X52631266Y50092490D02*
X52593170Y50054395D01*
X52288409Y49368680D02*
X52174123Y49330585D01*
X52174123Y49330585D02*
X51983647Y49330585D01*
X51983647Y49330585D02*
X51907456Y49368680D01*
X51907456Y49368680D02*
X51869361Y49406776D01*
X51869361Y49406776D02*
X51831266Y49482966D01*
X51831266Y49482966D02*
X51831266Y49559157D01*
X51831266Y49559157D02*
X51869361Y49635347D01*
X51869361Y49635347D02*
X51907456Y49673442D01*
X51907456Y49673442D02*
X51983647Y49711538D01*
X51983647Y49711538D02*
X52136028Y49749633D01*
X52136028Y49749633D02*
X52212218Y49787728D01*
X52212218Y49787728D02*
X52250313Y49825823D01*
X52250313Y49825823D02*
X52288409Y49902014D01*
X52288409Y49902014D02*
X52288409Y49978204D01*
X52288409Y49978204D02*
X52250313Y50054395D01*
X52250313Y50054395D02*
X52212218Y50092490D01*
X52212218Y50092490D02*
X52136028Y50130585D01*
X52136028Y50130585D02*
X51945551Y50130585D01*
X51945551Y50130585D02*
X51831266Y50092490D01*
X51069361Y49330585D02*
X51526504Y49330585D01*
X51297932Y49330585D02*
X51297932Y50130585D01*
X51297932Y50130585D02*
X51374123Y50016300D01*
X51374123Y50016300D02*
X51450313Y49940109D01*
X51450313Y49940109D02*
X51526504Y49902014D01*
X63564599Y48842585D02*
X63107456Y48842585D01*
X63336028Y48042585D02*
X63336028Y48842585D01*
X62840789Y48042585D02*
X62840789Y48842585D01*
X62840789Y48842585D02*
X62536027Y48842585D01*
X62536027Y48842585D02*
X62459837Y48804490D01*
X62459837Y48804490D02*
X62421742Y48766395D01*
X62421742Y48766395D02*
X62383646Y48690204D01*
X62383646Y48690204D02*
X62383646Y48575919D01*
X62383646Y48575919D02*
X62421742Y48499728D01*
X62421742Y48499728D02*
X62459837Y48461633D01*
X62459837Y48461633D02*
X62536027Y48423538D01*
X62536027Y48423538D02*
X62840789Y48423538D01*
X61659837Y48842585D02*
X62040789Y48842585D01*
X62040789Y48842585D02*
X62078885Y48461633D01*
X62078885Y48461633D02*
X62040789Y48499728D01*
X62040789Y48499728D02*
X61964599Y48537823D01*
X61964599Y48537823D02*
X61774123Y48537823D01*
X61774123Y48537823D02*
X61697932Y48499728D01*
X61697932Y48499728D02*
X61659837Y48461633D01*
X61659837Y48461633D02*
X61621742Y48385442D01*
X61621742Y48385442D02*
X61621742Y48194966D01*
X61621742Y48194966D02*
X61659837Y48118776D01*
X61659837Y48118776D02*
X61697932Y48080680D01*
X61697932Y48080680D02*
X61774123Y48042585D01*
X61774123Y48042585D02*
X61964599Y48042585D01*
X61964599Y48042585D02*
X62040789Y48080680D01*
X62040789Y48080680D02*
X62078885Y48118776D01*
X60669360Y48118776D02*
X60631265Y48080680D01*
X60631265Y48080680D02*
X60669360Y48042585D01*
X60669360Y48042585D02*
X60707456Y48080680D01*
X60707456Y48080680D02*
X60669360Y48118776D01*
X60669360Y48118776D02*
X60669360Y48042585D01*
X60669360Y48537823D02*
X60631265Y48499728D01*
X60631265Y48499728D02*
X60669360Y48461633D01*
X60669360Y48461633D02*
X60707456Y48499728D01*
X60707456Y48499728D02*
X60669360Y48537823D01*
X60669360Y48537823D02*
X60669360Y48461633D01*
X59755075Y48842585D02*
X59259837Y48842585D01*
X59259837Y48842585D02*
X59526503Y48537823D01*
X59526503Y48537823D02*
X59412218Y48537823D01*
X59412218Y48537823D02*
X59336027Y48499728D01*
X59336027Y48499728D02*
X59297932Y48461633D01*
X59297932Y48461633D02*
X59259837Y48385442D01*
X59259837Y48385442D02*
X59259837Y48194966D01*
X59259837Y48194966D02*
X59297932Y48118776D01*
X59297932Y48118776D02*
X59336027Y48080680D01*
X59336027Y48080680D02*
X59412218Y48042585D01*
X59412218Y48042585D02*
X59640789Y48042585D01*
X59640789Y48042585D02*
X59716980Y48080680D01*
X59716980Y48080680D02*
X59755075Y48118776D01*
X58916979Y48118776D02*
X58878884Y48080680D01*
X58878884Y48080680D02*
X58916979Y48042585D01*
X58916979Y48042585D02*
X58955075Y48080680D01*
X58955075Y48080680D02*
X58916979Y48118776D01*
X58916979Y48118776D02*
X58916979Y48042585D01*
X58155075Y48842585D02*
X58536027Y48842585D01*
X58536027Y48842585D02*
X58574123Y48461633D01*
X58574123Y48461633D02*
X58536027Y48499728D01*
X58536027Y48499728D02*
X58459837Y48537823D01*
X58459837Y48537823D02*
X58269361Y48537823D01*
X58269361Y48537823D02*
X58193170Y48499728D01*
X58193170Y48499728D02*
X58155075Y48461633D01*
X58155075Y48461633D02*
X58116980Y48385442D01*
X58116980Y48385442D02*
X58116980Y48194966D01*
X58116980Y48194966D02*
X58155075Y48118776D01*
X58155075Y48118776D02*
X58193170Y48080680D01*
X58193170Y48080680D02*
X58269361Y48042585D01*
X58269361Y48042585D02*
X58459837Y48042585D01*
X58459837Y48042585D02*
X58536027Y48080680D01*
X58536027Y48080680D02*
X58574123Y48118776D01*
X57850313Y48842585D02*
X57316979Y48842585D01*
X57316979Y48842585D02*
X57659837Y48042585D01*
X56402693Y48042585D02*
X56402693Y48842585D01*
X56402693Y48842585D02*
X56136027Y48271157D01*
X56136027Y48271157D02*
X55869360Y48842585D01*
X55869360Y48842585D02*
X55869360Y48042585D01*
X55488407Y48042585D02*
X55488407Y48842585D01*
X55488407Y48461633D02*
X55031264Y48461633D01*
X55031264Y48042585D02*
X55031264Y48842585D01*
X54726503Y48842585D02*
X54193169Y48842585D01*
X54193169Y48842585D02*
X54726503Y48042585D01*
X54726503Y48042585D02*
X54193169Y48042585D01*
X52821740Y48118776D02*
X52859836Y48080680D01*
X52859836Y48080680D02*
X52974121Y48042585D01*
X52974121Y48042585D02*
X53050312Y48042585D01*
X53050312Y48042585D02*
X53164598Y48080680D01*
X53164598Y48080680D02*
X53240788Y48156871D01*
X53240788Y48156871D02*
X53278883Y48233061D01*
X53278883Y48233061D02*
X53316979Y48385442D01*
X53316979Y48385442D02*
X53316979Y48499728D01*
X53316979Y48499728D02*
X53278883Y48652109D01*
X53278883Y48652109D02*
X53240788Y48728300D01*
X53240788Y48728300D02*
X53164598Y48804490D01*
X53164598Y48804490D02*
X53050312Y48842585D01*
X53050312Y48842585D02*
X52974121Y48842585D01*
X52974121Y48842585D02*
X52859836Y48804490D01*
X52859836Y48804490D02*
X52821740Y48766395D01*
X52097931Y48042585D02*
X52478883Y48042585D01*
X52478883Y48042585D02*
X52478883Y48842585D01*
X51831264Y48042585D02*
X51831264Y48842585D01*
X51374121Y48042585D02*
X51716979Y48499728D01*
X51374121Y48842585D02*
X51831264Y48385442D01*
X63564599Y47554585D02*
X63107456Y47554585D01*
X63336028Y46754585D02*
X63336028Y47554585D01*
X62840789Y46754585D02*
X62840789Y47554585D01*
X62840789Y47554585D02*
X62536027Y47554585D01*
X62536027Y47554585D02*
X62459837Y47516490D01*
X62459837Y47516490D02*
X62421742Y47478395D01*
X62421742Y47478395D02*
X62383646Y47402204D01*
X62383646Y47402204D02*
X62383646Y47287919D01*
X62383646Y47287919D02*
X62421742Y47211728D01*
X62421742Y47211728D02*
X62459837Y47173633D01*
X62459837Y47173633D02*
X62536027Y47135538D01*
X62536027Y47135538D02*
X62840789Y47135538D01*
X61697932Y47554585D02*
X61850313Y47554585D01*
X61850313Y47554585D02*
X61926504Y47516490D01*
X61926504Y47516490D02*
X61964599Y47478395D01*
X61964599Y47478395D02*
X62040789Y47364109D01*
X62040789Y47364109D02*
X62078885Y47211728D01*
X62078885Y47211728D02*
X62078885Y46906966D01*
X62078885Y46906966D02*
X62040789Y46830776D01*
X62040789Y46830776D02*
X62002694Y46792680D01*
X62002694Y46792680D02*
X61926504Y46754585D01*
X61926504Y46754585D02*
X61774123Y46754585D01*
X61774123Y46754585D02*
X61697932Y46792680D01*
X61697932Y46792680D02*
X61659837Y46830776D01*
X61659837Y46830776D02*
X61621742Y46906966D01*
X61621742Y46906966D02*
X61621742Y47097442D01*
X61621742Y47097442D02*
X61659837Y47173633D01*
X61659837Y47173633D02*
X61697932Y47211728D01*
X61697932Y47211728D02*
X61774123Y47249823D01*
X61774123Y47249823D02*
X61926504Y47249823D01*
X61926504Y47249823D02*
X62002694Y47211728D01*
X62002694Y47211728D02*
X62040789Y47173633D01*
X62040789Y47173633D02*
X62078885Y47097442D01*
X60669360Y46830776D02*
X60631265Y46792680D01*
X60631265Y46792680D02*
X60669360Y46754585D01*
X60669360Y46754585D02*
X60707456Y46792680D01*
X60707456Y46792680D02*
X60669360Y46830776D01*
X60669360Y46830776D02*
X60669360Y46754585D01*
X60669360Y47249823D02*
X60631265Y47211728D01*
X60631265Y47211728D02*
X60669360Y47173633D01*
X60669360Y47173633D02*
X60707456Y47211728D01*
X60707456Y47211728D02*
X60669360Y47249823D01*
X60669360Y47249823D02*
X60669360Y47173633D01*
X59526503Y47135538D02*
X59526503Y46754585D01*
X59793170Y47554585D02*
X59526503Y47135538D01*
X59526503Y47135538D02*
X59259837Y47554585D01*
X58993170Y46754585D02*
X58993170Y47554585D01*
X58993170Y47554585D02*
X58726504Y46983157D01*
X58726504Y46983157D02*
X58459837Y47554585D01*
X58459837Y47554585D02*
X58459837Y46754585D01*
X57469360Y46754585D02*
X57469360Y47554585D01*
X57469360Y47554585D02*
X57278884Y47554585D01*
X57278884Y47554585D02*
X57164598Y47516490D01*
X57164598Y47516490D02*
X57088408Y47440300D01*
X57088408Y47440300D02*
X57050313Y47364109D01*
X57050313Y47364109D02*
X57012217Y47211728D01*
X57012217Y47211728D02*
X57012217Y47097442D01*
X57012217Y47097442D02*
X57050313Y46945061D01*
X57050313Y46945061D02*
X57088408Y46868871D01*
X57088408Y46868871D02*
X57164598Y46792680D01*
X57164598Y46792680D02*
X57278884Y46754585D01*
X57278884Y46754585D02*
X57469360Y46754585D01*
X56516979Y47554585D02*
X56440789Y47554585D01*
X56440789Y47554585D02*
X56364598Y47516490D01*
X56364598Y47516490D02*
X56326503Y47478395D01*
X56326503Y47478395D02*
X56288408Y47402204D01*
X56288408Y47402204D02*
X56250313Y47249823D01*
X56250313Y47249823D02*
X56250313Y47059347D01*
X56250313Y47059347D02*
X56288408Y46906966D01*
X56288408Y46906966D02*
X56326503Y46830776D01*
X56326503Y46830776D02*
X56364598Y46792680D01*
X56364598Y46792680D02*
X56440789Y46754585D01*
X56440789Y46754585D02*
X56516979Y46754585D01*
X56516979Y46754585D02*
X56593170Y46792680D01*
X56593170Y46792680D02*
X56631265Y46830776D01*
X56631265Y46830776D02*
X56669360Y46906966D01*
X56669360Y46906966D02*
X56707456Y47059347D01*
X56707456Y47059347D02*
X56707456Y47249823D01*
X56707456Y47249823D02*
X56669360Y47402204D01*
X56669360Y47402204D02*
X56631265Y47478395D01*
X56631265Y47478395D02*
X56593170Y47516490D01*
X56593170Y47516490D02*
X56516979Y47554585D01*
X63564599Y46266585D02*
X63107456Y46266585D01*
X63336028Y45466585D02*
X63336028Y46266585D01*
X62840789Y45466585D02*
X62840789Y46266585D01*
X62840789Y46266585D02*
X62536027Y46266585D01*
X62536027Y46266585D02*
X62459837Y46228490D01*
X62459837Y46228490D02*
X62421742Y46190395D01*
X62421742Y46190395D02*
X62383646Y46114204D01*
X62383646Y46114204D02*
X62383646Y45999919D01*
X62383646Y45999919D02*
X62421742Y45923728D01*
X62421742Y45923728D02*
X62459837Y45885633D01*
X62459837Y45885633D02*
X62536027Y45847538D01*
X62536027Y45847538D02*
X62840789Y45847538D01*
X62116980Y46266585D02*
X61583646Y46266585D01*
X61583646Y46266585D02*
X61926504Y45466585D01*
X60669360Y45542776D02*
X60631265Y45504680D01*
X60631265Y45504680D02*
X60669360Y45466585D01*
X60669360Y45466585D02*
X60707456Y45504680D01*
X60707456Y45504680D02*
X60669360Y45542776D01*
X60669360Y45542776D02*
X60669360Y45466585D01*
X60669360Y45961823D02*
X60631265Y45923728D01*
X60631265Y45923728D02*
X60669360Y45885633D01*
X60669360Y45885633D02*
X60707456Y45923728D01*
X60707456Y45923728D02*
X60669360Y45961823D01*
X60669360Y45961823D02*
X60669360Y45885633D01*
X59221741Y45542776D02*
X59259837Y45504680D01*
X59259837Y45504680D02*
X59374122Y45466585D01*
X59374122Y45466585D02*
X59450313Y45466585D01*
X59450313Y45466585D02*
X59564599Y45504680D01*
X59564599Y45504680D02*
X59640789Y45580871D01*
X59640789Y45580871D02*
X59678884Y45657061D01*
X59678884Y45657061D02*
X59716980Y45809442D01*
X59716980Y45809442D02*
X59716980Y45923728D01*
X59716980Y45923728D02*
X59678884Y46076109D01*
X59678884Y46076109D02*
X59640789Y46152300D01*
X59640789Y46152300D02*
X59564599Y46228490D01*
X59564599Y46228490D02*
X59450313Y46266585D01*
X59450313Y46266585D02*
X59374122Y46266585D01*
X59374122Y46266585D02*
X59259837Y46228490D01*
X59259837Y46228490D02*
X59221741Y46190395D01*
X58497932Y45466585D02*
X58878884Y45466585D01*
X58878884Y45466585D02*
X58878884Y46266585D01*
X58231265Y45466585D02*
X58231265Y46266585D01*
X57774122Y45466585D02*
X58116980Y45923728D01*
X57774122Y46266585D02*
X58231265Y45809442D01*
X56859837Y45695157D02*
X56478884Y45695157D01*
X56936027Y45466585D02*
X56669360Y46266585D01*
X56669360Y46266585D02*
X56402694Y45466585D01*
X56136027Y45466585D02*
X56136027Y46266585D01*
X56136027Y46266585D02*
X55678884Y45466585D01*
X55678884Y45466585D02*
X55678884Y46266585D01*
X55297932Y45466585D02*
X55297932Y46266585D01*
X55297932Y46266585D02*
X55107456Y46266585D01*
X55107456Y46266585D02*
X54993170Y46228490D01*
X54993170Y46228490D02*
X54916980Y46152300D01*
X54916980Y46152300D02*
X54878885Y46076109D01*
X54878885Y46076109D02*
X54840789Y45923728D01*
X54840789Y45923728D02*
X54840789Y45809442D01*
X54840789Y45809442D02*
X54878885Y45657061D01*
X54878885Y45657061D02*
X54916980Y45580871D01*
X54916980Y45580871D02*
X54993170Y45504680D01*
X54993170Y45504680D02*
X55107456Y45466585D01*
X55107456Y45466585D02*
X55297932Y45466585D01*
X53431265Y45542776D02*
X53469361Y45504680D01*
X53469361Y45504680D02*
X53583646Y45466585D01*
X53583646Y45466585D02*
X53659837Y45466585D01*
X53659837Y45466585D02*
X53774123Y45504680D01*
X53774123Y45504680D02*
X53850313Y45580871D01*
X53850313Y45580871D02*
X53888408Y45657061D01*
X53888408Y45657061D02*
X53926504Y45809442D01*
X53926504Y45809442D02*
X53926504Y45923728D01*
X53926504Y45923728D02*
X53888408Y46076109D01*
X53888408Y46076109D02*
X53850313Y46152300D01*
X53850313Y46152300D02*
X53774123Y46228490D01*
X53774123Y46228490D02*
X53659837Y46266585D01*
X53659837Y46266585D02*
X53583646Y46266585D01*
X53583646Y46266585D02*
X53469361Y46228490D01*
X53469361Y46228490D02*
X53431265Y46190395D01*
X53126504Y45504680D02*
X53012218Y45466585D01*
X53012218Y45466585D02*
X52821742Y45466585D01*
X52821742Y45466585D02*
X52745551Y45504680D01*
X52745551Y45504680D02*
X52707456Y45542776D01*
X52707456Y45542776D02*
X52669361Y45618966D01*
X52669361Y45618966D02*
X52669361Y45695157D01*
X52669361Y45695157D02*
X52707456Y45771347D01*
X52707456Y45771347D02*
X52745551Y45809442D01*
X52745551Y45809442D02*
X52821742Y45847538D01*
X52821742Y45847538D02*
X52974123Y45885633D01*
X52974123Y45885633D02*
X53050313Y45923728D01*
X53050313Y45923728D02*
X53088408Y45961823D01*
X53088408Y45961823D02*
X53126504Y46038014D01*
X53126504Y46038014D02*
X53126504Y46114204D01*
X53126504Y46114204D02*
X53088408Y46190395D01*
X53088408Y46190395D02*
X53050313Y46228490D01*
X53050313Y46228490D02*
X52974123Y46266585D01*
X52974123Y46266585D02*
X52783646Y46266585D01*
X52783646Y46266585D02*
X52669361Y46228490D01*
X51907456Y45466585D02*
X52364599Y45466585D01*
X52136027Y45466585D02*
X52136027Y46266585D01*
X52136027Y46266585D02*
X52212218Y46152300D01*
X52212218Y46152300D02*
X52288408Y46076109D01*
X52288408Y46076109D02*
X52364599Y46038014D01*
X63564599Y44978585D02*
X63107456Y44978585D01*
X63336028Y44178585D02*
X63336028Y44978585D01*
X62840789Y44178585D02*
X62840789Y44978585D01*
X62840789Y44978585D02*
X62536027Y44978585D01*
X62536027Y44978585D02*
X62459837Y44940490D01*
X62459837Y44940490D02*
X62421742Y44902395D01*
X62421742Y44902395D02*
X62383646Y44826204D01*
X62383646Y44826204D02*
X62383646Y44711919D01*
X62383646Y44711919D02*
X62421742Y44635728D01*
X62421742Y44635728D02*
X62459837Y44597633D01*
X62459837Y44597633D02*
X62536027Y44559538D01*
X62536027Y44559538D02*
X62840789Y44559538D01*
X61926504Y44635728D02*
X62002694Y44673823D01*
X62002694Y44673823D02*
X62040789Y44711919D01*
X62040789Y44711919D02*
X62078885Y44788109D01*
X62078885Y44788109D02*
X62078885Y44826204D01*
X62078885Y44826204D02*
X62040789Y44902395D01*
X62040789Y44902395D02*
X62002694Y44940490D01*
X62002694Y44940490D02*
X61926504Y44978585D01*
X61926504Y44978585D02*
X61774123Y44978585D01*
X61774123Y44978585D02*
X61697932Y44940490D01*
X61697932Y44940490D02*
X61659837Y44902395D01*
X61659837Y44902395D02*
X61621742Y44826204D01*
X61621742Y44826204D02*
X61621742Y44788109D01*
X61621742Y44788109D02*
X61659837Y44711919D01*
X61659837Y44711919D02*
X61697932Y44673823D01*
X61697932Y44673823D02*
X61774123Y44635728D01*
X61774123Y44635728D02*
X61926504Y44635728D01*
X61926504Y44635728D02*
X62002694Y44597633D01*
X62002694Y44597633D02*
X62040789Y44559538D01*
X62040789Y44559538D02*
X62078885Y44483347D01*
X62078885Y44483347D02*
X62078885Y44330966D01*
X62078885Y44330966D02*
X62040789Y44254776D01*
X62040789Y44254776D02*
X62002694Y44216680D01*
X62002694Y44216680D02*
X61926504Y44178585D01*
X61926504Y44178585D02*
X61774123Y44178585D01*
X61774123Y44178585D02*
X61697932Y44216680D01*
X61697932Y44216680D02*
X61659837Y44254776D01*
X61659837Y44254776D02*
X61621742Y44330966D01*
X61621742Y44330966D02*
X61621742Y44483347D01*
X61621742Y44483347D02*
X61659837Y44559538D01*
X61659837Y44559538D02*
X61697932Y44597633D01*
X61697932Y44597633D02*
X61774123Y44635728D01*
X60669360Y44254776D02*
X60631265Y44216680D01*
X60631265Y44216680D02*
X60669360Y44178585D01*
X60669360Y44178585D02*
X60707456Y44216680D01*
X60707456Y44216680D02*
X60669360Y44254776D01*
X60669360Y44254776D02*
X60669360Y44178585D01*
X60669360Y44673823D02*
X60631265Y44635728D01*
X60631265Y44635728D02*
X60669360Y44597633D01*
X60669360Y44597633D02*
X60707456Y44635728D01*
X60707456Y44635728D02*
X60669360Y44673823D01*
X60669360Y44673823D02*
X60669360Y44597633D01*
X59526503Y44559538D02*
X59526503Y44178585D01*
X59793170Y44978585D02*
X59526503Y44559538D01*
X59526503Y44559538D02*
X59259837Y44978585D01*
X58993170Y44178585D02*
X58993170Y44978585D01*
X58993170Y44978585D02*
X58726504Y44407157D01*
X58726504Y44407157D02*
X58459837Y44978585D01*
X58459837Y44978585D02*
X58459837Y44178585D01*
X57507456Y44407157D02*
X57126503Y44407157D01*
X57583646Y44178585D02*
X57316979Y44978585D01*
X57316979Y44978585D02*
X57050313Y44178585D01*
X56631265Y44978585D02*
X56555075Y44978585D01*
X56555075Y44978585D02*
X56478884Y44940490D01*
X56478884Y44940490D02*
X56440789Y44902395D01*
X56440789Y44902395D02*
X56402694Y44826204D01*
X56402694Y44826204D02*
X56364599Y44673823D01*
X56364599Y44673823D02*
X56364599Y44483347D01*
X56364599Y44483347D02*
X56402694Y44330966D01*
X56402694Y44330966D02*
X56440789Y44254776D01*
X56440789Y44254776D02*
X56478884Y44216680D01*
X56478884Y44216680D02*
X56555075Y44178585D01*
X56555075Y44178585D02*
X56631265Y44178585D01*
X56631265Y44178585D02*
X56707456Y44216680D01*
X56707456Y44216680D02*
X56745551Y44254776D01*
X56745551Y44254776D02*
X56783646Y44330966D01*
X56783646Y44330966D02*
X56821742Y44483347D01*
X56821742Y44483347D02*
X56821742Y44673823D01*
X56821742Y44673823D02*
X56783646Y44826204D01*
X56783646Y44826204D02*
X56745551Y44902395D01*
X56745551Y44902395D02*
X56707456Y44940490D01*
X56707456Y44940490D02*
X56631265Y44978585D01*
X63564599Y43690585D02*
X63107456Y43690585D01*
X63336028Y42890585D02*
X63336028Y43690585D01*
X62840789Y42890585D02*
X62840789Y43690585D01*
X62840789Y43690585D02*
X62536027Y43690585D01*
X62536027Y43690585D02*
X62459837Y43652490D01*
X62459837Y43652490D02*
X62421742Y43614395D01*
X62421742Y43614395D02*
X62383646Y43538204D01*
X62383646Y43538204D02*
X62383646Y43423919D01*
X62383646Y43423919D02*
X62421742Y43347728D01*
X62421742Y43347728D02*
X62459837Y43309633D01*
X62459837Y43309633D02*
X62536027Y43271538D01*
X62536027Y43271538D02*
X62840789Y43271538D01*
X62002694Y42890585D02*
X61850313Y42890585D01*
X61850313Y42890585D02*
X61774123Y42928680D01*
X61774123Y42928680D02*
X61736027Y42966776D01*
X61736027Y42966776D02*
X61659837Y43081061D01*
X61659837Y43081061D02*
X61621742Y43233442D01*
X61621742Y43233442D02*
X61621742Y43538204D01*
X61621742Y43538204D02*
X61659837Y43614395D01*
X61659837Y43614395D02*
X61697932Y43652490D01*
X61697932Y43652490D02*
X61774123Y43690585D01*
X61774123Y43690585D02*
X61926504Y43690585D01*
X61926504Y43690585D02*
X62002694Y43652490D01*
X62002694Y43652490D02*
X62040789Y43614395D01*
X62040789Y43614395D02*
X62078885Y43538204D01*
X62078885Y43538204D02*
X62078885Y43347728D01*
X62078885Y43347728D02*
X62040789Y43271538D01*
X62040789Y43271538D02*
X62002694Y43233442D01*
X62002694Y43233442D02*
X61926504Y43195347D01*
X61926504Y43195347D02*
X61774123Y43195347D01*
X61774123Y43195347D02*
X61697932Y43233442D01*
X61697932Y43233442D02*
X61659837Y43271538D01*
X61659837Y43271538D02*
X61621742Y43347728D01*
X60669360Y42966776D02*
X60631265Y42928680D01*
X60631265Y42928680D02*
X60669360Y42890585D01*
X60669360Y42890585D02*
X60707456Y42928680D01*
X60707456Y42928680D02*
X60669360Y42966776D01*
X60669360Y42966776D02*
X60669360Y42890585D01*
X60669360Y43385823D02*
X60631265Y43347728D01*
X60631265Y43347728D02*
X60669360Y43309633D01*
X60669360Y43309633D02*
X60707456Y43347728D01*
X60707456Y43347728D02*
X60669360Y43385823D01*
X60669360Y43385823D02*
X60669360Y43309633D01*
X59107456Y42928680D02*
X58993170Y42890585D01*
X58993170Y42890585D02*
X58802694Y42890585D01*
X58802694Y42890585D02*
X58726503Y42928680D01*
X58726503Y42928680D02*
X58688408Y42966776D01*
X58688408Y42966776D02*
X58650313Y43042966D01*
X58650313Y43042966D02*
X58650313Y43119157D01*
X58650313Y43119157D02*
X58688408Y43195347D01*
X58688408Y43195347D02*
X58726503Y43233442D01*
X58726503Y43233442D02*
X58802694Y43271538D01*
X58802694Y43271538D02*
X58955075Y43309633D01*
X58955075Y43309633D02*
X59031265Y43347728D01*
X59031265Y43347728D02*
X59069360Y43385823D01*
X59069360Y43385823D02*
X59107456Y43462014D01*
X59107456Y43462014D02*
X59107456Y43538204D01*
X59107456Y43538204D02*
X59069360Y43614395D01*
X59069360Y43614395D02*
X59031265Y43652490D01*
X59031265Y43652490D02*
X58955075Y43690585D01*
X58955075Y43690585D02*
X58764598Y43690585D01*
X58764598Y43690585D02*
X58650313Y43652490D01*
X58307455Y42890585D02*
X58307455Y43690585D01*
X58307455Y43690585D02*
X58002693Y43690585D01*
X58002693Y43690585D02*
X57926503Y43652490D01*
X57926503Y43652490D02*
X57888408Y43614395D01*
X57888408Y43614395D02*
X57850312Y43538204D01*
X57850312Y43538204D02*
X57850312Y43423919D01*
X57850312Y43423919D02*
X57888408Y43347728D01*
X57888408Y43347728D02*
X57926503Y43309633D01*
X57926503Y43309633D02*
X58002693Y43271538D01*
X58002693Y43271538D02*
X58307455Y43271538D01*
X57507455Y42890585D02*
X57507455Y43690585D01*
X56059836Y42966776D02*
X56097932Y42928680D01*
X56097932Y42928680D02*
X56212217Y42890585D01*
X56212217Y42890585D02*
X56288408Y42890585D01*
X56288408Y42890585D02*
X56402694Y42928680D01*
X56402694Y42928680D02*
X56478884Y43004871D01*
X56478884Y43004871D02*
X56516979Y43081061D01*
X56516979Y43081061D02*
X56555075Y43233442D01*
X56555075Y43233442D02*
X56555075Y43347728D01*
X56555075Y43347728D02*
X56516979Y43500109D01*
X56516979Y43500109D02*
X56478884Y43576300D01*
X56478884Y43576300D02*
X56402694Y43652490D01*
X56402694Y43652490D02*
X56288408Y43690585D01*
X56288408Y43690585D02*
X56212217Y43690585D01*
X56212217Y43690585D02*
X56097932Y43652490D01*
X56097932Y43652490D02*
X56059836Y43614395D01*
X55755075Y42928680D02*
X55640789Y42890585D01*
X55640789Y42890585D02*
X55450313Y42890585D01*
X55450313Y42890585D02*
X55374122Y42928680D01*
X55374122Y42928680D02*
X55336027Y42966776D01*
X55336027Y42966776D02*
X55297932Y43042966D01*
X55297932Y43042966D02*
X55297932Y43119157D01*
X55297932Y43119157D02*
X55336027Y43195347D01*
X55336027Y43195347D02*
X55374122Y43233442D01*
X55374122Y43233442D02*
X55450313Y43271538D01*
X55450313Y43271538D02*
X55602694Y43309633D01*
X55602694Y43309633D02*
X55678884Y43347728D01*
X55678884Y43347728D02*
X55716979Y43385823D01*
X55716979Y43385823D02*
X55755075Y43462014D01*
X55755075Y43462014D02*
X55755075Y43538204D01*
X55755075Y43538204D02*
X55716979Y43614395D01*
X55716979Y43614395D02*
X55678884Y43652490D01*
X55678884Y43652490D02*
X55602694Y43690585D01*
X55602694Y43690585D02*
X55412217Y43690585D01*
X55412217Y43690585D02*
X55297932Y43652490D01*
X54802693Y43690585D02*
X54726503Y43690585D01*
X54726503Y43690585D02*
X54650312Y43652490D01*
X54650312Y43652490D02*
X54612217Y43614395D01*
X54612217Y43614395D02*
X54574122Y43538204D01*
X54574122Y43538204D02*
X54536027Y43385823D01*
X54536027Y43385823D02*
X54536027Y43195347D01*
X54536027Y43195347D02*
X54574122Y43042966D01*
X54574122Y43042966D02*
X54612217Y42966776D01*
X54612217Y42966776D02*
X54650312Y42928680D01*
X54650312Y42928680D02*
X54726503Y42890585D01*
X54726503Y42890585D02*
X54802693Y42890585D01*
X54802693Y42890585D02*
X54878884Y42928680D01*
X54878884Y42928680D02*
X54916979Y42966776D01*
X54916979Y42966776D02*
X54955074Y43042966D01*
X54955074Y43042966D02*
X54993170Y43195347D01*
X54993170Y43195347D02*
X54993170Y43385823D01*
X54993170Y43385823D02*
X54955074Y43538204D01*
X54955074Y43538204D02*
X54916979Y43614395D01*
X54916979Y43614395D02*
X54878884Y43652490D01*
X54878884Y43652490D02*
X54802693Y43690585D01*
X53050312Y42814395D02*
X53126502Y42852490D01*
X53126502Y42852490D02*
X53202693Y42928680D01*
X53202693Y42928680D02*
X53316979Y43042966D01*
X53316979Y43042966D02*
X53393169Y43081061D01*
X53393169Y43081061D02*
X53469360Y43081061D01*
X53431264Y42890585D02*
X53507455Y42928680D01*
X53507455Y42928680D02*
X53583645Y43004871D01*
X53583645Y43004871D02*
X53621741Y43157252D01*
X53621741Y43157252D02*
X53621741Y43423919D01*
X53621741Y43423919D02*
X53583645Y43576300D01*
X53583645Y43576300D02*
X53507455Y43652490D01*
X53507455Y43652490D02*
X53431264Y43690585D01*
X53431264Y43690585D02*
X53278883Y43690585D01*
X53278883Y43690585D02*
X53202693Y43652490D01*
X53202693Y43652490D02*
X53126502Y43576300D01*
X53126502Y43576300D02*
X53088407Y43423919D01*
X53088407Y43423919D02*
X53088407Y43157252D01*
X53088407Y43157252D02*
X53126502Y43004871D01*
X53126502Y43004871D02*
X53202693Y42928680D01*
X53202693Y42928680D02*
X53278883Y42890585D01*
X53278883Y42890585D02*
X53431264Y42890585D01*
X52478884Y43309633D02*
X52364598Y43271538D01*
X52364598Y43271538D02*
X52326503Y43233442D01*
X52326503Y43233442D02*
X52288407Y43157252D01*
X52288407Y43157252D02*
X52288407Y43042966D01*
X52288407Y43042966D02*
X52326503Y42966776D01*
X52326503Y42966776D02*
X52364598Y42928680D01*
X52364598Y42928680D02*
X52440788Y42890585D01*
X52440788Y42890585D02*
X52745550Y42890585D01*
X52745550Y42890585D02*
X52745550Y43690585D01*
X52745550Y43690585D02*
X52478884Y43690585D01*
X52478884Y43690585D02*
X52402693Y43652490D01*
X52402693Y43652490D02*
X52364598Y43614395D01*
X52364598Y43614395D02*
X52326503Y43538204D01*
X52326503Y43538204D02*
X52326503Y43462014D01*
X52326503Y43462014D02*
X52364598Y43385823D01*
X52364598Y43385823D02*
X52402693Y43347728D01*
X52402693Y43347728D02*
X52478884Y43309633D01*
X52478884Y43309633D02*
X52745550Y43309633D01*
X63564599Y42402585D02*
X63107456Y42402585D01*
X63336028Y41602585D02*
X63336028Y42402585D01*
X62840789Y41602585D02*
X62840789Y42402585D01*
X62840789Y42402585D02*
X62536027Y42402585D01*
X62536027Y42402585D02*
X62459837Y42364490D01*
X62459837Y42364490D02*
X62421742Y42326395D01*
X62421742Y42326395D02*
X62383646Y42250204D01*
X62383646Y42250204D02*
X62383646Y42135919D01*
X62383646Y42135919D02*
X62421742Y42059728D01*
X62421742Y42059728D02*
X62459837Y42021633D01*
X62459837Y42021633D02*
X62536027Y41983538D01*
X62536027Y41983538D02*
X62840789Y41983538D01*
X61621742Y41602585D02*
X62078885Y41602585D01*
X61850313Y41602585D02*
X61850313Y42402585D01*
X61850313Y42402585D02*
X61926504Y42288300D01*
X61926504Y42288300D02*
X62002694Y42212109D01*
X62002694Y42212109D02*
X62078885Y42174014D01*
X61126503Y42402585D02*
X61050313Y42402585D01*
X61050313Y42402585D02*
X60974122Y42364490D01*
X60974122Y42364490D02*
X60936027Y42326395D01*
X60936027Y42326395D02*
X60897932Y42250204D01*
X60897932Y42250204D02*
X60859837Y42097823D01*
X60859837Y42097823D02*
X60859837Y41907347D01*
X60859837Y41907347D02*
X60897932Y41754966D01*
X60897932Y41754966D02*
X60936027Y41678776D01*
X60936027Y41678776D02*
X60974122Y41640680D01*
X60974122Y41640680D02*
X61050313Y41602585D01*
X61050313Y41602585D02*
X61126503Y41602585D01*
X61126503Y41602585D02*
X61202694Y41640680D01*
X61202694Y41640680D02*
X61240789Y41678776D01*
X61240789Y41678776D02*
X61278884Y41754966D01*
X61278884Y41754966D02*
X61316980Y41907347D01*
X61316980Y41907347D02*
X61316980Y42097823D01*
X61316980Y42097823D02*
X61278884Y42250204D01*
X61278884Y42250204D02*
X61240789Y42326395D01*
X61240789Y42326395D02*
X61202694Y42364490D01*
X61202694Y42364490D02*
X61126503Y42402585D01*
X59907455Y41678776D02*
X59869360Y41640680D01*
X59869360Y41640680D02*
X59907455Y41602585D01*
X59907455Y41602585D02*
X59945551Y41640680D01*
X59945551Y41640680D02*
X59907455Y41678776D01*
X59907455Y41678776D02*
X59907455Y41602585D01*
X59907455Y42097823D02*
X59869360Y42059728D01*
X59869360Y42059728D02*
X59907455Y42021633D01*
X59907455Y42021633D02*
X59945551Y42059728D01*
X59945551Y42059728D02*
X59907455Y42097823D01*
X59907455Y42097823D02*
X59907455Y42021633D01*
X58955075Y41640680D02*
X58840789Y41602585D01*
X58840789Y41602585D02*
X58650313Y41602585D01*
X58650313Y41602585D02*
X58574122Y41640680D01*
X58574122Y41640680D02*
X58536027Y41678776D01*
X58536027Y41678776D02*
X58497932Y41754966D01*
X58497932Y41754966D02*
X58497932Y41831157D01*
X58497932Y41831157D02*
X58536027Y41907347D01*
X58536027Y41907347D02*
X58574122Y41945442D01*
X58574122Y41945442D02*
X58650313Y41983538D01*
X58650313Y41983538D02*
X58802694Y42021633D01*
X58802694Y42021633D02*
X58878884Y42059728D01*
X58878884Y42059728D02*
X58916979Y42097823D01*
X58916979Y42097823D02*
X58955075Y42174014D01*
X58955075Y42174014D02*
X58955075Y42250204D01*
X58955075Y42250204D02*
X58916979Y42326395D01*
X58916979Y42326395D02*
X58878884Y42364490D01*
X58878884Y42364490D02*
X58802694Y42402585D01*
X58802694Y42402585D02*
X58612217Y42402585D01*
X58612217Y42402585D02*
X58497932Y42364490D01*
X58155074Y41602585D02*
X58155074Y42402585D01*
X58155074Y42402585D02*
X57850312Y42402585D01*
X57850312Y42402585D02*
X57774122Y42364490D01*
X57774122Y42364490D02*
X57736027Y42326395D01*
X57736027Y42326395D02*
X57697931Y42250204D01*
X57697931Y42250204D02*
X57697931Y42135919D01*
X57697931Y42135919D02*
X57736027Y42059728D01*
X57736027Y42059728D02*
X57774122Y42021633D01*
X57774122Y42021633D02*
X57850312Y41983538D01*
X57850312Y41983538D02*
X58155074Y41983538D01*
X57355074Y41602585D02*
X57355074Y42402585D01*
X56364598Y41602585D02*
X56364598Y42402585D01*
X56364598Y42402585D02*
X56097932Y41831157D01*
X56097932Y41831157D02*
X55831265Y42402585D01*
X55831265Y42402585D02*
X55831265Y41602585D01*
X55297931Y42402585D02*
X55145550Y42402585D01*
X55145550Y42402585D02*
X55069360Y42364490D01*
X55069360Y42364490D02*
X54993169Y42288300D01*
X54993169Y42288300D02*
X54955074Y42135919D01*
X54955074Y42135919D02*
X54955074Y41869252D01*
X54955074Y41869252D02*
X54993169Y41716871D01*
X54993169Y41716871D02*
X55069360Y41640680D01*
X55069360Y41640680D02*
X55145550Y41602585D01*
X55145550Y41602585D02*
X55297931Y41602585D01*
X55297931Y41602585D02*
X55374122Y41640680D01*
X55374122Y41640680D02*
X55450312Y41716871D01*
X55450312Y41716871D02*
X55488408Y41869252D01*
X55488408Y41869252D02*
X55488408Y42135919D01*
X55488408Y42135919D02*
X55450312Y42288300D01*
X55450312Y42288300D02*
X55374122Y42364490D01*
X55374122Y42364490D02*
X55297931Y42402585D01*
X54650313Y41640680D02*
X54536027Y41602585D01*
X54536027Y41602585D02*
X54345551Y41602585D01*
X54345551Y41602585D02*
X54269360Y41640680D01*
X54269360Y41640680D02*
X54231265Y41678776D01*
X54231265Y41678776D02*
X54193170Y41754966D01*
X54193170Y41754966D02*
X54193170Y41831157D01*
X54193170Y41831157D02*
X54231265Y41907347D01*
X54231265Y41907347D02*
X54269360Y41945442D01*
X54269360Y41945442D02*
X54345551Y41983538D01*
X54345551Y41983538D02*
X54497932Y42021633D01*
X54497932Y42021633D02*
X54574122Y42059728D01*
X54574122Y42059728D02*
X54612217Y42097823D01*
X54612217Y42097823D02*
X54650313Y42174014D01*
X54650313Y42174014D02*
X54650313Y42250204D01*
X54650313Y42250204D02*
X54612217Y42326395D01*
X54612217Y42326395D02*
X54574122Y42364490D01*
X54574122Y42364490D02*
X54497932Y42402585D01*
X54497932Y42402585D02*
X54307455Y42402585D01*
X54307455Y42402585D02*
X54193170Y42364490D01*
X53850312Y41602585D02*
X53850312Y42402585D01*
X68357142Y76098538D02*
X68414285Y76127109D01*
X68414285Y76127109D02*
X68499999Y76127109D01*
X68499999Y76127109D02*
X68585713Y76098538D01*
X68585713Y76098538D02*
X68642856Y76041395D01*
X68642856Y76041395D02*
X68671427Y75984252D01*
X68671427Y75984252D02*
X68699999Y75869966D01*
X68699999Y75869966D02*
X68699999Y75784252D01*
X68699999Y75784252D02*
X68671427Y75669966D01*
X68671427Y75669966D02*
X68642856Y75612823D01*
X68642856Y75612823D02*
X68585713Y75555680D01*
X68585713Y75555680D02*
X68499999Y75527109D01*
X68499999Y75527109D02*
X68442856Y75527109D01*
X68442856Y75527109D02*
X68357142Y75555680D01*
X68357142Y75555680D02*
X68328570Y75584252D01*
X68328570Y75584252D02*
X68328570Y75784252D01*
X68328570Y75784252D02*
X68442856Y75784252D01*
X68071427Y75527109D02*
X68071427Y76127109D01*
X68071427Y76127109D02*
X67728570Y75527109D01*
X67728570Y75527109D02*
X67728570Y76127109D01*
X67442856Y75527109D02*
X67442856Y76127109D01*
X67442856Y76127109D02*
X67299999Y76127109D01*
X67299999Y76127109D02*
X67214285Y76098538D01*
X67214285Y76098538D02*
X67157142Y76041395D01*
X67157142Y76041395D02*
X67128571Y75984252D01*
X67128571Y75984252D02*
X67099999Y75869966D01*
X67099999Y75869966D02*
X67099999Y75784252D01*
X67099999Y75784252D02*
X67128571Y75669966D01*
X67128571Y75669966D02*
X67157142Y75612823D01*
X67157142Y75612823D02*
X67214285Y75555680D01*
X67214285Y75555680D02*
X67299999Y75527109D01*
X67299999Y75527109D02*
X67442856Y75527109D01*
X14062108Y10478571D02*
X13662108Y10478571D01*
X14290680Y10335714D02*
X13862108Y10192857D01*
X13862108Y10192857D02*
X13862108Y10564286D01*
X14262108Y10907143D02*
X14262108Y10964286D01*
X14262108Y10964286D02*
X14233537Y11021429D01*
X14233537Y11021429D02*
X14204965Y11050000D01*
X14204965Y11050000D02*
X14147822Y11078572D01*
X14147822Y11078572D02*
X14033537Y11107143D01*
X14033537Y11107143D02*
X13890680Y11107143D01*
X13890680Y11107143D02*
X13776394Y11078572D01*
X13776394Y11078572D02*
X13719251Y11050000D01*
X13719251Y11050000D02*
X13690680Y11021429D01*
X13690680Y11021429D02*
X13662108Y10964286D01*
X13662108Y10964286D02*
X13662108Y10907143D01*
X13662108Y10907143D02*
X13690680Y10850000D01*
X13690680Y10850000D02*
X13719251Y10821429D01*
X13719251Y10821429D02*
X13776394Y10792858D01*
X13776394Y10792858D02*
X13890680Y10764286D01*
X13890680Y10764286D02*
X14033537Y10764286D01*
X14033537Y10764286D02*
X14147822Y10792858D01*
X14147822Y10792858D02*
X14204965Y10821429D01*
X14204965Y10821429D02*
X14233537Y10850000D01*
X14233537Y10850000D02*
X14262108Y10907143D01*
D10*
X65865181Y16705716D02*
X65865181Y16134288D01*
X65865181Y16420002D02*
X66865181Y16420002D01*
X66865181Y16420002D02*
X66722324Y16324764D01*
X66722324Y16324764D02*
X66627086Y16229526D01*
X66627086Y16229526D02*
X66579467Y16134288D01*
D12*
X900000Y7100000D02*
G75*
G03*
X6400000Y1600000I5500000J0D01*
G01*
X75900000Y1600000D02*
G75*
G03*
X80900000Y6600000I0J5000000D01*
G01*
X75900000Y1600000D02*
X6400000Y1600000D01*
X5900000Y81600000D02*
G75*
G03*
X900000Y76600000I0J-5000000D01*
G01*
X80900000Y76100000D02*
G75*
G03*
X75400000Y81600000I-5500000J0D01*
G01*
X5900000Y81600000D02*
X75400000Y81600000D01*
X80900000Y6600000D02*
X80900000Y76100000D01*
X900000Y76600000D02*
X900000Y7100000D01*
D13*
X10676000Y3100000D02*
G75*
G03*
X9524000Y3100000I-576000J0D01*
G01*
X9524000Y3100000D02*
G75*
G03*
X10676000Y3100000I576000J0D01*
G01*
X73276000Y80100000D02*
G75*
G03*
X72124000Y80100000I-576000J0D01*
G01*
X72124000Y80100000D02*
G75*
G03*
X73276000Y80100000I576000J0D01*
G01*
X73276000Y3100000D02*
G75*
G03*
X72124000Y3100000I-576000J0D01*
G01*
X72124000Y3100000D02*
G75*
G03*
X73276000Y3100000I576000J0D01*
G01*
M02*
