<?xml version="1.0" encoding="UTF-8" standalone="no"?>
<!-- Created with Inkscape (http://www.inkscape.org/) -->

<svg
   width="91.440002mm"
   height="128.5mm"
   viewBox="0 0 91.440004 128.5"
   version="1.1"
   id="svg1199"
   inkscape:version="1.1.2 (0a00cf5339, 2022-02-04)"
   sodipodi:docname="AudioOut.svg"
   xmlns:inkscape="http://www.inkscape.org/namespaces/inkscape"
   xmlns:sodipodi="http://sodipodi.sourceforge.net/DTD/sodipodi-0.dtd"
   xmlns="http://www.w3.org/2000/svg"
   xmlns:svg="http://www.w3.org/2000/svg">
  <sodipodi:namedview
     id="namedview1201"
     pagecolor="#ffffff"
     bordercolor="#666666"
     borderopacity="1.0"
     inkscape:pageshadow="2"
     inkscape:pageopacity="0.0"
     inkscape:pagecheckerboard="0"
     inkscape:document-units="mm"
     showgrid="false"
     inkscape:zoom="1.1029914"
     inkscape:cx="-125.1143"
     inkscape:cy="155.03294"
     inkscape:window-width="1375"
     inkscape:window-height="707"
     inkscape:window-x="39"
     inkscape:window-y="198"
     inkscape:window-maximized="0"
     inkscape:current-layer="layer2"
     inkscape:snap-nodes="false" />
  <defs
     id="defs1196">
    <marker
       style="overflow:visible"
       id="marker2980"
       refX="0"
       refY="0"
       orient="auto"
       inkscape:stockid="Arrow1Lstart"
       inkscape:isstock="true">
      <path
         transform="matrix(0.8,0,0,0.8,10,0)"
         style="fill:context-stroke;fill-rule:evenodd;stroke:context-stroke;stroke-width:1pt"
         d="M 0,0 5,-5 -12.5,0 5,5 Z"
         id="path2719" />
    </marker>
    <marker
       style="overflow:visible"
       id="Arrow1Lend"
       refX="0"
       refY="0"
       orient="auto"
       inkscape:stockid="Arrow1Lend"
       inkscape:isstock="true">
      <path
         transform="matrix(-0.8,0,0,-0.8,-10,0)"
         style="fill:context-stroke;fill-rule:evenodd;stroke:context-stroke;stroke-width:1pt"
         d="M 0,0 5,-5 -12.5,0 5,5 Z"
         id="path6358" />
    </marker>
    <marker
       style="overflow:visible"
       id="marker6625"
       refX="0"
       refY="0"
       orient="auto"
       inkscape:stockid="Arrow1Lstart"
       inkscape:isstock="true">
      <path
         transform="matrix(0.8,0,0,0.8,10,0)"
         style="fill:context-stroke;fill-rule:evenodd;stroke:context-stroke;stroke-width:1pt"
         d="M 0,0 5,-5 -12.5,0 5,5 Z"
         id="path6623" />
    </marker>
    <marker
       style="overflow:visible"
       id="Arrow1Lstart"
       refX="0"
       refY="0"
       orient="auto"
       inkscape:stockid="Arrow1Lstart"
       inkscape:isstock="true">
      <path
         transform="matrix(0.8,0,0,0.8,10,0)"
         style="fill:context-stroke;fill-rule:evenodd;stroke:context-stroke;stroke-width:1pt"
         d="M 0,0 5,-5 -12.5,0 5,5 Z"
         id="path6355" />
    </marker>
    <marker
       style="overflow:visible"
       id="Arrow1Lend-5"
       refX="0"
       refY="0"
       orient="auto"
       inkscape:stockid="Arrow1Lend"
       inkscape:isstock="true">
      <path
         transform="matrix(-0.8,0,0,-0.8,-10,0)"
         style="fill:context-stroke;fill-rule:evenodd;stroke:context-stroke;stroke-width:1pt"
         d="M 0,0 5,-5 -12.5,0 5,5 Z"
         id="path6358-6" />
    </marker>
    <marker
       style="overflow:visible"
       id="Arrow1Lend-1"
       refX="0"
       refY="0"
       orient="auto"
       inkscape:stockid="Arrow1Lend"
       inkscape:isstock="true">
      <path
         transform="matrix(-0.8,0,0,-0.8,-10,0)"
         style="fill:context-stroke;fill-rule:evenodd;stroke:context-stroke;stroke-width:1pt"
         d="M 0,0 5,-5 -12.5,0 5,5 Z"
         id="path6358-4" />
    </marker>
    <inkscape:path-effect
       effect="fillet_chamfer"
       id="path-effect143"
       is_visible="true"
       lpeversion="1"
       satellites_param="F,0,0,1,0,2.6458333,0,2 @ F,0,0,1,0,2.6458333,0,2 @ F,0,0,1,0,2.6458333,0,2 @ F,0,0,1,0,2.6458333,0,2"
       unit="px"
       method="auto"
       mode="F"
       radius="10"
       chamfer_steps="1"
       flexible="false"
       use_knot_distance="true"
       apply_no_radius="true"
       apply_with_radius="true"
       only_selected="false"
       hide_knots="false"
       nodesatellites_param="F,0,0,1,0,2.6458333,0,2 @ F,0,0,1,0,2.6458333,0,2 @ F,0,0,1,0,2.6458333,0,2 @ F,0,0,1,0,2.6458333,0,2" />
    <inkscape:path-effect
       effect="fillet_chamfer"
       id="path-effect145"
       is_visible="true"
       lpeversion="1"
       satellites_param="F,0,0,1,0,2.6458333,0,1 @ F,0,0,1,0,2.6458333,0,1 @ F,0,0,1,0,2.6458333,0,1 @ F,0,0,1,0,2.6458333,0,1"
       unit="px"
       method="auto"
       mode="F"
       radius="10"
       chamfer_steps="1"
       flexible="false"
       use_knot_distance="true"
       apply_no_radius="true"
       apply_with_radius="true"
       only_selected="false"
       hide_knots="false"
       nodesatellites_param="F,0,0,1,0,2.6458333,0,1 @ F,0,0,1,0,2.6458333,0,1 @ F,0,0,1,0,2.6458333,0,1 @ F,0,0,1,0,2.6458333,0,1" />
    <inkscape:path-effect
       effect="fillet_chamfer"
       id="path-effect147"
       is_visible="true"
       lpeversion="1"
       satellites_param="F,0,0,1,0,2.6458333,0,1 @ F,0,0,1,0,2.6458333,0,1 @ F,0,0,1,0,2.6458333,0,1 @ F,0,0,1,0,2.6458333,0,1"
       unit="px"
       method="auto"
       mode="F"
       radius="10"
       chamfer_steps="1"
       flexible="false"
       use_knot_distance="true"
       apply_no_radius="true"
       apply_with_radius="true"
       only_selected="false"
       hide_knots="false"
       nodesatellites_param="F,0,0,1,0,2.6458333,0,1 @ F,0,0,1,0,2.6458333,0,1 @ F,0,0,1,0,2.6458333,0,1 @ F,0,0,1,0,2.6458333,0,1" />
  </defs>
  <g
     inkscape:groupmode="layer"
     id="layer3"
     inkscape:label="background"
     style="display:inline">
    <g
       id="rect297"
       style="display:inline;fill:#f2f2f2;fill-opacity:1;stroke:none;stroke-opacity:1"
       transform="matrix(1.2257842,0,0,1.021367,-1.5283604,-1.8543754)">
      <path
         style="color:#000000;fill:#f2f2f2;fill-opacity:1;stroke:none;stroke-width:0.222;stroke-opacity:1;-inkscape-stroke:none;paint-order:markers fill stroke"
         d="M -0.27284041,-0.03116083 H 76.953066 V 129.29092 H -0.27284041 Z"
         id="path32372" />
      <path
         style="color:#000000;fill:#f2f2f2;fill-opacity:1;stroke:none;stroke-opacity:1;-inkscape-stroke:none;paint-order:markers fill stroke"
         d="M -0.38476563,-0.14257812 V -0.03125 129.40234 H 77.064453 V -0.14257812 Z m 0.22265626,0.22265624 H 76.841797 V 129.17969 H -0.16210937 Z"
         id="path32374" />
    </g>
    <path
       style="display:inline;fill:#c7b89b;fill-opacity:1;stroke:#980000;stroke-width:0.158;stroke-dasharray:none"
       id="rect1316-8"
       width="21.390471"
       height="59.447601"
       x="62.977753"
       y="9.5532417"
       inkscape:path-effect="#path-effect145"
       sodipodi:type="rect"
       d="M 65.623586,9.5532417 H 81.72239 a 2.6458333,2.6458333 45 0 1 2.645833,2.6458333 V 66.35501 A 2.6458333,2.6458333 135 0 1 81.72239,69.000843 H 65.623586 A 2.6458333,2.6458333 45 0 1 62.977753,66.35501 V 12.199075 a 2.6458333,2.6458333 135 0 1 2.645833,-2.6458333 z" />
    <path
       style="display:inline;fill:#ada9b9;fill-opacity:1;stroke:#980000;stroke-width:0.158;stroke-dasharray:none"
       id="rect1316-8-9"
       width="21.339611"
       height="50.32679"
       x="63.003181"
       y="72.773422"
       inkscape:path-effect="#path-effect147"
       sodipodi:type="rect"
       d="m 65.649015,72.773422 h 16.047944 a 2.6458333,2.6458333 45 0 1 2.645834,2.645834 v 45.035124 a 2.6458333,2.6458333 135 0 1 -2.645834,2.64583 H 65.649015 a 2.6458333,2.6458333 45 0 1 -2.645834,-2.64583 V 75.419256 a 2.6458333,2.6458333 135 0 1 2.645834,-2.645834 z" />
    <path
       style="display:inline;fill:#cc9696;fill-opacity:1;stroke:#980000;stroke-width:0.158;stroke-dasharray:none"
       id="rect1316"
       width="52.247833"
       height="97.279121"
       x="5.0554166"
       y="25.313124"
       inkscape:path-effect="#path-effect143"
       sodipodi:type="rect"
       d="M 7.7012499,25.313124 H 54.657417 a 2.6458333,2.6458333 45 0 1 2.645833,2.645833 v 91.987453 a 2.6458333,2.6458333 135 0 1 -2.645833,2.64584 H 7.7012499 A 2.6458333,2.6458333 45 0 1 5.0554166,119.94641 V 27.958957 a 2.6458333,2.6458333 135 0 1 2.6458333,-2.645833 z" />
  </g>
  <g
     inkscape:groupmode="layer"
     id="layer2"
     inkscape:label="layout"
     style="display:inline">
    <g
       id="path1674">
      <path
         style="color:#000000;fill:#b1b1b1;stroke-width:0.264583;-inkscape-stroke:none"
         d="m 6.5637428,27.901876 a 0.05502102,0.05502102 0 0 1 -0.055021,0.05502 0.05502102,0.05502102 0 0 1 -0.055021,-0.05502 0.05502102,0.05502102 0 0 1 0.055021,-0.05502 0.05502102,0.05502102 0 0 1 0.055021,0.05502 z"
         id="path1358" />
      <path
         style="color:#000000;fill:#980000;-inkscape-stroke:none"
         d="m 6.5078125,27.714844 c -0.1018815,0 -0.185545,0.08562 -0.1855469,0.1875 1.9e-6,0.101881 0.083665,0.1875 0.1855469,0.1875 0.1018815,0 0.1874981,-0.08562 0.1875,-0.1875 -1.9e-6,-0.101882 -0.085618,-0.1875 -0.1875,-0.1875 z m 0,0.109375 c 0.041108,0 0.078124,0.03702 0.078125,0.07813 -8e-7,0.04111 -0.037017,0.07617 -0.078125,0.07617 -0.041108,0 -0.076171,-0.03506 -0.076172,-0.07617 8e-7,-0.04111 0.035064,-0.07813 0.076172,-0.07813 z"
         id="path1360" />
    </g>
    <g
       aria-label="OUTPUT SELECT"
       id="text2294"
       style="font-weight:bold;font-size:2.82222px;line-height:1.25;-inkscape-font-specification:'sans-serif, Bold';stroke-width:0.264583">
      <path
         d="m 7.37836,27.859846 q -0.2425345,0 -0.3762041,0.179145 -0.1336696,0.179145 -0.1336696,0.504361 0,0.323839 0.1336696,0.502984 0.1336696,0.179145 0.3762041,0.179145 0.2439126,0 0.3775822,-0.179145 0.1336696,-0.179145 0.1336696,-0.502984 0,-0.325216 -0.1336696,-0.504361 Q 7.6222726,27.859846 7.37836,27.859846 Z m 0,-0.384472 q 0.4960934,0 0.777213,0.283875 0.2811195,0.283876 0.2811195,0.784103 0,0.49885 -0.2811195,0.782726 -0.2811196,0.283875 -0.777213,0.283875 -0.4947153,0 -0.777213,-0.283875 -0.2811195,-0.283876 -0.2811195,-0.782726 0,-0.500227 0.2811195,-0.784103 0.2824977,-0.283875 0.777213,-0.283875 z"
         id="path1132" />
      <path
         d="m 8.8377014,27.512581 h 0.5305443 v 1.233343 q 0,0.254937 0.082682,0.36518 0.08406,0.108865 0.2728513,0.108865 0.1901691,0 0.2728514,-0.108865 0.08406,-0.110243 0.08406,-0.36518 v -1.233343 h 0.530544 v 1.233343 q 0,0.436838 -0.219108,0.650433 -0.219108,0.213596 -0.6683461,0.213596 -0.4478621,0 -0.66697,-0.213596 Q 8.837702,29.182762 8.837702,28.745924 Z"
         id="path1134" />
      <path
         d="m 10.884087,27.512581 h 1.896179 v 0.401009 h -0.682128 v 1.6564 h -0.530545 v -1.6564 h -0.683506 z"
         id="path1136" />
      <path
         d="m 13.054495,27.512581 h 0.880566 q 0.39274,0 0.602202,0.17501 0.21084,0.173633 0.21084,0.496094 0,0.323839 -0.21084,0.498849 -0.209462,0.173633 -0.602202,0.173633 h -0.350022 v 0.713823 h -0.530544 z m 0.530544,0.384472 v 0.574642 h 0.293522 q 0.15434,0 0.238401,-0.07441 0.08406,-0.07579 0.08406,-0.213596 0,-0.137804 -0.08406,-0.212218 -0.08406,-0.07441 -0.238401,-0.07441 z"
         id="path1138" />
      <path
         d="m 15.122929,27.512581 h 0.530544 v 1.233343 q 0,0.254937 0.08268,0.36518 0.08406,0.108865 0.272852,0.108865 0.190169,0 0.272851,-0.108865 0.08406,-0.110243 0.08406,-0.36518 v -1.233343 h 0.530545 v 1.233343 q 0,0.436838 -0.219108,0.650433 -0.219108,0.213596 -0.668348,0.213596 -0.447862,0 -0.66697,-0.213596 -0.219108,-0.213595 -0.219108,-0.650433 z"
         id="path1140" />
      <path
         d="m 17.169314,27.512581 h 1.896179 v 0.401009 h -0.682129 v 1.6564 H 17.85282 v -1.6564 h -0.683506 z"
         id="path1142" />
      <path
         d="m 21.754043,27.577348 v 0.43546 q -0.169498,-0.07579 -0.330728,-0.114377 -0.161231,-0.03858 -0.304547,-0.03858 -0.190169,0 -0.281119,0.05236 -0.09095,0.05237 -0.09095,0.162609 0,0.08268 0.06063,0.129535 0.06201,0.04548 0.223242,0.07855 l 0.225998,0.04548 q 0.343131,0.0689 0.487825,0.209461 0.144694,0.14056 0.144694,0.399631 0,0.340375 -0.202571,0.507118 -0.201194,0.165364 -0.615983,0.165364 -0.195681,0 -0.392741,-0.03721 -0.197059,-0.03721 -0.394118,-0.110243 v -0.447862 q 0.197059,0.104731 0.380338,0.158474 0.184657,0.05237 0.355534,0.05237 0.173632,0 0.265961,-0.05788 0.09233,-0.05788 0.09233,-0.165364 0,-0.09646 -0.06339,-0.148828 -0.06201,-0.05237 -0.249425,-0.09371 l -0.205328,-0.04547 q -0.30868,-0.06615 -0.451996,-0.21084 -0.141938,-0.144693 -0.141938,-0.389984 0,-0.307302 0.198438,-0.472667 0.198437,-0.165364 0.570507,-0.165364 0.169499,0 0.348643,0.02618 0.179145,0.02481 0.370692,0.07579 z"
         id="path1144" />
      <path
         d="m 22.354868,27.512581 h 1.431781 v 0.401009 h -0.901237 v 0.383094 h 0.847493 v 0.401009 h -0.847493 v 0.471288 h 0.931553 v 0.401009 h -1.462097 z"
         id="path1146" />
      <path
         d="m 24.282743,27.512581 h 0.530544 v 1.6564 h 0.931553 v 0.401009 h -1.462097 z"
         id="path1148" />
      <path
         d="m 26.081081,27.512581 h 1.43178 v 0.401009 h -0.901236 v 0.383094 h 0.847493 v 0.401009 h -0.847493 v 0.471288 h 0.931553 v 0.401009 h -1.462097 z"
         id="path1150" />
      <path
         d="m 29.64055,29.456991 q -0.146072,0.07579 -0.304546,0.114377 -0.158474,0.03859 -0.330729,0.03859 -0.514008,0 -0.81442,-0.286631 -0.300412,-0.28801 -0.300412,-0.77997 0,-0.493337 0.300412,-0.779969 0.300412,-0.288009 0.81442,-0.288009 0.172255,0 0.330729,0.03859 0.158474,0.03859 0.304546,0.114377 v 0.425813 q -0.14745,-0.100596 -0.290766,-0.14745 -0.143316,-0.04685 -0.30179,-0.04685 -0.283875,0 -0.446484,0.181901 -0.162608,0.181901 -0.162608,0.501605 0,0.318327 0.162608,0.500228 0.162609,0.181901 0.446484,0.181901 0.158474,0 0.30179,-0.04685 0.143316,-0.04685 0.290766,-0.14745 z"
         id="path1152" />
      <path
         d="m 29.834853,27.512581 h 1.89618 v 0.401009 h -0.682129 v 1.6564 H 30.51836 v -1.6564 h -0.683507 z"
         id="path1154" />
    </g>
    <g
       aria-label="OUT1"
       id="text2294-6"
       style="font-weight:bold;font-size:2.82222px;line-height:1.25;-inkscape-font-specification:'sans-serif, Bold';stroke-width:0.264583">
      <path
         d="m 37.589693,27.835043 q -0.242535,0 -0.376204,0.179145 -0.13367,0.179145 -0.13367,0.504361 0,0.323839 0.13367,0.502984 0.133669,0.179145 0.376204,0.179145 0.243912,0 0.377582,-0.179145 0.13367,-0.179145 0.13367,-0.502984 0,-0.325216 -0.13367,-0.504361 -0.13367,-0.179145 -0.377582,-0.179145 z m 0,-0.384472 q 0.496093,0 0.777213,0.283875 0.281119,0.283876 0.281119,0.784103 0,0.49885 -0.281119,0.782725 -0.28112,0.283876 -0.777213,0.283876 -0.494716,0 -0.777213,-0.283876 -0.28112,-0.283875 -0.28112,-0.782725 0,-0.500227 0.28112,-0.784103 0.282497,-0.283875 0.777213,-0.283875 z"
         id="path1123" />
      <path
         d="m 39.049034,27.487778 h 0.530545 v 1.233343 q 0,0.254937 0.08268,0.36518 0.08406,0.108865 0.272851,0.108865 0.190169,0 0.272851,-0.108865 0.08406,-0.110243 0.08406,-0.36518 v -1.233343 h 0.530544 v 1.233343 q 0,0.436838 -0.219108,0.650433 -0.219108,0.213596 -0.668348,0.213596 -0.447862,0 -0.66697,-0.213596 -0.219108,-0.213595 -0.219108,-0.650433 z"
         id="path1125" />
      <path
         d="m 41.09542,27.487778 h 1.896179 v 0.401008 H 42.30947 v 1.656401 H 41.778926 V 27.888786 H 41.09542 Z"
         id="path1127" />
      <path
         d="m 43.337486,29.178629 h 0.468532 v -1.329806 l -0.480935,0.09922 v -0.361046 l 0.478179,-0.09922 h 0.504362 v 1.690851 h 0.468532 v 0.366558 h -1.43867 z"
         id="path1129" />
    </g>
    <g
       aria-label="LEFT"
       id="text2294-6-4"
       style="font-weight:bold;font-size:2.82222px;line-height:1.25;-inkscape-font-specification:'sans-serif, Bold';display:inline;stroke-width:0.264583">
      <path
         d="m 71.397796,28.882047 h 0.530545 v 1.656401 h 0.931553 v 0.401009 h -1.462098 z"
         id="path1114" />
      <path
         d="m 73.196135,28.882047 h 1.43178 v 0.401009 h -0.901236 v 0.383095 h 0.847493 v 0.401008 h -0.847493 v 0.471289 h 0.931553 v 0.401009 h -1.462097 z"
         id="path1116" />
      <path
         d="m 75.124009,28.882047 h 1.43178 v 0.401009 h -0.901236 v 0.383095 h 0.847493 v 0.401008 h -0.847493 v 0.872298 h -0.530544 z"
         id="path1118" />
      <path
         d="m 76.806592,28.882047 h 1.896179 v 0.401009 h -0.682128 v 1.656401 h -0.530544 v -1.656401 h -0.683507 z"
         id="path1120" />
    </g>
    <g
       aria-label="RIGHT"
       id="text2294-6-4-3"
       style="font-weight:bold;font-size:2.82222px;line-height:1.25;-inkscape-font-specification:'sans-serif, Bold';display:inline;stroke-width:0.264583">
      <path
         d="m 71.002291,76.162613 q 0.166742,0 0.2384,-0.06201 0.07304,-0.06201 0.07304,-0.20395 0,-0.14056 -0.07304,-0.201193 -0.07166,-0.06063 -0.2384,-0.06063 h -0.223242 v 0.527788 z m -0.223242,0.366558 v 0.778591 h -0.530545 v -2.057409 h 0.810286 q 0.406521,0 0.595312,0.136425 0.190169,0.136426 0.190169,0.431326 0,0.203949 -0.09922,0.334863 -0.09784,0.130914 -0.296278,0.192925 0.108865,0.02481 0.194303,0.112999 0.08682,0.08682 0.175011,0.264583 l 0.288009,0.584288 H 71.541103 L 71.2903,76.79651 q -0.07579,-0.15434 -0.15434,-0.210839 -0.07717,-0.0565 -0.206705,-0.0565 z"
         id="path1103" />
      <path
         d="m 72.421669,75.250353 h 0.530544 v 2.057409 h -0.530544 z"
         id="path1105" />
      <path
         d="m 75.321059,77.1548 q -0.198437,0.09646 -0.412033,0.144694 -0.213596,0.04823 -0.440972,0.04823 -0.514008,0 -0.81442,-0.286632 -0.300412,-0.288009 -0.300412,-0.779969 0,-0.497471 0.305924,-0.782725 0.305925,-0.285253 0.837847,-0.285253 0.205327,0 0.39274,0.03859 0.188792,0.03858 0.355534,0.114377 v 0.425813 q -0.172255,-0.09784 -0.343131,-0.146072 -0.169499,-0.04823 -0.340375,-0.04823 -0.316949,0 -0.489204,0.177767 -0.170876,0.176389 -0.170876,0.505739 0,0.326595 0.165364,0.504362 0.165365,0.177767 0.469911,0.177767 0.08268,0 0.152962,-0.0096 0.07166,-0.01103 0.128158,-0.03307 v -0.399631 h -0.323839 v -0.355534 h 0.826822 z"
         id="path1107" />
      <path
         d="m 75.788213,75.250353 h 0.530545 v 0.784103 h 0.782725 v -0.784103 h 0.530544 v 2.057409 h -0.530544 v -0.872297 h -0.782725 v 0.872297 h -0.530545 z"
         id="path1109" />
      <path
         d="m 77.904878,75.250353 h 1.89618 v 0.401008 h -0.682129 v 1.656401 h -0.530544 v -1.656401 h -0.683507 z"
         id="path1111" />
    </g>
    <g
       aria-label="OUT2"
       id="text2294-0"
       style="font-weight:bold;font-size:2.82222px;line-height:1.25;-inkscape-font-specification:'sans-serif, Bold';stroke-width:0.264583">
      <path
         d="m 49.077455,27.835043 q -0.242534,0 -0.376204,0.179145 -0.133669,0.179145 -0.133669,0.504361 0,0.323839 0.133669,0.502984 0.13367,0.179145 0.376204,0.179145 0.243913,0 0.377582,-0.179145 0.13367,-0.179145 0.13367,-0.502984 0,-0.325216 -0.13367,-0.504361 -0.133669,-0.179145 -0.377582,-0.179145 z m 0,-0.384472 q 0.496094,0 0.777213,0.283875 0.28112,0.283876 0.28112,0.784103 0,0.49885 -0.28112,0.782725 -0.281119,0.283876 -0.777213,0.283876 -0.494715,0 -0.777213,-0.283876 -0.281119,-0.283875 -0.281119,-0.782725 0,-0.500227 0.281119,-0.784103 0.282498,-0.283875 0.777213,-0.283875 z"
         id="path1094" />
      <path
         d="m 50.536797,27.487778 h 0.530544 v 1.233343 q 0,0.254937 0.08268,0.36518 0.08406,0.108865 0.272852,0.108865 0.190169,0 0.272851,-0.108865 0.08406,-0.110243 0.08406,-0.36518 v -1.233343 h 0.530544 v 1.233343 q 0,0.436838 -0.219107,0.650433 -0.219108,0.213596 -0.668348,0.213596 -0.447863,0 -0.66697,-0.213596 -0.219108,-0.213595 -0.219108,-0.650433 z"
         id="path1096" />
      <path
         d="m 52.583182,27.487778 h 1.896179 v 0.401008 h -0.682128 v 1.656401 h -0.530544 v -1.656401 h -0.683507 z"
         id="path1098" />
      <path
         d="m 55.307561,29.155202 h 0.905371 v 0.389985 h -1.495171 v -0.389985 l 0.751031,-0.662835 q 0.100596,-0.09095 0.148828,-0.177767 0.04823,-0.08682 0.04823,-0.180523 0,-0.144694 -0.09784,-0.232888 -0.09646,-0.08819 -0.257693,-0.08819 -0.124023,0 -0.271473,0.05374 -0.14745,0.05236 -0.315571,0.157096 v -0.451996 q 0.179145,-0.05926 0.354156,-0.08957 0.175011,-0.03169 0.343131,-0.03169 0.369314,0 0.573264,0.162608 0.205327,0.162608 0.205327,0.453374 0,0.168121 -0.08682,0.314193 -0.08682,0.144694 -0.36518,0.388606 z"
         id="path1100" />
    </g>
    <g
       id="path6726">
      <path
         style="color:#000000;fill:#000000;-inkscape-stroke:none"
         d="M 71.693359,17.298828 V 17.5625 h 2.423828 v 6.800781 h 0.265625 v -7.064453 z"
         id="path1512" />
      <g
         id="g1502">
        <g
           id="path1504">
          <path
             style="color:#000000;fill:#000000;fill-rule:evenodd;stroke-width:0.211666pt;-inkscape-stroke:none"
             d="m 74.250213,21.718046 -1.058332,-1.058332 1.058332,3.704162 1.058332,-3.704162 z"
             id="path1508" />
          <path
             style="color:#000000;fill:#000000;fill-rule:evenodd;-inkscape-stroke:none"
             d="M 72.90625,20.175781 74.25,24.876953 75.59375,20.175781 74.25,21.519531 Z M 75.025391,21.142578 74.25,23.849609 73.478516,21.146484 74.25,21.917969 l 0.09961,-0.09961 z"
             id="path1510" />
        </g>
      </g>
    </g>
    <g
       id="path6726-3">
      <path
         style="color:#000000;fill:#000000;-inkscape-stroke:none"
         d="m 74.246094,110.62109 v 7.03125 H 71.4375 v 0.26368 h 3.072266 v -7.29493 z"
         id="path1498" />
      <g
         id="g1488">
        <g
           id="path1490">
          <path
             style="color:#000000;fill:#000000;fill-rule:evenodd;stroke-width:0.211666pt;-inkscape-stroke:none"
             d="m 74.377513,113.26753 1.058332,1.05833 -1.058332,-3.70416 -1.058332,3.70416 z"
             id="path1494" />
          <path
             style="color:#000000;fill:#000000;fill-rule:evenodd;-inkscape-stroke:none"
             d="m 74.376953,110.10742 -1.34375,4.70313 1.34375,-1.34375 1.34375,1.34375 z m 0.002,1.02735 0.773438,2.70898 -0.775391,-0.77539 -0.09961,0.0996 -0.671875,0.67187 z"
             id="path1496" />
        </g>
      </g>
    </g>
    <g
       id="path7426">
      <path
         style="color:#000000;fill:#000000;-inkscape-stroke:none"
         d="m 40.095703,34.609375 v 87.039065 h 21.791016 v -0.26563 H 40.359375 V 34.609375 Z"
         id="path1484" />
      <g
         id="g1474">
        <g
           id="path1476">
          <path
             style="color:#000000;fill:#000000;fill-rule:evenodd;stroke-width:0.211666pt;-inkscape-stroke:none"
             d="m 59.241233,121.51541 -1.058332,1.05833 3.704162,-1.05833 -3.704162,-1.05833 z"
             id="path1480" />
          <path
             style="color:#000000;fill:#000000;fill-rule:evenodd;-inkscape-stroke:none"
             d="m 57.697266,120.17188 1.34375,1.34375 -1.34375,1.34375 4.703125,-1.34375 z m 0.96875,0.56835 2.707031,0.7754 -2.703125,0.77148 0.771484,-0.77148 -0.09961,-0.0996 z"
             id="path1482" />
        </g>
      </g>
    </g>
    <g
       id="path7428">
      <path
         style="color:#000000;fill:#000000;-inkscape-stroke:none"
         d="m 40.246094,13.072266 v 11.902343 h 0.263672 V 13.335938 h 21.376953 v -0.263672 z"
         id="path1470" />
      <g
         id="g1460">
        <g
           id="path1462">
          <path
             style="color:#000000;fill:#000000;fill-rule:evenodd;stroke-width:0.211666pt;-inkscape-stroke:none"
             d="m 59.241233,13.204509 -1.058332,1.058332 3.704162,-1.058332 -3.704162,-1.058332 z"
             id="path1466" />
          <path
             style="color:#000000;fill:#000000;fill-rule:evenodd;-inkscape-stroke:none"
             d="m 57.697266,11.861328 1.34375,1.34375 -1.34375,1.34375 4.703125,-1.34375 z m 0.96875,0.56836 2.707031,0.773437 -2.703125,0.773438 0.771484,-0.771485 -0.09961,-0.09961 z"
             id="path1468" />
        </g>
      </g>
    </g>
    <g
       id="path7430">
      <path
         style="color:#000000;fill:#000000;-inkscape-stroke:none"
         d="m 51.535156,20.253906 v 4.035156 h 0.263672 v -3.771484 h 10.087891 v -0.263672 z"
         id="path1456" />
      <g
         id="g1446">
        <g
           id="path1448">
          <path
             style="color:#000000;fill:#000000;fill-rule:evenodd;stroke-width:0.211666pt;-inkscape-stroke:none"
             d="m 59.241233,20.38617 -1.058332,1.058332 3.704162,-1.058332 -3.704162,-1.058332 z"
             id="path1452" />
          <path
             style="color:#000000;fill:#000000;fill-rule:evenodd;-inkscape-stroke:none"
             d="m 57.697266,19.042969 1.34375,1.34375 -1.34375,1.34375 4.703125,-1.34375 z m 0.96875,0.568359 2.707031,0.775391 -2.703125,0.771484 0.771484,-0.771484 -0.09961,-0.09961 z"
             id="path1454" />
        </g>
      </g>
    </g>
    <g
       id="path7432">
      <path
         style="color:#000000;fill:#000000;-inkscape-stroke:none"
         d="m 51.691406,34.75 v 78.63477 h 10.195313 v -0.26563 H 51.955078 V 34.75 Z"
         id="path1442" />
      <g
         id="g1432">
        <g
           id="path1434">
          <path
             style="color:#000000;fill:#000000;fill-rule:evenodd;stroke-width:0.211666pt;-inkscape-stroke:none"
             d="m 59.241233,113.25171 -1.058332,1.05833 3.704162,-1.05833 -3.704162,-1.05833 z"
             id="path1438" />
          <path
             style="color:#000000;fill:#000000;fill-rule:evenodd;-inkscape-stroke:none"
             d="m 57.697266,111.9082 1.34375,1.34375 -1.34375,1.34375 4.703125,-1.34375 z m 0.96875,0.56836 2.707031,0.77344 -2.703125,0.77344 0.771484,-0.77149 -0.09961,-0.0996 z"
             id="path1440" />
        </g>
      </g>
    </g>
    <g
       aria-label="AUDIO OUT"
       id="text23912-0"
       style="font-size:5.24991px;font-family:'.Keyboard';-inkscape-font-specification:'.Keyboard, Normal';stroke-width:0.131248"
       transform="matrix(0.84971203,0,0,0.84971203,4.2733466,0.45672516)">
      <path
         d="m 56.085396,3.6183359 -0.702381,1.9046304 h 1.407324 z M 55.793164,3.1082128 h 0.587026 l 1.458593,3.8272049 h -0.53832 L 56.951836,5.953623 h -1.72519 l -0.348627,0.9817947 h -0.546011 z"
         id="path1077" />
      <path
         d="m 58.338653,3.1082128 h 0.520376 v 2.3250334 q 0,0.6152238 0.223019,0.8869476 0.223019,0.2691605 0.722888,0.2691605 0.497306,0 0.720325,-0.2691605 Q 60.748279,6.04847 60.748279,5.4332462 V 3.1082128 h 0.520377 V 5.497332 q 0,0.7485223 -0.371698,1.1304737 -0.369134,0.3819515 -1.092022,0.3819515 -0.725451,0 -1.097149,-0.3819515 Q 58.338653,6.2458543 58.338653,5.497332 Z"
         id="path1079" />
      <path
         d="m 62.75801,3.5337426 v 2.9761452 h 0.625478 q 0.792101,0 1.158671,-0.3588805 0.369135,-0.3588806 0.369135,-1.1330372 0,-0.7690298 -0.369135,-1.1253469 -0.36657,-0.3588806 -1.158671,-0.3588806 z M 62.240197,3.1082128 h 1.063824 q 1.11253,0 1.632907,0.4639813 0.520377,0.4614179 0.520377,1.445776 0,0.989485 -0.52294,1.4534663 -0.522941,0.4639813 -1.630344,0.4639813 h -1.063824 z"
         id="path1081" />
      <path
         d="m 66.28273,3.1082128 h 0.517813 V 6.9354177 H 66.28273 Z"
         id="path1083" />
      <path
         d="m 69.384483,3.4594031 q -0.563955,0 -0.897201,0.4204029 -0.330683,0.420403 -0.330683,1.1458544 0,0.722888 0.330683,1.1432909 0.333246,0.420403 0.897201,0.420403 0.563955,0 0.892075,-0.420403 0.330682,-0.4204029 0.330682,-1.1432909 0,-0.7254514 -0.330682,-1.1458544 -0.32812,-0.4204029 -0.892075,-0.4204029 z m 0,-0.4204029 q 0.804918,0 1.286843,0.5408842 0.481926,0.5383209 0.481926,1.445776 0,0.9048917 -0.481926,1.445776 -0.481925,0.5383208 -1.286843,0.5383208 -0.807481,0 -1.29197,-0.5383208 -0.481925,-0.5383209 -0.481925,-1.445776 0,-0.9074551 0.481925,-1.445776 0.484489,-0.5408842 1.29197,-0.5408842 z"
         id="path1085" />
      <path
         d="m 75.18553,3.4594031 q -0.563955,0 -0.897201,0.4204029 -0.330683,0.420403 -0.330683,1.1458544 0,0.722888 0.330683,1.1432909 0.333246,0.420403 0.897201,0.420403 0.563956,0 0.892075,-0.420403 0.330683,-0.4204029 0.330683,-1.1432909 0,-0.7254514 -0.330683,-1.1458544 Q 75.749486,3.4594031 75.18553,3.4594031 Z m 0,-0.4204029 q 0.804918,0 1.286844,0.5408842 0.481925,0.5383209 0.481925,1.445776 0,0.9048917 -0.481925,1.445776 -0.481926,0.5383208 -1.286844,0.5383208 -0.807481,0 -1.29197,-0.5383208 -0.481925,-0.5383209 -0.481925,-1.445776 0,-0.9074551 0.481925,-1.445776 0.484489,-0.5408842 1.29197,-0.5408842 z"
         id="path1087" />
      <path
         d="m 77.705385,3.1082128 h 0.520377 v 2.3250334 q 0,0.6152238 0.223018,0.8869476 0.223019,0.2691605 0.722888,0.2691605 0.497306,0 0.720325,-0.2691605 Q 80.115012,6.04847 80.115012,5.4332462 V 3.1082128 h 0.520376 V 5.497332 q 0,0.7485223 -0.371697,1.1304737 -0.369135,0.3819515 -1.092023,0.3819515 -0.725451,0 -1.097149,-0.3819515 Q 77.705385,6.2458543 77.705385,5.497332 Z"
         id="path1089" />
      <path
         d="m 81.076298,3.1082128 h 3.237615 V 3.5439964 H 82.955294 V 6.9354177 H 82.434917 V 3.5439964 h -1.358619 z"
         id="path1091" />
    </g>
    <path
       style="color:#000000;fill:#110000;stroke-width:0.849975;-inkscape-stroke:none"
       d="m 36.942757,3.0527344 -1.328086,0.066404 -0.0332,3.129304 -1.123892,0.01494 -2.123279,-3.129304 -1.208559,0.00996 0.04482,3.0745204 -2.280988,-0.049803 -0.0083,-3.0180766 -1.303185,0.026562 0.01,2.7690604 -2.146488,-2.8089029 -0.01826,3.0396581 -1.107291,0.016601 -2.053554,-3.0861412 -1.158756,0.038183 0.06142,3.1525454 -2.30091,0.018261 0.0332,-3.1890679 -1.152115,0.021582 -2.221224,3.0496188 0.09131,0.064744 2.188024,-3.0031358 0.982784,-0.018261 -0.03487,3.1857477 2.528344,-0.018261 -0.06142,-3.1558664 0.986105,-0.033203 2.053553,3.0861412 1.276624,-0.019921 0.0166,-2.822184 2.148181,2.8122233 -0.01,-2.989855 1.080731,-0.021581 0.0083,3.0130963 2.505104,0.054784 -0.04482,-3.0778406 1.037569,-0.0083 2.123277,3.129304 1.293225,-0.018261 0.0332,-3.1326241 1.108952,-0.054784 0.111228,3.2322306 h 2.516724 l -0.122848,-3.1840875 1.175357,-0.0083 0.05147,3.1957083 2.136559,-0.029882 0.05147,-3.1807673 1.273302,0.0083 1.8394,3.2123094 0.09629,-0.054784 -1.870942,-3.268753 -1.447614,-0.00996 -0.05147,3.1840876 -1.917426,0.026562 -0.05147,-3.1940482 -1.40113,0.00996 0.122848,3.1807674 -2.29261,0.00166 z"
       id="path22502" />
    <g
       aria-label="ZOXNOXIOUS: BEYOND OBNOXIOUS"
       id="text23912-2"
       style="font-size:2.11667px;line-height:1.25;font-family:'.Keyboard';-inkscape-font-specification:'.Keyboard, Normal';display:inline;stroke-width:0.131248">
      <path
         d="m 27.040039,124.25091 h 1.212331 v 0.15916 l -0.975653,1.2082 h 0.999424 v 0.1757 h -1.259874 v -0.15917 l 0.975653,-1.20819 h -0.951881 z"
         id="path1024" />
      <path
         d="m 29.205284,124.3925 q -0.227376,0 -0.361735,0.1695 -0.133326,0.1695 -0.133326,0.46199 0,0.29145 0.133326,0.46095 0.134359,0.1695 0.361735,0.1695 0.227377,0 0.359669,-0.1695 0.133325,-0.1695 0.133325,-0.46095 0,-0.29249 -0.133325,-0.46199 -0.132292,-0.1695 -0.359669,-0.1695 z m 0,-0.1695 q 0.324529,0 0.518833,0.21808 0.194303,0.21704 0.194303,0.58291 0,0.36483 -0.194303,0.58291 -0.194304,0.21704 -0.518833,0.21704 -0.325562,0 -0.520899,-0.21704 -0.194304,-0.21704 -0.194304,-0.58291 0,-0.36587 0.194304,-0.58291 0.195337,-0.21808 0.520899,-0.21808 z"
         id="path1026" />
      <path
         d="m 30.035209,124.25091 h 0.224276 l 0.38344,0.57361 0.385507,-0.57361 h 0.224276 l -0.496095,0.74104 0.529168,0.80202 h -0.224276 l -0.434083,-0.65629 -0.437183,0.65629 h -0.22531 l 0.550872,-0.82373 z"
         id="path1028" />
      <path
         d="m 31.559666,124.25091 h 0.281121 l 0.684197,1.29088 v -1.29088 h 0.202572 v 1.54306 h -0.281121 l -0.684197,-1.29088 v 1.29088 h -0.202572 z"
         id="path1030" />
      <path
         d="m 33.769354,124.3925 q -0.227377,0 -0.361736,0.1695 -0.133325,0.1695 -0.133325,0.46199 0,0.29145 0.133325,0.46095 0.134359,0.1695 0.361736,0.1695 0.227377,0 0.359669,-0.1695 0.133325,-0.1695 0.133325,-0.46095 0,-0.29249 -0.133325,-0.46199 -0.132292,-0.1695 -0.359669,-0.1695 z m 0,-0.1695 q 0.324528,0 0.518832,0.21808 0.194304,0.21704 0.194304,0.58291 0,0.36483 -0.194304,0.58291 -0.194304,0.21704 -0.518832,0.21704 -0.325562,0 -0.520899,-0.21704 -0.194304,-0.21704 -0.194304,-0.58291 0,-0.36587 0.194304,-0.58291 0.195337,-0.21808 0.520899,-0.21808 z"
         id="path1032" />
      <path
         d="m 34.599278,124.25091 h 0.224276 l 0.38344,0.57361 0.385507,-0.57361 h 0.224276 l -0.496095,0.74104 0.529168,0.80202 h -0.224276 l -0.434083,-0.65629 -0.437183,0.65629 h -0.22531 l 0.550872,-0.82373 z"
         id="path1034" />
      <path
         d="m 36.123735,124.25091 h 0.208773 v 1.54306 h -0.208773 z"
         id="path1036" />
      <path
         d="m 37.374307,124.3925 q -0.227377,0 -0.361736,0.1695 -0.133325,0.1695 -0.133325,0.46199 0,0.29145 0.133325,0.46095 0.134359,0.1695 0.361736,0.1695 0.227376,0 0.359668,-0.1695 0.133326,-0.1695 0.133326,-0.46095 0,-0.29249 -0.133326,-0.46199 -0.132292,-0.1695 -0.359668,-0.1695 z m 0,-0.1695 q 0.324528,0 0.518832,0.21808 0.194304,0.21704 0.194304,0.58291 0,0.36483 -0.194304,0.58291 -0.194304,0.21704 -0.518832,0.21704 -0.325562,0 -0.520899,-0.21704 -0.194304,-0.21704 -0.194304,-0.58291 0,-0.36587 0.194304,-0.58291 0.195337,-0.21808 0.520899,-0.21808 z"
         id="path1038" />
      <path
         d="m 38.390267,124.25091 h 0.209807 v 0.93741 q 0,0.24805 0.08992,0.3576 0.08992,0.10852 0.291455,0.10852 0.200505,0 0.290422,-0.10852 0.08992,-0.10955 0.08992,-0.3576 v -0.93741 h 0.209806 v 0.96325 q 0,0.30179 -0.149862,0.45578 -0.148828,0.154 -0.440284,0.154 -0.292489,0 -0.44235,-0.154 -0.148829,-0.15399 -0.148829,-0.45578 z"
         id="path1040" />
      <path
         d="m 40.88831,124.30155 v 0.20361 q -0.118856,-0.0568 -0.224276,-0.0847 -0.10542,-0.0279 -0.203606,-0.0279 -0.170532,0 -0.26355,0.0662 -0.09198,0.0661 -0.09198,0.1881 0,0.10232 0.06098,0.15503 0.06201,0.0517 0.233578,0.0837 l 0.126091,0.0258 q 0.233578,0.0444 0.344165,0.1571 0.111622,0.11162 0.111622,0.29972 0,0.22428 -0.150896,0.34004 -0.149862,0.11575 -0.440284,0.11575 -0.109554,0 -0.233577,-0.0248 -0.12299,-0.0248 -0.255282,-0.0734 v -0.21498 q 0.127124,0.0713 0.24908,0.10749 0.121957,0.0362 0.239779,0.0362 0.178801,0 0.275953,-0.0703 0.09715,-0.0703 0.09715,-0.2005 0,-0.11369 -0.07028,-0.17777 -0.06925,-0.0641 -0.22841,-0.0961 l -0.127125,-0.0248 q -0.233577,-0.0465 -0.337964,-0.14573 -0.104387,-0.0992 -0.104387,-0.27595 0,-0.20464 0.143661,-0.32247 0.144694,-0.11782 0.397909,-0.11782 0.108521,0 0.221176,0.0196 0.112655,0.0196 0.230477,0.0589 z"
         id="path1042" />
      <path
         d="m 41.347197,125.53145 h 0.218075 v 0.26252 h -0.218075 z m 0,-0.83199 h 0.218075 v 0.26252 h -0.218075 z"
         id="path1044" />
      <path
         d="m 42.901627,125.05706 v 0.56534 h 0.334864 q 0.168465,0 0.24908,-0.0692 0.08165,-0.0703 0.08165,-0.21395 0,-0.14469 -0.08165,-0.2129 -0.08062,-0.0692 -0.24908,-0.0692 z m 0,-0.63459 v 0.46509 h 0.309025 q 0.152963,0 0.227377,-0.0568 0.07545,-0.0579 0.07545,-0.1757 0,-0.11679 -0.07545,-0.17467 -0.07441,-0.0579 -0.227377,-0.0579 z m -0.208773,-0.17156 h 0.533301 q 0.238746,0 0.367937,0.0992 0.129191,0.0992 0.129191,0.28215 0,0.14159 -0.06615,0.22531 -0.06615,0.0837 -0.194303,0.10439 0.153996,0.0331 0.238745,0.13849 0.08578,0.10439 0.08578,0.26148 0,0.20671 -0.14056,0.31936 -0.14056,0.11266 -0.399976,0.11266 h -0.553972 z"
         id="path1046" />
      <path
         d="m 44.144963,124.25091 h 0.975653 v 0.1757 h -0.76688 v 0.45682 h 0.73484 v 0.1757 h -0.73484 v 0.55914 h 0.785483 v 0.1757 h -0.994256 z"
         id="path1048" />
      <path
         d="m 45.270478,124.25091 h 0.224276 l 0.427882,0.63459 0.424781,-0.63459 h 0.224276 l -0.545704,0.80822 v 0.73484 h -0.209807 v -0.73484 z"
         id="path1050" />
      <path
         d="m 47.285862,124.3925 q -0.227377,0 -0.361735,0.1695 -0.133326,0.1695 -0.133326,0.46199 0,0.29145 0.133326,0.46095 0.134358,0.1695 0.361735,0.1695 0.227377,0 0.359669,-0.1695 0.133325,-0.1695 0.133325,-0.46095 0,-0.29249 -0.133325,-0.46199 -0.132292,-0.1695 -0.359669,-0.1695 z m 0,-0.1695 q 0.324529,0 0.518832,0.21808 0.194304,0.21704 0.194304,0.58291 0,0.36483 -0.194304,0.58291 -0.194303,0.21704 -0.518832,0.21704 -0.325562,0 -0.520899,-0.21704 -0.194304,-0.21704 -0.194304,-0.58291 0,-0.36587 0.194304,-0.58291 0.195337,-0.21808 0.520899,-0.21808 z"
         id="path1052" />
      <path
         d="m 48.325593,124.25091 h 0.28112 l 0.684197,1.29088 v -1.29088 h 0.202572 v 1.54306 h -0.28112 l -0.684197,-1.29088 v 1.29088 h -0.202572 z"
         id="path1054" />
      <path
         d="m 50.117734,124.42247 v 1.19993 h 0.252182 q 0.31936,0 0.467155,-0.14469 0.148829,-0.1447 0.148829,-0.45682 0,-0.31006 -0.148829,-0.45372 -0.147795,-0.1447 -0.467155,-0.1447 z m -0.208773,-0.17156 h 0.428915 q 0.448552,0 0.658359,0.18707 0.209806,0.18603 0.209806,0.58291 0,0.39894 -0.21084,0.58601 -0.21084,0.18707 -0.657325,0.18707 h -0.428915 z"
         id="path1056" />
      <path
         d="m 52.837986,124.3925 q -0.227377,0 -0.361735,0.1695 -0.133326,0.1695 -0.133326,0.46199 0,0.29145 0.133326,0.46095 0.134358,0.1695 0.361735,0.1695 0.227377,0 0.359669,-0.1695 0.133325,-0.1695 0.133325,-0.46095 0,-0.29249 -0.133325,-0.46199 -0.132292,-0.1695 -0.359669,-0.1695 z m 0,-0.1695 q 0.324529,0 0.518832,0.21808 0.194304,0.21704 0.194304,0.58291 0,0.36483 -0.194304,0.58291 -0.194303,0.21704 -0.518832,0.21704 -0.325562,0 -0.520899,-0.21704 -0.194304,-0.21704 -0.194304,-0.58291 0,-0.36587 0.194304,-0.58291 0.195337,-0.21808 0.520899,-0.21808 z"
         id="path1058" />
      <path
         d="m 54.08649,125.05706 v 0.56534 h 0.334864 q 0.168465,0 0.24908,-0.0692 0.08165,-0.0703 0.08165,-0.21395 0,-0.14469 -0.08165,-0.2129 -0.08062,-0.0692 -0.24908,-0.0692 z m 0,-0.63459 v 0.46509 h 0.309025 q 0.152963,0 0.227377,-0.0568 0.07545,-0.0579 0.07545,-0.1757 0,-0.11679 -0.07545,-0.17467 -0.07441,-0.0579 -0.227377,-0.0579 z m -0.208773,-0.17156 h 0.533301 q 0.238746,0 0.367937,0.0992 0.129191,0.0992 0.129191,0.28215 0,0.14159 -0.06615,0.22531 -0.06614,0.0837 -0.194303,0.10439 0.153996,0.0331 0.238745,0.13849 0.08578,0.10439 0.08578,0.26148 0,0.20671 -0.14056,0.31936 -0.14056,0.11266 -0.399976,0.11266 H 53.87771 Z"
         id="path1060" />
      <path
         d="m 55.329827,124.25091 h 0.28112 l 0.684197,1.29088 v -1.29088 h 0.202572 v 1.54306 h -0.28112 l -0.684197,-1.29088 v 1.29088 h -0.202572 z"
         id="path1062" />
      <path
         d="m 57.539515,124.3925 q -0.227377,0 -0.361736,0.1695 -0.133325,0.1695 -0.133325,0.46199 0,0.29145 0.133325,0.46095 0.134359,0.1695 0.361736,0.1695 0.227376,0 0.359668,-0.1695 0.133326,-0.1695 0.133326,-0.46095 0,-0.29249 -0.133326,-0.46199 -0.132292,-0.1695 -0.359668,-0.1695 z m 0,-0.1695 q 0.324528,0 0.518832,0.21808 0.194304,0.21704 0.194304,0.58291 0,0.36483 -0.194304,0.58291 -0.194304,0.21704 -0.518832,0.21704 -0.325562,0 -0.5209,-0.21704 -0.194303,-0.21704 -0.194303,-0.58291 0,-0.36587 0.194303,-0.58291 0.195338,-0.21808 0.5209,-0.21808 z"
         id="path1064" />
      <path
         d="m 58.36944,124.25091 h 0.224276 l 0.38344,0.57361 0.385506,-0.57361 h 0.224277 l -0.496095,0.74104 0.529167,0.80202 h -0.224276 l -0.434082,-0.65629 -0.437184,0.65629 H 58.29916 l 0.550871,-0.82373 z"
         id="path1066" />
      <path
         d="m 59.893899,124.25091 h 0.208773 v 1.54306 h -0.208773 z"
         id="path1068" />
      <path
         d="m 61.14447,124.3925 q -0.227376,0 -0.361735,0.1695 -0.133326,0.1695 -0.133326,0.46199 0,0.29145 0.133326,0.46095 0.134359,0.1695 0.361735,0.1695 0.227377,0 0.359669,-0.1695 0.133325,-0.1695 0.133325,-0.46095 0,-0.29249 -0.133325,-0.46199 -0.132292,-0.1695 -0.359669,-0.1695 z m 0,-0.1695 q 0.324529,0 0.518833,0.21808 0.194303,0.21704 0.194303,0.58291 0,0.36483 -0.194303,0.58291 -0.194304,0.21704 -0.518833,0.21704 -0.325562,0 -0.520899,-0.21704 -0.194304,-0.21704 -0.194304,-0.58291 0,-0.36587 0.194304,-0.58291 0.195337,-0.21808 0.520899,-0.21808 z"
         id="path1070" />
      <path
         d="m 62.16043,124.25091 h 0.209806 v 0.93741 q 0,0.24805 0.08992,0.3576 0.08992,0.10852 0.291455,0.10852 0.200505,0 0.290422,-0.10852 0.08992,-0.10955 0.08992,-0.3576 v -0.93741 h 0.209807 v 0.96325 q 0,0.30179 -0.149862,0.45578 -0.148828,0.154 -0.440284,0.154 -0.292489,0 -0.442351,-0.154 -0.148828,-0.15399 -0.148828,-0.45578 z"
         id="path1072" />
      <path
         d="m 64.65847,124.30155 v 0.20361 q -0.118856,-0.0568 -0.224276,-0.0847 -0.10542,-0.0279 -0.203606,-0.0279 -0.170532,0 -0.26355,0.0662 -0.09198,0.0661 -0.09198,0.1881 0,0.10232 0.06098,0.15503 0.06201,0.0517 0.233578,0.0837 l 0.126091,0.0258 q 0.233577,0.0444 0.344165,0.1571 0.111621,0.11162 0.111621,0.29972 0,0.22428 -0.150895,0.34004 -0.149862,0.11575 -0.440284,0.11575 -0.109554,0 -0.233578,-0.0248 -0.12299,-0.0248 -0.255282,-0.0734 v -0.21498 q 0.127125,0.0713 0.249081,0.10749 0.121957,0.0362 0.239779,0.0362 0.178801,0 0.275953,-0.0703 0.09715,-0.0703 0.09715,-0.2005 0,-0.11369 -0.07028,-0.17777 -0.06925,-0.0641 -0.228411,-0.0961 l -0.127124,-0.0248 q -0.233578,-0.0465 -0.337964,-0.14573 -0.104387,-0.0992 -0.104387,-0.27595 0,-0.20464 0.143661,-0.32247 0.144694,-0.11782 0.397909,-0.11782 0.108521,0 0.221175,0.0196 0.112655,0.0196 0.230478,0.0589 z"
         id="path1074" />
    </g>
    <path
       style="color:#000000;fill:#000000;-inkscape-stroke:none"
       d="m 54.71875,38.476562 -19.996094,0.0957 0.002,0.121093 19.994141,-0.0957 z"
       id="path4227" />
    <path
       style="color:#000000;fill:#000000;-inkscape-stroke:none"
       d="m 54.699219,43.167969 -19.996094,0.0957 v 0.121094 l 19.996094,-0.0957 z"
       id="path4227-5" />
    <path
       style="color:#000000;fill:#000000;-inkscape-stroke:none"
       d="m 54.699219,51.539062 -19.996094,0.0957 v 0.121093 l 19.996094,-0.0957 z"
       id="path4227-5-5" />
    <path
       style="color:#000000;fill:#000000;-inkscape-stroke:none"
       d="m 54.699219,56.724609 -19.996094,0.0957 v 0.123047 l 19.996094,-0.09766 z"
       id="path4227-5-4" />
    <path
       style="color:#000000;fill:#000000;-inkscape-stroke:none"
       d="m 54.699219,69.787109 -19.996094,0.0957 v 0.121094 l 19.996094,-0.0957 z"
       id="path4227-5-2" />
    <path
       style="color:#000000;fill:#000000;-inkscape-stroke:none"
       d="m 54.699219,77.664062 -19.996094,0.0957 v 0.121093 l 19.996094,-0.0957 z"
       id="path4227-5-9" />
    <path
       style="color:#000000;fill:#000000;-inkscape-stroke:none"
       d="m 54.699219,82.849609 -19.996094,0.0957 v 0.121094 l 19.996094,-0.0957 z"
       id="path4227-5-24" />
    <path
       style="color:#000000;fill:#000000;-inkscape-stroke:none"
       d="m 54.699219,90.726562 -19.996094,0.0957 v 0.121093 l 19.996094,-0.0957 z"
       id="path4227-5-58" />
    <path
       style="color:#000000;fill:#000000;-inkscape-stroke:none"
       d="m 54.699219,95.912109 -19.996094,0.0957 v 0.121094 l 19.996094,-0.0957 z"
       id="path4227-5-6" />
    <path
       style="color:#000000;fill:#000000;-inkscape-stroke:none"
       d="m 54.699219,103.78711 -19.996094,0.0977 v 0.12109 l 19.996094,-0.0957 z"
       id="path4227-5-25" />
    <path
       style="color:#000000;fill:#000000;-inkscape-stroke:none"
       d="m 54.699219,108.97461 -19.996094,0.0957 v 0.1211 l 19.996094,-0.0957 z"
       id="path4227-5-13" />
    <path
       style="color:#000000;fill:#000000;-inkscape-stroke:none"
       d="m 54.699219,64.601562 -19.996094,0.0957 v 0.121093 l 19.996094,-0.0957 z"
       id="path4227-5-1" />
    <g
       aria-label="CONNECTION TO ADDITIONAL MODULES"
       transform="rotate(-90)"
       id="text92-2-1"
       style="font-size:2.46944px;line-height:1.25;font-family:'.Keyboard';-inkscape-font-specification:'.Keyboard, Normal';display:inline;stroke-width:0.0932689">
      <path
         d="m -59.921228,1.171221 v 0.2568314 q -0.12299,-0.1145493 -0.262861,-0.171221 -0.138665,-0.056672 -0.295416,-0.056672 -0.30868,0 -0.472666,0.1893077 -0.163987,0.1881018 -0.163987,0.5450131 0,0.3557055 0.163987,0.5450131 0.163986,0.1881019 0.472666,0.1881019 0.156751,0 0.295416,-0.056672 0.139871,-0.056672 0.262861,-0.171221 v 0.2544199 q -0.127813,0.086816 -0.271301,0.1302243 -0.142282,0.043408 -0.301446,0.043408 -0.408759,0 -0.643887,-0.2495967 -0.235127,-0.2508025 -0.235127,-0.683678 0,-0.4340813 0.235127,-0.683678 Q -60.902734,1 -60.493975,1 q 0.161575,0 0.303857,0.043408 0.143488,0.042202 0.26889,0.127813 z"
         id="path965" />
      <path
         d="m -58.814321,1.1977481 q -0.265272,0 -0.422024,0.1977482 -0.155546,0.1977481 -0.155546,0.5389842 0,0.3400303 0.155546,0.5377784 0.156752,0.1977481 0.422024,0.1977481 0.265272,0 0.419612,-0.1977481 0.155545,-0.1977481 0.155545,-0.5377784 0,-0.3412361 -0.155545,-0.5389842 -0.15434,-0.1977482 -0.419612,-0.1977482 z m 0,-0.1977481 q 0.378615,0 0.605302,0.2544199 0.226687,0.253214 0.226687,0.6800606 0,0.4256408 -0.226687,0.6800606 -0.226687,0.2532141 -0.605302,0.2532141 -0.379821,0 -0.607714,-0.2532141 -0.226687,-0.2532141 -0.226687,-0.6800606 0,-0.4268466 0.226687,-0.6800606 Q -59.194142,1 -58.814321,1 Z"
         id="path967" />
      <path
         d="m -57.601305,1.0325561 h 0.327972 l 0.798227,1.5060208 V 1.0325561 h 0.236333 v 1.8002314 h -0.327972 l -0.798227,-1.5060208 v 1.5060208 h -0.236333 z"
         id="path969" />
      <path
         d="m -55.754048,1.0325561 h 0.327972 l 0.798227,1.5060208 V 1.0325561 h 0.236333 v 1.8002314 h -0.327972 l -0.798227,-1.5060208 v 1.5060208 h -0.236333 z"
         id="path971" />
      <path
         d="m -53.906792,1.0325561 h 1.138258 v 0.2049828 h -0.89469 v 0.5329553 h 0.857311 v 0.2049829 h -0.857311 v 0.6523276 h 0.916394 v 0.2049828 h -1.159962 z"
         id="path973" />
      <path
         d="m -50.998447,1.171221 v 0.2568314 q -0.12299,-0.1145493 -0.262861,-0.171221 -0.138665,-0.056672 -0.295416,-0.056672 -0.30868,0 -0.472666,0.1893077 -0.163987,0.1881018 -0.163987,0.5450131 0,0.3557055 0.163987,0.5450131 0.163986,0.1881019 0.472666,0.1881019 0.156751,0 0.295416,-0.056672 0.139871,-0.056672 0.262861,-0.171221 v 0.2544199 q -0.127813,0.086816 -0.271301,0.1302243 -0.142282,0.043408 -0.301446,0.043408 -0.408759,0 -0.643887,-0.2495967 -0.235127,-0.2508025 -0.235127,-0.683678 0,-0.4340813 0.235127,-0.683678 Q -51.979953,1 -51.571194,1 q 0.161575,0 0.303857,0.043408 0.143488,0.042202 0.26889,0.127813 z"
         id="path975" />
      <path
         d="m -50.871841,1.0325561 h 1.522902 v 0.2049828 h -0.639064 v 1.5952486 h -0.244774 V 1.2375389 h -0.639064 z"
         id="path977" />
      <path
         d="m -49.113811,1.0325561 h 0.243567 v 1.8002314 h -0.243567 z"
         id="path979" />
      <path
         d="m -47.654816,1.1977481 q -0.265271,0 -0.422023,0.1977482 -0.155546,0.1977481 -0.155546,0.5389842 0,0.3400303 0.155546,0.5377784 0.156752,0.1977481 0.422023,0.1977481 0.265272,0 0.419612,-0.1977481 0.155546,-0.1977481 0.155546,-0.5377784 0,-0.3412361 -0.155546,-0.5389842 -0.15434,-0.1977482 -0.419612,-0.1977482 z m 0,-0.1977481 q 0.378616,0 0.605303,0.2544199 0.226686,0.253214 0.226686,0.6800606 0,0.4256408 -0.226686,0.6800606 -0.226687,0.2532141 -0.605303,0.2532141 -0.379821,0 -0.607713,-0.2532141 -0.226687,-0.2532141 -0.226687,-0.6800606 0,-0.4268466 0.226687,-0.6800606 Q -48.034637,1 -47.654816,1 Z"
         id="path981" />
      <path
         d="m -46.4418,1.0325561 h 0.327972 L -45.3156,2.5385769 V 1.0325561 h 0.236333 V 2.8327875 H -45.40724 L -46.205467,1.3267667 V 2.8327875 H -46.4418 Z"
         id="path983" />
      <path
         d="m -44.059176,1.0325561 h 1.522902 v 0.2049828 h -0.639064 v 1.5952486 h -0.244774 V 1.2375389 h -0.639064 z"
         id="path985" />
      <path
         d="m -41.570443,1.1977481 q -0.265272,0 -0.422024,0.1977482 -0.155545,0.1977481 -0.155545,0.5389842 0,0.3400303 0.155545,0.5377784 0.156752,0.1977481 0.422024,0.1977481 0.265272,0 0.419612,-0.1977481 0.155546,-0.1977481 0.155546,-0.5377784 0,-0.3412361 -0.155546,-0.5389842 -0.15434,-0.1977482 -0.419612,-0.1977482 z m 0,-0.1977481 q 0.378615,0 0.605302,0.2544199 0.226687,0.253214 0.226687,0.6800606 0,0.4256408 -0.226687,0.6800606 -0.226687,0.2532141 -0.605302,0.2532141 -0.379821,0 -0.607714,-0.2532141 -0.226687,-0.2532141 -0.226687,-0.6800606 0,-0.4268466 0.226687,-0.6800606 Q -41.950264,1 -41.570443,1 Z"
         id="path987" />
      <path
         d="m -38.97078,1.2725066 -0.330384,0.8958954 h 0.661974 z m -0.137459,-0.2399505 h 0.276124 l 0.686089,1.8002314 h -0.253214 l -0.163986,-0.4618142 h -0.811491 l -0.163986,0.4618142 h -0.256831 z"
         id="path989" />
      <path
         d="m -37.639597,1.2327158 v 1.399912 h 0.294211 q 0.372586,0 0.545013,-0.1688093 0.173633,-0.1688094 0.173633,-0.5329554 0,-0.3617343 -0.173633,-0.5293379 -0.172427,-0.1688094 -0.545013,-0.1688094 z m -0.243567,-0.2001597 h 0.500399 q 0.523309,0 0.768082,0.2182464 0.244774,0.2170406 0.244774,0.6800606 0,0.4654316 -0.245979,0.683678 -0.24598,0.2182464 -0.766877,0.2182464 h -0.500399 z"
         id="path991" />
      <path
         d="m -35.738081,1.2327158 v 1.399912 h 0.294211 q 0.372586,0 0.545013,-0.1688093 0.173633,-0.1688094 0.173633,-0.5329554 0,-0.3617343 -0.173633,-0.5293379 -0.172427,-0.1688094 -0.545013,-0.1688094 z m -0.243567,-0.2001597 h 0.500399 q 0.523309,0 0.768082,0.2182464 0.244774,0.2170406 0.244774,0.6800606 0,0.4654316 -0.245979,0.683678 -0.24598,0.2182464 -0.766877,0.2182464 h -0.500399 z"
         id="path993" />
      <path
         d="m -34.080131,1.0325561 h 0.243568 v 1.8002314 h -0.243568 z"
         id="path995" />
      <path
         d="m -33.601435,1.0325561 h 1.522902 v 0.2049828 h -0.639064 v 1.5952486 h -0.244774 V 1.2375389 h -0.639064 z"
         id="path997" />
      <path
         d="m -31.843406,1.0325561 h 0.243568 v 1.8002314 h -0.243568 z"
         id="path999" />
      <path
         d="m -30.384412,1.1977481 q -0.265272,0 -0.422023,0.1977482 -0.155546,0.1977481 -0.155546,0.5389842 0,0.3400303 0.155546,0.5377784 0.156751,0.1977481 0.422023,0.1977481 0.265272,0 0.419612,-0.1977481 0.155546,-0.1977481 0.155546,-0.5377784 0,-0.3412361 -0.155546,-0.5389842 -0.15434,-0.1977482 -0.419612,-0.1977482 z m 0,-0.1977481 q 0.378616,0 0.605302,0.2544199 0.226687,0.253214 0.226687,0.6800606 0,0.4256408 -0.226687,0.6800606 -0.226686,0.2532141 -0.605302,0.2532141 -0.379821,0 -0.607713,-0.2532141 -0.226687,-0.2532141 -0.226687,-0.6800606 0,-0.4268466 0.226687,-0.6800606 Q -30.764233,1 -30.384412,1 Z"
         id="path1001" />
      <path
         d="m -29.171395,1.0325561 h 0.327972 l 0.798227,1.5060208 V 1.0325561 h 0.236334 v 1.8002314 h -0.327973 l -0.798227,-1.5060208 v 1.5060208 h -0.236333 z"
         id="path1003" />
      <path
         d="m -26.722455,1.2725066 -0.330384,0.8958954 h 0.661974 z m -0.137459,-0.2399505 h 0.276124 l 0.68609,1.8002314 h -0.253214 l -0.163987,-0.4618142 h -0.81149 l -0.163987,0.4618142 h -0.256831 z"
         id="path1005" />
      <path
         d="m -25.634839,1.0325561 h 0.243568 v 1.5952486 h 0.876603 v 0.2049828 h -1.120171 z"
         id="path1007" />
      <path
         d="m -23.47408,1.0325561 h 0.36294 l 0.459403,1.2250738 0.461814,-1.2250738 h 0.36294 v 1.8002314 h -0.237539 V 1.2520083 l -0.464226,1.23472 h -0.244773 l -0.464226,-1.23472 v 1.5807792 h -0.236333 z"
         id="path1009" />
      <path
         d="m -20.612761,1.1977481 q -0.265272,0 -0.422024,0.1977482 -0.155546,0.1977481 -0.155546,0.5389842 0,0.3400303 0.155546,0.5377784 0.156752,0.1977481 0.422024,0.1977481 0.265271,0 0.419611,-0.1977481 0.155546,-0.1977481 0.155546,-0.5377784 0,-0.3412361 -0.155546,-0.5389842 -0.15434,-0.1977482 -0.419611,-0.1977482 z m 0,-0.1977481 q 0.378615,0 0.605302,0.2544199 0.226687,0.253214 0.226687,0.6800606 0,0.4256408 -0.226687,0.6800606 -0.226687,0.2532141 -0.605302,0.2532141 -0.379822,0 -0.607714,-0.2532141 -0.226687,-0.2532141 -0.226687,-0.6800606 0,-0.4268466 0.226687,-0.6800606 Q -20.992583,1 -20.612761,1 Z"
         id="path1011" />
      <path
         d="m -19.156175,1.2327158 v 1.399912 h 0.29421 q 0.372587,0 0.545013,-0.1688093 0.173633,-0.1688094 0.173633,-0.5329554 0,-0.3617343 -0.173633,-0.5293379 -0.172426,-0.1688094 -0.545013,-0.1688094 z m -0.243568,-0.2001597 h 0.500399 q 0.523309,0 0.768083,0.2182464 0.244773,0.2170406 0.244773,0.6800606 0,0.4654316 -0.245979,0.683678 -0.245979,0.2182464 -0.766877,0.2182464 h -0.500399 z"
         id="path1013" />
      <path
         d="m -17.52596,1.0325561 h 0.244774 v 1.0936436 q 0,0.2893875 0.104902,0.4172003 0.104903,0.126607 0.340031,0.126607 0.233921,0 0.338824,-0.126607 0.104903,-0.1278128 0.104903,-0.4172003 V 1.0325561 h 0.244774 v 1.1237881 q 0,0.3520882 -0.174838,0.5317496 -0.173633,0.1796614 -0.513663,0.1796614 -0.341236,0 -0.516075,-0.1796614 -0.173632,-0.1796614 -0.173632,-0.5317496 z"
         id="path1015" />
      <path
         d="m -15.690763,1.0325561 h 0.243568 v 1.5952486 h 0.876603 v 0.2049828 h -1.120171 z"
         id="path1017" />
      <path
         d="m -14.314965,1.0325561 h 1.138257 v 0.2049828 h -0.894689 v 0.5329553 h 0.85731 v 0.2049829 h -0.85731 v 0.6523276 h 0.916393 v 0.2049828 h -1.159961 z"
         id="path1019" />
      <path
         d="m -11.675507,1.0916394 v 0.2375389 q -0.138665,-0.066318 -0.261655,-0.098874 -0.12299,-0.032556 -0.237539,-0.032556 -0.198954,0 -0.307474,0.07717 -0.107315,0.07717 -0.107315,0.2194522 0,0.1193724 0.07114,0.1808672 0.07235,0.060289 0.272506,0.097668 l 0.147105,0.030145 q 0.272507,0.051849 0.401526,0.1832788 0.130224,0.1302244 0.130224,0.3496765 0,0.2616546 -0.176044,0.3967021 -0.174838,0.1350475 -0.513663,0.1350475 -0.127813,0 -0.272506,-0.028939 -0.143488,-0.028939 -0.297828,-0.08561 V 2.5024035 q 0.148311,0.083199 0.290593,0.1254012 0.142282,0.042202 0.279741,0.042202 0.2086,0 0.321944,-0.081993 0.113343,-0.081993 0.113343,-0.2339215 0,-0.132636 -0.08199,-0.2073944 -0.08079,-0.074758 -0.266478,-0.1121377 l -0.148311,-0.028939 q -0.272506,-0.05426 -0.39429,-0.1700152 -0.121784,-0.115755 -0.121784,-0.3219436 0,-0.2387447 0.167603,-0.3762037 Q -12.49785,1 -12.202434,1 q 0.126607,0 0.258037,0.02291 0.131431,0.02291 0.26889,0.068729 z"
         id="path1021" />
    </g>
    <g
       aria-label="STATUS"
       transform="rotate(90,-1.1597746,-0.52842948)"
       id="text92-2-1-3"
       style="font-size:2.46944px;line-height:1.25;font-family:'.Keyboard';-inkscape-font-specification:'.Keyboard, Normal';display:inline;stroke-width:0.0932689">
      <path
         d="m 11.620049,-90.676115 v 0.237539 q -0.138665,-0.06632 -0.261655,-0.09887 -0.12299,-0.03256 -0.237539,-0.03256 -0.198954,0 -0.307474,0.07717 -0.107314,0.07717 -0.107314,0.219452 0,0.119372 0.07114,0.180867 0.07235,0.06029 0.272506,0.09767 l 0.147105,0.03015 q 0.272507,0.05185 0.401526,0.183279 0.130224,0.130224 0.130224,0.349676 0,0.261655 -0.176044,0.396702 -0.174838,0.135048 -0.513663,0.135048 -0.127813,0 -0.272506,-0.02894 -0.143488,-0.02894 -0.297828,-0.08561 v -0.250802 q 0.148311,0.0832 0.290593,0.125401 0.142282,0.0422 0.279741,0.0422 0.2086,0 0.321944,-0.08199 0.113343,-0.08199 0.113343,-0.233921 0,-0.132636 -0.08199,-0.207395 -0.08079,-0.07476 -0.266478,-0.112137 l -0.148311,-0.02894 q -0.272506,-0.05426 -0.39429,-0.170015 -0.121784,-0.115755 -0.121784,-0.321944 0,-0.238744 0.167604,-0.376203 0.168809,-0.13746 0.464225,-0.13746 0.126607,0 0.258037,0.02291 0.131431,0.02291 0.26889,0.06873 z"
         id="path952" />
      <path
         d="m 11.858793,-90.735198 h 1.522902 v 0.204982 h -0.639064 v 1.595249 h -0.244774 v -1.595249 h -0.639064 z"
         id="path954" />
      <path
         d="m 14.026788,-90.495248 -0.330384,0.895895 h 0.661974 z m -0.137459,-0.23995 h 0.276124 l 0.686089,1.800231 h -0.253214 l -0.163986,-0.461814 h -0.811491 l -0.163986,0.461814 h -0.256831 z"
         id="path956" />
      <path
         d="m 14.673087,-90.735198 h 1.522902 v 0.204982 h -0.639064 v 1.595249 h -0.244774 v -1.595249 h -0.639064 z"
         id="path958" />
      <path
         d="m 16.403383,-90.735198 h 0.244774 v 1.093643 q 0,0.289388 0.104903,0.4172 0.104903,0.126607 0.34003,0.126607 0.233922,0 0.338825,-0.126607 0.104903,-0.127812 0.104903,-0.4172 v -1.093643 h 0.244773 v 1.123788 q 0,0.352088 -0.174838,0.531749 -0.173633,0.179662 -0.513663,0.179662 -0.341236,0 -0.516074,-0.179662 -0.173633,-0.179661 -0.173633,-0.531749 z"
         id="path960" />
      <path
         d="m 19.317756,-90.676115 v 0.237539 q -0.138665,-0.06632 -0.261655,-0.09887 -0.122989,-0.03256 -0.237539,-0.03256 -0.198953,0 -0.307474,0.07717 -0.107314,0.07717 -0.107314,0.219452 0,0.119372 0.07114,0.180867 0.07235,0.06029 0.272506,0.09767 l 0.147106,0.03015 q 0.272506,0.05185 0.401525,0.183279 0.130224,0.130224 0.130224,0.349676 0,0.261655 -0.176044,0.396702 -0.174838,0.135048 -0.513663,0.135048 -0.127812,0 -0.272506,-0.02894 -0.143488,-0.02894 -0.297828,-0.08561 v -0.250802 q 0.148311,0.0832 0.290593,0.125401 0.142282,0.0422 0.279741,0.0422 0.2086,0 0.321944,-0.08199 0.113343,-0.08199 0.113343,-0.233921 0,-0.132636 -0.08199,-0.207395 -0.08079,-0.07476 -0.266477,-0.112137 l -0.148312,-0.02894 q -0.272506,-0.05426 -0.39429,-0.170015 -0.121784,-0.115755 -0.121784,-0.321944 0,-0.238744 0.167604,-0.376203 0.168809,-0.13746 0.464225,-0.13746 0.126608,0 0.258038,0.02291 0.13143,0.02291 0.268889,0.06873 z"
         id="path962" />
    </g>
    <g
       aria-label="OUT2"
       id="g1084"
       style="font-weight:bold;font-size:2.82222px;line-height:1.25;-inkscape-font-specification:'sans-serif, Bold';stroke-width:0.264583"
       transform="translate(8.1710043,81.664897)">
      <path
         d="m 49.077455,27.835043 q -0.242534,0 -0.376204,0.179145 -0.133669,0.179145 -0.133669,0.504361 0,0.323839 0.133669,0.502984 0.13367,0.179145 0.376204,0.179145 0.243913,0 0.377582,-0.179145 0.13367,-0.179145 0.13367,-0.502984 0,-0.325216 -0.13367,-0.504361 -0.133669,-0.179145 -0.377582,-0.179145 z m 0,-0.384472 q 0.496094,0 0.777213,0.283875 0.28112,0.283876 0.28112,0.784103 0,0.49885 -0.28112,0.782725 -0.281119,0.283876 -0.777213,0.283876 -0.494715,0 -0.777213,-0.283876 -0.281119,-0.283875 -0.281119,-0.782725 0,-0.500227 0.281119,-0.784103 0.282498,-0.283875 0.777213,-0.283875 z"
         id="path1075" />
      <path
         d="m 50.536797,27.487778 h 0.530544 v 1.233343 q 0,0.254937 0.08268,0.36518 0.08406,0.108865 0.272852,0.108865 0.190169,0 0.272851,-0.108865 0.08406,-0.110243 0.08406,-0.36518 v -1.233343 h 0.530544 v 1.233343 q 0,0.436838 -0.219107,0.650433 -0.219108,0.213596 -0.668348,0.213596 -0.447863,0 -0.66697,-0.213596 -0.219108,-0.213595 -0.219108,-0.650433 z"
         id="path1078" />
      <path
         d="m 52.583182,27.487778 h 1.896179 v 0.401008 h -0.682128 v 1.656401 h -0.530544 v -1.656401 h -0.683507 z"
         id="path1080" />
      <path
         d="m 55.307561,29.155202 h 0.905371 v 0.389985 h -1.495171 v -0.389985 l 0.751031,-0.662835 q 0.100596,-0.09095 0.148828,-0.177767 0.04823,-0.08682 0.04823,-0.180523 0,-0.144694 -0.09784,-0.232888 -0.09646,-0.08819 -0.257693,-0.08819 -0.124023,0 -0.271473,0.05374 -0.14745,0.05236 -0.315571,0.157096 v -0.451996 q 0.179145,-0.05926 0.354156,-0.08957 0.175011,-0.03169 0.343131,-0.03169 0.369314,0 0.573264,0.162608 0.205327,0.162608 0.205327,0.453374 0,0.168121 -0.08682,0.314193 -0.08682,0.144694 -0.36518,0.388606 z"
         id="path1082" />
    </g>
    <g
       aria-label="OUT1"
       id="g1094"
       style="font-weight:bold;font-size:2.82222px;line-height:1.25;-inkscape-font-specification:'sans-serif, Bold';stroke-width:0.264583"
       transform="translate(9.7065658,90.376059)">
      <path
         d="m 37.589693,27.835043 q -0.242535,0 -0.376204,0.179145 -0.13367,0.179145 -0.13367,0.504361 0,0.323839 0.13367,0.502984 0.133669,0.179145 0.376204,0.179145 0.243912,0 0.377582,-0.179145 0.13367,-0.179145 0.13367,-0.502984 0,-0.325216 -0.13367,-0.504361 -0.13367,-0.179145 -0.377582,-0.179145 z m 0,-0.384472 q 0.496093,0 0.777213,0.283875 0.281119,0.283876 0.281119,0.784103 0,0.49885 -0.281119,0.782725 -0.28112,0.283876 -0.777213,0.283876 -0.494716,0 -0.777213,-0.283876 -0.28112,-0.283875 -0.28112,-0.782725 0,-0.500227 0.28112,-0.784103 0.282497,-0.283875 0.777213,-0.283875 z"
         id="path1086" />
      <path
         d="m 39.049034,27.487778 h 0.530545 v 1.233343 q 0,0.254937 0.08268,0.36518 0.08406,0.108865 0.272851,0.108865 0.190169,0 0.272851,-0.108865 0.08406,-0.110243 0.08406,-0.36518 v -1.233343 h 0.530544 v 1.233343 q 0,0.436838 -0.219108,0.650433 -0.219108,0.213596 -0.668348,0.213596 -0.447862,0 -0.66697,-0.213596 -0.219108,-0.213595 -0.219108,-0.650433 z"
         id="path1088" />
      <path
         d="m 41.09542,27.487778 h 1.896179 v 0.401008 H 42.30947 v 1.656401 H 41.778926 V 27.888786 H 41.09542 Z"
         id="path1090" />
      <path
         d="m 43.337486,29.178629 h 0.468532 v -1.329806 l -0.480935,0.09922 v -0.361046 l 0.478179,-0.09922 h 0.504362 v 1.690851 h 0.468532 v 0.366558 h -1.43867 z"
         id="path1092" />
    </g>
  </g>
  <g
     inkscape:label="components"
     inkscape:groupmode="layer"
     id="layer1"
     style="display:none">
    <rect
       id="f9b09e17-fc78-4216-9b09-40d2874876ff"
       data-name="Screen"
       y="102.07636"
       width="27.171406"
       height="3.636193"
       x="6.3214049"
       style="display:inline;fill:#ffff00;stroke-width:0.0876724"
       inkscape:label="CARD6_TEXT" />
    <circle
       id="b903da6b-121c-4663-8772-b399a6eccb9e-7"
       data-name="Tempo#RoundLargeBlackKnob"
       cx="40.176949"
       cy="103.89446"
       r="1.3229166"
       style="display:inline;fill:#ff0000;stroke-width:0.264583"
       inkscape:label="CARD_F_MIX1_OUTPUT_BUTTON" />
    <circle
       id="b903da6b-121c-4663-8772-b399a6eccb9e-7-7-55"
       data-name="Tempo#RoundLargeBlackKnob"
       cx="66.373314"
       cy="117.69212"
       r="1.3229166"
       style="display:inline;fill:#ff0000;stroke-width:0.264583"
       inkscape:label="MIX_RIGHT_SELECT" />
    <circle
       id="b903da6b-121c-4663-8772-b399a6eccb9e-7-7-55-4"
       data-name="Tempo#RoundLargeBlackKnob"
       cx="66.373314"
       cy="17.478109"
       r="1.3229166"
       style="display:inline;fill:#ff0000;stroke-width:0.264583"
       inkscape:label="MIX_LEFT_SELECT" />
    <rect
       id="f9b09e17-fc78-4216-9b09-40d2874876ff-3"
       data-name="Screen"
       y="49.830379"
       width="27.171406"
       height="3.636193"
       x="6.3214049"
       style="display:inline;fill:#ffff00;stroke-width:0.0876724"
       inkscape:label="CARD_B_TEXT" />
    <circle
       id="b903da6b-121c-4663-8772-b399a6eccb9e-7-0"
       data-name="Tempo#RoundLargeBlackKnob"
       cx="40.176949"
       cy="51.648476"
       r="1.3229166"
       style="display:inline;fill:#ff0000;stroke-width:0.264583"
       inkscape:label="CARD_B_MIX1_OUTPUT_BUTTON" />
    <rect
       id="f9b09e17-fc78-4216-9b09-40d2874876ff-09"
       data-name="Screen"
       y="75.953377"
       width="27.171406"
       height="3.636193"
       x="6.3214049"
       style="display:inline;fill:#ffff00;stroke-width:0.0876724"
       inkscape:label="CARD_D_TEXT" />
    <circle
       id="b903da6b-121c-4663-8772-b399a6eccb9e-7-37"
       data-name="Tempo#RoundLargeBlackKnob"
       cx="40.176949"
       cy="77.771477"
       r="1.3229166"
       style="display:inline;fill:#ff0000;stroke-width:0.264583"
       inkscape:label="CARD_D_MIX1_OUTPUT_BUTTON" />
    <rect
       id="f9b09e17-fc78-4216-9b09-40d2874876ff-09-3"
       data-name="Screen"
       y="62.891876"
       width="27.171406"
       height="3.636193"
       x="6.3214049"
       style="display:inline;fill:#ffff00;stroke-width:0.0876724"
       inkscape:label="CARD_C_TEXT" />
    <circle
       id="b903da6b-121c-4663-8772-b399a6eccb9e-7-37-0"
       data-name="Tempo#RoundLargeBlackKnob"
       cx="40.176949"
       cy="64.709976"
       r="1.3229166"
       style="display:inline;fill:#ff0000;stroke-width:0.264583"
       inkscape:label="CARD_C_MIX1_OUTPUT_BUTTON" />
    <rect
       id="f9b09e17-fc78-4216-9b09-40d2874876ff-2"
       data-name="Screen"
       y="89.01487"
       width="27.171406"
       height="3.636193"
       x="6.3214049"
       style="display:inline;fill:#ffff00;stroke-width:0.0876724"
       inkscape:label="CARD_E_TEXT" />
    <circle
       id="b903da6b-121c-4663-8772-b399a6eccb9e-7-9"
       data-name="Tempo#RoundLargeBlackKnob"
       cx="40.176949"
       cy="90.83297"
       r="1.3229166"
       style="display:inline;fill:#ff0000;stroke-width:0.264583"
       inkscape:label="CARD_E_MIX1_OUTPUT_BUTTON" />
    <rect
       id="f9b09e17-fc78-4216-9b09-40d2874876ff-0"
       data-name="Screen"
       y="36.768883"
       width="27.171406"
       height="3.636193"
       x="6.3214049"
       style="display:inline;fill:#ffff00;stroke-width:0.0876724"
       inkscape:label="CARD_A_TEXT" />
    <rect
       id="f9b09e17-fc78-4216-9b09-40d2874876ff-1"
       data-name="Screen"
       y="107.26299"
       width="27.171406"
       height="3.636193"
       x="6.3214049"
       style="display:inline;fill:#ffff00;stroke-width:0.0876724"
       inkscape:label="CARD6_TEXT" />
    <rect
       id="f9b09e17-fc78-4216-9b09-40d2874876ff-3-7"
       data-name="Screen"
       y="55.01701"
       width="27.171406"
       height="3.636193"
       x="6.3214049"
       style="display:inline;fill:#ffff00;stroke-width:0.0876724"
       inkscape:label="CARD_B_TEXT" />
    <rect
       id="f9b09e17-fc78-4216-9b09-40d2874876ff-09-2"
       data-name="Screen"
       y="81.140007"
       width="27.171406"
       height="3.636193"
       x="6.3214049"
       style="display:inline;fill:#ffff00;stroke-width:0.0876724"
       inkscape:label="CARD_D_TEXT" />
    <rect
       id="f9b09e17-fc78-4216-9b09-40d2874876ff-09-3-3"
       data-name="Screen"
       y="68.078499"
       width="27.171406"
       height="3.636193"
       x="6.3214049"
       style="display:inline;fill:#ffff00;stroke-width:0.0876724"
       inkscape:label="CARD_C_TEXT" />
    <rect
       id="f9b09e17-fc78-4216-9b09-40d2874876ff-2-6"
       data-name="Screen"
       y="94.2015"
       width="27.171406"
       height="3.636193"
       x="6.3214049"
       style="display:inline;fill:#ffff00;stroke-width:0.0876724"
       inkscape:label="CARD_E_TEXT" />
    <rect
       id="f9b09e17-fc78-4216-9b09-40d2874876ff-0-5"
       data-name="Screen"
       y="41.460323"
       width="27.171406"
       height="3.636193"
       x="6.3214049"
       style="display:inline;fill:#ffff00;stroke-width:0.0876724"
       inkscape:label="CARD_A_TEXT" />
    <circle
       id="b903da6b-121c-4663-8772-b399a6eccb9e-7-4"
       data-name="Tempo#RoundLargeBlackKnob"
       cx="40.176949"
       cy="38.586979"
       r="1.3229166"
       style="display:inline;fill:#ff0000;stroke-width:0.264583"
       inkscape:label="CARD_A_MIX1_OUTPUT_BUTTON" />
    <circle
       id="b903da6b-121c-4663-8772-b399a6eccb9e-7-7"
       data-name="Tempo#RoundLargeBlackKnob"
       cx="51.729485"
       cy="109.08109"
       r="1.3229166"
       style="display:inline;fill:#ff0000;stroke-width:0.264583"
       inkscape:label="CARD_F_MIX2_OUTPUT_BUTTON" />
    <circle
       id="b903da6b-121c-4663-8772-b399a6eccb9e-7-7-8"
       data-name="Tempo#RoundLargeBlackKnob"
       cx="51.729485"
       cy="56.835106"
       r="1.3229166"
       style="display:inline;fill:#ff0000;stroke-width:0.264583"
       inkscape:label="CARD_B_MIX2_OUTPUT_BUTTON" />
    <circle
       id="b903da6b-121c-4663-8772-b399a6eccb9e-7-7-5"
       data-name="Tempo#RoundLargeBlackKnob"
       cx="51.729485"
       cy="82.958107"
       r="1.3229166"
       style="display:inline;fill:#ff0000;stroke-width:0.264583"
       inkscape:label="CARD_D_MIX2_OUTPUT_BUTTON" />
    <circle
       id="b903da6b-121c-4663-8772-b399a6eccb9e-7-7-5-4"
       data-name="Tempo#RoundLargeBlackKnob"
       cx="51.729485"
       cy="69.896599"
       r="1.3229166"
       style="display:inline;fill:#ff0000;stroke-width:0.264583"
       inkscape:label="CARD_C_MIX2_OUTPUT_BUTTON" />
    <circle
       id="b903da6b-121c-4663-8772-b399a6eccb9e-7-7-7"
       data-name="Tempo#RoundLargeBlackKnob"
       cx="51.729485"
       cy="96.0196"
       r="1.3229166"
       style="display:inline;fill:#ff0000;stroke-width:0.264583"
       inkscape:label="CARD_E_MIX2_OUTPUT_BUTTON" />
    <circle
       id="b903da6b-121c-4663-8772-b399a6eccb9e-7-7-6"
       data-name="Tempo#RoundLargeBlackKnob"
       cx="51.729485"
       cy="43.278419"
       r="1.3229166"
       style="display:inline;fill:#ff0000;stroke-width:0.264583"
       inkscape:label="CARD_A_MIX2_OUTPUT_BUTTON" />
    <circle
       id="b39d990d-64d8-41f9-b92c-7dcc2247a0f0-1-4-4-6-1"
       data-name="In03#PJ301MPort"
       cx="74.31234"
       cy="57.165524"
       r="1.3229166"
       style="display:inline;opacity:0.99;fill:#00ff00;stroke-width:0.264583"
       inkscape:label="LEFT_LEVEL_INPUT" />
    <circle
       inkscape:label="LEFT_LEVEL_CLIP"
       id="circle3173"
       data-name="RGreen1#RedLight"
       cx="74.31234"
       cy="38.416546"
       r="0.79374999"
       style="display:inline;fill:#ff00ff;stroke-width:0.264583" />
    <circle
       id="b903da6b-121c-4663-8772-b399a6eccb9e-76"
       data-name="Tempo#RoundLargeBlackKnob"
       cx="74.31234"
       cy="47.500546"
       r="1.3229166"
       style="display:inline;fill:#ff0000;stroke-width:0.264583"
       inkscape:label="LEFT_LEVEL_KNOB" />
    <circle
       id="b39d990d-64d8-41f9-b92c-7dcc2247a0f0-1-4-4-6-1-1"
       data-name="In03#PJ301MPort"
       cx="74.31234"
       cy="99.333664"
       r="1.3229166"
       style="display:inline;opacity:0.99;fill:#00ff00;stroke-width:0.264583"
       inkscape:label="RIGHT_LEVEL_INPUT" />
    <circle
       inkscape:label="RIGHT_LEVEL_CLIP"
       id="circle3173-9"
       data-name="RGreen1#RedLight"
       cx="74.31234"
       cy="80.584686"
       r="0.79374999"
       style="display:inline;fill:#ff00ff;stroke-width:0.264583" />
    <circle
       id="b903da6b-121c-4663-8772-b399a6eccb9e-76-2"
       data-name="Tempo#RoundLargeBlackKnob"
       cx="74.31234"
       cy="89.668686"
       r="1.3229166"
       style="display:inline;fill:#ff0000;stroke-width:0.264583"
       inkscape:label="RIGHT_LEVEL_KNOB" />
    <circle
       id="circle1254"
       data-name="RGreen1#RedLight"
       cx="89.193748"
       cy="8.21875"
       r="0.79374999"
       style="display:inline;opacity:0.99;fill:#ff00ff;stroke-width:0.264583"
       inkscape:label="RIGHT_EXPANDER_LIGHT" />
    <circle
       id="b9452edd-6f79-47c8-a395-da97cf0e28c9-8"
       data-name="RGreen1#RedLight"
       cx="2.0200968"
       cy="8.21875"
       r="0.79374999"
       style="display:inline;opacity:0.99;fill:#ff00ff;stroke-width:0.264583"
       inkscape:label="LEFT_EXPANDER_LIGHT" />
  </g>
</svg>
