<?xml version="1.0" encoding="UTF-8" standalone="no"?>
<!-- Created with Inkscape (http://www.inkscape.org/) -->

<svg
   width="81.279999mm"
   height="128.5mm"
   viewBox="0 0 81.28 128.5"
   version="1.1"
   id="svg1199"
   inkscape:version="1.1.2 (b8e25be8, 2022-02-05)"
   sodipodi:docname="Output6.svg"
   xmlns:inkscape="http://www.inkscape.org/namespaces/inkscape"
   xmlns:sodipodi="http://sodipodi.sourceforge.net/DTD/sodipodi-0.dtd"
   xmlns="http://www.w3.org/2000/svg"
   xmlns:svg="http://www.w3.org/2000/svg">
  <sodipodi:namedview
     id="namedview1201"
     pagecolor="#ffffff"
     bordercolor="#666666"
     borderopacity="1.0"
     inkscape:pageshadow="2"
     inkscape:pageopacity="0.0"
     inkscape:pagecheckerboard="0"
     inkscape:document-units="mm"
     showgrid="false"
     inkscape:zoom="0.84922965"
     inkscape:cx="141.30453"
     inkscape:cy="294.97321"
     inkscape:window-width="1491"
     inkscape:window-height="969"
     inkscape:window-x="59"
     inkscape:window-y="40"
     inkscape:window-maximized="0"
     inkscape:current-layer="layer2" />
  <defs
     id="defs1196">
    <marker
       style="overflow:visible"
       id="Arrow1Lend"
       refX="0"
       refY="0"
       orient="auto"
       inkscape:stockid="Arrow1Lend"
       inkscape:isstock="true">
      <path
         transform="matrix(-0.8,0,0,-0.8,-10,0)"
         style="fill:context-stroke;fill-rule:evenodd;stroke:context-stroke;stroke-width:1pt"
         d="M 0,0 5,-5 -12.5,0 5,5 Z"
         id="path6358" />
    </marker>
    <marker
       style="overflow:visible"
       id="marker6625"
       refX="0"
       refY="0"
       orient="auto"
       inkscape:stockid="Arrow1Lstart"
       inkscape:isstock="true">
      <path
         transform="matrix(0.8,0,0,0.8,10,0)"
         style="fill:context-stroke;fill-rule:evenodd;stroke:context-stroke;stroke-width:1pt"
         d="M 0,0 5,-5 -12.5,0 5,5 Z"
         id="path6623" />
    </marker>
    <marker
       style="overflow:visible"
       id="Arrow1Lstart"
       refX="0"
       refY="0"
       orient="auto"
       inkscape:stockid="Arrow1Lstart"
       inkscape:isstock="true">
      <path
         transform="matrix(0.8,0,0,0.8,10,0)"
         style="fill:context-stroke;fill-rule:evenodd;stroke:context-stroke;stroke-width:1pt"
         d="M 0,0 5,-5 -12.5,0 5,5 Z"
         id="path6355" />
    </marker>
    <marker
       style="overflow:visible"
       id="Arrow1Lend-5"
       refX="0"
       refY="0"
       orient="auto"
       inkscape:stockid="Arrow1Lend"
       inkscape:isstock="true">
      <path
         transform="matrix(-0.8,0,0,-0.8,-10,0)"
         style="fill:context-stroke;fill-rule:evenodd;stroke:context-stroke;stroke-width:1pt"
         d="M 0,0 5,-5 -12.5,0 5,5 Z"
         id="path6358-6" />
    </marker>
  </defs>
  <g
     inkscape:groupmode="layer"
     id="layer3"
     inkscape:label="background"
     style="display:inline">
    <rect
       style="display:inline;fill:#b1b1b1;fill-opacity:1;stroke:#980000;stroke-width:0.312858"
       id="rect1059"
       width="108.31132"
       height="131.58832"
       x="-2.5066016"
       y="-1.2615956" />
  </g>
  <g
     inkscape:label="components"
     inkscape:groupmode="layer"
     id="layer1"
     style="display:inline">
    <rect
       id="f9b09e17-fc78-4216-9b09-40d2874876ff"
       data-name="Screen"
       y="102.07636"
       width="17.693895"
       height="3.636193"
       x="3.1372218"
       style="display:inline;fill:#ffff00;stroke-width:0.0707487"
       inkscape:label="CARD6_TEXT" />
    <circle
       id="b903da6b-121c-4663-8772-b399a6eccb9e-7"
       data-name="Tempo#RoundLargeBlackKnob"
       cx="26.952702"
       cy="104.13852"
       r="1.3229166"
       style="display:inline;fill:#ff0000;stroke-width:0.264583"
       inkscape:label="CARD_F_MIX1_BUTTON" />
    <circle
       id="b903da6b-121c-4663-8772-b399a6eccb9e-7-7"
       data-name="Tempo#RoundLargeBlackKnob"
       cx="44.34557"
       cy="103.89446"
       r="1.3229166"
       style="display:inline;fill:#ff0000;stroke-width:0.264583"
       inkscape:label="CARD_F_MIX2_BUTTON" />
    <circle
       id="b903da6b-121c-4663-8772-b399a6eccb9e-7-7-55"
       data-name="Tempo#RoundLargeBlackKnob"
       cx="58.989403"
       cy="117.69212"
       r="1.3229166"
       style="display:inline;fill:#ff0000;stroke-width:0.264583"
       inkscape:label="MIX_RIGHT_SELECT" />
    <circle
       id="b903da6b-121c-4663-8772-b399a6eccb9e-7-7-55-4"
       data-name="Tempo#RoundLargeBlackKnob"
       cx="58.989403"
       cy="17.478109"
       r="1.3229166"
       style="display:inline;fill:#ff0000;stroke-width:0.264583"
       inkscape:label="MIX_LEFT_SELECT" />
    <rect
       id="f9b09e17-fc78-4216-9b09-40d2874876ff-3"
       data-name="Screen"
       y="49.830379"
       width="17.693895"
       height="3.636193"
       x="3.1372218"
       style="display:inline;fill:#ffff00;stroke-width:0.0707487"
       inkscape:label="CARD_B_TEXT" />
    <circle
       id="b903da6b-121c-4663-8772-b399a6eccb9e-7-0"
       data-name="Tempo#RoundLargeBlackKnob"
       cx="26.952702"
       cy="51.892536"
       r="1.3229166"
       style="display:inline;fill:#ff0000;stroke-width:0.264583"
       inkscape:label="CARD_B_MIX1_BUTTON" />
    <circle
       id="b903da6b-121c-4663-8772-b399a6eccb9e-7-7-8"
       data-name="Tempo#RoundLargeBlackKnob"
       cx="44.34557"
       cy="51.648479"
       r="1.3229166"
       style="display:inline;fill:#ff0000;stroke-width:0.264583"
       inkscape:label="CARD_B_MIX2_BUTTON" />
    <rect
       id="f9b09e17-fc78-4216-9b09-40d2874876ff-09"
       data-name="Screen"
       y="75.953377"
       width="17.693895"
       height="3.636193"
       x="3.1372218"
       style="display:inline;fill:#ffff00;stroke-width:0.0707487"
       inkscape:label="CARD_D_TEXT" />
    <circle
       id="b903da6b-121c-4663-8772-b399a6eccb9e-7-37"
       data-name="Tempo#RoundLargeBlackKnob"
       cx="26.952702"
       cy="78.015533"
       r="1.3229166"
       style="display:inline;fill:#ff0000;stroke-width:0.264583"
       inkscape:label="CARD_D_MIX1_BUTTON" />
    <circle
       id="b903da6b-121c-4663-8772-b399a6eccb9e-7-7-5"
       data-name="Tempo#RoundLargeBlackKnob"
       cx="44.34557"
       cy="77.771477"
       r="1.3229166"
       style="display:inline;fill:#ff0000;stroke-width:0.264583"
       inkscape:label="CARD_D_MIX2_BUTTON" />
    <rect
       id="f9b09e17-fc78-4216-9b09-40d2874876ff-09-3"
       data-name="Screen"
       y="62.891876"
       width="17.693895"
       height="3.636193"
       x="3.1372218"
       style="display:inline;fill:#ffff00;stroke-width:0.0707487"
       inkscape:label="CARD_C_TEXT" />
    <circle
       id="b903da6b-121c-4663-8772-b399a6eccb9e-7-37-0"
       data-name="Tempo#RoundLargeBlackKnob"
       cx="26.952702"
       cy="64.954033"
       r="1.3229166"
       style="display:inline;fill:#ff0000;stroke-width:0.264583"
       inkscape:label="CARD_C_MIX1_BUTTON" />
    <circle
       id="b903da6b-121c-4663-8772-b399a6eccb9e-7-7-5-4"
       data-name="Tempo#RoundLargeBlackKnob"
       cx="44.34557"
       cy="64.709976"
       r="1.3229166"
       style="display:inline;fill:#ff0000;stroke-width:0.264583"
       inkscape:label="CARD_C_MIX2_BUTTON" />
    <rect
       id="f9b09e17-fc78-4216-9b09-40d2874876ff-2"
       data-name="Screen"
       y="89.01487"
       width="17.693895"
       height="3.636193"
       x="3.1372218"
       style="display:inline;fill:#ffff00;stroke-width:0.0707487"
       inkscape:label="CARD_E_TEXT" />
    <circle
       id="b903da6b-121c-4663-8772-b399a6eccb9e-7-9"
       data-name="Tempo#RoundLargeBlackKnob"
       cx="26.952702"
       cy="91.077026"
       r="1.3229166"
       style="display:inline;fill:#ff0000;stroke-width:0.264583"
       inkscape:label="CARD_E_MIX1_BUTTON" />
    <circle
       id="b903da6b-121c-4663-8772-b399a6eccb9e-7-7-7"
       data-name="Tempo#RoundLargeBlackKnob"
       cx="44.34557"
       cy="90.83297"
       r="1.3229166"
       style="display:inline;fill:#ff0000;stroke-width:0.264583"
       inkscape:label="CARD_E_MIX2_BUTTON" />
    <rect
       id="f9b09e17-fc78-4216-9b09-40d2874876ff-0"
       data-name="Screen"
       y="36.768883"
       width="17.693895"
       height="3.636193"
       x="3.1372218"
       style="display:inline;fill:#ffff00;stroke-width:0.0707487"
       inkscape:label="CARD_A_TEXT" />
    <circle
       id="b903da6b-121c-4663-8772-b399a6eccb9e-7-4"
       data-name="Tempo#RoundLargeBlackKnob"
       cx="26.952702"
       cy="38.831039"
       r="1.3229166"
       style="display:inline;fill:#ff0000;stroke-width:0.264583"
       inkscape:label="CARD_A_MIX1_BUTTON" />
    <circle
       id="b903da6b-121c-4663-8772-b399a6eccb9e-7-7-6"
       data-name="Tempo#RoundLargeBlackKnob"
       cx="44.34557"
       cy="38.586983"
       r="1.3229166"
       style="display:inline;fill:#ff0000;stroke-width:0.264583"
       inkscape:label="CARD_A_MIX2_BUTTON" />
    <circle
       id="b39d990d-64d8-41f9-b92c-7dcc2247a0f0-1-4-4-6-1"
       data-name="In03#PJ301MPort"
       cx="66.928429"
       cy="57.165524"
       r="1.3229166"
       style="display:inline;opacity:0.99;fill:#00ff00;stroke-width:0.264583"
       inkscape:label="LEFT_LEVEL_INPUT" />
    <circle
       inkscape:label="LEFT_LEVEL_CLIP"
       id="circle3173"
       data-name="RGreen1#RedLight"
       cx="66.928429"
       cy="38.416546"
       r="0.79374999"
       style="display:inline;fill:#ff00ff;stroke-width:0.264583" />
    <circle
       id="b903da6b-121c-4663-8772-b399a6eccb9e-76"
       data-name="Tempo#RoundLargeBlackKnob"
       cx="66.928429"
       cy="47.500546"
       r="1.3229166"
       style="display:inline;fill:#ff0000;stroke-width:0.264583"
       inkscape:label="LEFT_LEVEL_KNOB" />
    <circle
       id="b39d990d-64d8-41f9-b92c-7dcc2247a0f0-1-4-4-6-1-1"
       data-name="In03#PJ301MPort"
       cx="66.928429"
       cy="99.333664"
       r="1.3229166"
       style="display:inline;opacity:0.99;fill:#00ff00;stroke-width:0.264583"
       inkscape:label="RIGHT_LEVEL_INPUT" />
    <circle
       inkscape:label="RIGHT_LEVEL_CLIP"
       id="circle3173-9"
       data-name="RGreen1#RedLight"
       cx="66.928429"
       cy="80.584686"
       r="0.79374999"
       style="display:inline;fill:#ff00ff;stroke-width:0.264583" />
    <circle
       id="b903da6b-121c-4663-8772-b399a6eccb9e-76-2"
       data-name="Tempo#RoundLargeBlackKnob"
       cx="66.928429"
       cy="89.668686"
       r="1.3229166"
       style="display:inline;fill:#ff0000;stroke-width:0.264583"
       inkscape:label="RIGHT_LEVEL_KNOB" />
  </g>
  <g
     inkscape:groupmode="layer"
     id="layer2"
     inkscape:label="layout"
     style="display:inline">
    <g
       id="path1674">
      <path
         style="color:#000000;fill:#b1b1b1;stroke-width:0.264583;-inkscape-stroke:none"
         d="m 3.3795554,27.901876 a 0.05502102,0.05502102 0 0 1 -0.055021,0.05502 0.05502102,0.05502102 0 0 1 -0.055021,-0.05502 0.05502102,0.05502102 0 0 1 0.055021,-0.05502 0.05502102,0.05502102 0 0 1 0.055021,0.05502 z"
         id="path1860" />
      <path
         style="color:#000000;fill:#980000;-inkscape-stroke:none"
         d="m 3.3242188,27.714844 c -0.1018828,0 -0.1875001,0.08562 -0.1875,0.1875 0,0.101883 0.085617,0.1875 0.1875,0.1875 0.1018827,0 0.1875,-0.08562 0.1875,-0.1875 0,-0.101883 -0.085617,-0.1875 -0.1875,-0.1875 z m 0,0.109375 c 0.041108,0 0.078125,0.03702 0.078125,0.07813 0,0.04111 -0.037017,0.07617 -0.078125,0.07617 -0.041108,0 -0.076172,-0.03506 -0.076172,-0.07617 0,-0.04111 0.035064,-0.07813 0.076172,-0.07813 z"
         id="path1862" />
    </g>
    <g
       aria-label="CARD"
       id="text2294"
       style="font-weight:bold;font-size:2.82222px;-inkscape-font-specification:'sans-serif, Bold';stroke-width:0.264583">
      <path
         d="m 4.1845301,29.609953 q -0.2287541,0 -0.4230574,-0.06752 -0.1929252,-0.06752 -0.3321069,-0.201193 -0.1391818,-0.13367 -0.2163518,-0.333485 -0.075792,-0.199815 -0.075792,-0.461642 0,-0.243913 0.073036,-0.44235 0.073036,-0.198438 0.2122177,-0.340376 0.1336696,-0.136425 0.3307289,-0.210839 0.1984374,-0.07441 0.4327037,-0.07441 0.1295355,0 0.2328883,0.01516 0.1047308,0.01378 0.1929252,0.03721 0.092328,0.02618 0.1667425,0.05926 0.075792,0.03169 0.1322915,0.05926 v 0.497472 h -0.060634 q -0.038585,-0.03307 -0.097841,-0.07855 -0.057878,-0.04548 -0.1322915,-0.08957 -0.075792,-0.0441 -0.1639864,-0.07441 -0.088194,-0.03032 -0.1887911,-0.03032 -0.111621,0 -0.2122177,0.03583 -0.1005968,0.03445 -0.1860351,0.115756 -0.081304,0.07855 -0.1322915,0.208083 -0.049609,0.129536 -0.049609,0.314193 0,0.192925 0.053743,0.32246 0.055121,0.129536 0.1378037,0.20395 0.08406,0.07579 0.187413,0.108865 0.1033528,0.03169 0.2039495,0.03169 0.096463,0 0.1901692,-0.02894 0.095084,-0.02894 0.1750107,-0.07855 0.067524,-0.03996 0.1254014,-0.08544 0.057878,-0.04547 0.095084,-0.07855 h 0.055122 v 0.490581 q -0.07717,0.03445 -0.14745,0.06477 -0.07028,0.03032 -0.1474499,0.05237 -0.1005967,0.02894 -0.1887911,0.0441 -0.088194,0.01516 -0.2425346,0.01516 z"
         id="path1864" />
      <path
         d="M 7.1982975,29.56999 H 6.6512167 L 6.5092789,29.155201 H 5.7486024 L 5.6066646,29.56999 H 5.0733642 L 5.8312846,27.518093 H 6.4403771 Z M 6.3811215,28.778997 6.1289407,28.043125 5.8767599,28.778997 Z"
         id="path1866" />
      <path
         d="m 8.6466146,28.146478 q 0,-0.07717 -0.031695,-0.132292 -0.031695,-0.05512 -0.1088649,-0.08682 -0.053744,-0.02205 -0.1254014,-0.02618 -0.071658,-0.0055 -0.1667425,-0.0055 H 8.0223638 v 0.552593 h 0.1626084 q 0.1267794,0 0.2122177,-0.0124 0.085438,-0.0124 0.1433159,-0.0565 0.055122,-0.04272 0.079926,-0.09371 0.026183,-0.05237 0.026183,-0.139182 z M 9.4720589,29.56999 H 8.8257595 L 8.2662764,28.817582 H 8.0223638 V 29.56999 H 7.4959536 v -2.051897 h 0.887456 q 0.1819009,0 0.3128144,0.02067 0.1309135,0.02067 0.2452906,0.08957 0.1157551,0.0689 0.1832789,0.179145 0.068902,0.108865 0.068902,0.274229 0,0.227376 -0.1061089,0.370692 -0.1047308,0.143316 -0.3004121,0.2384 z"
         id="path1868" />
      <path
         d="m 11.645223,28.546109 q 0,0.286631 -0.130913,0.514007 -0.130914,0.225999 -0.330729,0.347266 -0.150206,0.09095 -0.329351,0.126779 -0.179145,0.03583 -0.424435,0.03583 H 9.7063251 v -2.051897 h 0.7441399 q 0.250803,0 0.432704,0.04272 0.181901,0.04134 0.305924,0.118511 0.212218,0.129536 0.333485,0.350022 0.122645,0.219108 0.122645,0.516764 z m -0.54708,-0.0041 q 0,-0.202571 -0.07441,-0.345887 -0.07304,-0.144694 -0.232889,-0.225998 -0.0813,-0.03996 -0.166742,-0.05374 -0.08406,-0.01516 -0.254937,-0.01516 h -0.13367 v 1.284331 h 0.13367 q 0.188791,0 0.276985,-0.01654 0.0882,-0.01791 0.172255,-0.06339 0.144694,-0.08268 0.212218,-0.220486 0.06752,-0.139182 0.06752,-0.343132 z"
         id="path1870" />
    </g>
    <g
       aria-label="OUT1"
       id="text2294-6"
       style="font-weight:bold;font-size:2.82222px;-inkscape-font-specification:'sans-serif, Bold';stroke-width:0.264583">
      <path
         d="m 25.423769,28.519927 q 0,0.490582 -0.28112,0.779969 -0.281119,0.28801 -0.777213,0.28801 -0.494715,0 -0.775835,-0.28801 -0.281119,-0.289387 -0.281119,-0.779969 0,-0.494715 0.281119,-0.781347 0.28112,-0.288009 0.775835,-0.288009 0.493338,0 0.775835,0.288009 0.282498,0.286632 0.282498,0.781347 z m -0.701421,0.51952 q 0.07717,-0.09371 0.114377,-0.220486 0.03721,-0.128157 0.03721,-0.300412 0,-0.184657 -0.04272,-0.314192 -0.04272,-0.129536 -0.111621,-0.209462 -0.07028,-0.08268 -0.162609,-0.119889 -0.09095,-0.03721 -0.190169,-0.03721 -0.100596,0 -0.190169,0.03583 -0.08819,0.03583 -0.162608,0.118511 -0.0689,0.07717 -0.112999,0.213596 -0.04272,0.135048 -0.04272,0.314192 0,0.183279 0.04134,0.312815 0.04272,0.128157 0.111621,0.209461 0.0689,0.08131 0.16123,0.11989 0.09233,0.03859 0.194303,0.03859 0.101975,0 0.194304,-0.03859 0.09233,-0.03996 0.16123,-0.122646 z"
         id="path1881" />
      <path
         d="m 27.623116,28.802425 q 0,0.380338 -0.23151,0.58291 -0.23151,0.202571 -0.682128,0.202571 -0.450619,0 -0.682129,-0.202571 -0.230132,-0.202572 -0.230132,-0.581532 V 27.49329 h 0.531922 v 1.280196 q 0,0.213596 0.08957,0.318327 0.08957,0.104731 0.290766,0.104731 0.198437,0 0.289387,-0.100597 0.09233,-0.100597 0.09233,-0.322461 V 27.49329 h 0.531922 z"
         id="path1883" />
      <path
         d="m 29.724623,27.890164 h -0.640787 v 1.655023 H 28.55467 V 27.890164 H 27.913882 V 27.49329 h 1.810741 z"
         id="path1885" />
      <path
         d="M 31.517449,29.545187 H 30.14768 v -0.35829 h 0.432704 V 28.102382 H 30.14768 v -0.334863 q 0.09922,0 0.190169,-0.01102 0.09095,-0.0124 0.151584,-0.04134 0.07166,-0.03445 0.107487,-0.08957 0.03583,-0.05512 0.04134,-0.137803 h 0.456131 v 1.699119 h 0.423057 z"
         id="path1887" />
    </g>
    <g
       aria-label="LEFT"
       id="text2294-6-4"
       style="font-weight:bold;font-size:2.82222px;-inkscape-font-specification:'sans-serif, Bold';stroke-width:0.264583">
      <path
         d="M 65.496642,30.939457 H 64.01663 V 28.88756 h 0.529166 v 1.655022 h 0.950846 z"
         id="path1898" />
      <path
         d="M 67.297736,30.939457 H 65.81359 V 28.88756 h 1.484146 v 0.396874 H 66.34 v 0.354156 h 0.888834 v 0.396875 H 66.34 v 0.507117 h 0.957736 z"
         id="path1900" />
      <path
         d="m 69.213208,29.284434 h -0.943956 v 0.381717 h 0.875054 v 0.396874 h -0.875054 v 0.876432 h -0.52641 V 28.88756 h 1.470366 z"
         id="path1902" />
      <path
         d="m 71.183801,29.284434 h -0.640787 v 1.655023 H 70.013848 V 29.284434 H 69.37306 V 28.88756 h 1.810741 z"
         id="path1904" />
    </g>
    <g
       aria-label="RIGHT"
       id="text2294-6-4-3"
       style="font-weight:bold;font-size:2.82222px;-inkscape-font-specification:'sans-serif, Bold';stroke-width:0.264583">
      <path
         d="m 64.018006,75.88425 q 0,-0.07717 -0.03169,-0.132292 -0.03169,-0.05512 -0.108865,-0.08682 -0.05374,-0.02205 -0.125402,-0.02618 -0.07166,-0.0055 -0.166742,-0.0055 h -0.191547 v 0.552593 h 0.162608 q 0.126779,0 0.212218,-0.0124 0.08544,-0.0124 0.143316,-0.0565 0.05512,-0.04272 0.07993,-0.09371 0.02618,-0.05237 0.02618,-0.139182 z m 0.825445,1.423512 h -0.6463 l -0.559483,-0.752408 h -0.243912 v 0.752408 h -0.526411 v -2.051897 h 0.887456 q 0.181901,0 0.312815,0.02067 0.130913,0.02067 0.24529,0.08957 0.115755,0.0689 0.183279,0.179145 0.0689,0.108865 0.0689,0.274229 0,0.227376 -0.106109,0.370692 -0.104731,0.143316 -0.300412,0.2384 z"
         id="path1915" />
      <path
         d="M 66.187037,77.307762 H 64.985388 V 76.94396 h 0.336241 v -1.324293 h -0.336241 v -0.363802 h 1.201649 v 0.363802 h -0.336241 v 1.324293 h 0.336241 z"
         id="path1917" />
      <path
         d="m 68.435994,77.190629 q -0.137804,0.05374 -0.36518,0.107487 -0.227376,0.05237 -0.453375,0.05237 -0.523654,0 -0.819932,-0.283875 -0.296278,-0.285254 -0.296278,-0.78686 0,-0.478178 0.299034,-0.770322 0.299035,-0.293522 0.833713,-0.293522 0.202571,0 0.38585,0.03721 0.183279,0.03583 0.407899,0.144694 v 0.480935 h -0.05925 q -0.03858,-0.02894 -0.112999,-0.08131 -0.07441,-0.05374 -0.143316,-0.09095 -0.07993,-0.0441 -0.187413,-0.07579 -0.106109,-0.03169 -0.225998,-0.03169 -0.14056,0 -0.254937,0.04134 -0.114377,0.04134 -0.205328,0.12678 -0.08682,0.08268 -0.137803,0.210839 -0.04961,0.12678 -0.04961,0.293522 0,0.340375 0.180523,0.520898 0.180523,0.180523 0.5333,0.180523 0.03032,0 0.06615,-0.0014 0.03721,-0.0014 0.06752,-0.0041 V 76.565 h -0.409277 v -0.387228 h 0.946712 z"
         id="path1919" />
      <path
         d="M 70.74834,77.307762 H 70.219173 V 76.40377 h -0.781347 v 0.903992 H 68.90866 v -2.051897 h 0.529166 v 0.75103 h 0.781347 v -0.75103 h 0.529167 z"
         id="path1921" />
      <path
         d="m 72.878786,75.65274 h -0.640788 v 1.655022 H 71.708832 V 75.65274 h -0.640787 v -0.396875 h 1.810741 z"
         id="path1923" />
    </g>
    <g
       aria-label="OUT2"
       id="text2294-0"
       style="font-weight:bold;font-size:2.82222px;-inkscape-font-specification:'sans-serif, Bold';stroke-width:0.264583">
      <path
         d="m 42.751869,28.519927 q 0,0.490582 -0.28112,0.779969 -0.281119,0.28801 -0.777213,0.28801 -0.494715,0 -0.775834,-0.28801 -0.28112,-0.289387 -0.28112,-0.779969 0,-0.494715 0.28112,-0.781347 0.281119,-0.288009 0.775834,-0.288009 0.493338,0 0.775835,0.288009 0.282498,0.286632 0.282498,0.781347 z m -0.701421,0.51952 q 0.07717,-0.09371 0.114377,-0.220486 0.03721,-0.128157 0.03721,-0.300412 0,-0.184657 -0.04272,-0.314192 -0.04272,-0.129536 -0.111621,-0.209462 -0.07028,-0.08268 -0.162608,-0.119889 -0.09095,-0.03721 -0.190169,-0.03721 -0.100597,0 -0.19017,0.03583 -0.08819,0.03583 -0.162608,0.118511 -0.0689,0.07717 -0.112999,0.213596 -0.04272,0.135048 -0.04272,0.314192 0,0.183279 0.04134,0.312815 0.04272,0.128157 0.111621,0.209461 0.0689,0.08131 0.16123,0.11989 0.09233,0.03859 0.194304,0.03859 0.101974,0 0.194303,-0.03859 0.09233,-0.03996 0.16123,-0.122646 z"
         id="path1936" />
      <path
         d="m 44.951216,28.802425 q 0,0.380338 -0.23151,0.58291 -0.23151,0.202571 -0.682128,0.202571 -0.450618,0 -0.682129,-0.202571 -0.230132,-0.202572 -0.230132,-0.581532 V 27.49329 h 0.531922 v 1.280196 q 0,0.213596 0.08957,0.318327 0.08957,0.104731 0.290766,0.104731 0.198437,0 0.289388,-0.100597 0.09233,-0.100597 0.09233,-0.322461 V 27.49329 h 0.531922 z"
         id="path1938" />
      <path
         d="m 47.052723,27.890164 h -0.640787 v 1.655023 H 45.88277 V 27.890164 H 45.241983 V 27.49329 h 1.81074 z"
         id="path1940" />
      <path
         d="M 48.975085,29.545187 H 47.364159 V 29.20619 q 0.184657,-0.13367 0.369314,-0.283876 0.186035,-0.150206 0.297656,-0.259071 0.166743,-0.16123 0.237023,-0.281119 0.07028,-0.11989 0.07028,-0.237023 0,-0.14056 -0.09095,-0.216352 -0.08957,-0.07717 -0.259071,-0.07717 -0.126779,0 -0.267339,0.05237 -0.139182,0.05236 -0.259071,0.133669 h -0.0441 v -0.45613 q 0.09784,-0.04272 0.288009,-0.08544 0.191548,-0.04272 0.383095,-0.04272 0.38585,0 0.588422,0.162608 0.202571,0.16123 0.202571,0.457508 0,0.194304 -0.09784,0.369314 -0.09646,0.175011 -0.296278,0.361046 -0.125402,0.115755 -0.252181,0.213596 -0.12678,0.09646 -0.180523,0.135047 h 0.921907 z"
         id="path1942" />
    </g>
    <g
       id="path6726">
      <path
         style="color:#000000;fill:#000000;-inkscape-stroke:none"
         d="M 64.308594,17.298828 V 17.5625 h 2.425781 v 6.800781 h 0.263672 v -7.064453 z"
         id="path1965" />
      <g
         id="g1955">
        <g
           id="path1957">
          <path
             style="color:#000000;fill:#000000;fill-rule:evenodd;stroke-width:0.211666pt;-inkscape-stroke:none"
             d="m 66.866298,21.718046 -1.058332,-1.058332 1.058332,3.704162 1.058332,-3.704162 z"
             id="path1961" />
          <path
             style="color:#000000;fill:#000000;fill-rule:evenodd;-inkscape-stroke:none"
             d="m 65.523437,20.175781 1.34375,4.701172 1.341797,-4.701172 -1.341797,1.34375 z m 0.56836,0.966797 0.77539,0.775391 0.09961,-0.09961 0.671875,-0.673828 -0.771485,2.705078 z"
             id="path1963" />
        </g>
      </g>
    </g>
    <g
       id="path6726-3">
      <path
         style="color:#000000;fill:#000000;-inkscape-stroke:none"
         d="m 66.861328,110.62109 v 7.03125 h -2.806641 v 0.26368 H 67.125 v -7.29493 z"
         id="path1979" />
      <g
         id="g1969">
        <g
           id="path1971">
          <path
             style="color:#000000;fill:#000000;fill-rule:evenodd;stroke-width:0.211666pt;-inkscape-stroke:none"
             d="m 66.993599,113.26753 1.058332,1.05833 -1.058332,-3.70416 -1.058332,3.70416 z"
             id="path1975" />
          <path
             style="color:#000000;fill:#000000;fill-rule:evenodd;-inkscape-stroke:none"
             d="m 66.994141,110.10742 -1.34375,4.70313 1.34375,-1.34375 1.34375,1.34375 z m -0.002,1.02735 0.773438,2.70507 -0.771484,-0.77148 -0.09961,0.0996 -0.675781,0.67578 z"
             id="path1977" />
        </g>
      </g>
    </g>
    <g
       id="path7426">
      <path
         style="color:#000000;fill:#000000;-inkscape-stroke:none"
         d="m 26.896484,34.609375 v 87.039065 h 27.607422 v -0.26563 H 27.162109 V 34.609375 Z"
         id="path1993" />
      <g
         id="g1983">
        <g
           id="path1985">
          <path
             style="color:#000000;fill:#000000;fill-rule:evenodd;stroke-width:0.211666pt;-inkscape-stroke:none"
             d="m 51.857318,121.51541 -1.058332,1.05833 3.704162,-1.05833 -3.704162,-1.05833 z"
             id="path1989" />
          <path
             style="color:#000000;fill:#000000;fill-rule:evenodd;-inkscape-stroke:none"
             d="m 50.314453,120.17188 1.34375,1.34375 -1.34375,1.34375 4.703125,-1.34375 z m 0.966797,0.56835 2.708984,0.7754 -2.705078,0.77148 0.771485,-0.77148 -0.09961,-0.0996 z"
             id="path1991" />
        </g>
      </g>
    </g>
    <g
       id="path7428">
      <path
         style="color:#000000;fill:#000000;-inkscape-stroke:none"
         d="m 27.021484,13.072266 v 11.902343 h 0.263672 V 13.335938 h 27.21875 v -0.263672 z"
         id="path2007" />
      <g
         id="g1997">
        <g
           id="path1999">
          <path
             style="color:#000000;fill:#000000;fill-rule:evenodd;stroke-width:0.211666pt;-inkscape-stroke:none"
             d="m 51.857318,13.204509 -1.058332,1.058332 3.704162,-1.058332 -3.704162,-1.058332 z"
             id="path2003" />
          <path
             style="color:#000000;fill:#000000;fill-rule:evenodd;-inkscape-stroke:none"
             d="m 50.314453,11.861328 1.34375,1.34375 -1.34375,1.34375 4.703125,-1.34375 z m 0.966797,0.56836 2.708984,0.773437 -2.705078,0.773438 0.771485,-0.771485 -0.09961,-0.09961 z"
             id="path2005" />
        </g>
      </g>
    </g>
    <g
       id="path7430">
      <path
         style="color:#000000;fill:#000000;-inkscape-stroke:none"
         d="m 44.150391,20.253906 v 4.035156 h 0.265625 v -3.771484 h 10.08789 v -0.263672 z"
         id="path2021" />
      <g
         id="g2011">
        <g
           id="path2013">
          <path
             style="color:#000000;fill:#000000;fill-rule:evenodd;stroke-width:0.211666pt;-inkscape-stroke:none"
             d="m 51.857318,20.38617 -1.058332,1.058332 3.704162,-1.058332 -3.704162,-1.058332 z"
             id="path2017" />
          <path
             style="color:#000000;fill:#000000;fill-rule:evenodd;-inkscape-stroke:none"
             d="m 50.314453,19.042969 1.34375,1.34375 -1.34375,1.34375 4.703125,-1.34375 z m 0.966797,0.568359 2.708984,0.775391 -2.705078,0.771484 0.771485,-0.771484 -0.09961,-0.09961 z"
             id="path2019" />
        </g>
      </g>
    </g>
    <g
       id="path7432">
      <path
         style="color:#000000;fill:#000000;-inkscape-stroke:none"
         d="m 44.306641,34.75 v 78.63477 h 10.197265 v -0.26563 h -9.93164 V 34.75 Z"
         id="path2035" />
      <g
         id="g2025">
        <g
           id="path2027">
          <path
             style="color:#000000;fill:#000000;fill-rule:evenodd;stroke-width:0.211666pt;-inkscape-stroke:none"
             d="m 51.857318,113.25171 -1.058332,1.05833 3.704162,-1.05833 -3.704162,-1.05833 z"
             id="path2031" />
          <path
             style="color:#000000;fill:#000000;fill-rule:evenodd;-inkscape-stroke:none"
             d="m 50.314453,111.9082 1.34375,1.34375 -1.34375,1.34375 4.703125,-1.34375 z m 0.966797,0.56836 2.708984,0.77344 -2.705078,0.77344 0.771485,-0.77149 -0.09961,-0.0996 z"
             id="path2033" />
        </g>
      </g>
    </g>
    <path
       style="color:#000000;fill:#000000;-inkscape-stroke:none"
       d="M 56.582031,29.677734 V 63.400391 H 77.78125 V 29.908203 H 77.517578 V 63.134766 H 56.845703 V 29.677734 Z"
       id="path7938" />
    <path
       style="color:#000000;fill:#000000;-inkscape-stroke:none"
       d="m 56.582031,72.119141 v 33.490239 h 0.263672 V 72.382812 H 77.517578 V 105.83984 H 77.78125 V 72.119141 Z"
       id="path7938-5" />
    <g
       id="g1468"
       transform="translate(-5.0792297,1.455547)">
      <g
         aria-label="AUDIO OUT"
         id="text23912-0"
         style="font-size:5.24991px;font-family:'.Keyboard';-inkscape-font-specification:'.Keyboard, Normal';stroke-width:0.131248">
        <path
           d="M 54.791425,7.0217348 H 53.281564 L 52.902176,8.1086302 H 52.40487 L 53.801941,4.31475 h 0.469108 l 1.399634,3.7938802 H 55.173377 Z M 53.422552,6.6218393 H 54.653 L 54.058284,4.9274104 h -0.04358 z"
           id="path2045" />
        <path
           d="m 56.740916,6.7730818 q 0,0.2153284 0.06921,0.3973321 0.06921,0.1820037 0.199947,0.3127387 0.133299,0.1307351 0.325556,0.2050746 0.194821,0.07434 0.440911,0.07434 0.246089,0 0.438347,-0.07434 0.192257,-0.074339 0.322992,-0.2050746 Q 58.671178,7.3524176 58.74039,7.1704139 58.8096,6.9884102 58.8096,6.7730818 V 4.31475 h 0.471672 v 2.489093 q 0,0.3050485 -0.102538,0.5613917 -0.102537,0.2537799 -0.297358,0.4409104 -0.194821,0.1845672 -0.474235,0.2896679 -0.27685,0.1025373 -0.630604,0.1025373 -0.353754,0 -0.633168,-0.1025373 Q 56.863961,7.9907123 56.66914,7.8061451 56.474319,7.6190146 56.371782,7.3652347 56.269244,7.1088915 56.269244,6.803843 V 4.31475 h 0.471672 z"
           id="path2047" />
        <path
           d="m 61.564014,4.31475 q 0.422967,0 0.753649,0.1281716 0.333247,0.1281717 0.563956,0.3716977 0.230709,0.2435261 0.35119,0.5972798 0.123045,0.3511903 0.123045,0.799791 0,0.4486007 -0.123045,0.8023544 -0.120481,0.3511902 -0.35119,0.5947163 -0.228146,0.2435261 -0.561392,0.3716978 -0.333246,0.1281716 -0.756213,0.1281716 h -1.29966 V 4.31475 Z m -0.827988,3.3683504 h 0.797227 q 0.317866,0 0.566519,-0.09741 0.248653,-0.099974 0.420403,-0.2871044 0.17175,-0.189694 0.26147,-0.4614179 0.08972,-0.2742873 0.08972,-0.6203506 0,-0.3486269 -0.09228,-0.6229142 Q 62.689365,5.3196161 62.517615,5.129922 62.345865,4.940228 62.097212,4.8402542 61.848559,4.7402802 61.533257,4.7402802 H 60.73603 Z"
           id="path2049" />
        <path
           d="M 64.347902,8.1086302 V 4.31475 h 0.471672 v 3.7938802 z"
           id="path2051" />
        <path
           d="m 67.559884,4.2250299 q 0.405022,0 0.725451,0.1409887 0.322993,0.1384254 0.546011,0.3973321 0.225582,0.2563432 0.3435,0.6254775 0.120482,0.3665709 0.120482,0.8228619 0,0.4537276 -0.120482,0.8202984 -0.117918,0.3665709 -0.340936,0.628041 -0.223019,0.2589067 -0.546011,0.3998955 -0.32043,0.1384253 -0.728015,0.1384253 -0.407586,0 -0.730579,-0.1384253 Q 66.506313,7.9189362 66.280731,7.6600295 66.055149,7.4011228 65.934667,7.0345519 65.81675,6.6654177 65.81675,6.2116901 q 0,-0.456291 0.120481,-0.8228619 0.123045,-0.3691343 0.348627,-0.6280409 0.228145,-0.2589067 0.548574,-0.3973321 0.322993,-0.1384253 0.725452,-0.1384253 z m 0,0.4357835 q -0.289668,0 -0.522941,0.1102276 -0.230709,0.1076642 -0.394768,0.3101753 -0.16406,0.1999478 -0.251217,0.4870522 -0.08716,0.2871045 -0.08716,0.6434216 0,0.3537537 0.08459,0.6408581 0.08716,0.284541 0.248653,0.4870522 0.161496,0.2025112 0.394769,0.3127388 0.233272,0.1102276 0.528067,0.1102276 0.292231,0 0.52294,-0.1102276 0.233272,-0.1102276 0.392205,-0.3127388 0.161496,-0.2025112 0.24609,-0.4870522 0.08716,-0.2871044 0.08716,-0.6408581 0,-0.3563171 -0.08716,-0.6434216 Q 68.636525,5.2811641 68.475029,5.0812163 68.313533,4.8787052 68.082824,4.771041 67.852115,4.6608134 67.559884,4.6608134 Z"
           id="path2053" />
        <path
           d="m 73.466033,4.2250299 q 0.405022,0 0.725451,0.1409887 0.322992,0.1384254 0.546011,0.3973321 0.225582,0.2563432 0.3435,0.6254775 0.120481,0.3665709 0.120481,0.8228619 0,0.4537276 -0.120481,0.8202984 -0.117918,0.3665709 -0.340936,0.628041 -0.223019,0.2589067 -0.546012,0.3998955 -0.320429,0.1384253 -0.728014,0.1384253 -0.407586,0 -0.730579,-0.1384253 Q 72.412462,7.9189362 72.18688,7.6600295 71.961298,7.4011228 71.840816,7.0345519 71.722898,6.6654177 71.722898,6.2116901 q 0,-0.456291 0.120482,-0.8228619 0.123045,-0.3691343 0.348627,-0.6280409 0.228145,-0.2589067 0.548574,-0.3973321 0.322993,-0.1384253 0.725452,-0.1384253 z m 0,0.4357835 q -0.289668,0 -0.522941,0.1102276 -0.230709,0.1076642 -0.394768,0.3101753 -0.16406,0.1999478 -0.251217,0.4870522 -0.08716,0.2871045 -0.08716,0.6434216 0,0.3537537 0.08459,0.6408581 0.08716,0.284541 0.248653,0.4870522 0.161496,0.2025112 0.394768,0.3127388 0.233273,0.1102276 0.528068,0.1102276 0.292231,0 0.52294,-0.1102276 0.233272,-0.1102276 0.392205,-0.3127388 0.161496,-0.2025112 0.24609,-0.4870522 0.08716,-0.2871044 0.08716,-0.6408581 0,-0.3563171 -0.08716,-0.6434216 Q 74.542674,5.2811641 74.381178,5.0812163 74.219682,4.8787052 73.988973,4.771041 73.758264,4.6608134 73.466033,4.6608134 Z"
           id="path2055" />
        <path
           d="m 76.508826,6.7730818 q 0,0.2153284 0.06921,0.3973321 0.06921,0.1820037 0.199947,0.3127387 0.133299,0.1307351 0.325556,0.2050746 0.194821,0.07434 0.440911,0.07434 0.246089,0 0.438347,-0.07434 0.192257,-0.074339 0.322992,-0.2050746 0.133299,-0.130735 0.202511,-0.3127387 0.06921,-0.1820037 0.06921,-0.3973321 V 4.31475 h 0.471671 v 2.489093 q 0,0.3050485 -0.102537,0.5613917 -0.102537,0.2537799 -0.297358,0.4409104 -0.194821,0.1845672 -0.474235,0.2896679 -0.276851,0.1025373 -0.630604,0.1025373 -0.353754,0 -0.633168,-0.1025373 Q 76.631871,7.9907123 76.43705,7.8061451 76.242229,7.6190146 76.139692,7.3652347 76.037154,7.1088915 76.037154,6.803843 V 4.31475 h 0.471672 z"
           id="path2057" />
        <path
           d="M 81.017904,8.1086302 V 4.7402798 H 79.795147 V 4.31475 h 2.919749 v 0.4255298 h -1.222757 v 3.3683504 z"
           id="path2059" />
      </g>
      <path
         style="color:#000000;fill:#110000;-inkscape-stroke:none"
         d="m 38.494141,4.2265625 -1.5625,0.076172 -0.03711,3.6816406 -1.322265,0.019531 -2.5,-3.6816407 -1.421875,0.011719 0.05273,3.6171875 -2.681641,-0.058594 -0.01172,-3.5527344 -1.533204,0.033203 0.01172,3.2578125 -2.52539,-3.3046875 -0.01953,3.5761718 -1.302734,0.019531 -2.416016,-3.6308594 -1.365234,0.044922 0.07227,3.7089844 -2.707032,0.019531 0.03906,-3.75 -1.355469,0.025391 -2.613281,3.5878907 0.107422,0.076172 2.574219,-3.5351563 1.156249,-0.021484 -0.04102,3.75 2.974609,-0.021484 -0.07227,-3.7128907 1.160156,-0.039063 2.416015,3.6308594 1.501954,-0.023437 0.01953,-3.3203125 2.529297,3.3085938 -0.01172,-3.5175782 1.269531,-0.027344 0.01172,3.546875 2.945312,0.0625 -0.05273,-3.6210938 1.220703,-0.00977 2.498047,3.6835938 1.521484,-0.023437 0.03906,-3.6855469 1.304687,-0.0625 0.13086,3.8027344 2.960937,-0.00195 -0.144531,-3.7441406 1.382813,-0.00977 0.06055,3.7597656 2.513672,-0.035156 0.06055,-3.7421876 1.498047,0.00781 2.164063,3.7812501 0.115234,-0.064453 -2.201172,-3.8457031 -1.705078,-0.011719 -0.06055,3.7460938 -2.255859,0.03125 -0.06055,-3.7578125 -1.646485,0.00977 0.142579,3.7441407 -2.697266,0.00195 z"
         id="path22502" />
    </g>
    <g
       aria-label="BEYOND OBNOXIOUS"
       id="text23912-2"
       style="font-size:2.11667px;font-family:'.Keyboard';-inkscape-font-specification:'.Keyboard, Normal';stroke-width:0.131248"
       transform="translate(32.103554)">
      <path
         d="m 8.2164516,125.6888 v -1.52963 h 0.5849781 q 0.10542,0 0.189136,0.0269 0.083716,0.0269 0.1426272,0.0765 0.058911,0.0496 0.089917,0.11988 0.031006,0.0703 0.031006,0.15813 0,0.06 -0.020671,0.11576 -0.020671,0.0548 -0.056844,0.0992 -0.03514,0.0444 -0.083716,0.0754 -0.047542,0.03 -0.103353,0.0393 v 0.0176 q 0.078548,0.009 0.1415936,0.0403 0.063045,0.031 0.1074872,0.0796 0.044442,0.0486 0.068213,0.11266 0.024805,0.0641 0.024805,0.13952 0,0.10129 -0.03514,0.18087 -0.03514,0.0796 -0.1023194,0.13436 -0.066146,0.0548 -0.1632978,0.0847 -0.096118,0.0289 -0.2180749,0.0289 z m 0.1901695,-0.87024 h 0.305925 q 0.3482997,0 0.3482997,-0.24494 0,-0.11782 -0.078548,-0.1819 -0.078548,-0.0641 -0.2211755,-0.0641 H 8.4066211 Z m 0.3772386,0.70177 q 0.173633,0 0.2625166,-0.0682 0.088884,-0.0682 0.088884,-0.20257 0,-0.13333 -0.093018,-0.19947 -0.091984,-0.0672 -0.2759526,-0.0672 H 8.4066211 v 0.53743 z"
         id="path2234" />
      <path
         d="M 10.59047,125.6888 H 9.6427232 v -1.52963 H 10.59047 v 0.17157 H 9.8328928 v 0.49093 h 0.7183032 v 0.16949 H 9.8328928 v 0.52607 H 10.59047 Z"
         id="path2231" />
      <path
         d="m 11.358383,125.6888 v -0.65836 l -0.542603,-0.87127 h 0.217041 l 0.412379,0.67903 h 0.01654 l 0.412379,-0.67903 h 0.218075 l -0.542603,0.87127 v 0.65836 z"
         id="path2228" />
      <path
         d="m 13.005831,124.123 q 0.163298,0 0.292489,0.0568 0.130225,0.0558 0.220142,0.1602 0.09095,0.10335 0.138493,0.25218 0.04858,0.1478 0.04858,0.33176 0,0.18294 -0.04858,0.33073 -0.04754,0.1478 -0.13746,0.25322 -0.08992,0.10439 -0.220142,0.16123 -0.129191,0.0558 -0.293522,0.0558 -0.164331,0 -0.294556,-0.0558 -0.130225,-0.0568 -0.221176,-0.16123 -0.09095,-0.10439 -0.139526,-0.25218 -0.04754,-0.14883 -0.04754,-0.33177 0,-0.18396 0.04858,-0.33176 0.04961,-0.14883 0.14056,-0.25321 0.09199,-0.10439 0.221176,-0.1602 0.130225,-0.0558 0.292489,-0.0558 z m 0,0.1757 q -0.116789,0 -0.21084,0.0444 -0.09302,0.0434 -0.159164,0.12506 -0.06615,0.0806 -0.101286,0.19637 -0.03514,0.11575 -0.03514,0.25941 0,0.14263 0.03411,0.25839 0.03514,0.11472 0.100252,0.19637 0.06511,0.0817 0.159164,0.12609 0.09405,0.0444 0.212907,0.0444 0.117822,0 0.21084,-0.0444 0.09405,-0.0444 0.15813,-0.12609 0.06511,-0.0816 0.09922,-0.19637 0.03514,-0.11576 0.03514,-0.25839 0,-0.14366 -0.03514,-0.25941 -0.03411,-0.11576 -0.09922,-0.19637 -0.06511,-0.0816 -0.15813,-0.12506 -0.09302,-0.0444 -0.21084,-0.0444 z"
         id="path2225" />
      <path
         d="m 14.037294,125.6888 v -1.52963 h 0.185002 l 0.829925,1.19063 h 0.01757 v -1.19063 h 0.188102 v 1.52963 h -0.185002 l -0.829925,-1.1865 h -0.01757 v 1.1865 z"
         id="path2222" />
      <path
         d="m 16.173601,124.15917 q 0.170532,0 0.303858,0.0517 0.134359,0.0517 0.227376,0.14986 0.09302,0.0982 0.141594,0.24081 0.04961,0.1416 0.04961,0.32246 0,0.18087 -0.04961,0.3235 -0.04858,0.14159 -0.141594,0.23978 -0.09198,0.0982 -0.226343,0.14986 -0.134359,0.0517 -0.304891,0.0517 h -0.524 v -1.52963 z m -0.333831,1.35806 h 0.321428 q 0.128158,0 0.228411,-0.0393 0.100252,-0.0403 0.169498,-0.11576 0.06925,-0.0765 0.105421,-0.18603 0.03617,-0.11059 0.03617,-0.25012 0,-0.14056 -0.03721,-0.25115 -0.03617,-0.11058 -0.10542,-0.18707 -0.06925,-0.0765 -0.169499,-0.11678 -0.100252,-0.0403 -0.227377,-0.0403 H 15.83977 Z"
         id="path2219" />
      <path
         d="m 18.574492,124.123 q 0.163297,0 0.292489,0.0568 0.130224,0.0558 0.220142,0.1602 0.09095,0.10335 0.138493,0.25218 0.04858,0.1478 0.04858,0.33176 0,0.18294 -0.04858,0.33073 -0.04754,0.1478 -0.13746,0.25322 -0.08992,0.10439 -0.220142,0.16123 -0.129191,0.0558 -0.293522,0.0558 -0.164332,0 -0.294557,-0.0558 -0.130224,-0.0568 -0.221175,-0.16123 -0.09095,-0.10439 -0.139527,-0.25218 -0.04754,-0.14883 -0.04754,-0.33177 0,-0.18396 0.04858,-0.33176 0.04961,-0.14883 0.14056,-0.25321 0.09198,-0.10439 0.221176,-0.1602 0.130224,-0.0558 0.292489,-0.0558 z m 0,0.1757 q -0.116789,0 -0.210841,0.0444 -0.09302,0.0434 -0.159163,0.12506 -0.06615,0.0806 -0.101286,0.19637 -0.03514,0.11575 -0.03514,0.25941 0,0.14263 0.03411,0.25839 0.03514,0.11472 0.100253,0.19637 0.06511,0.0817 0.159163,0.12609 0.09405,0.0444 0.212908,0.0444 0.117822,0 0.21084,-0.0444 0.09405,-0.0444 0.15813,-0.12609 0.06511,-0.0816 0.09922,-0.19637 0.03514,-0.11576 0.03514,-0.25839 0,-0.14366 -0.03514,-0.25941 -0.03411,-0.11576 -0.09922,-0.19637 -0.06511,-0.0816 -0.15813,-0.12506 -0.09302,-0.0444 -0.21084,-0.0444 z"
         id="path2216" />
      <path
         d="m 19.605955,125.6888 v -1.52963 h 0.584978 q 0.10542,0 0.189136,0.0269 0.08372,0.0269 0.142627,0.0765 0.05891,0.0496 0.08992,0.11988 0.03101,0.0703 0.03101,0.15813 0,0.06 -0.02067,0.11576 -0.02067,0.0548 -0.05684,0.0992 -0.03514,0.0444 -0.08372,0.0754 -0.04754,0.03 -0.103353,0.0393 v 0.0176 q 0.07855,0.009 0.141593,0.0403 0.06305,0.031 0.107487,0.0796 0.04444,0.0486 0.06821,0.11266 0.02481,0.0641 0.02481,0.13952 0,0.10129 -0.03514,0.18087 -0.03514,0.0796 -0.102319,0.13436 -0.06615,0.0548 -0.163298,0.0847 -0.09612,0.0289 -0.218075,0.0289 z m 0.19017,-0.87024 h 0.305925 q 0.348299,0 0.348299,-0.24494 0,-0.11782 -0.07855,-0.1819 -0.07855,-0.0641 -0.221176,-0.0641 h -0.3545 z m 0.377238,0.70177 q 0.173633,0 0.262517,-0.0682 0.08888,-0.0682 0.08888,-0.20257 0,-0.13333 -0.09302,-0.19947 -0.09199,-0.0672 -0.275953,-0.0672 h -0.359668 v 0.53743 z"
         id="path2213" />
      <path
         d="m 21.032226,125.6888 v -1.52963 h 0.185002 l 0.829925,1.19063 h 0.01757 v -1.19063 h 0.188103 v 1.52963 h -0.185002 l -0.829925,-1.1865 h -0.01757 v 1.1865 z"
         id="path2210" />
      <path
         d="m 23.287389,124.123 q 0.163298,0 0.292489,0.0568 0.130225,0.0558 0.220142,0.1602 0.09095,0.10335 0.138493,0.25218 0.04858,0.1478 0.04858,0.33176 0,0.18294 -0.04858,0.33073 -0.04754,0.1478 -0.13746,0.25322 -0.08992,0.10439 -0.220142,0.16123 -0.129191,0.0558 -0.293522,0.0558 -0.164331,0 -0.294556,-0.0558 -0.130225,-0.0568 -0.221176,-0.16123 -0.09095,-0.10439 -0.139526,-0.25218 -0.04754,-0.14883 -0.04754,-0.33177 0,-0.18396 0.04858,-0.33176 0.04961,-0.14883 0.14056,-0.25321 0.09198,-0.10439 0.221176,-0.1602 0.130225,-0.0558 0.292489,-0.0558 z m 0,0.1757 q -0.116789,0 -0.21084,0.0444 -0.09302,0.0434 -0.159164,0.12506 -0.06615,0.0806 -0.101286,0.19637 -0.03514,0.11575 -0.03514,0.25941 0,0.14263 0.03411,0.25839 0.03514,0.11472 0.100252,0.19637 0.06511,0.0817 0.159164,0.12609 0.09405,0.0444 0.212907,0.0444 0.117822,0 0.21084,-0.0444 0.09405,-0.0444 0.15813,-0.12609 0.06511,-0.0816 0.09922,-0.19637 0.03514,-0.11576 0.03514,-0.25839 0,-0.14366 -0.03514,-0.25941 -0.03411,-0.11576 -0.09922,-0.19637 -0.06511,-0.0816 -0.15813,-0.12506 -0.09302,-0.0444 -0.21084,-0.0444 z"
         id="path2207" />
      <path
         d="m 24.742601,124.91882 -0.517799,-0.75965 h 0.230477 l 0.403077,0.60875 h 0.01654 l 0.409278,-0.60875 h 0.217041 l -0.530201,0.76895 0.518832,0.76068 h -0.229444 l -0.399976,-0.60358 h -0.01757 l -0.407211,0.60358 h -0.217041 z"
         id="path2204" />
      <path
         d="m 25.866047,125.6888 v -1.52963 h 0.190169 v 1.52963 z"
         id="path2201" />
      <path
         d="m 27.161061,124.123 q 0.163298,0 0.292489,0.0568 0.130225,0.0558 0.220142,0.1602 0.09095,0.10335 0.138493,0.25218 0.04858,0.1478 0.04858,0.33176 0,0.18294 -0.04858,0.33073 -0.04754,0.1478 -0.137459,0.25322 -0.08992,0.10439 -0.220142,0.16123 -0.129191,0.0558 -0.293523,0.0558 -0.164331,0 -0.294556,-0.0558 -0.130225,-0.0568 -0.221175,-0.16123 -0.09095,-0.10439 -0.139527,-0.25218 -0.04754,-0.14883 -0.04754,-0.33177 0,-0.18396 0.04858,-0.33176 0.04961,-0.14883 0.14056,-0.25321 0.09198,-0.10439 0.221175,-0.1602 0.130225,-0.0558 0.292489,-0.0558 z m 0,0.1757 q -0.116789,0 -0.21084,0.0444 -0.09302,0.0434 -0.159163,0.12506 -0.06615,0.0806 -0.101286,0.19637 -0.03514,0.11575 -0.03514,0.25941 0,0.14263 0.03411,0.25839 0.03514,0.11472 0.100252,0.19637 0.06511,0.0817 0.159164,0.12609 0.09405,0.0444 0.212907,0.0444 0.117823,0 0.210841,-0.0444 0.09405,-0.0444 0.15813,-0.12609 0.06511,-0.0816 0.09922,-0.19637 0.03514,-0.11576 0.03514,-0.25839 0,-0.14366 -0.03514,-0.25941 -0.03411,-0.11576 -0.09922,-0.19637 -0.06511,-0.0816 -0.15813,-0.12506 -0.09302,-0.0444 -0.210841,-0.0444 z"
         id="path2198" />
      <path
         d="m 28.387861,125.15033 q 0,0.0868 0.02791,0.16019 0.02791,0.0734 0.08062,0.1261 0.05374,0.0527 0.131258,0.0827 0.07855,0.03 0.177767,0.03 0.09922,0 0.176734,-0.03 0.07752,-0.03 0.130225,-0.0827 0.05374,-0.0527 0.08165,-0.1261 0.02791,-0.0734 0.02791,-0.16019 v -0.99116 h 0.19017 v 1.00356 q 0,0.12299 -0.04134,0.22634 -0.04134,0.10232 -0.119889,0.17777 -0.07855,0.0744 -0.191203,0.11679 -0.111622,0.0413 -0.254249,0.0413 -0.142627,0 -0.255282,-0.0413 -0.112654,-0.0424 -0.191203,-0.11679 -0.07855,-0.0755 -0.119889,-0.17777 -0.04134,-0.10335 -0.04134,-0.22634 v -1.00356 h 0.190169 z"
         id="path2195" />
      <path
         d="m 29.928855,125.28882 q 0.0083,0.06 0.04031,0.10852 0.03204,0.0486 0.08268,0.0827 0.05168,0.0341 0.11989,0.0527 0.06821,0.0186 0.149862,0.0186 0.07751,0 0.142627,-0.0196 0.06511,-0.0196 0.112655,-0.0548 0.04857,-0.0351 0.07545,-0.0837 0.02687,-0.0486 0.02687,-0.10542 0,-0.0982 -0.07441,-0.16227 -0.07338,-0.0641 -0.232544,-0.10335 l -0.195338,-0.0506 q -0.104386,-0.0258 -0.179834,-0.0631 -0.07441,-0.0372 -0.12299,-0.0879 -0.04754,-0.0506 -0.07131,-0.11472 -0.02274,-0.0651 -0.02274,-0.14676 0,-0.0971 0.03824,-0.17777 0.03927,-0.0806 0.110588,-0.13746 0.07131,-0.0579 0.170533,-0.0889 0.100252,-0.032 0.221175,-0.032 0.110588,0 0.205673,0.032 0.09508,0.031 0.165364,0.0868 0.07028,0.0558 0.112655,0.13333 0.04237,0.0775 0.04858,0.17053 h -0.192236 q -0.0093,-0.0589 -0.03824,-0.10438 -0.02791,-0.0465 -0.07338,-0.0785 -0.04444,-0.0331 -0.104386,-0.0496 -0.05891,-0.0176 -0.130225,-0.0176 -0.07648,0 -0.139527,0.0186 -0.06201,0.0186 -0.106453,0.0527 -0.04341,0.0331 -0.06821,0.0806 -0.02377,0.0475 -0.02377,0.10542 0,0.0444 0.01654,0.0806 0.01654,0.0351 0.05168,0.0651 0.03514,0.0289 0.09095,0.0527 0.05581,0.0238 0.135393,0.0434 l 0.160197,0.0424 q 0.118856,0.03 0.202572,0.0692 0.08372,0.0383 0.137459,0.0899 0.05374,0.0517 0.07855,0.11782 0.0248,0.0662 0.0248,0.1509 0,0.10542 -0.04031,0.1912 -0.03927,0.0847 -0.113689,0.1447 -0.07441,0.0589 -0.179834,0.091 -0.10542,0.0331 -0.236678,0.0331 -0.121957,0 -0.223243,-0.031 -0.101286,-0.031 -0.1757,-0.0879 -0.07441,-0.0568 -0.118856,-0.13745 -0.04341,-0.0806 -0.05064,-0.17984 z"
         id="path2192" />
    </g>
  </g>
</svg>
