M48
; DRILL file {KiCad (6.0.7-1)-1} date Wednesday, February 15, 2023 at 10:08:58 PM
; FORMAT={-:-/ absolute / inch / decimal}
; #@! TF.CreationDate,2023-02-15T22:08:58-08:00
; #@! TF.GenerationSoftware,Kicad,Pcbnew,(6.0.7-1)-1
; #@! TF.FileFunction,Plated,1,4,PTH
FMAT,2
INCH
; #@! TA.AperFunction,Plated,PTH,ViaDrill
T1C0.0157
; #@! TA.AperFunction,Plated,PTH,ViaDrill
T2C0.0197
; #@! TA.AperFunction,Plated,PTH,ComponentDrill
T3C0.0236
; #@! TA.AperFunction,Plated,PTH,ComponentDrill
T4C0.0295
; #@! TA.AperFunction,Plated,PTH,ComponentDrill
T5C0.0394
%
G90
G05
T1
X0.185Y0.4921
X0.2008Y0.8071
X0.2874Y2.1929
X0.2953Y0.563
X0.3583Y1.6102
X0.3661Y0.6496
X0.374Y2.4921
X0.4291Y0.7205
X0.437Y0.311
X0.4528Y1.3957
X0.4764Y0.4134
X0.5Y2.0354
X0.5787Y2.4449
X0.5866Y1.6024
X0.6024Y0.8543
X0.6102Y1.6654
X0.6181Y1.3484
X0.6181Y0.2244
X0.689Y2.5472
X0.689Y1.9646
X0.8228Y1.8228
X0.8228Y1.6024
X0.8228Y1.185
X0.8543Y0.626
X0.8543Y0.2087
X0.9114Y0.5794
X0.9252Y0.8701
X0.9409Y1.437
X0.9507Y0.2224
X0.9882Y0.7992
X0.9902Y0.5787
X1.0039Y2.0039
X1.0354Y2.4921
X1.0354Y0.5394
X1.0512Y1.8937
X1.0841Y2.4148
X1.122Y1.2323
X1.1614Y2.5394
X1.2087Y2.2976
X1.2087Y1.8858
X1.2323Y2.0748
X1.2323Y1.9488
X1.2795Y2.2953
X1.2795Y2.0984
X1.2874Y1.9567
X1.3031Y0.5472
X1.3031Y0.3504
X1.3583Y0.9488
X1.4134Y0.2165
X1.4528Y0.9567
X1.4843Y2.4606
X1.4843Y2.3976
X1.4921Y0.4055
X1.5Y3.0354
X1.5315Y1.3898
X1.5551Y1.1142
X1.5945Y1.4134
X1.6102Y0.8453
X1.6575Y0.9567
X1.6575Y0.5472
X1.6575Y0.3504
X1.7047Y0.1299
X1.7126Y2.0276
X1.7126Y0.6811
X1.7205Y0.3504
X1.7441Y1.3976
X1.7835Y2.5551
X1.815Y0.5079
X1.8228Y0.6575
X1.8543Y1.9882
X1.8701Y2.2559
X1.8701Y0.5079
X1.8858Y1.0354
X1.9252Y2.5787
X1.9488Y0.2165
X1.9882Y1.1929
X2.0276Y0.6024
X2.0354Y2.4528
X2.0354Y0.5551
X2.0433Y2.563
X2.0748Y1.3976
X2.0827Y1.0827
X2.0827Y0.7047
X2.122Y1.5236
X2.1299Y0.7205
X2.185Y2.5866
X2.2087Y1.7362
X2.2087Y0.7126
X2.2323Y1.2402
X2.2323Y1.0197
X2.2402Y2.311
X2.2402Y0.5945
X2.2638Y2.3583
X2.3031Y1.0197
X2.3268Y1.122
X2.3346Y2.5157
X2.3346Y0.7913
X2.3819Y2.563
X2.3976Y1.9488
X2.4213Y0.6575
X2.4291Y2.2559
X2.4606Y2.3583
X2.4685Y1.5079
X2.5079Y2.5394
X2.5945Y2.311
X2.6024Y2.2559
X2.6496Y2.3819
X2.689Y1.4055
X2.7047Y2.6102
X2.7283Y1.5709
X2.7598Y0.878
X2.7677Y0.9724
X2.8228Y1.5
X2.8543Y1.4055
X2.8701Y0.9567
X2.9173Y1.1693
X2.9882Y0.9803
X2.9961Y2.8071
X3.0632Y1.7175
X3.1498Y2.0482
X3.1535Y2.5
X3.1929Y2.4528
T2
X0.311Y0.8937
X0.3563Y1.9803
X0.374Y0.8937
X0.4134Y1.7598
X0.4744Y1.8228
X0.4823Y1.9173
X0.7756Y1.7283
X0.7835Y1.3248
X0.8071Y0.815
X1.0354Y2.248
X1.0669Y1.8465
X1.4449Y0.0984
X1.4528Y0.6339
X1.5079Y2.1535
X1.5079Y2.0827
X1.5079Y0.0984
X1.5157Y0.6339
X1.6181Y2.2559
X1.6181Y2.1929
X1.7756Y1.5
X1.8386Y1.5
X1.9882Y1.4921
X2.122Y2.2717
X2.122Y2.2087
X2.1457Y0.122
X2.1772Y2.1929
X2.185Y2.2874
X2.2087Y0.122
X2.4449Y1.4528
X2.4449Y0.8858
X2.4685Y1.5709
X2.5157Y1.7441
X2.6181Y1.5945
X2.6417Y2.1457
X2.7047Y2.1457
X2.89Y2.127
X2.953Y2.127
X2.9646Y0.8622
X3.0197Y1.4213
X3.0197Y1.3583
X3.0238Y1.8671
X3.0276Y0.8622
X3.0748Y1.6624
X3.0748Y1.6024
T3
X1.692Y1.6339
X1.7511Y1.6339
X1.881Y1.7913
X1.9401Y1.7913
T4
X2.5961Y1.865
X2.5961Y1.815
X2.5961Y1.765
T5
X0.2165Y2.6053
X0.2165Y2.5053
X0.2165Y2.3268
X0.7313Y2.787
X0.7313Y2.687
X0.8313Y2.787
X0.8313Y2.687
X0.9313Y2.787
X0.9313Y2.687
X1.0313Y2.787
X1.0313Y2.687
X1.1313Y2.787
X1.1313Y2.687
X1.2313Y2.787
X1.2313Y2.687
X1.3313Y2.787
X1.3313Y2.687
X1.4313Y2.787
X1.4313Y2.687
X1.5313Y2.787
X1.5313Y2.687
X1.6313Y2.787
X1.6313Y2.687
X1.7313Y2.787
X1.7313Y2.687
X1.8313Y2.787
X1.8313Y2.687
X1.9313Y2.787
X1.9313Y2.687
X2.0313Y2.787
X2.0313Y2.687
X2.1313Y2.787
X2.1313Y2.687
X2.2313Y2.787
X2.2313Y2.687
X2.3313Y2.787
X2.3313Y2.687
X2.4313Y2.787
X2.4313Y2.687
X2.5313Y2.787
X2.5313Y2.687
X2.6313Y2.787
X2.6313Y2.687
T0
M30
