M48
; DRILL file {KiCad (6.0.7-1)-1} date Tuesday, January 10, 2023 at 04:25:01 PM
; FORMAT={-:-/ absolute / inch / decimal}
; #@! TF.CreationDate,2023-01-10T16:25:01-08:00
; #@! TF.GenerationSoftware,Kicad,Pcbnew,(6.0.7-1)-1
; #@! TF.FileFunction,Plated,1,4,PTH
FMAT,2
INCH
; #@! TA.AperFunction,Plated,PTH,ViaDrill
T1C0.0157
; #@! TA.AperFunction,Plated,PTH,ViaDrill
T2C0.0197
; #@! TA.AperFunction,Plated,PTH,ComponentDrill
T3C0.0295
; #@! TA.AperFunction,Plated,PTH,ComponentDrill
T4C0.0394
%
G90
G05
T1
X0.1772Y0.5709
X0.1772Y0.4528
X0.1772Y0.3268
X0.2087Y2.3346
X0.2638Y2.0748
X0.2638Y1.6181
X0.2795Y0.2008
X0.3898Y1.6417
X0.3898Y1.311
X0.4213Y0.7992
X0.4528Y1.4213
X0.5787Y2.4449
X0.5945Y1.6024
X0.5945Y1.311
X0.6024Y0.8543
X0.6181Y1.374
X0.6339Y1.6654
X0.689Y2.5472
X0.689Y1.9646
X0.7835Y0.2087
X0.8228Y1.185
X0.8465Y0.2402
X0.8701Y1.3583
X0.878Y1.9094
X0.8937Y0.5794
X0.9173Y1.7913
X0.9252Y0.8701
X0.9724Y0.5787
X0.9882Y0.7992
X1.0591Y2.0039
X1.0669Y1.2244
X1.0669Y0.5315
X1.0841Y2.4148
X1.0906Y1.7205
X1.1614Y2.5394
X1.17Y1.8989
X1.2087Y1.9409
X1.2323Y2.0591
X1.248Y2.248
X1.248Y1.9803
X1.2795Y2.2953
X1.2795Y2.0906
X1.2874Y0.5945
X1.3031Y0.3504
X1.437Y2.2165
X1.4843Y2.3976
X1.4843Y1.7126
X1.5079Y0.3583
X1.5472Y0.4055
X1.5709Y0.9882
X1.5709Y0.7835
X1.6575Y1.0827
X1.7126Y2.0276
X1.7126Y1.3976
X1.7598Y1.5709
X1.7756Y0.3898
X1.7835Y2.5551
X1.8465Y1.1299
X1.8543Y1.9882
X1.8701Y2.2559
X1.9252Y2.5787
X1.9331Y1.6496
X1.9724Y0.1693
X1.9882Y0.3504
X2.0354Y2.4528
X2.0354Y1.2244
X2.0433Y0.6417
X2.0591Y1.752
X2.0591Y0.1299
X2.0748Y1.3976
X2.0748Y0.7441
X2.0827Y1.4764
X2.1063Y1.7913
X2.1142Y1.0354
X2.185Y2.5866
X2.2323Y1.3819
X2.2323Y1.0197
X2.2402Y2.311
X2.2559Y0.7835
X2.2638Y2.3583
X2.3031Y1.0197
X2.313Y0.7047
X2.3268Y1.122
X2.3346Y2.5157
X2.3425Y0.7992
X2.3425Y0.1929
X2.3819Y2.5394
X2.3898Y1.2323
X2.3976Y1.9488
X2.4291Y2.2559
X2.4606Y2.3583
X2.5315Y1.4685
X2.5945Y2.311
X2.6024Y2.2559
X2.6024Y1.5157
X2.6496Y2.3819
X2.7835Y1.0827
X2.9094Y0.9409
X2.9646Y1.122
X2.9882Y0.8543
X3.0197Y1.0827
X3.0276Y2.3898
X3.0276Y2.3268
T2
X0.3189Y0.7835
X0.374Y1.9803
X0.374Y0.7677
X0.4921Y1.8228
X0.5Y1.9173
X0.5236Y1.7677
X0.7598Y1.689
X0.7835Y1.3504
X0.8071Y0.815
X1.0354Y2.248
X1.0669Y1.8465
X1.4449Y0.122
X1.4528Y0.6339
X1.5079Y2.1535
X1.5079Y2.0827
X1.5079Y0.122
X1.5157Y0.6339
X1.6181Y2.2559
X1.6181Y2.1929
X1.7756Y1.4764
X1.8071Y0.7441
X1.8386Y1.4764
X1.9016Y0.6417
X1.9252Y1.4606
X1.9409Y0.7441
X1.9646Y0.6417
X1.9724Y1.5236
X2.122Y2.2717
X2.122Y2.2087
X2.1457Y0.122
X2.1772Y2.1929
X2.185Y2.2874
X2.2165Y0.122
X2.437Y1.0197
X2.5079Y1.8386
X2.5079Y1.7598
X2.6417Y2.1457
X2.6654Y2.0512
X2.7047Y2.1457
X2.752Y2.0512
X2.8543Y2.7992
X2.8858Y1.3583
X2.9173Y2.7992
X2.9567Y1.3583
X2.9882Y2.5394
X3.0591Y0.8307
X3.0748Y2.2953
X3.1142Y2.7205
X3.1378Y0.8386
X3.1457Y2.2953
T3
X2.702Y1.837
X2.752Y1.837
X2.802Y1.837
T4
X0.7313Y2.787
X0.7313Y2.687
X0.8313Y2.787
X0.8313Y2.687
X0.9313Y2.787
X0.9313Y2.687
X1.0313Y2.787
X1.0313Y2.687
X1.1313Y2.787
X1.1313Y2.687
X1.2313Y2.787
X1.2313Y2.687
X1.3313Y2.787
X1.3313Y2.687
X1.4313Y2.787
X1.4313Y2.687
X1.5313Y2.787
X1.5313Y2.687
X1.563Y2.4632
X1.563Y2.3632
X1.6313Y2.787
X1.6313Y2.687
X1.7313Y2.787
X1.7313Y2.687
X1.8313Y2.787
X1.8313Y2.687
X1.9313Y2.787
X1.9313Y2.687
X2.0313Y2.787
X2.0313Y2.687
X2.1313Y2.787
X2.1313Y2.687
X2.2313Y2.787
X2.2313Y2.687
X2.3313Y2.787
X2.3313Y2.687
X2.4313Y2.787
X2.4313Y2.687
X2.5313Y2.787
X2.5313Y2.687
X2.6313Y2.787
X2.6313Y2.687
X3.1299Y2.0354
T0
M30
