G04 #@! TF.GenerationSoftware,KiCad,Pcbnew,(6.0.7-1)-1*
G04 #@! TF.CreationDate,2023-02-15T22:09:21-08:00*
G04 #@! TF.ProjectId,as3372,61733333-3732-42e6-9b69-6361645f7063,0.1*
G04 #@! TF.SameCoordinates,PX3d83120PY6590fa0*
G04 #@! TF.FileFunction,Soldermask,Top*
G04 #@! TF.FilePolarity,Negative*
%FSLAX46Y46*%
G04 Gerber Fmt 4.6, Leading zero omitted, Abs format (unit mm)*
G04 Created by KiCad (PCBNEW (6.0.7-1)-1) date 2023-02-15 22:09:21*
%MOMM*%
%LPD*%
G01*
G04 APERTURE LIST*
G04 Aperture macros list*
%AMRoundRect*
0 Rectangle with rounded corners*
0 $1 Rounding radius*
0 $2 $3 $4 $5 $6 $7 $8 $9 X,Y pos of 4 corners*
0 Add a 4 corners polygon primitive as box body*
4,1,4,$2,$3,$4,$5,$6,$7,$8,$9,$2,$3,0*
0 Add four circle primitives for the rounded corners*
1,1,$1+$1,$2,$3*
1,1,$1+$1,$4,$5*
1,1,$1+$1,$6,$7*
1,1,$1+$1,$8,$9*
0 Add four rect primitives between the rounded corners*
20,1,$1+$1,$2,$3,$4,$5,0*
20,1,$1+$1,$4,$5,$6,$7,0*
20,1,$1+$1,$6,$7,$8,$9,0*
20,1,$1+$1,$8,$9,$2,$3,0*%
G04 Aperture macros list end*
G04 #@! TA.AperFunction,Profile*
%ADD10C,0.150000*%
G04 #@! TD*
G04 #@! TA.AperFunction,Profile*
%ADD11C,0.050000*%
G04 #@! TD*
%ADD12RoundRect,0.250000X-0.250000X-0.475000X0.250000X-0.475000X0.250000X0.475000X-0.250000X0.475000X0*%
%ADD13RoundRect,0.225000X-0.225000X-0.250000X0.225000X-0.250000X0.225000X0.250000X-0.225000X0.250000X0*%
%ADD14RoundRect,0.250000X0.625000X-0.312500X0.625000X0.312500X-0.625000X0.312500X-0.625000X-0.312500X0*%
%ADD15RoundRect,0.225000X0.250000X-0.225000X0.250000X0.225000X-0.250000X0.225000X-0.250000X-0.225000X0*%
%ADD16C,3.200000*%
%ADD17RoundRect,0.100000X-0.637500X-0.100000X0.637500X-0.100000X0.637500X0.100000X-0.637500X0.100000X0*%
%ADD18RoundRect,0.200000X0.200000X0.275000X-0.200000X0.275000X-0.200000X-0.275000X0.200000X-0.275000X0*%
%ADD19RoundRect,0.218750X0.218750X0.256250X-0.218750X0.256250X-0.218750X-0.256250X0.218750X-0.256250X0*%
%ADD20R,1.700000X1.700000*%
%ADD21O,1.700000X1.700000*%
%ADD22RoundRect,0.225000X-0.250000X0.225000X-0.250000X-0.225000X0.250000X-0.225000X0.250000X0.225000X0*%
%ADD23RoundRect,0.150000X-0.150000X0.587500X-0.150000X-0.587500X0.150000X-0.587500X0.150000X0.587500X0*%
%ADD24RoundRect,0.150000X-0.825000X-0.150000X0.825000X-0.150000X0.825000X0.150000X-0.825000X0.150000X0*%
%ADD25RoundRect,0.200000X-0.275000X0.200000X-0.275000X-0.200000X0.275000X-0.200000X0.275000X0.200000X0*%
%ADD26RoundRect,0.250000X0.475000X-0.250000X0.475000X0.250000X-0.475000X0.250000X-0.475000X-0.250000X0*%
%ADD27RoundRect,0.200000X-0.200000X-0.275000X0.200000X-0.275000X0.200000X0.275000X-0.200000X0.275000X0*%
%ADD28RoundRect,0.250000X0.250000X0.475000X-0.250000X0.475000X-0.250000X-0.475000X0.250000X-0.475000X0*%
%ADD29RoundRect,0.135000X0.135000X0.185000X-0.135000X0.185000X-0.135000X-0.185000X0.135000X-0.185000X0*%
%ADD30RoundRect,0.200000X0.275000X-0.200000X0.275000X0.200000X-0.275000X0.200000X-0.275000X-0.200000X0*%
%ADD31R,2.000000X2.000000*%
%ADD32RoundRect,0.150000X-0.150000X0.825000X-0.150000X-0.825000X0.150000X-0.825000X0.150000X0.825000X0*%
%ADD33RoundRect,0.225000X0.225000X0.250000X-0.225000X0.250000X-0.225000X-0.250000X0.225000X-0.250000X0*%
%ADD34RoundRect,0.250000X0.262500X0.450000X-0.262500X0.450000X-0.262500X-0.450000X0.262500X-0.450000X0*%
%ADD35RoundRect,0.135000X-0.135000X-0.185000X0.135000X-0.185000X0.135000X0.185000X-0.135000X0.185000X0*%
%ADD36R,1.200000X1.200000*%
%ADD37C,1.200000*%
%ADD38RoundRect,0.150000X-0.587500X-0.150000X0.587500X-0.150000X0.587500X0.150000X-0.587500X0.150000X0*%
%ADD39RoundRect,0.150000X0.825000X0.150000X-0.825000X0.150000X-0.825000X-0.150000X0.825000X-0.150000X0*%
%ADD40RoundRect,0.150000X0.150000X-0.875000X0.150000X0.875000X-0.150000X0.875000X-0.150000X-0.875000X0*%
%ADD41RoundRect,0.150000X0.150000X-0.587500X0.150000X0.587500X-0.150000X0.587500X-0.150000X-0.587500X0*%
%ADD42RoundRect,0.150000X0.150000X-0.825000X0.150000X0.825000X-0.150000X0.825000X-0.150000X-0.825000X0*%
%ADD43R,1.500000X1.050000*%
%ADD44O,1.500000X1.050000*%
G04 APERTURE END LIST*
D10*
X82500000Y75500000D02*
G75*
G03*
X77000000Y81000000I-5500000J0D01*
G01*
X7500000Y81000000D02*
G75*
G03*
X2500000Y76000000I0J-5000000D01*
G01*
X7500000Y81000000D02*
X77000000Y81000000D01*
X77500000Y1000000D02*
G75*
G03*
X82500000Y6000000I0J5000000D01*
G01*
X2500000Y6500000D02*
G75*
G03*
X8000000Y1000000I5500000J0D01*
G01*
X77500000Y1000000D02*
X8000000Y1000000D01*
X2500000Y76000000D02*
X2500000Y6500000D01*
X82500000Y6000000D02*
X82500000Y75500000D01*
D11*
X73876000Y79500000D02*
G75*
G03*
X73876000Y79500000I-576000J0D01*
G01*
X11276000Y2500000D02*
G75*
G03*
X11276000Y2500000I-576000J0D01*
G01*
X11276000Y79500000D02*
G75*
G03*
X11276000Y79500000I-576000J0D01*
G01*
D12*
X9100000Y48700000D03*
X11000000Y48700000D03*
D13*
X9275000Y46300000D03*
X10825000Y46300000D03*
D14*
X18100000Y34087500D03*
X18100000Y37012500D03*
D15*
X36900000Y52925000D03*
X36900000Y54475000D03*
D16*
X6900000Y76700000D03*
X77900000Y76700000D03*
D17*
X28637500Y54075000D03*
X28637500Y53425000D03*
X28637500Y52775000D03*
X28637500Y52125000D03*
X28637500Y51475000D03*
X28637500Y50825000D03*
X28637500Y50175000D03*
X28637500Y49525000D03*
X28637500Y48875000D03*
X28637500Y48225000D03*
X28637500Y47575000D03*
X28637500Y46925000D03*
X34362500Y46925000D03*
X34362500Y47575000D03*
X34362500Y48225000D03*
X34362500Y48875000D03*
X34362500Y49525000D03*
X34362500Y50175000D03*
X34362500Y50825000D03*
X34362500Y51475000D03*
X34362500Y52125000D03*
X34362500Y52775000D03*
X34362500Y53425000D03*
X34362500Y54075000D03*
D18*
X7325000Y54500000D03*
X5675000Y54500000D03*
D19*
X5712500Y51700000D03*
X7287500Y51700000D03*
D20*
X18575000Y68250000D03*
D21*
X18575000Y70790000D03*
X21115000Y68250000D03*
X21115000Y70790000D03*
X23655000Y68250000D03*
X23655000Y70790000D03*
X26195000Y68250000D03*
X26195000Y70790000D03*
X28735000Y68250000D03*
X28735000Y70790000D03*
X31275000Y68250000D03*
X31275000Y70790000D03*
X33815000Y68250000D03*
X33815000Y70790000D03*
X36355000Y68250000D03*
X36355000Y70790000D03*
X38895000Y68250000D03*
X38895000Y70790000D03*
X41435000Y68250000D03*
X41435000Y70790000D03*
X43975000Y68250000D03*
X43975000Y70790000D03*
X46515000Y68250000D03*
X46515000Y70790000D03*
X49055000Y68250000D03*
X49055000Y70790000D03*
X51595000Y68250000D03*
X51595000Y70790000D03*
X54135000Y68250000D03*
X54135000Y70790000D03*
X56675000Y68250000D03*
X56675000Y70790000D03*
X59215000Y68250000D03*
X59215000Y70790000D03*
X61755000Y68250000D03*
X61755000Y70790000D03*
X64295000Y68250000D03*
X64295000Y70790000D03*
X66835000Y68250000D03*
X66835000Y70790000D03*
D22*
X36500000Y62475000D03*
X36500000Y60925000D03*
D23*
X13650000Y36887500D03*
X11750000Y36887500D03*
X12700000Y35012500D03*
D22*
X15700000Y37125000D03*
X15700000Y35575000D03*
D24*
X28950000Y60900000D03*
X28950000Y59630000D03*
X28950000Y58360000D03*
X28950000Y57090000D03*
X33900000Y57090000D03*
X33900000Y58360000D03*
X33900000Y59630000D03*
X33900000Y60900000D03*
D25*
X20500000Y17525000D03*
X20500000Y15875000D03*
D18*
X78430000Y52625000D03*
X76780000Y52625000D03*
D26*
X64530000Y39750000D03*
X64530000Y41650000D03*
D25*
X58300000Y20945000D03*
X58300000Y19295000D03*
D20*
X5500000Y66175000D03*
D21*
X5500000Y63635000D03*
D27*
X52075000Y43100000D03*
X53725000Y43100000D03*
D28*
X44050000Y25900000D03*
X42150000Y25900000D03*
D27*
X25275000Y38700000D03*
X26925000Y38700000D03*
D26*
X62100000Y44350000D03*
X62100000Y46250000D03*
D29*
X26221250Y5700000D03*
X25201250Y5700000D03*
D25*
X26100000Y42325000D03*
X26100000Y40675000D03*
D18*
X35125000Y31300000D03*
X33475000Y31300000D03*
D13*
X22725000Y24650000D03*
X24275000Y24650000D03*
D30*
X7300000Y17675000D03*
X7300000Y19325000D03*
D31*
X37700000Y31300000D03*
D12*
X24150000Y8100000D03*
X26050000Y8100000D03*
D32*
X54205000Y12175000D03*
X52935000Y12175000D03*
X51665000Y12175000D03*
X50395000Y12175000D03*
X50395000Y7225000D03*
X51665000Y7225000D03*
X52935000Y7225000D03*
X54205000Y7225000D03*
D30*
X54100000Y19295000D03*
X54100000Y20945000D03*
D17*
X12037500Y44275000D03*
X12037500Y43625000D03*
X12037500Y42975000D03*
X12037500Y42325000D03*
X12037500Y41675000D03*
X12037500Y41025000D03*
X12037500Y40375000D03*
X12037500Y39725000D03*
X17762500Y39725000D03*
X17762500Y40375000D03*
X17762500Y41025000D03*
X17762500Y41675000D03*
X17762500Y42325000D03*
X17762500Y42975000D03*
X17762500Y43625000D03*
X17762500Y44275000D03*
D32*
X42145000Y12175000D03*
X40875000Y12175000D03*
X39605000Y12175000D03*
X38335000Y12175000D03*
X37065000Y12175000D03*
X35795000Y12175000D03*
X34525000Y12175000D03*
X33255000Y12175000D03*
X33255000Y7225000D03*
X34525000Y7225000D03*
X35795000Y7225000D03*
X37065000Y7225000D03*
X38335000Y7225000D03*
X39605000Y7225000D03*
X40875000Y7225000D03*
X42145000Y7225000D03*
D33*
X56075000Y4500000D03*
X54525000Y4500000D03*
X26875000Y36500000D03*
X25325000Y36500000D03*
D12*
X17087500Y4300000D03*
X18987500Y4300000D03*
D34*
X80012500Y59900000D03*
X78187500Y59900000D03*
D15*
X4700000Y17725000D03*
X4700000Y19275000D03*
D31*
X34500000Y19100000D03*
D35*
X71190000Y23300000D03*
X72210000Y23300000D03*
D13*
X7900000Y21400000D03*
X9450000Y21400000D03*
D28*
X45450000Y18900000D03*
X43550000Y18900000D03*
D31*
X47300000Y10500000D03*
D27*
X23725000Y44100000D03*
X22075000Y44100000D03*
D36*
X42977400Y41500000D03*
D37*
X44477400Y41500000D03*
D13*
X78125000Y62300000D03*
X79675000Y62300000D03*
D22*
X74100000Y36075000D03*
X74100000Y34525000D03*
D31*
X56100000Y40500000D03*
D38*
X17100000Y9000000D03*
X17100000Y7100000D03*
X18975000Y8050000D03*
D18*
X76630000Y42625000D03*
X74980000Y42625000D03*
D39*
X64175000Y53455000D03*
X64175000Y54725000D03*
X64175000Y55995000D03*
X64175000Y57265000D03*
X64175000Y58535000D03*
X64175000Y59805000D03*
X64175000Y61075000D03*
X64175000Y62345000D03*
X59225000Y62345000D03*
X59225000Y61075000D03*
X59225000Y59805000D03*
X59225000Y58535000D03*
X59225000Y57265000D03*
X59225000Y55995000D03*
X59225000Y54725000D03*
X59225000Y53455000D03*
D23*
X11650000Y13837500D03*
X9750000Y13837500D03*
X10700000Y11962500D03*
D40*
X46615000Y24050000D03*
X47885000Y24050000D03*
X49155000Y24050000D03*
X50425000Y24050000D03*
X51695000Y24050000D03*
X52965000Y24050000D03*
X54235000Y24050000D03*
X55505000Y24050000D03*
X56775000Y24050000D03*
X58045000Y24050000D03*
X59315000Y24050000D03*
X60585000Y24050000D03*
X60585000Y33350000D03*
X59315000Y33350000D03*
X58045000Y33350000D03*
X56775000Y33350000D03*
X55505000Y33350000D03*
X54235000Y33350000D03*
X52965000Y33350000D03*
X51695000Y33350000D03*
X50425000Y33350000D03*
X49155000Y33350000D03*
X47885000Y33350000D03*
X46615000Y33350000D03*
D22*
X25100000Y17475000D03*
X25100000Y15925000D03*
D34*
X79212500Y70100000D03*
X77387500Y70100000D03*
D22*
X9300000Y19275000D03*
X9300000Y17725000D03*
X79205000Y42200000D03*
X79205000Y40650000D03*
D25*
X51900000Y39325000D03*
X51900000Y37675000D03*
D30*
X56100000Y19295000D03*
X56100000Y20945000D03*
D33*
X48075000Y14300000D03*
X46525000Y14300000D03*
D18*
X74830000Y55825000D03*
X73180000Y55825000D03*
D31*
X50900000Y17900000D03*
D27*
X40575000Y29500000D03*
X42225000Y29500000D03*
D25*
X27700000Y15325000D03*
X27700000Y13675000D03*
D30*
X9700000Y25675000D03*
X9700000Y27325000D03*
D33*
X22125000Y46300000D03*
X23675000Y46300000D03*
D35*
X69390000Y35700000D03*
X70410000Y35700000D03*
D25*
X57900000Y37725000D03*
X57900000Y36075000D03*
D30*
X23100000Y15875000D03*
X23100000Y17525000D03*
D31*
X39500000Y18300000D03*
X60500000Y40500000D03*
D25*
X60700000Y37725000D03*
X60700000Y36075000D03*
D31*
X28900000Y5700000D03*
D24*
X12425000Y25410000D03*
X12425000Y24140000D03*
X12425000Y22870000D03*
X12425000Y21600000D03*
X12425000Y20330000D03*
X12425000Y19060000D03*
X12425000Y17790000D03*
X17375000Y17790000D03*
X17375000Y19060000D03*
X17375000Y20330000D03*
X17375000Y21600000D03*
X17375000Y22870000D03*
X17375000Y24140000D03*
X17375000Y25410000D03*
D30*
X20500000Y24575000D03*
X20500000Y26225000D03*
D22*
X49300000Y39275000D03*
X49300000Y37725000D03*
D28*
X76755000Y40225000D03*
X74855000Y40225000D03*
D33*
X76875000Y23300000D03*
X75325000Y23300000D03*
D28*
X44050000Y21500000D03*
X42150000Y21500000D03*
D30*
X21700000Y6525000D03*
X21700000Y8175000D03*
D38*
X12362500Y9050000D03*
X12362500Y7150000D03*
X14237500Y8100000D03*
D25*
X60900000Y20945000D03*
X60900000Y19295000D03*
D30*
X72205000Y44200000D03*
X72205000Y45850000D03*
D18*
X52525000Y4500000D03*
X50875000Y4500000D03*
X23925000Y20100000D03*
X22275000Y20100000D03*
D31*
X64500000Y21100000D03*
D25*
X34500000Y16525000D03*
X34500000Y14875000D03*
D18*
X24325000Y26700000D03*
X22675000Y26700000D03*
X55525000Y37500000D03*
X53875000Y37500000D03*
D31*
X41100000Y3300000D03*
D16*
X6900000Y5900000D03*
D18*
X14725000Y4300000D03*
X13075000Y4300000D03*
D27*
X20875000Y28700000D03*
X22525000Y28700000D03*
X65275000Y29900000D03*
X66925000Y29900000D03*
D16*
X77900000Y5900000D03*
D33*
X22125000Y40700000D03*
X23675000Y40700000D03*
D22*
X52635000Y57550000D03*
X52635000Y56000000D03*
D15*
X42425000Y55700000D03*
X42425000Y57250000D03*
D13*
X73430000Y52625000D03*
X74980000Y52625000D03*
D33*
X22075000Y22100000D03*
X20525000Y22100000D03*
D27*
X65275000Y27500000D03*
X66925000Y27500000D03*
D30*
X9500000Y64675000D03*
X9500000Y66325000D03*
D20*
X5500000Y59100000D03*
D30*
X29700000Y8475000D03*
X29700000Y10125000D03*
D26*
X47900000Y18650000D03*
X47900000Y16750000D03*
D30*
X4700000Y13875000D03*
X4700000Y15525000D03*
D41*
X78150000Y64962500D03*
X80050000Y64962500D03*
X79100000Y66837500D03*
D33*
X68175000Y55975000D03*
X66625000Y55975000D03*
D13*
X36725000Y4100000D03*
X38275000Y4100000D03*
D37*
X49277400Y45500000D03*
D36*
X47777400Y45500000D03*
D33*
X38475000Y14700000D03*
X36925000Y14700000D03*
D39*
X49975000Y53455000D03*
X49975000Y54725000D03*
X49975000Y55995000D03*
X49975000Y57265000D03*
X49975000Y58535000D03*
X49975000Y59805000D03*
X49975000Y61075000D03*
X49975000Y62345000D03*
X45025000Y62345000D03*
X45025000Y61075000D03*
X45025000Y59805000D03*
X45025000Y58535000D03*
X45025000Y57265000D03*
X45025000Y55995000D03*
X45025000Y54725000D03*
X45025000Y53455000D03*
D15*
X56700000Y55575000D03*
X56700000Y57125000D03*
D13*
X45125000Y36700000D03*
X46675000Y36700000D03*
D28*
X78755000Y55825000D03*
X76855000Y55825000D03*
D25*
X39500000Y26125000D03*
X39500000Y24475000D03*
D18*
X64325000Y16700000D03*
X62675000Y16700000D03*
D25*
X57300000Y12725000D03*
X57300000Y11075000D03*
D42*
X75300000Y45150000D03*
X76570000Y45150000D03*
X77840000Y45150000D03*
X79110000Y45150000D03*
X79110000Y50100000D03*
X77840000Y50100000D03*
X76570000Y50100000D03*
X75300000Y50100000D03*
D43*
X65940000Y47370000D03*
D44*
X65940000Y46100000D03*
X65940000Y44830000D03*
D27*
X14275000Y15100000D03*
X15925000Y15100000D03*
X52875000Y14900000D03*
X54525000Y14900000D03*
D42*
X70290000Y26625000D03*
X71560000Y26625000D03*
X72830000Y26625000D03*
X74100000Y26625000D03*
X75370000Y26625000D03*
X76640000Y26625000D03*
X77910000Y26625000D03*
X77910000Y31575000D03*
X76640000Y31575000D03*
X75370000Y31575000D03*
X74100000Y31575000D03*
X72830000Y31575000D03*
X71560000Y31575000D03*
X70290000Y31575000D03*
D25*
X7500000Y13125000D03*
X7500000Y11475000D03*
M02*
