G04 #@! TF.GenerationSoftware,KiCad,Pcbnew,(6.0.7-1)-1*
G04 #@! TF.CreationDate,2023-02-15T22:09:21-08:00*
G04 #@! TF.ProjectId,as3372,61733333-3732-42e6-9b69-6361645f7063,0.1*
G04 #@! TF.SameCoordinates,PX3d83120PY6590fa0*
G04 #@! TF.FileFunction,Legend,Bot*
G04 #@! TF.FilePolarity,Positive*
%FSLAX46Y46*%
G04 Gerber Fmt 4.6, Leading zero omitted, Abs format (unit mm)*
G04 Created by KiCad (PCBNEW (6.0.7-1)-1) date 2023-02-15 22:09:21*
%MOMM*%
%LPD*%
G01*
G04 APERTURE LIST*
%ADD10C,0.150000*%
%ADD11C,0.090000*%
%ADD12C,0.300000*%
G04 #@! TA.AperFunction,Profile*
%ADD13C,0.150000*%
G04 #@! TD*
G04 #@! TA.AperFunction,Profile*
%ADD14C,0.050000*%
G04 #@! TD*
G04 APERTURE END LIST*
D10*
X8300000Y28900000D02*
X18700000Y28900000D01*
X18700000Y28900000D02*
X18700000Y32700000D01*
X18700000Y32700000D02*
X8300000Y32700000D01*
X8300000Y32700000D02*
X8300000Y28900000D01*
G36*
X8300000Y28900000D02*
G01*
X18700000Y28900000D01*
X18700000Y32700000D01*
X8300000Y32700000D01*
X8300000Y28900000D01*
G37*
X8300000Y27500000D02*
X27500000Y27500000D01*
X27500000Y27500000D02*
X27500000Y11900000D01*
X27500000Y11900000D02*
X8300000Y11900000D01*
X8300000Y11900000D02*
X8300000Y27500000D01*
D11*
X20061904Y13712381D02*
X20061904Y12712381D01*
X20538095Y13712381D02*
X20538095Y12712381D01*
X21109523Y13712381D01*
X21109523Y12712381D01*
X21538095Y12807620D02*
X21585714Y12760000D01*
X21680952Y12712381D01*
X21919047Y12712381D01*
X22014285Y12760000D01*
X22061904Y12807620D01*
X22109523Y12902858D01*
X22109523Y12998096D01*
X22061904Y13140953D01*
X21490476Y13712381D01*
X22109523Y13712381D01*
X22538095Y13617143D02*
X22585714Y13664762D01*
X22538095Y13712381D01*
X22490476Y13664762D01*
X22538095Y13617143D01*
X22538095Y13712381D01*
X22538095Y13093334D02*
X22585714Y13140953D01*
X22538095Y13188572D01*
X22490476Y13140953D01*
X22538095Y13093334D01*
X22538095Y13188572D01*
X18895238Y15227143D02*
X18847619Y15274762D01*
X18704761Y15322381D01*
X18609523Y15322381D01*
X18466666Y15274762D01*
X18371428Y15179524D01*
X18323809Y15084286D01*
X18276190Y14893810D01*
X18276190Y14750953D01*
X18323809Y14560477D01*
X18371428Y14465239D01*
X18466666Y14370000D01*
X18609523Y14322381D01*
X18704761Y14322381D01*
X18847619Y14370000D01*
X18895238Y14417620D01*
X19276190Y15036667D02*
X19752380Y15036667D01*
X19180952Y15322381D02*
X19514285Y14322381D01*
X19847619Y15322381D01*
X20752380Y15322381D02*
X20419047Y14846191D01*
X20180952Y15322381D02*
X20180952Y14322381D01*
X20561904Y14322381D01*
X20657142Y14370000D01*
X20704761Y14417620D01*
X20752380Y14512858D01*
X20752380Y14655715D01*
X20704761Y14750953D01*
X20657142Y14798572D01*
X20561904Y14846191D01*
X20180952Y14846191D01*
X21180952Y15322381D02*
X21180952Y14322381D01*
X21419047Y14322381D01*
X21561904Y14370000D01*
X21657142Y14465239D01*
X21704761Y14560477D01*
X21752380Y14750953D01*
X21752380Y14893810D01*
X21704761Y15084286D01*
X21657142Y15179524D01*
X21561904Y15274762D01*
X21419047Y15322381D01*
X21180952Y15322381D01*
X22895238Y15036667D02*
X23371428Y15036667D01*
X22800000Y15322381D02*
X23133333Y14322381D01*
X23466666Y15322381D01*
X24323809Y15322381D02*
X23752380Y15322381D01*
X24038095Y15322381D02*
X24038095Y14322381D01*
X23942857Y14465239D01*
X23847619Y14560477D01*
X23752380Y14608096D01*
X18895238Y16837143D02*
X18847619Y16884762D01*
X18704761Y16932381D01*
X18609523Y16932381D01*
X18466666Y16884762D01*
X18371428Y16789524D01*
X18323809Y16694286D01*
X18276190Y16503810D01*
X18276190Y16360953D01*
X18323809Y16170477D01*
X18371428Y16075239D01*
X18466666Y15980000D01*
X18609523Y15932381D01*
X18704761Y15932381D01*
X18847619Y15980000D01*
X18895238Y16027620D01*
X19276190Y16646667D02*
X19752380Y16646667D01*
X19180952Y16932381D02*
X19514285Y15932381D01*
X19847619Y16932381D01*
X20752380Y16932381D02*
X20419047Y16456191D01*
X20180952Y16932381D02*
X20180952Y15932381D01*
X20561904Y15932381D01*
X20657142Y15980000D01*
X20704761Y16027620D01*
X20752380Y16122858D01*
X20752380Y16265715D01*
X20704761Y16360953D01*
X20657142Y16408572D01*
X20561904Y16456191D01*
X20180952Y16456191D01*
X21180952Y16932381D02*
X21180952Y15932381D01*
X21419047Y15932381D01*
X21561904Y15980000D01*
X21657142Y16075239D01*
X21704761Y16170477D01*
X21752380Y16360953D01*
X21752380Y16503810D01*
X21704761Y16694286D01*
X21657142Y16789524D01*
X21561904Y16884762D01*
X21419047Y16932381D01*
X21180952Y16932381D01*
X22895238Y16646667D02*
X23371428Y16646667D01*
X22800000Y16932381D02*
X23133333Y15932381D01*
X23466666Y16932381D01*
X23752380Y16027620D02*
X23800000Y15980000D01*
X23895238Y15932381D01*
X24133333Y15932381D01*
X24228571Y15980000D01*
X24276190Y16027620D01*
X24323809Y16122858D01*
X24323809Y16218096D01*
X24276190Y16360953D01*
X23704761Y16932381D01*
X24323809Y16932381D01*
X18823809Y18447143D02*
X18776190Y18494762D01*
X18633333Y18542381D01*
X18538095Y18542381D01*
X18395238Y18494762D01*
X18300000Y18399524D01*
X18252380Y18304286D01*
X18204761Y18113810D01*
X18204761Y17970953D01*
X18252380Y17780477D01*
X18300000Y17685239D01*
X18395238Y17590000D01*
X18538095Y17542381D01*
X18633333Y17542381D01*
X18776190Y17590000D01*
X18823809Y17637620D01*
X19204761Y18256667D02*
X19680952Y18256667D01*
X19109523Y18542381D02*
X19442857Y17542381D01*
X19776190Y18542381D01*
X20680952Y18542381D02*
X20347619Y18066191D01*
X20109523Y18542381D02*
X20109523Y17542381D01*
X20490476Y17542381D01*
X20585714Y17590000D01*
X20633333Y17637620D01*
X20680952Y17732858D01*
X20680952Y17875715D01*
X20633333Y17970953D01*
X20585714Y18018572D01*
X20490476Y18066191D01*
X20109523Y18066191D01*
X21109523Y18542381D02*
X21109523Y17542381D01*
X21347619Y17542381D01*
X21490476Y17590000D01*
X21585714Y17685239D01*
X21633333Y17780477D01*
X21680952Y17970953D01*
X21680952Y18113810D01*
X21633333Y18304286D01*
X21585714Y18399524D01*
X21490476Y18494762D01*
X21347619Y18542381D01*
X21109523Y18542381D01*
X23204761Y18018572D02*
X23347619Y18066191D01*
X23395238Y18113810D01*
X23442857Y18209048D01*
X23442857Y18351905D01*
X23395238Y18447143D01*
X23347619Y18494762D01*
X23252380Y18542381D01*
X22871428Y18542381D01*
X22871428Y17542381D01*
X23204761Y17542381D01*
X23300000Y17590000D01*
X23347619Y17637620D01*
X23395238Y17732858D01*
X23395238Y17828096D01*
X23347619Y17923334D01*
X23300000Y17970953D01*
X23204761Y18018572D01*
X22871428Y18018572D01*
X24395238Y18542381D02*
X23823809Y18542381D01*
X24109523Y18542381D02*
X24109523Y17542381D01*
X24014285Y17685239D01*
X23919047Y17780477D01*
X23823809Y17828096D01*
X18823809Y20057143D02*
X18776190Y20104762D01*
X18633333Y20152381D01*
X18538095Y20152381D01*
X18395238Y20104762D01*
X18300000Y20009524D01*
X18252380Y19914286D01*
X18204761Y19723810D01*
X18204761Y19580953D01*
X18252380Y19390477D01*
X18300000Y19295239D01*
X18395238Y19200000D01*
X18538095Y19152381D01*
X18633333Y19152381D01*
X18776190Y19200000D01*
X18823809Y19247620D01*
X19204761Y19866667D02*
X19680952Y19866667D01*
X19109523Y20152381D02*
X19442857Y19152381D01*
X19776190Y20152381D01*
X20680952Y20152381D02*
X20347619Y19676191D01*
X20109523Y20152381D02*
X20109523Y19152381D01*
X20490476Y19152381D01*
X20585714Y19200000D01*
X20633333Y19247620D01*
X20680952Y19342858D01*
X20680952Y19485715D01*
X20633333Y19580953D01*
X20585714Y19628572D01*
X20490476Y19676191D01*
X20109523Y19676191D01*
X21109523Y20152381D02*
X21109523Y19152381D01*
X21347619Y19152381D01*
X21490476Y19200000D01*
X21585714Y19295239D01*
X21633333Y19390477D01*
X21680952Y19580953D01*
X21680952Y19723810D01*
X21633333Y19914286D01*
X21585714Y20009524D01*
X21490476Y20104762D01*
X21347619Y20152381D01*
X21109523Y20152381D01*
X23204761Y19628572D02*
X23347619Y19676191D01*
X23395238Y19723810D01*
X23442857Y19819048D01*
X23442857Y19961905D01*
X23395238Y20057143D01*
X23347619Y20104762D01*
X23252380Y20152381D01*
X22871428Y20152381D01*
X22871428Y19152381D01*
X23204761Y19152381D01*
X23300000Y19200000D01*
X23347619Y19247620D01*
X23395238Y19342858D01*
X23395238Y19438096D01*
X23347619Y19533334D01*
X23300000Y19580953D01*
X23204761Y19628572D01*
X22871428Y19628572D01*
X23823809Y19247620D02*
X23871428Y19200000D01*
X23966666Y19152381D01*
X24204761Y19152381D01*
X24300000Y19200000D01*
X24347619Y19247620D01*
X24395238Y19342858D01*
X24395238Y19438096D01*
X24347619Y19580953D01*
X23776190Y20152381D01*
X24395238Y20152381D01*
X18823809Y21667143D02*
X18776190Y21714762D01*
X18633333Y21762381D01*
X18538095Y21762381D01*
X18395238Y21714762D01*
X18300000Y21619524D01*
X18252380Y21524286D01*
X18204761Y21333810D01*
X18204761Y21190953D01*
X18252380Y21000477D01*
X18300000Y20905239D01*
X18395238Y20810000D01*
X18538095Y20762381D01*
X18633333Y20762381D01*
X18776190Y20810000D01*
X18823809Y20857620D01*
X19204761Y21476667D02*
X19680952Y21476667D01*
X19109523Y21762381D02*
X19442857Y20762381D01*
X19776190Y21762381D01*
X20680952Y21762381D02*
X20347619Y21286191D01*
X20109523Y21762381D02*
X20109523Y20762381D01*
X20490476Y20762381D01*
X20585714Y20810000D01*
X20633333Y20857620D01*
X20680952Y20952858D01*
X20680952Y21095715D01*
X20633333Y21190953D01*
X20585714Y21238572D01*
X20490476Y21286191D01*
X20109523Y21286191D01*
X21109523Y21762381D02*
X21109523Y20762381D01*
X21347619Y20762381D01*
X21490476Y20810000D01*
X21585714Y20905239D01*
X21633333Y21000477D01*
X21680952Y21190953D01*
X21680952Y21333810D01*
X21633333Y21524286D01*
X21585714Y21619524D01*
X21490476Y21714762D01*
X21347619Y21762381D01*
X21109523Y21762381D01*
X23442857Y21667143D02*
X23395238Y21714762D01*
X23252380Y21762381D01*
X23157142Y21762381D01*
X23014285Y21714762D01*
X22919047Y21619524D01*
X22871428Y21524286D01*
X22823809Y21333810D01*
X22823809Y21190953D01*
X22871428Y21000477D01*
X22919047Y20905239D01*
X23014285Y20810000D01*
X23157142Y20762381D01*
X23252380Y20762381D01*
X23395238Y20810000D01*
X23442857Y20857620D01*
X23823809Y20857620D02*
X23871428Y20810000D01*
X23966666Y20762381D01*
X24204761Y20762381D01*
X24300000Y20810000D01*
X24347619Y20857620D01*
X24395238Y20952858D01*
X24395238Y21048096D01*
X24347619Y21190953D01*
X23776190Y21762381D01*
X24395238Y21762381D01*
X18823809Y23277143D02*
X18776190Y23324762D01*
X18633333Y23372381D01*
X18538095Y23372381D01*
X18395238Y23324762D01*
X18300000Y23229524D01*
X18252380Y23134286D01*
X18204761Y22943810D01*
X18204761Y22800953D01*
X18252380Y22610477D01*
X18300000Y22515239D01*
X18395238Y22420000D01*
X18538095Y22372381D01*
X18633333Y22372381D01*
X18776190Y22420000D01*
X18823809Y22467620D01*
X19204761Y23086667D02*
X19680952Y23086667D01*
X19109523Y23372381D02*
X19442857Y22372381D01*
X19776190Y23372381D01*
X20680952Y23372381D02*
X20347619Y22896191D01*
X20109523Y23372381D02*
X20109523Y22372381D01*
X20490476Y22372381D01*
X20585714Y22420000D01*
X20633333Y22467620D01*
X20680952Y22562858D01*
X20680952Y22705715D01*
X20633333Y22800953D01*
X20585714Y22848572D01*
X20490476Y22896191D01*
X20109523Y22896191D01*
X21109523Y23372381D02*
X21109523Y22372381D01*
X21347619Y22372381D01*
X21490476Y22420000D01*
X21585714Y22515239D01*
X21633333Y22610477D01*
X21680952Y22800953D01*
X21680952Y22943810D01*
X21633333Y23134286D01*
X21585714Y23229524D01*
X21490476Y23324762D01*
X21347619Y23372381D01*
X21109523Y23372381D01*
X22871428Y23372381D02*
X22871428Y22372381D01*
X23109523Y22372381D01*
X23252380Y22420000D01*
X23347619Y22515239D01*
X23395238Y22610477D01*
X23442857Y22800953D01*
X23442857Y22943810D01*
X23395238Y23134286D01*
X23347619Y23229524D01*
X23252380Y23324762D01*
X23109523Y23372381D01*
X22871428Y23372381D01*
X24395238Y23372381D02*
X23823809Y23372381D01*
X24109523Y23372381D02*
X24109523Y22372381D01*
X24014285Y22515239D01*
X23919047Y22610477D01*
X23823809Y22658096D01*
X18871428Y24887143D02*
X18823809Y24934762D01*
X18680952Y24982381D01*
X18585714Y24982381D01*
X18442857Y24934762D01*
X18347619Y24839524D01*
X18300000Y24744286D01*
X18252380Y24553810D01*
X18252380Y24410953D01*
X18300000Y24220477D01*
X18347619Y24125239D01*
X18442857Y24030000D01*
X18585714Y23982381D01*
X18680952Y23982381D01*
X18823809Y24030000D01*
X18871428Y24077620D01*
X19252380Y24696667D02*
X19728571Y24696667D01*
X19157142Y24982381D02*
X19490476Y23982381D01*
X19823809Y24982381D01*
X20728571Y24982381D02*
X20395238Y24506191D01*
X20157142Y24982381D02*
X20157142Y23982381D01*
X20538095Y23982381D01*
X20633333Y24030000D01*
X20680952Y24077620D01*
X20728571Y24172858D01*
X20728571Y24315715D01*
X20680952Y24410953D01*
X20633333Y24458572D01*
X20538095Y24506191D01*
X20157142Y24506191D01*
X21157142Y24982381D02*
X21157142Y23982381D01*
X21395238Y23982381D01*
X21538095Y24030000D01*
X21633333Y24125239D01*
X21680952Y24220477D01*
X21728571Y24410953D01*
X21728571Y24553810D01*
X21680952Y24744286D01*
X21633333Y24839524D01*
X21538095Y24934762D01*
X21395238Y24982381D01*
X21157142Y24982381D01*
X22919047Y24458572D02*
X23252380Y24458572D01*
X23395238Y24982381D02*
X22919047Y24982381D01*
X22919047Y23982381D01*
X23395238Y23982381D01*
X23776190Y24077620D02*
X23823809Y24030000D01*
X23919047Y23982381D01*
X24157142Y23982381D01*
X24252380Y24030000D01*
X24300000Y24077620D01*
X24347619Y24172858D01*
X24347619Y24268096D01*
X24300000Y24410953D01*
X23728571Y24982381D01*
X24347619Y24982381D01*
X18895238Y26497143D02*
X18847619Y26544762D01*
X18704761Y26592381D01*
X18609523Y26592381D01*
X18466666Y26544762D01*
X18371428Y26449524D01*
X18323809Y26354286D01*
X18276190Y26163810D01*
X18276190Y26020953D01*
X18323809Y25830477D01*
X18371428Y25735239D01*
X18466666Y25640000D01*
X18609523Y25592381D01*
X18704761Y25592381D01*
X18847619Y25640000D01*
X18895238Y25687620D01*
X19276190Y26306667D02*
X19752380Y26306667D01*
X19180952Y26592381D02*
X19514285Y25592381D01*
X19847619Y26592381D01*
X20752380Y26592381D02*
X20419047Y26116191D01*
X20180952Y26592381D02*
X20180952Y25592381D01*
X20561904Y25592381D01*
X20657142Y25640000D01*
X20704761Y25687620D01*
X20752380Y25782858D01*
X20752380Y25925715D01*
X20704761Y26020953D01*
X20657142Y26068572D01*
X20561904Y26116191D01*
X20180952Y26116191D01*
X21180952Y26592381D02*
X21180952Y25592381D01*
X21419047Y25592381D01*
X21561904Y25640000D01*
X21657142Y25735239D01*
X21704761Y25830477D01*
X21752380Y26020953D01*
X21752380Y26163810D01*
X21704761Y26354286D01*
X21657142Y26449524D01*
X21561904Y26544762D01*
X21419047Y26592381D01*
X21180952Y26592381D01*
X23276190Y26068572D02*
X22942857Y26068572D01*
X22942857Y26592381D02*
X22942857Y25592381D01*
X23419047Y25592381D01*
X24323809Y26592381D02*
X23752380Y26592381D01*
X24038095Y26592381D02*
X24038095Y25592381D01*
X23942857Y25735239D01*
X23847619Y25830477D01*
X23752380Y25878096D01*
X11661904Y13712381D02*
X11661904Y12712381D01*
X12138095Y13712381D02*
X12138095Y12712381D01*
X12709523Y13712381D01*
X12709523Y12712381D01*
X13709523Y13712381D02*
X13138095Y13712381D01*
X13423809Y13712381D02*
X13423809Y12712381D01*
X13328571Y12855239D01*
X13233333Y12950477D01*
X13138095Y12998096D01*
X14138095Y13617143D02*
X14185714Y13664762D01*
X14138095Y13712381D01*
X14090476Y13664762D01*
X14138095Y13617143D01*
X14138095Y13712381D01*
X14138095Y13093334D02*
X14185714Y13140953D01*
X14138095Y13188572D01*
X14090476Y13140953D01*
X14138095Y13093334D01*
X14138095Y13188572D01*
X10495238Y15227143D02*
X10447619Y15274762D01*
X10304761Y15322381D01*
X10209523Y15322381D01*
X10066666Y15274762D01*
X9971428Y15179524D01*
X9923809Y15084286D01*
X9876190Y14893810D01*
X9876190Y14750953D01*
X9923809Y14560477D01*
X9971428Y14465239D01*
X10066666Y14370000D01*
X10209523Y14322381D01*
X10304761Y14322381D01*
X10447619Y14370000D01*
X10495238Y14417620D01*
X10876190Y15036667D02*
X11352380Y15036667D01*
X10780952Y15322381D02*
X11114285Y14322381D01*
X11447619Y15322381D01*
X12352380Y15322381D02*
X12019047Y14846191D01*
X11780952Y15322381D02*
X11780952Y14322381D01*
X12161904Y14322381D01*
X12257142Y14370000D01*
X12304761Y14417620D01*
X12352380Y14512858D01*
X12352380Y14655715D01*
X12304761Y14750953D01*
X12257142Y14798572D01*
X12161904Y14846191D01*
X11780952Y14846191D01*
X12780952Y15322381D02*
X12780952Y14322381D01*
X13019047Y14322381D01*
X13161904Y14370000D01*
X13257142Y14465239D01*
X13304761Y14560477D01*
X13352380Y14750953D01*
X13352380Y14893810D01*
X13304761Y15084286D01*
X13257142Y15179524D01*
X13161904Y15274762D01*
X13019047Y15322381D01*
X12780952Y15322381D01*
X14495238Y15036667D02*
X14971428Y15036667D01*
X14400000Y15322381D02*
X14733333Y14322381D01*
X15066666Y15322381D01*
X15923809Y15322381D02*
X15352380Y15322381D01*
X15638095Y15322381D02*
X15638095Y14322381D01*
X15542857Y14465239D01*
X15447619Y14560477D01*
X15352380Y14608096D01*
X10495238Y16837143D02*
X10447619Y16884762D01*
X10304761Y16932381D01*
X10209523Y16932381D01*
X10066666Y16884762D01*
X9971428Y16789524D01*
X9923809Y16694286D01*
X9876190Y16503810D01*
X9876190Y16360953D01*
X9923809Y16170477D01*
X9971428Y16075239D01*
X10066666Y15980000D01*
X10209523Y15932381D01*
X10304761Y15932381D01*
X10447619Y15980000D01*
X10495238Y16027620D01*
X10876190Y16646667D02*
X11352380Y16646667D01*
X10780952Y16932381D02*
X11114285Y15932381D01*
X11447619Y16932381D01*
X12352380Y16932381D02*
X12019047Y16456191D01*
X11780952Y16932381D02*
X11780952Y15932381D01*
X12161904Y15932381D01*
X12257142Y15980000D01*
X12304761Y16027620D01*
X12352380Y16122858D01*
X12352380Y16265715D01*
X12304761Y16360953D01*
X12257142Y16408572D01*
X12161904Y16456191D01*
X11780952Y16456191D01*
X12780952Y16932381D02*
X12780952Y15932381D01*
X13019047Y15932381D01*
X13161904Y15980000D01*
X13257142Y16075239D01*
X13304761Y16170477D01*
X13352380Y16360953D01*
X13352380Y16503810D01*
X13304761Y16694286D01*
X13257142Y16789524D01*
X13161904Y16884762D01*
X13019047Y16932381D01*
X12780952Y16932381D01*
X14495238Y16646667D02*
X14971428Y16646667D01*
X14400000Y16932381D02*
X14733333Y15932381D01*
X15066666Y16932381D01*
X15352380Y16027620D02*
X15400000Y15980000D01*
X15495238Y15932381D01*
X15733333Y15932381D01*
X15828571Y15980000D01*
X15876190Y16027620D01*
X15923809Y16122858D01*
X15923809Y16218096D01*
X15876190Y16360953D01*
X15304761Y16932381D01*
X15923809Y16932381D01*
X10423809Y18447143D02*
X10376190Y18494762D01*
X10233333Y18542381D01*
X10138095Y18542381D01*
X9995238Y18494762D01*
X9900000Y18399524D01*
X9852380Y18304286D01*
X9804761Y18113810D01*
X9804761Y17970953D01*
X9852380Y17780477D01*
X9900000Y17685239D01*
X9995238Y17590000D01*
X10138095Y17542381D01*
X10233333Y17542381D01*
X10376190Y17590000D01*
X10423809Y17637620D01*
X10804761Y18256667D02*
X11280952Y18256667D01*
X10709523Y18542381D02*
X11042857Y17542381D01*
X11376190Y18542381D01*
X12280952Y18542381D02*
X11947619Y18066191D01*
X11709523Y18542381D02*
X11709523Y17542381D01*
X12090476Y17542381D01*
X12185714Y17590000D01*
X12233333Y17637620D01*
X12280952Y17732858D01*
X12280952Y17875715D01*
X12233333Y17970953D01*
X12185714Y18018572D01*
X12090476Y18066191D01*
X11709523Y18066191D01*
X12709523Y18542381D02*
X12709523Y17542381D01*
X12947619Y17542381D01*
X13090476Y17590000D01*
X13185714Y17685239D01*
X13233333Y17780477D01*
X13280952Y17970953D01*
X13280952Y18113810D01*
X13233333Y18304286D01*
X13185714Y18399524D01*
X13090476Y18494762D01*
X12947619Y18542381D01*
X12709523Y18542381D01*
X14804761Y18018572D02*
X14947619Y18066191D01*
X14995238Y18113810D01*
X15042857Y18209048D01*
X15042857Y18351905D01*
X14995238Y18447143D01*
X14947619Y18494762D01*
X14852380Y18542381D01*
X14471428Y18542381D01*
X14471428Y17542381D01*
X14804761Y17542381D01*
X14900000Y17590000D01*
X14947619Y17637620D01*
X14995238Y17732858D01*
X14995238Y17828096D01*
X14947619Y17923334D01*
X14900000Y17970953D01*
X14804761Y18018572D01*
X14471428Y18018572D01*
X15423809Y17637620D02*
X15471428Y17590000D01*
X15566666Y17542381D01*
X15804761Y17542381D01*
X15900000Y17590000D01*
X15947619Y17637620D01*
X15995238Y17732858D01*
X15995238Y17828096D01*
X15947619Y17970953D01*
X15376190Y18542381D01*
X15995238Y18542381D01*
X10423809Y20057143D02*
X10376190Y20104762D01*
X10233333Y20152381D01*
X10138095Y20152381D01*
X9995238Y20104762D01*
X9900000Y20009524D01*
X9852380Y19914286D01*
X9804761Y19723810D01*
X9804761Y19580953D01*
X9852380Y19390477D01*
X9900000Y19295239D01*
X9995238Y19200000D01*
X10138095Y19152381D01*
X10233333Y19152381D01*
X10376190Y19200000D01*
X10423809Y19247620D01*
X10804761Y19866667D02*
X11280952Y19866667D01*
X10709523Y20152381D02*
X11042857Y19152381D01*
X11376190Y20152381D01*
X12280952Y20152381D02*
X11947619Y19676191D01*
X11709523Y20152381D02*
X11709523Y19152381D01*
X12090476Y19152381D01*
X12185714Y19200000D01*
X12233333Y19247620D01*
X12280952Y19342858D01*
X12280952Y19485715D01*
X12233333Y19580953D01*
X12185714Y19628572D01*
X12090476Y19676191D01*
X11709523Y19676191D01*
X12709523Y20152381D02*
X12709523Y19152381D01*
X12947619Y19152381D01*
X13090476Y19200000D01*
X13185714Y19295239D01*
X13233333Y19390477D01*
X13280952Y19580953D01*
X13280952Y19723810D01*
X13233333Y19914286D01*
X13185714Y20009524D01*
X13090476Y20104762D01*
X12947619Y20152381D01*
X12709523Y20152381D01*
X15042857Y20057143D02*
X14995238Y20104762D01*
X14852380Y20152381D01*
X14757142Y20152381D01*
X14614285Y20104762D01*
X14519047Y20009524D01*
X14471428Y19914286D01*
X14423809Y19723810D01*
X14423809Y19580953D01*
X14471428Y19390477D01*
X14519047Y19295239D01*
X14614285Y19200000D01*
X14757142Y19152381D01*
X14852380Y19152381D01*
X14995238Y19200000D01*
X15042857Y19247620D01*
X15995238Y20152381D02*
X15423809Y20152381D01*
X15709523Y20152381D02*
X15709523Y19152381D01*
X15614285Y19295239D01*
X15519047Y19390477D01*
X15423809Y19438096D01*
X10423809Y21667143D02*
X10376190Y21714762D01*
X10233333Y21762381D01*
X10138095Y21762381D01*
X9995238Y21714762D01*
X9900000Y21619524D01*
X9852380Y21524286D01*
X9804761Y21333810D01*
X9804761Y21190953D01*
X9852380Y21000477D01*
X9900000Y20905239D01*
X9995238Y20810000D01*
X10138095Y20762381D01*
X10233333Y20762381D01*
X10376190Y20810000D01*
X10423809Y20857620D01*
X10804761Y21476667D02*
X11280952Y21476667D01*
X10709523Y21762381D02*
X11042857Y20762381D01*
X11376190Y21762381D01*
X12280952Y21762381D02*
X11947619Y21286191D01*
X11709523Y21762381D02*
X11709523Y20762381D01*
X12090476Y20762381D01*
X12185714Y20810000D01*
X12233333Y20857620D01*
X12280952Y20952858D01*
X12280952Y21095715D01*
X12233333Y21190953D01*
X12185714Y21238572D01*
X12090476Y21286191D01*
X11709523Y21286191D01*
X12709523Y21762381D02*
X12709523Y20762381D01*
X12947619Y20762381D01*
X13090476Y20810000D01*
X13185714Y20905239D01*
X13233333Y21000477D01*
X13280952Y21190953D01*
X13280952Y21333810D01*
X13233333Y21524286D01*
X13185714Y21619524D01*
X13090476Y21714762D01*
X12947619Y21762381D01*
X12709523Y21762381D01*
X14471428Y21762381D02*
X14471428Y20762381D01*
X14709523Y20762381D01*
X14852380Y20810000D01*
X14947619Y20905239D01*
X14995238Y21000477D01*
X15042857Y21190953D01*
X15042857Y21333810D01*
X14995238Y21524286D01*
X14947619Y21619524D01*
X14852380Y21714762D01*
X14709523Y21762381D01*
X14471428Y21762381D01*
X15423809Y20857620D02*
X15471428Y20810000D01*
X15566666Y20762381D01*
X15804761Y20762381D01*
X15900000Y20810000D01*
X15947619Y20857620D01*
X15995238Y20952858D01*
X15995238Y21048096D01*
X15947619Y21190953D01*
X15376190Y21762381D01*
X15995238Y21762381D01*
X10471428Y23277143D02*
X10423809Y23324762D01*
X10280952Y23372381D01*
X10185714Y23372381D01*
X10042857Y23324762D01*
X9947619Y23229524D01*
X9900000Y23134286D01*
X9852380Y22943810D01*
X9852380Y22800953D01*
X9900000Y22610477D01*
X9947619Y22515239D01*
X10042857Y22420000D01*
X10185714Y22372381D01*
X10280952Y22372381D01*
X10423809Y22420000D01*
X10471428Y22467620D01*
X10852380Y23086667D02*
X11328571Y23086667D01*
X10757142Y23372381D02*
X11090476Y22372381D01*
X11423809Y23372381D01*
X12328571Y23372381D02*
X11995238Y22896191D01*
X11757142Y23372381D02*
X11757142Y22372381D01*
X12138095Y22372381D01*
X12233333Y22420000D01*
X12280952Y22467620D01*
X12328571Y22562858D01*
X12328571Y22705715D01*
X12280952Y22800953D01*
X12233333Y22848572D01*
X12138095Y22896191D01*
X11757142Y22896191D01*
X12757142Y23372381D02*
X12757142Y22372381D01*
X12995238Y22372381D01*
X13138095Y22420000D01*
X13233333Y22515239D01*
X13280952Y22610477D01*
X13328571Y22800953D01*
X13328571Y22943810D01*
X13280952Y23134286D01*
X13233333Y23229524D01*
X13138095Y23324762D01*
X12995238Y23372381D01*
X12757142Y23372381D01*
X14519047Y22848572D02*
X14852380Y22848572D01*
X14995238Y23372381D02*
X14519047Y23372381D01*
X14519047Y22372381D01*
X14995238Y22372381D01*
X15947619Y23372381D02*
X15376190Y23372381D01*
X15661904Y23372381D02*
X15661904Y22372381D01*
X15566666Y22515239D01*
X15471428Y22610477D01*
X15376190Y22658096D01*
X10495238Y24887143D02*
X10447619Y24934762D01*
X10304761Y24982381D01*
X10209523Y24982381D01*
X10066666Y24934762D01*
X9971428Y24839524D01*
X9923809Y24744286D01*
X9876190Y24553810D01*
X9876190Y24410953D01*
X9923809Y24220477D01*
X9971428Y24125239D01*
X10066666Y24030000D01*
X10209523Y23982381D01*
X10304761Y23982381D01*
X10447619Y24030000D01*
X10495238Y24077620D01*
X10876190Y24696667D02*
X11352380Y24696667D01*
X10780952Y24982381D02*
X11114285Y23982381D01*
X11447619Y24982381D01*
X12352380Y24982381D02*
X12019047Y24506191D01*
X11780952Y24982381D02*
X11780952Y23982381D01*
X12161904Y23982381D01*
X12257142Y24030000D01*
X12304761Y24077620D01*
X12352380Y24172858D01*
X12352380Y24315715D01*
X12304761Y24410953D01*
X12257142Y24458572D01*
X12161904Y24506191D01*
X11780952Y24506191D01*
X12780952Y24982381D02*
X12780952Y23982381D01*
X13019047Y23982381D01*
X13161904Y24030000D01*
X13257142Y24125239D01*
X13304761Y24220477D01*
X13352380Y24410953D01*
X13352380Y24553810D01*
X13304761Y24744286D01*
X13257142Y24839524D01*
X13161904Y24934762D01*
X13019047Y24982381D01*
X12780952Y24982381D01*
X14876190Y24458572D02*
X14542857Y24458572D01*
X14542857Y24982381D02*
X14542857Y23982381D01*
X15019047Y23982381D01*
X15352380Y24077620D02*
X15400000Y24030000D01*
X15495238Y23982381D01*
X15733333Y23982381D01*
X15828571Y24030000D01*
X15876190Y24077620D01*
X15923809Y24172858D01*
X15923809Y24268096D01*
X15876190Y24410953D01*
X15304761Y24982381D01*
X15923809Y24982381D01*
X10423809Y26497143D02*
X10376190Y26544762D01*
X10233333Y26592381D01*
X10138095Y26592381D01*
X9995238Y26544762D01*
X9900000Y26449524D01*
X9852380Y26354286D01*
X9804761Y26163810D01*
X9804761Y26020953D01*
X9852380Y25830477D01*
X9900000Y25735239D01*
X9995238Y25640000D01*
X10138095Y25592381D01*
X10233333Y25592381D01*
X10376190Y25640000D01*
X10423809Y25687620D01*
X10804761Y26306667D02*
X11280952Y26306667D01*
X10709523Y26592381D02*
X11042857Y25592381D01*
X11376190Y26592381D01*
X12280952Y26592381D02*
X11947619Y26116191D01*
X11709523Y26592381D02*
X11709523Y25592381D01*
X12090476Y25592381D01*
X12185714Y25640000D01*
X12233333Y25687620D01*
X12280952Y25782858D01*
X12280952Y25925715D01*
X12233333Y26020953D01*
X12185714Y26068572D01*
X12090476Y26116191D01*
X11709523Y26116191D01*
X12709523Y26592381D02*
X12709523Y25592381D01*
X12947619Y25592381D01*
X13090476Y25640000D01*
X13185714Y25735239D01*
X13233333Y25830477D01*
X13280952Y26020953D01*
X13280952Y26163810D01*
X13233333Y26354286D01*
X13185714Y26449524D01*
X13090476Y26544762D01*
X12947619Y26592381D01*
X12709523Y26592381D01*
X14995238Y25640000D02*
X14900000Y25592381D01*
X14757142Y25592381D01*
X14614285Y25640000D01*
X14519047Y25735239D01*
X14471428Y25830477D01*
X14423809Y26020953D01*
X14423809Y26163810D01*
X14471428Y26354286D01*
X14519047Y26449524D01*
X14614285Y26544762D01*
X14757142Y26592381D01*
X14852380Y26592381D01*
X14995238Y26544762D01*
X15042857Y26497143D01*
X15042857Y26163810D01*
X14852380Y26163810D01*
X15995238Y26592381D02*
X15423809Y26592381D01*
X15709523Y26592381D02*
X15709523Y25592381D01*
X15614285Y25735239D01*
X15519047Y25830477D01*
X15423809Y25878096D01*
D12*
X57300000Y30700000D02*
X81100000Y30700000D01*
X81100000Y30700000D02*
X81100000Y10300000D01*
X81100000Y10300000D02*
X57300000Y10300000D01*
X57300000Y10300000D02*
X57300000Y30700000D01*
D13*
X82500000Y75500000D02*
G75*
G03*
X77000000Y81000000I-5500000J0D01*
G01*
X7500000Y81000000D02*
G75*
G03*
X2500000Y76000000I0J-5000000D01*
G01*
X7500000Y81000000D02*
X77000000Y81000000D01*
X77500000Y1000000D02*
G75*
G03*
X82500000Y6000000I0J5000000D01*
G01*
X2500000Y6500000D02*
G75*
G03*
X8000000Y1000000I5500000J0D01*
G01*
X77500000Y1000000D02*
X8000000Y1000000D01*
X2500000Y76000000D02*
X2500000Y6500000D01*
X82500000Y6000000D02*
X82500000Y75500000D01*
D14*
X73876000Y79500000D02*
G75*
G03*
X73876000Y79500000I-576000J0D01*
G01*
X11276000Y2500000D02*
G75*
G03*
X11276000Y2500000I-576000J0D01*
G01*
X11276000Y79500000D02*
G75*
G03*
X11276000Y79500000I-576000J0D01*
G01*
D11*
X42614285Y65857143D02*
X42157142Y65857143D01*
X41557142Y65628572D02*
X41900000Y65628572D01*
X41728571Y65628572D02*
X41728571Y66228572D01*
X41785714Y66142858D01*
X41842857Y66085715D01*
X41900000Y66057143D01*
X41328571Y66171429D02*
X41300000Y66200000D01*
X41242857Y66228572D01*
X41100000Y66228572D01*
X41042857Y66200000D01*
X41014285Y66171429D01*
X40985714Y66114286D01*
X40985714Y66057143D01*
X41014285Y65971429D01*
X41357142Y65628572D01*
X40985714Y65628572D01*
X39814285Y65857143D02*
X39357142Y65857143D01*
X39585714Y65628572D02*
X39585714Y66085715D01*
X38757142Y65628572D02*
X39100000Y65628572D01*
X38928571Y65628572D02*
X38928571Y66228572D01*
X38985714Y66142858D01*
X39042857Y66085715D01*
X39100000Y66057143D01*
X38528571Y66171429D02*
X38500000Y66200000D01*
X38442857Y66228572D01*
X38300000Y66228572D01*
X38242857Y66200000D01*
X38214285Y66171429D01*
X38185714Y66114286D01*
X38185714Y66057143D01*
X38214285Y65971429D01*
X38557142Y65628572D01*
X38185714Y65628572D01*
X37014285Y65857143D02*
X36557142Y65857143D01*
X36785714Y65628572D02*
X36785714Y66085715D01*
X35985714Y66228572D02*
X36271428Y66228572D01*
X36300000Y65942858D01*
X36271428Y65971429D01*
X36214285Y66000000D01*
X36071428Y66000000D01*
X36014285Y65971429D01*
X35985714Y65942858D01*
X35957142Y65885715D01*
X35957142Y65742858D01*
X35985714Y65685715D01*
X36014285Y65657143D01*
X36071428Y65628572D01*
X36214285Y65628572D01*
X36271428Y65657143D01*
X36300000Y65685715D01*
X5957142Y57200000D02*
X6014285Y57228572D01*
X6100000Y57228572D01*
X6185714Y57200000D01*
X6242857Y57142858D01*
X6271428Y57085715D01*
X6300000Y56971429D01*
X6300000Y56885715D01*
X6271428Y56771429D01*
X6242857Y56714286D01*
X6185714Y56657143D01*
X6100000Y56628572D01*
X6042857Y56628572D01*
X5957142Y56657143D01*
X5928571Y56685715D01*
X5928571Y56885715D01*
X6042857Y56885715D01*
X5671428Y56628572D02*
X5671428Y57228572D01*
X5328571Y56628572D01*
X5328571Y57228572D01*
X5042857Y56628572D02*
X5042857Y57228572D01*
X4900000Y57228572D01*
X4814285Y57200000D01*
X4757142Y57142858D01*
X4728571Y57085715D01*
X4700000Y56971429D01*
X4700000Y56885715D01*
X4728571Y56771429D01*
X4757142Y56714286D01*
X4814285Y56657143D01*
X4900000Y56628572D01*
X5042857Y56628572D01*
X69371428Y71071429D02*
X69771428Y71071429D01*
X69142857Y71214286D02*
X69571428Y71357143D01*
X69571428Y70985715D01*
X69171428Y70642858D02*
X69171428Y70585715D01*
X69200000Y70528572D01*
X69228571Y70500000D01*
X69285714Y70471429D01*
X69400000Y70442858D01*
X69542857Y70442858D01*
X69657142Y70471429D01*
X69714285Y70500000D01*
X69742857Y70528572D01*
X69771428Y70585715D01*
X69771428Y70642858D01*
X69742857Y70700000D01*
X69714285Y70728572D01*
X69657142Y70757143D01*
X69542857Y70785715D01*
X69400000Y70785715D01*
X69285714Y70757143D01*
X69228571Y70728572D01*
X69200000Y70700000D01*
X69171428Y70642858D01*
D10*
X17152380Y65414286D02*
X17152380Y65985715D01*
X17152380Y65700000D02*
X16152380Y65700000D01*
X16295238Y65795239D01*
X16390476Y65890477D01*
X16438095Y65985715D01*
D11*
X58953738Y11702381D02*
X59525166Y11702381D01*
X59239452Y12702381D02*
X59239452Y11702381D01*
X59858500Y12178572D02*
X60191833Y12178572D01*
X60334690Y12702381D02*
X59858500Y12702381D01*
X59858500Y11702381D01*
X60334690Y11702381D01*
X60715642Y12654762D02*
X60858500Y12702381D01*
X61096595Y12702381D01*
X61191833Y12654762D01*
X61239452Y12607143D01*
X61287071Y12511905D01*
X61287071Y12416667D01*
X61239452Y12321429D01*
X61191833Y12273810D01*
X61096595Y12226191D01*
X60906119Y12178572D01*
X60810880Y12130953D01*
X60763261Y12083334D01*
X60715642Y11988096D01*
X60715642Y11892858D01*
X60763261Y11797620D01*
X60810880Y11750000D01*
X60906119Y11702381D01*
X61144214Y11702381D01*
X61287071Y11750000D01*
X61572785Y11702381D02*
X62144214Y11702381D01*
X61858500Y12702381D02*
X61858500Y11702381D01*
X63239452Y12702381D02*
X63239452Y11702381D01*
X63620404Y11702381D01*
X63715642Y11750000D01*
X63763261Y11797620D01*
X63810880Y11892858D01*
X63810880Y12035715D01*
X63763261Y12130953D01*
X63715642Y12178572D01*
X63620404Y12226191D01*
X63239452Y12226191D01*
X64429928Y11702381D02*
X64620404Y11702381D01*
X64715642Y11750000D01*
X64810880Y11845239D01*
X64858500Y12035715D01*
X64858500Y12369048D01*
X64810880Y12559524D01*
X64715642Y12654762D01*
X64620404Y12702381D01*
X64429928Y12702381D01*
X64334690Y12654762D01*
X64239452Y12559524D01*
X64191833Y12369048D01*
X64191833Y12035715D01*
X64239452Y11845239D01*
X64334690Y11750000D01*
X64429928Y11702381D01*
X65287071Y12702381D02*
X65287071Y11702381D01*
X65763261Y12702381D02*
X65763261Y11702381D01*
X66334690Y12702381D01*
X66334690Y11702381D01*
X66668023Y11702381D02*
X67239452Y11702381D01*
X66953738Y12702381D02*
X66953738Y11702381D01*
X67525166Y12654762D02*
X67668023Y12702381D01*
X67906119Y12702381D01*
X68001357Y12654762D01*
X68048976Y12607143D01*
X68096595Y12511905D01*
X68096595Y12416667D01*
X68048976Y12321429D01*
X68001357Y12273810D01*
X67906119Y12226191D01*
X67715642Y12178572D01*
X67620404Y12130953D01*
X67572785Y12083334D01*
X67525166Y11988096D01*
X67525166Y11892858D01*
X67572785Y11797620D01*
X67620404Y11750000D01*
X67715642Y11702381D01*
X67953738Y11702381D01*
X68096595Y11750000D01*
X58953738Y13312381D02*
X59525166Y13312381D01*
X59239452Y14312381D02*
X59239452Y13312381D01*
X59858500Y14312381D02*
X59858500Y13312381D01*
X60239452Y13312381D01*
X60334690Y13360000D01*
X60382309Y13407620D01*
X60429928Y13502858D01*
X60429928Y13645715D01*
X60382309Y13740953D01*
X60334690Y13788572D01*
X60239452Y13836191D01*
X59858500Y13836191D01*
X61382309Y14312381D02*
X60810880Y14312381D01*
X61096595Y14312381D02*
X61096595Y13312381D01*
X61001357Y13455239D01*
X60906119Y13550477D01*
X60810880Y13598096D01*
X61810880Y14217143D02*
X61858500Y14264762D01*
X61810880Y14312381D01*
X61763261Y14264762D01*
X61810880Y14217143D01*
X61810880Y14312381D01*
X61810880Y13693334D02*
X61858500Y13740953D01*
X61810880Y13788572D01*
X61763261Y13740953D01*
X61810880Y13693334D01*
X61810880Y13788572D01*
X62906119Y13312381D02*
X63239452Y14312381D01*
X63572785Y13312381D01*
X64477547Y14217143D02*
X64429928Y14264762D01*
X64287071Y14312381D01*
X64191833Y14312381D01*
X64048976Y14264762D01*
X63953738Y14169524D01*
X63906119Y14074286D01*
X63858500Y13883810D01*
X63858500Y13740953D01*
X63906119Y13550477D01*
X63953738Y13455239D01*
X64048976Y13360000D01*
X64191833Y13312381D01*
X64287071Y13312381D01*
X64429928Y13360000D01*
X64477547Y13407620D01*
X65239452Y13788572D02*
X64906119Y13788572D01*
X64906119Y14312381D02*
X64906119Y13312381D01*
X65382309Y13312381D01*
X66858500Y13788572D02*
X66525166Y13788572D01*
X66525166Y14312381D02*
X66525166Y13312381D01*
X67001357Y13312381D01*
X67382309Y14312381D02*
X67382309Y13312381D01*
X67715642Y14026667D01*
X68048976Y13312381D01*
X68048976Y14312381D01*
X69287071Y14312381D02*
X69287071Y13312381D01*
X69763261Y14312381D02*
X69763261Y13312381D01*
X70334690Y14312381D01*
X70334690Y13312381D01*
X70810880Y14312381D02*
X70810880Y13312381D01*
X71191833Y13312381D01*
X71287071Y13360000D01*
X71334690Y13407620D01*
X71382309Y13502858D01*
X71382309Y13645715D01*
X71334690Y13740953D01*
X71287071Y13788572D01*
X71191833Y13836191D01*
X70810880Y13836191D01*
X71810880Y13312381D02*
X71810880Y14121905D01*
X71858500Y14217143D01*
X71906119Y14264762D01*
X72001357Y14312381D01*
X72191833Y14312381D01*
X72287071Y14264762D01*
X72334690Y14217143D01*
X72382309Y14121905D01*
X72382309Y13312381D01*
X72715642Y13312381D02*
X73287071Y13312381D01*
X73001357Y14312381D02*
X73001357Y13312381D01*
X58953738Y14922381D02*
X59525166Y14922381D01*
X59239452Y15922381D02*
X59239452Y14922381D01*
X59858500Y15922381D02*
X59858500Y14922381D01*
X60239452Y14922381D01*
X60334690Y14970000D01*
X60382309Y15017620D01*
X60429928Y15112858D01*
X60429928Y15255715D01*
X60382309Y15350953D01*
X60334690Y15398572D01*
X60239452Y15446191D01*
X59858500Y15446191D01*
X60810880Y15017620D02*
X60858500Y14970000D01*
X60953738Y14922381D01*
X61191833Y14922381D01*
X61287071Y14970000D01*
X61334690Y15017620D01*
X61382309Y15112858D01*
X61382309Y15208096D01*
X61334690Y15350953D01*
X60763261Y15922381D01*
X61382309Y15922381D01*
X61810880Y15827143D02*
X61858500Y15874762D01*
X61810880Y15922381D01*
X61763261Y15874762D01*
X61810880Y15827143D01*
X61810880Y15922381D01*
X61810880Y15303334D02*
X61858500Y15350953D01*
X61810880Y15398572D01*
X61763261Y15350953D01*
X61810880Y15303334D01*
X61810880Y15398572D01*
X62906119Y14922381D02*
X63239452Y15922381D01*
X63572785Y14922381D01*
X64477547Y15827143D02*
X64429928Y15874762D01*
X64287071Y15922381D01*
X64191833Y15922381D01*
X64048976Y15874762D01*
X63953738Y15779524D01*
X63906119Y15684286D01*
X63858500Y15493810D01*
X63858500Y15350953D01*
X63906119Y15160477D01*
X63953738Y15065239D01*
X64048976Y14970000D01*
X64191833Y14922381D01*
X64287071Y14922381D01*
X64429928Y14970000D01*
X64477547Y15017620D01*
X65239452Y15398572D02*
X64906119Y15398572D01*
X64906119Y15922381D02*
X64906119Y14922381D01*
X65382309Y14922381D01*
X67096595Y15827143D02*
X67048976Y15874762D01*
X66906119Y15922381D01*
X66810880Y15922381D01*
X66668023Y15874762D01*
X66572785Y15779524D01*
X66525166Y15684286D01*
X66477547Y15493810D01*
X66477547Y15350953D01*
X66525166Y15160477D01*
X66572785Y15065239D01*
X66668023Y14970000D01*
X66810880Y14922381D01*
X66906119Y14922381D01*
X67048976Y14970000D01*
X67096595Y15017620D01*
X67382309Y14922381D02*
X67715642Y15922381D01*
X68048976Y14922381D01*
X69144214Y15922381D02*
X69144214Y14922381D01*
X69620404Y15922381D02*
X69620404Y14922381D01*
X70191833Y15922381D01*
X70191833Y14922381D01*
X58953738Y16532381D02*
X59525166Y16532381D01*
X59239452Y17532381D02*
X59239452Y16532381D01*
X59858500Y17532381D02*
X59858500Y16532381D01*
X60239452Y16532381D01*
X60334690Y16580000D01*
X60382309Y16627620D01*
X60429928Y16722858D01*
X60429928Y16865715D01*
X60382309Y16960953D01*
X60334690Y17008572D01*
X60239452Y17056191D01*
X59858500Y17056191D01*
X60763261Y16532381D02*
X61382309Y16532381D01*
X61048976Y16913334D01*
X61191833Y16913334D01*
X61287071Y16960953D01*
X61334690Y17008572D01*
X61382309Y17103810D01*
X61382309Y17341905D01*
X61334690Y17437143D01*
X61287071Y17484762D01*
X61191833Y17532381D01*
X60906119Y17532381D01*
X60810880Y17484762D01*
X60763261Y17437143D01*
X61810880Y17437143D02*
X61858500Y17484762D01*
X61810880Y17532381D01*
X61763261Y17484762D01*
X61810880Y17437143D01*
X61810880Y17532381D01*
X61810880Y16913334D02*
X61858500Y16960953D01*
X61810880Y17008572D01*
X61763261Y16960953D01*
X61810880Y16913334D01*
X61810880Y17008572D01*
X63048976Y17532381D02*
X63048976Y16532381D01*
X63382309Y17246667D01*
X63715642Y16532381D01*
X63715642Y17532381D01*
X64382309Y16532381D02*
X64572785Y16532381D01*
X64668023Y16580000D01*
X64763261Y16675239D01*
X64810880Y16865715D01*
X64810880Y17199048D01*
X64763261Y17389524D01*
X64668023Y17484762D01*
X64572785Y17532381D01*
X64382309Y17532381D01*
X64287071Y17484762D01*
X64191833Y17389524D01*
X64144214Y17199048D01*
X64144214Y16865715D01*
X64191833Y16675239D01*
X64287071Y16580000D01*
X64382309Y16532381D01*
X65239452Y17532381D02*
X65239452Y16532381D01*
X65477547Y16532381D01*
X65620404Y16580000D01*
X65715642Y16675239D01*
X65763261Y16770477D01*
X65810880Y16960953D01*
X65810880Y17103810D01*
X65763261Y17294286D01*
X65715642Y17389524D01*
X65620404Y17484762D01*
X65477547Y17532381D01*
X65239452Y17532381D01*
X66858500Y16532381D02*
X67191833Y17532381D01*
X67525166Y16532381D01*
X68429928Y17437143D02*
X68382309Y17484762D01*
X68239452Y17532381D01*
X68144214Y17532381D01*
X68001357Y17484762D01*
X67906119Y17389524D01*
X67858500Y17294286D01*
X67810880Y17103810D01*
X67810880Y16960953D01*
X67858500Y16770477D01*
X67906119Y16675239D01*
X68001357Y16580000D01*
X68144214Y16532381D01*
X68239452Y16532381D01*
X68382309Y16580000D01*
X68429928Y16627620D01*
X68810880Y17246667D02*
X69287071Y17246667D01*
X68715642Y17532381D02*
X69048976Y16532381D01*
X69382309Y17532381D01*
X70668023Y16532381D02*
X70858500Y16532381D01*
X70953738Y16580000D01*
X71048976Y16675239D01*
X71096595Y16865715D01*
X71096595Y17199048D01*
X71048976Y17389524D01*
X70953738Y17484762D01*
X70858500Y17532381D01*
X70668023Y17532381D01*
X70572785Y17484762D01*
X70477547Y17389524D01*
X70429928Y17199048D01*
X70429928Y16865715D01*
X70477547Y16675239D01*
X70572785Y16580000D01*
X70668023Y16532381D01*
X71525166Y16532381D02*
X71525166Y17341905D01*
X71572785Y17437143D01*
X71620404Y17484762D01*
X71715642Y17532381D01*
X71906119Y17532381D01*
X72001357Y17484762D01*
X72048976Y17437143D01*
X72096595Y17341905D01*
X72096595Y16532381D01*
X72429928Y16532381D02*
X73001357Y16532381D01*
X72715642Y17532381D02*
X72715642Y16532381D01*
X74810880Y16484762D02*
X73953738Y17770477D01*
X75763261Y16532381D02*
X76096595Y17532381D01*
X76429928Y16532381D01*
X77334690Y17437143D02*
X77287071Y17484762D01*
X77144214Y17532381D01*
X77048976Y17532381D01*
X76906119Y17484762D01*
X76810880Y17389524D01*
X76763261Y17294286D01*
X76715642Y17103810D01*
X76715642Y16960953D01*
X76763261Y16770477D01*
X76810880Y16675239D01*
X76906119Y16580000D01*
X77048976Y16532381D01*
X77144214Y16532381D01*
X77287071Y16580000D01*
X77334690Y16627620D01*
X77715642Y17246667D02*
X78191833Y17246667D01*
X77620404Y17532381D02*
X77953738Y16532381D01*
X78287071Y17532381D01*
X79048976Y16865715D02*
X79048976Y17532381D01*
X78810880Y16484762D02*
X78572785Y17199048D01*
X79191833Y17199048D01*
X58953738Y18142381D02*
X59525166Y18142381D01*
X59239452Y19142381D02*
X59239452Y18142381D01*
X59858500Y19142381D02*
X59858500Y18142381D01*
X60239452Y18142381D01*
X60334690Y18190000D01*
X60382309Y18237620D01*
X60429928Y18332858D01*
X60429928Y18475715D01*
X60382309Y18570953D01*
X60334690Y18618572D01*
X60239452Y18666191D01*
X59858500Y18666191D01*
X61287071Y18475715D02*
X61287071Y19142381D01*
X61048976Y18094762D02*
X60810880Y18809048D01*
X61429928Y18809048D01*
X61810880Y19047143D02*
X61858500Y19094762D01*
X61810880Y19142381D01*
X61763261Y19094762D01*
X61810880Y19047143D01*
X61810880Y19142381D01*
X61810880Y18523334D02*
X61858500Y18570953D01*
X61810880Y18618572D01*
X61763261Y18570953D01*
X61810880Y18523334D01*
X61810880Y18618572D01*
X63620404Y19142381D02*
X63287071Y18666191D01*
X63048976Y19142381D02*
X63048976Y18142381D01*
X63429928Y18142381D01*
X63525166Y18190000D01*
X63572785Y18237620D01*
X63620404Y18332858D01*
X63620404Y18475715D01*
X63572785Y18570953D01*
X63525166Y18618572D01*
X63429928Y18666191D01*
X63048976Y18666191D01*
X64048976Y18618572D02*
X64382309Y18618572D01*
X64525166Y19142381D02*
X64048976Y19142381D01*
X64048976Y18142381D01*
X64525166Y18142381D01*
X64906119Y19094762D02*
X65048976Y19142381D01*
X65287071Y19142381D01*
X65382309Y19094762D01*
X65429928Y19047143D01*
X65477547Y18951905D01*
X65477547Y18856667D01*
X65429928Y18761429D01*
X65382309Y18713810D01*
X65287071Y18666191D01*
X65096595Y18618572D01*
X65001357Y18570953D01*
X64953738Y18523334D01*
X64906119Y18428096D01*
X64906119Y18332858D01*
X64953738Y18237620D01*
X65001357Y18190000D01*
X65096595Y18142381D01*
X65334690Y18142381D01*
X65477547Y18190000D01*
X66096595Y18142381D02*
X66287071Y18142381D01*
X66382309Y18190000D01*
X66477547Y18285239D01*
X66525166Y18475715D01*
X66525166Y18809048D01*
X66477547Y18999524D01*
X66382309Y19094762D01*
X66287071Y19142381D01*
X66096595Y19142381D01*
X66001357Y19094762D01*
X65906119Y18999524D01*
X65858500Y18809048D01*
X65858500Y18475715D01*
X65906119Y18285239D01*
X66001357Y18190000D01*
X66096595Y18142381D01*
X66953738Y19142381D02*
X66953738Y18142381D01*
X67525166Y19142381D01*
X67525166Y18142381D01*
X67953738Y18856667D02*
X68429928Y18856667D01*
X67858500Y19142381D02*
X68191833Y18142381D01*
X68525166Y19142381D01*
X68858500Y19142381D02*
X68858500Y18142381D01*
X69429928Y19142381D01*
X69429928Y18142381D01*
X70477547Y19047143D02*
X70429928Y19094762D01*
X70287071Y19142381D01*
X70191833Y19142381D01*
X70048976Y19094762D01*
X69953738Y18999524D01*
X69906119Y18904286D01*
X69858500Y18713810D01*
X69858500Y18570953D01*
X69906119Y18380477D01*
X69953738Y18285239D01*
X70048976Y18190000D01*
X70191833Y18142381D01*
X70287071Y18142381D01*
X70429928Y18190000D01*
X70477547Y18237620D01*
X70906119Y18618572D02*
X71239452Y18618572D01*
X71382309Y19142381D02*
X70906119Y19142381D01*
X70906119Y18142381D01*
X71382309Y18142381D01*
X72525166Y19094762D02*
X72668023Y19142381D01*
X72906119Y19142381D01*
X73001357Y19094762D01*
X73048976Y19047143D01*
X73096595Y18951905D01*
X73096595Y18856667D01*
X73048976Y18761429D01*
X73001357Y18713810D01*
X72906119Y18666191D01*
X72715642Y18618572D01*
X72620404Y18570953D01*
X72572785Y18523334D01*
X72525166Y18428096D01*
X72525166Y18332858D01*
X72572785Y18237620D01*
X72620404Y18190000D01*
X72715642Y18142381D01*
X72953738Y18142381D01*
X73096595Y18190000D01*
X73525166Y19142381D02*
X73525166Y18142381D01*
X74525166Y18190000D02*
X74429928Y18142381D01*
X74287071Y18142381D01*
X74144214Y18190000D01*
X74048976Y18285239D01*
X74001357Y18380477D01*
X73953738Y18570953D01*
X73953738Y18713810D01*
X74001357Y18904286D01*
X74048976Y18999524D01*
X74144214Y19094762D01*
X74287071Y19142381D01*
X74382309Y19142381D01*
X74525166Y19094762D01*
X74572785Y19047143D01*
X74572785Y18713810D01*
X74382309Y18713810D01*
X75001357Y19142381D02*
X75001357Y18142381D01*
X75572785Y19142381D01*
X75572785Y18142381D01*
X76001357Y18856667D02*
X76477547Y18856667D01*
X75906119Y19142381D02*
X76239452Y18142381D01*
X76572785Y19142381D01*
X77382309Y19142381D02*
X76906119Y19142381D01*
X76906119Y18142381D01*
X78477547Y19142381D02*
X78477547Y18142381D01*
X78953738Y19142381D02*
X78953738Y18142381D01*
X79525166Y19142381D01*
X79525166Y18142381D01*
X58953738Y19752381D02*
X59525166Y19752381D01*
X59239452Y20752381D02*
X59239452Y19752381D01*
X59858500Y20752381D02*
X59858500Y19752381D01*
X60239452Y19752381D01*
X60334690Y19800000D01*
X60382309Y19847620D01*
X60429928Y19942858D01*
X60429928Y20085715D01*
X60382309Y20180953D01*
X60334690Y20228572D01*
X60239452Y20276191D01*
X59858500Y20276191D01*
X61334690Y19752381D02*
X60858500Y19752381D01*
X60810880Y20228572D01*
X60858500Y20180953D01*
X60953738Y20133334D01*
X61191833Y20133334D01*
X61287071Y20180953D01*
X61334690Y20228572D01*
X61382309Y20323810D01*
X61382309Y20561905D01*
X61334690Y20657143D01*
X61287071Y20704762D01*
X61191833Y20752381D01*
X60953738Y20752381D01*
X60858500Y20704762D01*
X60810880Y20657143D01*
X61810880Y20657143D02*
X61858500Y20704762D01*
X61810880Y20752381D01*
X61763261Y20704762D01*
X61810880Y20657143D01*
X61810880Y20752381D01*
X61810880Y20133334D02*
X61858500Y20180953D01*
X61810880Y20228572D01*
X61763261Y20180953D01*
X61810880Y20133334D01*
X61810880Y20228572D01*
X62906119Y19752381D02*
X63239452Y20752381D01*
X63572785Y19752381D01*
X64477547Y20657143D02*
X64429928Y20704762D01*
X64287071Y20752381D01*
X64191833Y20752381D01*
X64048976Y20704762D01*
X63953738Y20609524D01*
X63906119Y20514286D01*
X63858500Y20323810D01*
X63858500Y20180953D01*
X63906119Y19990477D01*
X63953738Y19895239D01*
X64048976Y19800000D01*
X64191833Y19752381D01*
X64287071Y19752381D01*
X64429928Y19800000D01*
X64477547Y19847620D01*
X65239452Y20228572D02*
X64906119Y20228572D01*
X64906119Y20752381D02*
X64906119Y19752381D01*
X65382309Y19752381D01*
X66715642Y19752381D02*
X66906119Y19752381D01*
X67001357Y19800000D01*
X67096595Y19895239D01*
X67144214Y20085715D01*
X67144214Y20419048D01*
X67096595Y20609524D01*
X67001357Y20704762D01*
X66906119Y20752381D01*
X66715642Y20752381D01*
X66620404Y20704762D01*
X66525166Y20609524D01*
X66477547Y20419048D01*
X66477547Y20085715D01*
X66525166Y19895239D01*
X66620404Y19800000D01*
X66715642Y19752381D01*
X67572785Y19752381D02*
X67572785Y20561905D01*
X67620404Y20657143D01*
X67668023Y20704762D01*
X67763261Y20752381D01*
X67953738Y20752381D01*
X68048976Y20704762D01*
X68096595Y20657143D01*
X68144214Y20561905D01*
X68144214Y19752381D01*
X68477547Y19752381D02*
X69048976Y19752381D01*
X68763261Y20752381D02*
X68763261Y19752381D01*
X70144214Y20752381D02*
X70144214Y19752381D01*
X70525166Y19752381D01*
X70620404Y19800000D01*
X70668023Y19847620D01*
X70715642Y19942858D01*
X70715642Y20085715D01*
X70668023Y20180953D01*
X70620404Y20228572D01*
X70525166Y20276191D01*
X70144214Y20276191D01*
X71334690Y19752381D02*
X71525166Y19752381D01*
X71620404Y19800000D01*
X71715642Y19895239D01*
X71763261Y20085715D01*
X71763261Y20419048D01*
X71715642Y20609524D01*
X71620404Y20704762D01*
X71525166Y20752381D01*
X71334690Y20752381D01*
X71239452Y20704762D01*
X71144214Y20609524D01*
X71096595Y20419048D01*
X71096595Y20085715D01*
X71144214Y19895239D01*
X71239452Y19800000D01*
X71334690Y19752381D01*
X72144214Y20704762D02*
X72287071Y20752381D01*
X72525166Y20752381D01*
X72620404Y20704762D01*
X72668023Y20657143D01*
X72715642Y20561905D01*
X72715642Y20466667D01*
X72668023Y20371429D01*
X72620404Y20323810D01*
X72525166Y20276191D01*
X72334690Y20228572D01*
X72239452Y20180953D01*
X72191833Y20133334D01*
X72144214Y20038096D01*
X72144214Y19942858D01*
X72191833Y19847620D01*
X72239452Y19800000D01*
X72334690Y19752381D01*
X72572785Y19752381D01*
X72715642Y19800000D01*
X73001357Y19752381D02*
X73572785Y19752381D01*
X73287071Y20752381D02*
X73287071Y19752381D01*
X73906119Y20371429D02*
X74668023Y20371429D01*
X75715642Y20657143D02*
X75668023Y20704762D01*
X75525166Y20752381D01*
X75429928Y20752381D01*
X75287071Y20704762D01*
X75191833Y20609524D01*
X75144214Y20514286D01*
X75096595Y20323810D01*
X75096595Y20180953D01*
X75144214Y19990477D01*
X75191833Y19895239D01*
X75287071Y19800000D01*
X75429928Y19752381D01*
X75525166Y19752381D01*
X75668023Y19800000D01*
X75715642Y19847620D01*
X76096595Y20466667D02*
X76572785Y20466667D01*
X76001357Y20752381D02*
X76334690Y19752381D01*
X76668023Y20752381D01*
X77001357Y20752381D02*
X77001357Y19752381D01*
X77382309Y19752381D01*
X77477547Y19800000D01*
X77525166Y19847620D01*
X77572785Y19942858D01*
X77572785Y20085715D01*
X77525166Y20180953D01*
X77477547Y20228572D01*
X77382309Y20276191D01*
X77001357Y20276191D01*
X58953738Y21362381D02*
X59525166Y21362381D01*
X59239452Y22362381D02*
X59239452Y21362381D01*
X59858500Y22362381D02*
X59858500Y21362381D01*
X60239452Y21362381D01*
X60334690Y21410000D01*
X60382309Y21457620D01*
X60429928Y21552858D01*
X60429928Y21695715D01*
X60382309Y21790953D01*
X60334690Y21838572D01*
X60239452Y21886191D01*
X59858500Y21886191D01*
X61287071Y21362381D02*
X61096595Y21362381D01*
X61001357Y21410000D01*
X60953738Y21457620D01*
X60858500Y21600477D01*
X60810880Y21790953D01*
X60810880Y22171905D01*
X60858500Y22267143D01*
X60906119Y22314762D01*
X61001357Y22362381D01*
X61191833Y22362381D01*
X61287071Y22314762D01*
X61334690Y22267143D01*
X61382309Y22171905D01*
X61382309Y21933810D01*
X61334690Y21838572D01*
X61287071Y21790953D01*
X61191833Y21743334D01*
X61001357Y21743334D01*
X60906119Y21790953D01*
X60858500Y21838572D01*
X60810880Y21933810D01*
X61810880Y22267143D02*
X61858500Y22314762D01*
X61810880Y22362381D01*
X61763261Y22314762D01*
X61810880Y22267143D01*
X61810880Y22362381D01*
X61810880Y21743334D02*
X61858500Y21790953D01*
X61810880Y21838572D01*
X61763261Y21790953D01*
X61810880Y21743334D01*
X61810880Y21838572D01*
X62906119Y21362381D02*
X63239452Y22362381D01*
X63572785Y21362381D01*
X64477547Y22267143D02*
X64429928Y22314762D01*
X64287071Y22362381D01*
X64191833Y22362381D01*
X64048976Y22314762D01*
X63953738Y22219524D01*
X63906119Y22124286D01*
X63858500Y21933810D01*
X63858500Y21790953D01*
X63906119Y21600477D01*
X63953738Y21505239D01*
X64048976Y21410000D01*
X64191833Y21362381D01*
X64287071Y21362381D01*
X64429928Y21410000D01*
X64477547Y21457620D01*
X65239452Y21838572D02*
X64906119Y21838572D01*
X64906119Y22362381D02*
X64906119Y21362381D01*
X65382309Y21362381D01*
X67096595Y22362381D02*
X66763261Y21886191D01*
X66525166Y22362381D02*
X66525166Y21362381D01*
X66906119Y21362381D01*
X67001357Y21410000D01*
X67048976Y21457620D01*
X67096595Y21552858D01*
X67096595Y21695715D01*
X67048976Y21790953D01*
X67001357Y21838572D01*
X66906119Y21886191D01*
X66525166Y21886191D01*
X67477547Y22076667D02*
X67953738Y22076667D01*
X67382309Y22362381D02*
X67715642Y21362381D01*
X68048976Y22362381D01*
X68287071Y21362381D02*
X68525166Y22362381D01*
X68715642Y21648096D01*
X68906119Y22362381D01*
X69144214Y21362381D01*
X70287071Y22362381D02*
X70287071Y21362381D01*
X70763261Y22362381D02*
X70763261Y21362381D01*
X71334690Y22362381D01*
X71334690Y21362381D01*
X58953738Y22972381D02*
X59525166Y22972381D01*
X59239452Y23972381D02*
X59239452Y22972381D01*
X59858500Y23972381D02*
X59858500Y22972381D01*
X60239452Y22972381D01*
X60334690Y23020000D01*
X60382309Y23067620D01*
X60429928Y23162858D01*
X60429928Y23305715D01*
X60382309Y23400953D01*
X60334690Y23448572D01*
X60239452Y23496191D01*
X59858500Y23496191D01*
X60763261Y22972381D02*
X61429928Y22972381D01*
X61001357Y23972381D01*
X61810880Y23877143D02*
X61858500Y23924762D01*
X61810880Y23972381D01*
X61763261Y23924762D01*
X61810880Y23877143D01*
X61810880Y23972381D01*
X61810880Y23353334D02*
X61858500Y23400953D01*
X61810880Y23448572D01*
X61763261Y23400953D01*
X61810880Y23353334D01*
X61810880Y23448572D01*
X63620404Y23972381D02*
X63287071Y23496191D01*
X63048976Y23972381D02*
X63048976Y22972381D01*
X63429928Y22972381D01*
X63525166Y23020000D01*
X63572785Y23067620D01*
X63620404Y23162858D01*
X63620404Y23305715D01*
X63572785Y23400953D01*
X63525166Y23448572D01*
X63429928Y23496191D01*
X63048976Y23496191D01*
X64048976Y23448572D02*
X64382309Y23448572D01*
X64525166Y23972381D02*
X64048976Y23972381D01*
X64048976Y22972381D01*
X64525166Y22972381D01*
X64906119Y23924762D02*
X65048976Y23972381D01*
X65287071Y23972381D01*
X65382309Y23924762D01*
X65429928Y23877143D01*
X65477547Y23781905D01*
X65477547Y23686667D01*
X65429928Y23591429D01*
X65382309Y23543810D01*
X65287071Y23496191D01*
X65096595Y23448572D01*
X65001357Y23400953D01*
X64953738Y23353334D01*
X64906119Y23258096D01*
X64906119Y23162858D01*
X64953738Y23067620D01*
X65001357Y23020000D01*
X65096595Y22972381D01*
X65334690Y22972381D01*
X65477547Y23020000D01*
X66096595Y22972381D02*
X66287071Y22972381D01*
X66382309Y23020000D01*
X66477547Y23115239D01*
X66525166Y23305715D01*
X66525166Y23639048D01*
X66477547Y23829524D01*
X66382309Y23924762D01*
X66287071Y23972381D01*
X66096595Y23972381D01*
X66001357Y23924762D01*
X65906119Y23829524D01*
X65858500Y23639048D01*
X65858500Y23305715D01*
X65906119Y23115239D01*
X66001357Y23020000D01*
X66096595Y22972381D01*
X66953738Y23972381D02*
X66953738Y22972381D01*
X67525166Y23972381D01*
X67525166Y22972381D01*
X67953738Y23686667D02*
X68429928Y23686667D01*
X67858500Y23972381D02*
X68191833Y22972381D01*
X68525166Y23972381D01*
X68858500Y23972381D02*
X68858500Y22972381D01*
X69429928Y23972381D01*
X69429928Y22972381D01*
X70477547Y23877143D02*
X70429928Y23924762D01*
X70287071Y23972381D01*
X70191833Y23972381D01*
X70048976Y23924762D01*
X69953738Y23829524D01*
X69906119Y23734286D01*
X69858500Y23543810D01*
X69858500Y23400953D01*
X69906119Y23210477D01*
X69953738Y23115239D01*
X70048976Y23020000D01*
X70191833Y22972381D01*
X70287071Y22972381D01*
X70429928Y23020000D01*
X70477547Y23067620D01*
X70906119Y23448572D02*
X71239452Y23448572D01*
X71382309Y23972381D02*
X70906119Y23972381D01*
X70906119Y22972381D01*
X71382309Y22972381D01*
X73144214Y23877143D02*
X73096595Y23924762D01*
X72953738Y23972381D01*
X72858500Y23972381D01*
X72715642Y23924762D01*
X72620404Y23829524D01*
X72572785Y23734286D01*
X72525166Y23543810D01*
X72525166Y23400953D01*
X72572785Y23210477D01*
X72620404Y23115239D01*
X72715642Y23020000D01*
X72858500Y22972381D01*
X72953738Y22972381D01*
X73096595Y23020000D01*
X73144214Y23067620D01*
X73429928Y22972381D02*
X73763261Y23972381D01*
X74096595Y22972381D01*
X58953738Y24582381D02*
X59525166Y24582381D01*
X59239452Y25582381D02*
X59239452Y24582381D01*
X59858500Y25582381D02*
X59858500Y24582381D01*
X60239452Y24582381D01*
X60334690Y24630000D01*
X60382309Y24677620D01*
X60429928Y24772858D01*
X60429928Y24915715D01*
X60382309Y25010953D01*
X60334690Y25058572D01*
X60239452Y25106191D01*
X59858500Y25106191D01*
X61382309Y25582381D02*
X60810880Y25582381D01*
X61096595Y25582381D02*
X61096595Y24582381D01*
X61001357Y24725239D01*
X60906119Y24820477D01*
X60810880Y24868096D01*
X61763261Y24677620D02*
X61810880Y24630000D01*
X61906119Y24582381D01*
X62144214Y24582381D01*
X62239452Y24630000D01*
X62287071Y24677620D01*
X62334690Y24772858D01*
X62334690Y24868096D01*
X62287071Y25010953D01*
X61715642Y25582381D01*
X62334690Y25582381D01*
X62763261Y25487143D02*
X62810880Y25534762D01*
X62763261Y25582381D01*
X62715642Y25534762D01*
X62763261Y25487143D01*
X62763261Y25582381D01*
X62763261Y24963334D02*
X62810880Y25010953D01*
X62763261Y25058572D01*
X62715642Y25010953D01*
X62763261Y24963334D01*
X62763261Y25058572D01*
X63858499Y24582381D02*
X64191833Y25582381D01*
X64525166Y24582381D01*
X65429928Y25487143D02*
X65382309Y25534762D01*
X65239452Y25582381D01*
X65144214Y25582381D01*
X65001357Y25534762D01*
X64906119Y25439524D01*
X64858499Y25344286D01*
X64810880Y25153810D01*
X64810880Y25010953D01*
X64858499Y24820477D01*
X64906119Y24725239D01*
X65001357Y24630000D01*
X65144214Y24582381D01*
X65239452Y24582381D01*
X65382309Y24630000D01*
X65429928Y24677620D01*
X65810880Y25296667D02*
X66287071Y25296667D01*
X65715642Y25582381D02*
X66048976Y24582381D01*
X66382309Y25582381D01*
X67191833Y24582381D02*
X66715642Y24582381D01*
X66668023Y25058572D01*
X66715642Y25010953D01*
X66810880Y24963334D01*
X67048976Y24963334D01*
X67144214Y25010953D01*
X67191833Y25058572D01*
X67239452Y25153810D01*
X67239452Y25391905D01*
X67191833Y25487143D01*
X67144214Y25534762D01*
X67048976Y25582381D01*
X66810880Y25582381D01*
X66715642Y25534762D01*
X66668023Y25487143D01*
X68382309Y24534762D02*
X67525166Y25820477D01*
X69144214Y24582381D02*
X68953738Y24582381D01*
X68858499Y24630000D01*
X68810880Y24677620D01*
X68715642Y24820477D01*
X68668023Y25010953D01*
X68668023Y25391905D01*
X68715642Y25487143D01*
X68763261Y25534762D01*
X68858499Y25582381D01*
X69048976Y25582381D01*
X69144214Y25534762D01*
X69191833Y25487143D01*
X69239452Y25391905D01*
X69239452Y25153810D01*
X69191833Y25058572D01*
X69144214Y25010953D01*
X69048976Y24963334D01*
X68858499Y24963334D01*
X68763261Y25010953D01*
X68715642Y25058572D01*
X68668023Y25153810D01*
X70429928Y25582381D02*
X70429928Y24582381D01*
X70906119Y25582381D02*
X70906119Y24582381D01*
X71477547Y25582381D01*
X71477547Y24582381D01*
X71953738Y25582381D02*
X71953738Y24582381D01*
X72334690Y24582381D01*
X72429928Y24630000D01*
X72477547Y24677620D01*
X72525166Y24772858D01*
X72525166Y24915715D01*
X72477547Y25010953D01*
X72429928Y25058572D01*
X72334690Y25106191D01*
X71953738Y25106191D01*
X72953738Y24582381D02*
X72953738Y25391905D01*
X73001357Y25487143D01*
X73048976Y25534762D01*
X73144214Y25582381D01*
X73334690Y25582381D01*
X73429928Y25534762D01*
X73477547Y25487143D01*
X73525166Y25391905D01*
X73525166Y24582381D01*
X73858500Y24582381D02*
X74429928Y24582381D01*
X74144214Y25582381D02*
X74144214Y24582381D01*
X58953738Y26192381D02*
X59525166Y26192381D01*
X59239452Y27192381D02*
X59239452Y26192381D01*
X59858500Y27192381D02*
X59858500Y26192381D01*
X60239452Y26192381D01*
X60334690Y26240000D01*
X60382309Y26287620D01*
X60429928Y26382858D01*
X60429928Y26525715D01*
X60382309Y26620953D01*
X60334690Y26668572D01*
X60239452Y26716191D01*
X59858500Y26716191D01*
X61382309Y27192381D02*
X60810880Y27192381D01*
X61096595Y27192381D02*
X61096595Y26192381D01*
X61001357Y26335239D01*
X60906119Y26430477D01*
X60810880Y26478096D01*
X61715642Y26192381D02*
X62334690Y26192381D01*
X62001357Y26573334D01*
X62144214Y26573334D01*
X62239452Y26620953D01*
X62287071Y26668572D01*
X62334690Y26763810D01*
X62334690Y27001905D01*
X62287071Y27097143D01*
X62239452Y27144762D01*
X62144214Y27192381D01*
X61858500Y27192381D01*
X61763261Y27144762D01*
X61715642Y27097143D01*
X62763261Y27097143D02*
X62810880Y27144762D01*
X62763261Y27192381D01*
X62715642Y27144762D01*
X62763261Y27097143D01*
X62763261Y27192381D01*
X62763261Y26573334D02*
X62810880Y26620953D01*
X62763261Y26668572D01*
X62715642Y26620953D01*
X62763261Y26573334D01*
X62763261Y26668572D01*
X63858500Y26192381D02*
X64191833Y27192381D01*
X64525166Y26192381D01*
X65429928Y27097143D02*
X65382309Y27144762D01*
X65239452Y27192381D01*
X65144214Y27192381D01*
X65001357Y27144762D01*
X64906119Y27049524D01*
X64858500Y26954286D01*
X64810880Y26763810D01*
X64810880Y26620953D01*
X64858500Y26430477D01*
X64906119Y26335239D01*
X65001357Y26240000D01*
X65144214Y26192381D01*
X65239452Y26192381D01*
X65382309Y26240000D01*
X65429928Y26287620D01*
X65810880Y26906667D02*
X66287071Y26906667D01*
X65715642Y27192381D02*
X66048976Y26192381D01*
X66382309Y27192381D01*
X67191833Y26192381D02*
X66715642Y26192381D01*
X66668023Y26668572D01*
X66715642Y26620953D01*
X66810880Y26573334D01*
X67048976Y26573334D01*
X67144214Y26620953D01*
X67191833Y26668572D01*
X67239452Y26763810D01*
X67239452Y27001905D01*
X67191833Y27097143D01*
X67144214Y27144762D01*
X67048976Y27192381D01*
X66810880Y27192381D01*
X66715642Y27144762D01*
X66668023Y27097143D01*
X68382309Y26144762D02*
X67525166Y27430477D01*
X69144214Y26192381D02*
X68953738Y26192381D01*
X68858500Y26240000D01*
X68810880Y26287620D01*
X68715642Y26430477D01*
X68668023Y26620953D01*
X68668023Y27001905D01*
X68715642Y27097143D01*
X68763261Y27144762D01*
X68858500Y27192381D01*
X69048976Y27192381D01*
X69144214Y27144762D01*
X69191833Y27097143D01*
X69239452Y27001905D01*
X69239452Y26763810D01*
X69191833Y26668572D01*
X69144214Y26620953D01*
X69048976Y26573334D01*
X68858500Y26573334D01*
X68763261Y26620953D01*
X68715642Y26668572D01*
X68668023Y26763810D01*
X70763261Y26668572D02*
X70429928Y26668572D01*
X70429928Y27192381D02*
X70429928Y26192381D01*
X70906119Y26192381D01*
X71287071Y27192381D02*
X71287071Y26192381D01*
X71620404Y26906667D01*
X71953738Y26192381D01*
X71953738Y27192381D01*
X73191833Y27192381D02*
X73191833Y26192381D01*
X73668023Y27192381D02*
X73668023Y26192381D01*
X74239452Y27192381D01*
X74239452Y26192381D01*
X74715642Y27192381D02*
X74715642Y26192381D01*
X75096595Y26192381D01*
X75191833Y26240000D01*
X75239452Y26287620D01*
X75287071Y26382858D01*
X75287071Y26525715D01*
X75239452Y26620953D01*
X75191833Y26668572D01*
X75096595Y26716191D01*
X74715642Y26716191D01*
X75715642Y26192381D02*
X75715642Y27001905D01*
X75763261Y27097143D01*
X75810880Y27144762D01*
X75906119Y27192381D01*
X76096595Y27192381D01*
X76191833Y27144762D01*
X76239452Y27097143D01*
X76287071Y27001905D01*
X76287071Y26192381D01*
X76620404Y26192381D02*
X77191833Y26192381D01*
X76906119Y27192381D02*
X76906119Y26192381D01*
X58953738Y27802381D02*
X59525166Y27802381D01*
X59239452Y28802381D02*
X59239452Y27802381D01*
X59858500Y28802381D02*
X59858500Y27802381D01*
X60239452Y27802381D01*
X60334690Y27850000D01*
X60382309Y27897620D01*
X60429928Y27992858D01*
X60429928Y28135715D01*
X60382309Y28230953D01*
X60334690Y28278572D01*
X60239452Y28326191D01*
X59858500Y28326191D01*
X61382309Y28802381D02*
X60810880Y28802381D01*
X61096595Y28802381D02*
X61096595Y27802381D01*
X61001357Y27945239D01*
X60906119Y28040477D01*
X60810880Y28088096D01*
X62287071Y27802381D02*
X61810880Y27802381D01*
X61763261Y28278572D01*
X61810880Y28230953D01*
X61906119Y28183334D01*
X62144214Y28183334D01*
X62239452Y28230953D01*
X62287071Y28278572D01*
X62334690Y28373810D01*
X62334690Y28611905D01*
X62287071Y28707143D01*
X62239452Y28754762D01*
X62144214Y28802381D01*
X61906119Y28802381D01*
X61810880Y28754762D01*
X61763261Y28707143D01*
X62763261Y28707143D02*
X62810880Y28754762D01*
X62763261Y28802381D01*
X62715642Y28754762D01*
X62763261Y28707143D01*
X62763261Y28802381D01*
X62763261Y28183334D02*
X62810880Y28230953D01*
X62763261Y28278572D01*
X62715642Y28230953D01*
X62763261Y28183334D01*
X62763261Y28278572D01*
X63906119Y27802381D02*
X64144214Y28802381D01*
X64334690Y28088096D01*
X64525166Y28802381D01*
X64763261Y27802381D01*
X65144214Y28802381D02*
X65144214Y27802381D01*
X65144214Y28278572D02*
X65715642Y28278572D01*
X65715642Y28802381D02*
X65715642Y27802381D01*
X66191833Y28802381D02*
X66191833Y27802381D01*
X66525166Y27802381D02*
X67096595Y27802381D01*
X66810880Y28802381D02*
X66810880Y27802381D01*
X67429928Y28278572D02*
X67763261Y28278572D01*
X67906119Y28802381D02*
X67429928Y28802381D01*
X67429928Y27802381D01*
X67906119Y27802381D01*
X69096595Y28802381D02*
X69096595Y27802381D01*
X69668023Y28802381D01*
X69668023Y27802381D01*
X70334690Y27802381D02*
X70525166Y27802381D01*
X70620404Y27850000D01*
X70715642Y27945239D01*
X70763261Y28135715D01*
X70763261Y28469048D01*
X70715642Y28659524D01*
X70620404Y28754762D01*
X70525166Y28802381D01*
X70334690Y28802381D01*
X70239452Y28754762D01*
X70144214Y28659524D01*
X70096595Y28469048D01*
X70096595Y28135715D01*
X70144214Y27945239D01*
X70239452Y27850000D01*
X70334690Y27802381D01*
X71191833Y28802381D02*
X71191833Y27802381D01*
X71620404Y28754762D02*
X71763261Y28802381D01*
X72001357Y28802381D01*
X72096595Y28754762D01*
X72144214Y28707143D01*
X72191833Y28611905D01*
X72191833Y28516667D01*
X72144214Y28421429D01*
X72096595Y28373810D01*
X72001357Y28326191D01*
X71810880Y28278572D01*
X71715642Y28230953D01*
X71668023Y28183334D01*
X71620404Y28088096D01*
X71620404Y27992858D01*
X71668023Y27897620D01*
X71715642Y27850000D01*
X71810880Y27802381D01*
X72048976Y27802381D01*
X72191833Y27850000D01*
X72620404Y28278572D02*
X72953738Y28278572D01*
X73096595Y28802381D02*
X72620404Y28802381D01*
X72620404Y27802381D01*
X73096595Y27802381D01*
X74477547Y27802381D02*
X74668023Y27802381D01*
X74763261Y27850000D01*
X74858500Y27945239D01*
X74906119Y28135715D01*
X74906119Y28469048D01*
X74858500Y28659524D01*
X74763261Y28754762D01*
X74668023Y28802381D01*
X74477547Y28802381D01*
X74382309Y28754762D01*
X74287071Y28659524D01*
X74239452Y28469048D01*
X74239452Y28135715D01*
X74287071Y27945239D01*
X74382309Y27850000D01*
X74477547Y27802381D01*
X75334690Y27802381D02*
X75334690Y28611905D01*
X75382309Y28707143D01*
X75429928Y28754762D01*
X75525166Y28802381D01*
X75715642Y28802381D01*
X75810880Y28754762D01*
X75858500Y28707143D01*
X75906119Y28611905D01*
X75906119Y27802381D01*
X76239452Y27802381D02*
X76810880Y27802381D01*
X76525166Y28802381D02*
X76525166Y27802381D01*
M02*
