M48
; DRILL file {KiCad 7.0.9} date Tuesday, December 12, 2023 at 08:42:34 AM
; FORMAT={-:-/ absolute / inch / decimal}
; #@! TF.CreationDate,2023-12-12T08:42:34-08:00
; #@! TF.GenerationSoftware,Kicad,Pcbnew,7.0.9
; #@! TF.FileFunction,Plated,1,4,PTH
FMAT,2
INCH
; #@! TA.AperFunction,Plated,PTH,ViaDrill
T1C0.0157
; #@! TA.AperFunction,Plated,PTH,ViaDrill
T2C0.0197
; #@! TA.AperFunction,Plated,PTH,ComponentDrill
T3C0.0236
; #@! TA.AperFunction,Plated,PTH,ComponentDrill
T4C0.0315
; #@! TA.AperFunction,Plated,PTH,ComponentDrill
T5C0.0394
%
G90
G05
T1
X0.0748Y2.9409
X0.0748Y2.878
X0.1102Y2.6142
X0.1181Y1.311
X0.1417Y1.7835
X0.1417Y0.7244
X0.1457Y2.3504
X0.1605Y1.563
X0.1614Y1.5
X0.2047Y2.2598
X0.2087Y1.311
X0.2165Y3.1417
X0.2205Y1.1339
X0.2205Y1.0719
X0.2402Y1.7283
X0.2559Y2.9646
X0.2756Y2.4685
X0.2756Y2.4016
X0.2992Y1.311
X0.3189Y2.248
X0.3307Y0.563
X0.3425Y0.2598
X0.3465Y2.0354
X0.3465Y1.9567
X0.3583Y1.4409
X0.3622Y2.5157
X0.3701Y3.0079
X0.378Y0.6742
X0.4134Y3.1142
X0.4331Y2.2598
X0.437Y2.8031
X0.4882Y2.1299
X0.4921Y0.9409
X0.4921Y0.6063
X0.5039Y2.815
X0.5197Y1.5079
X0.5315Y2.1654
X0.5512Y2.622
X0.5551Y1.1102
X0.5591Y1.2874
X0.5748Y2.1417
X0.5827Y1.5079
X0.5945Y0.7283
X0.6024Y2.5748
X0.6102Y1.9016
X0.6181Y0.7953
X0.626Y2.374
X0.6481Y2.0694
X0.6654Y2.5709
X0.6693Y2.8937
X0.7087Y1.4055
X0.7126Y1.189
X0.7126Y0.9528
X0.752Y3.0709
X0.7795Y1.5079
X0.7953Y1.9803
X0.7992Y1.7913
X0.7992Y1.7126
X0.8031Y1.2913
X0.8071Y0.7323
X0.8189Y1.0748
X0.8228Y1.4409
X0.8346Y0.8228
X0.8465Y2.063
X0.8484Y1.7933
X0.8504Y1.7126
X0.8543Y0.9213
X0.8622Y0.6417
X0.8701Y2.8858
X0.9229Y2.1119
X0.9229Y1.7148
X0.9724Y0.7756
X0.9764Y2.9724
X0.9921Y1.6654
X1.0Y0.6614
X1.0039Y1.5039
X1.0079Y2.811
X1.0472Y1.937
X1.0512Y1.3583
X1.0906Y2.9528
X1.1024Y1.8976
X1.1063Y1.275
X1.122Y3.0787
X1.1339Y1.5039
X1.1535Y2.9094
X1.1535Y2.1102
X1.1575Y2.4055
X1.1575Y1.8425
X1.1614Y2.5394
X1.1654Y2.6024
X1.1654Y2.4803
X1.1654Y1.3504
X1.185Y2.9803
X1.2205Y2.2795
X1.2283Y0.7717
X1.2323Y1.6654
X1.2362Y0.9252
X1.2402Y2.8898
X1.2402Y2.374
X1.2598Y1.7087
X1.2598Y1.3504
X1.2598Y1.1142
X1.2638Y2.6024
X1.2677Y2.5
X1.2717Y2.4134
X1.2795Y0.9606
X1.2874Y3.122
X1.3071Y2.9055
X1.311Y1.5433
X1.315Y1.2756
X1.3346Y0.9921
X1.4016Y1.3819
X1.4094Y1.9606
X1.4843Y2.3228
X1.4843Y0.7756
X1.5079Y2.4449
X1.5118Y3.0197
X1.5276Y1.2756
X1.5313Y2.7453
X1.5315Y2.811
X1.5433Y2.374
X1.5472Y3.0748
X1.5472Y2.8819
X1.5512Y1.6496
X1.5787Y1.5276
X1.5787Y1.0748
X1.5856Y2.6654
X1.5906Y0.8219
X1.5906Y0.7598
X1.6122Y1.6516
X1.6142Y2.4882
X1.6181Y1.3937
X1.6181Y1.2283
X1.6358Y2.2736
X1.6417Y0.6772
X1.6417Y0.6339
X1.6575Y1.1811
X1.6693Y1.2795
X1.6693Y0.7835
X1.685Y2.5512
X1.6919Y1.815
X1.7047Y2.6142
X1.7087Y1.0236
X1.7165Y1.4528
X1.7205Y2.7874
X1.7362Y2.3228
X1.7441Y2.6811
X1.7441Y1.8622
X1.7441Y0.3307
X1.748Y1.9213
X1.748Y0.9843
X1.7835Y3.0591
X1.7953Y2.3228
X1.8031Y2.0709
X1.8091Y1.2106
X1.8228Y3.1181
X1.8268Y2.5906
X1.8307Y2.6811
X1.8346Y1.8543
X1.8425Y2.8425
X1.8465Y2.6378
X1.8573Y0.6752
X1.8701Y1.2953
X1.8701Y1.2323
X1.875Y0.7864
X1.8819Y1.4134
X1.8819Y1.1732
X1.9055Y3.0236
X1.9065Y2.623
X1.9173Y2.1063
X1.9449Y0.8553
X1.9528Y2.1654
X1.9647Y1.1787
X1.967Y1.6083
X1.9685Y2.622
X1.9724Y2.4055
X1.9764Y1.7756
X1.9882Y2.0157
X1.9882Y1.4016
X2.0157Y2.9803
X2.0197Y1.7283
X2.0256Y2.3268
X2.0551Y0.7244
X2.0787Y2.9803
X2.0787Y0.8228
X2.1142Y1.374
X2.1142Y0.2402
X2.126Y0.8937
X2.1299Y1.4606
X2.1378Y1.0669
X2.1614Y2.7717
X2.1732Y1.4961
X2.185Y2.6811
X2.185Y1.8465
X2.2165Y1.9528
X2.2205Y1.8031
X2.2323Y1.4843
X2.2362Y2.3772
X2.2362Y2.315
X2.2402Y1.0866
X2.2559Y1.8465
X2.2638Y0.9961
X2.2638Y0.937
X2.2992Y2.437
X2.315Y2.9724
X2.315Y2.9094
X2.315Y1.122
X2.3228Y0.752
X2.3268Y2.0118
X2.3543Y2.315
X2.3543Y1.5157
X2.3661Y2.5472
X2.3701Y1.9528
X2.3701Y1.4567
X2.3819Y1.1772
X2.3976Y2.1299
X2.3976Y1.2913
X2.3976Y1.0354
X2.4173Y0.622
X2.4291Y1.7638
X2.437Y2.2087
X2.4449Y0.9843
X2.4528Y1.2913
X2.4646Y0.6732
X2.5132Y0.6181
X2.5276Y1.5118
X2.5512Y2.8937
X2.5551Y1.8465
X2.5551Y0.9567
X2.5709Y2.2047
X2.5984Y0.7126
X2.6024Y2.8622
X2.6024Y2.8031
X2.6102Y2.6102
X2.6181Y1.8504
X2.626Y2.5157
X2.6693Y0.4528
X2.6693Y0.3898
X2.6742Y0.9321
X2.6811Y1.3661
X2.6811Y0.7362
X2.7008Y2.7618
X2.7047Y2.9961
X2.7047Y0.6575
X2.7067Y1.1102
X2.7087Y2.8622
X2.7165Y1.748
X2.7205Y1.6929
X2.7559Y1.315
X2.7677Y1.7244
X2.7736Y1.128
X2.7913Y1.0
X2.8031Y1.6732
X2.815Y0.9577
X2.815Y0.8071
X2.8189Y0.3346
X2.8228Y2.0039
X2.8228Y1.9094
X2.8346Y3.1102
X2.8386Y2.9291
X2.8622Y0.8425
X2.8701Y2.0827
X2.8701Y1.874
X2.8819Y2.8819
X2.8819Y0.9646
X2.8898Y2.815
X2.8976Y2.5157
X2.9016Y2.7559
X2.9016Y0.8819
X2.9055Y2.7087
X2.9094Y0.7677
X2.9331Y2.6693
X2.9449Y1.6654
X2.9449Y1.3819
X2.9646Y2.8396
X2.9961Y1.4528
X3.0Y2.5276
X3.0Y1.7323
X3.0079Y2.8071
X3.0118Y0.311
X3.0354Y1.1732
X3.0394Y1.5433
X3.0394Y1.3583
X3.0709Y1.6024
X3.0709Y1.0748
X3.0787Y2.5276
X3.0787Y2.3622
X3.0827Y1.9331
X3.0827Y1.7874
X3.1142Y2.7874
X3.1142Y1.0079
X3.1142Y0.437
T2
X0.2283Y0.9055
T3
X0.6063Y1.0512
X0.6063Y0.9724
X1.5512Y2.1271
X1.5512Y2.0483
T4
X0.8228Y2.7638
X0.8228Y2.6638
X0.8228Y2.5638
X1.4606Y1.8047
X1.4606Y1.7047
X1.4606Y1.6047
X2.8346Y2.4429
X2.8346Y2.3429
X2.8346Y2.2429
T5
X0.6535Y0.5236
X0.6535Y0.4236
X0.7535Y0.5236
X0.7535Y0.4236
X0.8535Y0.5236
X0.8535Y0.4236
X0.9535Y0.5236
X0.9535Y0.4236
X1.0535Y0.5236
X1.0535Y0.4236
X1.1535Y0.5236
X1.1535Y0.4236
X1.2535Y0.5236
X1.2535Y0.4236
X1.3535Y0.5236
X1.3535Y0.4236
X1.4535Y0.5236
X1.4535Y0.4236
X1.5535Y0.5236
X1.5535Y0.4236
X1.6535Y0.5236
X1.6535Y0.4236
X1.7535Y0.5236
X1.7535Y0.4236
X1.8535Y0.5236
X1.8535Y0.4236
X1.9535Y0.5236
X1.9535Y0.4236
X2.0535Y0.5236
X2.0535Y0.4236
X2.1535Y0.5236
X2.1535Y0.4236
X2.2535Y0.5236
X2.2535Y0.4236
X2.3535Y0.5236
X2.3535Y0.4236
X2.4535Y0.5236
X2.4535Y0.4236
X2.5535Y0.5236
X2.5535Y0.4236
X2.936Y0.6634
X2.9961Y3.0157
X3.036Y0.6634
T0
M30
