G04 #@! TF.GenerationSoftware,KiCad,Pcbnew,7.0.11*
G04 #@! TF.CreationDate,2025-03-07T23:09:17-08:00*
G04 #@! TF.ProjectId,z5524,7a353532-342e-46b6-9963-61645f706362,0.4*
G04 #@! TF.SameCoordinates,PX3d83120PY6590fa0*
G04 #@! TF.FileFunction,Soldermask,Bot*
G04 #@! TF.FilePolarity,Negative*
%FSLAX46Y46*%
G04 Gerber Fmt 4.6, Leading zero omitted, Abs format (unit mm)*
G04 Created by KiCad (PCBNEW 7.0.11) date 2025-03-07 23:09:17*
%MOMM*%
%LPD*%
G01*
G04 APERTURE LIST*
G04 Aperture macros list*
%AMHorizOval*
0 Thick line with rounded ends*
0 $1 width*
0 $2 $3 position (X,Y) of the first rounded end (center of the circle)*
0 $4 $5 position (X,Y) of the second rounded end (center of the circle)*
0 Add line between two ends*
20,1,$1,$2,$3,$4,$5,0*
0 Add two circle primitives to create the rounded ends*
1,1,$1,$2,$3*
1,1,$1,$4,$5*%
G04 Aperture macros list end*
%ADD10R,1.700000X1.700000*%
%ADD11O,1.700000X1.700000*%
%ADD12HorizOval,1.700000X0.000000X0.000000X0.000000X0.000000X0*%
%ADD13R,1.500000X1.500000*%
%ADD14C,1.500000*%
%ADD15R,1.200000X1.200000*%
%ADD16C,1.200000*%
%ADD17C,1.440000*%
G04 #@! TA.AperFunction,Profile*
%ADD18C,0.150000*%
G04 #@! TD*
G04 #@! TA.AperFunction,Profile*
%ADD19C,0.050000*%
G04 #@! TD*
G04 APERTURE END LIST*
D10*
X64860000Y13300000D03*
D11*
X64860000Y10760000D03*
X62320000Y13300000D03*
D12*
X62320000Y10760000D03*
D11*
X59780000Y13300000D03*
X59780000Y10760000D03*
X57240000Y13300000D03*
D12*
X57240000Y10760000D03*
D11*
X54700000Y13300000D03*
X54700000Y10760000D03*
X52160000Y13300000D03*
D12*
X52160000Y10760000D03*
D11*
X49620000Y13300000D03*
X49620000Y10760000D03*
X47080000Y13300000D03*
D12*
X47080000Y10760000D03*
D11*
X44540000Y13300000D03*
D12*
X44540000Y10760000D03*
D11*
X42000000Y13300000D03*
D12*
X42000000Y10760000D03*
D11*
X39460000Y13300000D03*
X39460000Y10760000D03*
X36920000Y13300000D03*
D12*
X36920000Y10760000D03*
D11*
X34380000Y13300000D03*
X34380000Y10760000D03*
X31840000Y13300000D03*
D12*
X31840000Y10760000D03*
D11*
X29300000Y13300000D03*
X29300000Y10760000D03*
X26760000Y13300000D03*
D12*
X26760000Y10760000D03*
D11*
X24220000Y13300000D03*
X24220000Y10760000D03*
X21680000Y13300000D03*
D12*
X21680000Y10760000D03*
D11*
X19140000Y13300000D03*
D12*
X19140000Y10760000D03*
D11*
X16600000Y13300000D03*
X16600000Y10760000D03*
D10*
X74575000Y16850000D03*
D11*
X77115000Y16850000D03*
D13*
X37100000Y45840000D03*
D14*
X37100000Y43300000D03*
X37100000Y40760000D03*
D15*
X39400000Y52027400D03*
D16*
X39400000Y54027400D03*
D15*
X15500000Y24700000D03*
D16*
X15500000Y26700000D03*
D17*
X72000000Y62050000D03*
X72000000Y59510000D03*
X72000000Y56970000D03*
X20900000Y70200000D03*
X20900000Y67660000D03*
X20900000Y65120000D03*
D10*
X76100000Y76600000D03*
D18*
X900000Y7100000D02*
G75*
G03*
X6400000Y1600000I5500000J0D01*
G01*
X75900000Y1600000D02*
G75*
G03*
X80900000Y6600000I0J5000000D01*
G01*
X75900000Y1600000D02*
X6400000Y1600000D01*
X5900000Y81600000D02*
G75*
G03*
X900000Y76600000I0J-5000000D01*
G01*
X80900000Y76100000D02*
G75*
G03*
X75400000Y81600000I-5500000J0D01*
G01*
X5900000Y81600000D02*
X75400000Y81600000D01*
X80900000Y6600000D02*
X80900000Y76100000D01*
X900000Y76600000D02*
X900000Y7100000D01*
D19*
X8676000Y3100000D02*
G75*
G03*
X7524000Y3100000I-576000J0D01*
G01*
X7524000Y3100000D02*
G75*
G03*
X8676000Y3100000I576000J0D01*
G01*
X75476000Y80100000D02*
G75*
G03*
X74324000Y80100000I-576000J0D01*
G01*
X74324000Y80100000D02*
G75*
G03*
X75476000Y80100000I576000J0D01*
G01*
X75476000Y3100000D02*
G75*
G03*
X74324000Y3100000I-576000J0D01*
G01*
X74324000Y3100000D02*
G75*
G03*
X75476000Y3100000I576000J0D01*
G01*
M02*
