M48
; DRILL file {KiCad 7.0.11} date Friday, October 04, 2024 at 10:58:10 PM
; FORMAT={-:-/ absolute / inch / decimal}
; #@! TF.CreationDate,2024-10-04T22:58:10-07:00
; #@! TF.GenerationSoftware,Kicad,Pcbnew,7.0.11
; #@! TF.FileFunction,Plated,1,4,PTH
FMAT,2
INCH
; #@! TA.AperFunction,Plated,PTH,ViaDrill
T1C0.0157
; #@! TA.AperFunction,Plated,PTH,ViaDrill
T2C0.0197
; #@! TA.AperFunction,Plated,PTH,ComponentDrill
T3C0.0236
; #@! TA.AperFunction,Plated,PTH,ComponentDrill
T4C0.0315
; #@! TA.AperFunction,Plated,PTH,ComponentDrill
T5C0.0394
%
G90
G05
T1
X0.1102Y2.6142
X0.1181Y2.9921
X0.1181Y1.311
X0.14Y1.7852
X0.1417Y0.7244
X0.1457Y2.3504
X0.1605Y1.563
X0.1614Y1.5
X0.1673Y2.9331
X0.1772Y1.1811
X0.2087Y1.311
X0.2165Y3.1417
X0.2205Y1.0719
X0.2461Y1.5846
X0.2559Y2.9646
X0.2756Y2.4902
X0.2756Y2.3228
X0.2756Y2.2539
X0.2992Y1.311
X0.315Y2.5492
X0.3346Y2.2638
X0.3346Y0.5512
X0.3425Y0.2598
X0.3465Y2.0354
X0.3465Y1.9567
X0.3701Y3.0079
X0.3809Y2.5423
X0.4134Y3.1142
X0.4272Y0.9252
X0.4331Y2.7854
X0.4331Y2.2598
X0.4331Y1.2697
X0.4528Y2.0866
X0.4921Y0.9252
X0.4921Y0.6299
X0.5315Y2.1654
X0.5512Y2.622
X0.5551Y0.8661
X0.5591Y1.2874
X0.5748Y2.1417
X0.5945Y0.7283
X0.6004Y0.7953
X0.6024Y2.5748
X0.6102Y1.9016
X0.626Y2.374
X0.6299Y1.6339
X0.6299Y1.5748
X0.6481Y2.0694
X0.6654Y2.5709
X0.6791Y2.9429
X0.6791Y2.4409
X0.6791Y1.3878
X0.7126Y1.189
X0.7126Y0.9528
X0.752Y3.0709
X0.7795Y1.5079
X0.7874Y0.6398
X0.7992Y1.7913
X0.7992Y1.7126
X0.8031Y1.2913
X0.8071Y1.9488
X0.8189Y1.0748
X0.8228Y1.4409
X0.8366Y0.9252
X0.8484Y1.7933
X0.8504Y1.7126
X0.8612Y2.0522
X0.8701Y2.8858
X0.9055Y2.1063
X0.9055Y1.7148
X0.9154Y2.6476
X0.9252Y1.3976
X0.9547Y2.4114
X0.9724Y0.8268
X0.9764Y2.9724
X0.9941Y1.7224
X1.0Y0.6614
X1.0079Y2.811
X1.0138Y2.2146
X1.0138Y1.5748
X1.0138Y1.5157
X1.063Y1.3386
X1.0825Y2.51
X1.0906Y2.9528
X1.1063Y1.275
X1.122Y3.0787
X1.122Y0.8268
X1.1535Y2.9094
X1.1614Y1.8799
X1.1654Y2.6024
X1.1654Y1.3504
X1.1811Y2.4705
X1.185Y2.9803
X1.2283Y0.7717
X1.2362Y0.9252
X1.2402Y2.8898
X1.2598Y1.9783
X1.2598Y1.3504
X1.2598Y1.1142
X1.2638Y2.6024
X1.2795Y0.9606
X1.2874Y3.122
X1.3071Y2.9055
X1.311Y1.5433
X1.315Y1.2756
X1.3189Y2.5
X1.3189Y2.4213
X1.3346Y0.9921
X1.3878Y1.7047
X1.4665Y2.0079
X1.4843Y2.3228
X1.4843Y0.7756
X1.5079Y2.4449
X1.5118Y3.0197
X1.5157Y1.3386
X1.5276Y1.2756
X1.5313Y2.7453
X1.5315Y2.811
X1.5433Y2.374
X1.5472Y3.0748
X1.5472Y2.8819
X1.5787Y1.0748
X1.5856Y2.6654
X1.5906Y0.7598
X1.5945Y1.4961
X1.6142Y2.4882
X1.6142Y1.2008
X1.6358Y2.2736
X1.6535Y1.5807
X1.6535Y1.4567
X1.6634Y1.1516
X1.6693Y0.8169
X1.6831Y2.628
X1.685Y2.5512
X1.6929Y1.815
X1.6929Y0.6791
X1.7126Y2.815
X1.7126Y1.3287
X1.7165Y1.4528
X1.7224Y1.0236
X1.7323Y2.6811
X1.7323Y1.0827
X1.7362Y2.3228
X1.7441Y1.8622
X1.748Y1.9213
X1.7766Y0.999
X1.7835Y3.0591
X1.7913Y1.6437
X1.7953Y2.3228
X1.8091Y1.2106
X1.8228Y3.1181
X1.8307Y2.6811
X1.8406Y2.8703
X1.8639Y2.5824
X1.8701Y1.2953
X1.875Y1.1663
X1.8799Y0.8169
X1.8819Y1.4134
X1.8996Y1.122
X1.9055Y3.0236
X1.9094Y2.6201
X1.9291Y0.9154
X1.9291Y0.8563
X1.9528Y2.1654
X1.967Y1.6083
X1.9685Y2.6181
X1.9724Y2.4055
X1.9764Y1.7756
X1.9882Y2.0157
X1.9882Y1.378
X2.0157Y2.9803
X2.0197Y1.7283
X2.0256Y2.3268
X2.0571Y1.0433
X2.0787Y2.9803
X2.1142Y0.2402
X2.1161Y1.1024
X2.126Y1.3878
X2.1299Y1.4606
X2.1457Y1.3484
X2.1614Y2.7717
X2.1654Y2.2736
X2.1654Y0.8957
X2.1752Y0.7185
X2.185Y2.6811
X2.185Y1.8465
X2.185Y1.5059
X2.1949Y1.2254
X2.2146Y2.9094
X2.2343Y1.8031
X2.2362Y2.3772
X2.2441Y1.4764
X2.2539Y1.8504
X2.2638Y1.9528
X2.2638Y0.937
X2.2992Y2.437
X2.313Y1.0335
X2.315Y2.9724
X2.3268Y2.0118
X2.3524Y1.1319
X2.3524Y0.7874
X2.3543Y2.315
X2.3543Y1.5157
X2.3661Y2.5472
X2.3701Y1.9528
X2.3701Y1.4567
X2.3976Y2.1299
X2.3976Y1.2913
X2.4291Y1.7815
X2.4311Y1.1319
X2.437Y2.2087
X2.4449Y0.9843
X2.4508Y1.5256
X2.4528Y1.2913
X2.4646Y0.6575
X2.4803Y1.6929
X2.5098Y0.6102
X2.5512Y2.8937
X2.5551Y1.8465
X2.5551Y0.9567
X2.5709Y2.2047
X2.6024Y2.8031
X2.6102Y2.6102
X2.6181Y1.8504
X2.626Y2.5157
X2.6476Y1.6339
X2.6575Y2.9035
X2.6575Y0.4528
X2.6693Y0.3898
X2.6742Y0.9321
X2.6811Y1.3661
X2.6811Y0.7362
X2.7047Y0.6575
X2.7067Y2.7618
X2.7067Y1.1102
X2.7087Y2.8622
X2.7165Y1.748
X2.7559Y1.315
X2.7677Y1.7244
X2.7736Y1.128
X2.7756Y2.0039
X2.7913Y1.0
X2.8031Y1.6732
X2.815Y0.9577
X2.815Y0.8071
X2.8189Y0.3346
X2.8228Y1.8996
X2.8346Y3.1102
X2.8386Y2.9291
X2.8622Y0.8425
X2.8701Y1.8701
X2.8819Y2.8819
X2.8819Y0.9646
X2.8898Y2.815
X2.9016Y2.7559
X2.9016Y0.8819
X2.9055Y2.7087
X2.9094Y0.7677
X2.9134Y2.313
X2.9232Y2.5492
X2.9331Y2.6693
X2.9449Y1.6654
X2.9449Y1.3819
X2.9646Y2.8396
X2.9961Y1.4528
X3.0Y2.5276
X3.0Y1.7323
X3.002Y2.0965
X3.0079Y2.8071
X3.0118Y0.311
X3.0354Y1.1732
X3.0394Y1.5433
X3.0394Y1.3583
X3.0709Y1.6024
X3.0709Y1.0748
X3.0787Y2.5276
X3.0827Y1.9331
X3.0827Y1.7874
X3.1142Y2.7874
X3.1142Y1.0079
X3.1142Y0.437
T2
X0.2283Y0.9055
X0.3839Y0.7185
T3
X0.6063Y1.0512
X0.6063Y0.9724
X1.5512Y2.1271
X1.5512Y2.0483
T4
X0.8228Y2.7638
X0.8228Y2.6638
X0.8228Y2.5638
X1.4606Y1.8047
X1.4606Y1.7047
X1.4606Y1.6047
X2.8346Y2.4429
X2.8346Y2.3429
X2.8346Y2.2429
T5
X0.6535Y0.5236
X0.6535Y0.4236
X0.7535Y0.5236
X0.7535Y0.4236
X0.8535Y0.5236
X0.8535Y0.4236
X0.9535Y0.5236
X0.9535Y0.4236
X1.0535Y0.5236
X1.0535Y0.4236
X1.1535Y0.5236
X1.1535Y0.4236
X1.2535Y0.5236
X1.2535Y0.4236
X1.3535Y0.5236
X1.3535Y0.4236
X1.4535Y0.5236
X1.4535Y0.4236
X1.5535Y0.5236
X1.5535Y0.4236
X1.6535Y0.5236
X1.6535Y0.4236
X1.7535Y0.5236
X1.7535Y0.4236
X1.8535Y0.5236
X1.8535Y0.4236
X1.9535Y0.5236
X1.9535Y0.4236
X2.0535Y0.5236
X2.0535Y0.4236
X2.1535Y0.5236
X2.1535Y0.4236
X2.2535Y0.5236
X2.2535Y0.4236
X2.3535Y0.5236
X2.3535Y0.4236
X2.4535Y0.5236
X2.4535Y0.4236
X2.5535Y0.5236
X2.5535Y0.4236
X2.936Y0.6634
X2.9961Y3.0157
X3.036Y0.6634
M30
