G04 #@! TF.GenerationSoftware,KiCad,Pcbnew,7.0.9*
G04 #@! TF.CreationDate,2023-12-12T08:42:42-08:00*
G04 #@! TF.ProjectId,z5524,7a353532-342e-46b6-9963-61645f706362,rev?*
G04 #@! TF.SameCoordinates,PX3d83120PY6590fa0*
G04 #@! TF.FileFunction,Soldermask,Bot*
G04 #@! TF.FilePolarity,Negative*
%FSLAX46Y46*%
G04 Gerber Fmt 4.6, Leading zero omitted, Abs format (unit mm)*
G04 Created by KiCad (PCBNEW 7.0.9) date 2023-12-12 08:42:42*
%MOMM*%
%LPD*%
G01*
G04 APERTURE LIST*
%ADD10R,1.700000X1.700000*%
%ADD11O,1.700000X1.700000*%
%ADD12R,1.500000X1.500000*%
%ADD13C,1.500000*%
%ADD14R,1.200000X1.200000*%
%ADD15C,1.200000*%
%ADD16C,1.440000*%
G04 #@! TA.AperFunction,Profile*
%ADD17C,0.150000*%
G04 #@! TD*
G04 #@! TA.AperFunction,Profile*
%ADD18C,0.050000*%
G04 #@! TD*
G04 APERTURE END LIST*
D10*
X64860000Y13300000D03*
D11*
X64860000Y10760000D03*
X62320000Y13300000D03*
X62320000Y10760000D03*
X59780000Y13300000D03*
X59780000Y10760000D03*
X57240000Y13300000D03*
X57240000Y10760000D03*
X54700000Y13300000D03*
X54700000Y10760000D03*
X52160000Y13300000D03*
X52160000Y10760000D03*
X49620000Y13300000D03*
X49620000Y10760000D03*
X47080000Y13300000D03*
X47080000Y10760000D03*
X44540000Y13300000D03*
X44540000Y10760000D03*
X42000000Y13300000D03*
X42000000Y10760000D03*
X39460000Y13300000D03*
X39460000Y10760000D03*
X36920000Y13300000D03*
X36920000Y10760000D03*
X34380000Y13300000D03*
X34380000Y10760000D03*
X31840000Y13300000D03*
X31840000Y10760000D03*
X29300000Y13300000D03*
X29300000Y10760000D03*
X26760000Y13300000D03*
X26760000Y10760000D03*
X24220000Y13300000D03*
X24220000Y10760000D03*
X21680000Y13300000D03*
X21680000Y10760000D03*
X19140000Y13300000D03*
X19140000Y10760000D03*
X16600000Y13300000D03*
X16600000Y10760000D03*
D10*
X74575000Y16850000D03*
D11*
X77115000Y16850000D03*
D12*
X37100000Y45840000D03*
D13*
X37100000Y43300000D03*
X37100000Y40760000D03*
D14*
X39400000Y52027400D03*
D15*
X39400000Y54027400D03*
D14*
X15400000Y24700000D03*
D15*
X15400000Y26700000D03*
D16*
X72000000Y62050000D03*
X72000000Y59510000D03*
X72000000Y56970000D03*
X20900000Y70200000D03*
X20900000Y67660000D03*
X20900000Y65120000D03*
D10*
X76100000Y76600000D03*
D17*
X900000Y7100000D02*
G75*
G03*
X6400000Y1600000I5500000J0D01*
G01*
X75900000Y1600000D02*
G75*
G03*
X80900000Y6600000I0J5000000D01*
G01*
X75900000Y1600000D02*
X6400000Y1600000D01*
X5900000Y81600000D02*
G75*
G03*
X900000Y76600000I0J-5000000D01*
G01*
X80900000Y76100000D02*
G75*
G03*
X75400000Y81600000I-5500000J0D01*
G01*
X5900000Y81600000D02*
X75400000Y81600000D01*
X80900000Y6600000D02*
X80900000Y76100000D01*
X900000Y76600000D02*
X900000Y7100000D01*
D18*
X8676000Y3100000D02*
G75*
G03*
X8676000Y3100000I-576000J0D01*
G01*
X75476000Y80100000D02*
G75*
G03*
X75476000Y80100000I-576000J0D01*
G01*
X75476000Y3100000D02*
G75*
G03*
X75476000Y3100000I-576000J0D01*
G01*
M02*
