G04 #@! TF.GenerationSoftware,KiCad,Pcbnew,(6.0.7-1)-1*
G04 #@! TF.CreationDate,2023-04-02T22:51:05-07:00*
G04 #@! TF.ProjectId,as3372,61733333-3732-42e6-9b69-6361645f7063,0.2*
G04 #@! TF.SameCoordinates,PX3d83120PY6590fa0*
G04 #@! TF.FileFunction,Legend,Bot*
G04 #@! TF.FilePolarity,Positive*
%FSLAX46Y46*%
G04 Gerber Fmt 4.6, Leading zero omitted, Abs format (unit mm)*
G04 Created by KiCad (PCBNEW (6.0.7-1)-1) date 2023-04-02 22:51:05*
%MOMM*%
%LPD*%
G01*
G04 APERTURE LIST*
%ADD10C,0.300000*%
%ADD11C,0.150000*%
G04 #@! TA.AperFunction,Profile*
%ADD12C,0.150000*%
G04 #@! TD*
G04 #@! TA.AperFunction,Profile*
%ADD13C,0.050000*%
G04 #@! TD*
%ADD14C,0.090000*%
G04 APERTURE END LIST*
D10*
X43100000Y49500000D02*
X14100000Y49500000D01*
X14100000Y49500000D02*
X14100000Y72700000D01*
X14100000Y72700000D02*
X43100000Y72700000D01*
X43100000Y72700000D02*
X43100000Y49500000D01*
D11*
X75100000Y54700000D02*
X55900000Y54700000D01*
X55900000Y54700000D02*
X55900000Y70300000D01*
X55900000Y70300000D02*
X75100000Y70300000D01*
X75100000Y70300000D02*
X75100000Y54700000D01*
X75100000Y53300000D02*
X55900000Y53300000D01*
X55900000Y53300000D02*
X55900000Y46700000D01*
X55900000Y46700000D02*
X75100000Y46700000D01*
X75100000Y46700000D02*
X75100000Y53300000D01*
G36*
X75100000Y53300000D02*
G01*
X55900000Y53300000D01*
X55900000Y46700000D01*
X75100000Y46700000D01*
X75100000Y53300000D01*
G37*
D12*
X900000Y6700000D02*
G75*
G03*
X6400000Y1200000I5500000J0D01*
G01*
X75900000Y1200000D02*
G75*
G03*
X80900000Y6200000I0J5000000D01*
G01*
X75900000Y1200000D02*
X6400000Y1200000D01*
X5900000Y81200000D02*
G75*
G03*
X900000Y76200000I0J-5000000D01*
G01*
X80900000Y75700000D02*
G75*
G03*
X75400000Y81200000I-5500000J0D01*
G01*
X5900000Y81200000D02*
X75400000Y81200000D01*
X80900000Y6200000D02*
X80900000Y75700000D01*
X900000Y76200000D02*
X900000Y6700000D01*
D13*
X10676000Y2700000D02*
G75*
G03*
X10676000Y2700000I-576000J0D01*
G01*
X73276000Y79700000D02*
G75*
G03*
X73276000Y79700000I-576000J0D01*
G01*
X73276000Y2700000D02*
G75*
G03*
X73276000Y2700000I-576000J0D01*
G01*
D14*
X40785714Y16342858D02*
X41242857Y16342858D01*
X41842857Y16571429D02*
X41500000Y16571429D01*
X41671428Y16571429D02*
X41671428Y15971429D01*
X41614285Y16057143D01*
X41557142Y16114286D01*
X41500000Y16142858D01*
X42071428Y16028572D02*
X42099999Y16000000D01*
X42157142Y15971429D01*
X42299999Y15971429D01*
X42357142Y16000000D01*
X42385714Y16028572D01*
X42414285Y16085715D01*
X42414285Y16142858D01*
X42385714Y16228572D01*
X42042857Y16571429D01*
X42414285Y16571429D01*
X43585714Y16342858D02*
X44042857Y16342858D01*
X43814285Y16571429D02*
X43814285Y16114286D01*
X44642857Y16571429D02*
X44299999Y16571429D01*
X44471428Y16571429D02*
X44471428Y15971429D01*
X44414285Y16057143D01*
X44357142Y16114286D01*
X44299999Y16142858D01*
X44871428Y16028572D02*
X44899999Y16000000D01*
X44957142Y15971429D01*
X45099999Y15971429D01*
X45157142Y16000000D01*
X45185714Y16028572D01*
X45214285Y16085715D01*
X45214285Y16142858D01*
X45185714Y16228572D01*
X44842857Y16571429D01*
X45214285Y16571429D01*
X46385714Y16342858D02*
X46842857Y16342858D01*
X46614285Y16571429D02*
X46614285Y16114286D01*
X47414285Y15971429D02*
X47128571Y15971429D01*
X47099999Y16257143D01*
X47128571Y16228572D01*
X47185714Y16200000D01*
X47328571Y16200000D01*
X47385714Y16228572D01*
X47414285Y16257143D01*
X47442857Y16314286D01*
X47442857Y16457143D01*
X47414285Y16514286D01*
X47385714Y16542858D01*
X47328571Y16571429D01*
X47185714Y16571429D01*
X47128571Y16542858D01*
X47099999Y16514286D01*
X20642857Y75200000D02*
X20585714Y75171429D01*
X20500000Y75171429D01*
X20414285Y75200000D01*
X20357142Y75257143D01*
X20328571Y75314286D01*
X20300000Y75428572D01*
X20300000Y75514286D01*
X20328571Y75628572D01*
X20357142Y75685715D01*
X20414285Y75742858D01*
X20500000Y75771429D01*
X20557142Y75771429D01*
X20642857Y75742858D01*
X20671428Y75714286D01*
X20671428Y75514286D01*
X20557142Y75514286D01*
X20928571Y75771429D02*
X20928571Y75171429D01*
X21271428Y75771429D01*
X21271428Y75171429D01*
X21557142Y75771429D02*
X21557142Y75171429D01*
X21700000Y75171429D01*
X21785714Y75200000D01*
X21842857Y75257143D01*
X21871428Y75314286D01*
X21900000Y75428572D01*
X21900000Y75514286D01*
X21871428Y75628572D01*
X21842857Y75685715D01*
X21785714Y75742858D01*
X21700000Y75771429D01*
X21557142Y75771429D01*
X14028571Y11128572D02*
X13628571Y11128572D01*
X14257142Y10985715D02*
X13828571Y10842858D01*
X13828571Y11214286D01*
X14228571Y11557143D02*
X14228571Y11614286D01*
X14200000Y11671429D01*
X14171428Y11700000D01*
X14114285Y11728572D01*
X14000000Y11757143D01*
X13857142Y11757143D01*
X13742857Y11728572D01*
X13685714Y11700000D01*
X13657142Y11671429D01*
X13628571Y11614286D01*
X13628571Y11557143D01*
X13657142Y11500000D01*
X13685714Y11471429D01*
X13742857Y11442858D01*
X13857142Y11414286D01*
X14000000Y11414286D01*
X14114285Y11442858D01*
X14171428Y11471429D01*
X14200000Y11500000D01*
X14228571Y11557143D01*
X63338095Y68487620D02*
X63338095Y69487620D01*
X62861904Y68487620D02*
X62861904Y69487620D01*
X62290476Y68487620D01*
X62290476Y69487620D01*
X61861904Y69392381D02*
X61814285Y69440000D01*
X61719047Y69487620D01*
X61480952Y69487620D01*
X61385714Y69440000D01*
X61338095Y69392381D01*
X61290476Y69297143D01*
X61290476Y69201905D01*
X61338095Y69059048D01*
X61909523Y68487620D01*
X61290476Y68487620D01*
X60861904Y68582858D02*
X60814285Y68535239D01*
X60861904Y68487620D01*
X60909523Y68535239D01*
X60861904Y68582858D01*
X60861904Y68487620D01*
X60861904Y69106667D02*
X60814285Y69059048D01*
X60861904Y69011429D01*
X60909523Y69059048D01*
X60861904Y69106667D01*
X60861904Y69011429D01*
X64504761Y66972858D02*
X64552380Y66925239D01*
X64695238Y66877620D01*
X64790476Y66877620D01*
X64933333Y66925239D01*
X65028571Y67020477D01*
X65076190Y67115715D01*
X65123809Y67306191D01*
X65123809Y67449048D01*
X65076190Y67639524D01*
X65028571Y67734762D01*
X64933333Y67830000D01*
X64790476Y67877620D01*
X64695238Y67877620D01*
X64552380Y67830000D01*
X64504761Y67782381D01*
X64123809Y67163334D02*
X63647619Y67163334D01*
X64219047Y66877620D02*
X63885714Y67877620D01*
X63552380Y66877620D01*
X62647619Y66877620D02*
X62980952Y67353810D01*
X63219047Y66877620D02*
X63219047Y67877620D01*
X62838095Y67877620D01*
X62742857Y67830000D01*
X62695238Y67782381D01*
X62647619Y67687143D01*
X62647619Y67544286D01*
X62695238Y67449048D01*
X62742857Y67401429D01*
X62838095Y67353810D01*
X63219047Y67353810D01*
X62219047Y66877620D02*
X62219047Y67877620D01*
X61980952Y67877620D01*
X61838095Y67830000D01*
X61742857Y67734762D01*
X61695238Y67639524D01*
X61647619Y67449048D01*
X61647619Y67306191D01*
X61695238Y67115715D01*
X61742857Y67020477D01*
X61838095Y66925239D01*
X61980952Y66877620D01*
X62219047Y66877620D01*
X60504761Y67163334D02*
X60028571Y67163334D01*
X60600000Y66877620D02*
X60266666Y67877620D01*
X59933333Y66877620D01*
X59076190Y66877620D02*
X59647619Y66877620D01*
X59361904Y66877620D02*
X59361904Y67877620D01*
X59457142Y67734762D01*
X59552380Y67639524D01*
X59647619Y67591905D01*
X64504761Y65362858D02*
X64552380Y65315239D01*
X64695238Y65267620D01*
X64790476Y65267620D01*
X64933333Y65315239D01*
X65028571Y65410477D01*
X65076190Y65505715D01*
X65123809Y65696191D01*
X65123809Y65839048D01*
X65076190Y66029524D01*
X65028571Y66124762D01*
X64933333Y66220000D01*
X64790476Y66267620D01*
X64695238Y66267620D01*
X64552380Y66220000D01*
X64504761Y66172381D01*
X64123809Y65553334D02*
X63647619Y65553334D01*
X64219047Y65267620D02*
X63885714Y66267620D01*
X63552380Y65267620D01*
X62647619Y65267620D02*
X62980952Y65743810D01*
X63219047Y65267620D02*
X63219047Y66267620D01*
X62838095Y66267620D01*
X62742857Y66220000D01*
X62695238Y66172381D01*
X62647619Y66077143D01*
X62647619Y65934286D01*
X62695238Y65839048D01*
X62742857Y65791429D01*
X62838095Y65743810D01*
X63219047Y65743810D01*
X62219047Y65267620D02*
X62219047Y66267620D01*
X61980952Y66267620D01*
X61838095Y66220000D01*
X61742857Y66124762D01*
X61695238Y66029524D01*
X61647619Y65839048D01*
X61647619Y65696191D01*
X61695238Y65505715D01*
X61742857Y65410477D01*
X61838095Y65315239D01*
X61980952Y65267620D01*
X62219047Y65267620D01*
X60504761Y65553334D02*
X60028571Y65553334D01*
X60600000Y65267620D02*
X60266666Y66267620D01*
X59933333Y65267620D01*
X59647619Y66172381D02*
X59600000Y66220000D01*
X59504761Y66267620D01*
X59266666Y66267620D01*
X59171428Y66220000D01*
X59123809Y66172381D01*
X59076190Y66077143D01*
X59076190Y65981905D01*
X59123809Y65839048D01*
X59695238Y65267620D01*
X59076190Y65267620D01*
X64576190Y63752858D02*
X64623809Y63705239D01*
X64766666Y63657620D01*
X64861904Y63657620D01*
X65004761Y63705239D01*
X65100000Y63800477D01*
X65147619Y63895715D01*
X65195238Y64086191D01*
X65195238Y64229048D01*
X65147619Y64419524D01*
X65100000Y64514762D01*
X65004761Y64610000D01*
X64861904Y64657620D01*
X64766666Y64657620D01*
X64623809Y64610000D01*
X64576190Y64562381D01*
X64195238Y63943334D02*
X63719047Y63943334D01*
X64290476Y63657620D02*
X63957142Y64657620D01*
X63623809Y63657620D01*
X62719047Y63657620D02*
X63052380Y64133810D01*
X63290476Y63657620D02*
X63290476Y64657620D01*
X62909523Y64657620D01*
X62814285Y64610000D01*
X62766666Y64562381D01*
X62719047Y64467143D01*
X62719047Y64324286D01*
X62766666Y64229048D01*
X62814285Y64181429D01*
X62909523Y64133810D01*
X63290476Y64133810D01*
X62290476Y63657620D02*
X62290476Y64657620D01*
X62052380Y64657620D01*
X61909523Y64610000D01*
X61814285Y64514762D01*
X61766666Y64419524D01*
X61719047Y64229048D01*
X61719047Y64086191D01*
X61766666Y63895715D01*
X61814285Y63800477D01*
X61909523Y63705239D01*
X62052380Y63657620D01*
X62290476Y63657620D01*
X60195238Y64181429D02*
X60052380Y64133810D01*
X60004761Y64086191D01*
X59957142Y63990953D01*
X59957142Y63848096D01*
X60004761Y63752858D01*
X60052380Y63705239D01*
X60147619Y63657620D01*
X60528571Y63657620D01*
X60528571Y64657620D01*
X60195238Y64657620D01*
X60100000Y64610000D01*
X60052380Y64562381D01*
X60004761Y64467143D01*
X60004761Y64371905D01*
X60052380Y64276667D01*
X60100000Y64229048D01*
X60195238Y64181429D01*
X60528571Y64181429D01*
X59004761Y63657620D02*
X59576190Y63657620D01*
X59290476Y63657620D02*
X59290476Y64657620D01*
X59385714Y64514762D01*
X59480952Y64419524D01*
X59576190Y64371905D01*
X64576190Y62142858D02*
X64623809Y62095239D01*
X64766666Y62047620D01*
X64861904Y62047620D01*
X65004761Y62095239D01*
X65100000Y62190477D01*
X65147619Y62285715D01*
X65195238Y62476191D01*
X65195238Y62619048D01*
X65147619Y62809524D01*
X65100000Y62904762D01*
X65004761Y63000000D01*
X64861904Y63047620D01*
X64766666Y63047620D01*
X64623809Y63000000D01*
X64576190Y62952381D01*
X64195238Y62333334D02*
X63719047Y62333334D01*
X64290476Y62047620D02*
X63957142Y63047620D01*
X63623809Y62047620D01*
X62719047Y62047620D02*
X63052380Y62523810D01*
X63290476Y62047620D02*
X63290476Y63047620D01*
X62909523Y63047620D01*
X62814285Y63000000D01*
X62766666Y62952381D01*
X62719047Y62857143D01*
X62719047Y62714286D01*
X62766666Y62619048D01*
X62814285Y62571429D01*
X62909523Y62523810D01*
X63290476Y62523810D01*
X62290476Y62047620D02*
X62290476Y63047620D01*
X62052380Y63047620D01*
X61909523Y63000000D01*
X61814285Y62904762D01*
X61766666Y62809524D01*
X61719047Y62619048D01*
X61719047Y62476191D01*
X61766666Y62285715D01*
X61814285Y62190477D01*
X61909523Y62095239D01*
X62052380Y62047620D01*
X62290476Y62047620D01*
X60195238Y62571429D02*
X60052380Y62523810D01*
X60004761Y62476191D01*
X59957142Y62380953D01*
X59957142Y62238096D01*
X60004761Y62142858D01*
X60052380Y62095239D01*
X60147619Y62047620D01*
X60528571Y62047620D01*
X60528571Y63047620D01*
X60195238Y63047620D01*
X60100000Y63000000D01*
X60052380Y62952381D01*
X60004761Y62857143D01*
X60004761Y62761905D01*
X60052380Y62666667D01*
X60100000Y62619048D01*
X60195238Y62571429D01*
X60528571Y62571429D01*
X59576190Y62952381D02*
X59528571Y63000000D01*
X59433333Y63047620D01*
X59195238Y63047620D01*
X59100000Y63000000D01*
X59052380Y62952381D01*
X59004761Y62857143D01*
X59004761Y62761905D01*
X59052380Y62619048D01*
X59623809Y62047620D01*
X59004761Y62047620D01*
X64576190Y60532858D02*
X64623809Y60485239D01*
X64766666Y60437620D01*
X64861904Y60437620D01*
X65004761Y60485239D01*
X65100000Y60580477D01*
X65147619Y60675715D01*
X65195238Y60866191D01*
X65195238Y61009048D01*
X65147619Y61199524D01*
X65100000Y61294762D01*
X65004761Y61390000D01*
X64861904Y61437620D01*
X64766666Y61437620D01*
X64623809Y61390000D01*
X64576190Y61342381D01*
X64195238Y60723334D02*
X63719047Y60723334D01*
X64290476Y60437620D02*
X63957142Y61437620D01*
X63623809Y60437620D01*
X62719047Y60437620D02*
X63052380Y60913810D01*
X63290476Y60437620D02*
X63290476Y61437620D01*
X62909523Y61437620D01*
X62814285Y61390000D01*
X62766666Y61342381D01*
X62719047Y61247143D01*
X62719047Y61104286D01*
X62766666Y61009048D01*
X62814285Y60961429D01*
X62909523Y60913810D01*
X63290476Y60913810D01*
X62290476Y60437620D02*
X62290476Y61437620D01*
X62052380Y61437620D01*
X61909523Y61390000D01*
X61814285Y61294762D01*
X61766666Y61199524D01*
X61719047Y61009048D01*
X61719047Y60866191D01*
X61766666Y60675715D01*
X61814285Y60580477D01*
X61909523Y60485239D01*
X62052380Y60437620D01*
X62290476Y60437620D01*
X59957142Y60532858D02*
X60004761Y60485239D01*
X60147619Y60437620D01*
X60242857Y60437620D01*
X60385714Y60485239D01*
X60480952Y60580477D01*
X60528571Y60675715D01*
X60576190Y60866191D01*
X60576190Y61009048D01*
X60528571Y61199524D01*
X60480952Y61294762D01*
X60385714Y61390000D01*
X60242857Y61437620D01*
X60147619Y61437620D01*
X60004761Y61390000D01*
X59957142Y61342381D01*
X59576190Y61342381D02*
X59528571Y61390000D01*
X59433333Y61437620D01*
X59195238Y61437620D01*
X59100000Y61390000D01*
X59052380Y61342381D01*
X59004761Y61247143D01*
X59004761Y61151905D01*
X59052380Y61009048D01*
X59623809Y60437620D01*
X59004761Y60437620D01*
X64576190Y58922858D02*
X64623809Y58875239D01*
X64766666Y58827620D01*
X64861904Y58827620D01*
X65004761Y58875239D01*
X65100000Y58970477D01*
X65147619Y59065715D01*
X65195238Y59256191D01*
X65195238Y59399048D01*
X65147619Y59589524D01*
X65100000Y59684762D01*
X65004761Y59780000D01*
X64861904Y59827620D01*
X64766666Y59827620D01*
X64623809Y59780000D01*
X64576190Y59732381D01*
X64195238Y59113334D02*
X63719047Y59113334D01*
X64290476Y58827620D02*
X63957142Y59827620D01*
X63623809Y58827620D01*
X62719047Y58827620D02*
X63052380Y59303810D01*
X63290476Y58827620D02*
X63290476Y59827620D01*
X62909523Y59827620D01*
X62814285Y59780000D01*
X62766666Y59732381D01*
X62719047Y59637143D01*
X62719047Y59494286D01*
X62766666Y59399048D01*
X62814285Y59351429D01*
X62909523Y59303810D01*
X63290476Y59303810D01*
X62290476Y58827620D02*
X62290476Y59827620D01*
X62052380Y59827620D01*
X61909523Y59780000D01*
X61814285Y59684762D01*
X61766666Y59589524D01*
X61719047Y59399048D01*
X61719047Y59256191D01*
X61766666Y59065715D01*
X61814285Y58970477D01*
X61909523Y58875239D01*
X62052380Y58827620D01*
X62290476Y58827620D01*
X60528571Y58827620D02*
X60528571Y59827620D01*
X60290476Y59827620D01*
X60147619Y59780000D01*
X60052380Y59684762D01*
X60004761Y59589524D01*
X59957142Y59399048D01*
X59957142Y59256191D01*
X60004761Y59065715D01*
X60052380Y58970477D01*
X60147619Y58875239D01*
X60290476Y58827620D01*
X60528571Y58827620D01*
X59004761Y58827620D02*
X59576190Y58827620D01*
X59290476Y58827620D02*
X59290476Y59827620D01*
X59385714Y59684762D01*
X59480952Y59589524D01*
X59576190Y59541905D01*
X64528571Y57312858D02*
X64576190Y57265239D01*
X64719047Y57217620D01*
X64814285Y57217620D01*
X64957142Y57265239D01*
X65052380Y57360477D01*
X65100000Y57455715D01*
X65147619Y57646191D01*
X65147619Y57789048D01*
X65100000Y57979524D01*
X65052380Y58074762D01*
X64957142Y58170000D01*
X64814285Y58217620D01*
X64719047Y58217620D01*
X64576190Y58170000D01*
X64528571Y58122381D01*
X64147619Y57503334D02*
X63671428Y57503334D01*
X64242857Y57217620D02*
X63909523Y58217620D01*
X63576190Y57217620D01*
X62671428Y57217620D02*
X63004761Y57693810D01*
X63242857Y57217620D02*
X63242857Y58217620D01*
X62861904Y58217620D01*
X62766666Y58170000D01*
X62719047Y58122381D01*
X62671428Y58027143D01*
X62671428Y57884286D01*
X62719047Y57789048D01*
X62766666Y57741429D01*
X62861904Y57693810D01*
X63242857Y57693810D01*
X62242857Y57217620D02*
X62242857Y58217620D01*
X62004761Y58217620D01*
X61861904Y58170000D01*
X61766666Y58074762D01*
X61719047Y57979524D01*
X61671428Y57789048D01*
X61671428Y57646191D01*
X61719047Y57455715D01*
X61766666Y57360477D01*
X61861904Y57265239D01*
X62004761Y57217620D01*
X62242857Y57217620D01*
X60480952Y57741429D02*
X60147619Y57741429D01*
X60004761Y57217620D02*
X60480952Y57217620D01*
X60480952Y58217620D01*
X60004761Y58217620D01*
X59623809Y58122381D02*
X59576190Y58170000D01*
X59480952Y58217620D01*
X59242857Y58217620D01*
X59147619Y58170000D01*
X59100000Y58122381D01*
X59052380Y58027143D01*
X59052380Y57931905D01*
X59100000Y57789048D01*
X59671428Y57217620D01*
X59052380Y57217620D01*
X64504761Y55702858D02*
X64552380Y55655239D01*
X64695238Y55607620D01*
X64790476Y55607620D01*
X64933333Y55655239D01*
X65028571Y55750477D01*
X65076190Y55845715D01*
X65123809Y56036191D01*
X65123809Y56179048D01*
X65076190Y56369524D01*
X65028571Y56464762D01*
X64933333Y56560000D01*
X64790476Y56607620D01*
X64695238Y56607620D01*
X64552380Y56560000D01*
X64504761Y56512381D01*
X64123809Y55893334D02*
X63647619Y55893334D01*
X64219047Y55607620D02*
X63885714Y56607620D01*
X63552380Y55607620D01*
X62647619Y55607620D02*
X62980952Y56083810D01*
X63219047Y55607620D02*
X63219047Y56607620D01*
X62838095Y56607620D01*
X62742857Y56560000D01*
X62695238Y56512381D01*
X62647619Y56417143D01*
X62647619Y56274286D01*
X62695238Y56179048D01*
X62742857Y56131429D01*
X62838095Y56083810D01*
X63219047Y56083810D01*
X62219047Y55607620D02*
X62219047Y56607620D01*
X61980952Y56607620D01*
X61838095Y56560000D01*
X61742857Y56464762D01*
X61695238Y56369524D01*
X61647619Y56179048D01*
X61647619Y56036191D01*
X61695238Y55845715D01*
X61742857Y55750477D01*
X61838095Y55655239D01*
X61980952Y55607620D01*
X62219047Y55607620D01*
X60123809Y56131429D02*
X60457142Y56131429D01*
X60457142Y55607620D02*
X60457142Y56607620D01*
X59980952Y56607620D01*
X59076190Y55607620D02*
X59647619Y55607620D01*
X59361904Y55607620D02*
X59361904Y56607620D01*
X59457142Y56464762D01*
X59552380Y56369524D01*
X59647619Y56321905D01*
X71738095Y68487620D02*
X71738095Y69487620D01*
X71261904Y68487620D02*
X71261904Y69487620D01*
X70690476Y68487620D01*
X70690476Y69487620D01*
X69690476Y68487620D02*
X70261904Y68487620D01*
X69976190Y68487620D02*
X69976190Y69487620D01*
X70071428Y69344762D01*
X70166666Y69249524D01*
X70261904Y69201905D01*
X69261904Y68582858D02*
X69214285Y68535239D01*
X69261904Y68487620D01*
X69309523Y68535239D01*
X69261904Y68582858D01*
X69261904Y68487620D01*
X69261904Y69106667D02*
X69214285Y69059048D01*
X69261904Y69011429D01*
X69309523Y69059048D01*
X69261904Y69106667D01*
X69261904Y69011429D01*
X72904761Y66972858D02*
X72952380Y66925239D01*
X73095238Y66877620D01*
X73190476Y66877620D01*
X73333333Y66925239D01*
X73428571Y67020477D01*
X73476190Y67115715D01*
X73523809Y67306191D01*
X73523809Y67449048D01*
X73476190Y67639524D01*
X73428571Y67734762D01*
X73333333Y67830000D01*
X73190476Y67877620D01*
X73095238Y67877620D01*
X72952380Y67830000D01*
X72904761Y67782381D01*
X72523809Y67163334D02*
X72047619Y67163334D01*
X72619047Y66877620D02*
X72285714Y67877620D01*
X71952380Y66877620D01*
X71047619Y66877620D02*
X71380952Y67353810D01*
X71619047Y66877620D02*
X71619047Y67877620D01*
X71238095Y67877620D01*
X71142857Y67830000D01*
X71095238Y67782381D01*
X71047619Y67687143D01*
X71047619Y67544286D01*
X71095238Y67449048D01*
X71142857Y67401429D01*
X71238095Y67353810D01*
X71619047Y67353810D01*
X70619047Y66877620D02*
X70619047Y67877620D01*
X70380952Y67877620D01*
X70238095Y67830000D01*
X70142857Y67734762D01*
X70095238Y67639524D01*
X70047619Y67449048D01*
X70047619Y67306191D01*
X70095238Y67115715D01*
X70142857Y67020477D01*
X70238095Y66925239D01*
X70380952Y66877620D01*
X70619047Y66877620D01*
X68904761Y67163334D02*
X68428571Y67163334D01*
X69000000Y66877620D02*
X68666666Y67877620D01*
X68333333Y66877620D01*
X67476190Y66877620D02*
X68047619Y66877620D01*
X67761904Y66877620D02*
X67761904Y67877620D01*
X67857142Y67734762D01*
X67952380Y67639524D01*
X68047619Y67591905D01*
X72904761Y65362858D02*
X72952380Y65315239D01*
X73095238Y65267620D01*
X73190476Y65267620D01*
X73333333Y65315239D01*
X73428571Y65410477D01*
X73476190Y65505715D01*
X73523809Y65696191D01*
X73523809Y65839048D01*
X73476190Y66029524D01*
X73428571Y66124762D01*
X73333333Y66220000D01*
X73190476Y66267620D01*
X73095238Y66267620D01*
X72952380Y66220000D01*
X72904761Y66172381D01*
X72523809Y65553334D02*
X72047619Y65553334D01*
X72619047Y65267620D02*
X72285714Y66267620D01*
X71952380Y65267620D01*
X71047619Y65267620D02*
X71380952Y65743810D01*
X71619047Y65267620D02*
X71619047Y66267620D01*
X71238095Y66267620D01*
X71142857Y66220000D01*
X71095238Y66172381D01*
X71047619Y66077143D01*
X71047619Y65934286D01*
X71095238Y65839048D01*
X71142857Y65791429D01*
X71238095Y65743810D01*
X71619047Y65743810D01*
X70619047Y65267620D02*
X70619047Y66267620D01*
X70380952Y66267620D01*
X70238095Y66220000D01*
X70142857Y66124762D01*
X70095238Y66029524D01*
X70047619Y65839048D01*
X70047619Y65696191D01*
X70095238Y65505715D01*
X70142857Y65410477D01*
X70238095Y65315239D01*
X70380952Y65267620D01*
X70619047Y65267620D01*
X68904761Y65553334D02*
X68428571Y65553334D01*
X69000000Y65267620D02*
X68666666Y66267620D01*
X68333333Y65267620D01*
X68047619Y66172381D02*
X68000000Y66220000D01*
X67904761Y66267620D01*
X67666666Y66267620D01*
X67571428Y66220000D01*
X67523809Y66172381D01*
X67476190Y66077143D01*
X67476190Y65981905D01*
X67523809Y65839048D01*
X68095238Y65267620D01*
X67476190Y65267620D01*
X72976190Y63752858D02*
X73023809Y63705239D01*
X73166666Y63657620D01*
X73261904Y63657620D01*
X73404761Y63705239D01*
X73500000Y63800477D01*
X73547619Y63895715D01*
X73595238Y64086191D01*
X73595238Y64229048D01*
X73547619Y64419524D01*
X73500000Y64514762D01*
X73404761Y64610000D01*
X73261904Y64657620D01*
X73166666Y64657620D01*
X73023809Y64610000D01*
X72976190Y64562381D01*
X72595238Y63943334D02*
X72119047Y63943334D01*
X72690476Y63657620D02*
X72357142Y64657620D01*
X72023809Y63657620D01*
X71119047Y63657620D02*
X71452380Y64133810D01*
X71690476Y63657620D02*
X71690476Y64657620D01*
X71309523Y64657620D01*
X71214285Y64610000D01*
X71166666Y64562381D01*
X71119047Y64467143D01*
X71119047Y64324286D01*
X71166666Y64229048D01*
X71214285Y64181429D01*
X71309523Y64133810D01*
X71690476Y64133810D01*
X70690476Y63657620D02*
X70690476Y64657620D01*
X70452380Y64657620D01*
X70309523Y64610000D01*
X70214285Y64514762D01*
X70166666Y64419524D01*
X70119047Y64229048D01*
X70119047Y64086191D01*
X70166666Y63895715D01*
X70214285Y63800477D01*
X70309523Y63705239D01*
X70452380Y63657620D01*
X70690476Y63657620D01*
X68595238Y64181429D02*
X68452380Y64133810D01*
X68404761Y64086191D01*
X68357142Y63990953D01*
X68357142Y63848096D01*
X68404761Y63752858D01*
X68452380Y63705239D01*
X68547619Y63657620D01*
X68928571Y63657620D01*
X68928571Y64657620D01*
X68595238Y64657620D01*
X68500000Y64610000D01*
X68452380Y64562381D01*
X68404761Y64467143D01*
X68404761Y64371905D01*
X68452380Y64276667D01*
X68500000Y64229048D01*
X68595238Y64181429D01*
X68928571Y64181429D01*
X67976190Y64562381D02*
X67928571Y64610000D01*
X67833333Y64657620D01*
X67595238Y64657620D01*
X67500000Y64610000D01*
X67452380Y64562381D01*
X67404761Y64467143D01*
X67404761Y64371905D01*
X67452380Y64229048D01*
X68023809Y63657620D01*
X67404761Y63657620D01*
X72976190Y62142858D02*
X73023809Y62095239D01*
X73166666Y62047620D01*
X73261904Y62047620D01*
X73404761Y62095239D01*
X73500000Y62190477D01*
X73547619Y62285715D01*
X73595238Y62476191D01*
X73595238Y62619048D01*
X73547619Y62809524D01*
X73500000Y62904762D01*
X73404761Y63000000D01*
X73261904Y63047620D01*
X73166666Y63047620D01*
X73023809Y63000000D01*
X72976190Y62952381D01*
X72595238Y62333334D02*
X72119047Y62333334D01*
X72690476Y62047620D02*
X72357142Y63047620D01*
X72023809Y62047620D01*
X71119047Y62047620D02*
X71452380Y62523810D01*
X71690476Y62047620D02*
X71690476Y63047620D01*
X71309523Y63047620D01*
X71214285Y63000000D01*
X71166666Y62952381D01*
X71119047Y62857143D01*
X71119047Y62714286D01*
X71166666Y62619048D01*
X71214285Y62571429D01*
X71309523Y62523810D01*
X71690476Y62523810D01*
X70690476Y62047620D02*
X70690476Y63047620D01*
X70452380Y63047620D01*
X70309523Y63000000D01*
X70214285Y62904762D01*
X70166666Y62809524D01*
X70119047Y62619048D01*
X70119047Y62476191D01*
X70166666Y62285715D01*
X70214285Y62190477D01*
X70309523Y62095239D01*
X70452380Y62047620D01*
X70690476Y62047620D01*
X68357142Y62142858D02*
X68404761Y62095239D01*
X68547619Y62047620D01*
X68642857Y62047620D01*
X68785714Y62095239D01*
X68880952Y62190477D01*
X68928571Y62285715D01*
X68976190Y62476191D01*
X68976190Y62619048D01*
X68928571Y62809524D01*
X68880952Y62904762D01*
X68785714Y63000000D01*
X68642857Y63047620D01*
X68547619Y63047620D01*
X68404761Y63000000D01*
X68357142Y62952381D01*
X67404761Y62047620D02*
X67976190Y62047620D01*
X67690476Y62047620D02*
X67690476Y63047620D01*
X67785714Y62904762D01*
X67880952Y62809524D01*
X67976190Y62761905D01*
X72976190Y60532858D02*
X73023809Y60485239D01*
X73166666Y60437620D01*
X73261904Y60437620D01*
X73404761Y60485239D01*
X73500000Y60580477D01*
X73547619Y60675715D01*
X73595238Y60866191D01*
X73595238Y61009048D01*
X73547619Y61199524D01*
X73500000Y61294762D01*
X73404761Y61390000D01*
X73261904Y61437620D01*
X73166666Y61437620D01*
X73023809Y61390000D01*
X72976190Y61342381D01*
X72595238Y60723334D02*
X72119047Y60723334D01*
X72690476Y60437620D02*
X72357142Y61437620D01*
X72023809Y60437620D01*
X71119047Y60437620D02*
X71452380Y60913810D01*
X71690476Y60437620D02*
X71690476Y61437620D01*
X71309523Y61437620D01*
X71214285Y61390000D01*
X71166666Y61342381D01*
X71119047Y61247143D01*
X71119047Y61104286D01*
X71166666Y61009048D01*
X71214285Y60961429D01*
X71309523Y60913810D01*
X71690476Y60913810D01*
X70690476Y60437620D02*
X70690476Y61437620D01*
X70452380Y61437620D01*
X70309523Y61390000D01*
X70214285Y61294762D01*
X70166666Y61199524D01*
X70119047Y61009048D01*
X70119047Y60866191D01*
X70166666Y60675715D01*
X70214285Y60580477D01*
X70309523Y60485239D01*
X70452380Y60437620D01*
X70690476Y60437620D01*
X68928571Y60437620D02*
X68928571Y61437620D01*
X68690476Y61437620D01*
X68547619Y61390000D01*
X68452380Y61294762D01*
X68404761Y61199524D01*
X68357142Y61009048D01*
X68357142Y60866191D01*
X68404761Y60675715D01*
X68452380Y60580477D01*
X68547619Y60485239D01*
X68690476Y60437620D01*
X68928571Y60437620D01*
X67976190Y61342381D02*
X67928571Y61390000D01*
X67833333Y61437620D01*
X67595238Y61437620D01*
X67500000Y61390000D01*
X67452380Y61342381D01*
X67404761Y61247143D01*
X67404761Y61151905D01*
X67452380Y61009048D01*
X68023809Y60437620D01*
X67404761Y60437620D01*
X72928571Y58922858D02*
X72976190Y58875239D01*
X73119047Y58827620D01*
X73214285Y58827620D01*
X73357142Y58875239D01*
X73452380Y58970477D01*
X73500000Y59065715D01*
X73547619Y59256191D01*
X73547619Y59399048D01*
X73500000Y59589524D01*
X73452380Y59684762D01*
X73357142Y59780000D01*
X73214285Y59827620D01*
X73119047Y59827620D01*
X72976190Y59780000D01*
X72928571Y59732381D01*
X72547619Y59113334D02*
X72071428Y59113334D01*
X72642857Y58827620D02*
X72309523Y59827620D01*
X71976190Y58827620D01*
X71071428Y58827620D02*
X71404761Y59303810D01*
X71642857Y58827620D02*
X71642857Y59827620D01*
X71261904Y59827620D01*
X71166666Y59780000D01*
X71119047Y59732381D01*
X71071428Y59637143D01*
X71071428Y59494286D01*
X71119047Y59399048D01*
X71166666Y59351429D01*
X71261904Y59303810D01*
X71642857Y59303810D01*
X70642857Y58827620D02*
X70642857Y59827620D01*
X70404761Y59827620D01*
X70261904Y59780000D01*
X70166666Y59684762D01*
X70119047Y59589524D01*
X70071428Y59399048D01*
X70071428Y59256191D01*
X70119047Y59065715D01*
X70166666Y58970477D01*
X70261904Y58875239D01*
X70404761Y58827620D01*
X70642857Y58827620D01*
X68880952Y59351429D02*
X68547619Y59351429D01*
X68404761Y58827620D02*
X68880952Y58827620D01*
X68880952Y59827620D01*
X68404761Y59827620D01*
X67452380Y58827620D02*
X68023809Y58827620D01*
X67738095Y58827620D02*
X67738095Y59827620D01*
X67833333Y59684762D01*
X67928571Y59589524D01*
X68023809Y59541905D01*
X72904761Y57312858D02*
X72952380Y57265239D01*
X73095238Y57217620D01*
X73190476Y57217620D01*
X73333333Y57265239D01*
X73428571Y57360477D01*
X73476190Y57455715D01*
X73523809Y57646191D01*
X73523809Y57789048D01*
X73476190Y57979524D01*
X73428571Y58074762D01*
X73333333Y58170000D01*
X73190476Y58217620D01*
X73095238Y58217620D01*
X72952380Y58170000D01*
X72904761Y58122381D01*
X72523809Y57503334D02*
X72047619Y57503334D01*
X72619047Y57217620D02*
X72285714Y58217620D01*
X71952380Y57217620D01*
X71047619Y57217620D02*
X71380952Y57693810D01*
X71619047Y57217620D02*
X71619047Y58217620D01*
X71238095Y58217620D01*
X71142857Y58170000D01*
X71095238Y58122381D01*
X71047619Y58027143D01*
X71047619Y57884286D01*
X71095238Y57789048D01*
X71142857Y57741429D01*
X71238095Y57693810D01*
X71619047Y57693810D01*
X70619047Y57217620D02*
X70619047Y58217620D01*
X70380952Y58217620D01*
X70238095Y58170000D01*
X70142857Y58074762D01*
X70095238Y57979524D01*
X70047619Y57789048D01*
X70047619Y57646191D01*
X70095238Y57455715D01*
X70142857Y57360477D01*
X70238095Y57265239D01*
X70380952Y57217620D01*
X70619047Y57217620D01*
X68523809Y57741429D02*
X68857142Y57741429D01*
X68857142Y57217620D02*
X68857142Y58217620D01*
X68380952Y58217620D01*
X68047619Y58122381D02*
X68000000Y58170000D01*
X67904761Y58217620D01*
X67666666Y58217620D01*
X67571428Y58170000D01*
X67523809Y58122381D01*
X67476190Y58027143D01*
X67476190Y57931905D01*
X67523809Y57789048D01*
X68095238Y57217620D01*
X67476190Y57217620D01*
X72976190Y55702858D02*
X73023809Y55655239D01*
X73166666Y55607620D01*
X73261904Y55607620D01*
X73404761Y55655239D01*
X73500000Y55750477D01*
X73547619Y55845715D01*
X73595238Y56036191D01*
X73595238Y56179048D01*
X73547619Y56369524D01*
X73500000Y56464762D01*
X73404761Y56560000D01*
X73261904Y56607620D01*
X73166666Y56607620D01*
X73023809Y56560000D01*
X72976190Y56512381D01*
X72595238Y55893334D02*
X72119047Y55893334D01*
X72690476Y55607620D02*
X72357142Y56607620D01*
X72023809Y55607620D01*
X71119047Y55607620D02*
X71452380Y56083810D01*
X71690476Y55607620D02*
X71690476Y56607620D01*
X71309523Y56607620D01*
X71214285Y56560000D01*
X71166666Y56512381D01*
X71119047Y56417143D01*
X71119047Y56274286D01*
X71166666Y56179048D01*
X71214285Y56131429D01*
X71309523Y56083810D01*
X71690476Y56083810D01*
X70690476Y55607620D02*
X70690476Y56607620D01*
X70452380Y56607620D01*
X70309523Y56560000D01*
X70214285Y56464762D01*
X70166666Y56369524D01*
X70119047Y56179048D01*
X70119047Y56036191D01*
X70166666Y55845715D01*
X70214285Y55750477D01*
X70309523Y55655239D01*
X70452380Y55607620D01*
X70690476Y55607620D01*
X68404761Y56560000D02*
X68500000Y56607620D01*
X68642857Y56607620D01*
X68785714Y56560000D01*
X68880952Y56464762D01*
X68928571Y56369524D01*
X68976190Y56179048D01*
X68976190Y56036191D01*
X68928571Y55845715D01*
X68880952Y55750477D01*
X68785714Y55655239D01*
X68642857Y55607620D01*
X68547619Y55607620D01*
X68404761Y55655239D01*
X68357142Y55702858D01*
X68357142Y56036191D01*
X68547619Y56036191D01*
X67404761Y55607620D02*
X67976190Y55607620D01*
X67690476Y55607620D02*
X67690476Y56607620D01*
X67785714Y56464762D01*
X67880952Y56369524D01*
X67976190Y56321905D01*
D11*
X66247619Y16785715D02*
X66247619Y16214286D01*
X66247619Y16500000D02*
X67247619Y16500000D01*
X67104761Y16404762D01*
X67009523Y16309524D01*
X66961904Y16214286D01*
D14*
X41746261Y71707620D02*
X41174833Y71707620D01*
X41460547Y70707620D02*
X41460547Y71707620D01*
X40841500Y71231429D02*
X40508166Y71231429D01*
X40365309Y70707620D02*
X40841500Y70707620D01*
X40841500Y71707620D01*
X40365309Y71707620D01*
X39984357Y70755239D02*
X39841500Y70707620D01*
X39603404Y70707620D01*
X39508166Y70755239D01*
X39460547Y70802858D01*
X39412928Y70898096D01*
X39412928Y70993334D01*
X39460547Y71088572D01*
X39508166Y71136191D01*
X39603404Y71183810D01*
X39793880Y71231429D01*
X39889119Y71279048D01*
X39936738Y71326667D01*
X39984357Y71421905D01*
X39984357Y71517143D01*
X39936738Y71612381D01*
X39889119Y71660000D01*
X39793880Y71707620D01*
X39555785Y71707620D01*
X39412928Y71660000D01*
X39127214Y71707620D02*
X38555785Y71707620D01*
X38841500Y70707620D02*
X38841500Y71707620D01*
X37460547Y70707620D02*
X37460547Y71707620D01*
X37079595Y71707620D01*
X36984357Y71660000D01*
X36936738Y71612381D01*
X36889119Y71517143D01*
X36889119Y71374286D01*
X36936738Y71279048D01*
X36984357Y71231429D01*
X37079595Y71183810D01*
X37460547Y71183810D01*
X36270071Y71707620D02*
X36079595Y71707620D01*
X35984357Y71660000D01*
X35889119Y71564762D01*
X35841500Y71374286D01*
X35841500Y71040953D01*
X35889119Y70850477D01*
X35984357Y70755239D01*
X36079595Y70707620D01*
X36270071Y70707620D01*
X36365309Y70755239D01*
X36460547Y70850477D01*
X36508166Y71040953D01*
X36508166Y71374286D01*
X36460547Y71564762D01*
X36365309Y71660000D01*
X36270071Y71707620D01*
X35412928Y70707620D02*
X35412928Y71707620D01*
X34936738Y70707620D02*
X34936738Y71707620D01*
X34365309Y70707620D01*
X34365309Y71707620D01*
X34031976Y71707620D02*
X33460547Y71707620D01*
X33746261Y70707620D02*
X33746261Y71707620D01*
X33174833Y70755239D02*
X33031976Y70707620D01*
X32793880Y70707620D01*
X32698642Y70755239D01*
X32651023Y70802858D01*
X32603404Y70898096D01*
X32603404Y70993334D01*
X32651023Y71088572D01*
X32698642Y71136191D01*
X32793880Y71183810D01*
X32984357Y71231429D01*
X33079595Y71279048D01*
X33127214Y71326667D01*
X33174833Y71421905D01*
X33174833Y71517143D01*
X33127214Y71612381D01*
X33079595Y71660000D01*
X32984357Y71707620D01*
X32746261Y71707620D01*
X32603404Y71660000D01*
X41746261Y70097620D02*
X41174833Y70097620D01*
X41460547Y69097620D02*
X41460547Y70097620D01*
X40841500Y69097620D02*
X40841500Y70097620D01*
X40460547Y70097620D01*
X40365309Y70050000D01*
X40317690Y70002381D01*
X40270071Y69907143D01*
X40270071Y69764286D01*
X40317690Y69669048D01*
X40365309Y69621429D01*
X40460547Y69573810D01*
X40841500Y69573810D01*
X39317690Y69097620D02*
X39889119Y69097620D01*
X39603404Y69097620D02*
X39603404Y70097620D01*
X39698642Y69954762D01*
X39793880Y69859524D01*
X39889119Y69811905D01*
X38889119Y69192858D02*
X38841500Y69145239D01*
X38889119Y69097620D01*
X38936738Y69145239D01*
X38889119Y69192858D01*
X38889119Y69097620D01*
X38889119Y69716667D02*
X38841500Y69669048D01*
X38889119Y69621429D01*
X38936738Y69669048D01*
X38889119Y69716667D01*
X38889119Y69621429D01*
X37793880Y70097620D02*
X37460547Y69097620D01*
X37127214Y70097620D01*
X36222452Y69192858D02*
X36270071Y69145239D01*
X36412928Y69097620D01*
X36508166Y69097620D01*
X36651023Y69145239D01*
X36746261Y69240477D01*
X36793880Y69335715D01*
X36841500Y69526191D01*
X36841500Y69669048D01*
X36793880Y69859524D01*
X36746261Y69954762D01*
X36651023Y70050000D01*
X36508166Y70097620D01*
X36412928Y70097620D01*
X36270071Y70050000D01*
X36222452Y70002381D01*
X35460547Y69621429D02*
X35793880Y69621429D01*
X35793880Y69097620D02*
X35793880Y70097620D01*
X35317690Y70097620D01*
X33841500Y69621429D02*
X34174833Y69621429D01*
X34174833Y69097620D02*
X34174833Y70097620D01*
X33698642Y70097620D01*
X33317690Y69097620D02*
X33317690Y70097620D01*
X32984357Y69383334D01*
X32651023Y70097620D01*
X32651023Y69097620D01*
X31412928Y69097620D02*
X31412928Y70097620D01*
X30936738Y69097620D02*
X30936738Y70097620D01*
X30365309Y69097620D01*
X30365309Y70097620D01*
X29889119Y69097620D02*
X29889119Y70097620D01*
X29508166Y70097620D01*
X29412928Y70050000D01*
X29365309Y70002381D01*
X29317690Y69907143D01*
X29317690Y69764286D01*
X29365309Y69669048D01*
X29412928Y69621429D01*
X29508166Y69573810D01*
X29889119Y69573810D01*
X28889119Y70097620D02*
X28889119Y69288096D01*
X28841500Y69192858D01*
X28793880Y69145239D01*
X28698642Y69097620D01*
X28508166Y69097620D01*
X28412928Y69145239D01*
X28365309Y69192858D01*
X28317690Y69288096D01*
X28317690Y70097620D01*
X27984357Y70097620D02*
X27412928Y70097620D01*
X27698642Y69097620D02*
X27698642Y70097620D01*
X41746261Y68487620D02*
X41174833Y68487620D01*
X41460547Y67487620D02*
X41460547Y68487620D01*
X40841500Y67487620D02*
X40841500Y68487620D01*
X40460547Y68487620D01*
X40365309Y68440000D01*
X40317690Y68392381D01*
X40270071Y68297143D01*
X40270071Y68154286D01*
X40317690Y68059048D01*
X40365309Y68011429D01*
X40460547Y67963810D01*
X40841500Y67963810D01*
X39889119Y68392381D02*
X39841500Y68440000D01*
X39746261Y68487620D01*
X39508166Y68487620D01*
X39412928Y68440000D01*
X39365309Y68392381D01*
X39317690Y68297143D01*
X39317690Y68201905D01*
X39365309Y68059048D01*
X39936738Y67487620D01*
X39317690Y67487620D01*
X38889119Y67582858D02*
X38841500Y67535239D01*
X38889119Y67487620D01*
X38936738Y67535239D01*
X38889119Y67582858D01*
X38889119Y67487620D01*
X38889119Y68106667D02*
X38841500Y68059048D01*
X38889119Y68011429D01*
X38936738Y68059048D01*
X38889119Y68106667D01*
X38889119Y68011429D01*
X37793880Y68487620D02*
X37460547Y67487620D01*
X37127214Y68487620D01*
X36222452Y67582858D02*
X36270071Y67535239D01*
X36412928Y67487620D01*
X36508166Y67487620D01*
X36651023Y67535239D01*
X36746261Y67630477D01*
X36793880Y67725715D01*
X36841500Y67916191D01*
X36841500Y68059048D01*
X36793880Y68249524D01*
X36746261Y68344762D01*
X36651023Y68440000D01*
X36508166Y68487620D01*
X36412928Y68487620D01*
X36270071Y68440000D01*
X36222452Y68392381D01*
X35460547Y68011429D02*
X35793880Y68011429D01*
X35793880Y67487620D02*
X35793880Y68487620D01*
X35317690Y68487620D01*
X33603404Y67582858D02*
X33651023Y67535239D01*
X33793880Y67487620D01*
X33889119Y67487620D01*
X34031976Y67535239D01*
X34127214Y67630477D01*
X34174833Y67725715D01*
X34222452Y67916191D01*
X34222452Y68059048D01*
X34174833Y68249524D01*
X34127214Y68344762D01*
X34031976Y68440000D01*
X33889119Y68487620D01*
X33793880Y68487620D01*
X33651023Y68440000D01*
X33603404Y68392381D01*
X33317690Y68487620D02*
X32984357Y67487620D01*
X32651023Y68487620D01*
X31555785Y67487620D02*
X31555785Y68487620D01*
X31174833Y68487620D01*
X31079595Y68440000D01*
X31031976Y68392381D01*
X30984357Y68297143D01*
X30984357Y68154286D01*
X31031976Y68059048D01*
X31079595Y68011429D01*
X31174833Y67963810D01*
X31555785Y67963810D01*
X30555785Y67487620D02*
X30555785Y68487620D01*
X30079595Y67487620D02*
X30079595Y68487620D01*
X29508166Y67487620D01*
X29508166Y68487620D01*
X41746261Y66877620D02*
X41174833Y66877620D01*
X41460547Y65877620D02*
X41460547Y66877620D01*
X40841500Y65877620D02*
X40841500Y66877620D01*
X40460547Y66877620D01*
X40365309Y66830000D01*
X40317690Y66782381D01*
X40270071Y66687143D01*
X40270071Y66544286D01*
X40317690Y66449048D01*
X40365309Y66401429D01*
X40460547Y66353810D01*
X40841500Y66353810D01*
X39936738Y66877620D02*
X39317690Y66877620D01*
X39651023Y66496667D01*
X39508166Y66496667D01*
X39412928Y66449048D01*
X39365309Y66401429D01*
X39317690Y66306191D01*
X39317690Y66068096D01*
X39365309Y65972858D01*
X39412928Y65925239D01*
X39508166Y65877620D01*
X39793880Y65877620D01*
X39889119Y65925239D01*
X39936738Y65972858D01*
X38889119Y65972858D02*
X38841500Y65925239D01*
X38889119Y65877620D01*
X38936738Y65925239D01*
X38889119Y65972858D01*
X38889119Y65877620D01*
X38889119Y66496667D02*
X38841500Y66449048D01*
X38889119Y66401429D01*
X38936738Y66449048D01*
X38889119Y66496667D01*
X38889119Y66401429D01*
X37651023Y65877620D02*
X37651023Y66877620D01*
X37317690Y66163334D01*
X36984357Y66877620D01*
X36984357Y65877620D01*
X36317690Y66877620D02*
X36127214Y66877620D01*
X36031976Y66830000D01*
X35936738Y66734762D01*
X35889119Y66544286D01*
X35889119Y66210953D01*
X35936738Y66020477D01*
X36031976Y65925239D01*
X36127214Y65877620D01*
X36317690Y65877620D01*
X36412928Y65925239D01*
X36508166Y66020477D01*
X36555785Y66210953D01*
X36555785Y66544286D01*
X36508166Y66734762D01*
X36412928Y66830000D01*
X36317690Y66877620D01*
X35460547Y65877620D02*
X35460547Y66877620D01*
X35222452Y66877620D01*
X35079595Y66830000D01*
X34984357Y66734762D01*
X34936738Y66639524D01*
X34889119Y66449048D01*
X34889119Y66306191D01*
X34936738Y66115715D01*
X34984357Y66020477D01*
X35079595Y65925239D01*
X35222452Y65877620D01*
X35460547Y65877620D01*
X33841500Y66877620D02*
X33508166Y65877620D01*
X33174833Y66877620D01*
X32270071Y65972858D02*
X32317690Y65925239D01*
X32460547Y65877620D01*
X32555785Y65877620D01*
X32698642Y65925239D01*
X32793880Y66020477D01*
X32841500Y66115715D01*
X32889119Y66306191D01*
X32889119Y66449048D01*
X32841500Y66639524D01*
X32793880Y66734762D01*
X32698642Y66830000D01*
X32555785Y66877620D01*
X32460547Y66877620D01*
X32317690Y66830000D01*
X32270071Y66782381D01*
X31889119Y66163334D02*
X31412928Y66163334D01*
X31984357Y65877620D02*
X31651023Y66877620D01*
X31317690Y65877620D01*
X30031976Y66877620D02*
X29841500Y66877620D01*
X29746261Y66830000D01*
X29651023Y66734762D01*
X29603404Y66544286D01*
X29603404Y66210953D01*
X29651023Y66020477D01*
X29746261Y65925239D01*
X29841500Y65877620D01*
X30031976Y65877620D01*
X30127214Y65925239D01*
X30222452Y66020477D01*
X30270071Y66210953D01*
X30270071Y66544286D01*
X30222452Y66734762D01*
X30127214Y66830000D01*
X30031976Y66877620D01*
X29174833Y66877620D02*
X29174833Y66068096D01*
X29127214Y65972858D01*
X29079595Y65925239D01*
X28984357Y65877620D01*
X28793880Y65877620D01*
X28698642Y65925239D01*
X28651023Y65972858D01*
X28603404Y66068096D01*
X28603404Y66877620D01*
X28270071Y66877620D02*
X27698642Y66877620D01*
X27984357Y65877620D02*
X27984357Y66877620D01*
X25889119Y66925239D02*
X26746261Y65639524D01*
X24936738Y66877620D02*
X24603404Y65877620D01*
X24270071Y66877620D01*
X23365309Y65972858D02*
X23412928Y65925239D01*
X23555785Y65877620D01*
X23651023Y65877620D01*
X23793880Y65925239D01*
X23889119Y66020477D01*
X23936738Y66115715D01*
X23984357Y66306191D01*
X23984357Y66449048D01*
X23936738Y66639524D01*
X23889119Y66734762D01*
X23793880Y66830000D01*
X23651023Y66877620D01*
X23555785Y66877620D01*
X23412928Y66830000D01*
X23365309Y66782381D01*
X22984357Y66163334D02*
X22508166Y66163334D01*
X23079595Y65877620D02*
X22746261Y66877620D01*
X22412928Y65877620D01*
X21651023Y66544286D02*
X21651023Y65877620D01*
X21889119Y66925239D02*
X22127214Y66210953D01*
X21508166Y66210953D01*
X41746261Y65267620D02*
X41174833Y65267620D01*
X41460547Y64267620D02*
X41460547Y65267620D01*
X40841500Y64267620D02*
X40841500Y65267620D01*
X40460547Y65267620D01*
X40365309Y65220000D01*
X40317690Y65172381D01*
X40270071Y65077143D01*
X40270071Y64934286D01*
X40317690Y64839048D01*
X40365309Y64791429D01*
X40460547Y64743810D01*
X40841500Y64743810D01*
X39412928Y64934286D02*
X39412928Y64267620D01*
X39651023Y65315239D02*
X39889119Y64600953D01*
X39270071Y64600953D01*
X38889119Y64362858D02*
X38841500Y64315239D01*
X38889119Y64267620D01*
X38936738Y64315239D01*
X38889119Y64362858D01*
X38889119Y64267620D01*
X38889119Y64886667D02*
X38841500Y64839048D01*
X38889119Y64791429D01*
X38936738Y64839048D01*
X38889119Y64886667D01*
X38889119Y64791429D01*
X37079595Y64267620D02*
X37412928Y64743810D01*
X37651023Y64267620D02*
X37651023Y65267620D01*
X37270071Y65267620D01*
X37174833Y65220000D01*
X37127214Y65172381D01*
X37079595Y65077143D01*
X37079595Y64934286D01*
X37127214Y64839048D01*
X37174833Y64791429D01*
X37270071Y64743810D01*
X37651023Y64743810D01*
X36651023Y64791429D02*
X36317690Y64791429D01*
X36174833Y64267620D02*
X36651023Y64267620D01*
X36651023Y65267620D01*
X36174833Y65267620D01*
X35793880Y64315239D02*
X35651023Y64267620D01*
X35412928Y64267620D01*
X35317690Y64315239D01*
X35270071Y64362858D01*
X35222452Y64458096D01*
X35222452Y64553334D01*
X35270071Y64648572D01*
X35317690Y64696191D01*
X35412928Y64743810D01*
X35603404Y64791429D01*
X35698642Y64839048D01*
X35746261Y64886667D01*
X35793880Y64981905D01*
X35793880Y65077143D01*
X35746261Y65172381D01*
X35698642Y65220000D01*
X35603404Y65267620D01*
X35365309Y65267620D01*
X35222452Y65220000D01*
X34603404Y65267620D02*
X34412928Y65267620D01*
X34317690Y65220000D01*
X34222452Y65124762D01*
X34174833Y64934286D01*
X34174833Y64600953D01*
X34222452Y64410477D01*
X34317690Y64315239D01*
X34412928Y64267620D01*
X34603404Y64267620D01*
X34698642Y64315239D01*
X34793880Y64410477D01*
X34841500Y64600953D01*
X34841500Y64934286D01*
X34793880Y65124762D01*
X34698642Y65220000D01*
X34603404Y65267620D01*
X33746261Y64267620D02*
X33746261Y65267620D01*
X33174833Y64267620D01*
X33174833Y65267620D01*
X32746261Y64553334D02*
X32270071Y64553334D01*
X32841500Y64267620D02*
X32508166Y65267620D01*
X32174833Y64267620D01*
X31841500Y64267620D02*
X31841500Y65267620D01*
X31270071Y64267620D01*
X31270071Y65267620D01*
X30222452Y64362858D02*
X30270071Y64315239D01*
X30412928Y64267620D01*
X30508166Y64267620D01*
X30651023Y64315239D01*
X30746261Y64410477D01*
X30793880Y64505715D01*
X30841500Y64696191D01*
X30841500Y64839048D01*
X30793880Y65029524D01*
X30746261Y65124762D01*
X30651023Y65220000D01*
X30508166Y65267620D01*
X30412928Y65267620D01*
X30270071Y65220000D01*
X30222452Y65172381D01*
X29793880Y64791429D02*
X29460547Y64791429D01*
X29317690Y64267620D02*
X29793880Y64267620D01*
X29793880Y65267620D01*
X29317690Y65267620D01*
X28174833Y64315239D02*
X28031976Y64267620D01*
X27793880Y64267620D01*
X27698642Y64315239D01*
X27651023Y64362858D01*
X27603404Y64458096D01*
X27603404Y64553334D01*
X27651023Y64648572D01*
X27698642Y64696191D01*
X27793880Y64743810D01*
X27984357Y64791429D01*
X28079595Y64839048D01*
X28127214Y64886667D01*
X28174833Y64981905D01*
X28174833Y65077143D01*
X28127214Y65172381D01*
X28079595Y65220000D01*
X27984357Y65267620D01*
X27746261Y65267620D01*
X27603404Y65220000D01*
X27174833Y64267620D02*
X27174833Y65267620D01*
X26174833Y65220000D02*
X26270071Y65267620D01*
X26412928Y65267620D01*
X26555785Y65220000D01*
X26651023Y65124762D01*
X26698642Y65029524D01*
X26746261Y64839048D01*
X26746261Y64696191D01*
X26698642Y64505715D01*
X26651023Y64410477D01*
X26555785Y64315239D01*
X26412928Y64267620D01*
X26317690Y64267620D01*
X26174833Y64315239D01*
X26127214Y64362858D01*
X26127214Y64696191D01*
X26317690Y64696191D01*
X25698642Y64267620D02*
X25698642Y65267620D01*
X25127214Y64267620D01*
X25127214Y65267620D01*
X24698642Y64553334D02*
X24222452Y64553334D01*
X24793880Y64267620D02*
X24460547Y65267620D01*
X24127214Y64267620D01*
X23317690Y64267620D02*
X23793880Y64267620D01*
X23793880Y65267620D01*
X22222452Y64267620D02*
X22222452Y65267620D01*
X21746261Y64267620D02*
X21746261Y65267620D01*
X21174833Y64267620D01*
X21174833Y65267620D01*
X41746261Y63657620D02*
X41174833Y63657620D01*
X41460547Y62657620D02*
X41460547Y63657620D01*
X40841500Y62657620D02*
X40841500Y63657620D01*
X40460547Y63657620D01*
X40365309Y63610000D01*
X40317690Y63562381D01*
X40270071Y63467143D01*
X40270071Y63324286D01*
X40317690Y63229048D01*
X40365309Y63181429D01*
X40460547Y63133810D01*
X40841500Y63133810D01*
X39365309Y63657620D02*
X39841500Y63657620D01*
X39889119Y63181429D01*
X39841500Y63229048D01*
X39746261Y63276667D01*
X39508166Y63276667D01*
X39412928Y63229048D01*
X39365309Y63181429D01*
X39317690Y63086191D01*
X39317690Y62848096D01*
X39365309Y62752858D01*
X39412928Y62705239D01*
X39508166Y62657620D01*
X39746261Y62657620D01*
X39841500Y62705239D01*
X39889119Y62752858D01*
X38889119Y62752858D02*
X38841500Y62705239D01*
X38889119Y62657620D01*
X38936738Y62705239D01*
X38889119Y62752858D01*
X38889119Y62657620D01*
X38889119Y63276667D02*
X38841500Y63229048D01*
X38889119Y63181429D01*
X38936738Y63229048D01*
X38889119Y63276667D01*
X38889119Y63181429D01*
X37793880Y63657620D02*
X37460547Y62657620D01*
X37127214Y63657620D01*
X36222452Y62752858D02*
X36270071Y62705239D01*
X36412928Y62657620D01*
X36508166Y62657620D01*
X36651023Y62705239D01*
X36746261Y62800477D01*
X36793880Y62895715D01*
X36841500Y63086191D01*
X36841500Y63229048D01*
X36793880Y63419524D01*
X36746261Y63514762D01*
X36651023Y63610000D01*
X36508166Y63657620D01*
X36412928Y63657620D01*
X36270071Y63610000D01*
X36222452Y63562381D01*
X35460547Y63181429D02*
X35793880Y63181429D01*
X35793880Y62657620D02*
X35793880Y63657620D01*
X35317690Y63657620D01*
X33984357Y63657620D02*
X33793880Y63657620D01*
X33698642Y63610000D01*
X33603404Y63514762D01*
X33555785Y63324286D01*
X33555785Y62990953D01*
X33603404Y62800477D01*
X33698642Y62705239D01*
X33793880Y62657620D01*
X33984357Y62657620D01*
X34079595Y62705239D01*
X34174833Y62800477D01*
X34222452Y62990953D01*
X34222452Y63324286D01*
X34174833Y63514762D01*
X34079595Y63610000D01*
X33984357Y63657620D01*
X33127214Y63657620D02*
X33127214Y62848096D01*
X33079595Y62752858D01*
X33031976Y62705239D01*
X32936738Y62657620D01*
X32746261Y62657620D01*
X32651023Y62705239D01*
X32603404Y62752858D01*
X32555785Y62848096D01*
X32555785Y63657620D01*
X32222452Y63657620D02*
X31651023Y63657620D01*
X31936738Y62657620D02*
X31936738Y63657620D01*
X30555785Y62657620D02*
X30555785Y63657620D01*
X30174833Y63657620D01*
X30079595Y63610000D01*
X30031976Y63562381D01*
X29984357Y63467143D01*
X29984357Y63324286D01*
X30031976Y63229048D01*
X30079595Y63181429D01*
X30174833Y63133810D01*
X30555785Y63133810D01*
X29365309Y63657620D02*
X29174833Y63657620D01*
X29079595Y63610000D01*
X28984357Y63514762D01*
X28936738Y63324286D01*
X28936738Y62990953D01*
X28984357Y62800477D01*
X29079595Y62705239D01*
X29174833Y62657620D01*
X29365309Y62657620D01*
X29460547Y62705239D01*
X29555785Y62800477D01*
X29603404Y62990953D01*
X29603404Y63324286D01*
X29555785Y63514762D01*
X29460547Y63610000D01*
X29365309Y63657620D01*
X28555785Y62705239D02*
X28412928Y62657620D01*
X28174833Y62657620D01*
X28079595Y62705239D01*
X28031976Y62752858D01*
X27984357Y62848096D01*
X27984357Y62943334D01*
X28031976Y63038572D01*
X28079595Y63086191D01*
X28174833Y63133810D01*
X28365309Y63181429D01*
X28460547Y63229048D01*
X28508166Y63276667D01*
X28555785Y63371905D01*
X28555785Y63467143D01*
X28508166Y63562381D01*
X28460547Y63610000D01*
X28365309Y63657620D01*
X28127214Y63657620D01*
X27984357Y63610000D01*
X27698642Y63657620D02*
X27127214Y63657620D01*
X27412928Y62657620D02*
X27412928Y63657620D01*
X26793880Y63038572D02*
X26031976Y63038572D01*
X24984357Y62752858D02*
X25031976Y62705239D01*
X25174833Y62657620D01*
X25270071Y62657620D01*
X25412928Y62705239D01*
X25508166Y62800477D01*
X25555785Y62895715D01*
X25603404Y63086191D01*
X25603404Y63229048D01*
X25555785Y63419524D01*
X25508166Y63514762D01*
X25412928Y63610000D01*
X25270071Y63657620D01*
X25174833Y63657620D01*
X25031976Y63610000D01*
X24984357Y63562381D01*
X24603404Y62943334D02*
X24127214Y62943334D01*
X24698642Y62657620D02*
X24365309Y63657620D01*
X24031976Y62657620D01*
X23698642Y62657620D02*
X23698642Y63657620D01*
X23317690Y63657620D01*
X23222452Y63610000D01*
X23174833Y63562381D01*
X23127214Y63467143D01*
X23127214Y63324286D01*
X23174833Y63229048D01*
X23222452Y63181429D01*
X23317690Y63133810D01*
X23698642Y63133810D01*
X41746261Y62047620D02*
X41174833Y62047620D01*
X41460547Y61047620D02*
X41460547Y62047620D01*
X40841500Y61047620D02*
X40841500Y62047620D01*
X40460547Y62047620D01*
X40365309Y62000000D01*
X40317690Y61952381D01*
X40270071Y61857143D01*
X40270071Y61714286D01*
X40317690Y61619048D01*
X40365309Y61571429D01*
X40460547Y61523810D01*
X40841500Y61523810D01*
X39412928Y62047620D02*
X39603404Y62047620D01*
X39698642Y62000000D01*
X39746261Y61952381D01*
X39841500Y61809524D01*
X39889119Y61619048D01*
X39889119Y61238096D01*
X39841500Y61142858D01*
X39793880Y61095239D01*
X39698642Y61047620D01*
X39508166Y61047620D01*
X39412928Y61095239D01*
X39365309Y61142858D01*
X39317690Y61238096D01*
X39317690Y61476191D01*
X39365309Y61571429D01*
X39412928Y61619048D01*
X39508166Y61666667D01*
X39698642Y61666667D01*
X39793880Y61619048D01*
X39841500Y61571429D01*
X39889119Y61476191D01*
X38889119Y61142858D02*
X38841500Y61095239D01*
X38889119Y61047620D01*
X38936738Y61095239D01*
X38889119Y61142858D01*
X38889119Y61047620D01*
X38889119Y61666667D02*
X38841500Y61619048D01*
X38889119Y61571429D01*
X38936738Y61619048D01*
X38889119Y61666667D01*
X38889119Y61571429D01*
X37793880Y62047620D02*
X37460547Y61047620D01*
X37127214Y62047620D01*
X36222452Y61142858D02*
X36270071Y61095239D01*
X36412928Y61047620D01*
X36508166Y61047620D01*
X36651023Y61095239D01*
X36746261Y61190477D01*
X36793880Y61285715D01*
X36841500Y61476191D01*
X36841500Y61619048D01*
X36793880Y61809524D01*
X36746261Y61904762D01*
X36651023Y62000000D01*
X36508166Y62047620D01*
X36412928Y62047620D01*
X36270071Y62000000D01*
X36222452Y61952381D01*
X35460547Y61571429D02*
X35793880Y61571429D01*
X35793880Y61047620D02*
X35793880Y62047620D01*
X35317690Y62047620D01*
X33603404Y61047620D02*
X33936738Y61523810D01*
X34174833Y61047620D02*
X34174833Y62047620D01*
X33793880Y62047620D01*
X33698642Y62000000D01*
X33651023Y61952381D01*
X33603404Y61857143D01*
X33603404Y61714286D01*
X33651023Y61619048D01*
X33698642Y61571429D01*
X33793880Y61523810D01*
X34174833Y61523810D01*
X33222452Y61333334D02*
X32746261Y61333334D01*
X33317690Y61047620D02*
X32984357Y62047620D01*
X32651023Y61047620D01*
X32412928Y62047620D02*
X32174833Y61047620D01*
X31984357Y61761905D01*
X31793880Y61047620D01*
X31555785Y62047620D01*
X30412928Y61047620D02*
X30412928Y62047620D01*
X29936738Y61047620D02*
X29936738Y62047620D01*
X29365309Y61047620D01*
X29365309Y62047620D01*
X41746261Y60437620D02*
X41174833Y60437620D01*
X41460547Y59437620D02*
X41460547Y60437620D01*
X40841500Y59437620D02*
X40841500Y60437620D01*
X40460547Y60437620D01*
X40365309Y60390000D01*
X40317690Y60342381D01*
X40270071Y60247143D01*
X40270071Y60104286D01*
X40317690Y60009048D01*
X40365309Y59961429D01*
X40460547Y59913810D01*
X40841500Y59913810D01*
X39936738Y60437620D02*
X39270071Y60437620D01*
X39698642Y59437620D01*
X38889119Y59532858D02*
X38841500Y59485239D01*
X38889119Y59437620D01*
X38936738Y59485239D01*
X38889119Y59532858D01*
X38889119Y59437620D01*
X38889119Y60056667D02*
X38841500Y60009048D01*
X38889119Y59961429D01*
X38936738Y60009048D01*
X38889119Y60056667D01*
X38889119Y59961429D01*
X37079595Y59437620D02*
X37412928Y59913810D01*
X37651023Y59437620D02*
X37651023Y60437620D01*
X37270071Y60437620D01*
X37174833Y60390000D01*
X37127214Y60342381D01*
X37079595Y60247143D01*
X37079595Y60104286D01*
X37127214Y60009048D01*
X37174833Y59961429D01*
X37270071Y59913810D01*
X37651023Y59913810D01*
X36651023Y59961429D02*
X36317690Y59961429D01*
X36174833Y59437620D02*
X36651023Y59437620D01*
X36651023Y60437620D01*
X36174833Y60437620D01*
X35793880Y59485239D02*
X35651023Y59437620D01*
X35412928Y59437620D01*
X35317690Y59485239D01*
X35270071Y59532858D01*
X35222452Y59628096D01*
X35222452Y59723334D01*
X35270071Y59818572D01*
X35317690Y59866191D01*
X35412928Y59913810D01*
X35603404Y59961429D01*
X35698642Y60009048D01*
X35746261Y60056667D01*
X35793880Y60151905D01*
X35793880Y60247143D01*
X35746261Y60342381D01*
X35698642Y60390000D01*
X35603404Y60437620D01*
X35365309Y60437620D01*
X35222452Y60390000D01*
X34603404Y60437620D02*
X34412928Y60437620D01*
X34317690Y60390000D01*
X34222452Y60294762D01*
X34174833Y60104286D01*
X34174833Y59770953D01*
X34222452Y59580477D01*
X34317690Y59485239D01*
X34412928Y59437620D01*
X34603404Y59437620D01*
X34698642Y59485239D01*
X34793880Y59580477D01*
X34841500Y59770953D01*
X34841500Y60104286D01*
X34793880Y60294762D01*
X34698642Y60390000D01*
X34603404Y60437620D01*
X33746261Y59437620D02*
X33746261Y60437620D01*
X33174833Y59437620D01*
X33174833Y60437620D01*
X32746261Y59723334D02*
X32270071Y59723334D01*
X32841500Y59437620D02*
X32508166Y60437620D01*
X32174833Y59437620D01*
X31841500Y59437620D02*
X31841500Y60437620D01*
X31270071Y59437620D01*
X31270071Y60437620D01*
X30222452Y59532858D02*
X30270071Y59485239D01*
X30412928Y59437620D01*
X30508166Y59437620D01*
X30651023Y59485239D01*
X30746261Y59580477D01*
X30793880Y59675715D01*
X30841500Y59866191D01*
X30841500Y60009048D01*
X30793880Y60199524D01*
X30746261Y60294762D01*
X30651023Y60390000D01*
X30508166Y60437620D01*
X30412928Y60437620D01*
X30270071Y60390000D01*
X30222452Y60342381D01*
X29793880Y59961429D02*
X29460547Y59961429D01*
X29317690Y59437620D02*
X29793880Y59437620D01*
X29793880Y60437620D01*
X29317690Y60437620D01*
X27555785Y59532858D02*
X27603404Y59485239D01*
X27746261Y59437620D01*
X27841500Y59437620D01*
X27984357Y59485239D01*
X28079595Y59580477D01*
X28127214Y59675715D01*
X28174833Y59866191D01*
X28174833Y60009048D01*
X28127214Y60199524D01*
X28079595Y60294762D01*
X27984357Y60390000D01*
X27841500Y60437620D01*
X27746261Y60437620D01*
X27603404Y60390000D01*
X27555785Y60342381D01*
X27270071Y60437620D02*
X26936738Y59437620D01*
X26603404Y60437620D01*
X41746261Y58827620D02*
X41174833Y58827620D01*
X41460547Y57827620D02*
X41460547Y58827620D01*
X40841500Y57827620D02*
X40841500Y58827620D01*
X40460547Y58827620D01*
X40365309Y58780000D01*
X40317690Y58732381D01*
X40270071Y58637143D01*
X40270071Y58494286D01*
X40317690Y58399048D01*
X40365309Y58351429D01*
X40460547Y58303810D01*
X40841500Y58303810D01*
X39698642Y58399048D02*
X39793880Y58446667D01*
X39841500Y58494286D01*
X39889119Y58589524D01*
X39889119Y58637143D01*
X39841500Y58732381D01*
X39793880Y58780000D01*
X39698642Y58827620D01*
X39508166Y58827620D01*
X39412928Y58780000D01*
X39365309Y58732381D01*
X39317690Y58637143D01*
X39317690Y58589524D01*
X39365309Y58494286D01*
X39412928Y58446667D01*
X39508166Y58399048D01*
X39698642Y58399048D01*
X39793880Y58351429D01*
X39841500Y58303810D01*
X39889119Y58208572D01*
X39889119Y58018096D01*
X39841500Y57922858D01*
X39793880Y57875239D01*
X39698642Y57827620D01*
X39508166Y57827620D01*
X39412928Y57875239D01*
X39365309Y57922858D01*
X39317690Y58018096D01*
X39317690Y58208572D01*
X39365309Y58303810D01*
X39412928Y58351429D01*
X39508166Y58399048D01*
X38889119Y57922858D02*
X38841500Y57875239D01*
X38889119Y57827620D01*
X38936738Y57875239D01*
X38889119Y57922858D01*
X38889119Y57827620D01*
X38889119Y58446667D02*
X38841500Y58399048D01*
X38889119Y58351429D01*
X38936738Y58399048D01*
X38889119Y58446667D01*
X38889119Y58351429D01*
X37127214Y58780000D02*
X37222452Y58827620D01*
X37365309Y58827620D01*
X37508166Y58780000D01*
X37603404Y58684762D01*
X37651023Y58589524D01*
X37698642Y58399048D01*
X37698642Y58256191D01*
X37651023Y58065715D01*
X37603404Y57970477D01*
X37508166Y57875239D01*
X37365309Y57827620D01*
X37270071Y57827620D01*
X37127214Y57875239D01*
X37079595Y57922858D01*
X37079595Y58256191D01*
X37270071Y58256191D01*
X36651023Y57827620D02*
X36651023Y58827620D01*
X36270071Y58827620D01*
X36174833Y58780000D01*
X36127214Y58732381D01*
X36079595Y58637143D01*
X36079595Y58494286D01*
X36127214Y58399048D01*
X36174833Y58351429D01*
X36270071Y58303810D01*
X36651023Y58303810D01*
X35651023Y57827620D02*
X35651023Y58827620D01*
X34984357Y58827620D02*
X34793880Y58827620D01*
X34698642Y58780000D01*
X34603404Y58684762D01*
X34555785Y58494286D01*
X34555785Y58160953D01*
X34603404Y57970477D01*
X34698642Y57875239D01*
X34793880Y57827620D01*
X34984357Y57827620D01*
X35079595Y57875239D01*
X35174833Y57970477D01*
X35222452Y58160953D01*
X35222452Y58494286D01*
X35174833Y58684762D01*
X35079595Y58780000D01*
X34984357Y58827620D01*
X33174833Y58827620D02*
X32984357Y58827620D01*
X32889119Y58780000D01*
X32793880Y58684762D01*
X32746261Y58494286D01*
X32746261Y58160953D01*
X32793880Y57970477D01*
X32889119Y57875239D01*
X32984357Y57827620D01*
X33174833Y57827620D01*
X33270071Y57875239D01*
X33365309Y57970477D01*
X33412928Y58160953D01*
X33412928Y58494286D01*
X33365309Y58684762D01*
X33270071Y58780000D01*
X33174833Y58827620D01*
X32317690Y58827620D02*
X32317690Y58018096D01*
X32270071Y57922858D01*
X32222452Y57875239D01*
X32127214Y57827620D01*
X31936738Y57827620D01*
X31841500Y57875239D01*
X31793880Y57922858D01*
X31746261Y58018096D01*
X31746261Y58827620D01*
X31412928Y58827620D02*
X30841500Y58827620D01*
X31127214Y57827620D02*
X31127214Y58827620D01*
X29889119Y58827620D02*
X29317690Y58827620D01*
X29603404Y57827620D02*
X29603404Y58827620D01*
X28412928Y57827620D02*
X28746261Y58303810D01*
X28984357Y57827620D02*
X28984357Y58827620D01*
X28603404Y58827620D01*
X28508166Y58780000D01*
X28460547Y58732381D01*
X28412928Y58637143D01*
X28412928Y58494286D01*
X28460547Y58399048D01*
X28508166Y58351429D01*
X28603404Y58303810D01*
X28984357Y58303810D01*
X28031976Y58113334D02*
X27555785Y58113334D01*
X28127214Y57827620D02*
X27793880Y58827620D01*
X27460547Y57827620D01*
X27127214Y57827620D02*
X27127214Y58827620D01*
X26555785Y57827620D01*
X26555785Y58827620D01*
X26127214Y57875239D02*
X25984357Y57827620D01*
X25746261Y57827620D01*
X25651023Y57875239D01*
X25603404Y57922858D01*
X25555785Y58018096D01*
X25555785Y58113334D01*
X25603404Y58208572D01*
X25651023Y58256191D01*
X25746261Y58303810D01*
X25936738Y58351429D01*
X26031976Y58399048D01*
X26079595Y58446667D01*
X26127214Y58541905D01*
X26127214Y58637143D01*
X26079595Y58732381D01*
X26031976Y58780000D01*
X25936738Y58827620D01*
X25698642Y58827620D01*
X25555785Y58780000D01*
X25127214Y57827620D02*
X25127214Y58827620D01*
X24698642Y57875239D02*
X24555785Y57827620D01*
X24317690Y57827620D01*
X24222452Y57875239D01*
X24174833Y57922858D01*
X24127214Y58018096D01*
X24127214Y58113334D01*
X24174833Y58208572D01*
X24222452Y58256191D01*
X24317690Y58303810D01*
X24508166Y58351429D01*
X24603404Y58399048D01*
X24651023Y58446667D01*
X24698642Y58541905D01*
X24698642Y58637143D01*
X24651023Y58732381D01*
X24603404Y58780000D01*
X24508166Y58827620D01*
X24270071Y58827620D01*
X24127214Y58780000D01*
X23841500Y58827620D02*
X23270071Y58827620D01*
X23555785Y57827620D02*
X23555785Y58827620D01*
X22746261Y58827620D02*
X22555785Y58827620D01*
X22460547Y58780000D01*
X22365309Y58684762D01*
X22317690Y58494286D01*
X22317690Y58160953D01*
X22365309Y57970477D01*
X22460547Y57875239D01*
X22555785Y57827620D01*
X22746261Y57827620D01*
X22841500Y57875239D01*
X22936738Y57970477D01*
X22984357Y58160953D01*
X22984357Y58494286D01*
X22936738Y58684762D01*
X22841500Y58780000D01*
X22746261Y58827620D01*
X21317690Y57827620D02*
X21651023Y58303810D01*
X21889119Y57827620D02*
X21889119Y58827620D01*
X21508166Y58827620D01*
X21412928Y58780000D01*
X21365309Y58732381D01*
X21317690Y58637143D01*
X21317690Y58494286D01*
X21365309Y58399048D01*
X21412928Y58351429D01*
X21508166Y58303810D01*
X21889119Y58303810D01*
X19793880Y58351429D02*
X19651023Y58303810D01*
X19603404Y58256191D01*
X19555785Y58160953D01*
X19555785Y58018096D01*
X19603404Y57922858D01*
X19651023Y57875239D01*
X19746261Y57827620D01*
X20127214Y57827620D01*
X20127214Y58827620D01*
X19793880Y58827620D01*
X19698642Y58780000D01*
X19651023Y58732381D01*
X19603404Y58637143D01*
X19603404Y58541905D01*
X19651023Y58446667D01*
X19698642Y58399048D01*
X19793880Y58351429D01*
X20127214Y58351429D01*
X19174833Y58113334D02*
X18698642Y58113334D01*
X19270071Y57827620D02*
X18936738Y58827620D01*
X18603404Y57827620D01*
X18317690Y57875239D02*
X18174833Y57827620D01*
X17936738Y57827620D01*
X17841500Y57875239D01*
X17793880Y57922858D01*
X17746261Y58018096D01*
X17746261Y58113334D01*
X17793880Y58208572D01*
X17841500Y58256191D01*
X17936738Y58303810D01*
X18127214Y58351429D01*
X18222452Y58399048D01*
X18270071Y58446667D01*
X18317690Y58541905D01*
X18317690Y58637143D01*
X18270071Y58732381D01*
X18222452Y58780000D01*
X18127214Y58827620D01*
X17889119Y58827620D01*
X17746261Y58780000D01*
X17317690Y58351429D02*
X16984357Y58351429D01*
X16841500Y57827620D02*
X17317690Y57827620D01*
X17317690Y58827620D01*
X16841500Y58827620D01*
X41746261Y57217620D02*
X41174833Y57217620D01*
X41460547Y56217620D02*
X41460547Y57217620D01*
X40841500Y56217620D02*
X40841500Y57217620D01*
X40460547Y57217620D01*
X40365309Y57170000D01*
X40317690Y57122381D01*
X40270071Y57027143D01*
X40270071Y56884286D01*
X40317690Y56789048D01*
X40365309Y56741429D01*
X40460547Y56693810D01*
X40841500Y56693810D01*
X39793880Y56217620D02*
X39603404Y56217620D01*
X39508166Y56265239D01*
X39460547Y56312858D01*
X39365309Y56455715D01*
X39317690Y56646191D01*
X39317690Y57027143D01*
X39365309Y57122381D01*
X39412928Y57170000D01*
X39508166Y57217620D01*
X39698642Y57217620D01*
X39793880Y57170000D01*
X39841500Y57122381D01*
X39889119Y57027143D01*
X39889119Y56789048D01*
X39841500Y56693810D01*
X39793880Y56646191D01*
X39698642Y56598572D01*
X39508166Y56598572D01*
X39412928Y56646191D01*
X39365309Y56693810D01*
X39317690Y56789048D01*
X38889119Y56312858D02*
X38841500Y56265239D01*
X38889119Y56217620D01*
X38936738Y56265239D01*
X38889119Y56312858D01*
X38889119Y56217620D01*
X38889119Y56836667D02*
X38841500Y56789048D01*
X38889119Y56741429D01*
X38936738Y56789048D01*
X38889119Y56836667D01*
X38889119Y56741429D01*
X37651023Y56217620D02*
X37651023Y57217620D01*
X37317690Y56503334D01*
X36984357Y57217620D01*
X36984357Y56217620D01*
X36317690Y57217620D02*
X36127214Y57217620D01*
X36031976Y57170000D01*
X35936738Y57074762D01*
X35889119Y56884286D01*
X35889119Y56550953D01*
X35936738Y56360477D01*
X36031976Y56265239D01*
X36127214Y56217620D01*
X36317690Y56217620D01*
X36412928Y56265239D01*
X36508166Y56360477D01*
X36555785Y56550953D01*
X36555785Y56884286D01*
X36508166Y57074762D01*
X36412928Y57170000D01*
X36317690Y57217620D01*
X35460547Y56217620D02*
X35460547Y57217620D01*
X35222452Y57217620D01*
X35079595Y57170000D01*
X34984357Y57074762D01*
X34936738Y56979524D01*
X34889119Y56789048D01*
X34889119Y56646191D01*
X34936738Y56455715D01*
X34984357Y56360477D01*
X35079595Y56265239D01*
X35222452Y56217620D01*
X35460547Y56217620D01*
X34460547Y57217620D02*
X34460547Y56408096D01*
X34412928Y56312858D01*
X34365309Y56265239D01*
X34270071Y56217620D01*
X34079595Y56217620D01*
X33984357Y56265239D01*
X33936738Y56312858D01*
X33889119Y56408096D01*
X33889119Y57217620D01*
X32936738Y56217620D02*
X33412928Y56217620D01*
X33412928Y57217620D01*
X32603404Y56741429D02*
X32270071Y56741429D01*
X32127214Y56217620D02*
X32603404Y56217620D01*
X32603404Y57217620D01*
X32127214Y57217620D01*
X31079595Y57217620D02*
X30508166Y57217620D01*
X30793880Y56217620D02*
X30793880Y57217620D01*
X29984357Y57217620D02*
X29793880Y57217620D01*
X29698642Y57170000D01*
X29603404Y57074762D01*
X29555785Y56884286D01*
X29555785Y56550953D01*
X29603404Y56360477D01*
X29698642Y56265239D01*
X29793880Y56217620D01*
X29984357Y56217620D01*
X30079595Y56265239D01*
X30174833Y56360477D01*
X30222452Y56550953D01*
X30222452Y56884286D01*
X30174833Y57074762D01*
X30079595Y57170000D01*
X29984357Y57217620D01*
X28365309Y56217620D02*
X28365309Y57217620D01*
X27984357Y57217620D01*
X27889119Y57170000D01*
X27841500Y57122381D01*
X27793880Y57027143D01*
X27793880Y56884286D01*
X27841500Y56789048D01*
X27889119Y56741429D01*
X27984357Y56693810D01*
X28365309Y56693810D01*
X27365309Y56217620D02*
X27365309Y57217620D01*
X25603404Y57170000D02*
X25698642Y57217620D01*
X25841500Y57217620D01*
X25984357Y57170000D01*
X26079595Y57074762D01*
X26127214Y56979524D01*
X26174833Y56789048D01*
X26174833Y56646191D01*
X26127214Y56455715D01*
X26079595Y56360477D01*
X25984357Y56265239D01*
X25841500Y56217620D01*
X25746261Y56217620D01*
X25603404Y56265239D01*
X25555785Y56312858D01*
X25555785Y56646191D01*
X25746261Y56646191D01*
X25174833Y56503334D02*
X24698642Y56503334D01*
X25270071Y56217620D02*
X24936738Y57217620D01*
X24603404Y56217620D01*
X24412928Y57217620D02*
X23841500Y57217620D01*
X24127214Y56217620D02*
X24127214Y57217620D01*
X23508166Y56741429D02*
X23174833Y56741429D01*
X23031976Y56217620D02*
X23508166Y56217620D01*
X23508166Y57217620D01*
X23031976Y57217620D01*
X21841500Y56217620D02*
X21841500Y57217620D01*
X21841500Y56741429D02*
X21270071Y56741429D01*
X21270071Y56217620D02*
X21270071Y57217620D01*
X20603404Y57217620D02*
X20412928Y57217620D01*
X20317690Y57170000D01*
X20222452Y57074762D01*
X20174833Y56884286D01*
X20174833Y56550953D01*
X20222452Y56360477D01*
X20317690Y56265239D01*
X20412928Y56217620D01*
X20603404Y56217620D01*
X20698642Y56265239D01*
X20793880Y56360477D01*
X20841500Y56550953D01*
X20841500Y56884286D01*
X20793880Y57074762D01*
X20698642Y57170000D01*
X20603404Y57217620D01*
X19270071Y56217620D02*
X19746261Y56217620D01*
X19746261Y57217620D01*
X18936738Y56217620D02*
X18936738Y57217620D01*
X18698642Y57217620D01*
X18555785Y57170000D01*
X18460547Y57074762D01*
X18412928Y56979524D01*
X18365309Y56789048D01*
X18365309Y56646191D01*
X18412928Y56455715D01*
X18460547Y56360477D01*
X18555785Y56265239D01*
X18698642Y56217620D01*
X18936738Y56217620D01*
X41746261Y55607620D02*
X41174833Y55607620D01*
X41460547Y54607620D02*
X41460547Y55607620D01*
X40841500Y54607620D02*
X40841500Y55607620D01*
X40460547Y55607620D01*
X40365309Y55560000D01*
X40317690Y55512381D01*
X40270071Y55417143D01*
X40270071Y55274286D01*
X40317690Y55179048D01*
X40365309Y55131429D01*
X40460547Y55083810D01*
X40841500Y55083810D01*
X39317690Y54607620D02*
X39889119Y54607620D01*
X39603404Y54607620D02*
X39603404Y55607620D01*
X39698642Y55464762D01*
X39793880Y55369524D01*
X39889119Y55321905D01*
X38936738Y55512381D02*
X38889119Y55560000D01*
X38793880Y55607620D01*
X38555785Y55607620D01*
X38460547Y55560000D01*
X38412928Y55512381D01*
X38365309Y55417143D01*
X38365309Y55321905D01*
X38412928Y55179048D01*
X38984357Y54607620D01*
X38365309Y54607620D01*
X37936738Y54702858D02*
X37889119Y54655239D01*
X37936738Y54607620D01*
X37984357Y54655239D01*
X37936738Y54702858D01*
X37936738Y54607620D01*
X37936738Y55226667D02*
X37889119Y55179048D01*
X37936738Y55131429D01*
X37984357Y55179048D01*
X37936738Y55226667D01*
X37936738Y55131429D01*
X36841500Y55607620D02*
X36508166Y54607620D01*
X36174833Y55607620D01*
X35270071Y54702858D02*
X35317690Y54655239D01*
X35460547Y54607620D01*
X35555785Y54607620D01*
X35698642Y54655239D01*
X35793880Y54750477D01*
X35841500Y54845715D01*
X35889119Y55036191D01*
X35889119Y55179048D01*
X35841500Y55369524D01*
X35793880Y55464762D01*
X35698642Y55560000D01*
X35555785Y55607620D01*
X35460547Y55607620D01*
X35317690Y55560000D01*
X35270071Y55512381D01*
X34889119Y54893334D02*
X34412928Y54893334D01*
X34984357Y54607620D02*
X34651023Y55607620D01*
X34317690Y54607620D01*
X33508166Y55607620D02*
X33984357Y55607620D01*
X34031976Y55131429D01*
X33984357Y55179048D01*
X33889119Y55226667D01*
X33651023Y55226667D01*
X33555785Y55179048D01*
X33508166Y55131429D01*
X33460547Y55036191D01*
X33460547Y54798096D01*
X33508166Y54702858D01*
X33555785Y54655239D01*
X33651023Y54607620D01*
X33889119Y54607620D01*
X33984357Y54655239D01*
X34031976Y54702858D01*
X32317690Y55655239D02*
X33174833Y54369524D01*
X31555785Y55607620D02*
X31746261Y55607620D01*
X31841500Y55560000D01*
X31889119Y55512381D01*
X31984357Y55369524D01*
X32031976Y55179048D01*
X32031976Y54798096D01*
X31984357Y54702858D01*
X31936738Y54655239D01*
X31841500Y54607620D01*
X31651023Y54607620D01*
X31555785Y54655239D01*
X31508166Y54702858D01*
X31460547Y54798096D01*
X31460547Y55036191D01*
X31508166Y55131429D01*
X31555785Y55179048D01*
X31651023Y55226667D01*
X31841500Y55226667D01*
X31936738Y55179048D01*
X31984357Y55131429D01*
X32031976Y55036191D01*
X30270071Y54607620D02*
X30270071Y55607620D01*
X29793880Y54607620D02*
X29793880Y55607620D01*
X29222452Y54607620D01*
X29222452Y55607620D01*
X28746261Y54607620D02*
X28746261Y55607620D01*
X28365309Y55607620D01*
X28270071Y55560000D01*
X28222452Y55512381D01*
X28174833Y55417143D01*
X28174833Y55274286D01*
X28222452Y55179048D01*
X28270071Y55131429D01*
X28365309Y55083810D01*
X28746261Y55083810D01*
X27746261Y55607620D02*
X27746261Y54798096D01*
X27698642Y54702858D01*
X27651023Y54655239D01*
X27555785Y54607620D01*
X27365309Y54607620D01*
X27270071Y54655239D01*
X27222452Y54702858D01*
X27174833Y54798096D01*
X27174833Y55607620D01*
X26841500Y55607620D02*
X26270071Y55607620D01*
X26555785Y54607620D02*
X26555785Y55607620D01*
X41746261Y53997620D02*
X41174833Y53997620D01*
X41460547Y52997620D02*
X41460547Y53997620D01*
X40841500Y52997620D02*
X40841500Y53997620D01*
X40460547Y53997620D01*
X40365309Y53950000D01*
X40317690Y53902381D01*
X40270071Y53807143D01*
X40270071Y53664286D01*
X40317690Y53569048D01*
X40365309Y53521429D01*
X40460547Y53473810D01*
X40841500Y53473810D01*
X39317690Y52997620D02*
X39889119Y52997620D01*
X39603404Y52997620D02*
X39603404Y53997620D01*
X39698642Y53854762D01*
X39793880Y53759524D01*
X39889119Y53711905D01*
X38984357Y53997620D02*
X38365309Y53997620D01*
X38698642Y53616667D01*
X38555785Y53616667D01*
X38460547Y53569048D01*
X38412928Y53521429D01*
X38365309Y53426191D01*
X38365309Y53188096D01*
X38412928Y53092858D01*
X38460547Y53045239D01*
X38555785Y52997620D01*
X38841500Y52997620D01*
X38936738Y53045239D01*
X38984357Y53092858D01*
X37936738Y53092858D02*
X37889119Y53045239D01*
X37936738Y52997620D01*
X37984357Y53045239D01*
X37936738Y53092858D01*
X37936738Y52997620D01*
X37936738Y53616667D02*
X37889119Y53569048D01*
X37936738Y53521429D01*
X37984357Y53569048D01*
X37936738Y53616667D01*
X37936738Y53521429D01*
X36841500Y53997620D02*
X36508166Y52997620D01*
X36174833Y53997620D01*
X35270071Y53092858D02*
X35317690Y53045239D01*
X35460547Y52997620D01*
X35555785Y52997620D01*
X35698642Y53045239D01*
X35793880Y53140477D01*
X35841500Y53235715D01*
X35889119Y53426191D01*
X35889119Y53569048D01*
X35841500Y53759524D01*
X35793880Y53854762D01*
X35698642Y53950000D01*
X35555785Y53997620D01*
X35460547Y53997620D01*
X35317690Y53950000D01*
X35270071Y53902381D01*
X34889119Y53283334D02*
X34412928Y53283334D01*
X34984357Y52997620D02*
X34651023Y53997620D01*
X34317690Y52997620D01*
X33508166Y53997620D02*
X33984357Y53997620D01*
X34031976Y53521429D01*
X33984357Y53569048D01*
X33889119Y53616667D01*
X33651023Y53616667D01*
X33555785Y53569048D01*
X33508166Y53521429D01*
X33460547Y53426191D01*
X33460547Y53188096D01*
X33508166Y53092858D01*
X33555785Y53045239D01*
X33651023Y52997620D01*
X33889119Y52997620D01*
X33984357Y53045239D01*
X34031976Y53092858D01*
X32317690Y54045239D02*
X33174833Y52759524D01*
X31555785Y53997620D02*
X31746261Y53997620D01*
X31841500Y53950000D01*
X31889119Y53902381D01*
X31984357Y53759524D01*
X32031976Y53569048D01*
X32031976Y53188096D01*
X31984357Y53092858D01*
X31936738Y53045239D01*
X31841500Y52997620D01*
X31651023Y52997620D01*
X31555785Y53045239D01*
X31508166Y53092858D01*
X31460547Y53188096D01*
X31460547Y53426191D01*
X31508166Y53521429D01*
X31555785Y53569048D01*
X31651023Y53616667D01*
X31841500Y53616667D01*
X31936738Y53569048D01*
X31984357Y53521429D01*
X32031976Y53426191D01*
X29936738Y53521429D02*
X30270071Y53521429D01*
X30270071Y52997620D02*
X30270071Y53997620D01*
X29793880Y53997620D01*
X29412928Y52997620D02*
X29412928Y53997620D01*
X29079595Y53283334D01*
X28746261Y53997620D01*
X28746261Y52997620D01*
X27508166Y52997620D02*
X27508166Y53997620D01*
X27031976Y52997620D02*
X27031976Y53997620D01*
X26460547Y52997620D01*
X26460547Y53997620D01*
X25984357Y52997620D02*
X25984357Y53997620D01*
X25603404Y53997620D01*
X25508166Y53950000D01*
X25460547Y53902381D01*
X25412928Y53807143D01*
X25412928Y53664286D01*
X25460547Y53569048D01*
X25508166Y53521429D01*
X25603404Y53473810D01*
X25984357Y53473810D01*
X24984357Y53997620D02*
X24984357Y53188096D01*
X24936738Y53092858D01*
X24889119Y53045239D01*
X24793880Y52997620D01*
X24603404Y52997620D01*
X24508166Y53045239D01*
X24460547Y53092858D01*
X24412928Y53188096D01*
X24412928Y53997620D01*
X24079595Y53997620D02*
X23508166Y53997620D01*
X23793880Y52997620D02*
X23793880Y53997620D01*
X41746261Y52387620D02*
X41174833Y52387620D01*
X41460547Y51387620D02*
X41460547Y52387620D01*
X40841500Y51387620D02*
X40841500Y52387620D01*
X40460547Y52387620D01*
X40365309Y52340000D01*
X40317690Y52292381D01*
X40270071Y52197143D01*
X40270071Y52054286D01*
X40317690Y51959048D01*
X40365309Y51911429D01*
X40460547Y51863810D01*
X40841500Y51863810D01*
X39317690Y51387620D02*
X39889119Y51387620D01*
X39603404Y51387620D02*
X39603404Y52387620D01*
X39698642Y52244762D01*
X39793880Y52149524D01*
X39889119Y52101905D01*
X38412928Y52387620D02*
X38889119Y52387620D01*
X38936738Y51911429D01*
X38889119Y51959048D01*
X38793880Y52006667D01*
X38555785Y52006667D01*
X38460547Y51959048D01*
X38412928Y51911429D01*
X38365309Y51816191D01*
X38365309Y51578096D01*
X38412928Y51482858D01*
X38460547Y51435239D01*
X38555785Y51387620D01*
X38793880Y51387620D01*
X38889119Y51435239D01*
X38936738Y51482858D01*
X37936738Y51482858D02*
X37889119Y51435239D01*
X37936738Y51387620D01*
X37984357Y51435239D01*
X37936738Y51482858D01*
X37936738Y51387620D01*
X37936738Y52006667D02*
X37889119Y51959048D01*
X37936738Y51911429D01*
X37984357Y51959048D01*
X37936738Y52006667D01*
X37936738Y51911429D01*
X36793880Y52387620D02*
X36555785Y51387620D01*
X36365309Y52101905D01*
X36174833Y51387620D01*
X35936738Y52387620D01*
X35555785Y51387620D02*
X35555785Y52387620D01*
X35555785Y51911429D02*
X34984357Y51911429D01*
X34984357Y51387620D02*
X34984357Y52387620D01*
X34508166Y51387620D02*
X34508166Y52387620D01*
X34174833Y52387620D02*
X33603404Y52387620D01*
X33889119Y51387620D02*
X33889119Y52387620D01*
X33270071Y51911429D02*
X32936738Y51911429D01*
X32793880Y51387620D02*
X33270071Y51387620D01*
X33270071Y52387620D01*
X32793880Y52387620D01*
X31603404Y51387620D02*
X31603404Y52387620D01*
X31031976Y51387620D01*
X31031976Y52387620D01*
X30365309Y52387620D02*
X30174833Y52387620D01*
X30079595Y52340000D01*
X29984357Y52244762D01*
X29936738Y52054286D01*
X29936738Y51720953D01*
X29984357Y51530477D01*
X30079595Y51435239D01*
X30174833Y51387620D01*
X30365309Y51387620D01*
X30460547Y51435239D01*
X30555785Y51530477D01*
X30603404Y51720953D01*
X30603404Y52054286D01*
X30555785Y52244762D01*
X30460547Y52340000D01*
X30365309Y52387620D01*
X29508166Y51387620D02*
X29508166Y52387620D01*
X29079595Y51435239D02*
X28936738Y51387620D01*
X28698642Y51387620D01*
X28603404Y51435239D01*
X28555785Y51482858D01*
X28508166Y51578096D01*
X28508166Y51673334D01*
X28555785Y51768572D01*
X28603404Y51816191D01*
X28698642Y51863810D01*
X28889119Y51911429D01*
X28984357Y51959048D01*
X29031976Y52006667D01*
X29079595Y52101905D01*
X29079595Y52197143D01*
X29031976Y52292381D01*
X28984357Y52340000D01*
X28889119Y52387620D01*
X28651023Y52387620D01*
X28508166Y52340000D01*
X28079595Y51911429D02*
X27746261Y51911429D01*
X27603404Y51387620D02*
X28079595Y51387620D01*
X28079595Y52387620D01*
X27603404Y52387620D01*
X26222452Y52387620D02*
X26031976Y52387620D01*
X25936738Y52340000D01*
X25841500Y52244762D01*
X25793880Y52054286D01*
X25793880Y51720953D01*
X25841500Y51530477D01*
X25936738Y51435239D01*
X26031976Y51387620D01*
X26222452Y51387620D01*
X26317690Y51435239D01*
X26412928Y51530477D01*
X26460547Y51720953D01*
X26460547Y52054286D01*
X26412928Y52244762D01*
X26317690Y52340000D01*
X26222452Y52387620D01*
X25365309Y52387620D02*
X25365309Y51578096D01*
X25317690Y51482858D01*
X25270071Y51435239D01*
X25174833Y51387620D01*
X24984357Y51387620D01*
X24889119Y51435239D01*
X24841500Y51482858D01*
X24793880Y51578096D01*
X24793880Y52387620D01*
X24460547Y52387620D02*
X23889119Y52387620D01*
X24174833Y51387620D02*
X24174833Y52387620D01*
M02*
