M48
; DRILL file {KiCad (6.0.7-1)-1} date Sunday, April 02, 2023 at 10:50:52 PM
; FORMAT={-:-/ absolute / inch / decimal}
; #@! TF.CreationDate,2023-04-02T22:50:52-07:00
; #@! TF.GenerationSoftware,Kicad,Pcbnew,(6.0.7-1)-1
; #@! TF.FileFunction,Plated,1,4,PTH
FMAT,2
INCH
; #@! TA.AperFunction,Plated,PTH,ViaDrill
T1C0.0157
; #@! TA.AperFunction,Plated,PTH,ViaDrill
T2C0.0197
; #@! TA.AperFunction,Plated,PTH,ComponentDrill
T3C0.0236
; #@! TA.AperFunction,Plated,PTH,ComponentDrill
T4C0.0315
; #@! TA.AperFunction,Plated,PTH,ComponentDrill
T5C0.0394
%
G90
G05
T1
X0.1337Y1.2602
X0.2165Y0.4764
X0.2203Y1.5909
X0.2402Y1.9252
X0.2795Y2.0827
X0.3189Y1.0197
X0.3425Y2.1142
X0.4055Y2.5157
X0.4449Y2.2638
X0.4528Y2.374
X0.4685Y1.8543
X0.5472Y1.9331
X0.5472Y1.7205
X0.5787Y0.626
X0.6339Y1.7598
X0.6339Y0.8543
X0.6811Y0.9803
X0.689Y0.9252
X0.7756Y0.6969
X0.8228Y0.878
X0.8543Y0.9803
X0.8622Y2.5787
X0.8858Y1.2874
X0.9016Y0.6732
X0.9488Y2.4449
X0.9488Y0.7205
X0.9803Y2.2165
X1.0197Y0.878
X1.0433Y2.6417
X1.0433Y0.9252
X1.0512Y2.2165
X1.0512Y1.9961
X1.0748Y2.5236
X1.0906Y2.7835
X1.0984Y0.6496
X1.1535Y2.5157
X1.2008Y2.5315
X1.2008Y2.1693
X1.2087Y1.8386
X1.2402Y0.6732
X1.248Y2.6811
X1.248Y0.7835
X1.2559Y2.6339
X1.2874Y1.5079
X1.2953Y2.0433
X1.3346Y3.0197
X1.3583Y0.6575
X1.3976Y2.2008
X1.4134Y2.7283
X1.4134Y0.9803
X1.4291Y1.248
X1.4606Y2.5787
X1.4646Y3.063
X1.4685Y2.7283
X1.4843Y2.0354
X1.5Y0.6811
X1.5236Y2.9961
X1.563Y2.8858
X1.563Y2.0354
X1.5709Y2.5551
X1.5709Y1.2087
X1.5866Y1.8386
X1.626Y2.8858
X1.626Y2.689
X1.626Y2.2795
X1.6732Y2.3909
X1.7283Y2.122
X1.7913Y2.8307
X1.7992Y0.8386
X1.7992Y0.7756
X1.8307Y2.2795
X1.8465Y0.2638
X1.8701Y3.0197
X1.8701Y1.1535
X1.8858Y0.9409
X1.9252Y2.2874
X1.9331Y1.5787
X1.9803Y2.8858
X1.9803Y2.689
X1.9961Y1.2795
X2.0197Y0.9882
X2.0512Y1.2874
X2.0512Y1.1614
X2.0748Y1.3504
X2.1535Y0.7441
X2.1614Y2.0039
X2.1994Y0.8215
X2.2323Y1.3425
X2.248Y2.6969
X2.2795Y1.2323
X2.2874Y2.3898
X2.2933Y2.6575
X2.2953Y3.0118
X2.3189Y3.1063
X2.3268Y2.1299
X2.3346Y2.311
X2.3425Y1.7992
X2.3661Y2.3661
X2.372Y2.6568
X2.3898Y3.0276
X2.4291Y2.6102
X2.4606Y3.0276
X2.4606Y2.0512
X2.4606Y1.6339
X2.4606Y1.4134
X2.5Y2.8386
X2.5945Y1.2717
X2.5945Y0.689
X2.6024Y2.8386
X2.6654Y1.8878
X2.6732Y1.5709
X2.6811Y2.3819
X2.6969Y1.6339
X2.7047Y0.7913
X2.7835Y1.2008
X2.8307Y1.8406
X2.8465Y2.6102
X2.8543Y2.6654
X2.8858Y0.7441
X2.9016Y2.7441
X2.9173Y2.5866
X2.9252Y1.626
X3.0034Y0.8858
X3.0748Y2.5866
T2
X0.0984Y0.8228
X0.2087Y1.7061
X0.2087Y1.6461
X0.2165Y1.8071
X0.2638Y1.4449
X0.2795Y1.8071
X0.3425Y1.1693
X0.3504Y2.3661
X0.3504Y2.3031
X0.3976Y1.1693
X0.4291Y1.5394
X0.5787Y1.0906
X0.6024Y1.2795
X0.6417Y1.0906
X0.6811Y1.2795
X0.8386Y2.3504
X0.8425Y1.7481
X0.878Y1.437
X0.9016Y1.6417
X0.9094Y2.1142
X0.9488Y2.0039
X1.0748Y3.1142
X1.0984Y0.9488
X1.1063Y1.0433
X1.1378Y3.1142
X1.1614Y1.0276
X1.1614Y0.9646
X1.2953Y1.7441
X1.3425Y1.6339
X1.4449Y1.7362
X1.5079Y1.7362
X1.6654Y1.0433
X1.6654Y0.9803
X1.7677Y2.6024
X1.7756Y3.1378
X1.7756Y1.0906
X1.7756Y1.0276
X1.8307Y2.6024
X1.8386Y3.1378
X2.2165Y1.3898
X2.248Y0.9882
X2.4764Y2.4213
X2.5Y1.9114
X2.5079Y1.5079
X2.8012Y1.3189
X2.8091Y1.4134
X2.8504Y2.9764
X2.8701Y1.4764
X2.9094Y2.3425
X2.9272Y1.2559
X2.9724Y2.3425
T3
X0.6181Y2.1899
X0.6181Y2.1308
T4
X0.5811Y1.5094
X0.6811Y1.5094
X0.7811Y1.5094
X1.0236Y1.5079
X1.2205Y1.5079
X1.5591Y1.5079
X1.7559Y1.5079
T5
X0.6522Y0.5492
X0.6522Y0.4492
X0.7522Y0.5492
X0.7522Y0.4492
X0.8307Y3.0591
X0.8522Y0.5492
X0.8522Y0.4492
X0.9522Y0.5492
X0.9522Y0.4492
X1.0522Y0.5492
X1.0522Y0.4492
X1.1522Y0.5492
X1.1522Y0.4492
X1.2522Y0.5492
X1.2522Y0.4492
X1.3522Y0.5492
X1.3522Y0.4492
X1.4522Y0.5492
X1.4522Y0.4492
X1.5522Y0.5492
X1.5522Y0.4492
X1.6522Y0.5492
X1.6522Y0.4492
X1.7522Y0.5492
X1.7522Y0.4492
X1.8522Y0.5492
X1.8522Y0.4492
X1.9522Y0.5492
X1.9522Y0.4492
X2.0522Y0.5492
X2.0522Y0.4492
X2.1522Y0.5492
X2.1522Y0.4492
X2.2522Y0.5492
X2.2522Y0.4492
X2.3522Y0.5492
X2.3522Y0.4492
X2.4522Y0.5492
X2.4522Y0.4492
X2.5522Y0.5492
X2.5522Y0.4492
X3.0433Y0.7309
X3.0433Y0.6309
T0
M30
