G04 #@! TF.GenerationSoftware,KiCad,Pcbnew,(6.0.7-1)-1*
G04 #@! TF.CreationDate,2023-04-02T22:51:05-07:00*
G04 #@! TF.ProjectId,as3372,61733333-3732-42e6-9b69-6361645f7063,0.2*
G04 #@! TF.SameCoordinates,PX3d83120PY6590fa0*
G04 #@! TF.FileFunction,Soldermask,Top*
G04 #@! TF.FilePolarity,Negative*
%FSLAX46Y46*%
G04 Gerber Fmt 4.6, Leading zero omitted, Abs format (unit mm)*
G04 Created by KiCad (PCBNEW (6.0.7-1)-1) date 2023-04-02 22:51:05*
%MOMM*%
%LPD*%
G01*
G04 APERTURE LIST*
G04 Aperture macros list*
%AMRoundRect*
0 Rectangle with rounded corners*
0 $1 Rounding radius*
0 $2 $3 $4 $5 $6 $7 $8 $9 X,Y pos of 4 corners*
0 Add a 4 corners polygon primitive as box body*
4,1,4,$2,$3,$4,$5,$6,$7,$8,$9,$2,$3,0*
0 Add four circle primitives for the rounded corners*
1,1,$1+$1,$2,$3*
1,1,$1+$1,$4,$5*
1,1,$1+$1,$6,$7*
1,1,$1+$1,$8,$9*
0 Add four rect primitives between the rounded corners*
20,1,$1+$1,$2,$3,$4,$5,0*
20,1,$1+$1,$4,$5,$6,$7,0*
20,1,$1+$1,$6,$7,$8,$9,0*
20,1,$1+$1,$8,$9,$2,$3,0*%
G04 Aperture macros list end*
G04 #@! TA.AperFunction,Profile*
%ADD10C,0.150000*%
G04 #@! TD*
G04 #@! TA.AperFunction,Profile*
%ADD11C,0.050000*%
G04 #@! TD*
%ADD12RoundRect,0.250000X0.250000X0.475000X-0.250000X0.475000X-0.250000X-0.475000X0.250000X-0.475000X0*%
%ADD13RoundRect,0.225000X0.225000X0.250000X-0.225000X0.250000X-0.225000X-0.250000X0.225000X-0.250000X0*%
%ADD14RoundRect,0.250000X-0.625000X0.312500X-0.625000X-0.312500X0.625000X-0.312500X0.625000X0.312500X0*%
%ADD15RoundRect,0.225000X0.250000X-0.225000X0.250000X0.225000X-0.250000X0.225000X-0.250000X-0.225000X0*%
%ADD16C,3.200000*%
%ADD17RoundRect,0.100000X0.637500X0.100000X-0.637500X0.100000X-0.637500X-0.100000X0.637500X-0.100000X0*%
%ADD18RoundRect,0.200000X-0.200000X-0.275000X0.200000X-0.275000X0.200000X0.275000X-0.200000X0.275000X0*%
%ADD19RoundRect,0.218750X-0.218750X-0.256250X0.218750X-0.256250X0.218750X0.256250X-0.218750X0.256250X0*%
%ADD20R,1.700000X1.700000*%
%ADD21O,1.700000X1.700000*%
%ADD22RoundRect,0.150000X0.150000X-0.587500X0.150000X0.587500X-0.150000X0.587500X-0.150000X-0.587500X0*%
%ADD23RoundRect,0.150000X0.825000X0.150000X-0.825000X0.150000X-0.825000X-0.150000X0.825000X-0.150000X0*%
%ADD24RoundRect,0.200000X0.275000X-0.200000X0.275000X0.200000X-0.275000X0.200000X-0.275000X-0.200000X0*%
%ADD25RoundRect,0.250000X0.475000X-0.250000X0.475000X0.250000X-0.475000X0.250000X-0.475000X-0.250000X0*%
%ADD26RoundRect,0.250000X-0.250000X-0.475000X0.250000X-0.475000X0.250000X0.475000X-0.250000X0.475000X0*%
%ADD27RoundRect,0.200000X0.200000X0.275000X-0.200000X0.275000X-0.200000X-0.275000X0.200000X-0.275000X0*%
%ADD28RoundRect,0.135000X-0.135000X-0.185000X0.135000X-0.185000X0.135000X0.185000X-0.135000X0.185000X0*%
%ADD29R,1.200000X0.900000*%
%ADD30R,2.000000X2.000000*%
%ADD31RoundRect,0.150000X0.150000X-0.825000X0.150000X0.825000X-0.150000X0.825000X-0.150000X-0.825000X0*%
%ADD32RoundRect,0.200000X-0.275000X0.200000X-0.275000X-0.200000X0.275000X-0.200000X0.275000X0.200000X0*%
%ADD33RoundRect,0.225000X-0.225000X-0.250000X0.225000X-0.250000X0.225000X0.250000X-0.225000X0.250000X0*%
%ADD34RoundRect,0.250000X-0.325000X-0.650000X0.325000X-0.650000X0.325000X0.650000X-0.325000X0.650000X0*%
%ADD35RoundRect,0.135000X-0.185000X0.135000X-0.185000X-0.135000X0.185000X-0.135000X0.185000X0.135000X0*%
%ADD36C,1.600000*%
%ADD37RoundRect,0.150000X0.587500X0.150000X-0.587500X0.150000X-0.587500X-0.150000X0.587500X-0.150000X0*%
%ADD38RoundRect,0.150000X-0.825000X-0.150000X0.825000X-0.150000X0.825000X0.150000X-0.825000X0.150000X0*%
%ADD39RoundRect,0.150000X-0.587500X-0.150000X0.587500X-0.150000X0.587500X0.150000X-0.587500X0.150000X0*%
%ADD40RoundRect,0.150000X-0.150000X0.875000X-0.150000X-0.875000X0.150000X-0.875000X0.150000X0.875000X0*%
%ADD41R,1.200000X1.200000*%
%ADD42C,1.200000*%
%ADD43RoundRect,0.135000X0.135000X0.185000X-0.135000X0.185000X-0.135000X-0.185000X0.135000X-0.185000X0*%
%ADD44RoundRect,0.225000X-0.250000X0.225000X-0.250000X-0.225000X0.250000X-0.225000X0.250000X0.225000X0*%
%ADD45RoundRect,0.250000X-0.475000X0.250000X-0.475000X-0.250000X0.475000X-0.250000X0.475000X0.250000X0*%
%ADD46RoundRect,0.150000X-0.150000X0.587500X-0.150000X-0.587500X0.150000X-0.587500X0.150000X0.587500X0*%
%ADD47RoundRect,0.150000X-0.150000X0.825000X-0.150000X-0.825000X0.150000X-0.825000X0.150000X0.825000X0*%
%ADD48R,1.500000X1.500000*%
%ADD49C,1.500000*%
G04 APERTURE END LIST*
D10*
X900000Y6700000D02*
G75*
G03*
X6400000Y1200000I5500000J0D01*
G01*
X75900000Y1200000D02*
G75*
G03*
X80900000Y6200000I0J5000000D01*
G01*
X75900000Y1200000D02*
X6400000Y1200000D01*
X5900000Y81200000D02*
G75*
G03*
X900000Y76200000I0J-5000000D01*
G01*
X80900000Y75700000D02*
G75*
G03*
X75400000Y81200000I-5500000J0D01*
G01*
X5900000Y81200000D02*
X75400000Y81200000D01*
X80900000Y6200000D02*
X80900000Y75700000D01*
X900000Y76200000D02*
X900000Y6700000D01*
D11*
X10676000Y2700000D02*
G75*
G03*
X10676000Y2700000I-576000J0D01*
G01*
X73276000Y79700000D02*
G75*
G03*
X73276000Y79700000I-576000J0D01*
G01*
X73276000Y2700000D02*
G75*
G03*
X73276000Y2700000I-576000J0D01*
G01*
D12*
X74300000Y33500000D03*
X72400000Y33500000D03*
D13*
X74125000Y35900000D03*
X72575000Y35900000D03*
D14*
X65300000Y48112500D03*
X65300000Y45187500D03*
D15*
X46500000Y26125000D03*
X46500000Y27675000D03*
D16*
X76500000Y5500000D03*
X5500000Y5500000D03*
D17*
X54762500Y28125000D03*
X54762500Y28775000D03*
X54762500Y29425000D03*
X54762500Y30075000D03*
X54762500Y30725000D03*
X54762500Y31375000D03*
X54762500Y32025000D03*
X54762500Y32675000D03*
X54762500Y33325000D03*
X54762500Y33975000D03*
X54762500Y34625000D03*
X54762500Y35275000D03*
X49037500Y35275000D03*
X49037500Y34625000D03*
X49037500Y33975000D03*
X49037500Y33325000D03*
X49037500Y32675000D03*
X49037500Y32025000D03*
X49037500Y31375000D03*
X49037500Y30725000D03*
X49037500Y30075000D03*
X49037500Y29425000D03*
X49037500Y28775000D03*
X49037500Y28125000D03*
D18*
X76262500Y23700000D03*
X77912500Y23700000D03*
D19*
X76300000Y26500000D03*
X77875000Y26500000D03*
D20*
X64825000Y13950000D03*
D21*
X64825000Y11410000D03*
X62285000Y13950000D03*
X62285000Y11410000D03*
X59745000Y13950000D03*
X59745000Y11410000D03*
X57205000Y13950000D03*
X57205000Y11410000D03*
X54665000Y13950000D03*
X54665000Y11410000D03*
X52125000Y13950000D03*
X52125000Y11410000D03*
X49585000Y13950000D03*
X49585000Y11410000D03*
X47045000Y13950000D03*
X47045000Y11410000D03*
X44505000Y13950000D03*
X44505000Y11410000D03*
X41965000Y13950000D03*
X41965000Y11410000D03*
X39425000Y13950000D03*
X39425000Y11410000D03*
X36885000Y13950000D03*
X36885000Y11410000D03*
X34345000Y13950000D03*
X34345000Y11410000D03*
X31805000Y13950000D03*
X31805000Y11410000D03*
X29265000Y13950000D03*
X29265000Y11410000D03*
X26725000Y13950000D03*
X26725000Y11410000D03*
X24185000Y13950000D03*
X24185000Y11410000D03*
X21645000Y13950000D03*
X21645000Y11410000D03*
X19105000Y13950000D03*
X19105000Y11410000D03*
X16565000Y13950000D03*
X16565000Y11410000D03*
D15*
X46900000Y19725000D03*
X46900000Y21275000D03*
D22*
X69750000Y45312500D03*
X71650000Y45312500D03*
X70700000Y47187500D03*
D15*
X67700000Y45075000D03*
X67700000Y46625000D03*
D23*
X54450000Y21300000D03*
X54450000Y22570000D03*
X54450000Y23840000D03*
X54450000Y25110000D03*
X49500000Y25110000D03*
X49500000Y23840000D03*
X49500000Y22570000D03*
X49500000Y21300000D03*
D24*
X62900000Y64675000D03*
X62900000Y66325000D03*
D18*
X4770000Y31000000D03*
X6420000Y31000000D03*
D25*
X22900000Y37950000D03*
X22900000Y39850000D03*
D24*
X25100000Y61255000D03*
X25100000Y62905000D03*
D20*
X77300000Y16025000D03*
D21*
X77300000Y18565000D03*
D24*
X36700000Y38275000D03*
X36700000Y39925000D03*
D26*
X39350000Y56300000D03*
X41250000Y56300000D03*
D18*
X3675000Y63900000D03*
X5325000Y63900000D03*
D27*
X58125000Y43500000D03*
X56475000Y43500000D03*
D26*
X15350000Y34100000D03*
X17250000Y34100000D03*
D28*
X56178750Y76500000D03*
X57198750Y76500000D03*
D18*
X73675000Y70900000D03*
X75325000Y70900000D03*
D24*
X57300000Y39875000D03*
X57300000Y41525000D03*
D18*
X48275000Y50900000D03*
X49925000Y50900000D03*
D29*
X3700000Y61750000D03*
X3700000Y58450000D03*
D13*
X60675000Y57550000D03*
X59125000Y57550000D03*
D24*
X77500000Y59675000D03*
X77500000Y61325000D03*
D30*
X45700000Y50900000D03*
D12*
X58250000Y74100000D03*
X56350000Y74100000D03*
D31*
X29195000Y70025000D03*
X30465000Y70025000D03*
X31735000Y70025000D03*
X33005000Y70025000D03*
X33005000Y74975000D03*
X31735000Y74975000D03*
X30465000Y74975000D03*
X29195000Y74975000D03*
D32*
X29300000Y62905000D03*
X29300000Y61255000D03*
D17*
X71362500Y37925000D03*
X71362500Y38575000D03*
X71362500Y39225000D03*
X71362500Y39875000D03*
X71362500Y40525000D03*
X71362500Y41175000D03*
X71362500Y41825000D03*
X71362500Y42475000D03*
X65637500Y42475000D03*
X65637500Y41825000D03*
X65637500Y41175000D03*
X65637500Y40525000D03*
X65637500Y39875000D03*
X65637500Y39225000D03*
X65637500Y38575000D03*
X65637500Y37925000D03*
D31*
X41255000Y70025000D03*
X42525000Y70025000D03*
X43795000Y70025000D03*
X45065000Y70025000D03*
X46335000Y70025000D03*
X47605000Y70025000D03*
X48875000Y70025000D03*
X50145000Y70025000D03*
X50145000Y74975000D03*
X48875000Y74975000D03*
X47605000Y74975000D03*
X46335000Y74975000D03*
X45065000Y74975000D03*
X43795000Y74975000D03*
X42525000Y74975000D03*
X41255000Y74975000D03*
D33*
X27325000Y77700000D03*
X28875000Y77700000D03*
X56525000Y45700000D03*
X58075000Y45700000D03*
D34*
X64225000Y78400000D03*
X67175000Y78400000D03*
D32*
X2900000Y25925000D03*
X2900000Y24275000D03*
D15*
X66100000Y69350000D03*
X66100000Y70900000D03*
D30*
X48900000Y63100000D03*
D35*
X10500000Y60210000D03*
X10500000Y59190000D03*
D13*
X75500000Y60800000D03*
X73950000Y60800000D03*
D26*
X37950000Y63300000D03*
X39850000Y63300000D03*
D30*
X36100000Y71700000D03*
D27*
X61325000Y38100000D03*
X59675000Y38100000D03*
D36*
X44600000Y38300000D03*
X39600000Y38300000D03*
D33*
X5325000Y25900000D03*
X6875000Y25900000D03*
X5925000Y47300000D03*
X7475000Y47300000D03*
D30*
X28500000Y45300000D03*
D37*
X65900000Y73625000D03*
X65900000Y75525000D03*
X64025000Y74575000D03*
D18*
X6770000Y41700000D03*
X8420000Y41700000D03*
D38*
X19225000Y28745000D03*
X19225000Y27475000D03*
X19225000Y26205000D03*
X19225000Y24935000D03*
X19225000Y23665000D03*
X19225000Y22395000D03*
X19225000Y21125000D03*
X19225000Y19855000D03*
X24175000Y19855000D03*
X24175000Y21125000D03*
X24175000Y22395000D03*
X24175000Y23665000D03*
X24175000Y24935000D03*
X24175000Y26205000D03*
X24175000Y27475000D03*
X24175000Y28745000D03*
D39*
X69162500Y71450000D03*
X69162500Y69550000D03*
X71037500Y70500000D03*
D40*
X36785000Y58150000D03*
X35515000Y58150000D03*
X34245000Y58150000D03*
X32975000Y58150000D03*
X31705000Y58150000D03*
X30435000Y58150000D03*
X29165000Y58150000D03*
X27895000Y58150000D03*
X26625000Y58150000D03*
X25355000Y58150000D03*
X24085000Y58150000D03*
X22815000Y58150000D03*
X22815000Y48850000D03*
X24085000Y48850000D03*
X25355000Y48850000D03*
X26625000Y48850000D03*
X27895000Y48850000D03*
X29165000Y48850000D03*
X30435000Y48850000D03*
X31705000Y48850000D03*
X32975000Y48850000D03*
X34245000Y48850000D03*
X35515000Y48850000D03*
X36785000Y48850000D03*
D15*
X58300000Y64725000D03*
X58300000Y66275000D03*
D32*
X4300000Y14925000D03*
X4300000Y13275000D03*
D15*
X74100000Y62925000D03*
X74100000Y64475000D03*
X4195000Y41835000D03*
X4195000Y43385000D03*
D24*
X31500000Y42875000D03*
X31500000Y44525000D03*
D32*
X27300000Y62905000D03*
X27300000Y61255000D03*
D33*
X35325000Y67900000D03*
X36875000Y67900000D03*
D18*
X8570000Y28210000D03*
X10220000Y28210000D03*
D30*
X32500000Y64300000D03*
D27*
X42825000Y52700000D03*
X41175000Y52700000D03*
D24*
X55700000Y66875000D03*
X55700000Y68525000D03*
D32*
X73700000Y56525000D03*
X73700000Y54875000D03*
D41*
X15700000Y55622600D03*
D42*
X15700000Y54122600D03*
D33*
X59725000Y35900000D03*
X61275000Y35900000D03*
D43*
X14010000Y48100000D03*
X12990000Y48100000D03*
D24*
X25500000Y44475000D03*
X25500000Y46125000D03*
D32*
X60300000Y66325000D03*
X60300000Y64675000D03*
D30*
X43900000Y63900000D03*
X18900000Y45700000D03*
D24*
X22700000Y44475000D03*
X22700000Y46125000D03*
D30*
X53500000Y76500000D03*
D23*
X70975000Y56790000D03*
X70975000Y58060000D03*
X70975000Y59330000D03*
X70975000Y60600000D03*
X70975000Y61870000D03*
X70975000Y63140000D03*
X70975000Y64410000D03*
X66025000Y64410000D03*
X66025000Y63140000D03*
X66025000Y61870000D03*
X66025000Y60600000D03*
X66025000Y59330000D03*
X66025000Y58060000D03*
X66025000Y56790000D03*
D32*
X62900000Y57625000D03*
X62900000Y55975000D03*
D15*
X34100000Y42925000D03*
X34100000Y44475000D03*
D30*
X6100000Y22900000D03*
D33*
X6820000Y43810000D03*
X8370000Y43810000D03*
D44*
X7500000Y58525000D03*
X7500000Y60075000D03*
D26*
X39350000Y60700000D03*
X41250000Y60700000D03*
D32*
X60700000Y75675000D03*
X60700000Y74025000D03*
D37*
X71037500Y73750000D03*
X71037500Y75650000D03*
X69162500Y74700000D03*
D24*
X22500000Y61255000D03*
X22500000Y62905000D03*
D32*
X11195000Y34925000D03*
X11195000Y33275000D03*
D18*
X30875000Y77700000D03*
X32525000Y77700000D03*
D30*
X2900000Y45900000D03*
D18*
X59475000Y62100000D03*
X61125000Y62100000D03*
D30*
X18900000Y61900000D03*
D12*
X75650000Y67700000D03*
X73750000Y67700000D03*
D24*
X48900000Y65675000D03*
X48900000Y67325000D03*
D18*
X59075000Y55500000D03*
X60725000Y55500000D03*
D32*
X34100000Y39925000D03*
X34100000Y38275000D03*
D30*
X40300000Y78900000D03*
D16*
X76500000Y76300000D03*
D27*
X61925000Y78900000D03*
X60275000Y78900000D03*
X62525000Y53500000D03*
X60875000Y53500000D03*
D24*
X19500000Y51275000D03*
X19500000Y52925000D03*
D16*
X5500000Y76300000D03*
D33*
X59725000Y41500000D03*
X61275000Y41500000D03*
D15*
X30765000Y24650000D03*
X30765000Y26200000D03*
D44*
X40975000Y26500000D03*
X40975000Y24950000D03*
D13*
X10175000Y31000000D03*
X8625000Y31000000D03*
D33*
X61325000Y60100000D03*
X62875000Y60100000D03*
D24*
X19500000Y55075000D03*
X19500000Y56725000D03*
D32*
X73300000Y17525000D03*
X73300000Y15875000D03*
D20*
X21100000Y77700000D03*
D32*
X52700000Y73725000D03*
X52700000Y72075000D03*
D45*
X35500000Y65450000D03*
X35500000Y63550000D03*
D32*
X63500000Y70925000D03*
X63500000Y69275000D03*
D46*
X5250000Y19437500D03*
X3350000Y19437500D03*
X4300000Y17562500D03*
D33*
X15225000Y26225000D03*
X16775000Y26225000D03*
D13*
X46675000Y78100000D03*
X45125000Y78100000D03*
D36*
X31000000Y38300000D03*
X26000000Y38300000D03*
D33*
X44925000Y67500000D03*
X46475000Y67500000D03*
D38*
X33425000Y28745000D03*
X33425000Y27475000D03*
X33425000Y26205000D03*
X33425000Y24935000D03*
X33425000Y23665000D03*
X33425000Y22395000D03*
X33425000Y21125000D03*
X33425000Y19855000D03*
X38375000Y19855000D03*
X38375000Y21125000D03*
X38375000Y22395000D03*
X38375000Y23665000D03*
X38375000Y24935000D03*
X38375000Y26205000D03*
X38375000Y27475000D03*
X38375000Y28745000D03*
D44*
X26700000Y26625000D03*
X26700000Y25075000D03*
D13*
X38275000Y45500000D03*
X36725000Y45500000D03*
D33*
X4820000Y28210000D03*
X6370000Y28210000D03*
D24*
X43900000Y56075000D03*
X43900000Y57725000D03*
D18*
X9125000Y63900000D03*
X7475000Y63900000D03*
X19075000Y65500000D03*
X20725000Y65500000D03*
D24*
X26100000Y69475000D03*
X26100000Y71125000D03*
D47*
X8100000Y38885000D03*
X6830000Y38885000D03*
X5560000Y38885000D03*
X4290000Y38885000D03*
X4290000Y33935000D03*
X5560000Y33935000D03*
X6830000Y33935000D03*
X8100000Y33935000D03*
D48*
X14760000Y38340000D03*
D49*
X17300000Y38340000D03*
X19840000Y38340000D03*
D27*
X69125000Y67100000D03*
X67475000Y67100000D03*
X30525000Y67300000D03*
X28875000Y67300000D03*
D47*
X11310000Y55575000D03*
X10040000Y55575000D03*
X8770000Y55575000D03*
X7500000Y55575000D03*
X6230000Y55575000D03*
X4960000Y55575000D03*
X3690000Y55575000D03*
X3690000Y50625000D03*
X4960000Y50625000D03*
X6230000Y50625000D03*
X7500000Y50625000D03*
X8770000Y50625000D03*
X10040000Y50625000D03*
X11310000Y50625000D03*
D24*
X78100000Y67475000D03*
X78100000Y69125000D03*
M02*
