G04 #@! TF.GenerationSoftware,KiCad,Pcbnew,(6.0.7-1)-1*
G04 #@! TF.CreationDate,2023-04-02T22:51:05-07:00*
G04 #@! TF.ProjectId,as3372,61733333-3732-42e6-9b69-6361645f7063,0.2*
G04 #@! TF.SameCoordinates,PX3d83120PY6590fa0*
G04 #@! TF.FileFunction,Soldermask,Bot*
G04 #@! TF.FilePolarity,Negative*
%FSLAX46Y46*%
G04 Gerber Fmt 4.6, Leading zero omitted, Abs format (unit mm)*
G04 Created by KiCad (PCBNEW (6.0.7-1)-1) date 2023-04-02 22:51:05*
%MOMM*%
%LPD*%
G01*
G04 APERTURE LIST*
G04 #@! TA.AperFunction,Profile*
%ADD10C,0.150000*%
G04 #@! TD*
G04 #@! TA.AperFunction,Profile*
%ADD11C,0.050000*%
G04 #@! TD*
%ADD12C,3.200000*%
%ADD13R,1.700000X1.700000*%
%ADD14O,1.700000X1.700000*%
%ADD15C,1.600000*%
%ADD16R,1.200000X1.200000*%
%ADD17C,1.200000*%
%ADD18R,1.500000X1.500000*%
%ADD19C,1.500000*%
G04 APERTURE END LIST*
D10*
X900000Y6700000D02*
G75*
G03*
X6400000Y1200000I5500000J0D01*
G01*
X75900000Y1200000D02*
G75*
G03*
X80900000Y6200000I0J5000000D01*
G01*
X75900000Y1200000D02*
X6400000Y1200000D01*
X5900000Y81200000D02*
G75*
G03*
X900000Y76200000I0J-5000000D01*
G01*
X80900000Y75700000D02*
G75*
G03*
X75400000Y81200000I-5500000J0D01*
G01*
X5900000Y81200000D02*
X75400000Y81200000D01*
X80900000Y6200000D02*
X80900000Y75700000D01*
X900000Y76200000D02*
X900000Y6700000D01*
D11*
X10676000Y2700000D02*
G75*
G03*
X10676000Y2700000I-576000J0D01*
G01*
X73276000Y79700000D02*
G75*
G03*
X73276000Y79700000I-576000J0D01*
G01*
X73276000Y2700000D02*
G75*
G03*
X73276000Y2700000I-576000J0D01*
G01*
D12*
X76500000Y5500000D03*
X5500000Y5500000D03*
D13*
X64825000Y13950000D03*
D14*
X64825000Y11410000D03*
X62285000Y13950000D03*
X62285000Y11410000D03*
X59745000Y13950000D03*
X59745000Y11410000D03*
X57205000Y13950000D03*
X57205000Y11410000D03*
X54665000Y13950000D03*
X54665000Y11410000D03*
X52125000Y13950000D03*
X52125000Y11410000D03*
X49585000Y13950000D03*
X49585000Y11410000D03*
X47045000Y13950000D03*
X47045000Y11410000D03*
X44505000Y13950000D03*
X44505000Y11410000D03*
X41965000Y13950000D03*
X41965000Y11410000D03*
X39425000Y13950000D03*
X39425000Y11410000D03*
X36885000Y13950000D03*
X36885000Y11410000D03*
X34345000Y13950000D03*
X34345000Y11410000D03*
X31805000Y13950000D03*
X31805000Y11410000D03*
X29265000Y13950000D03*
X29265000Y11410000D03*
X26725000Y13950000D03*
X26725000Y11410000D03*
X24185000Y13950000D03*
X24185000Y11410000D03*
X21645000Y13950000D03*
X21645000Y11410000D03*
X19105000Y13950000D03*
X19105000Y11410000D03*
X16565000Y13950000D03*
X16565000Y11410000D03*
D13*
X77300000Y16025000D03*
D14*
X77300000Y18565000D03*
D15*
X44600000Y38300000D03*
X39600000Y38300000D03*
D16*
X15700000Y55622600D03*
D17*
X15700000Y54122600D03*
D12*
X76500000Y76300000D03*
X5500000Y76300000D03*
D13*
X21100000Y77700000D03*
D15*
X31000000Y38300000D03*
X26000000Y38300000D03*
D18*
X14760000Y38340000D03*
D19*
X17300000Y38340000D03*
X19840000Y38340000D03*
M02*
