M48
; DRILL file {KiCad 7.0.11} date Monday, February 03, 2025 at 10:53:57 PM
; FORMAT={-:-/ absolute / inch / decimal}
; #@! TF.CreationDate,2025-02-03T22:53:57-08:00
; #@! TF.GenerationSoftware,Kicad,Pcbnew,7.0.11
; #@! TF.FileFunction,Plated,1,4,PTH
FMAT,2
INCH
; #@! TA.AperFunction,Plated,PTH,ViaDrill
T1C0.0157
; #@! TA.AperFunction,Plated,PTH,ComponentDrill
T2C0.0315
; #@! TA.AperFunction,Plated,PTH,ComponentDrill
T3C0.0394
%
G90
G05
T1
X0.0856Y1.8986
X0.1024Y2.4331
X0.1417Y1.5177
X0.1516Y2.3346
X0.1693Y1.685
X0.2008Y1.9606
X0.2008Y1.8524
X0.2795Y2.2264
X0.2795Y2.1083
X0.2795Y1.1339
X0.3287Y2.6988
X0.3346Y0.9843
X0.3425Y0.6299
X0.3681Y1.4094
X0.3976Y2.4921
X0.3976Y1.4685
X0.3976Y0.8189
X0.4528Y1.8583
X0.4528Y1.7165
X0.4685Y0.8189
X0.5059Y2.8957
X0.5256Y0.2283
X0.5551Y0.3071
X0.563Y0.6693
X0.5748Y1.0453
X0.5787Y0.9291
X0.5846Y1.1043
X0.6339Y0.878
X0.6496Y1.5276
X0.6634Y2.7677
X0.6634Y2.2264
X0.6634Y1.9016
X0.6831Y0.9435
X0.7126Y2.6594
X0.752Y3.0728
X0.752Y0.7303
X0.7756Y1.4724
X0.7913Y2.3445
X0.7913Y1.6772
X0.811Y0.8878
X0.8163Y1.8504
X0.8209Y2.5709
X0.8307Y1.2756
X0.8602Y2.5217
X0.8602Y1.0453
X0.8602Y0.9272
X0.8602Y0.6516
X0.8701Y1.4173
X0.8799Y2.3248
X0.8898Y3.0236
X0.8996Y2.5709
X0.8996Y0.7008
X0.9291Y0.2677
X0.9488Y2.8169
X0.9646Y1.4252
X0.9685Y1.9803
X0.998Y1.8819
X0.998Y0.7894
X1.0374Y1.0551
X1.0374Y0.9272
X1.0433Y2.2362
X1.0472Y2.5413
X1.0887Y0.88
X1.0965Y2.7087
X1.1457Y3.1319
X1.1457Y2.9744
X1.1555Y0.937
X1.1654Y2.5413
X1.185Y0.6024
X1.1949Y1.1535
X1.1949Y0.9862
X1.1978Y2.2392
X1.1998Y2.7628
X1.2047Y3.1319
X1.2146Y1.4882
X1.2244Y2.9744
X1.2244Y2.6496
X1.2441Y2.5413
X1.2638Y2.0394
X1.3425Y0.7205
X1.3478Y2.2362
X1.3524Y2.0098
X1.3917Y1.0709
X1.4114Y2.5709
X1.4803Y0.6024
X1.4902Y2.9252
X1.5098Y2.5709
X1.5394Y1.7343
X1.5492Y1.872
X1.5591Y2.6102
X1.5886Y1.0453
X1.6083Y2.876
X1.6083Y2.5709
X1.6476Y0.9272
X1.6673Y1.7736
X1.6969Y2.5512
X1.7362Y1.8327
X1.7362Y0.9862
X1.7953Y3.0039
X1.8346Y2.7283
X1.8543Y1.9409
X1.8583Y0.9429
X1.8839Y2.7579
X1.8937Y1.0945
X1.9035Y2.5807
X1.9035Y0.8386
X1.9232Y0.7205
X1.9429Y2.7579
X1.9724Y1.7244
X1.9724Y1.439
X2.0315Y2.1673
X2.0315Y1.9902
X2.0315Y1.3799
X2.0413Y1.1339
X2.0413Y0.937
X2.0709Y2.3839
X2.1004Y1.3799
X2.1102Y2.8071
X2.1102Y2.7579
X2.1398Y1.7343
X2.1791Y2.5118
X2.1791Y2.4035
X2.189Y1.8228
X2.1988Y2.8071
X2.1988Y2.7579
X2.2283Y2.128
X2.2283Y0.6024
X2.2382Y1.9311
X2.2382Y1.5177
X2.248Y2.4035
X2.248Y0.937
X2.248Y0.8878
X2.2874Y1.3799
X2.2874Y0.6417
X2.2972Y0.8386
X2.3071Y1.2717
X2.3268Y1.4882
X2.3465Y1.1831
X2.376Y3.0827
X2.376Y2.748
X2.376Y2.187
X2.3858Y1.9902
X2.3858Y1.2343
X2.4252Y1.3701
X2.435Y2.748
X2.4449Y1.0157
X2.4744Y2.3642
X2.5039Y1.1535
X2.5138Y2.8071
X2.5138Y2.561
X2.5236Y1.9311
X2.5236Y1.8425
X2.5236Y1.4685
X2.5433Y1.1929
X2.6024Y1.0748
X2.6024Y0.8878
X2.6024Y0.6319
X2.6422Y2.8567
X2.6713Y2.6398
X2.6713Y2.4626
X2.6713Y2.3051
X2.6713Y2.0394
X2.6713Y1.2323
X2.7008Y1.2913
X2.7303Y2.8957
X2.7303Y1.5768
X2.7697Y1.2618
X2.7697Y1.2126
X2.7992Y0.7008
X2.8189Y2.0098
X2.8307Y1.0945
X2.8484Y2.5217
X2.8484Y2.4232
X2.8681Y2.7382
X2.8681Y2.128
X2.8681Y1.8622
X2.8976Y2.5217
X2.9272Y2.7382
X2.9272Y1.0157
X2.9331Y1.5433
X2.937Y1.0945
X2.9469Y1.2618
X2.9764Y0.878
X3.0256Y1.0748
X3.0669Y1.5512
X3.0945Y1.2028
T2
X1.3524Y1.6161
X1.3524Y1.4193
X1.628Y1.6161
X1.628Y1.4193
X1.8937Y1.6193
X1.8937Y1.5193
X1.8937Y1.4193
T3
X0.5157Y3.0827
X0.6358Y0.5154
X0.6358Y0.4154
X0.7358Y0.5154
X0.7358Y0.4154
X0.8358Y0.5154
X0.8358Y0.4154
X0.9358Y0.5154
X0.9358Y0.4154
X1.0358Y0.5154
X1.0358Y0.4154
X1.1358Y0.5154
X1.1358Y0.4154
X1.2358Y0.5154
X1.2358Y0.4154
X1.3358Y0.5154
X1.3358Y0.4154
X1.4358Y0.5154
X1.4358Y0.4154
X1.5358Y0.5154
X1.5358Y0.4154
X1.6358Y0.5154
X1.6358Y0.4154
X1.7358Y0.5154
X1.7358Y0.4154
X1.8358Y0.5154
X1.8358Y0.4154
X1.9358Y0.5154
X1.9358Y0.4154
X2.0358Y0.5154
X2.0358Y0.4154
X2.1358Y0.5154
X2.1358Y0.4154
X2.2358Y0.5154
X2.2358Y0.4154
X2.3358Y0.5154
X2.3358Y0.4154
X2.4358Y0.5154
X2.4358Y0.4154
X2.5358Y0.5154
X2.5358Y0.4154
X3.0157Y0.7427
X3.0157Y0.6427
M30
