G04 #@! TF.GenerationSoftware,KiCad,Pcbnew,7.0.11*
G04 #@! TF.CreationDate,2025-02-03T22:54:03-08:00*
G04 #@! TF.ProjectId,z3372,7a333337-322e-46b6-9963-61645f706362,0.5*
G04 #@! TF.SameCoordinates,PX3de4ba0PY65da380*
G04 #@! TF.FileFunction,Copper,L2,Inr*
G04 #@! TF.FilePolarity,Positive*
%FSLAX46Y46*%
G04 Gerber Fmt 4.6, Leading zero omitted, Abs format (unit mm)*
G04 Created by KiCad (PCBNEW 7.0.11) date 2025-02-03 22:54:03*
%MOMM*%
%LPD*%
G01*
G04 APERTURE LIST*
G04 Aperture macros list*
%AMHorizOval*
0 Thick line with rounded ends*
0 $1 width*
0 $2 $3 position (X,Y) of the first rounded end (center of the circle)*
0 $4 $5 position (X,Y) of the second rounded end (center of the circle)*
0 Add line between two ends*
20,1,$1,$2,$3,$4,$5,0*
0 Add two circle primitives to create the rounded ends*
1,1,$1,$2,$3*
1,1,$1,$4,$5*%
G04 Aperture macros list end*
G04 #@! TA.AperFunction,ComponentPad*
%ADD10R,1.700000X1.700000*%
G04 #@! TD*
G04 #@! TA.AperFunction,ComponentPad*
%ADD11O,1.700000X1.700000*%
G04 #@! TD*
G04 #@! TA.AperFunction,ComponentPad*
%ADD12HorizOval,1.700000X0.000000X0.000000X0.000000X0.000000X0*%
G04 #@! TD*
G04 #@! TA.AperFunction,ComponentPad*
%ADD13C,1.600000*%
G04 #@! TD*
G04 #@! TA.AperFunction,ComponentPad*
%ADD14R,1.500000X1.500000*%
G04 #@! TD*
G04 #@! TA.AperFunction,ComponentPad*
%ADD15C,1.500000*%
G04 #@! TD*
G04 #@! TA.AperFunction,ViaPad*
%ADD16C,0.800000*%
G04 #@! TD*
G04 #@! TA.AperFunction,Conductor*
%ADD17C,0.300000*%
G04 #@! TD*
G04 #@! TA.AperFunction,Profile*
%ADD18C,0.150000*%
G04 #@! TD*
G04 #@! TA.AperFunction,Profile*
%ADD19C,0.050000*%
G04 #@! TD*
G04 APERTURE END LIST*
D10*
X64410000Y13090000D03*
D11*
X64410000Y10550000D03*
X61870000Y13090000D03*
D12*
X61870000Y10550000D03*
D11*
X59330000Y13090000D03*
X59330000Y10550000D03*
X56790000Y13090000D03*
D12*
X56790000Y10550000D03*
D11*
X54250000Y13090000D03*
X54250000Y10550000D03*
X51710000Y13090000D03*
D12*
X51710000Y10550000D03*
D11*
X49170000Y13090000D03*
X49170000Y10550000D03*
X46630000Y13090000D03*
D12*
X46630000Y10550000D03*
D11*
X44090000Y13090000D03*
D12*
X44090000Y10550000D03*
D11*
X41550000Y13090000D03*
D12*
X41550000Y10550000D03*
D11*
X39010000Y13090000D03*
X39010000Y10550000D03*
X36470000Y13090000D03*
D12*
X36470000Y10550000D03*
D11*
X33930000Y13090000D03*
X33930000Y10550000D03*
X31390000Y13090000D03*
D12*
X31390000Y10550000D03*
D11*
X28850000Y13090000D03*
X28850000Y10550000D03*
X26310000Y13090000D03*
D12*
X26310000Y10550000D03*
D11*
X23770000Y13090000D03*
X23770000Y10550000D03*
X21230000Y13090000D03*
D12*
X21230000Y10550000D03*
D11*
X18690000Y13090000D03*
D12*
X18690000Y10550000D03*
D11*
X16150000Y13090000D03*
X16150000Y10550000D03*
D10*
X76600000Y16325000D03*
D11*
X76600000Y18865000D03*
D13*
X41350000Y41050000D03*
X41350000Y36050000D03*
D10*
X13100000Y78300000D03*
D13*
X34350000Y36050000D03*
X34350000Y41050000D03*
D14*
X48100000Y36050000D03*
D15*
X48100000Y38590000D03*
X48100000Y41130000D03*
D16*
X50100000Y43800000D03*
X47850000Y70050000D03*
X48350000Y65550000D03*
X57100000Y61050000D03*
X19100000Y78050000D03*
X52600000Y60550000D03*
X56600000Y54050000D03*
X21100000Y32400000D03*
X22350000Y59050000D03*
X71600000Y51050000D03*
X31100000Y75550000D03*
X29100000Y75550000D03*
X16500000Y38800000D03*
X3850000Y59300000D03*
X61850000Y69800000D03*
X30100000Y15300000D03*
X39100000Y44050000D03*
X74600000Y27800000D03*
X2600000Y61800000D03*
X41850000Y23550000D03*
X77900000Y39400000D03*
X47100000Y49300000D03*
X40350000Y26550000D03*
X21850000Y23550000D03*
X23600000Y6800000D03*
X57100000Y23800000D03*
X42350000Y45050000D03*
X67850000Y67050000D03*
X35850000Y65300000D03*
X30600000Y79550000D03*
X43100000Y64800000D03*
X29350000Y23800000D03*
X24500000Y36200000D03*
X21850000Y16550000D03*
X20850000Y65300000D03*
X38350000Y65300000D03*
X47200000Y23950000D03*
X69350000Y40050000D03*
X8350000Y68550000D03*
X64100000Y46800000D03*
X3600000Y38550000D03*
X55600000Y46300000D03*
X53600000Y71300000D03*
X55850000Y70050000D03*
X55850000Y71300000D03*
X67850000Y58550000D03*
X27850000Y68800000D03*
X53600000Y70050000D03*
X4300000Y42800000D03*
X71900000Y27800000D03*
X30350000Y29300000D03*
X66100000Y22550000D03*
X72850000Y54050000D03*
X63600000Y29300000D03*
X5100000Y47050000D03*
X26500000Y56800000D03*
X31600000Y64550000D03*
X8500000Y25000000D03*
X20100000Y42600000D03*
X14850000Y28050000D03*
X34100000Y18300000D03*
X14300000Y17000000D03*
X21850000Y26550000D03*
X30850000Y37800000D03*
X72350000Y61550000D03*
X8700000Y16000000D03*
X37600000Y15300000D03*
X62850000Y60050000D03*
X58100000Y35050000D03*
X74350000Y69550000D03*
X22850000Y65300000D03*
X18100000Y67550000D03*
X9350000Y35800000D03*
X66100000Y16050000D03*
X73600000Y64050000D03*
X25350000Y47800000D03*
X40850000Y65300000D03*
X14700000Y23600000D03*
X67850000Y62550000D03*
X54350000Y44050000D03*
X56600000Y15300000D03*
X66100000Y27300000D03*
X64100000Y37300000D03*
X19100000Y18550000D03*
X5100000Y49800000D03*
X72350000Y64050000D03*
X48850000Y18300000D03*
X76850000Y27300000D03*
X50100000Y36550000D03*
X64600000Y30300000D03*
X61600000Y34800000D03*
X64100000Y49050000D03*
X14600000Y26550000D03*
X56850000Y38550000D03*
X2175000Y48225000D03*
X56850000Y49050000D03*
X30350000Y25050000D03*
X60350000Y69800000D03*
X7100000Y56550000D03*
X16850000Y48300000D03*
X16850000Y56550000D03*
X16850000Y70300000D03*
X27651777Y22351777D03*
X55350000Y61050000D03*
X22100000Y36000000D03*
X26350000Y26800000D03*
X12850000Y73550000D03*
X10100000Y63300000D03*
X10100000Y37300000D03*
X49350000Y70050000D03*
X72850000Y69550000D03*
X29100000Y79550000D03*
X44100000Y25050000D03*
X44100000Y46550000D03*
X74500000Y39200000D03*
X71100000Y17800000D03*
X78600000Y30550000D03*
X14100000Y7800000D03*
X75600000Y22300000D03*
X11900000Y20800000D03*
X48100000Y27800000D03*
X51850000Y23800000D03*
X17350000Y23965000D03*
X20100000Y59550000D03*
X20735000Y47000000D03*
X13350000Y5800000D03*
X10100000Y20800000D03*
X58100000Y16300000D03*
X51850000Y28800000D03*
X57100000Y22550000D03*
X58350000Y21300000D03*
X74350000Y25800000D03*
X62100000Y25800000D03*
X7100000Y28800000D03*
X7100000Y53550000D03*
X20600000Y22550000D03*
X26350000Y23550000D03*
X22850000Y17800000D03*
X25350000Y20050000D03*
X29600000Y64550000D03*
X24600000Y50300000D03*
X16100000Y22300000D03*
X51600000Y50550000D03*
X51600000Y35050000D03*
X60600000Y50550000D03*
X60600000Y31350000D03*
X58600000Y32300000D03*
X34235000Y56800000D03*
X59600000Y30050000D03*
X30425000Y56875000D03*
X45600000Y76300000D03*
X67111397Y72561397D03*
X39350000Y47550000D03*
X48350000Y21300000D03*
X11500000Y47200000D03*
X11500000Y43600000D03*
X63850000Y65050000D03*
X63850000Y71300000D03*
X22600000Y76800000D03*
X30475000Y70175000D03*
X72850000Y47300000D03*
X74850000Y32050000D03*
X60350000Y78300000D03*
X26600000Y64550000D03*
X69350000Y73550000D03*
X70350000Y32050000D03*
X39600000Y66300000D03*
X32100000Y51800000D03*
X24100000Y71550000D03*
X21850000Y64050000D03*
X35350000Y27200000D03*
X19700000Y37400000D03*
X53350000Y35050000D03*
X51600000Y55050000D03*
X46600000Y69300000D03*
X40850000Y73050000D03*
X70350000Y30800000D03*
X31100000Y67300000D03*
X34350000Y51050000D03*
X55350000Y63800000D03*
X68600000Y32800000D03*
X67850000Y51800000D03*
X37850000Y74300000D03*
X67850000Y31300000D03*
X59100000Y37800000D03*
X60350000Y55550000D03*
D17*
X35270000Y11750000D02*
X35270000Y14625000D01*
X20030000Y11750000D02*
X20030000Y12095000D01*
X36470000Y10550000D02*
X37685000Y11765000D01*
X45485000Y14550000D02*
X45430000Y14495000D01*
X20030000Y12095000D02*
X20030000Y14785000D01*
X45290000Y11750000D02*
X45430000Y11750000D01*
X44090000Y10550000D02*
X45290000Y11750000D01*
X32590000Y11750000D02*
X32590000Y14345000D01*
X40285000Y11815000D02*
X40285000Y14440000D01*
X56790000Y10550000D02*
X58085000Y11845000D01*
X44090000Y10550000D02*
X42885000Y11755000D01*
X18690000Y10550000D02*
X20030000Y11890000D01*
X26310000Y10550000D02*
X27510000Y11750000D01*
X66575000Y11750000D02*
X68195000Y11750000D01*
X26310000Y10550000D02*
X25085000Y11775000D01*
X42885000Y11755000D02*
X42885000Y11840000D01*
X41550000Y10550000D02*
X42840000Y11840000D01*
X30190000Y14345000D02*
X30180000Y14345000D01*
X52948923Y11788923D02*
X52948923Y14303923D01*
X61870000Y10550000D02*
X60631077Y11788923D01*
X42885000Y11840000D02*
X42885000Y14640000D01*
X21230000Y10550000D02*
X20030000Y11750000D01*
X41550000Y10550000D02*
X40285000Y11815000D01*
X42840000Y11840000D02*
X42885000Y11840000D01*
X31390000Y10550000D02*
X32590000Y11750000D01*
X58085000Y11845000D02*
X58085000Y14640000D01*
X63070000Y11750000D02*
X63070000Y15225000D01*
X46630000Y10550000D02*
X45430000Y11750000D01*
X31390000Y10550000D02*
X30190000Y11750000D01*
X37685000Y11765000D02*
X37685000Y14640000D01*
X51710000Y10550000D02*
X52948923Y11788923D01*
X22485000Y11805000D02*
X22485000Y14640000D01*
X61870000Y10550000D02*
X63070000Y11750000D01*
X46630000Y10550000D02*
X47885000Y11805000D01*
X20030000Y11890000D02*
X20030000Y12095000D01*
X51710000Y10550000D02*
X50485000Y11775000D01*
X27510000Y11750000D02*
X27510000Y14415000D01*
X55590000Y11750000D02*
X55590000Y14545000D01*
X30190000Y11750000D02*
X30190000Y14345000D01*
X45430000Y11750000D02*
X45430000Y14495000D01*
X47885000Y11805000D02*
X47885000Y14840000D01*
X36470000Y10550000D02*
X35270000Y11750000D01*
X60631077Y11788923D02*
X60631077Y14586077D01*
X50485000Y11775000D02*
X50485000Y14440000D01*
X25085000Y11775000D02*
X25085000Y14840000D01*
X17400000Y11840000D02*
X17400000Y14355000D01*
X17400000Y11840000D02*
X14685000Y11840000D01*
X18690000Y10550000D02*
X17400000Y11840000D01*
X21230000Y10550000D02*
X22485000Y11805000D01*
X63070000Y11750000D02*
X66575000Y11750000D01*
X56790000Y10550000D02*
X55590000Y11750000D01*
G04 #@! TA.AperFunction,Conductor*
G36*
X17488959Y12661900D02*
G01*
X17534194Y12609698D01*
X17602898Y12462361D01*
X17728402Y12283123D01*
X17883123Y12128402D01*
X17883126Y12128400D01*
X18062359Y12002899D01*
X18062360Y12002899D01*
X18062361Y12002898D01*
X18082022Y11993730D01*
X18135307Y11946815D01*
X18154769Y11878538D01*
X18134228Y11810577D01*
X18088743Y11768722D01*
X17944705Y11690773D01*
X17944693Y11690765D01*
X17924311Y11674901D01*
X17924310Y11674900D01*
X18562412Y11036798D01*
X18547685Y11034680D01*
X18416900Y10974952D01*
X18308239Y10880798D01*
X18230507Y10759844D01*
X18205639Y10675151D01*
X17566921Y11313869D01*
X17566920Y11313868D01*
X17491586Y11198561D01*
X17491579Y11198547D01*
X17475382Y11161621D01*
X17429701Y11107272D01*
X17361888Y11086249D01*
X17293474Y11105226D01*
X17246181Y11158177D01*
X17245800Y11158985D01*
X17237100Y11177642D01*
X17111604Y11356869D01*
X17111601Y11356873D01*
X17111598Y11356877D01*
X16956877Y11511598D01*
X16777639Y11637102D01*
X16630302Y11705806D01*
X16577019Y11752722D01*
X16557558Y11820999D01*
X16578100Y11888959D01*
X16630302Y11934195D01*
X16777639Y12002898D01*
X16956877Y12128402D01*
X17111598Y12283123D01*
X17237102Y12462361D01*
X17305805Y12609698D01*
X17352722Y12662981D01*
X17420999Y12682442D01*
X17488959Y12661900D01*
G37*
G04 #@! TD.AperFunction*
G04 #@! TA.AperFunction,Conductor*
G36*
X20028959Y12661900D02*
G01*
X20074194Y12609698D01*
X20142898Y12462361D01*
X20268402Y12283123D01*
X20423123Y12128402D01*
X20423126Y12128400D01*
X20602359Y12002899D01*
X20602360Y12002899D01*
X20602361Y12002898D01*
X20622022Y11993730D01*
X20675307Y11946815D01*
X20694769Y11878538D01*
X20674228Y11810577D01*
X20628743Y11768722D01*
X20484705Y11690773D01*
X20484693Y11690765D01*
X20464311Y11674901D01*
X20464310Y11674900D01*
X21102412Y11036798D01*
X21087685Y11034680D01*
X20956900Y10974952D01*
X20848239Y10880798D01*
X20770507Y10759844D01*
X20745639Y10675151D01*
X20106921Y11313869D01*
X20106920Y11313868D01*
X20065482Y11250442D01*
X20011479Y11204353D01*
X19941131Y11194778D01*
X19876773Y11224755D01*
X19854516Y11250442D01*
X19813078Y11313868D01*
X19174360Y10675152D01*
X19149493Y10759844D01*
X19071761Y10880798D01*
X18963100Y10974952D01*
X18832315Y11034680D01*
X18817586Y11036798D01*
X19455688Y11674900D01*
X19455687Y11674901D01*
X19435308Y11690763D01*
X19435303Y11690766D01*
X19291256Y11768721D01*
X19240866Y11818735D01*
X19225514Y11888052D01*
X19250075Y11954665D01*
X19297976Y11993730D01*
X19317639Y12002898D01*
X19496877Y12128402D01*
X19651598Y12283123D01*
X19777102Y12462361D01*
X19845805Y12609698D01*
X19892722Y12662981D01*
X19960999Y12682442D01*
X20028959Y12661900D01*
G37*
G04 #@! TD.AperFunction*
G04 #@! TA.AperFunction,Conductor*
G36*
X25108959Y12661900D02*
G01*
X25154194Y12609698D01*
X25222898Y12462361D01*
X25348402Y12283123D01*
X25503123Y12128402D01*
X25503126Y12128400D01*
X25682359Y12002899D01*
X25682360Y12002899D01*
X25682361Y12002898D01*
X25702022Y11993730D01*
X25755307Y11946815D01*
X25774769Y11878538D01*
X25754228Y11810577D01*
X25708743Y11768722D01*
X25564705Y11690773D01*
X25564693Y11690765D01*
X25544311Y11674901D01*
X25544310Y11674900D01*
X26182412Y11036798D01*
X26167685Y11034680D01*
X26036900Y10974952D01*
X25928239Y10880798D01*
X25850507Y10759844D01*
X25825639Y10675151D01*
X25186921Y11313869D01*
X25186920Y11313868D01*
X25111586Y11198561D01*
X25111579Y11198547D01*
X25095382Y11161621D01*
X25049701Y11107272D01*
X24981888Y11086249D01*
X24913474Y11105226D01*
X24866181Y11158177D01*
X24865800Y11158985D01*
X24857100Y11177642D01*
X24731604Y11356869D01*
X24731601Y11356873D01*
X24731598Y11356877D01*
X24576877Y11511598D01*
X24397639Y11637102D01*
X24250302Y11705806D01*
X24197019Y11752722D01*
X24177558Y11820999D01*
X24198100Y11888959D01*
X24250302Y11934195D01*
X24397639Y12002898D01*
X24576877Y12128402D01*
X24731598Y12283123D01*
X24857102Y12462361D01*
X24925805Y12609698D01*
X24972722Y12662981D01*
X25040999Y12682442D01*
X25108959Y12661900D01*
G37*
G04 #@! TD.AperFunction*
G04 #@! TA.AperFunction,Conductor*
G36*
X30188959Y12661900D02*
G01*
X30234194Y12609698D01*
X30302898Y12462361D01*
X30428402Y12283123D01*
X30583123Y12128402D01*
X30583126Y12128400D01*
X30762359Y12002899D01*
X30762360Y12002899D01*
X30762361Y12002898D01*
X30782022Y11993730D01*
X30835307Y11946815D01*
X30854769Y11878538D01*
X30834228Y11810577D01*
X30788743Y11768722D01*
X30644705Y11690773D01*
X30644693Y11690765D01*
X30624311Y11674901D01*
X30624310Y11674900D01*
X31262412Y11036798D01*
X31247685Y11034680D01*
X31116900Y10974952D01*
X31008239Y10880798D01*
X30930507Y10759844D01*
X30905639Y10675151D01*
X30266921Y11313869D01*
X30266920Y11313868D01*
X30191586Y11198561D01*
X30191579Y11198547D01*
X30175382Y11161621D01*
X30129701Y11107272D01*
X30061888Y11086249D01*
X29993474Y11105226D01*
X29946181Y11158177D01*
X29945800Y11158985D01*
X29937100Y11177642D01*
X29811604Y11356869D01*
X29811601Y11356873D01*
X29811598Y11356877D01*
X29656877Y11511598D01*
X29477639Y11637102D01*
X29330302Y11705806D01*
X29277019Y11752722D01*
X29257558Y11820999D01*
X29278100Y11888959D01*
X29330302Y11934195D01*
X29477639Y12002898D01*
X29656877Y12128402D01*
X29811598Y12283123D01*
X29937102Y12462361D01*
X30005805Y12609698D01*
X30052722Y12662981D01*
X30120999Y12682442D01*
X30188959Y12661900D01*
G37*
G04 #@! TD.AperFunction*
G04 #@! TA.AperFunction,Conductor*
G36*
X35268959Y12661900D02*
G01*
X35314194Y12609698D01*
X35382898Y12462361D01*
X35508402Y12283123D01*
X35663123Y12128402D01*
X35663126Y12128400D01*
X35842359Y12002899D01*
X35842360Y12002899D01*
X35842361Y12002898D01*
X35862022Y11993730D01*
X35915307Y11946815D01*
X35934769Y11878538D01*
X35914228Y11810577D01*
X35868743Y11768722D01*
X35724705Y11690773D01*
X35724693Y11690765D01*
X35704311Y11674901D01*
X35704310Y11674900D01*
X36342412Y11036798D01*
X36327685Y11034680D01*
X36196900Y10974952D01*
X36088239Y10880798D01*
X36010507Y10759844D01*
X35985639Y10675151D01*
X35346921Y11313869D01*
X35346920Y11313868D01*
X35271586Y11198561D01*
X35271579Y11198547D01*
X35255382Y11161621D01*
X35209701Y11107272D01*
X35141888Y11086249D01*
X35073474Y11105226D01*
X35026181Y11158177D01*
X35025800Y11158985D01*
X35017100Y11177642D01*
X34891604Y11356869D01*
X34891601Y11356873D01*
X34891598Y11356877D01*
X34736877Y11511598D01*
X34557639Y11637102D01*
X34410302Y11705806D01*
X34357019Y11752722D01*
X34337558Y11820999D01*
X34358100Y11888959D01*
X34410302Y11934195D01*
X34557639Y12002898D01*
X34736877Y12128402D01*
X34891598Y12283123D01*
X35017102Y12462361D01*
X35085805Y12609698D01*
X35132722Y12662981D01*
X35200999Y12682442D01*
X35268959Y12661900D01*
G37*
G04 #@! TD.AperFunction*
G04 #@! TA.AperFunction,Conductor*
G36*
X40348959Y12661900D02*
G01*
X40394194Y12609698D01*
X40462898Y12462361D01*
X40588402Y12283123D01*
X40743123Y12128402D01*
X40743126Y12128400D01*
X40922359Y12002899D01*
X40922360Y12002899D01*
X40922361Y12002898D01*
X40942022Y11993730D01*
X40995307Y11946815D01*
X41014769Y11878538D01*
X40994228Y11810577D01*
X40948743Y11768722D01*
X40804705Y11690773D01*
X40804693Y11690765D01*
X40784311Y11674901D01*
X40784310Y11674900D01*
X41422412Y11036798D01*
X41407685Y11034680D01*
X41276900Y10974952D01*
X41168239Y10880798D01*
X41090507Y10759844D01*
X41065639Y10675151D01*
X40426921Y11313869D01*
X40426920Y11313868D01*
X40351586Y11198561D01*
X40351579Y11198547D01*
X40335382Y11161621D01*
X40289701Y11107272D01*
X40221888Y11086249D01*
X40153474Y11105226D01*
X40106181Y11158177D01*
X40105800Y11158985D01*
X40097100Y11177642D01*
X39971604Y11356869D01*
X39971601Y11356873D01*
X39971598Y11356877D01*
X39816877Y11511598D01*
X39637639Y11637102D01*
X39490302Y11705806D01*
X39437019Y11752722D01*
X39417558Y11820999D01*
X39438100Y11888959D01*
X39490302Y11934195D01*
X39637639Y12002898D01*
X39816877Y12128402D01*
X39971598Y12283123D01*
X40097102Y12462361D01*
X40165805Y12609698D01*
X40212722Y12662981D01*
X40280999Y12682442D01*
X40348959Y12661900D01*
G37*
G04 #@! TD.AperFunction*
G04 #@! TA.AperFunction,Conductor*
G36*
X42888959Y12661900D02*
G01*
X42934194Y12609698D01*
X43002898Y12462361D01*
X43128402Y12283123D01*
X43283123Y12128402D01*
X43283126Y12128400D01*
X43462359Y12002899D01*
X43462360Y12002899D01*
X43462361Y12002898D01*
X43482022Y11993730D01*
X43535307Y11946815D01*
X43554769Y11878538D01*
X43534228Y11810577D01*
X43488743Y11768722D01*
X43344705Y11690773D01*
X43344693Y11690765D01*
X43324311Y11674901D01*
X43324310Y11674900D01*
X43962412Y11036798D01*
X43947685Y11034680D01*
X43816900Y10974952D01*
X43708239Y10880798D01*
X43630507Y10759844D01*
X43605639Y10675151D01*
X42966921Y11313869D01*
X42966920Y11313868D01*
X42925482Y11250442D01*
X42871479Y11204353D01*
X42801131Y11194778D01*
X42736773Y11224755D01*
X42714516Y11250442D01*
X42673078Y11313868D01*
X42034360Y10675152D01*
X42009493Y10759844D01*
X41931761Y10880798D01*
X41823100Y10974952D01*
X41692315Y11034680D01*
X41677586Y11036798D01*
X42315688Y11674900D01*
X42315687Y11674901D01*
X42295308Y11690763D01*
X42295303Y11690766D01*
X42151256Y11768721D01*
X42100866Y11818735D01*
X42085514Y11888052D01*
X42110075Y11954665D01*
X42157976Y11993730D01*
X42177639Y12002898D01*
X42356877Y12128402D01*
X42511598Y12283123D01*
X42637102Y12462361D01*
X42705805Y12609698D01*
X42752722Y12662981D01*
X42820999Y12682442D01*
X42888959Y12661900D01*
G37*
G04 #@! TD.AperFunction*
G04 #@! TA.AperFunction,Conductor*
G36*
X45428959Y12661900D02*
G01*
X45474194Y12609698D01*
X45542898Y12462361D01*
X45668402Y12283123D01*
X45823123Y12128402D01*
X45823126Y12128400D01*
X46002359Y12002899D01*
X46002360Y12002899D01*
X46002361Y12002898D01*
X46022022Y11993730D01*
X46075307Y11946815D01*
X46094769Y11878538D01*
X46074228Y11810577D01*
X46028743Y11768722D01*
X45884705Y11690773D01*
X45884693Y11690765D01*
X45864311Y11674901D01*
X45864310Y11674900D01*
X46502412Y11036798D01*
X46487685Y11034680D01*
X46356900Y10974952D01*
X46248239Y10880798D01*
X46170507Y10759844D01*
X46145639Y10675151D01*
X45506921Y11313869D01*
X45506920Y11313868D01*
X45465482Y11250442D01*
X45411479Y11204353D01*
X45341131Y11194778D01*
X45276773Y11224755D01*
X45254516Y11250442D01*
X45213078Y11313868D01*
X44574360Y10675152D01*
X44549493Y10759844D01*
X44471761Y10880798D01*
X44363100Y10974952D01*
X44232315Y11034680D01*
X44217586Y11036798D01*
X44855688Y11674900D01*
X44855687Y11674901D01*
X44835308Y11690763D01*
X44835303Y11690766D01*
X44691256Y11768721D01*
X44640866Y11818735D01*
X44625514Y11888052D01*
X44650075Y11954665D01*
X44697976Y11993730D01*
X44717639Y12002898D01*
X44896877Y12128402D01*
X45051598Y12283123D01*
X45177102Y12462361D01*
X45245805Y12609698D01*
X45292722Y12662981D01*
X45360999Y12682442D01*
X45428959Y12661900D01*
G37*
G04 #@! TD.AperFunction*
G04 #@! TA.AperFunction,Conductor*
G36*
X50508959Y12661900D02*
G01*
X50554194Y12609698D01*
X50622898Y12462361D01*
X50748402Y12283123D01*
X50903123Y12128402D01*
X50903126Y12128400D01*
X51082359Y12002899D01*
X51082360Y12002899D01*
X51082361Y12002898D01*
X51102022Y11993730D01*
X51155307Y11946815D01*
X51174769Y11878538D01*
X51154228Y11810577D01*
X51108743Y11768722D01*
X50964705Y11690773D01*
X50964693Y11690765D01*
X50944311Y11674901D01*
X50944310Y11674900D01*
X51582412Y11036798D01*
X51567685Y11034680D01*
X51436900Y10974952D01*
X51328239Y10880798D01*
X51250507Y10759844D01*
X51225639Y10675151D01*
X50586921Y11313869D01*
X50586920Y11313868D01*
X50511586Y11198561D01*
X50511579Y11198547D01*
X50495382Y11161621D01*
X50449701Y11107272D01*
X50381888Y11086249D01*
X50313474Y11105226D01*
X50266181Y11158177D01*
X50265800Y11158985D01*
X50257100Y11177642D01*
X50131604Y11356869D01*
X50131601Y11356873D01*
X50131598Y11356877D01*
X49976877Y11511598D01*
X49797639Y11637102D01*
X49650302Y11705806D01*
X49597019Y11752722D01*
X49577558Y11820999D01*
X49598100Y11888959D01*
X49650302Y11934195D01*
X49797639Y12002898D01*
X49976877Y12128402D01*
X50131598Y12283123D01*
X50257102Y12462361D01*
X50325805Y12609698D01*
X50372722Y12662981D01*
X50440999Y12682442D01*
X50508959Y12661900D01*
G37*
G04 #@! TD.AperFunction*
G04 #@! TA.AperFunction,Conductor*
G36*
X55588959Y12661900D02*
G01*
X55634194Y12609698D01*
X55702898Y12462361D01*
X55828402Y12283123D01*
X55983123Y12128402D01*
X55983126Y12128400D01*
X56162359Y12002899D01*
X56162360Y12002899D01*
X56162361Y12002898D01*
X56182022Y11993730D01*
X56235307Y11946815D01*
X56254769Y11878538D01*
X56234228Y11810577D01*
X56188743Y11768722D01*
X56044705Y11690773D01*
X56044693Y11690765D01*
X56024311Y11674901D01*
X56024310Y11674900D01*
X56662412Y11036798D01*
X56647685Y11034680D01*
X56516900Y10974952D01*
X56408239Y10880798D01*
X56330507Y10759844D01*
X56305639Y10675151D01*
X55666921Y11313869D01*
X55666920Y11313868D01*
X55591586Y11198561D01*
X55591579Y11198547D01*
X55575382Y11161621D01*
X55529701Y11107272D01*
X55461888Y11086249D01*
X55393474Y11105226D01*
X55346181Y11158177D01*
X55345800Y11158985D01*
X55337100Y11177642D01*
X55211604Y11356869D01*
X55211601Y11356873D01*
X55211598Y11356877D01*
X55056877Y11511598D01*
X54877639Y11637102D01*
X54730302Y11705806D01*
X54677019Y11752722D01*
X54657558Y11820999D01*
X54678100Y11888959D01*
X54730302Y11934195D01*
X54877639Y12002898D01*
X55056877Y12128402D01*
X55211598Y12283123D01*
X55337102Y12462361D01*
X55405805Y12609698D01*
X55452722Y12662981D01*
X55520999Y12682442D01*
X55588959Y12661900D01*
G37*
G04 #@! TD.AperFunction*
G04 #@! TA.AperFunction,Conductor*
G36*
X60668959Y12661900D02*
G01*
X60714194Y12609698D01*
X60782898Y12462361D01*
X60908402Y12283123D01*
X61063123Y12128402D01*
X61063126Y12128400D01*
X61242359Y12002899D01*
X61242360Y12002899D01*
X61242361Y12002898D01*
X61262022Y11993730D01*
X61315307Y11946815D01*
X61334769Y11878538D01*
X61314228Y11810577D01*
X61268743Y11768722D01*
X61124705Y11690773D01*
X61124693Y11690765D01*
X61104311Y11674901D01*
X61104310Y11674900D01*
X61742412Y11036798D01*
X61727685Y11034680D01*
X61596900Y10974952D01*
X61488239Y10880798D01*
X61410507Y10759844D01*
X61385639Y10675151D01*
X60746921Y11313869D01*
X60746920Y11313868D01*
X60671586Y11198561D01*
X60671579Y11198547D01*
X60655382Y11161621D01*
X60609701Y11107272D01*
X60541888Y11086249D01*
X60473474Y11105226D01*
X60426181Y11158177D01*
X60425800Y11158985D01*
X60417100Y11177642D01*
X60291604Y11356869D01*
X60291601Y11356873D01*
X60291598Y11356877D01*
X60136877Y11511598D01*
X59957639Y11637102D01*
X59810302Y11705806D01*
X59757019Y11752722D01*
X59737558Y11820999D01*
X59758100Y11888959D01*
X59810302Y11934195D01*
X59957639Y12002898D01*
X60136877Y12128402D01*
X60291598Y12283123D01*
X60417102Y12462361D01*
X60485805Y12609698D01*
X60532722Y12662981D01*
X60600999Y12682442D01*
X60668959Y12661900D01*
G37*
G04 #@! TD.AperFunction*
G04 #@! TA.AperFunction,Conductor*
G36*
X22568959Y12661900D02*
G01*
X22614194Y12609698D01*
X22682898Y12462361D01*
X22808402Y12283123D01*
X22963123Y12128402D01*
X23142361Y12002898D01*
X23281485Y11938024D01*
X23289695Y11934195D01*
X23342980Y11887278D01*
X23362441Y11819000D01*
X23341899Y11751040D01*
X23289695Y11705805D01*
X23142358Y11637101D01*
X22963131Y11511605D01*
X22963120Y11511596D01*
X22808404Y11356880D01*
X22808395Y11356869D01*
X22682899Y11177642D01*
X22682898Y11177640D01*
X22674197Y11158981D01*
X22627278Y11105698D01*
X22559000Y11086239D01*
X22491041Y11106783D01*
X22444977Y11160807D01*
X22444616Y11161623D01*
X22428419Y11198550D01*
X22353077Y11313868D01*
X21714360Y10675152D01*
X21689493Y10759844D01*
X21611761Y10880798D01*
X21503100Y10974952D01*
X21372315Y11034680D01*
X21357586Y11036798D01*
X21995688Y11674900D01*
X21995687Y11674901D01*
X21975308Y11690763D01*
X21975303Y11690766D01*
X21831256Y11768721D01*
X21780866Y11818735D01*
X21765514Y11888052D01*
X21790075Y11954665D01*
X21837976Y11993730D01*
X21857639Y12002898D01*
X22036877Y12128402D01*
X22191598Y12283123D01*
X22317102Y12462361D01*
X22385805Y12609698D01*
X22432722Y12662981D01*
X22500999Y12682442D01*
X22568959Y12661900D01*
G37*
G04 #@! TD.AperFunction*
G04 #@! TA.AperFunction,Conductor*
G36*
X27648959Y12661900D02*
G01*
X27694194Y12609698D01*
X27762898Y12462361D01*
X27888402Y12283123D01*
X28043123Y12128402D01*
X28222361Y12002898D01*
X28361485Y11938024D01*
X28369695Y11934195D01*
X28422980Y11887278D01*
X28442441Y11819000D01*
X28421899Y11751040D01*
X28369695Y11705805D01*
X28222358Y11637101D01*
X28043131Y11511605D01*
X28043120Y11511596D01*
X27888404Y11356880D01*
X27888395Y11356869D01*
X27762899Y11177642D01*
X27762898Y11177640D01*
X27754197Y11158981D01*
X27707278Y11105698D01*
X27639000Y11086239D01*
X27571041Y11106783D01*
X27524977Y11160807D01*
X27524616Y11161623D01*
X27508419Y11198550D01*
X27433077Y11313868D01*
X26794360Y10675152D01*
X26769493Y10759844D01*
X26691761Y10880798D01*
X26583100Y10974952D01*
X26452315Y11034680D01*
X26437586Y11036798D01*
X27075688Y11674900D01*
X27075687Y11674901D01*
X27055308Y11690763D01*
X27055303Y11690766D01*
X26911256Y11768721D01*
X26860866Y11818735D01*
X26845514Y11888052D01*
X26870075Y11954665D01*
X26917976Y11993730D01*
X26937639Y12002898D01*
X27116877Y12128402D01*
X27271598Y12283123D01*
X27397102Y12462361D01*
X27465805Y12609698D01*
X27512722Y12662981D01*
X27580999Y12682442D01*
X27648959Y12661900D01*
G37*
G04 #@! TD.AperFunction*
G04 #@! TA.AperFunction,Conductor*
G36*
X32728959Y12661900D02*
G01*
X32774194Y12609698D01*
X32842898Y12462361D01*
X32968402Y12283123D01*
X33123123Y12128402D01*
X33302361Y12002898D01*
X33441485Y11938024D01*
X33449695Y11934195D01*
X33502980Y11887278D01*
X33522441Y11819000D01*
X33501899Y11751040D01*
X33449695Y11705805D01*
X33302358Y11637101D01*
X33123131Y11511605D01*
X33123120Y11511596D01*
X32968404Y11356880D01*
X32968395Y11356869D01*
X32842899Y11177642D01*
X32842898Y11177640D01*
X32834197Y11158981D01*
X32787278Y11105698D01*
X32719000Y11086239D01*
X32651041Y11106783D01*
X32604977Y11160807D01*
X32604616Y11161623D01*
X32588419Y11198550D01*
X32513077Y11313868D01*
X31874360Y10675152D01*
X31849493Y10759844D01*
X31771761Y10880798D01*
X31663100Y10974952D01*
X31532315Y11034680D01*
X31517586Y11036798D01*
X32155688Y11674900D01*
X32155687Y11674901D01*
X32135308Y11690763D01*
X32135303Y11690766D01*
X31991256Y11768721D01*
X31940866Y11818735D01*
X31925514Y11888052D01*
X31950075Y11954665D01*
X31997976Y11993730D01*
X32017639Y12002898D01*
X32196877Y12128402D01*
X32351598Y12283123D01*
X32477102Y12462361D01*
X32545805Y12609698D01*
X32592722Y12662981D01*
X32660999Y12682442D01*
X32728959Y12661900D01*
G37*
G04 #@! TD.AperFunction*
G04 #@! TA.AperFunction,Conductor*
G36*
X37808959Y12661900D02*
G01*
X37854194Y12609698D01*
X37922898Y12462361D01*
X38048402Y12283123D01*
X38203123Y12128402D01*
X38382361Y12002898D01*
X38521485Y11938024D01*
X38529695Y11934195D01*
X38582980Y11887278D01*
X38602441Y11819000D01*
X38581899Y11751040D01*
X38529695Y11705805D01*
X38382358Y11637101D01*
X38203131Y11511605D01*
X38203120Y11511596D01*
X38048404Y11356880D01*
X38048395Y11356869D01*
X37922899Y11177642D01*
X37922898Y11177640D01*
X37914197Y11158981D01*
X37867278Y11105698D01*
X37799000Y11086239D01*
X37731041Y11106783D01*
X37684977Y11160807D01*
X37684616Y11161623D01*
X37668419Y11198550D01*
X37593077Y11313868D01*
X36954360Y10675152D01*
X36929493Y10759844D01*
X36851761Y10880798D01*
X36743100Y10974952D01*
X36612315Y11034680D01*
X36597586Y11036798D01*
X37235688Y11674900D01*
X37235687Y11674901D01*
X37215308Y11690763D01*
X37215303Y11690766D01*
X37071256Y11768721D01*
X37020866Y11818735D01*
X37005514Y11888052D01*
X37030075Y11954665D01*
X37077976Y11993730D01*
X37097639Y12002898D01*
X37276877Y12128402D01*
X37431598Y12283123D01*
X37557102Y12462361D01*
X37625805Y12609698D01*
X37672722Y12662981D01*
X37740999Y12682442D01*
X37808959Y12661900D01*
G37*
G04 #@! TD.AperFunction*
G04 #@! TA.AperFunction,Conductor*
G36*
X47968959Y12661900D02*
G01*
X48014194Y12609698D01*
X48082898Y12462361D01*
X48208402Y12283123D01*
X48363123Y12128402D01*
X48542361Y12002898D01*
X48681485Y11938024D01*
X48689695Y11934195D01*
X48742980Y11887278D01*
X48762441Y11819000D01*
X48741899Y11751040D01*
X48689695Y11705805D01*
X48542358Y11637101D01*
X48363131Y11511605D01*
X48363120Y11511596D01*
X48208404Y11356880D01*
X48208395Y11356869D01*
X48082899Y11177642D01*
X48082898Y11177640D01*
X48074197Y11158981D01*
X48027278Y11105698D01*
X47959000Y11086239D01*
X47891041Y11106783D01*
X47844977Y11160807D01*
X47844616Y11161623D01*
X47828419Y11198550D01*
X47753077Y11313868D01*
X47114360Y10675152D01*
X47089493Y10759844D01*
X47011761Y10880798D01*
X46903100Y10974952D01*
X46772315Y11034680D01*
X46757586Y11036798D01*
X47395688Y11674900D01*
X47395687Y11674901D01*
X47375308Y11690763D01*
X47375303Y11690766D01*
X47231256Y11768721D01*
X47180866Y11818735D01*
X47165514Y11888052D01*
X47190075Y11954665D01*
X47237976Y11993730D01*
X47257639Y12002898D01*
X47436877Y12128402D01*
X47591598Y12283123D01*
X47717102Y12462361D01*
X47785805Y12609698D01*
X47832722Y12662981D01*
X47900999Y12682442D01*
X47968959Y12661900D01*
G37*
G04 #@! TD.AperFunction*
G04 #@! TA.AperFunction,Conductor*
G36*
X53048959Y12661900D02*
G01*
X53094194Y12609698D01*
X53162898Y12462361D01*
X53288402Y12283123D01*
X53443123Y12128402D01*
X53622361Y12002898D01*
X53761485Y11938024D01*
X53769695Y11934195D01*
X53822980Y11887278D01*
X53842441Y11819000D01*
X53821899Y11751040D01*
X53769695Y11705805D01*
X53622358Y11637101D01*
X53443131Y11511605D01*
X53443120Y11511596D01*
X53288404Y11356880D01*
X53288395Y11356869D01*
X53162899Y11177642D01*
X53162898Y11177640D01*
X53154197Y11158981D01*
X53107278Y11105698D01*
X53039000Y11086239D01*
X52971041Y11106783D01*
X52924977Y11160807D01*
X52924616Y11161623D01*
X52908419Y11198550D01*
X52833077Y11313868D01*
X52194360Y10675152D01*
X52169493Y10759844D01*
X52091761Y10880798D01*
X51983100Y10974952D01*
X51852315Y11034680D01*
X51837586Y11036798D01*
X52475688Y11674900D01*
X52475687Y11674901D01*
X52455308Y11690763D01*
X52455303Y11690766D01*
X52311256Y11768721D01*
X52260866Y11818735D01*
X52245514Y11888052D01*
X52270075Y11954665D01*
X52317976Y11993730D01*
X52337639Y12002898D01*
X52516877Y12128402D01*
X52671598Y12283123D01*
X52797102Y12462361D01*
X52865805Y12609698D01*
X52912722Y12662981D01*
X52980999Y12682442D01*
X53048959Y12661900D01*
G37*
G04 #@! TD.AperFunction*
G04 #@! TA.AperFunction,Conductor*
G36*
X58128959Y12661900D02*
G01*
X58174194Y12609698D01*
X58242898Y12462361D01*
X58368402Y12283123D01*
X58523123Y12128402D01*
X58702361Y12002898D01*
X58841485Y11938024D01*
X58849695Y11934195D01*
X58902980Y11887278D01*
X58922441Y11819000D01*
X58901899Y11751040D01*
X58849695Y11705805D01*
X58702358Y11637101D01*
X58523131Y11511605D01*
X58523120Y11511596D01*
X58368404Y11356880D01*
X58368395Y11356869D01*
X58242899Y11177642D01*
X58242898Y11177640D01*
X58234197Y11158981D01*
X58187278Y11105698D01*
X58119000Y11086239D01*
X58051041Y11106783D01*
X58004977Y11160807D01*
X58004616Y11161623D01*
X57988419Y11198550D01*
X57913077Y11313868D01*
X57274360Y10675152D01*
X57249493Y10759844D01*
X57171761Y10880798D01*
X57063100Y10974952D01*
X56932315Y11034680D01*
X56917586Y11036798D01*
X57555688Y11674900D01*
X57555687Y11674901D01*
X57535308Y11690763D01*
X57535303Y11690766D01*
X57391256Y11768721D01*
X57340866Y11818735D01*
X57325514Y11888052D01*
X57350075Y11954665D01*
X57397976Y11993730D01*
X57417639Y12002898D01*
X57596877Y12128402D01*
X57751598Y12283123D01*
X57877102Y12462361D01*
X57945805Y12609698D01*
X57992722Y12662981D01*
X58060999Y12682442D01*
X58128959Y12661900D01*
G37*
G04 #@! TD.AperFunction*
G04 #@! TA.AperFunction,Conductor*
G36*
X63119723Y12443674D02*
G01*
X63155709Y12382473D01*
X63159500Y12351797D01*
X63159500Y12208484D01*
X63174353Y12114698D01*
X63231949Y12001658D01*
X63321657Y11911950D01*
X63360299Y11892262D01*
X63434696Y11854354D01*
X63528481Y11839500D01*
X63671796Y11839501D01*
X63739914Y11819499D01*
X63786407Y11765844D01*
X63796512Y11695570D01*
X63767019Y11630989D01*
X63744065Y11610288D01*
X63603126Y11511601D01*
X63603120Y11511596D01*
X63448404Y11356880D01*
X63448395Y11356869D01*
X63322899Y11177642D01*
X63322898Y11177640D01*
X63314197Y11158981D01*
X63267278Y11105698D01*
X63199000Y11086239D01*
X63131041Y11106783D01*
X63084977Y11160807D01*
X63084616Y11161623D01*
X63068419Y11198550D01*
X62993077Y11313868D01*
X62354360Y10675152D01*
X62329493Y10759844D01*
X62251761Y10880798D01*
X62143100Y10974952D01*
X62012315Y11034680D01*
X61997586Y11036798D01*
X62635688Y11674900D01*
X62635687Y11674901D01*
X62615308Y11690763D01*
X62615303Y11690766D01*
X62471256Y11768721D01*
X62420866Y11818735D01*
X62405514Y11888052D01*
X62430075Y11954665D01*
X62477976Y11993730D01*
X62497639Y12002898D01*
X62676877Y12128402D01*
X62831598Y12283123D01*
X62930289Y12424069D01*
X62985743Y12468395D01*
X63056363Y12475704D01*
X63119723Y12443674D01*
G37*
G04 #@! TD.AperFunction*
G04 #@! TA.AperFunction,Conductor*
G36*
X75002611Y81299392D02*
G01*
X75432437Y81281615D01*
X75442786Y81280758D01*
X75867100Y81227867D01*
X75877364Y81226154D01*
X76295858Y81138405D01*
X76305921Y81135857D01*
X76715755Y81013844D01*
X76725591Y81010467D01*
X76825894Y80971329D01*
X77123936Y80855033D01*
X77133473Y80850849D01*
X77517600Y80663060D01*
X77526758Y80658104D01*
X77894071Y80439234D01*
X77902790Y80433538D01*
X78250776Y80185080D01*
X78258994Y80178684D01*
X78585287Y79902329D01*
X78592948Y79895275D01*
X78895274Y79592949D01*
X78902328Y79585288D01*
X79178683Y79258995D01*
X79185079Y79250777D01*
X79433537Y78902791D01*
X79439233Y78894072D01*
X79658103Y78526759D01*
X79663059Y78517601D01*
X79850848Y78133474D01*
X79855032Y78123937D01*
X80010464Y77725598D01*
X80013845Y77715749D01*
X80135852Y77305938D01*
X80138408Y77295842D01*
X80226152Y76877369D01*
X80227866Y76867097D01*
X80280755Y76442801D01*
X80281615Y76432423D01*
X80299392Y76002612D01*
X80299500Y75997405D01*
X80299500Y6502748D01*
X80299380Y6497252D01*
X80281475Y6087192D01*
X80280517Y6076242D01*
X80227302Y5672028D01*
X80225393Y5661203D01*
X80137151Y5263170D01*
X80134306Y5252552D01*
X80011710Y4863726D01*
X80007951Y4853397D01*
X79851926Y4476721D01*
X79847280Y4466759D01*
X79659031Y4105134D01*
X79653535Y4095614D01*
X79434479Y3751765D01*
X79428174Y3742761D01*
X79179973Y3419300D01*
X79172908Y3410880D01*
X78897475Y3110298D01*
X78889702Y3102525D01*
X78589120Y2827092D01*
X78580700Y2820027D01*
X78257239Y2571826D01*
X78248235Y2565521D01*
X77904386Y2346465D01*
X77894866Y2340969D01*
X77533241Y2152720D01*
X77523279Y2148074D01*
X77146603Y1992049D01*
X77136274Y1988290D01*
X76747448Y1865694D01*
X76736830Y1862849D01*
X76338797Y1774607D01*
X76327972Y1772698D01*
X75923758Y1719483D01*
X75912808Y1718525D01*
X75502748Y1700620D01*
X75497252Y1700500D01*
X6002596Y1700500D01*
X5997389Y1700608D01*
X5567577Y1718385D01*
X5557199Y1719245D01*
X5132903Y1772134D01*
X5122631Y1773848D01*
X4704158Y1861592D01*
X4694062Y1864148D01*
X4284251Y1986155D01*
X4274402Y1989536D01*
X3876063Y2144968D01*
X3866526Y2149152D01*
X3482399Y2336941D01*
X3473241Y2341897D01*
X3105928Y2560767D01*
X3097209Y2566463D01*
X2749223Y2814921D01*
X2741005Y2821317D01*
X2530034Y3000000D01*
X8918587Y3000000D01*
X8938179Y2826119D01*
X8995971Y2660958D01*
X8995972Y2660955D01*
X9089065Y2512799D01*
X9089066Y2512797D01*
X9212796Y2389067D01*
X9212798Y2389066D01*
X9360954Y2295973D01*
X9360955Y2295973D01*
X9360958Y2295971D01*
X9526119Y2238179D01*
X9700000Y2218587D01*
X9873881Y2238179D01*
X10039042Y2295971D01*
X10187203Y2389067D01*
X10310933Y2512797D01*
X10404029Y2660958D01*
X10461821Y2826119D01*
X10481413Y3000000D01*
X71518587Y3000000D01*
X71538179Y2826119D01*
X71595971Y2660958D01*
X71595972Y2660955D01*
X71689065Y2512799D01*
X71689066Y2512797D01*
X71812796Y2389067D01*
X71812798Y2389066D01*
X71960954Y2295973D01*
X71960955Y2295973D01*
X71960958Y2295971D01*
X72126119Y2238179D01*
X72300000Y2218587D01*
X72473881Y2238179D01*
X72639042Y2295971D01*
X72787203Y2389067D01*
X72910933Y2512797D01*
X73004029Y2660958D01*
X73061821Y2826119D01*
X73081413Y3000000D01*
X73061821Y3173881D01*
X73004029Y3339042D01*
X73004027Y3339045D01*
X73004027Y3339046D01*
X72910934Y3487202D01*
X72910933Y3487204D01*
X72787203Y3610934D01*
X72787201Y3610935D01*
X72639045Y3704028D01*
X72639042Y3704029D01*
X72533367Y3741006D01*
X72473881Y3761821D01*
X72300000Y3781413D01*
X72126119Y3761821D01*
X72126116Y3761821D01*
X72126116Y3761820D01*
X71960957Y3704029D01*
X71960954Y3704028D01*
X71812798Y3610935D01*
X71812796Y3610934D01*
X71689066Y3487204D01*
X71689065Y3487202D01*
X71595972Y3339046D01*
X71595971Y3339043D01*
X71595971Y3339042D01*
X71538179Y3173881D01*
X71518587Y3000000D01*
X10481413Y3000000D01*
X10461821Y3173881D01*
X10404029Y3339042D01*
X10404027Y3339045D01*
X10404027Y3339046D01*
X10310934Y3487202D01*
X10310933Y3487204D01*
X10187203Y3610934D01*
X10187201Y3610935D01*
X10039045Y3704028D01*
X10039042Y3704029D01*
X9933367Y3741006D01*
X9873881Y3761821D01*
X9700000Y3781413D01*
X9526119Y3761821D01*
X9526116Y3761821D01*
X9526116Y3761820D01*
X9360957Y3704029D01*
X9360954Y3704028D01*
X9212798Y3610935D01*
X9212796Y3610934D01*
X9089066Y3487204D01*
X9089065Y3487202D01*
X8995972Y3339046D01*
X8995971Y3339043D01*
X8995971Y3339042D01*
X8938179Y3173881D01*
X8918587Y3000000D01*
X2530034Y3000000D01*
X2414712Y3097672D01*
X2407051Y3104726D01*
X2104725Y3407052D01*
X2097671Y3414713D01*
X2036274Y3487204D01*
X1931480Y3610935D01*
X1821316Y3741006D01*
X1814920Y3749224D01*
X1566462Y4097210D01*
X1560766Y4105929D01*
X1341896Y4473242D01*
X1336940Y4482400D01*
X1149151Y4866527D01*
X1144967Y4876064D01*
X1067649Y5074213D01*
X989533Y5274409D01*
X986154Y5284252D01*
X982139Y5297738D01*
X864143Y5694079D01*
X861595Y5704142D01*
X855705Y5732235D01*
X3245788Y5732235D01*
X3275412Y5462986D01*
X3343928Y5200910D01*
X3449869Y4951611D01*
X3449870Y4951610D01*
X3590982Y4720390D01*
X3764255Y4512180D01*
X3764257Y4512178D01*
X3764259Y4512176D01*
X3809496Y4471644D01*
X3965998Y4331418D01*
X4191910Y4181956D01*
X4437176Y4066980D01*
X4696569Y3988940D01*
X4696572Y3988940D01*
X4696574Y3988939D01*
X4964557Y3949500D01*
X4964561Y3949500D01*
X5167631Y3949500D01*
X5370156Y3964323D01*
X5370160Y3964324D01*
X5370161Y3964324D01*
X5480665Y3988940D01*
X5634553Y4023220D01*
X5887558Y4119986D01*
X6123777Y4252559D01*
X6338177Y4418112D01*
X6526186Y4613119D01*
X6683799Y4833421D01*
X6694070Y4853397D01*
X6807656Y5074325D01*
X6807657Y5074328D01*
X6872081Y5263170D01*
X6895118Y5330695D01*
X6944319Y5597067D01*
X6951735Y5800000D01*
X12544435Y5800000D01*
X12564632Y5620745D01*
X12572920Y5597059D01*
X12624211Y5450478D01*
X12624212Y5450475D01*
X12720182Y5297740D01*
X12720183Y5297738D01*
X12847737Y5170184D01*
X12847739Y5170183D01*
X13000474Y5074213D01*
X13000475Y5074213D01*
X13000478Y5074211D01*
X13170745Y5014632D01*
X13350000Y4994435D01*
X13529255Y5014632D01*
X13699522Y5074211D01*
X13852262Y5170184D01*
X13979816Y5297738D01*
X14075789Y5450478D01*
X14135368Y5620745D01*
X14147930Y5732235D01*
X74245788Y5732235D01*
X74275412Y5462986D01*
X74343928Y5200910D01*
X74449869Y4951611D01*
X74449870Y4951610D01*
X74590982Y4720390D01*
X74764255Y4512180D01*
X74764257Y4512178D01*
X74764259Y4512176D01*
X74809496Y4471644D01*
X74965998Y4331418D01*
X75191910Y4181956D01*
X75437176Y4066980D01*
X75696569Y3988940D01*
X75696572Y3988940D01*
X75696574Y3988939D01*
X75964557Y3949500D01*
X75964561Y3949500D01*
X76167631Y3949500D01*
X76370156Y3964323D01*
X76370160Y3964324D01*
X76370161Y3964324D01*
X76480665Y3988940D01*
X76634553Y4023220D01*
X76887558Y4119986D01*
X77123777Y4252559D01*
X77338177Y4418112D01*
X77526186Y4613119D01*
X77683799Y4833421D01*
X77694070Y4853397D01*
X77807656Y5074325D01*
X77807657Y5074328D01*
X77872081Y5263170D01*
X77895118Y5330695D01*
X77944319Y5597067D01*
X77954212Y5867765D01*
X77939338Y6002942D01*
X77924587Y6137015D01*
X77856071Y6399091D01*
X77750130Y6648390D01*
X77609018Y6879610D01*
X77435745Y7087820D01*
X77435741Y7087823D01*
X77435740Y7087825D01*
X77234012Y7268573D01*
X77234002Y7268582D01*
X77008090Y7418044D01*
X76762824Y7533020D01*
X76605392Y7580385D01*
X76503425Y7611062D01*
X76235442Y7650500D01*
X76235439Y7650500D01*
X76032369Y7650500D01*
X75829839Y7635677D01*
X75829838Y7635677D01*
X75565456Y7576783D01*
X75565441Y7576778D01*
X75312441Y7480014D01*
X75076229Y7347445D01*
X75076225Y7347443D01*
X74861818Y7181884D01*
X74673815Y6986883D01*
X74673810Y6986877D01*
X74516203Y6766583D01*
X74516196Y6766573D01*
X74392343Y6525676D01*
X74392342Y6525673D01*
X74304883Y6269311D01*
X74304880Y6269298D01*
X74255681Y6002942D01*
X74255680Y6002931D01*
X74245788Y5732235D01*
X14147930Y5732235D01*
X14155565Y5800000D01*
X14135368Y5979255D01*
X14075789Y6149522D01*
X14075787Y6149525D01*
X14075787Y6149526D01*
X13979817Y6302261D01*
X13979816Y6302263D01*
X13852262Y6429817D01*
X13852260Y6429818D01*
X13699525Y6525788D01*
X13699522Y6525789D01*
X13529255Y6585368D01*
X13350000Y6605565D01*
X13170745Y6585368D01*
X13170742Y6585368D01*
X13170742Y6585367D01*
X13000477Y6525789D01*
X13000474Y6525788D01*
X12847739Y6429818D01*
X12847737Y6429817D01*
X12720183Y6302263D01*
X12720182Y6302261D01*
X12624212Y6149526D01*
X12624211Y6149523D01*
X12564633Y5979258D01*
X12564632Y5979255D01*
X12544435Y5800000D01*
X6951735Y5800000D01*
X6954212Y5867765D01*
X6939338Y6002942D01*
X6924587Y6137015D01*
X6856071Y6399091D01*
X6750130Y6648390D01*
X6609018Y6879610D01*
X6435745Y7087820D01*
X6435741Y7087823D01*
X6435740Y7087825D01*
X6234012Y7268573D01*
X6234002Y7268582D01*
X6008090Y7418044D01*
X5762824Y7533020D01*
X5605392Y7580385D01*
X5503425Y7611062D01*
X5235442Y7650500D01*
X5235439Y7650500D01*
X5032369Y7650500D01*
X4829839Y7635677D01*
X4829838Y7635677D01*
X4565456Y7576783D01*
X4565441Y7576778D01*
X4312441Y7480014D01*
X4076229Y7347445D01*
X4076225Y7347443D01*
X3861818Y7181884D01*
X3673815Y6986883D01*
X3673810Y6986877D01*
X3516203Y6766583D01*
X3516196Y6766573D01*
X3392343Y6525676D01*
X3392342Y6525673D01*
X3304883Y6269311D01*
X3304880Y6269298D01*
X3255681Y6002942D01*
X3255680Y6002931D01*
X3245788Y5732235D01*
X855705Y5732235D01*
X773846Y6122636D01*
X772133Y6132904D01*
X770062Y6149522D01*
X719242Y6557214D01*
X718385Y6567563D01*
X700608Y6997389D01*
X700500Y7002596D01*
X700500Y7800000D01*
X13294435Y7800000D01*
X13314632Y7620745D01*
X13318021Y7611060D01*
X13374211Y7450478D01*
X13374212Y7450475D01*
X13470182Y7297740D01*
X13470183Y7297738D01*
X13597737Y7170184D01*
X13597739Y7170183D01*
X13750474Y7074213D01*
X13750475Y7074213D01*
X13750478Y7074211D01*
X13920745Y7014632D01*
X14100000Y6994435D01*
X14279255Y7014632D01*
X14449522Y7074211D01*
X14602262Y7170184D01*
X14729816Y7297738D01*
X14825789Y7450478D01*
X14885368Y7620745D01*
X14905565Y7800000D01*
X14885368Y7979255D01*
X14825789Y8149522D01*
X14825787Y8149525D01*
X14825787Y8149526D01*
X14729817Y8302261D01*
X14729816Y8302263D01*
X14602262Y8429817D01*
X14602260Y8429818D01*
X14449525Y8525788D01*
X14449522Y8525789D01*
X14279255Y8585368D01*
X14100000Y8605565D01*
X13920745Y8585368D01*
X13920742Y8585368D01*
X13920742Y8585367D01*
X13750477Y8525789D01*
X13750474Y8525788D01*
X13597739Y8429818D01*
X13597737Y8429817D01*
X13470183Y8302263D01*
X13470182Y8302261D01*
X13374212Y8149526D01*
X13374211Y8149523D01*
X13374211Y8149522D01*
X13314632Y7979255D01*
X13294435Y7800000D01*
X700500Y7800000D01*
X700500Y10550000D01*
X14894723Y10550000D01*
X14913793Y10332023D01*
X14944023Y10219202D01*
X14969251Y10125048D01*
X14970425Y10120670D01*
X15062898Y9922361D01*
X15188402Y9743123D01*
X15343123Y9588402D01*
X15522361Y9462898D01*
X15720670Y9370425D01*
X15932023Y9313793D01*
X16150000Y9294723D01*
X16367977Y9313793D01*
X16579330Y9370425D01*
X16777639Y9462898D01*
X16956877Y9588402D01*
X17111598Y9743123D01*
X17237102Y9922361D01*
X17245800Y9941015D01*
X17292715Y9994299D01*
X17360992Y10013761D01*
X17428953Y9993220D01*
X17475019Y9939198D01*
X17475382Y9938379D01*
X17491580Y9901452D01*
X17566921Y9786134D01*
X18205638Y10424851D01*
X18230507Y10340156D01*
X18308239Y10219202D01*
X18416900Y10125048D01*
X18547685Y10065320D01*
X18562411Y10063203D01*
X17924310Y9425102D01*
X17944697Y9409234D01*
X17944701Y9409232D01*
X18142628Y9302118D01*
X18142630Y9302117D01*
X18355483Y9229045D01*
X18355490Y9229043D01*
X18577477Y9192000D01*
X18802523Y9192000D01*
X19024509Y9229043D01*
X19024516Y9229045D01*
X19237369Y9302117D01*
X19237371Y9302119D01*
X19435298Y9409231D01*
X19455687Y9425102D01*
X18817587Y10063203D01*
X18832315Y10065320D01*
X18963100Y10125048D01*
X19071761Y10219202D01*
X19149493Y10340156D01*
X19174361Y10424850D01*
X19813077Y9786134D01*
X19813078Y9786134D01*
X19854516Y9849559D01*
X19908519Y9895648D01*
X19978867Y9905223D01*
X20043225Y9875246D01*
X20065482Y9849560D01*
X20106921Y9786134D01*
X20745638Y10424851D01*
X20770507Y10340156D01*
X20848239Y10219202D01*
X20956900Y10125048D01*
X21087685Y10065320D01*
X21102411Y10063203D01*
X20464310Y9425102D01*
X20484697Y9409234D01*
X20484701Y9409232D01*
X20682628Y9302118D01*
X20682630Y9302117D01*
X20895483Y9229045D01*
X20895490Y9229043D01*
X21117477Y9192000D01*
X21342523Y9192000D01*
X21564509Y9229043D01*
X21564516Y9229045D01*
X21777369Y9302117D01*
X21777371Y9302119D01*
X21975298Y9409231D01*
X21995687Y9425102D01*
X21357587Y10063203D01*
X21372315Y10065320D01*
X21503100Y10125048D01*
X21611761Y10219202D01*
X21689493Y10340156D01*
X21714361Y10424850D01*
X22353077Y9786134D01*
X22428419Y9901451D01*
X22444616Y9938377D01*
X22490296Y9992726D01*
X22558108Y10013751D01*
X22626522Y9994776D01*
X22673817Y9941826D01*
X22674198Y9941017D01*
X22682897Y9922362D01*
X22778285Y9786134D01*
X22808402Y9743123D01*
X22963123Y9588402D01*
X23142361Y9462898D01*
X23340670Y9370425D01*
X23552023Y9313793D01*
X23770000Y9294723D01*
X23987977Y9313793D01*
X24199330Y9370425D01*
X24397639Y9462898D01*
X24576877Y9588402D01*
X24731598Y9743123D01*
X24857102Y9922361D01*
X24865800Y9941015D01*
X24912715Y9994299D01*
X24980992Y10013761D01*
X25048953Y9993220D01*
X25095019Y9939198D01*
X25095382Y9938379D01*
X25111580Y9901452D01*
X25186921Y9786134D01*
X25825638Y10424851D01*
X25850507Y10340156D01*
X25928239Y10219202D01*
X26036900Y10125048D01*
X26167685Y10065320D01*
X26182411Y10063203D01*
X25544310Y9425102D01*
X25564697Y9409234D01*
X25564701Y9409232D01*
X25762628Y9302118D01*
X25762630Y9302117D01*
X25975483Y9229045D01*
X25975490Y9229043D01*
X26197477Y9192000D01*
X26422523Y9192000D01*
X26644509Y9229043D01*
X26644516Y9229045D01*
X26857369Y9302117D01*
X26857371Y9302119D01*
X27055298Y9409231D01*
X27075687Y9425102D01*
X26437587Y10063203D01*
X26452315Y10065320D01*
X26583100Y10125048D01*
X26691761Y10219202D01*
X26769493Y10340156D01*
X26794361Y10424850D01*
X27433077Y9786134D01*
X27508419Y9901451D01*
X27524616Y9938377D01*
X27570296Y9992726D01*
X27638108Y10013751D01*
X27706522Y9994776D01*
X27753817Y9941826D01*
X27754198Y9941017D01*
X27762897Y9922362D01*
X27858285Y9786134D01*
X27888402Y9743123D01*
X28043123Y9588402D01*
X28222361Y9462898D01*
X28420670Y9370425D01*
X28632023Y9313793D01*
X28850000Y9294723D01*
X29067977Y9313793D01*
X29279330Y9370425D01*
X29477639Y9462898D01*
X29656877Y9588402D01*
X29811598Y9743123D01*
X29937102Y9922361D01*
X29945800Y9941015D01*
X29992715Y9994299D01*
X30060992Y10013761D01*
X30128953Y9993220D01*
X30175019Y9939198D01*
X30175382Y9938379D01*
X30191580Y9901452D01*
X30266921Y9786134D01*
X30905638Y10424851D01*
X30930507Y10340156D01*
X31008239Y10219202D01*
X31116900Y10125048D01*
X31247685Y10065320D01*
X31262411Y10063203D01*
X30624310Y9425102D01*
X30644697Y9409234D01*
X30644701Y9409232D01*
X30842628Y9302118D01*
X30842630Y9302117D01*
X31055483Y9229045D01*
X31055490Y9229043D01*
X31277477Y9192000D01*
X31502523Y9192000D01*
X31724509Y9229043D01*
X31724516Y9229045D01*
X31937369Y9302117D01*
X31937371Y9302119D01*
X32135298Y9409231D01*
X32155687Y9425102D01*
X31517587Y10063203D01*
X31532315Y10065320D01*
X31663100Y10125048D01*
X31771761Y10219202D01*
X31849493Y10340156D01*
X31874361Y10424850D01*
X32513077Y9786134D01*
X32588419Y9901451D01*
X32604616Y9938377D01*
X32650296Y9992726D01*
X32718108Y10013751D01*
X32786522Y9994776D01*
X32833817Y9941826D01*
X32834198Y9941017D01*
X32842897Y9922362D01*
X32938285Y9786134D01*
X32968402Y9743123D01*
X33123123Y9588402D01*
X33302361Y9462898D01*
X33500670Y9370425D01*
X33712023Y9313793D01*
X33930000Y9294723D01*
X34147977Y9313793D01*
X34359330Y9370425D01*
X34557639Y9462898D01*
X34736877Y9588402D01*
X34891598Y9743123D01*
X35017102Y9922361D01*
X35025800Y9941015D01*
X35072715Y9994299D01*
X35140992Y10013761D01*
X35208953Y9993220D01*
X35255019Y9939198D01*
X35255382Y9938379D01*
X35271580Y9901452D01*
X35346921Y9786134D01*
X35985638Y10424851D01*
X36010507Y10340156D01*
X36088239Y10219202D01*
X36196900Y10125048D01*
X36327685Y10065320D01*
X36342411Y10063203D01*
X35704310Y9425102D01*
X35724697Y9409234D01*
X35724701Y9409232D01*
X35922628Y9302118D01*
X35922630Y9302117D01*
X36135483Y9229045D01*
X36135490Y9229043D01*
X36357477Y9192000D01*
X36582523Y9192000D01*
X36804509Y9229043D01*
X36804516Y9229045D01*
X37017369Y9302117D01*
X37017371Y9302119D01*
X37215298Y9409231D01*
X37235688Y9425102D01*
X36597587Y10063203D01*
X36612315Y10065320D01*
X36743100Y10125048D01*
X36851761Y10219202D01*
X36929493Y10340156D01*
X36954361Y10424850D01*
X37593077Y9786134D01*
X37668419Y9901451D01*
X37684616Y9938377D01*
X37730296Y9992726D01*
X37798108Y10013751D01*
X37866522Y9994776D01*
X37913817Y9941826D01*
X37914198Y9941017D01*
X37922897Y9922362D01*
X38018285Y9786134D01*
X38048402Y9743123D01*
X38203123Y9588402D01*
X38382361Y9462898D01*
X38580670Y9370425D01*
X38792023Y9313793D01*
X39010000Y9294723D01*
X39227977Y9313793D01*
X39439330Y9370425D01*
X39637639Y9462898D01*
X39816877Y9588402D01*
X39971598Y9743123D01*
X40097102Y9922361D01*
X40105800Y9941015D01*
X40152715Y9994299D01*
X40220992Y10013761D01*
X40288953Y9993220D01*
X40335019Y9939198D01*
X40335382Y9938379D01*
X40351580Y9901452D01*
X40426921Y9786134D01*
X41065638Y10424851D01*
X41090507Y10340156D01*
X41168239Y10219202D01*
X41276900Y10125048D01*
X41407685Y10065320D01*
X41422411Y10063203D01*
X40784310Y9425102D01*
X40804697Y9409234D01*
X40804701Y9409232D01*
X41002628Y9302118D01*
X41002630Y9302117D01*
X41215483Y9229045D01*
X41215490Y9229043D01*
X41437477Y9192000D01*
X41662523Y9192000D01*
X41884509Y9229043D01*
X41884516Y9229045D01*
X42097369Y9302117D01*
X42097371Y9302119D01*
X42295298Y9409231D01*
X42315688Y9425102D01*
X41677587Y10063203D01*
X41692315Y10065320D01*
X41823100Y10125048D01*
X41931761Y10219202D01*
X42009493Y10340156D01*
X42034361Y10424850D01*
X42673077Y9786134D01*
X42673078Y9786134D01*
X42714516Y9849559D01*
X42768519Y9895648D01*
X42838867Y9905223D01*
X42903225Y9875246D01*
X42925482Y9849560D01*
X42966921Y9786134D01*
X43605638Y10424851D01*
X43630507Y10340156D01*
X43708239Y10219202D01*
X43816900Y10125048D01*
X43947685Y10065320D01*
X43962411Y10063203D01*
X43324310Y9425102D01*
X43344697Y9409234D01*
X43344701Y9409232D01*
X43542628Y9302118D01*
X43542630Y9302117D01*
X43755483Y9229045D01*
X43755490Y9229043D01*
X43977477Y9192000D01*
X44202523Y9192000D01*
X44424509Y9229043D01*
X44424516Y9229045D01*
X44637369Y9302117D01*
X44637371Y9302119D01*
X44835298Y9409231D01*
X44855687Y9425102D01*
X44217587Y10063203D01*
X44232315Y10065320D01*
X44363100Y10125048D01*
X44471761Y10219202D01*
X44549493Y10340156D01*
X44574361Y10424850D01*
X45213077Y9786134D01*
X45213078Y9786134D01*
X45254516Y9849559D01*
X45308519Y9895648D01*
X45378867Y9905223D01*
X45443225Y9875246D01*
X45465482Y9849560D01*
X45506921Y9786134D01*
X46145638Y10424851D01*
X46170507Y10340156D01*
X46248239Y10219202D01*
X46356900Y10125048D01*
X46487685Y10065320D01*
X46502411Y10063203D01*
X45864310Y9425102D01*
X45884697Y9409234D01*
X45884701Y9409232D01*
X46082628Y9302118D01*
X46082630Y9302117D01*
X46295483Y9229045D01*
X46295490Y9229043D01*
X46517477Y9192000D01*
X46742523Y9192000D01*
X46964509Y9229043D01*
X46964516Y9229045D01*
X47177369Y9302117D01*
X47177371Y9302119D01*
X47375298Y9409231D01*
X47395687Y9425102D01*
X46757587Y10063203D01*
X46772315Y10065320D01*
X46903100Y10125048D01*
X47011761Y10219202D01*
X47089493Y10340156D01*
X47114361Y10424850D01*
X47753077Y9786134D01*
X47828419Y9901451D01*
X47844616Y9938377D01*
X47890296Y9992726D01*
X47958108Y10013751D01*
X48026522Y9994776D01*
X48073817Y9941826D01*
X48074198Y9941017D01*
X48082897Y9922362D01*
X48178285Y9786134D01*
X48208402Y9743123D01*
X48363123Y9588402D01*
X48542361Y9462898D01*
X48740670Y9370425D01*
X48952023Y9313793D01*
X49170000Y9294723D01*
X49387977Y9313793D01*
X49599330Y9370425D01*
X49797639Y9462898D01*
X49976877Y9588402D01*
X50131598Y9743123D01*
X50257102Y9922361D01*
X50265800Y9941015D01*
X50312715Y9994299D01*
X50380992Y10013761D01*
X50448953Y9993220D01*
X50495019Y9939198D01*
X50495382Y9938379D01*
X50511580Y9901452D01*
X50586921Y9786134D01*
X51225638Y10424851D01*
X51250507Y10340156D01*
X51328239Y10219202D01*
X51436900Y10125048D01*
X51567685Y10065320D01*
X51582411Y10063203D01*
X50944310Y9425102D01*
X50964697Y9409234D01*
X50964701Y9409232D01*
X51162628Y9302118D01*
X51162630Y9302117D01*
X51375483Y9229045D01*
X51375490Y9229043D01*
X51597477Y9192000D01*
X51822523Y9192000D01*
X52044509Y9229043D01*
X52044516Y9229045D01*
X52257369Y9302117D01*
X52257371Y9302119D01*
X52455298Y9409231D01*
X52475687Y9425102D01*
X51837587Y10063203D01*
X51852315Y10065320D01*
X51983100Y10125048D01*
X52091761Y10219202D01*
X52169493Y10340156D01*
X52194361Y10424850D01*
X52833077Y9786134D01*
X52908419Y9901451D01*
X52924616Y9938377D01*
X52970296Y9992726D01*
X53038108Y10013751D01*
X53106522Y9994776D01*
X53153817Y9941826D01*
X53154198Y9941017D01*
X53162897Y9922362D01*
X53258285Y9786134D01*
X53288402Y9743123D01*
X53443123Y9588402D01*
X53622361Y9462898D01*
X53820670Y9370425D01*
X54032023Y9313793D01*
X54250000Y9294723D01*
X54467977Y9313793D01*
X54679330Y9370425D01*
X54877639Y9462898D01*
X55056877Y9588402D01*
X55211598Y9743123D01*
X55337102Y9922361D01*
X55345800Y9941015D01*
X55392715Y9994299D01*
X55460992Y10013761D01*
X55528953Y9993220D01*
X55575019Y9939198D01*
X55575382Y9938379D01*
X55591580Y9901452D01*
X55666921Y9786134D01*
X56305638Y10424851D01*
X56330507Y10340156D01*
X56408239Y10219202D01*
X56516900Y10125048D01*
X56647685Y10065320D01*
X56662411Y10063203D01*
X56024310Y9425102D01*
X56044697Y9409234D01*
X56044701Y9409232D01*
X56242628Y9302118D01*
X56242630Y9302117D01*
X56455483Y9229045D01*
X56455490Y9229043D01*
X56677477Y9192000D01*
X56902523Y9192000D01*
X57124509Y9229043D01*
X57124516Y9229045D01*
X57337369Y9302117D01*
X57337371Y9302119D01*
X57535298Y9409231D01*
X57555687Y9425102D01*
X56917587Y10063203D01*
X56932315Y10065320D01*
X57063100Y10125048D01*
X57171761Y10219202D01*
X57249493Y10340156D01*
X57274361Y10424850D01*
X57913077Y9786134D01*
X57988419Y9901451D01*
X58004616Y9938377D01*
X58050296Y9992726D01*
X58118108Y10013751D01*
X58186522Y9994776D01*
X58233817Y9941826D01*
X58234198Y9941017D01*
X58242897Y9922362D01*
X58338285Y9786134D01*
X58368402Y9743123D01*
X58523123Y9588402D01*
X58702361Y9462898D01*
X58900670Y9370425D01*
X59112023Y9313793D01*
X59330000Y9294723D01*
X59547977Y9313793D01*
X59759330Y9370425D01*
X59957639Y9462898D01*
X60136877Y9588402D01*
X60291598Y9743123D01*
X60417102Y9922361D01*
X60425800Y9941015D01*
X60472715Y9994299D01*
X60540992Y10013761D01*
X60608953Y9993220D01*
X60655019Y9939198D01*
X60655382Y9938379D01*
X60671580Y9901452D01*
X60746921Y9786134D01*
X61385638Y10424851D01*
X61410507Y10340156D01*
X61488239Y10219202D01*
X61596900Y10125048D01*
X61727685Y10065320D01*
X61742411Y10063203D01*
X61104310Y9425102D01*
X61124697Y9409234D01*
X61124701Y9409232D01*
X61322628Y9302118D01*
X61322630Y9302117D01*
X61535483Y9229045D01*
X61535490Y9229043D01*
X61757477Y9192000D01*
X61982523Y9192000D01*
X62204509Y9229043D01*
X62204516Y9229045D01*
X62417369Y9302117D01*
X62417371Y9302119D01*
X62615298Y9409231D01*
X62635687Y9425102D01*
X61997587Y10063203D01*
X62012315Y10065320D01*
X62143100Y10125048D01*
X62251761Y10219202D01*
X62329493Y10340156D01*
X62354361Y10424850D01*
X62993077Y9786134D01*
X63068419Y9901451D01*
X63084616Y9938377D01*
X63130296Y9992726D01*
X63198108Y10013751D01*
X63266522Y9994776D01*
X63313817Y9941826D01*
X63314198Y9941017D01*
X63322897Y9922362D01*
X63418285Y9786134D01*
X63448402Y9743123D01*
X63603123Y9588402D01*
X63782361Y9462898D01*
X63980670Y9370425D01*
X64192023Y9313793D01*
X64410000Y9294723D01*
X64627977Y9313793D01*
X64839330Y9370425D01*
X65037639Y9462898D01*
X65216877Y9588402D01*
X65371598Y9743123D01*
X65497102Y9922361D01*
X65589575Y10120670D01*
X65646207Y10332023D01*
X65665277Y10550000D01*
X65646207Y10767977D01*
X65589575Y10979330D01*
X65497102Y11177638D01*
X65497101Y11177640D01*
X65497100Y11177642D01*
X65371604Y11356869D01*
X65371601Y11356873D01*
X65371598Y11356877D01*
X65216877Y11511598D01*
X65075932Y11610289D01*
X65031605Y11665745D01*
X65024296Y11736364D01*
X65056327Y11799725D01*
X65117528Y11835710D01*
X65148203Y11839501D01*
X65291518Y11839501D01*
X65385304Y11854354D01*
X65498342Y11911950D01*
X65588050Y12001658D01*
X65645646Y12114696D01*
X65660500Y12208481D01*
X65660499Y13971518D01*
X65645646Y14065304D01*
X65616848Y14121823D01*
X65588050Y14178343D01*
X65498342Y14268051D01*
X65422502Y14306693D01*
X65385304Y14325646D01*
X65291519Y14340500D01*
X65291515Y14340500D01*
X63528483Y14340500D01*
X63434697Y14325647D01*
X63321657Y14268051D01*
X63231949Y14178343D01*
X63174355Y14065306D01*
X63174354Y14065304D01*
X63159500Y13971519D01*
X63159500Y13971516D01*
X63159500Y13828206D01*
X63139498Y13760085D01*
X63085842Y13713592D01*
X63015568Y13703488D01*
X62950988Y13732982D01*
X62930287Y13755935D01*
X62831600Y13896874D01*
X62831595Y13896880D01*
X62676879Y14051596D01*
X62676873Y14051601D01*
X62497639Y14177102D01*
X62299333Y14269574D01*
X62299328Y14269576D01*
X62221967Y14290305D01*
X62087977Y14326207D01*
X61870000Y14345277D01*
X61652023Y14326207D01*
X61562696Y14302272D01*
X61440671Y14269576D01*
X61440667Y14269574D01*
X61242358Y14177101D01*
X61063131Y14051605D01*
X61063120Y14051596D01*
X60908404Y13896880D01*
X60908395Y13896869D01*
X60782899Y13717642D01*
X60714195Y13570305D01*
X60667277Y13517020D01*
X60599000Y13497559D01*
X60531040Y13518101D01*
X60485805Y13570305D01*
X60417100Y13717642D01*
X60291604Y13896869D01*
X60291600Y13896874D01*
X60291598Y13896877D01*
X60136877Y14051598D01*
X60117304Y14065303D01*
X59957639Y14177102D01*
X59759333Y14269574D01*
X59759328Y14269576D01*
X59681967Y14290305D01*
X59547977Y14326207D01*
X59330000Y14345277D01*
X59112023Y14326207D01*
X59022696Y14302272D01*
X58900671Y14269576D01*
X58900667Y14269574D01*
X58702358Y14177101D01*
X58523131Y14051605D01*
X58523120Y14051596D01*
X58368404Y13896880D01*
X58368395Y13896869D01*
X58242899Y13717642D01*
X58174195Y13570305D01*
X58127277Y13517020D01*
X58059000Y13497559D01*
X57991040Y13518101D01*
X57945805Y13570305D01*
X57877100Y13717642D01*
X57751604Y13896869D01*
X57751600Y13896874D01*
X57751598Y13896877D01*
X57596877Y14051598D01*
X57577304Y14065303D01*
X57417639Y14177102D01*
X57219333Y14269574D01*
X57219328Y14269576D01*
X57141967Y14290305D01*
X57007977Y14326207D01*
X56790000Y14345277D01*
X56572023Y14326207D01*
X56482696Y14302272D01*
X56360671Y14269576D01*
X56360667Y14269574D01*
X56162358Y14177101D01*
X55983131Y14051605D01*
X55983120Y14051596D01*
X55828404Y13896880D01*
X55828395Y13896869D01*
X55702899Y13717642D01*
X55634195Y13570305D01*
X55587277Y13517020D01*
X55519000Y13497559D01*
X55451040Y13518101D01*
X55405805Y13570305D01*
X55337100Y13717642D01*
X55211604Y13896869D01*
X55211600Y13896874D01*
X55211598Y13896877D01*
X55056877Y14051598D01*
X55037304Y14065303D01*
X54877639Y14177102D01*
X54679333Y14269574D01*
X54679328Y14269576D01*
X54601967Y14290305D01*
X54467977Y14326207D01*
X54250000Y14345277D01*
X54032023Y14326207D01*
X53942696Y14302272D01*
X53820671Y14269576D01*
X53820667Y14269574D01*
X53622358Y14177101D01*
X53443131Y14051605D01*
X53443120Y14051596D01*
X53288404Y13896880D01*
X53288395Y13896869D01*
X53162899Y13717642D01*
X53094195Y13570305D01*
X53047277Y13517020D01*
X52979000Y13497559D01*
X52911040Y13518101D01*
X52865805Y13570305D01*
X52797100Y13717642D01*
X52671604Y13896869D01*
X52671600Y13896874D01*
X52671598Y13896877D01*
X52516877Y14051598D01*
X52497304Y14065303D01*
X52337639Y14177102D01*
X52139333Y14269574D01*
X52139328Y14269576D01*
X52061967Y14290305D01*
X51927977Y14326207D01*
X51710000Y14345277D01*
X51492023Y14326207D01*
X51402696Y14302272D01*
X51280671Y14269576D01*
X51280667Y14269574D01*
X51082358Y14177101D01*
X50903131Y14051605D01*
X50903120Y14051596D01*
X50748404Y13896880D01*
X50748395Y13896869D01*
X50622899Y13717642D01*
X50554195Y13570305D01*
X50507277Y13517020D01*
X50439000Y13497559D01*
X50371040Y13518101D01*
X50325805Y13570305D01*
X50257100Y13717642D01*
X50131604Y13896869D01*
X50131600Y13896874D01*
X50131598Y13896877D01*
X49976877Y14051598D01*
X49957304Y14065303D01*
X49797639Y14177102D01*
X49599333Y14269574D01*
X49599328Y14269576D01*
X49521967Y14290305D01*
X49387977Y14326207D01*
X49170000Y14345277D01*
X48952023Y14326207D01*
X48862696Y14302272D01*
X48740671Y14269576D01*
X48740667Y14269574D01*
X48542358Y14177101D01*
X48363131Y14051605D01*
X48363120Y14051596D01*
X48208404Y13896880D01*
X48208395Y13896869D01*
X48082899Y13717642D01*
X48014195Y13570305D01*
X47967277Y13517020D01*
X47899000Y13497559D01*
X47831040Y13518101D01*
X47785805Y13570305D01*
X47717100Y13717642D01*
X47591604Y13896869D01*
X47591600Y13896874D01*
X47591598Y13896877D01*
X47436877Y14051598D01*
X47417304Y14065303D01*
X47257639Y14177102D01*
X47059333Y14269574D01*
X47059328Y14269576D01*
X46981967Y14290305D01*
X46847977Y14326207D01*
X46630000Y14345277D01*
X46412023Y14326207D01*
X46322696Y14302272D01*
X46200671Y14269576D01*
X46200667Y14269574D01*
X46002358Y14177101D01*
X45823131Y14051605D01*
X45823120Y14051596D01*
X45668404Y13896880D01*
X45668395Y13896869D01*
X45542899Y13717642D01*
X45474195Y13570305D01*
X45427277Y13517020D01*
X45359000Y13497559D01*
X45291040Y13518101D01*
X45245805Y13570305D01*
X45177100Y13717642D01*
X45051604Y13896869D01*
X45051600Y13896874D01*
X45051598Y13896877D01*
X44896877Y14051598D01*
X44877304Y14065303D01*
X44717639Y14177102D01*
X44519333Y14269574D01*
X44519328Y14269576D01*
X44441967Y14290305D01*
X44307977Y14326207D01*
X44090000Y14345277D01*
X43872023Y14326207D01*
X43782696Y14302272D01*
X43660671Y14269576D01*
X43660667Y14269574D01*
X43462358Y14177101D01*
X43283131Y14051605D01*
X43283120Y14051596D01*
X43128404Y13896880D01*
X43128395Y13896869D01*
X43002899Y13717642D01*
X42934195Y13570305D01*
X42887277Y13517020D01*
X42819000Y13497559D01*
X42751040Y13518101D01*
X42705805Y13570305D01*
X42637100Y13717642D01*
X42511604Y13896869D01*
X42511600Y13896874D01*
X42511598Y13896877D01*
X42356877Y14051598D01*
X42337304Y14065303D01*
X42177639Y14177102D01*
X41979333Y14269574D01*
X41979328Y14269576D01*
X41901967Y14290305D01*
X41767977Y14326207D01*
X41550000Y14345277D01*
X41332023Y14326207D01*
X41242696Y14302272D01*
X41120671Y14269576D01*
X41120667Y14269574D01*
X40922358Y14177101D01*
X40743131Y14051605D01*
X40743120Y14051596D01*
X40588404Y13896880D01*
X40588395Y13896869D01*
X40462899Y13717642D01*
X40394195Y13570305D01*
X40347277Y13517020D01*
X40279000Y13497559D01*
X40211040Y13518101D01*
X40165805Y13570305D01*
X40097100Y13717642D01*
X39971604Y13896869D01*
X39971600Y13896874D01*
X39971598Y13896877D01*
X39816877Y14051598D01*
X39797304Y14065303D01*
X39637639Y14177102D01*
X39439333Y14269574D01*
X39439328Y14269576D01*
X39361967Y14290305D01*
X39227977Y14326207D01*
X39010000Y14345277D01*
X38792023Y14326207D01*
X38702696Y14302272D01*
X38580671Y14269576D01*
X38580667Y14269574D01*
X38382358Y14177101D01*
X38203131Y14051605D01*
X38203120Y14051596D01*
X38048404Y13896880D01*
X38048395Y13896869D01*
X37922899Y13717642D01*
X37854195Y13570305D01*
X37807277Y13517020D01*
X37739000Y13497559D01*
X37671040Y13518101D01*
X37625805Y13570305D01*
X37557100Y13717642D01*
X37431604Y13896869D01*
X37431600Y13896874D01*
X37431598Y13896877D01*
X37276877Y14051598D01*
X37257304Y14065303D01*
X37097639Y14177102D01*
X36899333Y14269574D01*
X36899328Y14269576D01*
X36821967Y14290305D01*
X36687977Y14326207D01*
X36470000Y14345277D01*
X36252023Y14326207D01*
X36162696Y14302272D01*
X36040671Y14269576D01*
X36040667Y14269574D01*
X35842358Y14177101D01*
X35663131Y14051605D01*
X35663120Y14051596D01*
X35508404Y13896880D01*
X35508395Y13896869D01*
X35382899Y13717642D01*
X35314195Y13570305D01*
X35267277Y13517020D01*
X35199000Y13497559D01*
X35131040Y13518101D01*
X35085805Y13570305D01*
X35017100Y13717642D01*
X34891604Y13896869D01*
X34891600Y13896874D01*
X34891598Y13896877D01*
X34736877Y14051598D01*
X34717304Y14065303D01*
X34557639Y14177102D01*
X34359333Y14269574D01*
X34359328Y14269576D01*
X34281967Y14290305D01*
X34147977Y14326207D01*
X33930000Y14345277D01*
X33712023Y14326207D01*
X33622696Y14302272D01*
X33500671Y14269576D01*
X33500667Y14269574D01*
X33302358Y14177101D01*
X33123131Y14051605D01*
X33123120Y14051596D01*
X32968404Y13896880D01*
X32968395Y13896869D01*
X32842899Y13717642D01*
X32774195Y13570305D01*
X32727277Y13517020D01*
X32659000Y13497559D01*
X32591040Y13518101D01*
X32545805Y13570305D01*
X32477100Y13717642D01*
X32351604Y13896869D01*
X32351600Y13896874D01*
X32351598Y13896877D01*
X32196877Y14051598D01*
X32177304Y14065303D01*
X32017639Y14177102D01*
X31819333Y14269574D01*
X31819328Y14269576D01*
X31741967Y14290305D01*
X31607977Y14326207D01*
X31390000Y14345277D01*
X31172023Y14326207D01*
X31082696Y14302272D01*
X30960671Y14269576D01*
X30960667Y14269574D01*
X30762358Y14177101D01*
X30583131Y14051605D01*
X30583120Y14051596D01*
X30428404Y13896880D01*
X30428395Y13896869D01*
X30302899Y13717642D01*
X30234195Y13570305D01*
X30187277Y13517020D01*
X30119000Y13497559D01*
X30051040Y13518101D01*
X30005805Y13570305D01*
X29937100Y13717642D01*
X29811604Y13896869D01*
X29811600Y13896874D01*
X29811598Y13896877D01*
X29656877Y14051598D01*
X29637304Y14065303D01*
X29477639Y14177102D01*
X29279333Y14269574D01*
X29279328Y14269576D01*
X29201967Y14290305D01*
X29067977Y14326207D01*
X28850000Y14345277D01*
X28632023Y14326207D01*
X28542696Y14302272D01*
X28420671Y14269576D01*
X28420667Y14269574D01*
X28222358Y14177101D01*
X28043131Y14051605D01*
X28043120Y14051596D01*
X27888404Y13896880D01*
X27888395Y13896869D01*
X27762899Y13717642D01*
X27694195Y13570305D01*
X27647277Y13517020D01*
X27579000Y13497559D01*
X27511040Y13518101D01*
X27465805Y13570305D01*
X27397100Y13717642D01*
X27271604Y13896869D01*
X27271600Y13896874D01*
X27271598Y13896877D01*
X27116877Y14051598D01*
X27097304Y14065303D01*
X26937639Y14177102D01*
X26739333Y14269574D01*
X26739328Y14269576D01*
X26661967Y14290305D01*
X26527977Y14326207D01*
X26310000Y14345277D01*
X26092023Y14326207D01*
X26002696Y14302272D01*
X25880671Y14269576D01*
X25880667Y14269574D01*
X25682358Y14177101D01*
X25503131Y14051605D01*
X25503120Y14051596D01*
X25348404Y13896880D01*
X25348395Y13896869D01*
X25222899Y13717642D01*
X25154195Y13570305D01*
X25107277Y13517020D01*
X25039000Y13497559D01*
X24971040Y13518101D01*
X24925805Y13570305D01*
X24857100Y13717642D01*
X24731604Y13896869D01*
X24731600Y13896874D01*
X24731598Y13896877D01*
X24576877Y14051598D01*
X24557304Y14065303D01*
X24397639Y14177102D01*
X24199333Y14269574D01*
X24199328Y14269576D01*
X24121967Y14290305D01*
X23987977Y14326207D01*
X23770000Y14345277D01*
X23552023Y14326207D01*
X23462696Y14302272D01*
X23340671Y14269576D01*
X23340667Y14269574D01*
X23142358Y14177101D01*
X22963131Y14051605D01*
X22963120Y14051596D01*
X22808404Y13896880D01*
X22808395Y13896869D01*
X22682899Y13717642D01*
X22614195Y13570305D01*
X22567277Y13517020D01*
X22499000Y13497559D01*
X22431040Y13518101D01*
X22385805Y13570305D01*
X22317100Y13717642D01*
X22191604Y13896869D01*
X22191600Y13896874D01*
X22191598Y13896877D01*
X22036877Y14051598D01*
X22017304Y14065303D01*
X21857639Y14177102D01*
X21659333Y14269574D01*
X21659328Y14269576D01*
X21581967Y14290305D01*
X21447977Y14326207D01*
X21230000Y14345277D01*
X21012023Y14326207D01*
X20922696Y14302272D01*
X20800671Y14269576D01*
X20800667Y14269574D01*
X20602358Y14177101D01*
X20423131Y14051605D01*
X20423120Y14051596D01*
X20268404Y13896880D01*
X20268395Y13896869D01*
X20142899Y13717642D01*
X20074195Y13570305D01*
X20027277Y13517020D01*
X19959000Y13497559D01*
X19891040Y13518101D01*
X19845805Y13570305D01*
X19777100Y13717642D01*
X19651604Y13896869D01*
X19651600Y13896874D01*
X19651598Y13896877D01*
X19496877Y14051598D01*
X19477304Y14065303D01*
X19317639Y14177102D01*
X19119333Y14269574D01*
X19119328Y14269576D01*
X19041967Y14290305D01*
X18907977Y14326207D01*
X18690000Y14345277D01*
X18472023Y14326207D01*
X18382696Y14302272D01*
X18260671Y14269576D01*
X18260667Y14269574D01*
X18062358Y14177101D01*
X17883131Y14051605D01*
X17883120Y14051596D01*
X17728404Y13896880D01*
X17728395Y13896869D01*
X17602899Y13717642D01*
X17534195Y13570305D01*
X17487277Y13517020D01*
X17419000Y13497559D01*
X17351040Y13518101D01*
X17305805Y13570305D01*
X17237100Y13717642D01*
X17111604Y13896869D01*
X17111600Y13896874D01*
X17111598Y13896877D01*
X16956877Y14051598D01*
X16937304Y14065303D01*
X16777639Y14177102D01*
X16579333Y14269574D01*
X16579328Y14269576D01*
X16501967Y14290305D01*
X16367977Y14326207D01*
X16150000Y14345277D01*
X15932023Y14326207D01*
X15842696Y14302272D01*
X15720671Y14269576D01*
X15720667Y14269574D01*
X15522358Y14177101D01*
X15343131Y14051605D01*
X15343120Y14051596D01*
X15188404Y13896880D01*
X15188395Y13896869D01*
X15062899Y13717642D01*
X14970426Y13519333D01*
X14970424Y13519329D01*
X14964591Y13497559D01*
X14913793Y13307977D01*
X14894723Y13090000D01*
X14913793Y12872023D01*
X14949695Y12738033D01*
X14970424Y12660672D01*
X14970426Y12660667D01*
X15056676Y12475704D01*
X15062898Y12462361D01*
X15188402Y12283123D01*
X15343123Y12128402D01*
X15522361Y12002898D01*
X15661485Y11938024D01*
X15669695Y11934195D01*
X15722980Y11887278D01*
X15742441Y11819000D01*
X15721899Y11751040D01*
X15669695Y11705805D01*
X15522358Y11637101D01*
X15343131Y11511605D01*
X15343120Y11511596D01*
X15188404Y11356880D01*
X15188395Y11356869D01*
X15062899Y11177642D01*
X14970426Y10979333D01*
X14970424Y10979329D01*
X14944023Y10880798D01*
X14913793Y10767977D01*
X14894723Y10550000D01*
X700500Y10550000D01*
X700500Y16300000D01*
X57294435Y16300000D01*
X57314632Y16120745D01*
X57314633Y16120743D01*
X57374211Y15950478D01*
X57374212Y15950475D01*
X57470182Y15797740D01*
X57470183Y15797738D01*
X57597737Y15670184D01*
X57597739Y15670183D01*
X57750474Y15574213D01*
X57750475Y15574213D01*
X57750478Y15574211D01*
X57920745Y15514632D01*
X58100000Y15494435D01*
X58279255Y15514632D01*
X58449522Y15574211D01*
X58602262Y15670184D01*
X58729816Y15797738D01*
X58825789Y15950478D01*
X58885368Y16120745D01*
X58905565Y16300000D01*
X58885368Y16479255D01*
X58825789Y16649522D01*
X58825787Y16649525D01*
X58825787Y16649526D01*
X58729817Y16802261D01*
X58729816Y16802263D01*
X58602262Y16929817D01*
X58602260Y16929818D01*
X58449525Y17025788D01*
X58449522Y17025789D01*
X58279255Y17085368D01*
X58100000Y17105565D01*
X57920745Y17085368D01*
X57920742Y17085368D01*
X57920742Y17085367D01*
X57750477Y17025789D01*
X57750474Y17025788D01*
X57597739Y16929818D01*
X57597737Y16929817D01*
X57470183Y16802263D01*
X57470182Y16802261D01*
X57374212Y16649526D01*
X57374211Y16649523D01*
X57374211Y16649522D01*
X57314632Y16479255D01*
X57294435Y16300000D01*
X700500Y16300000D01*
X700500Y17800000D01*
X22044435Y17800000D01*
X22064632Y17620745D01*
X22064633Y17620743D01*
X22124211Y17450478D01*
X22124212Y17450475D01*
X22220182Y17297740D01*
X22220183Y17297738D01*
X22347737Y17170184D01*
X22347739Y17170183D01*
X22500474Y17074213D01*
X22500475Y17074213D01*
X22500478Y17074211D01*
X22670745Y17014632D01*
X22850000Y16994435D01*
X23029255Y17014632D01*
X23199522Y17074211D01*
X23352262Y17170184D01*
X23479816Y17297738D01*
X23575789Y17450478D01*
X23635368Y17620745D01*
X23655565Y17800000D01*
X70294435Y17800000D01*
X70314632Y17620745D01*
X70314633Y17620743D01*
X70374211Y17450478D01*
X70374212Y17450475D01*
X70470182Y17297740D01*
X70470183Y17297738D01*
X70597737Y17170184D01*
X70597739Y17170183D01*
X70750474Y17074213D01*
X70750475Y17074213D01*
X70750478Y17074211D01*
X70920745Y17014632D01*
X71100000Y16994435D01*
X71279255Y17014632D01*
X71449522Y17074211D01*
X71602262Y17170184D01*
X71729816Y17297738D01*
X71825789Y17450478D01*
X71885368Y17620745D01*
X71905565Y17800000D01*
X71885368Y17979255D01*
X71825789Y18149522D01*
X71825787Y18149525D01*
X71825787Y18149526D01*
X71729817Y18302261D01*
X71729816Y18302263D01*
X71602262Y18429817D01*
X71602260Y18429818D01*
X71449525Y18525788D01*
X71449522Y18525789D01*
X71425479Y18534202D01*
X71279255Y18585368D01*
X71100000Y18605565D01*
X70920745Y18585368D01*
X70920742Y18585368D01*
X70920742Y18585367D01*
X70750477Y18525789D01*
X70750474Y18525788D01*
X70597739Y18429818D01*
X70597737Y18429817D01*
X70470183Y18302263D01*
X70470182Y18302261D01*
X70374212Y18149526D01*
X70374211Y18149523D01*
X70374211Y18149522D01*
X70314632Y17979255D01*
X70294435Y17800000D01*
X23655565Y17800000D01*
X23635368Y17979255D01*
X23575789Y18149522D01*
X23575787Y18149525D01*
X23575787Y18149526D01*
X23479817Y18302261D01*
X23479816Y18302263D01*
X23352262Y18429817D01*
X23352260Y18429818D01*
X23199525Y18525788D01*
X23199522Y18525789D01*
X23175479Y18534202D01*
X23029255Y18585368D01*
X22850000Y18605565D01*
X22670745Y18585368D01*
X22670742Y18585368D01*
X22670742Y18585367D01*
X22500477Y18525789D01*
X22500474Y18525788D01*
X22347739Y18429818D01*
X22347737Y18429817D01*
X22220183Y18302263D01*
X22220182Y18302261D01*
X22124212Y18149526D01*
X22124211Y18149523D01*
X22124211Y18149522D01*
X22064632Y17979255D01*
X22044435Y17800000D01*
X700500Y17800000D01*
X700500Y18611000D01*
X75263455Y18611000D01*
X75311176Y18422551D01*
X75311179Y18422544D01*
X75401580Y18216452D01*
X75524674Y18028042D01*
X75677097Y17862466D01*
X75761195Y17797010D01*
X75802666Y17739385D01*
X75806400Y17668487D01*
X75771210Y17606824D01*
X75708270Y17573976D01*
X75703514Y17573129D01*
X75624696Y17560647D01*
X75511657Y17503051D01*
X75421949Y17413343D01*
X75364355Y17300306D01*
X75364354Y17300304D01*
X75363948Y17297738D01*
X75349500Y17206516D01*
X75349500Y15443484D01*
X75364353Y15349698D01*
X75421949Y15236658D01*
X75511657Y15146950D01*
X75550299Y15127262D01*
X75624696Y15089354D01*
X75718481Y15074500D01*
X77481518Y15074501D01*
X77575304Y15089354D01*
X77688342Y15146950D01*
X77778050Y15236658D01*
X77835646Y15349696D01*
X77850500Y15443481D01*
X77850499Y17206518D01*
X77835646Y17300304D01*
X77806848Y17356823D01*
X77778050Y17413343D01*
X77688342Y17503051D01*
X77612502Y17541693D01*
X77575304Y17560646D01*
X77496482Y17573130D01*
X77432332Y17603542D01*
X77394805Y17663810D01*
X77395819Y17734799D01*
X77435052Y17793971D01*
X77438805Y17797010D01*
X77522902Y17862466D01*
X77675325Y18028042D01*
X77798419Y18216452D01*
X77888820Y18422544D01*
X77888823Y18422551D01*
X77936544Y18611000D01*
X77031116Y18611000D01*
X77059493Y18655156D01*
X77100000Y18793111D01*
X77100000Y18936889D01*
X77059493Y19074844D01*
X77031116Y19119000D01*
X77936544Y19119000D01*
X77936544Y19119001D01*
X77888823Y19307450D01*
X77888820Y19307457D01*
X77798419Y19513549D01*
X77675325Y19701959D01*
X77522902Y19867535D01*
X77345301Y20005768D01*
X77345300Y20005769D01*
X77147371Y20112883D01*
X77147369Y20112884D01*
X76934512Y20185957D01*
X76934501Y20185960D01*
X76854000Y20199394D01*
X76854000Y19298675D01*
X76742315Y19349680D01*
X76635763Y19365000D01*
X76564237Y19365000D01*
X76457685Y19349680D01*
X76346000Y19298675D01*
X76346000Y20199393D01*
X76345999Y20199394D01*
X76265498Y20185960D01*
X76265487Y20185957D01*
X76052630Y20112884D01*
X76052628Y20112883D01*
X75854699Y20005769D01*
X75854698Y20005768D01*
X75677097Y19867535D01*
X75524674Y19701959D01*
X75401580Y19513549D01*
X75311179Y19307457D01*
X75311176Y19307450D01*
X75263455Y19119001D01*
X75263456Y19119000D01*
X76168884Y19119000D01*
X76140507Y19074844D01*
X76100000Y18936889D01*
X76100000Y18793111D01*
X76140507Y18655156D01*
X76168884Y18611000D01*
X75263455Y18611000D01*
X700500Y18611000D01*
X700500Y20800000D01*
X9294435Y20800000D01*
X9314632Y20620745D01*
X9358830Y20494435D01*
X9374211Y20450478D01*
X9374212Y20450475D01*
X9470182Y20297740D01*
X9470183Y20297738D01*
X9597737Y20170184D01*
X9597739Y20170183D01*
X9750474Y20074213D01*
X9750475Y20074213D01*
X9750478Y20074211D01*
X9920745Y20014632D01*
X10100000Y19994435D01*
X10279255Y20014632D01*
X10449522Y20074211D01*
X10602262Y20170184D01*
X10729816Y20297738D01*
X10825789Y20450478D01*
X10881071Y20608468D01*
X10922449Y20666158D01*
X10988449Y20692320D01*
X11058117Y20678647D01*
X11109333Y20629480D01*
X11118927Y20608470D01*
X11158830Y20494435D01*
X11174211Y20450478D01*
X11174212Y20450475D01*
X11270182Y20297740D01*
X11270183Y20297738D01*
X11397737Y20170184D01*
X11397739Y20170183D01*
X11550474Y20074213D01*
X11550475Y20074213D01*
X11550478Y20074211D01*
X11720745Y20014632D01*
X11900000Y19994435D01*
X12079255Y20014632D01*
X12180331Y20050000D01*
X24544435Y20050000D01*
X24564632Y19870745D01*
X24623693Y19701959D01*
X24624211Y19700478D01*
X24624212Y19700475D01*
X24720182Y19547740D01*
X24720183Y19547738D01*
X24847737Y19420184D01*
X24847739Y19420183D01*
X25000474Y19324213D01*
X25000475Y19324213D01*
X25000478Y19324211D01*
X25170745Y19264632D01*
X25350000Y19244435D01*
X25529255Y19264632D01*
X25699522Y19324211D01*
X25852262Y19420184D01*
X25979816Y19547738D01*
X26075789Y19700478D01*
X26135368Y19870745D01*
X26155565Y20050000D01*
X26135368Y20229255D01*
X26075789Y20399522D01*
X26075787Y20399525D01*
X26075787Y20399526D01*
X25979817Y20552261D01*
X25979816Y20552263D01*
X25852262Y20679817D01*
X25852260Y20679818D01*
X25699525Y20775788D01*
X25699522Y20775789D01*
X25636795Y20797738D01*
X25529255Y20835368D01*
X25350000Y20855565D01*
X25170745Y20835368D01*
X25170742Y20835368D01*
X25170742Y20835367D01*
X25000477Y20775789D01*
X25000474Y20775788D01*
X24847739Y20679818D01*
X24847737Y20679817D01*
X24720183Y20552263D01*
X24720182Y20552261D01*
X24624212Y20399526D01*
X24624211Y20399523D01*
X24624211Y20399522D01*
X24564632Y20229255D01*
X24544435Y20050000D01*
X12180331Y20050000D01*
X12249522Y20074211D01*
X12402262Y20170184D01*
X12529816Y20297738D01*
X12625789Y20450478D01*
X12685368Y20620745D01*
X12705565Y20800000D01*
X12685368Y20979255D01*
X12625789Y21149522D01*
X12625787Y21149525D01*
X12625787Y21149526D01*
X12531238Y21300000D01*
X47544435Y21300000D01*
X47564632Y21120745D01*
X47617198Y20970521D01*
X47624211Y20950478D01*
X47624212Y20950475D01*
X47720182Y20797740D01*
X47720183Y20797738D01*
X47847737Y20670184D01*
X47847739Y20670183D01*
X48000474Y20574213D01*
X48000475Y20574213D01*
X48000478Y20574211D01*
X48170745Y20514632D01*
X48350000Y20494435D01*
X48529255Y20514632D01*
X48699522Y20574211D01*
X48852262Y20670184D01*
X48979816Y20797738D01*
X49075789Y20950478D01*
X49135368Y21120745D01*
X49155565Y21300000D01*
X49135368Y21479255D01*
X49075789Y21649522D01*
X49075787Y21649525D01*
X49075787Y21649526D01*
X48979817Y21802261D01*
X48979816Y21802263D01*
X48852262Y21929817D01*
X48852260Y21929818D01*
X48699525Y22025788D01*
X48699522Y22025789D01*
X48636795Y22047738D01*
X48529255Y22085368D01*
X48350000Y22105565D01*
X48170745Y22085368D01*
X48170742Y22085368D01*
X48170742Y22085367D01*
X48000477Y22025789D01*
X48000474Y22025788D01*
X47847739Y21929818D01*
X47847737Y21929817D01*
X47720183Y21802263D01*
X47720182Y21802261D01*
X47624212Y21649526D01*
X47624211Y21649523D01*
X47577012Y21514634D01*
X47564632Y21479255D01*
X47544435Y21300000D01*
X12531238Y21300000D01*
X12529817Y21302261D01*
X12529816Y21302263D01*
X12402262Y21429817D01*
X12402260Y21429818D01*
X12249525Y21525788D01*
X12249522Y21525789D01*
X12191156Y21546212D01*
X12079255Y21585368D01*
X11900000Y21605565D01*
X11720745Y21585368D01*
X11720742Y21585368D01*
X11720742Y21585367D01*
X11550477Y21525789D01*
X11550474Y21525788D01*
X11397739Y21429818D01*
X11397737Y21429817D01*
X11270183Y21302263D01*
X11270182Y21302261D01*
X11174212Y21149526D01*
X11174211Y21149523D01*
X11118929Y20991535D01*
X11077551Y20933843D01*
X11011551Y20907681D01*
X10941883Y20921354D01*
X10890667Y20970521D01*
X10881071Y20991535D01*
X10835859Y21120743D01*
X10825789Y21149522D01*
X10825787Y21149525D01*
X10825787Y21149526D01*
X10729817Y21302261D01*
X10729816Y21302263D01*
X10602262Y21429817D01*
X10602260Y21429818D01*
X10449525Y21525788D01*
X10449522Y21525789D01*
X10391156Y21546212D01*
X10279255Y21585368D01*
X10100000Y21605565D01*
X9920745Y21585368D01*
X9920742Y21585368D01*
X9920742Y21585367D01*
X9750477Y21525789D01*
X9750474Y21525788D01*
X9597739Y21429818D01*
X9597737Y21429817D01*
X9470183Y21302263D01*
X9470182Y21302261D01*
X9374212Y21149526D01*
X9374211Y21149523D01*
X9318929Y20991535D01*
X9314632Y20979255D01*
X9294435Y20800000D01*
X700500Y20800000D01*
X700500Y22300000D01*
X15294435Y22300000D01*
X15314632Y22120745D01*
X15374211Y21950478D01*
X15374212Y21950475D01*
X15470182Y21797740D01*
X15470183Y21797738D01*
X15597737Y21670184D01*
X15597739Y21670183D01*
X15750474Y21574213D01*
X15750475Y21574213D01*
X15750478Y21574211D01*
X15920745Y21514632D01*
X16100000Y21494435D01*
X16279255Y21514632D01*
X16449522Y21574211D01*
X16602262Y21670184D01*
X16729816Y21797738D01*
X16825789Y21950478D01*
X16885368Y22120745D01*
X16905565Y22300000D01*
X16885368Y22479255D01*
X16860613Y22550000D01*
X19794435Y22550000D01*
X19814632Y22370745D01*
X19814633Y22370743D01*
X19874211Y22200478D01*
X19874212Y22200475D01*
X19970182Y22047740D01*
X19970183Y22047738D01*
X20097737Y21920184D01*
X20097739Y21920183D01*
X20250474Y21824213D01*
X20250475Y21824213D01*
X20250478Y21824211D01*
X20420745Y21764632D01*
X20600000Y21744435D01*
X20779255Y21764632D01*
X20949522Y21824211D01*
X21102262Y21920184D01*
X21229816Y22047738D01*
X21325789Y22200478D01*
X21385368Y22370745D01*
X21405565Y22550000D01*
X21385368Y22729255D01*
X21325789Y22899522D01*
X21325787Y22899525D01*
X21325787Y22899526D01*
X21229817Y23052261D01*
X21229816Y23052263D01*
X21102262Y23179817D01*
X21102260Y23179818D01*
X20949525Y23275788D01*
X20949522Y23275789D01*
X20886795Y23297738D01*
X20779255Y23335368D01*
X20600000Y23355565D01*
X20420745Y23335368D01*
X20420742Y23335368D01*
X20420742Y23335367D01*
X20250477Y23275789D01*
X20250474Y23275788D01*
X20097739Y23179818D01*
X20097737Y23179817D01*
X19970183Y23052263D01*
X19970182Y23052261D01*
X19874212Y22899526D01*
X19874211Y22899523D01*
X19840178Y22802262D01*
X19814632Y22729255D01*
X19794435Y22550000D01*
X16860613Y22550000D01*
X16825789Y22649522D01*
X16825787Y22649525D01*
X16825787Y22649526D01*
X16729817Y22802261D01*
X16729816Y22802263D01*
X16602262Y22929817D01*
X16602260Y22929818D01*
X16449525Y23025788D01*
X16449522Y23025789D01*
X16386795Y23047738D01*
X16279255Y23085368D01*
X16100000Y23105565D01*
X15920745Y23085368D01*
X15920742Y23085368D01*
X15920742Y23085367D01*
X15750477Y23025789D01*
X15750474Y23025788D01*
X15597739Y22929818D01*
X15597737Y22929817D01*
X15470183Y22802263D01*
X15470182Y22802261D01*
X15374212Y22649526D01*
X15374211Y22649523D01*
X15332749Y22531031D01*
X15314632Y22479255D01*
X15294435Y22300000D01*
X700500Y22300000D01*
X700500Y23965000D01*
X16544435Y23965000D01*
X16564632Y23785745D01*
X16564633Y23785743D01*
X16624211Y23615478D01*
X16624212Y23615475D01*
X16720182Y23462740D01*
X16720183Y23462738D01*
X16847737Y23335184D01*
X16847739Y23335183D01*
X17000474Y23239213D01*
X17000475Y23239213D01*
X17000478Y23239211D01*
X17170745Y23179632D01*
X17350000Y23159435D01*
X17529255Y23179632D01*
X17699522Y23239211D01*
X17852262Y23335184D01*
X17979816Y23462738D01*
X18034646Y23550000D01*
X25544435Y23550000D01*
X25564632Y23370745D01*
X25577076Y23335183D01*
X25624211Y23200478D01*
X25624212Y23200475D01*
X25720182Y23047740D01*
X25720183Y23047738D01*
X25847737Y22920184D01*
X25847739Y22920183D01*
X26000474Y22824213D01*
X26000475Y22824213D01*
X26000478Y22824211D01*
X26170745Y22764632D01*
X26350000Y22744435D01*
X26529255Y22764632D01*
X26699522Y22824211D01*
X26740048Y22849676D01*
X26808368Y22868981D01*
X26876282Y22848286D01*
X26922225Y22794159D01*
X26931612Y22723786D01*
X26926014Y22701373D01*
X26925988Y22701300D01*
X26925988Y22701299D01*
X26866409Y22531032D01*
X26846212Y22351777D01*
X26866409Y22172522D01*
X26866410Y22172520D01*
X26925988Y22002255D01*
X26925989Y22002252D01*
X27021959Y21849517D01*
X27021960Y21849515D01*
X27149514Y21721961D01*
X27149516Y21721960D01*
X27302251Y21625990D01*
X27302252Y21625990D01*
X27302255Y21625988D01*
X27472522Y21566409D01*
X27651777Y21546212D01*
X27831032Y21566409D01*
X28001299Y21625988D01*
X28154039Y21721961D01*
X28281593Y21849515D01*
X28377566Y22002255D01*
X28437145Y22172522D01*
X28457342Y22351777D01*
X28437145Y22531032D01*
X28430508Y22550000D01*
X56294435Y22550000D01*
X56314632Y22370745D01*
X56314633Y22370743D01*
X56374211Y22200478D01*
X56374212Y22200475D01*
X56470182Y22047740D01*
X56470183Y22047738D01*
X56597737Y21920184D01*
X56597739Y21920183D01*
X56750474Y21824213D01*
X56750475Y21824213D01*
X56750478Y21824211D01*
X56920745Y21764632D01*
X57100000Y21744435D01*
X57279255Y21764632D01*
X57449522Y21824211D01*
X57452113Y21825840D01*
X57454027Y21826381D01*
X57455902Y21827283D01*
X57456059Y21826955D01*
X57520432Y21845150D01*
X57588346Y21824458D01*
X57634293Y21770334D01*
X57643684Y21699962D01*
X57627258Y21655914D01*
X57627283Y21655902D01*
X57627157Y21655642D01*
X57625847Y21652127D01*
X57624212Y21649525D01*
X57624211Y21649523D01*
X57577012Y21514634D01*
X57564632Y21479255D01*
X57544435Y21300000D01*
X57564632Y21120745D01*
X57617198Y20970521D01*
X57624211Y20950478D01*
X57624212Y20950475D01*
X57720182Y20797740D01*
X57720183Y20797738D01*
X57847737Y20670184D01*
X57847739Y20670183D01*
X58000474Y20574213D01*
X58000475Y20574213D01*
X58000478Y20574211D01*
X58170745Y20514632D01*
X58350000Y20494435D01*
X58529255Y20514632D01*
X58699522Y20574211D01*
X58852262Y20670184D01*
X58979816Y20797738D01*
X59075789Y20950478D01*
X59135368Y21120745D01*
X59155565Y21300000D01*
X59135368Y21479255D01*
X59075789Y21649522D01*
X59075787Y21649525D01*
X59075787Y21649526D01*
X58979817Y21802261D01*
X58979816Y21802263D01*
X58852262Y21929817D01*
X58852260Y21929818D01*
X58699525Y22025788D01*
X58699522Y22025789D01*
X58636795Y22047738D01*
X58529255Y22085368D01*
X58350000Y22105565D01*
X58170745Y22085368D01*
X58170742Y22085368D01*
X58170742Y22085367D01*
X58000477Y22025789D01*
X58000475Y22025788D01*
X57997873Y22024153D01*
X57995954Y22023612D01*
X57994098Y22022717D01*
X57993941Y22023043D01*
X57929550Y22004852D01*
X57861638Y22025552D01*
X57815699Y22079682D01*
X57806317Y22150056D01*
X57822742Y22194086D01*
X57822717Y22194098D01*
X57822850Y22194376D01*
X57824160Y22197886D01*
X57825789Y22200478D01*
X57860613Y22300000D01*
X74794435Y22300000D01*
X74814632Y22120745D01*
X74874211Y21950478D01*
X74874212Y21950475D01*
X74970182Y21797740D01*
X74970183Y21797738D01*
X75097737Y21670184D01*
X75097739Y21670183D01*
X75250474Y21574213D01*
X75250475Y21574213D01*
X75250478Y21574211D01*
X75420745Y21514632D01*
X75600000Y21494435D01*
X75779255Y21514632D01*
X75949522Y21574211D01*
X76102262Y21670184D01*
X76229816Y21797738D01*
X76325789Y21950478D01*
X76385368Y22120745D01*
X76405565Y22300000D01*
X76385368Y22479255D01*
X76325789Y22649522D01*
X76325787Y22649525D01*
X76325787Y22649526D01*
X76229817Y22802261D01*
X76229816Y22802263D01*
X76102262Y22929817D01*
X76102260Y22929818D01*
X75949525Y23025788D01*
X75949522Y23025789D01*
X75886795Y23047738D01*
X75779255Y23085368D01*
X75600000Y23105565D01*
X75420745Y23085368D01*
X75420742Y23085368D01*
X75420742Y23085367D01*
X75250477Y23025789D01*
X75250474Y23025788D01*
X75097739Y22929818D01*
X75097737Y22929817D01*
X74970183Y22802263D01*
X74970182Y22802261D01*
X74874212Y22649526D01*
X74874211Y22649523D01*
X74832749Y22531031D01*
X74814632Y22479255D01*
X74794435Y22300000D01*
X57860613Y22300000D01*
X57885368Y22370745D01*
X57905565Y22550000D01*
X57885368Y22729255D01*
X57825789Y22899522D01*
X57825787Y22899525D01*
X57825787Y22899526D01*
X57729817Y23052261D01*
X57729816Y23052263D01*
X57602262Y23179817D01*
X57602260Y23179818D01*
X57449525Y23275788D01*
X57449522Y23275789D01*
X57386795Y23297738D01*
X57279255Y23335368D01*
X57100000Y23355565D01*
X56920745Y23335368D01*
X56920742Y23335368D01*
X56920742Y23335367D01*
X56750477Y23275789D01*
X56750474Y23275788D01*
X56597739Y23179818D01*
X56597737Y23179817D01*
X56470183Y23052263D01*
X56470182Y23052261D01*
X56374212Y22899526D01*
X56374211Y22899523D01*
X56340178Y22802262D01*
X56314632Y22729255D01*
X56294435Y22550000D01*
X28430508Y22550000D01*
X28377566Y22701299D01*
X28377564Y22701302D01*
X28377564Y22701303D01*
X28281594Y22854038D01*
X28281593Y22854040D01*
X28154039Y22981594D01*
X28154037Y22981595D01*
X28001302Y23077565D01*
X28001299Y23077566D01*
X27921282Y23105565D01*
X27831032Y23137145D01*
X27651777Y23157342D01*
X27472522Y23137145D01*
X27472519Y23137145D01*
X27472519Y23137144D01*
X27302254Y23077566D01*
X27302249Y23077564D01*
X27261726Y23052102D01*
X27193405Y23032797D01*
X27125492Y23053494D01*
X27079550Y23107622D01*
X27070164Y23177995D01*
X27075763Y23200405D01*
X27089342Y23239211D01*
X27135368Y23370745D01*
X27155565Y23550000D01*
X27135368Y23729255D01*
X27110613Y23800000D01*
X51044435Y23800000D01*
X51064632Y23620745D01*
X51064633Y23620743D01*
X51124211Y23450478D01*
X51124212Y23450475D01*
X51220182Y23297740D01*
X51220183Y23297738D01*
X51347737Y23170184D01*
X51347739Y23170183D01*
X51500474Y23074213D01*
X51500475Y23074213D01*
X51500478Y23074211D01*
X51670745Y23014632D01*
X51850000Y22994435D01*
X52029255Y23014632D01*
X52199522Y23074211D01*
X52352262Y23170184D01*
X52479816Y23297738D01*
X52575789Y23450478D01*
X52635368Y23620745D01*
X52655565Y23800000D01*
X52635368Y23979255D01*
X52575789Y24149522D01*
X52575787Y24149525D01*
X52575787Y24149526D01*
X52479817Y24302261D01*
X52479816Y24302263D01*
X52352262Y24429817D01*
X52352260Y24429818D01*
X52199525Y24525788D01*
X52199522Y24525789D01*
X52136795Y24547738D01*
X52029255Y24585368D01*
X51850000Y24605565D01*
X51670745Y24585368D01*
X51670742Y24585368D01*
X51670742Y24585367D01*
X51500477Y24525789D01*
X51500474Y24525788D01*
X51347739Y24429818D01*
X51347737Y24429817D01*
X51220183Y24302263D01*
X51220182Y24302261D01*
X51124212Y24149526D01*
X51124211Y24149523D01*
X51090178Y24052262D01*
X51064632Y23979255D01*
X51044435Y23800000D01*
X27110613Y23800000D01*
X27075789Y23899522D01*
X27075787Y23899525D01*
X27075787Y23899526D01*
X26979817Y24052261D01*
X26979816Y24052263D01*
X26852262Y24179817D01*
X26852260Y24179818D01*
X26699525Y24275788D01*
X26699522Y24275789D01*
X26623869Y24302261D01*
X26529255Y24335368D01*
X26350000Y24355565D01*
X26170745Y24335368D01*
X26170742Y24335368D01*
X26170742Y24335367D01*
X26000477Y24275789D01*
X26000474Y24275788D01*
X25847739Y24179818D01*
X25847737Y24179817D01*
X25720183Y24052263D01*
X25720182Y24052261D01*
X25624212Y23899526D01*
X25624211Y23899523D01*
X25624211Y23899522D01*
X25564632Y23729255D01*
X25544435Y23550000D01*
X18034646Y23550000D01*
X18075789Y23615478D01*
X18135368Y23785745D01*
X18155565Y23965000D01*
X18135368Y24144255D01*
X18075789Y24314522D01*
X18075787Y24314525D01*
X18075787Y24314526D01*
X17979817Y24467261D01*
X17979816Y24467263D01*
X17852262Y24594817D01*
X17852260Y24594818D01*
X17699525Y24690788D01*
X17699522Y24690789D01*
X17671832Y24700478D01*
X17529255Y24750368D01*
X17350000Y24770565D01*
X17170745Y24750368D01*
X17170742Y24750368D01*
X17170742Y24750367D01*
X17000477Y24690789D01*
X17000474Y24690788D01*
X16847739Y24594818D01*
X16847737Y24594817D01*
X16720183Y24467263D01*
X16720182Y24467261D01*
X16624212Y24314526D01*
X16624211Y24314523D01*
X16599687Y24244436D01*
X16564632Y24144255D01*
X16544435Y23965000D01*
X700500Y23965000D01*
X700500Y25050000D01*
X29544435Y25050000D01*
X29564632Y24870745D01*
X29606754Y24750368D01*
X29624211Y24700478D01*
X29624212Y24700475D01*
X29720182Y24547740D01*
X29720183Y24547738D01*
X29847737Y24420184D01*
X29847739Y24420183D01*
X30000474Y24324213D01*
X30000475Y24324213D01*
X30000478Y24324211D01*
X30170745Y24264632D01*
X30350000Y24244435D01*
X30529255Y24264632D01*
X30699522Y24324211D01*
X30852262Y24420184D01*
X30979816Y24547738D01*
X31075789Y24700478D01*
X31135368Y24870745D01*
X31155565Y25050000D01*
X43294435Y25050000D01*
X43314632Y24870745D01*
X43356754Y24750368D01*
X43374211Y24700478D01*
X43374212Y24700475D01*
X43470182Y24547740D01*
X43470183Y24547738D01*
X43597737Y24420184D01*
X43597739Y24420183D01*
X43750474Y24324213D01*
X43750475Y24324213D01*
X43750478Y24324211D01*
X43920745Y24264632D01*
X44100000Y24244435D01*
X44279255Y24264632D01*
X44449522Y24324211D01*
X44602262Y24420184D01*
X44729816Y24547738D01*
X44825789Y24700478D01*
X44885368Y24870745D01*
X44905565Y25050000D01*
X44885368Y25229255D01*
X44825789Y25399522D01*
X44825787Y25399525D01*
X44825787Y25399526D01*
X44729817Y25552261D01*
X44729816Y25552263D01*
X44602262Y25679817D01*
X44602260Y25679818D01*
X44449525Y25775788D01*
X44449522Y25775789D01*
X44380331Y25800000D01*
X61294435Y25800000D01*
X61314632Y25620745D01*
X61314633Y25620743D01*
X61374211Y25450478D01*
X61374212Y25450475D01*
X61470182Y25297740D01*
X61470183Y25297738D01*
X61597737Y25170184D01*
X61597739Y25170183D01*
X61750474Y25074213D01*
X61750475Y25074213D01*
X61750478Y25074211D01*
X61920745Y25014632D01*
X62100000Y24994435D01*
X62279255Y25014632D01*
X62449522Y25074211D01*
X62602262Y25170184D01*
X62729816Y25297738D01*
X62825789Y25450478D01*
X62885368Y25620745D01*
X62905565Y25800000D01*
X73544435Y25800000D01*
X73564632Y25620745D01*
X73564633Y25620743D01*
X73624211Y25450478D01*
X73624212Y25450475D01*
X73720182Y25297740D01*
X73720183Y25297738D01*
X73847737Y25170184D01*
X73847739Y25170183D01*
X74000474Y25074213D01*
X74000475Y25074213D01*
X74000478Y25074211D01*
X74170745Y25014632D01*
X74350000Y24994435D01*
X74529255Y25014632D01*
X74699522Y25074211D01*
X74852262Y25170184D01*
X74979816Y25297738D01*
X75075789Y25450478D01*
X75135368Y25620745D01*
X75155565Y25800000D01*
X75135368Y25979255D01*
X75075789Y26149522D01*
X75075787Y26149525D01*
X75075787Y26149526D01*
X74979817Y26302261D01*
X74979816Y26302263D01*
X74852262Y26429817D01*
X74852260Y26429818D01*
X74699525Y26525788D01*
X74699522Y26525789D01*
X74572648Y26570184D01*
X74529255Y26585368D01*
X74350000Y26605565D01*
X74170745Y26585368D01*
X74170742Y26585368D01*
X74170742Y26585367D01*
X74000477Y26525789D01*
X74000474Y26525788D01*
X73847739Y26429818D01*
X73847737Y26429817D01*
X73720183Y26302263D01*
X73720182Y26302261D01*
X73624212Y26149526D01*
X73624211Y26149523D01*
X73588596Y26047740D01*
X73564632Y25979255D01*
X73544435Y25800000D01*
X62905565Y25800000D01*
X62885368Y25979255D01*
X62825789Y26149522D01*
X62825787Y26149525D01*
X62825787Y26149526D01*
X62729817Y26302261D01*
X62729816Y26302263D01*
X62602262Y26429817D01*
X62602260Y26429818D01*
X62449525Y26525788D01*
X62449522Y26525789D01*
X62322648Y26570184D01*
X62279255Y26585368D01*
X62100000Y26605565D01*
X61920745Y26585368D01*
X61920742Y26585368D01*
X61920742Y26585367D01*
X61750477Y26525789D01*
X61750474Y26525788D01*
X61597739Y26429818D01*
X61597737Y26429817D01*
X61470183Y26302263D01*
X61470182Y26302261D01*
X61374212Y26149526D01*
X61374211Y26149523D01*
X61338596Y26047740D01*
X61314632Y25979255D01*
X61294435Y25800000D01*
X44380331Y25800000D01*
X44279255Y25835368D01*
X44100000Y25855565D01*
X43920745Y25835368D01*
X43920742Y25835368D01*
X43920742Y25835367D01*
X43750477Y25775789D01*
X43750474Y25775788D01*
X43597739Y25679818D01*
X43597737Y25679817D01*
X43470183Y25552263D01*
X43470182Y25552261D01*
X43374212Y25399526D01*
X43374211Y25399523D01*
X43374211Y25399522D01*
X43314632Y25229255D01*
X43294435Y25050000D01*
X31155565Y25050000D01*
X31135368Y25229255D01*
X31075789Y25399522D01*
X31075787Y25399525D01*
X31075787Y25399526D01*
X30979817Y25552261D01*
X30979816Y25552263D01*
X30852262Y25679817D01*
X30852260Y25679818D01*
X30699525Y25775788D01*
X30699522Y25775789D01*
X30630331Y25800000D01*
X30529255Y25835368D01*
X30350000Y25855565D01*
X30170745Y25835368D01*
X30170742Y25835368D01*
X30170742Y25835367D01*
X30000477Y25775789D01*
X30000474Y25775788D01*
X29847739Y25679818D01*
X29847737Y25679817D01*
X29720183Y25552263D01*
X29720182Y25552261D01*
X29624212Y25399526D01*
X29624211Y25399523D01*
X29624211Y25399522D01*
X29564632Y25229255D01*
X29544435Y25050000D01*
X700500Y25050000D01*
X700500Y26550000D01*
X13794435Y26550000D01*
X13814632Y26370745D01*
X13814633Y26370743D01*
X13874211Y26200478D01*
X13874212Y26200475D01*
X13970182Y26047740D01*
X13970183Y26047738D01*
X14097737Y25920184D01*
X14097739Y25920183D01*
X14250474Y25824213D01*
X14250475Y25824213D01*
X14250478Y25824211D01*
X14420745Y25764632D01*
X14600000Y25744435D01*
X14779255Y25764632D01*
X14949522Y25824211D01*
X15102262Y25920184D01*
X15229816Y26047738D01*
X15325789Y26200478D01*
X15385368Y26370745D01*
X15405565Y26550000D01*
X15385368Y26729255D01*
X15360613Y26800000D01*
X25544435Y26800000D01*
X25564632Y26620745D01*
X25624211Y26450478D01*
X25624212Y26450475D01*
X25720182Y26297740D01*
X25720183Y26297738D01*
X25847737Y26170184D01*
X25847739Y26170183D01*
X26000474Y26074213D01*
X26000475Y26074213D01*
X26000478Y26074211D01*
X26170745Y26014632D01*
X26350000Y25994435D01*
X26529255Y26014632D01*
X26699522Y26074211D01*
X26852262Y26170184D01*
X26979816Y26297738D01*
X27075789Y26450478D01*
X27135368Y26620745D01*
X27155565Y26800000D01*
X27135368Y26979255D01*
X27075789Y27149522D01*
X27075787Y27149525D01*
X27075787Y27149526D01*
X27044072Y27200000D01*
X34544435Y27200000D01*
X34564632Y27020745D01*
X34579149Y26979258D01*
X34624211Y26850478D01*
X34624212Y26850475D01*
X34720182Y26697740D01*
X34720183Y26697738D01*
X34847737Y26570184D01*
X34847739Y26570183D01*
X35000474Y26474213D01*
X35000475Y26474213D01*
X35000478Y26474211D01*
X35170745Y26414632D01*
X35350000Y26394435D01*
X35529255Y26414632D01*
X35699522Y26474211D01*
X35852262Y26570184D01*
X35979816Y26697738D01*
X36075789Y26850478D01*
X36135368Y27020745D01*
X36155565Y27200000D01*
X36135368Y27379255D01*
X36075789Y27549522D01*
X36075787Y27549525D01*
X36075787Y27549526D01*
X35979817Y27702261D01*
X35979816Y27702263D01*
X35882079Y27800000D01*
X47294435Y27800000D01*
X47314632Y27620745D01*
X47339553Y27549526D01*
X47374211Y27450478D01*
X47374212Y27450475D01*
X47470182Y27297740D01*
X47470183Y27297738D01*
X47597737Y27170184D01*
X47597739Y27170183D01*
X47750474Y27074213D01*
X47750475Y27074213D01*
X47750478Y27074211D01*
X47920745Y27014632D01*
X48100000Y26994435D01*
X48279255Y27014632D01*
X48449522Y27074211D01*
X48602262Y27170184D01*
X48729816Y27297738D01*
X48825789Y27450478D01*
X48885368Y27620745D01*
X48905565Y27800000D01*
X48885368Y27979255D01*
X48825789Y28149522D01*
X48825787Y28149525D01*
X48825787Y28149526D01*
X48729817Y28302261D01*
X48729816Y28302263D01*
X48602262Y28429817D01*
X48602260Y28429818D01*
X48449525Y28525788D01*
X48449522Y28525789D01*
X48279255Y28585368D01*
X48100000Y28605565D01*
X47920745Y28585368D01*
X47920742Y28585368D01*
X47920742Y28585367D01*
X47750477Y28525789D01*
X47750474Y28525788D01*
X47597739Y28429818D01*
X47597737Y28429817D01*
X47470183Y28302263D01*
X47470182Y28302261D01*
X47374212Y28149526D01*
X47374211Y28149523D01*
X47327012Y28014634D01*
X47314632Y27979255D01*
X47294435Y27800000D01*
X35882079Y27800000D01*
X35852262Y27829817D01*
X35852260Y27829818D01*
X35699525Y27925788D01*
X35699522Y27925789D01*
X35529255Y27985368D01*
X35350000Y28005565D01*
X35170745Y27985368D01*
X35170742Y27985368D01*
X35170742Y27985367D01*
X35000477Y27925789D01*
X35000474Y27925788D01*
X34847739Y27829818D01*
X34847737Y27829817D01*
X34720183Y27702263D01*
X34720182Y27702261D01*
X34624212Y27549526D01*
X34624211Y27549523D01*
X34624211Y27549522D01*
X34564632Y27379255D01*
X34544435Y27200000D01*
X27044072Y27200000D01*
X26979817Y27302261D01*
X26979816Y27302263D01*
X26852262Y27429817D01*
X26852260Y27429818D01*
X26699525Y27525788D01*
X26699522Y27525789D01*
X26631694Y27549523D01*
X26529255Y27585368D01*
X26350000Y27605565D01*
X26170745Y27585368D01*
X26170742Y27585368D01*
X26170742Y27585367D01*
X26000477Y27525789D01*
X26000474Y27525788D01*
X25847739Y27429818D01*
X25847737Y27429817D01*
X25720183Y27302263D01*
X25720182Y27302261D01*
X25624212Y27149526D01*
X25624211Y27149523D01*
X25590178Y27052262D01*
X25564632Y26979255D01*
X25544435Y26800000D01*
X15360613Y26800000D01*
X15325789Y26899522D01*
X15325787Y26899525D01*
X15325787Y26899526D01*
X15229817Y27052261D01*
X15229816Y27052263D01*
X15102262Y27179817D01*
X15102260Y27179818D01*
X14949525Y27275788D01*
X14949522Y27275789D01*
X14886795Y27297738D01*
X14779255Y27335368D01*
X14600000Y27355565D01*
X14420745Y27335368D01*
X14420742Y27335368D01*
X14420742Y27335367D01*
X14250477Y27275789D01*
X14250474Y27275788D01*
X14097739Y27179818D01*
X14097737Y27179817D01*
X13970183Y27052263D01*
X13970182Y27052261D01*
X13874212Y26899526D01*
X13874211Y26899523D01*
X13839387Y26800000D01*
X13814632Y26729255D01*
X13794435Y26550000D01*
X700500Y26550000D01*
X700500Y28800000D01*
X6294435Y28800000D01*
X6314632Y28620745D01*
X6347859Y28525789D01*
X6374211Y28450478D01*
X6374212Y28450475D01*
X6470182Y28297740D01*
X6470183Y28297738D01*
X6597737Y28170184D01*
X6597739Y28170183D01*
X6750474Y28074213D01*
X6750475Y28074213D01*
X6750478Y28074211D01*
X6920745Y28014632D01*
X7100000Y27994435D01*
X7279255Y28014632D01*
X7449522Y28074211D01*
X7602262Y28170184D01*
X7729816Y28297738D01*
X7825789Y28450478D01*
X7885368Y28620745D01*
X7905565Y28800000D01*
X51044435Y28800000D01*
X51064632Y28620745D01*
X51097859Y28525789D01*
X51124211Y28450478D01*
X51124212Y28450475D01*
X51220182Y28297740D01*
X51220183Y28297738D01*
X51347737Y28170184D01*
X51347739Y28170183D01*
X51500474Y28074213D01*
X51500475Y28074213D01*
X51500478Y28074211D01*
X51670745Y28014632D01*
X51850000Y27994435D01*
X52029255Y28014632D01*
X52199522Y28074211D01*
X52352262Y28170184D01*
X52479816Y28297738D01*
X52575789Y28450478D01*
X52635368Y28620745D01*
X52655565Y28800000D01*
X52635368Y28979255D01*
X52575789Y29149522D01*
X52575787Y29149525D01*
X52575787Y29149526D01*
X52479817Y29302261D01*
X52479816Y29302263D01*
X52352262Y29429817D01*
X52352260Y29429818D01*
X52199525Y29525788D01*
X52199522Y29525789D01*
X52136795Y29547738D01*
X52029255Y29585368D01*
X51850000Y29605565D01*
X51670745Y29585368D01*
X51670742Y29585368D01*
X51670742Y29585367D01*
X51500477Y29525789D01*
X51500474Y29525788D01*
X51347739Y29429818D01*
X51347737Y29429817D01*
X51220183Y29302263D01*
X51220182Y29302261D01*
X51124212Y29149526D01*
X51124211Y29149523D01*
X51124211Y29149522D01*
X51064632Y28979255D01*
X51044435Y28800000D01*
X7905565Y28800000D01*
X7885368Y28979255D01*
X7825789Y29149522D01*
X7825787Y29149525D01*
X7825787Y29149526D01*
X7729817Y29302261D01*
X7729816Y29302263D01*
X7602262Y29429817D01*
X7602260Y29429818D01*
X7449525Y29525788D01*
X7449522Y29525789D01*
X7386795Y29547738D01*
X7279255Y29585368D01*
X7100000Y29605565D01*
X6920745Y29585368D01*
X6920742Y29585368D01*
X6920742Y29585367D01*
X6750477Y29525789D01*
X6750474Y29525788D01*
X6597739Y29429818D01*
X6597737Y29429817D01*
X6470183Y29302263D01*
X6470182Y29302261D01*
X6374212Y29149526D01*
X6374211Y29149523D01*
X6374211Y29149522D01*
X6314632Y28979255D01*
X6294435Y28800000D01*
X700500Y28800000D01*
X700500Y30050000D01*
X58794435Y30050000D01*
X58814632Y29870745D01*
X58858830Y29744435D01*
X58874211Y29700478D01*
X58874212Y29700475D01*
X58970182Y29547740D01*
X58970183Y29547738D01*
X59097737Y29420184D01*
X59097739Y29420183D01*
X59250474Y29324213D01*
X59250475Y29324213D01*
X59250478Y29324211D01*
X59420745Y29264632D01*
X59600000Y29244435D01*
X59779255Y29264632D01*
X59949522Y29324211D01*
X60102262Y29420184D01*
X60229816Y29547738D01*
X60325789Y29700478D01*
X60385368Y29870745D01*
X60405565Y30050000D01*
X60385368Y30229255D01*
X60327974Y30393276D01*
X60324355Y30464177D01*
X60359644Y30525782D01*
X60422637Y30558529D01*
X60461005Y30560096D01*
X60600000Y30544435D01*
X60779255Y30564632D01*
X60949522Y30624211D01*
X61102262Y30720184D01*
X61229816Y30847738D01*
X61325789Y31000478D01*
X61385368Y31170745D01*
X61399931Y31300000D01*
X67044435Y31300000D01*
X67064632Y31120745D01*
X67124211Y30950478D01*
X67124212Y30950475D01*
X67220182Y30797740D01*
X67220183Y30797738D01*
X67347737Y30670184D01*
X67347739Y30670183D01*
X67500474Y30574213D01*
X67500475Y30574213D01*
X67500478Y30574211D01*
X67670745Y30514632D01*
X67850000Y30494435D01*
X68029255Y30514632D01*
X68199522Y30574211D01*
X68352262Y30670184D01*
X68479816Y30797738D01*
X68481237Y30800000D01*
X69544435Y30800000D01*
X69564632Y30620745D01*
X69608830Y30494435D01*
X69624211Y30450478D01*
X69624212Y30450475D01*
X69720182Y30297740D01*
X69720183Y30297738D01*
X69847737Y30170184D01*
X69847739Y30170183D01*
X70000474Y30074213D01*
X70000475Y30074213D01*
X70000478Y30074211D01*
X70170745Y30014632D01*
X70350000Y29994435D01*
X70529255Y30014632D01*
X70699522Y30074211D01*
X70852262Y30170184D01*
X70979816Y30297738D01*
X71075789Y30450478D01*
X71110613Y30550000D01*
X77794435Y30550000D01*
X77814632Y30370745D01*
X77874211Y30200478D01*
X77874212Y30200475D01*
X77970182Y30047740D01*
X77970183Y30047738D01*
X78097737Y29920184D01*
X78097739Y29920183D01*
X78250474Y29824213D01*
X78250475Y29824213D01*
X78250478Y29824211D01*
X78420745Y29764632D01*
X78600000Y29744435D01*
X78779255Y29764632D01*
X78949522Y29824211D01*
X79102262Y29920184D01*
X79229816Y30047738D01*
X79325789Y30200478D01*
X79385368Y30370745D01*
X79405565Y30550000D01*
X79385368Y30729255D01*
X79325789Y30899522D01*
X79325787Y30899525D01*
X79325787Y30899526D01*
X79229817Y31052261D01*
X79229816Y31052263D01*
X79102262Y31179817D01*
X79102260Y31179818D01*
X78949525Y31275788D01*
X78949522Y31275789D01*
X78873869Y31302261D01*
X78779255Y31335368D01*
X78600000Y31355565D01*
X78420745Y31335368D01*
X78420742Y31335368D01*
X78420742Y31335367D01*
X78250477Y31275789D01*
X78250474Y31275788D01*
X78097739Y31179818D01*
X78097737Y31179817D01*
X77970183Y31052263D01*
X77970182Y31052261D01*
X77874212Y30899526D01*
X77874211Y30899523D01*
X77814633Y30729258D01*
X77814632Y30729255D01*
X77794435Y30550000D01*
X71110613Y30550000D01*
X71135368Y30620745D01*
X71155565Y30800000D01*
X71135368Y30979255D01*
X71075789Y31149522D01*
X71075787Y31149525D01*
X71075787Y31149526D01*
X70979818Y31302259D01*
X70979817Y31302260D01*
X70979816Y31302262D01*
X70946172Y31335906D01*
X70912148Y31398215D01*
X70917212Y31469031D01*
X70946172Y31514095D01*
X70979816Y31547738D01*
X71075789Y31700478D01*
X71135368Y31870745D01*
X71155565Y32050000D01*
X74044435Y32050000D01*
X74064632Y31870745D01*
X74071100Y31852261D01*
X74124211Y31700478D01*
X74124212Y31700475D01*
X74220182Y31547740D01*
X74220183Y31547738D01*
X74347737Y31420184D01*
X74347739Y31420183D01*
X74500474Y31324213D01*
X74500475Y31324213D01*
X74500478Y31324211D01*
X74670745Y31264632D01*
X74850000Y31244435D01*
X75029255Y31264632D01*
X75199522Y31324211D01*
X75352262Y31420184D01*
X75479816Y31547738D01*
X75575789Y31700478D01*
X75635368Y31870745D01*
X75655565Y32050000D01*
X75635368Y32229255D01*
X75575789Y32399522D01*
X75575787Y32399525D01*
X75575787Y32399526D01*
X75479817Y32552261D01*
X75479816Y32552263D01*
X75352262Y32679817D01*
X75352260Y32679818D01*
X75199525Y32775788D01*
X75199522Y32775789D01*
X75123869Y32802261D01*
X75029255Y32835368D01*
X74850000Y32855565D01*
X74670745Y32835368D01*
X74670742Y32835368D01*
X74670742Y32835367D01*
X74500477Y32775789D01*
X74500474Y32775788D01*
X74347739Y32679818D01*
X74347737Y32679817D01*
X74220183Y32552263D01*
X74220182Y32552261D01*
X74124212Y32399526D01*
X74124211Y32399523D01*
X74064633Y32229258D01*
X74064632Y32229255D01*
X74044435Y32050000D01*
X71155565Y32050000D01*
X71135368Y32229255D01*
X71075789Y32399522D01*
X71075787Y32399525D01*
X71075787Y32399526D01*
X70979817Y32552261D01*
X70979816Y32552263D01*
X70852262Y32679817D01*
X70852260Y32679818D01*
X70699525Y32775788D01*
X70699522Y32775789D01*
X70623869Y32802261D01*
X70529255Y32835368D01*
X70350000Y32855565D01*
X70170745Y32835368D01*
X70170742Y32835368D01*
X70170742Y32835367D01*
X70000477Y32775789D01*
X70000474Y32775788D01*
X69847739Y32679818D01*
X69847737Y32679817D01*
X69720183Y32552263D01*
X69720182Y32552261D01*
X69624212Y32399526D01*
X69624211Y32399523D01*
X69564633Y32229258D01*
X69564632Y32229255D01*
X69544435Y32050000D01*
X69564632Y31870745D01*
X69571100Y31852261D01*
X69624211Y31700478D01*
X69624212Y31700475D01*
X69720182Y31547740D01*
X69720183Y31547738D01*
X69753826Y31514095D01*
X69787852Y31451783D01*
X69782787Y31380968D01*
X69753826Y31335905D01*
X69720183Y31302263D01*
X69720182Y31302261D01*
X69624212Y31149526D01*
X69624211Y31149523D01*
X69590178Y31052262D01*
X69564632Y30979255D01*
X69544435Y30800000D01*
X68481237Y30800000D01*
X68575789Y30950478D01*
X68635368Y31120745D01*
X68655565Y31300000D01*
X68635368Y31479255D01*
X68575789Y31649522D01*
X68544371Y31699523D01*
X68479911Y31802112D01*
X68460605Y31870433D01*
X68481300Y31938346D01*
X68535427Y31984290D01*
X68592924Y31993155D01*
X68592924Y31994435D01*
X68599997Y31994435D01*
X68599998Y31994436D01*
X68600000Y31994435D01*
X68779255Y32014632D01*
X68949522Y32074211D01*
X69102262Y32170184D01*
X69229816Y32297738D01*
X69325789Y32450478D01*
X69385368Y32620745D01*
X69405565Y32800000D01*
X69385368Y32979255D01*
X69325789Y33149522D01*
X69325787Y33149525D01*
X69325787Y33149526D01*
X69229817Y33302261D01*
X69229816Y33302263D01*
X69102262Y33429817D01*
X69102260Y33429818D01*
X68949525Y33525788D01*
X68949522Y33525789D01*
X68779255Y33585368D01*
X68600000Y33605565D01*
X68420745Y33585368D01*
X68420742Y33585368D01*
X68420742Y33585367D01*
X68250477Y33525789D01*
X68250474Y33525788D01*
X68097739Y33429818D01*
X68097737Y33429817D01*
X67970183Y33302263D01*
X67970182Y33302261D01*
X67874212Y33149526D01*
X67874211Y33149523D01*
X67814633Y32979258D01*
X67814632Y32979255D01*
X67794435Y32800000D01*
X67814632Y32620745D01*
X67874211Y32450478D01*
X67874212Y32450475D01*
X67970088Y32297889D01*
X67989394Y32229568D01*
X67968698Y32161654D01*
X67914571Y32115711D01*
X67857076Y32106843D01*
X67857076Y32105565D01*
X67850003Y32105565D01*
X67850001Y32105565D01*
X67850000Y32105565D01*
X67670745Y32085368D01*
X67670742Y32085368D01*
X67670742Y32085367D01*
X67500477Y32025789D01*
X67500474Y32025788D01*
X67347739Y31929818D01*
X67347737Y31929817D01*
X67220183Y31802263D01*
X67220182Y31802261D01*
X67124212Y31649526D01*
X67124211Y31649523D01*
X67088596Y31547740D01*
X67064632Y31479255D01*
X67044435Y31300000D01*
X61399931Y31300000D01*
X61405565Y31350000D01*
X61385368Y31529255D01*
X61325789Y31699522D01*
X61325787Y31699525D01*
X61325787Y31699526D01*
X61229817Y31852261D01*
X61229816Y31852263D01*
X61102262Y31979817D01*
X61102260Y31979818D01*
X60949525Y32075788D01*
X60949522Y32075789D01*
X60864427Y32105565D01*
X60779255Y32135368D01*
X60600000Y32155565D01*
X60420745Y32135368D01*
X60420742Y32135368D01*
X60420742Y32135367D01*
X60250477Y32075789D01*
X60250474Y32075788D01*
X60097739Y31979818D01*
X60097737Y31979817D01*
X59970183Y31852263D01*
X59970182Y31852261D01*
X59874212Y31699526D01*
X59874211Y31699523D01*
X59856715Y31649522D01*
X59814632Y31529255D01*
X59794435Y31350000D01*
X59814632Y31170745D01*
X59856091Y31052263D01*
X59872024Y31006728D01*
X59875644Y30935824D01*
X59840354Y30874219D01*
X59777361Y30841472D01*
X59738988Y30839905D01*
X59600000Y30855565D01*
X59420745Y30835368D01*
X59420742Y30835368D01*
X59420742Y30835367D01*
X59250477Y30775789D01*
X59250474Y30775788D01*
X59097739Y30679818D01*
X59097737Y30679817D01*
X58970183Y30552263D01*
X58970182Y30552261D01*
X58874212Y30399526D01*
X58874211Y30399523D01*
X58838596Y30297740D01*
X58814632Y30229255D01*
X58794435Y30050000D01*
X700500Y30050000D01*
X700500Y32300000D01*
X57794435Y32300000D01*
X57814632Y32120745D01*
X57863945Y31979817D01*
X57874211Y31950478D01*
X57874212Y31950475D01*
X57970182Y31797740D01*
X57970183Y31797738D01*
X58097737Y31670184D01*
X58097739Y31670183D01*
X58250474Y31574213D01*
X58250475Y31574213D01*
X58250478Y31574211D01*
X58420745Y31514632D01*
X58600000Y31494435D01*
X58779255Y31514632D01*
X58949522Y31574211D01*
X59102262Y31670184D01*
X59229816Y31797738D01*
X59325789Y31950478D01*
X59385368Y32120745D01*
X59405565Y32300000D01*
X59385368Y32479255D01*
X59325789Y32649522D01*
X59325787Y32649525D01*
X59325787Y32649526D01*
X59229817Y32802261D01*
X59229816Y32802263D01*
X59102262Y32929817D01*
X59102260Y32929818D01*
X58949525Y33025788D01*
X58949522Y33025789D01*
X58779255Y33085368D01*
X58600000Y33105565D01*
X58420745Y33085368D01*
X58420742Y33085368D01*
X58420742Y33085367D01*
X58250477Y33025789D01*
X58250474Y33025788D01*
X58097739Y32929818D01*
X58097737Y32929817D01*
X57970183Y32802263D01*
X57970182Y32802261D01*
X57874212Y32649526D01*
X57874211Y32649523D01*
X57840178Y32552262D01*
X57814632Y32479255D01*
X57794435Y32300000D01*
X700500Y32300000D01*
X700500Y36000000D01*
X21294435Y36000000D01*
X21314632Y35820745D01*
X21363945Y35679817D01*
X21374211Y35650478D01*
X21374212Y35650475D01*
X21470182Y35497740D01*
X21470183Y35497738D01*
X21597737Y35370184D01*
X21597739Y35370183D01*
X21750474Y35274213D01*
X21750475Y35274213D01*
X21750478Y35274211D01*
X21920745Y35214632D01*
X22100000Y35194435D01*
X22279255Y35214632D01*
X22449522Y35274211D01*
X22602262Y35370184D01*
X22729816Y35497738D01*
X22825789Y35650478D01*
X22885368Y35820745D01*
X22905565Y36000000D01*
X22899931Y36050000D01*
X33144357Y36050000D01*
X33164885Y35828461D01*
X33225768Y35614480D01*
X33225774Y35614463D01*
X33324938Y35415316D01*
X33324942Y35415311D01*
X33459017Y35237765D01*
X33623438Y35087876D01*
X33623439Y35087875D01*
X33812587Y34970760D01*
X33812590Y34970759D01*
X33812599Y34970753D01*
X33899478Y34937096D01*
X34020053Y34890384D01*
X34020056Y34890384D01*
X34020060Y34890382D01*
X34238757Y34849500D01*
X34238760Y34849500D01*
X34461240Y34849500D01*
X34461243Y34849500D01*
X34679940Y34890382D01*
X34679944Y34890384D01*
X34679946Y34890384D01*
X34733298Y34911054D01*
X34887401Y34970753D01*
X35076562Y35087876D01*
X35240981Y35237764D01*
X35375058Y35415311D01*
X35375059Y35415315D01*
X35375061Y35415316D01*
X35474225Y35614463D01*
X35474226Y35614467D01*
X35474229Y35614472D01*
X35535115Y35828464D01*
X35555643Y36050000D01*
X40144357Y36050000D01*
X40164885Y35828461D01*
X40225768Y35614480D01*
X40225774Y35614463D01*
X40324938Y35415316D01*
X40324942Y35415311D01*
X40459017Y35237765D01*
X40623438Y35087876D01*
X40623439Y35087875D01*
X40812587Y34970760D01*
X40812590Y34970759D01*
X40812599Y34970753D01*
X40899478Y34937096D01*
X41020053Y34890384D01*
X41020056Y34890384D01*
X41020060Y34890382D01*
X41238757Y34849500D01*
X41238760Y34849500D01*
X41461240Y34849500D01*
X41461243Y34849500D01*
X41679940Y34890382D01*
X41679944Y34890384D01*
X41679946Y34890384D01*
X41733298Y34911054D01*
X41887401Y34970753D01*
X42076562Y35087876D01*
X42240981Y35237764D01*
X42251281Y35251403D01*
X46842000Y35251403D01*
X46848505Y35190907D01*
X46899555Y35054036D01*
X46899555Y35054035D01*
X46987095Y34937096D01*
X47104034Y34849556D01*
X47240906Y34798506D01*
X47301402Y34792001D01*
X47301415Y34792000D01*
X47846000Y34792000D01*
X47846000Y35738314D01*
X47861955Y35722359D01*
X47974852Y35664835D01*
X48068519Y35650000D01*
X48131481Y35650000D01*
X48225148Y35664835D01*
X48338045Y35722359D01*
X48354000Y35738314D01*
X48354000Y34792000D01*
X48898585Y34792000D01*
X48898597Y34792001D01*
X48959093Y34798506D01*
X49095964Y34849556D01*
X49095965Y34849556D01*
X49212904Y34937096D01*
X49297423Y35050000D01*
X50794435Y35050000D01*
X50814632Y34870745D01*
X50822066Y34849500D01*
X50874211Y34700478D01*
X50874212Y34700475D01*
X50970182Y34547740D01*
X50970183Y34547738D01*
X51097737Y34420184D01*
X51097739Y34420183D01*
X51250474Y34324213D01*
X51250475Y34324213D01*
X51250478Y34324211D01*
X51420745Y34264632D01*
X51600000Y34244435D01*
X51779255Y34264632D01*
X51949522Y34324211D01*
X52102262Y34420184D01*
X52229816Y34547738D01*
X52325789Y34700478D01*
X52356071Y34787020D01*
X52397449Y34844711D01*
X52463449Y34870873D01*
X52533117Y34857200D01*
X52584333Y34808033D01*
X52593929Y34787019D01*
X52624211Y34700478D01*
X52624212Y34700475D01*
X52720182Y34547740D01*
X52720183Y34547738D01*
X52847737Y34420184D01*
X52847739Y34420183D01*
X53000474Y34324213D01*
X53000475Y34324213D01*
X53000478Y34324211D01*
X53170745Y34264632D01*
X53350000Y34244435D01*
X53529255Y34264632D01*
X53699522Y34324211D01*
X53852262Y34420184D01*
X53979816Y34547738D01*
X54075789Y34700478D01*
X54135368Y34870745D01*
X54155565Y35050000D01*
X54135368Y35229255D01*
X54075789Y35399522D01*
X54075787Y35399525D01*
X54075787Y35399526D01*
X53979817Y35552261D01*
X53979816Y35552263D01*
X53852262Y35679817D01*
X53852260Y35679818D01*
X53699525Y35775788D01*
X53699522Y35775789D01*
X53641762Y35796000D01*
X53529255Y35835368D01*
X53350000Y35855565D01*
X53170745Y35835368D01*
X53170742Y35835368D01*
X53170742Y35835367D01*
X53000477Y35775789D01*
X53000474Y35775788D01*
X52847739Y35679818D01*
X52847737Y35679817D01*
X52720183Y35552263D01*
X52720182Y35552261D01*
X52624212Y35399526D01*
X52624211Y35399523D01*
X52593929Y35312982D01*
X52552551Y35255290D01*
X52486550Y35229128D01*
X52416883Y35242801D01*
X52365667Y35291969D01*
X52356071Y35312982D01*
X52336055Y35370183D01*
X52325789Y35399522D01*
X52325787Y35399525D01*
X52325787Y35399526D01*
X52229817Y35552261D01*
X52229816Y35552263D01*
X52102262Y35679817D01*
X52102260Y35679818D01*
X51949525Y35775788D01*
X51949522Y35775789D01*
X51891762Y35796000D01*
X51779255Y35835368D01*
X51600000Y35855565D01*
X51420745Y35835368D01*
X51420742Y35835368D01*
X51420742Y35835367D01*
X51250477Y35775789D01*
X51250474Y35775788D01*
X51097739Y35679818D01*
X51097737Y35679817D01*
X50970183Y35552263D01*
X50970182Y35552261D01*
X50874212Y35399526D01*
X50874211Y35399523D01*
X50830363Y35274213D01*
X50814632Y35229255D01*
X50794435Y35050000D01*
X49297423Y35050000D01*
X49300444Y35054035D01*
X49300444Y35054036D01*
X49351494Y35190907D01*
X49357999Y35251403D01*
X49358000Y35251415D01*
X49358000Y35796000D01*
X48411686Y35796000D01*
X48427641Y35811955D01*
X48485165Y35924852D01*
X48504986Y36050000D01*
X48485165Y36175148D01*
X48427641Y36288045D01*
X48411686Y36304000D01*
X49358000Y36304000D01*
X49358000Y36848586D01*
X49357999Y36848598D01*
X49351494Y36909094D01*
X49300444Y37045965D01*
X49300444Y37045966D01*
X49212904Y37162905D01*
X49095965Y37250445D01*
X48959093Y37301495D01*
X48898597Y37308000D01*
X48649666Y37308000D01*
X48581545Y37328002D01*
X48535052Y37381658D01*
X48524948Y37451932D01*
X48554442Y37516512D01*
X48604147Y37551491D01*
X48615019Y37555702D01*
X48796302Y37667948D01*
X48953872Y37811593D01*
X49082366Y37981745D01*
X49177405Y38172611D01*
X49235756Y38377690D01*
X49251723Y38550000D01*
X56044435Y38550000D01*
X56064632Y38370745D01*
X56064633Y38370743D01*
X56124211Y38200478D01*
X56124212Y38200475D01*
X56220182Y38047740D01*
X56220183Y38047738D01*
X56347737Y37920184D01*
X56347739Y37920183D01*
X56500474Y37824213D01*
X56500475Y37824213D01*
X56500478Y37824211D01*
X56670745Y37764632D01*
X56850000Y37744435D01*
X57029255Y37764632D01*
X57130331Y37800000D01*
X58294435Y37800000D01*
X58314632Y37620745D01*
X58364343Y37478679D01*
X58374211Y37450478D01*
X58374212Y37450475D01*
X58470182Y37297740D01*
X58470183Y37297738D01*
X58597737Y37170184D01*
X58597739Y37170183D01*
X58750474Y37074213D01*
X58750475Y37074213D01*
X58750478Y37074211D01*
X58920745Y37014632D01*
X59100000Y36994435D01*
X59279255Y37014632D01*
X59449522Y37074211D01*
X59602262Y37170184D01*
X59729816Y37297738D01*
X59825789Y37450478D01*
X59885368Y37620745D01*
X59905565Y37800000D01*
X59885368Y37979255D01*
X59825789Y38149522D01*
X59825787Y38149525D01*
X59825787Y38149526D01*
X59729817Y38302261D01*
X59729816Y38302263D01*
X59602262Y38429817D01*
X59602260Y38429818D01*
X59449525Y38525788D01*
X59449522Y38525789D01*
X59322648Y38570184D01*
X59279255Y38585368D01*
X59100000Y38605565D01*
X58920745Y38585368D01*
X58920742Y38585368D01*
X58920742Y38585367D01*
X58750477Y38525789D01*
X58750474Y38525788D01*
X58597739Y38429818D01*
X58597737Y38429817D01*
X58470183Y38302263D01*
X58470182Y38302261D01*
X58374212Y38149526D01*
X58374211Y38149523D01*
X58315503Y37981745D01*
X58314632Y37979255D01*
X58294435Y37800000D01*
X57130331Y37800000D01*
X57199522Y37824211D01*
X57352262Y37920184D01*
X57479816Y38047738D01*
X57575789Y38200478D01*
X57635368Y38370745D01*
X57655565Y38550000D01*
X57635368Y38729255D01*
X57575789Y38899522D01*
X57575787Y38899525D01*
X57575787Y38899526D01*
X57479817Y39052261D01*
X57479816Y39052263D01*
X57352262Y39179817D01*
X57352260Y39179818D01*
X57320141Y39200000D01*
X73694435Y39200000D01*
X73714632Y39020745D01*
X73719307Y39007385D01*
X73774211Y38850478D01*
X73774212Y38850475D01*
X73870182Y38697740D01*
X73870183Y38697738D01*
X73997737Y38570184D01*
X73997739Y38570183D01*
X74150474Y38474213D01*
X74150475Y38474213D01*
X74150478Y38474211D01*
X74320745Y38414632D01*
X74500000Y38394435D01*
X74679255Y38414632D01*
X74849522Y38474211D01*
X75002262Y38570184D01*
X75129816Y38697738D01*
X75225789Y38850478D01*
X75285368Y39020745D01*
X75305565Y39200000D01*
X75285368Y39379255D01*
X75225789Y39549522D01*
X75225787Y39549525D01*
X75225787Y39549526D01*
X75129817Y39702261D01*
X75129816Y39702263D01*
X75002262Y39829817D01*
X75002260Y39829818D01*
X74849525Y39925788D01*
X74849522Y39925789D01*
X74755739Y39958605D01*
X74679255Y39985368D01*
X74500000Y40005565D01*
X74320745Y39985368D01*
X74320742Y39985368D01*
X74320742Y39985367D01*
X74150477Y39925789D01*
X74150474Y39925788D01*
X73997739Y39829818D01*
X73997737Y39829817D01*
X73870183Y39702263D01*
X73870182Y39702261D01*
X73774212Y39549526D01*
X73774211Y39549523D01*
X73714633Y39379258D01*
X73714632Y39379255D01*
X73694435Y39200000D01*
X57320141Y39200000D01*
X57199525Y39275788D01*
X57199522Y39275789D01*
X57029255Y39335368D01*
X56850000Y39355565D01*
X56670745Y39335368D01*
X56670742Y39335368D01*
X56670742Y39335367D01*
X56500477Y39275789D01*
X56500474Y39275788D01*
X56347739Y39179818D01*
X56347737Y39179817D01*
X56220183Y39052263D01*
X56220182Y39052261D01*
X56124212Y38899526D01*
X56124211Y38899523D01*
X56090196Y38802312D01*
X56064632Y38729255D01*
X56044435Y38550000D01*
X49251723Y38550000D01*
X49255429Y38590000D01*
X49235756Y38802310D01*
X49177405Y39007389D01*
X49082366Y39198255D01*
X48953872Y39368407D01*
X48941973Y39379255D01*
X48796300Y39512054D01*
X48796298Y39512055D01*
X48615025Y39624295D01*
X48615021Y39624297D01*
X48615019Y39624298D01*
X48416198Y39701321D01*
X48229902Y39736146D01*
X48166618Y39768324D01*
X48130776Y39829609D01*
X48133757Y39900543D01*
X48174615Y39958605D01*
X48229901Y39983855D01*
X48416198Y40018679D01*
X48615019Y40095702D01*
X48796302Y40207948D01*
X48953872Y40351593D01*
X49082366Y40521745D01*
X49177405Y40712611D01*
X49235756Y40917690D01*
X49255429Y41130000D01*
X49235756Y41342310D01*
X49177405Y41547389D01*
X49082366Y41738255D01*
X48953872Y41908407D01*
X48840099Y42012126D01*
X48796300Y42052054D01*
X48796298Y42052055D01*
X48615025Y42164295D01*
X48615021Y42164297D01*
X48615019Y42164298D01*
X48493222Y42211483D01*
X48416199Y42241321D01*
X48363801Y42251116D01*
X48206610Y42280500D01*
X47993390Y42280500D01*
X47867637Y42256993D01*
X47783800Y42241321D01*
X47629754Y42181644D01*
X47584981Y42164298D01*
X47584980Y42164298D01*
X47584979Y42164297D01*
X47584974Y42164295D01*
X47403701Y42052055D01*
X47403699Y42052054D01*
X47246129Y41908409D01*
X47211261Y41862236D01*
X47117634Y41738255D01*
X47090962Y41684690D01*
X47022593Y41547385D01*
X46964244Y41342312D01*
X46944571Y41130000D01*
X46964244Y40917689D01*
X47022593Y40712616D01*
X47022594Y40712614D01*
X47022595Y40712611D01*
X47117634Y40521745D01*
X47198010Y40415311D01*
X47246129Y40351592D01*
X47403699Y40207947D01*
X47403701Y40207946D01*
X47584974Y40095706D01*
X47584975Y40095706D01*
X47584981Y40095702D01*
X47783802Y40018679D01*
X47970097Y39983855D01*
X48033381Y39951676D01*
X48069223Y39890391D01*
X48066242Y39819457D01*
X48025384Y39761395D01*
X47970098Y39736146D01*
X47857350Y39715070D01*
X47783800Y39701321D01*
X47629754Y39641644D01*
X47584981Y39624298D01*
X47584980Y39624298D01*
X47584979Y39624297D01*
X47584974Y39624295D01*
X47403701Y39512055D01*
X47403699Y39512054D01*
X47246129Y39368409D01*
X47236430Y39355565D01*
X47117634Y39198255D01*
X47108453Y39179816D01*
X47022593Y39007385D01*
X46964244Y38802312D01*
X46944571Y38590000D01*
X46964244Y38377689D01*
X47022593Y38172616D01*
X47022594Y38172614D01*
X47022595Y38172611D01*
X47117634Y37981745D01*
X47246128Y37811593D01*
X47246129Y37811592D01*
X47403699Y37667947D01*
X47403701Y37667946D01*
X47584974Y37555706D01*
X47584975Y37555706D01*
X47584981Y37555702D01*
X47595851Y37551491D01*
X47652145Y37508232D01*
X47676116Y37441405D01*
X47660152Y37372226D01*
X47609321Y37322661D01*
X47550334Y37308000D01*
X47301402Y37308000D01*
X47240906Y37301495D01*
X47104035Y37250445D01*
X47104034Y37250445D01*
X46987095Y37162905D01*
X46899555Y37045966D01*
X46899555Y37045965D01*
X46848505Y36909094D01*
X46842000Y36848598D01*
X46842000Y36304000D01*
X47788314Y36304000D01*
X47772359Y36288045D01*
X47714835Y36175148D01*
X47695014Y36050000D01*
X47714835Y35924852D01*
X47772359Y35811955D01*
X47788314Y35796000D01*
X46842000Y35796000D01*
X46842000Y35251403D01*
X42251281Y35251403D01*
X42375058Y35415311D01*
X42375059Y35415315D01*
X42375061Y35415316D01*
X42474225Y35614463D01*
X42474226Y35614467D01*
X42474229Y35614472D01*
X42535115Y35828464D01*
X42555643Y36050000D01*
X42535115Y36271536D01*
X42474229Y36485528D01*
X42474227Y36485532D01*
X42474225Y36485538D01*
X42375061Y36684685D01*
X42375057Y36684690D01*
X42240982Y36862236D01*
X42076561Y37012125D01*
X42076560Y37012126D01*
X41887412Y37129241D01*
X41887405Y37129245D01*
X41887401Y37129247D01*
X41887396Y37129249D01*
X41679946Y37209617D01*
X41620416Y37220745D01*
X41461243Y37250500D01*
X41238757Y37250500D01*
X41097674Y37224127D01*
X41020053Y37209617D01*
X40812603Y37129249D01*
X40812587Y37129241D01*
X40623439Y37012126D01*
X40623438Y37012125D01*
X40459017Y36862236D01*
X40324942Y36684690D01*
X40324938Y36684685D01*
X40225774Y36485538D01*
X40225768Y36485521D01*
X40164885Y36271540D01*
X40144357Y36050000D01*
X35555643Y36050000D01*
X35535115Y36271536D01*
X35474229Y36485528D01*
X35474227Y36485532D01*
X35474225Y36485538D01*
X35375061Y36684685D01*
X35375057Y36684690D01*
X35240982Y36862236D01*
X35076561Y37012125D01*
X35076560Y37012126D01*
X34887412Y37129241D01*
X34887405Y37129245D01*
X34887401Y37129247D01*
X34887396Y37129249D01*
X34679946Y37209617D01*
X34620416Y37220745D01*
X34461243Y37250500D01*
X34238757Y37250500D01*
X34097674Y37224127D01*
X34020053Y37209617D01*
X33812603Y37129249D01*
X33812587Y37129241D01*
X33623439Y37012126D01*
X33623438Y37012125D01*
X33459017Y36862236D01*
X33324942Y36684690D01*
X33324938Y36684685D01*
X33225774Y36485538D01*
X33225768Y36485521D01*
X33164885Y36271540D01*
X33144357Y36050000D01*
X22899931Y36050000D01*
X22885368Y36179255D01*
X22825789Y36349522D01*
X22825787Y36349525D01*
X22825787Y36349526D01*
X22729817Y36502261D01*
X22729816Y36502263D01*
X22602262Y36629817D01*
X22602260Y36629818D01*
X22449525Y36725788D01*
X22449522Y36725789D01*
X22322648Y36770184D01*
X22279255Y36785368D01*
X22100000Y36805565D01*
X21920745Y36785368D01*
X21920742Y36785368D01*
X21920742Y36785367D01*
X21750477Y36725789D01*
X21750474Y36725788D01*
X21597739Y36629818D01*
X21597737Y36629817D01*
X21470183Y36502263D01*
X21470182Y36502261D01*
X21374212Y36349526D01*
X21374211Y36349523D01*
X21314633Y36179258D01*
X21314632Y36179255D01*
X21294435Y36000000D01*
X700500Y36000000D01*
X700500Y37300000D01*
X9294435Y37300000D01*
X9314632Y37120745D01*
X9358830Y36994435D01*
X9374211Y36950478D01*
X9374212Y36950475D01*
X9470182Y36797740D01*
X9470183Y36797738D01*
X9597737Y36670184D01*
X9597739Y36670183D01*
X9750474Y36574213D01*
X9750475Y36574213D01*
X9750478Y36574211D01*
X9920745Y36514632D01*
X10100000Y36494435D01*
X10279255Y36514632D01*
X10449522Y36574211D01*
X10602262Y36670184D01*
X10729816Y36797738D01*
X10825789Y36950478D01*
X10885368Y37120745D01*
X10905565Y37300000D01*
X10894298Y37400000D01*
X18894435Y37400000D01*
X18914632Y37220745D01*
X18974211Y37050478D01*
X18974212Y37050475D01*
X19070182Y36897740D01*
X19070183Y36897738D01*
X19197737Y36770184D01*
X19197739Y36770183D01*
X19350474Y36674213D01*
X19350475Y36674213D01*
X19350478Y36674211D01*
X19520745Y36614632D01*
X19700000Y36594435D01*
X19879255Y36614632D01*
X20049522Y36674211D01*
X20202262Y36770184D01*
X20329816Y36897738D01*
X20425789Y37050478D01*
X20485368Y37220745D01*
X20505565Y37400000D01*
X20485368Y37579255D01*
X20425789Y37749522D01*
X20425787Y37749525D01*
X20425787Y37749526D01*
X20329817Y37902261D01*
X20329816Y37902263D01*
X20202262Y38029817D01*
X20202260Y38029818D01*
X20049525Y38125788D01*
X20049522Y38125789D01*
X19981694Y38149523D01*
X19879255Y38185368D01*
X19700000Y38205565D01*
X19520745Y38185368D01*
X19520742Y38185368D01*
X19520742Y38185367D01*
X19350477Y38125789D01*
X19350474Y38125788D01*
X19197739Y38029818D01*
X19197737Y38029817D01*
X19070183Y37902263D01*
X19070182Y37902261D01*
X18974212Y37749526D01*
X18974211Y37749523D01*
X18945666Y37667946D01*
X18914632Y37579255D01*
X18894435Y37400000D01*
X10894298Y37400000D01*
X10885368Y37479255D01*
X10825789Y37649522D01*
X10825787Y37649525D01*
X10825787Y37649526D01*
X10729817Y37802261D01*
X10729816Y37802263D01*
X10602262Y37929817D01*
X10602260Y37929818D01*
X10449525Y38025788D01*
X10449522Y38025789D01*
X10386795Y38047738D01*
X10279255Y38085368D01*
X10100000Y38105565D01*
X9920745Y38085368D01*
X9920742Y38085368D01*
X9920742Y38085367D01*
X9750477Y38025789D01*
X9750474Y38025788D01*
X9597739Y37929818D01*
X9597737Y37929817D01*
X9470183Y37802263D01*
X9470182Y37802261D01*
X9374212Y37649526D01*
X9374211Y37649523D01*
X9341382Y37555702D01*
X9314632Y37479255D01*
X9294435Y37300000D01*
X700500Y37300000D01*
X700500Y41050000D01*
X33144357Y41050000D01*
X33164885Y40828461D01*
X33225768Y40614480D01*
X33225774Y40614463D01*
X33324938Y40415316D01*
X33324942Y40415311D01*
X33459017Y40237765D01*
X33623438Y40087876D01*
X33623439Y40087875D01*
X33812587Y39970760D01*
X33812590Y39970759D01*
X33812599Y39970753D01*
X33902989Y39935736D01*
X34020053Y39890384D01*
X34020056Y39890384D01*
X34020060Y39890382D01*
X34238757Y39849500D01*
X34238760Y39849500D01*
X34461240Y39849500D01*
X34461243Y39849500D01*
X34679940Y39890382D01*
X34679944Y39890384D01*
X34679946Y39890384D01*
X34771333Y39925788D01*
X34887401Y39970753D01*
X35076562Y40087876D01*
X35240981Y40237764D01*
X35375058Y40415311D01*
X35375059Y40415315D01*
X35375061Y40415316D01*
X35474225Y40614463D01*
X35474226Y40614467D01*
X35474229Y40614472D01*
X35535115Y40828464D01*
X35555643Y41050000D01*
X40144357Y41050000D01*
X40164885Y40828461D01*
X40225768Y40614480D01*
X40225774Y40614463D01*
X40324938Y40415316D01*
X40324942Y40415311D01*
X40459017Y40237765D01*
X40623438Y40087876D01*
X40623439Y40087875D01*
X40812587Y39970760D01*
X40812590Y39970759D01*
X40812599Y39970753D01*
X40902989Y39935736D01*
X41020053Y39890384D01*
X41020056Y39890384D01*
X41020060Y39890382D01*
X41238757Y39849500D01*
X41238760Y39849500D01*
X41461240Y39849500D01*
X41461243Y39849500D01*
X41679940Y39890382D01*
X41679944Y39890384D01*
X41679946Y39890384D01*
X41771333Y39925788D01*
X41887401Y39970753D01*
X42076562Y40087876D01*
X42240981Y40237764D01*
X42375058Y40415311D01*
X42375059Y40415315D01*
X42375061Y40415316D01*
X42474225Y40614463D01*
X42474226Y40614467D01*
X42474229Y40614472D01*
X42535115Y40828464D01*
X42555643Y41050000D01*
X42535115Y41271536D01*
X42514977Y41342312D01*
X42474231Y41485521D01*
X42474225Y41485538D01*
X42375061Y41684685D01*
X42375057Y41684690D01*
X42240982Y41862236D01*
X42076561Y42012125D01*
X42076560Y42012126D01*
X41887412Y42129241D01*
X41887405Y42129245D01*
X41887401Y42129247D01*
X41887396Y42129249D01*
X41679946Y42209617D01*
X41640972Y42216903D01*
X41461243Y42250500D01*
X41238757Y42250500D01*
X41097674Y42224127D01*
X41020053Y42209617D01*
X40812603Y42129249D01*
X40812587Y42129241D01*
X40623439Y42012126D01*
X40623438Y42012125D01*
X40459017Y41862236D01*
X40324942Y41684690D01*
X40324938Y41684685D01*
X40225774Y41485538D01*
X40225768Y41485521D01*
X40164885Y41271540D01*
X40144357Y41050000D01*
X35555643Y41050000D01*
X35535115Y41271536D01*
X35514977Y41342312D01*
X35474231Y41485521D01*
X35474225Y41485538D01*
X35375061Y41684685D01*
X35375057Y41684690D01*
X35240982Y41862236D01*
X35076561Y42012125D01*
X35076560Y42012126D01*
X34887412Y42129241D01*
X34887405Y42129245D01*
X34887401Y42129247D01*
X34887396Y42129249D01*
X34679946Y42209617D01*
X34640972Y42216903D01*
X34461243Y42250500D01*
X34238757Y42250500D01*
X34097674Y42224127D01*
X34020053Y42209617D01*
X33812603Y42129249D01*
X33812587Y42129241D01*
X33623439Y42012126D01*
X33623438Y42012125D01*
X33459017Y41862236D01*
X33324942Y41684690D01*
X33324938Y41684685D01*
X33225774Y41485538D01*
X33225768Y41485521D01*
X33164885Y41271540D01*
X33144357Y41050000D01*
X700500Y41050000D01*
X700500Y43600000D01*
X10694435Y43600000D01*
X10714632Y43420745D01*
X10714633Y43420743D01*
X10774211Y43250478D01*
X10774212Y43250475D01*
X10870182Y43097740D01*
X10870183Y43097738D01*
X10997737Y42970184D01*
X10997739Y42970183D01*
X11150474Y42874213D01*
X11150475Y42874213D01*
X11150478Y42874211D01*
X11320745Y42814632D01*
X11500000Y42794435D01*
X11679255Y42814632D01*
X11849522Y42874211D01*
X12002262Y42970184D01*
X12129816Y43097738D01*
X12225789Y43250478D01*
X12285368Y43420745D01*
X12305565Y43600000D01*
X12285368Y43779255D01*
X12225789Y43949522D01*
X12225787Y43949525D01*
X12225787Y43949526D01*
X12129817Y44102261D01*
X12129816Y44102263D01*
X12002262Y44229817D01*
X12002260Y44229818D01*
X11849525Y44325788D01*
X11849522Y44325789D01*
X11679255Y44385368D01*
X11500000Y44405565D01*
X11320745Y44385368D01*
X11320742Y44385368D01*
X11320742Y44385367D01*
X11150477Y44325789D01*
X11150474Y44325788D01*
X10997739Y44229818D01*
X10997737Y44229817D01*
X10870183Y44102263D01*
X10870182Y44102261D01*
X10774212Y43949526D01*
X10774211Y43949523D01*
X10774211Y43949522D01*
X10714632Y43779255D01*
X10694435Y43600000D01*
X700500Y43600000D01*
X700500Y47200000D01*
X10694435Y47200000D01*
X10714632Y47020745D01*
X10739221Y46950475D01*
X10774211Y46850478D01*
X10774212Y46850475D01*
X10870182Y46697740D01*
X10870183Y46697738D01*
X10997737Y46570184D01*
X10997739Y46570183D01*
X11150474Y46474213D01*
X11150475Y46474213D01*
X11150478Y46474211D01*
X11320745Y46414632D01*
X11500000Y46394435D01*
X11679255Y46414632D01*
X11849522Y46474211D01*
X12002262Y46570184D01*
X12129816Y46697738D01*
X12225789Y46850478D01*
X12278109Y47000000D01*
X19929435Y47000000D01*
X19949632Y46820745D01*
X19969266Y46764634D01*
X20009211Y46650478D01*
X20009212Y46650475D01*
X20105182Y46497740D01*
X20105183Y46497738D01*
X20232737Y46370184D01*
X20232739Y46370183D01*
X20385474Y46274213D01*
X20385475Y46274213D01*
X20385478Y46274211D01*
X20555745Y46214632D01*
X20735000Y46194435D01*
X20914255Y46214632D01*
X21084522Y46274211D01*
X21237262Y46370184D01*
X21364816Y46497738D01*
X21397654Y46550000D01*
X43294435Y46550000D01*
X43314632Y46370745D01*
X43314829Y46370183D01*
X43374211Y46200478D01*
X43374212Y46200475D01*
X43470182Y46047740D01*
X43470183Y46047738D01*
X43597737Y45920184D01*
X43597739Y45920183D01*
X43750474Y45824213D01*
X43750475Y45824213D01*
X43750478Y45824211D01*
X43920745Y45764632D01*
X44100000Y45744435D01*
X44279255Y45764632D01*
X44449522Y45824211D01*
X44602262Y45920184D01*
X44729816Y46047738D01*
X44825789Y46200478D01*
X44885368Y46370745D01*
X44905565Y46550000D01*
X44885368Y46729255D01*
X44825789Y46899522D01*
X44825787Y46899525D01*
X44825787Y46899526D01*
X44729817Y47052261D01*
X44729816Y47052263D01*
X44602262Y47179817D01*
X44602260Y47179818D01*
X44449525Y47275788D01*
X44449522Y47275789D01*
X44380331Y47300000D01*
X72044435Y47300000D01*
X72064632Y47120745D01*
X72064633Y47120743D01*
X72124211Y46950478D01*
X72124212Y46950475D01*
X72220182Y46797740D01*
X72220183Y46797738D01*
X72347737Y46670184D01*
X72347739Y46670183D01*
X72500474Y46574213D01*
X72500475Y46574213D01*
X72500478Y46574211D01*
X72670745Y46514632D01*
X72850000Y46494435D01*
X73029255Y46514632D01*
X73199522Y46574211D01*
X73352262Y46670184D01*
X73479816Y46797738D01*
X73575789Y46950478D01*
X73635368Y47120745D01*
X73655565Y47300000D01*
X73635368Y47479255D01*
X73575789Y47649522D01*
X73575787Y47649525D01*
X73575787Y47649526D01*
X73479817Y47802261D01*
X73479816Y47802263D01*
X73352262Y47929817D01*
X73352260Y47929818D01*
X73199525Y48025788D01*
X73199522Y48025789D01*
X73029255Y48085368D01*
X72850000Y48105565D01*
X72670745Y48085368D01*
X72670742Y48085368D01*
X72670742Y48085367D01*
X72500477Y48025789D01*
X72500474Y48025788D01*
X72347739Y47929818D01*
X72347737Y47929817D01*
X72220183Y47802263D01*
X72220182Y47802261D01*
X72124212Y47649526D01*
X72124211Y47649523D01*
X72089387Y47550000D01*
X72064632Y47479255D01*
X72044435Y47300000D01*
X44380331Y47300000D01*
X44279255Y47335368D01*
X44100000Y47355565D01*
X43920745Y47335368D01*
X43920742Y47335368D01*
X43920742Y47335367D01*
X43750477Y47275789D01*
X43750474Y47275788D01*
X43597739Y47179818D01*
X43597737Y47179817D01*
X43470183Y47052263D01*
X43470182Y47052261D01*
X43374212Y46899526D01*
X43374211Y46899523D01*
X43346646Y46820745D01*
X43314632Y46729255D01*
X43294435Y46550000D01*
X21397654Y46550000D01*
X21460789Y46650478D01*
X21520368Y46820745D01*
X21540565Y47000000D01*
X21520368Y47179255D01*
X21460789Y47349522D01*
X21460787Y47349525D01*
X21460787Y47349526D01*
X21364817Y47502261D01*
X21364816Y47502263D01*
X21317079Y47550000D01*
X38544435Y47550000D01*
X38564632Y47370745D01*
X38589387Y47300000D01*
X38624211Y47200478D01*
X38624212Y47200475D01*
X38720182Y47047740D01*
X38720183Y47047738D01*
X38847737Y46920184D01*
X38847739Y46920183D01*
X39000474Y46824213D01*
X39000475Y46824213D01*
X39000478Y46824211D01*
X39170745Y46764632D01*
X39350000Y46744435D01*
X39529255Y46764632D01*
X39699522Y46824211D01*
X39852262Y46920184D01*
X39979816Y47047738D01*
X40075789Y47200478D01*
X40135368Y47370745D01*
X40155565Y47550000D01*
X40135368Y47729255D01*
X40075789Y47899522D01*
X40075787Y47899525D01*
X40075787Y47899526D01*
X39979817Y48052261D01*
X39979816Y48052263D01*
X39852262Y48179817D01*
X39852260Y48179818D01*
X39699525Y48275788D01*
X39699522Y48275789D01*
X39630331Y48300000D01*
X39529255Y48335368D01*
X39350000Y48355565D01*
X39170745Y48335368D01*
X39170742Y48335368D01*
X39170742Y48335367D01*
X39000477Y48275789D01*
X39000474Y48275788D01*
X38847739Y48179818D01*
X38847737Y48179817D01*
X38720183Y48052263D01*
X38720182Y48052261D01*
X38624212Y47899526D01*
X38624211Y47899523D01*
X38590178Y47802262D01*
X38564632Y47729255D01*
X38544435Y47550000D01*
X21317079Y47550000D01*
X21237262Y47629817D01*
X21237260Y47629818D01*
X21084525Y47725788D01*
X21084522Y47725789D01*
X21074608Y47729258D01*
X20914255Y47785368D01*
X20735000Y47805565D01*
X20555745Y47785368D01*
X20555742Y47785368D01*
X20555742Y47785367D01*
X20385477Y47725789D01*
X20385474Y47725788D01*
X20232739Y47629818D01*
X20232737Y47629817D01*
X20105183Y47502263D01*
X20105182Y47502261D01*
X20009212Y47349526D01*
X20009211Y47349523D01*
X19983410Y47275788D01*
X19949632Y47179255D01*
X19929435Y47000000D01*
X12278109Y47000000D01*
X12285368Y47020745D01*
X12305565Y47200000D01*
X12285368Y47379255D01*
X12225789Y47549522D01*
X12225787Y47549525D01*
X12225787Y47549526D01*
X12129817Y47702261D01*
X12129816Y47702263D01*
X12002262Y47829817D01*
X12002260Y47829818D01*
X11849525Y47925788D01*
X11849522Y47925789D01*
X11778965Y47950478D01*
X11679255Y47985368D01*
X11500000Y48005565D01*
X11320745Y47985368D01*
X11320742Y47985368D01*
X11320742Y47985367D01*
X11150477Y47925789D01*
X11150474Y47925788D01*
X10997739Y47829818D01*
X10997737Y47829817D01*
X10870183Y47702263D01*
X10870182Y47702261D01*
X10774212Y47549526D01*
X10774211Y47549523D01*
X10714633Y47379258D01*
X10714632Y47379255D01*
X10694435Y47200000D01*
X700500Y47200000D01*
X700500Y48225000D01*
X1369435Y48225000D01*
X1389632Y48045745D01*
X1431607Y47925788D01*
X1449211Y47875478D01*
X1449212Y47875475D01*
X1545182Y47722740D01*
X1545183Y47722738D01*
X1672737Y47595184D01*
X1672739Y47595183D01*
X1825474Y47499213D01*
X1825475Y47499213D01*
X1825478Y47499211D01*
X1995745Y47439632D01*
X2175000Y47419435D01*
X2354255Y47439632D01*
X2524522Y47499211D01*
X2677262Y47595184D01*
X2804816Y47722738D01*
X2900789Y47875478D01*
X2960368Y48045745D01*
X2980565Y48225000D01*
X2972115Y48300000D01*
X16044435Y48300000D01*
X16064632Y48120745D01*
X16112003Y47985367D01*
X16124211Y47950478D01*
X16124212Y47950475D01*
X16220182Y47797740D01*
X16220183Y47797738D01*
X16347737Y47670184D01*
X16347739Y47670183D01*
X16500474Y47574213D01*
X16500475Y47574213D01*
X16500478Y47574211D01*
X16670745Y47514632D01*
X16850000Y47494435D01*
X17029255Y47514632D01*
X17199522Y47574211D01*
X17352262Y47670184D01*
X17479816Y47797738D01*
X17575789Y47950478D01*
X17635368Y48120745D01*
X17655565Y48300000D01*
X17635368Y48479255D01*
X17575789Y48649522D01*
X17575787Y48649525D01*
X17575787Y48649526D01*
X17479817Y48802261D01*
X17479816Y48802263D01*
X17352262Y48929817D01*
X17352260Y48929818D01*
X17199525Y49025788D01*
X17199522Y49025789D01*
X17130331Y49050000D01*
X56044435Y49050000D01*
X56064632Y48870745D01*
X56070206Y48854816D01*
X56124211Y48700478D01*
X56124212Y48700475D01*
X56220182Y48547740D01*
X56220183Y48547738D01*
X56347737Y48420184D01*
X56347739Y48420183D01*
X56500474Y48324213D01*
X56500475Y48324213D01*
X56500478Y48324211D01*
X56670745Y48264632D01*
X56850000Y48244435D01*
X57029255Y48264632D01*
X57199522Y48324211D01*
X57352262Y48420184D01*
X57479816Y48547738D01*
X57575789Y48700478D01*
X57635368Y48870745D01*
X57655565Y49050000D01*
X63294435Y49050000D01*
X63314632Y48870745D01*
X63320206Y48854816D01*
X63374211Y48700478D01*
X63374212Y48700475D01*
X63470182Y48547740D01*
X63470183Y48547738D01*
X63597737Y48420184D01*
X63597739Y48420183D01*
X63750474Y48324213D01*
X63750475Y48324213D01*
X63750478Y48324211D01*
X63920745Y48264632D01*
X64100000Y48244435D01*
X64279255Y48264632D01*
X64449522Y48324211D01*
X64602262Y48420184D01*
X64729816Y48547738D01*
X64825789Y48700478D01*
X64885368Y48870745D01*
X64905565Y49050000D01*
X64885368Y49229255D01*
X64825789Y49399522D01*
X64825787Y49399525D01*
X64825787Y49399526D01*
X64729817Y49552261D01*
X64729816Y49552263D01*
X64602262Y49679817D01*
X64602260Y49679818D01*
X64449525Y49775788D01*
X64449522Y49775789D01*
X64386795Y49797738D01*
X64279255Y49835368D01*
X64100000Y49855565D01*
X63920745Y49835368D01*
X63920742Y49835368D01*
X63920742Y49835367D01*
X63750477Y49775789D01*
X63750474Y49775788D01*
X63597739Y49679818D01*
X63597737Y49679817D01*
X63470183Y49552263D01*
X63470182Y49552261D01*
X63374212Y49399526D01*
X63374211Y49399523D01*
X63374211Y49399522D01*
X63314632Y49229255D01*
X63294435Y49050000D01*
X57655565Y49050000D01*
X57635368Y49229255D01*
X57575789Y49399522D01*
X57575787Y49399525D01*
X57575787Y49399526D01*
X57479817Y49552261D01*
X57479816Y49552263D01*
X57352262Y49679817D01*
X57352260Y49679818D01*
X57199525Y49775788D01*
X57199522Y49775789D01*
X57136795Y49797738D01*
X57029255Y49835368D01*
X56850000Y49855565D01*
X56670745Y49835368D01*
X56670742Y49835368D01*
X56670742Y49835367D01*
X56500477Y49775789D01*
X56500474Y49775788D01*
X56347739Y49679818D01*
X56347737Y49679817D01*
X56220183Y49552263D01*
X56220182Y49552261D01*
X56124212Y49399526D01*
X56124211Y49399523D01*
X56124211Y49399522D01*
X56064632Y49229255D01*
X56044435Y49050000D01*
X17130331Y49050000D01*
X17029255Y49085368D01*
X16850000Y49105565D01*
X16670745Y49085368D01*
X16670742Y49085368D01*
X16670742Y49085367D01*
X16500477Y49025789D01*
X16500474Y49025788D01*
X16347739Y48929818D01*
X16347737Y48929817D01*
X16220183Y48802263D01*
X16220182Y48802261D01*
X16124212Y48649526D01*
X16124211Y48649523D01*
X16097967Y48574522D01*
X16064632Y48479255D01*
X16044435Y48300000D01*
X2972115Y48300000D01*
X2960368Y48404255D01*
X2900789Y48574522D01*
X2900787Y48574525D01*
X2900787Y48574526D01*
X2804817Y48727261D01*
X2804816Y48727263D01*
X2677262Y48854817D01*
X2677260Y48854818D01*
X2524525Y48950788D01*
X2524522Y48950789D01*
X2354255Y49010368D01*
X2175000Y49030565D01*
X1995745Y49010368D01*
X1995742Y49010368D01*
X1995742Y49010367D01*
X1825477Y48950789D01*
X1825474Y48950788D01*
X1672739Y48854818D01*
X1672737Y48854817D01*
X1545183Y48727263D01*
X1545182Y48727261D01*
X1449212Y48574526D01*
X1449211Y48574523D01*
X1395206Y48420184D01*
X1389632Y48404255D01*
X1369435Y48225000D01*
X700500Y48225000D01*
X700500Y50300000D01*
X23794435Y50300000D01*
X23814632Y50120745D01*
X23814633Y50120743D01*
X23874211Y49950478D01*
X23874212Y49950475D01*
X23970182Y49797740D01*
X23970183Y49797738D01*
X24097737Y49670184D01*
X24097739Y49670183D01*
X24250474Y49574213D01*
X24250475Y49574213D01*
X24250478Y49574211D01*
X24420745Y49514632D01*
X24600000Y49494435D01*
X24779255Y49514632D01*
X24949522Y49574211D01*
X25102262Y49670184D01*
X25229816Y49797738D01*
X25325789Y49950478D01*
X25385368Y50120745D01*
X25405565Y50300000D01*
X25385368Y50479255D01*
X25325789Y50649522D01*
X25325787Y50649525D01*
X25325787Y50649526D01*
X25229817Y50802261D01*
X25229816Y50802263D01*
X25102262Y50929817D01*
X25102260Y50929818D01*
X24949525Y51025788D01*
X24949522Y51025789D01*
X24873869Y51052261D01*
X24779255Y51085368D01*
X24600000Y51105565D01*
X24420745Y51085368D01*
X24420742Y51085368D01*
X24420742Y51085367D01*
X24250477Y51025789D01*
X24250474Y51025788D01*
X24097739Y50929818D01*
X24097737Y50929817D01*
X23970183Y50802263D01*
X23970182Y50802261D01*
X23874212Y50649526D01*
X23874211Y50649523D01*
X23874211Y50649522D01*
X23814632Y50479255D01*
X23794435Y50300000D01*
X700500Y50300000D01*
X700500Y51800000D01*
X31294435Y51800000D01*
X31314632Y51620745D01*
X31314633Y51620743D01*
X31374211Y51450478D01*
X31374212Y51450475D01*
X31470182Y51297740D01*
X31470183Y51297738D01*
X31597737Y51170184D01*
X31597739Y51170183D01*
X31750474Y51074213D01*
X31750475Y51074213D01*
X31750478Y51074211D01*
X31920745Y51014632D01*
X32100000Y50994435D01*
X32279255Y51014632D01*
X32380331Y51050000D01*
X33544435Y51050000D01*
X33564632Y50870745D01*
X33624211Y50700478D01*
X33624212Y50700475D01*
X33720182Y50547740D01*
X33720183Y50547738D01*
X33847737Y50420184D01*
X33847739Y50420183D01*
X34000474Y50324213D01*
X34000475Y50324213D01*
X34000478Y50324211D01*
X34170745Y50264632D01*
X34350000Y50244435D01*
X34529255Y50264632D01*
X34699522Y50324211D01*
X34852262Y50420184D01*
X34979816Y50547738D01*
X34981237Y50550000D01*
X50794435Y50550000D01*
X50814632Y50370745D01*
X50858830Y50244435D01*
X50874211Y50200478D01*
X50874212Y50200475D01*
X50970182Y50047740D01*
X50970183Y50047738D01*
X51097737Y49920184D01*
X51097739Y49920183D01*
X51250474Y49824213D01*
X51250475Y49824213D01*
X51250478Y49824211D01*
X51420745Y49764632D01*
X51600000Y49744435D01*
X51779255Y49764632D01*
X51949522Y49824211D01*
X52102262Y49920184D01*
X52229816Y50047738D01*
X52325789Y50200478D01*
X52385368Y50370745D01*
X52405565Y50550000D01*
X59794435Y50550000D01*
X59814632Y50370745D01*
X59858830Y50244435D01*
X59874211Y50200478D01*
X59874212Y50200475D01*
X59970182Y50047740D01*
X59970183Y50047738D01*
X60097737Y49920184D01*
X60097739Y49920183D01*
X60250474Y49824213D01*
X60250475Y49824213D01*
X60250478Y49824211D01*
X60420745Y49764632D01*
X60600000Y49744435D01*
X60779255Y49764632D01*
X60949522Y49824211D01*
X61102262Y49920184D01*
X61229816Y50047738D01*
X61325789Y50200478D01*
X61385368Y50370745D01*
X61405565Y50550000D01*
X61385368Y50729255D01*
X61325789Y50899522D01*
X61325787Y50899525D01*
X61325787Y50899526D01*
X61229817Y51052261D01*
X61229816Y51052263D01*
X61102262Y51179817D01*
X61102260Y51179818D01*
X60949525Y51275788D01*
X60949522Y51275789D01*
X60886795Y51297738D01*
X60779255Y51335368D01*
X60600000Y51355565D01*
X60420745Y51335368D01*
X60420742Y51335368D01*
X60420742Y51335367D01*
X60250477Y51275789D01*
X60250474Y51275788D01*
X60097739Y51179818D01*
X60097737Y51179817D01*
X59970183Y51052263D01*
X59970182Y51052261D01*
X59874212Y50899526D01*
X59874211Y50899523D01*
X59840178Y50802262D01*
X59814632Y50729255D01*
X59794435Y50550000D01*
X52405565Y50550000D01*
X52385368Y50729255D01*
X52325789Y50899522D01*
X52325787Y50899525D01*
X52325787Y50899526D01*
X52229817Y51052261D01*
X52229816Y51052263D01*
X52102262Y51179817D01*
X52102260Y51179818D01*
X51949525Y51275788D01*
X51949522Y51275789D01*
X51886795Y51297738D01*
X51779255Y51335368D01*
X51600000Y51355565D01*
X51420745Y51335368D01*
X51420742Y51335368D01*
X51420742Y51335367D01*
X51250477Y51275789D01*
X51250474Y51275788D01*
X51097739Y51179818D01*
X51097737Y51179817D01*
X50970183Y51052263D01*
X50970182Y51052261D01*
X50874212Y50899526D01*
X50874211Y50899523D01*
X50840178Y50802262D01*
X50814632Y50729255D01*
X50794435Y50550000D01*
X34981237Y50550000D01*
X35075789Y50700478D01*
X35135368Y50870745D01*
X35155565Y51050000D01*
X35135368Y51229255D01*
X35075789Y51399522D01*
X35075787Y51399525D01*
X35075787Y51399526D01*
X34979817Y51552261D01*
X34979816Y51552263D01*
X34852262Y51679817D01*
X34852260Y51679818D01*
X34699525Y51775788D01*
X34699522Y51775789D01*
X34630331Y51800000D01*
X67044435Y51800000D01*
X67064632Y51620745D01*
X67064633Y51620743D01*
X67124211Y51450478D01*
X67124212Y51450475D01*
X67220182Y51297740D01*
X67220183Y51297738D01*
X67347737Y51170184D01*
X67347739Y51170183D01*
X67500474Y51074213D01*
X67500475Y51074213D01*
X67500478Y51074211D01*
X67670745Y51014632D01*
X67850000Y50994435D01*
X68029255Y51014632D01*
X68199522Y51074211D01*
X68352262Y51170184D01*
X68479816Y51297738D01*
X68575789Y51450478D01*
X68635368Y51620745D01*
X68655565Y51800000D01*
X68635368Y51979255D01*
X68575789Y52149522D01*
X68575787Y52149525D01*
X68575787Y52149526D01*
X68479817Y52302261D01*
X68479816Y52302263D01*
X68352262Y52429817D01*
X68352260Y52429818D01*
X68199525Y52525788D01*
X68199522Y52525789D01*
X68029255Y52585368D01*
X67850000Y52605565D01*
X67670745Y52585368D01*
X67670742Y52585368D01*
X67670742Y52585367D01*
X67500477Y52525789D01*
X67500474Y52525788D01*
X67347739Y52429818D01*
X67347737Y52429817D01*
X67220183Y52302263D01*
X67220182Y52302261D01*
X67124212Y52149526D01*
X67124211Y52149523D01*
X67124211Y52149522D01*
X67064632Y51979255D01*
X67044435Y51800000D01*
X34630331Y51800000D01*
X34529255Y51835368D01*
X34350000Y51855565D01*
X34170745Y51835368D01*
X34170742Y51835368D01*
X34170742Y51835367D01*
X34000477Y51775789D01*
X34000474Y51775788D01*
X33847739Y51679818D01*
X33847737Y51679817D01*
X33720183Y51552263D01*
X33720182Y51552261D01*
X33624212Y51399526D01*
X33624211Y51399523D01*
X33564633Y51229258D01*
X33564632Y51229255D01*
X33544435Y51050000D01*
X32380331Y51050000D01*
X32449522Y51074211D01*
X32602262Y51170184D01*
X32729816Y51297738D01*
X32825789Y51450478D01*
X32885368Y51620745D01*
X32905565Y51800000D01*
X32885368Y51979255D01*
X32825789Y52149522D01*
X32825787Y52149525D01*
X32825787Y52149526D01*
X32729817Y52302261D01*
X32729816Y52302263D01*
X32602262Y52429817D01*
X32602260Y52429818D01*
X32449525Y52525788D01*
X32449522Y52525789D01*
X32279255Y52585368D01*
X32100000Y52605565D01*
X31920745Y52585368D01*
X31920742Y52585368D01*
X31920742Y52585367D01*
X31750477Y52525789D01*
X31750474Y52525788D01*
X31597739Y52429818D01*
X31597737Y52429817D01*
X31470183Y52302263D01*
X31470182Y52302261D01*
X31374212Y52149526D01*
X31374211Y52149523D01*
X31374211Y52149522D01*
X31314632Y51979255D01*
X31294435Y51800000D01*
X700500Y51800000D01*
X700500Y53550000D01*
X6294435Y53550000D01*
X6314632Y53370745D01*
X6314633Y53370743D01*
X6374211Y53200478D01*
X6374212Y53200475D01*
X6470182Y53047740D01*
X6470183Y53047738D01*
X6597737Y52920184D01*
X6597739Y52920183D01*
X6750474Y52824213D01*
X6750475Y52824213D01*
X6750478Y52824211D01*
X6920745Y52764632D01*
X7100000Y52744435D01*
X7279255Y52764632D01*
X7449522Y52824211D01*
X7602262Y52920184D01*
X7729816Y53047738D01*
X7825789Y53200478D01*
X7885368Y53370745D01*
X7905565Y53550000D01*
X7885368Y53729255D01*
X7825789Y53899522D01*
X7825787Y53899525D01*
X7825787Y53899526D01*
X7729817Y54052261D01*
X7729816Y54052263D01*
X7602262Y54179817D01*
X7602260Y54179818D01*
X7449525Y54275788D01*
X7449522Y54275789D01*
X7279255Y54335368D01*
X7100000Y54355565D01*
X6920745Y54335368D01*
X6920742Y54335368D01*
X6920742Y54335367D01*
X6750477Y54275789D01*
X6750474Y54275788D01*
X6597739Y54179818D01*
X6597737Y54179817D01*
X6470183Y54052263D01*
X6470182Y54052261D01*
X6374212Y53899526D01*
X6374211Y53899523D01*
X6374211Y53899522D01*
X6314632Y53729255D01*
X6294435Y53550000D01*
X700500Y53550000D01*
X700500Y55050000D01*
X50794435Y55050000D01*
X50814632Y54870745D01*
X50858830Y54744435D01*
X50874211Y54700478D01*
X50874212Y54700475D01*
X50970182Y54547740D01*
X50970183Y54547738D01*
X51097737Y54420184D01*
X51097739Y54420183D01*
X51250474Y54324213D01*
X51250475Y54324213D01*
X51250478Y54324211D01*
X51420745Y54264632D01*
X51600000Y54244435D01*
X51779255Y54264632D01*
X51949522Y54324211D01*
X52102262Y54420184D01*
X52229816Y54547738D01*
X52325789Y54700478D01*
X52385368Y54870745D01*
X52405565Y55050000D01*
X52385368Y55229255D01*
X52325789Y55399522D01*
X52325787Y55399525D01*
X52325787Y55399526D01*
X52231238Y55550000D01*
X59544435Y55550000D01*
X59564632Y55370745D01*
X59624211Y55200478D01*
X59624212Y55200475D01*
X59720182Y55047740D01*
X59720183Y55047738D01*
X59847737Y54920184D01*
X59847739Y54920183D01*
X60000474Y54824213D01*
X60000475Y54824213D01*
X60000478Y54824211D01*
X60170745Y54764632D01*
X60350000Y54744435D01*
X60529255Y54764632D01*
X60699522Y54824211D01*
X60852262Y54920184D01*
X60979816Y55047738D01*
X61075789Y55200478D01*
X61135368Y55370745D01*
X61155565Y55550000D01*
X61135368Y55729255D01*
X61075789Y55899522D01*
X61075787Y55899525D01*
X61075787Y55899526D01*
X60979817Y56052261D01*
X60979816Y56052263D01*
X60852262Y56179817D01*
X60852260Y56179818D01*
X60699525Y56275788D01*
X60699522Y56275789D01*
X60636795Y56297738D01*
X60529255Y56335368D01*
X60350000Y56355565D01*
X60170745Y56335368D01*
X60170742Y56335368D01*
X60170742Y56335367D01*
X60000477Y56275789D01*
X60000474Y56275788D01*
X59847739Y56179818D01*
X59847737Y56179817D01*
X59720183Y56052263D01*
X59720182Y56052261D01*
X59624212Y55899526D01*
X59624211Y55899523D01*
X59577012Y55764634D01*
X59564632Y55729255D01*
X59544435Y55550000D01*
X52231238Y55550000D01*
X52229817Y55552261D01*
X52229816Y55552263D01*
X52102262Y55679817D01*
X52102260Y55679818D01*
X51949525Y55775788D01*
X51949522Y55775789D01*
X51779255Y55835368D01*
X51600000Y55855565D01*
X51420745Y55835368D01*
X51420742Y55835368D01*
X51420742Y55835367D01*
X51250477Y55775789D01*
X51250474Y55775788D01*
X51097739Y55679818D01*
X51097737Y55679817D01*
X50970183Y55552263D01*
X50970182Y55552261D01*
X50874212Y55399526D01*
X50874211Y55399523D01*
X50814633Y55229258D01*
X50814632Y55229255D01*
X50794435Y55050000D01*
X700500Y55050000D01*
X700500Y56550000D01*
X6294435Y56550000D01*
X6314632Y56370745D01*
X6340178Y56297740D01*
X6374211Y56200478D01*
X6374212Y56200475D01*
X6470182Y56047740D01*
X6470183Y56047738D01*
X6597737Y55920184D01*
X6597739Y55920183D01*
X6750474Y55824213D01*
X6750475Y55824213D01*
X6750478Y55824211D01*
X6920745Y55764632D01*
X7100000Y55744435D01*
X7279255Y55764632D01*
X7449522Y55824211D01*
X7602262Y55920184D01*
X7729816Y56047738D01*
X7825789Y56200478D01*
X7885368Y56370745D01*
X7905565Y56550000D01*
X16044435Y56550000D01*
X16064632Y56370745D01*
X16090178Y56297740D01*
X16124211Y56200478D01*
X16124212Y56200475D01*
X16220182Y56047740D01*
X16220183Y56047738D01*
X16347737Y55920184D01*
X16347739Y55920183D01*
X16500474Y55824213D01*
X16500475Y55824213D01*
X16500478Y55824211D01*
X16670745Y55764632D01*
X16850000Y55744435D01*
X17029255Y55764632D01*
X17199522Y55824211D01*
X17352262Y55920184D01*
X17479816Y56047738D01*
X17575789Y56200478D01*
X17635368Y56370745D01*
X17655565Y56550000D01*
X17635368Y56729255D01*
X17584370Y56875000D01*
X29619435Y56875000D01*
X29639632Y56695745D01*
X29690630Y56550000D01*
X29699211Y56525478D01*
X29699212Y56525475D01*
X29795182Y56372740D01*
X29795183Y56372738D01*
X29922737Y56245184D01*
X29922739Y56245183D01*
X30075474Y56149213D01*
X30075475Y56149213D01*
X30075478Y56149211D01*
X30245745Y56089632D01*
X30425000Y56069435D01*
X30604255Y56089632D01*
X30774522Y56149211D01*
X30927262Y56245184D01*
X31054816Y56372738D01*
X31150789Y56525478D01*
X31210368Y56695745D01*
X31222115Y56800000D01*
X33429435Y56800000D01*
X33449632Y56620745D01*
X33509211Y56450478D01*
X33509212Y56450475D01*
X33605182Y56297740D01*
X33605183Y56297738D01*
X33732737Y56170184D01*
X33732739Y56170183D01*
X33885474Y56074213D01*
X33885475Y56074213D01*
X33885478Y56074211D01*
X34055745Y56014632D01*
X34235000Y55994435D01*
X34414255Y56014632D01*
X34584522Y56074211D01*
X34737262Y56170184D01*
X34864816Y56297738D01*
X34960789Y56450478D01*
X35020368Y56620745D01*
X35040565Y56800000D01*
X35020368Y56979255D01*
X34960789Y57149522D01*
X34960787Y57149525D01*
X34960787Y57149526D01*
X34864817Y57302261D01*
X34864816Y57302263D01*
X34737262Y57429817D01*
X34737260Y57429818D01*
X34584525Y57525788D01*
X34584522Y57525789D01*
X34414255Y57585368D01*
X34235000Y57605565D01*
X34055745Y57585368D01*
X34055742Y57585368D01*
X34055742Y57585367D01*
X33885477Y57525789D01*
X33885474Y57525788D01*
X33732739Y57429818D01*
X33732737Y57429817D01*
X33605183Y57302263D01*
X33605182Y57302261D01*
X33509212Y57149526D01*
X33509211Y57149523D01*
X33475178Y57052262D01*
X33449632Y56979255D01*
X33429435Y56800000D01*
X31222115Y56800000D01*
X31230565Y56875000D01*
X31210368Y57054255D01*
X31150789Y57224522D01*
X31150787Y57224525D01*
X31150787Y57224526D01*
X31054817Y57377261D01*
X31054816Y57377263D01*
X30927262Y57504817D01*
X30927260Y57504818D01*
X30774525Y57600788D01*
X30774522Y57600789D01*
X30760873Y57605565D01*
X30604255Y57660368D01*
X30425000Y57680565D01*
X30245745Y57660368D01*
X30245742Y57660368D01*
X30245742Y57660367D01*
X30075477Y57600789D01*
X30075474Y57600788D01*
X29922739Y57504818D01*
X29922737Y57504817D01*
X29795183Y57377263D01*
X29795182Y57377261D01*
X29699212Y57224526D01*
X29699211Y57224523D01*
X29672967Y57149522D01*
X29639632Y57054255D01*
X29619435Y56875000D01*
X17584370Y56875000D01*
X17575789Y56899522D01*
X17575787Y56899525D01*
X17575787Y56899526D01*
X17479817Y57052261D01*
X17479816Y57052263D01*
X17352262Y57179817D01*
X17352260Y57179818D01*
X17199525Y57275788D01*
X17199522Y57275789D01*
X17123869Y57302261D01*
X17029255Y57335368D01*
X16850000Y57355565D01*
X16670745Y57335368D01*
X16670742Y57335368D01*
X16670742Y57335367D01*
X16500477Y57275789D01*
X16500474Y57275788D01*
X16347739Y57179818D01*
X16347737Y57179817D01*
X16220183Y57052263D01*
X16220182Y57052261D01*
X16124212Y56899526D01*
X16124211Y56899523D01*
X16124211Y56899522D01*
X16064632Y56729255D01*
X16044435Y56550000D01*
X7905565Y56550000D01*
X7885368Y56729255D01*
X7825789Y56899522D01*
X7825787Y56899525D01*
X7825787Y56899526D01*
X7729817Y57052261D01*
X7729816Y57052263D01*
X7602262Y57179817D01*
X7602260Y57179818D01*
X7449525Y57275788D01*
X7449522Y57275789D01*
X7373869Y57302261D01*
X7279255Y57335368D01*
X7100000Y57355565D01*
X6920745Y57335368D01*
X6920742Y57335368D01*
X6920742Y57335367D01*
X6750477Y57275789D01*
X6750474Y57275788D01*
X6597739Y57179818D01*
X6597737Y57179817D01*
X6470183Y57052263D01*
X6470182Y57052261D01*
X6374212Y56899526D01*
X6374211Y56899523D01*
X6374211Y56899522D01*
X6314632Y56729255D01*
X6294435Y56550000D01*
X700500Y56550000D01*
X700500Y59550000D01*
X19294435Y59550000D01*
X19314632Y59370745D01*
X19314633Y59370743D01*
X19374211Y59200478D01*
X19374212Y59200475D01*
X19470182Y59047740D01*
X19470183Y59047738D01*
X19597737Y58920184D01*
X19597739Y58920183D01*
X19750474Y58824213D01*
X19750475Y58824213D01*
X19750478Y58824211D01*
X19920745Y58764632D01*
X20100000Y58744435D01*
X20279255Y58764632D01*
X20449522Y58824211D01*
X20602262Y58920184D01*
X20729816Y59047738D01*
X20825789Y59200478D01*
X20885368Y59370745D01*
X20905565Y59550000D01*
X20885368Y59729255D01*
X20825789Y59899522D01*
X20825787Y59899525D01*
X20825787Y59899526D01*
X20729817Y60052261D01*
X20729816Y60052263D01*
X20602262Y60179817D01*
X20602260Y60179818D01*
X20449525Y60275788D01*
X20449522Y60275789D01*
X20279255Y60335368D01*
X20100000Y60355565D01*
X19920745Y60335368D01*
X19920742Y60335368D01*
X19920742Y60335367D01*
X19750477Y60275789D01*
X19750474Y60275788D01*
X19597739Y60179818D01*
X19597737Y60179817D01*
X19470183Y60052263D01*
X19470182Y60052261D01*
X19374212Y59899526D01*
X19374211Y59899523D01*
X19374211Y59899522D01*
X19314632Y59729255D01*
X19294435Y59550000D01*
X700500Y59550000D01*
X700500Y61050000D01*
X54544435Y61050000D01*
X54564632Y60870745D01*
X54564633Y60870743D01*
X54624211Y60700478D01*
X54624212Y60700475D01*
X54720182Y60547740D01*
X54720183Y60547738D01*
X54847737Y60420184D01*
X54847739Y60420183D01*
X55000474Y60324213D01*
X55000475Y60324213D01*
X55000478Y60324211D01*
X55170745Y60264632D01*
X55350000Y60244435D01*
X55529255Y60264632D01*
X55699522Y60324211D01*
X55852262Y60420184D01*
X55979816Y60547738D01*
X56075789Y60700478D01*
X56135368Y60870745D01*
X56155565Y61050000D01*
X56135368Y61229255D01*
X56075789Y61399522D01*
X56075787Y61399525D01*
X56075787Y61399526D01*
X55979817Y61552261D01*
X55979816Y61552263D01*
X55852262Y61679817D01*
X55852260Y61679818D01*
X55699525Y61775788D01*
X55699522Y61775789D01*
X55529255Y61835368D01*
X55350000Y61855565D01*
X55170745Y61835368D01*
X55170742Y61835368D01*
X55170742Y61835367D01*
X55000477Y61775789D01*
X55000474Y61775788D01*
X54847739Y61679818D01*
X54847737Y61679817D01*
X54720183Y61552263D01*
X54720182Y61552261D01*
X54624212Y61399526D01*
X54624211Y61399523D01*
X54624211Y61399522D01*
X54564632Y61229255D01*
X54544435Y61050000D01*
X700500Y61050000D01*
X700500Y63300000D01*
X9294435Y63300000D01*
X9314632Y63120745D01*
X9358830Y62994435D01*
X9374211Y62950478D01*
X9374212Y62950475D01*
X9470182Y62797740D01*
X9470183Y62797738D01*
X9597737Y62670184D01*
X9597739Y62670183D01*
X9750474Y62574213D01*
X9750475Y62574213D01*
X9750478Y62574211D01*
X9920745Y62514632D01*
X10100000Y62494435D01*
X10279255Y62514632D01*
X10449522Y62574211D01*
X10602262Y62670184D01*
X10729816Y62797738D01*
X10825789Y62950478D01*
X10885368Y63120745D01*
X10905565Y63300000D01*
X10885368Y63479255D01*
X10825789Y63649522D01*
X10825787Y63649525D01*
X10825787Y63649526D01*
X10729817Y63802261D01*
X10729816Y63802263D01*
X10602262Y63929817D01*
X10602260Y63929818D01*
X10449525Y64025788D01*
X10449522Y64025789D01*
X10386795Y64047738D01*
X10380331Y64050000D01*
X21044435Y64050000D01*
X21064632Y63870745D01*
X21108830Y63744435D01*
X21124211Y63700478D01*
X21124212Y63700475D01*
X21220182Y63547740D01*
X21220183Y63547738D01*
X21347737Y63420184D01*
X21347739Y63420183D01*
X21500474Y63324213D01*
X21500475Y63324213D01*
X21500478Y63324211D01*
X21670745Y63264632D01*
X21850000Y63244435D01*
X22029255Y63264632D01*
X22199522Y63324211D01*
X22352262Y63420184D01*
X22479816Y63547738D01*
X22575789Y63700478D01*
X22635368Y63870745D01*
X22655565Y64050000D01*
X22635368Y64229255D01*
X22575789Y64399522D01*
X22575787Y64399525D01*
X22575787Y64399526D01*
X22481238Y64550000D01*
X25794435Y64550000D01*
X25814632Y64370745D01*
X25874211Y64200478D01*
X25874212Y64200475D01*
X25970182Y64047740D01*
X25970183Y64047738D01*
X26097737Y63920184D01*
X26097739Y63920183D01*
X26250474Y63824213D01*
X26250475Y63824213D01*
X26250478Y63824211D01*
X26420745Y63764632D01*
X26600000Y63744435D01*
X26779255Y63764632D01*
X26949522Y63824211D01*
X27102262Y63920184D01*
X27229816Y64047738D01*
X27325789Y64200478D01*
X27385368Y64370745D01*
X27405565Y64550000D01*
X28794435Y64550000D01*
X28814632Y64370745D01*
X28874211Y64200478D01*
X28874212Y64200475D01*
X28970182Y64047740D01*
X28970183Y64047738D01*
X29097737Y63920184D01*
X29097739Y63920183D01*
X29250474Y63824213D01*
X29250475Y63824213D01*
X29250478Y63824211D01*
X29420745Y63764632D01*
X29600000Y63744435D01*
X29779255Y63764632D01*
X29880331Y63800000D01*
X54544435Y63800000D01*
X54564632Y63620745D01*
X54624211Y63450478D01*
X54624212Y63450475D01*
X54720182Y63297740D01*
X54720183Y63297738D01*
X54847737Y63170184D01*
X54847739Y63170183D01*
X55000474Y63074213D01*
X55000475Y63074213D01*
X55000478Y63074211D01*
X55170745Y63014632D01*
X55350000Y62994435D01*
X55529255Y63014632D01*
X55699522Y63074211D01*
X55852262Y63170184D01*
X55979816Y63297738D01*
X56075789Y63450478D01*
X56135368Y63620745D01*
X56155565Y63800000D01*
X56135368Y63979255D01*
X56075789Y64149522D01*
X56075787Y64149525D01*
X56075787Y64149526D01*
X55979817Y64302261D01*
X55979816Y64302263D01*
X55852262Y64429817D01*
X55852260Y64429818D01*
X55699525Y64525788D01*
X55699522Y64525789D01*
X55636795Y64547738D01*
X55529255Y64585368D01*
X55350000Y64605565D01*
X55170745Y64585368D01*
X55170742Y64585368D01*
X55170742Y64585367D01*
X55000477Y64525789D01*
X55000474Y64525788D01*
X54847739Y64429818D01*
X54847737Y64429817D01*
X54720183Y64302263D01*
X54720182Y64302261D01*
X54624212Y64149526D01*
X54624211Y64149523D01*
X54564633Y63979258D01*
X54564632Y63979255D01*
X54544435Y63800000D01*
X29880331Y63800000D01*
X29949522Y63824211D01*
X30102262Y63920184D01*
X30229816Y64047738D01*
X30325789Y64200478D01*
X30385368Y64370745D01*
X30405565Y64550000D01*
X30385368Y64729255D01*
X30325789Y64899522D01*
X30325787Y64899525D01*
X30325787Y64899526D01*
X30231238Y65050000D01*
X63044435Y65050000D01*
X63064632Y64870745D01*
X63124211Y64700478D01*
X63124212Y64700475D01*
X63220182Y64547740D01*
X63220183Y64547738D01*
X63347737Y64420184D01*
X63347739Y64420183D01*
X63500474Y64324213D01*
X63500475Y64324213D01*
X63500478Y64324211D01*
X63670745Y64264632D01*
X63850000Y64244435D01*
X64029255Y64264632D01*
X64199522Y64324211D01*
X64352262Y64420184D01*
X64479816Y64547738D01*
X64575789Y64700478D01*
X64635368Y64870745D01*
X64655565Y65050000D01*
X64635368Y65229255D01*
X64575789Y65399522D01*
X64575787Y65399525D01*
X64575787Y65399526D01*
X64479817Y65552261D01*
X64479816Y65552263D01*
X64352262Y65679817D01*
X64352260Y65679818D01*
X64199525Y65775788D01*
X64199522Y65775789D01*
X64136795Y65797738D01*
X64029255Y65835368D01*
X63850000Y65855565D01*
X63670745Y65835368D01*
X63670742Y65835368D01*
X63670742Y65835367D01*
X63500477Y65775789D01*
X63500474Y65775788D01*
X63347739Y65679818D01*
X63347737Y65679817D01*
X63220183Y65552263D01*
X63220182Y65552261D01*
X63124212Y65399526D01*
X63124211Y65399523D01*
X63064633Y65229258D01*
X63064632Y65229255D01*
X63044435Y65050000D01*
X30231238Y65050000D01*
X30229817Y65052261D01*
X30229816Y65052263D01*
X30102262Y65179817D01*
X30102260Y65179818D01*
X29949525Y65275788D01*
X29949522Y65275789D01*
X29779255Y65335368D01*
X29600000Y65355565D01*
X29420745Y65335368D01*
X29420742Y65335368D01*
X29420742Y65335367D01*
X29250477Y65275789D01*
X29250474Y65275788D01*
X29097739Y65179818D01*
X29097737Y65179817D01*
X28970183Y65052263D01*
X28970182Y65052261D01*
X28874212Y64899526D01*
X28874211Y64899523D01*
X28814633Y64729258D01*
X28814632Y64729255D01*
X28794435Y64550000D01*
X27405565Y64550000D01*
X27385368Y64729255D01*
X27325789Y64899522D01*
X27325787Y64899525D01*
X27325787Y64899526D01*
X27229817Y65052261D01*
X27229816Y65052263D01*
X27102262Y65179817D01*
X27102260Y65179818D01*
X26949525Y65275788D01*
X26949522Y65275789D01*
X26779255Y65335368D01*
X26600000Y65355565D01*
X26420745Y65335368D01*
X26420742Y65335368D01*
X26420742Y65335367D01*
X26250477Y65275789D01*
X26250474Y65275788D01*
X26097739Y65179818D01*
X26097737Y65179817D01*
X25970183Y65052263D01*
X25970182Y65052261D01*
X25874212Y64899526D01*
X25874211Y64899523D01*
X25814633Y64729258D01*
X25814632Y64729255D01*
X25794435Y64550000D01*
X22481238Y64550000D01*
X22479817Y64552261D01*
X22479816Y64552263D01*
X22352262Y64679817D01*
X22352260Y64679818D01*
X22199525Y64775788D01*
X22199522Y64775789D01*
X22029255Y64835368D01*
X21850000Y64855565D01*
X21670745Y64835368D01*
X21670742Y64835368D01*
X21670742Y64835367D01*
X21500477Y64775789D01*
X21500474Y64775788D01*
X21347739Y64679818D01*
X21347737Y64679817D01*
X21220183Y64552263D01*
X21220182Y64552261D01*
X21124212Y64399526D01*
X21124211Y64399523D01*
X21090178Y64302262D01*
X21064632Y64229255D01*
X21044435Y64050000D01*
X10380331Y64050000D01*
X10279255Y64085368D01*
X10100000Y64105565D01*
X9920745Y64085368D01*
X9920742Y64085368D01*
X9920742Y64085367D01*
X9750477Y64025789D01*
X9750474Y64025788D01*
X9597739Y63929818D01*
X9597737Y63929817D01*
X9470183Y63802263D01*
X9470182Y63802261D01*
X9374212Y63649526D01*
X9374211Y63649523D01*
X9338596Y63547740D01*
X9314632Y63479255D01*
X9294435Y63300000D01*
X700500Y63300000D01*
X700500Y66300000D01*
X38794435Y66300000D01*
X38814632Y66120745D01*
X38814633Y66120743D01*
X38874211Y65950478D01*
X38874212Y65950475D01*
X38970182Y65797740D01*
X38970183Y65797738D01*
X39097737Y65670184D01*
X39097739Y65670183D01*
X39250474Y65574213D01*
X39250475Y65574213D01*
X39250478Y65574211D01*
X39420745Y65514632D01*
X39600000Y65494435D01*
X39779255Y65514632D01*
X39949522Y65574211D01*
X40102262Y65670184D01*
X40229816Y65797738D01*
X40325789Y65950478D01*
X40385368Y66120745D01*
X40405565Y66300000D01*
X40385368Y66479255D01*
X40325789Y66649522D01*
X40325787Y66649525D01*
X40325787Y66649526D01*
X40229817Y66802261D01*
X40229816Y66802263D01*
X40102262Y66929817D01*
X40102260Y66929818D01*
X39949525Y67025788D01*
X39949522Y67025789D01*
X39779255Y67085368D01*
X39600000Y67105565D01*
X39420745Y67085368D01*
X39420742Y67085368D01*
X39420742Y67085367D01*
X39250477Y67025789D01*
X39250474Y67025788D01*
X39097739Y66929818D01*
X39097737Y66929817D01*
X38970183Y66802263D01*
X38970182Y66802261D01*
X38874212Y66649526D01*
X38874211Y66649523D01*
X38827012Y66514634D01*
X38814632Y66479255D01*
X38794435Y66300000D01*
X700500Y66300000D01*
X700500Y67300000D01*
X30294435Y67300000D01*
X30314632Y67120745D01*
X30347859Y67025789D01*
X30374211Y66950478D01*
X30374212Y66950475D01*
X30470182Y66797740D01*
X30470183Y66797738D01*
X30597737Y66670184D01*
X30597739Y66670183D01*
X30750474Y66574213D01*
X30750475Y66574213D01*
X30750478Y66574211D01*
X30920745Y66514632D01*
X31100000Y66494435D01*
X31279255Y66514632D01*
X31449522Y66574211D01*
X31602262Y66670184D01*
X31729816Y66797738D01*
X31825789Y66950478D01*
X31885368Y67120745D01*
X31905565Y67300000D01*
X31885368Y67479255D01*
X31825789Y67649522D01*
X31825787Y67649525D01*
X31825787Y67649526D01*
X31729817Y67802261D01*
X31729816Y67802263D01*
X31602262Y67929817D01*
X31602260Y67929818D01*
X31449525Y68025788D01*
X31449522Y68025789D01*
X31279255Y68085368D01*
X31100000Y68105565D01*
X30920745Y68085368D01*
X30920742Y68085368D01*
X30920742Y68085367D01*
X30750477Y68025789D01*
X30750474Y68025788D01*
X30597739Y67929818D01*
X30597737Y67929817D01*
X30470183Y67802263D01*
X30470182Y67802261D01*
X30374212Y67649526D01*
X30374211Y67649523D01*
X30374211Y67649522D01*
X30314632Y67479255D01*
X30294435Y67300000D01*
X700500Y67300000D01*
X700500Y69300000D01*
X45794435Y69300000D01*
X45814632Y69120745D01*
X45858830Y68994435D01*
X45874211Y68950478D01*
X45874212Y68950475D01*
X45970182Y68797740D01*
X45970183Y68797738D01*
X46097737Y68670184D01*
X46097739Y68670183D01*
X46250474Y68574213D01*
X46250475Y68574213D01*
X46250478Y68574211D01*
X46420745Y68514632D01*
X46600000Y68494435D01*
X46779255Y68514632D01*
X46949522Y68574211D01*
X47102262Y68670184D01*
X47229816Y68797738D01*
X47325789Y68950478D01*
X47385368Y69120745D01*
X47405565Y69300000D01*
X47385368Y69479255D01*
X47325789Y69649522D01*
X47325787Y69649525D01*
X47325787Y69649526D01*
X47229817Y69802261D01*
X47229816Y69802263D01*
X47102262Y69929817D01*
X47102260Y69929818D01*
X46949525Y70025788D01*
X46949522Y70025789D01*
X46880331Y70050000D01*
X48544435Y70050000D01*
X48564632Y69870745D01*
X48624211Y69700478D01*
X48624212Y69700475D01*
X48720182Y69547740D01*
X48720183Y69547738D01*
X48847737Y69420184D01*
X48847739Y69420183D01*
X49000474Y69324213D01*
X49000475Y69324213D01*
X49000478Y69324211D01*
X49170745Y69264632D01*
X49350000Y69244435D01*
X49529255Y69264632D01*
X49699522Y69324211D01*
X49852262Y69420184D01*
X49979816Y69547738D01*
X50075789Y69700478D01*
X50110613Y69800000D01*
X59544435Y69800000D01*
X59564632Y69620745D01*
X59624211Y69450478D01*
X59624212Y69450475D01*
X59720182Y69297740D01*
X59720183Y69297738D01*
X59847737Y69170184D01*
X59847739Y69170183D01*
X60000474Y69074213D01*
X60000475Y69074213D01*
X60000478Y69074211D01*
X60170745Y69014632D01*
X60350000Y68994435D01*
X60529255Y69014632D01*
X60699522Y69074211D01*
X60852262Y69170184D01*
X60979816Y69297738D01*
X61075789Y69450478D01*
X61110613Y69550000D01*
X72044435Y69550000D01*
X72064632Y69370745D01*
X72108830Y69244435D01*
X72124211Y69200478D01*
X72124212Y69200475D01*
X72220182Y69047740D01*
X72220183Y69047738D01*
X72347737Y68920184D01*
X72347739Y68920183D01*
X72500474Y68824213D01*
X72500475Y68824213D01*
X72500478Y68824211D01*
X72670745Y68764632D01*
X72850000Y68744435D01*
X73029255Y68764632D01*
X73199522Y68824211D01*
X73352262Y68920184D01*
X73479816Y69047738D01*
X73575789Y69200478D01*
X73635368Y69370745D01*
X73655565Y69550000D01*
X73635368Y69729255D01*
X73575789Y69899522D01*
X73575787Y69899525D01*
X73575787Y69899526D01*
X73479817Y70052261D01*
X73479816Y70052263D01*
X73352262Y70179817D01*
X73352260Y70179818D01*
X73199525Y70275788D01*
X73199522Y70275789D01*
X73123869Y70302261D01*
X73029255Y70335368D01*
X72850000Y70355565D01*
X72670745Y70335368D01*
X72670742Y70335368D01*
X72670742Y70335367D01*
X72500477Y70275789D01*
X72500474Y70275788D01*
X72347739Y70179818D01*
X72347737Y70179817D01*
X72220183Y70052263D01*
X72220182Y70052261D01*
X72124212Y69899526D01*
X72124211Y69899523D01*
X72090178Y69802262D01*
X72064632Y69729255D01*
X72044435Y69550000D01*
X61110613Y69550000D01*
X61135368Y69620745D01*
X61155565Y69800000D01*
X61135368Y69979255D01*
X61075789Y70149522D01*
X61075787Y70149525D01*
X61075787Y70149526D01*
X60979817Y70302261D01*
X60979816Y70302263D01*
X60852262Y70429817D01*
X60852260Y70429818D01*
X60699525Y70525788D01*
X60699522Y70525789D01*
X60623869Y70552261D01*
X60529255Y70585368D01*
X60350000Y70605565D01*
X60170745Y70585368D01*
X60170742Y70585368D01*
X60170742Y70585367D01*
X60000477Y70525789D01*
X60000474Y70525788D01*
X59847739Y70429818D01*
X59847737Y70429817D01*
X59720183Y70302263D01*
X59720182Y70302261D01*
X59624212Y70149526D01*
X59624211Y70149523D01*
X59570402Y69995745D01*
X59564632Y69979255D01*
X59544435Y69800000D01*
X50110613Y69800000D01*
X50135368Y69870745D01*
X50155565Y70050000D01*
X50135368Y70229255D01*
X50075789Y70399522D01*
X50075787Y70399525D01*
X50075787Y70399526D01*
X49979817Y70552261D01*
X49979816Y70552263D01*
X49852262Y70679817D01*
X49852260Y70679818D01*
X49699525Y70775788D01*
X49699522Y70775789D01*
X49636795Y70797738D01*
X49529255Y70835368D01*
X49350000Y70855565D01*
X49170745Y70835368D01*
X49170742Y70835368D01*
X49170742Y70835367D01*
X49000477Y70775789D01*
X49000474Y70775788D01*
X48847739Y70679818D01*
X48847737Y70679817D01*
X48720183Y70552263D01*
X48720182Y70552261D01*
X48624212Y70399526D01*
X48624211Y70399523D01*
X48564633Y70229258D01*
X48564632Y70229255D01*
X48544435Y70050000D01*
X46880331Y70050000D01*
X46873869Y70052261D01*
X46779255Y70085368D01*
X46600000Y70105565D01*
X46420745Y70085368D01*
X46420742Y70085368D01*
X46420742Y70085367D01*
X46250477Y70025789D01*
X46250474Y70025788D01*
X46097739Y69929818D01*
X46097737Y69929817D01*
X45970183Y69802263D01*
X45970182Y69802261D01*
X45874212Y69649526D01*
X45874211Y69649523D01*
X45837701Y69545183D01*
X45814632Y69479255D01*
X45794435Y69300000D01*
X700500Y69300000D01*
X700500Y70300000D01*
X16044435Y70300000D01*
X16064632Y70120745D01*
X16124211Y69950478D01*
X16124212Y69950475D01*
X16220182Y69797740D01*
X16220183Y69797738D01*
X16347737Y69670184D01*
X16347739Y69670183D01*
X16500474Y69574213D01*
X16500475Y69574213D01*
X16500478Y69574211D01*
X16670745Y69514632D01*
X16850000Y69494435D01*
X17029255Y69514632D01*
X17199522Y69574211D01*
X17352262Y69670184D01*
X17479816Y69797738D01*
X17575789Y69950478D01*
X17635368Y70120745D01*
X17641481Y70175000D01*
X29669435Y70175000D01*
X29689632Y69995745D01*
X29723302Y69899523D01*
X29749211Y69825478D01*
X29749212Y69825475D01*
X29845182Y69672740D01*
X29845183Y69672738D01*
X29972737Y69545184D01*
X29972739Y69545183D01*
X30125474Y69449213D01*
X30125475Y69449213D01*
X30125478Y69449211D01*
X30295745Y69389632D01*
X30475000Y69369435D01*
X30654255Y69389632D01*
X30824522Y69449211D01*
X30977262Y69545184D01*
X31104816Y69672738D01*
X31200789Y69825478D01*
X31260368Y69995745D01*
X31280565Y70175000D01*
X31260368Y70354255D01*
X31200789Y70524522D01*
X31200787Y70524525D01*
X31200787Y70524526D01*
X31104817Y70677261D01*
X31104816Y70677263D01*
X30977262Y70804817D01*
X30977260Y70804818D01*
X30824525Y70900788D01*
X30824522Y70900789D01*
X30769094Y70920184D01*
X30654255Y70960368D01*
X30475000Y70980565D01*
X30295745Y70960368D01*
X30295742Y70960368D01*
X30295742Y70960367D01*
X30125477Y70900789D01*
X30125474Y70900788D01*
X29972739Y70804818D01*
X29972737Y70804817D01*
X29845183Y70677263D01*
X29845182Y70677261D01*
X29749212Y70524526D01*
X29749211Y70524523D01*
X29690090Y70355565D01*
X29689632Y70354255D01*
X29669435Y70175000D01*
X17641481Y70175000D01*
X17655565Y70300000D01*
X17635368Y70479255D01*
X17575789Y70649522D01*
X17575787Y70649525D01*
X17575787Y70649526D01*
X17479817Y70802261D01*
X17479816Y70802263D01*
X17352262Y70929817D01*
X17352260Y70929818D01*
X17199525Y71025788D01*
X17199522Y71025789D01*
X17136795Y71047738D01*
X17029255Y71085368D01*
X16850000Y71105565D01*
X16670745Y71085368D01*
X16670742Y71085368D01*
X16670742Y71085367D01*
X16500477Y71025789D01*
X16500474Y71025788D01*
X16347739Y70929818D01*
X16347737Y70929817D01*
X16220183Y70802263D01*
X16220182Y70802261D01*
X16124212Y70649526D01*
X16124211Y70649523D01*
X16077012Y70514634D01*
X16064632Y70479255D01*
X16044435Y70300000D01*
X700500Y70300000D01*
X700500Y71550000D01*
X23294435Y71550000D01*
X23314632Y71370745D01*
X23314633Y71370743D01*
X23374211Y71200478D01*
X23374212Y71200475D01*
X23470182Y71047740D01*
X23470183Y71047738D01*
X23597737Y70920184D01*
X23597739Y70920183D01*
X23750474Y70824213D01*
X23750475Y70824213D01*
X23750478Y70824211D01*
X23920745Y70764632D01*
X24100000Y70744435D01*
X24279255Y70764632D01*
X24449522Y70824211D01*
X24602262Y70920184D01*
X24729816Y71047738D01*
X24825789Y71200478D01*
X24860613Y71300000D01*
X63044435Y71300000D01*
X63064632Y71120745D01*
X63090178Y71047740D01*
X63124211Y70950478D01*
X63124212Y70950475D01*
X63220182Y70797740D01*
X63220183Y70797738D01*
X63347737Y70670184D01*
X63347739Y70670183D01*
X63500474Y70574213D01*
X63500475Y70574213D01*
X63500478Y70574211D01*
X63670745Y70514632D01*
X63850000Y70494435D01*
X64029255Y70514632D01*
X64199522Y70574211D01*
X64352262Y70670184D01*
X64479816Y70797738D01*
X64575789Y70950478D01*
X64635368Y71120745D01*
X64655565Y71300000D01*
X64635368Y71479255D01*
X64575789Y71649522D01*
X64575787Y71649525D01*
X64575787Y71649526D01*
X64479817Y71802261D01*
X64479816Y71802263D01*
X64352262Y71929817D01*
X64352260Y71929818D01*
X64199525Y72025788D01*
X64199522Y72025789D01*
X64123869Y72052261D01*
X64029255Y72085368D01*
X63850000Y72105565D01*
X63670745Y72085368D01*
X63670742Y72085368D01*
X63670742Y72085367D01*
X63500477Y72025789D01*
X63500474Y72025788D01*
X63347739Y71929818D01*
X63347737Y71929817D01*
X63220183Y71802263D01*
X63220182Y71802261D01*
X63124212Y71649526D01*
X63124211Y71649523D01*
X63124211Y71649522D01*
X63064632Y71479255D01*
X63044435Y71300000D01*
X24860613Y71300000D01*
X24885368Y71370745D01*
X24905565Y71550000D01*
X24885368Y71729255D01*
X24825789Y71899522D01*
X24825787Y71899525D01*
X24825787Y71899526D01*
X24729817Y72052261D01*
X24729816Y72052263D01*
X24602262Y72179817D01*
X24602260Y72179818D01*
X24449525Y72275788D01*
X24449522Y72275789D01*
X24279255Y72335368D01*
X24100000Y72355565D01*
X23920745Y72335368D01*
X23920742Y72335368D01*
X23920742Y72335367D01*
X23750477Y72275789D01*
X23750474Y72275788D01*
X23597739Y72179818D01*
X23597737Y72179817D01*
X23470183Y72052263D01*
X23470182Y72052261D01*
X23374212Y71899526D01*
X23374211Y71899523D01*
X23330999Y71776029D01*
X23314632Y71729255D01*
X23294435Y71550000D01*
X700500Y71550000D01*
X700500Y73550000D01*
X12044435Y73550000D01*
X12064632Y73370745D01*
X12124211Y73200478D01*
X12124212Y73200475D01*
X12220182Y73047740D01*
X12220183Y73047738D01*
X12347737Y72920184D01*
X12347739Y72920183D01*
X12500474Y72824213D01*
X12500475Y72824213D01*
X12500478Y72824211D01*
X12670745Y72764632D01*
X12850000Y72744435D01*
X13029255Y72764632D01*
X13199522Y72824211D01*
X13352262Y72920184D01*
X13479816Y73047738D01*
X13481237Y73050000D01*
X40044435Y73050000D01*
X40064632Y72870745D01*
X40110154Y72740652D01*
X40124211Y72700478D01*
X40124212Y72700475D01*
X40220182Y72547740D01*
X40220183Y72547738D01*
X40347737Y72420184D01*
X40347739Y72420183D01*
X40500474Y72324213D01*
X40500475Y72324213D01*
X40500478Y72324211D01*
X40670745Y72264632D01*
X40850000Y72244435D01*
X41029255Y72264632D01*
X41199522Y72324211D01*
X41352262Y72420184D01*
X41479816Y72547738D01*
X41488399Y72561397D01*
X66305832Y72561397D01*
X66326029Y72382142D01*
X66326030Y72382140D01*
X66385608Y72211875D01*
X66385609Y72211872D01*
X66481579Y72059137D01*
X66481580Y72059135D01*
X66609134Y71931581D01*
X66609136Y71931580D01*
X66761871Y71835610D01*
X66761872Y71835610D01*
X66761875Y71835608D01*
X66932142Y71776029D01*
X67111397Y71755832D01*
X67290652Y71776029D01*
X67460919Y71835608D01*
X67613659Y71931581D01*
X67741213Y72059135D01*
X67837186Y72211875D01*
X67896765Y72382142D01*
X67916962Y72561397D01*
X67896765Y72740652D01*
X67837186Y72910919D01*
X67837184Y72910922D01*
X67837184Y72910923D01*
X67741214Y73063658D01*
X67741213Y73063660D01*
X67613659Y73191214D01*
X67613657Y73191215D01*
X67460922Y73287185D01*
X67460919Y73287186D01*
X67290652Y73346765D01*
X67111397Y73366962D01*
X66932142Y73346765D01*
X66932139Y73346765D01*
X66932139Y73346764D01*
X66761874Y73287186D01*
X66761871Y73287185D01*
X66609136Y73191215D01*
X66609134Y73191214D01*
X66481580Y73063660D01*
X66481579Y73063658D01*
X66385609Y72910923D01*
X66385608Y72910920D01*
X66334421Y72764634D01*
X66326029Y72740652D01*
X66305832Y72561397D01*
X41488399Y72561397D01*
X41575789Y72700478D01*
X41635368Y72870745D01*
X41655565Y73050000D01*
X41635368Y73229255D01*
X41575789Y73399522D01*
X41575787Y73399525D01*
X41575787Y73399526D01*
X41481238Y73550000D01*
X68544435Y73550000D01*
X68564632Y73370745D01*
X68624211Y73200478D01*
X68624212Y73200475D01*
X68720182Y73047740D01*
X68720183Y73047738D01*
X68847737Y72920184D01*
X68847739Y72920183D01*
X69000474Y72824213D01*
X69000475Y72824213D01*
X69000478Y72824211D01*
X69170745Y72764632D01*
X69350000Y72744435D01*
X69529255Y72764632D01*
X69699522Y72824211D01*
X69852262Y72920184D01*
X69979816Y73047738D01*
X70075789Y73200478D01*
X70135368Y73370745D01*
X70155565Y73550000D01*
X70135368Y73729255D01*
X70075789Y73899522D01*
X70075787Y73899525D01*
X70075787Y73899526D01*
X69979817Y74052261D01*
X69979816Y74052263D01*
X69852262Y74179817D01*
X69852260Y74179818D01*
X69699525Y74275788D01*
X69699522Y74275789D01*
X69630331Y74300000D01*
X69529255Y74335368D01*
X69350000Y74355565D01*
X69170745Y74335368D01*
X69170742Y74335368D01*
X69170742Y74335367D01*
X69000477Y74275789D01*
X69000474Y74275788D01*
X68847739Y74179818D01*
X68847737Y74179817D01*
X68720183Y74052263D01*
X68720182Y74052261D01*
X68624212Y73899526D01*
X68624211Y73899523D01*
X68564633Y73729258D01*
X68564632Y73729255D01*
X68544435Y73550000D01*
X41481238Y73550000D01*
X41479817Y73552261D01*
X41479816Y73552263D01*
X41352262Y73679817D01*
X41352260Y73679818D01*
X41199525Y73775788D01*
X41199522Y73775789D01*
X41136795Y73797738D01*
X41029255Y73835368D01*
X40850000Y73855565D01*
X40670745Y73835368D01*
X40670742Y73835368D01*
X40670742Y73835367D01*
X40500477Y73775789D01*
X40500474Y73775788D01*
X40347739Y73679818D01*
X40347737Y73679817D01*
X40220183Y73552263D01*
X40220182Y73552261D01*
X40124212Y73399526D01*
X40124211Y73399523D01*
X40064633Y73229258D01*
X40064632Y73229255D01*
X40044435Y73050000D01*
X13481237Y73050000D01*
X13575789Y73200478D01*
X13635368Y73370745D01*
X13655565Y73550000D01*
X13635368Y73729255D01*
X13575789Y73899522D01*
X13575787Y73899525D01*
X13575787Y73899526D01*
X13479817Y74052261D01*
X13479816Y74052263D01*
X13352262Y74179817D01*
X13352260Y74179818D01*
X13199525Y74275788D01*
X13199522Y74275789D01*
X13130331Y74300000D01*
X37044435Y74300000D01*
X37064632Y74120745D01*
X37064633Y74120743D01*
X37124211Y73950478D01*
X37124212Y73950475D01*
X37220182Y73797740D01*
X37220183Y73797738D01*
X37347737Y73670184D01*
X37347739Y73670183D01*
X37500474Y73574213D01*
X37500475Y73574213D01*
X37500478Y73574211D01*
X37670745Y73514632D01*
X37850000Y73494435D01*
X38029255Y73514632D01*
X38199522Y73574211D01*
X38352262Y73670184D01*
X38479816Y73797738D01*
X38575789Y73950478D01*
X38635368Y74120745D01*
X38655565Y74300000D01*
X38635368Y74479255D01*
X38575789Y74649522D01*
X38575787Y74649525D01*
X38575787Y74649526D01*
X38479817Y74802261D01*
X38479816Y74802263D01*
X38352262Y74929817D01*
X38352260Y74929818D01*
X38199525Y75025788D01*
X38199522Y75025789D01*
X38123026Y75052556D01*
X38029255Y75085368D01*
X37850000Y75105565D01*
X37670745Y75085368D01*
X37670742Y75085368D01*
X37670742Y75085367D01*
X37500477Y75025789D01*
X37500474Y75025788D01*
X37347739Y74929818D01*
X37347737Y74929817D01*
X37220183Y74802263D01*
X37220182Y74802261D01*
X37124212Y74649526D01*
X37124211Y74649523D01*
X37124211Y74649522D01*
X37064632Y74479255D01*
X37044435Y74300000D01*
X13130331Y74300000D01*
X13029255Y74335368D01*
X12850000Y74355565D01*
X12670745Y74335368D01*
X12670742Y74335368D01*
X12670742Y74335367D01*
X12500477Y74275789D01*
X12500474Y74275788D01*
X12347739Y74179818D01*
X12347737Y74179817D01*
X12220183Y74052263D01*
X12220182Y74052261D01*
X12124212Y73899526D01*
X12124211Y73899523D01*
X12064633Y73729258D01*
X12064632Y73729255D01*
X12044435Y73550000D01*
X700500Y73550000D01*
X700500Y76497253D01*
X700620Y76502749D01*
X701907Y76532235D01*
X3245788Y76532235D01*
X3275412Y76262986D01*
X3343928Y76000910D01*
X3449869Y75751611D01*
X3449870Y75751610D01*
X3590982Y75520390D01*
X3764255Y75312180D01*
X3965998Y75131418D01*
X4191910Y74981956D01*
X4437176Y74866980D01*
X4696569Y74788940D01*
X4696572Y74788940D01*
X4696574Y74788939D01*
X4964557Y74749500D01*
X4964561Y74749500D01*
X5167631Y74749500D01*
X5370156Y74764323D01*
X5370160Y74764324D01*
X5370161Y74764324D01*
X5540465Y74802261D01*
X5634553Y74823220D01*
X5887558Y74919986D01*
X6123777Y75052559D01*
X6338177Y75218112D01*
X6526186Y75413119D01*
X6683799Y75633421D01*
X6807656Y75874325D01*
X6895118Y76130695D01*
X6944319Y76397067D01*
X6954212Y76667765D01*
X6939662Y76800000D01*
X21794435Y76800000D01*
X21814632Y76620745D01*
X21874211Y76450478D01*
X21874212Y76450475D01*
X21970182Y76297740D01*
X21970183Y76297738D01*
X22097737Y76170184D01*
X22097739Y76170183D01*
X22250474Y76074213D01*
X22250475Y76074213D01*
X22250478Y76074211D01*
X22420745Y76014632D01*
X22600000Y75994435D01*
X22779255Y76014632D01*
X22949522Y76074211D01*
X23102262Y76170184D01*
X23229816Y76297738D01*
X23231237Y76300000D01*
X44794435Y76300000D01*
X44814632Y76120745D01*
X44858830Y75994435D01*
X44874211Y75950478D01*
X44874212Y75950475D01*
X44970182Y75797740D01*
X44970183Y75797738D01*
X45097737Y75670184D01*
X45097739Y75670183D01*
X45250474Y75574213D01*
X45250475Y75574213D01*
X45250478Y75574211D01*
X45420745Y75514632D01*
X45600000Y75494435D01*
X45779255Y75514632D01*
X45949522Y75574211D01*
X46102262Y75670184D01*
X46229816Y75797738D01*
X46325789Y75950478D01*
X46385368Y76120745D01*
X46405565Y76300000D01*
X46385368Y76479255D01*
X46366829Y76532235D01*
X74245788Y76532235D01*
X74275412Y76262986D01*
X74343928Y76000910D01*
X74449869Y75751611D01*
X74449870Y75751610D01*
X74590982Y75520390D01*
X74764255Y75312180D01*
X74965998Y75131418D01*
X75191910Y74981956D01*
X75437176Y74866980D01*
X75696569Y74788940D01*
X75696572Y74788940D01*
X75696574Y74788939D01*
X75964557Y74749500D01*
X75964561Y74749500D01*
X76167631Y74749500D01*
X76370156Y74764323D01*
X76370160Y74764324D01*
X76370161Y74764324D01*
X76540465Y74802261D01*
X76634553Y74823220D01*
X76887558Y74919986D01*
X77123777Y75052559D01*
X77338177Y75218112D01*
X77526186Y75413119D01*
X77683799Y75633421D01*
X77807656Y75874325D01*
X77895118Y76130695D01*
X77944319Y76397067D01*
X77954212Y76667765D01*
X77939338Y76802942D01*
X77924587Y76937015D01*
X77885802Y77085368D01*
X77856072Y77199088D01*
X77853969Y77204036D01*
X77750130Y77448390D01*
X77709703Y77514632D01*
X77609018Y77679610D01*
X77435745Y77887820D01*
X77435741Y77887823D01*
X77435740Y77887825D01*
X77234012Y78068573D01*
X77234002Y78068582D01*
X77008090Y78218044D01*
X76762824Y78333020D01*
X76566654Y78392039D01*
X76503425Y78411062D01*
X76235442Y78450500D01*
X76235439Y78450500D01*
X76032369Y78450500D01*
X75829839Y78435677D01*
X75829838Y78435677D01*
X75565456Y78376783D01*
X75565441Y78376778D01*
X75312441Y78280014D01*
X75076229Y78147445D01*
X75076225Y78147443D01*
X74944851Y78046000D01*
X74866061Y77985160D01*
X74861818Y77981884D01*
X74673815Y77786883D01*
X74673810Y77786877D01*
X74516203Y77566583D01*
X74516196Y77566573D01*
X74392343Y77325676D01*
X74392342Y77325673D01*
X74304883Y77069311D01*
X74304880Y77069298D01*
X74255681Y76802942D01*
X74255680Y76802931D01*
X74245788Y76532235D01*
X46366829Y76532235D01*
X46325789Y76649522D01*
X46325787Y76649525D01*
X46325787Y76649526D01*
X46229817Y76802261D01*
X46229816Y76802263D01*
X46102262Y76929817D01*
X46102260Y76929818D01*
X45949525Y77025788D01*
X45949522Y77025789D01*
X45825143Y77069311D01*
X45779255Y77085368D01*
X45600000Y77105565D01*
X45420745Y77085368D01*
X45420742Y77085368D01*
X45420742Y77085367D01*
X45250477Y77025789D01*
X45250474Y77025788D01*
X45097739Y76929818D01*
X45097737Y76929817D01*
X44970183Y76802263D01*
X44970182Y76802261D01*
X44874212Y76649526D01*
X44874211Y76649523D01*
X44822853Y76502749D01*
X44814632Y76479255D01*
X44794435Y76300000D01*
X23231237Y76300000D01*
X23325789Y76450478D01*
X23385368Y76620745D01*
X23405565Y76800000D01*
X23385368Y76979255D01*
X23325789Y77149522D01*
X23325787Y77149525D01*
X23325787Y77149526D01*
X23229817Y77302261D01*
X23229816Y77302263D01*
X23102262Y77429817D01*
X23102260Y77429818D01*
X22949525Y77525788D01*
X22949522Y77525789D01*
X22884503Y77548540D01*
X22779255Y77585368D01*
X22600000Y77605565D01*
X22420745Y77585368D01*
X22420742Y77585368D01*
X22420742Y77585367D01*
X22250477Y77525789D01*
X22250474Y77525788D01*
X22097739Y77429818D01*
X22097737Y77429817D01*
X21970183Y77302263D01*
X21970182Y77302261D01*
X21874212Y77149526D01*
X21874211Y77149523D01*
X21821736Y76999556D01*
X21814632Y76979255D01*
X21794435Y76800000D01*
X6939662Y76800000D01*
X6939338Y76802942D01*
X6924587Y76937015D01*
X6885802Y77085368D01*
X6856072Y77199088D01*
X6853969Y77204036D01*
X6770097Y77401403D01*
X11742000Y77401403D01*
X11748505Y77340907D01*
X11799555Y77204036D01*
X11799555Y77204035D01*
X11887095Y77087096D01*
X12004034Y76999556D01*
X12140906Y76948506D01*
X12201402Y76942001D01*
X12201415Y76942000D01*
X12846000Y76942000D01*
X12846000Y77866326D01*
X12957685Y77815320D01*
X13064237Y77800000D01*
X13135763Y77800000D01*
X13242315Y77815320D01*
X13354000Y77866326D01*
X13354000Y76942000D01*
X13998585Y76942000D01*
X13998597Y76942001D01*
X14059093Y76948506D01*
X14195964Y76999556D01*
X14195965Y76999556D01*
X14312904Y77087096D01*
X14400444Y77204035D01*
X14400444Y77204036D01*
X14451494Y77340907D01*
X14457999Y77401403D01*
X14458000Y77401415D01*
X14458000Y78046000D01*
X13531116Y78046000D01*
X13559493Y78090156D01*
X13600000Y78228111D01*
X13600000Y78300000D01*
X59544435Y78300000D01*
X59564632Y78120745D01*
X59612075Y77985160D01*
X59624211Y77950478D01*
X59624212Y77950475D01*
X59720182Y77797740D01*
X59720183Y77797738D01*
X59847737Y77670184D01*
X59847739Y77670183D01*
X60000474Y77574213D01*
X60000475Y77574213D01*
X60000478Y77574211D01*
X60170745Y77514632D01*
X60350000Y77494435D01*
X60529255Y77514632D01*
X60699522Y77574211D01*
X60852262Y77670184D01*
X60979816Y77797738D01*
X61075789Y77950478D01*
X61135368Y78120745D01*
X61155565Y78300000D01*
X61135368Y78479255D01*
X61075789Y78649522D01*
X61075787Y78649525D01*
X61075787Y78649526D01*
X60979817Y78802261D01*
X60979816Y78802263D01*
X60852262Y78929817D01*
X60852260Y78929818D01*
X60699525Y79025788D01*
X60699522Y79025789D01*
X60636795Y79047738D01*
X60529255Y79085368D01*
X60350000Y79105565D01*
X60170745Y79085368D01*
X60170742Y79085368D01*
X60170742Y79085367D01*
X60000477Y79025789D01*
X60000474Y79025788D01*
X59847739Y78929818D01*
X59847737Y78929817D01*
X59720183Y78802263D01*
X59720182Y78802261D01*
X59624212Y78649526D01*
X59624211Y78649523D01*
X59564633Y78479258D01*
X59564632Y78479255D01*
X59544435Y78300000D01*
X13600000Y78300000D01*
X13600000Y78371889D01*
X13559493Y78509844D01*
X13531116Y78554000D01*
X14458000Y78554000D01*
X14458000Y79198586D01*
X14457999Y79198598D01*
X14451494Y79259094D01*
X14400444Y79395965D01*
X14400444Y79395966D01*
X14312904Y79512905D01*
X14263351Y79550000D01*
X28294435Y79550000D01*
X28314632Y79370745D01*
X28314633Y79370743D01*
X28374211Y79200478D01*
X28374212Y79200475D01*
X28470182Y79047740D01*
X28470183Y79047738D01*
X28597737Y78920184D01*
X28597739Y78920183D01*
X28750474Y78824213D01*
X28750475Y78824213D01*
X28750478Y78824211D01*
X28920745Y78764632D01*
X29100000Y78744435D01*
X29279255Y78764632D01*
X29449522Y78824211D01*
X29602262Y78920184D01*
X29729816Y79047738D01*
X29825789Y79200478D01*
X29885368Y79370745D01*
X29905565Y79550000D01*
X29885368Y79729255D01*
X29825789Y79899522D01*
X29825787Y79899525D01*
X29825787Y79899526D01*
X29762655Y80000000D01*
X71518587Y80000000D01*
X71538179Y79826119D01*
X71595971Y79660958D01*
X71595972Y79660955D01*
X71689065Y79512799D01*
X71689066Y79512797D01*
X71812796Y79389067D01*
X71812798Y79389066D01*
X71960954Y79295973D01*
X71960955Y79295973D01*
X71960958Y79295971D01*
X72126119Y79238179D01*
X72300000Y79218587D01*
X72473881Y79238179D01*
X72639042Y79295971D01*
X72787203Y79389067D01*
X72910933Y79512797D01*
X73004029Y79660958D01*
X73061821Y79826119D01*
X73081413Y80000000D01*
X73061821Y80173881D01*
X73004029Y80339042D01*
X73004027Y80339045D01*
X73004027Y80339046D01*
X72910934Y80487202D01*
X72910933Y80487204D01*
X72787203Y80610934D01*
X72787201Y80610935D01*
X72639045Y80704028D01*
X72639042Y80704029D01*
X72526385Y80743449D01*
X72473881Y80761821D01*
X72300000Y80781413D01*
X72126119Y80761821D01*
X72126116Y80761821D01*
X72126116Y80761820D01*
X71960957Y80704029D01*
X71960954Y80704028D01*
X71812798Y80610935D01*
X71812796Y80610934D01*
X71689066Y80487204D01*
X71689065Y80487202D01*
X71595972Y80339046D01*
X71595971Y80339043D01*
X71542098Y80185080D01*
X71538179Y80173881D01*
X71518587Y80000000D01*
X29762655Y80000000D01*
X29729817Y80052261D01*
X29729816Y80052263D01*
X29602262Y80179817D01*
X29602260Y80179818D01*
X29449525Y80275788D01*
X29449522Y80275789D01*
X29369511Y80303786D01*
X29279255Y80335368D01*
X29100000Y80355565D01*
X28920745Y80335368D01*
X28920742Y80335368D01*
X28920742Y80335367D01*
X28750477Y80275789D01*
X28750474Y80275788D01*
X28597739Y80179818D01*
X28597737Y80179817D01*
X28470183Y80052263D01*
X28470182Y80052261D01*
X28374212Y79899526D01*
X28374211Y79899523D01*
X28361765Y79863953D01*
X28314632Y79729255D01*
X28294435Y79550000D01*
X14263351Y79550000D01*
X14195965Y79600445D01*
X14059093Y79651495D01*
X13998597Y79658000D01*
X13354000Y79658000D01*
X13354000Y78733675D01*
X13242315Y78784680D01*
X13135763Y78800000D01*
X13064237Y78800000D01*
X12957685Y78784680D01*
X12846000Y78733675D01*
X12846000Y79658000D01*
X12201402Y79658000D01*
X12140906Y79651495D01*
X12004035Y79600445D01*
X12004034Y79600445D01*
X11887095Y79512905D01*
X11799555Y79395966D01*
X11799555Y79395965D01*
X11748505Y79259094D01*
X11742000Y79198598D01*
X11742000Y78554000D01*
X12668884Y78554000D01*
X12640507Y78509844D01*
X12600000Y78371889D01*
X12600000Y78228111D01*
X12640507Y78090156D01*
X12668884Y78046000D01*
X11742000Y78046000D01*
X11742000Y77401403D01*
X6770097Y77401403D01*
X6750130Y77448390D01*
X6709703Y77514632D01*
X6609018Y77679610D01*
X6435745Y77887820D01*
X6435741Y77887823D01*
X6435740Y77887825D01*
X6234012Y78068573D01*
X6234002Y78068582D01*
X6008090Y78218044D01*
X5762824Y78333020D01*
X5566654Y78392039D01*
X5503425Y78411062D01*
X5235442Y78450500D01*
X5235439Y78450500D01*
X5032369Y78450500D01*
X4829839Y78435677D01*
X4829838Y78435677D01*
X4565456Y78376783D01*
X4565441Y78376778D01*
X4312441Y78280014D01*
X4076229Y78147445D01*
X4076225Y78147443D01*
X3944851Y78046000D01*
X3866061Y77985160D01*
X3861818Y77981884D01*
X3673815Y77786883D01*
X3673810Y77786877D01*
X3516203Y77566583D01*
X3516196Y77566573D01*
X3392343Y77325676D01*
X3392342Y77325673D01*
X3304883Y77069311D01*
X3304880Y77069298D01*
X3255681Y76802942D01*
X3255680Y76802931D01*
X3245788Y76532235D01*
X701907Y76532235D01*
X718524Y76912809D01*
X719482Y76923759D01*
X772698Y77327982D01*
X774606Y77338798D01*
X788486Y77401403D01*
X862849Y77736837D01*
X865693Y77747449D01*
X878126Y77786881D01*
X988291Y78136283D01*
X992048Y78146604D01*
X992396Y78147443D01*
X1148076Y78523289D01*
X1152719Y78533242D01*
X1163525Y78554000D01*
X1340978Y78894886D01*
X1346453Y78904369D01*
X1565535Y79248259D01*
X1571819Y79257232D01*
X1820026Y79580701D01*
X1827078Y79589107D01*
X2102528Y79889708D01*
X2110297Y79897476D01*
X2410893Y80172922D01*
X2419299Y80179974D01*
X2626600Y80339042D01*
X2742768Y80428181D01*
X2751741Y80434465D01*
X3095631Y80653547D01*
X3105114Y80659022D01*
X3466766Y80847286D01*
X3476711Y80851924D01*
X3853403Y81007955D01*
X3863717Y81011709D01*
X4252558Y81134310D01*
X4263163Y81137151D01*
X4661210Y81225396D01*
X4672018Y81227302D01*
X5076244Y81280519D01*
X5087189Y81281476D01*
X5497252Y81299380D01*
X5502748Y81299500D01*
X5539882Y81299500D01*
X74960118Y81299500D01*
X74997404Y81299500D01*
X75002611Y81299392D01*
G37*
G04 #@! TD.AperFunction*
D18*
X500000Y7000000D02*
G75*
G03*
X6000000Y1500000I5500000J0D01*
G01*
X75500000Y1500000D02*
G75*
G03*
X80500000Y6500000I0J5000000D01*
G01*
X75500000Y1500000D02*
X6000000Y1500000D01*
X5500000Y81500000D02*
G75*
G03*
X500000Y76500000I0J-5000000D01*
G01*
X80500000Y76000000D02*
G75*
G03*
X75000000Y81500000I-5500000J0D01*
G01*
X5500000Y81500000D02*
X75000000Y81500000D01*
X80500000Y6500000D02*
X80500000Y76000000D01*
X500000Y76500000D02*
X500000Y7000000D01*
D19*
X10276000Y3000000D02*
G75*
G03*
X9124000Y3000000I-576000J0D01*
G01*
X9124000Y3000000D02*
G75*
G03*
X10276000Y3000000I576000J0D01*
G01*
X72876000Y80000000D02*
G75*
G03*
X71724000Y80000000I-576000J0D01*
G01*
X71724000Y80000000D02*
G75*
G03*
X72876000Y80000000I576000J0D01*
G01*
X72876000Y3000000D02*
G75*
G03*
X71724000Y3000000I-576000J0D01*
G01*
X71724000Y3000000D02*
G75*
G03*
X72876000Y3000000I576000J0D01*
G01*
M02*
