G04 #@! TF.GenerationSoftware,KiCad,Pcbnew,7.0.11*
G04 #@! TF.CreationDate,2025-02-03T22:54:03-08:00*
G04 #@! TF.ProjectId,z3372,7a333337-322e-46b6-9963-61645f706362,0.5*
G04 #@! TF.SameCoordinates,PX3de4ba0PY65da380*
G04 #@! TF.FileFunction,Soldermask,Top*
G04 #@! TF.FilePolarity,Negative*
%FSLAX46Y46*%
G04 Gerber Fmt 4.6, Leading zero omitted, Abs format (unit mm)*
G04 Created by KiCad (PCBNEW 7.0.11) date 2025-02-03 22:54:03*
%MOMM*%
%LPD*%
G01*
G04 APERTURE LIST*
G04 Aperture macros list*
%AMRoundRect*
0 Rectangle with rounded corners*
0 $1 Rounding radius*
0 $2 $3 $4 $5 $6 $7 $8 $9 X,Y pos of 4 corners*
0 Add a 4 corners polygon primitive as box body*
4,1,4,$2,$3,$4,$5,$6,$7,$8,$9,$2,$3,0*
0 Add four circle primitives for the rounded corners*
1,1,$1+$1,$2,$3*
1,1,$1+$1,$4,$5*
1,1,$1+$1,$6,$7*
1,1,$1+$1,$8,$9*
0 Add four rect primitives between the rounded corners*
20,1,$1+$1,$2,$3,$4,$5,0*
20,1,$1+$1,$4,$5,$6,$7,0*
20,1,$1+$1,$6,$7,$8,$9,0*
20,1,$1+$1,$8,$9,$2,$3,0*%
%AMHorizOval*
0 Thick line with rounded ends*
0 $1 width*
0 $2 $3 position (X,Y) of the first rounded end (center of the circle)*
0 $4 $5 position (X,Y) of the second rounded end (center of the circle)*
0 Add line between two ends*
20,1,$1,$2,$3,$4,$5,0*
0 Add two circle primitives to create the rounded ends*
1,1,$1,$2,$3*
1,1,$1,$4,$5*%
G04 Aperture macros list end*
%ADD10RoundRect,0.250000X-0.475000X0.250000X-0.475000X-0.250000X0.475000X-0.250000X0.475000X0.250000X0*%
%ADD11RoundRect,0.225000X-0.250000X0.225000X-0.250000X-0.225000X0.250000X-0.225000X0.250000X0.225000X0*%
%ADD12RoundRect,0.200000X0.200000X0.275000X-0.200000X0.275000X-0.200000X-0.275000X0.200000X-0.275000X0*%
%ADD13RoundRect,0.225000X0.250000X-0.225000X0.250000X0.225000X-0.250000X0.225000X-0.250000X-0.225000X0*%
%ADD14C,3.200000*%
%ADD15RoundRect,0.100000X0.637500X0.100000X-0.637500X0.100000X-0.637500X-0.100000X0.637500X-0.100000X0*%
%ADD16RoundRect,0.200000X-0.200000X-0.275000X0.200000X-0.275000X0.200000X0.275000X-0.200000X0.275000X0*%
%ADD17RoundRect,0.218750X-0.218750X-0.256250X0.218750X-0.256250X0.218750X0.256250X-0.218750X0.256250X0*%
%ADD18R,1.700000X1.700000*%
%ADD19O,1.700000X1.700000*%
%ADD20HorizOval,1.700000X0.000000X0.000000X0.000000X0.000000X0*%
%ADD21RoundRect,0.150000X0.825000X0.150000X-0.825000X0.150000X-0.825000X-0.150000X0.825000X-0.150000X0*%
%ADD22RoundRect,0.200000X-0.275000X0.200000X-0.275000X-0.200000X0.275000X-0.200000X0.275000X0.200000X0*%
%ADD23RoundRect,0.250000X0.250000X0.475000X-0.250000X0.475000X-0.250000X-0.475000X0.250000X-0.475000X0*%
%ADD24RoundRect,0.200000X0.275000X-0.200000X0.275000X0.200000X-0.275000X0.200000X-0.275000X-0.200000X0*%
%ADD25RoundRect,0.250000X-0.250000X-0.475000X0.250000X-0.475000X0.250000X0.475000X-0.250000X0.475000X0*%
%ADD26RoundRect,0.250000X0.475000X-0.250000X0.475000X0.250000X-0.475000X0.250000X-0.475000X-0.250000X0*%
%ADD27RoundRect,0.150000X-0.825000X-0.150000X0.825000X-0.150000X0.825000X0.150000X-0.825000X0.150000X0*%
%ADD28R,2.000000X2.000000*%
%ADD29RoundRect,0.100000X-0.100000X0.637500X-0.100000X-0.637500X0.100000X-0.637500X0.100000X0.637500X0*%
%ADD30RoundRect,0.150000X0.587500X0.150000X-0.587500X0.150000X-0.587500X-0.150000X0.587500X-0.150000X0*%
%ADD31RoundRect,0.150000X0.150000X-0.825000X0.150000X0.825000X-0.150000X0.825000X-0.150000X-0.825000X0*%
%ADD32RoundRect,0.225000X-0.225000X-0.250000X0.225000X-0.250000X0.225000X0.250000X-0.225000X0.250000X0*%
%ADD33RoundRect,0.250000X0.325000X0.650000X-0.325000X0.650000X-0.325000X-0.650000X0.325000X-0.650000X0*%
%ADD34RoundRect,0.225000X0.225000X0.250000X-0.225000X0.250000X-0.225000X-0.250000X0.225000X-0.250000X0*%
%ADD35C,1.600000*%
%ADD36RoundRect,0.150000X-0.587500X-0.150000X0.587500X-0.150000X0.587500X0.150000X-0.587500X0.150000X0*%
%ADD37RoundRect,0.150000X-0.150000X0.875000X-0.150000X-0.875000X0.150000X-0.875000X0.150000X0.875000X0*%
%ADD38RoundRect,0.100000X-0.637500X-0.100000X0.637500X-0.100000X0.637500X0.100000X-0.637500X0.100000X0*%
%ADD39RoundRect,0.150000X-0.150000X0.587500X-0.150000X-0.587500X0.150000X-0.587500X0.150000X0.587500X0*%
%ADD40RoundRect,0.150000X-0.150000X0.825000X-0.150000X-0.825000X0.150000X-0.825000X0.150000X0.825000X0*%
%ADD41R,1.500000X1.500000*%
%ADD42C,1.500000*%
G04 #@! TA.AperFunction,Profile*
%ADD43C,0.150000*%
G04 #@! TD*
G04 #@! TA.AperFunction,Profile*
%ADD44C,0.050000*%
G04 #@! TD*
G04 APERTURE END LIST*
D10*
X76850000Y30500000D03*
X76850000Y28600000D03*
D11*
X74600000Y30575000D03*
X74600000Y29025000D03*
D12*
X70250000Y56800000D03*
X68600000Y56800000D03*
D13*
X47200000Y25025000D03*
X47200000Y26575000D03*
D14*
X76100000Y5800000D03*
X5100000Y5800000D03*
D15*
X55462500Y26800000D03*
X55462500Y27450000D03*
X55462500Y28100000D03*
X55462500Y28750000D03*
X55462500Y29400000D03*
X55462500Y30050000D03*
X55462500Y30700000D03*
X55462500Y31350000D03*
X55462500Y32000000D03*
X55462500Y32650000D03*
X55462500Y33300000D03*
X55462500Y33950000D03*
X49737500Y33950000D03*
X49737500Y33300000D03*
X49737500Y32650000D03*
X49737500Y32000000D03*
X49737500Y31350000D03*
X49737500Y30700000D03*
X49737500Y30050000D03*
X49737500Y29400000D03*
X49737500Y28750000D03*
X49737500Y28100000D03*
X49737500Y27450000D03*
X49737500Y26800000D03*
D16*
X75562500Y23550000D03*
X77212500Y23550000D03*
D17*
X75600000Y25800000D03*
X77175000Y25800000D03*
D18*
X64410000Y13090000D03*
D19*
X64410000Y10550000D03*
X61870000Y13090000D03*
D20*
X61870000Y10550000D03*
D19*
X59330000Y13090000D03*
X59330000Y10550000D03*
X56790000Y13090000D03*
D20*
X56790000Y10550000D03*
D19*
X54250000Y13090000D03*
X54250000Y10550000D03*
X51710000Y13090000D03*
D20*
X51710000Y10550000D03*
D19*
X49170000Y13090000D03*
X49170000Y10550000D03*
X46630000Y13090000D03*
D20*
X46630000Y10550000D03*
D19*
X44090000Y13090000D03*
D20*
X44090000Y10550000D03*
D19*
X41550000Y13090000D03*
D20*
X41550000Y10550000D03*
D19*
X39010000Y13090000D03*
X39010000Y10550000D03*
X36470000Y13090000D03*
D20*
X36470000Y10550000D03*
D19*
X33930000Y13090000D03*
X33930000Y10550000D03*
X31390000Y13090000D03*
D20*
X31390000Y10550000D03*
D19*
X28850000Y13090000D03*
X28850000Y10550000D03*
X26310000Y13090000D03*
D20*
X26310000Y10550000D03*
D19*
X23770000Y13090000D03*
X23770000Y10550000D03*
X21230000Y13090000D03*
D20*
X21230000Y10550000D03*
D19*
X18690000Y13090000D03*
D20*
X18690000Y10550000D03*
D19*
X16150000Y13090000D03*
X16150000Y10550000D03*
D13*
X47600000Y18400000D03*
X47600000Y19950000D03*
D11*
X72976625Y56825000D03*
X72976625Y55275000D03*
D21*
X55150000Y19975000D03*
X55150000Y21245000D03*
X55150000Y22515000D03*
X55150000Y23785000D03*
X50200000Y23785000D03*
X50200000Y22515000D03*
X50200000Y21245000D03*
X50200000Y19975000D03*
D22*
X25350000Y46375000D03*
X25350000Y44725000D03*
D16*
X72775000Y48348375D03*
X74425000Y48348375D03*
D12*
X77000000Y54550000D03*
X75350000Y54550000D03*
D11*
X29100000Y70300000D03*
X29100000Y68750000D03*
D16*
X4425000Y37390000D03*
X6075000Y37390000D03*
D23*
X48800000Y43800000D03*
X46900000Y43800000D03*
D24*
X29600000Y61725000D03*
X29600000Y63375000D03*
D25*
X75950000Y37800000D03*
X77850000Y37800000D03*
D18*
X76600000Y16325000D03*
D19*
X76600000Y18865000D03*
D12*
X29675000Y35800000D03*
X28025000Y35800000D03*
D13*
X43100000Y62005000D03*
X43100000Y63555000D03*
D12*
X63675000Y33300000D03*
X62025000Y33300000D03*
D26*
X51850000Y36600000D03*
X51850000Y38500000D03*
D24*
X20850000Y66450000D03*
X20850000Y68100000D03*
D12*
X63675000Y31300000D03*
X62025000Y31300000D03*
D27*
X20875000Y78110000D03*
X20875000Y76840000D03*
X20875000Y75570000D03*
X20875000Y74300000D03*
X20875000Y73030000D03*
X20875000Y71760000D03*
X20875000Y70490000D03*
X25825000Y70490000D03*
X25825000Y71760000D03*
X25825000Y73030000D03*
X25825000Y74300000D03*
X25825000Y75570000D03*
X25825000Y76840000D03*
X25825000Y78110000D03*
D16*
X51275000Y46050000D03*
X52925000Y46050000D03*
D22*
X73412500Y39230000D03*
X73412500Y37580000D03*
D28*
X47600000Y51800000D03*
D29*
X74800000Y65662500D03*
X74150000Y65662500D03*
X73500000Y65662500D03*
X72850000Y65662500D03*
X72200000Y65662500D03*
X71550000Y65662500D03*
X70900000Y65662500D03*
X70900000Y59937500D03*
X71550000Y59937500D03*
X72200000Y59937500D03*
X72850000Y59937500D03*
X73500000Y59937500D03*
X74150000Y59937500D03*
X74800000Y59937500D03*
D10*
X10787500Y66725000D03*
X10787500Y64825000D03*
D30*
X71037500Y37850000D03*
X71037500Y39750000D03*
X69162500Y38800000D03*
D22*
X49350000Y74625000D03*
X49350000Y72975000D03*
D24*
X23600000Y59225000D03*
X23600000Y60875000D03*
D15*
X71962500Y29275000D03*
X71962500Y29925000D03*
X71962500Y30575000D03*
X71962500Y31225000D03*
X71962500Y31875000D03*
X71962500Y32525000D03*
X71962500Y33175000D03*
X71962500Y33825000D03*
X66237500Y33825000D03*
X66237500Y33175000D03*
X66237500Y32525000D03*
X66237500Y31875000D03*
X66237500Y31225000D03*
X66237500Y30575000D03*
X66237500Y29925000D03*
X66237500Y29275000D03*
D31*
X51655000Y52325000D03*
X52925000Y52325000D03*
X54195000Y52325000D03*
X55465000Y52325000D03*
X56735000Y52325000D03*
X58005000Y52325000D03*
X59275000Y52325000D03*
X60545000Y52325000D03*
X60545000Y57275000D03*
X59275000Y57275000D03*
X58005000Y57275000D03*
X56735000Y57275000D03*
X55465000Y57275000D03*
X54195000Y57275000D03*
X52925000Y57275000D03*
X51655000Y57275000D03*
D32*
X47825000Y71050000D03*
X49375000Y71050000D03*
D13*
X60100000Y33275000D03*
X60100000Y34825000D03*
D33*
X6705000Y61775000D03*
X3755000Y61775000D03*
D16*
X51275000Y42050000D03*
X52925000Y42050000D03*
D22*
X11500000Y50225000D03*
X11500000Y48575000D03*
D11*
X8287500Y71300000D03*
X8287500Y69750000D03*
D28*
X48600000Y78050000D03*
D16*
X16475000Y37400000D03*
X18125000Y37400000D03*
D34*
X74375000Y52300000D03*
X72825000Y52300000D03*
D26*
X38350000Y62050000D03*
X38350000Y63950000D03*
D28*
X52350000Y63800000D03*
D22*
X12787500Y71350000D03*
X12787500Y69700000D03*
X33100000Y74375000D03*
X33100000Y72725000D03*
D35*
X41350000Y41050000D03*
X41350000Y36050000D03*
D32*
X72825000Y68300000D03*
X74375000Y68300000D03*
D11*
X18100000Y49825000D03*
X18100000Y48275000D03*
D28*
X28850000Y41550000D03*
D36*
X3912500Y66500000D03*
X3912500Y64600000D03*
X5787500Y65550000D03*
D16*
X6425000Y48090000D03*
X8075000Y48090000D03*
D27*
X18825000Y29045000D03*
X18825000Y27775000D03*
X18825000Y26505000D03*
X18825000Y25235000D03*
X18825000Y23965000D03*
X18825000Y22695000D03*
X18825000Y21425000D03*
X18825000Y20155000D03*
X23775000Y20155000D03*
X23775000Y21425000D03*
X23775000Y22695000D03*
X23775000Y23965000D03*
X23775000Y25235000D03*
X23775000Y26505000D03*
X23775000Y27775000D03*
X23775000Y29045000D03*
D30*
X5787500Y69355000D03*
X5787500Y71255000D03*
X3912500Y70305000D03*
D37*
X40585000Y58700000D03*
X39315000Y58700000D03*
X38045000Y58700000D03*
X36775000Y58700000D03*
X35505000Y58700000D03*
X34235000Y58700000D03*
X32965000Y58700000D03*
X31695000Y58700000D03*
X30425000Y58700000D03*
X29155000Y58700000D03*
X27885000Y58700000D03*
X26615000Y58700000D03*
X26615000Y49400000D03*
X27885000Y49400000D03*
X29155000Y49400000D03*
X30425000Y49400000D03*
X31695000Y49400000D03*
X32965000Y49400000D03*
X34235000Y49400000D03*
X35505000Y49400000D03*
X36775000Y49400000D03*
X38045000Y49400000D03*
X39315000Y49400000D03*
X40585000Y49400000D03*
D34*
X70875000Y70300000D03*
X69325000Y70300000D03*
D16*
X10125000Y22162500D03*
X11775000Y22162500D03*
D34*
X30625000Y78050000D03*
X29075000Y78050000D03*
D13*
X3850000Y48225000D03*
X3850000Y49775000D03*
D16*
X47275000Y46050000D03*
X48925000Y46050000D03*
D34*
X70200000Y54800000D03*
X68650000Y54800000D03*
D22*
X31600000Y63375000D03*
X31600000Y61725000D03*
D32*
X60325000Y71050000D03*
X61875000Y71050000D03*
D12*
X6075000Y33300000D03*
X4425000Y33300000D03*
D16*
X47275000Y48050000D03*
X48925000Y48050000D03*
D12*
X47175000Y75050000D03*
X45525000Y75050000D03*
D16*
X62350000Y73050000D03*
X64000000Y73050000D03*
D13*
X31100000Y72775000D03*
X31100000Y74325000D03*
D24*
X14300000Y18375000D03*
X14300000Y20025000D03*
X32600000Y44975000D03*
X32600000Y46625000D03*
D12*
X70925000Y68251625D03*
X69275000Y68251625D03*
D28*
X26600000Y62550000D03*
X35350000Y45550000D03*
X14787500Y65525000D03*
D38*
X51987500Y72550000D03*
X51987500Y71900000D03*
X51987500Y71250000D03*
X51987500Y70600000D03*
X51987500Y69950000D03*
X51987500Y69300000D03*
X51987500Y68650000D03*
X57712500Y68650000D03*
X57712500Y69300000D03*
X57712500Y69950000D03*
X57712500Y70600000D03*
X57712500Y71250000D03*
X57712500Y71900000D03*
X57712500Y72550000D03*
D24*
X60350000Y72975000D03*
X60350000Y74625000D03*
D13*
X38100000Y45025000D03*
X38100000Y46575000D03*
D28*
X11150000Y29912500D03*
D32*
X6475000Y50200000D03*
X8025000Y50200000D03*
D34*
X23675000Y37400000D03*
X22125000Y37400000D03*
D26*
X40850000Y62050000D03*
X40850000Y63950000D03*
D24*
X8287500Y64950000D03*
X8287500Y66600000D03*
D16*
X62350000Y66550000D03*
X64000000Y66550000D03*
D12*
X8075000Y52300000D03*
X6425000Y52300000D03*
D22*
X29100000Y74375000D03*
X29100000Y72725000D03*
D11*
X22850000Y68050000D03*
X22850000Y66500000D03*
D12*
X47175000Y73050000D03*
X45525000Y73050000D03*
D16*
X28025000Y37800000D03*
X29675000Y37800000D03*
D28*
X60350000Y63800000D03*
D12*
X64000000Y68550000D03*
X62350000Y68550000D03*
D14*
X76100000Y76600000D03*
D12*
X6675000Y59300000D03*
X5025000Y59300000D03*
X64000000Y75050000D03*
X62350000Y75050000D03*
D11*
X18100000Y70325000D03*
X18100000Y68775000D03*
D24*
X60350000Y66975000D03*
X60350000Y68625000D03*
D12*
X21675000Y62800000D03*
X20025000Y62800000D03*
D14*
X5100000Y76600000D03*
D32*
X60825000Y29300000D03*
X62375000Y29300000D03*
D11*
X30350000Y28075000D03*
X30350000Y26525000D03*
D13*
X40575000Y23525000D03*
X40575000Y25075000D03*
X8100000Y35865000D03*
X8100000Y37415000D03*
D32*
X51325000Y44050000D03*
X52875000Y44050000D03*
D16*
X68600000Y52800000D03*
X70250000Y52800000D03*
D12*
X21675000Y60800000D03*
X20025000Y60800000D03*
D22*
X72600000Y17825000D03*
X72600000Y16175000D03*
D18*
X13100000Y78300000D03*
D24*
X14787500Y69700000D03*
X14787500Y71350000D03*
D10*
X35850000Y63950000D03*
X35850000Y62050000D03*
D16*
X75350000Y56800000D03*
X77000000Y56800000D03*
D24*
X10537500Y69700000D03*
X10537500Y71350000D03*
D39*
X11100000Y26600000D03*
X9200000Y26600000D03*
X10150000Y24725000D03*
D11*
X16100000Y28075000D03*
X16100000Y26525000D03*
D34*
X57075000Y59775000D03*
X55525000Y59775000D03*
D35*
X34350000Y36050000D03*
X34350000Y41050000D03*
D11*
X55600000Y49075000D03*
X55600000Y47525000D03*
D27*
X33025000Y29045000D03*
X33025000Y27775000D03*
X33025000Y26505000D03*
X33025000Y25235000D03*
X33025000Y23965000D03*
X33025000Y22695000D03*
X33025000Y21425000D03*
X33025000Y20155000D03*
X37975000Y20155000D03*
X37975000Y21425000D03*
X37975000Y22695000D03*
X37975000Y23965000D03*
X37975000Y25235000D03*
X37975000Y26505000D03*
X37975000Y27775000D03*
X37975000Y29045000D03*
D34*
X27875000Y25300000D03*
X26325000Y25300000D03*
D13*
X41100000Y45025000D03*
X41100000Y46575000D03*
D32*
X4475000Y35300000D03*
X6025000Y35300000D03*
D16*
X72775000Y50348375D03*
X74425000Y50348375D03*
X51275000Y48050000D03*
X52925000Y48050000D03*
D40*
X7755000Y45275000D03*
X6485000Y45275000D03*
X5215000Y45275000D03*
X3945000Y45275000D03*
X3945000Y40325000D03*
X5215000Y40325000D03*
X6485000Y40325000D03*
X7755000Y40325000D03*
D41*
X48100000Y36050000D03*
D42*
X48100000Y38590000D03*
X48100000Y41130000D03*
D16*
X69275000Y72300000D03*
X70925000Y72300000D03*
D22*
X49350000Y68675000D03*
X49350000Y67025000D03*
D40*
X22005000Y45275000D03*
X20735000Y45275000D03*
X19465000Y45275000D03*
X18195000Y45275000D03*
X18195000Y40325000D03*
X19465000Y40325000D03*
X20735000Y40325000D03*
X22005000Y40325000D03*
D12*
X26425000Y68025000D03*
X24775000Y68025000D03*
D28*
X28350000Y45550000D03*
D43*
X500000Y7000000D02*
G75*
G03*
X6000000Y1500000I5500000J0D01*
G01*
X75500000Y1500000D02*
G75*
G03*
X80500000Y6500000I0J5000000D01*
G01*
X75500000Y1500000D02*
X6000000Y1500000D01*
X5500000Y81500000D02*
G75*
G03*
X500000Y76500000I0J-5000000D01*
G01*
X80500000Y76000000D02*
G75*
G03*
X75000000Y81500000I-5500000J0D01*
G01*
X5500000Y81500000D02*
X75000000Y81500000D01*
X80500000Y6500000D02*
X80500000Y76000000D01*
X500000Y76500000D02*
X500000Y7000000D01*
D44*
X10276000Y3000000D02*
G75*
G03*
X9124000Y3000000I-576000J0D01*
G01*
X9124000Y3000000D02*
G75*
G03*
X10276000Y3000000I576000J0D01*
G01*
X72876000Y80000000D02*
G75*
G03*
X71724000Y80000000I-576000J0D01*
G01*
X71724000Y80000000D02*
G75*
G03*
X72876000Y80000000I576000J0D01*
G01*
X72876000Y3000000D02*
G75*
G03*
X71724000Y3000000I-576000J0D01*
G01*
X71724000Y3000000D02*
G75*
G03*
X72876000Y3000000I576000J0D01*
G01*
M02*
