M48
; DRILL file {KiCad 7.0.11} date Tuesday, September 17, 2024 at 09:56:22 PM
; FORMAT={-:-/ absolute / inch / decimal}
; #@! TF.CreationDate,2024-09-17T21:56:22-07:00
; #@! TF.GenerationSoftware,Kicad,Pcbnew,7.0.11
; #@! TF.FileFunction,Plated,1,4,PTH
FMAT,2
INCH
; #@! TA.AperFunction,Plated,PTH,ViaDrill
T1C0.0157
; #@! TA.AperFunction,Plated,PTH,ComponentDrill
T2C0.0315
; #@! TA.AperFunction,Plated,PTH,ComponentDrill
T3C0.0394
%
G90
G05
T1
X0.1014Y1.8868
X0.1181Y2.4213
X0.1575Y1.5059
X0.1673Y2.3228
X0.2165Y1.9488
X0.2165Y1.8406
X0.2815Y0.7736
X0.2953Y2.2146
X0.2953Y2.0965
X0.3346Y1.1516
X0.3445Y2.687
X0.3839Y1.3976
X0.4035Y0.8169
X0.4035Y0.5315
X0.4134Y2.4803
X0.4134Y1.4567
X0.4626Y1.1024
X0.4823Y1.3878
X0.5217Y2.8839
X0.5315Y1.1024
X0.5709Y0.7185
X0.5906Y1.0335
X0.5906Y0.935
X0.6004Y1.0925
X0.6102Y1.7815
X0.6299Y1.5551
X0.6496Y0.8661
X0.6594Y1.3386
X0.6791Y2.7559
X0.6791Y2.2146
X0.6791Y1.8898
X0.6988Y0.9317
X0.7185Y1.9488
X0.7283Y2.6476
X0.7283Y1.8406
X0.7579Y1.6142
X0.7677Y3.061
X0.7677Y0.7185
X0.7963Y1.4075
X0.8071Y2.3327
X0.8071Y1.6535
X0.8071Y1.2106
X0.8268Y0.876
X0.8366Y2.5591
X0.8563Y1.8406
X0.876Y2.5098
X0.876Y1.0335
X0.876Y0.9154
X0.876Y0.6398
X0.8927Y1.9518
X0.8957Y2.313
X0.9055Y3.0118
X0.9055Y1.4665
X0.9154Y2.5591
X0.9154Y0.689
X0.9449Y0.2559
X0.9646Y2.8051
X0.9646Y1.5157
X1.0138Y1.8701
X1.0138Y0.7776
X1.0236Y1.6732
X1.0236Y1.5256
X1.0531Y1.0433
X1.0531Y0.9154
X1.063Y2.5295
X1.0728Y1.25
X1.1044Y0.8682
X1.1122Y2.6969
X1.1614Y3.1201
X1.1614Y2.9626
X1.1713Y0.9252
X1.1811Y2.5295
X1.2008Y0.5906
X1.2106Y1.1417
X1.2106Y0.9744
X1.2136Y2.2274
X1.2156Y2.751
X1.2205Y3.1201
X1.2303Y1.4764
X1.2402Y2.9626
X1.2402Y2.6378
X1.2598Y2.5295
X1.2795Y2.0276
X1.3583Y0.7087
X1.3636Y2.2244
X1.3681Y1.998
X1.4075Y1.0728
X1.4272Y2.5591
X1.4961Y0.5906
X1.5059Y2.9134
X1.5256Y2.5591
X1.5551Y1.7224
X1.565Y1.8602
X1.5748Y2.5984
X1.6043Y1.0335
X1.624Y2.8642
X1.624Y2.5591
X1.6634Y0.9154
X1.6831Y1.7618
X1.7126Y2.5394
X1.752Y1.8209
X1.752Y0.9744
X1.811Y2.9921
X1.8504Y2.7165
X1.8701Y1.9291
X1.874Y0.9311
X1.8996Y2.7461
X1.9094Y1.0827
X1.9193Y2.5689
X1.9193Y0.8268
X1.939Y0.7087
X1.9587Y2.7461
X1.9882Y1.7126
X1.9882Y1.4272
X2.0472Y2.1555
X2.0472Y1.9783
X2.0472Y1.3681
X2.0571Y1.122
X2.0571Y0.9252
X2.0866Y2.372
X2.1161Y1.3681
X2.126Y2.7953
X2.126Y2.7461
X2.1555Y1.7224
X2.1949Y2.5
X2.1949Y2.3917
X2.2047Y1.811
X2.2146Y2.7953
X2.2146Y2.7461
X2.2441Y2.1161
X2.2441Y0.5906
X2.2539Y1.9193
X2.2539Y1.5059
X2.2638Y2.3917
X2.2638Y0.9252
X2.2638Y0.876
X2.3031Y1.3681
X2.3031Y0.6299
X2.313Y0.8268
X2.3228Y1.2598
X2.3425Y1.4764
X2.3622Y1.1713
X2.3917Y3.0709
X2.3917Y2.7362
X2.3917Y2.1752
X2.4016Y1.9783
X2.4016Y1.2224
X2.4409Y1.3583
X2.4508Y2.7362
X2.4606Y1.0039
X2.4902Y2.3524
X2.5197Y1.1417
X2.5295Y2.7953
X2.5295Y2.5492
X2.5394Y1.9193
X2.5394Y1.8307
X2.5394Y1.4567
X2.5591Y1.1811
X2.6181Y1.063
X2.6181Y0.876
X2.6181Y0.6201
X2.6579Y2.8449
X2.687Y2.628
X2.687Y2.4508
X2.687Y2.2933
X2.687Y2.0276
X2.687Y1.2205
X2.7165Y1.2795
X2.7362Y0.9449
X2.7461Y2.8839
X2.7461Y1.565
X2.7854Y1.25
X2.7854Y1.2008
X2.815Y0.689
X2.8346Y1.998
X2.8642Y2.5098
X2.8642Y2.4114
X2.8839Y2.7264
X2.8839Y2.1161
X2.8839Y1.8504
X2.9035Y1.1417
X2.9134Y2.5098
X2.9429Y2.7264
X2.9429Y1.0039
X2.9528Y1.5453
X2.9528Y1.0827
X2.9626Y1.25
X2.9921Y0.8661
X3.0413Y1.063
X3.061Y1.378
X3.1102Y1.1909
T2
X1.3681Y1.6043
X1.3681Y1.4075
X1.6437Y1.6043
X1.6437Y1.4075
X1.9094Y1.6075
X1.9094Y1.5075
X1.9094Y1.4075
T3
X0.5315Y3.0709
X0.6516Y0.5035
X0.6516Y0.4035
X0.7516Y0.5035
X0.7516Y0.4035
X0.8516Y0.5035
X0.8516Y0.4035
X0.9516Y0.5035
X0.9516Y0.4035
X1.0516Y0.5035
X1.0516Y0.4035
X1.1516Y0.5035
X1.1516Y0.4035
X1.2516Y0.5035
X1.2516Y0.4035
X1.3516Y0.5035
X1.3516Y0.4035
X1.4516Y0.5035
X1.4516Y0.4035
X1.5516Y0.5035
X1.5516Y0.4035
X1.6516Y0.5035
X1.6516Y0.4035
X1.7516Y0.5035
X1.7516Y0.4035
X1.8516Y0.5035
X1.8516Y0.4035
X1.9516Y0.5035
X1.9516Y0.4035
X2.0516Y0.5035
X2.0516Y0.4035
X2.1516Y0.5035
X2.1516Y0.4035
X2.2516Y0.5035
X2.2516Y0.4035
X2.3516Y0.5035
X2.3516Y0.4035
X2.4516Y0.5035
X2.4516Y0.4035
X2.5516Y0.5035
X2.5516Y0.4035
X3.0315Y0.7309
X3.0315Y0.6309
M30
