G04 #@! TF.GenerationSoftware,KiCad,Pcbnew,7.0.11*
G04 #@! TF.CreationDate,2025-02-03T22:54:03-08:00*
G04 #@! TF.ProjectId,z3372,7a333337-322e-46b6-9963-61645f706362,0.5*
G04 #@! TF.SameCoordinates,PX3de4ba0PY65da380*
G04 #@! TF.FileFunction,Soldermask,Bot*
G04 #@! TF.FilePolarity,Negative*
%FSLAX46Y46*%
G04 Gerber Fmt 4.6, Leading zero omitted, Abs format (unit mm)*
G04 Created by KiCad (PCBNEW 7.0.11) date 2025-02-03 22:54:03*
%MOMM*%
%LPD*%
G01*
G04 APERTURE LIST*
G04 Aperture macros list*
%AMHorizOval*
0 Thick line with rounded ends*
0 $1 width*
0 $2 $3 position (X,Y) of the first rounded end (center of the circle)*
0 $4 $5 position (X,Y) of the second rounded end (center of the circle)*
0 Add line between two ends*
20,1,$1,$2,$3,$4,$5,0*
0 Add two circle primitives to create the rounded ends*
1,1,$1,$2,$3*
1,1,$1,$4,$5*%
G04 Aperture macros list end*
%ADD10C,3.200000*%
%ADD11R,1.700000X1.700000*%
%ADD12O,1.700000X1.700000*%
%ADD13HorizOval,1.700000X0.000000X0.000000X0.000000X0.000000X0*%
%ADD14C,1.600000*%
%ADD15R,1.500000X1.500000*%
%ADD16C,1.500000*%
G04 #@! TA.AperFunction,Profile*
%ADD17C,0.150000*%
G04 #@! TD*
G04 #@! TA.AperFunction,Profile*
%ADD18C,0.050000*%
G04 #@! TD*
G04 APERTURE END LIST*
D10*
X76100000Y5800000D03*
X5100000Y5800000D03*
D11*
X64410000Y13090000D03*
D12*
X64410000Y10550000D03*
X61870000Y13090000D03*
D13*
X61870000Y10550000D03*
D12*
X59330000Y13090000D03*
X59330000Y10550000D03*
X56790000Y13090000D03*
D13*
X56790000Y10550000D03*
D12*
X54250000Y13090000D03*
X54250000Y10550000D03*
X51710000Y13090000D03*
D13*
X51710000Y10550000D03*
D12*
X49170000Y13090000D03*
X49170000Y10550000D03*
X46630000Y13090000D03*
D13*
X46630000Y10550000D03*
D12*
X44090000Y13090000D03*
D13*
X44090000Y10550000D03*
D12*
X41550000Y13090000D03*
D13*
X41550000Y10550000D03*
D12*
X39010000Y13090000D03*
X39010000Y10550000D03*
X36470000Y13090000D03*
D13*
X36470000Y10550000D03*
D12*
X33930000Y13090000D03*
X33930000Y10550000D03*
X31390000Y13090000D03*
D13*
X31390000Y10550000D03*
D12*
X28850000Y13090000D03*
X28850000Y10550000D03*
X26310000Y13090000D03*
D13*
X26310000Y10550000D03*
D12*
X23770000Y13090000D03*
X23770000Y10550000D03*
X21230000Y13090000D03*
D13*
X21230000Y10550000D03*
D12*
X18690000Y13090000D03*
D13*
X18690000Y10550000D03*
D12*
X16150000Y13090000D03*
X16150000Y10550000D03*
D11*
X76600000Y16325000D03*
D12*
X76600000Y18865000D03*
D14*
X41350000Y41050000D03*
X41350000Y36050000D03*
D10*
X76100000Y76600000D03*
X5100000Y76600000D03*
D11*
X13100000Y78300000D03*
D14*
X34350000Y36050000D03*
X34350000Y41050000D03*
D15*
X48100000Y36050000D03*
D16*
X48100000Y38590000D03*
X48100000Y41130000D03*
D17*
X500000Y7000000D02*
G75*
G03*
X6000000Y1500000I5500000J0D01*
G01*
X75500000Y1500000D02*
G75*
G03*
X80500000Y6500000I0J5000000D01*
G01*
X75500000Y1500000D02*
X6000000Y1500000D01*
X5500000Y81500000D02*
G75*
G03*
X500000Y76500000I0J-5000000D01*
G01*
X80500000Y76000000D02*
G75*
G03*
X75000000Y81500000I-5500000J0D01*
G01*
X5500000Y81500000D02*
X75000000Y81500000D01*
X80500000Y6500000D02*
X80500000Y76000000D01*
X500000Y76500000D02*
X500000Y7000000D01*
D18*
X10276000Y3000000D02*
G75*
G03*
X9124000Y3000000I-576000J0D01*
G01*
X9124000Y3000000D02*
G75*
G03*
X10276000Y3000000I576000J0D01*
G01*
X72876000Y80000000D02*
G75*
G03*
X71724000Y80000000I-576000J0D01*
G01*
X71724000Y80000000D02*
G75*
G03*
X72876000Y80000000I576000J0D01*
G01*
X72876000Y3000000D02*
G75*
G03*
X71724000Y3000000I-576000J0D01*
G01*
X71724000Y3000000D02*
G75*
G03*
X72876000Y3000000I576000J0D01*
G01*
M02*
