G04 #@! TF.GenerationSoftware,KiCad,Pcbnew,7.0.11*
G04 #@! TF.CreationDate,2024-09-16T23:20:07-07:00*
G04 #@! TF.ProjectId,z3372,7a333337-322e-46b6-9963-61645f706362,0.2*
G04 #@! TF.SameCoordinates,PX3d83120PY6590fa0*
G04 #@! TF.FileFunction,Soldermask,Bot*
G04 #@! TF.FilePolarity,Negative*
%FSLAX46Y46*%
G04 Gerber Fmt 4.6, Leading zero omitted, Abs format (unit mm)*
G04 Created by KiCad (PCBNEW 7.0.11) date 2024-09-16 23:20:07*
%MOMM*%
%LPD*%
G01*
G04 APERTURE LIST*
G04 Aperture macros list*
%AMHorizOval*
0 Thick line with rounded ends*
0 $1 width*
0 $2 $3 position (X,Y) of the first rounded end (center of the circle)*
0 $4 $5 position (X,Y) of the second rounded end (center of the circle)*
0 Add line between two ends*
20,1,$1,$2,$3,$4,$5,0*
0 Add two circle primitives to create the rounded ends*
1,1,$1,$2,$3*
1,1,$1,$4,$5*%
G04 Aperture macros list end*
%ADD10C,3.200000*%
%ADD11R,1.700000X1.700000*%
%ADD12O,1.700000X1.700000*%
%ADD13HorizOval,1.700000X0.000000X0.000000X0.000000X0.000000X0*%
%ADD14C,1.600000*%
%ADD15R,1.500000X1.500000*%
%ADD16C,1.500000*%
G04 #@! TA.AperFunction,Profile*
%ADD17C,0.150000*%
G04 #@! TD*
G04 #@! TA.AperFunction,Profile*
%ADD18C,0.050000*%
G04 #@! TD*
G04 APERTURE END LIST*
D10*
X76500000Y5500000D03*
X5500000Y5500000D03*
D11*
X64810000Y12790000D03*
D12*
X64810000Y10250000D03*
X62270000Y12790000D03*
D13*
X62270000Y10250000D03*
D12*
X59730000Y12790000D03*
X59730000Y10250000D03*
X57190000Y12790000D03*
D13*
X57190000Y10250000D03*
D12*
X54650000Y12790000D03*
X54650000Y10250000D03*
X52110000Y12790000D03*
D13*
X52110000Y10250000D03*
D12*
X49570000Y12790000D03*
X49570000Y10250000D03*
X47030000Y12790000D03*
D13*
X47030000Y10250000D03*
D12*
X44490000Y12790000D03*
D13*
X44490000Y10250000D03*
D12*
X41950000Y12790000D03*
D13*
X41950000Y10250000D03*
D12*
X39410000Y12790000D03*
X39410000Y10250000D03*
X36870000Y12790000D03*
D13*
X36870000Y10250000D03*
D12*
X34330000Y12790000D03*
X34330000Y10250000D03*
X31790000Y12790000D03*
D13*
X31790000Y10250000D03*
D12*
X29250000Y12790000D03*
X29250000Y10250000D03*
X26710000Y12790000D03*
D13*
X26710000Y10250000D03*
D12*
X24170000Y12790000D03*
X24170000Y10250000D03*
X21630000Y12790000D03*
D13*
X21630000Y10250000D03*
D12*
X19090000Y12790000D03*
D13*
X19090000Y10250000D03*
D12*
X16550000Y12790000D03*
X16550000Y10250000D03*
D11*
X77000000Y16025000D03*
D12*
X77000000Y18565000D03*
D14*
X41750000Y40750000D03*
X41750000Y35750000D03*
D10*
X76500000Y76300000D03*
X5500000Y76300000D03*
D11*
X13500000Y78000000D03*
D14*
X34750000Y35750000D03*
X34750000Y40750000D03*
D15*
X48500000Y35750000D03*
D16*
X48500000Y38290000D03*
X48500000Y40830000D03*
D17*
X900000Y6700000D02*
G75*
G03*
X6400000Y1200000I5500000J0D01*
G01*
X75900000Y1200000D02*
G75*
G03*
X80900000Y6200000I0J5000000D01*
G01*
X75900000Y1200000D02*
X6400000Y1200000D01*
X5900000Y81200000D02*
G75*
G03*
X900000Y76200000I0J-5000000D01*
G01*
X80900000Y75700000D02*
G75*
G03*
X75400000Y81200000I-5500000J0D01*
G01*
X5900000Y81200000D02*
X75400000Y81200000D01*
X80900000Y6200000D02*
X80900000Y75700000D01*
X900000Y76200000D02*
X900000Y6700000D01*
D18*
X10676000Y2700000D02*
G75*
G03*
X9524000Y2700000I-576000J0D01*
G01*
X9524000Y2700000D02*
G75*
G03*
X10676000Y2700000I576000J0D01*
G01*
X73276000Y79700000D02*
G75*
G03*
X72124000Y79700000I-576000J0D01*
G01*
X72124000Y79700000D02*
G75*
G03*
X73276000Y79700000I576000J0D01*
G01*
X73276000Y2700000D02*
G75*
G03*
X72124000Y2700000I-576000J0D01*
G01*
X72124000Y2700000D02*
G75*
G03*
X73276000Y2700000I576000J0D01*
G01*
M02*
