G04 #@! TF.GenerationSoftware,KiCad,Pcbnew,(5.1.12-1-10_14)*
G04 #@! TF.CreationDate,2022-03-12T00:20:55-08:00*
G04 #@! TF.ProjectId,as3340,61733333-3430-42e6-9b69-6361645f7063,rev?*
G04 #@! TF.SameCoordinates,Original*
G04 #@! TF.FileFunction,Legend,Bot*
G04 #@! TF.FilePolarity,Positive*
%FSLAX46Y46*%
G04 Gerber Fmt 4.6, Leading zero omitted, Abs format (unit mm)*
G04 Created by KiCad (PCBNEW (5.1.12-1-10_14)) date 2022-03-12 00:20:55*
%MOMM*%
%LPD*%
G01*
G04 APERTURE LIST*
%ADD10C,0.090000*%
%ADD11C,0.150000*%
G04 #@! TA.AperFunction,Profile*
%ADD12C,0.050000*%
G04 #@! TD*
G04 #@! TA.AperFunction,Profile*
%ADD13C,0.150000*%
G04 #@! TD*
G04 APERTURE END LIST*
D10*
X73728571Y-82671428D02*
X73728571Y-82071428D01*
X73385714Y-82671428D01*
X73385714Y-82071428D01*
X72757142Y-82614285D02*
X72785714Y-82642857D01*
X72871428Y-82671428D01*
X72928571Y-82671428D01*
X73014285Y-82642857D01*
X73071428Y-82585714D01*
X73100000Y-82528571D01*
X73128571Y-82414285D01*
X73128571Y-82328571D01*
X73100000Y-82214285D01*
X73071428Y-82157142D01*
X73014285Y-82100000D01*
X72928571Y-82071428D01*
X72871428Y-82071428D01*
X72785714Y-82100000D01*
X72757142Y-82128571D01*
X72042857Y-82442857D02*
X71585714Y-82442857D01*
X71814285Y-82671428D02*
X71814285Y-82214285D01*
X71328571Y-82128571D02*
X71300000Y-82100000D01*
X71242857Y-82071428D01*
X71100000Y-82071428D01*
X71042857Y-82100000D01*
X71014285Y-82128571D01*
X70985714Y-82185714D01*
X70985714Y-82242857D01*
X71014285Y-82328571D01*
X71357142Y-82671428D01*
X70985714Y-82671428D01*
X70728571Y-82614285D02*
X70700000Y-82642857D01*
X70728571Y-82671428D01*
X70757142Y-82642857D01*
X70728571Y-82614285D01*
X70728571Y-82671428D01*
X70157142Y-82071428D02*
X70442857Y-82071428D01*
X70471428Y-82357142D01*
X70442857Y-82328571D01*
X70385714Y-82300000D01*
X70242857Y-82300000D01*
X70185714Y-82328571D01*
X70157142Y-82357142D01*
X70128571Y-82414285D01*
X70128571Y-82557142D01*
X70157142Y-82614285D01*
X70185714Y-82642857D01*
X70242857Y-82671428D01*
X70385714Y-82671428D01*
X70442857Y-82642857D01*
X70471428Y-82614285D01*
X69100000Y-82100000D02*
X69157142Y-82071428D01*
X69242857Y-82071428D01*
X69328571Y-82100000D01*
X69385714Y-82157142D01*
X69414285Y-82214285D01*
X69442857Y-82328571D01*
X69442857Y-82414285D01*
X69414285Y-82528571D01*
X69385714Y-82585714D01*
X69328571Y-82642857D01*
X69242857Y-82671428D01*
X69185714Y-82671428D01*
X69100000Y-82642857D01*
X69071428Y-82614285D01*
X69071428Y-82414285D01*
X69185714Y-82414285D01*
X68814285Y-82671428D02*
X68814285Y-82071428D01*
X68471428Y-82671428D01*
X68471428Y-82071428D01*
X68185714Y-82671428D02*
X68185714Y-82071428D01*
X68042857Y-82071428D01*
X67957142Y-82100000D01*
X67900000Y-82157142D01*
X67871428Y-82214285D01*
X67842857Y-82328571D01*
X67842857Y-82414285D01*
X67871428Y-82528571D01*
X67900000Y-82585714D01*
X67957142Y-82642857D01*
X68042857Y-82671428D01*
X68185714Y-82671428D01*
X146314285Y-76300000D02*
X146371428Y-76271428D01*
X146457142Y-76271428D01*
X146542857Y-76300000D01*
X146600000Y-76357142D01*
X146628571Y-76414285D01*
X146657142Y-76528571D01*
X146657142Y-76614285D01*
X146628571Y-76728571D01*
X146600000Y-76785714D01*
X146542857Y-76842857D01*
X146457142Y-76871428D01*
X146400000Y-76871428D01*
X146314285Y-76842857D01*
X146285714Y-76814285D01*
X146285714Y-76614285D01*
X146400000Y-76614285D01*
X146028571Y-76871428D02*
X146028571Y-76271428D01*
X145685714Y-76871428D01*
X145685714Y-76271428D01*
X145400000Y-76871428D02*
X145400000Y-76271428D01*
X145257142Y-76271428D01*
X145171428Y-76300000D01*
X145114285Y-76357142D01*
X145085714Y-76414285D01*
X145057142Y-76528571D01*
X145057142Y-76614285D01*
X145085714Y-76728571D01*
X145114285Y-76785714D01*
X145171428Y-76842857D01*
X145257142Y-76871428D01*
X145400000Y-76871428D01*
X144342857Y-76642857D02*
X143885714Y-76642857D01*
X143285714Y-76871428D02*
X143628571Y-76871428D01*
X143457142Y-76871428D02*
X143457142Y-76271428D01*
X143514285Y-76357142D01*
X143571428Y-76414285D01*
X143628571Y-76442857D01*
X143057142Y-76328571D02*
X143028571Y-76300000D01*
X142971428Y-76271428D01*
X142828571Y-76271428D01*
X142771428Y-76300000D01*
X142742857Y-76328571D01*
X142714285Y-76385714D01*
X142714285Y-76442857D01*
X142742857Y-76528571D01*
X143085714Y-76871428D01*
X142714285Y-76871428D01*
X142000000Y-76642857D02*
X141542857Y-76642857D01*
X140971428Y-76271428D02*
X141257142Y-76271428D01*
X141285714Y-76557142D01*
X141257142Y-76528571D01*
X141200000Y-76500000D01*
X141057142Y-76500000D01*
X141000000Y-76528571D01*
X140971428Y-76557142D01*
X140942857Y-76614285D01*
X140942857Y-76757142D01*
X140971428Y-76814285D01*
X141000000Y-76842857D01*
X141057142Y-76871428D01*
X141200000Y-76871428D01*
X141257142Y-76842857D01*
X141285714Y-76814285D01*
X132671428Y-28228571D02*
X133071428Y-28228571D01*
X132442857Y-28085714D02*
X132871428Y-27942857D01*
X132871428Y-28314285D01*
X132471428Y-28657142D02*
X132471428Y-28714285D01*
X132500000Y-28771428D01*
X132528571Y-28800000D01*
X132585714Y-28828571D01*
X132700000Y-28857142D01*
X132842857Y-28857142D01*
X132957142Y-28828571D01*
X133014285Y-28800000D01*
X133042857Y-28771428D01*
X133071428Y-28714285D01*
X133071428Y-28657142D01*
X133042857Y-28600000D01*
X133014285Y-28571428D01*
X132957142Y-28542857D01*
X132842857Y-28514285D01*
X132700000Y-28514285D01*
X132585714Y-28542857D01*
X132528571Y-28571428D01*
X132500000Y-28600000D01*
X132471428Y-28657142D01*
D11*
X79852380Y-31485714D02*
X79852380Y-30914285D01*
X79852380Y-31200000D02*
X78852380Y-31200000D01*
X78995238Y-31104761D01*
X79090476Y-31009523D01*
X79138095Y-30914285D01*
D12*
X76376000Y-98400000D02*
G75*
G03*
X76376000Y-98400000I-576000J0D01*
G01*
X138376000Y-27000000D02*
G75*
G03*
X138376000Y-27000000I-576000J0D01*
G01*
X75776000Y-27000000D02*
G75*
G03*
X75776000Y-27000000I-576000J0D01*
G01*
D13*
X147000000Y-100500000D02*
X147000000Y-31000000D01*
X67000000Y-30500000D02*
X67000000Y-100000000D01*
X142000000Y-105500000D02*
X72500000Y-105500000D01*
X72500000Y-105500000D02*
G75*
G02*
X67000000Y-100000000I0J5500000D01*
G01*
X147000000Y-100500000D02*
G75*
G02*
X142000000Y-105500000I-5000000J0D01*
G01*
X72000000Y-25500000D02*
X141500000Y-25500000D01*
X67000000Y-30500000D02*
G75*
G02*
X72000000Y-25500000I5000000J0D01*
G01*
X141500000Y-25500000D02*
G75*
G02*
X147000000Y-31000000I0J-5500000D01*
G01*
M02*
