G04 #@! TF.GenerationSoftware,KiCad,Pcbnew,(6.0.7-1)-1*
G04 #@! TF.CreationDate,2022-11-22T15:05:13-08:00*
G04 #@! TF.ProjectId,as3340,61733333-3430-42e6-9b69-6361645f7063,rev?*
G04 #@! TF.SameCoordinates,PX3d83120PY6590fa0*
G04 #@! TF.FileFunction,Soldermask,Top*
G04 #@! TF.FilePolarity,Negative*
%FSLAX46Y46*%
G04 Gerber Fmt 4.6, Leading zero omitted, Abs format (unit mm)*
G04 Created by KiCad (PCBNEW (6.0.7-1)-1) date 2022-11-22 15:05:13*
%MOMM*%
%LPD*%
G01*
G04 APERTURE LIST*
G04 Aperture macros list*
%AMRoundRect*
0 Rectangle with rounded corners*
0 $1 Rounding radius*
0 $2 $3 $4 $5 $6 $7 $8 $9 X,Y pos of 4 corners*
0 Add a 4 corners polygon primitive as box body*
4,1,4,$2,$3,$4,$5,$6,$7,$8,$9,$2,$3,0*
0 Add four circle primitives for the rounded corners*
1,1,$1+$1,$2,$3*
1,1,$1+$1,$4,$5*
1,1,$1+$1,$6,$7*
1,1,$1+$1,$8,$9*
0 Add four rect primitives between the rounded corners*
20,1,$1+$1,$2,$3,$4,$5,0*
20,1,$1+$1,$4,$5,$6,$7,0*
20,1,$1+$1,$6,$7,$8,$9,0*
20,1,$1+$1,$8,$9,$2,$3,0*%
G04 Aperture macros list end*
G04 #@! TA.AperFunction,Profile*
%ADD10C,0.150000*%
G04 #@! TD*
G04 #@! TA.AperFunction,Profile*
%ADD11C,0.050000*%
G04 #@! TD*
%ADD12RoundRect,0.225000X0.225000X0.250000X-0.225000X0.250000X-0.225000X-0.250000X0.225000X-0.250000X0*%
%ADD13RoundRect,0.225000X-0.250000X0.225000X-0.250000X-0.225000X0.250000X-0.225000X0.250000X0.225000X0*%
%ADD14RoundRect,0.150000X0.150000X-0.825000X0.150000X0.825000X-0.150000X0.825000X-0.150000X-0.825000X0*%
%ADD15RoundRect,0.225000X-0.225000X-0.250000X0.225000X-0.250000X0.225000X0.250000X-0.225000X0.250000X0*%
%ADD16RoundRect,0.200000X0.200000X0.275000X-0.200000X0.275000X-0.200000X-0.275000X0.200000X-0.275000X0*%
%ADD17RoundRect,0.250000X0.450000X-0.262500X0.450000X0.262500X-0.450000X0.262500X-0.450000X-0.262500X0*%
%ADD18RoundRect,0.200000X-0.200000X-0.275000X0.200000X-0.275000X0.200000X0.275000X-0.200000X0.275000X0*%
%ADD19RoundRect,0.200000X-0.275000X0.200000X-0.275000X-0.200000X0.275000X-0.200000X0.275000X0.200000X0*%
%ADD20C,1.440000*%
%ADD21RoundRect,0.225000X0.250000X-0.225000X0.250000X0.225000X-0.250000X0.225000X-0.250000X-0.225000X0*%
%ADD22RoundRect,0.200000X0.275000X-0.200000X0.275000X0.200000X-0.275000X0.200000X-0.275000X-0.200000X0*%
%ADD23RoundRect,0.250000X-0.250000X-0.475000X0.250000X-0.475000X0.250000X0.475000X-0.250000X0.475000X0*%
%ADD24RoundRect,0.250000X-0.625000X0.312500X-0.625000X-0.312500X0.625000X-0.312500X0.625000X0.312500X0*%
%ADD25RoundRect,0.150000X-0.825000X-0.150000X0.825000X-0.150000X0.825000X0.150000X-0.825000X0.150000X0*%
%ADD26C,3.200000*%
%ADD27RoundRect,0.250000X-0.325000X-0.650000X0.325000X-0.650000X0.325000X0.650000X-0.325000X0.650000X0*%
%ADD28RoundRect,0.100000X-0.637500X-0.100000X0.637500X-0.100000X0.637500X0.100000X-0.637500X0.100000X0*%
%ADD29RoundRect,0.100000X0.637500X0.100000X-0.637500X0.100000X-0.637500X-0.100000X0.637500X-0.100000X0*%
%ADD30RoundRect,0.150000X-0.150000X0.825000X-0.150000X-0.825000X0.150000X-0.825000X0.150000X0.825000X0*%
%ADD31C,1.524000*%
%ADD32RoundRect,0.250000X0.325000X0.650000X-0.325000X0.650000X-0.325000X-0.650000X0.325000X-0.650000X0*%
%ADD33RoundRect,0.218750X-0.256250X0.218750X-0.256250X-0.218750X0.256250X-0.218750X0.256250X0.218750X0*%
%ADD34R,1.200000X0.900000*%
%ADD35R,2.000000X2.000000*%
%ADD36R,1.700000X1.700000*%
%ADD37O,1.700000X1.700000*%
%ADD38R,0.900000X1.200000*%
%ADD39R,1.500000X1.500000*%
%ADD40C,1.500000*%
%ADD41RoundRect,0.150000X-0.875000X-0.150000X0.875000X-0.150000X0.875000X0.150000X-0.875000X0.150000X0*%
%ADD42RoundRect,0.150000X0.150000X-0.587500X0.150000X0.587500X-0.150000X0.587500X-0.150000X-0.587500X0*%
%ADD43RoundRect,0.150000X-0.587500X-0.150000X0.587500X-0.150000X0.587500X0.150000X-0.587500X0.150000X0*%
G04 APERTURE END LIST*
D10*
X82500000Y75500000D02*
G75*
G03*
X77000000Y81000000I-5500000J0D01*
G01*
X7500000Y81000000D02*
G75*
G03*
X2500000Y76000000I0J-5000000D01*
G01*
X7500000Y81000000D02*
X77000000Y81000000D01*
X77500000Y1000000D02*
G75*
G03*
X82500000Y6000000I0J5000000D01*
G01*
X2500000Y6500000D02*
G75*
G03*
X8000000Y1000000I5500000J0D01*
G01*
X77500000Y1000000D02*
X8000000Y1000000D01*
X2500000Y76000000D02*
X2500000Y6500000D01*
X82500000Y6000000D02*
X82500000Y75500000D01*
D11*
X73876000Y79500000D02*
G75*
G03*
X73876000Y79500000I-576000J0D01*
G01*
X11276000Y2500000D02*
G75*
G03*
X11276000Y2500000I-576000J0D01*
G01*
X11276000Y79500000D02*
G75*
G03*
X11276000Y79500000I-576000J0D01*
G01*
D12*
X43975000Y66975000D03*
X42425000Y66975000D03*
X56575000Y55700000D03*
X55025000Y55700000D03*
D13*
X68900000Y60375000D03*
X68900000Y58825000D03*
D14*
X63155000Y17925000D03*
X64425000Y17925000D03*
X65695000Y17925000D03*
X66965000Y17925000D03*
X68235000Y17925000D03*
X69505000Y17925000D03*
X70775000Y17925000D03*
X72045000Y17925000D03*
X72045000Y22875000D03*
X70775000Y22875000D03*
X69505000Y22875000D03*
X68235000Y22875000D03*
X66965000Y22875000D03*
X65695000Y22875000D03*
X64425000Y22875000D03*
X63155000Y22875000D03*
D15*
X66825000Y31400000D03*
X68375000Y31400000D03*
X72125000Y25700000D03*
X73675000Y25700000D03*
X58825000Y22300000D03*
X60375000Y22300000D03*
D12*
X63375000Y31400000D03*
X61825000Y31400000D03*
D16*
X68425000Y15000000D03*
X66775000Y15000000D03*
X70425000Y28900000D03*
X68775000Y28900000D03*
D17*
X66600000Y26987500D03*
X66600000Y28812500D03*
D18*
X73450000Y14125000D03*
X75100000Y14125000D03*
D16*
X62125000Y13100000D03*
X60475000Y13100000D03*
X60425000Y20500000D03*
X58775000Y20500000D03*
D19*
X56200000Y18825000D03*
X56200000Y17175000D03*
D17*
X63600000Y26987500D03*
X63600000Y28812500D03*
D20*
X79000000Y11500000D03*
X79000000Y14040000D03*
X79000000Y16580000D03*
X70500000Y4000000D03*
X67960000Y4000000D03*
X65420000Y4000000D03*
D12*
X67775000Y51700000D03*
X66225000Y51700000D03*
D21*
X67700000Y38325000D03*
X67700000Y39875000D03*
D19*
X69500000Y38325000D03*
X69500000Y36675000D03*
D18*
X72175000Y38000000D03*
X73825000Y38000000D03*
D16*
X71325000Y41000000D03*
X69675000Y41000000D03*
D21*
X32900000Y20825000D03*
X32900000Y22375000D03*
D18*
X30425000Y3000000D03*
X32075000Y3000000D03*
D12*
X50375000Y36800000D03*
X48825000Y36800000D03*
D18*
X69975000Y53700000D03*
X71625000Y53700000D03*
D12*
X36925000Y22900000D03*
X35375000Y22900000D03*
D15*
X35125000Y33700000D03*
X36675000Y33700000D03*
D12*
X58175000Y36900000D03*
X56625000Y36900000D03*
D15*
X49025000Y46800000D03*
X50575000Y46800000D03*
D16*
X24425000Y17100000D03*
X22775000Y17100000D03*
X57825000Y25100000D03*
X56175000Y25100000D03*
D18*
X22775000Y15200000D03*
X24425000Y15200000D03*
X26275000Y4900000D03*
X27925000Y4900000D03*
X26675000Y15300000D03*
X28325000Y15300000D03*
D19*
X56900000Y6325000D03*
X56900000Y4675000D03*
D15*
X30625000Y15500000D03*
X32175000Y15500000D03*
D12*
X32025000Y4900000D03*
X30475000Y4900000D03*
D18*
X50275000Y18500000D03*
X51925000Y18500000D03*
D22*
X40100000Y9675000D03*
X40100000Y11325000D03*
D16*
X49325000Y16000000D03*
X47675000Y16000000D03*
X53325000Y16000000D03*
X51675000Y16000000D03*
D15*
X50125000Y4700000D03*
X51675000Y4700000D03*
D16*
X39225000Y17500000D03*
X37575000Y17500000D03*
D19*
X20500000Y22325000D03*
X20500000Y20675000D03*
X19900000Y26525000D03*
X19900000Y24875000D03*
D23*
X17000000Y8075000D03*
X18900000Y8075000D03*
D15*
X16975000Y10275000D03*
X18525000Y10275000D03*
D24*
X11175000Y22400000D03*
X11175000Y19475000D03*
D13*
X16800000Y46275000D03*
X16800000Y44725000D03*
D16*
X36925000Y20500000D03*
X35275000Y20500000D03*
D15*
X42725000Y56700000D03*
X44275000Y56700000D03*
D18*
X64075000Y40900000D03*
X65725000Y40900000D03*
D25*
X71425000Y63810000D03*
X71425000Y62540000D03*
X71425000Y61270000D03*
X71425000Y60000000D03*
X71425000Y58730000D03*
X71425000Y57460000D03*
X71425000Y56190000D03*
X76375000Y56190000D03*
X76375000Y57460000D03*
X76375000Y58730000D03*
X76375000Y60000000D03*
X76375000Y61270000D03*
X76375000Y62540000D03*
X76375000Y63810000D03*
D22*
X20900000Y13575000D03*
X20900000Y15225000D03*
D16*
X35725000Y15500000D03*
X34075000Y15500000D03*
D22*
X22100000Y24875000D03*
X22100000Y26525000D03*
D26*
X6900000Y76700000D03*
X7100000Y5300000D03*
X77900000Y76700000D03*
X77900000Y5300000D03*
D16*
X47725000Y18100000D03*
X46075000Y18100000D03*
D27*
X77225000Y38800000D03*
X80175000Y38800000D03*
D28*
X10437500Y42475000D03*
X10437500Y41825000D03*
X10437500Y41175000D03*
X10437500Y40525000D03*
X10437500Y39875000D03*
X10437500Y39225000D03*
X10437500Y38575000D03*
X10437500Y37925000D03*
X10437500Y37275000D03*
X10437500Y36625000D03*
X10437500Y35975000D03*
X10437500Y35325000D03*
X16162500Y35325000D03*
X16162500Y35975000D03*
X16162500Y36625000D03*
X16162500Y37275000D03*
X16162500Y37925000D03*
X16162500Y38575000D03*
X16162500Y39225000D03*
X16162500Y39875000D03*
X16162500Y40525000D03*
X16162500Y41175000D03*
X16162500Y41825000D03*
X16162500Y42475000D03*
D29*
X14525000Y12500000D03*
X14525000Y13150000D03*
X14525000Y13800000D03*
X14525000Y14450000D03*
X14525000Y15100000D03*
X14525000Y15750000D03*
X14525000Y16400000D03*
X14525000Y17050000D03*
X8800000Y17050000D03*
X8800000Y16400000D03*
X8800000Y15750000D03*
X8800000Y15100000D03*
X8800000Y14450000D03*
X8800000Y13800000D03*
X8800000Y13150000D03*
X8800000Y12500000D03*
D22*
X22500000Y20675000D03*
X22500000Y22325000D03*
D18*
X59875000Y6300000D03*
X61525000Y6300000D03*
D22*
X62700000Y37275000D03*
X62700000Y38925000D03*
D18*
X27375000Y40700000D03*
X29025000Y40700000D03*
X55275000Y47700000D03*
X56925000Y47700000D03*
D16*
X45825000Y50900000D03*
X44175000Y50900000D03*
X45325000Y41500000D03*
X43675000Y41500000D03*
D18*
X62975000Y62100000D03*
X64625000Y62100000D03*
D30*
X58210000Y44375000D03*
X56940000Y44375000D03*
X55670000Y44375000D03*
X54400000Y44375000D03*
X53130000Y44375000D03*
X51860000Y44375000D03*
X50590000Y44375000D03*
X50590000Y39425000D03*
X51860000Y39425000D03*
X53130000Y39425000D03*
X54400000Y39425000D03*
X55670000Y39425000D03*
X56940000Y39425000D03*
X58210000Y39425000D03*
X40545000Y30775000D03*
X39275000Y30775000D03*
X38005000Y30775000D03*
X36735000Y30775000D03*
X35465000Y30775000D03*
X34195000Y30775000D03*
X32925000Y30775000D03*
X31655000Y30775000D03*
X31655000Y25825000D03*
X32925000Y25825000D03*
X34195000Y25825000D03*
X35465000Y25825000D03*
X36735000Y25825000D03*
X38005000Y25825000D03*
X39275000Y25825000D03*
X40545000Y25825000D03*
D18*
X62975000Y60000000D03*
X64625000Y60000000D03*
D30*
X71610000Y49075000D03*
X70340000Y49075000D03*
X69070000Y49075000D03*
X67800000Y49075000D03*
X66530000Y49075000D03*
X65260000Y49075000D03*
X63990000Y49075000D03*
X63990000Y44125000D03*
X65260000Y44125000D03*
X66530000Y44125000D03*
X67800000Y44125000D03*
X69070000Y44125000D03*
X70340000Y44125000D03*
X71610000Y44125000D03*
D18*
X27275000Y47800000D03*
X28925000Y47800000D03*
D31*
X73340000Y28160000D03*
X73340000Y31760000D03*
D32*
X80475000Y21500000D03*
X77525000Y21500000D03*
D22*
X7600000Y27900000D03*
X7600000Y29550000D03*
D33*
X7600000Y26012500D03*
X7600000Y24437500D03*
D34*
X28700000Y24150000D03*
X28700000Y20850000D03*
D15*
X31525000Y33700000D03*
X33075000Y33700000D03*
X42725000Y12900000D03*
X44275000Y12900000D03*
D18*
X31475000Y35700000D03*
X33125000Y35700000D03*
D35*
X64900000Y8700000D03*
D19*
X44000000Y6725000D03*
X44000000Y5075000D03*
D22*
X41800000Y5075000D03*
X41800000Y6725000D03*
D13*
X64500000Y13525000D03*
X64500000Y11975000D03*
D35*
X51900000Y32200000D03*
D16*
X79125000Y69300000D03*
X77475000Y69300000D03*
D18*
X60275000Y25300000D03*
X61925000Y25300000D03*
D16*
X64625000Y64200000D03*
X62975000Y64200000D03*
D30*
X60345000Y63375000D03*
X59075000Y63375000D03*
X57805000Y63375000D03*
X56535000Y63375000D03*
X55265000Y63375000D03*
X53995000Y63375000D03*
X52725000Y63375000D03*
X51455000Y63375000D03*
X51455000Y58425000D03*
X52725000Y58425000D03*
X53995000Y58425000D03*
X55265000Y58425000D03*
X56535000Y58425000D03*
X57805000Y58425000D03*
X59075000Y58425000D03*
X60345000Y58425000D03*
D36*
X17500000Y70500000D03*
D37*
X17500000Y73040000D03*
X20040000Y70500000D03*
X20040000Y73040000D03*
X22580000Y70500000D03*
X22580000Y73040000D03*
X25120000Y70500000D03*
X25120000Y73040000D03*
X27660000Y70500000D03*
X27660000Y73040000D03*
X30200000Y70500000D03*
X30200000Y73040000D03*
X32740000Y70500000D03*
X32740000Y73040000D03*
X35280000Y70500000D03*
X35280000Y73040000D03*
X37820000Y70500000D03*
X37820000Y73040000D03*
X40360000Y70500000D03*
X40360000Y73040000D03*
X42900000Y70500000D03*
X42900000Y73040000D03*
X45440000Y70500000D03*
X45440000Y73040000D03*
X47980000Y70500000D03*
X47980000Y73040000D03*
X50520000Y70500000D03*
X50520000Y73040000D03*
X53060000Y70500000D03*
X53060000Y73040000D03*
X55600000Y70500000D03*
X55600000Y73040000D03*
X58140000Y70500000D03*
X58140000Y73040000D03*
X60680000Y70500000D03*
X60680000Y73040000D03*
X63220000Y70500000D03*
X63220000Y73040000D03*
X65760000Y70500000D03*
X65760000Y73040000D03*
D15*
X55125000Y65900000D03*
X56675000Y65900000D03*
D12*
X12875000Y64700000D03*
X11325000Y64700000D03*
D19*
X35100000Y4925000D03*
X35100000Y3275000D03*
D16*
X38625000Y4900000D03*
X36975000Y4900000D03*
D14*
X40205000Y59375000D03*
X41475000Y59375000D03*
X42745000Y59375000D03*
X44015000Y59375000D03*
X45285000Y59375000D03*
X46555000Y59375000D03*
X47825000Y59375000D03*
X49095000Y59375000D03*
X49095000Y64325000D03*
X47825000Y64325000D03*
X46555000Y64325000D03*
X45285000Y64325000D03*
X44015000Y64325000D03*
X42745000Y64325000D03*
X41475000Y64325000D03*
X40205000Y64325000D03*
D35*
X59700000Y10700000D03*
D38*
X75850000Y71600000D03*
X79150000Y71600000D03*
D13*
X78900000Y60675000D03*
X78900000Y59125000D03*
D16*
X77025000Y53900000D03*
X75375000Y53900000D03*
D22*
X78900000Y55675000D03*
X78900000Y57325000D03*
X70800000Y66575000D03*
X70800000Y68225000D03*
X52300000Y34675000D03*
X52300000Y36325000D03*
D35*
X7700000Y20000000D03*
D39*
X78900000Y33600000D03*
D40*
X78900000Y31060000D03*
X78900000Y28520000D03*
D30*
X34510000Y12505000D03*
X33240000Y12505000D03*
X31970000Y12505000D03*
X30700000Y12505000D03*
X29430000Y12505000D03*
X28160000Y12505000D03*
X26890000Y12505000D03*
X26890000Y7555000D03*
X28160000Y7555000D03*
X29430000Y7555000D03*
X30700000Y7555000D03*
X31970000Y7555000D03*
X33240000Y7555000D03*
X34510000Y7555000D03*
D21*
X44300000Y45325000D03*
X44300000Y46875000D03*
X28800000Y43725000D03*
X28800000Y45275000D03*
X66900000Y55425000D03*
X66900000Y56975000D03*
D13*
X66700000Y64075000D03*
X66700000Y62525000D03*
D22*
X68900000Y62475000D03*
X68900000Y64125000D03*
D16*
X74525000Y66700000D03*
X72875000Y66700000D03*
D19*
X78900000Y64125000D03*
X78900000Y62475000D03*
D22*
X78900000Y65975000D03*
X78900000Y67625000D03*
D35*
X74800000Y41700000D03*
D18*
X25875000Y38600000D03*
X27525000Y38600000D03*
D16*
X45825000Y48900000D03*
X44175000Y48900000D03*
D19*
X28800000Y51225000D03*
X28800000Y49575000D03*
D41*
X31650000Y50415000D03*
X31650000Y49145000D03*
X31650000Y47875000D03*
X31650000Y46605000D03*
X31650000Y45335000D03*
X31650000Y44065000D03*
X31650000Y42795000D03*
X31650000Y41525000D03*
X31650000Y40255000D03*
X31650000Y38985000D03*
X40950000Y38985000D03*
X40950000Y40255000D03*
X40950000Y41525000D03*
X40950000Y42795000D03*
X40950000Y44065000D03*
X40950000Y45335000D03*
X40950000Y46605000D03*
X40950000Y47875000D03*
X40950000Y49145000D03*
X40950000Y50415000D03*
D42*
X14450000Y19712500D03*
X16350000Y19712500D03*
X15400000Y21587500D03*
D30*
X49905000Y12575000D03*
X48635000Y12575000D03*
X47365000Y12575000D03*
X46095000Y12575000D03*
X46095000Y7625000D03*
X47365000Y7625000D03*
X48635000Y7625000D03*
X49905000Y7625000D03*
D18*
X41675000Y34000000D03*
X43325000Y34000000D03*
D19*
X68900000Y57025000D03*
X68900000Y55375000D03*
D18*
X43375000Y27500000D03*
X45025000Y27500000D03*
D15*
X45025000Y29500000D03*
X46575000Y29500000D03*
D16*
X74225000Y34100000D03*
X72575000Y34100000D03*
D21*
X20900000Y17125000D03*
X20900000Y18675000D03*
D22*
X64000000Y52075000D03*
X64000000Y53725000D03*
D34*
X28700000Y33750000D03*
X28700000Y30450000D03*
D14*
X11295000Y56525000D03*
X12565000Y56525000D03*
X13835000Y56525000D03*
X15105000Y56525000D03*
X15105000Y61475000D03*
X13835000Y61475000D03*
X12565000Y61475000D03*
X11295000Y61475000D03*
D36*
X8000000Y59375000D03*
D37*
X8000000Y56835000D03*
D22*
X60500000Y39275000D03*
X60500000Y40925000D03*
D12*
X28275000Y17100000D03*
X26725000Y17100000D03*
D13*
X24500000Y22275000D03*
X24500000Y20725000D03*
D43*
X35362500Y54950000D03*
X35362500Y53050000D03*
X37237500Y54000000D03*
D12*
X27875000Y2900000D03*
X26325000Y2900000D03*
D15*
X37025000Y3000000D03*
X38575000Y3000000D03*
X34125000Y17500000D03*
X35675000Y17500000D03*
D19*
X32500000Y54725000D03*
X32500000Y53075000D03*
D12*
X17975000Y26500000D03*
X16425000Y26500000D03*
D16*
X9625000Y63400000D03*
X7975000Y63400000D03*
D36*
X78300000Y48500000D03*
D35*
X60800000Y3400000D03*
D27*
X54025000Y50100000D03*
X56975000Y50100000D03*
M02*
