G04 #@! TF.GenerationSoftware,KiCad,Pcbnew,(6.0.7-1)-1*
G04 #@! TF.CreationDate,2023-04-19T22:27:40-07:00*
G04 #@! TF.ProjectId,as3340,61733333-3430-42e6-9b69-6361645f7063,rev?*
G04 #@! TF.SameCoordinates,PX3d83120PY6590fa0*
G04 #@! TF.FileFunction,Paste,Top*
G04 #@! TF.FilePolarity,Positive*
%FSLAX46Y46*%
G04 Gerber Fmt 4.6, Leading zero omitted, Abs format (unit mm)*
G04 Created by KiCad (PCBNEW (6.0.7-1)-1) date 2023-04-19 22:27:40*
%MOMM*%
%LPD*%
G01*
G04 APERTURE LIST*
G04 Aperture macros list*
%AMRoundRect*
0 Rectangle with rounded corners*
0 $1 Rounding radius*
0 $2 $3 $4 $5 $6 $7 $8 $9 X,Y pos of 4 corners*
0 Add a 4 corners polygon primitive as box body*
4,1,4,$2,$3,$4,$5,$6,$7,$8,$9,$2,$3,0*
0 Add four circle primitives for the rounded corners*
1,1,$1+$1,$2,$3*
1,1,$1+$1,$4,$5*
1,1,$1+$1,$6,$7*
1,1,$1+$1,$8,$9*
0 Add four rect primitives between the rounded corners*
20,1,$1+$1,$2,$3,$4,$5,0*
20,1,$1+$1,$4,$5,$6,$7,0*
20,1,$1+$1,$6,$7,$8,$9,0*
20,1,$1+$1,$8,$9,$2,$3,0*%
G04 Aperture macros list end*
G04 #@! TA.AperFunction,Profile*
%ADD10C,0.150000*%
G04 #@! TD*
G04 #@! TA.AperFunction,Profile*
%ADD11C,0.050000*%
G04 #@! TD*
%ADD12RoundRect,0.225000X-0.225000X-0.250000X0.225000X-0.250000X0.225000X0.250000X-0.225000X0.250000X0*%
%ADD13RoundRect,0.225000X0.250000X-0.225000X0.250000X0.225000X-0.250000X0.225000X-0.250000X-0.225000X0*%
%ADD14RoundRect,0.150000X-0.150000X0.825000X-0.150000X-0.825000X0.150000X-0.825000X0.150000X0.825000X0*%
%ADD15RoundRect,0.225000X0.225000X0.250000X-0.225000X0.250000X-0.225000X-0.250000X0.225000X-0.250000X0*%
%ADD16RoundRect,0.200000X-0.200000X-0.275000X0.200000X-0.275000X0.200000X0.275000X-0.200000X0.275000X0*%
%ADD17RoundRect,0.250000X-0.450000X0.262500X-0.450000X-0.262500X0.450000X-0.262500X0.450000X0.262500X0*%
%ADD18RoundRect,0.200000X0.200000X0.275000X-0.200000X0.275000X-0.200000X-0.275000X0.200000X-0.275000X0*%
%ADD19RoundRect,0.200000X0.275000X-0.200000X0.275000X0.200000X-0.275000X0.200000X-0.275000X-0.200000X0*%
%ADD20RoundRect,0.225000X-0.250000X0.225000X-0.250000X-0.225000X0.250000X-0.225000X0.250000X0.225000X0*%
%ADD21RoundRect,0.250000X-0.262500X-0.450000X0.262500X-0.450000X0.262500X0.450000X-0.262500X0.450000X0*%
%ADD22RoundRect,0.250000X0.250000X0.475000X-0.250000X0.475000X-0.250000X-0.475000X0.250000X-0.475000X0*%
%ADD23RoundRect,0.250000X0.625000X-0.312500X0.625000X0.312500X-0.625000X0.312500X-0.625000X-0.312500X0*%
%ADD24RoundRect,0.150000X0.825000X0.150000X-0.825000X0.150000X-0.825000X-0.150000X0.825000X-0.150000X0*%
%ADD25RoundRect,0.200000X-0.275000X0.200000X-0.275000X-0.200000X0.275000X-0.200000X0.275000X0.200000X0*%
%ADD26RoundRect,0.250000X0.325000X0.650000X-0.325000X0.650000X-0.325000X-0.650000X0.325000X-0.650000X0*%
%ADD27RoundRect,0.100000X0.637500X0.100000X-0.637500X0.100000X-0.637500X-0.100000X0.637500X-0.100000X0*%
%ADD28RoundRect,0.100000X-0.637500X-0.100000X0.637500X-0.100000X0.637500X0.100000X-0.637500X0.100000X0*%
%ADD29RoundRect,0.150000X0.150000X-0.825000X0.150000X0.825000X-0.150000X0.825000X-0.150000X-0.825000X0*%
%ADD30RoundRect,0.250000X-0.325000X-0.650000X0.325000X-0.650000X0.325000X0.650000X-0.325000X0.650000X0*%
%ADD31RoundRect,0.218750X0.256250X-0.218750X0.256250X0.218750X-0.256250X0.218750X-0.256250X-0.218750X0*%
%ADD32R,1.200000X0.900000*%
%ADD33RoundRect,0.150000X0.875000X0.150000X-0.875000X0.150000X-0.875000X-0.150000X0.875000X-0.150000X0*%
%ADD34RoundRect,0.150000X-0.150000X0.587500X-0.150000X-0.587500X0.150000X-0.587500X0.150000X0.587500X0*%
%ADD35RoundRect,0.150000X0.587500X0.150000X-0.587500X0.150000X-0.587500X-0.150000X0.587500X-0.150000X0*%
G04 APERTURE END LIST*
D10*
X500000Y7000000D02*
G75*
G03*
X6000000Y1500000I5500000J0D01*
G01*
X75500000Y1500000D02*
G75*
G03*
X80500000Y6500000I0J5000000D01*
G01*
X75500000Y1500000D02*
X6000000Y1500000D01*
X5500000Y81500000D02*
G75*
G03*
X500000Y76500000I0J-5000000D01*
G01*
X80500000Y76000000D02*
G75*
G03*
X75000000Y81500000I-5500000J0D01*
G01*
X5500000Y81500000D02*
X75000000Y81500000D01*
X80500000Y6500000D02*
X80500000Y76000000D01*
X500000Y76500000D02*
X500000Y7000000D01*
D11*
X10276000Y3000000D02*
G75*
G03*
X10276000Y3000000I-576000J0D01*
G01*
X72876000Y80000000D02*
G75*
G03*
X72876000Y80000000I-576000J0D01*
G01*
X72876000Y3000000D02*
G75*
G03*
X72876000Y3000000I-576000J0D01*
G01*
D12*
X39025000Y15525000D03*
X40575000Y15525000D03*
X26425000Y26800000D03*
X27975000Y26800000D03*
D13*
X14100000Y22125000D03*
X14100000Y23675000D03*
D14*
X19845000Y64575000D03*
X18575000Y64575000D03*
X17305000Y64575000D03*
X16035000Y64575000D03*
X14765000Y64575000D03*
X13495000Y64575000D03*
X12225000Y64575000D03*
X10955000Y64575000D03*
X10955000Y59625000D03*
X12225000Y59625000D03*
X13495000Y59625000D03*
X14765000Y59625000D03*
X16035000Y59625000D03*
X17305000Y59625000D03*
X18575000Y59625000D03*
X19845000Y59625000D03*
D15*
X16175000Y51100000D03*
X14625000Y51100000D03*
X10875000Y56800000D03*
X9325000Y56800000D03*
X24175000Y60200000D03*
X22625000Y60200000D03*
D12*
X19625000Y51100000D03*
X21175000Y51100000D03*
D16*
X14575000Y67500000D03*
X16225000Y67500000D03*
X12575000Y53600000D03*
X14225000Y53600000D03*
D17*
X16400000Y55512500D03*
X16400000Y53687500D03*
D18*
X9550000Y68375000D03*
X7900000Y68375000D03*
D16*
X20875000Y69400000D03*
X22525000Y69400000D03*
X22575000Y62000000D03*
X24225000Y62000000D03*
D19*
X24200000Y63675000D03*
X24200000Y65325000D03*
D17*
X19400000Y55512500D03*
X19400000Y53687500D03*
D12*
X15225000Y30800000D03*
X16775000Y30800000D03*
D20*
X15300000Y44175000D03*
X15300000Y42625000D03*
D19*
X13500000Y44175000D03*
X13500000Y45825000D03*
D18*
X10825000Y44500000D03*
X9175000Y44500000D03*
D16*
X11675000Y41500000D03*
X13325000Y41500000D03*
D20*
X50100000Y61675000D03*
X50100000Y60125000D03*
D18*
X52575000Y79500000D03*
X50925000Y79500000D03*
D12*
X32625000Y45700000D03*
X34175000Y45700000D03*
D18*
X13025000Y28800000D03*
X11375000Y28800000D03*
D12*
X46075000Y59600000D03*
X47625000Y59600000D03*
D15*
X47875000Y48800000D03*
X46325000Y48800000D03*
D12*
X24825000Y45600000D03*
X26375000Y45600000D03*
D15*
X33975000Y35700000D03*
X32425000Y35700000D03*
D16*
X58575000Y65400000D03*
X60225000Y65400000D03*
X25175000Y57400000D03*
X26825000Y57400000D03*
D18*
X60225000Y67300000D03*
X58575000Y67300000D03*
X56725000Y77600000D03*
X55075000Y77600000D03*
X56325000Y67200000D03*
X54675000Y67200000D03*
D19*
X26100000Y78525000D03*
X26100000Y76875000D03*
D15*
X52375000Y67000000D03*
X50825000Y67000000D03*
D12*
X50975000Y77600000D03*
X52525000Y77600000D03*
D21*
X43087500Y72800000D03*
X44912500Y72800000D03*
D15*
X32875000Y77800000D03*
X31325000Y77800000D03*
D16*
X43775000Y65000000D03*
X45425000Y65000000D03*
D19*
X62500000Y60175000D03*
X62500000Y61825000D03*
X63100000Y55975000D03*
X63100000Y57625000D03*
D22*
X66000000Y74425000D03*
X64100000Y74425000D03*
D15*
X66025000Y72225000D03*
X64475000Y72225000D03*
D23*
X71825000Y60100000D03*
X71825000Y63025000D03*
D13*
X66200000Y36225000D03*
X66200000Y37775000D03*
D16*
X46075000Y62000000D03*
X47725000Y62000000D03*
D15*
X40275000Y25800000D03*
X38725000Y25800000D03*
D18*
X18925000Y41600000D03*
X17275000Y41600000D03*
D24*
X11575000Y18690000D03*
X11575000Y19960000D03*
X11575000Y21230000D03*
X11575000Y22500000D03*
X11575000Y23770000D03*
X11575000Y25040000D03*
X11575000Y26310000D03*
X6625000Y26310000D03*
X6625000Y25040000D03*
X6625000Y23770000D03*
X6625000Y22500000D03*
X6625000Y21230000D03*
X6625000Y19960000D03*
X6625000Y18690000D03*
D25*
X62100000Y68925000D03*
X62100000Y67275000D03*
D16*
X47275000Y67000000D03*
X48925000Y67000000D03*
D25*
X60900000Y57625000D03*
X60900000Y55975000D03*
D26*
X5775000Y43700000D03*
X2825000Y43700000D03*
D27*
X72562500Y40025000D03*
X72562500Y40675000D03*
X72562500Y41325000D03*
X72562500Y41975000D03*
X72562500Y42625000D03*
X72562500Y43275000D03*
X72562500Y43925000D03*
X72562500Y44575000D03*
X72562500Y45225000D03*
X72562500Y45875000D03*
X72562500Y46525000D03*
X72562500Y47175000D03*
X66837500Y47175000D03*
X66837500Y46525000D03*
X66837500Y45875000D03*
X66837500Y45225000D03*
X66837500Y44575000D03*
X66837500Y43925000D03*
X66837500Y43275000D03*
X66837500Y42625000D03*
X66837500Y41975000D03*
X66837500Y41325000D03*
X66837500Y40675000D03*
X66837500Y40025000D03*
D28*
X68475000Y70000000D03*
X68475000Y69350000D03*
X68475000Y68700000D03*
X68475000Y68050000D03*
X68475000Y67400000D03*
X68475000Y66750000D03*
X68475000Y66100000D03*
X68475000Y65450000D03*
X74200000Y65450000D03*
X74200000Y66100000D03*
X74200000Y66750000D03*
X74200000Y67400000D03*
X74200000Y68050000D03*
X74200000Y68700000D03*
X74200000Y69350000D03*
X74200000Y70000000D03*
D25*
X60500000Y61825000D03*
X60500000Y60175000D03*
D18*
X23125000Y76200000D03*
X21475000Y76200000D03*
D25*
X20300000Y45225000D03*
X20300000Y43575000D03*
D18*
X55625000Y41800000D03*
X53975000Y41800000D03*
X27725000Y34800000D03*
X26075000Y34800000D03*
D16*
X37175000Y31600000D03*
X38825000Y31600000D03*
D18*
X20025000Y20400000D03*
X18375000Y20400000D03*
D29*
X24790000Y38125000D03*
X26060000Y38125000D03*
X27330000Y38125000D03*
X28600000Y38125000D03*
X29870000Y38125000D03*
X31140000Y38125000D03*
X32410000Y38125000D03*
X32410000Y43075000D03*
X31140000Y43075000D03*
X29870000Y43075000D03*
X28600000Y43075000D03*
X27330000Y43075000D03*
X26060000Y43075000D03*
X24790000Y43075000D03*
X42455000Y51725000D03*
X43725000Y51725000D03*
X44995000Y51725000D03*
X46265000Y51725000D03*
X47535000Y51725000D03*
X48805000Y51725000D03*
X50075000Y51725000D03*
X51345000Y51725000D03*
X51345000Y56675000D03*
X50075000Y56675000D03*
X48805000Y56675000D03*
X47535000Y56675000D03*
X46265000Y56675000D03*
X44995000Y56675000D03*
X43725000Y56675000D03*
X42455000Y56675000D03*
D18*
X20025000Y22500000D03*
X18375000Y22500000D03*
D29*
X11390000Y33425000D03*
X12660000Y33425000D03*
X13930000Y33425000D03*
X15200000Y33425000D03*
X16470000Y33425000D03*
X17740000Y33425000D03*
X19010000Y33425000D03*
X19010000Y38375000D03*
X17740000Y38375000D03*
X16470000Y38375000D03*
X15200000Y38375000D03*
X13930000Y38375000D03*
X12660000Y38375000D03*
X11390000Y38375000D03*
D18*
X55725000Y34700000D03*
X54075000Y34700000D03*
D30*
X2525000Y57200000D03*
X5475000Y57200000D03*
D25*
X75400000Y54600000D03*
X75400000Y52950000D03*
D31*
X75400000Y56487500D03*
X75400000Y58062500D03*
D32*
X54300000Y58350000D03*
X54300000Y61650000D03*
D15*
X51475000Y48800000D03*
X49925000Y48800000D03*
X40275000Y69600000D03*
X38725000Y69600000D03*
D18*
X51525000Y46800000D03*
X49875000Y46800000D03*
D19*
X39000000Y75775000D03*
X39000000Y77425000D03*
D25*
X41200000Y77425000D03*
X41200000Y75775000D03*
D13*
X18500000Y68975000D03*
X18500000Y70525000D03*
D25*
X7500000Y12225000D03*
X7500000Y10575000D03*
D18*
X22725000Y57200000D03*
X21075000Y57200000D03*
D16*
X18375000Y18300000D03*
X20025000Y18300000D03*
D29*
X22655000Y19125000D03*
X23925000Y19125000D03*
X25195000Y19125000D03*
X26465000Y19125000D03*
X27735000Y19125000D03*
X29005000Y19125000D03*
X30275000Y19125000D03*
X31545000Y19125000D03*
X31545000Y24075000D03*
X30275000Y24075000D03*
X29005000Y24075000D03*
X27735000Y24075000D03*
X26465000Y24075000D03*
X25195000Y24075000D03*
X23925000Y24075000D03*
X22655000Y24075000D03*
D15*
X27875000Y16600000D03*
X26325000Y16600000D03*
D12*
X70125000Y17800000D03*
X71675000Y17800000D03*
D19*
X47900000Y77575000D03*
X47900000Y79225000D03*
D16*
X44375000Y77600000D03*
X46025000Y77600000D03*
D14*
X42795000Y23125000D03*
X41525000Y23125000D03*
X40255000Y23125000D03*
X38985000Y23125000D03*
X37715000Y23125000D03*
X36445000Y23125000D03*
X35175000Y23125000D03*
X33905000Y23125000D03*
X33905000Y18175000D03*
X35175000Y18175000D03*
X36445000Y18175000D03*
X37715000Y18175000D03*
X38985000Y18175000D03*
X40255000Y18175000D03*
X41525000Y18175000D03*
X42795000Y18175000D03*
D13*
X4100000Y21825000D03*
X4100000Y23375000D03*
D16*
X5975000Y28600000D03*
X7625000Y28600000D03*
D25*
X4100000Y26825000D03*
X4100000Y25175000D03*
X12200000Y15925000D03*
X12200000Y14275000D03*
X30700000Y47825000D03*
X30700000Y46175000D03*
D29*
X48490000Y69995000D03*
X49760000Y69995000D03*
X51030000Y69995000D03*
X52300000Y69995000D03*
X53570000Y69995000D03*
X54840000Y69995000D03*
X56110000Y69995000D03*
X56110000Y74945000D03*
X54840000Y74945000D03*
X53570000Y74945000D03*
X52300000Y74945000D03*
X51030000Y74945000D03*
X49760000Y74945000D03*
X48490000Y74945000D03*
D20*
X38700000Y37175000D03*
X38700000Y35625000D03*
X54200000Y38775000D03*
X54200000Y37225000D03*
X16100000Y27075000D03*
X16100000Y25525000D03*
D13*
X16300000Y18425000D03*
X16300000Y19975000D03*
D25*
X14100000Y20025000D03*
X14100000Y18375000D03*
D16*
X8475000Y15800000D03*
X10125000Y15800000D03*
D19*
X4100000Y18375000D03*
X4100000Y20025000D03*
D16*
X4275000Y15700000D03*
X5925000Y15700000D03*
D18*
X57125000Y43900000D03*
X55475000Y43900000D03*
D16*
X37175000Y33600000D03*
X38825000Y33600000D03*
D19*
X54200000Y31275000D03*
X54200000Y32925000D03*
D33*
X51350000Y32085000D03*
X51350000Y33355000D03*
X51350000Y34625000D03*
X51350000Y35895000D03*
X51350000Y37165000D03*
X51350000Y38435000D03*
X51350000Y39705000D03*
X51350000Y40975000D03*
X51350000Y42245000D03*
X51350000Y43515000D03*
X42050000Y43515000D03*
X42050000Y42245000D03*
X42050000Y40975000D03*
X42050000Y39705000D03*
X42050000Y38435000D03*
X42050000Y37165000D03*
X42050000Y35895000D03*
X42050000Y34625000D03*
X42050000Y33355000D03*
X42050000Y32085000D03*
D34*
X68550000Y62787500D03*
X66650000Y62787500D03*
X67600000Y60912500D03*
D29*
X33095000Y69925000D03*
X34365000Y69925000D03*
X35635000Y69925000D03*
X36905000Y69925000D03*
X36905000Y74875000D03*
X35635000Y74875000D03*
X34365000Y74875000D03*
X33095000Y74875000D03*
D18*
X41325000Y48500000D03*
X39675000Y48500000D03*
D19*
X14100000Y25475000D03*
X14100000Y27125000D03*
D18*
X39625000Y55000000D03*
X37975000Y55000000D03*
D22*
X38150000Y53000000D03*
X36250000Y53000000D03*
D16*
X8775000Y48400000D03*
X10425000Y48400000D03*
D20*
X62100000Y65375000D03*
X62100000Y63825000D03*
D25*
X2600000Y16925000D03*
X2600000Y15275000D03*
D32*
X54300000Y48750000D03*
X54300000Y52050000D03*
D14*
X71705000Y25975000D03*
X70435000Y25975000D03*
X69165000Y25975000D03*
X67895000Y25975000D03*
X67895000Y21025000D03*
X69165000Y21025000D03*
X70435000Y21025000D03*
X71705000Y21025000D03*
D25*
X22500000Y43225000D03*
X22500000Y41575000D03*
D12*
X54725000Y65400000D03*
X56275000Y65400000D03*
D13*
X58500000Y60225000D03*
X58500000Y61775000D03*
D22*
X22750000Y48900000D03*
X20850000Y48900000D03*
D35*
X47637500Y27550000D03*
X47637500Y29450000D03*
X45762500Y28500000D03*
D25*
X32300000Y64225000D03*
X32300000Y62575000D03*
X35900000Y64425000D03*
X35900000Y62775000D03*
D12*
X55125000Y79600000D03*
X56675000Y79600000D03*
D15*
X45975000Y79500000D03*
X44425000Y79500000D03*
D34*
X4550000Y12537500D03*
X2650000Y12537500D03*
X3600000Y10662500D03*
D15*
X48875000Y65000000D03*
X47325000Y65000000D03*
D19*
X50500000Y27775000D03*
X50500000Y29425000D03*
D12*
X65025000Y56000000D03*
X66575000Y56000000D03*
D16*
X73975000Y18900000D03*
X75625000Y18900000D03*
D26*
X28975000Y32400000D03*
X26025000Y32400000D03*
D16*
X33575000Y66900000D03*
X35225000Y66900000D03*
M02*
