M48
; DRILL file {KiCad (6.0.7-1)-1} date Thursday, September 15, 2022 at 09:34:23 PM
; FORMAT={-:-/ absolute / inch / decimal}
; #@! TF.CreationDate,2022-09-15T21:34:23-07:00
; #@! TF.GenerationSoftware,Kicad,Pcbnew,(6.0.7-1)-1
; #@! TF.FileFunction,Plated,1,4,PTH
FMAT,2
INCH
; #@! TA.AperFunction,Plated,PTH,ViaDrill
T1C0.0157
; #@! TA.AperFunction,Plated,PTH,ViaDrill
T2C0.0197
; #@! TA.AperFunction,Plated,PTH,ComponentDrill
T3C0.0300
; #@! TA.AperFunction,Plated,PTH,ComponentDrill
T4C0.0315
; #@! TA.AperFunction,Plated,PTH,ComponentDrill
T5C0.0394
%
G90
G05
T1
X2.8071Y4.622
X2.8425Y5.3071
X2.8917Y5.4656
X2.9252Y6.8465
X2.9449Y6.0039
X2.9488Y4.5945
X2.9764Y4.748
X2.9764Y4.6929
X2.9764Y4.6417
X2.9793Y5.0133
X3.1063Y5.6024
X3.1535Y5.8976
X3.1535Y5.8346
X3.1718Y4.5463
X3.2283Y4.8819
X3.2362Y5.6102
X3.2559Y6.5827
X3.2559Y5.7992
X3.2913Y4.8858
X3.311Y5.5866
X3.315Y5.9016
X3.3228Y5.0157
X3.3307Y5.4016
X3.3425Y4.5472
X3.3543Y6.437
X3.3543Y5.8583
X3.3976Y6.622
X3.4134Y4.8189
X3.4331Y6.7008
X3.4331Y5.1575
X3.4541Y5.0577
X3.4646Y4.5591
X3.4783Y5.5787
X3.5Y4.8898
X3.5039Y5.0
X3.563Y5.7008
X3.5709Y6.4409
X3.6693Y5.2283
X3.6693Y4.9724
X3.689Y6.7205
X3.7008Y4.6299
X3.7047Y5.7402
X3.7126Y5.9094
X3.7244Y6.0472
X3.7402Y5.1024
X3.748Y5.0236
X3.7559Y4.1929
X3.7717Y6.2283
X3.7953Y5.1969
X3.7953Y4.4331
X3.8051Y4.6319
X3.8346Y6.3898
X3.8858Y4.9291
X3.8898Y5.4803
X3.9646Y5.5236
X3.9764Y5.6457
X3.9803Y4.6339
X3.9961Y6.5866
X3.9961Y4.1929
X4.0374Y5.5689
X4.0394Y4.8819
X4.0669Y6.2362
X4.0787Y4.5591
X4.0866Y5.4606
X4.0866Y4.311
X4.0886Y5.1969
X4.1102Y6.1969
X4.126Y4.6378
X4.1339Y5.0236
X4.1417Y4.5827
X4.1811Y4.4961
X4.2205Y5.7756
X4.2205Y4.3937
X4.2283Y5.9134
X4.2362Y5.248
X4.252Y5.6339
X4.2598Y6.4803
X4.2598Y4.7008
X4.3189Y6.4764
X4.3189Y6.0354
X4.3228Y5.6654
X4.3557Y4.6994
X4.3701Y6.4724
X4.3701Y4.6457
X4.4016Y5.4921
X4.4094Y4.9134
X4.4213Y6.4724
X4.4291Y5.3189
X4.4291Y5.1693
X4.4606Y5.5709
X4.4685Y6.0787
X4.4724Y6.311
X4.5197Y6.5197
X4.5197Y5.0157
X4.6142Y4.8031
X4.6378Y4.752
X4.6457Y4.5827
X4.6496Y6.2205
X4.6575Y5.9528
X4.6654Y5.2205
X4.6969Y5.4488
X4.752Y4.7047
X4.7811Y5.6787
X4.7953Y4.4961
X4.8071Y5.3386
X4.8071Y4.8819
X4.815Y6.5079
X4.8425Y4.3228
X4.8474Y6.2904
X4.8504Y6.7559
X4.8504Y6.4528
X4.8583Y5.063
X4.8898Y4.6063
X4.9134Y6.6417
X4.9213Y5.2913
X4.9606Y5.748
X4.9685Y5.8898
X5.0197Y6.6457
X5.0236Y4.7126
X5.0709Y4.9213
X5.1024Y5.3031
X5.1142Y6.2165
X5.1181Y5.5906
X5.1535Y5.9409
X5.1575Y5.748
X5.1614Y5.0669
X5.1614Y5.626
X5.1654Y5.5591
X5.1772Y4.8819
X5.1969Y5.4252
X5.2258Y5.063
X5.252Y5.9449
X5.2598Y5.7402
X5.2598Y4.4724
X5.2677Y6.1102
X5.2717Y5.3819
X5.2756Y5.4803
X5.2835Y5.311
X5.315Y4.5079
X5.3228Y5.0472
X5.3268Y4.8583
X5.3346Y5.9252
X5.3386Y5.6457
X5.3622Y6.6575
X5.3976Y5.4961
X5.4213Y4.8465
X5.4291Y4.5787
X5.4409Y5.0276
X5.4449Y6.9567
X5.4488Y6.4882
X5.4528Y6.3346
X5.4606Y6.3858
X5.5512Y6.6693
X5.5827Y5.1142
X5.7047Y6.8031
T2
X2.9213Y6.6535
X2.9843Y6.6535
X3.1555Y4.3573
X3.1969Y6.3307
X3.3445Y4.3652
X3.622Y5.8425
X3.626Y5.7795
X3.6496Y6.5236
X3.6732Y6.5866
X3.7047Y4.2717
X3.7402Y6.5787
X3.7441Y6.6417
X3.7441Y4.7402
X3.8071Y4.7402
X3.811Y4.2126
X3.9409Y5.4488
X3.9528Y4.937
X4.0079Y5.4488
X4.0315Y4.937
X4.0551Y6.4291
X4.1417Y6.5079
X4.1535Y6.7126
X4.2362Y6.2598
X4.2362Y4.9449
X4.2835Y5.811
X4.3386Y5.8976
X4.3425Y6.3031
X4.4646Y5.8504
X4.5128Y4.2037
X4.5709Y4.2047
X4.5827Y5.9016
X4.6614Y6.6693
X4.7047Y6.2205
X4.7677Y6.2205
X4.7795Y5.4213
X4.7835Y4.6457
X4.8268Y6.6772
X4.8346Y5.8976
X4.8543Y5.0079
X4.8937Y5.5118
X4.9173Y5.0118
X5.0315Y4.5472
X5.0394Y4.6063
X5.1457Y6.1575
X5.189Y6.4567
X5.1929Y6.3858
X5.2047Y6.1575
X5.3583Y5.2402
X5.5787Y5.6693
X5.6969Y5.6693
X5.7087Y4.9961
X5.7126Y6.4016
X5.7205Y6.4646
T3
X5.4268Y5.3252
X5.4268Y5.1835
T4
X5.115Y4.2323
X5.215Y4.2323
X5.315Y4.2323
X5.6457Y5.3976
X5.6457Y5.2976
X5.6457Y5.1976
X5.6496Y4.7276
X5.6496Y4.6276
X5.6496Y4.5276
T5
X3.2283Y6.9504
X3.2283Y6.8504
X3.3283Y6.9504
X3.3283Y6.8504
X3.4283Y6.9504
X3.4283Y6.8504
X3.5283Y6.9504
X3.5283Y6.8504
X3.6283Y6.9504
X3.6283Y6.8504
X3.7283Y6.9504
X3.7283Y6.8504
X3.8283Y6.9504
X3.8283Y6.8504
X3.9283Y6.9504
X3.9283Y6.8504
X4.0283Y6.9504
X4.0283Y6.8504
X4.1283Y6.9504
X4.1283Y6.8504
X4.2283Y6.9504
X4.2283Y6.8504
X4.3283Y6.9504
X4.3283Y6.8504
X4.4283Y6.9504
X4.4283Y6.8504
X4.5283Y6.9504
X4.5283Y6.8504
X4.6283Y6.9504
X4.6283Y6.8504
X4.7283Y6.9504
X4.7283Y6.8504
X4.8283Y6.9504
X4.8283Y6.8504
X4.9283Y6.9504
X4.9283Y6.8504
X5.0283Y6.9504
X5.0283Y6.8504
X5.1283Y6.9504
X5.1283Y6.8504
X5.622Y5.9843
T0
M30
