G04 #@! TF.GenerationSoftware,KiCad,Pcbnew,(6.0.7-1)-1*
G04 #@! TF.CreationDate,2022-09-14T23:00:17-07:00*
G04 #@! TF.ProjectId,as3340,61733333-3430-42e6-9b69-6361645f7063,rev?*
G04 #@! TF.SameCoordinates,Original*
G04 #@! TF.FileFunction,Legend,Bot*
G04 #@! TF.FilePolarity,Positive*
%FSLAX46Y46*%
G04 Gerber Fmt 4.6, Leading zero omitted, Abs format (unit mm)*
G04 Created by KiCad (PCBNEW (6.0.7-1)-1) date 2022-09-14 23:00:17*
%MOMM*%
%LPD*%
G01*
G04 APERTURE LIST*
G04 #@! TA.AperFunction,Profile*
%ADD10C,0.050000*%
G04 #@! TD*
%ADD11C,0.150000*%
G04 #@! TA.AperFunction,Profile*
%ADD12C,0.150000*%
G04 #@! TD*
%ADD13C,0.090000*%
G04 APERTURE END LIST*
D10*
X75776000Y-104000000D02*
G75*
G03*
X75776000Y-104000000I-576000J0D01*
G01*
D11*
X94800000Y-55700000D02*
X94800000Y-48000000D01*
X72100000Y-55700000D02*
X94800000Y-55700000D01*
X72100000Y-47800000D02*
X72100000Y-55700000D01*
X94800000Y-47800000D02*
X72100000Y-47800000D01*
D12*
X147000000Y-31000000D02*
G75*
G03*
X141500000Y-25500000I-5500000J0D01*
G01*
X72000000Y-25500000D02*
G75*
G03*
X67000000Y-30500000I0J-5000000D01*
G01*
X72000000Y-25500000D02*
X141500000Y-25500000D01*
X142000000Y-105500000D02*
G75*
G03*
X147000000Y-100500000I0J5000000D01*
G01*
X67000000Y-100000000D02*
G75*
G03*
X72500000Y-105500000I5500000J0D01*
G01*
X142000000Y-105500000D02*
X72500000Y-105500000D01*
X67000000Y-30500000D02*
X67000000Y-100000000D01*
X147000000Y-100500000D02*
X147000000Y-31000000D01*
D10*
X138376000Y-27000000D02*
G75*
G03*
X138376000Y-27000000I-576000J0D01*
G01*
X75776000Y-27000000D02*
G75*
G03*
X75776000Y-27000000I-576000J0D01*
G01*
D13*
X94184357Y-48673428D02*
X93841500Y-48673428D01*
X94012928Y-49273428D02*
X94012928Y-48673428D01*
X93641500Y-48959142D02*
X93441500Y-48959142D01*
X93355785Y-49273428D02*
X93641500Y-49273428D01*
X93641500Y-48673428D01*
X93355785Y-48673428D01*
X93127214Y-49244857D02*
X93041500Y-49273428D01*
X92898642Y-49273428D01*
X92841500Y-49244857D01*
X92812928Y-49216285D01*
X92784357Y-49159142D01*
X92784357Y-49102000D01*
X92812928Y-49044857D01*
X92841500Y-49016285D01*
X92898642Y-48987714D01*
X93012928Y-48959142D01*
X93070071Y-48930571D01*
X93098642Y-48902000D01*
X93127214Y-48844857D01*
X93127214Y-48787714D01*
X93098642Y-48730571D01*
X93070071Y-48702000D01*
X93012928Y-48673428D01*
X92870071Y-48673428D01*
X92784357Y-48702000D01*
X92612928Y-48673428D02*
X92270071Y-48673428D01*
X92441500Y-49273428D02*
X92441500Y-48673428D01*
X91612928Y-49273428D02*
X91612928Y-48673428D01*
X91384357Y-48673428D01*
X91327214Y-48702000D01*
X91298642Y-48730571D01*
X91270071Y-48787714D01*
X91270071Y-48873428D01*
X91298642Y-48930571D01*
X91327214Y-48959142D01*
X91384357Y-48987714D01*
X91612928Y-48987714D01*
X90898642Y-48673428D02*
X90784357Y-48673428D01*
X90727214Y-48702000D01*
X90670071Y-48759142D01*
X90641500Y-48873428D01*
X90641500Y-49073428D01*
X90670071Y-49187714D01*
X90727214Y-49244857D01*
X90784357Y-49273428D01*
X90898642Y-49273428D01*
X90955785Y-49244857D01*
X91012928Y-49187714D01*
X91041500Y-49073428D01*
X91041500Y-48873428D01*
X91012928Y-48759142D01*
X90955785Y-48702000D01*
X90898642Y-48673428D01*
X90384357Y-49273428D02*
X90384357Y-48673428D01*
X90098642Y-49273428D02*
X90098642Y-48673428D01*
X89755785Y-49273428D01*
X89755785Y-48673428D01*
X89555785Y-48673428D02*
X89212928Y-48673428D01*
X89384357Y-49273428D02*
X89384357Y-48673428D01*
X89041500Y-49244857D02*
X88955785Y-49273428D01*
X88812928Y-49273428D01*
X88755785Y-49244857D01*
X88727214Y-49216285D01*
X88698642Y-49159142D01*
X88698642Y-49102000D01*
X88727214Y-49044857D01*
X88755785Y-49016285D01*
X88812928Y-48987714D01*
X88927214Y-48959142D01*
X88984357Y-48930571D01*
X89012928Y-48902000D01*
X89041500Y-48844857D01*
X89041500Y-48787714D01*
X89012928Y-48730571D01*
X88984357Y-48702000D01*
X88927214Y-48673428D01*
X88784357Y-48673428D01*
X88698642Y-48702000D01*
X94184357Y-49639428D02*
X93841500Y-49639428D01*
X94012928Y-50239428D02*
X94012928Y-49639428D01*
X93641500Y-50239428D02*
X93641500Y-49639428D01*
X93412928Y-49639428D01*
X93355785Y-49668000D01*
X93327214Y-49696571D01*
X93298642Y-49753714D01*
X93298642Y-49839428D01*
X93327214Y-49896571D01*
X93355785Y-49925142D01*
X93412928Y-49953714D01*
X93641500Y-49953714D01*
X92727214Y-50239428D02*
X93070071Y-50239428D01*
X92898642Y-50239428D02*
X92898642Y-49639428D01*
X92955785Y-49725142D01*
X93012928Y-49782285D01*
X93070071Y-49810857D01*
X92012928Y-50182285D02*
X91984357Y-50210857D01*
X92012928Y-50239428D01*
X92041500Y-50210857D01*
X92012928Y-50182285D01*
X92012928Y-50239428D01*
X92012928Y-49868000D02*
X91984357Y-49896571D01*
X92012928Y-49925142D01*
X92041500Y-49896571D01*
X92012928Y-49868000D01*
X92012928Y-49925142D01*
X91270071Y-50239428D02*
X91270071Y-49639428D01*
X91270071Y-49925142D02*
X90927214Y-49925142D01*
X90927214Y-50239428D02*
X90927214Y-49639428D01*
X90670071Y-50068000D02*
X90384357Y-50068000D01*
X90727214Y-50239428D02*
X90527214Y-49639428D01*
X90327214Y-50239428D01*
X89784357Y-50239428D02*
X89984357Y-49953714D01*
X90127214Y-50239428D02*
X90127214Y-49639428D01*
X89898642Y-49639428D01*
X89841500Y-49668000D01*
X89812928Y-49696571D01*
X89784357Y-49753714D01*
X89784357Y-49839428D01*
X89812928Y-49896571D01*
X89841500Y-49925142D01*
X89898642Y-49953714D01*
X90127214Y-49953714D01*
X89527214Y-50239428D02*
X89527214Y-49639428D01*
X89384357Y-49639428D01*
X89298642Y-49668000D01*
X89241500Y-49725142D01*
X89212928Y-49782285D01*
X89184357Y-49896571D01*
X89184357Y-49982285D01*
X89212928Y-50096571D01*
X89241500Y-50153714D01*
X89298642Y-50210857D01*
X89384357Y-50239428D01*
X89527214Y-50239428D01*
X88498642Y-50210857D02*
X88412928Y-50239428D01*
X88270071Y-50239428D01*
X88212928Y-50210857D01*
X88184357Y-50182285D01*
X88155785Y-50125142D01*
X88155785Y-50068000D01*
X88184357Y-50010857D01*
X88212928Y-49982285D01*
X88270071Y-49953714D01*
X88384357Y-49925142D01*
X88441500Y-49896571D01*
X88470071Y-49868000D01*
X88498642Y-49810857D01*
X88498642Y-49753714D01*
X88470071Y-49696571D01*
X88441500Y-49668000D01*
X88384357Y-49639428D01*
X88241500Y-49639428D01*
X88155785Y-49668000D01*
X87784357Y-49953714D02*
X87784357Y-50239428D01*
X87984357Y-49639428D02*
X87784357Y-49953714D01*
X87584357Y-49639428D01*
X87384357Y-50239428D02*
X87384357Y-49639428D01*
X87041500Y-50239428D01*
X87041500Y-49639428D01*
X86412928Y-50182285D02*
X86441500Y-50210857D01*
X86527214Y-50239428D01*
X86584357Y-50239428D01*
X86670071Y-50210857D01*
X86727214Y-50153714D01*
X86755785Y-50096571D01*
X86784357Y-49982285D01*
X86784357Y-49896571D01*
X86755785Y-49782285D01*
X86727214Y-49725142D01*
X86670071Y-49668000D01*
X86584357Y-49639428D01*
X86527214Y-49639428D01*
X86441500Y-49668000D01*
X86412928Y-49696571D01*
X85698642Y-50239428D02*
X85698642Y-49639428D01*
X85412928Y-50239428D02*
X85412928Y-49639428D01*
X85070071Y-50239428D01*
X85070071Y-49639428D01*
X84784357Y-50239428D02*
X84784357Y-49639428D01*
X84555785Y-49639428D01*
X84498642Y-49668000D01*
X84470071Y-49696571D01*
X84441500Y-49753714D01*
X84441500Y-49839428D01*
X84470071Y-49896571D01*
X84498642Y-49925142D01*
X84555785Y-49953714D01*
X84784357Y-49953714D01*
X84184357Y-49639428D02*
X84184357Y-50125142D01*
X84155785Y-50182285D01*
X84127214Y-50210857D01*
X84070071Y-50239428D01*
X83955785Y-50239428D01*
X83898642Y-50210857D01*
X83870071Y-50182285D01*
X83841500Y-50125142D01*
X83841500Y-49639428D01*
X83641500Y-49639428D02*
X83298642Y-49639428D01*
X83470071Y-50239428D02*
X83470071Y-49639428D01*
X94184357Y-50605428D02*
X93841500Y-50605428D01*
X94012928Y-51205428D02*
X94012928Y-50605428D01*
X93641500Y-51205428D02*
X93641500Y-50605428D01*
X93412928Y-50605428D01*
X93355785Y-50634000D01*
X93327214Y-50662571D01*
X93298642Y-50719714D01*
X93298642Y-50805428D01*
X93327214Y-50862571D01*
X93355785Y-50891142D01*
X93412928Y-50919714D01*
X93641500Y-50919714D01*
X93070071Y-50662571D02*
X93041500Y-50634000D01*
X92984357Y-50605428D01*
X92841500Y-50605428D01*
X92784357Y-50634000D01*
X92755785Y-50662571D01*
X92727214Y-50719714D01*
X92727214Y-50776857D01*
X92755785Y-50862571D01*
X93098642Y-51205428D01*
X92727214Y-51205428D01*
X92012928Y-51148285D02*
X91984357Y-51176857D01*
X92012928Y-51205428D01*
X92041500Y-51176857D01*
X92012928Y-51148285D01*
X92012928Y-51205428D01*
X92012928Y-50834000D02*
X91984357Y-50862571D01*
X92012928Y-50891142D01*
X92041500Y-50862571D01*
X92012928Y-50834000D01*
X92012928Y-50891142D01*
X91298642Y-51176857D02*
X91212928Y-51205428D01*
X91070071Y-51205428D01*
X91012928Y-51176857D01*
X90984357Y-51148285D01*
X90955785Y-51091142D01*
X90955785Y-51034000D01*
X90984357Y-50976857D01*
X91012928Y-50948285D01*
X91070071Y-50919714D01*
X91184357Y-50891142D01*
X91241500Y-50862571D01*
X91270071Y-50834000D01*
X91298642Y-50776857D01*
X91298642Y-50719714D01*
X91270071Y-50662571D01*
X91241500Y-50634000D01*
X91184357Y-50605428D01*
X91041500Y-50605428D01*
X90955785Y-50634000D01*
X90727214Y-51034000D02*
X90441500Y-51034000D01*
X90784357Y-51205428D02*
X90584357Y-50605428D01*
X90384357Y-51205428D01*
X90241500Y-50605428D02*
X90098642Y-51205428D01*
X89984357Y-50776857D01*
X89870071Y-51205428D01*
X89727214Y-50605428D01*
X88841500Y-50891142D02*
X89041500Y-50891142D01*
X89041500Y-51205428D02*
X89041500Y-50605428D01*
X88755785Y-50605428D01*
X88184357Y-51205428D02*
X88384357Y-50919714D01*
X88527214Y-51205428D02*
X88527214Y-50605428D01*
X88298642Y-50605428D01*
X88241500Y-50634000D01*
X88212928Y-50662571D01*
X88184357Y-50719714D01*
X88184357Y-50805428D01*
X88212928Y-50862571D01*
X88241500Y-50891142D01*
X88298642Y-50919714D01*
X88527214Y-50919714D01*
X87812928Y-50605428D02*
X87698642Y-50605428D01*
X87641500Y-50634000D01*
X87584357Y-50691142D01*
X87555785Y-50805428D01*
X87555785Y-51005428D01*
X87584357Y-51119714D01*
X87641500Y-51176857D01*
X87698642Y-51205428D01*
X87812928Y-51205428D01*
X87870071Y-51176857D01*
X87927214Y-51119714D01*
X87955785Y-51005428D01*
X87955785Y-50805428D01*
X87927214Y-50691142D01*
X87870071Y-50634000D01*
X87812928Y-50605428D01*
X87298642Y-51205428D02*
X87298642Y-50605428D01*
X87098642Y-51034000D01*
X86898642Y-50605428D01*
X86898642Y-51205428D01*
X86212928Y-50605428D02*
X85841500Y-50605428D01*
X86041500Y-50834000D01*
X85955785Y-50834000D01*
X85898642Y-50862571D01*
X85870071Y-50891142D01*
X85841500Y-50948285D01*
X85841500Y-51091142D01*
X85870071Y-51148285D01*
X85898642Y-51176857D01*
X85955785Y-51205428D01*
X86127214Y-51205428D01*
X86184357Y-51176857D01*
X86212928Y-51148285D01*
X85641500Y-50605428D02*
X85270071Y-50605428D01*
X85470071Y-50834000D01*
X85384357Y-50834000D01*
X85327214Y-50862571D01*
X85298642Y-50891142D01*
X85270071Y-50948285D01*
X85270071Y-51091142D01*
X85298642Y-51148285D01*
X85327214Y-51176857D01*
X85384357Y-51205428D01*
X85555785Y-51205428D01*
X85612928Y-51176857D01*
X85641500Y-51148285D01*
X84755785Y-50805428D02*
X84755785Y-51205428D01*
X84898642Y-50576857D02*
X85041500Y-51005428D01*
X84670071Y-51005428D01*
X84327214Y-50605428D02*
X84270071Y-50605428D01*
X84212928Y-50634000D01*
X84184357Y-50662571D01*
X84155785Y-50719714D01*
X84127214Y-50834000D01*
X84127214Y-50976857D01*
X84155785Y-51091142D01*
X84184357Y-51148285D01*
X84212928Y-51176857D01*
X84270071Y-51205428D01*
X84327214Y-51205428D01*
X84384357Y-51176857D01*
X84412928Y-51148285D01*
X84441500Y-51091142D01*
X84470071Y-50976857D01*
X84470071Y-50834000D01*
X84441500Y-50719714D01*
X84412928Y-50662571D01*
X84384357Y-50634000D01*
X84327214Y-50605428D01*
X94184357Y-51571428D02*
X93841500Y-51571428D01*
X94012928Y-52171428D02*
X94012928Y-51571428D01*
X93641500Y-52171428D02*
X93641500Y-51571428D01*
X93412928Y-51571428D01*
X93355785Y-51600000D01*
X93327214Y-51628571D01*
X93298642Y-51685714D01*
X93298642Y-51771428D01*
X93327214Y-51828571D01*
X93355785Y-51857142D01*
X93412928Y-51885714D01*
X93641500Y-51885714D01*
X93098642Y-51571428D02*
X92727214Y-51571428D01*
X92927214Y-51800000D01*
X92841500Y-51800000D01*
X92784357Y-51828571D01*
X92755785Y-51857142D01*
X92727214Y-51914285D01*
X92727214Y-52057142D01*
X92755785Y-52114285D01*
X92784357Y-52142857D01*
X92841500Y-52171428D01*
X93012928Y-52171428D01*
X93070071Y-52142857D01*
X93098642Y-52114285D01*
X92012928Y-52114285D02*
X91984357Y-52142857D01*
X92012928Y-52171428D01*
X92041500Y-52142857D01*
X92012928Y-52114285D01*
X92012928Y-52171428D01*
X92012928Y-51800000D02*
X91984357Y-51828571D01*
X92012928Y-51857142D01*
X92041500Y-51828571D01*
X92012928Y-51800000D01*
X92012928Y-51857142D01*
X91270071Y-52171428D02*
X91270071Y-51571428D01*
X91127214Y-51571428D01*
X91041500Y-51600000D01*
X90984357Y-51657142D01*
X90955785Y-51714285D01*
X90927214Y-51828571D01*
X90927214Y-51914285D01*
X90955785Y-52028571D01*
X90984357Y-52085714D01*
X91041500Y-52142857D01*
X91127214Y-52171428D01*
X91270071Y-52171428D01*
X90698642Y-52000000D02*
X90412928Y-52000000D01*
X90755785Y-52171428D02*
X90555785Y-51571428D01*
X90355785Y-52171428D01*
X89812928Y-52114285D02*
X89841500Y-52142857D01*
X89927214Y-52171428D01*
X89984357Y-52171428D01*
X90070071Y-52142857D01*
X90127214Y-52085714D01*
X90155785Y-52028571D01*
X90184357Y-51914285D01*
X90184357Y-51828571D01*
X90155785Y-51714285D01*
X90127214Y-51657142D01*
X90070071Y-51600000D01*
X89984357Y-51571428D01*
X89927214Y-51571428D01*
X89841500Y-51600000D01*
X89812928Y-51628571D01*
X89184357Y-51571428D02*
X88841500Y-51571428D01*
X89012928Y-52171428D02*
X89012928Y-51571428D01*
X88641500Y-51857142D02*
X88441500Y-51857142D01*
X88355785Y-52171428D02*
X88641500Y-52171428D01*
X88641500Y-51571428D01*
X88355785Y-51571428D01*
X88127214Y-52142857D02*
X88041500Y-52171428D01*
X87898642Y-52171428D01*
X87841500Y-52142857D01*
X87812928Y-52114285D01*
X87784357Y-52057142D01*
X87784357Y-52000000D01*
X87812928Y-51942857D01*
X87841500Y-51914285D01*
X87898642Y-51885714D01*
X88012928Y-51857142D01*
X88070071Y-51828571D01*
X88098642Y-51800000D01*
X88127214Y-51742857D01*
X88127214Y-51685714D01*
X88098642Y-51628571D01*
X88070071Y-51600000D01*
X88012928Y-51571428D01*
X87870071Y-51571428D01*
X87784357Y-51600000D01*
X87612928Y-51571428D02*
X87270071Y-51571428D01*
X87441500Y-52171428D02*
X87441500Y-51571428D01*
X94184357Y-52537428D02*
X93841500Y-52537428D01*
X94012928Y-53137428D02*
X94012928Y-52537428D01*
X93641500Y-53137428D02*
X93641500Y-52537428D01*
X93412928Y-52537428D01*
X93355785Y-52566000D01*
X93327214Y-52594571D01*
X93298642Y-52651714D01*
X93298642Y-52737428D01*
X93327214Y-52794571D01*
X93355785Y-52823142D01*
X93412928Y-52851714D01*
X93641500Y-52851714D01*
X92784357Y-52737428D02*
X92784357Y-53137428D01*
X92927214Y-52508857D02*
X93070071Y-52937428D01*
X92698642Y-52937428D01*
X92012928Y-53080285D02*
X91984357Y-53108857D01*
X92012928Y-53137428D01*
X92041500Y-53108857D01*
X92012928Y-53080285D01*
X92012928Y-53137428D01*
X92012928Y-52766000D02*
X91984357Y-52794571D01*
X92012928Y-52823142D01*
X92041500Y-52794571D01*
X92012928Y-52766000D01*
X92012928Y-52823142D01*
X91270071Y-52823142D02*
X91070071Y-52823142D01*
X90984357Y-53137428D02*
X91270071Y-53137428D01*
X91270071Y-52537428D01*
X90984357Y-52537428D01*
X90784357Y-52537428D02*
X90384357Y-53137428D01*
X90384357Y-52537428D02*
X90784357Y-53137428D01*
X90241500Y-52537428D02*
X89898642Y-52537428D01*
X90070071Y-53137428D02*
X90070071Y-52537428D01*
X89698642Y-52823142D02*
X89498642Y-52823142D01*
X89412928Y-53137428D02*
X89698642Y-53137428D01*
X89698642Y-52537428D01*
X89412928Y-52537428D01*
X88812928Y-53137428D02*
X89012928Y-52851714D01*
X89155785Y-53137428D02*
X89155785Y-52537428D01*
X88927214Y-52537428D01*
X88870071Y-52566000D01*
X88841500Y-52594571D01*
X88812928Y-52651714D01*
X88812928Y-52737428D01*
X88841500Y-52794571D01*
X88870071Y-52823142D01*
X88927214Y-52851714D01*
X89155785Y-52851714D01*
X88555785Y-53137428D02*
X88555785Y-52537428D01*
X88212928Y-53137428D01*
X88212928Y-52537428D01*
X87955785Y-52966000D02*
X87670071Y-52966000D01*
X88012928Y-53137428D02*
X87812928Y-52537428D01*
X87612928Y-53137428D01*
X87127214Y-53137428D02*
X87412928Y-53137428D01*
X87412928Y-52537428D01*
X86470071Y-53137428D02*
X86470071Y-52537428D01*
X86270071Y-52966000D01*
X86070071Y-52537428D01*
X86070071Y-53137428D01*
X85670071Y-52537428D02*
X85555785Y-52537428D01*
X85498642Y-52566000D01*
X85441500Y-52623142D01*
X85412928Y-52737428D01*
X85412928Y-52937428D01*
X85441500Y-53051714D01*
X85498642Y-53108857D01*
X85555785Y-53137428D01*
X85670071Y-53137428D01*
X85727214Y-53108857D01*
X85784357Y-53051714D01*
X85812928Y-52937428D01*
X85812928Y-52737428D01*
X85784357Y-52623142D01*
X85727214Y-52566000D01*
X85670071Y-52537428D01*
X85155785Y-53137428D02*
X85155785Y-52537428D01*
X85012928Y-52537428D01*
X84927214Y-52566000D01*
X84870071Y-52623142D01*
X84841500Y-52680285D01*
X84812928Y-52794571D01*
X84812928Y-52880285D01*
X84841500Y-52994571D01*
X84870071Y-53051714D01*
X84927214Y-53108857D01*
X85012928Y-53137428D01*
X85155785Y-53137428D01*
X84098642Y-53137428D02*
X84098642Y-52537428D01*
X83870071Y-52537428D01*
X83812928Y-52566000D01*
X83784357Y-52594571D01*
X83755785Y-52651714D01*
X83755785Y-52737428D01*
X83784357Y-52794571D01*
X83812928Y-52823142D01*
X83870071Y-52851714D01*
X84098642Y-52851714D01*
X83384357Y-52537428D02*
X83270071Y-52537428D01*
X83212928Y-52566000D01*
X83155785Y-52623142D01*
X83127214Y-52737428D01*
X83127214Y-52937428D01*
X83155785Y-53051714D01*
X83212928Y-53108857D01*
X83270071Y-53137428D01*
X83384357Y-53137428D01*
X83441500Y-53108857D01*
X83498642Y-53051714D01*
X83527214Y-52937428D01*
X83527214Y-52737428D01*
X83498642Y-52623142D01*
X83441500Y-52566000D01*
X83384357Y-52537428D01*
X82898642Y-53108857D02*
X82812928Y-53137428D01*
X82670071Y-53137428D01*
X82612928Y-53108857D01*
X82584357Y-53080285D01*
X82555785Y-53023142D01*
X82555785Y-52966000D01*
X82584357Y-52908857D01*
X82612928Y-52880285D01*
X82670071Y-52851714D01*
X82784357Y-52823142D01*
X82841500Y-52794571D01*
X82870071Y-52766000D01*
X82898642Y-52708857D01*
X82898642Y-52651714D01*
X82870071Y-52594571D01*
X82841500Y-52566000D01*
X82784357Y-52537428D01*
X82641500Y-52537428D01*
X82555785Y-52566000D01*
X82384357Y-52537428D02*
X82041500Y-52537428D01*
X82212928Y-53137428D02*
X82212928Y-52537428D01*
X81841500Y-52908857D02*
X81384357Y-52908857D01*
X81184357Y-52537428D02*
X80984357Y-53137428D01*
X80784357Y-52537428D01*
X80241500Y-53080285D02*
X80270071Y-53108857D01*
X80355785Y-53137428D01*
X80412928Y-53137428D01*
X80498642Y-53108857D01*
X80555785Y-53051714D01*
X80584357Y-52994571D01*
X80612928Y-52880285D01*
X80612928Y-52794571D01*
X80584357Y-52680285D01*
X80555785Y-52623142D01*
X80498642Y-52566000D01*
X80412928Y-52537428D01*
X80355785Y-52537428D01*
X80270071Y-52566000D01*
X80241500Y-52594571D01*
X80012928Y-52966000D02*
X79727214Y-52966000D01*
X80070071Y-53137428D02*
X79870071Y-52537428D01*
X79670071Y-53137428D01*
X94184357Y-53503428D02*
X93841500Y-53503428D01*
X94012928Y-54103428D02*
X94012928Y-53503428D01*
X93641500Y-54103428D02*
X93641500Y-53503428D01*
X93412928Y-53503428D01*
X93355785Y-53532000D01*
X93327214Y-53560571D01*
X93298642Y-53617714D01*
X93298642Y-53703428D01*
X93327214Y-53760571D01*
X93355785Y-53789142D01*
X93412928Y-53817714D01*
X93641500Y-53817714D01*
X92755785Y-53503428D02*
X93041500Y-53503428D01*
X93070071Y-53789142D01*
X93041500Y-53760571D01*
X92984357Y-53732000D01*
X92841500Y-53732000D01*
X92784357Y-53760571D01*
X92755785Y-53789142D01*
X92727214Y-53846285D01*
X92727214Y-53989142D01*
X92755785Y-54046285D01*
X92784357Y-54074857D01*
X92841500Y-54103428D01*
X92984357Y-54103428D01*
X93041500Y-54074857D01*
X93070071Y-54046285D01*
X92012928Y-54046285D02*
X91984357Y-54074857D01*
X92012928Y-54103428D01*
X92041500Y-54074857D01*
X92012928Y-54046285D01*
X92012928Y-54103428D01*
X92012928Y-53732000D02*
X91984357Y-53760571D01*
X92012928Y-53789142D01*
X92041500Y-53760571D01*
X92012928Y-53732000D01*
X92012928Y-53789142D01*
X91270071Y-53789142D02*
X91070071Y-53789142D01*
X90984357Y-54103428D02*
X91270071Y-54103428D01*
X91270071Y-53503428D01*
X90984357Y-53503428D01*
X90784357Y-53503428D02*
X90384357Y-54103428D01*
X90384357Y-53503428D02*
X90784357Y-54103428D01*
X90241500Y-53503428D02*
X89898642Y-53503428D01*
X90070071Y-54103428D02*
X90070071Y-53503428D01*
X89698642Y-53789142D02*
X89498642Y-53789142D01*
X89412928Y-54103428D02*
X89698642Y-54103428D01*
X89698642Y-53503428D01*
X89412928Y-53503428D01*
X88812928Y-54103428D02*
X89012928Y-53817714D01*
X89155785Y-54103428D02*
X89155785Y-53503428D01*
X88927214Y-53503428D01*
X88870071Y-53532000D01*
X88841500Y-53560571D01*
X88812928Y-53617714D01*
X88812928Y-53703428D01*
X88841500Y-53760571D01*
X88870071Y-53789142D01*
X88927214Y-53817714D01*
X89155785Y-53817714D01*
X88555785Y-54103428D02*
X88555785Y-53503428D01*
X88212928Y-54103428D01*
X88212928Y-53503428D01*
X87955785Y-53932000D02*
X87670071Y-53932000D01*
X88012928Y-54103428D02*
X87812928Y-53503428D01*
X87612928Y-54103428D01*
X87127214Y-54103428D02*
X87412928Y-54103428D01*
X87412928Y-53503428D01*
X86470071Y-54103428D02*
X86470071Y-53503428D01*
X86270071Y-53932000D01*
X86070071Y-53503428D01*
X86070071Y-54103428D01*
X85670071Y-53503428D02*
X85555785Y-53503428D01*
X85498642Y-53532000D01*
X85441500Y-53589142D01*
X85412928Y-53703428D01*
X85412928Y-53903428D01*
X85441500Y-54017714D01*
X85498642Y-54074857D01*
X85555785Y-54103428D01*
X85670071Y-54103428D01*
X85727214Y-54074857D01*
X85784357Y-54017714D01*
X85812928Y-53903428D01*
X85812928Y-53703428D01*
X85784357Y-53589142D01*
X85727214Y-53532000D01*
X85670071Y-53503428D01*
X85155785Y-54103428D02*
X85155785Y-53503428D01*
X85012928Y-53503428D01*
X84927214Y-53532000D01*
X84870071Y-53589142D01*
X84841500Y-53646285D01*
X84812928Y-53760571D01*
X84812928Y-53846285D01*
X84841500Y-53960571D01*
X84870071Y-54017714D01*
X84927214Y-54074857D01*
X85012928Y-54103428D01*
X85155785Y-54103428D01*
X84184357Y-53503428D02*
X83841500Y-53503428D01*
X84012928Y-54103428D02*
X84012928Y-53503428D01*
X83527214Y-53503428D02*
X83412928Y-53503428D01*
X83355785Y-53532000D01*
X83298642Y-53589142D01*
X83270071Y-53703428D01*
X83270071Y-53903428D01*
X83298642Y-54017714D01*
X83355785Y-54074857D01*
X83412928Y-54103428D01*
X83527214Y-54103428D01*
X83584357Y-54074857D01*
X83641500Y-54017714D01*
X83670071Y-53903428D01*
X83670071Y-53703428D01*
X83641500Y-53589142D01*
X83584357Y-53532000D01*
X83527214Y-53503428D01*
X82584357Y-54074857D02*
X82498642Y-54103428D01*
X82355785Y-54103428D01*
X82298642Y-54074857D01*
X82270071Y-54046285D01*
X82241500Y-53989142D01*
X82241500Y-53932000D01*
X82270071Y-53874857D01*
X82298642Y-53846285D01*
X82355785Y-53817714D01*
X82470071Y-53789142D01*
X82527214Y-53760571D01*
X82555785Y-53732000D01*
X82584357Y-53674857D01*
X82584357Y-53617714D01*
X82555785Y-53560571D01*
X82527214Y-53532000D01*
X82470071Y-53503428D01*
X82327214Y-53503428D01*
X82241500Y-53532000D01*
X81870071Y-53817714D02*
X81870071Y-54103428D01*
X82070071Y-53503428D02*
X81870071Y-53817714D01*
X81670071Y-53503428D01*
X81470071Y-54103428D02*
X81470071Y-53503428D01*
X81127214Y-54103428D01*
X81127214Y-53503428D01*
X80498642Y-54046285D02*
X80527214Y-54074857D01*
X80612928Y-54103428D01*
X80670071Y-54103428D01*
X80755785Y-54074857D01*
X80812928Y-54017714D01*
X80841500Y-53960571D01*
X80870071Y-53846285D01*
X80870071Y-53760571D01*
X80841500Y-53646285D01*
X80812928Y-53589142D01*
X80755785Y-53532000D01*
X80670071Y-53503428D01*
X80612928Y-53503428D01*
X80527214Y-53532000D01*
X80498642Y-53560571D01*
X79441500Y-54046285D02*
X79470071Y-54074857D01*
X79555785Y-54103428D01*
X79612928Y-54103428D01*
X79698642Y-54074857D01*
X79755785Y-54017714D01*
X79784357Y-53960571D01*
X79812928Y-53846285D01*
X79812928Y-53760571D01*
X79784357Y-53646285D01*
X79755785Y-53589142D01*
X79698642Y-53532000D01*
X79612928Y-53503428D01*
X79555785Y-53503428D01*
X79470071Y-53532000D01*
X79441500Y-53560571D01*
X79070071Y-53503428D02*
X78955785Y-53503428D01*
X78898642Y-53532000D01*
X78841500Y-53589142D01*
X78812928Y-53703428D01*
X78812928Y-53903428D01*
X78841500Y-54017714D01*
X78898642Y-54074857D01*
X78955785Y-54103428D01*
X79070071Y-54103428D01*
X79127214Y-54074857D01*
X79184357Y-54017714D01*
X79212928Y-53903428D01*
X79212928Y-53703428D01*
X79184357Y-53589142D01*
X79127214Y-53532000D01*
X79070071Y-53503428D01*
X78555785Y-54103428D02*
X78555785Y-53503428D01*
X78355785Y-53932000D01*
X78155785Y-53503428D01*
X78155785Y-54103428D01*
X77870071Y-54103428D02*
X77870071Y-53503428D01*
X77641500Y-53503428D01*
X77584357Y-53532000D01*
X77555785Y-53560571D01*
X77527214Y-53617714D01*
X77527214Y-53703428D01*
X77555785Y-53760571D01*
X77584357Y-53789142D01*
X77641500Y-53817714D01*
X77870071Y-53817714D01*
X77298642Y-53932000D02*
X77012928Y-53932000D01*
X77355785Y-54103428D02*
X77155785Y-53503428D01*
X76955785Y-54103428D01*
X76412928Y-54103428D02*
X76612928Y-53817714D01*
X76755785Y-54103428D02*
X76755785Y-53503428D01*
X76527214Y-53503428D01*
X76470071Y-53532000D01*
X76441500Y-53560571D01*
X76412928Y-53617714D01*
X76412928Y-53703428D01*
X76441500Y-53760571D01*
X76470071Y-53789142D01*
X76527214Y-53817714D01*
X76755785Y-53817714D01*
X76184357Y-53932000D02*
X75898642Y-53932000D01*
X76241500Y-54103428D02*
X76041500Y-53503428D01*
X75841500Y-54103428D01*
X75727214Y-53503428D02*
X75384357Y-53503428D01*
X75555785Y-54103428D02*
X75555785Y-53503428D01*
X75070071Y-53503428D02*
X74955785Y-53503428D01*
X74898642Y-53532000D01*
X74841500Y-53589142D01*
X74812928Y-53703428D01*
X74812928Y-53903428D01*
X74841500Y-54017714D01*
X74898642Y-54074857D01*
X74955785Y-54103428D01*
X75070071Y-54103428D01*
X75127214Y-54074857D01*
X75184357Y-54017714D01*
X75212928Y-53903428D01*
X75212928Y-53703428D01*
X75184357Y-53589142D01*
X75127214Y-53532000D01*
X75070071Y-53503428D01*
X74212928Y-54103428D02*
X74412928Y-53817714D01*
X74555785Y-54103428D02*
X74555785Y-53503428D01*
X74327214Y-53503428D01*
X74270071Y-53532000D01*
X74241500Y-53560571D01*
X74212928Y-53617714D01*
X74212928Y-53703428D01*
X74241500Y-53760571D01*
X74270071Y-53789142D01*
X74327214Y-53817714D01*
X74555785Y-53817714D01*
X94184357Y-54469428D02*
X93841500Y-54469428D01*
X94012928Y-55069428D02*
X94012928Y-54469428D01*
X93641500Y-55069428D02*
X93641500Y-54469428D01*
X93412928Y-54469428D01*
X93355785Y-54498000D01*
X93327214Y-54526571D01*
X93298642Y-54583714D01*
X93298642Y-54669428D01*
X93327214Y-54726571D01*
X93355785Y-54755142D01*
X93412928Y-54783714D01*
X93641500Y-54783714D01*
X92784357Y-54469428D02*
X92898642Y-54469428D01*
X92955785Y-54498000D01*
X92984357Y-54526571D01*
X93041500Y-54612285D01*
X93070071Y-54726571D01*
X93070071Y-54955142D01*
X93041500Y-55012285D01*
X93012928Y-55040857D01*
X92955785Y-55069428D01*
X92841500Y-55069428D01*
X92784357Y-55040857D01*
X92755785Y-55012285D01*
X92727214Y-54955142D01*
X92727214Y-54812285D01*
X92755785Y-54755142D01*
X92784357Y-54726571D01*
X92841500Y-54698000D01*
X92955785Y-54698000D01*
X93012928Y-54726571D01*
X93041500Y-54755142D01*
X93070071Y-54812285D01*
X92012928Y-55012285D02*
X91984357Y-55040857D01*
X92012928Y-55069428D01*
X92041500Y-55040857D01*
X92012928Y-55012285D01*
X92012928Y-55069428D01*
X92012928Y-54698000D02*
X91984357Y-54726571D01*
X92012928Y-54755142D01*
X92041500Y-54726571D01*
X92012928Y-54698000D01*
X92012928Y-54755142D01*
X91270071Y-55069428D02*
X91270071Y-54469428D01*
X91270071Y-54755142D02*
X90927214Y-54755142D01*
X90927214Y-55069428D02*
X90927214Y-54469428D01*
X90641500Y-55069428D02*
X90641500Y-54469428D01*
X90041500Y-54498000D02*
X90098642Y-54469428D01*
X90184357Y-54469428D01*
X90270071Y-54498000D01*
X90327214Y-54555142D01*
X90355785Y-54612285D01*
X90384357Y-54726571D01*
X90384357Y-54812285D01*
X90355785Y-54926571D01*
X90327214Y-54983714D01*
X90270071Y-55040857D01*
X90184357Y-55069428D01*
X90127214Y-55069428D01*
X90041500Y-55040857D01*
X90012928Y-55012285D01*
X90012928Y-54812285D01*
X90127214Y-54812285D01*
X89755785Y-55069428D02*
X89755785Y-54469428D01*
X89755785Y-54755142D02*
X89412928Y-54755142D01*
X89412928Y-55069428D02*
X89412928Y-54469428D01*
X88470071Y-54755142D02*
X88670071Y-54755142D01*
X88670071Y-55069428D02*
X88670071Y-54469428D01*
X88384357Y-54469428D01*
X87812928Y-55069428D02*
X88012928Y-54783714D01*
X88155785Y-55069428D02*
X88155785Y-54469428D01*
X87927214Y-54469428D01*
X87870071Y-54498000D01*
X87841500Y-54526571D01*
X87812928Y-54583714D01*
X87812928Y-54669428D01*
X87841500Y-54726571D01*
X87870071Y-54755142D01*
X87927214Y-54783714D01*
X88155785Y-54783714D01*
X87555785Y-54755142D02*
X87355785Y-54755142D01*
X87270071Y-55069428D02*
X87555785Y-55069428D01*
X87555785Y-54469428D01*
X87270071Y-54469428D01*
X86612928Y-55126571D02*
X86670071Y-55098000D01*
X86727214Y-55040857D01*
X86812928Y-54955142D01*
X86870071Y-54926571D01*
X86927214Y-54926571D01*
X86898642Y-55069428D02*
X86955785Y-55040857D01*
X87012928Y-54983714D01*
X87041500Y-54869428D01*
X87041500Y-54669428D01*
X87012928Y-54555142D01*
X86955785Y-54498000D01*
X86898642Y-54469428D01*
X86784357Y-54469428D01*
X86727214Y-54498000D01*
X86670071Y-54555142D01*
X86641500Y-54669428D01*
X86641500Y-54869428D01*
X86670071Y-54983714D01*
X86727214Y-55040857D01*
X86784357Y-55069428D01*
X86898642Y-55069428D01*
X86012928Y-54469428D02*
X85670071Y-54469428D01*
X85841500Y-55069428D02*
X85841500Y-54469428D01*
X85127214Y-55069428D02*
X85327214Y-54783714D01*
X85470071Y-55069428D02*
X85470071Y-54469428D01*
X85241500Y-54469428D01*
X85184357Y-54498000D01*
X85155785Y-54526571D01*
X85127214Y-54583714D01*
X85127214Y-54669428D01*
X85155785Y-54726571D01*
X85184357Y-54755142D01*
X85241500Y-54783714D01*
X85470071Y-54783714D01*
X84898642Y-54898000D02*
X84612928Y-54898000D01*
X84955785Y-55069428D02*
X84755785Y-54469428D01*
X84555785Y-55069428D01*
X84012928Y-55012285D02*
X84041500Y-55040857D01*
X84127214Y-55069428D01*
X84184357Y-55069428D01*
X84270071Y-55040857D01*
X84327214Y-54983714D01*
X84355785Y-54926571D01*
X84384357Y-54812285D01*
X84384357Y-54726571D01*
X84355785Y-54612285D01*
X84327214Y-54555142D01*
X84270071Y-54498000D01*
X84184357Y-54469428D01*
X84127214Y-54469428D01*
X84041500Y-54498000D01*
X84012928Y-54526571D01*
X83755785Y-55069428D02*
X83755785Y-54469428D01*
X83412928Y-55069428D02*
X83670071Y-54726571D01*
X83412928Y-54469428D02*
X83755785Y-54812285D01*
X82784357Y-54469428D02*
X82441500Y-54469428D01*
X82612928Y-55069428D02*
X82612928Y-54469428D01*
X82127214Y-54469428D02*
X82012928Y-54469428D01*
X81955785Y-54498000D01*
X81898642Y-54555142D01*
X81870071Y-54669428D01*
X81870071Y-54869428D01*
X81898642Y-54983714D01*
X81955785Y-55040857D01*
X82012928Y-55069428D01*
X82127214Y-55069428D01*
X82184357Y-55040857D01*
X82241500Y-54983714D01*
X82270071Y-54869428D01*
X82270071Y-54669428D01*
X82241500Y-54555142D01*
X82184357Y-54498000D01*
X82127214Y-54469428D01*
X81184357Y-55040857D02*
X81098642Y-55069428D01*
X80955785Y-55069428D01*
X80898642Y-55040857D01*
X80870071Y-55012285D01*
X80841500Y-54955142D01*
X80841500Y-54898000D01*
X80870071Y-54840857D01*
X80898642Y-54812285D01*
X80955785Y-54783714D01*
X81070071Y-54755142D01*
X81127214Y-54726571D01*
X81155785Y-54698000D01*
X81184357Y-54640857D01*
X81184357Y-54583714D01*
X81155785Y-54526571D01*
X81127214Y-54498000D01*
X81070071Y-54469428D01*
X80927214Y-54469428D01*
X80841500Y-54498000D01*
X80584357Y-54469428D02*
X80584357Y-54955142D01*
X80555785Y-55012285D01*
X80527214Y-55040857D01*
X80470071Y-55069428D01*
X80355785Y-55069428D01*
X80298642Y-55040857D01*
X80270071Y-55012285D01*
X80241500Y-54955142D01*
X80241500Y-54469428D01*
X79955785Y-55069428D02*
X79955785Y-54469428D01*
X79755785Y-54898000D01*
X79555785Y-54469428D01*
X79555785Y-55069428D01*
X79270071Y-55069428D02*
X79270071Y-54469428D01*
X79070071Y-54898000D01*
X78870071Y-54469428D01*
X78870071Y-55069428D01*
X78584357Y-55069428D02*
X78584357Y-54469428D01*
X78298642Y-55069428D02*
X78298642Y-54469428D01*
X77955785Y-55069428D01*
X77955785Y-54469428D01*
X77355785Y-54498000D02*
X77412928Y-54469428D01*
X77498642Y-54469428D01*
X77584357Y-54498000D01*
X77641500Y-54555142D01*
X77670071Y-54612285D01*
X77698642Y-54726571D01*
X77698642Y-54812285D01*
X77670071Y-54926571D01*
X77641500Y-54983714D01*
X77584357Y-55040857D01*
X77498642Y-55069428D01*
X77441500Y-55069428D01*
X77355785Y-55040857D01*
X77327214Y-55012285D01*
X77327214Y-54812285D01*
X77441500Y-54812285D01*
X76612928Y-55069428D02*
X76612928Y-54469428D01*
X76270071Y-55069428D01*
X76270071Y-54469428D01*
X75870071Y-54469428D02*
X75755785Y-54469428D01*
X75698642Y-54498000D01*
X75641500Y-54555142D01*
X75612928Y-54669428D01*
X75612928Y-54869428D01*
X75641500Y-54983714D01*
X75698642Y-55040857D01*
X75755785Y-55069428D01*
X75870071Y-55069428D01*
X75927214Y-55040857D01*
X75984357Y-54983714D01*
X76012928Y-54869428D01*
X76012928Y-54669428D01*
X75984357Y-54555142D01*
X75927214Y-54498000D01*
X75870071Y-54469428D01*
X75355785Y-55069428D02*
X75355785Y-54469428D01*
X75212928Y-54469428D01*
X75127214Y-54498000D01*
X75070071Y-54555142D01*
X75041500Y-54612285D01*
X75012928Y-54726571D01*
X75012928Y-54812285D01*
X75041500Y-54926571D01*
X75070071Y-54983714D01*
X75127214Y-55040857D01*
X75212928Y-55069428D01*
X75355785Y-55069428D01*
X74755785Y-54755142D02*
X74555785Y-54755142D01*
X74470071Y-55069428D02*
X74755785Y-55069428D01*
X74755785Y-54469428D01*
X74470071Y-54469428D01*
X133171428Y-32628571D02*
X133571428Y-32628571D01*
X132942857Y-32485714D02*
X133371428Y-32342857D01*
X133371428Y-32714285D01*
X132971428Y-33057142D02*
X132971428Y-33114285D01*
X133000000Y-33171428D01*
X133028571Y-33200000D01*
X133085714Y-33228571D01*
X133200000Y-33257142D01*
X133342857Y-33257142D01*
X133457142Y-33228571D01*
X133514285Y-33200000D01*
X133542857Y-33171428D01*
X133571428Y-33114285D01*
X133571428Y-33057142D01*
X133542857Y-33000000D01*
X133514285Y-32971428D01*
X133457142Y-32942857D01*
X133342857Y-32914285D01*
X133200000Y-32914285D01*
X133085714Y-32942857D01*
X133028571Y-32971428D01*
X133000000Y-33000000D01*
X132971428Y-33057142D01*
D11*
X79852380Y-36685714D02*
X79852380Y-36114285D01*
X79852380Y-36400000D02*
X78852380Y-36400000D01*
X78995238Y-36304761D01*
X79090476Y-36209523D01*
X79138095Y-36114285D01*
D13*
X144900000Y-72785714D02*
X144871428Y-72728571D01*
X144871428Y-72642857D01*
X144900000Y-72557142D01*
X144957142Y-72500000D01*
X145014285Y-72471428D01*
X145128571Y-72442857D01*
X145214285Y-72442857D01*
X145328571Y-72471428D01*
X145385714Y-72500000D01*
X145442857Y-72557142D01*
X145471428Y-72642857D01*
X145471428Y-72700000D01*
X145442857Y-72785714D01*
X145414285Y-72814285D01*
X145214285Y-72814285D01*
X145214285Y-72700000D01*
X145471428Y-73071428D02*
X144871428Y-73071428D01*
X145471428Y-73414285D01*
X144871428Y-73414285D01*
X145471428Y-73700000D02*
X144871428Y-73700000D01*
X144871428Y-73842857D01*
X144900000Y-73928571D01*
X144957142Y-73985714D01*
X145014285Y-74014285D01*
X145128571Y-74042857D01*
X145214285Y-74042857D01*
X145328571Y-74014285D01*
X145385714Y-73985714D01*
X145442857Y-73928571D01*
X145471428Y-73842857D01*
X145471428Y-73700000D01*
X145242857Y-74757142D02*
X145242857Y-75214285D01*
X145471428Y-75814285D02*
X145471428Y-75471428D01*
X145471428Y-75642857D02*
X144871428Y-75642857D01*
X144957142Y-75585714D01*
X145014285Y-75528571D01*
X145042857Y-75471428D01*
X144928571Y-76042857D02*
X144900000Y-76071428D01*
X144871428Y-76128571D01*
X144871428Y-76271428D01*
X144900000Y-76328571D01*
X144928571Y-76357142D01*
X144985714Y-76385714D01*
X145042857Y-76385714D01*
X145128571Y-76357142D01*
X145471428Y-76014285D01*
X145471428Y-76385714D01*
X145242857Y-77100000D02*
X145242857Y-77557142D01*
X144871428Y-78128571D02*
X144871428Y-77842857D01*
X145157142Y-77814285D01*
X145128571Y-77842857D01*
X145100000Y-77900000D01*
X145100000Y-78042857D01*
X145128571Y-78100000D01*
X145157142Y-78128571D01*
X145214285Y-78157142D01*
X145357142Y-78157142D01*
X145414285Y-78128571D01*
X145442857Y-78100000D01*
X145471428Y-78042857D01*
X145471428Y-77900000D01*
X145442857Y-77842857D01*
X145414285Y-77814285D01*
M02*
