G04 #@! TF.GenerationSoftware,KiCad,Pcbnew,(6.0.7-1)-1*
G04 #@! TF.CreationDate,2023-04-19T22:27:41-07:00*
G04 #@! TF.ProjectId,as3340,61733333-3430-42e6-9b69-6361645f7063,rev?*
G04 #@! TF.SameCoordinates,PX3d83120PY6590fa0*
G04 #@! TF.FileFunction,Soldermask,Bot*
G04 #@! TF.FilePolarity,Negative*
%FSLAX46Y46*%
G04 Gerber Fmt 4.6, Leading zero omitted, Abs format (unit mm)*
G04 Created by KiCad (PCBNEW (6.0.7-1)-1) date 2023-04-19 22:27:41*
%MOMM*%
%LPD*%
G01*
G04 APERTURE LIST*
G04 #@! TA.AperFunction,Profile*
%ADD10C,0.150000*%
G04 #@! TD*
G04 #@! TA.AperFunction,Profile*
%ADD11C,0.050000*%
G04 #@! TD*
%ADD12R,1.700000X1.700000*%
%ADD13O,1.700000X1.700000*%
%ADD14C,1.440000*%
%ADD15C,3.200000*%
%ADD16C,1.524000*%
%ADD17R,1.500000X1.500000*%
%ADD18C,1.500000*%
G04 APERTURE END LIST*
D10*
X500000Y7000000D02*
G75*
G03*
X6000000Y1500000I5500000J0D01*
G01*
X75500000Y1500000D02*
G75*
G03*
X80500000Y6500000I0J5000000D01*
G01*
X75500000Y1500000D02*
X6000000Y1500000D01*
X5500000Y81500000D02*
G75*
G03*
X500000Y76500000I0J-5000000D01*
G01*
X80500000Y76000000D02*
G75*
G03*
X75000000Y81500000I-5500000J0D01*
G01*
X5500000Y81500000D02*
X75000000Y81500000D01*
X80500000Y6500000D02*
X80500000Y76000000D01*
X500000Y76500000D02*
X500000Y7000000D01*
D11*
X10276000Y3000000D02*
G75*
G03*
X10276000Y3000000I-576000J0D01*
G01*
X72876000Y80000000D02*
G75*
G03*
X72876000Y80000000I-576000J0D01*
G01*
X72876000Y3000000D02*
G75*
G03*
X72876000Y3000000I-576000J0D01*
G01*
D12*
X29100000Y75025000D03*
D13*
X29100000Y72485000D03*
X29100000Y69945000D03*
D12*
X5975000Y71500000D03*
D13*
X3435000Y71500000D03*
D14*
X4100000Y66850000D03*
X4100000Y64310000D03*
X4100000Y61770000D03*
X12500000Y78500000D03*
X15040000Y78500000D03*
X17580000Y78500000D03*
D15*
X76100000Y5800000D03*
X75900000Y77200000D03*
X5100000Y5800000D03*
X5100000Y77200000D03*
D16*
X9660000Y54340000D03*
X9660000Y50740000D03*
D12*
X65500000Y12000000D03*
D13*
X65500000Y9460000D03*
X62960000Y12000000D03*
X62960000Y9460000D03*
X60420000Y12000000D03*
X60420000Y9460000D03*
X57880000Y12000000D03*
X57880000Y9460000D03*
X55340000Y12000000D03*
X55340000Y9460000D03*
X52800000Y12000000D03*
X52800000Y9460000D03*
X50260000Y12000000D03*
X50260000Y9460000D03*
X47720000Y12000000D03*
X47720000Y9460000D03*
X45180000Y12000000D03*
X45180000Y9460000D03*
X42640000Y12000000D03*
X42640000Y9460000D03*
X40100000Y12000000D03*
X40100000Y9460000D03*
X37560000Y12000000D03*
X37560000Y9460000D03*
X35020000Y12000000D03*
X35020000Y9460000D03*
X32480000Y12000000D03*
X32480000Y9460000D03*
X29940000Y12000000D03*
X29940000Y9460000D03*
X27400000Y12000000D03*
X27400000Y9460000D03*
X24860000Y12000000D03*
X24860000Y9460000D03*
X22320000Y12000000D03*
X22320000Y9460000D03*
X19780000Y12000000D03*
X19780000Y9460000D03*
X17240000Y12000000D03*
X17240000Y9460000D03*
D17*
X4100000Y48900000D03*
D18*
X4100000Y51440000D03*
X4100000Y53980000D03*
D12*
X75000000Y23125000D03*
D13*
X75000000Y25665000D03*
D12*
X4700000Y34000000D03*
M02*
