G04 #@! TF.GenerationSoftware,KiCad,Pcbnew,(6.0.7-1)-1*
G04 #@! TF.CreationDate,2022-09-15T21:35:11-07:00*
G04 #@! TF.ProjectId,as3340,61733333-3430-42e6-9b69-6361645f7063,rev?*
G04 #@! TF.SameCoordinates,Original*
G04 #@! TF.FileFunction,Paste,Top*
G04 #@! TF.FilePolarity,Positive*
%FSLAX46Y46*%
G04 Gerber Fmt 4.6, Leading zero omitted, Abs format (unit mm)*
G04 Created by KiCad (PCBNEW (6.0.7-1)-1) date 2022-09-15 21:35:11*
%MOMM*%
%LPD*%
G01*
G04 APERTURE LIST*
G04 Aperture macros list*
%AMRoundRect*
0 Rectangle with rounded corners*
0 $1 Rounding radius*
0 $2 $3 $4 $5 $6 $7 $8 $9 X,Y pos of 4 corners*
0 Add a 4 corners polygon primitive as box body*
4,1,4,$2,$3,$4,$5,$6,$7,$8,$9,$2,$3,0*
0 Add four circle primitives for the rounded corners*
1,1,$1+$1,$2,$3*
1,1,$1+$1,$4,$5*
1,1,$1+$1,$6,$7*
1,1,$1+$1,$8,$9*
0 Add four rect primitives between the rounded corners*
20,1,$1+$1,$2,$3,$4,$5,0*
20,1,$1+$1,$4,$5,$6,$7,0*
20,1,$1+$1,$6,$7,$8,$9,0*
20,1,$1+$1,$8,$9,$2,$3,0*%
G04 Aperture macros list end*
G04 #@! TA.AperFunction,Profile*
%ADD10C,0.150000*%
G04 #@! TD*
G04 #@! TA.AperFunction,Profile*
%ADD11C,0.050000*%
G04 #@! TD*
%ADD12RoundRect,0.225000X0.225000X0.250000X-0.225000X0.250000X-0.225000X-0.250000X0.225000X-0.250000X0*%
%ADD13RoundRect,0.225000X-0.250000X0.225000X-0.250000X-0.225000X0.250000X-0.225000X0.250000X0.225000X0*%
%ADD14RoundRect,0.150000X0.150000X-0.825000X0.150000X0.825000X-0.150000X0.825000X-0.150000X-0.825000X0*%
%ADD15RoundRect,0.225000X-0.225000X-0.250000X0.225000X-0.250000X0.225000X0.250000X-0.225000X0.250000X0*%
%ADD16RoundRect,0.200000X0.200000X0.275000X-0.200000X0.275000X-0.200000X-0.275000X0.200000X-0.275000X0*%
%ADD17RoundRect,0.250000X0.450000X-0.262500X0.450000X0.262500X-0.450000X0.262500X-0.450000X-0.262500X0*%
%ADD18RoundRect,0.200000X-0.200000X-0.275000X0.200000X-0.275000X0.200000X0.275000X-0.200000X0.275000X0*%
%ADD19RoundRect,0.200000X-0.275000X0.200000X-0.275000X-0.200000X0.275000X-0.200000X0.275000X0.200000X0*%
%ADD20RoundRect,0.225000X0.250000X-0.225000X0.250000X0.225000X-0.250000X0.225000X-0.250000X-0.225000X0*%
%ADD21RoundRect,0.200000X0.275000X-0.200000X0.275000X0.200000X-0.275000X0.200000X-0.275000X-0.200000X0*%
%ADD22RoundRect,0.250000X-0.250000X-0.475000X0.250000X-0.475000X0.250000X0.475000X-0.250000X0.475000X0*%
%ADD23RoundRect,0.250000X-0.625000X0.312500X-0.625000X-0.312500X0.625000X-0.312500X0.625000X0.312500X0*%
%ADD24RoundRect,0.150000X-0.825000X-0.150000X0.825000X-0.150000X0.825000X0.150000X-0.825000X0.150000X0*%
%ADD25RoundRect,0.250000X-0.325000X-0.650000X0.325000X-0.650000X0.325000X0.650000X-0.325000X0.650000X0*%
%ADD26RoundRect,0.100000X-0.637500X-0.100000X0.637500X-0.100000X0.637500X0.100000X-0.637500X0.100000X0*%
%ADD27RoundRect,0.100000X0.637500X0.100000X-0.637500X0.100000X-0.637500X-0.100000X0.637500X-0.100000X0*%
%ADD28RoundRect,0.150000X-0.150000X0.825000X-0.150000X-0.825000X0.150000X-0.825000X0.150000X0.825000X0*%
%ADD29RoundRect,0.250000X0.325000X0.650000X-0.325000X0.650000X-0.325000X-0.650000X0.325000X-0.650000X0*%
%ADD30RoundRect,0.218750X-0.256250X0.218750X-0.256250X-0.218750X0.256250X-0.218750X0.256250X0.218750X0*%
%ADD31R,1.200000X0.900000*%
%ADD32R,0.900000X1.200000*%
%ADD33RoundRect,0.150000X-0.875000X-0.150000X0.875000X-0.150000X0.875000X0.150000X-0.875000X0.150000X0*%
%ADD34RoundRect,0.150000X-0.587500X-0.150000X0.587500X-0.150000X0.587500X0.150000X-0.587500X0.150000X0*%
%ADD35RoundRect,0.150000X0.587500X0.150000X-0.587500X0.150000X-0.587500X-0.150000X0.587500X-0.150000X0*%
G04 APERTURE END LIST*
D10*
X147000000Y179000000D02*
G75*
G03*
X141500000Y184500000I-5500000J0D01*
G01*
X72000000Y184500000D02*
G75*
G03*
X67000000Y179500000I0J-5000000D01*
G01*
X72000000Y184500000D02*
X141500000Y184500000D01*
X142000000Y104500000D02*
G75*
G03*
X147000000Y109500000I0J5000000D01*
G01*
X67000000Y110000000D02*
G75*
G03*
X72500000Y104500000I5500000J0D01*
G01*
X142000000Y104500000D02*
X72500000Y104500000D01*
X67000000Y179500000D02*
X67000000Y110000000D01*
X147000000Y109500000D02*
X147000000Y179000000D01*
D11*
X138376000Y183000000D02*
G75*
G03*
X138376000Y183000000I-576000J0D01*
G01*
X75776000Y106000000D02*
G75*
G03*
X75776000Y106000000I-576000J0D01*
G01*
X75776000Y183000000D02*
G75*
G03*
X75776000Y183000000I-576000J0D01*
G01*
D12*
X108475000Y170475000D03*
X106925000Y170475000D03*
X121075000Y159200000D03*
X119525000Y159200000D03*
D13*
X133400000Y163875000D03*
X133400000Y162325000D03*
D14*
X127655000Y121425000D03*
X128925000Y121425000D03*
X130195000Y121425000D03*
X131465000Y121425000D03*
X132735000Y121425000D03*
X134005000Y121425000D03*
X135275000Y121425000D03*
X136545000Y121425000D03*
X136545000Y126375000D03*
X135275000Y126375000D03*
X134005000Y126375000D03*
X132735000Y126375000D03*
X131465000Y126375000D03*
X130195000Y126375000D03*
X128925000Y126375000D03*
X127655000Y126375000D03*
D15*
X131325000Y134900000D03*
X132875000Y134900000D03*
X136625000Y129200000D03*
X138175000Y129200000D03*
X123325000Y125800000D03*
X124875000Y125800000D03*
D12*
X127875000Y134900000D03*
X126325000Y134900000D03*
D16*
X132925000Y118500000D03*
X131275000Y118500000D03*
X134925000Y132400000D03*
X133275000Y132400000D03*
D17*
X131100000Y130487500D03*
X131100000Y132312500D03*
D18*
X137950000Y117625000D03*
X139600000Y117625000D03*
D16*
X126625000Y116600000D03*
X124975000Y116600000D03*
X124925000Y124000000D03*
X123275000Y124000000D03*
D19*
X120700000Y122325000D03*
X120700000Y120675000D03*
D17*
X128100000Y130487500D03*
X128100000Y132312500D03*
D12*
X132275000Y155200000D03*
X130725000Y155200000D03*
D20*
X132200000Y141825000D03*
X132200000Y143375000D03*
D19*
X134000000Y141825000D03*
X134000000Y140175000D03*
D18*
X136675000Y141500000D03*
X138325000Y141500000D03*
D16*
X135825000Y144500000D03*
X134175000Y144500000D03*
D20*
X97400000Y124325000D03*
X97400000Y125875000D03*
D18*
X92575000Y106500000D03*
X94225000Y106500000D03*
X119375000Y139700000D03*
X121025000Y139700000D03*
D12*
X114875000Y140300000D03*
X113325000Y140300000D03*
D18*
X134775000Y155200000D03*
X136425000Y155200000D03*
D12*
X101425000Y126400000D03*
X99875000Y126400000D03*
D15*
X99625000Y137200000D03*
X101175000Y137200000D03*
D13*
X122800000Y139975000D03*
X122800000Y138425000D03*
D15*
X113525000Y150300000D03*
X115075000Y150300000D03*
D16*
X88925000Y120600000D03*
X87275000Y120600000D03*
X122325000Y128600000D03*
X120675000Y128600000D03*
D18*
X87275000Y118700000D03*
X88925000Y118700000D03*
X90875000Y108500000D03*
X92525000Y108500000D03*
X91175000Y118800000D03*
X92825000Y118800000D03*
D19*
X121400000Y109825000D03*
X121400000Y108175000D03*
D15*
X95125000Y119000000D03*
X96675000Y119000000D03*
D12*
X96875000Y108400000D03*
X95325000Y108400000D03*
D18*
X114775000Y122000000D03*
X116425000Y122000000D03*
D21*
X104600000Y113175000D03*
X104600000Y114825000D03*
D16*
X113825000Y119500000D03*
X112175000Y119500000D03*
X117825000Y119500000D03*
X116175000Y119500000D03*
D15*
X114625000Y108200000D03*
X116175000Y108200000D03*
D16*
X103825000Y119400000D03*
X102175000Y119400000D03*
D19*
X85000000Y125825000D03*
X85000000Y124175000D03*
X84400000Y130025000D03*
X84400000Y128375000D03*
D22*
X81500000Y111575000D03*
X83400000Y111575000D03*
D15*
X81475000Y113775000D03*
X83025000Y113775000D03*
D23*
X75675000Y125900000D03*
X75675000Y122975000D03*
D13*
X81300000Y149775000D03*
X81300000Y148225000D03*
D16*
X101425000Y124000000D03*
X99775000Y124000000D03*
D15*
X107225000Y160200000D03*
X108775000Y160200000D03*
D18*
X128575000Y144400000D03*
X130225000Y144400000D03*
D24*
X135925000Y167310000D03*
X135925000Y166040000D03*
X135925000Y164770000D03*
X135925000Y163500000D03*
X135925000Y162230000D03*
X135925000Y160960000D03*
X135925000Y159690000D03*
X140875000Y159690000D03*
X140875000Y160960000D03*
X140875000Y162230000D03*
X140875000Y163500000D03*
X140875000Y164770000D03*
X140875000Y166040000D03*
X140875000Y167310000D03*
D21*
X85400000Y117075000D03*
X85400000Y118725000D03*
D16*
X100225000Y119000000D03*
X98575000Y119000000D03*
D21*
X86600000Y128375000D03*
X86600000Y130025000D03*
D16*
X112225000Y121600000D03*
X110575000Y121600000D03*
D25*
X141725000Y142300000D03*
X144675000Y142300000D03*
D26*
X74937500Y145975000D03*
X74937500Y145325000D03*
X74937500Y144675000D03*
X74937500Y144025000D03*
X74937500Y143375000D03*
X74937500Y142725000D03*
X74937500Y142075000D03*
X74937500Y141425000D03*
X74937500Y140775000D03*
X74937500Y140125000D03*
X74937500Y139475000D03*
X74937500Y138825000D03*
X80662500Y138825000D03*
X80662500Y139475000D03*
X80662500Y140125000D03*
X80662500Y140775000D03*
X80662500Y141425000D03*
X80662500Y142075000D03*
X80662500Y142725000D03*
X80662500Y143375000D03*
X80662500Y144025000D03*
X80662500Y144675000D03*
X80662500Y145325000D03*
X80662500Y145975000D03*
D27*
X79025000Y116000000D03*
X79025000Y116650000D03*
X79025000Y117300000D03*
X79025000Y117950000D03*
X79025000Y118600000D03*
X79025000Y119250000D03*
X79025000Y119900000D03*
X79025000Y120550000D03*
X73300000Y120550000D03*
X73300000Y119900000D03*
X73300000Y119250000D03*
X73300000Y118600000D03*
X73300000Y117950000D03*
X73300000Y117300000D03*
X73300000Y116650000D03*
X73300000Y116000000D03*
D21*
X87600000Y124175000D03*
X87600000Y125825000D03*
D18*
X124375000Y109800000D03*
X126025000Y109800000D03*
D21*
X125400000Y142575000D03*
X125400000Y144225000D03*
D18*
X91875000Y144200000D03*
X93525000Y144200000D03*
X119775000Y151200000D03*
X121425000Y151200000D03*
D16*
X110325000Y154400000D03*
X108675000Y154400000D03*
X109825000Y145000000D03*
X108175000Y145000000D03*
D18*
X127475000Y165600000D03*
X129125000Y165600000D03*
D28*
X122710000Y147875000D03*
X121440000Y147875000D03*
X120170000Y147875000D03*
X118900000Y147875000D03*
X117630000Y147875000D03*
X116360000Y147875000D03*
X115090000Y147875000D03*
X115090000Y142925000D03*
X116360000Y142925000D03*
X117630000Y142925000D03*
X118900000Y142925000D03*
X120170000Y142925000D03*
X121440000Y142925000D03*
X122710000Y142925000D03*
X105045000Y134275000D03*
X103775000Y134275000D03*
X102505000Y134275000D03*
X101235000Y134275000D03*
X99965000Y134275000D03*
X98695000Y134275000D03*
X97425000Y134275000D03*
X96155000Y134275000D03*
X96155000Y129325000D03*
X97425000Y129325000D03*
X98695000Y129325000D03*
X99965000Y129325000D03*
X101235000Y129325000D03*
X102505000Y129325000D03*
X103775000Y129325000D03*
X105045000Y129325000D03*
D18*
X127475000Y163500000D03*
X129125000Y163500000D03*
D28*
X136110000Y152575000D03*
X134840000Y152575000D03*
X133570000Y152575000D03*
X132300000Y152575000D03*
X131030000Y152575000D03*
X129760000Y152575000D03*
X128490000Y152575000D03*
X128490000Y147625000D03*
X129760000Y147625000D03*
X131030000Y147625000D03*
X132300000Y147625000D03*
X133570000Y147625000D03*
X134840000Y147625000D03*
X136110000Y147625000D03*
D18*
X91775000Y151300000D03*
X93425000Y151300000D03*
D29*
X144975000Y125000000D03*
X142025000Y125000000D03*
D21*
X72200000Y140375000D03*
X72200000Y142025000D03*
D30*
X72200000Y137587500D03*
X72200000Y136012500D03*
D31*
X93200000Y127650000D03*
X93200000Y124350000D03*
D15*
X96025000Y137200000D03*
X97575000Y137200000D03*
X107225000Y116400000D03*
X108775000Y116400000D03*
D18*
X95975000Y139200000D03*
X97625000Y139200000D03*
D19*
X108500000Y110225000D03*
X108500000Y108575000D03*
D21*
X106300000Y108575000D03*
X106300000Y110225000D03*
D13*
X129000000Y117025000D03*
X129000000Y115475000D03*
D16*
X143625000Y172800000D03*
X141975000Y172800000D03*
D18*
X124775000Y128800000D03*
X126425000Y128800000D03*
D16*
X129125000Y167700000D03*
X127475000Y167700000D03*
D28*
X124845000Y166875000D03*
X123575000Y166875000D03*
X122305000Y166875000D03*
X121035000Y166875000D03*
X119765000Y166875000D03*
X118495000Y166875000D03*
X117225000Y166875000D03*
X115955000Y166875000D03*
X115955000Y161925000D03*
X117225000Y161925000D03*
X118495000Y161925000D03*
X119765000Y161925000D03*
X121035000Y161925000D03*
X122305000Y161925000D03*
X123575000Y161925000D03*
X124845000Y161925000D03*
D15*
X119625000Y169400000D03*
X121175000Y169400000D03*
X74225000Y167500000D03*
X75775000Y167500000D03*
D18*
X98675000Y106500000D03*
X100325000Y106500000D03*
D16*
X100325000Y108400000D03*
X98675000Y108400000D03*
D14*
X104705000Y162875000D03*
X105975000Y162875000D03*
X107245000Y162875000D03*
X108515000Y162875000D03*
X109785000Y162875000D03*
X111055000Y162875000D03*
X112325000Y162875000D03*
X113595000Y162875000D03*
X113595000Y167825000D03*
X112325000Y167825000D03*
X111055000Y167825000D03*
X109785000Y167825000D03*
X108515000Y167825000D03*
X107245000Y167825000D03*
X105975000Y167825000D03*
X104705000Y167825000D03*
D32*
X140350000Y175100000D03*
X143650000Y175100000D03*
D13*
X143400000Y164175000D03*
X143400000Y162625000D03*
D16*
X141525000Y157400000D03*
X139875000Y157400000D03*
D21*
X143400000Y159175000D03*
X143400000Y160825000D03*
X135300000Y170075000D03*
X135300000Y171725000D03*
X116800000Y138175000D03*
X116800000Y139825000D03*
D28*
X99010000Y116005000D03*
X97740000Y116005000D03*
X96470000Y116005000D03*
X95200000Y116005000D03*
X93930000Y116005000D03*
X92660000Y116005000D03*
X91390000Y116005000D03*
X91390000Y111055000D03*
X92660000Y111055000D03*
X93930000Y111055000D03*
X95200000Y111055000D03*
X96470000Y111055000D03*
X97740000Y111055000D03*
X99010000Y111055000D03*
D20*
X108800000Y148825000D03*
X108800000Y150375000D03*
X93300000Y147225000D03*
X93300000Y148775000D03*
X131400000Y158925000D03*
X131400000Y160475000D03*
D13*
X131200000Y167575000D03*
X131200000Y166025000D03*
D21*
X133400000Y165975000D03*
X133400000Y167625000D03*
D16*
X139025000Y170200000D03*
X137375000Y170200000D03*
D19*
X143400000Y167625000D03*
X143400000Y165975000D03*
D21*
X143400000Y169475000D03*
X143400000Y171125000D03*
D18*
X90375000Y142100000D03*
X92025000Y142100000D03*
D16*
X110325000Y152400000D03*
X108675000Y152400000D03*
D19*
X93300000Y154725000D03*
X93300000Y153075000D03*
D33*
X96150000Y153915000D03*
X96150000Y152645000D03*
X96150000Y151375000D03*
X96150000Y150105000D03*
X96150000Y148835000D03*
X96150000Y147565000D03*
X96150000Y146295000D03*
X96150000Y145025000D03*
X96150000Y143755000D03*
X96150000Y142485000D03*
X105450000Y142485000D03*
X105450000Y143755000D03*
X105450000Y145025000D03*
X105450000Y146295000D03*
X105450000Y147565000D03*
X105450000Y148835000D03*
X105450000Y150105000D03*
X105450000Y151375000D03*
X105450000Y152645000D03*
X105450000Y153915000D03*
D34*
X78462500Y124950000D03*
X78462500Y123050000D03*
X80337500Y124000000D03*
D28*
X114405000Y116075000D03*
X113135000Y116075000D03*
X111865000Y116075000D03*
X110595000Y116075000D03*
X110595000Y111125000D03*
X111865000Y111125000D03*
X113135000Y111125000D03*
X114405000Y111125000D03*
D18*
X106175000Y137500000D03*
X107825000Y137500000D03*
D19*
X133400000Y160525000D03*
X133400000Y158875000D03*
D18*
X107875000Y131000000D03*
X109525000Y131000000D03*
D15*
X109525000Y133000000D03*
X111075000Y133000000D03*
D16*
X138725000Y137600000D03*
X137075000Y137600000D03*
D20*
X85400000Y120625000D03*
X85400000Y122175000D03*
D21*
X126400000Y152775000D03*
X126400000Y154425000D03*
D31*
X93200000Y137250000D03*
X93200000Y133950000D03*
D14*
X75795000Y160025000D03*
X77065000Y160025000D03*
X78335000Y160025000D03*
X79605000Y160025000D03*
X79605000Y164975000D03*
X78335000Y164975000D03*
X77065000Y164975000D03*
X75795000Y164975000D03*
D35*
X101737500Y156450000D03*
X101737500Y158350000D03*
X99862500Y157400000D03*
D19*
X97000000Y158225000D03*
X97000000Y156575000D03*
D25*
X118525000Y153600000D03*
X121475000Y153600000D03*
M02*
