M48
; DRILL file {KiCad (5.1.12-1-10_14)} date Monday, June 20, 2022 at 08:57:53 AM
; FORMAT={-:-/ absolute / inch / decimal}
; #@! TF.CreationDate,2022-06-20T08:57:53-07:00
; #@! TF.GenerationSoftware,Kicad,Pcbnew,(5.1.12-1-10_14)
; #@! TF.FileFunction,Plated,1,4,PTH
FMAT,2
INCH
T1C0.0157
T2C0.0197
T3C0.0300
T4C0.0315
T5C0.0394
%
G90
G05
T1
X2.7283Y-1.5079
X2.7717Y-3.4094
X2.7835Y-3.4685
X2.8189Y-2.9606
X2.8583Y-3.2441
X2.8917Y-2.8022
X2.9213Y-3.5669
X2.9449Y-2.2638
X2.9449Y-3.5197
X2.9528Y-3.6183
X2.9646Y-3.3189
X2.9843Y-3.7165
X3.0591Y-1.3307
X3.1063Y-2.6654
X3.1299Y-3.4646
X3.1457Y-3.4173
X3.1614Y-2.3386
X3.1614Y-2.4291
X3.2087Y-1.5157
X3.2303Y-2.6555
X3.2559Y-2.4685
X3.2795Y-2.7008
X3.2992Y-2.3858
X3.3228Y-3.252
X3.3307Y-2.8661
X3.3425Y-3.7205
X3.3543Y-2.4094
X3.3937Y-3.378
X3.4134Y-3.4488
X3.4331Y-3.1102
X3.4541Y-3.21
X3.4567Y-1.4606
X3.4646Y-3.7087
X3.4783Y-2.689
X3.5Y-3.378
X3.5039Y-3.2677
X3.5236Y-4.0748
X3.5276Y-4.0118
X3.5591Y-2.6299
X3.563Y-2.252
X3.563Y-2.5669
X3.5827Y-2.9606
X3.6693Y-3.0394
X3.6693Y-3.2835
X3.7008Y-3.6378
X3.7244Y-2.2205
X3.7402Y-3.1654
X3.748Y-3.2441
X3.7953Y-3.0709
X3.7953Y-3.9528
X3.8051Y-3.6358
X3.8543Y-2.5079
X3.8583Y-2.3583
X3.8622Y-3.8189
X3.8858Y-3.3386
X3.8898Y-2.7874
X3.9291Y-4.0787
X3.9528Y-3.748
X3.9646Y-2.7441
X3.9764Y-2.622
X3.9921Y-1.7008
X4.0374Y-2.6988
X4.0394Y-3.3858
X4.0394Y-3.622
X4.0866Y-2.8071
X4.0886Y-3.0709
X4.1181Y-3.7087
X4.1339Y-3.2441
X4.1437Y-4.0531
X4.1732Y-3.685
X4.2047Y-3.8583
X4.2087Y-3.5689
X4.2205Y-2.4921
X4.2283Y-2.3543
X4.2362Y-3.0197
X4.252Y-2.6339
X4.2598Y-1.6339
X4.2604Y-3.602
X4.3228Y-1.5945
X4.3228Y-2.6024
X4.3504Y-2.315
X4.3583Y-1.626
X4.3701Y-3.622
X4.3976Y-3.3622
X4.4016Y-1.9291
X4.4016Y-2.7756
X4.4252Y-1.5945
X4.4291Y-2.9488
X4.4291Y-3.1181
X4.4606Y-2.6969
X4.4685Y-2.189
X4.5197Y-3.252
X4.6142Y-3.4646
X4.622Y-3.5197
X4.6417Y-2.0512
X4.6457Y-3.685
X4.6575Y-2.315
X4.6654Y-3.0472
X4.6969Y-2.8189
X4.7047Y-2.0472
X4.7244Y-4.0118
X4.752Y-3.563
X4.7677Y-2.0472
X4.7756Y-1.3091
X4.7811Y-2.589
X4.7953Y-3.7717
X4.8071Y-2.9291
X4.8071Y-3.3858
X4.815Y-1.7598
X4.8425Y-3.9449
X4.8474Y-1.9774
X4.8504Y-1.815
X4.8583Y-3.2047
X4.8898Y-3.6614
X4.9134Y-1.626
X4.9213Y-2.9764
X4.9606Y-2.5197
X4.9685Y-2.378
X4.9685Y-3.2598
X5.0Y-1.5118
X5.0Y-1.9173
X5.0197Y-1.622
X5.0236Y-3.5551
X5.0709Y-3.3465
X5.1024Y-2.9646
X5.1063Y-2.0709
X5.1181Y-2.6772
X5.1535Y-2.3268
X5.1575Y-2.5197
X5.1614Y-2.6417
X5.1654Y-2.7087
X5.1758Y-3.2073
X5.1772Y-3.3858
X5.1969Y-2.8425
X5.2258Y-3.2297
X5.252Y-1.622
X5.252Y-2.3228
X5.2598Y-2.5276
X5.2598Y-3.7953
X5.2677Y-2.1575
X5.2717Y-2.8858
X5.2756Y-2.7874
X5.2835Y-2.9567
X5.2992Y-1.4449
X5.2992Y-1.5118
X5.3031Y-1.3701
X5.3071Y-2.3228
X5.315Y-3.7598
X5.3228Y-1.2835
X5.3228Y-3.2205
X5.3268Y-3.4094
X5.3386Y-2.622
X5.3976Y-2.7717
X5.4016Y-1.5039
X5.4213Y-3.4213
X5.4291Y-3.7047
X5.4409Y-3.2402
X5.5433Y-1.622
X5.5512Y-1.7638
X5.5709Y-1.5157
X5.5827Y-3.1535
T2
X2.7841Y-3.7683
X3.0157Y-4.0472
X3.0866Y-3.0866
X3.0984Y-1.4213
X3.1693Y-1.4173
X3.2047Y-3.1417
X3.315Y-3.9843
X3.3583Y-1.8465
X3.3937Y-3.9843
X3.622Y-2.4252
X3.626Y-2.4882
X3.6496Y-1.7441
X3.6732Y-1.6811
X3.7402Y-1.689
X3.7441Y-1.626
X3.748Y-4.0709
X3.8071Y-3.4803
X3.811Y-4.0709
X3.8268Y-3.5354
X3.8622Y-2.1673
X3.937Y-2.8228
X3.9528Y-3.3307
X4.0079Y-2.8268
X4.0315Y-3.3307
X4.0354Y-1.3661
X4.0472Y-1.6339
X4.0551Y-3.6929
X4.0709Y-1.5748
X4.1102Y-1.6142
X4.1693Y-1.5787
X4.2087Y-1.8504
X4.2087Y-2.0315
X4.2362Y-3.3228
X4.2697Y-1.8504
X4.2835Y-2.4567
X4.3386Y-2.3701
X4.4528Y-2.4921
X4.4724Y-2.3425
X4.5128Y-4.064
X4.5709Y-4.063
X4.7087Y-1.5433
X4.7677Y-1.5433
X4.7835Y-3.622
X4.7874Y-2.8386
X4.8346Y-2.3701
X4.8583Y-3.2638
X4.8937Y-2.7402
X4.9134Y-3.2717
X5.0315Y-3.7205
X5.0394Y-3.6614
X5.1457Y-2.1102
X5.2047Y-2.1102
X5.3189Y-1.9331
X5.3583Y-3.0276
X5.3858Y-1.9331
X5.5276Y-3.4213
X5.5787Y-2.5984
X5.6969Y-2.5984
X5.7087Y-3.2756
T3
X5.4268Y-2.9425
X5.4268Y-3.0843
T4
X3.189Y-3.8787
X3.189Y-3.9787
X3.189Y-4.0787
X5.115Y-4.0354
X5.215Y-4.0354
X5.315Y-4.0354
X5.6457Y-2.8701
X5.6457Y-2.9701
X5.6457Y-3.0701
X5.6496Y-3.5402
X5.6496Y-3.6402
X5.6496Y-3.7402
T5
X3.2283Y-1.1205
X3.2283Y-1.2205
X3.3283Y-1.1205
X3.3283Y-1.2205
X3.4283Y-1.1205
X3.4283Y-1.2205
X3.5283Y-1.1205
X3.5283Y-1.2205
X3.6283Y-1.1205
X3.6283Y-1.2205
X3.7283Y-1.1205
X3.7283Y-1.2205
X3.8283Y-1.1205
X3.8283Y-1.2205
X3.9283Y-1.1205
X3.9283Y-1.2205
X4.0283Y-1.1205
X4.0283Y-1.2205
X4.1283Y-1.1205
X4.1283Y-1.2205
X4.2283Y-1.1205
X4.2283Y-1.2205
X4.3283Y-1.1205
X4.3283Y-1.2205
X4.4283Y-1.1205
X4.4283Y-1.2205
X4.5283Y-1.1205
X4.5283Y-1.2205
X4.6283Y-1.1205
X4.6283Y-1.2205
X4.7283Y-1.1205
X4.7283Y-1.2205
X4.8283Y-1.1205
X4.8283Y-1.2205
X4.9283Y-1.1205
X4.9283Y-1.2205
X5.0283Y-1.1205
X5.0283Y-1.2205
X5.1283Y-1.1205
X5.1283Y-1.2205
T0
M30
