G04 #@! TF.GenerationSoftware,KiCad,Pcbnew,(6.0.7-1)-1*
G04 #@! TF.CreationDate,2022-11-22T15:05:13-08:00*
G04 #@! TF.ProjectId,as3340,61733333-3430-42e6-9b69-6361645f7063,rev?*
G04 #@! TF.SameCoordinates,PX3d83120PY6590fa0*
G04 #@! TF.FileFunction,Soldermask,Bot*
G04 #@! TF.FilePolarity,Negative*
%FSLAX46Y46*%
G04 Gerber Fmt 4.6, Leading zero omitted, Abs format (unit mm)*
G04 Created by KiCad (PCBNEW (6.0.7-1)-1) date 2022-11-22 15:05:13*
%MOMM*%
%LPD*%
G01*
G04 APERTURE LIST*
G04 #@! TA.AperFunction,Profile*
%ADD10C,0.150000*%
G04 #@! TD*
G04 #@! TA.AperFunction,Profile*
%ADD11C,0.050000*%
G04 #@! TD*
%ADD12C,1.440000*%
%ADD13C,3.200000*%
%ADD14C,1.524000*%
%ADD15R,1.700000X1.700000*%
%ADD16O,1.700000X1.700000*%
%ADD17R,1.500000X1.500000*%
%ADD18C,1.500000*%
G04 APERTURE END LIST*
D10*
X82500000Y75500000D02*
G75*
G03*
X77000000Y81000000I-5500000J0D01*
G01*
X7500000Y81000000D02*
G75*
G03*
X2500000Y76000000I0J-5000000D01*
G01*
X7500000Y81000000D02*
X77000000Y81000000D01*
X77500000Y1000000D02*
G75*
G03*
X82500000Y6000000I0J5000000D01*
G01*
X2500000Y6500000D02*
G75*
G03*
X8000000Y1000000I5500000J0D01*
G01*
X77500000Y1000000D02*
X8000000Y1000000D01*
X2500000Y76000000D02*
X2500000Y6500000D01*
X82500000Y6000000D02*
X82500000Y75500000D01*
D11*
X73876000Y79500000D02*
G75*
G03*
X73876000Y79500000I-576000J0D01*
G01*
X11276000Y2500000D02*
G75*
G03*
X11276000Y2500000I-576000J0D01*
G01*
X11276000Y79500000D02*
G75*
G03*
X11276000Y79500000I-576000J0D01*
G01*
D12*
X79000000Y11500000D03*
X79000000Y14040000D03*
X79000000Y16580000D03*
X70500000Y4000000D03*
X67960000Y4000000D03*
X65420000Y4000000D03*
D13*
X6900000Y76700000D03*
X7100000Y5300000D03*
X77900000Y76700000D03*
X77900000Y5300000D03*
D14*
X73340000Y28160000D03*
X73340000Y31760000D03*
D15*
X17500000Y70500000D03*
D16*
X17500000Y73040000D03*
X20040000Y70500000D03*
X20040000Y73040000D03*
X22580000Y70500000D03*
X22580000Y73040000D03*
X25120000Y70500000D03*
X25120000Y73040000D03*
X27660000Y70500000D03*
X27660000Y73040000D03*
X30200000Y70500000D03*
X30200000Y73040000D03*
X32740000Y70500000D03*
X32740000Y73040000D03*
X35280000Y70500000D03*
X35280000Y73040000D03*
X37820000Y70500000D03*
X37820000Y73040000D03*
X40360000Y70500000D03*
X40360000Y73040000D03*
X42900000Y70500000D03*
X42900000Y73040000D03*
X45440000Y70500000D03*
X45440000Y73040000D03*
X47980000Y70500000D03*
X47980000Y73040000D03*
X50520000Y70500000D03*
X50520000Y73040000D03*
X53060000Y70500000D03*
X53060000Y73040000D03*
X55600000Y70500000D03*
X55600000Y73040000D03*
X58140000Y70500000D03*
X58140000Y73040000D03*
X60680000Y70500000D03*
X60680000Y73040000D03*
X63220000Y70500000D03*
X63220000Y73040000D03*
X65760000Y70500000D03*
X65760000Y73040000D03*
D17*
X78900000Y33600000D03*
D18*
X78900000Y31060000D03*
X78900000Y28520000D03*
D15*
X8000000Y59375000D03*
D16*
X8000000Y56835000D03*
D15*
X78300000Y48500000D03*
M02*
