M48
; DRILL file {KiCad (6.0.7-1)-1} date Wednesday, September 14, 2022 at 11:00:01 PM
; FORMAT={-:-/ absolute / inch / decimal}
; #@! TF.CreationDate,2022-09-14T23:00:01-07:00
; #@! TF.GenerationSoftware,Kicad,Pcbnew,(6.0.7-1)-1
; #@! TF.FileFunction,Plated,1,4,PTH
FMAT,2
INCH
; #@! TA.AperFunction,Plated,PTH,ViaDrill
T1C0.0157
; #@! TA.AperFunction,Plated,PTH,ViaDrill
T2C0.0197
; #@! TA.AperFunction,Plated,PTH,ComponentDrill
T3C0.0300
; #@! TA.AperFunction,Plated,PTH,ComponentDrill
T4C0.0315
; #@! TA.AperFunction,Plated,PTH,ComponentDrill
T5C0.0394
%
G90
G05
T1
X2.8071Y-3.6457
X2.8425Y-2.9606
X2.8917Y-2.8022
X2.9252Y-1.4213
X2.9449Y-2.2638
X2.9488Y-3.6732
X2.9764Y-3.5197
X2.9764Y-3.5748
X2.9764Y-3.626
X2.9793Y-3.2544
X3.1063Y-2.6654
X3.1535Y-2.3701
X3.1535Y-2.4331
X3.1718Y-3.7215
X3.2283Y-3.3858
X3.2362Y-2.6575
X3.2559Y-1.685
X3.2559Y-2.4685
X3.2913Y-3.3819
X3.311Y-2.6811
X3.315Y-2.3661
X3.3228Y-3.252
X3.3307Y-2.8661
X3.3425Y-3.7205
X3.3543Y-1.8307
X3.3543Y-2.4094
X3.3976Y-1.6457
X3.4134Y-3.4488
X3.4331Y-1.5669
X3.4331Y-3.1102
X3.4541Y-3.21
X3.4646Y-3.7087
X3.4783Y-2.689
X3.5Y-3.378
X3.5039Y-3.2677
X3.563Y-2.5669
X3.5709Y-1.8268
X3.6693Y-3.0394
X3.6693Y-3.2953
X3.689Y-1.5472
X3.7008Y-3.6378
X3.7047Y-2.5276
X3.7126Y-2.3583
X3.7244Y-2.2205
X3.7402Y-3.1654
X3.748Y-3.2441
X3.7559Y-4.0748
X3.7717Y-2.0394
X3.7953Y-3.0709
X3.7953Y-3.8346
X3.8051Y-3.6358
X3.8346Y-1.878
X3.8858Y-3.3386
X3.8898Y-2.7874
X3.9646Y-2.7441
X3.9764Y-2.622
X3.9803Y-3.6339
X3.9961Y-1.6811
X3.9961Y-4.0748
X4.0374Y-2.6988
X4.0394Y-3.3858
X4.0669Y-2.0315
X4.0787Y-3.7087
X4.0866Y-2.8071
X4.0866Y-3.9567
X4.0886Y-3.0709
X4.1102Y-2.0709
X4.126Y-3.6299
X4.1339Y-3.2441
X4.1417Y-3.685
X4.1811Y-3.7717
X4.2205Y-2.4921
X4.2205Y-3.874
X4.2283Y-2.3543
X4.2362Y-3.0197
X4.252Y-2.6339
X4.2598Y-1.7874
X4.2598Y-3.5669
X4.3189Y-1.7913
X4.3189Y-2.2323
X4.3228Y-2.6024
X4.3557Y-3.5683
X4.3701Y-1.7953
X4.3701Y-3.622
X4.4016Y-2.7756
X4.4094Y-3.3543
X4.4213Y-1.7953
X4.4291Y-2.9488
X4.4291Y-3.0984
X4.4606Y-2.6969
X4.4685Y-2.189
X4.4724Y-1.9567
X4.5197Y-1.748
X4.5197Y-3.252
X4.6142Y-3.4646
X4.6378Y-3.5157
X4.6457Y-3.685
X4.6496Y-2.0472
X4.6575Y-2.315
X4.6654Y-3.0472
X4.6969Y-2.8189
X4.752Y-3.563
X4.7811Y-2.589
X4.7953Y-3.7717
X4.8071Y-2.9291
X4.8071Y-3.3858
X4.815Y-1.7598
X4.8425Y-3.9449
X4.8474Y-1.9774
X4.8504Y-1.5118
X4.8504Y-1.815
X4.8583Y-3.2047
X4.8898Y-3.6614
X4.9134Y-1.626
X4.9213Y-2.9764
X4.9606Y-2.5197
X4.9685Y-2.378
X5.0197Y-1.622
X5.0236Y-3.5551
X5.0709Y-3.3465
X5.1024Y-2.9646
X5.1142Y-2.0512
X5.1181Y-2.6772
X5.1535Y-2.3268
X5.1575Y-2.5197
X5.1614Y-3.2008
X5.1614Y-2.6417
X5.1654Y-2.7087
X5.1772Y-3.3858
X5.1969Y-2.8425
X5.2258Y-3.2047
X5.252Y-2.3228
X5.2598Y-2.5276
X5.2598Y-3.7953
X5.2677Y-2.1575
X5.2717Y-2.8858
X5.2756Y-2.7874
X5.2835Y-2.9567
X5.315Y-3.7598
X5.3228Y-3.2205
X5.3268Y-3.4094
X5.3346Y-2.3425
X5.3386Y-2.622
X5.3622Y-1.6102
X5.3976Y-2.7717
X5.4213Y-3.4213
X5.4291Y-3.689
X5.4409Y-3.2402
X5.4449Y-1.311
X5.4488Y-1.7795
X5.4528Y-1.9331
X5.4606Y-1.8819
X5.5512Y-1.5984
X5.5827Y-3.1535
X5.7047Y-1.4646
T2
X2.9213Y-1.6142
X2.9843Y-1.6142
X3.1555Y-3.9104
X3.1969Y-1.937
X3.3445Y-3.9026
X3.622Y-2.4252
X3.626Y-2.4882
X3.6496Y-1.7441
X3.6732Y-1.6811
X3.7047Y-3.9961
X3.7402Y-1.689
X3.7441Y-1.626
X3.7441Y-3.5276
X3.8071Y-3.5276
X3.811Y-4.0551
X3.9409Y-2.8189
X3.9528Y-3.3307
X4.0079Y-2.8189
X4.0315Y-3.3307
X4.0551Y-1.8386
X4.1417Y-1.7598
X4.1535Y-1.5551
X4.2362Y-2.0079
X4.2362Y-3.3228
X4.2835Y-2.4567
X4.3386Y-2.3701
X4.3425Y-1.9646
X4.4646Y-2.4173
X4.5128Y-4.064
X4.5709Y-4.063
X4.5827Y-2.3661
X4.6614Y-1.5984
X4.7047Y-2.0472
X4.7677Y-2.0472
X4.7795Y-2.8465
X4.7835Y-3.622
X4.8268Y-1.5906
X4.8346Y-2.3701
X4.8543Y-3.2598
X4.8937Y-2.7559
X4.9173Y-3.2559
X5.0315Y-3.7205
X5.0394Y-3.6614
X5.1457Y-2.1102
X5.189Y-1.811
X5.1929Y-1.8819
X5.2047Y-2.1102
X5.3583Y-3.0276
X5.5787Y-2.5984
X5.6969Y-2.5984
X5.7087Y-3.2717
X5.7126Y-1.8661
X5.7205Y-1.8031
T3
X5.4268Y-2.9425
X5.4268Y-3.0843
T4
X5.115Y-4.0354
X5.215Y-4.0354
X5.315Y-4.0354
X5.6457Y-2.8701
X5.6457Y-2.9701
X5.6457Y-3.0701
X5.6496Y-3.5402
X5.6496Y-3.6402
X5.6496Y-3.7402
T5
X3.2283Y-1.3173
X3.2283Y-1.4173
X3.3283Y-1.3173
X3.3283Y-1.4173
X3.4283Y-1.3173
X3.4283Y-1.4173
X3.5283Y-1.3173
X3.5283Y-1.4173
X3.6283Y-1.3173
X3.6283Y-1.4173
X3.7283Y-1.3173
X3.7283Y-1.4173
X3.8283Y-1.3173
X3.8283Y-1.4173
X3.9283Y-1.3173
X3.9283Y-1.4173
X4.0283Y-1.3173
X4.0283Y-1.4173
X4.1283Y-1.3173
X4.1283Y-1.4173
X4.2283Y-1.3173
X4.2283Y-1.4173
X4.3283Y-1.3173
X4.3283Y-1.4173
X4.4283Y-1.3173
X4.4283Y-1.4173
X4.5283Y-1.3173
X4.5283Y-1.4173
X4.6283Y-1.3173
X4.6283Y-1.4173
X4.7283Y-1.3173
X4.7283Y-1.4173
X4.8283Y-1.3173
X4.8283Y-1.4173
X4.9283Y-1.3173
X4.9283Y-1.4173
X5.0283Y-1.3173
X5.0283Y-1.4173
X5.1283Y-1.3173
X5.1283Y-1.4173
X5.622Y-2.2835
T0
M30
