G04 #@! TF.GenerationSoftware,KiCad,Pcbnew,(6.0.7-1)-1*
G04 #@! TF.CreationDate,2022-09-14T23:00:18-07:00*
G04 #@! TF.ProjectId,as3340,61733333-3430-42e6-9b69-6361645f7063,rev?*
G04 #@! TF.SameCoordinates,Original*
G04 #@! TF.FileFunction,Soldermask,Top*
G04 #@! TF.FilePolarity,Negative*
%FSLAX46Y46*%
G04 Gerber Fmt 4.6, Leading zero omitted, Abs format (unit mm)*
G04 Created by KiCad (PCBNEW (6.0.7-1)-1) date 2022-09-14 23:00:18*
%MOMM*%
%LPD*%
G01*
G04 APERTURE LIST*
G04 Aperture macros list*
%AMRoundRect*
0 Rectangle with rounded corners*
0 $1 Rounding radius*
0 $2 $3 $4 $5 $6 $7 $8 $9 X,Y pos of 4 corners*
0 Add a 4 corners polygon primitive as box body*
4,1,4,$2,$3,$4,$5,$6,$7,$8,$9,$2,$3,0*
0 Add four circle primitives for the rounded corners*
1,1,$1+$1,$2,$3*
1,1,$1+$1,$4,$5*
1,1,$1+$1,$6,$7*
1,1,$1+$1,$8,$9*
0 Add four rect primitives between the rounded corners*
20,1,$1+$1,$2,$3,$4,$5,0*
20,1,$1+$1,$4,$5,$6,$7,0*
20,1,$1+$1,$6,$7,$8,$9,0*
20,1,$1+$1,$8,$9,$2,$3,0*%
G04 Aperture macros list end*
G04 #@! TA.AperFunction,Profile*
%ADD10C,0.050000*%
G04 #@! TD*
G04 #@! TA.AperFunction,Profile*
%ADD11C,0.150000*%
G04 #@! TD*
%ADD12RoundRect,0.225000X0.225000X0.250000X-0.225000X0.250000X-0.225000X-0.250000X0.225000X-0.250000X0*%
%ADD13RoundRect,0.225000X-0.250000X0.225000X-0.250000X-0.225000X0.250000X-0.225000X0.250000X0.225000X0*%
%ADD14RoundRect,0.150000X0.150000X-0.825000X0.150000X0.825000X-0.150000X0.825000X-0.150000X-0.825000X0*%
%ADD15RoundRect,0.225000X-0.225000X-0.250000X0.225000X-0.250000X0.225000X0.250000X-0.225000X0.250000X0*%
%ADD16RoundRect,0.200000X0.200000X0.275000X-0.200000X0.275000X-0.200000X-0.275000X0.200000X-0.275000X0*%
%ADD17RoundRect,0.250000X0.450000X-0.262500X0.450000X0.262500X-0.450000X0.262500X-0.450000X-0.262500X0*%
%ADD18RoundRect,0.200000X-0.200000X-0.275000X0.200000X-0.275000X0.200000X0.275000X-0.200000X0.275000X0*%
%ADD19RoundRect,0.200000X-0.275000X0.200000X-0.275000X-0.200000X0.275000X-0.200000X0.275000X0.200000X0*%
%ADD20C,1.440000*%
%ADD21RoundRect,0.225000X0.250000X-0.225000X0.250000X0.225000X-0.250000X0.225000X-0.250000X-0.225000X0*%
%ADD22RoundRect,0.200000X0.275000X-0.200000X0.275000X0.200000X-0.275000X0.200000X-0.275000X-0.200000X0*%
%ADD23RoundRect,0.250000X-0.250000X-0.475000X0.250000X-0.475000X0.250000X0.475000X-0.250000X0.475000X0*%
%ADD24RoundRect,0.250000X-0.625000X0.312500X-0.625000X-0.312500X0.625000X-0.312500X0.625000X0.312500X0*%
%ADD25RoundRect,0.150000X-0.825000X-0.150000X0.825000X-0.150000X0.825000X0.150000X-0.825000X0.150000X0*%
%ADD26C,3.200000*%
%ADD27RoundRect,0.250000X-0.325000X-0.650000X0.325000X-0.650000X0.325000X0.650000X-0.325000X0.650000X0*%
%ADD28RoundRect,0.100000X-0.637500X-0.100000X0.637500X-0.100000X0.637500X0.100000X-0.637500X0.100000X0*%
%ADD29RoundRect,0.100000X0.637500X0.100000X-0.637500X0.100000X-0.637500X-0.100000X0.637500X-0.100000X0*%
%ADD30RoundRect,0.150000X-0.150000X0.825000X-0.150000X-0.825000X0.150000X-0.825000X0.150000X0.825000X0*%
%ADD31C,1.524000*%
%ADD32RoundRect,0.250000X0.325000X0.650000X-0.325000X0.650000X-0.325000X-0.650000X0.325000X-0.650000X0*%
%ADD33RoundRect,0.218750X-0.256250X0.218750X-0.256250X-0.218750X0.256250X-0.218750X0.256250X0.218750X0*%
%ADD34R,1.200000X0.900000*%
%ADD35R,2.000000X2.000000*%
%ADD36R,1.700000X1.700000*%
%ADD37O,1.700000X1.700000*%
%ADD38R,0.900000X1.200000*%
%ADD39R,1.500000X1.500000*%
%ADD40C,1.500000*%
%ADD41RoundRect,0.150000X-0.875000X-0.150000X0.875000X-0.150000X0.875000X0.150000X-0.875000X0.150000X0*%
%ADD42RoundRect,0.150000X-0.587500X-0.150000X0.587500X-0.150000X0.587500X0.150000X-0.587500X0.150000X0*%
%ADD43RoundRect,0.150000X0.587500X0.150000X-0.587500X0.150000X-0.587500X-0.150000X0.587500X-0.150000X0*%
G04 APERTURE END LIST*
D10*
X75776000Y-104000000D02*
G75*
G03*
X75776000Y-104000000I-576000J0D01*
G01*
D11*
X147000000Y-31000000D02*
G75*
G03*
X141500000Y-25500000I-5500000J0D01*
G01*
X72000000Y-25500000D02*
G75*
G03*
X67000000Y-30500000I0J-5000000D01*
G01*
X72000000Y-25500000D02*
X141500000Y-25500000D01*
X142000000Y-105500000D02*
G75*
G03*
X147000000Y-100500000I0J5000000D01*
G01*
X67000000Y-100000000D02*
G75*
G03*
X72500000Y-105500000I5500000J0D01*
G01*
X142000000Y-105500000D02*
X72500000Y-105500000D01*
X67000000Y-30500000D02*
X67000000Y-100000000D01*
X147000000Y-100500000D02*
X147000000Y-31000000D01*
D10*
X138376000Y-27000000D02*
G75*
G03*
X138376000Y-27000000I-576000J0D01*
G01*
X75776000Y-27000000D02*
G75*
G03*
X75776000Y-27000000I-576000J0D01*
G01*
D12*
X108475000Y-39525000D03*
X106925000Y-39525000D03*
X121075000Y-50800000D03*
X119525000Y-50800000D03*
D13*
X133400000Y-46125000D03*
X133400000Y-47675000D03*
D14*
X127655000Y-88575000D03*
X128925000Y-88575000D03*
X130195000Y-88575000D03*
X131465000Y-88575000D03*
X132735000Y-88575000D03*
X134005000Y-88575000D03*
X135275000Y-88575000D03*
X136545000Y-88575000D03*
X136545000Y-83625000D03*
X135275000Y-83625000D03*
X134005000Y-83625000D03*
X132735000Y-83625000D03*
X131465000Y-83625000D03*
X130195000Y-83625000D03*
X128925000Y-83625000D03*
X127655000Y-83625000D03*
D15*
X131325000Y-75100000D03*
X132875000Y-75100000D03*
X136625000Y-80800000D03*
X138175000Y-80800000D03*
X123325000Y-84200000D03*
X124875000Y-84200000D03*
D12*
X127875000Y-75100000D03*
X126325000Y-75100000D03*
D16*
X132925000Y-91500000D03*
X131275000Y-91500000D03*
X134925000Y-77600000D03*
X133275000Y-77600000D03*
D17*
X131100000Y-79512500D03*
X131100000Y-77687500D03*
D18*
X137950000Y-92375000D03*
X139600000Y-92375000D03*
D16*
X126625000Y-93400000D03*
X124975000Y-93400000D03*
X124925000Y-86000000D03*
X123275000Y-86000000D03*
D19*
X120700000Y-87675000D03*
X120700000Y-89325000D03*
D17*
X128100000Y-79512500D03*
X128100000Y-77687500D03*
D20*
X143500000Y-95000000D03*
X143500000Y-92460000D03*
X143500000Y-89920000D03*
X135000000Y-102500000D03*
X132460000Y-102500000D03*
X129920000Y-102500000D03*
D12*
X132275000Y-54800000D03*
X130725000Y-54800000D03*
D21*
X132200000Y-68175000D03*
X132200000Y-66625000D03*
D19*
X134000000Y-68175000D03*
X134000000Y-69825000D03*
D18*
X136675000Y-68500000D03*
X138325000Y-68500000D03*
D16*
X135825000Y-65500000D03*
X134175000Y-65500000D03*
D21*
X97400000Y-85675000D03*
X97400000Y-84125000D03*
D18*
X92575000Y-103500000D03*
X94225000Y-103500000D03*
X119375000Y-70300000D03*
X121025000Y-70300000D03*
D12*
X114875000Y-69700000D03*
X113325000Y-69700000D03*
D18*
X134775000Y-54800000D03*
X136425000Y-54800000D03*
D12*
X101425000Y-83600000D03*
X99875000Y-83600000D03*
D15*
X99625000Y-72800000D03*
X101175000Y-72800000D03*
D13*
X122800000Y-70025000D03*
X122800000Y-71575000D03*
D15*
X113525000Y-59700000D03*
X115075000Y-59700000D03*
D16*
X88925000Y-89400000D03*
X87275000Y-89400000D03*
X122325000Y-81400000D03*
X120675000Y-81400000D03*
D18*
X87275000Y-91300000D03*
X88925000Y-91300000D03*
X90875000Y-101500000D03*
X92525000Y-101500000D03*
X91175000Y-91200000D03*
X92825000Y-91200000D03*
D19*
X121400000Y-100175000D03*
X121400000Y-101825000D03*
D15*
X95125000Y-91000000D03*
X96675000Y-91000000D03*
D12*
X96875000Y-101600000D03*
X95325000Y-101600000D03*
D18*
X114775000Y-88000000D03*
X116425000Y-88000000D03*
D22*
X104600000Y-96825000D03*
X104600000Y-95175000D03*
D16*
X113825000Y-90500000D03*
X112175000Y-90500000D03*
X117825000Y-90500000D03*
X116175000Y-90500000D03*
D15*
X114625000Y-101800000D03*
X116175000Y-101800000D03*
D16*
X103825000Y-90600000D03*
X102175000Y-90600000D03*
D19*
X85000000Y-84175000D03*
X85000000Y-85825000D03*
X84400000Y-79975000D03*
X84400000Y-81625000D03*
D23*
X81500000Y-98425000D03*
X83400000Y-98425000D03*
D15*
X81475000Y-96225000D03*
X83025000Y-96225000D03*
D24*
X75675000Y-84100000D03*
X75675000Y-87025000D03*
D13*
X81300000Y-60225000D03*
X81300000Y-61775000D03*
D16*
X101425000Y-86000000D03*
X99775000Y-86000000D03*
D15*
X107225000Y-49800000D03*
X108775000Y-49800000D03*
D18*
X128575000Y-65600000D03*
X130225000Y-65600000D03*
D25*
X135925000Y-42690000D03*
X135925000Y-43960000D03*
X135925000Y-45230000D03*
X135925000Y-46500000D03*
X135925000Y-47770000D03*
X135925000Y-49040000D03*
X135925000Y-50310000D03*
X140875000Y-50310000D03*
X140875000Y-49040000D03*
X140875000Y-47770000D03*
X140875000Y-46500000D03*
X140875000Y-45230000D03*
X140875000Y-43960000D03*
X140875000Y-42690000D03*
D22*
X85400000Y-92925000D03*
X85400000Y-91275000D03*
D16*
X100225000Y-91000000D03*
X98575000Y-91000000D03*
D22*
X86600000Y-81625000D03*
X86600000Y-79975000D03*
D26*
X71400000Y-29800000D03*
X71600000Y-101200000D03*
X142400000Y-29800000D03*
X142400000Y-101200000D03*
D16*
X112225000Y-88400000D03*
X110575000Y-88400000D03*
D27*
X141725000Y-67700000D03*
X144675000Y-67700000D03*
D28*
X74937500Y-64025000D03*
X74937500Y-64675000D03*
X74937500Y-65325000D03*
X74937500Y-65975000D03*
X74937500Y-66625000D03*
X74937500Y-67275000D03*
X74937500Y-67925000D03*
X74937500Y-68575000D03*
X74937500Y-69225000D03*
X74937500Y-69875000D03*
X74937500Y-70525000D03*
X74937500Y-71175000D03*
X80662500Y-71175000D03*
X80662500Y-70525000D03*
X80662500Y-69875000D03*
X80662500Y-69225000D03*
X80662500Y-68575000D03*
X80662500Y-67925000D03*
X80662500Y-67275000D03*
X80662500Y-66625000D03*
X80662500Y-65975000D03*
X80662500Y-65325000D03*
X80662500Y-64675000D03*
X80662500Y-64025000D03*
D29*
X79025000Y-94000000D03*
X79025000Y-93350000D03*
X79025000Y-92700000D03*
X79025000Y-92050000D03*
X79025000Y-91400000D03*
X79025000Y-90750000D03*
X79025000Y-90100000D03*
X79025000Y-89450000D03*
X73300000Y-89450000D03*
X73300000Y-90100000D03*
X73300000Y-90750000D03*
X73300000Y-91400000D03*
X73300000Y-92050000D03*
X73300000Y-92700000D03*
X73300000Y-93350000D03*
X73300000Y-94000000D03*
D22*
X87600000Y-85825000D03*
X87600000Y-84175000D03*
D18*
X124375000Y-100200000D03*
X126025000Y-100200000D03*
D22*
X125400000Y-67425000D03*
X125400000Y-65775000D03*
D18*
X91875000Y-65800000D03*
X93525000Y-65800000D03*
X119775000Y-58800000D03*
X121425000Y-58800000D03*
D16*
X110325000Y-55600000D03*
X108675000Y-55600000D03*
X109825000Y-65000000D03*
X108175000Y-65000000D03*
D18*
X127475000Y-44400000D03*
X129125000Y-44400000D03*
D30*
X122710000Y-62125000D03*
X121440000Y-62125000D03*
X120170000Y-62125000D03*
X118900000Y-62125000D03*
X117630000Y-62125000D03*
X116360000Y-62125000D03*
X115090000Y-62125000D03*
X115090000Y-67075000D03*
X116360000Y-67075000D03*
X117630000Y-67075000D03*
X118900000Y-67075000D03*
X120170000Y-67075000D03*
X121440000Y-67075000D03*
X122710000Y-67075000D03*
X105045000Y-75725000D03*
X103775000Y-75725000D03*
X102505000Y-75725000D03*
X101235000Y-75725000D03*
X99965000Y-75725000D03*
X98695000Y-75725000D03*
X97425000Y-75725000D03*
X96155000Y-75725000D03*
X96155000Y-80675000D03*
X97425000Y-80675000D03*
X98695000Y-80675000D03*
X99965000Y-80675000D03*
X101235000Y-80675000D03*
X102505000Y-80675000D03*
X103775000Y-80675000D03*
X105045000Y-80675000D03*
D18*
X127475000Y-46500000D03*
X129125000Y-46500000D03*
D30*
X136110000Y-57425000D03*
X134840000Y-57425000D03*
X133570000Y-57425000D03*
X132300000Y-57425000D03*
X131030000Y-57425000D03*
X129760000Y-57425000D03*
X128490000Y-57425000D03*
X128490000Y-62375000D03*
X129760000Y-62375000D03*
X131030000Y-62375000D03*
X132300000Y-62375000D03*
X133570000Y-62375000D03*
X134840000Y-62375000D03*
X136110000Y-62375000D03*
D18*
X91775000Y-58700000D03*
X93425000Y-58700000D03*
D31*
X137840000Y-78340000D03*
X137840000Y-74740000D03*
D32*
X144975000Y-85000000D03*
X142025000Y-85000000D03*
D22*
X72200000Y-69625000D03*
X72200000Y-67975000D03*
D33*
X72200000Y-72412500D03*
X72200000Y-73987500D03*
D34*
X93200000Y-82350000D03*
X93200000Y-85650000D03*
D15*
X96025000Y-72800000D03*
X97575000Y-72800000D03*
X107225000Y-93600000D03*
X108775000Y-93600000D03*
D18*
X95975000Y-70800000D03*
X97625000Y-70800000D03*
D35*
X129400000Y-97800000D03*
D19*
X108500000Y-99775000D03*
X108500000Y-101425000D03*
D22*
X106300000Y-101425000D03*
X106300000Y-99775000D03*
D13*
X129000000Y-92975000D03*
X129000000Y-94525000D03*
D35*
X116400000Y-74300000D03*
D16*
X143625000Y-37200000D03*
X141975000Y-37200000D03*
D18*
X124775000Y-81200000D03*
X126425000Y-81200000D03*
D16*
X129125000Y-42300000D03*
X127475000Y-42300000D03*
D30*
X124845000Y-43125000D03*
X123575000Y-43125000D03*
X122305000Y-43125000D03*
X121035000Y-43125000D03*
X119765000Y-43125000D03*
X118495000Y-43125000D03*
X117225000Y-43125000D03*
X115955000Y-43125000D03*
X115955000Y-48075000D03*
X117225000Y-48075000D03*
X118495000Y-48075000D03*
X119765000Y-48075000D03*
X121035000Y-48075000D03*
X122305000Y-48075000D03*
X123575000Y-48075000D03*
X124845000Y-48075000D03*
D36*
X82000000Y-36000000D03*
D37*
X82000000Y-33460000D03*
X84540000Y-36000000D03*
X84540000Y-33460000D03*
X87080000Y-36000000D03*
X87080000Y-33460000D03*
X89620000Y-36000000D03*
X89620000Y-33460000D03*
X92160000Y-36000000D03*
X92160000Y-33460000D03*
X94700000Y-36000000D03*
X94700000Y-33460000D03*
X97240000Y-36000000D03*
X97240000Y-33460000D03*
X99780000Y-36000000D03*
X99780000Y-33460000D03*
X102320000Y-36000000D03*
X102320000Y-33460000D03*
X104860000Y-36000000D03*
X104860000Y-33460000D03*
X107400000Y-36000000D03*
X107400000Y-33460000D03*
X109940000Y-36000000D03*
X109940000Y-33460000D03*
X112480000Y-36000000D03*
X112480000Y-33460000D03*
X115020000Y-36000000D03*
X115020000Y-33460000D03*
X117560000Y-36000000D03*
X117560000Y-33460000D03*
X120100000Y-36000000D03*
X120100000Y-33460000D03*
X122640000Y-36000000D03*
X122640000Y-33460000D03*
X125180000Y-36000000D03*
X125180000Y-33460000D03*
X127720000Y-36000000D03*
X127720000Y-33460000D03*
X130260000Y-36000000D03*
X130260000Y-33460000D03*
D15*
X119625000Y-40600000D03*
X121175000Y-40600000D03*
X74225000Y-42500000D03*
X75775000Y-42500000D03*
D18*
X98675000Y-103500000D03*
X100325000Y-103500000D03*
D16*
X100325000Y-101600000D03*
X98675000Y-101600000D03*
D14*
X104705000Y-47125000D03*
X105975000Y-47125000D03*
X107245000Y-47125000D03*
X108515000Y-47125000D03*
X109785000Y-47125000D03*
X111055000Y-47125000D03*
X112325000Y-47125000D03*
X113595000Y-47125000D03*
X113595000Y-42175000D03*
X112325000Y-42175000D03*
X111055000Y-42175000D03*
X109785000Y-42175000D03*
X108515000Y-42175000D03*
X107245000Y-42175000D03*
X105975000Y-42175000D03*
X104705000Y-42175000D03*
D35*
X124200000Y-95800000D03*
D38*
X140350000Y-34900000D03*
X143650000Y-34900000D03*
D13*
X143400000Y-45825000D03*
X143400000Y-47375000D03*
D16*
X141525000Y-52600000D03*
X139875000Y-52600000D03*
D22*
X143400000Y-50825000D03*
X143400000Y-49175000D03*
X135300000Y-39925000D03*
X135300000Y-38275000D03*
X116800000Y-71825000D03*
X116800000Y-70175000D03*
D35*
X72200000Y-86500000D03*
D39*
X143400000Y-72900000D03*
D40*
X143400000Y-75440000D03*
X143400000Y-77980000D03*
D30*
X99010000Y-93995000D03*
X97740000Y-93995000D03*
X96470000Y-93995000D03*
X95200000Y-93995000D03*
X93930000Y-93995000D03*
X92660000Y-93995000D03*
X91390000Y-93995000D03*
X91390000Y-98945000D03*
X92660000Y-98945000D03*
X93930000Y-98945000D03*
X95200000Y-98945000D03*
X96470000Y-98945000D03*
X97740000Y-98945000D03*
X99010000Y-98945000D03*
D21*
X108800000Y-61175000D03*
X108800000Y-59625000D03*
X93300000Y-62775000D03*
X93300000Y-61225000D03*
X131400000Y-51075000D03*
X131400000Y-49525000D03*
D13*
X131200000Y-42425000D03*
X131200000Y-43975000D03*
D22*
X133400000Y-44025000D03*
X133400000Y-42375000D03*
D16*
X139025000Y-39800000D03*
X137375000Y-39800000D03*
D19*
X143400000Y-42375000D03*
X143400000Y-44025000D03*
D22*
X143400000Y-40525000D03*
X143400000Y-38875000D03*
D35*
X139300000Y-64800000D03*
D18*
X90375000Y-67900000D03*
X92025000Y-67900000D03*
D16*
X110325000Y-57600000D03*
X108675000Y-57600000D03*
D19*
X93300000Y-55275000D03*
X93300000Y-56925000D03*
D41*
X96150000Y-56085000D03*
X96150000Y-57355000D03*
X96150000Y-58625000D03*
X96150000Y-59895000D03*
X96150000Y-61165000D03*
X96150000Y-62435000D03*
X96150000Y-63705000D03*
X96150000Y-64975000D03*
X96150000Y-66245000D03*
X96150000Y-67515000D03*
X105450000Y-67515000D03*
X105450000Y-66245000D03*
X105450000Y-64975000D03*
X105450000Y-63705000D03*
X105450000Y-62435000D03*
X105450000Y-61165000D03*
X105450000Y-59895000D03*
X105450000Y-58625000D03*
X105450000Y-57355000D03*
X105450000Y-56085000D03*
D42*
X78462500Y-85050000D03*
X78462500Y-86950000D03*
X80337500Y-86000000D03*
D30*
X114405000Y-93925000D03*
X113135000Y-93925000D03*
X111865000Y-93925000D03*
X110595000Y-93925000D03*
X110595000Y-98875000D03*
X111865000Y-98875000D03*
X113135000Y-98875000D03*
X114405000Y-98875000D03*
D18*
X106175000Y-72500000D03*
X107825000Y-72500000D03*
D19*
X133400000Y-49475000D03*
X133400000Y-51125000D03*
D18*
X107875000Y-79000000D03*
X109525000Y-79000000D03*
D15*
X109525000Y-77000000D03*
X111075000Y-77000000D03*
D16*
X138725000Y-72400000D03*
X137075000Y-72400000D03*
D21*
X85400000Y-89375000D03*
X85400000Y-87825000D03*
D22*
X126400000Y-57225000D03*
X126400000Y-55575000D03*
D34*
X93200000Y-72750000D03*
X93200000Y-76050000D03*
D14*
X75795000Y-49975000D03*
X77065000Y-49975000D03*
X78335000Y-49975000D03*
X79605000Y-49975000D03*
X79605000Y-45025000D03*
X78335000Y-45025000D03*
X77065000Y-45025000D03*
X75795000Y-45025000D03*
D43*
X101737500Y-53550000D03*
X101737500Y-51650000D03*
X99862500Y-52600000D03*
D19*
X97000000Y-51775000D03*
X97000000Y-53425000D03*
D36*
X142800000Y-58000000D03*
D35*
X125300000Y-103100000D03*
D27*
X118525000Y-56400000D03*
X121475000Y-56400000D03*
M02*
