M48
; DRILL file {KiCad (6.0.7-1)-1} date Thursday, November 24, 2022 at 12:50:55 PM
; FORMAT={-:-/ absolute / inch / decimal}
; #@! TF.CreationDate,2022-11-24T12:50:55-08:00
; #@! TF.GenerationSoftware,Kicad,Pcbnew,(6.0.7-1)-1
; #@! TF.FileFunction,Plated,1,4,PTH
FMAT,2
INCH
; #@! TA.AperFunction,Plated,PTH,ViaDrill
T1C0.0157
; #@! TA.AperFunction,Plated,PTH,ViaDrill
T2C0.0197
; #@! TA.AperFunction,Plated,PTH,ComponentDrill
T3C0.0300
; #@! TA.AperFunction,Plated,PTH,ComponentDrill
T4C0.0315
; #@! TA.AperFunction,Plated,PTH,ComponentDrill
T5C0.0394
%
G90
G05
T1
X0.2677Y0.5472
X0.2992Y0.9114
X0.3524Y1.3907
X0.3543Y2.5551
X0.3858Y2.7717
X0.4055Y1.9291
X0.4094Y0.5197
X0.437Y0.6732
X0.437Y0.6181
X0.437Y0.5669
X0.44Y0.9385
X0.5669Y1.5276
X0.5945Y1.0433
X0.6142Y1.8228
X0.6142Y1.7598
X0.6324Y0.4715
X0.6437Y0.7146
X0.6969Y1.5354
X0.7165Y2.5079
X0.7165Y1.7244
X0.752Y0.811
X0.7717Y1.5118
X0.7756Y1.8268
X0.7776Y0.7343
X0.7835Y0.9409
X0.7913Y1.3268
X0.8031Y0.4724
X0.815Y2.3622
X0.815Y1.7835
X0.8701Y2.5551
X0.8858Y0.7677
X0.8937Y2.626
X0.8937Y1.0827
X0.9147Y0.9829
X0.9252Y0.4843
X0.939Y1.5039
X0.9646Y0.9252
X0.9646Y0.7677
X1.0236Y1.626
X1.0315Y2.3661
X1.1299Y1.1535
X1.1299Y0.8976
X1.1496Y2.6457
X1.1516Y0.1929
X1.1614Y0.5551
X1.1654Y1.6654
X1.1732Y1.8346
X1.185Y1.9724
X1.2008Y1.0276
X1.2087Y0.9488
X1.2323Y2.1535
X1.2559Y1.122
X1.2559Y0.3583
X1.2657Y0.5571
X1.2953Y2.315
X1.311Y0.189
X1.3228Y0.122
X1.3465Y2.0157
X1.3465Y0.8543
X1.3504Y1.4055
X1.4252Y1.4488
X1.437Y1.5709
X1.4409Y0.5591
X1.4567Y2.5118
X1.4567Y2.1693
X1.4606Y0.2992
X1.4685Y2.0748
X1.498Y1.4941
X1.5Y0.8071
X1.5394Y0.4843
X1.5472Y1.3858
X1.5492Y1.122
X1.5866Y0.5709
X1.5945Y0.9488
X1.6024Y0.5079
X1.6417Y0.4213
X1.6732Y0.3307
X1.6811Y1.7008
X1.689Y1.8386
X1.6969Y1.1732
X1.7126Y1.5591
X1.7126Y0.689
X1.7205Y2.4055
X1.7795Y2.4016
X1.7795Y1.9606
X1.7835Y1.5906
X1.8163Y0.6246
X1.8307Y2.3976
X1.8307Y0.5709
X1.8622Y1.4173
X1.8701Y0.8386
X1.878Y0.1654
X1.8819Y2.3976
X1.8898Y1.2441
X1.8898Y1.0945
X1.9213Y1.4961
X1.9291Y2.0039
X1.9331Y2.2362
X1.9803Y0.9488
X2.0748Y2.5591
X2.0748Y0.7283
X2.0984Y0.6772
X2.1063Y0.5079
X2.1102Y2.1457
X2.1181Y1.878
X2.126Y1.1457
X2.2126Y0.6299
X2.2559Y0.4213
X2.2677Y1.2638
X2.2677Y0.8071
X2.2756Y2.4331
X2.3031Y0.248
X2.3081Y2.2156
X2.311Y2.6811
X2.311Y2.378
X2.3189Y0.9882
X2.3504Y0.5315
X2.374Y2.5669
X2.3819Y1.4961
X2.3858Y1.2362
X2.4213Y1.6102
X2.4291Y1.815
X2.4803Y2.5709
X2.4843Y0.6378
X2.5315Y0.8465
X2.5748Y2.1772
X2.5787Y1.5079
X2.6142Y1.8661
X2.6181Y1.6732
X2.622Y2.1142
X2.622Y0.9882
X2.622Y1.5512
X2.6339Y1.4606
X2.6378Y0.8071
X2.6575Y1.3504
X2.6732Y1.8386
X2.6864Y0.9882
X2.7047Y2.8228
X2.7205Y1.8071
X2.7205Y0.3976
X2.7323Y1.3071
X2.7362Y1.4055
X2.7441Y1.2362
X2.7756Y0.4331
X2.7835Y0.9724
X2.7874Y0.7835
X2.7992Y1.5709
X2.8189Y1.815
X2.8228Y2.5827
X2.8583Y1.4213
X2.8819Y0.7717
X2.8898Y0.5039
X2.9016Y0.9528
X2.9055Y2.8819
X2.9094Y2.4134
X2.9134Y2.2598
X2.9213Y2.311
X3.0118Y2.5945
X3.0433Y1.0394
X3.1654Y2.7283
T2
X0.4449Y2.6024
X0.5079Y2.6024
X0.6575Y2.2559
X0.6732Y0.2559
X0.7441Y0.2559
X1.0827Y1.7677
X1.0866Y1.7047
X1.1102Y2.4488
X1.1339Y2.5118
X1.2008Y2.5039
X1.2047Y2.5669
X1.2047Y0.6654
X1.2677Y0.6654
X1.4016Y1.374
X1.4134Y0.8622
X1.4685Y1.374
X1.4921Y0.8622
X1.5197Y2.3583
X1.6024Y2.4331
X1.6142Y2.6378
X1.6969Y2.185
X1.6969Y0.8701
X1.7854Y2.1909
X1.7953Y1.7756
X1.7992Y1.8543
X1.9252Y1.7756
X1.9734Y0.1289
X2.0315Y0.1299
X2.0433Y1.8268
X2.122Y2.5945
X2.1654Y2.1457
X2.2283Y2.1457
X2.2323Y1.4016
X2.2441Y0.5709
X2.2874Y2.6024
X2.2953Y1.8228
X2.2992Y1.3976
X2.315Y0.9331
X2.378Y0.937
X2.4921Y0.4724
X2.5Y0.5315
X2.5748Y2.0669
X2.6496Y2.3819
X2.6535Y2.311
X2.7165Y2.0551
X2.8189Y1.1654
X3.0394Y1.5945
X3.1575Y1.5945
X3.1693Y0.9213
X3.1732Y2.3268
X3.1811Y2.3898
T3
X2.8874Y1.2504
X2.8874Y1.1087
T4
X2.5756Y0.1575
X2.6756Y0.1575
X2.7756Y0.1575
X3.1063Y1.3228
X3.1063Y1.2228
X3.1063Y1.1228
X3.1102Y0.6528
X3.1102Y0.5528
X3.1102Y0.4528
T5
X0.315Y2.3376
X0.315Y2.2376
X0.689Y2.8756
X0.689Y2.7756
X0.789Y2.8756
X0.789Y2.7756
X0.889Y2.8756
X0.889Y2.7756
X0.989Y2.8756
X0.989Y2.7756
X1.089Y2.8756
X1.089Y2.7756
X1.189Y2.8756
X1.189Y2.7756
X1.289Y2.8756
X1.289Y2.7756
X1.389Y2.8756
X1.389Y2.7756
X1.489Y2.8756
X1.489Y2.7756
X1.589Y2.8756
X1.589Y2.7756
X1.689Y2.8756
X1.689Y2.7756
X1.789Y2.8756
X1.789Y2.7756
X1.889Y2.8756
X1.889Y2.7756
X1.989Y2.8756
X1.989Y2.7756
X2.089Y2.8756
X2.089Y2.7756
X2.189Y2.8756
X2.189Y2.7756
X2.289Y2.8756
X2.289Y2.7756
X2.389Y2.8756
X2.389Y2.7756
X2.489Y2.8756
X2.489Y2.7756
X2.589Y2.8756
X2.589Y2.7756
X3.0827Y1.9094
T0
M30
