G04 #@! TF.GenerationSoftware,KiCad,Pcbnew,(6.0.7-1)-1*
G04 #@! TF.CreationDate,2022-11-22T15:05:13-08:00*
G04 #@! TF.ProjectId,as3340,61733333-3430-42e6-9b69-6361645f7063,rev?*
G04 #@! TF.SameCoordinates,PX3d83120PY6590fa0*
G04 #@! TF.FileFunction,Legend,Bot*
G04 #@! TF.FilePolarity,Positive*
%FSLAX46Y46*%
G04 Gerber Fmt 4.6, Leading zero omitted, Abs format (unit mm)*
G04 Created by KiCad (PCBNEW (6.0.7-1)-1) date 2022-11-22 15:05:13*
%MOMM*%
%LPD*%
G01*
G04 APERTURE LIST*
%ADD10C,0.150000*%
G04 #@! TA.AperFunction,Profile*
%ADD11C,0.150000*%
G04 #@! TD*
G04 #@! TA.AperFunction,Profile*
%ADD12C,0.050000*%
G04 #@! TD*
%ADD13C,0.090000*%
G04 APERTURE END LIST*
D10*
X47400000Y60000000D02*
X11800000Y60000000D01*
X11800000Y60000000D02*
X11800000Y46100000D01*
X11800000Y46100000D02*
X47400000Y46100000D01*
X47400000Y46100000D02*
X47400000Y60000000D01*
D11*
X82500000Y75500000D02*
G75*
G03*
X77000000Y81000000I-5500000J0D01*
G01*
X7500000Y81000000D02*
G75*
G03*
X2500000Y76000000I0J-5000000D01*
G01*
X7500000Y81000000D02*
X77000000Y81000000D01*
X77500000Y1000000D02*
G75*
G03*
X82500000Y6000000I0J5000000D01*
G01*
X2500000Y6500000D02*
G75*
G03*
X8000000Y1000000I5500000J0D01*
G01*
X77500000Y1000000D02*
X8000000Y1000000D01*
X2500000Y76000000D02*
X2500000Y6500000D01*
X82500000Y6000000D02*
X82500000Y75500000D01*
D12*
X73876000Y79500000D02*
G75*
G03*
X73876000Y79500000I-576000J0D01*
G01*
X11276000Y2500000D02*
G75*
G03*
X11276000Y2500000I-576000J0D01*
G01*
X11276000Y79500000D02*
G75*
G03*
X11276000Y79500000I-576000J0D01*
G01*
D13*
X46246261Y58777620D02*
X45674833Y58777620D01*
X45960547Y57777620D02*
X45960547Y58777620D01*
X45341500Y58301429D02*
X45008166Y58301429D01*
X44865309Y57777620D02*
X45341500Y57777620D01*
X45341500Y58777620D01*
X44865309Y58777620D01*
X44484357Y57825239D02*
X44341500Y57777620D01*
X44103404Y57777620D01*
X44008166Y57825239D01*
X43960547Y57872858D01*
X43912928Y57968096D01*
X43912928Y58063334D01*
X43960547Y58158572D01*
X44008166Y58206191D01*
X44103404Y58253810D01*
X44293880Y58301429D01*
X44389119Y58349048D01*
X44436738Y58396667D01*
X44484357Y58491905D01*
X44484357Y58587143D01*
X44436738Y58682381D01*
X44389119Y58730000D01*
X44293880Y58777620D01*
X44055785Y58777620D01*
X43912928Y58730000D01*
X43627214Y58777620D02*
X43055785Y58777620D01*
X43341500Y57777620D02*
X43341500Y58777620D01*
X41960547Y57777620D02*
X41960547Y58777620D01*
X41579595Y58777620D01*
X41484357Y58730000D01*
X41436738Y58682381D01*
X41389119Y58587143D01*
X41389119Y58444286D01*
X41436738Y58349048D01*
X41484357Y58301429D01*
X41579595Y58253810D01*
X41960547Y58253810D01*
X40770071Y58777620D02*
X40579595Y58777620D01*
X40484357Y58730000D01*
X40389119Y58634762D01*
X40341500Y58444286D01*
X40341500Y58110953D01*
X40389119Y57920477D01*
X40484357Y57825239D01*
X40579595Y57777620D01*
X40770071Y57777620D01*
X40865309Y57825239D01*
X40960547Y57920477D01*
X41008166Y58110953D01*
X41008166Y58444286D01*
X40960547Y58634762D01*
X40865309Y58730000D01*
X40770071Y58777620D01*
X39912928Y57777620D02*
X39912928Y58777620D01*
X39436738Y57777620D02*
X39436738Y58777620D01*
X38865309Y57777620D01*
X38865309Y58777620D01*
X38531976Y58777620D02*
X37960547Y58777620D01*
X38246261Y57777620D02*
X38246261Y58777620D01*
X37674833Y57825239D02*
X37531976Y57777620D01*
X37293880Y57777620D01*
X37198642Y57825239D01*
X37151023Y57872858D01*
X37103404Y57968096D01*
X37103404Y58063334D01*
X37151023Y58158572D01*
X37198642Y58206191D01*
X37293880Y58253810D01*
X37484357Y58301429D01*
X37579595Y58349048D01*
X37627214Y58396667D01*
X37674833Y58491905D01*
X37674833Y58587143D01*
X37627214Y58682381D01*
X37579595Y58730000D01*
X37484357Y58777620D01*
X37246261Y58777620D01*
X37103404Y58730000D01*
X46246261Y57167620D02*
X45674833Y57167620D01*
X45960547Y56167620D02*
X45960547Y57167620D01*
X45341500Y56167620D02*
X45341500Y57167620D01*
X44960547Y57167620D01*
X44865309Y57120000D01*
X44817690Y57072381D01*
X44770071Y56977143D01*
X44770071Y56834286D01*
X44817690Y56739048D01*
X44865309Y56691429D01*
X44960547Y56643810D01*
X45341500Y56643810D01*
X43817690Y56167620D02*
X44389119Y56167620D01*
X44103404Y56167620D02*
X44103404Y57167620D01*
X44198642Y57024762D01*
X44293880Y56929524D01*
X44389119Y56881905D01*
X42627214Y56262858D02*
X42579595Y56215239D01*
X42627214Y56167620D01*
X42674833Y56215239D01*
X42627214Y56262858D01*
X42627214Y56167620D01*
X42627214Y56786667D02*
X42579595Y56739048D01*
X42627214Y56691429D01*
X42674833Y56739048D01*
X42627214Y56786667D01*
X42627214Y56691429D01*
X41389119Y56167620D02*
X41389119Y57167620D01*
X41389119Y56691429D02*
X40817690Y56691429D01*
X40817690Y56167620D02*
X40817690Y57167620D01*
X40389119Y56453334D02*
X39912928Y56453334D01*
X40484357Y56167620D02*
X40151023Y57167620D01*
X39817690Y56167620D01*
X38912928Y56167620D02*
X39246261Y56643810D01*
X39484357Y56167620D02*
X39484357Y57167620D01*
X39103404Y57167620D01*
X39008166Y57120000D01*
X38960547Y57072381D01*
X38912928Y56977143D01*
X38912928Y56834286D01*
X38960547Y56739048D01*
X39008166Y56691429D01*
X39103404Y56643810D01*
X39484357Y56643810D01*
X38484357Y56167620D02*
X38484357Y57167620D01*
X38246261Y57167620D01*
X38103404Y57120000D01*
X38008166Y57024762D01*
X37960547Y56929524D01*
X37912928Y56739048D01*
X37912928Y56596191D01*
X37960547Y56405715D01*
X38008166Y56310477D01*
X38103404Y56215239D01*
X38246261Y56167620D01*
X38484357Y56167620D01*
X36770071Y56215239D02*
X36627214Y56167620D01*
X36389119Y56167620D01*
X36293880Y56215239D01*
X36246261Y56262858D01*
X36198642Y56358096D01*
X36198642Y56453334D01*
X36246261Y56548572D01*
X36293880Y56596191D01*
X36389119Y56643810D01*
X36579595Y56691429D01*
X36674833Y56739048D01*
X36722452Y56786667D01*
X36770071Y56881905D01*
X36770071Y56977143D01*
X36722452Y57072381D01*
X36674833Y57120000D01*
X36579595Y57167620D01*
X36341500Y57167620D01*
X36198642Y57120000D01*
X35579595Y56643810D02*
X35579595Y56167620D01*
X35912928Y57167620D02*
X35579595Y56643810D01*
X35246261Y57167620D01*
X34912928Y56167620D02*
X34912928Y57167620D01*
X34341500Y56167620D01*
X34341500Y57167620D01*
X33293880Y56262858D02*
X33341500Y56215239D01*
X33484357Y56167620D01*
X33579595Y56167620D01*
X33722452Y56215239D01*
X33817690Y56310477D01*
X33865309Y56405715D01*
X33912928Y56596191D01*
X33912928Y56739048D01*
X33865309Y56929524D01*
X33817690Y57024762D01*
X33722452Y57120000D01*
X33579595Y57167620D01*
X33484357Y57167620D01*
X33341500Y57120000D01*
X33293880Y57072381D01*
X32103404Y56167620D02*
X32103404Y57167620D01*
X31627214Y56167620D02*
X31627214Y57167620D01*
X31055785Y56167620D01*
X31055785Y57167620D01*
X30579595Y56167620D02*
X30579595Y57167620D01*
X30198642Y57167620D01*
X30103404Y57120000D01*
X30055785Y57072381D01*
X30008166Y56977143D01*
X30008166Y56834286D01*
X30055785Y56739048D01*
X30103404Y56691429D01*
X30198642Y56643810D01*
X30579595Y56643810D01*
X29579595Y57167620D02*
X29579595Y56358096D01*
X29531976Y56262858D01*
X29484357Y56215239D01*
X29389119Y56167620D01*
X29198642Y56167620D01*
X29103404Y56215239D01*
X29055785Y56262858D01*
X29008166Y56358096D01*
X29008166Y57167620D01*
X28674833Y57167620D02*
X28103404Y57167620D01*
X28389119Y56167620D02*
X28389119Y57167620D01*
X46246261Y55557620D02*
X45674833Y55557620D01*
X45960547Y54557620D02*
X45960547Y55557620D01*
X45341500Y54557620D02*
X45341500Y55557620D01*
X44960547Y55557620D01*
X44865309Y55510000D01*
X44817690Y55462381D01*
X44770071Y55367143D01*
X44770071Y55224286D01*
X44817690Y55129048D01*
X44865309Y55081429D01*
X44960547Y55033810D01*
X45341500Y55033810D01*
X44389119Y55462381D02*
X44341500Y55510000D01*
X44246261Y55557620D01*
X44008166Y55557620D01*
X43912928Y55510000D01*
X43865309Y55462381D01*
X43817690Y55367143D01*
X43817690Y55271905D01*
X43865309Y55129048D01*
X44436738Y54557620D01*
X43817690Y54557620D01*
X42627214Y54652858D02*
X42579595Y54605239D01*
X42627214Y54557620D01*
X42674833Y54605239D01*
X42627214Y54652858D01*
X42627214Y54557620D01*
X42627214Y55176667D02*
X42579595Y55129048D01*
X42627214Y55081429D01*
X42674833Y55129048D01*
X42627214Y55176667D01*
X42627214Y55081429D01*
X41436738Y54605239D02*
X41293880Y54557620D01*
X41055785Y54557620D01*
X40960547Y54605239D01*
X40912928Y54652858D01*
X40865309Y54748096D01*
X40865309Y54843334D01*
X40912928Y54938572D01*
X40960547Y54986191D01*
X41055785Y55033810D01*
X41246261Y55081429D01*
X41341500Y55129048D01*
X41389119Y55176667D01*
X41436738Y55271905D01*
X41436738Y55367143D01*
X41389119Y55462381D01*
X41341500Y55510000D01*
X41246261Y55557620D01*
X41008166Y55557620D01*
X40865309Y55510000D01*
X40484357Y54843334D02*
X40008166Y54843334D01*
X40579595Y54557620D02*
X40246261Y55557620D01*
X39912928Y54557620D01*
X39674833Y55557620D02*
X39436738Y54557620D01*
X39246261Y55271905D01*
X39055785Y54557620D01*
X38817690Y55557620D01*
X37341500Y55081429D02*
X37674833Y55081429D01*
X37674833Y54557620D02*
X37674833Y55557620D01*
X37198642Y55557620D01*
X36246261Y54557620D02*
X36579595Y55033810D01*
X36817690Y54557620D02*
X36817690Y55557620D01*
X36436738Y55557620D01*
X36341500Y55510000D01*
X36293880Y55462381D01*
X36246261Y55367143D01*
X36246261Y55224286D01*
X36293880Y55129048D01*
X36341500Y55081429D01*
X36436738Y55033810D01*
X36817690Y55033810D01*
X35627214Y55557620D02*
X35436738Y55557620D01*
X35341500Y55510000D01*
X35246261Y55414762D01*
X35198642Y55224286D01*
X35198642Y54890953D01*
X35246261Y54700477D01*
X35341500Y54605239D01*
X35436738Y54557620D01*
X35627214Y54557620D01*
X35722452Y54605239D01*
X35817690Y54700477D01*
X35865309Y54890953D01*
X35865309Y55224286D01*
X35817690Y55414762D01*
X35722452Y55510000D01*
X35627214Y55557620D01*
X34770071Y54557620D02*
X34770071Y55557620D01*
X34436738Y54843334D01*
X34103404Y55557620D01*
X34103404Y54557620D01*
X32960547Y55557620D02*
X32341500Y55557620D01*
X32674833Y55176667D01*
X32531976Y55176667D01*
X32436738Y55129048D01*
X32389119Y55081429D01*
X32341500Y54986191D01*
X32341500Y54748096D01*
X32389119Y54652858D01*
X32436738Y54605239D01*
X32531976Y54557620D01*
X32817690Y54557620D01*
X32912928Y54605239D01*
X32960547Y54652858D01*
X32008166Y55557620D02*
X31389119Y55557620D01*
X31722452Y55176667D01*
X31579595Y55176667D01*
X31484357Y55129048D01*
X31436738Y55081429D01*
X31389119Y54986191D01*
X31389119Y54748096D01*
X31436738Y54652858D01*
X31484357Y54605239D01*
X31579595Y54557620D01*
X31865309Y54557620D01*
X31960547Y54605239D01*
X32008166Y54652858D01*
X30531976Y55224286D02*
X30531976Y54557620D01*
X30770071Y55605239D02*
X31008166Y54890953D01*
X30389119Y54890953D01*
X29817690Y55557620D02*
X29722452Y55557620D01*
X29627214Y55510000D01*
X29579595Y55462381D01*
X29531976Y55367143D01*
X29484357Y55176667D01*
X29484357Y54938572D01*
X29531976Y54748096D01*
X29579595Y54652858D01*
X29627214Y54605239D01*
X29722452Y54557620D01*
X29817690Y54557620D01*
X29912928Y54605239D01*
X29960547Y54652858D01*
X30008166Y54748096D01*
X30055785Y54938572D01*
X30055785Y55176667D01*
X30008166Y55367143D01*
X29960547Y55462381D01*
X29912928Y55510000D01*
X29817690Y55557620D01*
X46246261Y53947620D02*
X45674833Y53947620D01*
X45960547Y52947620D02*
X45960547Y53947620D01*
X45341500Y52947620D02*
X45341500Y53947620D01*
X44960547Y53947620D01*
X44865309Y53900000D01*
X44817690Y53852381D01*
X44770071Y53757143D01*
X44770071Y53614286D01*
X44817690Y53519048D01*
X44865309Y53471429D01*
X44960547Y53423810D01*
X45341500Y53423810D01*
X44436738Y53947620D02*
X43817690Y53947620D01*
X44151023Y53566667D01*
X44008166Y53566667D01*
X43912928Y53519048D01*
X43865309Y53471429D01*
X43817690Y53376191D01*
X43817690Y53138096D01*
X43865309Y53042858D01*
X43912928Y52995239D01*
X44008166Y52947620D01*
X44293880Y52947620D01*
X44389119Y52995239D01*
X44436738Y53042858D01*
X42627214Y53042858D02*
X42579595Y52995239D01*
X42627214Y52947620D01*
X42674833Y52995239D01*
X42627214Y53042858D01*
X42627214Y52947620D01*
X42627214Y53566667D02*
X42579595Y53519048D01*
X42627214Y53471429D01*
X42674833Y53519048D01*
X42627214Y53566667D01*
X42627214Y53471429D01*
X41389119Y52947620D02*
X41389119Y53947620D01*
X41151023Y53947620D01*
X41008166Y53900000D01*
X40912928Y53804762D01*
X40865309Y53709524D01*
X40817690Y53519048D01*
X40817690Y53376191D01*
X40865309Y53185715D01*
X40912928Y53090477D01*
X41008166Y52995239D01*
X41151023Y52947620D01*
X41389119Y52947620D01*
X40436738Y53233334D02*
X39960547Y53233334D01*
X40531976Y52947620D02*
X40198642Y53947620D01*
X39865309Y52947620D01*
X38960547Y53042858D02*
X39008166Y52995239D01*
X39151023Y52947620D01*
X39246261Y52947620D01*
X39389119Y52995239D01*
X39484357Y53090477D01*
X39531976Y53185715D01*
X39579595Y53376191D01*
X39579595Y53519048D01*
X39531976Y53709524D01*
X39484357Y53804762D01*
X39389119Y53900000D01*
X39246261Y53947620D01*
X39151023Y53947620D01*
X39008166Y53900000D01*
X38960547Y53852381D01*
X37912928Y53947620D02*
X37341500Y53947620D01*
X37627214Y52947620D02*
X37627214Y53947620D01*
X37008166Y53471429D02*
X36674833Y53471429D01*
X36531976Y52947620D02*
X37008166Y52947620D01*
X37008166Y53947620D01*
X36531976Y53947620D01*
X36151023Y52995239D02*
X36008166Y52947620D01*
X35770071Y52947620D01*
X35674833Y52995239D01*
X35627214Y53042858D01*
X35579595Y53138096D01*
X35579595Y53233334D01*
X35627214Y53328572D01*
X35674833Y53376191D01*
X35770071Y53423810D01*
X35960547Y53471429D01*
X36055785Y53519048D01*
X36103404Y53566667D01*
X36151023Y53661905D01*
X36151023Y53757143D01*
X36103404Y53852381D01*
X36055785Y53900000D01*
X35960547Y53947620D01*
X35722452Y53947620D01*
X35579595Y53900000D01*
X35293880Y53947620D02*
X34722452Y53947620D01*
X35008166Y52947620D02*
X35008166Y53947620D01*
X46246261Y52337620D02*
X45674833Y52337620D01*
X45960547Y51337620D02*
X45960547Y52337620D01*
X45341500Y51337620D02*
X45341500Y52337620D01*
X44960547Y52337620D01*
X44865309Y52290000D01*
X44817690Y52242381D01*
X44770071Y52147143D01*
X44770071Y52004286D01*
X44817690Y51909048D01*
X44865309Y51861429D01*
X44960547Y51813810D01*
X45341500Y51813810D01*
X43912928Y52004286D02*
X43912928Y51337620D01*
X44151023Y52385239D02*
X44389119Y51670953D01*
X43770071Y51670953D01*
X42627214Y51432858D02*
X42579595Y51385239D01*
X42627214Y51337620D01*
X42674833Y51385239D01*
X42627214Y51432858D01*
X42627214Y51337620D01*
X42627214Y51956667D02*
X42579595Y51909048D01*
X42627214Y51861429D01*
X42674833Y51909048D01*
X42627214Y51956667D01*
X42627214Y51861429D01*
X41389119Y51861429D02*
X41055785Y51861429D01*
X40912928Y51337620D02*
X41389119Y51337620D01*
X41389119Y52337620D01*
X40912928Y52337620D01*
X40579595Y52337620D02*
X39912928Y51337620D01*
X39912928Y52337620D02*
X40579595Y51337620D01*
X39674833Y52337620D02*
X39103404Y52337620D01*
X39389119Y51337620D02*
X39389119Y52337620D01*
X38770071Y51861429D02*
X38436738Y51861429D01*
X38293880Y51337620D02*
X38770071Y51337620D01*
X38770071Y52337620D01*
X38293880Y52337620D01*
X37293880Y51337620D02*
X37627214Y51813810D01*
X37865309Y51337620D02*
X37865309Y52337620D01*
X37484357Y52337620D01*
X37389119Y52290000D01*
X37341500Y52242381D01*
X37293880Y52147143D01*
X37293880Y52004286D01*
X37341500Y51909048D01*
X37389119Y51861429D01*
X37484357Y51813810D01*
X37865309Y51813810D01*
X36865309Y51337620D02*
X36865309Y52337620D01*
X36293880Y51337620D01*
X36293880Y52337620D01*
X35865309Y51623334D02*
X35389119Y51623334D01*
X35960547Y51337620D02*
X35627214Y52337620D01*
X35293880Y51337620D01*
X34484357Y51337620D02*
X34960547Y51337620D01*
X34960547Y52337620D01*
X33389119Y51337620D02*
X33389119Y52337620D01*
X33055785Y51623334D01*
X32722452Y52337620D01*
X32722452Y51337620D01*
X32055785Y52337620D02*
X31865309Y52337620D01*
X31770071Y52290000D01*
X31674833Y52194762D01*
X31627214Y52004286D01*
X31627214Y51670953D01*
X31674833Y51480477D01*
X31770071Y51385239D01*
X31865309Y51337620D01*
X32055785Y51337620D01*
X32151023Y51385239D01*
X32246261Y51480477D01*
X32293880Y51670953D01*
X32293880Y52004286D01*
X32246261Y52194762D01*
X32151023Y52290000D01*
X32055785Y52337620D01*
X31198642Y51337620D02*
X31198642Y52337620D01*
X30960547Y52337620D01*
X30817690Y52290000D01*
X30722452Y52194762D01*
X30674833Y52099524D01*
X30627214Y51909048D01*
X30627214Y51766191D01*
X30674833Y51575715D01*
X30722452Y51480477D01*
X30817690Y51385239D01*
X30960547Y51337620D01*
X31198642Y51337620D01*
X29436738Y51337620D02*
X29436738Y52337620D01*
X29055785Y52337620D01*
X28960547Y52290000D01*
X28912928Y52242381D01*
X28865309Y52147143D01*
X28865309Y52004286D01*
X28912928Y51909048D01*
X28960547Y51861429D01*
X29055785Y51813810D01*
X29436738Y51813810D01*
X28246261Y52337620D02*
X28055785Y52337620D01*
X27960547Y52290000D01*
X27865309Y52194762D01*
X27817690Y52004286D01*
X27817690Y51670953D01*
X27865309Y51480477D01*
X27960547Y51385239D01*
X28055785Y51337620D01*
X28246261Y51337620D01*
X28341500Y51385239D01*
X28436738Y51480477D01*
X28484357Y51670953D01*
X28484357Y52004286D01*
X28436738Y52194762D01*
X28341500Y52290000D01*
X28246261Y52337620D01*
X27436738Y51385239D02*
X27293880Y51337620D01*
X27055785Y51337620D01*
X26960547Y51385239D01*
X26912928Y51432858D01*
X26865309Y51528096D01*
X26865309Y51623334D01*
X26912928Y51718572D01*
X26960547Y51766191D01*
X27055785Y51813810D01*
X27246261Y51861429D01*
X27341500Y51909048D01*
X27389119Y51956667D01*
X27436738Y52051905D01*
X27436738Y52147143D01*
X27389119Y52242381D01*
X27341500Y52290000D01*
X27246261Y52337620D01*
X27008166Y52337620D01*
X26865309Y52290000D01*
X26579595Y52337620D02*
X26008166Y52337620D01*
X26293880Y51337620D02*
X26293880Y52337620D01*
X25674833Y51718572D02*
X24912928Y51718572D01*
X24579595Y52337620D02*
X24246261Y51337620D01*
X23912928Y52337620D01*
X23008166Y51432858D02*
X23055785Y51385239D01*
X23198642Y51337620D01*
X23293880Y51337620D01*
X23436738Y51385239D01*
X23531976Y51480477D01*
X23579595Y51575715D01*
X23627214Y51766191D01*
X23627214Y51909048D01*
X23579595Y52099524D01*
X23531976Y52194762D01*
X23436738Y52290000D01*
X23293880Y52337620D01*
X23198642Y52337620D01*
X23055785Y52290000D01*
X23008166Y52242381D01*
X22627214Y51623334D02*
X22151023Y51623334D01*
X22722452Y51337620D02*
X22389119Y52337620D01*
X22055785Y51337620D01*
X46246261Y50727620D02*
X45674833Y50727620D01*
X45960547Y49727620D02*
X45960547Y50727620D01*
X45341500Y49727620D02*
X45341500Y50727620D01*
X44960547Y50727620D01*
X44865309Y50680000D01*
X44817690Y50632381D01*
X44770071Y50537143D01*
X44770071Y50394286D01*
X44817690Y50299048D01*
X44865309Y50251429D01*
X44960547Y50203810D01*
X45341500Y50203810D01*
X43865309Y50727620D02*
X44341500Y50727620D01*
X44389119Y50251429D01*
X44341500Y50299048D01*
X44246261Y50346667D01*
X44008166Y50346667D01*
X43912928Y50299048D01*
X43865309Y50251429D01*
X43817690Y50156191D01*
X43817690Y49918096D01*
X43865309Y49822858D01*
X43912928Y49775239D01*
X44008166Y49727620D01*
X44246261Y49727620D01*
X44341500Y49775239D01*
X44389119Y49822858D01*
X42627214Y49822858D02*
X42579595Y49775239D01*
X42627214Y49727620D01*
X42674833Y49775239D01*
X42627214Y49822858D01*
X42627214Y49727620D01*
X42627214Y50346667D02*
X42579595Y50299048D01*
X42627214Y50251429D01*
X42674833Y50299048D01*
X42627214Y50346667D01*
X42627214Y50251429D01*
X41389119Y50251429D02*
X41055785Y50251429D01*
X40912928Y49727620D02*
X41389119Y49727620D01*
X41389119Y50727620D01*
X40912928Y50727620D01*
X40579595Y50727620D02*
X39912928Y49727620D01*
X39912928Y50727620D02*
X40579595Y49727620D01*
X39674833Y50727620D02*
X39103404Y50727620D01*
X39389119Y49727620D02*
X39389119Y50727620D01*
X38770071Y50251429D02*
X38436738Y50251429D01*
X38293880Y49727620D02*
X38770071Y49727620D01*
X38770071Y50727620D01*
X38293880Y50727620D01*
X37293880Y49727620D02*
X37627214Y50203810D01*
X37865309Y49727620D02*
X37865309Y50727620D01*
X37484357Y50727620D01*
X37389119Y50680000D01*
X37341500Y50632381D01*
X37293880Y50537143D01*
X37293880Y50394286D01*
X37341500Y50299048D01*
X37389119Y50251429D01*
X37484357Y50203810D01*
X37865309Y50203810D01*
X36865309Y49727620D02*
X36865309Y50727620D01*
X36293880Y49727620D01*
X36293880Y50727620D01*
X35865309Y50013334D02*
X35389119Y50013334D01*
X35960547Y49727620D02*
X35627214Y50727620D01*
X35293880Y49727620D01*
X34484357Y49727620D02*
X34960547Y49727620D01*
X34960547Y50727620D01*
X33389119Y49727620D02*
X33389119Y50727620D01*
X33055785Y50013334D01*
X32722452Y50727620D01*
X32722452Y49727620D01*
X32055785Y50727620D02*
X31865309Y50727620D01*
X31770071Y50680000D01*
X31674833Y50584762D01*
X31627214Y50394286D01*
X31627214Y50060953D01*
X31674833Y49870477D01*
X31770071Y49775239D01*
X31865309Y49727620D01*
X32055785Y49727620D01*
X32151023Y49775239D01*
X32246261Y49870477D01*
X32293880Y50060953D01*
X32293880Y50394286D01*
X32246261Y50584762D01*
X32151023Y50680000D01*
X32055785Y50727620D01*
X31198642Y49727620D02*
X31198642Y50727620D01*
X30960547Y50727620D01*
X30817690Y50680000D01*
X30722452Y50584762D01*
X30674833Y50489524D01*
X30627214Y50299048D01*
X30627214Y50156191D01*
X30674833Y49965715D01*
X30722452Y49870477D01*
X30817690Y49775239D01*
X30960547Y49727620D01*
X31198642Y49727620D01*
X29579595Y50727620D02*
X29008166Y50727620D01*
X29293880Y49727620D02*
X29293880Y50727620D01*
X28484357Y50727620D02*
X28293880Y50727620D01*
X28198642Y50680000D01*
X28103404Y50584762D01*
X28055785Y50394286D01*
X28055785Y50060953D01*
X28103404Y49870477D01*
X28198642Y49775239D01*
X28293880Y49727620D01*
X28484357Y49727620D01*
X28579595Y49775239D01*
X28674833Y49870477D01*
X28722452Y50060953D01*
X28722452Y50394286D01*
X28674833Y50584762D01*
X28579595Y50680000D01*
X28484357Y50727620D01*
X26912928Y49775239D02*
X26770071Y49727620D01*
X26531976Y49727620D01*
X26436738Y49775239D01*
X26389119Y49822858D01*
X26341500Y49918096D01*
X26341500Y50013334D01*
X26389119Y50108572D01*
X26436738Y50156191D01*
X26531976Y50203810D01*
X26722452Y50251429D01*
X26817690Y50299048D01*
X26865309Y50346667D01*
X26912928Y50441905D01*
X26912928Y50537143D01*
X26865309Y50632381D01*
X26817690Y50680000D01*
X26722452Y50727620D01*
X26484357Y50727620D01*
X26341500Y50680000D01*
X25722452Y50203810D02*
X25722452Y49727620D01*
X26055785Y50727620D02*
X25722452Y50203810D01*
X25389119Y50727620D01*
X25055785Y49727620D02*
X25055785Y50727620D01*
X24484357Y49727620D01*
X24484357Y50727620D01*
X23436738Y49822858D02*
X23484357Y49775239D01*
X23627214Y49727620D01*
X23722452Y49727620D01*
X23865309Y49775239D01*
X23960547Y49870477D01*
X24008166Y49965715D01*
X24055785Y50156191D01*
X24055785Y50299048D01*
X24008166Y50489524D01*
X23960547Y50584762D01*
X23865309Y50680000D01*
X23722452Y50727620D01*
X23627214Y50727620D01*
X23484357Y50680000D01*
X23436738Y50632381D01*
X21674833Y49822858D02*
X21722452Y49775239D01*
X21865309Y49727620D01*
X21960547Y49727620D01*
X22103404Y49775239D01*
X22198642Y49870477D01*
X22246261Y49965715D01*
X22293880Y50156191D01*
X22293880Y50299048D01*
X22246261Y50489524D01*
X22198642Y50584762D01*
X22103404Y50680000D01*
X21960547Y50727620D01*
X21865309Y50727620D01*
X21722452Y50680000D01*
X21674833Y50632381D01*
X21055785Y50727620D02*
X20865309Y50727620D01*
X20770071Y50680000D01*
X20674833Y50584762D01*
X20627214Y50394286D01*
X20627214Y50060953D01*
X20674833Y49870477D01*
X20770071Y49775239D01*
X20865309Y49727620D01*
X21055785Y49727620D01*
X21151023Y49775239D01*
X21246261Y49870477D01*
X21293880Y50060953D01*
X21293880Y50394286D01*
X21246261Y50584762D01*
X21151023Y50680000D01*
X21055785Y50727620D01*
X20198642Y49727620D02*
X20198642Y50727620D01*
X19865309Y50013334D01*
X19531976Y50727620D01*
X19531976Y49727620D01*
X19055785Y49727620D02*
X19055785Y50727620D01*
X18674833Y50727620D01*
X18579595Y50680000D01*
X18531976Y50632381D01*
X18484357Y50537143D01*
X18484357Y50394286D01*
X18531976Y50299048D01*
X18579595Y50251429D01*
X18674833Y50203810D01*
X19055785Y50203810D01*
X18103404Y50013334D02*
X17627214Y50013334D01*
X18198642Y49727620D02*
X17865309Y50727620D01*
X17531976Y49727620D01*
X16627214Y49727620D02*
X16960547Y50203810D01*
X17198642Y49727620D02*
X17198642Y50727620D01*
X16817690Y50727620D01*
X16722452Y50680000D01*
X16674833Y50632381D01*
X16627214Y50537143D01*
X16627214Y50394286D01*
X16674833Y50299048D01*
X16722452Y50251429D01*
X16817690Y50203810D01*
X17198642Y50203810D01*
X16246261Y50013334D02*
X15770071Y50013334D01*
X16341500Y49727620D02*
X16008166Y50727620D01*
X15674833Y49727620D01*
X15484357Y50727620D02*
X14912928Y50727620D01*
X15198642Y49727620D02*
X15198642Y50727620D01*
X14389119Y50727620D02*
X14198642Y50727620D01*
X14103404Y50680000D01*
X14008166Y50584762D01*
X13960547Y50394286D01*
X13960547Y50060953D01*
X14008166Y49870477D01*
X14103404Y49775239D01*
X14198642Y49727620D01*
X14389119Y49727620D01*
X14484357Y49775239D01*
X14579595Y49870477D01*
X14627214Y50060953D01*
X14627214Y50394286D01*
X14579595Y50584762D01*
X14484357Y50680000D01*
X14389119Y50727620D01*
X12960547Y49727620D02*
X13293880Y50203810D01*
X13531976Y49727620D02*
X13531976Y50727620D01*
X13151023Y50727620D01*
X13055785Y50680000D01*
X13008166Y50632381D01*
X12960547Y50537143D01*
X12960547Y50394286D01*
X13008166Y50299048D01*
X13055785Y50251429D01*
X13151023Y50203810D01*
X13531976Y50203810D01*
X46246261Y49117620D02*
X45674833Y49117620D01*
X45960547Y48117620D02*
X45960547Y49117620D01*
X45341500Y48117620D02*
X45341500Y49117620D01*
X44960547Y49117620D01*
X44865309Y49070000D01*
X44817690Y49022381D01*
X44770071Y48927143D01*
X44770071Y48784286D01*
X44817690Y48689048D01*
X44865309Y48641429D01*
X44960547Y48593810D01*
X45341500Y48593810D01*
X43912928Y49117620D02*
X44103404Y49117620D01*
X44198642Y49070000D01*
X44246261Y49022381D01*
X44341500Y48879524D01*
X44389119Y48689048D01*
X44389119Y48308096D01*
X44341500Y48212858D01*
X44293880Y48165239D01*
X44198642Y48117620D01*
X44008166Y48117620D01*
X43912928Y48165239D01*
X43865309Y48212858D01*
X43817690Y48308096D01*
X43817690Y48546191D01*
X43865309Y48641429D01*
X43912928Y48689048D01*
X44008166Y48736667D01*
X44198642Y48736667D01*
X44293880Y48689048D01*
X44341500Y48641429D01*
X44389119Y48546191D01*
X42627214Y48212858D02*
X42579595Y48165239D01*
X42627214Y48117620D01*
X42674833Y48165239D01*
X42627214Y48212858D01*
X42627214Y48117620D01*
X42627214Y48736667D02*
X42579595Y48689048D01*
X42627214Y48641429D01*
X42674833Y48689048D01*
X42627214Y48736667D01*
X42627214Y48641429D01*
X41389119Y48117620D02*
X41389119Y49117620D01*
X41389119Y48641429D02*
X40817690Y48641429D01*
X40817690Y48117620D02*
X40817690Y49117620D01*
X40341500Y48117620D02*
X40341500Y49117620D01*
X39341500Y49070000D02*
X39436738Y49117620D01*
X39579595Y49117620D01*
X39722452Y49070000D01*
X39817690Y48974762D01*
X39865309Y48879524D01*
X39912928Y48689048D01*
X39912928Y48546191D01*
X39865309Y48355715D01*
X39817690Y48260477D01*
X39722452Y48165239D01*
X39579595Y48117620D01*
X39484357Y48117620D01*
X39341500Y48165239D01*
X39293880Y48212858D01*
X39293880Y48546191D01*
X39484357Y48546191D01*
X38865309Y48117620D02*
X38865309Y49117620D01*
X38865309Y48641429D02*
X38293880Y48641429D01*
X38293880Y48117620D02*
X38293880Y49117620D01*
X36722452Y48641429D02*
X37055785Y48641429D01*
X37055785Y48117620D02*
X37055785Y49117620D01*
X36579595Y49117620D01*
X35627214Y48117620D02*
X35960547Y48593810D01*
X36198642Y48117620D02*
X36198642Y49117620D01*
X35817690Y49117620D01*
X35722452Y49070000D01*
X35674833Y49022381D01*
X35627214Y48927143D01*
X35627214Y48784286D01*
X35674833Y48689048D01*
X35722452Y48641429D01*
X35817690Y48593810D01*
X36198642Y48593810D01*
X35198642Y48641429D02*
X34865309Y48641429D01*
X34722452Y48117620D02*
X35198642Y48117620D01*
X35198642Y49117620D01*
X34722452Y49117620D01*
X33627214Y48022381D02*
X33722452Y48070000D01*
X33817690Y48165239D01*
X33960547Y48308096D01*
X34055785Y48355715D01*
X34151023Y48355715D01*
X34103404Y48117620D02*
X34198642Y48165239D01*
X34293880Y48260477D01*
X34341500Y48450953D01*
X34341500Y48784286D01*
X34293880Y48974762D01*
X34198642Y49070000D01*
X34103404Y49117620D01*
X33912928Y49117620D01*
X33817690Y49070000D01*
X33722452Y48974762D01*
X33674833Y48784286D01*
X33674833Y48450953D01*
X33722452Y48260477D01*
X33817690Y48165239D01*
X33912928Y48117620D01*
X34103404Y48117620D01*
X32627214Y49117620D02*
X32055785Y49117620D01*
X32341500Y48117620D02*
X32341500Y49117620D01*
X31151023Y48117620D02*
X31484357Y48593810D01*
X31722452Y48117620D02*
X31722452Y49117620D01*
X31341500Y49117620D01*
X31246261Y49070000D01*
X31198642Y49022381D01*
X31151023Y48927143D01*
X31151023Y48784286D01*
X31198642Y48689048D01*
X31246261Y48641429D01*
X31341500Y48593810D01*
X31722452Y48593810D01*
X30770071Y48403334D02*
X30293880Y48403334D01*
X30865309Y48117620D02*
X30531976Y49117620D01*
X30198642Y48117620D01*
X29293880Y48212858D02*
X29341500Y48165239D01*
X29484357Y48117620D01*
X29579595Y48117620D01*
X29722452Y48165239D01*
X29817690Y48260477D01*
X29865309Y48355715D01*
X29912928Y48546191D01*
X29912928Y48689048D01*
X29865309Y48879524D01*
X29817690Y48974762D01*
X29722452Y49070000D01*
X29579595Y49117620D01*
X29484357Y49117620D01*
X29341500Y49070000D01*
X29293880Y49022381D01*
X28865309Y48117620D02*
X28865309Y49117620D01*
X28293880Y48117620D02*
X28722452Y48689048D01*
X28293880Y49117620D02*
X28865309Y48546191D01*
X27246261Y49117620D02*
X26674833Y49117620D01*
X26960547Y48117620D02*
X26960547Y49117620D01*
X26151023Y49117620D02*
X25960547Y49117620D01*
X25865309Y49070000D01*
X25770071Y48974762D01*
X25722452Y48784286D01*
X25722452Y48450953D01*
X25770071Y48260477D01*
X25865309Y48165239D01*
X25960547Y48117620D01*
X26151023Y48117620D01*
X26246261Y48165239D01*
X26341500Y48260477D01*
X26389119Y48450953D01*
X26389119Y48784286D01*
X26341500Y48974762D01*
X26246261Y49070000D01*
X26151023Y49117620D01*
X24579595Y48165239D02*
X24436738Y48117620D01*
X24198642Y48117620D01*
X24103404Y48165239D01*
X24055785Y48212858D01*
X24008166Y48308096D01*
X24008166Y48403334D01*
X24055785Y48498572D01*
X24103404Y48546191D01*
X24198642Y48593810D01*
X24389119Y48641429D01*
X24484357Y48689048D01*
X24531976Y48736667D01*
X24579595Y48831905D01*
X24579595Y48927143D01*
X24531976Y49022381D01*
X24484357Y49070000D01*
X24389119Y49117620D01*
X24151023Y49117620D01*
X24008166Y49070000D01*
X23579595Y49117620D02*
X23579595Y48308096D01*
X23531976Y48212858D01*
X23484357Y48165239D01*
X23389119Y48117620D01*
X23198642Y48117620D01*
X23103404Y48165239D01*
X23055785Y48212858D01*
X23008166Y48308096D01*
X23008166Y49117620D01*
X22531976Y48117620D02*
X22531976Y49117620D01*
X22198642Y48403334D01*
X21865309Y49117620D01*
X21865309Y48117620D01*
X21389119Y48117620D02*
X21389119Y49117620D01*
X21055785Y48403334D01*
X20722452Y49117620D01*
X20722452Y48117620D01*
X20246261Y48117620D02*
X20246261Y49117620D01*
X19770071Y48117620D02*
X19770071Y49117620D01*
X19198642Y48117620D01*
X19198642Y49117620D01*
X18198642Y49070000D02*
X18293880Y49117620D01*
X18436738Y49117620D01*
X18579595Y49070000D01*
X18674833Y48974762D01*
X18722452Y48879524D01*
X18770071Y48689048D01*
X18770071Y48546191D01*
X18722452Y48355715D01*
X18674833Y48260477D01*
X18579595Y48165239D01*
X18436738Y48117620D01*
X18341500Y48117620D01*
X18198642Y48165239D01*
X18151023Y48212858D01*
X18151023Y48546191D01*
X18341500Y48546191D01*
X16960547Y48117620D02*
X16960547Y49117620D01*
X16389119Y48117620D01*
X16389119Y49117620D01*
X15722452Y49117620D02*
X15531976Y49117620D01*
X15436738Y49070000D01*
X15341500Y48974762D01*
X15293880Y48784286D01*
X15293880Y48450953D01*
X15341500Y48260477D01*
X15436738Y48165239D01*
X15531976Y48117620D01*
X15722452Y48117620D01*
X15817690Y48165239D01*
X15912928Y48260477D01*
X15960547Y48450953D01*
X15960547Y48784286D01*
X15912928Y48974762D01*
X15817690Y49070000D01*
X15722452Y49117620D01*
X14865309Y48117620D02*
X14865309Y49117620D01*
X14627214Y49117620D01*
X14484357Y49070000D01*
X14389119Y48974762D01*
X14341500Y48879524D01*
X14293880Y48689048D01*
X14293880Y48546191D01*
X14341500Y48355715D01*
X14389119Y48260477D01*
X14484357Y48165239D01*
X14627214Y48117620D01*
X14865309Y48117620D01*
X13865309Y48641429D02*
X13531976Y48641429D01*
X13389119Y48117620D02*
X13865309Y48117620D01*
X13865309Y49117620D01*
X13389119Y49117620D01*
X68671428Y73871429D02*
X69071428Y73871429D01*
X68442857Y74014286D02*
X68871428Y74157143D01*
X68871428Y73785715D01*
X68471428Y73442858D02*
X68471428Y73385715D01*
X68500000Y73328572D01*
X68528571Y73300000D01*
X68585714Y73271429D01*
X68700000Y73242858D01*
X68842857Y73242858D01*
X68957142Y73271429D01*
X69014285Y73300000D01*
X69042857Y73328572D01*
X69071428Y73385715D01*
X69071428Y73442858D01*
X69042857Y73500000D01*
X69014285Y73528572D01*
X68957142Y73557143D01*
X68842857Y73585715D01*
X68700000Y73585715D01*
X68585714Y73557143D01*
X68528571Y73528572D01*
X68500000Y73500000D01*
X68471428Y73442858D01*
D10*
X15352380Y69814286D02*
X15352380Y70385715D01*
X15352380Y70100000D02*
X14352380Y70100000D01*
X14495238Y70195239D01*
X14590476Y70290477D01*
X14638095Y70385715D01*
D13*
X80400000Y33714286D02*
X80371428Y33771429D01*
X80371428Y33857143D01*
X80400000Y33942858D01*
X80457142Y34000000D01*
X80514285Y34028572D01*
X80628571Y34057143D01*
X80714285Y34057143D01*
X80828571Y34028572D01*
X80885714Y34000000D01*
X80942857Y33942858D01*
X80971428Y33857143D01*
X80971428Y33800000D01*
X80942857Y33714286D01*
X80914285Y33685715D01*
X80714285Y33685715D01*
X80714285Y33800000D01*
X80971428Y33428572D02*
X80371428Y33428572D01*
X80971428Y33085715D01*
X80371428Y33085715D01*
X80971428Y32800000D02*
X80371428Y32800000D01*
X80371428Y32657143D01*
X80400000Y32571429D01*
X80457142Y32514286D01*
X80514285Y32485715D01*
X80628571Y32457143D01*
X80714285Y32457143D01*
X80828571Y32485715D01*
X80885714Y32514286D01*
X80942857Y32571429D01*
X80971428Y32657143D01*
X80971428Y32800000D01*
X80742857Y31742858D02*
X80742857Y31285715D01*
X80971428Y30685715D02*
X80971428Y31028572D01*
X80971428Y30857143D02*
X80371428Y30857143D01*
X80457142Y30914286D01*
X80514285Y30971429D01*
X80542857Y31028572D01*
X80428571Y30457143D02*
X80400000Y30428572D01*
X80371428Y30371429D01*
X80371428Y30228572D01*
X80400000Y30171429D01*
X80428571Y30142858D01*
X80485714Y30114286D01*
X80542857Y30114286D01*
X80628571Y30142858D01*
X80971428Y30485715D01*
X80971428Y30114286D01*
X80742857Y29400000D02*
X80742857Y28942858D01*
X80371428Y28371429D02*
X80371428Y28657143D01*
X80657142Y28685715D01*
X80628571Y28657143D01*
X80600000Y28600000D01*
X80600000Y28457143D01*
X80628571Y28400000D01*
X80657142Y28371429D01*
X80714285Y28342858D01*
X80857142Y28342858D01*
X80914285Y28371429D01*
X80942857Y28400000D01*
X80971428Y28457143D01*
X80971428Y28600000D01*
X80942857Y28657143D01*
X80914285Y28685715D01*
M02*
