M48
; DRILL file {KiCad (6.0.7-1)-1} date Wednesday, April 19, 2023 at 10:27:35 PM
; FORMAT={-:-/ absolute / inch / decimal}
; #@! TF.CreationDate,2023-04-19T22:27:35-07:00
; #@! TF.GenerationSoftware,Kicad,Pcbnew,(6.0.7-1)-1
; #@! TF.FileFunction,Plated,1,4,PTH
FMAT,2
INCH
; #@! TA.AperFunction,Plated,PTH,ViaDrill
T1C0.0157
; #@! TA.AperFunction,Plated,PTH,ViaDrill
T2C0.0197
; #@! TA.AperFunction,Plated,PTH,ComponentDrill
T3C0.0300
; #@! TA.AperFunction,Plated,PTH,ComponentDrill
T4C0.0315
; #@! TA.AperFunction,Plated,PTH,ComponentDrill
T5C0.0394
%
G90
G05
T1
X0.1024Y0.7165
X0.1811Y0.5512
X0.2795Y2.3898
X0.3465Y0.937
X0.3543Y0.9882
X0.3583Y0.8346
X0.3622Y0.3661
X0.3661Y2.2953
X0.378Y2.7441
X0.4094Y1.8268
X0.4291Y2.4134
X0.4449Y0.6654
X0.4488Y1.4331
X0.4685Y1.6772
X0.4843Y2.2756
X0.4921Y2.815
X0.5236Y2.0118
X0.5315Y1.8425
X0.5354Y1.9409
X0.5472Y2.8504
X0.5472Y1.4409
X0.563Y0.4252
X0.5813Y2.2598
X0.5945Y1.4094
X0.6102Y1.8976
X0.6299Y2.4409
X0.6339Y1.7874
X0.6457Y1.6969
X0.6457Y2.2598
X0.6457Y1.1339
X0.6496Y1.5748
X0.689Y1.7402
X0.7362Y2.4016
X0.7835Y2.6102
X0.7874Y0.6772
X0.8386Y1.4331
X0.8465Y1.6378
X0.8819Y2.0118
X0.8858Y1.752
X0.8937Y0.6811
X0.9173Y2.7165
X0.9488Y2.2598
X0.9528Y2.6181
X0.9567Y0.8701
X0.9567Y0.5669
X0.9596Y1.0325
X0.9646Y3.0
X0.9921Y0.815
X1.0Y2.4409
X1.0Y1.9843
X1.1417Y2.1024
X1.1496Y1.3701
X1.1575Y1.1024
X1.1929Y2.4685
X1.1929Y0.689
X1.2874Y2.2992
X1.3346Y2.4685
X1.3346Y1.0118
X1.3386Y1.2441
X1.3465Y1.752
X1.378Y2.1535
X1.378Y2.0039
X1.3858Y0.8504
X1.3898Y3.0827
X1.4055Y1.8307
X1.437Y2.6772
X1.437Y0.8504
X1.4882Y1.2874
X1.4882Y0.8465
X1.5472Y0.8425
X1.5551Y2.5591
X1.5591Y1.6811
X1.563Y1.5866
X1.5709Y2.0748
X1.5945Y2.9173
X1.626Y2.8268
X1.6654Y2.7402
X1.6732Y2.2992
X1.6811Y2.6772
X1.7185Y2.126
X1.7205Y1.8622
X1.7677Y2.4409
X1.7697Y1.7539
X1.7992Y1.1732
X1.8071Y2.9488
X1.811Y1.0787
X1.811Y0.7362
X1.8268Y2.689
X1.8307Y1.6772
X1.8425Y2.8661
X1.8425Y1.7992
X1.9173Y1.8425
X1.9213Y2.3937
X1.9213Y1.2323
X1.9449Y3.126
X1.9567Y3.0591
X1.9724Y0.9331
X2.002Y2.6909
X2.0118Y2.8898
X2.0118Y2.126
X2.0354Y1.0945
X2.0591Y2.2992
X2.0669Y2.2205
X2.0827Y1.2756
X2.0945Y1.4134
X2.1024Y1.5827
X2.1063Y2.6929
X2.1161Y3.0551
X2.1181Y0.6024
X2.1378Y2.3504
X2.1378Y2.0945
X2.2362Y0.8819
X2.2441Y1.622
X2.3031Y2.4803
X2.3031Y2.3228
X2.3287Y1.7441
X2.3425Y2.7638
X2.353Y2.2651
X2.374Y2.1654
X2.374Y0.622
X2.3819Y2.4803
X2.3976Y0.6929
X2.4528Y1.4646
X2.4528Y0.8858
X2.4646Y2.7756
X2.4764Y1.9213
X2.4843Y2.3071
X2.4902Y2.5138
X2.4921Y1.4213
X2.4961Y1.7362
X2.5157Y2.437
X2.5512Y1.5236
X2.5512Y0.7402
X2.5709Y1.7126
X2.624Y2.5335
X2.6353Y2.7766
X2.6535Y1.4882
X2.6535Y1.4252
X2.6732Y2.2047
X2.7008Y1.7205
X2.8278Y2.3095
X2.8307Y2.6811
X2.8307Y2.6299
X2.8307Y2.5748
X2.8583Y2.7283
X2.8622Y1.3189
X2.8819Y0.4764
X2.9134Y0.6929
X2.9154Y1.8573
X2.9685Y2.3366
X3.0Y2.7008
T2
X0.0866Y0.8583
X0.0945Y0.9213
X0.1102Y1.6535
X0.2283Y1.6535
X0.4488Y2.0827
X0.5512Y1.1929
X0.6142Y0.937
X0.6181Y0.8661
X0.6929Y1.1811
X0.7677Y2.7165
X0.7756Y2.7756
X0.8898Y2.311
X0.9528Y2.315
X0.9685Y1.8504
X0.9724Y1.4252
X0.9803Y0.6457
X1.0236Y2.6772
X1.0354Y1.8465
X1.0394Y1.1024
X1.1024Y1.1024
X1.1457Y0.6535
X1.2244Y1.4213
X1.2362Y3.1181
X1.2943Y3.1191
X1.3425Y1.4724
X1.4685Y1.3937
X1.4724Y1.4724
X1.4823Y1.0571
X1.5709Y2.378
X1.5709Y1.063
X1.6535Y0.6102
X1.6654Y0.815
X1.748Y0.8898
X1.7756Y2.3858
X1.7992Y1.874
X1.8543Y2.3858
X1.8661Y1.874
X2.0Y2.5827
X2.063Y2.5827
X2.063Y0.6811
X2.0669Y0.7441
X2.1339Y0.7362
X2.1575Y0.7992
X2.1811Y1.5433
X2.185Y1.4803
X2.5236Y2.9921
X2.5945Y2.9921
X2.6102Y0.9921
X2.7598Y0.6457
X2.8228Y0.6457
T3
X0.3803Y2.1394
X0.3803Y1.9976
T4
X0.1614Y2.6319
X0.1614Y2.5319
X0.1614Y2.4319
X0.1614Y2.1252
X0.1614Y2.0252
X0.1614Y1.9252
X0.4921Y3.0906
X0.5921Y3.0906
X0.6921Y3.0906
T5
X0.1352Y2.815
X0.185Y1.3386
X0.2352Y2.815
X0.6787Y0.4724
X0.6787Y0.3724
X0.7787Y0.4724
X0.7787Y0.3724
X0.8787Y0.4724
X0.8787Y0.3724
X0.9787Y0.4724
X0.9787Y0.3724
X1.0787Y0.4724
X1.0787Y0.3724
X1.1457Y2.9537
X1.1457Y2.8537
X1.1457Y2.7537
X1.1787Y0.4724
X1.1787Y0.3724
X1.2787Y0.4724
X1.2787Y0.3724
X1.3787Y0.4724
X1.3787Y0.3724
X1.4787Y0.4724
X1.4787Y0.3724
X1.5787Y0.4724
X1.5787Y0.3724
X1.6787Y0.4724
X1.6787Y0.3724
X1.7787Y0.4724
X1.7787Y0.3724
X1.8787Y0.4724
X1.8787Y0.3724
X1.9787Y0.4724
X1.9787Y0.3724
X2.0787Y0.4724
X2.0787Y0.3724
X2.1787Y0.4724
X2.1787Y0.3724
X2.2787Y0.4724
X2.2787Y0.3724
X2.3787Y0.4724
X2.3787Y0.3724
X2.4787Y0.4724
X2.4787Y0.3724
X2.5787Y0.4724
X2.5787Y0.3724
X2.9528Y1.0104
X2.9528Y0.9104
T0
M30
