G04 #@! TF.GenerationSoftware,KiCad,Pcbnew,(5.1.12-1-10_14)*
G04 #@! TF.CreationDate,2022-06-16T22:18:06-07:00*
G04 #@! TF.ProjectId,as3340,61733333-3430-42e6-9b69-6361645f7063,rev?*
G04 #@! TF.SameCoordinates,Original*
G04 #@! TF.FileFunction,Soldermask,Bot*
G04 #@! TF.FilePolarity,Negative*
%FSLAX46Y46*%
G04 Gerber Fmt 4.6, Leading zero omitted, Abs format (unit mm)*
G04 Created by KiCad (PCBNEW (5.1.12-1-10_14)) date 2022-06-16 22:18:06*
%MOMM*%
%LPD*%
G01*
G04 APERTURE LIST*
G04 #@! TA.AperFunction,Profile*
%ADD10C,0.050000*%
G04 #@! TD*
G04 #@! TA.AperFunction,Profile*
%ADD11C,0.150000*%
G04 #@! TD*
%ADD12O,1.700000X1.700000*%
%ADD13R,1.700000X1.700000*%
%ADD14C,3.200000*%
%ADD15R,1.500000X1.500000*%
%ADD16C,1.500000*%
%ADD17C,1.524000*%
%ADD18C,1.440000*%
G04 APERTURE END LIST*
D10*
X138376000Y-27000000D02*
G75*
G03*
X138376000Y-27000000I-576000J0D01*
G01*
X75776000Y-27000000D02*
G75*
G03*
X75776000Y-27000000I-576000J0D01*
G01*
D11*
X147000000Y-100500000D02*
X147000000Y-31000000D01*
X67000000Y-30500000D02*
X67000000Y-100000000D01*
X142000000Y-105500000D02*
X72500000Y-105500000D01*
X72500000Y-105500000D02*
G75*
G02*
X67000000Y-100000000I0J5500000D01*
G01*
X147000000Y-100500000D02*
G75*
G02*
X142000000Y-105500000I-5000000J0D01*
G01*
X72000000Y-25500000D02*
X141500000Y-25500000D01*
X67000000Y-30500000D02*
G75*
G02*
X72000000Y-25500000I5000000J0D01*
G01*
X141500000Y-25500000D02*
G75*
G02*
X147000000Y-31000000I0J-5500000D01*
G01*
D12*
X130260000Y-28460000D03*
X130260000Y-31000000D03*
X127720000Y-28460000D03*
X127720000Y-31000000D03*
X125180000Y-28460000D03*
X125180000Y-31000000D03*
X122640000Y-28460000D03*
X122640000Y-31000000D03*
X120100000Y-28460000D03*
X120100000Y-31000000D03*
X117560000Y-28460000D03*
X117560000Y-31000000D03*
X115020000Y-28460000D03*
X115020000Y-31000000D03*
X112480000Y-28460000D03*
X112480000Y-31000000D03*
X109940000Y-28460000D03*
X109940000Y-31000000D03*
X107400000Y-28460000D03*
X107400000Y-31000000D03*
X104860000Y-28460000D03*
X104860000Y-31000000D03*
X102320000Y-28460000D03*
X102320000Y-31000000D03*
X99780000Y-28460000D03*
X99780000Y-31000000D03*
X97240000Y-28460000D03*
X97240000Y-31000000D03*
X94700000Y-28460000D03*
X94700000Y-31000000D03*
X92160000Y-28460000D03*
X92160000Y-31000000D03*
X89620000Y-28460000D03*
X89620000Y-31000000D03*
X87080000Y-28460000D03*
X87080000Y-31000000D03*
X84540000Y-28460000D03*
X84540000Y-31000000D03*
X82000000Y-28460000D03*
D13*
X82000000Y-31000000D03*
D14*
X142400000Y-101200000D03*
X142400000Y-29800000D03*
X71600000Y-101200000D03*
X71400000Y-29800000D03*
D15*
X143400000Y-72900000D03*
D16*
X143400000Y-77980000D03*
X143400000Y-75440000D03*
D15*
X81000000Y-103600000D03*
D16*
X81000000Y-98520000D03*
X81000000Y-101060000D03*
D17*
X137840000Y-74740000D03*
X137840000Y-78340000D03*
D18*
X129920000Y-102500000D03*
X132460000Y-102500000D03*
X135000000Y-102500000D03*
X143500000Y-89920000D03*
X143500000Y-92460000D03*
X143500000Y-95000000D03*
M02*
