G04 #@! TF.GenerationSoftware,KiCad,Pcbnew,6.0.7-f9a2dced07~116~ubuntu20.04.1*
G04 #@! TF.CreationDate,2022-09-15T12:31:24-07:00*
G04 #@! TF.ProjectId,as3340,61733333-3430-42e6-9b69-6361645f7063,rev?*
G04 #@! TF.SameCoordinates,Original*
G04 #@! TF.FileFunction,Soldermask,Bot*
G04 #@! TF.FilePolarity,Negative*
%FSLAX46Y46*%
G04 Gerber Fmt 4.6, Leading zero omitted, Abs format (unit mm)*
G04 Created by KiCad (PCBNEW 6.0.7-f9a2dced07~116~ubuntu20.04.1) date 2022-09-15 12:31:24*
%MOMM*%
%LPD*%
G01*
G04 APERTURE LIST*
G04 #@! TA.AperFunction,Profile*
%ADD10C,0.150000*%
G04 #@! TD*
G04 #@! TA.AperFunction,Profile*
%ADD11C,0.050000*%
G04 #@! TD*
%ADD12C,1.440000*%
%ADD13C,3.200000*%
%ADD14C,1.524000*%
%ADD15R,1.700000X1.700000*%
%ADD16O,1.700000X1.700000*%
%ADD17R,1.500000X1.500000*%
%ADD18C,1.500000*%
G04 APERTURE END LIST*
D10*
X147000000Y179000000D02*
G75*
G03*
X141500000Y184500000I-5500000J0D01*
G01*
X72000000Y184500000D02*
G75*
G03*
X67000000Y179500000I0J-5000000D01*
G01*
X72000000Y184500000D02*
X141500000Y184500000D01*
X142000000Y104500000D02*
G75*
G03*
X147000000Y109500000I0J5000000D01*
G01*
X67000000Y110000000D02*
G75*
G03*
X72500000Y104500000I5500000J0D01*
G01*
X142000000Y104500000D02*
X72500000Y104500000D01*
X67000000Y179500000D02*
X67000000Y110000000D01*
X147000000Y109500000D02*
X147000000Y179000000D01*
D11*
X138376000Y183000000D02*
G75*
G03*
X138376000Y183000000I-576000J0D01*
G01*
X75776000Y106000000D02*
G75*
G03*
X75776000Y106000000I-576000J0D01*
G01*
X75776000Y183000000D02*
G75*
G03*
X75776000Y183000000I-576000J0D01*
G01*
D12*
X143500000Y115000000D03*
X143500000Y117540000D03*
X143500000Y120080000D03*
X135000000Y107500000D03*
X132460000Y107500000D03*
X129920000Y107500000D03*
D13*
X71400000Y180200000D03*
X71600000Y108800000D03*
X142400000Y180200000D03*
X142400000Y108800000D03*
D14*
X137840000Y131660000D03*
X137840000Y135260000D03*
D15*
X82000000Y174000000D03*
D16*
X82000000Y176540000D03*
X84540000Y174000000D03*
X84540000Y176540000D03*
X87080000Y174000000D03*
X87080000Y176540000D03*
X89620000Y174000000D03*
X89620000Y176540000D03*
X92160000Y174000000D03*
X92160000Y176540000D03*
X94700000Y174000000D03*
X94700000Y176540000D03*
X97240000Y174000000D03*
X97240000Y176540000D03*
X99780000Y174000000D03*
X99780000Y176540000D03*
X102320000Y174000000D03*
X102320000Y176540000D03*
X104860000Y174000000D03*
X104860000Y176540000D03*
X107400000Y174000000D03*
X107400000Y176540000D03*
X109940000Y174000000D03*
X109940000Y176540000D03*
X112480000Y174000000D03*
X112480000Y176540000D03*
X115020000Y174000000D03*
X115020000Y176540000D03*
X117560000Y174000000D03*
X117560000Y176540000D03*
X120100000Y174000000D03*
X120100000Y176540000D03*
X122640000Y174000000D03*
X122640000Y176540000D03*
X125180000Y174000000D03*
X125180000Y176540000D03*
X127720000Y174000000D03*
X127720000Y176540000D03*
X130260000Y174000000D03*
X130260000Y176540000D03*
D17*
X143400000Y137100000D03*
D18*
X143400000Y134560000D03*
X143400000Y132020000D03*
D15*
X142800000Y152000000D03*
M02*
