G04 #@! TF.GenerationSoftware,KiCad,Pcbnew,7.0.11*
G04 #@! TF.CreationDate,2025-06-03T22:55:21-07:00*
G04 #@! TF.ProjectId,vca_backplane,7663615f-6261-4636-9b70-6c616e652e6b,0.3*
G04 #@! TF.SameCoordinates,Original*
G04 #@! TF.FileFunction,Legend,Bot*
G04 #@! TF.FilePolarity,Positive*
%FSLAX46Y46*%
G04 Gerber Fmt 4.6, Leading zero omitted, Abs format (unit mm)*
G04 Created by KiCad (PCBNEW 7.0.11) date 2025-06-03 22:55:21*
%MOMM*%
%LPD*%
G01*
G04 APERTURE LIST*
%ADD10C,0.150000*%
%ADD11C,0.090000*%
%ADD12C,0.010000*%
G04 #@! TA.AperFunction,Profile*
%ADD13C,0.150000*%
G04 #@! TD*
G04 #@! TA.AperFunction,Profile*
%ADD14C,0.050000*%
G04 #@! TD*
G04 APERTURE END LIST*
D10*
X48400000Y-49300000D02*
X68900000Y-49300000D01*
X68900000Y-71300000D01*
X48400000Y-71300000D01*
X48400000Y-49300000D01*
D11*
X72772891Y-41731428D02*
X72772891Y-41388571D01*
X72772891Y-41560000D02*
X72172891Y-41560000D01*
X72172891Y-41560000D02*
X72258605Y-41502857D01*
X72258605Y-41502857D02*
X72315748Y-41445714D01*
X72315748Y-41445714D02*
X72344320Y-41388571D01*
X130272891Y-47388571D02*
X130672891Y-47388571D01*
X130044320Y-47245713D02*
X130472891Y-47102856D01*
X130472891Y-47102856D02*
X130472891Y-47474285D01*
X130072891Y-47817142D02*
X130072891Y-47874285D01*
X130072891Y-47874285D02*
X130101462Y-47931428D01*
X130101462Y-47931428D02*
X130130034Y-47960000D01*
X130130034Y-47960000D02*
X130187177Y-47988571D01*
X130187177Y-47988571D02*
X130301462Y-48017142D01*
X130301462Y-48017142D02*
X130444320Y-48017142D01*
X130444320Y-48017142D02*
X130558605Y-47988571D01*
X130558605Y-47988571D02*
X130615748Y-47960000D01*
X130615748Y-47960000D02*
X130644320Y-47931428D01*
X130644320Y-47931428D02*
X130672891Y-47874285D01*
X130672891Y-47874285D02*
X130672891Y-47817142D01*
X130672891Y-47817142D02*
X130644320Y-47760000D01*
X130644320Y-47760000D02*
X130615748Y-47731428D01*
X130615748Y-47731428D02*
X130558605Y-47702857D01*
X130558605Y-47702857D02*
X130444320Y-47674285D01*
X130444320Y-47674285D02*
X130301462Y-47674285D01*
X130301462Y-47674285D02*
X130187177Y-47702857D01*
X130187177Y-47702857D02*
X130130034Y-47731428D01*
X130130034Y-47731428D02*
X130101462Y-47760000D01*
X130101462Y-47760000D02*
X130072891Y-47817142D01*
X49197891Y-113969286D02*
X48597891Y-113969286D01*
X48597891Y-113969286D02*
X48597891Y-114197857D01*
X48597891Y-114197857D02*
X48626462Y-114255000D01*
X48626462Y-114255000D02*
X48655034Y-114283571D01*
X48655034Y-114283571D02*
X48712177Y-114312143D01*
X48712177Y-114312143D02*
X48797891Y-114312143D01*
X48797891Y-114312143D02*
X48855034Y-114283571D01*
X48855034Y-114283571D02*
X48883605Y-114255000D01*
X48883605Y-114255000D02*
X48912177Y-114197857D01*
X48912177Y-114197857D02*
X48912177Y-113969286D01*
X49197891Y-114569286D02*
X48597891Y-114569286D01*
X48626462Y-115626428D02*
X48597891Y-115569286D01*
X48597891Y-115569286D02*
X48597891Y-115483571D01*
X48597891Y-115483571D02*
X48626462Y-115397857D01*
X48626462Y-115397857D02*
X48683605Y-115340714D01*
X48683605Y-115340714D02*
X48740748Y-115312143D01*
X48740748Y-115312143D02*
X48855034Y-115283571D01*
X48855034Y-115283571D02*
X48940748Y-115283571D01*
X48940748Y-115283571D02*
X49055034Y-115312143D01*
X49055034Y-115312143D02*
X49112177Y-115340714D01*
X49112177Y-115340714D02*
X49169320Y-115397857D01*
X49169320Y-115397857D02*
X49197891Y-115483571D01*
X49197891Y-115483571D02*
X49197891Y-115540714D01*
X49197891Y-115540714D02*
X49169320Y-115626428D01*
X49169320Y-115626428D02*
X49140748Y-115655000D01*
X49140748Y-115655000D02*
X48940748Y-115655000D01*
X48940748Y-115655000D02*
X48940748Y-115540714D01*
X49197891Y-115912143D02*
X48597891Y-115912143D01*
X48597891Y-115912143D02*
X48597891Y-116140714D01*
X48597891Y-116140714D02*
X48626462Y-116197857D01*
X48626462Y-116197857D02*
X48655034Y-116226428D01*
X48655034Y-116226428D02*
X48712177Y-116255000D01*
X48712177Y-116255000D02*
X48797891Y-116255000D01*
X48797891Y-116255000D02*
X48855034Y-116226428D01*
X48855034Y-116226428D02*
X48883605Y-116197857D01*
X48883605Y-116197857D02*
X48912177Y-116140714D01*
X48912177Y-116140714D02*
X48912177Y-115912143D01*
X49197891Y-116512143D02*
X48597891Y-116512143D01*
X48597891Y-116912142D02*
X48597891Y-117026428D01*
X48597891Y-117026428D02*
X48626462Y-117083571D01*
X48626462Y-117083571D02*
X48683605Y-117140714D01*
X48683605Y-117140714D02*
X48797891Y-117169285D01*
X48797891Y-117169285D02*
X48997891Y-117169285D01*
X48997891Y-117169285D02*
X49112177Y-117140714D01*
X49112177Y-117140714D02*
X49169320Y-117083571D01*
X49169320Y-117083571D02*
X49197891Y-117026428D01*
X49197891Y-117026428D02*
X49197891Y-116912142D01*
X49197891Y-116912142D02*
X49169320Y-116855000D01*
X49169320Y-116855000D02*
X49112177Y-116797857D01*
X49112177Y-116797857D02*
X48997891Y-116769285D01*
X48997891Y-116769285D02*
X48797891Y-116769285D01*
X48797891Y-116769285D02*
X48683605Y-116797857D01*
X48683605Y-116797857D02*
X48626462Y-116855000D01*
X48626462Y-116855000D02*
X48597891Y-116912142D01*
X43645714Y-41175680D02*
X43731429Y-41147108D01*
X43731429Y-41147108D02*
X43874286Y-41147108D01*
X43874286Y-41147108D02*
X43931429Y-41175680D01*
X43931429Y-41175680D02*
X43960000Y-41204251D01*
X43960000Y-41204251D02*
X43988571Y-41261394D01*
X43988571Y-41261394D02*
X43988571Y-41318537D01*
X43988571Y-41318537D02*
X43960000Y-41375680D01*
X43960000Y-41375680D02*
X43931429Y-41404251D01*
X43931429Y-41404251D02*
X43874286Y-41432822D01*
X43874286Y-41432822D02*
X43760000Y-41461394D01*
X43760000Y-41461394D02*
X43702857Y-41489965D01*
X43702857Y-41489965D02*
X43674286Y-41518537D01*
X43674286Y-41518537D02*
X43645714Y-41575680D01*
X43645714Y-41575680D02*
X43645714Y-41632822D01*
X43645714Y-41632822D02*
X43674286Y-41689965D01*
X43674286Y-41689965D02*
X43702857Y-41718537D01*
X43702857Y-41718537D02*
X43760000Y-41747108D01*
X43760000Y-41747108D02*
X43902857Y-41747108D01*
X43902857Y-41747108D02*
X43988571Y-41718537D01*
X44160000Y-41747108D02*
X44502858Y-41747108D01*
X44331429Y-41147108D02*
X44331429Y-41747108D01*
X45045715Y-41147108D02*
X44845715Y-41432822D01*
X44702858Y-41147108D02*
X44702858Y-41747108D01*
X44702858Y-41747108D02*
X44931429Y-41747108D01*
X44931429Y-41747108D02*
X44988572Y-41718537D01*
X44988572Y-41718537D02*
X45017143Y-41689965D01*
X45017143Y-41689965D02*
X45045715Y-41632822D01*
X45045715Y-41632822D02*
X45045715Y-41547108D01*
X45045715Y-41547108D02*
X45017143Y-41489965D01*
X45017143Y-41489965D02*
X44988572Y-41461394D01*
X44988572Y-41461394D02*
X44931429Y-41432822D01*
X44931429Y-41432822D02*
X44702858Y-41432822D01*
X45302858Y-41147108D02*
X45302858Y-41747108D01*
X45588572Y-41147108D02*
X45588572Y-41747108D01*
X45588572Y-41747108D02*
X45817143Y-41747108D01*
X45817143Y-41747108D02*
X45874286Y-41718537D01*
X45874286Y-41718537D02*
X45902857Y-41689965D01*
X45902857Y-41689965D02*
X45931429Y-41632822D01*
X45931429Y-41632822D02*
X45931429Y-41547108D01*
X45931429Y-41547108D02*
X45902857Y-41489965D01*
X45902857Y-41489965D02*
X45874286Y-41461394D01*
X45874286Y-41461394D02*
X45817143Y-41432822D01*
X45817143Y-41432822D02*
X45588572Y-41432822D01*
X46188572Y-41461394D02*
X46388572Y-41461394D01*
X46474286Y-41147108D02*
X46188572Y-41147108D01*
X46188572Y-41147108D02*
X46188572Y-41747108D01*
X46188572Y-41747108D02*
X46474286Y-41747108D01*
X67326504Y-50260462D02*
X66640790Y-50260462D01*
X66983647Y-51460462D02*
X66983647Y-50260462D01*
X66240789Y-51460462D02*
X66240789Y-50260462D01*
X66240789Y-50260462D02*
X65783646Y-50260462D01*
X65783646Y-50260462D02*
X65669361Y-50317605D01*
X65669361Y-50317605D02*
X65612218Y-50374748D01*
X65612218Y-50374748D02*
X65555075Y-50489034D01*
X65555075Y-50489034D02*
X65555075Y-50660462D01*
X65555075Y-50660462D02*
X65612218Y-50774748D01*
X65612218Y-50774748D02*
X65669361Y-50831891D01*
X65669361Y-50831891D02*
X65783646Y-50889034D01*
X65783646Y-50889034D02*
X66240789Y-50889034D01*
X64412218Y-51460462D02*
X65097932Y-51460462D01*
X64755075Y-51460462D02*
X64755075Y-50260462D01*
X64755075Y-50260462D02*
X64869361Y-50431891D01*
X64869361Y-50431891D02*
X64983646Y-50546177D01*
X64983646Y-50546177D02*
X65097932Y-50603320D01*
X63897932Y-51346177D02*
X63840789Y-51403320D01*
X63840789Y-51403320D02*
X63897932Y-51460462D01*
X63897932Y-51460462D02*
X63955075Y-51403320D01*
X63955075Y-51403320D02*
X63897932Y-51346177D01*
X63897932Y-51346177D02*
X63897932Y-51460462D01*
X63897932Y-50717605D02*
X63840789Y-50774748D01*
X63840789Y-50774748D02*
X63897932Y-50831891D01*
X63897932Y-50831891D02*
X63955075Y-50774748D01*
X63955075Y-50774748D02*
X63897932Y-50717605D01*
X63897932Y-50717605D02*
X63897932Y-50831891D01*
X62469360Y-51403320D02*
X62297932Y-51460462D01*
X62297932Y-51460462D02*
X62012217Y-51460462D01*
X62012217Y-51460462D02*
X61897932Y-51403320D01*
X61897932Y-51403320D02*
X61840789Y-51346177D01*
X61840789Y-51346177D02*
X61783646Y-51231891D01*
X61783646Y-51231891D02*
X61783646Y-51117605D01*
X61783646Y-51117605D02*
X61840789Y-51003320D01*
X61840789Y-51003320D02*
X61897932Y-50946177D01*
X61897932Y-50946177D02*
X62012217Y-50889034D01*
X62012217Y-50889034D02*
X62240789Y-50831891D01*
X62240789Y-50831891D02*
X62355074Y-50774748D01*
X62355074Y-50774748D02*
X62412217Y-50717605D01*
X62412217Y-50717605D02*
X62469360Y-50603320D01*
X62469360Y-50603320D02*
X62469360Y-50489034D01*
X62469360Y-50489034D02*
X62412217Y-50374748D01*
X62412217Y-50374748D02*
X62355074Y-50317605D01*
X62355074Y-50317605D02*
X62240789Y-50260462D01*
X62240789Y-50260462D02*
X61955074Y-50260462D01*
X61955074Y-50260462D02*
X61783646Y-50317605D01*
X60583646Y-51346177D02*
X60640789Y-51403320D01*
X60640789Y-51403320D02*
X60812217Y-51460462D01*
X60812217Y-51460462D02*
X60926503Y-51460462D01*
X60926503Y-51460462D02*
X61097932Y-51403320D01*
X61097932Y-51403320D02*
X61212217Y-51289034D01*
X61212217Y-51289034D02*
X61269360Y-51174748D01*
X61269360Y-51174748D02*
X61326503Y-50946177D01*
X61326503Y-50946177D02*
X61326503Y-50774748D01*
X61326503Y-50774748D02*
X61269360Y-50546177D01*
X61269360Y-50546177D02*
X61212217Y-50431891D01*
X61212217Y-50431891D02*
X61097932Y-50317605D01*
X61097932Y-50317605D02*
X60926503Y-50260462D01*
X60926503Y-50260462D02*
X60812217Y-50260462D01*
X60812217Y-50260462D02*
X60640789Y-50317605D01*
X60640789Y-50317605D02*
X60583646Y-50374748D01*
X59497932Y-51460462D02*
X60069360Y-51460462D01*
X60069360Y-51460462D02*
X60069360Y-50260462D01*
X67326504Y-52192462D02*
X66640790Y-52192462D01*
X66983647Y-53392462D02*
X66983647Y-52192462D01*
X66240789Y-53392462D02*
X66240789Y-52192462D01*
X66240789Y-52192462D02*
X65783646Y-52192462D01*
X65783646Y-52192462D02*
X65669361Y-52249605D01*
X65669361Y-52249605D02*
X65612218Y-52306748D01*
X65612218Y-52306748D02*
X65555075Y-52421034D01*
X65555075Y-52421034D02*
X65555075Y-52592462D01*
X65555075Y-52592462D02*
X65612218Y-52706748D01*
X65612218Y-52706748D02*
X65669361Y-52763891D01*
X65669361Y-52763891D02*
X65783646Y-52821034D01*
X65783646Y-52821034D02*
X66240789Y-52821034D01*
X65097932Y-52306748D02*
X65040789Y-52249605D01*
X65040789Y-52249605D02*
X64926504Y-52192462D01*
X64926504Y-52192462D02*
X64640789Y-52192462D01*
X64640789Y-52192462D02*
X64526504Y-52249605D01*
X64526504Y-52249605D02*
X64469361Y-52306748D01*
X64469361Y-52306748D02*
X64412218Y-52421034D01*
X64412218Y-52421034D02*
X64412218Y-52535320D01*
X64412218Y-52535320D02*
X64469361Y-52706748D01*
X64469361Y-52706748D02*
X65155075Y-53392462D01*
X65155075Y-53392462D02*
X64412218Y-53392462D01*
X63897932Y-53278177D02*
X63840789Y-53335320D01*
X63840789Y-53335320D02*
X63897932Y-53392462D01*
X63897932Y-53392462D02*
X63955075Y-53335320D01*
X63955075Y-53335320D02*
X63897932Y-53278177D01*
X63897932Y-53278177D02*
X63897932Y-53392462D01*
X63897932Y-52649605D02*
X63840789Y-52706748D01*
X63840789Y-52706748D02*
X63897932Y-52763891D01*
X63897932Y-52763891D02*
X63955075Y-52706748D01*
X63955075Y-52706748D02*
X63897932Y-52649605D01*
X63897932Y-52649605D02*
X63897932Y-52763891D01*
X62469360Y-53335320D02*
X62297932Y-53392462D01*
X62297932Y-53392462D02*
X62012217Y-53392462D01*
X62012217Y-53392462D02*
X61897932Y-53335320D01*
X61897932Y-53335320D02*
X61840789Y-53278177D01*
X61840789Y-53278177D02*
X61783646Y-53163891D01*
X61783646Y-53163891D02*
X61783646Y-53049605D01*
X61783646Y-53049605D02*
X61840789Y-52935320D01*
X61840789Y-52935320D02*
X61897932Y-52878177D01*
X61897932Y-52878177D02*
X62012217Y-52821034D01*
X62012217Y-52821034D02*
X62240789Y-52763891D01*
X62240789Y-52763891D02*
X62355074Y-52706748D01*
X62355074Y-52706748D02*
X62412217Y-52649605D01*
X62412217Y-52649605D02*
X62469360Y-52535320D01*
X62469360Y-52535320D02*
X62469360Y-52421034D01*
X62469360Y-52421034D02*
X62412217Y-52306748D01*
X62412217Y-52306748D02*
X62355074Y-52249605D01*
X62355074Y-52249605D02*
X62240789Y-52192462D01*
X62240789Y-52192462D02*
X61955074Y-52192462D01*
X61955074Y-52192462D02*
X61783646Y-52249605D01*
X61269360Y-53392462D02*
X61269360Y-52192462D01*
X61269360Y-52192462D02*
X60812217Y-52192462D01*
X60812217Y-52192462D02*
X60697932Y-52249605D01*
X60697932Y-52249605D02*
X60640789Y-52306748D01*
X60640789Y-52306748D02*
X60583646Y-52421034D01*
X60583646Y-52421034D02*
X60583646Y-52592462D01*
X60583646Y-52592462D02*
X60640789Y-52706748D01*
X60640789Y-52706748D02*
X60697932Y-52763891D01*
X60697932Y-52763891D02*
X60812217Y-52821034D01*
X60812217Y-52821034D02*
X61269360Y-52821034D01*
X60069360Y-53392462D02*
X60069360Y-52192462D01*
X57897931Y-53278177D02*
X57955074Y-53335320D01*
X57955074Y-53335320D02*
X58126502Y-53392462D01*
X58126502Y-53392462D02*
X58240788Y-53392462D01*
X58240788Y-53392462D02*
X58412217Y-53335320D01*
X58412217Y-53335320D02*
X58526502Y-53221034D01*
X58526502Y-53221034D02*
X58583645Y-53106748D01*
X58583645Y-53106748D02*
X58640788Y-52878177D01*
X58640788Y-52878177D02*
X58640788Y-52706748D01*
X58640788Y-52706748D02*
X58583645Y-52478177D01*
X58583645Y-52478177D02*
X58526502Y-52363891D01*
X58526502Y-52363891D02*
X58412217Y-52249605D01*
X58412217Y-52249605D02*
X58240788Y-52192462D01*
X58240788Y-52192462D02*
X58126502Y-52192462D01*
X58126502Y-52192462D02*
X57955074Y-52249605D01*
X57955074Y-52249605D02*
X57897931Y-52306748D01*
X57440788Y-53335320D02*
X57269360Y-53392462D01*
X57269360Y-53392462D02*
X56983645Y-53392462D01*
X56983645Y-53392462D02*
X56869360Y-53335320D01*
X56869360Y-53335320D02*
X56812217Y-53278177D01*
X56812217Y-53278177D02*
X56755074Y-53163891D01*
X56755074Y-53163891D02*
X56755074Y-53049605D01*
X56755074Y-53049605D02*
X56812217Y-52935320D01*
X56812217Y-52935320D02*
X56869360Y-52878177D01*
X56869360Y-52878177D02*
X56983645Y-52821034D01*
X56983645Y-52821034D02*
X57212217Y-52763891D01*
X57212217Y-52763891D02*
X57326502Y-52706748D01*
X57326502Y-52706748D02*
X57383645Y-52649605D01*
X57383645Y-52649605D02*
X57440788Y-52535320D01*
X57440788Y-52535320D02*
X57440788Y-52421034D01*
X57440788Y-52421034D02*
X57383645Y-52306748D01*
X57383645Y-52306748D02*
X57326502Y-52249605D01*
X57326502Y-52249605D02*
X57212217Y-52192462D01*
X57212217Y-52192462D02*
X56926502Y-52192462D01*
X56926502Y-52192462D02*
X56755074Y-52249605D01*
X55612217Y-53392462D02*
X56297931Y-53392462D01*
X55955074Y-53392462D02*
X55955074Y-52192462D01*
X55955074Y-52192462D02*
X56069360Y-52363891D01*
X56069360Y-52363891D02*
X56183645Y-52478177D01*
X56183645Y-52478177D02*
X56297931Y-52535320D01*
X54240788Y-53049605D02*
X53669360Y-53049605D01*
X54355074Y-53392462D02*
X53955074Y-52192462D01*
X53955074Y-52192462D02*
X53555074Y-53392462D01*
X67326504Y-54124462D02*
X66640790Y-54124462D01*
X66983647Y-55324462D02*
X66983647Y-54124462D01*
X66240789Y-55324462D02*
X66240789Y-54124462D01*
X66240789Y-54124462D02*
X65783646Y-54124462D01*
X65783646Y-54124462D02*
X65669361Y-54181605D01*
X65669361Y-54181605D02*
X65612218Y-54238748D01*
X65612218Y-54238748D02*
X65555075Y-54353034D01*
X65555075Y-54353034D02*
X65555075Y-54524462D01*
X65555075Y-54524462D02*
X65612218Y-54638748D01*
X65612218Y-54638748D02*
X65669361Y-54695891D01*
X65669361Y-54695891D02*
X65783646Y-54753034D01*
X65783646Y-54753034D02*
X66240789Y-54753034D01*
X65155075Y-54124462D02*
X64412218Y-54124462D01*
X64412218Y-54124462D02*
X64812218Y-54581605D01*
X64812218Y-54581605D02*
X64640789Y-54581605D01*
X64640789Y-54581605D02*
X64526504Y-54638748D01*
X64526504Y-54638748D02*
X64469361Y-54695891D01*
X64469361Y-54695891D02*
X64412218Y-54810177D01*
X64412218Y-54810177D02*
X64412218Y-55095891D01*
X64412218Y-55095891D02*
X64469361Y-55210177D01*
X64469361Y-55210177D02*
X64526504Y-55267320D01*
X64526504Y-55267320D02*
X64640789Y-55324462D01*
X64640789Y-55324462D02*
X64983646Y-55324462D01*
X64983646Y-55324462D02*
X65097932Y-55267320D01*
X65097932Y-55267320D02*
X65155075Y-55210177D01*
X63897932Y-55210177D02*
X63840789Y-55267320D01*
X63840789Y-55267320D02*
X63897932Y-55324462D01*
X63897932Y-55324462D02*
X63955075Y-55267320D01*
X63955075Y-55267320D02*
X63897932Y-55210177D01*
X63897932Y-55210177D02*
X63897932Y-55324462D01*
X63897932Y-54581605D02*
X63840789Y-54638748D01*
X63840789Y-54638748D02*
X63897932Y-54695891D01*
X63897932Y-54695891D02*
X63955075Y-54638748D01*
X63955075Y-54638748D02*
X63897932Y-54581605D01*
X63897932Y-54581605D02*
X63897932Y-54695891D01*
X62469360Y-55267320D02*
X62297932Y-55324462D01*
X62297932Y-55324462D02*
X62012217Y-55324462D01*
X62012217Y-55324462D02*
X61897932Y-55267320D01*
X61897932Y-55267320D02*
X61840789Y-55210177D01*
X61840789Y-55210177D02*
X61783646Y-55095891D01*
X61783646Y-55095891D02*
X61783646Y-54981605D01*
X61783646Y-54981605D02*
X61840789Y-54867320D01*
X61840789Y-54867320D02*
X61897932Y-54810177D01*
X61897932Y-54810177D02*
X62012217Y-54753034D01*
X62012217Y-54753034D02*
X62240789Y-54695891D01*
X62240789Y-54695891D02*
X62355074Y-54638748D01*
X62355074Y-54638748D02*
X62412217Y-54581605D01*
X62412217Y-54581605D02*
X62469360Y-54467320D01*
X62469360Y-54467320D02*
X62469360Y-54353034D01*
X62469360Y-54353034D02*
X62412217Y-54238748D01*
X62412217Y-54238748D02*
X62355074Y-54181605D01*
X62355074Y-54181605D02*
X62240789Y-54124462D01*
X62240789Y-54124462D02*
X61955074Y-54124462D01*
X61955074Y-54124462D02*
X61783646Y-54181605D01*
X61269360Y-55324462D02*
X61269360Y-54124462D01*
X61269360Y-54124462D02*
X60983646Y-54124462D01*
X60983646Y-54124462D02*
X60812217Y-54181605D01*
X60812217Y-54181605D02*
X60697932Y-54295891D01*
X60697932Y-54295891D02*
X60640789Y-54410177D01*
X60640789Y-54410177D02*
X60583646Y-54638748D01*
X60583646Y-54638748D02*
X60583646Y-54810177D01*
X60583646Y-54810177D02*
X60640789Y-55038748D01*
X60640789Y-55038748D02*
X60697932Y-55153034D01*
X60697932Y-55153034D02*
X60812217Y-55267320D01*
X60812217Y-55267320D02*
X60983646Y-55324462D01*
X60983646Y-55324462D02*
X61269360Y-55324462D01*
X60126503Y-54981605D02*
X59555075Y-54981605D01*
X60240789Y-55324462D02*
X59840789Y-54124462D01*
X59840789Y-54124462D02*
X59440789Y-55324462D01*
X67326504Y-56056462D02*
X66640790Y-56056462D01*
X66983647Y-57256462D02*
X66983647Y-56056462D01*
X66240789Y-57256462D02*
X66240789Y-56056462D01*
X66240789Y-56056462D02*
X65783646Y-56056462D01*
X65783646Y-56056462D02*
X65669361Y-56113605D01*
X65669361Y-56113605D02*
X65612218Y-56170748D01*
X65612218Y-56170748D02*
X65555075Y-56285034D01*
X65555075Y-56285034D02*
X65555075Y-56456462D01*
X65555075Y-56456462D02*
X65612218Y-56570748D01*
X65612218Y-56570748D02*
X65669361Y-56627891D01*
X65669361Y-56627891D02*
X65783646Y-56685034D01*
X65783646Y-56685034D02*
X66240789Y-56685034D01*
X64526504Y-56456462D02*
X64526504Y-57256462D01*
X64812218Y-55999320D02*
X65097932Y-56856462D01*
X65097932Y-56856462D02*
X64355075Y-56856462D01*
X63897932Y-57142177D02*
X63840789Y-57199320D01*
X63840789Y-57199320D02*
X63897932Y-57256462D01*
X63897932Y-57256462D02*
X63955075Y-57199320D01*
X63955075Y-57199320D02*
X63897932Y-57142177D01*
X63897932Y-57142177D02*
X63897932Y-57256462D01*
X63897932Y-56513605D02*
X63840789Y-56570748D01*
X63840789Y-56570748D02*
X63897932Y-56627891D01*
X63897932Y-56627891D02*
X63955075Y-56570748D01*
X63955075Y-56570748D02*
X63897932Y-56513605D01*
X63897932Y-56513605D02*
X63897932Y-56627891D01*
X62469360Y-57199320D02*
X62297932Y-57256462D01*
X62297932Y-57256462D02*
X62012217Y-57256462D01*
X62012217Y-57256462D02*
X61897932Y-57199320D01*
X61897932Y-57199320D02*
X61840789Y-57142177D01*
X61840789Y-57142177D02*
X61783646Y-57027891D01*
X61783646Y-57027891D02*
X61783646Y-56913605D01*
X61783646Y-56913605D02*
X61840789Y-56799320D01*
X61840789Y-56799320D02*
X61897932Y-56742177D01*
X61897932Y-56742177D02*
X62012217Y-56685034D01*
X62012217Y-56685034D02*
X62240789Y-56627891D01*
X62240789Y-56627891D02*
X62355074Y-56570748D01*
X62355074Y-56570748D02*
X62412217Y-56513605D01*
X62412217Y-56513605D02*
X62469360Y-56399320D01*
X62469360Y-56399320D02*
X62469360Y-56285034D01*
X62469360Y-56285034D02*
X62412217Y-56170748D01*
X62412217Y-56170748D02*
X62355074Y-56113605D01*
X62355074Y-56113605D02*
X62240789Y-56056462D01*
X62240789Y-56056462D02*
X61955074Y-56056462D01*
X61955074Y-56056462D02*
X61783646Y-56113605D01*
X61269360Y-57256462D02*
X61269360Y-56056462D01*
X61269360Y-56056462D02*
X60812217Y-56056462D01*
X60812217Y-56056462D02*
X60697932Y-56113605D01*
X60697932Y-56113605D02*
X60640789Y-56170748D01*
X60640789Y-56170748D02*
X60583646Y-56285034D01*
X60583646Y-56285034D02*
X60583646Y-56456462D01*
X60583646Y-56456462D02*
X60640789Y-56570748D01*
X60640789Y-56570748D02*
X60697932Y-56627891D01*
X60697932Y-56627891D02*
X60812217Y-56685034D01*
X60812217Y-56685034D02*
X61269360Y-56685034D01*
X60069360Y-57256462D02*
X60069360Y-56056462D01*
X57897931Y-57142177D02*
X57955074Y-57199320D01*
X57955074Y-57199320D02*
X58126502Y-57256462D01*
X58126502Y-57256462D02*
X58240788Y-57256462D01*
X58240788Y-57256462D02*
X58412217Y-57199320D01*
X58412217Y-57199320D02*
X58526502Y-57085034D01*
X58526502Y-57085034D02*
X58583645Y-56970748D01*
X58583645Y-56970748D02*
X58640788Y-56742177D01*
X58640788Y-56742177D02*
X58640788Y-56570748D01*
X58640788Y-56570748D02*
X58583645Y-56342177D01*
X58583645Y-56342177D02*
X58526502Y-56227891D01*
X58526502Y-56227891D02*
X58412217Y-56113605D01*
X58412217Y-56113605D02*
X58240788Y-56056462D01*
X58240788Y-56056462D02*
X58126502Y-56056462D01*
X58126502Y-56056462D02*
X57955074Y-56113605D01*
X57955074Y-56113605D02*
X57897931Y-56170748D01*
X57440788Y-57199320D02*
X57269360Y-57256462D01*
X57269360Y-57256462D02*
X56983645Y-57256462D01*
X56983645Y-57256462D02*
X56869360Y-57199320D01*
X56869360Y-57199320D02*
X56812217Y-57142177D01*
X56812217Y-57142177D02*
X56755074Y-57027891D01*
X56755074Y-57027891D02*
X56755074Y-56913605D01*
X56755074Y-56913605D02*
X56812217Y-56799320D01*
X56812217Y-56799320D02*
X56869360Y-56742177D01*
X56869360Y-56742177D02*
X56983645Y-56685034D01*
X56983645Y-56685034D02*
X57212217Y-56627891D01*
X57212217Y-56627891D02*
X57326502Y-56570748D01*
X57326502Y-56570748D02*
X57383645Y-56513605D01*
X57383645Y-56513605D02*
X57440788Y-56399320D01*
X57440788Y-56399320D02*
X57440788Y-56285034D01*
X57440788Y-56285034D02*
X57383645Y-56170748D01*
X57383645Y-56170748D02*
X57326502Y-56113605D01*
X57326502Y-56113605D02*
X57212217Y-56056462D01*
X57212217Y-56056462D02*
X56926502Y-56056462D01*
X56926502Y-56056462D02*
X56755074Y-56113605D01*
X56012217Y-56056462D02*
X55897931Y-56056462D01*
X55897931Y-56056462D02*
X55783645Y-56113605D01*
X55783645Y-56113605D02*
X55726503Y-56170748D01*
X55726503Y-56170748D02*
X55669360Y-56285034D01*
X55669360Y-56285034D02*
X55612217Y-56513605D01*
X55612217Y-56513605D02*
X55612217Y-56799320D01*
X55612217Y-56799320D02*
X55669360Y-57027891D01*
X55669360Y-57027891D02*
X55726503Y-57142177D01*
X55726503Y-57142177D02*
X55783645Y-57199320D01*
X55783645Y-57199320D02*
X55897931Y-57256462D01*
X55897931Y-57256462D02*
X56012217Y-57256462D01*
X56012217Y-57256462D02*
X56126503Y-57199320D01*
X56126503Y-57199320D02*
X56183645Y-57142177D01*
X56183645Y-57142177D02*
X56240788Y-57027891D01*
X56240788Y-57027891D02*
X56297931Y-56799320D01*
X56297931Y-56799320D02*
X56297931Y-56513605D01*
X56297931Y-56513605D02*
X56240788Y-56285034D01*
X56240788Y-56285034D02*
X56183645Y-56170748D01*
X56183645Y-56170748D02*
X56126503Y-56113605D01*
X56126503Y-56113605D02*
X56012217Y-56056462D01*
X54240788Y-56913605D02*
X53669360Y-56913605D01*
X54355074Y-57256462D02*
X53955074Y-56056462D01*
X53955074Y-56056462D02*
X53555074Y-57256462D01*
X67326504Y-57988462D02*
X66640790Y-57988462D01*
X66983647Y-59188462D02*
X66983647Y-57988462D01*
X66240789Y-59188462D02*
X66240789Y-57988462D01*
X66240789Y-57988462D02*
X65783646Y-57988462D01*
X65783646Y-57988462D02*
X65669361Y-58045605D01*
X65669361Y-58045605D02*
X65612218Y-58102748D01*
X65612218Y-58102748D02*
X65555075Y-58217034D01*
X65555075Y-58217034D02*
X65555075Y-58388462D01*
X65555075Y-58388462D02*
X65612218Y-58502748D01*
X65612218Y-58502748D02*
X65669361Y-58559891D01*
X65669361Y-58559891D02*
X65783646Y-58617034D01*
X65783646Y-58617034D02*
X66240789Y-58617034D01*
X64469361Y-57988462D02*
X65040789Y-57988462D01*
X65040789Y-57988462D02*
X65097932Y-58559891D01*
X65097932Y-58559891D02*
X65040789Y-58502748D01*
X65040789Y-58502748D02*
X64926504Y-58445605D01*
X64926504Y-58445605D02*
X64640789Y-58445605D01*
X64640789Y-58445605D02*
X64526504Y-58502748D01*
X64526504Y-58502748D02*
X64469361Y-58559891D01*
X64469361Y-58559891D02*
X64412218Y-58674177D01*
X64412218Y-58674177D02*
X64412218Y-58959891D01*
X64412218Y-58959891D02*
X64469361Y-59074177D01*
X64469361Y-59074177D02*
X64526504Y-59131320D01*
X64526504Y-59131320D02*
X64640789Y-59188462D01*
X64640789Y-59188462D02*
X64926504Y-59188462D01*
X64926504Y-59188462D02*
X65040789Y-59131320D01*
X65040789Y-59131320D02*
X65097932Y-59074177D01*
X63897932Y-59074177D02*
X63840789Y-59131320D01*
X63840789Y-59131320D02*
X63897932Y-59188462D01*
X63897932Y-59188462D02*
X63955075Y-59131320D01*
X63955075Y-59131320D02*
X63897932Y-59074177D01*
X63897932Y-59074177D02*
X63897932Y-59188462D01*
X63897932Y-58445605D02*
X63840789Y-58502748D01*
X63840789Y-58502748D02*
X63897932Y-58559891D01*
X63897932Y-58559891D02*
X63955075Y-58502748D01*
X63955075Y-58502748D02*
X63897932Y-58445605D01*
X63897932Y-58445605D02*
X63897932Y-58559891D01*
X62469360Y-59131320D02*
X62297932Y-59188462D01*
X62297932Y-59188462D02*
X62012217Y-59188462D01*
X62012217Y-59188462D02*
X61897932Y-59131320D01*
X61897932Y-59131320D02*
X61840789Y-59074177D01*
X61840789Y-59074177D02*
X61783646Y-58959891D01*
X61783646Y-58959891D02*
X61783646Y-58845605D01*
X61783646Y-58845605D02*
X61840789Y-58731320D01*
X61840789Y-58731320D02*
X61897932Y-58674177D01*
X61897932Y-58674177D02*
X62012217Y-58617034D01*
X62012217Y-58617034D02*
X62240789Y-58559891D01*
X62240789Y-58559891D02*
X62355074Y-58502748D01*
X62355074Y-58502748D02*
X62412217Y-58445605D01*
X62412217Y-58445605D02*
X62469360Y-58331320D01*
X62469360Y-58331320D02*
X62469360Y-58217034D01*
X62469360Y-58217034D02*
X62412217Y-58102748D01*
X62412217Y-58102748D02*
X62355074Y-58045605D01*
X62355074Y-58045605D02*
X62240789Y-57988462D01*
X62240789Y-57988462D02*
X61955074Y-57988462D01*
X61955074Y-57988462D02*
X61783646Y-58045605D01*
X61269360Y-59188462D02*
X61269360Y-57988462D01*
X61269360Y-57988462D02*
X60812217Y-57988462D01*
X60812217Y-57988462D02*
X60697932Y-58045605D01*
X60697932Y-58045605D02*
X60640789Y-58102748D01*
X60640789Y-58102748D02*
X60583646Y-58217034D01*
X60583646Y-58217034D02*
X60583646Y-58388462D01*
X60583646Y-58388462D02*
X60640789Y-58502748D01*
X60640789Y-58502748D02*
X60697932Y-58559891D01*
X60697932Y-58559891D02*
X60812217Y-58617034D01*
X60812217Y-58617034D02*
X61269360Y-58617034D01*
X60069360Y-59188462D02*
X60069360Y-57988462D01*
X57897931Y-59074177D02*
X57955074Y-59131320D01*
X57955074Y-59131320D02*
X58126502Y-59188462D01*
X58126502Y-59188462D02*
X58240788Y-59188462D01*
X58240788Y-59188462D02*
X58412217Y-59131320D01*
X58412217Y-59131320D02*
X58526502Y-59017034D01*
X58526502Y-59017034D02*
X58583645Y-58902748D01*
X58583645Y-58902748D02*
X58640788Y-58674177D01*
X58640788Y-58674177D02*
X58640788Y-58502748D01*
X58640788Y-58502748D02*
X58583645Y-58274177D01*
X58583645Y-58274177D02*
X58526502Y-58159891D01*
X58526502Y-58159891D02*
X58412217Y-58045605D01*
X58412217Y-58045605D02*
X58240788Y-57988462D01*
X58240788Y-57988462D02*
X58126502Y-57988462D01*
X58126502Y-57988462D02*
X57955074Y-58045605D01*
X57955074Y-58045605D02*
X57897931Y-58102748D01*
X56812217Y-59188462D02*
X57383645Y-59188462D01*
X57383645Y-59188462D02*
X57383645Y-57988462D01*
X56412216Y-59188462D02*
X56412216Y-57988462D01*
X55726502Y-59188462D02*
X56240788Y-58502748D01*
X55726502Y-57988462D02*
X56412216Y-58674177D01*
X67326504Y-59920462D02*
X66640790Y-59920462D01*
X66983647Y-61120462D02*
X66983647Y-59920462D01*
X66240789Y-61120462D02*
X66240789Y-59920462D01*
X66240789Y-59920462D02*
X65783646Y-59920462D01*
X65783646Y-59920462D02*
X65669361Y-59977605D01*
X65669361Y-59977605D02*
X65612218Y-60034748D01*
X65612218Y-60034748D02*
X65555075Y-60149034D01*
X65555075Y-60149034D02*
X65555075Y-60320462D01*
X65555075Y-60320462D02*
X65612218Y-60434748D01*
X65612218Y-60434748D02*
X65669361Y-60491891D01*
X65669361Y-60491891D02*
X65783646Y-60549034D01*
X65783646Y-60549034D02*
X66240789Y-60549034D01*
X64526504Y-59920462D02*
X64755075Y-59920462D01*
X64755075Y-59920462D02*
X64869361Y-59977605D01*
X64869361Y-59977605D02*
X64926504Y-60034748D01*
X64926504Y-60034748D02*
X65040789Y-60206177D01*
X65040789Y-60206177D02*
X65097932Y-60434748D01*
X65097932Y-60434748D02*
X65097932Y-60891891D01*
X65097932Y-60891891D02*
X65040789Y-61006177D01*
X65040789Y-61006177D02*
X64983646Y-61063320D01*
X64983646Y-61063320D02*
X64869361Y-61120462D01*
X64869361Y-61120462D02*
X64640789Y-61120462D01*
X64640789Y-61120462D02*
X64526504Y-61063320D01*
X64526504Y-61063320D02*
X64469361Y-61006177D01*
X64469361Y-61006177D02*
X64412218Y-60891891D01*
X64412218Y-60891891D02*
X64412218Y-60606177D01*
X64412218Y-60606177D02*
X64469361Y-60491891D01*
X64469361Y-60491891D02*
X64526504Y-60434748D01*
X64526504Y-60434748D02*
X64640789Y-60377605D01*
X64640789Y-60377605D02*
X64869361Y-60377605D01*
X64869361Y-60377605D02*
X64983646Y-60434748D01*
X64983646Y-60434748D02*
X65040789Y-60491891D01*
X65040789Y-60491891D02*
X65097932Y-60606177D01*
X63897932Y-61006177D02*
X63840789Y-61063320D01*
X63840789Y-61063320D02*
X63897932Y-61120462D01*
X63897932Y-61120462D02*
X63955075Y-61063320D01*
X63955075Y-61063320D02*
X63897932Y-61006177D01*
X63897932Y-61006177D02*
X63897932Y-61120462D01*
X63897932Y-60377605D02*
X63840789Y-60434748D01*
X63840789Y-60434748D02*
X63897932Y-60491891D01*
X63897932Y-60491891D02*
X63955075Y-60434748D01*
X63955075Y-60434748D02*
X63897932Y-60377605D01*
X63897932Y-60377605D02*
X63897932Y-60491891D01*
X62469360Y-61063320D02*
X62297932Y-61120462D01*
X62297932Y-61120462D02*
X62012217Y-61120462D01*
X62012217Y-61120462D02*
X61897932Y-61063320D01*
X61897932Y-61063320D02*
X61840789Y-61006177D01*
X61840789Y-61006177D02*
X61783646Y-60891891D01*
X61783646Y-60891891D02*
X61783646Y-60777605D01*
X61783646Y-60777605D02*
X61840789Y-60663320D01*
X61840789Y-60663320D02*
X61897932Y-60606177D01*
X61897932Y-60606177D02*
X62012217Y-60549034D01*
X62012217Y-60549034D02*
X62240789Y-60491891D01*
X62240789Y-60491891D02*
X62355074Y-60434748D01*
X62355074Y-60434748D02*
X62412217Y-60377605D01*
X62412217Y-60377605D02*
X62469360Y-60263320D01*
X62469360Y-60263320D02*
X62469360Y-60149034D01*
X62469360Y-60149034D02*
X62412217Y-60034748D01*
X62412217Y-60034748D02*
X62355074Y-59977605D01*
X62355074Y-59977605D02*
X62240789Y-59920462D01*
X62240789Y-59920462D02*
X61955074Y-59920462D01*
X61955074Y-59920462D02*
X61783646Y-59977605D01*
X61269360Y-61120462D02*
X61269360Y-59920462D01*
X61269360Y-59920462D02*
X60812217Y-59920462D01*
X60812217Y-59920462D02*
X60697932Y-59977605D01*
X60697932Y-59977605D02*
X60640789Y-60034748D01*
X60640789Y-60034748D02*
X60583646Y-60149034D01*
X60583646Y-60149034D02*
X60583646Y-60320462D01*
X60583646Y-60320462D02*
X60640789Y-60434748D01*
X60640789Y-60434748D02*
X60697932Y-60491891D01*
X60697932Y-60491891D02*
X60812217Y-60549034D01*
X60812217Y-60549034D02*
X61269360Y-60549034D01*
X60069360Y-61120462D02*
X60069360Y-59920462D01*
X58583645Y-61120462D02*
X58583645Y-59920462D01*
X58583645Y-59920462D02*
X58183645Y-60777605D01*
X58183645Y-60777605D02*
X57783645Y-59920462D01*
X57783645Y-59920462D02*
X57783645Y-61120462D01*
X56983645Y-59920462D02*
X56755073Y-59920462D01*
X56755073Y-59920462D02*
X56640788Y-59977605D01*
X56640788Y-59977605D02*
X56526502Y-60091891D01*
X56526502Y-60091891D02*
X56469359Y-60320462D01*
X56469359Y-60320462D02*
X56469359Y-60720462D01*
X56469359Y-60720462D02*
X56526502Y-60949034D01*
X56526502Y-60949034D02*
X56640788Y-61063320D01*
X56640788Y-61063320D02*
X56755073Y-61120462D01*
X56755073Y-61120462D02*
X56983645Y-61120462D01*
X56983645Y-61120462D02*
X57097931Y-61063320D01*
X57097931Y-61063320D02*
X57212216Y-60949034D01*
X57212216Y-60949034D02*
X57269359Y-60720462D01*
X57269359Y-60720462D02*
X57269359Y-60320462D01*
X57269359Y-60320462D02*
X57212216Y-60091891D01*
X57212216Y-60091891D02*
X57097931Y-59977605D01*
X57097931Y-59977605D02*
X56983645Y-59920462D01*
X56012216Y-61063320D02*
X55840788Y-61120462D01*
X55840788Y-61120462D02*
X55555073Y-61120462D01*
X55555073Y-61120462D02*
X55440788Y-61063320D01*
X55440788Y-61063320D02*
X55383645Y-61006177D01*
X55383645Y-61006177D02*
X55326502Y-60891891D01*
X55326502Y-60891891D02*
X55326502Y-60777605D01*
X55326502Y-60777605D02*
X55383645Y-60663320D01*
X55383645Y-60663320D02*
X55440788Y-60606177D01*
X55440788Y-60606177D02*
X55555073Y-60549034D01*
X55555073Y-60549034D02*
X55783645Y-60491891D01*
X55783645Y-60491891D02*
X55897930Y-60434748D01*
X55897930Y-60434748D02*
X55955073Y-60377605D01*
X55955073Y-60377605D02*
X56012216Y-60263320D01*
X56012216Y-60263320D02*
X56012216Y-60149034D01*
X56012216Y-60149034D02*
X55955073Y-60034748D01*
X55955073Y-60034748D02*
X55897930Y-59977605D01*
X55897930Y-59977605D02*
X55783645Y-59920462D01*
X55783645Y-59920462D02*
X55497930Y-59920462D01*
X55497930Y-59920462D02*
X55326502Y-59977605D01*
X54812216Y-61120462D02*
X54812216Y-59920462D01*
X67326504Y-61852462D02*
X66640790Y-61852462D01*
X66983647Y-63052462D02*
X66983647Y-61852462D01*
X66240789Y-63052462D02*
X66240789Y-61852462D01*
X66240789Y-61852462D02*
X65783646Y-61852462D01*
X65783646Y-61852462D02*
X65669361Y-61909605D01*
X65669361Y-61909605D02*
X65612218Y-61966748D01*
X65612218Y-61966748D02*
X65555075Y-62081034D01*
X65555075Y-62081034D02*
X65555075Y-62252462D01*
X65555075Y-62252462D02*
X65612218Y-62366748D01*
X65612218Y-62366748D02*
X65669361Y-62423891D01*
X65669361Y-62423891D02*
X65783646Y-62481034D01*
X65783646Y-62481034D02*
X66240789Y-62481034D01*
X65155075Y-61852462D02*
X64355075Y-61852462D01*
X64355075Y-61852462D02*
X64869361Y-63052462D01*
X63897932Y-62938177D02*
X63840789Y-62995320D01*
X63840789Y-62995320D02*
X63897932Y-63052462D01*
X63897932Y-63052462D02*
X63955075Y-62995320D01*
X63955075Y-62995320D02*
X63897932Y-62938177D01*
X63897932Y-62938177D02*
X63897932Y-63052462D01*
X63897932Y-62309605D02*
X63840789Y-62366748D01*
X63840789Y-62366748D02*
X63897932Y-62423891D01*
X63897932Y-62423891D02*
X63955075Y-62366748D01*
X63955075Y-62366748D02*
X63897932Y-62309605D01*
X63897932Y-62309605D02*
X63897932Y-62423891D01*
X62583646Y-61852462D02*
X62183646Y-63052462D01*
X62183646Y-63052462D02*
X61783646Y-61852462D01*
X60697932Y-62938177D02*
X60755075Y-62995320D01*
X60755075Y-62995320D02*
X60926503Y-63052462D01*
X60926503Y-63052462D02*
X61040789Y-63052462D01*
X61040789Y-63052462D02*
X61212218Y-62995320D01*
X61212218Y-62995320D02*
X61326503Y-62881034D01*
X61326503Y-62881034D02*
X61383646Y-62766748D01*
X61383646Y-62766748D02*
X61440789Y-62538177D01*
X61440789Y-62538177D02*
X61440789Y-62366748D01*
X61440789Y-62366748D02*
X61383646Y-62138177D01*
X61383646Y-62138177D02*
X61326503Y-62023891D01*
X61326503Y-62023891D02*
X61212218Y-61909605D01*
X61212218Y-61909605D02*
X61040789Y-61852462D01*
X61040789Y-61852462D02*
X60926503Y-61852462D01*
X60926503Y-61852462D02*
X60755075Y-61909605D01*
X60755075Y-61909605D02*
X60697932Y-61966748D01*
X60240789Y-62709605D02*
X59669361Y-62709605D01*
X60355075Y-63052462D02*
X59955075Y-61852462D01*
X59955075Y-61852462D02*
X59555075Y-63052462D01*
X58240789Y-63052462D02*
X58240789Y-61852462D01*
X58240789Y-61852462D02*
X57955075Y-61852462D01*
X57955075Y-61852462D02*
X57783646Y-61909605D01*
X57783646Y-61909605D02*
X57669361Y-62023891D01*
X57669361Y-62023891D02*
X57612218Y-62138177D01*
X57612218Y-62138177D02*
X57555075Y-62366748D01*
X57555075Y-62366748D02*
X57555075Y-62538177D01*
X57555075Y-62538177D02*
X57612218Y-62766748D01*
X57612218Y-62766748D02*
X57669361Y-62881034D01*
X57669361Y-62881034D02*
X57783646Y-62995320D01*
X57783646Y-62995320D02*
X57955075Y-63052462D01*
X57955075Y-63052462D02*
X58240789Y-63052462D01*
X57097932Y-62709605D02*
X56526504Y-62709605D01*
X57212218Y-63052462D02*
X56812218Y-61852462D01*
X56812218Y-61852462D02*
X56412218Y-63052462D01*
X55326504Y-62938177D02*
X55383647Y-62995320D01*
X55383647Y-62995320D02*
X55555075Y-63052462D01*
X55555075Y-63052462D02*
X55669361Y-63052462D01*
X55669361Y-63052462D02*
X55840790Y-62995320D01*
X55840790Y-62995320D02*
X55955075Y-62881034D01*
X55955075Y-62881034D02*
X56012218Y-62766748D01*
X56012218Y-62766748D02*
X56069361Y-62538177D01*
X56069361Y-62538177D02*
X56069361Y-62366748D01*
X56069361Y-62366748D02*
X56012218Y-62138177D01*
X56012218Y-62138177D02*
X55955075Y-62023891D01*
X55955075Y-62023891D02*
X55840790Y-61909605D01*
X55840790Y-61909605D02*
X55669361Y-61852462D01*
X55669361Y-61852462D02*
X55555075Y-61852462D01*
X55555075Y-61852462D02*
X55383647Y-61909605D01*
X55383647Y-61909605D02*
X55326504Y-61966748D01*
X53212218Y-63052462D02*
X53612218Y-62481034D01*
X53897932Y-63052462D02*
X53897932Y-61852462D01*
X53897932Y-61852462D02*
X53440789Y-61852462D01*
X53440789Y-61852462D02*
X53326504Y-61909605D01*
X53326504Y-61909605D02*
X53269361Y-61966748D01*
X53269361Y-61966748D02*
X53212218Y-62081034D01*
X53212218Y-62081034D02*
X53212218Y-62252462D01*
X53212218Y-62252462D02*
X53269361Y-62366748D01*
X53269361Y-62366748D02*
X53326504Y-62423891D01*
X53326504Y-62423891D02*
X53440789Y-62481034D01*
X53440789Y-62481034D02*
X53897932Y-62481034D01*
X52697932Y-63052462D02*
X52697932Y-61852462D01*
X51497932Y-61909605D02*
X51612218Y-61852462D01*
X51612218Y-61852462D02*
X51783646Y-61852462D01*
X51783646Y-61852462D02*
X51955075Y-61909605D01*
X51955075Y-61909605D02*
X52069360Y-62023891D01*
X52069360Y-62023891D02*
X52126503Y-62138177D01*
X52126503Y-62138177D02*
X52183646Y-62366748D01*
X52183646Y-62366748D02*
X52183646Y-62538177D01*
X52183646Y-62538177D02*
X52126503Y-62766748D01*
X52126503Y-62766748D02*
X52069360Y-62881034D01*
X52069360Y-62881034D02*
X51955075Y-62995320D01*
X51955075Y-62995320D02*
X51783646Y-63052462D01*
X51783646Y-63052462D02*
X51669360Y-63052462D01*
X51669360Y-63052462D02*
X51497932Y-62995320D01*
X51497932Y-62995320D02*
X51440789Y-62938177D01*
X51440789Y-62938177D02*
X51440789Y-62538177D01*
X51440789Y-62538177D02*
X51669360Y-62538177D01*
X50926503Y-63052462D02*
X50926503Y-61852462D01*
X50926503Y-62423891D02*
X50240789Y-62423891D01*
X50240789Y-63052462D02*
X50240789Y-61852462D01*
X49840789Y-61852462D02*
X49155075Y-61852462D01*
X49497932Y-63052462D02*
X49497932Y-61852462D01*
X67326504Y-63784462D02*
X66640790Y-63784462D01*
X66983647Y-64984462D02*
X66983647Y-63784462D01*
X66240789Y-64984462D02*
X66240789Y-63784462D01*
X66240789Y-63784462D02*
X65783646Y-63784462D01*
X65783646Y-63784462D02*
X65669361Y-63841605D01*
X65669361Y-63841605D02*
X65612218Y-63898748D01*
X65612218Y-63898748D02*
X65555075Y-64013034D01*
X65555075Y-64013034D02*
X65555075Y-64184462D01*
X65555075Y-64184462D02*
X65612218Y-64298748D01*
X65612218Y-64298748D02*
X65669361Y-64355891D01*
X65669361Y-64355891D02*
X65783646Y-64413034D01*
X65783646Y-64413034D02*
X66240789Y-64413034D01*
X64869361Y-64298748D02*
X64983646Y-64241605D01*
X64983646Y-64241605D02*
X65040789Y-64184462D01*
X65040789Y-64184462D02*
X65097932Y-64070177D01*
X65097932Y-64070177D02*
X65097932Y-64013034D01*
X65097932Y-64013034D02*
X65040789Y-63898748D01*
X65040789Y-63898748D02*
X64983646Y-63841605D01*
X64983646Y-63841605D02*
X64869361Y-63784462D01*
X64869361Y-63784462D02*
X64640789Y-63784462D01*
X64640789Y-63784462D02*
X64526504Y-63841605D01*
X64526504Y-63841605D02*
X64469361Y-63898748D01*
X64469361Y-63898748D02*
X64412218Y-64013034D01*
X64412218Y-64013034D02*
X64412218Y-64070177D01*
X64412218Y-64070177D02*
X64469361Y-64184462D01*
X64469361Y-64184462D02*
X64526504Y-64241605D01*
X64526504Y-64241605D02*
X64640789Y-64298748D01*
X64640789Y-64298748D02*
X64869361Y-64298748D01*
X64869361Y-64298748D02*
X64983646Y-64355891D01*
X64983646Y-64355891D02*
X65040789Y-64413034D01*
X65040789Y-64413034D02*
X65097932Y-64527320D01*
X65097932Y-64527320D02*
X65097932Y-64755891D01*
X65097932Y-64755891D02*
X65040789Y-64870177D01*
X65040789Y-64870177D02*
X64983646Y-64927320D01*
X64983646Y-64927320D02*
X64869361Y-64984462D01*
X64869361Y-64984462D02*
X64640789Y-64984462D01*
X64640789Y-64984462D02*
X64526504Y-64927320D01*
X64526504Y-64927320D02*
X64469361Y-64870177D01*
X64469361Y-64870177D02*
X64412218Y-64755891D01*
X64412218Y-64755891D02*
X64412218Y-64527320D01*
X64412218Y-64527320D02*
X64469361Y-64413034D01*
X64469361Y-64413034D02*
X64526504Y-64355891D01*
X64526504Y-64355891D02*
X64640789Y-64298748D01*
X63897932Y-64870177D02*
X63840789Y-64927320D01*
X63840789Y-64927320D02*
X63897932Y-64984462D01*
X63897932Y-64984462D02*
X63955075Y-64927320D01*
X63955075Y-64927320D02*
X63897932Y-64870177D01*
X63897932Y-64870177D02*
X63897932Y-64984462D01*
X63897932Y-64241605D02*
X63840789Y-64298748D01*
X63840789Y-64298748D02*
X63897932Y-64355891D01*
X63897932Y-64355891D02*
X63955075Y-64298748D01*
X63955075Y-64298748D02*
X63897932Y-64241605D01*
X63897932Y-64241605D02*
X63897932Y-64355891D01*
X62583646Y-63784462D02*
X62183646Y-64984462D01*
X62183646Y-64984462D02*
X61783646Y-63784462D01*
X60697932Y-64870177D02*
X60755075Y-64927320D01*
X60755075Y-64927320D02*
X60926503Y-64984462D01*
X60926503Y-64984462D02*
X61040789Y-64984462D01*
X61040789Y-64984462D02*
X61212218Y-64927320D01*
X61212218Y-64927320D02*
X61326503Y-64813034D01*
X61326503Y-64813034D02*
X61383646Y-64698748D01*
X61383646Y-64698748D02*
X61440789Y-64470177D01*
X61440789Y-64470177D02*
X61440789Y-64298748D01*
X61440789Y-64298748D02*
X61383646Y-64070177D01*
X61383646Y-64070177D02*
X61326503Y-63955891D01*
X61326503Y-63955891D02*
X61212218Y-63841605D01*
X61212218Y-63841605D02*
X61040789Y-63784462D01*
X61040789Y-63784462D02*
X60926503Y-63784462D01*
X60926503Y-63784462D02*
X60755075Y-63841605D01*
X60755075Y-63841605D02*
X60697932Y-63898748D01*
X60240789Y-64641605D02*
X59669361Y-64641605D01*
X60355075Y-64984462D02*
X59955075Y-63784462D01*
X59955075Y-63784462D02*
X59555075Y-64984462D01*
X58240789Y-64984462D02*
X58240789Y-63784462D01*
X58240789Y-63784462D02*
X57955075Y-63784462D01*
X57955075Y-63784462D02*
X57783646Y-63841605D01*
X57783646Y-63841605D02*
X57669361Y-63955891D01*
X57669361Y-63955891D02*
X57612218Y-64070177D01*
X57612218Y-64070177D02*
X57555075Y-64298748D01*
X57555075Y-64298748D02*
X57555075Y-64470177D01*
X57555075Y-64470177D02*
X57612218Y-64698748D01*
X57612218Y-64698748D02*
X57669361Y-64813034D01*
X57669361Y-64813034D02*
X57783646Y-64927320D01*
X57783646Y-64927320D02*
X57955075Y-64984462D01*
X57955075Y-64984462D02*
X58240789Y-64984462D01*
X57097932Y-64641605D02*
X56526504Y-64641605D01*
X57212218Y-64984462D02*
X56812218Y-63784462D01*
X56812218Y-63784462D02*
X56412218Y-64984462D01*
X55326504Y-64870177D02*
X55383647Y-64927320D01*
X55383647Y-64927320D02*
X55555075Y-64984462D01*
X55555075Y-64984462D02*
X55669361Y-64984462D01*
X55669361Y-64984462D02*
X55840790Y-64927320D01*
X55840790Y-64927320D02*
X55955075Y-64813034D01*
X55955075Y-64813034D02*
X56012218Y-64698748D01*
X56012218Y-64698748D02*
X56069361Y-64470177D01*
X56069361Y-64470177D02*
X56069361Y-64298748D01*
X56069361Y-64298748D02*
X56012218Y-64070177D01*
X56012218Y-64070177D02*
X55955075Y-63955891D01*
X55955075Y-63955891D02*
X55840790Y-63841605D01*
X55840790Y-63841605D02*
X55669361Y-63784462D01*
X55669361Y-63784462D02*
X55555075Y-63784462D01*
X55555075Y-63784462D02*
X55383647Y-63841605D01*
X55383647Y-63841605D02*
X55326504Y-63898748D01*
X53326504Y-64984462D02*
X53897932Y-64984462D01*
X53897932Y-64984462D02*
X53897932Y-63784462D01*
X52926503Y-64355891D02*
X52526503Y-64355891D01*
X52355075Y-64984462D02*
X52926503Y-64984462D01*
X52926503Y-64984462D02*
X52926503Y-63784462D01*
X52926503Y-63784462D02*
X52355075Y-63784462D01*
X51440789Y-64355891D02*
X51840789Y-64355891D01*
X51840789Y-64984462D02*
X51840789Y-63784462D01*
X51840789Y-63784462D02*
X51269361Y-63784462D01*
X50983647Y-63784462D02*
X50297933Y-63784462D01*
X50640790Y-64984462D02*
X50640790Y-63784462D01*
X67326504Y-65716462D02*
X66640790Y-65716462D01*
X66983647Y-66916462D02*
X66983647Y-65716462D01*
X66240789Y-66916462D02*
X66240789Y-65716462D01*
X66240789Y-65716462D02*
X65783646Y-65716462D01*
X65783646Y-65716462D02*
X65669361Y-65773605D01*
X65669361Y-65773605D02*
X65612218Y-65830748D01*
X65612218Y-65830748D02*
X65555075Y-65945034D01*
X65555075Y-65945034D02*
X65555075Y-66116462D01*
X65555075Y-66116462D02*
X65612218Y-66230748D01*
X65612218Y-66230748D02*
X65669361Y-66287891D01*
X65669361Y-66287891D02*
X65783646Y-66345034D01*
X65783646Y-66345034D02*
X66240789Y-66345034D01*
X64412218Y-66916462D02*
X65097932Y-66916462D01*
X64755075Y-66916462D02*
X64755075Y-65716462D01*
X64755075Y-65716462D02*
X64869361Y-65887891D01*
X64869361Y-65887891D02*
X64983646Y-66002177D01*
X64983646Y-66002177D02*
X65097932Y-66059320D01*
X63669361Y-65716462D02*
X63555075Y-65716462D01*
X63555075Y-65716462D02*
X63440789Y-65773605D01*
X63440789Y-65773605D02*
X63383647Y-65830748D01*
X63383647Y-65830748D02*
X63326504Y-65945034D01*
X63326504Y-65945034D02*
X63269361Y-66173605D01*
X63269361Y-66173605D02*
X63269361Y-66459320D01*
X63269361Y-66459320D02*
X63326504Y-66687891D01*
X63326504Y-66687891D02*
X63383647Y-66802177D01*
X63383647Y-66802177D02*
X63440789Y-66859320D01*
X63440789Y-66859320D02*
X63555075Y-66916462D01*
X63555075Y-66916462D02*
X63669361Y-66916462D01*
X63669361Y-66916462D02*
X63783647Y-66859320D01*
X63783647Y-66859320D02*
X63840789Y-66802177D01*
X63840789Y-66802177D02*
X63897932Y-66687891D01*
X63897932Y-66687891D02*
X63955075Y-66459320D01*
X63955075Y-66459320D02*
X63955075Y-66173605D01*
X63955075Y-66173605D02*
X63897932Y-65945034D01*
X63897932Y-65945034D02*
X63840789Y-65830748D01*
X63840789Y-65830748D02*
X63783647Y-65773605D01*
X63783647Y-65773605D02*
X63669361Y-65716462D01*
X62755075Y-66802177D02*
X62697932Y-66859320D01*
X62697932Y-66859320D02*
X62755075Y-66916462D01*
X62755075Y-66916462D02*
X62812218Y-66859320D01*
X62812218Y-66859320D02*
X62755075Y-66802177D01*
X62755075Y-66802177D02*
X62755075Y-66916462D01*
X62755075Y-66173605D02*
X62697932Y-66230748D01*
X62697932Y-66230748D02*
X62755075Y-66287891D01*
X62755075Y-66287891D02*
X62812218Y-66230748D01*
X62812218Y-66230748D02*
X62755075Y-66173605D01*
X62755075Y-66173605D02*
X62755075Y-66287891D01*
X61269360Y-66916462D02*
X61269360Y-65716462D01*
X61269360Y-65716462D02*
X60869360Y-66573605D01*
X60869360Y-66573605D02*
X60469360Y-65716462D01*
X60469360Y-65716462D02*
X60469360Y-66916462D01*
X59669360Y-65716462D02*
X59440788Y-65716462D01*
X59440788Y-65716462D02*
X59326503Y-65773605D01*
X59326503Y-65773605D02*
X59212217Y-65887891D01*
X59212217Y-65887891D02*
X59155074Y-66116462D01*
X59155074Y-66116462D02*
X59155074Y-66516462D01*
X59155074Y-66516462D02*
X59212217Y-66745034D01*
X59212217Y-66745034D02*
X59326503Y-66859320D01*
X59326503Y-66859320D02*
X59440788Y-66916462D01*
X59440788Y-66916462D02*
X59669360Y-66916462D01*
X59669360Y-66916462D02*
X59783646Y-66859320D01*
X59783646Y-66859320D02*
X59897931Y-66745034D01*
X59897931Y-66745034D02*
X59955074Y-66516462D01*
X59955074Y-66516462D02*
X59955074Y-66116462D01*
X59955074Y-66116462D02*
X59897931Y-65887891D01*
X59897931Y-65887891D02*
X59783646Y-65773605D01*
X59783646Y-65773605D02*
X59669360Y-65716462D01*
X58640788Y-66916462D02*
X58640788Y-65716462D01*
X58640788Y-65716462D02*
X58355074Y-65716462D01*
X58355074Y-65716462D02*
X58183645Y-65773605D01*
X58183645Y-65773605D02*
X58069360Y-65887891D01*
X58069360Y-65887891D02*
X58012217Y-66002177D01*
X58012217Y-66002177D02*
X57955074Y-66230748D01*
X57955074Y-66230748D02*
X57955074Y-66402177D01*
X57955074Y-66402177D02*
X58012217Y-66630748D01*
X58012217Y-66630748D02*
X58069360Y-66745034D01*
X58069360Y-66745034D02*
X58183645Y-66859320D01*
X58183645Y-66859320D02*
X58355074Y-66916462D01*
X58355074Y-66916462D02*
X58640788Y-66916462D01*
X57440788Y-65716462D02*
X57440788Y-66687891D01*
X57440788Y-66687891D02*
X57383645Y-66802177D01*
X57383645Y-66802177D02*
X57326503Y-66859320D01*
X57326503Y-66859320D02*
X57212217Y-66916462D01*
X57212217Y-66916462D02*
X56983645Y-66916462D01*
X56983645Y-66916462D02*
X56869360Y-66859320D01*
X56869360Y-66859320D02*
X56812217Y-66802177D01*
X56812217Y-66802177D02*
X56755074Y-66687891D01*
X56755074Y-66687891D02*
X56755074Y-65716462D01*
X55612217Y-66916462D02*
X56183645Y-66916462D01*
X56183645Y-66916462D02*
X56183645Y-65716462D01*
X55212216Y-66287891D02*
X54812216Y-66287891D01*
X54640788Y-66916462D02*
X55212216Y-66916462D01*
X55212216Y-66916462D02*
X55212216Y-65716462D01*
X55212216Y-65716462D02*
X54640788Y-65716462D01*
X53269359Y-66573605D02*
X52697931Y-66573605D01*
X53383645Y-66916462D02*
X52983645Y-65716462D01*
X52983645Y-65716462D02*
X52583645Y-66916462D01*
X50697931Y-65716462D02*
X51269359Y-65716462D01*
X51269359Y-65716462D02*
X51326502Y-66287891D01*
X51326502Y-66287891D02*
X51269359Y-66230748D01*
X51269359Y-66230748D02*
X51155074Y-66173605D01*
X51155074Y-66173605D02*
X50869359Y-66173605D01*
X50869359Y-66173605D02*
X50755074Y-66230748D01*
X50755074Y-66230748D02*
X50697931Y-66287891D01*
X50697931Y-66287891D02*
X50640788Y-66402177D01*
X50640788Y-66402177D02*
X50640788Y-66687891D01*
X50640788Y-66687891D02*
X50697931Y-66802177D01*
X50697931Y-66802177D02*
X50755074Y-66859320D01*
X50755074Y-66859320D02*
X50869359Y-66916462D01*
X50869359Y-66916462D02*
X51155074Y-66916462D01*
X51155074Y-66916462D02*
X51269359Y-66859320D01*
X51269359Y-66859320D02*
X51326502Y-66802177D01*
X50297931Y-65716462D02*
X49897931Y-66916462D01*
X49897931Y-66916462D02*
X49497931Y-65716462D01*
X67326504Y-67648462D02*
X66640790Y-67648462D01*
X66983647Y-68848462D02*
X66983647Y-67648462D01*
X66240789Y-68848462D02*
X66240789Y-67648462D01*
X66240789Y-67648462D02*
X65783646Y-67648462D01*
X65783646Y-67648462D02*
X65669361Y-67705605D01*
X65669361Y-67705605D02*
X65612218Y-67762748D01*
X65612218Y-67762748D02*
X65555075Y-67877034D01*
X65555075Y-67877034D02*
X65555075Y-68048462D01*
X65555075Y-68048462D02*
X65612218Y-68162748D01*
X65612218Y-68162748D02*
X65669361Y-68219891D01*
X65669361Y-68219891D02*
X65783646Y-68277034D01*
X65783646Y-68277034D02*
X66240789Y-68277034D01*
X64412218Y-68848462D02*
X65097932Y-68848462D01*
X64755075Y-68848462D02*
X64755075Y-67648462D01*
X64755075Y-67648462D02*
X64869361Y-67819891D01*
X64869361Y-67819891D02*
X64983646Y-67934177D01*
X64983646Y-67934177D02*
X65097932Y-67991320D01*
X63269361Y-68848462D02*
X63955075Y-68848462D01*
X63612218Y-68848462D02*
X63612218Y-67648462D01*
X63612218Y-67648462D02*
X63726504Y-67819891D01*
X63726504Y-67819891D02*
X63840789Y-67934177D01*
X63840789Y-67934177D02*
X63955075Y-67991320D01*
X62755075Y-68734177D02*
X62697932Y-68791320D01*
X62697932Y-68791320D02*
X62755075Y-68848462D01*
X62755075Y-68848462D02*
X62812218Y-68791320D01*
X62812218Y-68791320D02*
X62755075Y-68734177D01*
X62755075Y-68734177D02*
X62755075Y-68848462D01*
X62755075Y-68105605D02*
X62697932Y-68162748D01*
X62697932Y-68162748D02*
X62755075Y-68219891D01*
X62755075Y-68219891D02*
X62812218Y-68162748D01*
X62812218Y-68162748D02*
X62755075Y-68105605D01*
X62755075Y-68105605D02*
X62755075Y-68219891D01*
X61326503Y-68791320D02*
X61155075Y-68848462D01*
X61155075Y-68848462D02*
X60869360Y-68848462D01*
X60869360Y-68848462D02*
X60755075Y-68791320D01*
X60755075Y-68791320D02*
X60697932Y-68734177D01*
X60697932Y-68734177D02*
X60640789Y-68619891D01*
X60640789Y-68619891D02*
X60640789Y-68505605D01*
X60640789Y-68505605D02*
X60697932Y-68391320D01*
X60697932Y-68391320D02*
X60755075Y-68334177D01*
X60755075Y-68334177D02*
X60869360Y-68277034D01*
X60869360Y-68277034D02*
X61097932Y-68219891D01*
X61097932Y-68219891D02*
X61212217Y-68162748D01*
X61212217Y-68162748D02*
X61269360Y-68105605D01*
X61269360Y-68105605D02*
X61326503Y-67991320D01*
X61326503Y-67991320D02*
X61326503Y-67877034D01*
X61326503Y-67877034D02*
X61269360Y-67762748D01*
X61269360Y-67762748D02*
X61212217Y-67705605D01*
X61212217Y-67705605D02*
X61097932Y-67648462D01*
X61097932Y-67648462D02*
X60812217Y-67648462D01*
X60812217Y-67648462D02*
X60640789Y-67705605D01*
X60126503Y-68848462D02*
X60126503Y-67648462D01*
X60126503Y-67648462D02*
X59669360Y-67648462D01*
X59669360Y-67648462D02*
X59555075Y-67705605D01*
X59555075Y-67705605D02*
X59497932Y-67762748D01*
X59497932Y-67762748D02*
X59440789Y-67877034D01*
X59440789Y-67877034D02*
X59440789Y-68048462D01*
X59440789Y-68048462D02*
X59497932Y-68162748D01*
X59497932Y-68162748D02*
X59555075Y-68219891D01*
X59555075Y-68219891D02*
X59669360Y-68277034D01*
X59669360Y-68277034D02*
X60126503Y-68277034D01*
X58926503Y-68848462D02*
X58926503Y-67648462D01*
X56755074Y-68734177D02*
X56812217Y-68791320D01*
X56812217Y-68791320D02*
X56983645Y-68848462D01*
X56983645Y-68848462D02*
X57097931Y-68848462D01*
X57097931Y-68848462D02*
X57269360Y-68791320D01*
X57269360Y-68791320D02*
X57383645Y-68677034D01*
X57383645Y-68677034D02*
X57440788Y-68562748D01*
X57440788Y-68562748D02*
X57497931Y-68334177D01*
X57497931Y-68334177D02*
X57497931Y-68162748D01*
X57497931Y-68162748D02*
X57440788Y-67934177D01*
X57440788Y-67934177D02*
X57383645Y-67819891D01*
X57383645Y-67819891D02*
X57269360Y-67705605D01*
X57269360Y-67705605D02*
X57097931Y-67648462D01*
X57097931Y-67648462D02*
X56983645Y-67648462D01*
X56983645Y-67648462D02*
X56812217Y-67705605D01*
X56812217Y-67705605D02*
X56755074Y-67762748D01*
X56297931Y-68791320D02*
X56126503Y-68848462D01*
X56126503Y-68848462D02*
X55840788Y-68848462D01*
X55840788Y-68848462D02*
X55726503Y-68791320D01*
X55726503Y-68791320D02*
X55669360Y-68734177D01*
X55669360Y-68734177D02*
X55612217Y-68619891D01*
X55612217Y-68619891D02*
X55612217Y-68505605D01*
X55612217Y-68505605D02*
X55669360Y-68391320D01*
X55669360Y-68391320D02*
X55726503Y-68334177D01*
X55726503Y-68334177D02*
X55840788Y-68277034D01*
X55840788Y-68277034D02*
X56069360Y-68219891D01*
X56069360Y-68219891D02*
X56183645Y-68162748D01*
X56183645Y-68162748D02*
X56240788Y-68105605D01*
X56240788Y-68105605D02*
X56297931Y-67991320D01*
X56297931Y-67991320D02*
X56297931Y-67877034D01*
X56297931Y-67877034D02*
X56240788Y-67762748D01*
X56240788Y-67762748D02*
X56183645Y-67705605D01*
X56183645Y-67705605D02*
X56069360Y-67648462D01*
X56069360Y-67648462D02*
X55783645Y-67648462D01*
X55783645Y-67648462D02*
X55612217Y-67705605D01*
X54469360Y-68848462D02*
X55155074Y-68848462D01*
X54812217Y-68848462D02*
X54812217Y-67648462D01*
X54812217Y-67648462D02*
X54926503Y-67819891D01*
X54926503Y-67819891D02*
X55040788Y-67934177D01*
X55040788Y-67934177D02*
X55155074Y-67991320D01*
X52640788Y-68219891D02*
X53040788Y-68219891D01*
X53040788Y-68848462D02*
X53040788Y-67648462D01*
X53040788Y-67648462D02*
X52469360Y-67648462D01*
D12*
X97529599Y-131051200D02*
X97140133Y-131051200D01*
X97140133Y-127986267D01*
X97529599Y-127986267D01*
X97529599Y-131051200D01*
G36*
X97529599Y-131051200D02*
G01*
X97140133Y-131051200D01*
X97140133Y-127986267D01*
X97529599Y-127986267D01*
X97529599Y-131051200D01*
G37*
X116393333Y-128324934D02*
X115564599Y-128324934D01*
X115440787Y-128325072D01*
X115266893Y-128325793D01*
X115113109Y-128327094D01*
X114981727Y-128328931D01*
X114875041Y-128331260D01*
X114795342Y-128334039D01*
X114744923Y-128337224D01*
X114726076Y-128340772D01*
X114732775Y-128354079D01*
X114757828Y-128393130D01*
X114800053Y-128455832D01*
X114858056Y-128540197D01*
X114930441Y-128644237D01*
X115015814Y-128765963D01*
X115112779Y-128903388D01*
X115219943Y-129054524D01*
X115335911Y-129217383D01*
X115459287Y-129389976D01*
X115588677Y-129570315D01*
X116461066Y-130784020D01*
X116461066Y-131051200D01*
X114191999Y-131051200D01*
X114191999Y-130695601D01*
X115072533Y-130695601D01*
X115137608Y-130695575D01*
X115303057Y-130695271D01*
X115456645Y-130694651D01*
X115595230Y-130693749D01*
X115715668Y-130692598D01*
X115814814Y-130691233D01*
X115889525Y-130689686D01*
X115936657Y-130687991D01*
X115953066Y-130686182D01*
X115945649Y-130674566D01*
X115919907Y-130637187D01*
X115877102Y-130575998D01*
X115818641Y-130492988D01*
X115745935Y-130390146D01*
X115660392Y-130269458D01*
X115563423Y-130132914D01*
X115456437Y-129982501D01*
X115340842Y-129820208D01*
X115218049Y-129648023D01*
X115089466Y-129467934D01*
X114225866Y-128259104D01*
X114225866Y-127986267D01*
X116393333Y-127986267D01*
X116393333Y-128324934D01*
G36*
X116393333Y-128324934D02*
G01*
X115564599Y-128324934D01*
X115440787Y-128325072D01*
X115266893Y-128325793D01*
X115113109Y-128327094D01*
X114981727Y-128328931D01*
X114875041Y-128331260D01*
X114795342Y-128334039D01*
X114744923Y-128337224D01*
X114726076Y-128340772D01*
X114732775Y-128354079D01*
X114757828Y-128393130D01*
X114800053Y-128455832D01*
X114858056Y-128540197D01*
X114930441Y-128644237D01*
X115015814Y-128765963D01*
X115112779Y-128903388D01*
X115219943Y-129054524D01*
X115335911Y-129217383D01*
X115459287Y-129389976D01*
X115588677Y-129570315D01*
X116461066Y-130784020D01*
X116461066Y-131051200D01*
X114191999Y-131051200D01*
X114191999Y-130695601D01*
X115072533Y-130695601D01*
X115137608Y-130695575D01*
X115303057Y-130695271D01*
X115456645Y-130694651D01*
X115595230Y-130693749D01*
X115715668Y-130692598D01*
X115814814Y-130691233D01*
X115889525Y-130689686D01*
X115936657Y-130687991D01*
X115953066Y-130686182D01*
X115945649Y-130674566D01*
X115919907Y-130637187D01*
X115877102Y-130575998D01*
X115818641Y-130492988D01*
X115745935Y-130390146D01*
X115660392Y-130269458D01*
X115563423Y-130132914D01*
X115456437Y-129982501D01*
X115340842Y-129820208D01*
X115218049Y-129648023D01*
X115089466Y-129467934D01*
X114225866Y-128259104D01*
X114225866Y-127986267D01*
X116393333Y-127986267D01*
X116393333Y-128324934D01*
G37*
X105132666Y-129182141D02*
X105132685Y-129291481D01*
X105132883Y-129513634D01*
X105133322Y-129704802D01*
X105134041Y-129866981D01*
X105135075Y-130002165D01*
X105136461Y-130112348D01*
X105138235Y-130199526D01*
X105140434Y-130265692D01*
X105143094Y-130312842D01*
X105146252Y-130342969D01*
X105149945Y-130358069D01*
X105154208Y-130360136D01*
X105160802Y-130352020D01*
X105185801Y-130318067D01*
X105227697Y-130259767D01*
X105285034Y-130179182D01*
X105356359Y-130078377D01*
X105440218Y-129959413D01*
X105535157Y-129824356D01*
X105639723Y-129675267D01*
X105752462Y-129514212D01*
X105871919Y-129343253D01*
X105996641Y-129164454D01*
X106817533Y-127986651D01*
X107198533Y-127986267D01*
X107198533Y-131051200D01*
X106809066Y-131051200D01*
X106809066Y-129864456D01*
X106809054Y-129790170D01*
X106808826Y-129556520D01*
X106808286Y-129354609D01*
X106807407Y-129182789D01*
X106806161Y-129039413D01*
X106804522Y-128922835D01*
X106802461Y-128831406D01*
X106799952Y-128763480D01*
X106796968Y-128717409D01*
X106793480Y-128691547D01*
X106789461Y-128684247D01*
X106782934Y-128691330D01*
X106758047Y-128723724D01*
X106716235Y-128780470D01*
X106658949Y-128859531D01*
X106587641Y-128958871D01*
X106503761Y-129076455D01*
X106408760Y-129210246D01*
X106304092Y-129358207D01*
X106191205Y-129518304D01*
X106071553Y-129688500D01*
X105946585Y-129866758D01*
X105123314Y-131042734D01*
X104933257Y-131047522D01*
X104743199Y-131052310D01*
X104743199Y-127986267D01*
X105132666Y-127986267D01*
X105132666Y-129182141D01*
G36*
X105132666Y-129182141D02*
G01*
X105132685Y-129291481D01*
X105132883Y-129513634D01*
X105133322Y-129704802D01*
X105134041Y-129866981D01*
X105135075Y-130002165D01*
X105136461Y-130112348D01*
X105138235Y-130199526D01*
X105140434Y-130265692D01*
X105143094Y-130312842D01*
X105146252Y-130342969D01*
X105149945Y-130358069D01*
X105154208Y-130360136D01*
X105160802Y-130352020D01*
X105185801Y-130318067D01*
X105227697Y-130259767D01*
X105285034Y-130179182D01*
X105356359Y-130078377D01*
X105440218Y-129959413D01*
X105535157Y-129824356D01*
X105639723Y-129675267D01*
X105752462Y-129514212D01*
X105871919Y-129343253D01*
X105996641Y-129164454D01*
X106817533Y-127986651D01*
X107198533Y-127986267D01*
X107198533Y-131051200D01*
X106809066Y-131051200D01*
X106809066Y-129864456D01*
X106809054Y-129790170D01*
X106808826Y-129556520D01*
X106808286Y-129354609D01*
X106807407Y-129182789D01*
X106806161Y-129039413D01*
X106804522Y-128922835D01*
X106802461Y-128831406D01*
X106799952Y-128763480D01*
X106796968Y-128717409D01*
X106793480Y-128691547D01*
X106789461Y-128684247D01*
X106782934Y-128691330D01*
X106758047Y-128723724D01*
X106716235Y-128780470D01*
X106658949Y-128859531D01*
X106587641Y-128958871D01*
X106503761Y-129076455D01*
X106408760Y-129210246D01*
X106304092Y-129358207D01*
X106191205Y-129518304D01*
X106071553Y-129688500D01*
X105946585Y-129866758D01*
X105123314Y-131042734D01*
X104933257Y-131047522D01*
X104743199Y-131052310D01*
X104743199Y-127986267D01*
X105132666Y-127986267D01*
X105132666Y-129182141D01*
G37*
X90807657Y-128998034D02*
X90807726Y-129088386D01*
X90808108Y-129306529D01*
X90808927Y-129494559D01*
X90810368Y-129655205D01*
X90812616Y-129791197D01*
X90815855Y-129905260D01*
X90820269Y-130000126D01*
X90826045Y-130078521D01*
X90833366Y-130143174D01*
X90842418Y-130196813D01*
X90853385Y-130242167D01*
X90866452Y-130281964D01*
X90881804Y-130318933D01*
X90899626Y-130355801D01*
X90904939Y-130366082D01*
X90989636Y-130491897D01*
X91098012Y-130595017D01*
X91227722Y-130674297D01*
X91376423Y-130728591D01*
X91541768Y-130756752D01*
X91721416Y-130757634D01*
X91731885Y-130756863D01*
X91883554Y-130736521D01*
X92012635Y-130698949D01*
X92126861Y-130641167D01*
X92233967Y-130560197D01*
X92235154Y-130559148D01*
X92318359Y-130470465D01*
X92384426Y-130364586D01*
X92438326Y-130233561D01*
X92440523Y-130227010D01*
X92447441Y-130204768D01*
X92453360Y-130181171D01*
X92458374Y-130153510D01*
X92462578Y-130119074D01*
X92466068Y-130075155D01*
X92468940Y-130019044D01*
X92471288Y-129948031D01*
X92473208Y-129859407D01*
X92474795Y-129750463D01*
X92476144Y-129618490D01*
X92477352Y-129460778D01*
X92478513Y-129274618D01*
X92479723Y-129057301D01*
X92485522Y-127986267D01*
X92855999Y-127986267D01*
X92855999Y-129093802D01*
X92855947Y-129311341D01*
X92855750Y-129497971D01*
X92855333Y-129656439D01*
X92854620Y-129789492D01*
X92853535Y-129899876D01*
X92852004Y-129990339D01*
X92849951Y-130063627D01*
X92847299Y-130122487D01*
X92843974Y-130169667D01*
X92839900Y-130207913D01*
X92835001Y-130239972D01*
X92829202Y-130268590D01*
X92822427Y-130296516D01*
X92786032Y-130417645D01*
X92728027Y-130549994D01*
X92651359Y-130668163D01*
X92550178Y-130782600D01*
X92504385Y-130827288D01*
X92433339Y-130888422D01*
X92362366Y-130936436D01*
X92278960Y-130980452D01*
X92262864Y-130988076D01*
X92071712Y-131062658D01*
X91882333Y-131107933D01*
X91876531Y-131108669D01*
X91834121Y-131110977D01*
X91767701Y-131112085D01*
X91685179Y-131111924D01*
X91594466Y-131110426D01*
X91465194Y-131104567D01*
X91331037Y-131089426D01*
X91212660Y-131063408D01*
X91100537Y-131024317D01*
X90985143Y-130969957D01*
X90942552Y-130945816D01*
X90825803Y-130861522D01*
X90715368Y-130757456D01*
X90620156Y-130642682D01*
X90549077Y-130526267D01*
X90532121Y-130491610D01*
X90512633Y-130450258D01*
X90495945Y-130410785D01*
X90481837Y-130370439D01*
X90470094Y-130326471D01*
X90460497Y-130276132D01*
X90452829Y-130216672D01*
X90446871Y-130145342D01*
X90442406Y-130059392D01*
X90439217Y-129956073D01*
X90437086Y-129832634D01*
X90435794Y-129686327D01*
X90435125Y-129514403D01*
X90434861Y-129314110D01*
X90434783Y-129082701D01*
X90434533Y-127986267D01*
X90807066Y-127986267D01*
X90807657Y-128998034D01*
G36*
X90807657Y-128998034D02*
G01*
X90807726Y-129088386D01*
X90808108Y-129306529D01*
X90808927Y-129494559D01*
X90810368Y-129655205D01*
X90812616Y-129791197D01*
X90815855Y-129905260D01*
X90820269Y-130000126D01*
X90826045Y-130078521D01*
X90833366Y-130143174D01*
X90842418Y-130196813D01*
X90853385Y-130242167D01*
X90866452Y-130281964D01*
X90881804Y-130318933D01*
X90899626Y-130355801D01*
X90904939Y-130366082D01*
X90989636Y-130491897D01*
X91098012Y-130595017D01*
X91227722Y-130674297D01*
X91376423Y-130728591D01*
X91541768Y-130756752D01*
X91721416Y-130757634D01*
X91731885Y-130756863D01*
X91883554Y-130736521D01*
X92012635Y-130698949D01*
X92126861Y-130641167D01*
X92233967Y-130560197D01*
X92235154Y-130559148D01*
X92318359Y-130470465D01*
X92384426Y-130364586D01*
X92438326Y-130233561D01*
X92440523Y-130227010D01*
X92447441Y-130204768D01*
X92453360Y-130181171D01*
X92458374Y-130153510D01*
X92462578Y-130119074D01*
X92466068Y-130075155D01*
X92468940Y-130019044D01*
X92471288Y-129948031D01*
X92473208Y-129859407D01*
X92474795Y-129750463D01*
X92476144Y-129618490D01*
X92477352Y-129460778D01*
X92478513Y-129274618D01*
X92479723Y-129057301D01*
X92485522Y-127986267D01*
X92855999Y-127986267D01*
X92855999Y-129093802D01*
X92855947Y-129311341D01*
X92855750Y-129497971D01*
X92855333Y-129656439D01*
X92854620Y-129789492D01*
X92853535Y-129899876D01*
X92852004Y-129990339D01*
X92849951Y-130063627D01*
X92847299Y-130122487D01*
X92843974Y-130169667D01*
X92839900Y-130207913D01*
X92835001Y-130239972D01*
X92829202Y-130268590D01*
X92822427Y-130296516D01*
X92786032Y-130417645D01*
X92728027Y-130549994D01*
X92651359Y-130668163D01*
X92550178Y-130782600D01*
X92504385Y-130827288D01*
X92433339Y-130888422D01*
X92362366Y-130936436D01*
X92278960Y-130980452D01*
X92262864Y-130988076D01*
X92071712Y-131062658D01*
X91882333Y-131107933D01*
X91876531Y-131108669D01*
X91834121Y-131110977D01*
X91767701Y-131112085D01*
X91685179Y-131111924D01*
X91594466Y-131110426D01*
X91465194Y-131104567D01*
X91331037Y-131089426D01*
X91212660Y-131063408D01*
X91100537Y-131024317D01*
X90985143Y-130969957D01*
X90942552Y-130945816D01*
X90825803Y-130861522D01*
X90715368Y-130757456D01*
X90620156Y-130642682D01*
X90549077Y-130526267D01*
X90532121Y-130491610D01*
X90512633Y-130450258D01*
X90495945Y-130410785D01*
X90481837Y-130370439D01*
X90470094Y-130326471D01*
X90460497Y-130276132D01*
X90452829Y-130216672D01*
X90446871Y-130145342D01*
X90442406Y-130059392D01*
X90439217Y-129956073D01*
X90437086Y-129832634D01*
X90435794Y-129686327D01*
X90435125Y-129514403D01*
X90434861Y-129314110D01*
X90434783Y-129082701D01*
X90434533Y-127986267D01*
X90807066Y-127986267D01*
X90807657Y-128998034D01*
G37*
X108622806Y-128595867D02*
X108679045Y-128679255D01*
X108762105Y-128801669D01*
X108838317Y-128913113D01*
X108905690Y-129010719D01*
X108962229Y-129091623D01*
X109005941Y-129152959D01*
X109034833Y-129191863D01*
X109046910Y-129205467D01*
X109052288Y-129200113D01*
X109074790Y-129170281D01*
X109112650Y-129116809D01*
X109163891Y-129042586D01*
X109226540Y-128950503D01*
X109298621Y-128843452D01*
X109378161Y-128724324D01*
X109463184Y-128596009D01*
X109865533Y-127986551D01*
X110332461Y-127986267D01*
X110260893Y-128092100D01*
X110239999Y-128122916D01*
X110199772Y-128182105D01*
X110145506Y-128261863D01*
X110079948Y-128358157D01*
X110005842Y-128466955D01*
X109925934Y-128584225D01*
X109842968Y-128705934D01*
X109777579Y-128801841D01*
X109694044Y-128924362D01*
X109614502Y-129041026D01*
X109541969Y-129147410D01*
X109479464Y-129239087D01*
X109430002Y-129311632D01*
X109396602Y-129360621D01*
X109296591Y-129507309D01*
X109806865Y-130256212D01*
X109853509Y-130324713D01*
X109948116Y-130463921D01*
X110036158Y-130593829D01*
X110115842Y-130711770D01*
X110185376Y-130815078D01*
X110242970Y-130901089D01*
X110286829Y-130967137D01*
X110315164Y-131010555D01*
X110326180Y-131028679D01*
X110326371Y-131029199D01*
X110324401Y-131038793D01*
X110307379Y-131044993D01*
X110270613Y-131048224D01*
X110209409Y-131048914D01*
X110119074Y-131047488D01*
X109902925Y-131042734D01*
X109503229Y-130446627D01*
X109460879Y-130383665D01*
X109376157Y-130258949D01*
X109298130Y-130145724D01*
X109228790Y-130046787D01*
X109170128Y-129964935D01*
X109124136Y-129902964D01*
X109092807Y-129863671D01*
X109078133Y-129849852D01*
X109076490Y-129850404D01*
X109057841Y-129869643D01*
X109022782Y-129914724D01*
X108972871Y-129983429D01*
X108909667Y-130073544D01*
X108834727Y-130182854D01*
X108749611Y-130309141D01*
X108655876Y-130450192D01*
X108259018Y-131051200D01*
X108033576Y-131051200D01*
X108012783Y-131051157D01*
X107932568Y-131050103D01*
X107867579Y-131047856D01*
X107824030Y-131044699D01*
X107808133Y-131040915D01*
X107810197Y-131036962D01*
X107827816Y-131009238D01*
X107861983Y-130957398D01*
X107910943Y-130884054D01*
X107972938Y-130791814D01*
X108046212Y-130683290D01*
X108129007Y-130561093D01*
X108219566Y-130427832D01*
X108316133Y-130286118D01*
X108361494Y-130219573D01*
X108455551Y-130081168D01*
X108542778Y-129952247D01*
X108621414Y-129835445D01*
X108689699Y-129733398D01*
X108745874Y-129648742D01*
X108788178Y-129584111D01*
X108814851Y-129542141D01*
X108824133Y-129525468D01*
X108824123Y-129525368D01*
X108814269Y-129508432D01*
X108787344Y-129466833D01*
X108745465Y-129403670D01*
X108690745Y-129322044D01*
X108625300Y-129225054D01*
X108551244Y-129115800D01*
X108470692Y-128997382D01*
X108385760Y-128872899D01*
X108298562Y-128745452D01*
X108211212Y-128618140D01*
X108125826Y-128494063D01*
X108044518Y-128376321D01*
X107969404Y-128268013D01*
X107902598Y-128172240D01*
X107846215Y-128092100D01*
X107771293Y-127986267D01*
X108212626Y-127986267D01*
X108622806Y-128595867D01*
G36*
X108622806Y-128595867D02*
G01*
X108679045Y-128679255D01*
X108762105Y-128801669D01*
X108838317Y-128913113D01*
X108905690Y-129010719D01*
X108962229Y-129091623D01*
X109005941Y-129152959D01*
X109034833Y-129191863D01*
X109046910Y-129205467D01*
X109052288Y-129200113D01*
X109074790Y-129170281D01*
X109112650Y-129116809D01*
X109163891Y-129042586D01*
X109226540Y-128950503D01*
X109298621Y-128843452D01*
X109378161Y-128724324D01*
X109463184Y-128596009D01*
X109865533Y-127986551D01*
X110332461Y-127986267D01*
X110260893Y-128092100D01*
X110239999Y-128122916D01*
X110199772Y-128182105D01*
X110145506Y-128261863D01*
X110079948Y-128358157D01*
X110005842Y-128466955D01*
X109925934Y-128584225D01*
X109842968Y-128705934D01*
X109777579Y-128801841D01*
X109694044Y-128924362D01*
X109614502Y-129041026D01*
X109541969Y-129147410D01*
X109479464Y-129239087D01*
X109430002Y-129311632D01*
X109396602Y-129360621D01*
X109296591Y-129507309D01*
X109806865Y-130256212D01*
X109853509Y-130324713D01*
X109948116Y-130463921D01*
X110036158Y-130593829D01*
X110115842Y-130711770D01*
X110185376Y-130815078D01*
X110242970Y-130901089D01*
X110286829Y-130967137D01*
X110315164Y-131010555D01*
X110326180Y-131028679D01*
X110326371Y-131029199D01*
X110324401Y-131038793D01*
X110307379Y-131044993D01*
X110270613Y-131048224D01*
X110209409Y-131048914D01*
X110119074Y-131047488D01*
X109902925Y-131042734D01*
X109503229Y-130446627D01*
X109460879Y-130383665D01*
X109376157Y-130258949D01*
X109298130Y-130145724D01*
X109228790Y-130046787D01*
X109170128Y-129964935D01*
X109124136Y-129902964D01*
X109092807Y-129863671D01*
X109078133Y-129849852D01*
X109076490Y-129850404D01*
X109057841Y-129869643D01*
X109022782Y-129914724D01*
X108972871Y-129983429D01*
X108909667Y-130073544D01*
X108834727Y-130182854D01*
X108749611Y-130309141D01*
X108655876Y-130450192D01*
X108259018Y-131051200D01*
X108033576Y-131051200D01*
X108012783Y-131051157D01*
X107932568Y-131050103D01*
X107867579Y-131047856D01*
X107824030Y-131044699D01*
X107808133Y-131040915D01*
X107810197Y-131036962D01*
X107827816Y-131009238D01*
X107861983Y-130957398D01*
X107910943Y-130884054D01*
X107972938Y-130791814D01*
X108046212Y-130683290D01*
X108129007Y-130561093D01*
X108219566Y-130427832D01*
X108316133Y-130286118D01*
X108361494Y-130219573D01*
X108455551Y-130081168D01*
X108542778Y-129952247D01*
X108621414Y-129835445D01*
X108689699Y-129733398D01*
X108745874Y-129648742D01*
X108788178Y-129584111D01*
X108814851Y-129542141D01*
X108824133Y-129525468D01*
X108824123Y-129525368D01*
X108814269Y-129508432D01*
X108787344Y-129466833D01*
X108745465Y-129403670D01*
X108690745Y-129322044D01*
X108625300Y-129225054D01*
X108551244Y-129115800D01*
X108470692Y-128997382D01*
X108385760Y-128872899D01*
X108298562Y-128745452D01*
X108211212Y-128618140D01*
X108125826Y-128494063D01*
X108044518Y-128376321D01*
X107969404Y-128268013D01*
X107902598Y-128172240D01*
X107846215Y-128092100D01*
X107771293Y-127986267D01*
X108212626Y-127986267D01*
X108622806Y-128595867D01*
G37*
X104077757Y-129422194D02*
X104077771Y-129422564D01*
X104078137Y-129660164D01*
X104059898Y-129874404D01*
X104021970Y-130070902D01*
X103963270Y-130255274D01*
X103882714Y-130433134D01*
X103839426Y-130510557D01*
X103790086Y-130583465D01*
X103729922Y-130656243D01*
X103650999Y-130739377D01*
X103600645Y-130789303D01*
X103536353Y-130848196D01*
X103477674Y-130893528D01*
X103414753Y-130932647D01*
X103337733Y-130972899D01*
X103181408Y-131039474D01*
X103024466Y-131084565D01*
X102997880Y-131089785D01*
X102858463Y-131108350D01*
X102706319Y-131116736D01*
X102556320Y-131114528D01*
X102423333Y-131101312D01*
X102407562Y-131098740D01*
X102201254Y-131048316D01*
X102013824Y-130970188D01*
X101845955Y-130865187D01*
X101698327Y-130734145D01*
X101571622Y-130577891D01*
X101466521Y-130397256D01*
X101383707Y-130193071D01*
X101323860Y-129966166D01*
X101287663Y-129717372D01*
X101287183Y-129712153D01*
X101281965Y-129575064D01*
X101679597Y-129575064D01*
X101697286Y-129784056D01*
X101736190Y-129982487D01*
X101795415Y-130164428D01*
X101874068Y-130323952D01*
X101909135Y-130377138D01*
X102016277Y-130500004D01*
X102145722Y-130604365D01*
X102290671Y-130685289D01*
X102444326Y-130737840D01*
X102495574Y-130747093D01*
X102587665Y-130756340D01*
X102689178Y-130760492D01*
X102785895Y-130759083D01*
X102863600Y-130751643D01*
X102889061Y-130747000D01*
X103051939Y-130698063D01*
X103201753Y-130619421D01*
X103335303Y-130513542D01*
X103449388Y-130382891D01*
X103540805Y-130229934D01*
X103572075Y-130161980D01*
X103610688Y-130061656D01*
X103639604Y-129958522D01*
X103661538Y-129842237D01*
X103679201Y-129702461D01*
X103685864Y-129624952D01*
X103687860Y-129409813D01*
X103665778Y-129203826D01*
X103620675Y-129010796D01*
X103553612Y-128834529D01*
X103465648Y-128678830D01*
X103357840Y-128547506D01*
X103312023Y-128503945D01*
X103175816Y-128401492D01*
X103028560Y-128329888D01*
X102867135Y-128287860D01*
X102688422Y-128274134D01*
X102583544Y-128277225D01*
X102465431Y-128292018D01*
X102356312Y-128321592D01*
X102242924Y-128368764D01*
X102141455Y-128426368D01*
X102014255Y-128531093D01*
X101905592Y-128662104D01*
X101816760Y-128817428D01*
X101749048Y-128995089D01*
X101703750Y-129193112D01*
X101684014Y-129361436D01*
X101679597Y-129575064D01*
X101281965Y-129575064D01*
X101277964Y-129469931D01*
X101294071Y-129235486D01*
X101334392Y-129011847D01*
X101397810Y-128802043D01*
X101483211Y-128609103D01*
X101589481Y-128436056D01*
X101715504Y-128285931D01*
X101860166Y-128161757D01*
X101999445Y-128073696D01*
X102163166Y-127999388D01*
X102338499Y-127950412D01*
X102530332Y-127925448D01*
X102743549Y-127923176D01*
X102805588Y-127925985D01*
X102928870Y-127935714D01*
X103033275Y-127951999D01*
X103129160Y-127977315D01*
X103226880Y-128014137D01*
X103336795Y-128064940D01*
X103370661Y-128081884D01*
X103443534Y-128122268D01*
X103505872Y-128165024D01*
X103568403Y-128218041D01*
X103641860Y-128289207D01*
X103673817Y-128322141D01*
X103796002Y-128468096D01*
X103894179Y-128623644D01*
X103969896Y-128792805D01*
X104024699Y-128979603D01*
X104060138Y-129188058D01*
X104076826Y-129409813D01*
X104077757Y-129422194D01*
G36*
X104077757Y-129422194D02*
G01*
X104077771Y-129422564D01*
X104078137Y-129660164D01*
X104059898Y-129874404D01*
X104021970Y-130070902D01*
X103963270Y-130255274D01*
X103882714Y-130433134D01*
X103839426Y-130510557D01*
X103790086Y-130583465D01*
X103729922Y-130656243D01*
X103650999Y-130739377D01*
X103600645Y-130789303D01*
X103536353Y-130848196D01*
X103477674Y-130893528D01*
X103414753Y-130932647D01*
X103337733Y-130972899D01*
X103181408Y-131039474D01*
X103024466Y-131084565D01*
X102997880Y-131089785D01*
X102858463Y-131108350D01*
X102706319Y-131116736D01*
X102556320Y-131114528D01*
X102423333Y-131101312D01*
X102407562Y-131098740D01*
X102201254Y-131048316D01*
X102013824Y-130970188D01*
X101845955Y-130865187D01*
X101698327Y-130734145D01*
X101571622Y-130577891D01*
X101466521Y-130397256D01*
X101383707Y-130193071D01*
X101323860Y-129966166D01*
X101287663Y-129717372D01*
X101287183Y-129712153D01*
X101281965Y-129575064D01*
X101679597Y-129575064D01*
X101697286Y-129784056D01*
X101736190Y-129982487D01*
X101795415Y-130164428D01*
X101874068Y-130323952D01*
X101909135Y-130377138D01*
X102016277Y-130500004D01*
X102145722Y-130604365D01*
X102290671Y-130685289D01*
X102444326Y-130737840D01*
X102495574Y-130747093D01*
X102587665Y-130756340D01*
X102689178Y-130760492D01*
X102785895Y-130759083D01*
X102863600Y-130751643D01*
X102889061Y-130747000D01*
X103051939Y-130698063D01*
X103201753Y-130619421D01*
X103335303Y-130513542D01*
X103449388Y-130382891D01*
X103540805Y-130229934D01*
X103572075Y-130161980D01*
X103610688Y-130061656D01*
X103639604Y-129958522D01*
X103661538Y-129842237D01*
X103679201Y-129702461D01*
X103685864Y-129624952D01*
X103687860Y-129409813D01*
X103665778Y-129203826D01*
X103620675Y-129010796D01*
X103553612Y-128834529D01*
X103465648Y-128678830D01*
X103357840Y-128547506D01*
X103312023Y-128503945D01*
X103175816Y-128401492D01*
X103028560Y-128329888D01*
X102867135Y-128287860D01*
X102688422Y-128274134D01*
X102583544Y-128277225D01*
X102465431Y-128292018D01*
X102356312Y-128321592D01*
X102242924Y-128368764D01*
X102141455Y-128426368D01*
X102014255Y-128531093D01*
X101905592Y-128662104D01*
X101816760Y-128817428D01*
X101749048Y-128995089D01*
X101703750Y-129193112D01*
X101684014Y-129361436D01*
X101679597Y-129575064D01*
X101281965Y-129575064D01*
X101277964Y-129469931D01*
X101294071Y-129235486D01*
X101334392Y-129011847D01*
X101397810Y-128802043D01*
X101483211Y-128609103D01*
X101589481Y-128436056D01*
X101715504Y-128285931D01*
X101860166Y-128161757D01*
X101999445Y-128073696D01*
X102163166Y-127999388D01*
X102338499Y-127950412D01*
X102530332Y-127925448D01*
X102743549Y-127923176D01*
X102805588Y-127925985D01*
X102928870Y-127935714D01*
X103033275Y-127951999D01*
X103129160Y-127977315D01*
X103226880Y-128014137D01*
X103336795Y-128064940D01*
X103370661Y-128081884D01*
X103443534Y-128122268D01*
X103505872Y-128165024D01*
X103568403Y-128218041D01*
X103641860Y-128289207D01*
X103673817Y-128322141D01*
X103796002Y-128468096D01*
X103894179Y-128623644D01*
X103969896Y-128792805D01*
X104024699Y-128979603D01*
X104060138Y-129188058D01*
X104076826Y-129409813D01*
X104077757Y-129422194D01*
G37*
X100592726Y-127986305D02*
X100673147Y-127987089D01*
X100738241Y-127988734D01*
X100781830Y-127991036D01*
X100797733Y-127993789D01*
X100795532Y-127997715D01*
X100777655Y-128025310D01*
X100743264Y-128077013D01*
X100694112Y-128150229D01*
X100631950Y-128242364D01*
X100558530Y-128350822D01*
X100475607Y-128473010D01*
X100384931Y-128606331D01*
X100288255Y-128748192D01*
X100220255Y-128848104D01*
X100106945Y-129015794D01*
X100009929Y-129161074D01*
X99929763Y-129283080D01*
X99867005Y-129380948D01*
X99822215Y-129453816D01*
X99795948Y-129500821D01*
X99788764Y-129521098D01*
X99789654Y-129522902D01*
X99804823Y-129547393D01*
X99836829Y-129596481D01*
X99883820Y-129667400D01*
X99943941Y-129757382D01*
X100015340Y-129863660D01*
X100096162Y-129983467D01*
X100184556Y-130114034D01*
X100278666Y-130252596D01*
X100296787Y-130279235D01*
X100390831Y-130417544D01*
X100479470Y-130547998D01*
X100560754Y-130667718D01*
X100632732Y-130773829D01*
X100693453Y-130863453D01*
X100740967Y-130933713D01*
X100773324Y-130981732D01*
X100788572Y-131004634D01*
X100818561Y-131051200D01*
X100600714Y-131051111D01*
X100382866Y-131051022D01*
X99977761Y-130449978D01*
X99926602Y-130374325D01*
X99843315Y-130252270D01*
X99766504Y-130141067D01*
X99698220Y-130043603D01*
X99640512Y-129962769D01*
X99595430Y-129901453D01*
X99565024Y-129862545D01*
X99551343Y-129848934D01*
X99545759Y-129853430D01*
X99522523Y-129881931D01*
X99483921Y-129934194D01*
X99431987Y-130007310D01*
X99368752Y-130098366D01*
X99296249Y-130204452D01*
X99216512Y-130322656D01*
X99131574Y-130450067D01*
X98733118Y-131051200D01*
X98502893Y-131051200D01*
X98421019Y-131050745D01*
X98351160Y-131048794D01*
X98307907Y-131044947D01*
X98287323Y-131038821D01*
X98285468Y-131030034D01*
X98288288Y-131025698D01*
X98307692Y-130996803D01*
X98343590Y-130943756D01*
X98394166Y-130869228D01*
X98457604Y-130775893D01*
X98532088Y-130666420D01*
X98615801Y-130543481D01*
X98706927Y-130409747D01*
X98803649Y-130267891D01*
X99309030Y-129526915D01*
X99254419Y-129446624D01*
X99239666Y-129425037D01*
X99205375Y-129375038D01*
X99155826Y-129302894D01*
X99093238Y-129211829D01*
X99019827Y-129105069D01*
X98937810Y-128985839D01*
X98849405Y-128857363D01*
X98756829Y-128722867D01*
X98680631Y-128612139D01*
X98593198Y-128484973D01*
X98512566Y-128367577D01*
X98440804Y-128262972D01*
X98379981Y-128174176D01*
X98332167Y-128104208D01*
X98299431Y-128056087D01*
X98283844Y-128032834D01*
X98253838Y-127986267D01*
X98471685Y-127986522D01*
X98689533Y-127986776D01*
X99095933Y-128595368D01*
X99150293Y-128676551D01*
X99233020Y-128799221D01*
X99309082Y-128910948D01*
X99376474Y-129008851D01*
X99433192Y-129090045D01*
X99477233Y-129151646D01*
X99506592Y-129190772D01*
X99519266Y-129204538D01*
X99525049Y-129199259D01*
X99548187Y-129169544D01*
X99586649Y-129116180D01*
X99638443Y-129042054D01*
X99701577Y-128950054D01*
X99774061Y-128843069D01*
X99853902Y-128723985D01*
X99939109Y-128595692D01*
X100342019Y-127986267D01*
X100569876Y-127986267D01*
X100592726Y-127986305D01*
G36*
X100592726Y-127986305D02*
G01*
X100673147Y-127987089D01*
X100738241Y-127988734D01*
X100781830Y-127991036D01*
X100797733Y-127993789D01*
X100795532Y-127997715D01*
X100777655Y-128025310D01*
X100743264Y-128077013D01*
X100694112Y-128150229D01*
X100631950Y-128242364D01*
X100558530Y-128350822D01*
X100475607Y-128473010D01*
X100384931Y-128606331D01*
X100288255Y-128748192D01*
X100220255Y-128848104D01*
X100106945Y-129015794D01*
X100009929Y-129161074D01*
X99929763Y-129283080D01*
X99867005Y-129380948D01*
X99822215Y-129453816D01*
X99795948Y-129500821D01*
X99788764Y-129521098D01*
X99789654Y-129522902D01*
X99804823Y-129547393D01*
X99836829Y-129596481D01*
X99883820Y-129667400D01*
X99943941Y-129757382D01*
X100015340Y-129863660D01*
X100096162Y-129983467D01*
X100184556Y-130114034D01*
X100278666Y-130252596D01*
X100296787Y-130279235D01*
X100390831Y-130417544D01*
X100479470Y-130547998D01*
X100560754Y-130667718D01*
X100632732Y-130773829D01*
X100693453Y-130863453D01*
X100740967Y-130933713D01*
X100773324Y-130981732D01*
X100788572Y-131004634D01*
X100818561Y-131051200D01*
X100600714Y-131051111D01*
X100382866Y-131051022D01*
X99977761Y-130449978D01*
X99926602Y-130374325D01*
X99843315Y-130252270D01*
X99766504Y-130141067D01*
X99698220Y-130043603D01*
X99640512Y-129962769D01*
X99595430Y-129901453D01*
X99565024Y-129862545D01*
X99551343Y-129848934D01*
X99545759Y-129853430D01*
X99522523Y-129881931D01*
X99483921Y-129934194D01*
X99431987Y-130007310D01*
X99368752Y-130098366D01*
X99296249Y-130204452D01*
X99216512Y-130322656D01*
X99131574Y-130450067D01*
X98733118Y-131051200D01*
X98502893Y-131051200D01*
X98421019Y-131050745D01*
X98351160Y-131048794D01*
X98307907Y-131044947D01*
X98287323Y-131038821D01*
X98285468Y-131030034D01*
X98288288Y-131025698D01*
X98307692Y-130996803D01*
X98343590Y-130943756D01*
X98394166Y-130869228D01*
X98457604Y-130775893D01*
X98532088Y-130666420D01*
X98615801Y-130543481D01*
X98706927Y-130409747D01*
X98803649Y-130267891D01*
X99309030Y-129526915D01*
X99254419Y-129446624D01*
X99239666Y-129425037D01*
X99205375Y-129375038D01*
X99155826Y-129302894D01*
X99093238Y-129211829D01*
X99019827Y-129105069D01*
X98937810Y-128985839D01*
X98849405Y-128857363D01*
X98756829Y-128722867D01*
X98680631Y-128612139D01*
X98593198Y-128484973D01*
X98512566Y-128367577D01*
X98440804Y-128262972D01*
X98379981Y-128174176D01*
X98332167Y-128104208D01*
X98299431Y-128056087D01*
X98283844Y-128032834D01*
X98253838Y-127986267D01*
X98471685Y-127986522D01*
X98689533Y-127986776D01*
X99095933Y-128595368D01*
X99150293Y-128676551D01*
X99233020Y-128799221D01*
X99309082Y-128910948D01*
X99376474Y-129008851D01*
X99433192Y-129090045D01*
X99477233Y-129151646D01*
X99506592Y-129190772D01*
X99519266Y-129204538D01*
X99525049Y-129199259D01*
X99548187Y-129169544D01*
X99586649Y-129116180D01*
X99638443Y-129042054D01*
X99701577Y-128950054D01*
X99774061Y-128843069D01*
X99853902Y-128723985D01*
X99939109Y-128595692D01*
X100342019Y-127986267D01*
X100569876Y-127986267D01*
X100592726Y-127986305D01*
G37*
X113605695Y-129584459D02*
X113598578Y-129732480D01*
X113585652Y-129869195D01*
X113567125Y-129984401D01*
X113509633Y-130197188D01*
X113425877Y-130398932D01*
X113317727Y-130578565D01*
X113184466Y-130737497D01*
X113054124Y-130854015D01*
X112891053Y-130960414D01*
X112709746Y-131040066D01*
X112507133Y-131094589D01*
X112430224Y-131105569D01*
X112306535Y-131112391D01*
X112151533Y-131111446D01*
X112000478Y-131103364D01*
X111872228Y-131086774D01*
X111757061Y-131059267D01*
X111644849Y-131018422D01*
X111525463Y-130961818D01*
X111439702Y-130910290D01*
X111322104Y-130819379D01*
X111208995Y-130710990D01*
X111108946Y-130593546D01*
X111030529Y-130475467D01*
X111006858Y-130431350D01*
X110921897Y-130232932D01*
X110859740Y-130015943D01*
X110820817Y-129785983D01*
X110805556Y-129548654D01*
X110807132Y-129505983D01*
X111202665Y-129505983D01*
X111211584Y-129721432D01*
X111244133Y-129922938D01*
X111299212Y-130108224D01*
X111375720Y-130275012D01*
X111472555Y-130421022D01*
X111588618Y-130543978D01*
X111722808Y-130641602D01*
X111874025Y-130711615D01*
X111878256Y-130713064D01*
X111983458Y-130738958D01*
X112107250Y-130754437D01*
X112237096Y-130759032D01*
X112360458Y-130752274D01*
X112464800Y-130733696D01*
X112622395Y-130676265D01*
X112771527Y-130588407D01*
X112900623Y-130473736D01*
X113009031Y-130332961D01*
X113096099Y-130166790D01*
X113161177Y-129975934D01*
X113184061Y-129862049D01*
X113199847Y-129722669D01*
X113207510Y-129571490D01*
X113206810Y-129419264D01*
X113197510Y-129276739D01*
X113179371Y-129154667D01*
X113151325Y-129034734D01*
X113112607Y-128910259D01*
X113065751Y-128801973D01*
X113007068Y-128700142D01*
X112984473Y-128666412D01*
X112873366Y-128531533D01*
X112747285Y-128426332D01*
X112604438Y-128349797D01*
X112443034Y-128300914D01*
X112261283Y-128278672D01*
X112218488Y-128276995D01*
X112092318Y-128278464D01*
X111984096Y-128292380D01*
X111882691Y-128320738D01*
X111776972Y-128365534D01*
X111734764Y-128387136D01*
X111592888Y-128482718D01*
X111473097Y-128603297D01*
X111375239Y-128749136D01*
X111299162Y-128920496D01*
X111244714Y-129117641D01*
X111211742Y-129340833D01*
X111202665Y-129505983D01*
X110807132Y-129505983D01*
X110814385Y-129309554D01*
X110847733Y-129074285D01*
X110906029Y-128848447D01*
X110965928Y-128687962D01*
X111039041Y-128545140D01*
X111129640Y-128415666D01*
X111243897Y-128289329D01*
X111275363Y-128258227D01*
X111343326Y-128195371D01*
X111404642Y-128147464D01*
X111470078Y-128106628D01*
X111550399Y-128064981D01*
X111607026Y-128037830D01*
X111701681Y-127996480D01*
X111787317Y-127966685D01*
X111872490Y-127946663D01*
X111965757Y-127934632D01*
X112075675Y-127928811D01*
X112210799Y-127927415D01*
X112236236Y-127927496D01*
X112366764Y-127930026D01*
X112473388Y-127937221D01*
X112564507Y-127950673D01*
X112648526Y-127971972D01*
X112733844Y-128002710D01*
X112828866Y-128044478D01*
X112917185Y-128090101D01*
X113081355Y-128202822D01*
X113225433Y-128341888D01*
X113348594Y-128506106D01*
X113450013Y-128694283D01*
X113528866Y-128905223D01*
X113584326Y-129137734D01*
X113590119Y-129174604D01*
X113601673Y-129295318D01*
X113606796Y-129435337D01*
X113605790Y-129571490D01*
X113605695Y-129584459D01*
G36*
X113605695Y-129584459D02*
G01*
X113598578Y-129732480D01*
X113585652Y-129869195D01*
X113567125Y-129984401D01*
X113509633Y-130197188D01*
X113425877Y-130398932D01*
X113317727Y-130578565D01*
X113184466Y-130737497D01*
X113054124Y-130854015D01*
X112891053Y-130960414D01*
X112709746Y-131040066D01*
X112507133Y-131094589D01*
X112430224Y-131105569D01*
X112306535Y-131112391D01*
X112151533Y-131111446D01*
X112000478Y-131103364D01*
X111872228Y-131086774D01*
X111757061Y-131059267D01*
X111644849Y-131018422D01*
X111525463Y-130961818D01*
X111439702Y-130910290D01*
X111322104Y-130819379D01*
X111208995Y-130710990D01*
X111108946Y-130593546D01*
X111030529Y-130475467D01*
X111006858Y-130431350D01*
X110921897Y-130232932D01*
X110859740Y-130015943D01*
X110820817Y-129785983D01*
X110805556Y-129548654D01*
X110807132Y-129505983D01*
X111202665Y-129505983D01*
X111211584Y-129721432D01*
X111244133Y-129922938D01*
X111299212Y-130108224D01*
X111375720Y-130275012D01*
X111472555Y-130421022D01*
X111588618Y-130543978D01*
X111722808Y-130641602D01*
X111874025Y-130711615D01*
X111878256Y-130713064D01*
X111983458Y-130738958D01*
X112107250Y-130754437D01*
X112237096Y-130759032D01*
X112360458Y-130752274D01*
X112464800Y-130733696D01*
X112622395Y-130676265D01*
X112771527Y-130588407D01*
X112900623Y-130473736D01*
X113009031Y-130332961D01*
X113096099Y-130166790D01*
X113161177Y-129975934D01*
X113184061Y-129862049D01*
X113199847Y-129722669D01*
X113207510Y-129571490D01*
X113206810Y-129419264D01*
X113197510Y-129276739D01*
X113179371Y-129154667D01*
X113151325Y-129034734D01*
X113112607Y-128910259D01*
X113065751Y-128801973D01*
X113007068Y-128700142D01*
X112984473Y-128666412D01*
X112873366Y-128531533D01*
X112747285Y-128426332D01*
X112604438Y-128349797D01*
X112443034Y-128300914D01*
X112261283Y-128278672D01*
X112218488Y-128276995D01*
X112092318Y-128278464D01*
X111984096Y-128292380D01*
X111882691Y-128320738D01*
X111776972Y-128365534D01*
X111734764Y-128387136D01*
X111592888Y-128482718D01*
X111473097Y-128603297D01*
X111375239Y-128749136D01*
X111299162Y-128920496D01*
X111244714Y-129117641D01*
X111211742Y-129340833D01*
X111202665Y-129505983D01*
X110807132Y-129505983D01*
X110814385Y-129309554D01*
X110847733Y-129074285D01*
X110906029Y-128848447D01*
X110965928Y-128687962D01*
X111039041Y-128545140D01*
X111129640Y-128415666D01*
X111243897Y-128289329D01*
X111275363Y-128258227D01*
X111343326Y-128195371D01*
X111404642Y-128147464D01*
X111470078Y-128106628D01*
X111550399Y-128064981D01*
X111607026Y-128037830D01*
X111701681Y-127996480D01*
X111787317Y-127966685D01*
X111872490Y-127946663D01*
X111965757Y-127934632D01*
X112075675Y-127928811D01*
X112210799Y-127927415D01*
X112236236Y-127927496D01*
X112366764Y-127930026D01*
X112473388Y-127937221D01*
X112564507Y-127950673D01*
X112648526Y-127971972D01*
X112733844Y-128002710D01*
X112828866Y-128044478D01*
X112917185Y-128090101D01*
X113081355Y-128202822D01*
X113225433Y-128341888D01*
X113348594Y-128506106D01*
X113450013Y-128694283D01*
X113528866Y-128905223D01*
X113584326Y-129137734D01*
X113590119Y-129174604D01*
X113601673Y-129295318D01*
X113606796Y-129435337D01*
X113605790Y-129571490D01*
X113605695Y-129584459D01*
G37*
X96334091Y-129518734D02*
X96332906Y-129623008D01*
X96325287Y-129772282D01*
X96309396Y-129904982D01*
X96283832Y-130031494D01*
X96247192Y-130162201D01*
X96172647Y-130357210D01*
X96069817Y-130544169D01*
X95944411Y-130706646D01*
X95797333Y-130843805D01*
X95629491Y-130954811D01*
X95441789Y-131038829D01*
X95235133Y-131095026D01*
X95214187Y-131098727D01*
X95109525Y-131109846D01*
X94986296Y-131113984D01*
X94854912Y-131111526D01*
X94725782Y-131102857D01*
X94609318Y-131088363D01*
X94515930Y-131068427D01*
X94439806Y-131044358D01*
X94270404Y-130971149D01*
X94117667Y-130873561D01*
X93973599Y-130746854D01*
X93944366Y-130717053D01*
X93850341Y-130611291D01*
X93776417Y-130507330D01*
X93715107Y-130393546D01*
X93658923Y-130258316D01*
X93648794Y-130230758D01*
X93602609Y-130085286D01*
X93570057Y-129939501D01*
X93549125Y-129782505D01*
X93537795Y-129603401D01*
X93536705Y-129475406D01*
X93929194Y-129475406D01*
X93938625Y-129692903D01*
X93969354Y-129900857D01*
X94022571Y-130100258D01*
X94096828Y-130273530D01*
X94192410Y-130421105D01*
X94309601Y-130543418D01*
X94448687Y-130640901D01*
X94609953Y-130713990D01*
X94646709Y-130725096D01*
X94745682Y-130744033D01*
X94860527Y-130755244D01*
X94979403Y-130758239D01*
X95090468Y-130752529D01*
X95181878Y-130737624D01*
X95200373Y-130732731D01*
X95360470Y-130671497D01*
X95505013Y-130581494D01*
X95632047Y-130464828D01*
X95739616Y-130323607D01*
X95825765Y-130159940D01*
X95888537Y-129975934D01*
X95906698Y-129887511D01*
X95922613Y-129762952D01*
X95932557Y-129624947D01*
X95936048Y-129484250D01*
X95932600Y-129351619D01*
X95921731Y-129237809D01*
X95906310Y-129148572D01*
X95853054Y-128951359D01*
X95777213Y-128776168D01*
X95679769Y-128624374D01*
X95561702Y-128497347D01*
X95423996Y-128396463D01*
X95267633Y-128323093D01*
X95237639Y-128313700D01*
X95143068Y-128294150D01*
X95031563Y-128281350D01*
X94914916Y-128275996D01*
X94804920Y-128278784D01*
X94713368Y-128290409D01*
X94631672Y-128312452D01*
X94490660Y-128372512D01*
X94358570Y-128455122D01*
X94246716Y-128553895D01*
X94225380Y-128577564D01*
X94124016Y-128718347D01*
X94042620Y-128882572D01*
X93982287Y-129066191D01*
X93944113Y-129265152D01*
X93929194Y-129475406D01*
X93536705Y-129475406D01*
X93536227Y-129419216D01*
X93551106Y-129204975D01*
X93586137Y-129006954D01*
X93642659Y-128818085D01*
X93722011Y-128631301D01*
X93761944Y-128552146D01*
X93799395Y-128487992D01*
X93840509Y-128431065D01*
X93892481Y-128371432D01*
X93962502Y-128299157D01*
X94022500Y-128240070D01*
X94084523Y-128184105D01*
X94141498Y-128140944D01*
X94202950Y-128103522D01*
X94278399Y-128064774D01*
X94334970Y-128037718D01*
X94429750Y-127996402D01*
X94515448Y-127966635D01*
X94600632Y-127946635D01*
X94693873Y-127934620D01*
X94803739Y-127928808D01*
X94938799Y-127927415D01*
X94964236Y-127927496D01*
X95094764Y-127930026D01*
X95201388Y-127937221D01*
X95292507Y-127950673D01*
X95376526Y-127971972D01*
X95461844Y-128002710D01*
X95556866Y-128044478D01*
X95648517Y-128092037D01*
X95812080Y-128205216D01*
X95955712Y-128344677D01*
X96078457Y-128509041D01*
X96179362Y-128696926D01*
X96257474Y-128906951D01*
X96311839Y-129137734D01*
X96313920Y-129150718D01*
X96321827Y-129221937D01*
X96328232Y-129313995D01*
X96332524Y-129416418D01*
X96333563Y-129484250D01*
X96334091Y-129518734D01*
G36*
X96334091Y-129518734D02*
G01*
X96332906Y-129623008D01*
X96325287Y-129772282D01*
X96309396Y-129904982D01*
X96283832Y-130031494D01*
X96247192Y-130162201D01*
X96172647Y-130357210D01*
X96069817Y-130544169D01*
X95944411Y-130706646D01*
X95797333Y-130843805D01*
X95629491Y-130954811D01*
X95441789Y-131038829D01*
X95235133Y-131095026D01*
X95214187Y-131098727D01*
X95109525Y-131109846D01*
X94986296Y-131113984D01*
X94854912Y-131111526D01*
X94725782Y-131102857D01*
X94609318Y-131088363D01*
X94515930Y-131068427D01*
X94439806Y-131044358D01*
X94270404Y-130971149D01*
X94117667Y-130873561D01*
X93973599Y-130746854D01*
X93944366Y-130717053D01*
X93850341Y-130611291D01*
X93776417Y-130507330D01*
X93715107Y-130393546D01*
X93658923Y-130258316D01*
X93648794Y-130230758D01*
X93602609Y-130085286D01*
X93570057Y-129939501D01*
X93549125Y-129782505D01*
X93537795Y-129603401D01*
X93536705Y-129475406D01*
X93929194Y-129475406D01*
X93938625Y-129692903D01*
X93969354Y-129900857D01*
X94022571Y-130100258D01*
X94096828Y-130273530D01*
X94192410Y-130421105D01*
X94309601Y-130543418D01*
X94448687Y-130640901D01*
X94609953Y-130713990D01*
X94646709Y-130725096D01*
X94745682Y-130744033D01*
X94860527Y-130755244D01*
X94979403Y-130758239D01*
X95090468Y-130752529D01*
X95181878Y-130737624D01*
X95200373Y-130732731D01*
X95360470Y-130671497D01*
X95505013Y-130581494D01*
X95632047Y-130464828D01*
X95739616Y-130323607D01*
X95825765Y-130159940D01*
X95888537Y-129975934D01*
X95906698Y-129887511D01*
X95922613Y-129762952D01*
X95932557Y-129624947D01*
X95936048Y-129484250D01*
X95932600Y-129351619D01*
X95921731Y-129237809D01*
X95906310Y-129148572D01*
X95853054Y-128951359D01*
X95777213Y-128776168D01*
X95679769Y-128624374D01*
X95561702Y-128497347D01*
X95423996Y-128396463D01*
X95267633Y-128323093D01*
X95237639Y-128313700D01*
X95143068Y-128294150D01*
X95031563Y-128281350D01*
X94914916Y-128275996D01*
X94804920Y-128278784D01*
X94713368Y-128290409D01*
X94631672Y-128312452D01*
X94490660Y-128372512D01*
X94358570Y-128455122D01*
X94246716Y-128553895D01*
X94225380Y-128577564D01*
X94124016Y-128718347D01*
X94042620Y-128882572D01*
X93982287Y-129066191D01*
X93944113Y-129265152D01*
X93929194Y-129475406D01*
X93536705Y-129475406D01*
X93536227Y-129419216D01*
X93551106Y-129204975D01*
X93586137Y-129006954D01*
X93642659Y-128818085D01*
X93722011Y-128631301D01*
X93761944Y-128552146D01*
X93799395Y-128487992D01*
X93840509Y-128431065D01*
X93892481Y-128371432D01*
X93962502Y-128299157D01*
X94022500Y-128240070D01*
X94084523Y-128184105D01*
X94141498Y-128140944D01*
X94202950Y-128103522D01*
X94278399Y-128064774D01*
X94334970Y-128037718D01*
X94429750Y-127996402D01*
X94515448Y-127966635D01*
X94600632Y-127946635D01*
X94693873Y-127934620D01*
X94803739Y-127928808D01*
X94938799Y-127927415D01*
X94964236Y-127927496D01*
X95094764Y-127930026D01*
X95201388Y-127937221D01*
X95292507Y-127950673D01*
X95376526Y-127971972D01*
X95461844Y-128002710D01*
X95556866Y-128044478D01*
X95648517Y-128092037D01*
X95812080Y-128205216D01*
X95955712Y-128344677D01*
X96078457Y-128509041D01*
X96179362Y-128696926D01*
X96257474Y-128906951D01*
X96311839Y-129137734D01*
X96313920Y-129150718D01*
X96321827Y-129221937D01*
X96328232Y-129313995D01*
X96332524Y-129416418D01*
X96333563Y-129484250D01*
X96334091Y-129518734D01*
G37*
X88734405Y-127923938D02*
X88935277Y-127948707D01*
X89115933Y-127998440D01*
X89275350Y-128072641D01*
X89412507Y-128170814D01*
X89526381Y-128292463D01*
X89615950Y-128437092D01*
X89618444Y-128442147D01*
X89646137Y-128501097D01*
X89664255Y-128549999D01*
X89675288Y-128599831D01*
X89681725Y-128661572D01*
X89686057Y-128746200D01*
X89683307Y-128901591D01*
X89658249Y-129045472D01*
X89608900Y-129170216D01*
X89533782Y-129279482D01*
X89431419Y-129376927D01*
X89376838Y-129417149D01*
X89308452Y-129458904D01*
X89229342Y-129497880D01*
X89134994Y-129535874D01*
X89020894Y-129574682D01*
X88882528Y-129616101D01*
X88715382Y-129661928D01*
X88676871Y-129672211D01*
X88523685Y-129714540D01*
X88398568Y-129752102D01*
X88297344Y-129786553D01*
X88215837Y-129819546D01*
X88149870Y-129852735D01*
X88095266Y-129887775D01*
X88047851Y-129926319D01*
X87992455Y-129984723D01*
X87933429Y-130080825D01*
X87903930Y-130182237D01*
X87902466Y-130285467D01*
X87927545Y-130387023D01*
X87977672Y-130483411D01*
X88051356Y-130571139D01*
X88147103Y-130646715D01*
X88263421Y-130706644D01*
X88398816Y-130747435D01*
X88422759Y-130751818D01*
X88528572Y-130761623D01*
X88649490Y-130761346D01*
X88773446Y-130751801D01*
X88888370Y-130733800D01*
X88982193Y-130708155D01*
X89062258Y-130674493D01*
X89179223Y-130603386D01*
X89271322Y-130512934D01*
X89341994Y-130399391D01*
X89394682Y-130259010D01*
X89395225Y-130257572D01*
X89409319Y-130248246D01*
X89443807Y-130242809D01*
X89503144Y-130240881D01*
X89591782Y-130242076D01*
X89782600Y-130246867D01*
X89776717Y-130305456D01*
X89769680Y-130357074D01*
X89727450Y-130506709D01*
X89655725Y-130645838D01*
X89557228Y-130771865D01*
X89434683Y-130882195D01*
X89290814Y-130974234D01*
X89128346Y-131045386D01*
X88950002Y-131093056D01*
X88862531Y-131105064D01*
X88736383Y-131112533D01*
X88599014Y-131112493D01*
X88461556Y-131105292D01*
X88335142Y-131091272D01*
X88230902Y-131070780D01*
X88210131Y-131065114D01*
X88034298Y-131001056D01*
X87879413Y-130914473D01*
X87749201Y-130807405D01*
X87693995Y-130747452D01*
X87604363Y-130618076D01*
X87544499Y-130476556D01*
X87513335Y-130319939D01*
X87509802Y-130145267D01*
X87512969Y-130099106D01*
X87531115Y-129976304D01*
X87565076Y-129872885D01*
X87618750Y-129779234D01*
X87696031Y-129685739D01*
X87721396Y-129659677D01*
X87787714Y-129601053D01*
X87863280Y-129548287D01*
X87952130Y-129499528D01*
X88058299Y-129452928D01*
X88185821Y-129406636D01*
X88338732Y-129358804D01*
X88521066Y-129307581D01*
X88567189Y-129295014D01*
X88742195Y-129244383D01*
X88887158Y-129196571D01*
X89004899Y-129149997D01*
X89098239Y-129103084D01*
X89169995Y-129054252D01*
X89222989Y-129001924D01*
X89260041Y-128944519D01*
X89283969Y-128880460D01*
X89290729Y-128848080D01*
X89294881Y-128751348D01*
X89280751Y-128651007D01*
X89250131Y-128563825D01*
X89229960Y-128528916D01*
X89153870Y-128440392D01*
X89053007Y-128367846D01*
X88931990Y-128313053D01*
X88795439Y-128277791D01*
X88647971Y-128263837D01*
X88494206Y-128272968D01*
X88444200Y-128281134D01*
X88296532Y-128323946D01*
X88171857Y-128391620D01*
X88070150Y-128484178D01*
X87991383Y-128601642D01*
X87935531Y-128744034D01*
X87925276Y-128752720D01*
X87891522Y-128759908D01*
X87831037Y-128763941D01*
X87740295Y-128765201D01*
X87551128Y-128765201D01*
X87561097Y-128668610D01*
X87561938Y-128661075D01*
X87592133Y-128537599D01*
X87651019Y-128412958D01*
X87734510Y-128293079D01*
X87838517Y-128183895D01*
X87958956Y-128091334D01*
X88065326Y-128031246D01*
X88210242Y-127974843D01*
X88371766Y-127939209D01*
X88556176Y-127922571D01*
X88734405Y-127923938D01*
G36*
X88734405Y-127923938D02*
G01*
X88935277Y-127948707D01*
X89115933Y-127998440D01*
X89275350Y-128072641D01*
X89412507Y-128170814D01*
X89526381Y-128292463D01*
X89615950Y-128437092D01*
X89618444Y-128442147D01*
X89646137Y-128501097D01*
X89664255Y-128549999D01*
X89675288Y-128599831D01*
X89681725Y-128661572D01*
X89686057Y-128746200D01*
X89683307Y-128901591D01*
X89658249Y-129045472D01*
X89608900Y-129170216D01*
X89533782Y-129279482D01*
X89431419Y-129376927D01*
X89376838Y-129417149D01*
X89308452Y-129458904D01*
X89229342Y-129497880D01*
X89134994Y-129535874D01*
X89020894Y-129574682D01*
X88882528Y-129616101D01*
X88715382Y-129661928D01*
X88676871Y-129672211D01*
X88523685Y-129714540D01*
X88398568Y-129752102D01*
X88297344Y-129786553D01*
X88215837Y-129819546D01*
X88149870Y-129852735D01*
X88095266Y-129887775D01*
X88047851Y-129926319D01*
X87992455Y-129984723D01*
X87933429Y-130080825D01*
X87903930Y-130182237D01*
X87902466Y-130285467D01*
X87927545Y-130387023D01*
X87977672Y-130483411D01*
X88051356Y-130571139D01*
X88147103Y-130646715D01*
X88263421Y-130706644D01*
X88398816Y-130747435D01*
X88422759Y-130751818D01*
X88528572Y-130761623D01*
X88649490Y-130761346D01*
X88773446Y-130751801D01*
X88888370Y-130733800D01*
X88982193Y-130708155D01*
X89062258Y-130674493D01*
X89179223Y-130603386D01*
X89271322Y-130512934D01*
X89341994Y-130399391D01*
X89394682Y-130259010D01*
X89395225Y-130257572D01*
X89409319Y-130248246D01*
X89443807Y-130242809D01*
X89503144Y-130240881D01*
X89591782Y-130242076D01*
X89782600Y-130246867D01*
X89776717Y-130305456D01*
X89769680Y-130357074D01*
X89727450Y-130506709D01*
X89655725Y-130645838D01*
X89557228Y-130771865D01*
X89434683Y-130882195D01*
X89290814Y-130974234D01*
X89128346Y-131045386D01*
X88950002Y-131093056D01*
X88862531Y-131105064D01*
X88736383Y-131112533D01*
X88599014Y-131112493D01*
X88461556Y-131105292D01*
X88335142Y-131091272D01*
X88230902Y-131070780D01*
X88210131Y-131065114D01*
X88034298Y-131001056D01*
X87879413Y-130914473D01*
X87749201Y-130807405D01*
X87693995Y-130747452D01*
X87604363Y-130618076D01*
X87544499Y-130476556D01*
X87513335Y-130319939D01*
X87509802Y-130145267D01*
X87512969Y-130099106D01*
X87531115Y-129976304D01*
X87565076Y-129872885D01*
X87618750Y-129779234D01*
X87696031Y-129685739D01*
X87721396Y-129659677D01*
X87787714Y-129601053D01*
X87863280Y-129548287D01*
X87952130Y-129499528D01*
X88058299Y-129452928D01*
X88185821Y-129406636D01*
X88338732Y-129358804D01*
X88521066Y-129307581D01*
X88567189Y-129295014D01*
X88742195Y-129244383D01*
X88887158Y-129196571D01*
X89004899Y-129149997D01*
X89098239Y-129103084D01*
X89169995Y-129054252D01*
X89222989Y-129001924D01*
X89260041Y-128944519D01*
X89283969Y-128880460D01*
X89290729Y-128848080D01*
X89294881Y-128751348D01*
X89280751Y-128651007D01*
X89250131Y-128563825D01*
X89229960Y-128528916D01*
X89153870Y-128440392D01*
X89053007Y-128367846D01*
X88931990Y-128313053D01*
X88795439Y-128277791D01*
X88647971Y-128263837D01*
X88494206Y-128272968D01*
X88444200Y-128281134D01*
X88296532Y-128323946D01*
X88171857Y-128391620D01*
X88070150Y-128484178D01*
X87991383Y-128601642D01*
X87935531Y-128744034D01*
X87925276Y-128752720D01*
X87891522Y-128759908D01*
X87831037Y-128763941D01*
X87740295Y-128765201D01*
X87551128Y-128765201D01*
X87561097Y-128668610D01*
X87561938Y-128661075D01*
X87592133Y-128537599D01*
X87651019Y-128412958D01*
X87734510Y-128293079D01*
X87838517Y-128183895D01*
X87958956Y-128091334D01*
X88065326Y-128031246D01*
X88210242Y-127974843D01*
X88371766Y-127939209D01*
X88556176Y-127922571D01*
X88734405Y-127923938D01*
G37*
X96232941Y-124503495D02*
X96308391Y-124505828D01*
X96406125Y-124509469D01*
X96522359Y-124514279D01*
X96653314Y-124520115D01*
X96795205Y-124526839D01*
X97419533Y-124557267D01*
X97434022Y-126038934D01*
X97435920Y-126230924D01*
X97438069Y-126443296D01*
X97440148Y-126643654D01*
X97442130Y-126829571D01*
X97443987Y-126998618D01*
X97445692Y-127148368D01*
X97447216Y-127276393D01*
X97448532Y-127380264D01*
X97449612Y-127457554D01*
X97450430Y-127505834D01*
X97450955Y-127522677D01*
X97455561Y-127522993D01*
X97488096Y-127523865D01*
X97548356Y-127525017D01*
X97632272Y-127526386D01*
X97735774Y-127527906D01*
X97854792Y-127529514D01*
X97985258Y-127531144D01*
X98517117Y-127537534D01*
X99522780Y-126055867D01*
X100528443Y-124574201D01*
X101099121Y-124580245D01*
X101200065Y-124581390D01*
X101327658Y-124583068D01*
X101441150Y-124584825D01*
X101536589Y-124586586D01*
X101610022Y-124588277D01*
X101657495Y-124589821D01*
X101675056Y-124591146D01*
X101675503Y-124600182D01*
X101675702Y-124640145D01*
X101675427Y-124709737D01*
X101674704Y-124806491D01*
X101673562Y-124927939D01*
X101672025Y-125071612D01*
X101670122Y-125235043D01*
X101667878Y-125415763D01*
X101665322Y-125611304D01*
X101662478Y-125819198D01*
X101659375Y-126036976D01*
X101657172Y-126192735D01*
X101654380Y-126403962D01*
X101651965Y-126603647D01*
X101649948Y-126789309D01*
X101648345Y-126958469D01*
X101647176Y-127108647D01*
X101646459Y-127237362D01*
X101646213Y-127342134D01*
X101646456Y-127420485D01*
X101647208Y-127469933D01*
X101648486Y-127487999D01*
X101658922Y-127489118D01*
X101699914Y-127489980D01*
X101768587Y-127490158D01*
X101861396Y-127489715D01*
X101974797Y-127488714D01*
X102105246Y-127487216D01*
X102249200Y-127485286D01*
X102403113Y-127482985D01*
X102563442Y-127480375D01*
X102726642Y-127477520D01*
X102889170Y-127474482D01*
X103047482Y-127471323D01*
X103198033Y-127468106D01*
X103337280Y-127464894D01*
X103461678Y-127461749D01*
X103567683Y-127458733D01*
X103651751Y-127455909D01*
X103710338Y-127453340D01*
X103739899Y-127451089D01*
X103794933Y-127442866D01*
X103794933Y-126294871D01*
X103794949Y-126233011D01*
X103795215Y-126030146D01*
X103795789Y-125831355D01*
X103796641Y-125640361D01*
X103797742Y-125460889D01*
X103799064Y-125296663D01*
X103800578Y-125151407D01*
X103802255Y-125028846D01*
X103804066Y-124932702D01*
X103805983Y-124866701D01*
X103817032Y-124586526D01*
X104140416Y-124593432D01*
X104207135Y-124594924D01*
X104347067Y-124598371D01*
X104494912Y-124602349D01*
X104636745Y-124606476D01*
X104758642Y-124610370D01*
X105053485Y-124620403D01*
X105041815Y-125922335D01*
X105041464Y-125961899D01*
X105039753Y-126166848D01*
X105038309Y-126361199D01*
X105037141Y-126542368D01*
X105036258Y-126707768D01*
X105035667Y-126854815D01*
X105035379Y-126980924D01*
X105035401Y-127083509D01*
X105035743Y-127159984D01*
X105036413Y-127207766D01*
X105037419Y-127224267D01*
X105040172Y-127221306D01*
X105060453Y-127196084D01*
X105099209Y-127146623D01*
X105155034Y-127074749D01*
X105226522Y-126982287D01*
X105312270Y-126871062D01*
X105410871Y-126742900D01*
X105520921Y-126599627D01*
X105641014Y-126443069D01*
X105769745Y-126275050D01*
X105905710Y-126097396D01*
X106047502Y-125911934D01*
X106114534Y-125824256D01*
X106253960Y-125642167D01*
X106387036Y-125468747D01*
X106512345Y-125305825D01*
X106628469Y-125155226D01*
X106733992Y-125018779D01*
X106827497Y-124898310D01*
X106907567Y-124795647D01*
X106972785Y-124712618D01*
X107021733Y-124651049D01*
X107052996Y-124612767D01*
X107065156Y-124599600D01*
X107066280Y-124603352D01*
X107068567Y-124635141D01*
X107070714Y-124697454D01*
X107072697Y-124788022D01*
X107074492Y-124904575D01*
X107076076Y-125044846D01*
X107077426Y-125206564D01*
X107078516Y-125387460D01*
X107079324Y-125585267D01*
X107079827Y-125797713D01*
X107079999Y-126022532D01*
X107080000Y-126042975D01*
X107080111Y-126303098D01*
X107080433Y-126531284D01*
X107080994Y-126729330D01*
X107081820Y-126899034D01*
X107082938Y-127042194D01*
X107084374Y-127160607D01*
X107086155Y-127256069D01*
X107088308Y-127330379D01*
X107090859Y-127385334D01*
X107093834Y-127422731D01*
X107097261Y-127444367D01*
X107101166Y-127452040D01*
X107104884Y-127452645D01*
X107136962Y-127454787D01*
X107197068Y-127457325D01*
X107280828Y-127460121D01*
X107383874Y-127463037D01*
X107501832Y-127465937D01*
X107630333Y-127468682D01*
X108138333Y-127478747D01*
X109110295Y-126012724D01*
X110082257Y-124546700D01*
X110448028Y-124558473D01*
X110458851Y-124558823D01*
X110581812Y-124563045D01*
X110705902Y-124567695D01*
X110822374Y-124572422D01*
X110922484Y-124576872D01*
X110997487Y-124580690D01*
X111181174Y-124591134D01*
X111178984Y-124870534D01*
X111178658Y-124903099D01*
X111177560Y-124985195D01*
X111175849Y-125095559D01*
X111173591Y-125230616D01*
X111170850Y-125386794D01*
X111167689Y-125560522D01*
X111164174Y-125748226D01*
X111160369Y-125946334D01*
X111156338Y-126151273D01*
X111152146Y-126359473D01*
X111148852Y-126522963D01*
X111145102Y-126714006D01*
X111141701Y-126892729D01*
X111138695Y-127056438D01*
X111136129Y-127202441D01*
X111134051Y-127328047D01*
X111132504Y-127430562D01*
X111131536Y-127507295D01*
X111131191Y-127555554D01*
X111131516Y-127572646D01*
X111133422Y-127572858D01*
X111160718Y-127573632D01*
X111218143Y-127574544D01*
X111302854Y-127575568D01*
X111412013Y-127576678D01*
X111542779Y-127577848D01*
X111692312Y-127579053D01*
X111857773Y-127580266D01*
X112036321Y-127581461D01*
X112225115Y-127582613D01*
X113314698Y-127588946D01*
X113304744Y-127165306D01*
X113302966Y-127080843D01*
X113300793Y-126959371D01*
X113298457Y-126812605D01*
X113296018Y-126645041D01*
X113293538Y-126461176D01*
X113291075Y-126265507D01*
X113288692Y-126062531D01*
X113286447Y-125856744D01*
X113284403Y-125652643D01*
X113274015Y-124563619D01*
X113821907Y-124575216D01*
X113902237Y-124577028D01*
X114029065Y-124580372D01*
X114142443Y-124583956D01*
X114238288Y-124587617D01*
X114312517Y-124591193D01*
X114361050Y-124594521D01*
X114379802Y-124597439D01*
X114388736Y-124609339D01*
X114416449Y-124647016D01*
X114461590Y-124708668D01*
X114522843Y-124792487D01*
X114598889Y-124896666D01*
X114688409Y-125019395D01*
X114790084Y-125158867D01*
X114902597Y-125313274D01*
X115024628Y-125480807D01*
X115154859Y-125659658D01*
X115291972Y-125848019D01*
X115434649Y-126044082D01*
X116479491Y-127480096D01*
X116440646Y-127512017D01*
X116416239Y-127530357D01*
X116396073Y-127533644D01*
X116373966Y-127515336D01*
X116366928Y-127506567D01*
X116340700Y-127471819D01*
X116296860Y-127412797D01*
X116236779Y-127331372D01*
X116161829Y-127229419D01*
X116073381Y-127108808D01*
X115972807Y-126971413D01*
X115861477Y-126819105D01*
X115740764Y-126653758D01*
X115612038Y-126477243D01*
X115476672Y-126291433D01*
X115336035Y-126098201D01*
X114325939Y-124709667D01*
X114220869Y-124698946D01*
X114211400Y-124698092D01*
X114155099Y-124694815D01*
X114073552Y-124691808D01*
X113973631Y-124689255D01*
X113862208Y-124687340D01*
X113746154Y-124686246D01*
X113376509Y-124684267D01*
X113385326Y-124730834D01*
X113386418Y-124745943D01*
X113388016Y-124793714D01*
X113389772Y-124870867D01*
X113391652Y-124974860D01*
X113393623Y-125103149D01*
X113395649Y-125253192D01*
X113397699Y-125422444D01*
X113399736Y-125608364D01*
X113401729Y-125808407D01*
X113403642Y-126020030D01*
X113405442Y-126240691D01*
X113416741Y-127703981D01*
X112218652Y-127693095D01*
X112065092Y-127691662D01*
X111874541Y-127689775D01*
X111696230Y-127687887D01*
X111532862Y-127686035D01*
X111387140Y-127684252D01*
X111261768Y-127682574D01*
X111159448Y-127681035D01*
X111082884Y-127679671D01*
X111034778Y-127678516D01*
X111017836Y-127677605D01*
X111017736Y-127663700D01*
X111018237Y-127618220D01*
X111019343Y-127543479D01*
X111021010Y-127441904D01*
X111023194Y-127315920D01*
X111025851Y-127167953D01*
X111028938Y-127000431D01*
X111032411Y-126815778D01*
X111036227Y-126616422D01*
X111040342Y-126404788D01*
X111044713Y-126183304D01*
X111048637Y-125984329D01*
X111052764Y-125771639D01*
X111056586Y-125571005D01*
X111060061Y-125384849D01*
X111063145Y-125215595D01*
X111065796Y-125065663D01*
X111067971Y-124937478D01*
X111069628Y-124833462D01*
X111070723Y-124756038D01*
X111071214Y-124707628D01*
X111071058Y-124690655D01*
X111070846Y-124690580D01*
X111050955Y-124689344D01*
X111001958Y-124687464D01*
X110928215Y-124685075D01*
X110834089Y-124682311D01*
X110723941Y-124679307D01*
X110602133Y-124676198D01*
X110136466Y-124664694D01*
X109167293Y-126122280D01*
X108198120Y-127579867D01*
X107727960Y-127579766D01*
X107607407Y-127579402D01*
X107478910Y-127578304D01*
X107359548Y-127576583D01*
X107255503Y-127574349D01*
X107172960Y-127571714D01*
X107118099Y-127568789D01*
X106978399Y-127557914D01*
X106976100Y-126904257D01*
X106975748Y-126820806D01*
X106974590Y-126626520D01*
X106972942Y-126413511D01*
X106970901Y-126192009D01*
X106968565Y-125972249D01*
X106966031Y-125764465D01*
X106963400Y-125578888D01*
X106952999Y-124907175D01*
X104937933Y-127544545D01*
X104933603Y-126131339D01*
X104929273Y-124718134D01*
X104713469Y-124718082D01*
X104677312Y-124717946D01*
X104571416Y-124716649D01*
X104449226Y-124714203D01*
X104323142Y-124710880D01*
X104205566Y-124706950D01*
X103913466Y-124695870D01*
X103913466Y-126143581D01*
X103913354Y-126403818D01*
X103913030Y-126632128D01*
X103912468Y-126830305D01*
X103911641Y-127000146D01*
X103910522Y-127143447D01*
X103909085Y-127262002D01*
X103907304Y-127357609D01*
X103905151Y-127432062D01*
X103902601Y-127487158D01*
X103899627Y-127524691D01*
X103896202Y-127546459D01*
X103892299Y-127554255D01*
X103889964Y-127554647D01*
X103861138Y-127556446D01*
X103802964Y-127558763D01*
X103718767Y-127561527D01*
X103611876Y-127564664D01*
X103485616Y-127568101D01*
X103343314Y-127571765D01*
X103188296Y-127575584D01*
X103023889Y-127579485D01*
X102853419Y-127583394D01*
X102680213Y-127587238D01*
X102507598Y-127590945D01*
X102338900Y-127594441D01*
X102177445Y-127597655D01*
X102026559Y-127600511D01*
X101889571Y-127602939D01*
X101769805Y-127604864D01*
X101670589Y-127606213D01*
X101595249Y-127606915D01*
X101547111Y-127606895D01*
X101529503Y-127606082D01*
X101529105Y-127602768D01*
X101528552Y-127572037D01*
X101528552Y-127511426D01*
X101529076Y-127423753D01*
X101530094Y-127311833D01*
X101531575Y-127178485D01*
X101533488Y-127026524D01*
X101535805Y-126858768D01*
X101538493Y-126678032D01*
X101541524Y-126487134D01*
X101541818Y-126469102D01*
X101545035Y-126266093D01*
X101548064Y-126064329D01*
X101550854Y-125867888D01*
X101553355Y-125680846D01*
X101555515Y-125507280D01*
X101557284Y-125351268D01*
X101558611Y-125216886D01*
X101559444Y-125108211D01*
X101559733Y-125029321D01*
X101559733Y-124684267D01*
X101072900Y-124684349D01*
X100586066Y-124684430D01*
X99579034Y-126168356D01*
X98572001Y-127652283D01*
X97965786Y-127643949D01*
X97833700Y-127641952D01*
X97704056Y-127639610D01*
X97589013Y-127637138D01*
X97492424Y-127634636D01*
X97418141Y-127632204D01*
X97370018Y-127629942D01*
X97351906Y-127627952D01*
X97350819Y-127615698D01*
X97349194Y-127571916D01*
X97347273Y-127498738D01*
X97345097Y-127398613D01*
X97342708Y-127273989D01*
X97340151Y-127127315D01*
X97337466Y-126961040D01*
X97334696Y-126777612D01*
X97331883Y-126579481D01*
X97329071Y-126369095D01*
X97326301Y-126148902D01*
X97324020Y-125966648D01*
X97321211Y-125754365D01*
X97318394Y-125553908D01*
X97315612Y-125367725D01*
X97312907Y-125198265D01*
X97310321Y-125047977D01*
X97307896Y-124919310D01*
X97305676Y-124814712D01*
X97303703Y-124736632D01*
X97302019Y-124687520D01*
X97300666Y-124669823D01*
X97297792Y-124668968D01*
X97268782Y-124665738D01*
X97212866Y-124661481D01*
X97135103Y-124656447D01*
X97040553Y-124650887D01*
X96934276Y-124645053D01*
X96821330Y-124639195D01*
X96706776Y-124633566D01*
X96595674Y-124628415D01*
X96493081Y-124623993D01*
X96404059Y-124620553D01*
X96333667Y-124618345D01*
X96286964Y-124617619D01*
X96269010Y-124618628D01*
X96268875Y-124619029D01*
X96267196Y-124640646D01*
X96264513Y-124693165D01*
X96260928Y-124773971D01*
X96256542Y-124880448D01*
X96251454Y-125009981D01*
X96245768Y-125159953D01*
X96239583Y-125327751D01*
X96233000Y-125510757D01*
X96226122Y-125706356D01*
X96219048Y-125911934D01*
X96212355Y-126107668D01*
X96205145Y-126316566D01*
X96198130Y-126517928D01*
X96191426Y-126708464D01*
X96185152Y-126884886D01*
X96179425Y-127043904D01*
X96174363Y-127182230D01*
X96170083Y-127296575D01*
X96166704Y-127383651D01*
X96164343Y-127440167D01*
X96153445Y-127681467D01*
X93770399Y-127681467D01*
X93771494Y-127558701D01*
X93771677Y-127547900D01*
X93773025Y-127498917D01*
X93775568Y-127420054D01*
X93779205Y-127314117D01*
X93783833Y-127183915D01*
X93789349Y-127032256D01*
X93795651Y-126861945D01*
X93802635Y-126675792D01*
X93810199Y-126476604D01*
X93818241Y-126267189D01*
X93826658Y-126050353D01*
X93830911Y-125940750D01*
X93838881Y-125731991D01*
X93846253Y-125534387D01*
X93852943Y-125350458D01*
X93858866Y-125182725D01*
X93863936Y-125033708D01*
X93868070Y-124905928D01*
X93871183Y-124801906D01*
X93873188Y-124724161D01*
X93874003Y-124675214D01*
X93873541Y-124657586D01*
X93866573Y-124656532D01*
X93830228Y-124654878D01*
X93766497Y-124653406D01*
X93679437Y-124652170D01*
X93573103Y-124651222D01*
X93451553Y-124650615D01*
X93318844Y-124650400D01*
X92771333Y-124650401D01*
X92770974Y-124739300D01*
X92770874Y-124757355D01*
X92770172Y-124830795D01*
X92768918Y-124929517D01*
X92767168Y-125050563D01*
X92764977Y-125190976D01*
X92762403Y-125347799D01*
X92759502Y-125518075D01*
X92756329Y-125698847D01*
X92752942Y-125887158D01*
X92749396Y-126080050D01*
X92745749Y-126274566D01*
X92742056Y-126467750D01*
X92738374Y-126656643D01*
X92734759Y-126838289D01*
X92731267Y-127009730D01*
X92727955Y-127168010D01*
X92724880Y-127310171D01*
X92722097Y-127433257D01*
X92719662Y-127534309D01*
X92717633Y-127610370D01*
X92716066Y-127658485D01*
X92715017Y-127675694D01*
X92703980Y-127676612D01*
X92662416Y-127677254D01*
X92593399Y-127677339D01*
X92500535Y-127676919D01*
X92387430Y-127676048D01*
X92257692Y-127674779D01*
X92114926Y-127673163D01*
X91962739Y-127671255D01*
X91804737Y-127669107D01*
X91644528Y-127666773D01*
X91485716Y-127664304D01*
X91331910Y-127661755D01*
X91186715Y-127659177D01*
X91053738Y-127656625D01*
X90936585Y-127654150D01*
X90838863Y-127651806D01*
X90764178Y-127649647D01*
X90716137Y-127647723D01*
X90698346Y-127646090D01*
X90697239Y-127634025D01*
X90695500Y-127590655D01*
X90693388Y-127518335D01*
X90690959Y-127419766D01*
X90688270Y-127297650D01*
X90685377Y-127154687D01*
X90682337Y-126993580D01*
X90679206Y-126817029D01*
X90676040Y-126627735D01*
X90672897Y-126428400D01*
X90671086Y-126311732D01*
X90667741Y-126104181D01*
X90664325Y-125901580D01*
X90660908Y-125707543D01*
X90657558Y-125525685D01*
X90654344Y-125359620D01*
X90651336Y-125212961D01*
X90648601Y-125089323D01*
X90646210Y-124992321D01*
X90644231Y-124925567D01*
X90634092Y-124633467D01*
X90106746Y-124634722D01*
X90055229Y-124634898D01*
X89923334Y-124635830D01*
X89800909Y-124637361D01*
X89692834Y-124639389D01*
X89603986Y-124641810D01*
X89539247Y-124644522D01*
X89503495Y-124647422D01*
X89427590Y-124658867D01*
X88568846Y-126157467D01*
X88482678Y-126307867D01*
X88367104Y-126509679D01*
X88257095Y-126701875D01*
X88153780Y-126882477D01*
X88058285Y-127049510D01*
X87971741Y-127200997D01*
X87895274Y-127334962D01*
X87830014Y-127449430D01*
X87777089Y-127542424D01*
X87737627Y-127611968D01*
X87712757Y-127656086D01*
X87703606Y-127672801D01*
X87699547Y-127677628D01*
X87676142Y-127678092D01*
X87644796Y-127665195D01*
X87618361Y-127645435D01*
X87609694Y-127625314D01*
X87616472Y-127612005D01*
X87639079Y-127570863D01*
X87676459Y-127503990D01*
X87727500Y-127413345D01*
X87791088Y-127300888D01*
X87866111Y-127168581D01*
X87951455Y-127018382D01*
X88046008Y-126852252D01*
X88148656Y-126672153D01*
X88258288Y-126480043D01*
X88373789Y-126277883D01*
X88494047Y-126067634D01*
X89372962Y-124531867D01*
X90756266Y-124531867D01*
X90757779Y-124866301D01*
X90758463Y-124970698D01*
X90759700Y-125100356D01*
X90761414Y-125247690D01*
X90763547Y-125409670D01*
X90766044Y-125583263D01*
X90768847Y-125765438D01*
X90771901Y-125953162D01*
X90775149Y-126143404D01*
X90778534Y-126333132D01*
X90782000Y-126519315D01*
X90785490Y-126698921D01*
X90788948Y-126868917D01*
X90792318Y-127026272D01*
X90795542Y-127167955D01*
X90798565Y-127290934D01*
X90801330Y-127392176D01*
X90803780Y-127468650D01*
X90805859Y-127517325D01*
X90807511Y-127535168D01*
X90811970Y-127536020D01*
X90844866Y-127538085D01*
X90907006Y-127540425D01*
X90995243Y-127542968D01*
X91106427Y-127545639D01*
X91237411Y-127548367D01*
X91385046Y-127551079D01*
X91546184Y-127553702D01*
X91717677Y-127556164D01*
X92618933Y-127568261D01*
X92620204Y-127265031D01*
X92620417Y-127224487D01*
X92621306Y-127113796D01*
X92622698Y-126982626D01*
X92624538Y-126833997D01*
X92626772Y-126670928D01*
X92629344Y-126496436D01*
X92632198Y-126313542D01*
X92635280Y-126125264D01*
X92638534Y-125934621D01*
X92641906Y-125744633D01*
X92645339Y-125558318D01*
X92648779Y-125378695D01*
X92652171Y-125208783D01*
X92655460Y-125051601D01*
X92658590Y-124910169D01*
X92661505Y-124787505D01*
X92664152Y-124686628D01*
X92666475Y-124610557D01*
X92668418Y-124562311D01*
X92669926Y-124544910D01*
X92671181Y-124544598D01*
X92696430Y-124543463D01*
X92751013Y-124542753D01*
X92831230Y-124542467D01*
X92933376Y-124542600D01*
X93053750Y-124543150D01*
X93188647Y-124544113D01*
X93334366Y-124545486D01*
X93990533Y-124552390D01*
X93990458Y-124639495D01*
X93990452Y-124640917D01*
X93989670Y-124674523D01*
X93987658Y-124738888D01*
X93984519Y-124831186D01*
X93980359Y-124948590D01*
X93975280Y-125088276D01*
X93969386Y-125247416D01*
X93962780Y-125423185D01*
X93955567Y-125612756D01*
X93947850Y-125813303D01*
X93939733Y-126022001D01*
X93939244Y-126034499D01*
X93931123Y-126243948D01*
X93923411Y-126445894D01*
X93916213Y-126637409D01*
X93909634Y-126815567D01*
X93903778Y-126977443D01*
X93898749Y-127120110D01*
X93894653Y-127240642D01*
X93891594Y-127336113D01*
X93889678Y-127403597D01*
X93889007Y-127440167D01*
X93888933Y-127562934D01*
X96056399Y-127562934D01*
X96056588Y-127457101D01*
X96056592Y-127455690D01*
X96057296Y-127412158D01*
X96059115Y-127340231D01*
X96061941Y-127242875D01*
X96065668Y-127123054D01*
X96070187Y-126983730D01*
X96075391Y-126827868D01*
X96081171Y-126658432D01*
X96087421Y-126478386D01*
X96094032Y-126290693D01*
X96100898Y-126098317D01*
X96107909Y-125904222D01*
X96114959Y-125711373D01*
X96121940Y-125522732D01*
X96128744Y-125341264D01*
X96135264Y-125169932D01*
X96141392Y-125011701D01*
X96147019Y-124869534D01*
X96152040Y-124746395D01*
X96156345Y-124645248D01*
X96159827Y-124569056D01*
X96162379Y-124520785D01*
X96163893Y-124503396D01*
X96164020Y-124503315D01*
X96183557Y-124502610D01*
X96232941Y-124503495D01*
G36*
X96232941Y-124503495D02*
G01*
X96308391Y-124505828D01*
X96406125Y-124509469D01*
X96522359Y-124514279D01*
X96653314Y-124520115D01*
X96795205Y-124526839D01*
X97419533Y-124557267D01*
X97434022Y-126038934D01*
X97435920Y-126230924D01*
X97438069Y-126443296D01*
X97440148Y-126643654D01*
X97442130Y-126829571D01*
X97443987Y-126998618D01*
X97445692Y-127148368D01*
X97447216Y-127276393D01*
X97448532Y-127380264D01*
X97449612Y-127457554D01*
X97450430Y-127505834D01*
X97450955Y-127522677D01*
X97455561Y-127522993D01*
X97488096Y-127523865D01*
X97548356Y-127525017D01*
X97632272Y-127526386D01*
X97735774Y-127527906D01*
X97854792Y-127529514D01*
X97985258Y-127531144D01*
X98517117Y-127537534D01*
X99522780Y-126055867D01*
X100528443Y-124574201D01*
X101099121Y-124580245D01*
X101200065Y-124581390D01*
X101327658Y-124583068D01*
X101441150Y-124584825D01*
X101536589Y-124586586D01*
X101610022Y-124588277D01*
X101657495Y-124589821D01*
X101675056Y-124591146D01*
X101675503Y-124600182D01*
X101675702Y-124640145D01*
X101675427Y-124709737D01*
X101674704Y-124806491D01*
X101673562Y-124927939D01*
X101672025Y-125071612D01*
X101670122Y-125235043D01*
X101667878Y-125415763D01*
X101665322Y-125611304D01*
X101662478Y-125819198D01*
X101659375Y-126036976D01*
X101657172Y-126192735D01*
X101654380Y-126403962D01*
X101651965Y-126603647D01*
X101649948Y-126789309D01*
X101648345Y-126958469D01*
X101647176Y-127108647D01*
X101646459Y-127237362D01*
X101646213Y-127342134D01*
X101646456Y-127420485D01*
X101647208Y-127469933D01*
X101648486Y-127487999D01*
X101658922Y-127489118D01*
X101699914Y-127489980D01*
X101768587Y-127490158D01*
X101861396Y-127489715D01*
X101974797Y-127488714D01*
X102105246Y-127487216D01*
X102249200Y-127485286D01*
X102403113Y-127482985D01*
X102563442Y-127480375D01*
X102726642Y-127477520D01*
X102889170Y-127474482D01*
X103047482Y-127471323D01*
X103198033Y-127468106D01*
X103337280Y-127464894D01*
X103461678Y-127461749D01*
X103567683Y-127458733D01*
X103651751Y-127455909D01*
X103710338Y-127453340D01*
X103739899Y-127451089D01*
X103794933Y-127442866D01*
X103794933Y-126294871D01*
X103794949Y-126233011D01*
X103795215Y-126030146D01*
X103795789Y-125831355D01*
X103796641Y-125640361D01*
X103797742Y-125460889D01*
X103799064Y-125296663D01*
X103800578Y-125151407D01*
X103802255Y-125028846D01*
X103804066Y-124932702D01*
X103805983Y-124866701D01*
X103817032Y-124586526D01*
X104140416Y-124593432D01*
X104207135Y-124594924D01*
X104347067Y-124598371D01*
X104494912Y-124602349D01*
X104636745Y-124606476D01*
X104758642Y-124610370D01*
X105053485Y-124620403D01*
X105041815Y-125922335D01*
X105041464Y-125961899D01*
X105039753Y-126166848D01*
X105038309Y-126361199D01*
X105037141Y-126542368D01*
X105036258Y-126707768D01*
X105035667Y-126854815D01*
X105035379Y-126980924D01*
X105035401Y-127083509D01*
X105035743Y-127159984D01*
X105036413Y-127207766D01*
X105037419Y-127224267D01*
X105040172Y-127221306D01*
X105060453Y-127196084D01*
X105099209Y-127146623D01*
X105155034Y-127074749D01*
X105226522Y-126982287D01*
X105312270Y-126871062D01*
X105410871Y-126742900D01*
X105520921Y-126599627D01*
X105641014Y-126443069D01*
X105769745Y-126275050D01*
X105905710Y-126097396D01*
X106047502Y-125911934D01*
X106114534Y-125824256D01*
X106253960Y-125642167D01*
X106387036Y-125468747D01*
X106512345Y-125305825D01*
X106628469Y-125155226D01*
X106733992Y-125018779D01*
X106827497Y-124898310D01*
X106907567Y-124795647D01*
X106972785Y-124712618D01*
X107021733Y-124651049D01*
X107052996Y-124612767D01*
X107065156Y-124599600D01*
X107066280Y-124603352D01*
X107068567Y-124635141D01*
X107070714Y-124697454D01*
X107072697Y-124788022D01*
X107074492Y-124904575D01*
X107076076Y-125044846D01*
X107077426Y-125206564D01*
X107078516Y-125387460D01*
X107079324Y-125585267D01*
X107079827Y-125797713D01*
X107079999Y-126022532D01*
X107080000Y-126042975D01*
X107080111Y-126303098D01*
X107080433Y-126531284D01*
X107080994Y-126729330D01*
X107081820Y-126899034D01*
X107082938Y-127042194D01*
X107084374Y-127160607D01*
X107086155Y-127256069D01*
X107088308Y-127330379D01*
X107090859Y-127385334D01*
X107093834Y-127422731D01*
X107097261Y-127444367D01*
X107101166Y-127452040D01*
X107104884Y-127452645D01*
X107136962Y-127454787D01*
X107197068Y-127457325D01*
X107280828Y-127460121D01*
X107383874Y-127463037D01*
X107501832Y-127465937D01*
X107630333Y-127468682D01*
X108138333Y-127478747D01*
X109110295Y-126012724D01*
X110082257Y-124546700D01*
X110448028Y-124558473D01*
X110458851Y-124558823D01*
X110581812Y-124563045D01*
X110705902Y-124567695D01*
X110822374Y-124572422D01*
X110922484Y-124576872D01*
X110997487Y-124580690D01*
X111181174Y-124591134D01*
X111178984Y-124870534D01*
X111178658Y-124903099D01*
X111177560Y-124985195D01*
X111175849Y-125095559D01*
X111173591Y-125230616D01*
X111170850Y-125386794D01*
X111167689Y-125560522D01*
X111164174Y-125748226D01*
X111160369Y-125946334D01*
X111156338Y-126151273D01*
X111152146Y-126359473D01*
X111148852Y-126522963D01*
X111145102Y-126714006D01*
X111141701Y-126892729D01*
X111138695Y-127056438D01*
X111136129Y-127202441D01*
X111134051Y-127328047D01*
X111132504Y-127430562D01*
X111131536Y-127507295D01*
X111131191Y-127555554D01*
X111131516Y-127572646D01*
X111133422Y-127572858D01*
X111160718Y-127573632D01*
X111218143Y-127574544D01*
X111302854Y-127575568D01*
X111412013Y-127576678D01*
X111542779Y-127577848D01*
X111692312Y-127579053D01*
X111857773Y-127580266D01*
X112036321Y-127581461D01*
X112225115Y-127582613D01*
X113314698Y-127588946D01*
X113304744Y-127165306D01*
X113302966Y-127080843D01*
X113300793Y-126959371D01*
X113298457Y-126812605D01*
X113296018Y-126645041D01*
X113293538Y-126461176D01*
X113291075Y-126265507D01*
X113288692Y-126062531D01*
X113286447Y-125856744D01*
X113284403Y-125652643D01*
X113274015Y-124563619D01*
X113821907Y-124575216D01*
X113902237Y-124577028D01*
X114029065Y-124580372D01*
X114142443Y-124583956D01*
X114238288Y-124587617D01*
X114312517Y-124591193D01*
X114361050Y-124594521D01*
X114379802Y-124597439D01*
X114388736Y-124609339D01*
X114416449Y-124647016D01*
X114461590Y-124708668D01*
X114522843Y-124792487D01*
X114598889Y-124896666D01*
X114688409Y-125019395D01*
X114790084Y-125158867D01*
X114902597Y-125313274D01*
X115024628Y-125480807D01*
X115154859Y-125659658D01*
X115291972Y-125848019D01*
X115434649Y-126044082D01*
X116479491Y-127480096D01*
X116440646Y-127512017D01*
X116416239Y-127530357D01*
X116396073Y-127533644D01*
X116373966Y-127515336D01*
X116366928Y-127506567D01*
X116340700Y-127471819D01*
X116296860Y-127412797D01*
X116236779Y-127331372D01*
X116161829Y-127229419D01*
X116073381Y-127108808D01*
X115972807Y-126971413D01*
X115861477Y-126819105D01*
X115740764Y-126653758D01*
X115612038Y-126477243D01*
X115476672Y-126291433D01*
X115336035Y-126098201D01*
X114325939Y-124709667D01*
X114220869Y-124698946D01*
X114211400Y-124698092D01*
X114155099Y-124694815D01*
X114073552Y-124691808D01*
X113973631Y-124689255D01*
X113862208Y-124687340D01*
X113746154Y-124686246D01*
X113376509Y-124684267D01*
X113385326Y-124730834D01*
X113386418Y-124745943D01*
X113388016Y-124793714D01*
X113389772Y-124870867D01*
X113391652Y-124974860D01*
X113393623Y-125103149D01*
X113395649Y-125253192D01*
X113397699Y-125422444D01*
X113399736Y-125608364D01*
X113401729Y-125808407D01*
X113403642Y-126020030D01*
X113405442Y-126240691D01*
X113416741Y-127703981D01*
X112218652Y-127693095D01*
X112065092Y-127691662D01*
X111874541Y-127689775D01*
X111696230Y-127687887D01*
X111532862Y-127686035D01*
X111387140Y-127684252D01*
X111261768Y-127682574D01*
X111159448Y-127681035D01*
X111082884Y-127679671D01*
X111034778Y-127678516D01*
X111017836Y-127677605D01*
X111017736Y-127663700D01*
X111018237Y-127618220D01*
X111019343Y-127543479D01*
X111021010Y-127441904D01*
X111023194Y-127315920D01*
X111025851Y-127167953D01*
X111028938Y-127000431D01*
X111032411Y-126815778D01*
X111036227Y-126616422D01*
X111040342Y-126404788D01*
X111044713Y-126183304D01*
X111048637Y-125984329D01*
X111052764Y-125771639D01*
X111056586Y-125571005D01*
X111060061Y-125384849D01*
X111063145Y-125215595D01*
X111065796Y-125065663D01*
X111067971Y-124937478D01*
X111069628Y-124833462D01*
X111070723Y-124756038D01*
X111071214Y-124707628D01*
X111071058Y-124690655D01*
X111070846Y-124690580D01*
X111050955Y-124689344D01*
X111001958Y-124687464D01*
X110928215Y-124685075D01*
X110834089Y-124682311D01*
X110723941Y-124679307D01*
X110602133Y-124676198D01*
X110136466Y-124664694D01*
X109167293Y-126122280D01*
X108198120Y-127579867D01*
X107727960Y-127579766D01*
X107607407Y-127579402D01*
X107478910Y-127578304D01*
X107359548Y-127576583D01*
X107255503Y-127574349D01*
X107172960Y-127571714D01*
X107118099Y-127568789D01*
X106978399Y-127557914D01*
X106976100Y-126904257D01*
X106975748Y-126820806D01*
X106974590Y-126626520D01*
X106972942Y-126413511D01*
X106970901Y-126192009D01*
X106968565Y-125972249D01*
X106966031Y-125764465D01*
X106963400Y-125578888D01*
X106952999Y-124907175D01*
X104937933Y-127544545D01*
X104933603Y-126131339D01*
X104929273Y-124718134D01*
X104713469Y-124718082D01*
X104677312Y-124717946D01*
X104571416Y-124716649D01*
X104449226Y-124714203D01*
X104323142Y-124710880D01*
X104205566Y-124706950D01*
X103913466Y-124695870D01*
X103913466Y-126143581D01*
X103913354Y-126403818D01*
X103913030Y-126632128D01*
X103912468Y-126830305D01*
X103911641Y-127000146D01*
X103910522Y-127143447D01*
X103909085Y-127262002D01*
X103907304Y-127357609D01*
X103905151Y-127432062D01*
X103902601Y-127487158D01*
X103899627Y-127524691D01*
X103896202Y-127546459D01*
X103892299Y-127554255D01*
X103889964Y-127554647D01*
X103861138Y-127556446D01*
X103802964Y-127558763D01*
X103718767Y-127561527D01*
X103611876Y-127564664D01*
X103485616Y-127568101D01*
X103343314Y-127571765D01*
X103188296Y-127575584D01*
X103023889Y-127579485D01*
X102853419Y-127583394D01*
X102680213Y-127587238D01*
X102507598Y-127590945D01*
X102338900Y-127594441D01*
X102177445Y-127597655D01*
X102026559Y-127600511D01*
X101889571Y-127602939D01*
X101769805Y-127604864D01*
X101670589Y-127606213D01*
X101595249Y-127606915D01*
X101547111Y-127606895D01*
X101529503Y-127606082D01*
X101529105Y-127602768D01*
X101528552Y-127572037D01*
X101528552Y-127511426D01*
X101529076Y-127423753D01*
X101530094Y-127311833D01*
X101531575Y-127178485D01*
X101533488Y-127026524D01*
X101535805Y-126858768D01*
X101538493Y-126678032D01*
X101541524Y-126487134D01*
X101541818Y-126469102D01*
X101545035Y-126266093D01*
X101548064Y-126064329D01*
X101550854Y-125867888D01*
X101553355Y-125680846D01*
X101555515Y-125507280D01*
X101557284Y-125351268D01*
X101558611Y-125216886D01*
X101559444Y-125108211D01*
X101559733Y-125029321D01*
X101559733Y-124684267D01*
X101072900Y-124684349D01*
X100586066Y-124684430D01*
X99579034Y-126168356D01*
X98572001Y-127652283D01*
X97965786Y-127643949D01*
X97833700Y-127641952D01*
X97704056Y-127639610D01*
X97589013Y-127637138D01*
X97492424Y-127634636D01*
X97418141Y-127632204D01*
X97370018Y-127629942D01*
X97351906Y-127627952D01*
X97350819Y-127615698D01*
X97349194Y-127571916D01*
X97347273Y-127498738D01*
X97345097Y-127398613D01*
X97342708Y-127273989D01*
X97340151Y-127127315D01*
X97337466Y-126961040D01*
X97334696Y-126777612D01*
X97331883Y-126579481D01*
X97329071Y-126369095D01*
X97326301Y-126148902D01*
X97324020Y-125966648D01*
X97321211Y-125754365D01*
X97318394Y-125553908D01*
X97315612Y-125367725D01*
X97312907Y-125198265D01*
X97310321Y-125047977D01*
X97307896Y-124919310D01*
X97305676Y-124814712D01*
X97303703Y-124736632D01*
X97302019Y-124687520D01*
X97300666Y-124669823D01*
X97297792Y-124668968D01*
X97268782Y-124665738D01*
X97212866Y-124661481D01*
X97135103Y-124656447D01*
X97040553Y-124650887D01*
X96934276Y-124645053D01*
X96821330Y-124639195D01*
X96706776Y-124633566D01*
X96595674Y-124628415D01*
X96493081Y-124623993D01*
X96404059Y-124620553D01*
X96333667Y-124618345D01*
X96286964Y-124617619D01*
X96269010Y-124618628D01*
X96268875Y-124619029D01*
X96267196Y-124640646D01*
X96264513Y-124693165D01*
X96260928Y-124773971D01*
X96256542Y-124880448D01*
X96251454Y-125009981D01*
X96245768Y-125159953D01*
X96239583Y-125327751D01*
X96233000Y-125510757D01*
X96226122Y-125706356D01*
X96219048Y-125911934D01*
X96212355Y-126107668D01*
X96205145Y-126316566D01*
X96198130Y-126517928D01*
X96191426Y-126708464D01*
X96185152Y-126884886D01*
X96179425Y-127043904D01*
X96174363Y-127182230D01*
X96170083Y-127296575D01*
X96166704Y-127383651D01*
X96164343Y-127440167D01*
X96153445Y-127681467D01*
X93770399Y-127681467D01*
X93771494Y-127558701D01*
X93771677Y-127547900D01*
X93773025Y-127498917D01*
X93775568Y-127420054D01*
X93779205Y-127314117D01*
X93783833Y-127183915D01*
X93789349Y-127032256D01*
X93795651Y-126861945D01*
X93802635Y-126675792D01*
X93810199Y-126476604D01*
X93818241Y-126267189D01*
X93826658Y-126050353D01*
X93830911Y-125940750D01*
X93838881Y-125731991D01*
X93846253Y-125534387D01*
X93852943Y-125350458D01*
X93858866Y-125182725D01*
X93863936Y-125033708D01*
X93868070Y-124905928D01*
X93871183Y-124801906D01*
X93873188Y-124724161D01*
X93874003Y-124675214D01*
X93873541Y-124657586D01*
X93866573Y-124656532D01*
X93830228Y-124654878D01*
X93766497Y-124653406D01*
X93679437Y-124652170D01*
X93573103Y-124651222D01*
X93451553Y-124650615D01*
X93318844Y-124650400D01*
X92771333Y-124650401D01*
X92770974Y-124739300D01*
X92770874Y-124757355D01*
X92770172Y-124830795D01*
X92768918Y-124929517D01*
X92767168Y-125050563D01*
X92764977Y-125190976D01*
X92762403Y-125347799D01*
X92759502Y-125518075D01*
X92756329Y-125698847D01*
X92752942Y-125887158D01*
X92749396Y-126080050D01*
X92745749Y-126274566D01*
X92742056Y-126467750D01*
X92738374Y-126656643D01*
X92734759Y-126838289D01*
X92731267Y-127009730D01*
X92727955Y-127168010D01*
X92724880Y-127310171D01*
X92722097Y-127433257D01*
X92719662Y-127534309D01*
X92717633Y-127610370D01*
X92716066Y-127658485D01*
X92715017Y-127675694D01*
X92703980Y-127676612D01*
X92662416Y-127677254D01*
X92593399Y-127677339D01*
X92500535Y-127676919D01*
X92387430Y-127676048D01*
X92257692Y-127674779D01*
X92114926Y-127673163D01*
X91962739Y-127671255D01*
X91804737Y-127669107D01*
X91644528Y-127666773D01*
X91485716Y-127664304D01*
X91331910Y-127661755D01*
X91186715Y-127659177D01*
X91053738Y-127656625D01*
X90936585Y-127654150D01*
X90838863Y-127651806D01*
X90764178Y-127649647D01*
X90716137Y-127647723D01*
X90698346Y-127646090D01*
X90697239Y-127634025D01*
X90695500Y-127590655D01*
X90693388Y-127518335D01*
X90690959Y-127419766D01*
X90688270Y-127297650D01*
X90685377Y-127154687D01*
X90682337Y-126993580D01*
X90679206Y-126817029D01*
X90676040Y-126627735D01*
X90672897Y-126428400D01*
X90671086Y-126311732D01*
X90667741Y-126104181D01*
X90664325Y-125901580D01*
X90660908Y-125707543D01*
X90657558Y-125525685D01*
X90654344Y-125359620D01*
X90651336Y-125212961D01*
X90648601Y-125089323D01*
X90646210Y-124992321D01*
X90644231Y-124925567D01*
X90634092Y-124633467D01*
X90106746Y-124634722D01*
X90055229Y-124634898D01*
X89923334Y-124635830D01*
X89800909Y-124637361D01*
X89692834Y-124639389D01*
X89603986Y-124641810D01*
X89539247Y-124644522D01*
X89503495Y-124647422D01*
X89427590Y-124658867D01*
X88568846Y-126157467D01*
X88482678Y-126307867D01*
X88367104Y-126509679D01*
X88257095Y-126701875D01*
X88153780Y-126882477D01*
X88058285Y-127049510D01*
X87971741Y-127200997D01*
X87895274Y-127334962D01*
X87830014Y-127449430D01*
X87777089Y-127542424D01*
X87737627Y-127611968D01*
X87712757Y-127656086D01*
X87703606Y-127672801D01*
X87699547Y-127677628D01*
X87676142Y-127678092D01*
X87644796Y-127665195D01*
X87618361Y-127645435D01*
X87609694Y-127625314D01*
X87616472Y-127612005D01*
X87639079Y-127570863D01*
X87676459Y-127503990D01*
X87727500Y-127413345D01*
X87791088Y-127300888D01*
X87866111Y-127168581D01*
X87951455Y-127018382D01*
X88046008Y-126852252D01*
X88148656Y-126672153D01*
X88258288Y-126480043D01*
X88373789Y-126277883D01*
X88494047Y-126067634D01*
X89372962Y-124531867D01*
X90756266Y-124531867D01*
X90757779Y-124866301D01*
X90758463Y-124970698D01*
X90759700Y-125100356D01*
X90761414Y-125247690D01*
X90763547Y-125409670D01*
X90766044Y-125583263D01*
X90768847Y-125765438D01*
X90771901Y-125953162D01*
X90775149Y-126143404D01*
X90778534Y-126333132D01*
X90782000Y-126519315D01*
X90785490Y-126698921D01*
X90788948Y-126868917D01*
X90792318Y-127026272D01*
X90795542Y-127167955D01*
X90798565Y-127290934D01*
X90801330Y-127392176D01*
X90803780Y-127468650D01*
X90805859Y-127517325D01*
X90807511Y-127535168D01*
X90811970Y-127536020D01*
X90844866Y-127538085D01*
X90907006Y-127540425D01*
X90995243Y-127542968D01*
X91106427Y-127545639D01*
X91237411Y-127548367D01*
X91385046Y-127551079D01*
X91546184Y-127553702D01*
X91717677Y-127556164D01*
X92618933Y-127568261D01*
X92620204Y-127265031D01*
X92620417Y-127224487D01*
X92621306Y-127113796D01*
X92622698Y-126982626D01*
X92624538Y-126833997D01*
X92626772Y-126670928D01*
X92629344Y-126496436D01*
X92632198Y-126313542D01*
X92635280Y-126125264D01*
X92638534Y-125934621D01*
X92641906Y-125744633D01*
X92645339Y-125558318D01*
X92648779Y-125378695D01*
X92652171Y-125208783D01*
X92655460Y-125051601D01*
X92658590Y-124910169D01*
X92661505Y-124787505D01*
X92664152Y-124686628D01*
X92666475Y-124610557D01*
X92668418Y-124562311D01*
X92669926Y-124544910D01*
X92671181Y-124544598D01*
X92696430Y-124543463D01*
X92751013Y-124542753D01*
X92831230Y-124542467D01*
X92933376Y-124542600D01*
X93053750Y-124543150D01*
X93188647Y-124544113D01*
X93334366Y-124545486D01*
X93990533Y-124552390D01*
X93990458Y-124639495D01*
X93990452Y-124640917D01*
X93989670Y-124674523D01*
X93987658Y-124738888D01*
X93984519Y-124831186D01*
X93980359Y-124948590D01*
X93975280Y-125088276D01*
X93969386Y-125247416D01*
X93962780Y-125423185D01*
X93955567Y-125612756D01*
X93947850Y-125813303D01*
X93939733Y-126022001D01*
X93939244Y-126034499D01*
X93931123Y-126243948D01*
X93923411Y-126445894D01*
X93916213Y-126637409D01*
X93909634Y-126815567D01*
X93903778Y-126977443D01*
X93898749Y-127120110D01*
X93894653Y-127240642D01*
X93891594Y-127336113D01*
X93889678Y-127403597D01*
X93889007Y-127440167D01*
X93888933Y-127562934D01*
X96056399Y-127562934D01*
X96056588Y-127457101D01*
X96056592Y-127455690D01*
X96057296Y-127412158D01*
X96059115Y-127340231D01*
X96061941Y-127242875D01*
X96065668Y-127123054D01*
X96070187Y-126983730D01*
X96075391Y-126827868D01*
X96081171Y-126658432D01*
X96087421Y-126478386D01*
X96094032Y-126290693D01*
X96100898Y-126098317D01*
X96107909Y-125904222D01*
X96114959Y-125711373D01*
X96121940Y-125522732D01*
X96128744Y-125341264D01*
X96135264Y-125169932D01*
X96141392Y-125011701D01*
X96147019Y-124869534D01*
X96152040Y-124746395D01*
X96156345Y-124645248D01*
X96159827Y-124569056D01*
X96162379Y-124520785D01*
X96163893Y-124503396D01*
X96164020Y-124503315D01*
X96183557Y-124502610D01*
X96232941Y-124503495D01*
G37*
D13*
X168100002Y-143299999D02*
X43200000Y-143300000D01*
D14*
X44576000Y-44700000D02*
G75*
G03*
X43424000Y-44700000I-576000J0D01*
G01*
X43424000Y-44700000D02*
G75*
G03*
X44576000Y-44700000I576000J0D01*
G01*
X163976000Y-44600000D02*
G75*
G03*
X162824000Y-44600000I-576000J0D01*
G01*
X162824000Y-44600000D02*
G75*
G03*
X163976000Y-44600000I576000J0D01*
G01*
D13*
X43200000Y-40395460D02*
G75*
G03*
X38798889Y-44895457I100000J-4500000D01*
G01*
X43200000Y-40400000D02*
X168200000Y-40400000D01*
D14*
X163976000Y-139100000D02*
G75*
G03*
X162824000Y-139100000I-576000J0D01*
G01*
X162824000Y-139100000D02*
G75*
G03*
X163976000Y-139100000I576000J0D01*
G01*
D13*
X38800000Y-139095457D02*
X38798889Y-44895457D01*
X172600000Y-44800000D02*
X172601135Y-138899999D01*
X168100002Y-143299999D02*
G75*
G03*
X172601135Y-138899999I99998J4399999D01*
G01*
X172600000Y-44800000D02*
G75*
G03*
X168200000Y-40400000I-4400000J0D01*
G01*
X38800041Y-139095455D02*
G75*
G03*
X43200000Y-143300000I4399959J199955D01*
G01*
M02*
