G04 #@! TF.GenerationSoftware,KiCad,Pcbnew,(5.1.12-1-10_14)*
G04 #@! TF.CreationDate,2022-08-03T22:22:08-07:00*
G04 #@! TF.ProjectId,vca_board,7663615f-626f-4617-9264-2e6b69636164,rev?*
G04 #@! TF.SameCoordinates,Original*
G04 #@! TF.FileFunction,Copper,L1,Top*
G04 #@! TF.FilePolarity,Positive*
%FSLAX46Y46*%
G04 Gerber Fmt 4.6, Leading zero omitted, Abs format (unit mm)*
G04 Created by KiCad (PCBNEW (5.1.12-1-10_14)) date 2022-08-03 22:22:08*
%MOMM*%
%LPD*%
G01*
G04 APERTURE LIST*
G04 #@! TA.AperFunction,Profile*
%ADD10C,0.050000*%
G04 #@! TD*
G04 #@! TA.AperFunction,Profile*
%ADD11C,0.150000*%
G04 #@! TD*
G04 #@! TA.AperFunction,ComponentPad*
%ADD12O,1.600000X1.600000*%
G04 #@! TD*
G04 #@! TA.AperFunction,ComponentPad*
%ADD13C,1.600000*%
G04 #@! TD*
G04 #@! TA.AperFunction,ComponentPad*
%ADD14O,1.700000X1.700000*%
G04 #@! TD*
G04 #@! TA.AperFunction,ComponentPad*
%ADD15R,1.700000X1.700000*%
G04 #@! TD*
G04 #@! TA.AperFunction,SMDPad,CuDef*
%ADD16R,2.000000X2.000000*%
G04 #@! TD*
G04 #@! TA.AperFunction,ComponentPad*
%ADD17C,2.340000*%
G04 #@! TD*
G04 #@! TA.AperFunction,SMDPad,CuDef*
%ADD18R,0.650000X1.060000*%
G04 #@! TD*
G04 #@! TA.AperFunction,ComponentPad*
%ADD19O,3.000000X1.600000*%
G04 #@! TD*
G04 #@! TA.AperFunction,ComponentPad*
%ADD20C,6.400000*%
G04 #@! TD*
G04 #@! TA.AperFunction,SMDPad,CuDef*
%ADD21R,0.900000X0.800000*%
G04 #@! TD*
G04 #@! TA.AperFunction,ViaPad*
%ADD22C,0.800000*%
G04 #@! TD*
G04 #@! TA.AperFunction,ViaPad*
%ADD23C,1.000000*%
G04 #@! TD*
G04 #@! TA.AperFunction,Conductor*
%ADD24C,0.400000*%
G04 #@! TD*
G04 #@! TA.AperFunction,Conductor*
%ADD25C,0.600000*%
G04 #@! TD*
G04 #@! TA.AperFunction,Conductor*
%ADD26C,0.300000*%
G04 #@! TD*
G04 #@! TA.AperFunction,Conductor*
%ADD27C,0.500000*%
G04 #@! TD*
G04 #@! TA.AperFunction,Conductor*
%ADD28C,1.000000*%
G04 #@! TD*
G04 #@! TA.AperFunction,Conductor*
%ADD29C,0.254000*%
G04 #@! TD*
G04 #@! TA.AperFunction,Conductor*
%ADD30C,0.100000*%
G04 #@! TD*
G04 APERTURE END LIST*
D10*
X39376000Y-139200000D02*
G75*
G03*
X39376000Y-139200000I-576000J0D01*
G01*
X168476000Y-139200000D02*
G75*
G03*
X168476000Y-139200000I-576000J0D01*
G01*
X39576000Y-37700000D02*
G75*
G03*
X39576000Y-37700000I-576000J0D01*
G01*
D11*
X172600001Y-143299999D02*
X34300000Y-143304543D01*
X34300000Y-143304543D02*
G75*
G02*
X29900000Y-139100000I0J4404543D01*
G01*
X177101135Y-138899999D02*
G75*
G02*
X172600001Y-143299999I-4401135J-1D01*
G01*
X172700000Y-33400000D02*
G75*
G02*
X177100000Y-37800000I0J-4400000D01*
G01*
X29898889Y-37900000D02*
G75*
G02*
X34300000Y-33400000I4501111J0D01*
G01*
X29900000Y-139100000D02*
X29900000Y-37900000D01*
X177100000Y-37800000D02*
X177100000Y-138900000D01*
X34300000Y-33400000D02*
X172700000Y-33400000D01*
G04 #@! TA.AperFunction,SMDPad,CuDef*
G36*
G01*
X154649999Y-96200000D02*
X155550001Y-96200000D01*
G75*
G02*
X155800000Y-96449999I0J-249999D01*
G01*
X155800000Y-96975001D01*
G75*
G02*
X155550001Y-97225000I-249999J0D01*
G01*
X154649999Y-97225000D01*
G75*
G02*
X154400000Y-96975001I0J249999D01*
G01*
X154400000Y-96449999D01*
G75*
G02*
X154649999Y-96200000I249999J0D01*
G01*
G37*
G04 #@! TD.AperFunction*
G04 #@! TA.AperFunction,SMDPad,CuDef*
G36*
G01*
X154649999Y-94375000D02*
X155550001Y-94375000D01*
G75*
G02*
X155800000Y-94624999I0J-249999D01*
G01*
X155800000Y-95150001D01*
G75*
G02*
X155550001Y-95400000I-249999J0D01*
G01*
X154649999Y-95400000D01*
G75*
G02*
X154400000Y-95150001I0J249999D01*
G01*
X154400000Y-94624999D01*
G75*
G02*
X154649999Y-94375000I249999J0D01*
G01*
G37*
G04 #@! TD.AperFunction*
G04 #@! TA.AperFunction,SMDPad,CuDef*
G36*
G01*
X155849999Y-111200000D02*
X156750001Y-111200000D01*
G75*
G02*
X157000000Y-111449999I0J-249999D01*
G01*
X157000000Y-111975001D01*
G75*
G02*
X156750001Y-112225000I-249999J0D01*
G01*
X155849999Y-112225000D01*
G75*
G02*
X155600000Y-111975001I0J249999D01*
G01*
X155600000Y-111449999D01*
G75*
G02*
X155849999Y-111200000I249999J0D01*
G01*
G37*
G04 #@! TD.AperFunction*
G04 #@! TA.AperFunction,SMDPad,CuDef*
G36*
G01*
X155849999Y-109375000D02*
X156750001Y-109375000D01*
G75*
G02*
X157000000Y-109624999I0J-249999D01*
G01*
X157000000Y-110150001D01*
G75*
G02*
X156750001Y-110400000I-249999J0D01*
G01*
X155849999Y-110400000D01*
G75*
G02*
X155600000Y-110150001I0J249999D01*
G01*
X155600000Y-109624999D01*
G75*
G02*
X155849999Y-109375000I249999J0D01*
G01*
G37*
G04 #@! TD.AperFunction*
D12*
X150500000Y-109160000D03*
D13*
X150500000Y-99000000D03*
D14*
X55920000Y-36800000D03*
X58460000Y-39340000D03*
X43220000Y-39340000D03*
X50840000Y-36800000D03*
X43220000Y-36800000D03*
X45760000Y-39340000D03*
X45760000Y-36800000D03*
X48300000Y-39340000D03*
X48300000Y-36800000D03*
X50840000Y-39340000D03*
X53380000Y-39340000D03*
X53380000Y-36800000D03*
X55920000Y-39340000D03*
D15*
X61000000Y-36800000D03*
D14*
X61000000Y-39340000D03*
X58460000Y-36800000D03*
X84620000Y-137000000D03*
X79540000Y-139540000D03*
X104940000Y-137000000D03*
X104940000Y-139540000D03*
X107480000Y-137000000D03*
X125260000Y-137000000D03*
X125260000Y-139540000D03*
X122720000Y-137000000D03*
X122720000Y-139540000D03*
X84620000Y-139540000D03*
X115100000Y-137000000D03*
X115100000Y-139540000D03*
X117640000Y-137000000D03*
X117640000Y-139540000D03*
X120180000Y-137000000D03*
X120180000Y-139540000D03*
X87160000Y-137000000D03*
X102400000Y-137000000D03*
X102400000Y-139540000D03*
X92240000Y-139540000D03*
X94780000Y-137000000D03*
X94780000Y-139540000D03*
X107480000Y-139540000D03*
X110020000Y-137000000D03*
X110020000Y-139540000D03*
X112560000Y-137000000D03*
X112560000Y-139540000D03*
X97320000Y-137000000D03*
X97320000Y-139540000D03*
X99860000Y-137000000D03*
X99860000Y-139540000D03*
X89700000Y-139540000D03*
X92240000Y-137000000D03*
X77000000Y-139540000D03*
X87160000Y-139540000D03*
X89700000Y-137000000D03*
X82080000Y-137000000D03*
D15*
X77000000Y-137000000D03*
D14*
X79540000Y-137000000D03*
X82080000Y-139540000D03*
X84620000Y-116940000D03*
X79540000Y-119480000D03*
X104940000Y-116940000D03*
X104940000Y-119480000D03*
X107480000Y-116940000D03*
X125260000Y-116940000D03*
X125260000Y-119480000D03*
X122720000Y-116940000D03*
X122720000Y-119480000D03*
X84620000Y-119480000D03*
X115100000Y-116940000D03*
X115100000Y-119480000D03*
X117640000Y-116940000D03*
X117640000Y-119480000D03*
X120180000Y-116940000D03*
X120180000Y-119480000D03*
X87160000Y-116940000D03*
X102400000Y-116940000D03*
X102400000Y-119480000D03*
X92240000Y-119480000D03*
X94780000Y-116940000D03*
X94780000Y-119480000D03*
X107480000Y-119480000D03*
X110020000Y-116940000D03*
X110020000Y-119480000D03*
X112560000Y-116940000D03*
X112560000Y-119480000D03*
X97320000Y-116940000D03*
X97320000Y-119480000D03*
X99860000Y-116940000D03*
X99860000Y-119480000D03*
X89700000Y-119480000D03*
X92240000Y-116940000D03*
X77000000Y-119480000D03*
X87160000Y-119480000D03*
X89700000Y-116940000D03*
X82080000Y-116940000D03*
D15*
X77000000Y-116940000D03*
D14*
X79540000Y-116940000D03*
X82080000Y-119480000D03*
X84620000Y-96800000D03*
X79540000Y-99340000D03*
X104940000Y-96800000D03*
X104940000Y-99340000D03*
X107480000Y-96800000D03*
X125260000Y-96800000D03*
X125260000Y-99340000D03*
X122720000Y-96800000D03*
X122720000Y-99340000D03*
X84620000Y-99340000D03*
X115100000Y-96800000D03*
X115100000Y-99340000D03*
X117640000Y-96800000D03*
X117640000Y-99340000D03*
X120180000Y-96800000D03*
X120180000Y-99340000D03*
X87160000Y-96800000D03*
X102400000Y-96800000D03*
X102400000Y-99340000D03*
X92240000Y-99340000D03*
X94780000Y-96800000D03*
X94780000Y-99340000D03*
X107480000Y-99340000D03*
X110020000Y-96800000D03*
X110020000Y-99340000D03*
X112560000Y-96800000D03*
X112560000Y-99340000D03*
X97320000Y-96800000D03*
X97320000Y-99340000D03*
X99860000Y-96800000D03*
X99860000Y-99340000D03*
X89700000Y-99340000D03*
X92240000Y-96800000D03*
X77000000Y-99340000D03*
X87160000Y-99340000D03*
X89700000Y-96800000D03*
X82080000Y-96800000D03*
D15*
X77000000Y-96800000D03*
D14*
X79540000Y-96800000D03*
X82080000Y-99340000D03*
X84620000Y-76900000D03*
X79540000Y-79440000D03*
X104940000Y-76900000D03*
X104940000Y-79440000D03*
X107480000Y-76900000D03*
X125260000Y-76900000D03*
X125260000Y-79440000D03*
X122720000Y-76900000D03*
X122720000Y-79440000D03*
X84620000Y-79440000D03*
X115100000Y-76900000D03*
X115100000Y-79440000D03*
X117640000Y-76900000D03*
X117640000Y-79440000D03*
X120180000Y-76900000D03*
X120180000Y-79440000D03*
X87160000Y-76900000D03*
X102400000Y-76900000D03*
X102400000Y-79440000D03*
X92240000Y-79440000D03*
X94780000Y-76900000D03*
X94780000Y-79440000D03*
X107480000Y-79440000D03*
X110020000Y-76900000D03*
X110020000Y-79440000D03*
X112560000Y-76900000D03*
X112560000Y-79440000D03*
X97320000Y-76900000D03*
X97320000Y-79440000D03*
X99860000Y-76900000D03*
X99860000Y-79440000D03*
X89700000Y-79440000D03*
X92240000Y-76900000D03*
X77000000Y-79440000D03*
X87160000Y-79440000D03*
X89700000Y-76900000D03*
X82080000Y-76900000D03*
D15*
X77000000Y-76900000D03*
D14*
X79540000Y-76900000D03*
X82080000Y-79440000D03*
X84620000Y-56900000D03*
X79540000Y-59440000D03*
X104940000Y-56900000D03*
X104940000Y-59440000D03*
X107480000Y-56900000D03*
X125260000Y-56900000D03*
X125260000Y-59440000D03*
X122720000Y-56900000D03*
X122720000Y-59440000D03*
X84620000Y-59440000D03*
X115100000Y-56900000D03*
X115100000Y-59440000D03*
X117640000Y-56900000D03*
X117640000Y-59440000D03*
X120180000Y-56900000D03*
X120180000Y-59440000D03*
X87160000Y-56900000D03*
X102400000Y-56900000D03*
X102400000Y-59440000D03*
X92240000Y-59440000D03*
X94780000Y-56900000D03*
X94780000Y-59440000D03*
X107480000Y-59440000D03*
X110020000Y-56900000D03*
X110020000Y-59440000D03*
X112560000Y-56900000D03*
X112560000Y-59440000D03*
X97320000Y-56900000D03*
X97320000Y-59440000D03*
X99860000Y-56900000D03*
X99860000Y-59440000D03*
X89700000Y-59440000D03*
X92240000Y-56900000D03*
X77000000Y-59440000D03*
X87160000Y-59440000D03*
X89700000Y-56900000D03*
X82080000Y-56900000D03*
D15*
X77000000Y-56900000D03*
D14*
X79540000Y-56900000D03*
X82080000Y-59440000D03*
X84620000Y-36800000D03*
X79540000Y-39340000D03*
X104940000Y-36800000D03*
X104940000Y-39340000D03*
X107480000Y-36800000D03*
X125260000Y-36800000D03*
X125260000Y-39340000D03*
X122720000Y-36800000D03*
X122720000Y-39340000D03*
X84620000Y-39340000D03*
X115100000Y-36800000D03*
X115100000Y-39340000D03*
X117640000Y-36800000D03*
X117640000Y-39340000D03*
X120180000Y-36800000D03*
X120180000Y-39340000D03*
X87160000Y-36800000D03*
X102400000Y-36800000D03*
X102400000Y-39340000D03*
X92240000Y-39340000D03*
X94780000Y-36800000D03*
X94780000Y-39340000D03*
X107480000Y-39340000D03*
X110020000Y-36800000D03*
X110020000Y-39340000D03*
X112560000Y-36800000D03*
X112560000Y-39340000D03*
X97320000Y-36800000D03*
X97320000Y-39340000D03*
X99860000Y-36800000D03*
X99860000Y-39340000D03*
X89700000Y-39340000D03*
X92240000Y-36800000D03*
X77000000Y-39340000D03*
X87160000Y-39340000D03*
X89700000Y-36800000D03*
X82080000Y-36800000D03*
D15*
X77000000Y-36800000D03*
D14*
X79540000Y-36800000D03*
X82080000Y-39340000D03*
X35940000Y-127560000D03*
X33400000Y-127560000D03*
X35940000Y-125020000D03*
X33400000Y-125020000D03*
X35940000Y-122480000D03*
X33400000Y-122480000D03*
X35940000Y-119940000D03*
X33400000Y-119940000D03*
X35940000Y-117400000D03*
X33400000Y-117400000D03*
X35940000Y-114860000D03*
X33400000Y-114860000D03*
X35940000Y-112320000D03*
X33400000Y-112320000D03*
X35940000Y-109780000D03*
X33400000Y-109780000D03*
X35940000Y-107240000D03*
X33400000Y-107240000D03*
X35940000Y-104700000D03*
X33400000Y-104700000D03*
X35940000Y-102160000D03*
X33400000Y-102160000D03*
X35940000Y-99620000D03*
X33400000Y-99620000D03*
X35940000Y-97080000D03*
X33400000Y-97080000D03*
X35940000Y-94540000D03*
X33400000Y-94540000D03*
X35940000Y-92000000D03*
X33400000Y-92000000D03*
X35940000Y-89460000D03*
X33400000Y-89460000D03*
X35940000Y-86920000D03*
X33400000Y-86920000D03*
X35940000Y-84380000D03*
X33400000Y-84380000D03*
X35940000Y-81840000D03*
X33400000Y-81840000D03*
X35940000Y-79300000D03*
D15*
X33400000Y-79300000D03*
G04 #@! TA.AperFunction,SMDPad,CuDef*
G36*
G01*
X139125000Y-62125000D02*
X139675000Y-62125000D01*
G75*
G02*
X139875000Y-62325000I0J-200000D01*
G01*
X139875000Y-62725000D01*
G75*
G02*
X139675000Y-62925000I-200000J0D01*
G01*
X139125000Y-62925000D01*
G75*
G02*
X138925000Y-62725000I0J200000D01*
G01*
X138925000Y-62325000D01*
G75*
G02*
X139125000Y-62125000I200000J0D01*
G01*
G37*
G04 #@! TD.AperFunction*
G04 #@! TA.AperFunction,SMDPad,CuDef*
G36*
G01*
X139125000Y-60475000D02*
X139675000Y-60475000D01*
G75*
G02*
X139875000Y-60675000I0J-200000D01*
G01*
X139875000Y-61075000D01*
G75*
G02*
X139675000Y-61275000I-200000J0D01*
G01*
X139125000Y-61275000D01*
G75*
G02*
X138925000Y-61075000I0J200000D01*
G01*
X138925000Y-60675000D01*
G75*
G02*
X139125000Y-60475000I200000J0D01*
G01*
G37*
G04 #@! TD.AperFunction*
G04 #@! TA.AperFunction,SMDPad,CuDef*
G36*
G01*
X136450000Y-60543750D02*
X136450000Y-61056250D01*
G75*
G02*
X136231250Y-61275000I-218750J0D01*
G01*
X135793750Y-61275000D01*
G75*
G02*
X135575000Y-61056250I0J218750D01*
G01*
X135575000Y-60543750D01*
G75*
G02*
X135793750Y-60325000I218750J0D01*
G01*
X136231250Y-60325000D01*
G75*
G02*
X136450000Y-60543750I0J-218750D01*
G01*
G37*
G04 #@! TD.AperFunction*
G04 #@! TA.AperFunction,SMDPad,CuDef*
G36*
G01*
X138025000Y-60543750D02*
X138025000Y-61056250D01*
G75*
G02*
X137806250Y-61275000I-218750J0D01*
G01*
X137368750Y-61275000D01*
G75*
G02*
X137150000Y-61056250I0J218750D01*
G01*
X137150000Y-60543750D01*
G75*
G02*
X137368750Y-60325000I218750J0D01*
G01*
X137806250Y-60325000D01*
G75*
G02*
X138025000Y-60543750I0J-218750D01*
G01*
G37*
G04 #@! TD.AperFunction*
D16*
X145000000Y-97200000D03*
X158400000Y-137400000D03*
X154000000Y-134400000D03*
X141600000Y-118900000D03*
X56800000Y-137700000D03*
X59000000Y-126400000D03*
X59200000Y-119700000D03*
X60400000Y-103200000D03*
X48800000Y-58700000D03*
X57300000Y-61200000D03*
X44800000Y-99800000D03*
X50800000Y-77000000D03*
X55300000Y-76300000D03*
X75900000Y-71400000D03*
X72300000Y-71400000D03*
G04 #@! TA.AperFunction,SMDPad,CuDef*
G36*
G01*
X134035000Y-103075000D02*
X133735000Y-103075000D01*
G75*
G02*
X133585000Y-102925000I0J150000D01*
G01*
X133585000Y-101175000D01*
G75*
G02*
X133735000Y-101025000I150000J0D01*
G01*
X134035000Y-101025000D01*
G75*
G02*
X134185000Y-101175000I0J-150000D01*
G01*
X134185000Y-102925000D01*
G75*
G02*
X134035000Y-103075000I-150000J0D01*
G01*
G37*
G04 #@! TD.AperFunction*
G04 #@! TA.AperFunction,SMDPad,CuDef*
G36*
G01*
X135305000Y-103075000D02*
X135005000Y-103075000D01*
G75*
G02*
X134855000Y-102925000I0J150000D01*
G01*
X134855000Y-101175000D01*
G75*
G02*
X135005000Y-101025000I150000J0D01*
G01*
X135305000Y-101025000D01*
G75*
G02*
X135455000Y-101175000I0J-150000D01*
G01*
X135455000Y-102925000D01*
G75*
G02*
X135305000Y-103075000I-150000J0D01*
G01*
G37*
G04 #@! TD.AperFunction*
G04 #@! TA.AperFunction,SMDPad,CuDef*
G36*
G01*
X136575000Y-103075000D02*
X136275000Y-103075000D01*
G75*
G02*
X136125000Y-102925000I0J150000D01*
G01*
X136125000Y-101175000D01*
G75*
G02*
X136275000Y-101025000I150000J0D01*
G01*
X136575000Y-101025000D01*
G75*
G02*
X136725000Y-101175000I0J-150000D01*
G01*
X136725000Y-102925000D01*
G75*
G02*
X136575000Y-103075000I-150000J0D01*
G01*
G37*
G04 #@! TD.AperFunction*
G04 #@! TA.AperFunction,SMDPad,CuDef*
G36*
G01*
X137845000Y-103075000D02*
X137545000Y-103075000D01*
G75*
G02*
X137395000Y-102925000I0J150000D01*
G01*
X137395000Y-101175000D01*
G75*
G02*
X137545000Y-101025000I150000J0D01*
G01*
X137845000Y-101025000D01*
G75*
G02*
X137995000Y-101175000I0J-150000D01*
G01*
X137995000Y-102925000D01*
G75*
G02*
X137845000Y-103075000I-150000J0D01*
G01*
G37*
G04 #@! TD.AperFunction*
G04 #@! TA.AperFunction,SMDPad,CuDef*
G36*
G01*
X139115000Y-103075000D02*
X138815000Y-103075000D01*
G75*
G02*
X138665000Y-102925000I0J150000D01*
G01*
X138665000Y-101175000D01*
G75*
G02*
X138815000Y-101025000I150000J0D01*
G01*
X139115000Y-101025000D01*
G75*
G02*
X139265000Y-101175000I0J-150000D01*
G01*
X139265000Y-102925000D01*
G75*
G02*
X139115000Y-103075000I-150000J0D01*
G01*
G37*
G04 #@! TD.AperFunction*
G04 #@! TA.AperFunction,SMDPad,CuDef*
G36*
G01*
X140385000Y-103075000D02*
X140085000Y-103075000D01*
G75*
G02*
X139935000Y-102925000I0J150000D01*
G01*
X139935000Y-101175000D01*
G75*
G02*
X140085000Y-101025000I150000J0D01*
G01*
X140385000Y-101025000D01*
G75*
G02*
X140535000Y-101175000I0J-150000D01*
G01*
X140535000Y-102925000D01*
G75*
G02*
X140385000Y-103075000I-150000J0D01*
G01*
G37*
G04 #@! TD.AperFunction*
G04 #@! TA.AperFunction,SMDPad,CuDef*
G36*
G01*
X141655000Y-103075000D02*
X141355000Y-103075000D01*
G75*
G02*
X141205000Y-102925000I0J150000D01*
G01*
X141205000Y-101175000D01*
G75*
G02*
X141355000Y-101025000I150000J0D01*
G01*
X141655000Y-101025000D01*
G75*
G02*
X141805000Y-101175000I0J-150000D01*
G01*
X141805000Y-102925000D01*
G75*
G02*
X141655000Y-103075000I-150000J0D01*
G01*
G37*
G04 #@! TD.AperFunction*
G04 #@! TA.AperFunction,SMDPad,CuDef*
G36*
G01*
X142925000Y-103075000D02*
X142625000Y-103075000D01*
G75*
G02*
X142475000Y-102925000I0J150000D01*
G01*
X142475000Y-101175000D01*
G75*
G02*
X142625000Y-101025000I150000J0D01*
G01*
X142925000Y-101025000D01*
G75*
G02*
X143075000Y-101175000I0J-150000D01*
G01*
X143075000Y-102925000D01*
G75*
G02*
X142925000Y-103075000I-150000J0D01*
G01*
G37*
G04 #@! TD.AperFunction*
G04 #@! TA.AperFunction,SMDPad,CuDef*
G36*
G01*
X144195000Y-103075000D02*
X143895000Y-103075000D01*
G75*
G02*
X143745000Y-102925000I0J150000D01*
G01*
X143745000Y-101175000D01*
G75*
G02*
X143895000Y-101025000I150000J0D01*
G01*
X144195000Y-101025000D01*
G75*
G02*
X144345000Y-101175000I0J-150000D01*
G01*
X144345000Y-102925000D01*
G75*
G02*
X144195000Y-103075000I-150000J0D01*
G01*
G37*
G04 #@! TD.AperFunction*
G04 #@! TA.AperFunction,SMDPad,CuDef*
G36*
G01*
X145465000Y-103075000D02*
X145165000Y-103075000D01*
G75*
G02*
X145015000Y-102925000I0J150000D01*
G01*
X145015000Y-101175000D01*
G75*
G02*
X145165000Y-101025000I150000J0D01*
G01*
X145465000Y-101025000D01*
G75*
G02*
X145615000Y-101175000I0J-150000D01*
G01*
X145615000Y-102925000D01*
G75*
G02*
X145465000Y-103075000I-150000J0D01*
G01*
G37*
G04 #@! TD.AperFunction*
G04 #@! TA.AperFunction,SMDPad,CuDef*
G36*
G01*
X145465000Y-112375000D02*
X145165000Y-112375000D01*
G75*
G02*
X145015000Y-112225000I0J150000D01*
G01*
X145015000Y-110475000D01*
G75*
G02*
X145165000Y-110325000I150000J0D01*
G01*
X145465000Y-110325000D01*
G75*
G02*
X145615000Y-110475000I0J-150000D01*
G01*
X145615000Y-112225000D01*
G75*
G02*
X145465000Y-112375000I-150000J0D01*
G01*
G37*
G04 #@! TD.AperFunction*
G04 #@! TA.AperFunction,SMDPad,CuDef*
G36*
G01*
X144195000Y-112375000D02*
X143895000Y-112375000D01*
G75*
G02*
X143745000Y-112225000I0J150000D01*
G01*
X143745000Y-110475000D01*
G75*
G02*
X143895000Y-110325000I150000J0D01*
G01*
X144195000Y-110325000D01*
G75*
G02*
X144345000Y-110475000I0J-150000D01*
G01*
X144345000Y-112225000D01*
G75*
G02*
X144195000Y-112375000I-150000J0D01*
G01*
G37*
G04 #@! TD.AperFunction*
G04 #@! TA.AperFunction,SMDPad,CuDef*
G36*
G01*
X142925000Y-112375000D02*
X142625000Y-112375000D01*
G75*
G02*
X142475000Y-112225000I0J150000D01*
G01*
X142475000Y-110475000D01*
G75*
G02*
X142625000Y-110325000I150000J0D01*
G01*
X142925000Y-110325000D01*
G75*
G02*
X143075000Y-110475000I0J-150000D01*
G01*
X143075000Y-112225000D01*
G75*
G02*
X142925000Y-112375000I-150000J0D01*
G01*
G37*
G04 #@! TD.AperFunction*
G04 #@! TA.AperFunction,SMDPad,CuDef*
G36*
G01*
X141655000Y-112375000D02*
X141355000Y-112375000D01*
G75*
G02*
X141205000Y-112225000I0J150000D01*
G01*
X141205000Y-110475000D01*
G75*
G02*
X141355000Y-110325000I150000J0D01*
G01*
X141655000Y-110325000D01*
G75*
G02*
X141805000Y-110475000I0J-150000D01*
G01*
X141805000Y-112225000D01*
G75*
G02*
X141655000Y-112375000I-150000J0D01*
G01*
G37*
G04 #@! TD.AperFunction*
G04 #@! TA.AperFunction,SMDPad,CuDef*
G36*
G01*
X140385000Y-112375000D02*
X140085000Y-112375000D01*
G75*
G02*
X139935000Y-112225000I0J150000D01*
G01*
X139935000Y-110475000D01*
G75*
G02*
X140085000Y-110325000I150000J0D01*
G01*
X140385000Y-110325000D01*
G75*
G02*
X140535000Y-110475000I0J-150000D01*
G01*
X140535000Y-112225000D01*
G75*
G02*
X140385000Y-112375000I-150000J0D01*
G01*
G37*
G04 #@! TD.AperFunction*
G04 #@! TA.AperFunction,SMDPad,CuDef*
G36*
G01*
X139115000Y-112375000D02*
X138815000Y-112375000D01*
G75*
G02*
X138665000Y-112225000I0J150000D01*
G01*
X138665000Y-110475000D01*
G75*
G02*
X138815000Y-110325000I150000J0D01*
G01*
X139115000Y-110325000D01*
G75*
G02*
X139265000Y-110475000I0J-150000D01*
G01*
X139265000Y-112225000D01*
G75*
G02*
X139115000Y-112375000I-150000J0D01*
G01*
G37*
G04 #@! TD.AperFunction*
G04 #@! TA.AperFunction,SMDPad,CuDef*
G36*
G01*
X137845000Y-112375000D02*
X137545000Y-112375000D01*
G75*
G02*
X137395000Y-112225000I0J150000D01*
G01*
X137395000Y-110475000D01*
G75*
G02*
X137545000Y-110325000I150000J0D01*
G01*
X137845000Y-110325000D01*
G75*
G02*
X137995000Y-110475000I0J-150000D01*
G01*
X137995000Y-112225000D01*
G75*
G02*
X137845000Y-112375000I-150000J0D01*
G01*
G37*
G04 #@! TD.AperFunction*
G04 #@! TA.AperFunction,SMDPad,CuDef*
G36*
G01*
X136575000Y-112375000D02*
X136275000Y-112375000D01*
G75*
G02*
X136125000Y-112225000I0J150000D01*
G01*
X136125000Y-110475000D01*
G75*
G02*
X136275000Y-110325000I150000J0D01*
G01*
X136575000Y-110325000D01*
G75*
G02*
X136725000Y-110475000I0J-150000D01*
G01*
X136725000Y-112225000D01*
G75*
G02*
X136575000Y-112375000I-150000J0D01*
G01*
G37*
G04 #@! TD.AperFunction*
G04 #@! TA.AperFunction,SMDPad,CuDef*
G36*
G01*
X135305000Y-112375000D02*
X135005000Y-112375000D01*
G75*
G02*
X134855000Y-112225000I0J150000D01*
G01*
X134855000Y-110475000D01*
G75*
G02*
X135005000Y-110325000I150000J0D01*
G01*
X135305000Y-110325000D01*
G75*
G02*
X135455000Y-110475000I0J-150000D01*
G01*
X135455000Y-112225000D01*
G75*
G02*
X135305000Y-112375000I-150000J0D01*
G01*
G37*
G04 #@! TD.AperFunction*
G04 #@! TA.AperFunction,SMDPad,CuDef*
G36*
G01*
X134035000Y-112375000D02*
X133735000Y-112375000D01*
G75*
G02*
X133585000Y-112225000I0J150000D01*
G01*
X133585000Y-110475000D01*
G75*
G02*
X133735000Y-110325000I150000J0D01*
G01*
X134035000Y-110325000D01*
G75*
G02*
X134185000Y-110475000I0J-150000D01*
G01*
X134185000Y-112225000D01*
G75*
G02*
X134035000Y-112375000I-150000J0D01*
G01*
G37*
G04 #@! TD.AperFunction*
G04 #@! TA.AperFunction,SMDPad,CuDef*
G36*
G01*
X52275000Y-118650000D02*
X52275000Y-119150000D01*
G75*
G02*
X52050000Y-119375000I-225000J0D01*
G01*
X51600000Y-119375000D01*
G75*
G02*
X51375000Y-119150000I0J225000D01*
G01*
X51375000Y-118650000D01*
G75*
G02*
X51600000Y-118425000I225000J0D01*
G01*
X52050000Y-118425000D01*
G75*
G02*
X52275000Y-118650000I0J-225000D01*
G01*
G37*
G04 #@! TD.AperFunction*
G04 #@! TA.AperFunction,SMDPad,CuDef*
G36*
G01*
X53825000Y-118650000D02*
X53825000Y-119150000D01*
G75*
G02*
X53600000Y-119375000I-225000J0D01*
G01*
X53150000Y-119375000D01*
G75*
G02*
X52925000Y-119150000I0J225000D01*
G01*
X52925000Y-118650000D01*
G75*
G02*
X53150000Y-118425000I225000J0D01*
G01*
X53600000Y-118425000D01*
G75*
G02*
X53825000Y-118650000I0J-225000D01*
G01*
G37*
G04 #@! TD.AperFunction*
D17*
X172300000Y-125000000D03*
X167300000Y-125000000D03*
X167300000Y-120000000D03*
X172300000Y-130000000D03*
X167300000Y-130000000D03*
X172300000Y-120000000D03*
G04 #@! TA.AperFunction,SMDPad,CuDef*
G36*
G01*
X149450000Y-138525000D02*
X149950000Y-138525000D01*
G75*
G02*
X150175000Y-138750000I0J-225000D01*
G01*
X150175000Y-139200000D01*
G75*
G02*
X149950000Y-139425000I-225000J0D01*
G01*
X149450000Y-139425000D01*
G75*
G02*
X149225000Y-139200000I0J225000D01*
G01*
X149225000Y-138750000D01*
G75*
G02*
X149450000Y-138525000I225000J0D01*
G01*
G37*
G04 #@! TD.AperFunction*
G04 #@! TA.AperFunction,SMDPad,CuDef*
G36*
G01*
X149450000Y-136975000D02*
X149950000Y-136975000D01*
G75*
G02*
X150175000Y-137200000I0J-225000D01*
G01*
X150175000Y-137650000D01*
G75*
G02*
X149950000Y-137875000I-225000J0D01*
G01*
X149450000Y-137875000D01*
G75*
G02*
X149225000Y-137650000I0J225000D01*
G01*
X149225000Y-137200000D01*
G75*
G02*
X149450000Y-136975000I225000J0D01*
G01*
G37*
G04 #@! TD.AperFunction*
G04 #@! TA.AperFunction,SMDPad,CuDef*
G36*
G01*
X149950000Y-134475000D02*
X149450000Y-134475000D01*
G75*
G02*
X149225000Y-134250000I0J225000D01*
G01*
X149225000Y-133800000D01*
G75*
G02*
X149450000Y-133575000I225000J0D01*
G01*
X149950000Y-133575000D01*
G75*
G02*
X150175000Y-133800000I0J-225000D01*
G01*
X150175000Y-134250000D01*
G75*
G02*
X149950000Y-134475000I-225000J0D01*
G01*
G37*
G04 #@! TD.AperFunction*
G04 #@! TA.AperFunction,SMDPad,CuDef*
G36*
G01*
X149950000Y-136025000D02*
X149450000Y-136025000D01*
G75*
G02*
X149225000Y-135800000I0J225000D01*
G01*
X149225000Y-135350000D01*
G75*
G02*
X149450000Y-135125000I225000J0D01*
G01*
X149950000Y-135125000D01*
G75*
G02*
X150175000Y-135350000I0J-225000D01*
G01*
X150175000Y-135800000D01*
G75*
G02*
X149950000Y-136025000I-225000J0D01*
G01*
G37*
G04 #@! TD.AperFunction*
G04 #@! TA.AperFunction,SMDPad,CuDef*
G36*
G01*
X145575000Y-136225000D02*
X145575000Y-136775000D01*
G75*
G02*
X145375000Y-136975000I-200000J0D01*
G01*
X144975000Y-136975000D01*
G75*
G02*
X144775000Y-136775000I0J200000D01*
G01*
X144775000Y-136225000D01*
G75*
G02*
X144975000Y-136025000I200000J0D01*
G01*
X145375000Y-136025000D01*
G75*
G02*
X145575000Y-136225000I0J-200000D01*
G01*
G37*
G04 #@! TD.AperFunction*
G04 #@! TA.AperFunction,SMDPad,CuDef*
G36*
G01*
X147225000Y-136225000D02*
X147225000Y-136775000D01*
G75*
G02*
X147025000Y-136975000I-200000J0D01*
G01*
X146625000Y-136975000D01*
G75*
G02*
X146425000Y-136775000I0J200000D01*
G01*
X146425000Y-136225000D01*
G75*
G02*
X146625000Y-136025000I200000J0D01*
G01*
X147025000Y-136025000D01*
G75*
G02*
X147225000Y-136225000I0J-200000D01*
G01*
G37*
G04 #@! TD.AperFunction*
G04 #@! TA.AperFunction,SMDPad,CuDef*
G36*
G01*
X145575000Y-133775000D02*
X145575000Y-134325000D01*
G75*
G02*
X145375000Y-134525000I-200000J0D01*
G01*
X144975000Y-134525000D01*
G75*
G02*
X144775000Y-134325000I0J200000D01*
G01*
X144775000Y-133775000D01*
G75*
G02*
X144975000Y-133575000I200000J0D01*
G01*
X145375000Y-133575000D01*
G75*
G02*
X145575000Y-133775000I0J-200000D01*
G01*
G37*
G04 #@! TD.AperFunction*
G04 #@! TA.AperFunction,SMDPad,CuDef*
G36*
G01*
X147225000Y-133775000D02*
X147225000Y-134325000D01*
G75*
G02*
X147025000Y-134525000I-200000J0D01*
G01*
X146625000Y-134525000D01*
G75*
G02*
X146425000Y-134325000I0J200000D01*
G01*
X146425000Y-133775000D01*
G75*
G02*
X146625000Y-133575000I200000J0D01*
G01*
X147025000Y-133575000D01*
G75*
G02*
X147225000Y-133775000I0J-200000D01*
G01*
G37*
G04 #@! TD.AperFunction*
G04 #@! TA.AperFunction,SMDPad,CuDef*
G36*
G01*
X165100000Y-95345000D02*
X165100000Y-95045000D01*
G75*
G02*
X165250000Y-94895000I150000J0D01*
G01*
X166900000Y-94895000D01*
G75*
G02*
X167050000Y-95045000I0J-150000D01*
G01*
X167050000Y-95345000D01*
G75*
G02*
X166900000Y-95495000I-150000J0D01*
G01*
X165250000Y-95495000D01*
G75*
G02*
X165100000Y-95345000I0J150000D01*
G01*
G37*
G04 #@! TD.AperFunction*
G04 #@! TA.AperFunction,SMDPad,CuDef*
G36*
G01*
X165100000Y-96615000D02*
X165100000Y-96315000D01*
G75*
G02*
X165250000Y-96165000I150000J0D01*
G01*
X166900000Y-96165000D01*
G75*
G02*
X167050000Y-96315000I0J-150000D01*
G01*
X167050000Y-96615000D01*
G75*
G02*
X166900000Y-96765000I-150000J0D01*
G01*
X165250000Y-96765000D01*
G75*
G02*
X165100000Y-96615000I0J150000D01*
G01*
G37*
G04 #@! TD.AperFunction*
G04 #@! TA.AperFunction,SMDPad,CuDef*
G36*
G01*
X165100000Y-97885000D02*
X165100000Y-97585000D01*
G75*
G02*
X165250000Y-97435000I150000J0D01*
G01*
X166900000Y-97435000D01*
G75*
G02*
X167050000Y-97585000I0J-150000D01*
G01*
X167050000Y-97885000D01*
G75*
G02*
X166900000Y-98035000I-150000J0D01*
G01*
X165250000Y-98035000D01*
G75*
G02*
X165100000Y-97885000I0J150000D01*
G01*
G37*
G04 #@! TD.AperFunction*
G04 #@! TA.AperFunction,SMDPad,CuDef*
G36*
G01*
X165100000Y-99155000D02*
X165100000Y-98855000D01*
G75*
G02*
X165250000Y-98705000I150000J0D01*
G01*
X166900000Y-98705000D01*
G75*
G02*
X167050000Y-98855000I0J-150000D01*
G01*
X167050000Y-99155000D01*
G75*
G02*
X166900000Y-99305000I-150000J0D01*
G01*
X165250000Y-99305000D01*
G75*
G02*
X165100000Y-99155000I0J150000D01*
G01*
G37*
G04 #@! TD.AperFunction*
G04 #@! TA.AperFunction,SMDPad,CuDef*
G36*
G01*
X160150000Y-99155000D02*
X160150000Y-98855000D01*
G75*
G02*
X160300000Y-98705000I150000J0D01*
G01*
X161950000Y-98705000D01*
G75*
G02*
X162100000Y-98855000I0J-150000D01*
G01*
X162100000Y-99155000D01*
G75*
G02*
X161950000Y-99305000I-150000J0D01*
G01*
X160300000Y-99305000D01*
G75*
G02*
X160150000Y-99155000I0J150000D01*
G01*
G37*
G04 #@! TD.AperFunction*
G04 #@! TA.AperFunction,SMDPad,CuDef*
G36*
G01*
X160150000Y-97885000D02*
X160150000Y-97585000D01*
G75*
G02*
X160300000Y-97435000I150000J0D01*
G01*
X161950000Y-97435000D01*
G75*
G02*
X162100000Y-97585000I0J-150000D01*
G01*
X162100000Y-97885000D01*
G75*
G02*
X161950000Y-98035000I-150000J0D01*
G01*
X160300000Y-98035000D01*
G75*
G02*
X160150000Y-97885000I0J150000D01*
G01*
G37*
G04 #@! TD.AperFunction*
G04 #@! TA.AperFunction,SMDPad,CuDef*
G36*
G01*
X160150000Y-96615000D02*
X160150000Y-96315000D01*
G75*
G02*
X160300000Y-96165000I150000J0D01*
G01*
X161950000Y-96165000D01*
G75*
G02*
X162100000Y-96315000I0J-150000D01*
G01*
X162100000Y-96615000D01*
G75*
G02*
X161950000Y-96765000I-150000J0D01*
G01*
X160300000Y-96765000D01*
G75*
G02*
X160150000Y-96615000I0J150000D01*
G01*
G37*
G04 #@! TD.AperFunction*
G04 #@! TA.AperFunction,SMDPad,CuDef*
G36*
G01*
X160150000Y-95345000D02*
X160150000Y-95045000D01*
G75*
G02*
X160300000Y-94895000I150000J0D01*
G01*
X161950000Y-94895000D01*
G75*
G02*
X162100000Y-95045000I0J-150000D01*
G01*
X162100000Y-95345000D01*
G75*
G02*
X161950000Y-95495000I-150000J0D01*
G01*
X160300000Y-95495000D01*
G75*
G02*
X160150000Y-95345000I0J150000D01*
G01*
G37*
G04 #@! TD.AperFunction*
G04 #@! TA.AperFunction,SMDPad,CuDef*
G36*
G01*
X51125000Y-130125000D02*
X51125000Y-129925000D01*
G75*
G02*
X51225000Y-129825000I100000J0D01*
G01*
X52500000Y-129825000D01*
G75*
G02*
X52600000Y-129925000I0J-100000D01*
G01*
X52600000Y-130125000D01*
G75*
G02*
X52500000Y-130225000I-100000J0D01*
G01*
X51225000Y-130225000D01*
G75*
G02*
X51125000Y-130125000I0J100000D01*
G01*
G37*
G04 #@! TD.AperFunction*
G04 #@! TA.AperFunction,SMDPad,CuDef*
G36*
G01*
X51125000Y-130775000D02*
X51125000Y-130575000D01*
G75*
G02*
X51225000Y-130475000I100000J0D01*
G01*
X52500000Y-130475000D01*
G75*
G02*
X52600000Y-130575000I0J-100000D01*
G01*
X52600000Y-130775000D01*
G75*
G02*
X52500000Y-130875000I-100000J0D01*
G01*
X51225000Y-130875000D01*
G75*
G02*
X51125000Y-130775000I0J100000D01*
G01*
G37*
G04 #@! TD.AperFunction*
G04 #@! TA.AperFunction,SMDPad,CuDef*
G36*
G01*
X51125000Y-131425000D02*
X51125000Y-131225000D01*
G75*
G02*
X51225000Y-131125000I100000J0D01*
G01*
X52500000Y-131125000D01*
G75*
G02*
X52600000Y-131225000I0J-100000D01*
G01*
X52600000Y-131425000D01*
G75*
G02*
X52500000Y-131525000I-100000J0D01*
G01*
X51225000Y-131525000D01*
G75*
G02*
X51125000Y-131425000I0J100000D01*
G01*
G37*
G04 #@! TD.AperFunction*
G04 #@! TA.AperFunction,SMDPad,CuDef*
G36*
G01*
X51125000Y-132075000D02*
X51125000Y-131875000D01*
G75*
G02*
X51225000Y-131775000I100000J0D01*
G01*
X52500000Y-131775000D01*
G75*
G02*
X52600000Y-131875000I0J-100000D01*
G01*
X52600000Y-132075000D01*
G75*
G02*
X52500000Y-132175000I-100000J0D01*
G01*
X51225000Y-132175000D01*
G75*
G02*
X51125000Y-132075000I0J100000D01*
G01*
G37*
G04 #@! TD.AperFunction*
G04 #@! TA.AperFunction,SMDPad,CuDef*
G36*
G01*
X51125000Y-132725000D02*
X51125000Y-132525000D01*
G75*
G02*
X51225000Y-132425000I100000J0D01*
G01*
X52500000Y-132425000D01*
G75*
G02*
X52600000Y-132525000I0J-100000D01*
G01*
X52600000Y-132725000D01*
G75*
G02*
X52500000Y-132825000I-100000J0D01*
G01*
X51225000Y-132825000D01*
G75*
G02*
X51125000Y-132725000I0J100000D01*
G01*
G37*
G04 #@! TD.AperFunction*
G04 #@! TA.AperFunction,SMDPad,CuDef*
G36*
G01*
X51125000Y-133375000D02*
X51125000Y-133175000D01*
G75*
G02*
X51225000Y-133075000I100000J0D01*
G01*
X52500000Y-133075000D01*
G75*
G02*
X52600000Y-133175000I0J-100000D01*
G01*
X52600000Y-133375000D01*
G75*
G02*
X52500000Y-133475000I-100000J0D01*
G01*
X51225000Y-133475000D01*
G75*
G02*
X51125000Y-133375000I0J100000D01*
G01*
G37*
G04 #@! TD.AperFunction*
G04 #@! TA.AperFunction,SMDPad,CuDef*
G36*
G01*
X51125000Y-134025000D02*
X51125000Y-133825000D01*
G75*
G02*
X51225000Y-133725000I100000J0D01*
G01*
X52500000Y-133725000D01*
G75*
G02*
X52600000Y-133825000I0J-100000D01*
G01*
X52600000Y-134025000D01*
G75*
G02*
X52500000Y-134125000I-100000J0D01*
G01*
X51225000Y-134125000D01*
G75*
G02*
X51125000Y-134025000I0J100000D01*
G01*
G37*
G04 #@! TD.AperFunction*
G04 #@! TA.AperFunction,SMDPad,CuDef*
G36*
G01*
X51125000Y-134675000D02*
X51125000Y-134475000D01*
G75*
G02*
X51225000Y-134375000I100000J0D01*
G01*
X52500000Y-134375000D01*
G75*
G02*
X52600000Y-134475000I0J-100000D01*
G01*
X52600000Y-134675000D01*
G75*
G02*
X52500000Y-134775000I-100000J0D01*
G01*
X51225000Y-134775000D01*
G75*
G02*
X51125000Y-134675000I0J100000D01*
G01*
G37*
G04 #@! TD.AperFunction*
G04 #@! TA.AperFunction,SMDPad,CuDef*
G36*
G01*
X45400000Y-134675000D02*
X45400000Y-134475000D01*
G75*
G02*
X45500000Y-134375000I100000J0D01*
G01*
X46775000Y-134375000D01*
G75*
G02*
X46875000Y-134475000I0J-100000D01*
G01*
X46875000Y-134675000D01*
G75*
G02*
X46775000Y-134775000I-100000J0D01*
G01*
X45500000Y-134775000D01*
G75*
G02*
X45400000Y-134675000I0J100000D01*
G01*
G37*
G04 #@! TD.AperFunction*
G04 #@! TA.AperFunction,SMDPad,CuDef*
G36*
G01*
X45400000Y-134025000D02*
X45400000Y-133825000D01*
G75*
G02*
X45500000Y-133725000I100000J0D01*
G01*
X46775000Y-133725000D01*
G75*
G02*
X46875000Y-133825000I0J-100000D01*
G01*
X46875000Y-134025000D01*
G75*
G02*
X46775000Y-134125000I-100000J0D01*
G01*
X45500000Y-134125000D01*
G75*
G02*
X45400000Y-134025000I0J100000D01*
G01*
G37*
G04 #@! TD.AperFunction*
G04 #@! TA.AperFunction,SMDPad,CuDef*
G36*
G01*
X45400000Y-133375000D02*
X45400000Y-133175000D01*
G75*
G02*
X45500000Y-133075000I100000J0D01*
G01*
X46775000Y-133075000D01*
G75*
G02*
X46875000Y-133175000I0J-100000D01*
G01*
X46875000Y-133375000D01*
G75*
G02*
X46775000Y-133475000I-100000J0D01*
G01*
X45500000Y-133475000D01*
G75*
G02*
X45400000Y-133375000I0J100000D01*
G01*
G37*
G04 #@! TD.AperFunction*
G04 #@! TA.AperFunction,SMDPad,CuDef*
G36*
G01*
X45400000Y-132725000D02*
X45400000Y-132525000D01*
G75*
G02*
X45500000Y-132425000I100000J0D01*
G01*
X46775000Y-132425000D01*
G75*
G02*
X46875000Y-132525000I0J-100000D01*
G01*
X46875000Y-132725000D01*
G75*
G02*
X46775000Y-132825000I-100000J0D01*
G01*
X45500000Y-132825000D01*
G75*
G02*
X45400000Y-132725000I0J100000D01*
G01*
G37*
G04 #@! TD.AperFunction*
G04 #@! TA.AperFunction,SMDPad,CuDef*
G36*
G01*
X45400000Y-132075000D02*
X45400000Y-131875000D01*
G75*
G02*
X45500000Y-131775000I100000J0D01*
G01*
X46775000Y-131775000D01*
G75*
G02*
X46875000Y-131875000I0J-100000D01*
G01*
X46875000Y-132075000D01*
G75*
G02*
X46775000Y-132175000I-100000J0D01*
G01*
X45500000Y-132175000D01*
G75*
G02*
X45400000Y-132075000I0J100000D01*
G01*
G37*
G04 #@! TD.AperFunction*
G04 #@! TA.AperFunction,SMDPad,CuDef*
G36*
G01*
X45400000Y-131425000D02*
X45400000Y-131225000D01*
G75*
G02*
X45500000Y-131125000I100000J0D01*
G01*
X46775000Y-131125000D01*
G75*
G02*
X46875000Y-131225000I0J-100000D01*
G01*
X46875000Y-131425000D01*
G75*
G02*
X46775000Y-131525000I-100000J0D01*
G01*
X45500000Y-131525000D01*
G75*
G02*
X45400000Y-131425000I0J100000D01*
G01*
G37*
G04 #@! TD.AperFunction*
G04 #@! TA.AperFunction,SMDPad,CuDef*
G36*
G01*
X45400000Y-130775000D02*
X45400000Y-130575000D01*
G75*
G02*
X45500000Y-130475000I100000J0D01*
G01*
X46775000Y-130475000D01*
G75*
G02*
X46875000Y-130575000I0J-100000D01*
G01*
X46875000Y-130775000D01*
G75*
G02*
X46775000Y-130875000I-100000J0D01*
G01*
X45500000Y-130875000D01*
G75*
G02*
X45400000Y-130775000I0J100000D01*
G01*
G37*
G04 #@! TD.AperFunction*
G04 #@! TA.AperFunction,SMDPad,CuDef*
G36*
G01*
X45400000Y-130125000D02*
X45400000Y-129925000D01*
G75*
G02*
X45500000Y-129825000I100000J0D01*
G01*
X46775000Y-129825000D01*
G75*
G02*
X46875000Y-129925000I0J-100000D01*
G01*
X46875000Y-130125000D01*
G75*
G02*
X46775000Y-130225000I-100000J0D01*
G01*
X45500000Y-130225000D01*
G75*
G02*
X45400000Y-130125000I0J100000D01*
G01*
G37*
G04 #@! TD.AperFunction*
G04 #@! TA.AperFunction,SMDPad,CuDef*
G36*
G01*
X51025000Y-120725000D02*
X51025000Y-120525000D01*
G75*
G02*
X51125000Y-120425000I100000J0D01*
G01*
X52400000Y-120425000D01*
G75*
G02*
X52500000Y-120525000I0J-100000D01*
G01*
X52500000Y-120725000D01*
G75*
G02*
X52400000Y-120825000I-100000J0D01*
G01*
X51125000Y-120825000D01*
G75*
G02*
X51025000Y-120725000I0J100000D01*
G01*
G37*
G04 #@! TD.AperFunction*
G04 #@! TA.AperFunction,SMDPad,CuDef*
G36*
G01*
X51025000Y-121375000D02*
X51025000Y-121175000D01*
G75*
G02*
X51125000Y-121075000I100000J0D01*
G01*
X52400000Y-121075000D01*
G75*
G02*
X52500000Y-121175000I0J-100000D01*
G01*
X52500000Y-121375000D01*
G75*
G02*
X52400000Y-121475000I-100000J0D01*
G01*
X51125000Y-121475000D01*
G75*
G02*
X51025000Y-121375000I0J100000D01*
G01*
G37*
G04 #@! TD.AperFunction*
G04 #@! TA.AperFunction,SMDPad,CuDef*
G36*
G01*
X51025000Y-122025000D02*
X51025000Y-121825000D01*
G75*
G02*
X51125000Y-121725000I100000J0D01*
G01*
X52400000Y-121725000D01*
G75*
G02*
X52500000Y-121825000I0J-100000D01*
G01*
X52500000Y-122025000D01*
G75*
G02*
X52400000Y-122125000I-100000J0D01*
G01*
X51125000Y-122125000D01*
G75*
G02*
X51025000Y-122025000I0J100000D01*
G01*
G37*
G04 #@! TD.AperFunction*
G04 #@! TA.AperFunction,SMDPad,CuDef*
G36*
G01*
X51025000Y-122675000D02*
X51025000Y-122475000D01*
G75*
G02*
X51125000Y-122375000I100000J0D01*
G01*
X52400000Y-122375000D01*
G75*
G02*
X52500000Y-122475000I0J-100000D01*
G01*
X52500000Y-122675000D01*
G75*
G02*
X52400000Y-122775000I-100000J0D01*
G01*
X51125000Y-122775000D01*
G75*
G02*
X51025000Y-122675000I0J100000D01*
G01*
G37*
G04 #@! TD.AperFunction*
G04 #@! TA.AperFunction,SMDPad,CuDef*
G36*
G01*
X51025000Y-123325000D02*
X51025000Y-123125000D01*
G75*
G02*
X51125000Y-123025000I100000J0D01*
G01*
X52400000Y-123025000D01*
G75*
G02*
X52500000Y-123125000I0J-100000D01*
G01*
X52500000Y-123325000D01*
G75*
G02*
X52400000Y-123425000I-100000J0D01*
G01*
X51125000Y-123425000D01*
G75*
G02*
X51025000Y-123325000I0J100000D01*
G01*
G37*
G04 #@! TD.AperFunction*
G04 #@! TA.AperFunction,SMDPad,CuDef*
G36*
G01*
X51025000Y-123975000D02*
X51025000Y-123775000D01*
G75*
G02*
X51125000Y-123675000I100000J0D01*
G01*
X52400000Y-123675000D01*
G75*
G02*
X52500000Y-123775000I0J-100000D01*
G01*
X52500000Y-123975000D01*
G75*
G02*
X52400000Y-124075000I-100000J0D01*
G01*
X51125000Y-124075000D01*
G75*
G02*
X51025000Y-123975000I0J100000D01*
G01*
G37*
G04 #@! TD.AperFunction*
G04 #@! TA.AperFunction,SMDPad,CuDef*
G36*
G01*
X51025000Y-124625000D02*
X51025000Y-124425000D01*
G75*
G02*
X51125000Y-124325000I100000J0D01*
G01*
X52400000Y-124325000D01*
G75*
G02*
X52500000Y-124425000I0J-100000D01*
G01*
X52500000Y-124625000D01*
G75*
G02*
X52400000Y-124725000I-100000J0D01*
G01*
X51125000Y-124725000D01*
G75*
G02*
X51025000Y-124625000I0J100000D01*
G01*
G37*
G04 #@! TD.AperFunction*
G04 #@! TA.AperFunction,SMDPad,CuDef*
G36*
G01*
X51025000Y-125275000D02*
X51025000Y-125075000D01*
G75*
G02*
X51125000Y-124975000I100000J0D01*
G01*
X52400000Y-124975000D01*
G75*
G02*
X52500000Y-125075000I0J-100000D01*
G01*
X52500000Y-125275000D01*
G75*
G02*
X52400000Y-125375000I-100000J0D01*
G01*
X51125000Y-125375000D01*
G75*
G02*
X51025000Y-125275000I0J100000D01*
G01*
G37*
G04 #@! TD.AperFunction*
G04 #@! TA.AperFunction,SMDPad,CuDef*
G36*
G01*
X45300000Y-125275000D02*
X45300000Y-125075000D01*
G75*
G02*
X45400000Y-124975000I100000J0D01*
G01*
X46675000Y-124975000D01*
G75*
G02*
X46775000Y-125075000I0J-100000D01*
G01*
X46775000Y-125275000D01*
G75*
G02*
X46675000Y-125375000I-100000J0D01*
G01*
X45400000Y-125375000D01*
G75*
G02*
X45300000Y-125275000I0J100000D01*
G01*
G37*
G04 #@! TD.AperFunction*
G04 #@! TA.AperFunction,SMDPad,CuDef*
G36*
G01*
X45300000Y-124625000D02*
X45300000Y-124425000D01*
G75*
G02*
X45400000Y-124325000I100000J0D01*
G01*
X46675000Y-124325000D01*
G75*
G02*
X46775000Y-124425000I0J-100000D01*
G01*
X46775000Y-124625000D01*
G75*
G02*
X46675000Y-124725000I-100000J0D01*
G01*
X45400000Y-124725000D01*
G75*
G02*
X45300000Y-124625000I0J100000D01*
G01*
G37*
G04 #@! TD.AperFunction*
G04 #@! TA.AperFunction,SMDPad,CuDef*
G36*
G01*
X45300000Y-123975000D02*
X45300000Y-123775000D01*
G75*
G02*
X45400000Y-123675000I100000J0D01*
G01*
X46675000Y-123675000D01*
G75*
G02*
X46775000Y-123775000I0J-100000D01*
G01*
X46775000Y-123975000D01*
G75*
G02*
X46675000Y-124075000I-100000J0D01*
G01*
X45400000Y-124075000D01*
G75*
G02*
X45300000Y-123975000I0J100000D01*
G01*
G37*
G04 #@! TD.AperFunction*
G04 #@! TA.AperFunction,SMDPad,CuDef*
G36*
G01*
X45300000Y-123325000D02*
X45300000Y-123125000D01*
G75*
G02*
X45400000Y-123025000I100000J0D01*
G01*
X46675000Y-123025000D01*
G75*
G02*
X46775000Y-123125000I0J-100000D01*
G01*
X46775000Y-123325000D01*
G75*
G02*
X46675000Y-123425000I-100000J0D01*
G01*
X45400000Y-123425000D01*
G75*
G02*
X45300000Y-123325000I0J100000D01*
G01*
G37*
G04 #@! TD.AperFunction*
G04 #@! TA.AperFunction,SMDPad,CuDef*
G36*
G01*
X45300000Y-122675000D02*
X45300000Y-122475000D01*
G75*
G02*
X45400000Y-122375000I100000J0D01*
G01*
X46675000Y-122375000D01*
G75*
G02*
X46775000Y-122475000I0J-100000D01*
G01*
X46775000Y-122675000D01*
G75*
G02*
X46675000Y-122775000I-100000J0D01*
G01*
X45400000Y-122775000D01*
G75*
G02*
X45300000Y-122675000I0J100000D01*
G01*
G37*
G04 #@! TD.AperFunction*
G04 #@! TA.AperFunction,SMDPad,CuDef*
G36*
G01*
X45300000Y-122025000D02*
X45300000Y-121825000D01*
G75*
G02*
X45400000Y-121725000I100000J0D01*
G01*
X46675000Y-121725000D01*
G75*
G02*
X46775000Y-121825000I0J-100000D01*
G01*
X46775000Y-122025000D01*
G75*
G02*
X46675000Y-122125000I-100000J0D01*
G01*
X45400000Y-122125000D01*
G75*
G02*
X45300000Y-122025000I0J100000D01*
G01*
G37*
G04 #@! TD.AperFunction*
G04 #@! TA.AperFunction,SMDPad,CuDef*
G36*
G01*
X45300000Y-121375000D02*
X45300000Y-121175000D01*
G75*
G02*
X45400000Y-121075000I100000J0D01*
G01*
X46675000Y-121075000D01*
G75*
G02*
X46775000Y-121175000I0J-100000D01*
G01*
X46775000Y-121375000D01*
G75*
G02*
X46675000Y-121475000I-100000J0D01*
G01*
X45400000Y-121475000D01*
G75*
G02*
X45300000Y-121375000I0J100000D01*
G01*
G37*
G04 #@! TD.AperFunction*
G04 #@! TA.AperFunction,SMDPad,CuDef*
G36*
G01*
X45300000Y-120725000D02*
X45300000Y-120525000D01*
G75*
G02*
X45400000Y-120425000I100000J0D01*
G01*
X46675000Y-120425000D01*
G75*
G02*
X46775000Y-120525000I0J-100000D01*
G01*
X46775000Y-120725000D01*
G75*
G02*
X46675000Y-120825000I-100000J0D01*
G01*
X45400000Y-120825000D01*
G75*
G02*
X45300000Y-120725000I0J100000D01*
G01*
G37*
G04 #@! TD.AperFunction*
G04 #@! TA.AperFunction,SMDPad,CuDef*
G36*
G01*
X51025000Y-89875000D02*
X51025000Y-89675000D01*
G75*
G02*
X51125000Y-89575000I100000J0D01*
G01*
X52400000Y-89575000D01*
G75*
G02*
X52500000Y-89675000I0J-100000D01*
G01*
X52500000Y-89875000D01*
G75*
G02*
X52400000Y-89975000I-100000J0D01*
G01*
X51125000Y-89975000D01*
G75*
G02*
X51025000Y-89875000I0J100000D01*
G01*
G37*
G04 #@! TD.AperFunction*
G04 #@! TA.AperFunction,SMDPad,CuDef*
G36*
G01*
X51025000Y-90525000D02*
X51025000Y-90325000D01*
G75*
G02*
X51125000Y-90225000I100000J0D01*
G01*
X52400000Y-90225000D01*
G75*
G02*
X52500000Y-90325000I0J-100000D01*
G01*
X52500000Y-90525000D01*
G75*
G02*
X52400000Y-90625000I-100000J0D01*
G01*
X51125000Y-90625000D01*
G75*
G02*
X51025000Y-90525000I0J100000D01*
G01*
G37*
G04 #@! TD.AperFunction*
G04 #@! TA.AperFunction,SMDPad,CuDef*
G36*
G01*
X51025000Y-91175000D02*
X51025000Y-90975000D01*
G75*
G02*
X51125000Y-90875000I100000J0D01*
G01*
X52400000Y-90875000D01*
G75*
G02*
X52500000Y-90975000I0J-100000D01*
G01*
X52500000Y-91175000D01*
G75*
G02*
X52400000Y-91275000I-100000J0D01*
G01*
X51125000Y-91275000D01*
G75*
G02*
X51025000Y-91175000I0J100000D01*
G01*
G37*
G04 #@! TD.AperFunction*
G04 #@! TA.AperFunction,SMDPad,CuDef*
G36*
G01*
X51025000Y-91825000D02*
X51025000Y-91625000D01*
G75*
G02*
X51125000Y-91525000I100000J0D01*
G01*
X52400000Y-91525000D01*
G75*
G02*
X52500000Y-91625000I0J-100000D01*
G01*
X52500000Y-91825000D01*
G75*
G02*
X52400000Y-91925000I-100000J0D01*
G01*
X51125000Y-91925000D01*
G75*
G02*
X51025000Y-91825000I0J100000D01*
G01*
G37*
G04 #@! TD.AperFunction*
G04 #@! TA.AperFunction,SMDPad,CuDef*
G36*
G01*
X51025000Y-92475000D02*
X51025000Y-92275000D01*
G75*
G02*
X51125000Y-92175000I100000J0D01*
G01*
X52400000Y-92175000D01*
G75*
G02*
X52500000Y-92275000I0J-100000D01*
G01*
X52500000Y-92475000D01*
G75*
G02*
X52400000Y-92575000I-100000J0D01*
G01*
X51125000Y-92575000D01*
G75*
G02*
X51025000Y-92475000I0J100000D01*
G01*
G37*
G04 #@! TD.AperFunction*
G04 #@! TA.AperFunction,SMDPad,CuDef*
G36*
G01*
X51025000Y-93125000D02*
X51025000Y-92925000D01*
G75*
G02*
X51125000Y-92825000I100000J0D01*
G01*
X52400000Y-92825000D01*
G75*
G02*
X52500000Y-92925000I0J-100000D01*
G01*
X52500000Y-93125000D01*
G75*
G02*
X52400000Y-93225000I-100000J0D01*
G01*
X51125000Y-93225000D01*
G75*
G02*
X51025000Y-93125000I0J100000D01*
G01*
G37*
G04 #@! TD.AperFunction*
G04 #@! TA.AperFunction,SMDPad,CuDef*
G36*
G01*
X51025000Y-93775000D02*
X51025000Y-93575000D01*
G75*
G02*
X51125000Y-93475000I100000J0D01*
G01*
X52400000Y-93475000D01*
G75*
G02*
X52500000Y-93575000I0J-100000D01*
G01*
X52500000Y-93775000D01*
G75*
G02*
X52400000Y-93875000I-100000J0D01*
G01*
X51125000Y-93875000D01*
G75*
G02*
X51025000Y-93775000I0J100000D01*
G01*
G37*
G04 #@! TD.AperFunction*
G04 #@! TA.AperFunction,SMDPad,CuDef*
G36*
G01*
X51025000Y-94425000D02*
X51025000Y-94225000D01*
G75*
G02*
X51125000Y-94125000I100000J0D01*
G01*
X52400000Y-94125000D01*
G75*
G02*
X52500000Y-94225000I0J-100000D01*
G01*
X52500000Y-94425000D01*
G75*
G02*
X52400000Y-94525000I-100000J0D01*
G01*
X51125000Y-94525000D01*
G75*
G02*
X51025000Y-94425000I0J100000D01*
G01*
G37*
G04 #@! TD.AperFunction*
G04 #@! TA.AperFunction,SMDPad,CuDef*
G36*
G01*
X51025000Y-95075000D02*
X51025000Y-94875000D01*
G75*
G02*
X51125000Y-94775000I100000J0D01*
G01*
X52400000Y-94775000D01*
G75*
G02*
X52500000Y-94875000I0J-100000D01*
G01*
X52500000Y-95075000D01*
G75*
G02*
X52400000Y-95175000I-100000J0D01*
G01*
X51125000Y-95175000D01*
G75*
G02*
X51025000Y-95075000I0J100000D01*
G01*
G37*
G04 #@! TD.AperFunction*
G04 #@! TA.AperFunction,SMDPad,CuDef*
G36*
G01*
X51025000Y-95725000D02*
X51025000Y-95525000D01*
G75*
G02*
X51125000Y-95425000I100000J0D01*
G01*
X52400000Y-95425000D01*
G75*
G02*
X52500000Y-95525000I0J-100000D01*
G01*
X52500000Y-95725000D01*
G75*
G02*
X52400000Y-95825000I-100000J0D01*
G01*
X51125000Y-95825000D01*
G75*
G02*
X51025000Y-95725000I0J100000D01*
G01*
G37*
G04 #@! TD.AperFunction*
G04 #@! TA.AperFunction,SMDPad,CuDef*
G36*
G01*
X45300000Y-95725000D02*
X45300000Y-95525000D01*
G75*
G02*
X45400000Y-95425000I100000J0D01*
G01*
X46675000Y-95425000D01*
G75*
G02*
X46775000Y-95525000I0J-100000D01*
G01*
X46775000Y-95725000D01*
G75*
G02*
X46675000Y-95825000I-100000J0D01*
G01*
X45400000Y-95825000D01*
G75*
G02*
X45300000Y-95725000I0J100000D01*
G01*
G37*
G04 #@! TD.AperFunction*
G04 #@! TA.AperFunction,SMDPad,CuDef*
G36*
G01*
X45300000Y-95075000D02*
X45300000Y-94875000D01*
G75*
G02*
X45400000Y-94775000I100000J0D01*
G01*
X46675000Y-94775000D01*
G75*
G02*
X46775000Y-94875000I0J-100000D01*
G01*
X46775000Y-95075000D01*
G75*
G02*
X46675000Y-95175000I-100000J0D01*
G01*
X45400000Y-95175000D01*
G75*
G02*
X45300000Y-95075000I0J100000D01*
G01*
G37*
G04 #@! TD.AperFunction*
G04 #@! TA.AperFunction,SMDPad,CuDef*
G36*
G01*
X45300000Y-94425000D02*
X45300000Y-94225000D01*
G75*
G02*
X45400000Y-94125000I100000J0D01*
G01*
X46675000Y-94125000D01*
G75*
G02*
X46775000Y-94225000I0J-100000D01*
G01*
X46775000Y-94425000D01*
G75*
G02*
X46675000Y-94525000I-100000J0D01*
G01*
X45400000Y-94525000D01*
G75*
G02*
X45300000Y-94425000I0J100000D01*
G01*
G37*
G04 #@! TD.AperFunction*
G04 #@! TA.AperFunction,SMDPad,CuDef*
G36*
G01*
X45300000Y-93775000D02*
X45300000Y-93575000D01*
G75*
G02*
X45400000Y-93475000I100000J0D01*
G01*
X46675000Y-93475000D01*
G75*
G02*
X46775000Y-93575000I0J-100000D01*
G01*
X46775000Y-93775000D01*
G75*
G02*
X46675000Y-93875000I-100000J0D01*
G01*
X45400000Y-93875000D01*
G75*
G02*
X45300000Y-93775000I0J100000D01*
G01*
G37*
G04 #@! TD.AperFunction*
G04 #@! TA.AperFunction,SMDPad,CuDef*
G36*
G01*
X45300000Y-93125000D02*
X45300000Y-92925000D01*
G75*
G02*
X45400000Y-92825000I100000J0D01*
G01*
X46675000Y-92825000D01*
G75*
G02*
X46775000Y-92925000I0J-100000D01*
G01*
X46775000Y-93125000D01*
G75*
G02*
X46675000Y-93225000I-100000J0D01*
G01*
X45400000Y-93225000D01*
G75*
G02*
X45300000Y-93125000I0J100000D01*
G01*
G37*
G04 #@! TD.AperFunction*
G04 #@! TA.AperFunction,SMDPad,CuDef*
G36*
G01*
X45300000Y-92475000D02*
X45300000Y-92275000D01*
G75*
G02*
X45400000Y-92175000I100000J0D01*
G01*
X46675000Y-92175000D01*
G75*
G02*
X46775000Y-92275000I0J-100000D01*
G01*
X46775000Y-92475000D01*
G75*
G02*
X46675000Y-92575000I-100000J0D01*
G01*
X45400000Y-92575000D01*
G75*
G02*
X45300000Y-92475000I0J100000D01*
G01*
G37*
G04 #@! TD.AperFunction*
G04 #@! TA.AperFunction,SMDPad,CuDef*
G36*
G01*
X45300000Y-91825000D02*
X45300000Y-91625000D01*
G75*
G02*
X45400000Y-91525000I100000J0D01*
G01*
X46675000Y-91525000D01*
G75*
G02*
X46775000Y-91625000I0J-100000D01*
G01*
X46775000Y-91825000D01*
G75*
G02*
X46675000Y-91925000I-100000J0D01*
G01*
X45400000Y-91925000D01*
G75*
G02*
X45300000Y-91825000I0J100000D01*
G01*
G37*
G04 #@! TD.AperFunction*
G04 #@! TA.AperFunction,SMDPad,CuDef*
G36*
G01*
X45300000Y-91175000D02*
X45300000Y-90975000D01*
G75*
G02*
X45400000Y-90875000I100000J0D01*
G01*
X46675000Y-90875000D01*
G75*
G02*
X46775000Y-90975000I0J-100000D01*
G01*
X46775000Y-91175000D01*
G75*
G02*
X46675000Y-91275000I-100000J0D01*
G01*
X45400000Y-91275000D01*
G75*
G02*
X45300000Y-91175000I0J100000D01*
G01*
G37*
G04 #@! TD.AperFunction*
G04 #@! TA.AperFunction,SMDPad,CuDef*
G36*
G01*
X45300000Y-90525000D02*
X45300000Y-90325000D01*
G75*
G02*
X45400000Y-90225000I100000J0D01*
G01*
X46675000Y-90225000D01*
G75*
G02*
X46775000Y-90325000I0J-100000D01*
G01*
X46775000Y-90525000D01*
G75*
G02*
X46675000Y-90625000I-100000J0D01*
G01*
X45400000Y-90625000D01*
G75*
G02*
X45300000Y-90525000I0J100000D01*
G01*
G37*
G04 #@! TD.AperFunction*
G04 #@! TA.AperFunction,SMDPad,CuDef*
G36*
G01*
X45300000Y-89875000D02*
X45300000Y-89675000D01*
G75*
G02*
X45400000Y-89575000I100000J0D01*
G01*
X46675000Y-89575000D01*
G75*
G02*
X46775000Y-89675000I0J-100000D01*
G01*
X46775000Y-89875000D01*
G75*
G02*
X46675000Y-89975000I-100000J0D01*
G01*
X45400000Y-89975000D01*
G75*
G02*
X45300000Y-89875000I0J100000D01*
G01*
G37*
G04 #@! TD.AperFunction*
G04 #@! TA.AperFunction,SMDPad,CuDef*
G36*
G01*
X51025000Y-107675000D02*
X51025000Y-107475000D01*
G75*
G02*
X51125000Y-107375000I100000J0D01*
G01*
X52400000Y-107375000D01*
G75*
G02*
X52500000Y-107475000I0J-100000D01*
G01*
X52500000Y-107675000D01*
G75*
G02*
X52400000Y-107775000I-100000J0D01*
G01*
X51125000Y-107775000D01*
G75*
G02*
X51025000Y-107675000I0J100000D01*
G01*
G37*
G04 #@! TD.AperFunction*
G04 #@! TA.AperFunction,SMDPad,CuDef*
G36*
G01*
X51025000Y-108325000D02*
X51025000Y-108125000D01*
G75*
G02*
X51125000Y-108025000I100000J0D01*
G01*
X52400000Y-108025000D01*
G75*
G02*
X52500000Y-108125000I0J-100000D01*
G01*
X52500000Y-108325000D01*
G75*
G02*
X52400000Y-108425000I-100000J0D01*
G01*
X51125000Y-108425000D01*
G75*
G02*
X51025000Y-108325000I0J100000D01*
G01*
G37*
G04 #@! TD.AperFunction*
G04 #@! TA.AperFunction,SMDPad,CuDef*
G36*
G01*
X51025000Y-108975000D02*
X51025000Y-108775000D01*
G75*
G02*
X51125000Y-108675000I100000J0D01*
G01*
X52400000Y-108675000D01*
G75*
G02*
X52500000Y-108775000I0J-100000D01*
G01*
X52500000Y-108975000D01*
G75*
G02*
X52400000Y-109075000I-100000J0D01*
G01*
X51125000Y-109075000D01*
G75*
G02*
X51025000Y-108975000I0J100000D01*
G01*
G37*
G04 #@! TD.AperFunction*
G04 #@! TA.AperFunction,SMDPad,CuDef*
G36*
G01*
X51025000Y-109625000D02*
X51025000Y-109425000D01*
G75*
G02*
X51125000Y-109325000I100000J0D01*
G01*
X52400000Y-109325000D01*
G75*
G02*
X52500000Y-109425000I0J-100000D01*
G01*
X52500000Y-109625000D01*
G75*
G02*
X52400000Y-109725000I-100000J0D01*
G01*
X51125000Y-109725000D01*
G75*
G02*
X51025000Y-109625000I0J100000D01*
G01*
G37*
G04 #@! TD.AperFunction*
G04 #@! TA.AperFunction,SMDPad,CuDef*
G36*
G01*
X51025000Y-110275000D02*
X51025000Y-110075000D01*
G75*
G02*
X51125000Y-109975000I100000J0D01*
G01*
X52400000Y-109975000D01*
G75*
G02*
X52500000Y-110075000I0J-100000D01*
G01*
X52500000Y-110275000D01*
G75*
G02*
X52400000Y-110375000I-100000J0D01*
G01*
X51125000Y-110375000D01*
G75*
G02*
X51025000Y-110275000I0J100000D01*
G01*
G37*
G04 #@! TD.AperFunction*
G04 #@! TA.AperFunction,SMDPad,CuDef*
G36*
G01*
X51025000Y-110925000D02*
X51025000Y-110725000D01*
G75*
G02*
X51125000Y-110625000I100000J0D01*
G01*
X52400000Y-110625000D01*
G75*
G02*
X52500000Y-110725000I0J-100000D01*
G01*
X52500000Y-110925000D01*
G75*
G02*
X52400000Y-111025000I-100000J0D01*
G01*
X51125000Y-111025000D01*
G75*
G02*
X51025000Y-110925000I0J100000D01*
G01*
G37*
G04 #@! TD.AperFunction*
G04 #@! TA.AperFunction,SMDPad,CuDef*
G36*
G01*
X51025000Y-111575000D02*
X51025000Y-111375000D01*
G75*
G02*
X51125000Y-111275000I100000J0D01*
G01*
X52400000Y-111275000D01*
G75*
G02*
X52500000Y-111375000I0J-100000D01*
G01*
X52500000Y-111575000D01*
G75*
G02*
X52400000Y-111675000I-100000J0D01*
G01*
X51125000Y-111675000D01*
G75*
G02*
X51025000Y-111575000I0J100000D01*
G01*
G37*
G04 #@! TD.AperFunction*
G04 #@! TA.AperFunction,SMDPad,CuDef*
G36*
G01*
X51025000Y-112225000D02*
X51025000Y-112025000D01*
G75*
G02*
X51125000Y-111925000I100000J0D01*
G01*
X52400000Y-111925000D01*
G75*
G02*
X52500000Y-112025000I0J-100000D01*
G01*
X52500000Y-112225000D01*
G75*
G02*
X52400000Y-112325000I-100000J0D01*
G01*
X51125000Y-112325000D01*
G75*
G02*
X51025000Y-112225000I0J100000D01*
G01*
G37*
G04 #@! TD.AperFunction*
G04 #@! TA.AperFunction,SMDPad,CuDef*
G36*
G01*
X51025000Y-112875000D02*
X51025000Y-112675000D01*
G75*
G02*
X51125000Y-112575000I100000J0D01*
G01*
X52400000Y-112575000D01*
G75*
G02*
X52500000Y-112675000I0J-100000D01*
G01*
X52500000Y-112875000D01*
G75*
G02*
X52400000Y-112975000I-100000J0D01*
G01*
X51125000Y-112975000D01*
G75*
G02*
X51025000Y-112875000I0J100000D01*
G01*
G37*
G04 #@! TD.AperFunction*
G04 #@! TA.AperFunction,SMDPad,CuDef*
G36*
G01*
X51025000Y-113525000D02*
X51025000Y-113325000D01*
G75*
G02*
X51125000Y-113225000I100000J0D01*
G01*
X52400000Y-113225000D01*
G75*
G02*
X52500000Y-113325000I0J-100000D01*
G01*
X52500000Y-113525000D01*
G75*
G02*
X52400000Y-113625000I-100000J0D01*
G01*
X51125000Y-113625000D01*
G75*
G02*
X51025000Y-113525000I0J100000D01*
G01*
G37*
G04 #@! TD.AperFunction*
G04 #@! TA.AperFunction,SMDPad,CuDef*
G36*
G01*
X45300000Y-113525000D02*
X45300000Y-113325000D01*
G75*
G02*
X45400000Y-113225000I100000J0D01*
G01*
X46675000Y-113225000D01*
G75*
G02*
X46775000Y-113325000I0J-100000D01*
G01*
X46775000Y-113525000D01*
G75*
G02*
X46675000Y-113625000I-100000J0D01*
G01*
X45400000Y-113625000D01*
G75*
G02*
X45300000Y-113525000I0J100000D01*
G01*
G37*
G04 #@! TD.AperFunction*
G04 #@! TA.AperFunction,SMDPad,CuDef*
G36*
G01*
X45300000Y-112875000D02*
X45300000Y-112675000D01*
G75*
G02*
X45400000Y-112575000I100000J0D01*
G01*
X46675000Y-112575000D01*
G75*
G02*
X46775000Y-112675000I0J-100000D01*
G01*
X46775000Y-112875000D01*
G75*
G02*
X46675000Y-112975000I-100000J0D01*
G01*
X45400000Y-112975000D01*
G75*
G02*
X45300000Y-112875000I0J100000D01*
G01*
G37*
G04 #@! TD.AperFunction*
G04 #@! TA.AperFunction,SMDPad,CuDef*
G36*
G01*
X45300000Y-112225000D02*
X45300000Y-112025000D01*
G75*
G02*
X45400000Y-111925000I100000J0D01*
G01*
X46675000Y-111925000D01*
G75*
G02*
X46775000Y-112025000I0J-100000D01*
G01*
X46775000Y-112225000D01*
G75*
G02*
X46675000Y-112325000I-100000J0D01*
G01*
X45400000Y-112325000D01*
G75*
G02*
X45300000Y-112225000I0J100000D01*
G01*
G37*
G04 #@! TD.AperFunction*
G04 #@! TA.AperFunction,SMDPad,CuDef*
G36*
G01*
X45300000Y-111575000D02*
X45300000Y-111375000D01*
G75*
G02*
X45400000Y-111275000I100000J0D01*
G01*
X46675000Y-111275000D01*
G75*
G02*
X46775000Y-111375000I0J-100000D01*
G01*
X46775000Y-111575000D01*
G75*
G02*
X46675000Y-111675000I-100000J0D01*
G01*
X45400000Y-111675000D01*
G75*
G02*
X45300000Y-111575000I0J100000D01*
G01*
G37*
G04 #@! TD.AperFunction*
G04 #@! TA.AperFunction,SMDPad,CuDef*
G36*
G01*
X45300000Y-110925000D02*
X45300000Y-110725000D01*
G75*
G02*
X45400000Y-110625000I100000J0D01*
G01*
X46675000Y-110625000D01*
G75*
G02*
X46775000Y-110725000I0J-100000D01*
G01*
X46775000Y-110925000D01*
G75*
G02*
X46675000Y-111025000I-100000J0D01*
G01*
X45400000Y-111025000D01*
G75*
G02*
X45300000Y-110925000I0J100000D01*
G01*
G37*
G04 #@! TD.AperFunction*
G04 #@! TA.AperFunction,SMDPad,CuDef*
G36*
G01*
X45300000Y-110275000D02*
X45300000Y-110075000D01*
G75*
G02*
X45400000Y-109975000I100000J0D01*
G01*
X46675000Y-109975000D01*
G75*
G02*
X46775000Y-110075000I0J-100000D01*
G01*
X46775000Y-110275000D01*
G75*
G02*
X46675000Y-110375000I-100000J0D01*
G01*
X45400000Y-110375000D01*
G75*
G02*
X45300000Y-110275000I0J100000D01*
G01*
G37*
G04 #@! TD.AperFunction*
G04 #@! TA.AperFunction,SMDPad,CuDef*
G36*
G01*
X45300000Y-109625000D02*
X45300000Y-109425000D01*
G75*
G02*
X45400000Y-109325000I100000J0D01*
G01*
X46675000Y-109325000D01*
G75*
G02*
X46775000Y-109425000I0J-100000D01*
G01*
X46775000Y-109625000D01*
G75*
G02*
X46675000Y-109725000I-100000J0D01*
G01*
X45400000Y-109725000D01*
G75*
G02*
X45300000Y-109625000I0J100000D01*
G01*
G37*
G04 #@! TD.AperFunction*
G04 #@! TA.AperFunction,SMDPad,CuDef*
G36*
G01*
X45300000Y-108975000D02*
X45300000Y-108775000D01*
G75*
G02*
X45400000Y-108675000I100000J0D01*
G01*
X46675000Y-108675000D01*
G75*
G02*
X46775000Y-108775000I0J-100000D01*
G01*
X46775000Y-108975000D01*
G75*
G02*
X46675000Y-109075000I-100000J0D01*
G01*
X45400000Y-109075000D01*
G75*
G02*
X45300000Y-108975000I0J100000D01*
G01*
G37*
G04 #@! TD.AperFunction*
G04 #@! TA.AperFunction,SMDPad,CuDef*
G36*
G01*
X45300000Y-108325000D02*
X45300000Y-108125000D01*
G75*
G02*
X45400000Y-108025000I100000J0D01*
G01*
X46675000Y-108025000D01*
G75*
G02*
X46775000Y-108125000I0J-100000D01*
G01*
X46775000Y-108325000D01*
G75*
G02*
X46675000Y-108425000I-100000J0D01*
G01*
X45400000Y-108425000D01*
G75*
G02*
X45300000Y-108325000I0J100000D01*
G01*
G37*
G04 #@! TD.AperFunction*
G04 #@! TA.AperFunction,SMDPad,CuDef*
G36*
G01*
X45300000Y-107675000D02*
X45300000Y-107475000D01*
G75*
G02*
X45400000Y-107375000I100000J0D01*
G01*
X46675000Y-107375000D01*
G75*
G02*
X46775000Y-107475000I0J-100000D01*
G01*
X46775000Y-107675000D01*
G75*
G02*
X46675000Y-107775000I-100000J0D01*
G01*
X45400000Y-107775000D01*
G75*
G02*
X45300000Y-107675000I0J100000D01*
G01*
G37*
G04 #@! TD.AperFunction*
G04 #@! TA.AperFunction,SMDPad,CuDef*
G36*
G01*
X140300000Y-134145000D02*
X140300000Y-133845000D01*
G75*
G02*
X140450000Y-133695000I150000J0D01*
G01*
X142100000Y-133695000D01*
G75*
G02*
X142250000Y-133845000I0J-150000D01*
G01*
X142250000Y-134145000D01*
G75*
G02*
X142100000Y-134295000I-150000J0D01*
G01*
X140450000Y-134295000D01*
G75*
G02*
X140300000Y-134145000I0J150000D01*
G01*
G37*
G04 #@! TD.AperFunction*
G04 #@! TA.AperFunction,SMDPad,CuDef*
G36*
G01*
X140300000Y-135415000D02*
X140300000Y-135115000D01*
G75*
G02*
X140450000Y-134965000I150000J0D01*
G01*
X142100000Y-134965000D01*
G75*
G02*
X142250000Y-135115000I0J-150000D01*
G01*
X142250000Y-135415000D01*
G75*
G02*
X142100000Y-135565000I-150000J0D01*
G01*
X140450000Y-135565000D01*
G75*
G02*
X140300000Y-135415000I0J150000D01*
G01*
G37*
G04 #@! TD.AperFunction*
G04 #@! TA.AperFunction,SMDPad,CuDef*
G36*
G01*
X140300000Y-136685000D02*
X140300000Y-136385000D01*
G75*
G02*
X140450000Y-136235000I150000J0D01*
G01*
X142100000Y-136235000D01*
G75*
G02*
X142250000Y-136385000I0J-150000D01*
G01*
X142250000Y-136685000D01*
G75*
G02*
X142100000Y-136835000I-150000J0D01*
G01*
X140450000Y-136835000D01*
G75*
G02*
X140300000Y-136685000I0J150000D01*
G01*
G37*
G04 #@! TD.AperFunction*
G04 #@! TA.AperFunction,SMDPad,CuDef*
G36*
G01*
X140300000Y-137955000D02*
X140300000Y-137655000D01*
G75*
G02*
X140450000Y-137505000I150000J0D01*
G01*
X142100000Y-137505000D01*
G75*
G02*
X142250000Y-137655000I0J-150000D01*
G01*
X142250000Y-137955000D01*
G75*
G02*
X142100000Y-138105000I-150000J0D01*
G01*
X140450000Y-138105000D01*
G75*
G02*
X140300000Y-137955000I0J150000D01*
G01*
G37*
G04 #@! TD.AperFunction*
G04 #@! TA.AperFunction,SMDPad,CuDef*
G36*
G01*
X135350000Y-137955000D02*
X135350000Y-137655000D01*
G75*
G02*
X135500000Y-137505000I150000J0D01*
G01*
X137150000Y-137505000D01*
G75*
G02*
X137300000Y-137655000I0J-150000D01*
G01*
X137300000Y-137955000D01*
G75*
G02*
X137150000Y-138105000I-150000J0D01*
G01*
X135500000Y-138105000D01*
G75*
G02*
X135350000Y-137955000I0J150000D01*
G01*
G37*
G04 #@! TD.AperFunction*
G04 #@! TA.AperFunction,SMDPad,CuDef*
G36*
G01*
X135350000Y-136685000D02*
X135350000Y-136385000D01*
G75*
G02*
X135500000Y-136235000I150000J0D01*
G01*
X137150000Y-136235000D01*
G75*
G02*
X137300000Y-136385000I0J-150000D01*
G01*
X137300000Y-136685000D01*
G75*
G02*
X137150000Y-136835000I-150000J0D01*
G01*
X135500000Y-136835000D01*
G75*
G02*
X135350000Y-136685000I0J150000D01*
G01*
G37*
G04 #@! TD.AperFunction*
G04 #@! TA.AperFunction,SMDPad,CuDef*
G36*
G01*
X135350000Y-135415000D02*
X135350000Y-135115000D01*
G75*
G02*
X135500000Y-134965000I150000J0D01*
G01*
X137150000Y-134965000D01*
G75*
G02*
X137300000Y-135115000I0J-150000D01*
G01*
X137300000Y-135415000D01*
G75*
G02*
X137150000Y-135565000I-150000J0D01*
G01*
X135500000Y-135565000D01*
G75*
G02*
X135350000Y-135415000I0J150000D01*
G01*
G37*
G04 #@! TD.AperFunction*
G04 #@! TA.AperFunction,SMDPad,CuDef*
G36*
G01*
X135350000Y-134145000D02*
X135350000Y-133845000D01*
G75*
G02*
X135500000Y-133695000I150000J0D01*
G01*
X137150000Y-133695000D01*
G75*
G02*
X137300000Y-133845000I0J-150000D01*
G01*
X137300000Y-134145000D01*
G75*
G02*
X137150000Y-134295000I-150000J0D01*
G01*
X135500000Y-134295000D01*
G75*
G02*
X135350000Y-134145000I0J150000D01*
G01*
G37*
G04 #@! TD.AperFunction*
G04 #@! TA.AperFunction,SMDPad,CuDef*
G36*
G01*
X134935000Y-81475000D02*
X134635000Y-81475000D01*
G75*
G02*
X134485000Y-81325000I0J150000D01*
G01*
X134485000Y-79575000D01*
G75*
G02*
X134635000Y-79425000I150000J0D01*
G01*
X134935000Y-79425000D01*
G75*
G02*
X135085000Y-79575000I0J-150000D01*
G01*
X135085000Y-81325000D01*
G75*
G02*
X134935000Y-81475000I-150000J0D01*
G01*
G37*
G04 #@! TD.AperFunction*
G04 #@! TA.AperFunction,SMDPad,CuDef*
G36*
G01*
X136205000Y-81475000D02*
X135905000Y-81475000D01*
G75*
G02*
X135755000Y-81325000I0J150000D01*
G01*
X135755000Y-79575000D01*
G75*
G02*
X135905000Y-79425000I150000J0D01*
G01*
X136205000Y-79425000D01*
G75*
G02*
X136355000Y-79575000I0J-150000D01*
G01*
X136355000Y-81325000D01*
G75*
G02*
X136205000Y-81475000I-150000J0D01*
G01*
G37*
G04 #@! TD.AperFunction*
G04 #@! TA.AperFunction,SMDPad,CuDef*
G36*
G01*
X137475000Y-81475000D02*
X137175000Y-81475000D01*
G75*
G02*
X137025000Y-81325000I0J150000D01*
G01*
X137025000Y-79575000D01*
G75*
G02*
X137175000Y-79425000I150000J0D01*
G01*
X137475000Y-79425000D01*
G75*
G02*
X137625000Y-79575000I0J-150000D01*
G01*
X137625000Y-81325000D01*
G75*
G02*
X137475000Y-81475000I-150000J0D01*
G01*
G37*
G04 #@! TD.AperFunction*
G04 #@! TA.AperFunction,SMDPad,CuDef*
G36*
G01*
X138745000Y-81475000D02*
X138445000Y-81475000D01*
G75*
G02*
X138295000Y-81325000I0J150000D01*
G01*
X138295000Y-79575000D01*
G75*
G02*
X138445000Y-79425000I150000J0D01*
G01*
X138745000Y-79425000D01*
G75*
G02*
X138895000Y-79575000I0J-150000D01*
G01*
X138895000Y-81325000D01*
G75*
G02*
X138745000Y-81475000I-150000J0D01*
G01*
G37*
G04 #@! TD.AperFunction*
G04 #@! TA.AperFunction,SMDPad,CuDef*
G36*
G01*
X140015000Y-81475000D02*
X139715000Y-81475000D01*
G75*
G02*
X139565000Y-81325000I0J150000D01*
G01*
X139565000Y-79575000D01*
G75*
G02*
X139715000Y-79425000I150000J0D01*
G01*
X140015000Y-79425000D01*
G75*
G02*
X140165000Y-79575000I0J-150000D01*
G01*
X140165000Y-81325000D01*
G75*
G02*
X140015000Y-81475000I-150000J0D01*
G01*
G37*
G04 #@! TD.AperFunction*
G04 #@! TA.AperFunction,SMDPad,CuDef*
G36*
G01*
X141285000Y-81475000D02*
X140985000Y-81475000D01*
G75*
G02*
X140835000Y-81325000I0J150000D01*
G01*
X140835000Y-79575000D01*
G75*
G02*
X140985000Y-79425000I150000J0D01*
G01*
X141285000Y-79425000D01*
G75*
G02*
X141435000Y-79575000I0J-150000D01*
G01*
X141435000Y-81325000D01*
G75*
G02*
X141285000Y-81475000I-150000J0D01*
G01*
G37*
G04 #@! TD.AperFunction*
G04 #@! TA.AperFunction,SMDPad,CuDef*
G36*
G01*
X142555000Y-81475000D02*
X142255000Y-81475000D01*
G75*
G02*
X142105000Y-81325000I0J150000D01*
G01*
X142105000Y-79575000D01*
G75*
G02*
X142255000Y-79425000I150000J0D01*
G01*
X142555000Y-79425000D01*
G75*
G02*
X142705000Y-79575000I0J-150000D01*
G01*
X142705000Y-81325000D01*
G75*
G02*
X142555000Y-81475000I-150000J0D01*
G01*
G37*
G04 #@! TD.AperFunction*
G04 #@! TA.AperFunction,SMDPad,CuDef*
G36*
G01*
X143825000Y-81475000D02*
X143525000Y-81475000D01*
G75*
G02*
X143375000Y-81325000I0J150000D01*
G01*
X143375000Y-79575000D01*
G75*
G02*
X143525000Y-79425000I150000J0D01*
G01*
X143825000Y-79425000D01*
G75*
G02*
X143975000Y-79575000I0J-150000D01*
G01*
X143975000Y-81325000D01*
G75*
G02*
X143825000Y-81475000I-150000J0D01*
G01*
G37*
G04 #@! TD.AperFunction*
G04 #@! TA.AperFunction,SMDPad,CuDef*
G36*
G01*
X145095000Y-81475000D02*
X144795000Y-81475000D01*
G75*
G02*
X144645000Y-81325000I0J150000D01*
G01*
X144645000Y-79575000D01*
G75*
G02*
X144795000Y-79425000I150000J0D01*
G01*
X145095000Y-79425000D01*
G75*
G02*
X145245000Y-79575000I0J-150000D01*
G01*
X145245000Y-81325000D01*
G75*
G02*
X145095000Y-81475000I-150000J0D01*
G01*
G37*
G04 #@! TD.AperFunction*
G04 #@! TA.AperFunction,SMDPad,CuDef*
G36*
G01*
X146365000Y-81475000D02*
X146065000Y-81475000D01*
G75*
G02*
X145915000Y-81325000I0J150000D01*
G01*
X145915000Y-79575000D01*
G75*
G02*
X146065000Y-79425000I150000J0D01*
G01*
X146365000Y-79425000D01*
G75*
G02*
X146515000Y-79575000I0J-150000D01*
G01*
X146515000Y-81325000D01*
G75*
G02*
X146365000Y-81475000I-150000J0D01*
G01*
G37*
G04 #@! TD.AperFunction*
G04 #@! TA.AperFunction,SMDPad,CuDef*
G36*
G01*
X146365000Y-90775000D02*
X146065000Y-90775000D01*
G75*
G02*
X145915000Y-90625000I0J150000D01*
G01*
X145915000Y-88875000D01*
G75*
G02*
X146065000Y-88725000I150000J0D01*
G01*
X146365000Y-88725000D01*
G75*
G02*
X146515000Y-88875000I0J-150000D01*
G01*
X146515000Y-90625000D01*
G75*
G02*
X146365000Y-90775000I-150000J0D01*
G01*
G37*
G04 #@! TD.AperFunction*
G04 #@! TA.AperFunction,SMDPad,CuDef*
G36*
G01*
X145095000Y-90775000D02*
X144795000Y-90775000D01*
G75*
G02*
X144645000Y-90625000I0J150000D01*
G01*
X144645000Y-88875000D01*
G75*
G02*
X144795000Y-88725000I150000J0D01*
G01*
X145095000Y-88725000D01*
G75*
G02*
X145245000Y-88875000I0J-150000D01*
G01*
X145245000Y-90625000D01*
G75*
G02*
X145095000Y-90775000I-150000J0D01*
G01*
G37*
G04 #@! TD.AperFunction*
G04 #@! TA.AperFunction,SMDPad,CuDef*
G36*
G01*
X143825000Y-90775000D02*
X143525000Y-90775000D01*
G75*
G02*
X143375000Y-90625000I0J150000D01*
G01*
X143375000Y-88875000D01*
G75*
G02*
X143525000Y-88725000I150000J0D01*
G01*
X143825000Y-88725000D01*
G75*
G02*
X143975000Y-88875000I0J-150000D01*
G01*
X143975000Y-90625000D01*
G75*
G02*
X143825000Y-90775000I-150000J0D01*
G01*
G37*
G04 #@! TD.AperFunction*
G04 #@! TA.AperFunction,SMDPad,CuDef*
G36*
G01*
X142555000Y-90775000D02*
X142255000Y-90775000D01*
G75*
G02*
X142105000Y-90625000I0J150000D01*
G01*
X142105000Y-88875000D01*
G75*
G02*
X142255000Y-88725000I150000J0D01*
G01*
X142555000Y-88725000D01*
G75*
G02*
X142705000Y-88875000I0J-150000D01*
G01*
X142705000Y-90625000D01*
G75*
G02*
X142555000Y-90775000I-150000J0D01*
G01*
G37*
G04 #@! TD.AperFunction*
G04 #@! TA.AperFunction,SMDPad,CuDef*
G36*
G01*
X141285000Y-90775000D02*
X140985000Y-90775000D01*
G75*
G02*
X140835000Y-90625000I0J150000D01*
G01*
X140835000Y-88875000D01*
G75*
G02*
X140985000Y-88725000I150000J0D01*
G01*
X141285000Y-88725000D01*
G75*
G02*
X141435000Y-88875000I0J-150000D01*
G01*
X141435000Y-90625000D01*
G75*
G02*
X141285000Y-90775000I-150000J0D01*
G01*
G37*
G04 #@! TD.AperFunction*
G04 #@! TA.AperFunction,SMDPad,CuDef*
G36*
G01*
X140015000Y-90775000D02*
X139715000Y-90775000D01*
G75*
G02*
X139565000Y-90625000I0J150000D01*
G01*
X139565000Y-88875000D01*
G75*
G02*
X139715000Y-88725000I150000J0D01*
G01*
X140015000Y-88725000D01*
G75*
G02*
X140165000Y-88875000I0J-150000D01*
G01*
X140165000Y-90625000D01*
G75*
G02*
X140015000Y-90775000I-150000J0D01*
G01*
G37*
G04 #@! TD.AperFunction*
G04 #@! TA.AperFunction,SMDPad,CuDef*
G36*
G01*
X138745000Y-90775000D02*
X138445000Y-90775000D01*
G75*
G02*
X138295000Y-90625000I0J150000D01*
G01*
X138295000Y-88875000D01*
G75*
G02*
X138445000Y-88725000I150000J0D01*
G01*
X138745000Y-88725000D01*
G75*
G02*
X138895000Y-88875000I0J-150000D01*
G01*
X138895000Y-90625000D01*
G75*
G02*
X138745000Y-90775000I-150000J0D01*
G01*
G37*
G04 #@! TD.AperFunction*
G04 #@! TA.AperFunction,SMDPad,CuDef*
G36*
G01*
X137475000Y-90775000D02*
X137175000Y-90775000D01*
G75*
G02*
X137025000Y-90625000I0J150000D01*
G01*
X137025000Y-88875000D01*
G75*
G02*
X137175000Y-88725000I150000J0D01*
G01*
X137475000Y-88725000D01*
G75*
G02*
X137625000Y-88875000I0J-150000D01*
G01*
X137625000Y-90625000D01*
G75*
G02*
X137475000Y-90775000I-150000J0D01*
G01*
G37*
G04 #@! TD.AperFunction*
G04 #@! TA.AperFunction,SMDPad,CuDef*
G36*
G01*
X136205000Y-90775000D02*
X135905000Y-90775000D01*
G75*
G02*
X135755000Y-90625000I0J150000D01*
G01*
X135755000Y-88875000D01*
G75*
G02*
X135905000Y-88725000I150000J0D01*
G01*
X136205000Y-88725000D01*
G75*
G02*
X136355000Y-88875000I0J-150000D01*
G01*
X136355000Y-90625000D01*
G75*
G02*
X136205000Y-90775000I-150000J0D01*
G01*
G37*
G04 #@! TD.AperFunction*
G04 #@! TA.AperFunction,SMDPad,CuDef*
G36*
G01*
X134935000Y-90775000D02*
X134635000Y-90775000D01*
G75*
G02*
X134485000Y-90625000I0J150000D01*
G01*
X134485000Y-88875000D01*
G75*
G02*
X134635000Y-88725000I150000J0D01*
G01*
X134935000Y-88725000D01*
G75*
G02*
X135085000Y-88875000I0J-150000D01*
G01*
X135085000Y-90625000D01*
G75*
G02*
X134935000Y-90775000I-150000J0D01*
G01*
G37*
G04 #@! TD.AperFunction*
G04 #@! TA.AperFunction,SMDPad,CuDef*
G36*
G01*
X133905000Y-47700000D02*
X133605000Y-47700000D01*
G75*
G02*
X133455000Y-47550000I0J150000D01*
G01*
X133455000Y-45900000D01*
G75*
G02*
X133605000Y-45750000I150000J0D01*
G01*
X133905000Y-45750000D01*
G75*
G02*
X134055000Y-45900000I0J-150000D01*
G01*
X134055000Y-47550000D01*
G75*
G02*
X133905000Y-47700000I-150000J0D01*
G01*
G37*
G04 #@! TD.AperFunction*
G04 #@! TA.AperFunction,SMDPad,CuDef*
G36*
G01*
X135175000Y-47700000D02*
X134875000Y-47700000D01*
G75*
G02*
X134725000Y-47550000I0J150000D01*
G01*
X134725000Y-45900000D01*
G75*
G02*
X134875000Y-45750000I150000J0D01*
G01*
X135175000Y-45750000D01*
G75*
G02*
X135325000Y-45900000I0J-150000D01*
G01*
X135325000Y-47550000D01*
G75*
G02*
X135175000Y-47700000I-150000J0D01*
G01*
G37*
G04 #@! TD.AperFunction*
G04 #@! TA.AperFunction,SMDPad,CuDef*
G36*
G01*
X136445000Y-47700000D02*
X136145000Y-47700000D01*
G75*
G02*
X135995000Y-47550000I0J150000D01*
G01*
X135995000Y-45900000D01*
G75*
G02*
X136145000Y-45750000I150000J0D01*
G01*
X136445000Y-45750000D01*
G75*
G02*
X136595000Y-45900000I0J-150000D01*
G01*
X136595000Y-47550000D01*
G75*
G02*
X136445000Y-47700000I-150000J0D01*
G01*
G37*
G04 #@! TD.AperFunction*
G04 #@! TA.AperFunction,SMDPad,CuDef*
G36*
G01*
X137715000Y-47700000D02*
X137415000Y-47700000D01*
G75*
G02*
X137265000Y-47550000I0J150000D01*
G01*
X137265000Y-45900000D01*
G75*
G02*
X137415000Y-45750000I150000J0D01*
G01*
X137715000Y-45750000D01*
G75*
G02*
X137865000Y-45900000I0J-150000D01*
G01*
X137865000Y-47550000D01*
G75*
G02*
X137715000Y-47700000I-150000J0D01*
G01*
G37*
G04 #@! TD.AperFunction*
G04 #@! TA.AperFunction,SMDPad,CuDef*
G36*
G01*
X138985000Y-47700000D02*
X138685000Y-47700000D01*
G75*
G02*
X138535000Y-47550000I0J150000D01*
G01*
X138535000Y-45900000D01*
G75*
G02*
X138685000Y-45750000I150000J0D01*
G01*
X138985000Y-45750000D01*
G75*
G02*
X139135000Y-45900000I0J-150000D01*
G01*
X139135000Y-47550000D01*
G75*
G02*
X138985000Y-47700000I-150000J0D01*
G01*
G37*
G04 #@! TD.AperFunction*
G04 #@! TA.AperFunction,SMDPad,CuDef*
G36*
G01*
X140255000Y-47700000D02*
X139955000Y-47700000D01*
G75*
G02*
X139805000Y-47550000I0J150000D01*
G01*
X139805000Y-45900000D01*
G75*
G02*
X139955000Y-45750000I150000J0D01*
G01*
X140255000Y-45750000D01*
G75*
G02*
X140405000Y-45900000I0J-150000D01*
G01*
X140405000Y-47550000D01*
G75*
G02*
X140255000Y-47700000I-150000J0D01*
G01*
G37*
G04 #@! TD.AperFunction*
G04 #@! TA.AperFunction,SMDPad,CuDef*
G36*
G01*
X141525000Y-47700000D02*
X141225000Y-47700000D01*
G75*
G02*
X141075000Y-47550000I0J150000D01*
G01*
X141075000Y-45900000D01*
G75*
G02*
X141225000Y-45750000I150000J0D01*
G01*
X141525000Y-45750000D01*
G75*
G02*
X141675000Y-45900000I0J-150000D01*
G01*
X141675000Y-47550000D01*
G75*
G02*
X141525000Y-47700000I-150000J0D01*
G01*
G37*
G04 #@! TD.AperFunction*
G04 #@! TA.AperFunction,SMDPad,CuDef*
G36*
G01*
X142795000Y-47700000D02*
X142495000Y-47700000D01*
G75*
G02*
X142345000Y-47550000I0J150000D01*
G01*
X142345000Y-45900000D01*
G75*
G02*
X142495000Y-45750000I150000J0D01*
G01*
X142795000Y-45750000D01*
G75*
G02*
X142945000Y-45900000I0J-150000D01*
G01*
X142945000Y-47550000D01*
G75*
G02*
X142795000Y-47700000I-150000J0D01*
G01*
G37*
G04 #@! TD.AperFunction*
G04 #@! TA.AperFunction,SMDPad,CuDef*
G36*
G01*
X142795000Y-52650000D02*
X142495000Y-52650000D01*
G75*
G02*
X142345000Y-52500000I0J150000D01*
G01*
X142345000Y-50850000D01*
G75*
G02*
X142495000Y-50700000I150000J0D01*
G01*
X142795000Y-50700000D01*
G75*
G02*
X142945000Y-50850000I0J-150000D01*
G01*
X142945000Y-52500000D01*
G75*
G02*
X142795000Y-52650000I-150000J0D01*
G01*
G37*
G04 #@! TD.AperFunction*
G04 #@! TA.AperFunction,SMDPad,CuDef*
G36*
G01*
X141525000Y-52650000D02*
X141225000Y-52650000D01*
G75*
G02*
X141075000Y-52500000I0J150000D01*
G01*
X141075000Y-50850000D01*
G75*
G02*
X141225000Y-50700000I150000J0D01*
G01*
X141525000Y-50700000D01*
G75*
G02*
X141675000Y-50850000I0J-150000D01*
G01*
X141675000Y-52500000D01*
G75*
G02*
X141525000Y-52650000I-150000J0D01*
G01*
G37*
G04 #@! TD.AperFunction*
G04 #@! TA.AperFunction,SMDPad,CuDef*
G36*
G01*
X140255000Y-52650000D02*
X139955000Y-52650000D01*
G75*
G02*
X139805000Y-52500000I0J150000D01*
G01*
X139805000Y-50850000D01*
G75*
G02*
X139955000Y-50700000I150000J0D01*
G01*
X140255000Y-50700000D01*
G75*
G02*
X140405000Y-50850000I0J-150000D01*
G01*
X140405000Y-52500000D01*
G75*
G02*
X140255000Y-52650000I-150000J0D01*
G01*
G37*
G04 #@! TD.AperFunction*
G04 #@! TA.AperFunction,SMDPad,CuDef*
G36*
G01*
X138985000Y-52650000D02*
X138685000Y-52650000D01*
G75*
G02*
X138535000Y-52500000I0J150000D01*
G01*
X138535000Y-50850000D01*
G75*
G02*
X138685000Y-50700000I150000J0D01*
G01*
X138985000Y-50700000D01*
G75*
G02*
X139135000Y-50850000I0J-150000D01*
G01*
X139135000Y-52500000D01*
G75*
G02*
X138985000Y-52650000I-150000J0D01*
G01*
G37*
G04 #@! TD.AperFunction*
G04 #@! TA.AperFunction,SMDPad,CuDef*
G36*
G01*
X137715000Y-52650000D02*
X137415000Y-52650000D01*
G75*
G02*
X137265000Y-52500000I0J150000D01*
G01*
X137265000Y-50850000D01*
G75*
G02*
X137415000Y-50700000I150000J0D01*
G01*
X137715000Y-50700000D01*
G75*
G02*
X137865000Y-50850000I0J-150000D01*
G01*
X137865000Y-52500000D01*
G75*
G02*
X137715000Y-52650000I-150000J0D01*
G01*
G37*
G04 #@! TD.AperFunction*
G04 #@! TA.AperFunction,SMDPad,CuDef*
G36*
G01*
X136445000Y-52650000D02*
X136145000Y-52650000D01*
G75*
G02*
X135995000Y-52500000I0J150000D01*
G01*
X135995000Y-50850000D01*
G75*
G02*
X136145000Y-50700000I150000J0D01*
G01*
X136445000Y-50700000D01*
G75*
G02*
X136595000Y-50850000I0J-150000D01*
G01*
X136595000Y-52500000D01*
G75*
G02*
X136445000Y-52650000I-150000J0D01*
G01*
G37*
G04 #@! TD.AperFunction*
G04 #@! TA.AperFunction,SMDPad,CuDef*
G36*
G01*
X135175000Y-52650000D02*
X134875000Y-52650000D01*
G75*
G02*
X134725000Y-52500000I0J150000D01*
G01*
X134725000Y-50850000D01*
G75*
G02*
X134875000Y-50700000I150000J0D01*
G01*
X135175000Y-50700000D01*
G75*
G02*
X135325000Y-50850000I0J-150000D01*
G01*
X135325000Y-52500000D01*
G75*
G02*
X135175000Y-52650000I-150000J0D01*
G01*
G37*
G04 #@! TD.AperFunction*
G04 #@! TA.AperFunction,SMDPad,CuDef*
G36*
G01*
X133905000Y-52650000D02*
X133605000Y-52650000D01*
G75*
G02*
X133455000Y-52500000I0J150000D01*
G01*
X133455000Y-50850000D01*
G75*
G02*
X133605000Y-50700000I150000J0D01*
G01*
X133905000Y-50700000D01*
G75*
G02*
X134055000Y-50850000I0J-150000D01*
G01*
X134055000Y-52500000D01*
G75*
G02*
X133905000Y-52650000I-150000J0D01*
G01*
G37*
G04 #@! TD.AperFunction*
G04 #@! TA.AperFunction,SMDPad,CuDef*
G36*
G01*
X50400000Y-70145000D02*
X50400000Y-69845000D01*
G75*
G02*
X50550000Y-69695000I150000J0D01*
G01*
X52200000Y-69695000D01*
G75*
G02*
X52350000Y-69845000I0J-150000D01*
G01*
X52350000Y-70145000D01*
G75*
G02*
X52200000Y-70295000I-150000J0D01*
G01*
X50550000Y-70295000D01*
G75*
G02*
X50400000Y-70145000I0J150000D01*
G01*
G37*
G04 #@! TD.AperFunction*
G04 #@! TA.AperFunction,SMDPad,CuDef*
G36*
G01*
X50400000Y-71415000D02*
X50400000Y-71115000D01*
G75*
G02*
X50550000Y-70965000I150000J0D01*
G01*
X52200000Y-70965000D01*
G75*
G02*
X52350000Y-71115000I0J-150000D01*
G01*
X52350000Y-71415000D01*
G75*
G02*
X52200000Y-71565000I-150000J0D01*
G01*
X50550000Y-71565000D01*
G75*
G02*
X50400000Y-71415000I0J150000D01*
G01*
G37*
G04 #@! TD.AperFunction*
G04 #@! TA.AperFunction,SMDPad,CuDef*
G36*
G01*
X50400000Y-72685000D02*
X50400000Y-72385000D01*
G75*
G02*
X50550000Y-72235000I150000J0D01*
G01*
X52200000Y-72235000D01*
G75*
G02*
X52350000Y-72385000I0J-150000D01*
G01*
X52350000Y-72685000D01*
G75*
G02*
X52200000Y-72835000I-150000J0D01*
G01*
X50550000Y-72835000D01*
G75*
G02*
X50400000Y-72685000I0J150000D01*
G01*
G37*
G04 #@! TD.AperFunction*
G04 #@! TA.AperFunction,SMDPad,CuDef*
G36*
G01*
X50400000Y-73955000D02*
X50400000Y-73655000D01*
G75*
G02*
X50550000Y-73505000I150000J0D01*
G01*
X52200000Y-73505000D01*
G75*
G02*
X52350000Y-73655000I0J-150000D01*
G01*
X52350000Y-73955000D01*
G75*
G02*
X52200000Y-74105000I-150000J0D01*
G01*
X50550000Y-74105000D01*
G75*
G02*
X50400000Y-73955000I0J150000D01*
G01*
G37*
G04 #@! TD.AperFunction*
G04 #@! TA.AperFunction,SMDPad,CuDef*
G36*
G01*
X45450000Y-73955000D02*
X45450000Y-73655000D01*
G75*
G02*
X45600000Y-73505000I150000J0D01*
G01*
X47250000Y-73505000D01*
G75*
G02*
X47400000Y-73655000I0J-150000D01*
G01*
X47400000Y-73955000D01*
G75*
G02*
X47250000Y-74105000I-150000J0D01*
G01*
X45600000Y-74105000D01*
G75*
G02*
X45450000Y-73955000I0J150000D01*
G01*
G37*
G04 #@! TD.AperFunction*
G04 #@! TA.AperFunction,SMDPad,CuDef*
G36*
G01*
X45450000Y-72685000D02*
X45450000Y-72385000D01*
G75*
G02*
X45600000Y-72235000I150000J0D01*
G01*
X47250000Y-72235000D01*
G75*
G02*
X47400000Y-72385000I0J-150000D01*
G01*
X47400000Y-72685000D01*
G75*
G02*
X47250000Y-72835000I-150000J0D01*
G01*
X45600000Y-72835000D01*
G75*
G02*
X45450000Y-72685000I0J150000D01*
G01*
G37*
G04 #@! TD.AperFunction*
G04 #@! TA.AperFunction,SMDPad,CuDef*
G36*
G01*
X45450000Y-71415000D02*
X45450000Y-71115000D01*
G75*
G02*
X45600000Y-70965000I150000J0D01*
G01*
X47250000Y-70965000D01*
G75*
G02*
X47400000Y-71115000I0J-150000D01*
G01*
X47400000Y-71415000D01*
G75*
G02*
X47250000Y-71565000I-150000J0D01*
G01*
X45600000Y-71565000D01*
G75*
G02*
X45450000Y-71415000I0J150000D01*
G01*
G37*
G04 #@! TD.AperFunction*
G04 #@! TA.AperFunction,SMDPad,CuDef*
G36*
G01*
X45450000Y-70145000D02*
X45450000Y-69845000D01*
G75*
G02*
X45600000Y-69695000I150000J0D01*
G01*
X47250000Y-69695000D01*
G75*
G02*
X47400000Y-69845000I0J-150000D01*
G01*
X47400000Y-70145000D01*
G75*
G02*
X47250000Y-70295000I-150000J0D01*
G01*
X45600000Y-70295000D01*
G75*
G02*
X45450000Y-70145000I0J150000D01*
G01*
G37*
G04 #@! TD.AperFunction*
G04 #@! TA.AperFunction,SMDPad,CuDef*
G36*
G01*
X152860000Y-125000000D02*
X153160000Y-125000000D01*
G75*
G02*
X153310000Y-125150000I0J-150000D01*
G01*
X153310000Y-126800000D01*
G75*
G02*
X153160000Y-126950000I-150000J0D01*
G01*
X152860000Y-126950000D01*
G75*
G02*
X152710000Y-126800000I0J150000D01*
G01*
X152710000Y-125150000D01*
G75*
G02*
X152860000Y-125000000I150000J0D01*
G01*
G37*
G04 #@! TD.AperFunction*
G04 #@! TA.AperFunction,SMDPad,CuDef*
G36*
G01*
X151590000Y-125000000D02*
X151890000Y-125000000D01*
G75*
G02*
X152040000Y-125150000I0J-150000D01*
G01*
X152040000Y-126800000D01*
G75*
G02*
X151890000Y-126950000I-150000J0D01*
G01*
X151590000Y-126950000D01*
G75*
G02*
X151440000Y-126800000I0J150000D01*
G01*
X151440000Y-125150000D01*
G75*
G02*
X151590000Y-125000000I150000J0D01*
G01*
G37*
G04 #@! TD.AperFunction*
G04 #@! TA.AperFunction,SMDPad,CuDef*
G36*
G01*
X150320000Y-125000000D02*
X150620000Y-125000000D01*
G75*
G02*
X150770000Y-125150000I0J-150000D01*
G01*
X150770000Y-126800000D01*
G75*
G02*
X150620000Y-126950000I-150000J0D01*
G01*
X150320000Y-126950000D01*
G75*
G02*
X150170000Y-126800000I0J150000D01*
G01*
X150170000Y-125150000D01*
G75*
G02*
X150320000Y-125000000I150000J0D01*
G01*
G37*
G04 #@! TD.AperFunction*
G04 #@! TA.AperFunction,SMDPad,CuDef*
G36*
G01*
X149050000Y-125000000D02*
X149350000Y-125000000D01*
G75*
G02*
X149500000Y-125150000I0J-150000D01*
G01*
X149500000Y-126800000D01*
G75*
G02*
X149350000Y-126950000I-150000J0D01*
G01*
X149050000Y-126950000D01*
G75*
G02*
X148900000Y-126800000I0J150000D01*
G01*
X148900000Y-125150000D01*
G75*
G02*
X149050000Y-125000000I150000J0D01*
G01*
G37*
G04 #@! TD.AperFunction*
G04 #@! TA.AperFunction,SMDPad,CuDef*
G36*
G01*
X147780000Y-125000000D02*
X148080000Y-125000000D01*
G75*
G02*
X148230000Y-125150000I0J-150000D01*
G01*
X148230000Y-126800000D01*
G75*
G02*
X148080000Y-126950000I-150000J0D01*
G01*
X147780000Y-126950000D01*
G75*
G02*
X147630000Y-126800000I0J150000D01*
G01*
X147630000Y-125150000D01*
G75*
G02*
X147780000Y-125000000I150000J0D01*
G01*
G37*
G04 #@! TD.AperFunction*
G04 #@! TA.AperFunction,SMDPad,CuDef*
G36*
G01*
X146510000Y-125000000D02*
X146810000Y-125000000D01*
G75*
G02*
X146960000Y-125150000I0J-150000D01*
G01*
X146960000Y-126800000D01*
G75*
G02*
X146810000Y-126950000I-150000J0D01*
G01*
X146510000Y-126950000D01*
G75*
G02*
X146360000Y-126800000I0J150000D01*
G01*
X146360000Y-125150000D01*
G75*
G02*
X146510000Y-125000000I150000J0D01*
G01*
G37*
G04 #@! TD.AperFunction*
G04 #@! TA.AperFunction,SMDPad,CuDef*
G36*
G01*
X145240000Y-125000000D02*
X145540000Y-125000000D01*
G75*
G02*
X145690000Y-125150000I0J-150000D01*
G01*
X145690000Y-126800000D01*
G75*
G02*
X145540000Y-126950000I-150000J0D01*
G01*
X145240000Y-126950000D01*
G75*
G02*
X145090000Y-126800000I0J150000D01*
G01*
X145090000Y-125150000D01*
G75*
G02*
X145240000Y-125000000I150000J0D01*
G01*
G37*
G04 #@! TD.AperFunction*
G04 #@! TA.AperFunction,SMDPad,CuDef*
G36*
G01*
X145240000Y-120050000D02*
X145540000Y-120050000D01*
G75*
G02*
X145690000Y-120200000I0J-150000D01*
G01*
X145690000Y-121850000D01*
G75*
G02*
X145540000Y-122000000I-150000J0D01*
G01*
X145240000Y-122000000D01*
G75*
G02*
X145090000Y-121850000I0J150000D01*
G01*
X145090000Y-120200000D01*
G75*
G02*
X145240000Y-120050000I150000J0D01*
G01*
G37*
G04 #@! TD.AperFunction*
G04 #@! TA.AperFunction,SMDPad,CuDef*
G36*
G01*
X146510000Y-120050000D02*
X146810000Y-120050000D01*
G75*
G02*
X146960000Y-120200000I0J-150000D01*
G01*
X146960000Y-121850000D01*
G75*
G02*
X146810000Y-122000000I-150000J0D01*
G01*
X146510000Y-122000000D01*
G75*
G02*
X146360000Y-121850000I0J150000D01*
G01*
X146360000Y-120200000D01*
G75*
G02*
X146510000Y-120050000I150000J0D01*
G01*
G37*
G04 #@! TD.AperFunction*
G04 #@! TA.AperFunction,SMDPad,CuDef*
G36*
G01*
X147780000Y-120050000D02*
X148080000Y-120050000D01*
G75*
G02*
X148230000Y-120200000I0J-150000D01*
G01*
X148230000Y-121850000D01*
G75*
G02*
X148080000Y-122000000I-150000J0D01*
G01*
X147780000Y-122000000D01*
G75*
G02*
X147630000Y-121850000I0J150000D01*
G01*
X147630000Y-120200000D01*
G75*
G02*
X147780000Y-120050000I150000J0D01*
G01*
G37*
G04 #@! TD.AperFunction*
G04 #@! TA.AperFunction,SMDPad,CuDef*
G36*
G01*
X149050000Y-120050000D02*
X149350000Y-120050000D01*
G75*
G02*
X149500000Y-120200000I0J-150000D01*
G01*
X149500000Y-121850000D01*
G75*
G02*
X149350000Y-122000000I-150000J0D01*
G01*
X149050000Y-122000000D01*
G75*
G02*
X148900000Y-121850000I0J150000D01*
G01*
X148900000Y-120200000D01*
G75*
G02*
X149050000Y-120050000I150000J0D01*
G01*
G37*
G04 #@! TD.AperFunction*
G04 #@! TA.AperFunction,SMDPad,CuDef*
G36*
G01*
X150320000Y-120050000D02*
X150620000Y-120050000D01*
G75*
G02*
X150770000Y-120200000I0J-150000D01*
G01*
X150770000Y-121850000D01*
G75*
G02*
X150620000Y-122000000I-150000J0D01*
G01*
X150320000Y-122000000D01*
G75*
G02*
X150170000Y-121850000I0J150000D01*
G01*
X150170000Y-120200000D01*
G75*
G02*
X150320000Y-120050000I150000J0D01*
G01*
G37*
G04 #@! TD.AperFunction*
G04 #@! TA.AperFunction,SMDPad,CuDef*
G36*
G01*
X151590000Y-120050000D02*
X151890000Y-120050000D01*
G75*
G02*
X152040000Y-120200000I0J-150000D01*
G01*
X152040000Y-121850000D01*
G75*
G02*
X151890000Y-122000000I-150000J0D01*
G01*
X151590000Y-122000000D01*
G75*
G02*
X151440000Y-121850000I0J150000D01*
G01*
X151440000Y-120200000D01*
G75*
G02*
X151590000Y-120050000I150000J0D01*
G01*
G37*
G04 #@! TD.AperFunction*
G04 #@! TA.AperFunction,SMDPad,CuDef*
G36*
G01*
X152860000Y-120050000D02*
X153160000Y-120050000D01*
G75*
G02*
X153310000Y-120200000I0J-150000D01*
G01*
X153310000Y-121850000D01*
G75*
G02*
X153160000Y-122000000I-150000J0D01*
G01*
X152860000Y-122000000D01*
G75*
G02*
X152710000Y-121850000I0J150000D01*
G01*
X152710000Y-120200000D01*
G75*
G02*
X152860000Y-120050000I150000J0D01*
G01*
G37*
G04 #@! TD.AperFunction*
G04 #@! TA.AperFunction,SMDPad,CuDef*
G36*
G01*
X171774999Y-108600000D02*
X173025001Y-108600000D01*
G75*
G02*
X173275000Y-108849999I0J-249999D01*
G01*
X173275000Y-109475001D01*
G75*
G02*
X173025001Y-109725000I-249999J0D01*
G01*
X171774999Y-109725000D01*
G75*
G02*
X171525000Y-109475001I0J249999D01*
G01*
X171525000Y-108849999D01*
G75*
G02*
X171774999Y-108600000I249999J0D01*
G01*
G37*
G04 #@! TD.AperFunction*
G04 #@! TA.AperFunction,SMDPad,CuDef*
G36*
G01*
X171774999Y-105675000D02*
X173025001Y-105675000D01*
G75*
G02*
X173275000Y-105924999I0J-249999D01*
G01*
X173275000Y-106550001D01*
G75*
G02*
X173025001Y-106800000I-249999J0D01*
G01*
X171774999Y-106800000D01*
G75*
G02*
X171525000Y-106550001I0J249999D01*
G01*
X171525000Y-105924999D01*
G75*
G02*
X171774999Y-105675000I249999J0D01*
G01*
G37*
G04 #@! TD.AperFunction*
G04 #@! TA.AperFunction,SMDPad,CuDef*
G36*
G01*
X171725000Y-112625000D02*
X172275000Y-112625000D01*
G75*
G02*
X172475000Y-112825000I0J-200000D01*
G01*
X172475000Y-113225000D01*
G75*
G02*
X172275000Y-113425000I-200000J0D01*
G01*
X171725000Y-113425000D01*
G75*
G02*
X171525000Y-113225000I0J200000D01*
G01*
X171525000Y-112825000D01*
G75*
G02*
X171725000Y-112625000I200000J0D01*
G01*
G37*
G04 #@! TD.AperFunction*
G04 #@! TA.AperFunction,SMDPad,CuDef*
G36*
G01*
X171725000Y-110975000D02*
X172275000Y-110975000D01*
G75*
G02*
X172475000Y-111175000I0J-200000D01*
G01*
X172475000Y-111575000D01*
G75*
G02*
X172275000Y-111775000I-200000J0D01*
G01*
X171725000Y-111775000D01*
G75*
G02*
X171525000Y-111575000I0J200000D01*
G01*
X171525000Y-111175000D01*
G75*
G02*
X171725000Y-110975000I200000J0D01*
G01*
G37*
G04 #@! TD.AperFunction*
G04 #@! TA.AperFunction,SMDPad,CuDef*
G36*
G01*
X157374999Y-91800000D02*
X158625001Y-91800000D01*
G75*
G02*
X158875000Y-92049999I0J-249999D01*
G01*
X158875000Y-92675001D01*
G75*
G02*
X158625001Y-92925000I-249999J0D01*
G01*
X157374999Y-92925000D01*
G75*
G02*
X157125000Y-92675001I0J249999D01*
G01*
X157125000Y-92049999D01*
G75*
G02*
X157374999Y-91800000I249999J0D01*
G01*
G37*
G04 #@! TD.AperFunction*
G04 #@! TA.AperFunction,SMDPad,CuDef*
G36*
G01*
X157374999Y-88875000D02*
X158625001Y-88875000D01*
G75*
G02*
X158875000Y-89124999I0J-249999D01*
G01*
X158875000Y-89750001D01*
G75*
G02*
X158625001Y-90000000I-249999J0D01*
G01*
X157374999Y-90000000D01*
G75*
G02*
X157125000Y-89750001I0J249999D01*
G01*
X157125000Y-89124999D01*
G75*
G02*
X157374999Y-88875000I249999J0D01*
G01*
G37*
G04 #@! TD.AperFunction*
G04 #@! TA.AperFunction,SMDPad,CuDef*
G36*
G01*
X149574999Y-94100000D02*
X150825001Y-94100000D01*
G75*
G02*
X151075000Y-94349999I0J-249999D01*
G01*
X151075000Y-94975001D01*
G75*
G02*
X150825001Y-95225000I-249999J0D01*
G01*
X149574999Y-95225000D01*
G75*
G02*
X149325000Y-94975001I0J249999D01*
G01*
X149325000Y-94349999D01*
G75*
G02*
X149574999Y-94100000I249999J0D01*
G01*
G37*
G04 #@! TD.AperFunction*
G04 #@! TA.AperFunction,SMDPad,CuDef*
G36*
G01*
X149574999Y-91175000D02*
X150825001Y-91175000D01*
G75*
G02*
X151075000Y-91424999I0J-249999D01*
G01*
X151075000Y-92050001D01*
G75*
G02*
X150825001Y-92300000I-249999J0D01*
G01*
X149574999Y-92300000D01*
G75*
G02*
X149325000Y-92050001I0J249999D01*
G01*
X149325000Y-91424999D01*
G75*
G02*
X149574999Y-91175000I249999J0D01*
G01*
G37*
G04 #@! TD.AperFunction*
G04 #@! TA.AperFunction,SMDPad,CuDef*
G36*
G01*
X165175000Y-105375000D02*
X164625000Y-105375000D01*
G75*
G02*
X164425000Y-105175000I0J200000D01*
G01*
X164425000Y-104775000D01*
G75*
G02*
X164625000Y-104575000I200000J0D01*
G01*
X165175000Y-104575000D01*
G75*
G02*
X165375000Y-104775000I0J-200000D01*
G01*
X165375000Y-105175000D01*
G75*
G02*
X165175000Y-105375000I-200000J0D01*
G01*
G37*
G04 #@! TD.AperFunction*
G04 #@! TA.AperFunction,SMDPad,CuDef*
G36*
G01*
X165175000Y-107025000D02*
X164625000Y-107025000D01*
G75*
G02*
X164425000Y-106825000I0J200000D01*
G01*
X164425000Y-106425000D01*
G75*
G02*
X164625000Y-106225000I200000J0D01*
G01*
X165175000Y-106225000D01*
G75*
G02*
X165375000Y-106425000I0J-200000D01*
G01*
X165375000Y-106825000D01*
G75*
G02*
X165175000Y-107025000I-200000J0D01*
G01*
G37*
G04 #@! TD.AperFunction*
G04 #@! TA.AperFunction,SMDPad,CuDef*
G36*
G01*
X160125000Y-106275000D02*
X160125000Y-106825000D01*
G75*
G02*
X159925000Y-107025000I-200000J0D01*
G01*
X159525000Y-107025000D01*
G75*
G02*
X159325000Y-106825000I0J200000D01*
G01*
X159325000Y-106275000D01*
G75*
G02*
X159525000Y-106075000I200000J0D01*
G01*
X159925000Y-106075000D01*
G75*
G02*
X160125000Y-106275000I0J-200000D01*
G01*
G37*
G04 #@! TD.AperFunction*
G04 #@! TA.AperFunction,SMDPad,CuDef*
G36*
G01*
X161775000Y-106275000D02*
X161775000Y-106825000D01*
G75*
G02*
X161575000Y-107025000I-200000J0D01*
G01*
X161175000Y-107025000D01*
G75*
G02*
X160975000Y-106825000I0J200000D01*
G01*
X160975000Y-106275000D01*
G75*
G02*
X161175000Y-106075000I200000J0D01*
G01*
X161575000Y-106075000D01*
G75*
G02*
X161775000Y-106275000I0J-200000D01*
G01*
G37*
G04 #@! TD.AperFunction*
G04 #@! TA.AperFunction,SMDPad,CuDef*
G36*
G01*
X136125000Y-115025000D02*
X136675000Y-115025000D01*
G75*
G02*
X136875000Y-115225000I0J-200000D01*
G01*
X136875000Y-115625000D01*
G75*
G02*
X136675000Y-115825000I-200000J0D01*
G01*
X136125000Y-115825000D01*
G75*
G02*
X135925000Y-115625000I0J200000D01*
G01*
X135925000Y-115225000D01*
G75*
G02*
X136125000Y-115025000I200000J0D01*
G01*
G37*
G04 #@! TD.AperFunction*
G04 #@! TA.AperFunction,SMDPad,CuDef*
G36*
G01*
X136125000Y-113375000D02*
X136675000Y-113375000D01*
G75*
G02*
X136875000Y-113575000I0J-200000D01*
G01*
X136875000Y-113975000D01*
G75*
G02*
X136675000Y-114175000I-200000J0D01*
G01*
X136125000Y-114175000D01*
G75*
G02*
X135925000Y-113975000I0J200000D01*
G01*
X135925000Y-113575000D01*
G75*
G02*
X136125000Y-113375000I200000J0D01*
G01*
G37*
G04 #@! TD.AperFunction*
G04 #@! TA.AperFunction,SMDPad,CuDef*
G36*
G01*
X136675000Y-98375000D02*
X136125000Y-98375000D01*
G75*
G02*
X135925000Y-98175000I0J200000D01*
G01*
X135925000Y-97775000D01*
G75*
G02*
X136125000Y-97575000I200000J0D01*
G01*
X136675000Y-97575000D01*
G75*
G02*
X136875000Y-97775000I0J-200000D01*
G01*
X136875000Y-98175000D01*
G75*
G02*
X136675000Y-98375000I-200000J0D01*
G01*
G37*
G04 #@! TD.AperFunction*
G04 #@! TA.AperFunction,SMDPad,CuDef*
G36*
G01*
X136675000Y-100025000D02*
X136125000Y-100025000D01*
G75*
G02*
X135925000Y-99825000I0J200000D01*
G01*
X135925000Y-99425000D01*
G75*
G02*
X136125000Y-99225000I200000J0D01*
G01*
X136675000Y-99225000D01*
G75*
G02*
X136875000Y-99425000I0J-200000D01*
G01*
X136875000Y-99825000D01*
G75*
G02*
X136675000Y-100025000I-200000J0D01*
G01*
G37*
G04 #@! TD.AperFunction*
G04 #@! TA.AperFunction,SMDPad,CuDef*
G36*
G01*
X143425000Y-93425000D02*
X143975000Y-93425000D01*
G75*
G02*
X144175000Y-93625000I0J-200000D01*
G01*
X144175000Y-94025000D01*
G75*
G02*
X143975000Y-94225000I-200000J0D01*
G01*
X143425000Y-94225000D01*
G75*
G02*
X143225000Y-94025000I0J200000D01*
G01*
X143225000Y-93625000D01*
G75*
G02*
X143425000Y-93425000I200000J0D01*
G01*
G37*
G04 #@! TD.AperFunction*
G04 #@! TA.AperFunction,SMDPad,CuDef*
G36*
G01*
X143425000Y-91775000D02*
X143975000Y-91775000D01*
G75*
G02*
X144175000Y-91975000I0J-200000D01*
G01*
X144175000Y-92375000D01*
G75*
G02*
X143975000Y-92575000I-200000J0D01*
G01*
X143425000Y-92575000D01*
G75*
G02*
X143225000Y-92375000I0J200000D01*
G01*
X143225000Y-91975000D01*
G75*
G02*
X143425000Y-91775000I200000J0D01*
G01*
G37*
G04 #@! TD.AperFunction*
G04 #@! TA.AperFunction,SMDPad,CuDef*
G36*
G01*
X137025000Y-93525000D02*
X137575000Y-93525000D01*
G75*
G02*
X137775000Y-93725000I0J-200000D01*
G01*
X137775000Y-94125000D01*
G75*
G02*
X137575000Y-94325000I-200000J0D01*
G01*
X137025000Y-94325000D01*
G75*
G02*
X136825000Y-94125000I0J200000D01*
G01*
X136825000Y-93725000D01*
G75*
G02*
X137025000Y-93525000I200000J0D01*
G01*
G37*
G04 #@! TD.AperFunction*
G04 #@! TA.AperFunction,SMDPad,CuDef*
G36*
G01*
X137025000Y-91875000D02*
X137575000Y-91875000D01*
G75*
G02*
X137775000Y-92075000I0J-200000D01*
G01*
X137775000Y-92475000D01*
G75*
G02*
X137575000Y-92675000I-200000J0D01*
G01*
X137025000Y-92675000D01*
G75*
G02*
X136825000Y-92475000I0J200000D01*
G01*
X136825000Y-92075000D01*
G75*
G02*
X137025000Y-91875000I200000J0D01*
G01*
G37*
G04 #@! TD.AperFunction*
G04 #@! TA.AperFunction,SMDPad,CuDef*
G36*
G01*
X137575000Y-76775000D02*
X137025000Y-76775000D01*
G75*
G02*
X136825000Y-76575000I0J200000D01*
G01*
X136825000Y-76175000D01*
G75*
G02*
X137025000Y-75975000I200000J0D01*
G01*
X137575000Y-75975000D01*
G75*
G02*
X137775000Y-76175000I0J-200000D01*
G01*
X137775000Y-76575000D01*
G75*
G02*
X137575000Y-76775000I-200000J0D01*
G01*
G37*
G04 #@! TD.AperFunction*
G04 #@! TA.AperFunction,SMDPad,CuDef*
G36*
G01*
X137575000Y-78425000D02*
X137025000Y-78425000D01*
G75*
G02*
X136825000Y-78225000I0J200000D01*
G01*
X136825000Y-77825000D01*
G75*
G02*
X137025000Y-77625000I200000J0D01*
G01*
X137575000Y-77625000D01*
G75*
G02*
X137775000Y-77825000I0J-200000D01*
G01*
X137775000Y-78225000D01*
G75*
G02*
X137575000Y-78425000I-200000J0D01*
G01*
G37*
G04 #@! TD.AperFunction*
G04 #@! TA.AperFunction,SMDPad,CuDef*
G36*
G01*
X143975000Y-76775000D02*
X143425000Y-76775000D01*
G75*
G02*
X143225000Y-76575000I0J200000D01*
G01*
X143225000Y-76175000D01*
G75*
G02*
X143425000Y-75975000I200000J0D01*
G01*
X143975000Y-75975000D01*
G75*
G02*
X144175000Y-76175000I0J-200000D01*
G01*
X144175000Y-76575000D01*
G75*
G02*
X143975000Y-76775000I-200000J0D01*
G01*
G37*
G04 #@! TD.AperFunction*
G04 #@! TA.AperFunction,SMDPad,CuDef*
G36*
G01*
X143975000Y-78425000D02*
X143425000Y-78425000D01*
G75*
G02*
X143225000Y-78225000I0J200000D01*
G01*
X143225000Y-77825000D01*
G75*
G02*
X143425000Y-77625000I200000J0D01*
G01*
X143975000Y-77625000D01*
G75*
G02*
X144175000Y-77825000I0J-200000D01*
G01*
X144175000Y-78225000D01*
G75*
G02*
X143975000Y-78425000I-200000J0D01*
G01*
G37*
G04 #@! TD.AperFunction*
D18*
X42000000Y-77500000D03*
X42950000Y-77500000D03*
X41050000Y-77500000D03*
X41050000Y-75300000D03*
X42000000Y-75300000D03*
X42950000Y-75300000D03*
D19*
X152800000Y-61000000D03*
X160300000Y-61000000D03*
X160300000Y-56000000D03*
X152800000Y-46200000D03*
X160300000Y-46200000D03*
X160300000Y-51200000D03*
X152800000Y-56000000D03*
X152800000Y-51200000D03*
X168400000Y-53600000D03*
X152800000Y-84500000D03*
X160300000Y-84500000D03*
X160300000Y-79500000D03*
X152800000Y-69700000D03*
X160300000Y-69700000D03*
X160300000Y-74700000D03*
X152800000Y-79500000D03*
X152800000Y-74700000D03*
X168400000Y-77100000D03*
G04 #@! TA.AperFunction,SMDPad,CuDef*
G36*
G01*
X158350000Y-98675000D02*
X157850000Y-98675000D01*
G75*
G02*
X157625000Y-98450000I0J225000D01*
G01*
X157625000Y-98000000D01*
G75*
G02*
X157850000Y-97775000I225000J0D01*
G01*
X158350000Y-97775000D01*
G75*
G02*
X158575000Y-98000000I0J-225000D01*
G01*
X158575000Y-98450000D01*
G75*
G02*
X158350000Y-98675000I-225000J0D01*
G01*
G37*
G04 #@! TD.AperFunction*
G04 #@! TA.AperFunction,SMDPad,CuDef*
G36*
G01*
X158350000Y-100225000D02*
X157850000Y-100225000D01*
G75*
G02*
X157625000Y-100000000I0J225000D01*
G01*
X157625000Y-99550000D01*
G75*
G02*
X157850000Y-99325000I225000J0D01*
G01*
X158350000Y-99325000D01*
G75*
G02*
X158575000Y-99550000I0J-225000D01*
G01*
X158575000Y-100000000D01*
G75*
G02*
X158350000Y-100225000I-225000J0D01*
G01*
G37*
G04 #@! TD.AperFunction*
G04 #@! TA.AperFunction,SMDPad,CuDef*
G36*
G01*
X169725000Y-95350000D02*
X169725000Y-94850000D01*
G75*
G02*
X169950000Y-94625000I225000J0D01*
G01*
X170400000Y-94625000D01*
G75*
G02*
X170625000Y-94850000I0J-225000D01*
G01*
X170625000Y-95350000D01*
G75*
G02*
X170400000Y-95575000I-225000J0D01*
G01*
X169950000Y-95575000D01*
G75*
G02*
X169725000Y-95350000I0J225000D01*
G01*
G37*
G04 #@! TD.AperFunction*
G04 #@! TA.AperFunction,SMDPad,CuDef*
G36*
G01*
X168175000Y-95350000D02*
X168175000Y-94850000D01*
G75*
G02*
X168400000Y-94625000I225000J0D01*
G01*
X168850000Y-94625000D01*
G75*
G02*
X169075000Y-94850000I0J-225000D01*
G01*
X169075000Y-95350000D01*
G75*
G02*
X168850000Y-95575000I-225000J0D01*
G01*
X168400000Y-95575000D01*
G75*
G02*
X168175000Y-95350000I0J225000D01*
G01*
G37*
G04 #@! TD.AperFunction*
G04 #@! TA.AperFunction,SMDPad,CuDef*
G36*
G01*
X161175000Y-115550000D02*
X161175000Y-116050000D01*
G75*
G02*
X160950000Y-116275000I-225000J0D01*
G01*
X160500000Y-116275000D01*
G75*
G02*
X160275000Y-116050000I0J225000D01*
G01*
X160275000Y-115550000D01*
G75*
G02*
X160500000Y-115325000I225000J0D01*
G01*
X160950000Y-115325000D01*
G75*
G02*
X161175000Y-115550000I0J-225000D01*
G01*
G37*
G04 #@! TD.AperFunction*
G04 #@! TA.AperFunction,SMDPad,CuDef*
G36*
G01*
X162725000Y-115550000D02*
X162725000Y-116050000D01*
G75*
G02*
X162500000Y-116275000I-225000J0D01*
G01*
X162050000Y-116275000D01*
G75*
G02*
X161825000Y-116050000I0J225000D01*
G01*
X161825000Y-115550000D01*
G75*
G02*
X162050000Y-115325000I225000J0D01*
G01*
X162500000Y-115325000D01*
G75*
G02*
X162725000Y-115550000I0J-225000D01*
G01*
G37*
G04 #@! TD.AperFunction*
G04 #@! TA.AperFunction,SMDPad,CuDef*
G36*
G01*
X170150000Y-108275000D02*
X169650000Y-108275000D01*
G75*
G02*
X169425000Y-108050000I0J225000D01*
G01*
X169425000Y-107600000D01*
G75*
G02*
X169650000Y-107375000I225000J0D01*
G01*
X170150000Y-107375000D01*
G75*
G02*
X170375000Y-107600000I0J-225000D01*
G01*
X170375000Y-108050000D01*
G75*
G02*
X170150000Y-108275000I-225000J0D01*
G01*
G37*
G04 #@! TD.AperFunction*
G04 #@! TA.AperFunction,SMDPad,CuDef*
G36*
G01*
X170150000Y-109825000D02*
X169650000Y-109825000D01*
G75*
G02*
X169425000Y-109600000I0J225000D01*
G01*
X169425000Y-109150000D01*
G75*
G02*
X169650000Y-108925000I225000J0D01*
G01*
X170150000Y-108925000D01*
G75*
G02*
X170375000Y-109150000I0J-225000D01*
G01*
X170375000Y-109600000D01*
G75*
G02*
X170150000Y-109825000I-225000J0D01*
G01*
G37*
G04 #@! TD.AperFunction*
G04 #@! TA.AperFunction,SMDPad,CuDef*
G36*
G01*
X170150000Y-111875000D02*
X169650000Y-111875000D01*
G75*
G02*
X169425000Y-111650000I0J225000D01*
G01*
X169425000Y-111200000D01*
G75*
G02*
X169650000Y-110975000I225000J0D01*
G01*
X170150000Y-110975000D01*
G75*
G02*
X170375000Y-111200000I0J-225000D01*
G01*
X170375000Y-111650000D01*
G75*
G02*
X170150000Y-111875000I-225000J0D01*
G01*
G37*
G04 #@! TD.AperFunction*
G04 #@! TA.AperFunction,SMDPad,CuDef*
G36*
G01*
X170150000Y-113425000D02*
X169650000Y-113425000D01*
G75*
G02*
X169425000Y-113200000I0J225000D01*
G01*
X169425000Y-112750000D01*
G75*
G02*
X169650000Y-112525000I225000J0D01*
G01*
X170150000Y-112525000D01*
G75*
G02*
X170375000Y-112750000I0J-225000D01*
G01*
X170375000Y-113200000D01*
G75*
G02*
X170150000Y-113425000I-225000J0D01*
G01*
G37*
G04 #@! TD.AperFunction*
G04 #@! TA.AperFunction,SMDPad,CuDef*
G36*
G01*
X158350000Y-95375000D02*
X157850000Y-95375000D01*
G75*
G02*
X157625000Y-95150000I0J225000D01*
G01*
X157625000Y-94700000D01*
G75*
G02*
X157850000Y-94475000I225000J0D01*
G01*
X158350000Y-94475000D01*
G75*
G02*
X158575000Y-94700000I0J-225000D01*
G01*
X158575000Y-95150000D01*
G75*
G02*
X158350000Y-95375000I-225000J0D01*
G01*
G37*
G04 #@! TD.AperFunction*
G04 #@! TA.AperFunction,SMDPad,CuDef*
G36*
G01*
X158350000Y-96925000D02*
X157850000Y-96925000D01*
G75*
G02*
X157625000Y-96700000I0J225000D01*
G01*
X157625000Y-96250000D01*
G75*
G02*
X157850000Y-96025000I225000J0D01*
G01*
X158350000Y-96025000D01*
G75*
G02*
X158575000Y-96250000I0J-225000D01*
G01*
X158575000Y-96700000D01*
G75*
G02*
X158350000Y-96925000I-225000J0D01*
G01*
G37*
G04 #@! TD.AperFunction*
G04 #@! TA.AperFunction,SMDPad,CuDef*
G36*
G01*
X160050000Y-110275000D02*
X159550000Y-110275000D01*
G75*
G02*
X159325000Y-110050000I0J225000D01*
G01*
X159325000Y-109600000D01*
G75*
G02*
X159550000Y-109375000I225000J0D01*
G01*
X160050000Y-109375000D01*
G75*
G02*
X160275000Y-109600000I0J-225000D01*
G01*
X160275000Y-110050000D01*
G75*
G02*
X160050000Y-110275000I-225000J0D01*
G01*
G37*
G04 #@! TD.AperFunction*
G04 #@! TA.AperFunction,SMDPad,CuDef*
G36*
G01*
X160050000Y-111825000D02*
X159550000Y-111825000D01*
G75*
G02*
X159325000Y-111600000I0J225000D01*
G01*
X159325000Y-111150000D01*
G75*
G02*
X159550000Y-110925000I225000J0D01*
G01*
X160050000Y-110925000D01*
G75*
G02*
X160275000Y-111150000I0J-225000D01*
G01*
X160275000Y-111600000D01*
G75*
G02*
X160050000Y-111825000I-225000J0D01*
G01*
G37*
G04 #@! TD.AperFunction*
G04 #@! TA.AperFunction,SMDPad,CuDef*
G36*
G01*
X140050000Y-76875000D02*
X139550000Y-76875000D01*
G75*
G02*
X139325000Y-76650000I0J225000D01*
G01*
X139325000Y-76200000D01*
G75*
G02*
X139550000Y-75975000I225000J0D01*
G01*
X140050000Y-75975000D01*
G75*
G02*
X140275000Y-76200000I0J-225000D01*
G01*
X140275000Y-76650000D01*
G75*
G02*
X140050000Y-76875000I-225000J0D01*
G01*
G37*
G04 #@! TD.AperFunction*
G04 #@! TA.AperFunction,SMDPad,CuDef*
G36*
G01*
X140050000Y-78425000D02*
X139550000Y-78425000D01*
G75*
G02*
X139325000Y-78200000I0J225000D01*
G01*
X139325000Y-77750000D01*
G75*
G02*
X139550000Y-77525000I225000J0D01*
G01*
X140050000Y-77525000D01*
G75*
G02*
X140275000Y-77750000I0J-225000D01*
G01*
X140275000Y-78200000D01*
G75*
G02*
X140050000Y-78425000I-225000J0D01*
G01*
G37*
G04 #@! TD.AperFunction*
G04 #@! TA.AperFunction,SMDPad,CuDef*
G36*
G01*
X140275000Y-92150000D02*
X140275000Y-92650000D01*
G75*
G02*
X140050000Y-92875000I-225000J0D01*
G01*
X139600000Y-92875000D01*
G75*
G02*
X139375000Y-92650000I0J225000D01*
G01*
X139375000Y-92150000D01*
G75*
G02*
X139600000Y-91925000I225000J0D01*
G01*
X140050000Y-91925000D01*
G75*
G02*
X140275000Y-92150000I0J-225000D01*
G01*
G37*
G04 #@! TD.AperFunction*
G04 #@! TA.AperFunction,SMDPad,CuDef*
G36*
G01*
X141825000Y-92150000D02*
X141825000Y-92650000D01*
G75*
G02*
X141600000Y-92875000I-225000J0D01*
G01*
X141150000Y-92875000D01*
G75*
G02*
X140925000Y-92650000I0J225000D01*
G01*
X140925000Y-92150000D01*
G75*
G02*
X141150000Y-91925000I225000J0D01*
G01*
X141600000Y-91925000D01*
G75*
G02*
X141825000Y-92150000I0J-225000D01*
G01*
G37*
G04 #@! TD.AperFunction*
G04 #@! TA.AperFunction,SMDPad,CuDef*
G36*
G01*
X139350000Y-98475000D02*
X138850000Y-98475000D01*
G75*
G02*
X138625000Y-98250000I0J225000D01*
G01*
X138625000Y-97800000D01*
G75*
G02*
X138850000Y-97575000I225000J0D01*
G01*
X139350000Y-97575000D01*
G75*
G02*
X139575000Y-97800000I0J-225000D01*
G01*
X139575000Y-98250000D01*
G75*
G02*
X139350000Y-98475000I-225000J0D01*
G01*
G37*
G04 #@! TD.AperFunction*
G04 #@! TA.AperFunction,SMDPad,CuDef*
G36*
G01*
X139350000Y-100025000D02*
X138850000Y-100025000D01*
G75*
G02*
X138625000Y-99800000I0J225000D01*
G01*
X138625000Y-99350000D01*
G75*
G02*
X138850000Y-99125000I225000J0D01*
G01*
X139350000Y-99125000D01*
G75*
G02*
X139575000Y-99350000I0J-225000D01*
G01*
X139575000Y-99800000D01*
G75*
G02*
X139350000Y-100025000I-225000J0D01*
G01*
G37*
G04 #@! TD.AperFunction*
G04 #@! TA.AperFunction,SMDPad,CuDef*
G36*
G01*
X139475000Y-113850000D02*
X139475000Y-114350000D01*
G75*
G02*
X139250000Y-114575000I-225000J0D01*
G01*
X138800000Y-114575000D01*
G75*
G02*
X138575000Y-114350000I0J225000D01*
G01*
X138575000Y-113850000D01*
G75*
G02*
X138800000Y-113625000I225000J0D01*
G01*
X139250000Y-113625000D01*
G75*
G02*
X139475000Y-113850000I0J-225000D01*
G01*
G37*
G04 #@! TD.AperFunction*
G04 #@! TA.AperFunction,SMDPad,CuDef*
G36*
G01*
X141025000Y-113850000D02*
X141025000Y-114350000D01*
G75*
G02*
X140800000Y-114575000I-225000J0D01*
G01*
X140350000Y-114575000D01*
G75*
G02*
X140125000Y-114350000I0J225000D01*
G01*
X140125000Y-113850000D01*
G75*
G02*
X140350000Y-113625000I225000J0D01*
G01*
X140800000Y-113625000D01*
G75*
G02*
X141025000Y-113850000I0J-225000D01*
G01*
G37*
G04 #@! TD.AperFunction*
G04 #@! TA.AperFunction,SMDPad,CuDef*
G36*
G01*
X137525000Y-54850000D02*
X137525000Y-54350000D01*
G75*
G02*
X137750000Y-54125000I225000J0D01*
G01*
X138200000Y-54125000D01*
G75*
G02*
X138425000Y-54350000I0J-225000D01*
G01*
X138425000Y-54850000D01*
G75*
G02*
X138200000Y-55075000I-225000J0D01*
G01*
X137750000Y-55075000D01*
G75*
G02*
X137525000Y-54850000I0J225000D01*
G01*
G37*
G04 #@! TD.AperFunction*
G04 #@! TA.AperFunction,SMDPad,CuDef*
G36*
G01*
X135975000Y-54850000D02*
X135975000Y-54350000D01*
G75*
G02*
X136200000Y-54125000I225000J0D01*
G01*
X136650000Y-54125000D01*
G75*
G02*
X136875000Y-54350000I0J-225000D01*
G01*
X136875000Y-54850000D01*
G75*
G02*
X136650000Y-55075000I-225000J0D01*
G01*
X136200000Y-55075000D01*
G75*
G02*
X135975000Y-54850000I0J225000D01*
G01*
G37*
G04 #@! TD.AperFunction*
G04 #@! TA.AperFunction,SMDPad,CuDef*
G36*
G01*
X137125000Y-44450000D02*
X137125000Y-43950000D01*
G75*
G02*
X137350000Y-43725000I225000J0D01*
G01*
X137800000Y-43725000D01*
G75*
G02*
X138025000Y-43950000I0J-225000D01*
G01*
X138025000Y-44450000D01*
G75*
G02*
X137800000Y-44675000I-225000J0D01*
G01*
X137350000Y-44675000D01*
G75*
G02*
X137125000Y-44450000I0J225000D01*
G01*
G37*
G04 #@! TD.AperFunction*
G04 #@! TA.AperFunction,SMDPad,CuDef*
G36*
G01*
X135575000Y-44450000D02*
X135575000Y-43950000D01*
G75*
G02*
X135800000Y-43725000I225000J0D01*
G01*
X136250000Y-43725000D01*
G75*
G02*
X136475000Y-43950000I0J-225000D01*
G01*
X136475000Y-44450000D01*
G75*
G02*
X136250000Y-44675000I-225000J0D01*
G01*
X135800000Y-44675000D01*
G75*
G02*
X135575000Y-44450000I0J225000D01*
G01*
G37*
G04 #@! TD.AperFunction*
G04 #@! TA.AperFunction,SMDPad,CuDef*
G36*
G01*
X53750000Y-69525000D02*
X54250000Y-69525000D01*
G75*
G02*
X54475000Y-69750000I0J-225000D01*
G01*
X54475000Y-70200000D01*
G75*
G02*
X54250000Y-70425000I-225000J0D01*
G01*
X53750000Y-70425000D01*
G75*
G02*
X53525000Y-70200000I0J225000D01*
G01*
X53525000Y-69750000D01*
G75*
G02*
X53750000Y-69525000I225000J0D01*
G01*
G37*
G04 #@! TD.AperFunction*
G04 #@! TA.AperFunction,SMDPad,CuDef*
G36*
G01*
X53750000Y-67975000D02*
X54250000Y-67975000D01*
G75*
G02*
X54475000Y-68200000I0J-225000D01*
G01*
X54475000Y-68650000D01*
G75*
G02*
X54250000Y-68875000I-225000J0D01*
G01*
X53750000Y-68875000D01*
G75*
G02*
X53525000Y-68650000I0J225000D01*
G01*
X53525000Y-68200000D01*
G75*
G02*
X53750000Y-67975000I225000J0D01*
G01*
G37*
G04 #@! TD.AperFunction*
G04 #@! TA.AperFunction,SMDPad,CuDef*
G36*
G01*
X133425000Y-132250000D02*
X133425000Y-131750000D01*
G75*
G02*
X133650000Y-131525000I225000J0D01*
G01*
X134100000Y-131525000D01*
G75*
G02*
X134325000Y-131750000I0J-225000D01*
G01*
X134325000Y-132250000D01*
G75*
G02*
X134100000Y-132475000I-225000J0D01*
G01*
X133650000Y-132475000D01*
G75*
G02*
X133425000Y-132250000I0J225000D01*
G01*
G37*
G04 #@! TD.AperFunction*
G04 #@! TA.AperFunction,SMDPad,CuDef*
G36*
G01*
X131875000Y-132250000D02*
X131875000Y-131750000D01*
G75*
G02*
X132100000Y-131525000I225000J0D01*
G01*
X132550000Y-131525000D01*
G75*
G02*
X132775000Y-131750000I0J-225000D01*
G01*
X132775000Y-132250000D01*
G75*
G02*
X132550000Y-132475000I-225000J0D01*
G01*
X132100000Y-132475000D01*
G75*
G02*
X131875000Y-132250000I0J225000D01*
G01*
G37*
G04 #@! TD.AperFunction*
G04 #@! TA.AperFunction,SMDPad,CuDef*
G36*
G01*
X133425000Y-134250000D02*
X133425000Y-133750000D01*
G75*
G02*
X133650000Y-133525000I225000J0D01*
G01*
X134100000Y-133525000D01*
G75*
G02*
X134325000Y-133750000I0J-225000D01*
G01*
X134325000Y-134250000D01*
G75*
G02*
X134100000Y-134475000I-225000J0D01*
G01*
X133650000Y-134475000D01*
G75*
G02*
X133425000Y-134250000I0J225000D01*
G01*
G37*
G04 #@! TD.AperFunction*
G04 #@! TA.AperFunction,SMDPad,CuDef*
G36*
G01*
X131875000Y-134250000D02*
X131875000Y-133750000D01*
G75*
G02*
X132100000Y-133525000I225000J0D01*
G01*
X132550000Y-133525000D01*
G75*
G02*
X132775000Y-133750000I0J-225000D01*
G01*
X132775000Y-134250000D01*
G75*
G02*
X132550000Y-134475000I-225000J0D01*
G01*
X132100000Y-134475000D01*
G75*
G02*
X131875000Y-134250000I0J225000D01*
G01*
G37*
G04 #@! TD.AperFunction*
G04 #@! TA.AperFunction,SMDPad,CuDef*
G36*
G01*
X145550000Y-117475000D02*
X145050000Y-117475000D01*
G75*
G02*
X144825000Y-117250000I0J225000D01*
G01*
X144825000Y-116800000D01*
G75*
G02*
X145050000Y-116575000I225000J0D01*
G01*
X145550000Y-116575000D01*
G75*
G02*
X145775000Y-116800000I0J-225000D01*
G01*
X145775000Y-117250000D01*
G75*
G02*
X145550000Y-117475000I-225000J0D01*
G01*
G37*
G04 #@! TD.AperFunction*
G04 #@! TA.AperFunction,SMDPad,CuDef*
G36*
G01*
X145550000Y-119025000D02*
X145050000Y-119025000D01*
G75*
G02*
X144825000Y-118800000I0J225000D01*
G01*
X144825000Y-118350000D01*
G75*
G02*
X145050000Y-118125000I225000J0D01*
G01*
X145550000Y-118125000D01*
G75*
G02*
X145775000Y-118350000I0J-225000D01*
G01*
X145775000Y-118800000D01*
G75*
G02*
X145550000Y-119025000I-225000J0D01*
G01*
G37*
G04 #@! TD.AperFunction*
G04 #@! TA.AperFunction,SMDPad,CuDef*
G36*
G01*
X152850000Y-129525000D02*
X153350000Y-129525000D01*
G75*
G02*
X153575000Y-129750000I0J-225000D01*
G01*
X153575000Y-130200000D01*
G75*
G02*
X153350000Y-130425000I-225000J0D01*
G01*
X152850000Y-130425000D01*
G75*
G02*
X152625000Y-130200000I0J225000D01*
G01*
X152625000Y-129750000D01*
G75*
G02*
X152850000Y-129525000I225000J0D01*
G01*
G37*
G04 #@! TD.AperFunction*
G04 #@! TA.AperFunction,SMDPad,CuDef*
G36*
G01*
X152850000Y-127975000D02*
X153350000Y-127975000D01*
G75*
G02*
X153575000Y-128200000I0J-225000D01*
G01*
X153575000Y-128650000D01*
G75*
G02*
X153350000Y-128875000I-225000J0D01*
G01*
X152850000Y-128875000D01*
G75*
G02*
X152625000Y-128650000I0J225000D01*
G01*
X152625000Y-128200000D01*
G75*
G02*
X152850000Y-127975000I225000J0D01*
G01*
G37*
G04 #@! TD.AperFunction*
G04 #@! TA.AperFunction,SMDPad,CuDef*
G36*
G01*
X133750000Y-61925000D02*
X134250000Y-61925000D01*
G75*
G02*
X134475000Y-62150000I0J-225000D01*
G01*
X134475000Y-62600000D01*
G75*
G02*
X134250000Y-62825000I-225000J0D01*
G01*
X133750000Y-62825000D01*
G75*
G02*
X133525000Y-62600000I0J225000D01*
G01*
X133525000Y-62150000D01*
G75*
G02*
X133750000Y-61925000I225000J0D01*
G01*
G37*
G04 #@! TD.AperFunction*
G04 #@! TA.AperFunction,SMDPad,CuDef*
G36*
G01*
X133750000Y-60375000D02*
X134250000Y-60375000D01*
G75*
G02*
X134475000Y-60600000I0J-225000D01*
G01*
X134475000Y-61050000D01*
G75*
G02*
X134250000Y-61275000I-225000J0D01*
G01*
X133750000Y-61275000D01*
G75*
G02*
X133525000Y-61050000I0J225000D01*
G01*
X133525000Y-60600000D01*
G75*
G02*
X133750000Y-60375000I225000J0D01*
G01*
G37*
G04 #@! TD.AperFunction*
G04 #@! TA.AperFunction,SMDPad,CuDef*
G36*
G01*
X145550000Y-128775000D02*
X145050000Y-128775000D01*
G75*
G02*
X144825000Y-128550000I0J225000D01*
G01*
X144825000Y-128100000D01*
G75*
G02*
X145050000Y-127875000I225000J0D01*
G01*
X145550000Y-127875000D01*
G75*
G02*
X145775000Y-128100000I0J-225000D01*
G01*
X145775000Y-128550000D01*
G75*
G02*
X145550000Y-128775000I-225000J0D01*
G01*
G37*
G04 #@! TD.AperFunction*
G04 #@! TA.AperFunction,SMDPad,CuDef*
G36*
G01*
X145550000Y-130325000D02*
X145050000Y-130325000D01*
G75*
G02*
X144825000Y-130100000I0J225000D01*
G01*
X144825000Y-129650000D01*
G75*
G02*
X145050000Y-129425000I225000J0D01*
G01*
X145550000Y-129425000D01*
G75*
G02*
X145775000Y-129650000I0J-225000D01*
G01*
X145775000Y-130100000D01*
G75*
G02*
X145550000Y-130325000I-225000J0D01*
G01*
G37*
G04 #@! TD.AperFunction*
G04 #@! TA.AperFunction,SMDPad,CuDef*
G36*
G01*
X166300000Y-110045000D02*
X166300000Y-109745000D01*
G75*
G02*
X166450000Y-109595000I150000J0D01*
G01*
X168100000Y-109595000D01*
G75*
G02*
X168250000Y-109745000I0J-150000D01*
G01*
X168250000Y-110045000D01*
G75*
G02*
X168100000Y-110195000I-150000J0D01*
G01*
X166450000Y-110195000D01*
G75*
G02*
X166300000Y-110045000I0J150000D01*
G01*
G37*
G04 #@! TD.AperFunction*
G04 #@! TA.AperFunction,SMDPad,CuDef*
G36*
G01*
X166300000Y-111315000D02*
X166300000Y-111015000D01*
G75*
G02*
X166450000Y-110865000I150000J0D01*
G01*
X168100000Y-110865000D01*
G75*
G02*
X168250000Y-111015000I0J-150000D01*
G01*
X168250000Y-111315000D01*
G75*
G02*
X168100000Y-111465000I-150000J0D01*
G01*
X166450000Y-111465000D01*
G75*
G02*
X166300000Y-111315000I0J150000D01*
G01*
G37*
G04 #@! TD.AperFunction*
G04 #@! TA.AperFunction,SMDPad,CuDef*
G36*
G01*
X166300000Y-112585000D02*
X166300000Y-112285000D01*
G75*
G02*
X166450000Y-112135000I150000J0D01*
G01*
X168100000Y-112135000D01*
G75*
G02*
X168250000Y-112285000I0J-150000D01*
G01*
X168250000Y-112585000D01*
G75*
G02*
X168100000Y-112735000I-150000J0D01*
G01*
X166450000Y-112735000D01*
G75*
G02*
X166300000Y-112585000I0J150000D01*
G01*
G37*
G04 #@! TD.AperFunction*
G04 #@! TA.AperFunction,SMDPad,CuDef*
G36*
G01*
X166300000Y-113855000D02*
X166300000Y-113555000D01*
G75*
G02*
X166450000Y-113405000I150000J0D01*
G01*
X168100000Y-113405000D01*
G75*
G02*
X168250000Y-113555000I0J-150000D01*
G01*
X168250000Y-113855000D01*
G75*
G02*
X168100000Y-114005000I-150000J0D01*
G01*
X166450000Y-114005000D01*
G75*
G02*
X166300000Y-113855000I0J150000D01*
G01*
G37*
G04 #@! TD.AperFunction*
G04 #@! TA.AperFunction,SMDPad,CuDef*
G36*
G01*
X161350000Y-113855000D02*
X161350000Y-113555000D01*
G75*
G02*
X161500000Y-113405000I150000J0D01*
G01*
X163150000Y-113405000D01*
G75*
G02*
X163300000Y-113555000I0J-150000D01*
G01*
X163300000Y-113855000D01*
G75*
G02*
X163150000Y-114005000I-150000J0D01*
G01*
X161500000Y-114005000D01*
G75*
G02*
X161350000Y-113855000I0J150000D01*
G01*
G37*
G04 #@! TD.AperFunction*
G04 #@! TA.AperFunction,SMDPad,CuDef*
G36*
G01*
X161350000Y-112585000D02*
X161350000Y-112285000D01*
G75*
G02*
X161500000Y-112135000I150000J0D01*
G01*
X163150000Y-112135000D01*
G75*
G02*
X163300000Y-112285000I0J-150000D01*
G01*
X163300000Y-112585000D01*
G75*
G02*
X163150000Y-112735000I-150000J0D01*
G01*
X161500000Y-112735000D01*
G75*
G02*
X161350000Y-112585000I0J150000D01*
G01*
G37*
G04 #@! TD.AperFunction*
G04 #@! TA.AperFunction,SMDPad,CuDef*
G36*
G01*
X161350000Y-111315000D02*
X161350000Y-111015000D01*
G75*
G02*
X161500000Y-110865000I150000J0D01*
G01*
X163150000Y-110865000D01*
G75*
G02*
X163300000Y-111015000I0J-150000D01*
G01*
X163300000Y-111315000D01*
G75*
G02*
X163150000Y-111465000I-150000J0D01*
G01*
X161500000Y-111465000D01*
G75*
G02*
X161350000Y-111315000I0J150000D01*
G01*
G37*
G04 #@! TD.AperFunction*
G04 #@! TA.AperFunction,SMDPad,CuDef*
G36*
G01*
X161350000Y-110045000D02*
X161350000Y-109745000D01*
G75*
G02*
X161500000Y-109595000I150000J0D01*
G01*
X163150000Y-109595000D01*
G75*
G02*
X163300000Y-109745000I0J-150000D01*
G01*
X163300000Y-110045000D01*
G75*
G02*
X163150000Y-110195000I-150000J0D01*
G01*
X161500000Y-110195000D01*
G75*
G02*
X161350000Y-110045000I0J150000D01*
G01*
G37*
G04 #@! TD.AperFunction*
G04 #@! TA.AperFunction,SMDPad,CuDef*
G36*
G01*
X134125000Y-65375000D02*
X133925000Y-65375000D01*
G75*
G02*
X133825000Y-65275000I0J100000D01*
G01*
X133825000Y-64000000D01*
G75*
G02*
X133925000Y-63900000I100000J0D01*
G01*
X134125000Y-63900000D01*
G75*
G02*
X134225000Y-64000000I0J-100000D01*
G01*
X134225000Y-65275000D01*
G75*
G02*
X134125000Y-65375000I-100000J0D01*
G01*
G37*
G04 #@! TD.AperFunction*
G04 #@! TA.AperFunction,SMDPad,CuDef*
G36*
G01*
X134775000Y-65375000D02*
X134575000Y-65375000D01*
G75*
G02*
X134475000Y-65275000I0J100000D01*
G01*
X134475000Y-64000000D01*
G75*
G02*
X134575000Y-63900000I100000J0D01*
G01*
X134775000Y-63900000D01*
G75*
G02*
X134875000Y-64000000I0J-100000D01*
G01*
X134875000Y-65275000D01*
G75*
G02*
X134775000Y-65375000I-100000J0D01*
G01*
G37*
G04 #@! TD.AperFunction*
G04 #@! TA.AperFunction,SMDPad,CuDef*
G36*
G01*
X135425000Y-65375000D02*
X135225000Y-65375000D01*
G75*
G02*
X135125000Y-65275000I0J100000D01*
G01*
X135125000Y-64000000D01*
G75*
G02*
X135225000Y-63900000I100000J0D01*
G01*
X135425000Y-63900000D01*
G75*
G02*
X135525000Y-64000000I0J-100000D01*
G01*
X135525000Y-65275000D01*
G75*
G02*
X135425000Y-65375000I-100000J0D01*
G01*
G37*
G04 #@! TD.AperFunction*
G04 #@! TA.AperFunction,SMDPad,CuDef*
G36*
G01*
X136075000Y-65375000D02*
X135875000Y-65375000D01*
G75*
G02*
X135775000Y-65275000I0J100000D01*
G01*
X135775000Y-64000000D01*
G75*
G02*
X135875000Y-63900000I100000J0D01*
G01*
X136075000Y-63900000D01*
G75*
G02*
X136175000Y-64000000I0J-100000D01*
G01*
X136175000Y-65275000D01*
G75*
G02*
X136075000Y-65375000I-100000J0D01*
G01*
G37*
G04 #@! TD.AperFunction*
G04 #@! TA.AperFunction,SMDPad,CuDef*
G36*
G01*
X136725000Y-65375000D02*
X136525000Y-65375000D01*
G75*
G02*
X136425000Y-65275000I0J100000D01*
G01*
X136425000Y-64000000D01*
G75*
G02*
X136525000Y-63900000I100000J0D01*
G01*
X136725000Y-63900000D01*
G75*
G02*
X136825000Y-64000000I0J-100000D01*
G01*
X136825000Y-65275000D01*
G75*
G02*
X136725000Y-65375000I-100000J0D01*
G01*
G37*
G04 #@! TD.AperFunction*
G04 #@! TA.AperFunction,SMDPad,CuDef*
G36*
G01*
X137375000Y-65375000D02*
X137175000Y-65375000D01*
G75*
G02*
X137075000Y-65275000I0J100000D01*
G01*
X137075000Y-64000000D01*
G75*
G02*
X137175000Y-63900000I100000J0D01*
G01*
X137375000Y-63900000D01*
G75*
G02*
X137475000Y-64000000I0J-100000D01*
G01*
X137475000Y-65275000D01*
G75*
G02*
X137375000Y-65375000I-100000J0D01*
G01*
G37*
G04 #@! TD.AperFunction*
G04 #@! TA.AperFunction,SMDPad,CuDef*
G36*
G01*
X138025000Y-65375000D02*
X137825000Y-65375000D01*
G75*
G02*
X137725000Y-65275000I0J100000D01*
G01*
X137725000Y-64000000D01*
G75*
G02*
X137825000Y-63900000I100000J0D01*
G01*
X138025000Y-63900000D01*
G75*
G02*
X138125000Y-64000000I0J-100000D01*
G01*
X138125000Y-65275000D01*
G75*
G02*
X138025000Y-65375000I-100000J0D01*
G01*
G37*
G04 #@! TD.AperFunction*
G04 #@! TA.AperFunction,SMDPad,CuDef*
G36*
G01*
X138675000Y-65375000D02*
X138475000Y-65375000D01*
G75*
G02*
X138375000Y-65275000I0J100000D01*
G01*
X138375000Y-64000000D01*
G75*
G02*
X138475000Y-63900000I100000J0D01*
G01*
X138675000Y-63900000D01*
G75*
G02*
X138775000Y-64000000I0J-100000D01*
G01*
X138775000Y-65275000D01*
G75*
G02*
X138675000Y-65375000I-100000J0D01*
G01*
G37*
G04 #@! TD.AperFunction*
G04 #@! TA.AperFunction,SMDPad,CuDef*
G36*
G01*
X139325000Y-65375000D02*
X139125000Y-65375000D01*
G75*
G02*
X139025000Y-65275000I0J100000D01*
G01*
X139025000Y-64000000D01*
G75*
G02*
X139125000Y-63900000I100000J0D01*
G01*
X139325000Y-63900000D01*
G75*
G02*
X139425000Y-64000000I0J-100000D01*
G01*
X139425000Y-65275000D01*
G75*
G02*
X139325000Y-65375000I-100000J0D01*
G01*
G37*
G04 #@! TD.AperFunction*
G04 #@! TA.AperFunction,SMDPad,CuDef*
G36*
G01*
X139975000Y-65375000D02*
X139775000Y-65375000D01*
G75*
G02*
X139675000Y-65275000I0J100000D01*
G01*
X139675000Y-64000000D01*
G75*
G02*
X139775000Y-63900000I100000J0D01*
G01*
X139975000Y-63900000D01*
G75*
G02*
X140075000Y-64000000I0J-100000D01*
G01*
X140075000Y-65275000D01*
G75*
G02*
X139975000Y-65375000I-100000J0D01*
G01*
G37*
G04 #@! TD.AperFunction*
G04 #@! TA.AperFunction,SMDPad,CuDef*
G36*
G01*
X140625000Y-65375000D02*
X140425000Y-65375000D01*
G75*
G02*
X140325000Y-65275000I0J100000D01*
G01*
X140325000Y-64000000D01*
G75*
G02*
X140425000Y-63900000I100000J0D01*
G01*
X140625000Y-63900000D01*
G75*
G02*
X140725000Y-64000000I0J-100000D01*
G01*
X140725000Y-65275000D01*
G75*
G02*
X140625000Y-65375000I-100000J0D01*
G01*
G37*
G04 #@! TD.AperFunction*
G04 #@! TA.AperFunction,SMDPad,CuDef*
G36*
G01*
X141275000Y-65375000D02*
X141075000Y-65375000D01*
G75*
G02*
X140975000Y-65275000I0J100000D01*
G01*
X140975000Y-64000000D01*
G75*
G02*
X141075000Y-63900000I100000J0D01*
G01*
X141275000Y-63900000D01*
G75*
G02*
X141375000Y-64000000I0J-100000D01*
G01*
X141375000Y-65275000D01*
G75*
G02*
X141275000Y-65375000I-100000J0D01*
G01*
G37*
G04 #@! TD.AperFunction*
G04 #@! TA.AperFunction,SMDPad,CuDef*
G36*
G01*
X141275000Y-71100000D02*
X141075000Y-71100000D01*
G75*
G02*
X140975000Y-71000000I0J100000D01*
G01*
X140975000Y-69725000D01*
G75*
G02*
X141075000Y-69625000I100000J0D01*
G01*
X141275000Y-69625000D01*
G75*
G02*
X141375000Y-69725000I0J-100000D01*
G01*
X141375000Y-71000000D01*
G75*
G02*
X141275000Y-71100000I-100000J0D01*
G01*
G37*
G04 #@! TD.AperFunction*
G04 #@! TA.AperFunction,SMDPad,CuDef*
G36*
G01*
X140625000Y-71100000D02*
X140425000Y-71100000D01*
G75*
G02*
X140325000Y-71000000I0J100000D01*
G01*
X140325000Y-69725000D01*
G75*
G02*
X140425000Y-69625000I100000J0D01*
G01*
X140625000Y-69625000D01*
G75*
G02*
X140725000Y-69725000I0J-100000D01*
G01*
X140725000Y-71000000D01*
G75*
G02*
X140625000Y-71100000I-100000J0D01*
G01*
G37*
G04 #@! TD.AperFunction*
G04 #@! TA.AperFunction,SMDPad,CuDef*
G36*
G01*
X139975000Y-71100000D02*
X139775000Y-71100000D01*
G75*
G02*
X139675000Y-71000000I0J100000D01*
G01*
X139675000Y-69725000D01*
G75*
G02*
X139775000Y-69625000I100000J0D01*
G01*
X139975000Y-69625000D01*
G75*
G02*
X140075000Y-69725000I0J-100000D01*
G01*
X140075000Y-71000000D01*
G75*
G02*
X139975000Y-71100000I-100000J0D01*
G01*
G37*
G04 #@! TD.AperFunction*
G04 #@! TA.AperFunction,SMDPad,CuDef*
G36*
G01*
X139325000Y-71100000D02*
X139125000Y-71100000D01*
G75*
G02*
X139025000Y-71000000I0J100000D01*
G01*
X139025000Y-69725000D01*
G75*
G02*
X139125000Y-69625000I100000J0D01*
G01*
X139325000Y-69625000D01*
G75*
G02*
X139425000Y-69725000I0J-100000D01*
G01*
X139425000Y-71000000D01*
G75*
G02*
X139325000Y-71100000I-100000J0D01*
G01*
G37*
G04 #@! TD.AperFunction*
G04 #@! TA.AperFunction,SMDPad,CuDef*
G36*
G01*
X138675000Y-71100000D02*
X138475000Y-71100000D01*
G75*
G02*
X138375000Y-71000000I0J100000D01*
G01*
X138375000Y-69725000D01*
G75*
G02*
X138475000Y-69625000I100000J0D01*
G01*
X138675000Y-69625000D01*
G75*
G02*
X138775000Y-69725000I0J-100000D01*
G01*
X138775000Y-71000000D01*
G75*
G02*
X138675000Y-71100000I-100000J0D01*
G01*
G37*
G04 #@! TD.AperFunction*
G04 #@! TA.AperFunction,SMDPad,CuDef*
G36*
G01*
X138025000Y-71100000D02*
X137825000Y-71100000D01*
G75*
G02*
X137725000Y-71000000I0J100000D01*
G01*
X137725000Y-69725000D01*
G75*
G02*
X137825000Y-69625000I100000J0D01*
G01*
X138025000Y-69625000D01*
G75*
G02*
X138125000Y-69725000I0J-100000D01*
G01*
X138125000Y-71000000D01*
G75*
G02*
X138025000Y-71100000I-100000J0D01*
G01*
G37*
G04 #@! TD.AperFunction*
G04 #@! TA.AperFunction,SMDPad,CuDef*
G36*
G01*
X137375000Y-71100000D02*
X137175000Y-71100000D01*
G75*
G02*
X137075000Y-71000000I0J100000D01*
G01*
X137075000Y-69725000D01*
G75*
G02*
X137175000Y-69625000I100000J0D01*
G01*
X137375000Y-69625000D01*
G75*
G02*
X137475000Y-69725000I0J-100000D01*
G01*
X137475000Y-71000000D01*
G75*
G02*
X137375000Y-71100000I-100000J0D01*
G01*
G37*
G04 #@! TD.AperFunction*
G04 #@! TA.AperFunction,SMDPad,CuDef*
G36*
G01*
X136725000Y-71100000D02*
X136525000Y-71100000D01*
G75*
G02*
X136425000Y-71000000I0J100000D01*
G01*
X136425000Y-69725000D01*
G75*
G02*
X136525000Y-69625000I100000J0D01*
G01*
X136725000Y-69625000D01*
G75*
G02*
X136825000Y-69725000I0J-100000D01*
G01*
X136825000Y-71000000D01*
G75*
G02*
X136725000Y-71100000I-100000J0D01*
G01*
G37*
G04 #@! TD.AperFunction*
G04 #@! TA.AperFunction,SMDPad,CuDef*
G36*
G01*
X136075000Y-71100000D02*
X135875000Y-71100000D01*
G75*
G02*
X135775000Y-71000000I0J100000D01*
G01*
X135775000Y-69725000D01*
G75*
G02*
X135875000Y-69625000I100000J0D01*
G01*
X136075000Y-69625000D01*
G75*
G02*
X136175000Y-69725000I0J-100000D01*
G01*
X136175000Y-71000000D01*
G75*
G02*
X136075000Y-71100000I-100000J0D01*
G01*
G37*
G04 #@! TD.AperFunction*
G04 #@! TA.AperFunction,SMDPad,CuDef*
G36*
G01*
X135425000Y-71100000D02*
X135225000Y-71100000D01*
G75*
G02*
X135125000Y-71000000I0J100000D01*
G01*
X135125000Y-69725000D01*
G75*
G02*
X135225000Y-69625000I100000J0D01*
G01*
X135425000Y-69625000D01*
G75*
G02*
X135525000Y-69725000I0J-100000D01*
G01*
X135525000Y-71000000D01*
G75*
G02*
X135425000Y-71100000I-100000J0D01*
G01*
G37*
G04 #@! TD.AperFunction*
G04 #@! TA.AperFunction,SMDPad,CuDef*
G36*
G01*
X134775000Y-71100000D02*
X134575000Y-71100000D01*
G75*
G02*
X134475000Y-71000000I0J100000D01*
G01*
X134475000Y-69725000D01*
G75*
G02*
X134575000Y-69625000I100000J0D01*
G01*
X134775000Y-69625000D01*
G75*
G02*
X134875000Y-69725000I0J-100000D01*
G01*
X134875000Y-71000000D01*
G75*
G02*
X134775000Y-71100000I-100000J0D01*
G01*
G37*
G04 #@! TD.AperFunction*
G04 #@! TA.AperFunction,SMDPad,CuDef*
G36*
G01*
X134125000Y-71100000D02*
X133925000Y-71100000D01*
G75*
G02*
X133825000Y-71000000I0J100000D01*
G01*
X133825000Y-69725000D01*
G75*
G02*
X133925000Y-69625000I100000J0D01*
G01*
X134125000Y-69625000D01*
G75*
G02*
X134225000Y-69725000I0J-100000D01*
G01*
X134225000Y-71000000D01*
G75*
G02*
X134125000Y-71100000I-100000J0D01*
G01*
G37*
G04 #@! TD.AperFunction*
G04 #@! TA.AperFunction,SMDPad,CuDef*
G36*
G01*
X142425000Y-55325000D02*
X142975000Y-55325000D01*
G75*
G02*
X143175000Y-55525000I0J-200000D01*
G01*
X143175000Y-55925000D01*
G75*
G02*
X142975000Y-56125000I-200000J0D01*
G01*
X142425000Y-56125000D01*
G75*
G02*
X142225000Y-55925000I0J200000D01*
G01*
X142225000Y-55525000D01*
G75*
G02*
X142425000Y-55325000I200000J0D01*
G01*
G37*
G04 #@! TD.AperFunction*
G04 #@! TA.AperFunction,SMDPad,CuDef*
G36*
G01*
X142425000Y-53675000D02*
X142975000Y-53675000D01*
G75*
G02*
X143175000Y-53875000I0J-200000D01*
G01*
X143175000Y-54275000D01*
G75*
G02*
X142975000Y-54475000I-200000J0D01*
G01*
X142425000Y-54475000D01*
G75*
G02*
X142225000Y-54275000I0J200000D01*
G01*
X142225000Y-53875000D01*
G75*
G02*
X142425000Y-53675000I200000J0D01*
G01*
G37*
G04 #@! TD.AperFunction*
D20*
X34300000Y-138900000D03*
X172600000Y-138900000D03*
X172700000Y-37800000D03*
X34300000Y-37800000D03*
G04 #@! TA.AperFunction,SMDPad,CuDef*
G36*
G01*
X55075000Y-89450000D02*
X55075000Y-89950000D01*
G75*
G02*
X54850000Y-90175000I-225000J0D01*
G01*
X54400000Y-90175000D01*
G75*
G02*
X54175000Y-89950000I0J225000D01*
G01*
X54175000Y-89450000D01*
G75*
G02*
X54400000Y-89225000I225000J0D01*
G01*
X54850000Y-89225000D01*
G75*
G02*
X55075000Y-89450000I0J-225000D01*
G01*
G37*
G04 #@! TD.AperFunction*
G04 #@! TA.AperFunction,SMDPad,CuDef*
G36*
G01*
X56625000Y-89450000D02*
X56625000Y-89950000D01*
G75*
G02*
X56400000Y-90175000I-225000J0D01*
G01*
X55950000Y-90175000D01*
G75*
G02*
X55725000Y-89950000I0J225000D01*
G01*
X55725000Y-89450000D01*
G75*
G02*
X55950000Y-89225000I225000J0D01*
G01*
X56400000Y-89225000D01*
G75*
G02*
X56625000Y-89450000I0J-225000D01*
G01*
G37*
G04 #@! TD.AperFunction*
G04 #@! TA.AperFunction,SMDPad,CuDef*
G36*
G01*
X52275000Y-105650000D02*
X52275000Y-106150000D01*
G75*
G02*
X52050000Y-106375000I-225000J0D01*
G01*
X51600000Y-106375000D01*
G75*
G02*
X51375000Y-106150000I0J225000D01*
G01*
X51375000Y-105650000D01*
G75*
G02*
X51600000Y-105425000I225000J0D01*
G01*
X52050000Y-105425000D01*
G75*
G02*
X52275000Y-105650000I0J-225000D01*
G01*
G37*
G04 #@! TD.AperFunction*
G04 #@! TA.AperFunction,SMDPad,CuDef*
G36*
G01*
X53825000Y-105650000D02*
X53825000Y-106150000D01*
G75*
G02*
X53600000Y-106375000I-225000J0D01*
G01*
X53150000Y-106375000D01*
G75*
G02*
X52925000Y-106150000I0J225000D01*
G01*
X52925000Y-105650000D01*
G75*
G02*
X53150000Y-105425000I225000J0D01*
G01*
X53600000Y-105425000D01*
G75*
G02*
X53825000Y-105650000I0J-225000D01*
G01*
G37*
G04 #@! TD.AperFunction*
G04 #@! TA.AperFunction,SMDPad,CuDef*
G36*
G01*
X52375000Y-128050000D02*
X52375000Y-128550000D01*
G75*
G02*
X52150000Y-128775000I-225000J0D01*
G01*
X51700000Y-128775000D01*
G75*
G02*
X51475000Y-128550000I0J225000D01*
G01*
X51475000Y-128050000D01*
G75*
G02*
X51700000Y-127825000I225000J0D01*
G01*
X52150000Y-127825000D01*
G75*
G02*
X52375000Y-128050000I0J-225000D01*
G01*
G37*
G04 #@! TD.AperFunction*
G04 #@! TA.AperFunction,SMDPad,CuDef*
G36*
G01*
X53925000Y-128050000D02*
X53925000Y-128550000D01*
G75*
G02*
X53700000Y-128775000I-225000J0D01*
G01*
X53250000Y-128775000D01*
G75*
G02*
X53025000Y-128550000I0J225000D01*
G01*
X53025000Y-128050000D01*
G75*
G02*
X53250000Y-127825000I225000J0D01*
G01*
X53700000Y-127825000D01*
G75*
G02*
X53925000Y-128050000I0J-225000D01*
G01*
G37*
G04 #@! TD.AperFunction*
G04 #@! TA.AperFunction,SMDPad,CuDef*
G36*
G01*
X39075000Y-76175000D02*
X38525000Y-76175000D01*
G75*
G02*
X38325000Y-75975000I0J200000D01*
G01*
X38325000Y-75575000D01*
G75*
G02*
X38525000Y-75375000I200000J0D01*
G01*
X39075000Y-75375000D01*
G75*
G02*
X39275000Y-75575000I0J-200000D01*
G01*
X39275000Y-75975000D01*
G75*
G02*
X39075000Y-76175000I-200000J0D01*
G01*
G37*
G04 #@! TD.AperFunction*
G04 #@! TA.AperFunction,SMDPad,CuDef*
G36*
G01*
X39075000Y-77825000D02*
X38525000Y-77825000D01*
G75*
G02*
X38325000Y-77625000I0J200000D01*
G01*
X38325000Y-77225000D01*
G75*
G02*
X38525000Y-77025000I200000J0D01*
G01*
X39075000Y-77025000D01*
G75*
G02*
X39275000Y-77225000I0J-200000D01*
G01*
X39275000Y-77625000D01*
G75*
G02*
X39075000Y-77825000I-200000J0D01*
G01*
G37*
G04 #@! TD.AperFunction*
G04 #@! TA.AperFunction,SMDPad,CuDef*
G36*
G01*
X39775000Y-72525000D02*
X39775000Y-73075000D01*
G75*
G02*
X39575000Y-73275000I-200000J0D01*
G01*
X39175000Y-73275000D01*
G75*
G02*
X38975000Y-73075000I0J200000D01*
G01*
X38975000Y-72525000D01*
G75*
G02*
X39175000Y-72325000I200000J0D01*
G01*
X39575000Y-72325000D01*
G75*
G02*
X39775000Y-72525000I0J-200000D01*
G01*
G37*
G04 #@! TD.AperFunction*
G04 #@! TA.AperFunction,SMDPad,CuDef*
G36*
G01*
X41425000Y-72525000D02*
X41425000Y-73075000D01*
G75*
G02*
X41225000Y-73275000I-200000J0D01*
G01*
X40825000Y-73275000D01*
G75*
G02*
X40625000Y-73075000I0J200000D01*
G01*
X40625000Y-72525000D01*
G75*
G02*
X40825000Y-72325000I200000J0D01*
G01*
X41225000Y-72325000D01*
G75*
G02*
X41425000Y-72525000I0J-200000D01*
G01*
G37*
G04 #@! TD.AperFunction*
G04 #@! TA.AperFunction,SMDPad,CuDef*
G36*
G01*
X52875000Y-85975000D02*
X52325000Y-85975000D01*
G75*
G02*
X52125000Y-85775000I0J200000D01*
G01*
X52125000Y-85375000D01*
G75*
G02*
X52325000Y-85175000I200000J0D01*
G01*
X52875000Y-85175000D01*
G75*
G02*
X53075000Y-85375000I0J-200000D01*
G01*
X53075000Y-85775000D01*
G75*
G02*
X52875000Y-85975000I-200000J0D01*
G01*
G37*
G04 #@! TD.AperFunction*
G04 #@! TA.AperFunction,SMDPad,CuDef*
G36*
G01*
X52875000Y-87625000D02*
X52325000Y-87625000D01*
G75*
G02*
X52125000Y-87425000I0J200000D01*
G01*
X52125000Y-87025000D01*
G75*
G02*
X52325000Y-86825000I200000J0D01*
G01*
X52875000Y-86825000D01*
G75*
G02*
X53075000Y-87025000I0J-200000D01*
G01*
X53075000Y-87425000D01*
G75*
G02*
X52875000Y-87625000I-200000J0D01*
G01*
G37*
G04 #@! TD.AperFunction*
G04 #@! TA.AperFunction,SMDPad,CuDef*
G36*
G01*
X52825000Y-80725000D02*
X53375000Y-80725000D01*
G75*
G02*
X53575000Y-80925000I0J-200000D01*
G01*
X53575000Y-81325000D01*
G75*
G02*
X53375000Y-81525000I-200000J0D01*
G01*
X52825000Y-81525000D01*
G75*
G02*
X52625000Y-81325000I0J200000D01*
G01*
X52625000Y-80925000D01*
G75*
G02*
X52825000Y-80725000I200000J0D01*
G01*
G37*
G04 #@! TD.AperFunction*
G04 #@! TA.AperFunction,SMDPad,CuDef*
G36*
G01*
X52825000Y-79075000D02*
X53375000Y-79075000D01*
G75*
G02*
X53575000Y-79275000I0J-200000D01*
G01*
X53575000Y-79675000D01*
G75*
G02*
X53375000Y-79875000I-200000J0D01*
G01*
X52825000Y-79875000D01*
G75*
G02*
X52625000Y-79675000I0J200000D01*
G01*
X52625000Y-79275000D01*
G75*
G02*
X52825000Y-79075000I200000J0D01*
G01*
G37*
G04 #@! TD.AperFunction*
D21*
X50700000Y-85555001D03*
X48700000Y-86505001D03*
X48700000Y-84605001D03*
X51000000Y-81100000D03*
X49000000Y-82050000D03*
X49000000Y-80150000D03*
X42900000Y-80800000D03*
X40900000Y-81750000D03*
X40900000Y-79850000D03*
D22*
X44500000Y-134600000D03*
X44200000Y-125200000D03*
X44400000Y-113400000D03*
X55500000Y-68400000D03*
X44300000Y-73800000D03*
X53900000Y-71500000D03*
X44500000Y-89800000D03*
X44800000Y-96500000D03*
X48600000Y-123200000D03*
X49500000Y-90400000D03*
X53600000Y-107300000D03*
X53400000Y-104500000D03*
X44500000Y-132700000D03*
X56100000Y-88500000D03*
X53400000Y-117500000D03*
X53500000Y-126900000D03*
D23*
X130900000Y-132000000D03*
X130900000Y-134000000D03*
X143400000Y-137800000D03*
X143400000Y-135300000D03*
D22*
X138000000Y-56100000D03*
X141400000Y-93700000D03*
X141200000Y-72000000D03*
X136100000Y-42900000D03*
X140500000Y-115500000D03*
X143900000Y-117100000D03*
X140400000Y-97900000D03*
X163000000Y-97700000D03*
X165200000Y-113700000D03*
X138600000Y-82400000D03*
X141600000Y-74500000D03*
X141500000Y-82500000D03*
X137700000Y-109400000D03*
X137700000Y-100200000D03*
X153000000Y-119200000D03*
X146700000Y-129800000D03*
X154500000Y-129900000D03*
X148300000Y-135500000D03*
X148300000Y-139000000D03*
X169900000Y-106400000D03*
X168000000Y-99000000D03*
X139200000Y-87600000D03*
X141750000Y-87700000D03*
X170100000Y-96400000D03*
X46500000Y-58700000D03*
X160000000Y-113000000D03*
X160100000Y-114400000D03*
D23*
X37100000Y-75800000D03*
X38300000Y-71600000D03*
X38100000Y-73600000D03*
D22*
X156600000Y-98200000D03*
X130750000Y-61000000D03*
X139700000Y-93700000D03*
X139000000Y-115500000D03*
X143900000Y-118500000D03*
X168400000Y-108200000D03*
X168700000Y-96300000D03*
X130399992Y-54600000D03*
D23*
X76600000Y-127900000D03*
X76600000Y-129100000D03*
X76600000Y-126600000D03*
D22*
X137600000Y-42900000D03*
X141200000Y-78000000D03*
X154500000Y-128300000D03*
X140500000Y-99500000D03*
X156600000Y-99800000D03*
D23*
X123900000Y-69900000D03*
X123700000Y-71500000D03*
D22*
X163700000Y-115800000D03*
D23*
X132500000Y-69900000D03*
X132500000Y-71500000D03*
D22*
X44200000Y-123900000D03*
X55500000Y-70000000D03*
X44300000Y-71200000D03*
X53100000Y-78200000D03*
X44399998Y-107200000D03*
X48300000Y-133300000D03*
D23*
X61700000Y-90300000D03*
D22*
X51800000Y-104500000D03*
X51800000Y-117500000D03*
X52000000Y-126900000D03*
D23*
X61400000Y-113800000D03*
X61400000Y-112000000D03*
X61400000Y-115100000D03*
X61600000Y-91900000D03*
X61600000Y-93300000D03*
X61300002Y-72600000D03*
X61300000Y-73800000D03*
X61300000Y-75100000D03*
D22*
X132600000Y-62300000D03*
X135975000Y-67725000D03*
X51400000Y-88300000D03*
X136000000Y-59300000D03*
D23*
X53800000Y-52100000D03*
X54000000Y-55000000D03*
X53800000Y-53600000D03*
X123500000Y-130200000D03*
X44400000Y-80700000D03*
X43299998Y-79400000D03*
X43900000Y-82100000D03*
X44600000Y-76100000D03*
D22*
X47875000Y-79025000D03*
X54600000Y-88500000D03*
X47900000Y-83900000D03*
X44000000Y-128800000D03*
X43400000Y-130200000D03*
X42900000Y-107300000D03*
X56300001Y-84800000D03*
X123300002Y-67300000D03*
X85959999Y-84739995D03*
X87100000Y-67300000D03*
X60600000Y-50100000D03*
X54600000Y-81100000D03*
X124000000Y-66300000D03*
X84400000Y-66200000D03*
X83400000Y-81100000D03*
X53800000Y-95600000D03*
X74100000Y-57000000D03*
X54800000Y-109600000D03*
X72975000Y-109525000D03*
X134200000Y-136500000D03*
X74100000Y-96800000D03*
X74040000Y-116840000D03*
X74200000Y-134600000D03*
X73800000Y-76900000D03*
X55500000Y-107200000D03*
X134400000Y-139800000D03*
X74700000Y-107200000D03*
X58800000Y-70900000D03*
X59100000Y-91200000D03*
X58100000Y-98300000D03*
X49600004Y-98600000D03*
X93499998Y-111100004D03*
X50900000Y-97600000D03*
X90900000Y-106300000D03*
X48600000Y-131900000D03*
X47800000Y-121300000D03*
X133800000Y-53600000D03*
X136200000Y-62900000D03*
X151700000Y-124200000D03*
X138900000Y-42700000D03*
X136400000Y-116799988D03*
X125500000Y-54400000D03*
X138200000Y-49300000D03*
X131500000Y-51000000D03*
X107029999Y-61500000D03*
X130550000Y-73750000D03*
X72100000Y-45400002D03*
X74100000Y-38100000D03*
X71900000Y-62000002D03*
X64800000Y-55300000D03*
X72000000Y-78300000D03*
X65300000Y-75400002D03*
X69600000Y-100900000D03*
X64900000Y-98000000D03*
X56300000Y-133300000D03*
X79500000Y-130600000D03*
X54500000Y-123900000D03*
X54600000Y-125300000D03*
X82000002Y-125300002D03*
X142500000Y-57200008D03*
X141600000Y-109600000D03*
X141600000Y-100100000D03*
X131500000Y-107600000D03*
X132900000Y-74600000D03*
X133830331Y-100230331D03*
X134300000Y-74600000D03*
X144900000Y-65900000D03*
X149200000Y-86200000D03*
X134800000Y-87700000D03*
X135900000Y-74600000D03*
X137500000Y-74600000D03*
X134800000Y-78500000D03*
X148000000Y-77100000D03*
X144799997Y-67099997D03*
X135000000Y-53500000D03*
X137600000Y-63100000D03*
X146600000Y-99400000D03*
X144800000Y-68800000D03*
X145300000Y-108800000D03*
X144800000Y-70299999D03*
X146700000Y-124100000D03*
X142900000Y-104000000D03*
D24*
X44525000Y-134575000D02*
X44500000Y-134600000D01*
X46137500Y-134575000D02*
X44525000Y-134575000D01*
X44225000Y-125175000D02*
X44200000Y-125200000D01*
X46037500Y-125175000D02*
X44225000Y-125175000D01*
X44425000Y-113425000D02*
X44400000Y-113400000D01*
X46037500Y-113425000D02*
X44425000Y-113425000D01*
D25*
X55475000Y-68425000D02*
X55500000Y-68400000D01*
X54000000Y-68425000D02*
X55475000Y-68425000D01*
X44305000Y-73805000D02*
X44300000Y-73800000D01*
X46425000Y-73805000D02*
X44305000Y-73805000D01*
D24*
X53665000Y-71265000D02*
X53900000Y-71500000D01*
X51375000Y-71265000D02*
X53665000Y-71265000D01*
D26*
X44525000Y-89775000D02*
X44500000Y-89800000D01*
X46037500Y-89775000D02*
X44525000Y-89775000D01*
X45675000Y-95625000D02*
X44800000Y-96500000D01*
X46037500Y-95625000D02*
X45675000Y-95625000D01*
D24*
X48575000Y-123225000D02*
X48600000Y-123200000D01*
X46037500Y-123225000D02*
X48575000Y-123225000D01*
X49525000Y-90425000D02*
X49500000Y-90400000D01*
X51762500Y-90425000D02*
X49525000Y-90425000D01*
D27*
X53375000Y-107075000D02*
X53600000Y-107300000D01*
X53375000Y-105900000D02*
X53375000Y-107075000D01*
D26*
X52675000Y-108225000D02*
X53600000Y-107300000D01*
X51762500Y-108225000D02*
X52675000Y-108225000D01*
D27*
X53375000Y-104525000D02*
X53400000Y-104500000D01*
X53375000Y-105900000D02*
X53375000Y-104525000D01*
D26*
X44575000Y-132625000D02*
X44500000Y-132700000D01*
X46137500Y-132625000D02*
X44575000Y-132625000D01*
D24*
X56175000Y-88575000D02*
X56100000Y-88500000D01*
X56175000Y-89700000D02*
X56175000Y-88575000D01*
D27*
X53375000Y-117525000D02*
X53400000Y-117500000D01*
X53375000Y-118900000D02*
X53375000Y-117525000D01*
X53475000Y-126925000D02*
X53500000Y-126900000D01*
X53475000Y-128300000D02*
X53475000Y-126925000D01*
D25*
X132325000Y-132000000D02*
X130900000Y-132000000D01*
X132325000Y-134000000D02*
X130900000Y-134000000D01*
X143395000Y-137805000D02*
X143400000Y-137800000D01*
X141275000Y-137805000D02*
X143395000Y-137805000D01*
X143365000Y-135265000D02*
X143400000Y-135300000D01*
X141275000Y-135265000D02*
X143365000Y-135265000D01*
D27*
X137975000Y-56075000D02*
X138000000Y-56100000D01*
X137975000Y-54600000D02*
X137975000Y-56075000D01*
D25*
X141135000Y-89750000D02*
X141135000Y-91235000D01*
X141375000Y-91475000D02*
X141375000Y-92400000D01*
X141135000Y-91235000D02*
X141375000Y-91475000D01*
X141375000Y-93675000D02*
X141400000Y-93700000D01*
X141375000Y-92400000D02*
X141375000Y-93675000D01*
D24*
X141175000Y-71975000D02*
X141200000Y-72000000D01*
X141175000Y-70362500D02*
X141175000Y-71975000D01*
X136025000Y-42975000D02*
X136100000Y-42900000D01*
X136025000Y-44200000D02*
X136025000Y-42975000D01*
X136295000Y-46725000D02*
X136295000Y-45495000D01*
X136025000Y-45225000D02*
X136025000Y-44200000D01*
X136295000Y-45495000D02*
X136025000Y-45225000D01*
D25*
X140235000Y-113760000D02*
X140575000Y-114100000D01*
X140235000Y-111350000D02*
X140235000Y-113760000D01*
D24*
X140575000Y-113625000D02*
X140575000Y-114100000D01*
D25*
X140575000Y-115425000D02*
X140500000Y-115500000D01*
X140575000Y-114100000D02*
X140575000Y-115425000D01*
X143975000Y-117025000D02*
X143900000Y-117100000D01*
X145300000Y-117025000D02*
X143975000Y-117025000D01*
D24*
X140275000Y-98025000D02*
X140400000Y-97900000D01*
X139100000Y-98025000D02*
X140275000Y-98025000D01*
X161125000Y-97735000D02*
X159465000Y-97735000D01*
X158975000Y-98225000D02*
X158100000Y-98225000D01*
X159465000Y-97735000D02*
X158975000Y-98225000D01*
D26*
X162965000Y-97735000D02*
X163000000Y-97700000D01*
X161125000Y-97735000D02*
X162965000Y-97735000D01*
D24*
X165205000Y-113705000D02*
X165200000Y-113700000D01*
X167275000Y-113705000D02*
X165205000Y-113705000D01*
D26*
X138595000Y-82395000D02*
X138600000Y-82400000D01*
X138595000Y-80450000D02*
X138595000Y-82395000D01*
D27*
X139800000Y-76300000D02*
X141600000Y-74500000D01*
X139800000Y-76425000D02*
X139800000Y-76300000D01*
X142405000Y-81595000D02*
X141500000Y-82500000D01*
X142405000Y-80450000D02*
X142405000Y-81595000D01*
D26*
X138595000Y-88305000D02*
X138595000Y-89750000D01*
X137695000Y-109405000D02*
X137700000Y-109400000D01*
X137695000Y-111350000D02*
X137695000Y-109405000D01*
X137695000Y-100205000D02*
X137700000Y-100200000D01*
X137695000Y-102050000D02*
X137695000Y-100205000D01*
D24*
X153010000Y-119210000D02*
X153000000Y-119200000D01*
X153010000Y-121025000D02*
X153010000Y-119210000D01*
X146625000Y-129875000D02*
X146700000Y-129800000D01*
X145300000Y-129875000D02*
X146625000Y-129875000D01*
D25*
X154425000Y-129975000D02*
X154500000Y-129900000D01*
X153100000Y-129975000D02*
X154425000Y-129975000D01*
D24*
X148375000Y-135575000D02*
X148300000Y-135500000D01*
X149700000Y-135575000D02*
X148375000Y-135575000D01*
X148325000Y-138975000D02*
X148300000Y-139000000D01*
X149700000Y-138975000D02*
X148325000Y-138975000D01*
D25*
X169900000Y-107825000D02*
X169900000Y-106400000D01*
X167995000Y-99005000D02*
X168000000Y-99000000D01*
X166075000Y-99005000D02*
X167995000Y-99005000D01*
D26*
X138595000Y-88205000D02*
X139200000Y-87600000D01*
X138595000Y-88305000D02*
X138595000Y-88205000D01*
X142405000Y-88355000D02*
X141750000Y-87700000D01*
X142405000Y-89750000D02*
X142405000Y-88355000D01*
D27*
X170175000Y-96325000D02*
X170100000Y-96400000D01*
X170175000Y-95100000D02*
X170175000Y-96325000D01*
D26*
X48800000Y-58700000D02*
X46500000Y-58700000D01*
D24*
X162325000Y-112435000D02*
X160565000Y-112435000D01*
X160565000Y-112435000D02*
X160000000Y-113000000D01*
D25*
X160725000Y-115800000D02*
X160725000Y-115025000D01*
X160725000Y-115025000D02*
X160100000Y-114400000D01*
X37125000Y-75775000D02*
X37100000Y-75800000D01*
X38800000Y-75775000D02*
X37125000Y-75775000D01*
X39375000Y-72675000D02*
X38300000Y-71600000D01*
X39375000Y-72800000D02*
X39375000Y-72675000D01*
X38900000Y-72800000D02*
X38100000Y-73600000D01*
X39375000Y-72800000D02*
X38900000Y-72800000D01*
D24*
X156625000Y-98225000D02*
X156600000Y-98200000D01*
X158100000Y-98225000D02*
X156625000Y-98225000D01*
X130925000Y-60825000D02*
X130750000Y-61000000D01*
X134000000Y-60825000D02*
X130925000Y-60825000D01*
X42000000Y-77500000D02*
X42000000Y-80650000D01*
X42000000Y-80650000D02*
X40900000Y-81750000D01*
D25*
X35990000Y-79350000D02*
X35940000Y-79300000D01*
D27*
X136295000Y-54470000D02*
X136425000Y-54600000D01*
X136295000Y-51675000D02*
X136295000Y-54470000D01*
D25*
X139865000Y-92360000D02*
X139825000Y-92400000D01*
X139865000Y-89750000D02*
X139865000Y-92360000D01*
X139825000Y-93575000D02*
X139700000Y-93700000D01*
X139825000Y-92400000D02*
X139825000Y-93575000D01*
X138965000Y-114040000D02*
X139025000Y-114100000D01*
X138965000Y-111350000D02*
X138965000Y-114040000D01*
X139025000Y-115475000D02*
X139000000Y-115500000D01*
X139025000Y-114100000D02*
X139025000Y-115475000D01*
X145225000Y-118500000D02*
X145300000Y-118575000D01*
X143900000Y-118500000D02*
X145225000Y-118500000D01*
X145390000Y-118665000D02*
X145300000Y-118575000D01*
X145390000Y-121025000D02*
X145390000Y-118665000D01*
D24*
X169575000Y-109375000D02*
X169900000Y-109375000D01*
D25*
X168400000Y-108200000D02*
X169575000Y-109375000D01*
X169380000Y-109895000D02*
X169900000Y-109375000D01*
X167275000Y-109895000D02*
X169380000Y-109895000D01*
D27*
X168530000Y-95195000D02*
X168625000Y-95100000D01*
X166075000Y-95195000D02*
X168530000Y-95195000D01*
X168625000Y-96225000D02*
X168700000Y-96300000D01*
X168625000Y-95100000D02*
X168625000Y-96225000D01*
D25*
X136425000Y-54600000D02*
X130399992Y-54600000D01*
D24*
X137565000Y-44210000D02*
X137575000Y-44200000D01*
X137565000Y-46725000D02*
X137565000Y-44210000D01*
D25*
X137600000Y-44175000D02*
X137575000Y-44200000D01*
X137600000Y-42900000D02*
X137600000Y-44175000D01*
X139825000Y-78000000D02*
X139800000Y-77975000D01*
X141200000Y-78000000D02*
X139825000Y-78000000D01*
X139865000Y-78040000D02*
X139800000Y-77975000D01*
X139865000Y-80450000D02*
X139865000Y-78040000D01*
X153225000Y-128300000D02*
X153100000Y-128425000D01*
X154500000Y-128300000D02*
X153225000Y-128300000D01*
X153010000Y-128335000D02*
X153100000Y-128425000D01*
X153010000Y-125975000D02*
X153010000Y-128335000D01*
X138965000Y-99710000D02*
X139100000Y-99575000D01*
X138965000Y-102050000D02*
X138965000Y-99710000D01*
X140425000Y-99575000D02*
X140500000Y-99500000D01*
X139100000Y-99575000D02*
X140425000Y-99575000D01*
X156625000Y-99775000D02*
X156600000Y-99800000D01*
X158100000Y-99775000D02*
X156625000Y-99775000D01*
D24*
X161125000Y-99005000D02*
X160095000Y-99005000D01*
X159325000Y-99775000D02*
X158100000Y-99775000D01*
X160095000Y-99005000D02*
X159325000Y-99775000D01*
D28*
X123900000Y-69900000D02*
X124500000Y-70500000D01*
X124500000Y-70700000D02*
X124500000Y-70500000D01*
X123700000Y-71500000D02*
X124500000Y-70700000D01*
D25*
X162275000Y-115800000D02*
X163700000Y-115800000D01*
X162325000Y-113705000D02*
X162325000Y-115750000D01*
X162325000Y-115750000D02*
X162275000Y-115800000D01*
D28*
X131500000Y-70500000D02*
X124700000Y-70500000D01*
X124700000Y-70500000D02*
X124500000Y-70700000D01*
X132500000Y-71500000D02*
X131500000Y-70500000D01*
X131900000Y-70500000D02*
X131500000Y-70500000D01*
X132500000Y-69900000D02*
X131900000Y-70500000D01*
D24*
X44225000Y-123875000D02*
X44200000Y-123900000D01*
X46037500Y-123875000D02*
X44225000Y-123875000D01*
D25*
X53980000Y-69995000D02*
X54000000Y-69975000D01*
X51375000Y-69995000D02*
X53980000Y-69995000D01*
X55475000Y-69975000D02*
X55500000Y-70000000D01*
X54000000Y-69975000D02*
X55475000Y-69975000D01*
D24*
X46425000Y-69995000D02*
X45405000Y-69995000D01*
X44300000Y-71100000D02*
X44300000Y-71200000D01*
X45405000Y-69995000D02*
X44300000Y-71100000D01*
X46360000Y-71200000D02*
X46425000Y-71265000D01*
X44300000Y-71200000D02*
X46360000Y-71200000D01*
X44300000Y-71200000D02*
X44300000Y-71900000D01*
X44935000Y-72535000D02*
X46425000Y-72535000D01*
X44300000Y-71900000D02*
X44935000Y-72535000D01*
D25*
X53100000Y-79475000D02*
X53100000Y-78200000D01*
D24*
X46037500Y-107575000D02*
X44774998Y-107575000D01*
X44774998Y-107575000D02*
X44399998Y-107200000D01*
D26*
X48275000Y-133275000D02*
X48300000Y-133300000D01*
X46137500Y-133275000D02*
X48275000Y-133275000D01*
D27*
X51825000Y-107512500D02*
X51762500Y-107575000D01*
X51825000Y-105900000D02*
X51825000Y-107512500D01*
X51825000Y-104525000D02*
X51800000Y-104500000D01*
X51825000Y-105900000D02*
X51825000Y-104525000D01*
X51762500Y-118962500D02*
X51825000Y-118900000D01*
X51762500Y-120625000D02*
X51762500Y-118962500D01*
X51825000Y-117525000D02*
X51800000Y-117500000D01*
X51825000Y-118900000D02*
X51825000Y-117525000D01*
X51862500Y-128362500D02*
X51925000Y-128300000D01*
X51862500Y-130025000D02*
X51862500Y-128362500D01*
X51925000Y-126975000D02*
X52000000Y-126900000D01*
X51925000Y-128300000D02*
X51925000Y-126975000D01*
D24*
X134025000Y-64637500D02*
X134025000Y-62400000D01*
D26*
X134675000Y-69225000D02*
X135975000Y-67925000D01*
X134675000Y-70362500D02*
X134675000Y-69225000D01*
X135325000Y-68575000D02*
X135325000Y-70362500D01*
X135975000Y-67925000D02*
X135325000Y-68575000D01*
D25*
X133875000Y-132000000D02*
X133875000Y-134000000D01*
X136320000Y-134000000D02*
X136325000Y-133995000D01*
X133875000Y-134000000D02*
X136320000Y-134000000D01*
X134025000Y-62400000D02*
X134000000Y-62375000D01*
X134000000Y-62375000D02*
X132675000Y-62375000D01*
X132675000Y-62375000D02*
X132600000Y-62300000D01*
D26*
X135975000Y-67725000D02*
X135975000Y-67925000D01*
X135975000Y-64637500D02*
X135975000Y-67725000D01*
D25*
X52475000Y-87225000D02*
X51400000Y-88300000D01*
X52600000Y-87225000D02*
X52475000Y-87225000D01*
D26*
X134000000Y-62375000D02*
X134437500Y-62375000D01*
X136000000Y-60787500D02*
X136012500Y-60800000D01*
X136000000Y-59300000D02*
X136000000Y-60787500D01*
D28*
X94780000Y-36180000D02*
X94780000Y-36800000D01*
X93200000Y-34600000D02*
X94780000Y-36180000D01*
X50500000Y-34600000D02*
X93200000Y-34600000D01*
X48300000Y-36800000D02*
X50500000Y-34600000D01*
D25*
X132550000Y-130200000D02*
X123500000Y-130200000D01*
X133875000Y-132000000D02*
X133875000Y-131525000D01*
X133875000Y-131525000D02*
X132550000Y-130200000D01*
X44300000Y-80800000D02*
X44400000Y-80700000D01*
X42900000Y-80800000D02*
X44300000Y-80800000D01*
X42900000Y-80800000D02*
X42900000Y-79799998D01*
X42900000Y-79799998D02*
X43299998Y-79400000D01*
X42900000Y-80800000D02*
X43000000Y-80800000D01*
X42900000Y-81100000D02*
X43900000Y-82100000D01*
X42900000Y-80800000D02*
X42900000Y-81100000D01*
X42950000Y-77500000D02*
X43200000Y-77500000D01*
X43200000Y-77500000D02*
X44600000Y-76100000D01*
D26*
X33400000Y-81859998D02*
X33400000Y-81840000D01*
X49000000Y-82050000D02*
X48250000Y-82050000D01*
X34720001Y-83179999D02*
X33400000Y-81859998D01*
X47120001Y-83179999D02*
X34720001Y-83179999D01*
X48250000Y-82050000D02*
X47120001Y-83179999D01*
D24*
X48505001Y-86700000D02*
X48700000Y-86505001D01*
X37130001Y-85630001D02*
X38200000Y-86700000D01*
X38200000Y-86700000D02*
X48505001Y-86700000D01*
X34650001Y-85630001D02*
X37130001Y-85630001D01*
X33400000Y-84380000D02*
X34650001Y-85630001D01*
X54550000Y-89775000D02*
X54600000Y-89825000D01*
X51762500Y-89775000D02*
X54550000Y-89775000D01*
D25*
X49000000Y-80150000D02*
X47875000Y-79025000D01*
X54600000Y-88500000D02*
X54600000Y-89825000D01*
X47994999Y-83900000D02*
X48700000Y-84605001D01*
X47900000Y-83900000D02*
X47994999Y-83900000D01*
D26*
X44825000Y-120625000D02*
X46037500Y-120625000D01*
X42939999Y-118739999D02*
X44825000Y-120625000D01*
X34600001Y-118739999D02*
X42939999Y-118739999D01*
X33400000Y-119940000D02*
X34600001Y-118739999D01*
X45225000Y-130025000D02*
X44000000Y-128800000D01*
X46137500Y-130025000D02*
X45225000Y-130025000D01*
X34605000Y-121275000D02*
X46037500Y-121275000D01*
X33400000Y-122480000D02*
X34605000Y-121275000D01*
X43875000Y-130675000D02*
X43400000Y-130200000D01*
X46137500Y-130675000D02*
X43875000Y-130675000D01*
X34600001Y-123819999D02*
X42480001Y-123819999D01*
X33400000Y-125020000D02*
X34600001Y-123819999D01*
X44375000Y-121925000D02*
X46037500Y-121925000D01*
X42480001Y-123819999D02*
X44375000Y-121925000D01*
X37928998Y-131325000D02*
X46137500Y-131325000D01*
X34739999Y-126359999D02*
X34739999Y-128136001D01*
X34739999Y-128136001D02*
X37928998Y-131325000D01*
X33400000Y-125020000D02*
X34739999Y-126359999D01*
X43825000Y-108225000D02*
X42900000Y-107300000D01*
X46037500Y-108225000D02*
X43825000Y-108225000D01*
X33400000Y-104700000D02*
X34739999Y-106039999D01*
X34739999Y-106039999D02*
X37760001Y-106039999D01*
X46961394Y-94975000D02*
X46037500Y-94975000D01*
X47600000Y-95613606D02*
X46961394Y-94975000D01*
X47600000Y-96200000D02*
X47600000Y-95613606D01*
X44000000Y-99800000D02*
X43900000Y-99900000D01*
X44800000Y-99800000D02*
X44000000Y-99800000D01*
X43900000Y-99900000D02*
X47600000Y-96200000D01*
X37760001Y-106039999D02*
X43900000Y-99900000D01*
X42975000Y-108875000D02*
X46037500Y-108875000D01*
X42540001Y-108440001D02*
X42975000Y-108875000D01*
X34600001Y-108440001D02*
X42540001Y-108440001D01*
X33400000Y-107240000D02*
X34600001Y-108440001D01*
X34600001Y-90799999D02*
X44299999Y-90799999D01*
X33400000Y-92000000D02*
X34600001Y-90799999D01*
X44575000Y-91075000D02*
X46037500Y-91075000D01*
X44299999Y-90799999D02*
X44575000Y-91075000D01*
X34739999Y-93200001D02*
X38499999Y-93200001D01*
X33400000Y-94540000D02*
X34739999Y-93200001D01*
X39975000Y-91725000D02*
X46037500Y-91725000D01*
X38499999Y-93200001D02*
X39975000Y-91725000D01*
X34739999Y-95740001D02*
X38459999Y-95740001D01*
X33400000Y-97080000D02*
X34739999Y-95740001D01*
X41825000Y-92375000D02*
X46037500Y-92375000D01*
X38459999Y-95740001D02*
X41825000Y-92375000D01*
X42875000Y-93025000D02*
X46037500Y-93025000D01*
X38820000Y-97080000D02*
X42875000Y-93025000D01*
X35940000Y-97080000D02*
X38820000Y-97080000D01*
X43500000Y-97140000D02*
X35940000Y-104700000D01*
X43500000Y-95600000D02*
X43500000Y-97140000D01*
X44775000Y-94325000D02*
X43500000Y-95600000D01*
X46037500Y-94325000D02*
X44775000Y-94325000D01*
X43925000Y-93675000D02*
X46037500Y-93675000D01*
X37980000Y-99620000D02*
X43925000Y-93675000D01*
X35940000Y-99620000D02*
X37980000Y-99620000D01*
D25*
X52580001Y-85555001D02*
X52600000Y-85575000D01*
X50700000Y-85555001D02*
X52580001Y-85555001D01*
D24*
X55800000Y-84800000D02*
X56300001Y-84800000D01*
X55025000Y-85575000D02*
X55800000Y-84800000D01*
X52600000Y-85575000D02*
X55025000Y-85575000D01*
X55800000Y-75900000D02*
X55800000Y-84299999D01*
X51375000Y-72535000D02*
X52435000Y-72535000D01*
X55800000Y-84299999D02*
X55800000Y-84800000D01*
D26*
X135325000Y-64637500D02*
X135325000Y-66675000D01*
X135325000Y-66675000D02*
X134700000Y-67300000D01*
X55300000Y-76300000D02*
X55300000Y-75400000D01*
X55300000Y-75400000D02*
X55250000Y-75350000D01*
D24*
X55250000Y-75350000D02*
X55800000Y-75900000D01*
X52435000Y-72535000D02*
X55250000Y-75350000D01*
D26*
X134700000Y-67300000D02*
X123300002Y-67300000D01*
X85959999Y-38000001D02*
X87160000Y-36800000D01*
X86300000Y-56900000D02*
X85959999Y-57240001D01*
X85959999Y-57240001D02*
X85959999Y-38000001D01*
X87160000Y-56900000D02*
X86300000Y-56900000D01*
X87160000Y-76900000D02*
X86400000Y-76900000D01*
X86400000Y-76900000D02*
X85959999Y-77340001D01*
X85959999Y-84739995D02*
X85959999Y-77340001D01*
X85959999Y-135799999D02*
X87160000Y-137000000D01*
X86259998Y-116940000D02*
X85959999Y-116640001D01*
X85959999Y-116640001D02*
X85959999Y-135799999D01*
X87160000Y-116940000D02*
X86259998Y-116940000D01*
X86300000Y-96800000D02*
X85959999Y-96459999D01*
X87160000Y-96800000D02*
X86300000Y-96800000D01*
X85959999Y-96459999D02*
X85959999Y-116640001D01*
X85959999Y-84739995D02*
X85959999Y-96459999D01*
X86219998Y-67300000D02*
X85959999Y-67559999D01*
X85959999Y-67559999D02*
X85959999Y-57240001D01*
X87100000Y-67300000D02*
X86219998Y-67300000D01*
X85959999Y-77340001D02*
X85959999Y-67559999D01*
X57500001Y-53199999D02*
X60600000Y-50100000D01*
X55975000Y-91725000D02*
X57500001Y-90199999D01*
X51762500Y-91725000D02*
X55975000Y-91725000D01*
X57300002Y-61200000D02*
X57500001Y-61000001D01*
X57300000Y-61200000D02*
X57300002Y-61200000D01*
X57500001Y-61000001D02*
X57500001Y-53199999D01*
X57500001Y-90199999D02*
X57500001Y-61000001D01*
D25*
X51025000Y-81125000D02*
X51000000Y-81100000D01*
X53100000Y-81125000D02*
X51025000Y-81125000D01*
D24*
X51375000Y-80725000D02*
X51000000Y-81100000D01*
X54575000Y-81125000D02*
X54600000Y-81100000D01*
X53100000Y-81125000D02*
X54575000Y-81125000D01*
D26*
X134675000Y-65825000D02*
X134200000Y-66300000D01*
X134675000Y-64637500D02*
X134675000Y-65825000D01*
X50800000Y-77000000D02*
X51150000Y-77000000D01*
D24*
X51375000Y-76775000D02*
X51375000Y-80725000D01*
D26*
X51150000Y-77000000D02*
X51375000Y-76775000D01*
D24*
X51375000Y-73805000D02*
X51375000Y-76775000D01*
D26*
X83419999Y-135799999D02*
X84620000Y-137000000D01*
X84620000Y-116940000D02*
X83740000Y-116940000D01*
X83419999Y-116619999D02*
X83419999Y-135799999D01*
X83740000Y-116940000D02*
X83419999Y-116619999D01*
X83639998Y-96800000D02*
X83419999Y-96580001D01*
X84620000Y-96800000D02*
X83639998Y-96800000D01*
X83419999Y-96580001D02*
X83419999Y-116619999D01*
X83419999Y-38000001D02*
X84620000Y-36800000D01*
X84620000Y-76900000D02*
X83419999Y-75699999D01*
X83639998Y-56900000D02*
X83419999Y-57119999D01*
X84620000Y-56900000D02*
X83639998Y-56900000D01*
X83419999Y-57119999D02*
X83419999Y-38000001D01*
X83419999Y-75699999D02*
X83419999Y-68319999D01*
X124000000Y-66300000D02*
X134200000Y-66300000D01*
X84400000Y-66200000D02*
X83419999Y-67180001D01*
X83419999Y-67180001D02*
X83419999Y-67319999D01*
X83419999Y-67319999D02*
X83419999Y-57119999D01*
X83419999Y-68319999D02*
X83419999Y-67319999D01*
X83419999Y-96580001D02*
X83419999Y-81119999D01*
X83419999Y-81119999D02*
X83400000Y-81100000D01*
X78339999Y-78000001D02*
X79540000Y-76800000D01*
X78339999Y-58000001D02*
X79540000Y-56800000D01*
X78339999Y-78000001D02*
X78339999Y-58000001D01*
X78339999Y-135699999D02*
X79540000Y-136900000D01*
X78339999Y-115639999D02*
X78339999Y-115360001D01*
X78339999Y-115360001D02*
X78339999Y-135699999D01*
X79540000Y-116840000D02*
X78339999Y-115639999D01*
X53775000Y-95625000D02*
X53800000Y-95600000D01*
X51762500Y-95625000D02*
X53775000Y-95625000D01*
X78339999Y-38000001D02*
X79540000Y-36800000D01*
X78339999Y-95599999D02*
X78339999Y-78000001D01*
X79540000Y-96800000D02*
X78800000Y-96800000D01*
X78800000Y-96800000D02*
X78339999Y-96339999D01*
X78339999Y-96339999D02*
X78339999Y-95599999D01*
X79540000Y-96800000D02*
X78479998Y-96800000D01*
X78479998Y-96800000D02*
X78339999Y-96939999D01*
X78339999Y-96939999D02*
X78339999Y-96339999D01*
X79540000Y-96800000D02*
X78579998Y-96800000D01*
X78579998Y-96800000D02*
X78339999Y-97039999D01*
X78339999Y-97039999D02*
X78339999Y-96939999D01*
X78339999Y-115360001D02*
X78339999Y-97039999D01*
X78339999Y-58000001D02*
X78339999Y-38000001D01*
X73025000Y-109525000D02*
X73300000Y-109800000D01*
X73300000Y-109200000D02*
X73300000Y-109800000D01*
X73400000Y-116200000D02*
X73300000Y-116200000D01*
X74000000Y-116800000D02*
X73400000Y-116200000D01*
X73300000Y-109800000D02*
X73300000Y-116200000D01*
X73500000Y-96800000D02*
X73300000Y-97000000D01*
X74100000Y-96800000D02*
X73500000Y-96800000D01*
X73300000Y-97000000D02*
X73300000Y-109200000D01*
X74100000Y-57000000D02*
X73300000Y-57800000D01*
X54725000Y-109525000D02*
X54800000Y-109600000D01*
X51762500Y-109525000D02*
X54725000Y-109525000D01*
X72975000Y-109525000D02*
X73300000Y-109200000D01*
X136325000Y-136535000D02*
X134235000Y-136535000D01*
X134235000Y-136535000D02*
X134200000Y-136500000D01*
X73300000Y-57800000D02*
X73300000Y-66400000D01*
X73300000Y-66400000D02*
X73300000Y-65800000D01*
X73300000Y-66400000D02*
X73300000Y-68900000D01*
X73300000Y-116200000D02*
X73300000Y-133700000D01*
X73300000Y-133700000D02*
X74200000Y-134600000D01*
X73600000Y-76900000D02*
X73300000Y-77200000D01*
X73800000Y-76900000D02*
X73600000Y-76900000D01*
X73300000Y-77000000D02*
X73300000Y-77200000D01*
X73300000Y-40500000D02*
X77000000Y-36800000D01*
X73300000Y-57800000D02*
X73300000Y-40500000D01*
X73300000Y-79500000D02*
X73300000Y-97000000D01*
X73300000Y-77200000D02*
X73300000Y-79500000D01*
X73300000Y-71700000D02*
X73300000Y-77000000D01*
X73000000Y-71400000D02*
X73300000Y-71700000D01*
X72300000Y-71400000D02*
X73000000Y-71400000D01*
X73300000Y-68900000D02*
X73300000Y-71700000D01*
X75000000Y-137440000D02*
X77000000Y-139440000D01*
X75760000Y-99340000D02*
X75000000Y-100100000D01*
X77000000Y-99340000D02*
X75760000Y-99340000D01*
X75000000Y-80000000D02*
X75000000Y-100100000D01*
X74700000Y-107200000D02*
X75000000Y-106900000D01*
X75000000Y-100100000D02*
X75000000Y-106900000D01*
X74700000Y-107200000D02*
X75000000Y-107500000D01*
X75000000Y-107500000D02*
X75000000Y-118600000D01*
X75000000Y-106900000D02*
X75000000Y-107500000D01*
X51762500Y-108875000D02*
X53825000Y-108875000D01*
X53825000Y-108875000D02*
X55500000Y-107200000D01*
X134400000Y-139800000D02*
X134400000Y-138900000D01*
X135495000Y-137805000D02*
X136325000Y-137805000D01*
X134400000Y-138900000D02*
X135495000Y-137805000D01*
X75000000Y-69600000D02*
X75000000Y-70700000D01*
X77000000Y-119480000D02*
X75680000Y-119480000D01*
X75680000Y-119480000D02*
X75000000Y-118800000D01*
X75000000Y-118800000D02*
X75000000Y-137440000D01*
X75000000Y-118600000D02*
X75000000Y-118800000D01*
X75260000Y-79440000D02*
X75000000Y-79700000D01*
X77000000Y-79440000D02*
X75260000Y-79440000D01*
X75000000Y-79700000D02*
X75000000Y-80000000D01*
X75000000Y-61440000D02*
X77000000Y-59440000D01*
X75000000Y-69600000D02*
X75000000Y-61440000D01*
X75000000Y-41340000D02*
X77000000Y-39340000D01*
X75000000Y-61440000D02*
X75000000Y-41340000D01*
X75900000Y-71400000D02*
X75400000Y-71400000D01*
X75400000Y-71400000D02*
X75000000Y-71800000D01*
X75000000Y-71800000D02*
X75000000Y-79700000D01*
X75000000Y-69600000D02*
X75000000Y-71800000D01*
X58800000Y-90000000D02*
X58800000Y-70900000D01*
X56425000Y-92375000D02*
X58800000Y-90000000D01*
X51762500Y-92375000D02*
X56425000Y-92375000D01*
X59100000Y-91200000D02*
X57275000Y-93025000D01*
X57275000Y-93025000D02*
X57225000Y-93025000D01*
X51762500Y-93025000D02*
X57225000Y-93025000D01*
X51762500Y-93675000D02*
X53075000Y-93675000D01*
X53475000Y-93675000D02*
X58100000Y-98300000D01*
X53075000Y-93675000D02*
X53475000Y-93675000D01*
X50075000Y-94325000D02*
X49600004Y-94799996D01*
X49600004Y-94799996D02*
X49600004Y-98600000D01*
X51762500Y-94325000D02*
X50075000Y-94325000D01*
X93499998Y-118120002D02*
X93499998Y-111665689D01*
X92240000Y-119380000D02*
X93499998Y-118120002D01*
X93499998Y-111665689D02*
X93499998Y-111100004D01*
X51025000Y-94975000D02*
X51000000Y-95000000D01*
X51762500Y-94975000D02*
X51025000Y-94975000D01*
X51000000Y-95000000D02*
X50800000Y-95000000D01*
X50800000Y-95000000D02*
X50400000Y-95400000D01*
X50400000Y-97100000D02*
X50900000Y-97600000D01*
X50400000Y-95400000D02*
X50400000Y-97100000D01*
X92240000Y-139440000D02*
X90900000Y-138100000D01*
X90900000Y-138100000D02*
X90900000Y-106300000D01*
X48525000Y-131975000D02*
X48600000Y-131900000D01*
X46137500Y-131975000D02*
X48525000Y-131975000D01*
X46037500Y-122575000D02*
X47225000Y-122575000D01*
X47800000Y-122000000D02*
X47800000Y-121300000D01*
X47225000Y-122575000D02*
X47800000Y-122000000D01*
D24*
X143700000Y-80425000D02*
X143675000Y-80450000D01*
X143700000Y-78025000D02*
X143700000Y-80425000D01*
D26*
X135025000Y-42475000D02*
X135025000Y-46725000D01*
X139100000Y-40900000D02*
X136600000Y-40900000D01*
X144000000Y-45800000D02*
X139100000Y-40900000D01*
X144000000Y-59000000D02*
X144000000Y-45800000D01*
X136600000Y-40900000D02*
X135025000Y-42475000D01*
X140525000Y-62475000D02*
X144000000Y-59000000D01*
X140525000Y-64637500D02*
X140525000Y-62475000D01*
X135700000Y-39900000D02*
X133755000Y-41845000D01*
X139900000Y-39900000D02*
X135700000Y-39900000D01*
X141175000Y-64637500D02*
X141175000Y-63525000D01*
X145100000Y-59600000D02*
X145100000Y-45100000D01*
X133755000Y-41845000D02*
X133755000Y-46725000D01*
X145100000Y-45100000D02*
X139900000Y-39900000D01*
X141175000Y-63525000D02*
X145100000Y-59600000D01*
X133800000Y-51720000D02*
X133755000Y-51675000D01*
X133800000Y-53600000D02*
X133800000Y-51720000D01*
X136625000Y-64637500D02*
X136625000Y-63325000D01*
X136625000Y-63325000D02*
X136200000Y-62900000D01*
D24*
X145390000Y-128235000D02*
X145300000Y-128325000D01*
X145390000Y-125975000D02*
X145390000Y-128235000D01*
D26*
X159870000Y-109895000D02*
X159800000Y-109825000D01*
X162325000Y-109895000D02*
X159870000Y-109895000D01*
X159800000Y-109825000D02*
X159425000Y-109825000D01*
X159800000Y-106625000D02*
X159725000Y-106550000D01*
X159800000Y-109825000D02*
X159800000Y-106625000D01*
X159750000Y-109775000D02*
X159800000Y-109825000D01*
X148200000Y-96662500D02*
X150200000Y-94662500D01*
X148200000Y-110400000D02*
X148200000Y-96662500D01*
X148600000Y-110800000D02*
X148200000Y-110400000D01*
X148600000Y-110800000D02*
X152600000Y-110800000D01*
X153512500Y-109887500D02*
X156300000Y-109887500D01*
X152600000Y-110800000D02*
X153512500Y-109887500D01*
X159737500Y-109887500D02*
X159800000Y-109825000D01*
X156300000Y-109887500D02*
X159737500Y-109887500D01*
X159750000Y-111425000D02*
X159800000Y-111375000D01*
X162115000Y-111375000D02*
X162325000Y-111165000D01*
X159800000Y-111375000D02*
X162115000Y-111375000D01*
X156637500Y-111375000D02*
X156300000Y-111712500D01*
X159800000Y-111375000D02*
X156637500Y-111375000D01*
X156300000Y-114280000D02*
X151740000Y-118840000D01*
X156300000Y-111712500D02*
X156300000Y-114280000D01*
X151740000Y-121025000D02*
X151740000Y-118840000D01*
D24*
X162100000Y-95195000D02*
X161125000Y-95195000D01*
X164200000Y-97295000D02*
X162100000Y-95195000D01*
X164200000Y-104275000D02*
X164200000Y-97295000D01*
X164900000Y-104975000D02*
X164200000Y-104275000D01*
D26*
X161125000Y-95195000D02*
X159595000Y-95195000D01*
X159325000Y-94925000D02*
X158100000Y-94925000D01*
X159595000Y-95195000D02*
X159325000Y-94925000D01*
X158050000Y-94875000D02*
X158100000Y-94925000D01*
X158012500Y-94837500D02*
X158100000Y-94925000D01*
X154612500Y-94887500D02*
X155100000Y-94887500D01*
X150500000Y-99000000D02*
X154612500Y-94887500D01*
X158062500Y-94887500D02*
X158100000Y-94925000D01*
X155100000Y-94887500D02*
X158062500Y-94887500D01*
X158100000Y-92462500D02*
X158000000Y-92362500D01*
X158100000Y-94925000D02*
X158100000Y-92462500D01*
D24*
X151740000Y-124240000D02*
X151700000Y-124200000D01*
X151740000Y-125975000D02*
X151740000Y-124240000D01*
D26*
X158110000Y-96465000D02*
X158100000Y-96475000D01*
X161125000Y-96465000D02*
X158110000Y-96465000D01*
X158050000Y-96525000D02*
X158100000Y-96475000D01*
X154600000Y-105060000D02*
X150500000Y-109160000D01*
X157862500Y-96712500D02*
X158100000Y-96475000D01*
X155100000Y-96712500D02*
X157862500Y-96712500D01*
X155100000Y-104560000D02*
X154600000Y-105060000D01*
X155100000Y-96712500D02*
X155100000Y-104560000D01*
D24*
X167275000Y-111165000D02*
X168565000Y-111165000D01*
X168825000Y-111425000D02*
X169900000Y-111425000D01*
X168565000Y-111165000D02*
X168825000Y-111425000D01*
X171950000Y-111425000D02*
X172000000Y-111375000D01*
X169900000Y-111425000D02*
X171950000Y-111425000D01*
X172000000Y-109562500D02*
X172400000Y-109162500D01*
X172000000Y-111375000D02*
X172000000Y-109562500D01*
X167275000Y-112435000D02*
X168435000Y-112435000D01*
X168975000Y-112975000D02*
X169900000Y-112975000D01*
X168435000Y-112435000D02*
X168975000Y-112975000D01*
X171950000Y-112975000D02*
X172000000Y-113025000D01*
X169900000Y-112975000D02*
X171950000Y-112975000D01*
X167275000Y-112435000D02*
X166035000Y-112435000D01*
X164900000Y-111300000D02*
X164900000Y-106625000D01*
X166035000Y-112435000D02*
X164900000Y-111300000D01*
D26*
X164825000Y-106550000D02*
X164900000Y-106625000D01*
X161375000Y-106550000D02*
X164825000Y-106550000D01*
X138835000Y-46725000D02*
X138835000Y-42765000D01*
X138835000Y-42765000D02*
X138900000Y-42700000D01*
X101199999Y-135699999D02*
X102400000Y-136900000D01*
X102400000Y-36800000D02*
X101199999Y-38000001D01*
X101199999Y-117299999D02*
X101199999Y-135699999D01*
X101199999Y-116300001D02*
X101199999Y-117299999D01*
X101199999Y-116599999D02*
X101199999Y-116300001D01*
X101440000Y-116840000D02*
X101199999Y-116599999D01*
X102400000Y-116840000D02*
X101440000Y-116840000D01*
X101199999Y-117200001D02*
X101199999Y-117299999D01*
X101560000Y-116840000D02*
X101199999Y-117200001D01*
X102400000Y-116840000D02*
X101560000Y-116840000D01*
X101400000Y-96800000D02*
X101199999Y-97000001D01*
X101199999Y-97000001D02*
X101199999Y-116300001D01*
X102400000Y-96800000D02*
X101400000Y-96800000D01*
X101600000Y-96800000D02*
X101199999Y-96399999D01*
X102400000Y-96800000D02*
X101600000Y-96800000D01*
X101199999Y-96399999D02*
X101199999Y-97000001D01*
X101500000Y-76800000D02*
X101199999Y-77100001D01*
X102400000Y-76800000D02*
X101500000Y-76800000D01*
X101199999Y-77100001D02*
X101199999Y-96399999D01*
X101400000Y-76800000D02*
X101199999Y-76599999D01*
X102400000Y-76800000D02*
X101400000Y-76800000D01*
X101199999Y-76599999D02*
X101199999Y-77100001D01*
X101400000Y-56800000D02*
X101199999Y-57000001D01*
X102400000Y-56800000D02*
X101400000Y-56800000D01*
X101199999Y-57000001D02*
X101199999Y-76599999D01*
X101199999Y-56499999D02*
X101199999Y-57000001D01*
X101500000Y-56800000D02*
X101199999Y-56499999D01*
X102400000Y-56800000D02*
X101500000Y-56800000D01*
X103800000Y-35400000D02*
X102400000Y-36800000D01*
X123860000Y-35400000D02*
X103800000Y-35400000D01*
X125260000Y-36800000D02*
X123860000Y-35400000D01*
X146000000Y-44700000D02*
X146000000Y-74075000D01*
X138100000Y-36800000D02*
X146000000Y-44700000D01*
X146000000Y-74075000D02*
X143700000Y-76375000D01*
X101199999Y-56499999D02*
X101199999Y-38000001D01*
X138100000Y-36800000D02*
X125260000Y-36800000D01*
X121380001Y-135699999D02*
X120180000Y-136900000D01*
X120180000Y-36800000D02*
X121380001Y-38000001D01*
X121200002Y-116840000D02*
X121380001Y-117019999D01*
X120180000Y-116840000D02*
X121200002Y-116840000D01*
X121380001Y-117019999D02*
X121380001Y-135699999D01*
X121060000Y-116840000D02*
X121380001Y-116519999D01*
X120180000Y-116840000D02*
X121060000Y-116840000D01*
X121380001Y-116519999D02*
X121380001Y-117019999D01*
X120180000Y-96800000D02*
X121100000Y-96800000D01*
X121380001Y-97080001D02*
X121380001Y-116519999D01*
X121100000Y-96800000D02*
X121380001Y-97080001D01*
X121160002Y-96800000D02*
X121380001Y-96580001D01*
X121380001Y-96580001D02*
X121380001Y-97080001D01*
X120180000Y-96800000D02*
X121160002Y-96800000D01*
X120180000Y-76800000D02*
X121100000Y-76800000D01*
X121100000Y-76800000D02*
X121380001Y-77080001D01*
X121380001Y-77080001D02*
X121380001Y-96580001D01*
X120180000Y-76800000D02*
X121000000Y-76800000D01*
X121000000Y-76800000D02*
X121380001Y-76419999D01*
X121380001Y-76419999D02*
X121380001Y-77080001D01*
X121160002Y-56800000D02*
X121380001Y-57019999D01*
X120180000Y-56800000D02*
X121160002Y-56800000D01*
X120960002Y-56800000D02*
X121380001Y-56380001D01*
X120180000Y-56800000D02*
X120960002Y-56800000D01*
X121380001Y-56380001D02*
X121380001Y-57019999D01*
X121380001Y-63419999D02*
X121380001Y-76419999D01*
X121380001Y-62219999D02*
X121380001Y-63419999D01*
X121380001Y-38000001D02*
X121380001Y-56380001D01*
X121660002Y-62000000D02*
X121380001Y-61719999D01*
X121380001Y-57019999D02*
X121380001Y-61719999D01*
X121560002Y-62000000D02*
X121380001Y-62180001D01*
X121660002Y-62000000D02*
X121560002Y-62000000D01*
X121380001Y-62180001D02*
X121380001Y-63419999D01*
X121380001Y-61719999D02*
X121380001Y-62180001D01*
X128500000Y-62000000D02*
X121660002Y-62000000D01*
X132700000Y-57800000D02*
X128500000Y-62000000D01*
X139100000Y-57800000D02*
X132700000Y-57800000D01*
X141375000Y-55525000D02*
X139100000Y-57800000D01*
X141375000Y-51675000D02*
X141375000Y-55525000D01*
X117640000Y-39340000D02*
X118840001Y-40540001D01*
X118380000Y-119380000D02*
X118840001Y-119840001D01*
X117640000Y-119380000D02*
X118380000Y-119380000D01*
X118840001Y-119840001D02*
X118840001Y-138239999D01*
X118600002Y-119380000D02*
X118840001Y-119140001D01*
X117640000Y-119380000D02*
X118600002Y-119380000D01*
X118840001Y-119140001D02*
X118840001Y-119840001D01*
X118840001Y-99740001D02*
X118840001Y-119140001D01*
X118440000Y-99340000D02*
X118840001Y-99740001D01*
X117640000Y-99340000D02*
X118440000Y-99340000D01*
X118540002Y-99340000D02*
X118840001Y-99040001D01*
X117640000Y-99340000D02*
X118540002Y-99340000D01*
X118840001Y-99040001D02*
X118840001Y-99740001D01*
X118440000Y-79340000D02*
X118840001Y-79740001D01*
X118840001Y-79740001D02*
X118840001Y-99040001D01*
X117640000Y-79340000D02*
X118440000Y-79340000D01*
X117640000Y-79340000D02*
X118560000Y-79340000D01*
X118840001Y-79059999D02*
X118840001Y-79740001D01*
X118560000Y-79340000D02*
X118840001Y-79059999D01*
X118540000Y-59340000D02*
X118840001Y-59640001D01*
X117640000Y-59340000D02*
X118540000Y-59340000D01*
X118840001Y-59640001D02*
X118840001Y-79059999D01*
X118560000Y-59340000D02*
X118840001Y-59059999D01*
X118840001Y-59059999D02*
X118840001Y-59640001D01*
X117640000Y-59340000D02*
X118560000Y-59340000D01*
X118840001Y-138239999D02*
X117640000Y-139440000D01*
X123920001Y-138239999D02*
X118840001Y-138239999D01*
X125260000Y-136900000D02*
X123920001Y-138239999D01*
X118840001Y-59059999D02*
X118840001Y-40540001D01*
X136400000Y-115425000D02*
X136400000Y-116799988D01*
X116439999Y-135699999D02*
X117640000Y-136900000D01*
X117640000Y-36800000D02*
X116439999Y-38000001D01*
X117640000Y-116840000D02*
X116660000Y-116840000D01*
X116660000Y-116840000D02*
X116439999Y-117060001D01*
X116439999Y-117060001D02*
X116439999Y-135699999D01*
X116819998Y-116840000D02*
X116439999Y-116460001D01*
X117640000Y-116840000D02*
X116819998Y-116840000D01*
X116439999Y-116460001D02*
X116439999Y-117060001D01*
X117640000Y-96800000D02*
X116700000Y-96800000D01*
X116700000Y-96800000D02*
X116439999Y-97060001D01*
X116439999Y-97060001D02*
X116439999Y-116460001D01*
X117640000Y-96800000D02*
X116779998Y-96800000D01*
X116779998Y-96800000D02*
X116439999Y-96460001D01*
X116439999Y-96460001D02*
X116439999Y-97060001D01*
X116679998Y-76800000D02*
X116439999Y-77039999D01*
X117640000Y-76800000D02*
X116679998Y-76800000D01*
X116439999Y-77039999D02*
X116439999Y-96460001D01*
X116779998Y-76800000D02*
X116439999Y-76460001D01*
X117640000Y-76800000D02*
X116779998Y-76800000D01*
X116439999Y-76460001D02*
X116439999Y-77039999D01*
X116439999Y-57139999D02*
X116439999Y-76460001D01*
X116779998Y-56800000D02*
X116439999Y-57139999D01*
X116439999Y-56660001D02*
X116439999Y-57139999D01*
X116579998Y-56800000D02*
X116439999Y-56660001D01*
X117640000Y-56800000D02*
X116579998Y-56800000D01*
X117640000Y-56800000D02*
X116779998Y-56800000D01*
X116439999Y-56460001D02*
X116439999Y-56660001D01*
X116779998Y-56800000D02*
X116439999Y-56460001D01*
X116439999Y-56460001D02*
X116439999Y-38000001D01*
X128000000Y-56900000D02*
X125500000Y-54400000D01*
X138500000Y-56900000D02*
X128000000Y-56900000D01*
X140105000Y-55295000D02*
X138500000Y-56900000D01*
X140105000Y-51675000D02*
X140105000Y-55295000D01*
X113899999Y-135699999D02*
X115100000Y-136900000D01*
X115100000Y-36800000D02*
X113899999Y-38000001D01*
X114260000Y-116840000D02*
X113899999Y-117200001D01*
X115100000Y-116840000D02*
X114260000Y-116840000D01*
X113899999Y-117200001D02*
X113899999Y-135699999D01*
X114240000Y-116840000D02*
X113899999Y-116499999D01*
X115100000Y-116840000D02*
X114240000Y-116840000D01*
X113899999Y-116499999D02*
X113899999Y-117200001D01*
X114200000Y-96800000D02*
X113899999Y-97100001D01*
X113899999Y-97100001D02*
X113899999Y-116499999D01*
X114200000Y-96800000D02*
X113899999Y-96499999D01*
X115100000Y-96800000D02*
X114200000Y-96800000D01*
X113899999Y-96499999D02*
X113899999Y-97100001D01*
X114100000Y-76800000D02*
X113899999Y-77000001D01*
X113899999Y-77000001D02*
X113899999Y-96499999D01*
X115100000Y-76800000D02*
X114100000Y-76800000D01*
X115100000Y-76800000D02*
X114199998Y-76800000D01*
X114199998Y-76800000D02*
X113899999Y-76500001D01*
X113899999Y-76500001D02*
X113899999Y-77000001D01*
X114300000Y-56800000D02*
X113899999Y-57200001D01*
X113899999Y-57200001D02*
X113899999Y-76500001D01*
X115100000Y-56800000D02*
X114300000Y-56800000D01*
X114199998Y-56800000D02*
X113899999Y-56500001D01*
X115100000Y-56800000D02*
X114199998Y-56800000D01*
X113899999Y-56500001D02*
X113899999Y-57200001D01*
X134025000Y-97975000D02*
X136400000Y-97975000D01*
X113899999Y-38000001D02*
X113899999Y-56500001D01*
X125260000Y-106740000D02*
X125260000Y-116940000D01*
X134025000Y-97975000D02*
X125260000Y-106740000D01*
X138835000Y-49935000D02*
X138200000Y-49300000D01*
X138835000Y-51675000D02*
X138835000Y-49935000D01*
X111359999Y-135699999D02*
X112560000Y-136900000D01*
X112560000Y-36800000D02*
X111359999Y-38000001D01*
X112560000Y-116840000D02*
X111660000Y-116840000D01*
X111359999Y-117140001D02*
X111359999Y-135699999D01*
X111660000Y-116840000D02*
X111359999Y-117140001D01*
X111740000Y-116840000D02*
X111359999Y-116459999D01*
X112560000Y-116840000D02*
X111740000Y-116840000D01*
X111359999Y-116459999D02*
X111359999Y-117140001D01*
X111619998Y-96800000D02*
X111359999Y-97059999D01*
X112560000Y-96800000D02*
X111619998Y-96800000D01*
X111359999Y-97059999D02*
X111359999Y-116459999D01*
X112560000Y-96800000D02*
X111700000Y-96800000D01*
X111700000Y-96800000D02*
X111359999Y-96459999D01*
X111359999Y-96459999D02*
X111359999Y-97059999D01*
X111700000Y-76800000D02*
X111359999Y-77140001D01*
X111359999Y-77140001D02*
X111359999Y-96459999D01*
X112560000Y-76800000D02*
X111700000Y-76800000D01*
X111359999Y-76459999D02*
X111359999Y-77140001D01*
X111700000Y-76800000D02*
X111359999Y-76459999D01*
X111700000Y-56800000D02*
X111359999Y-57140001D01*
X111359999Y-57140001D02*
X111359999Y-76459999D01*
X112560000Y-56800000D02*
X111700000Y-56800000D01*
X111700000Y-56800000D02*
X111359999Y-56459999D01*
X111359999Y-56459999D02*
X111359999Y-57140001D01*
X143700000Y-93825000D02*
X140725000Y-96800000D01*
X111359999Y-38000001D02*
X111359999Y-56459999D01*
X140725000Y-96800000D02*
X125260000Y-96800000D01*
X108819999Y-135699999D02*
X110020000Y-136900000D01*
X110020000Y-36800000D02*
X108819999Y-38000001D01*
X110020000Y-116840000D02*
X109160000Y-116840000D01*
X109160000Y-116840000D02*
X108819999Y-117180001D01*
X108819999Y-117180001D02*
X108819999Y-135699999D01*
X109140000Y-116840000D02*
X108819999Y-116519999D01*
X108819999Y-116519999D02*
X108819999Y-117180001D01*
X110020000Y-116840000D02*
X109140000Y-116840000D01*
X109200000Y-96800000D02*
X108819999Y-97180001D01*
X110020000Y-96800000D02*
X109200000Y-96800000D01*
X108819999Y-97180001D02*
X108819999Y-116519999D01*
X109100000Y-96800000D02*
X108819999Y-96519999D01*
X110020000Y-96800000D02*
X109100000Y-96800000D01*
X108819999Y-96519999D02*
X108819999Y-97180001D01*
X109139998Y-76800000D02*
X108819999Y-77119999D01*
X110020000Y-76800000D02*
X109139998Y-76800000D01*
X108819999Y-77119999D02*
X108819999Y-96519999D01*
X110020000Y-76800000D02*
X109100000Y-76800000D01*
X109100000Y-76800000D02*
X108819999Y-76519999D01*
X108819999Y-76519999D02*
X108819999Y-77119999D01*
X108819999Y-57019999D02*
X108819999Y-76519999D01*
X109039998Y-56800000D02*
X108819999Y-57019999D01*
X110020000Y-56800000D02*
X109039998Y-56800000D01*
X109100000Y-56800000D02*
X108819999Y-56519999D01*
X110020000Y-56800000D02*
X109100000Y-56800000D01*
X108819999Y-56519999D02*
X108819999Y-57019999D01*
X108819999Y-56519999D02*
X108819999Y-38000001D01*
X132300000Y-50200000D02*
X131500000Y-51000000D01*
X137200000Y-50200000D02*
X132300000Y-50200000D01*
X137565000Y-50565000D02*
X137200000Y-50200000D01*
X137565000Y-51675000D02*
X137565000Y-50565000D01*
X130200000Y-81840000D02*
X125260000Y-76900000D01*
X137300000Y-93925000D02*
X135625000Y-93925000D01*
X131600000Y-91300000D02*
X130200000Y-89900000D01*
X130200000Y-89900000D02*
X130200000Y-81840000D01*
X133000000Y-91300000D02*
X131600000Y-91300000D01*
X135625000Y-93925000D02*
X133000000Y-91300000D01*
X106279999Y-135699999D02*
X107480000Y-136900000D01*
X107480000Y-36800000D02*
X106279999Y-38000001D01*
X106519998Y-116840000D02*
X106279999Y-117079999D01*
X107480000Y-116840000D02*
X106519998Y-116840000D01*
X106279999Y-117079999D02*
X106279999Y-135699999D01*
X106540000Y-116840000D02*
X106279999Y-116579999D01*
X107480000Y-116840000D02*
X106540000Y-116840000D01*
X106279999Y-116579999D02*
X106279999Y-117079999D01*
X106500000Y-96800000D02*
X106279999Y-97020001D01*
X107480000Y-96800000D02*
X106500000Y-96800000D01*
X106279999Y-97020001D02*
X106279999Y-116579999D01*
X106559998Y-96800000D02*
X106279999Y-96520001D01*
X107480000Y-96800000D02*
X106559998Y-96800000D01*
X106279999Y-96520001D02*
X106279999Y-97020001D01*
X106559998Y-76800000D02*
X106279999Y-77079999D01*
X106279999Y-77079999D02*
X106279999Y-96520001D01*
X106559998Y-76800000D02*
X106279999Y-76520001D01*
X107480000Y-76800000D02*
X106559998Y-76800000D01*
X106279999Y-76520001D02*
X106279999Y-77079999D01*
X107480000Y-56800000D02*
X106600000Y-56800000D01*
X106600000Y-56800000D02*
X106279999Y-57120001D01*
X106559998Y-56800000D02*
X106279999Y-56520001D01*
X107480000Y-56800000D02*
X106559998Y-56800000D01*
X106279999Y-56520001D02*
X106279999Y-57120001D01*
X106459998Y-61500000D02*
X106279999Y-61320001D01*
X107029999Y-61500000D02*
X106459998Y-61500000D01*
X106279999Y-57120001D02*
X106279999Y-61320001D01*
X106500000Y-61500000D02*
X106279999Y-61720001D01*
X107029999Y-61500000D02*
X106500000Y-61500000D01*
X106279999Y-61720001D02*
X106279999Y-76520001D01*
X106279999Y-61320001D02*
X106279999Y-61720001D01*
X106279999Y-38000001D02*
X106279999Y-56520001D01*
X124059999Y-58239999D02*
X125260000Y-59440000D01*
X127000000Y-48400000D02*
X124059999Y-51340001D01*
X140105000Y-47895000D02*
X139600000Y-48400000D01*
X139600000Y-48400000D02*
X127000000Y-48400000D01*
X124059999Y-51340001D02*
X124059999Y-58239999D01*
X140105000Y-46725000D02*
X140105000Y-47895000D01*
X103739999Y-135799999D02*
X104940000Y-137000000D01*
X104940000Y-36800000D02*
X103739999Y-38000001D01*
X103940000Y-116940000D02*
X103739999Y-116739999D01*
X104940000Y-116940000D02*
X103940000Y-116940000D01*
X104940000Y-116940000D02*
X103960000Y-116940000D01*
X103739999Y-117160001D02*
X103739999Y-135799999D01*
X103960000Y-116940000D02*
X103739999Y-117160001D01*
X103739999Y-116739999D02*
X103739999Y-117160001D01*
X104000000Y-96800000D02*
X103739999Y-96539999D01*
X104940000Y-96800000D02*
X104000000Y-96800000D01*
X103979998Y-96800000D02*
X103739999Y-97039999D01*
X104940000Y-96800000D02*
X103979998Y-96800000D01*
X103739999Y-97039999D02*
X103739999Y-116739999D01*
X103739999Y-96539999D02*
X103739999Y-97039999D01*
X104100000Y-76900000D02*
X103739999Y-76539999D01*
X104940000Y-76900000D02*
X104100000Y-76900000D01*
X103979998Y-76900000D02*
X103739999Y-77139999D01*
X104940000Y-76900000D02*
X103979998Y-76900000D01*
X103739999Y-77139999D02*
X103739999Y-96539999D01*
X103739999Y-76539999D02*
X103739999Y-77139999D01*
X104000000Y-56900000D02*
X103739999Y-56639999D01*
X104940000Y-56900000D02*
X104000000Y-56900000D01*
X103739999Y-38000001D02*
X103739999Y-56639999D01*
X104100000Y-56900000D02*
X103739999Y-57260001D01*
X104940000Y-56900000D02*
X104100000Y-56900000D01*
X103739999Y-57260001D02*
X103739999Y-76539999D01*
X103739999Y-56639999D02*
X103739999Y-57260001D01*
X133175000Y-76375000D02*
X130550000Y-73750000D01*
X137300000Y-76375000D02*
X133175000Y-76375000D01*
X52200000Y-130600000D02*
X52125000Y-130675000D01*
X56500000Y-127200000D02*
X53100000Y-130600000D01*
X52125000Y-130675000D02*
X51862500Y-130675000D01*
X53100000Y-130600000D02*
X52200000Y-130600000D01*
X59000000Y-126800000D02*
X58600000Y-127200000D01*
X59000000Y-126400000D02*
X59000000Y-126800000D01*
X58600000Y-127200000D02*
X56500000Y-127200000D01*
X66200000Y-122300000D02*
X66200000Y-51300002D01*
X66200000Y-51300002D02*
X72100000Y-45400002D01*
X61300000Y-127200000D02*
X66200000Y-122300000D01*
X58600000Y-127200000D02*
X61300000Y-127200000D01*
X50600000Y-117100000D02*
X60400001Y-107299999D01*
X50600000Y-121100000D02*
X50600000Y-117100000D01*
X50775000Y-121275000D02*
X50600000Y-121100000D01*
X51762500Y-121275000D02*
X50775000Y-121275000D01*
X60400000Y-102700000D02*
X60400001Y-102699999D01*
X60400000Y-103200000D02*
X60400000Y-102700000D01*
X60400001Y-107299999D02*
X60400001Y-102699999D01*
X60400001Y-102699999D02*
X60400001Y-51799999D01*
X60400001Y-51799999D02*
X73700001Y-38499999D01*
X73700001Y-38499999D02*
X74100000Y-38100000D01*
X53975000Y-131325000D02*
X56800000Y-128500000D01*
X62400000Y-128500000D02*
X67400000Y-123500000D01*
X51862500Y-131325000D02*
X53975000Y-131325000D01*
X56800000Y-128500000D02*
X62400000Y-128500000D01*
X67400000Y-66500002D02*
X71900000Y-62000002D01*
X67400000Y-123500000D02*
X67400000Y-66500002D01*
X51762500Y-121925000D02*
X52875000Y-121925000D01*
X52875000Y-121925000D02*
X54200000Y-120600000D01*
X59200000Y-119700000D02*
X59200000Y-120400000D01*
X59200000Y-120400000D02*
X59000000Y-120600000D01*
X54200000Y-120600000D02*
X59000000Y-120600000D01*
X59000000Y-120600000D02*
X61600000Y-120600000D01*
X61600000Y-120600000D02*
X63000001Y-119199999D01*
X63000001Y-57099999D02*
X64800000Y-55300000D01*
X63000001Y-119199999D02*
X63000001Y-57099999D01*
X51862500Y-131975000D02*
X54825002Y-131975000D01*
X68500000Y-124300000D02*
X68500000Y-81800000D01*
X68500000Y-81800000D02*
X72000000Y-78300000D01*
X63100000Y-129700000D02*
X68500000Y-124300000D01*
X54825002Y-131975000D02*
X57100002Y-129700000D01*
X57100002Y-129700000D02*
X63100000Y-129700000D01*
X51762500Y-122575000D02*
X53425000Y-122575000D01*
X53425000Y-122575000D02*
X54400000Y-121600000D01*
X54400000Y-121600000D02*
X62600000Y-121600000D01*
X62600000Y-121600000D02*
X64000001Y-120199999D01*
X64000001Y-120199999D02*
X64000001Y-76700001D01*
X64000001Y-76700001D02*
X65300000Y-75400002D01*
X55375000Y-132625000D02*
X51862500Y-132625000D01*
X57000000Y-131000000D02*
X55375000Y-132625000D01*
X63600000Y-131000000D02*
X57000000Y-131000000D01*
X69600000Y-125000000D02*
X63600000Y-131000000D01*
X69600000Y-100900000D02*
X69600000Y-125000000D01*
X53775000Y-123225000D02*
X51762500Y-123225000D01*
X54200000Y-122800000D02*
X53775000Y-123225000D01*
X63600000Y-122800000D02*
X54200000Y-122800000D01*
X64900000Y-121500000D02*
X63600000Y-122800000D01*
X64900000Y-98000000D02*
X64900000Y-121500000D01*
X56275000Y-133275000D02*
X56300000Y-133300000D01*
X51862500Y-133275000D02*
X56275000Y-133275000D01*
X79500000Y-124300000D02*
X79500000Y-130600000D01*
X82080000Y-121720000D02*
X79500000Y-124300000D01*
X82080000Y-119380000D02*
X82080000Y-121720000D01*
X54475000Y-123875000D02*
X54500000Y-123900000D01*
X51762500Y-123875000D02*
X54475000Y-123875000D01*
X51862500Y-133925000D02*
X52600000Y-133925000D01*
X56375000Y-137700000D02*
X56187500Y-137512500D01*
X56800000Y-137700000D02*
X56375000Y-137700000D01*
X52600000Y-133925000D02*
X56187500Y-137512500D01*
X59675000Y-141000000D02*
X56187500Y-137512500D01*
X80520000Y-141000000D02*
X59675000Y-141000000D01*
X82080000Y-139440000D02*
X80520000Y-141000000D01*
X51762500Y-124525000D02*
X53825000Y-124525000D01*
X53825000Y-124525000D02*
X54600000Y-125300000D01*
X82080000Y-136900000D02*
X82080000Y-125380000D01*
X82080000Y-125380000D02*
X82000002Y-125300002D01*
D24*
X160300000Y-57900000D02*
X160300000Y-56000000D01*
X152800000Y-65400000D02*
X160300000Y-57900000D01*
X152800000Y-69700000D02*
X152800000Y-65400000D01*
X152800000Y-69900000D02*
X152800000Y-69700000D01*
X158000000Y-75100000D02*
X152800000Y-69900000D01*
X158000000Y-89437500D02*
X158000000Y-75100000D01*
X172400000Y-86900000D02*
X172400000Y-106237500D01*
X160300000Y-74800000D02*
X172400000Y-86900000D01*
X160300000Y-74700000D02*
X160300000Y-74800000D01*
X150200000Y-77300000D02*
X152800000Y-74700000D01*
X150200000Y-91737500D02*
X150200000Y-77300000D01*
X137300000Y-80425000D02*
X137325000Y-80450000D01*
X137300000Y-78025000D02*
X137300000Y-80425000D01*
D26*
X142700000Y-57000008D02*
X142500000Y-57200008D01*
X142700000Y-55725000D02*
X142700000Y-57000008D01*
X141600000Y-111255000D02*
X141505000Y-111350000D01*
X141600000Y-109600000D02*
X141600000Y-111255000D01*
X141600000Y-101955000D02*
X141505000Y-102050000D01*
X141600000Y-100100000D02*
X141600000Y-101955000D01*
X141500000Y-111355000D02*
X141505000Y-111350000D01*
X141600000Y-111445000D02*
X141505000Y-111350000D01*
X141600000Y-118900000D02*
X141600000Y-111445000D01*
D24*
X137300000Y-89775000D02*
X137325000Y-89750000D01*
X137300000Y-92275000D02*
X137300000Y-89775000D01*
X143700000Y-89775000D02*
X143675000Y-89750000D01*
X143700000Y-92175000D02*
X143700000Y-89775000D01*
X136425000Y-99650000D02*
X136400000Y-99625000D01*
X136425000Y-102050000D02*
X136425000Y-99650000D01*
X136400000Y-111375000D02*
X136425000Y-111350000D01*
X136400000Y-113775000D02*
X136400000Y-111375000D01*
D26*
X47125000Y-124525000D02*
X46037500Y-124525000D01*
X49500000Y-126900000D02*
X47125000Y-124525000D01*
X132735000Y-135265000D02*
X126000000Y-142000000D01*
X49500000Y-134400000D02*
X49500000Y-126900000D01*
X57100000Y-142000000D02*
X49500000Y-134400000D01*
X126000000Y-142000000D02*
X57100000Y-142000000D01*
X136325000Y-135265000D02*
X132735000Y-135265000D01*
X131500000Y-107700000D02*
X131500000Y-107600000D01*
X133885000Y-110085000D02*
X131500000Y-107700000D01*
X133885000Y-111350000D02*
X133885000Y-110085000D01*
X135975000Y-70362500D02*
X135975000Y-71525000D01*
X135975000Y-71525000D02*
X132900000Y-74600000D01*
X133830331Y-101995331D02*
X133885000Y-102050000D01*
X133830331Y-100230331D02*
X133830331Y-101995331D01*
X136625000Y-72275000D02*
X134300000Y-74600000D01*
X136625000Y-70362500D02*
X136625000Y-72275000D01*
X138575000Y-70362500D02*
X138575000Y-67725000D01*
X138575000Y-67725000D02*
X140200000Y-66100000D01*
X144700000Y-66100000D02*
X144900000Y-65900000D01*
X140200000Y-66100000D02*
X144700000Y-66100000D01*
X146215000Y-89185000D02*
X149200000Y-86200000D01*
X146215000Y-89750000D02*
X146215000Y-89185000D01*
X134800000Y-89735000D02*
X134785000Y-89750000D01*
X134800000Y-87700000D02*
X134800000Y-89735000D01*
X137275000Y-70362500D02*
X137275000Y-73225000D01*
X137275000Y-73225000D02*
X135900000Y-74600000D01*
X137925000Y-74175000D02*
X137500000Y-74600000D01*
X137925000Y-70362500D02*
X137925000Y-74175000D01*
X134800000Y-80435000D02*
X134785000Y-80450000D01*
X134800000Y-78500000D02*
X134800000Y-80435000D01*
X146215000Y-78885000D02*
X146215000Y-80450000D01*
X148000000Y-77100000D02*
X146215000Y-78885000D01*
X139225000Y-70362500D02*
X139225000Y-68375000D01*
X140500003Y-67099997D02*
X144799997Y-67099997D01*
X139225000Y-68375000D02*
X140500003Y-67099997D01*
D24*
X159700000Y-125000000D02*
X167300000Y-125000000D01*
X157800000Y-123100000D02*
X159700000Y-125000000D01*
X148500000Y-123100000D02*
X157800000Y-123100000D01*
X147930000Y-122530000D02*
X148500000Y-123100000D01*
X147930000Y-121025000D02*
X147930000Y-122530000D01*
X147930000Y-125975000D02*
X147930000Y-128930000D01*
X147930000Y-128930000D02*
X150700000Y-131700000D01*
X150700000Y-131700000D02*
X162100000Y-131700000D01*
X162100000Y-131700000D02*
X166600000Y-127200000D01*
X170100000Y-127200000D02*
X172300000Y-125000000D01*
X166600000Y-127200000D02*
X170100000Y-127200000D01*
X150470000Y-127030000D02*
X150470000Y-125975000D01*
X149200000Y-127500000D02*
X149500000Y-127800000D01*
X150100000Y-127800000D02*
X150470000Y-127430000D01*
X150470000Y-127430000D02*
X150470000Y-127030000D01*
X149500000Y-127800000D02*
X150100000Y-127800000D01*
X149200000Y-125975000D02*
X149200000Y-127500000D01*
X149600000Y-119200000D02*
X150200000Y-119200000D01*
X150200000Y-119200000D02*
X150470000Y-119470000D01*
X149200000Y-119600000D02*
X149600000Y-119200000D01*
X150470000Y-119470000D02*
X150470000Y-121025000D01*
X149200000Y-121025000D02*
X149200000Y-119600000D01*
D26*
X167600000Y-97400000D02*
X167265000Y-97735000D01*
X167600000Y-97000000D02*
X167600000Y-97400000D01*
X167265000Y-97735000D02*
X166075000Y-97735000D01*
X167065000Y-96465000D02*
X167600000Y-97000000D01*
X166075000Y-96465000D02*
X167065000Y-96465000D01*
X136055000Y-81475000D02*
X139580000Y-85000000D01*
X136055000Y-80450000D02*
X136055000Y-81475000D01*
X141910002Y-85000000D02*
X144945000Y-88034998D01*
X139580000Y-85000000D02*
X141910002Y-85000000D01*
X139580000Y-85200000D02*
X139580000Y-85000000D01*
X136055000Y-88725000D02*
X139580000Y-85200000D01*
X136055000Y-89750000D02*
X136055000Y-88725000D01*
X144945000Y-80450000D02*
X144945000Y-88045000D01*
X144945000Y-88045000D02*
X144945000Y-89750000D01*
X144945000Y-88034998D02*
X144945000Y-88045000D01*
X144045000Y-99655000D02*
X144045000Y-102050000D01*
X144945000Y-98755000D02*
X144045000Y-99655000D01*
X144045000Y-103075000D02*
X144045000Y-102050000D01*
X135155000Y-111350000D02*
X135155000Y-110325000D01*
D27*
X135155000Y-111350000D02*
X135155000Y-109155000D01*
X135155000Y-109155000D02*
X136010000Y-108300000D01*
X142690000Y-108300000D02*
X144045000Y-109655000D01*
X136010000Y-108300000D02*
X142690000Y-108300000D01*
X144045000Y-111350000D02*
X144045000Y-109655000D01*
X144045000Y-103245000D02*
X144045000Y-102050000D01*
X144045000Y-104113004D02*
X144050002Y-104108002D01*
X144050002Y-103250002D02*
X144045000Y-103245000D01*
X144045000Y-109655000D02*
X144045000Y-104113004D01*
X144050002Y-104249998D02*
X144050002Y-103250002D01*
X144050002Y-104108002D02*
X144050002Y-103250002D01*
X144045000Y-104255000D02*
X144050002Y-104249998D01*
X144045000Y-105055000D02*
X144045000Y-104255000D01*
X136010000Y-108300000D02*
X140800000Y-108300000D01*
D26*
X137380000Y-105300000D02*
X143800000Y-105300000D01*
X135155000Y-103075000D02*
X137380000Y-105300000D01*
X135155000Y-102050000D02*
X135155000Y-103075000D01*
D27*
X143800000Y-105300000D02*
X144045000Y-105055000D01*
X140800000Y-108300000D02*
X143800000Y-105300000D01*
D26*
X145000000Y-97200000D02*
X145000000Y-97010000D01*
X144945000Y-96955000D02*
X144945000Y-98755000D01*
X145000000Y-97010000D02*
X144945000Y-96955000D01*
X144945000Y-89750000D02*
X144945000Y-96955000D01*
X135000000Y-51700000D02*
X135025000Y-51675000D01*
X135000000Y-53500000D02*
X135000000Y-51700000D01*
X137275000Y-64637500D02*
X137275000Y-63425000D01*
X137275000Y-63425000D02*
X137600000Y-63100000D01*
X145315000Y-100685000D02*
X145315000Y-102050000D01*
X146600000Y-99400000D02*
X145315000Y-100685000D01*
X140600000Y-68200000D02*
X144200000Y-68200000D01*
X144200000Y-68200000D02*
X144800000Y-68800000D01*
X139875000Y-70362500D02*
X139875000Y-68925000D01*
X139875000Y-68925000D02*
X140600000Y-68200000D01*
X145300000Y-111335000D02*
X145315000Y-111350000D01*
X145300000Y-108800000D02*
X145300000Y-111335000D01*
X141100000Y-68900000D02*
X143400001Y-68900000D01*
X140525000Y-70362500D02*
X140525000Y-69475000D01*
X140525000Y-69475000D02*
X141100000Y-68900000D01*
X143400001Y-68900000D02*
X144800000Y-70299999D01*
X142645000Y-54020000D02*
X142700000Y-54075000D01*
X142645000Y-51675000D02*
X142645000Y-54020000D01*
D24*
X145120000Y-133995000D02*
X145175000Y-134050000D01*
X141275000Y-133995000D02*
X145120000Y-133995000D01*
X145140000Y-136535000D02*
X145175000Y-136500000D01*
X141275000Y-136535000D02*
X145140000Y-136535000D01*
X149675000Y-134050000D02*
X149700000Y-134025000D01*
X146825000Y-134050000D02*
X149675000Y-134050000D01*
X167300000Y-130000000D02*
X163275000Y-134025000D01*
D26*
X154000000Y-134250000D02*
X153775000Y-134025000D01*
X154000000Y-134400000D02*
X154000000Y-134250000D01*
D24*
X153775000Y-134025000D02*
X149700000Y-134025000D01*
X163275000Y-134025000D02*
X153775000Y-134025000D01*
X147750000Y-137425000D02*
X146825000Y-136500000D01*
X149700000Y-137425000D02*
X147750000Y-137425000D01*
X164875000Y-137425000D02*
X172300000Y-130000000D01*
D26*
X158150000Y-137400000D02*
X158125000Y-137425000D01*
X158400000Y-137400000D02*
X158150000Y-137400000D01*
D24*
X158125000Y-137425000D02*
X164875000Y-137425000D01*
X149700000Y-137425000D02*
X158125000Y-137425000D01*
D26*
X146700000Y-125935000D02*
X146660000Y-125975000D01*
X146700000Y-124100000D02*
X146700000Y-125935000D01*
X142775000Y-103875000D02*
X142900000Y-104000000D01*
X142775000Y-102050000D02*
X142775000Y-103875000D01*
X146660000Y-116460000D02*
X146660000Y-121025000D01*
X142775000Y-112575000D02*
X146660000Y-116460000D01*
X142775000Y-111350000D02*
X142775000Y-112575000D01*
X139875000Y-63000000D02*
X139875000Y-64637500D01*
X139400000Y-62525000D02*
X139875000Y-63000000D01*
X139325000Y-60800000D02*
X139400000Y-60875000D01*
X137587500Y-60800000D02*
X139325000Y-60800000D01*
D29*
X43373000Y-74744549D02*
X43373000Y-75873000D01*
X40622383Y-75873000D01*
X40527000Y-73297649D01*
X40527000Y-72327000D01*
X41438961Y-72327000D01*
X43373000Y-74744549D01*
G04 #@! TA.AperFunction,Conductor*
D30*
G36*
X43373000Y-74744549D02*
G01*
X43373000Y-75873000D01*
X40622383Y-75873000D01*
X40527000Y-73297649D01*
X40527000Y-72327000D01*
X41438961Y-72327000D01*
X43373000Y-74744549D01*
G37*
G04 #@! TD.AperFunction*
D29*
X41153034Y-76893009D02*
X41145451Y-76970000D01*
X41145451Y-78030000D01*
X41155626Y-78133310D01*
X41185761Y-78232650D01*
X41234696Y-78324202D01*
X41273000Y-78370876D01*
X41273000Y-80170020D01*
X41221510Y-80273000D01*
X40466987Y-80273000D01*
X39204814Y-78428285D01*
X39188809Y-78409215D01*
X39161677Y-78388982D01*
X38327000Y-77925273D01*
X38327000Y-77052606D01*
X38368604Y-77011002D01*
X38623542Y-76926023D01*
X40693983Y-76827430D01*
X41153034Y-76893009D01*
G04 #@! TA.AperFunction,Conductor*
D30*
G36*
X41153034Y-76893009D02*
G01*
X41145451Y-76970000D01*
X41145451Y-78030000D01*
X41155626Y-78133310D01*
X41185761Y-78232650D01*
X41234696Y-78324202D01*
X41273000Y-78370876D01*
X41273000Y-80170020D01*
X41221510Y-80273000D01*
X40466987Y-80273000D01*
X39204814Y-78428285D01*
X39188809Y-78409215D01*
X39161677Y-78388982D01*
X38327000Y-77925273D01*
X38327000Y-77052606D01*
X38368604Y-77011002D01*
X38623542Y-76926023D01*
X40693983Y-76827430D01*
X41153034Y-76893009D01*
G37*
G04 #@! TD.AperFunction*
D29*
X36539449Y-78513686D02*
X40022428Y-81200556D01*
X40043536Y-81213758D01*
X40066814Y-81222587D01*
X40090952Y-81226677D01*
X41373000Y-81318252D01*
X41373000Y-82181954D01*
X37390732Y-82473339D01*
X37385975Y-82473777D01*
X37122977Y-82502999D01*
X35562574Y-82502999D01*
X35468864Y-82484257D01*
X35027000Y-81954020D01*
X35027000Y-78652606D01*
X35352606Y-78327000D01*
X35979390Y-78327000D01*
X36539449Y-78513686D01*
G04 #@! TA.AperFunction,Conductor*
D30*
G36*
X36539449Y-78513686D02*
G01*
X40022428Y-81200556D01*
X40043536Y-81213758D01*
X40066814Y-81222587D01*
X40090952Y-81226677D01*
X41373000Y-81318252D01*
X41373000Y-82181954D01*
X37390732Y-82473339D01*
X37385975Y-82473777D01*
X37122977Y-82502999D01*
X35562574Y-82502999D01*
X35468864Y-82484257D01*
X35027000Y-81954020D01*
X35027000Y-78652606D01*
X35352606Y-78327000D01*
X35979390Y-78327000D01*
X36539449Y-78513686D01*
G37*
G04 #@! TD.AperFunction*
M02*
