G04 #@! TF.GenerationSoftware,KiCad,Pcbnew,(6.0.7-1)-1*
G04 #@! TF.CreationDate,2022-08-27T22:45:58-07:00*
G04 #@! TF.ProjectId,vca_backplane,7663615f-6261-4636-9b70-6c616e652e6b,rev?*
G04 #@! TF.SameCoordinates,Original*
G04 #@! TF.FileFunction,Soldermask,Top*
G04 #@! TF.FilePolarity,Negative*
%FSLAX46Y46*%
G04 Gerber Fmt 4.6, Leading zero omitted, Abs format (unit mm)*
G04 Created by KiCad (PCBNEW (6.0.7-1)-1) date 2022-08-27 22:45:58*
%MOMM*%
%LPD*%
G01*
G04 APERTURE LIST*
G04 Aperture macros list*
%AMRoundRect*
0 Rectangle with rounded corners*
0 $1 Rounding radius*
0 $2 $3 $4 $5 $6 $7 $8 $9 X,Y pos of 4 corners*
0 Add a 4 corners polygon primitive as box body*
4,1,4,$2,$3,$4,$5,$6,$7,$8,$9,$2,$3,0*
0 Add four circle primitives for the rounded corners*
1,1,$1+$1,$2,$3*
1,1,$1+$1,$4,$5*
1,1,$1+$1,$6,$7*
1,1,$1+$1,$8,$9*
0 Add four rect primitives between the rounded corners*
20,1,$1+$1,$2,$3,$4,$5,0*
20,1,$1+$1,$4,$5,$6,$7,0*
20,1,$1+$1,$6,$7,$8,$9,0*
20,1,$1+$1,$8,$9,$2,$3,0*%
G04 Aperture macros list end*
G04 #@! TA.AperFunction,Profile*
%ADD10C,0.150000*%
G04 #@! TD*
G04 #@! TA.AperFunction,Profile*
%ADD11C,0.050000*%
G04 #@! TD*
%ADD12C,6.400000*%
%ADD13R,1.700000X1.700000*%
%ADD14O,1.700000X1.700000*%
%ADD15RoundRect,0.100000X0.100000X-0.637500X0.100000X0.637500X-0.100000X0.637500X-0.100000X-0.637500X0*%
%ADD16RoundRect,0.225000X-0.250000X0.225000X-0.250000X-0.225000X0.250000X-0.225000X0.250000X0.225000X0*%
%ADD17RoundRect,0.225000X-0.225000X-0.250000X0.225000X-0.250000X0.225000X0.250000X-0.225000X0.250000X0*%
%ADD18RoundRect,0.250000X-0.250000X-0.475000X0.250000X-0.475000X0.250000X0.475000X-0.250000X0.475000X0*%
%ADD19RoundRect,0.225000X0.225000X0.250000X-0.225000X0.250000X-0.225000X-0.250000X0.225000X-0.250000X0*%
%ADD20RoundRect,0.225000X0.250000X-0.225000X0.250000X0.225000X-0.250000X0.225000X-0.250000X-0.225000X0*%
%ADD21O,3.000000X1.600000*%
%ADD22RoundRect,0.200000X-0.275000X0.200000X-0.275000X-0.200000X0.275000X-0.200000X0.275000X0.200000X0*%
%ADD23RoundRect,0.249999X-0.625001X0.312501X-0.625001X-0.312501X0.625001X-0.312501X0.625001X0.312501X0*%
%ADD24RoundRect,0.150000X0.150000X-0.825000X0.150000X0.825000X-0.150000X0.825000X-0.150000X-0.825000X0*%
%ADD25RoundRect,0.150000X-0.825000X-0.150000X0.825000X-0.150000X0.825000X0.150000X-0.825000X0.150000X0*%
%ADD26RoundRect,0.100000X-0.637500X-0.100000X0.637500X-0.100000X0.637500X0.100000X-0.637500X0.100000X0*%
%ADD27RoundRect,0.200000X0.275000X-0.200000X0.275000X0.200000X-0.275000X0.200000X-0.275000X-0.200000X0*%
%ADD28R,0.900000X0.800000*%
%ADD29RoundRect,0.200000X0.200000X0.275000X-0.200000X0.275000X-0.200000X-0.275000X0.200000X-0.275000X0*%
%ADD30RoundRect,0.249999X-0.450001X0.262501X-0.450001X-0.262501X0.450001X-0.262501X0.450001X0.262501X0*%
%ADD31C,2.340000*%
%ADD32RoundRect,0.150000X0.150000X-0.875000X0.150000X0.875000X-0.150000X0.875000X-0.150000X-0.875000X0*%
%ADD33R,2.000000X2.000000*%
%ADD34RoundRect,0.218750X0.218750X0.256250X-0.218750X0.256250X-0.218750X-0.256250X0.218750X-0.256250X0*%
%ADD35RoundRect,0.200000X-0.200000X-0.275000X0.200000X-0.275000X0.200000X0.275000X-0.200000X0.275000X0*%
%ADD36R,0.650000X1.060000*%
%ADD37RoundRect,0.250000X-0.312500X-0.625000X0.312500X-0.625000X0.312500X0.625000X-0.312500X0.625000X0*%
%ADD38RoundRect,0.150000X-0.150000X0.825000X-0.150000X-0.825000X0.150000X-0.825000X0.150000X0.825000X0*%
%ADD39R,1.600000X1.600000*%
%ADD40C,1.600000*%
%ADD41RoundRect,0.250000X0.312500X0.625000X-0.312500X0.625000X-0.312500X-0.625000X0.312500X-0.625000X0*%
G04 APERTURE END LIST*
D10*
X172600001Y-143299999D02*
X34300000Y-143304543D01*
D11*
X39576000Y-37700000D02*
G75*
G03*
X39576000Y-37700000I-576000J0D01*
G01*
X39376000Y-139200000D02*
G75*
G03*
X39376000Y-139200000I-576000J0D01*
G01*
D10*
X34300000Y-33400000D02*
G75*
G03*
X29898889Y-37900000I100000J-4500000D01*
G01*
X34300000Y-33400000D02*
X172700000Y-33400000D01*
D11*
X168476000Y-139200000D02*
G75*
G03*
X168476000Y-139200000I-576000J0D01*
G01*
D10*
X29900000Y-139100000D02*
X29898889Y-37900000D01*
X177100000Y-37800000D02*
X177101135Y-138899999D01*
X172600001Y-143299999D02*
G75*
G03*
X177101135Y-138899999I99999J4399999D01*
G01*
X177100000Y-37800000D02*
G75*
G03*
X172700000Y-33400000I-4400000J0D01*
G01*
X29900000Y-139100000D02*
G75*
G03*
X34300000Y-143304543I4400000J200000D01*
G01*
D12*
X34300000Y-37800000D03*
D13*
X77000000Y-56900000D03*
D14*
X77000000Y-59440000D03*
X79540000Y-56900000D03*
X79540000Y-59440000D03*
X82080000Y-56900000D03*
X82080000Y-59440000D03*
X84620000Y-56900000D03*
X84620000Y-59440000D03*
X87160000Y-56900000D03*
X87160000Y-59440000D03*
X89700000Y-56900000D03*
X89700000Y-59440000D03*
X92240000Y-56900000D03*
X92240000Y-59440000D03*
X94780000Y-56900000D03*
X94780000Y-59440000D03*
X97320000Y-56900000D03*
X97320000Y-59440000D03*
X99860000Y-56900000D03*
X99860000Y-59440000D03*
X102400000Y-56900000D03*
X102400000Y-59440000D03*
X104940000Y-56900000D03*
X104940000Y-59440000D03*
X107480000Y-56900000D03*
X107480000Y-59440000D03*
X110020000Y-56900000D03*
X110020000Y-59440000D03*
X112560000Y-56900000D03*
X112560000Y-59440000D03*
X115100000Y-56900000D03*
X115100000Y-59440000D03*
X117640000Y-56900000D03*
X117640000Y-59440000D03*
X120180000Y-56900000D03*
X120180000Y-59440000D03*
X122720000Y-56900000D03*
X122720000Y-59440000D03*
X125260000Y-56900000D03*
X125260000Y-59440000D03*
D13*
X77000000Y-76900000D03*
D14*
X77000000Y-79440000D03*
X79540000Y-76900000D03*
X79540000Y-79440000D03*
X82080000Y-76900000D03*
X82080000Y-79440000D03*
X84620000Y-76900000D03*
X84620000Y-79440000D03*
X87160000Y-76900000D03*
X87160000Y-79440000D03*
X89700000Y-76900000D03*
X89700000Y-79440000D03*
X92240000Y-76900000D03*
X92240000Y-79440000D03*
X94780000Y-76900000D03*
X94780000Y-79440000D03*
X97320000Y-76900000D03*
X97320000Y-79440000D03*
X99860000Y-76900000D03*
X99860000Y-79440000D03*
X102400000Y-76900000D03*
X102400000Y-79440000D03*
X104940000Y-76900000D03*
X104940000Y-79440000D03*
X107480000Y-76900000D03*
X107480000Y-79440000D03*
X110020000Y-76900000D03*
X110020000Y-79440000D03*
X112560000Y-76900000D03*
X112560000Y-79440000D03*
X115100000Y-76900000D03*
X115100000Y-79440000D03*
X117640000Y-76900000D03*
X117640000Y-79440000D03*
X120180000Y-76900000D03*
X120180000Y-79440000D03*
X122720000Y-76900000D03*
X122720000Y-79440000D03*
X125260000Y-76900000D03*
X125260000Y-79440000D03*
D13*
X77000000Y-116940000D03*
D14*
X77000000Y-119480000D03*
X79540000Y-116940000D03*
X79540000Y-119480000D03*
X82080000Y-116940000D03*
X82080000Y-119480000D03*
X84620000Y-116940000D03*
X84620000Y-119480000D03*
X87160000Y-116940000D03*
X87160000Y-119480000D03*
X89700000Y-116940000D03*
X89700000Y-119480000D03*
X92240000Y-116940000D03*
X92240000Y-119480000D03*
X94780000Y-116940000D03*
X94780000Y-119480000D03*
X97320000Y-116940000D03*
X97320000Y-119480000D03*
X99860000Y-116940000D03*
X99860000Y-119480000D03*
X102400000Y-116940000D03*
X102400000Y-119480000D03*
X104940000Y-116940000D03*
X104940000Y-119480000D03*
X107480000Y-116940000D03*
X107480000Y-119480000D03*
X110020000Y-116940000D03*
X110020000Y-119480000D03*
X112560000Y-116940000D03*
X112560000Y-119480000D03*
X115100000Y-116940000D03*
X115100000Y-119480000D03*
X117640000Y-116940000D03*
X117640000Y-119480000D03*
X120180000Y-116940000D03*
X120180000Y-119480000D03*
X122720000Y-116940000D03*
X122720000Y-119480000D03*
X125260000Y-116940000D03*
X125260000Y-119480000D03*
D15*
X134025000Y-70362500D03*
X134675000Y-70362500D03*
X135325000Y-70362500D03*
X135975000Y-70362500D03*
X136625000Y-70362500D03*
X137275000Y-70362500D03*
X137925000Y-70362500D03*
X138575000Y-70362500D03*
X139225000Y-70362500D03*
X139875000Y-70362500D03*
X140525000Y-70362500D03*
X141175000Y-70362500D03*
X141175000Y-64637500D03*
X140525000Y-64637500D03*
X139875000Y-64637500D03*
X139225000Y-64637500D03*
X138575000Y-64637500D03*
X137925000Y-64637500D03*
X137275000Y-64637500D03*
X136625000Y-64637500D03*
X135975000Y-64637500D03*
X135325000Y-64637500D03*
X134675000Y-64637500D03*
X134025000Y-64637500D03*
D16*
X134000000Y-60825000D03*
X134000000Y-62375000D03*
D17*
X132325000Y-134000000D03*
X133875000Y-134000000D03*
D18*
X131950000Y-131900000D03*
X133850000Y-131900000D03*
D17*
X136025000Y-44200000D03*
X137575000Y-44200000D03*
X136425000Y-54600000D03*
X137975000Y-54600000D03*
D19*
X140575000Y-114100000D03*
X139025000Y-114100000D03*
D20*
X139100000Y-99575000D03*
X139100000Y-98025000D03*
D19*
X141375000Y-92400000D03*
X139825000Y-92400000D03*
D20*
X139800000Y-77975000D03*
X139800000Y-76425000D03*
D21*
X170350000Y-77100000D03*
X154750000Y-74700000D03*
X154750000Y-79500000D03*
X162250000Y-74700000D03*
X162250000Y-69700000D03*
X154750000Y-69700000D03*
X162250000Y-79500000D03*
X162250000Y-84500000D03*
X154750000Y-84500000D03*
X170350000Y-53600000D03*
X154750000Y-51200000D03*
X154750000Y-56000000D03*
X162250000Y-51200000D03*
X162250000Y-46200000D03*
X154750000Y-46200000D03*
X162250000Y-56000000D03*
X162250000Y-61000000D03*
X154750000Y-61000000D03*
D22*
X137300000Y-92275000D03*
X137300000Y-93925000D03*
X143700000Y-92175000D03*
X143700000Y-93825000D03*
D23*
X151900000Y-94737500D03*
X151900000Y-97662500D03*
X158000000Y-89437500D03*
X158000000Y-92362500D03*
D22*
X172000000Y-111375000D03*
X172000000Y-113025000D03*
D23*
X172400000Y-106237500D03*
X172400000Y-109162500D03*
D24*
X133755000Y-51675000D03*
X135025000Y-51675000D03*
X136295000Y-51675000D03*
X137565000Y-51675000D03*
X138835000Y-51675000D03*
X140105000Y-51675000D03*
X141375000Y-51675000D03*
X142645000Y-51675000D03*
X142645000Y-46725000D03*
X141375000Y-46725000D03*
X140105000Y-46725000D03*
X138835000Y-46725000D03*
X137565000Y-46725000D03*
X136295000Y-46725000D03*
X135025000Y-46725000D03*
X133755000Y-46725000D03*
D25*
X136325000Y-133995000D03*
X136325000Y-135265000D03*
X136325000Y-136535000D03*
X136325000Y-137805000D03*
X141275000Y-137805000D03*
X141275000Y-136535000D03*
X141275000Y-135265000D03*
X141275000Y-133995000D03*
D26*
X46037500Y-120625000D03*
X46037500Y-121275000D03*
X46037500Y-121925000D03*
X46037500Y-122575000D03*
X46037500Y-123225000D03*
X46037500Y-123875000D03*
X46037500Y-124525000D03*
X46037500Y-125175000D03*
X51762500Y-125175000D03*
X51762500Y-124525000D03*
X51762500Y-123875000D03*
X51762500Y-123225000D03*
X51762500Y-122575000D03*
X51762500Y-121925000D03*
X51762500Y-121275000D03*
X51762500Y-120625000D03*
X46037500Y-107575000D03*
X46037500Y-108225000D03*
X46037500Y-108875000D03*
X46037500Y-109525000D03*
X46037500Y-110175000D03*
X46037500Y-110825000D03*
X46037500Y-111475000D03*
X46037500Y-112125000D03*
X46037500Y-112775000D03*
X46037500Y-113425000D03*
X51762500Y-113425000D03*
X51762500Y-112775000D03*
X51762500Y-112125000D03*
X51762500Y-111475000D03*
X51762500Y-110825000D03*
X51762500Y-110175000D03*
X51762500Y-109525000D03*
X51762500Y-108875000D03*
X51762500Y-108225000D03*
X51762500Y-107575000D03*
D27*
X38800000Y-77425000D03*
X38800000Y-75775000D03*
D19*
X53475000Y-128300000D03*
X51925000Y-128300000D03*
X53375000Y-105900000D03*
X51825000Y-105900000D03*
X56175000Y-89700000D03*
X54625000Y-89700000D03*
D13*
X33400000Y-79300000D03*
D14*
X35940000Y-79300000D03*
X33400000Y-81840000D03*
X35940000Y-81840000D03*
X33400000Y-84380000D03*
X35940000Y-84380000D03*
X33400000Y-86920000D03*
X35940000Y-86920000D03*
X33400000Y-89460000D03*
X35940000Y-89460000D03*
X33400000Y-92000000D03*
X35940000Y-92000000D03*
X33400000Y-94540000D03*
X35940000Y-94540000D03*
X33400000Y-97080000D03*
X35940000Y-97080000D03*
X33400000Y-99620000D03*
X35940000Y-99620000D03*
X33400000Y-102160000D03*
X35940000Y-102160000D03*
X33400000Y-104700000D03*
X35940000Y-104700000D03*
X33400000Y-107240000D03*
X35940000Y-107240000D03*
X33400000Y-109780000D03*
X35940000Y-109780000D03*
X33400000Y-112320000D03*
X35940000Y-112320000D03*
X33400000Y-114860000D03*
X35940000Y-114860000D03*
X33400000Y-117400000D03*
X35940000Y-117400000D03*
X33400000Y-119940000D03*
X35940000Y-119940000D03*
X33400000Y-122480000D03*
X35940000Y-122480000D03*
X33400000Y-125020000D03*
X35940000Y-125020000D03*
X33400000Y-127560000D03*
X35940000Y-127560000D03*
D16*
X54000000Y-68425000D03*
X54000000Y-69975000D03*
X51800000Y-117225000D03*
X51800000Y-118775000D03*
D28*
X49000000Y-80150000D03*
X49000000Y-82050000D03*
X51000000Y-81100000D03*
X48700000Y-84605001D03*
X48700000Y-86505001D03*
X50700000Y-85555001D03*
D22*
X53100000Y-79475000D03*
X53100000Y-81125000D03*
D25*
X46425000Y-69995000D03*
X46425000Y-71265000D03*
X46425000Y-72535000D03*
X46425000Y-73805000D03*
X51375000Y-73805000D03*
X51375000Y-72535000D03*
X51375000Y-71265000D03*
X51375000Y-69995000D03*
D26*
X46137500Y-130025000D03*
X46137500Y-130675000D03*
X46137500Y-131325000D03*
X46137500Y-131975000D03*
X46137500Y-132625000D03*
X46137500Y-133275000D03*
X46137500Y-133925000D03*
X46137500Y-134575000D03*
X51862500Y-134575000D03*
X51862500Y-133925000D03*
X51862500Y-133275000D03*
X51862500Y-132625000D03*
X51862500Y-131975000D03*
X51862500Y-131325000D03*
X51862500Y-130675000D03*
X51862500Y-130025000D03*
X46037500Y-89775000D03*
X46037500Y-90425000D03*
X46037500Y-91075000D03*
X46037500Y-91725000D03*
X46037500Y-92375000D03*
X46037500Y-93025000D03*
X46037500Y-93675000D03*
X46037500Y-94325000D03*
X46037500Y-94975000D03*
X46037500Y-95625000D03*
X51762500Y-95625000D03*
X51762500Y-94975000D03*
X51762500Y-94325000D03*
X51762500Y-93675000D03*
X51762500Y-93025000D03*
X51762500Y-92375000D03*
X51762500Y-91725000D03*
X51762500Y-91075000D03*
X51762500Y-90425000D03*
X51762500Y-89775000D03*
D29*
X146825000Y-134050000D03*
X145175000Y-134050000D03*
X146825000Y-136500000D03*
X145175000Y-136500000D03*
D20*
X149400000Y-134075000D03*
X149400000Y-132525000D03*
X149400000Y-138075000D03*
X149400000Y-136525000D03*
D25*
X162325000Y-109895000D03*
X162325000Y-111165000D03*
X162325000Y-112435000D03*
X162325000Y-113705000D03*
X167275000Y-113705000D03*
X167275000Y-112435000D03*
X167275000Y-111165000D03*
X167275000Y-109895000D03*
D20*
X159800000Y-111375000D03*
X159800000Y-109825000D03*
X169900000Y-112975000D03*
X169900000Y-111425000D03*
D16*
X159700000Y-113725000D03*
X159700000Y-115275000D03*
D17*
X167225000Y-107800000D03*
X168775000Y-107800000D03*
D30*
X156300000Y-109887500D03*
X156300000Y-111712500D03*
D29*
X161375000Y-106550000D03*
X159725000Y-106550000D03*
D20*
X158100000Y-96475000D03*
X158100000Y-94925000D03*
D19*
X158452500Y-99047500D03*
X156902500Y-99047500D03*
D20*
X168700000Y-95175000D03*
X168700000Y-93625000D03*
D30*
X155100000Y-94887500D03*
X155100000Y-96712500D03*
D25*
X161125000Y-95195000D03*
X161125000Y-96465000D03*
X161125000Y-97735000D03*
X161125000Y-99005000D03*
X166075000Y-99005000D03*
X166075000Y-97735000D03*
X166075000Y-96465000D03*
X166075000Y-95195000D03*
D12*
X34300000Y-138900000D03*
X172600000Y-138900000D03*
X172700000Y-37800000D03*
D27*
X52600000Y-87225000D03*
X52600000Y-85575000D03*
D22*
X136400000Y-113775000D03*
X136400000Y-115425000D03*
D31*
X172300000Y-130000000D03*
X172300000Y-125000000D03*
X172300000Y-120000000D03*
X167300000Y-130000000D03*
X167300000Y-125000000D03*
X167300000Y-120000000D03*
D27*
X164900000Y-106625000D03*
X164900000Y-104975000D03*
D22*
X142700000Y-54075000D03*
X142700000Y-55725000D03*
D27*
X137300000Y-78025000D03*
X137300000Y-76375000D03*
D32*
X133885000Y-111350000D03*
X135155000Y-111350000D03*
X136425000Y-111350000D03*
X137695000Y-111350000D03*
X138965000Y-111350000D03*
X140235000Y-111350000D03*
X141505000Y-111350000D03*
X142775000Y-111350000D03*
X144045000Y-111350000D03*
X145315000Y-111350000D03*
X145315000Y-102050000D03*
X144045000Y-102050000D03*
X142775000Y-102050000D03*
X141505000Y-102050000D03*
X140235000Y-102050000D03*
X138965000Y-102050000D03*
X137695000Y-102050000D03*
X136425000Y-102050000D03*
X135155000Y-102050000D03*
X133885000Y-102050000D03*
D27*
X143700000Y-78025000D03*
X143700000Y-76375000D03*
X136400000Y-99625000D03*
X136400000Y-97975000D03*
D32*
X134785000Y-89750000D03*
X136055000Y-89750000D03*
X137325000Y-89750000D03*
X138595000Y-89750000D03*
X139865000Y-89750000D03*
X141135000Y-89750000D03*
X142405000Y-89750000D03*
X143675000Y-89750000D03*
X144945000Y-89750000D03*
X146215000Y-89750000D03*
X146215000Y-80450000D03*
X144945000Y-80450000D03*
X143675000Y-80450000D03*
X142405000Y-80450000D03*
X141135000Y-80450000D03*
X139865000Y-80450000D03*
X138595000Y-80450000D03*
X137325000Y-80450000D03*
X136055000Y-80450000D03*
X134785000Y-80450000D03*
D33*
X75900000Y-71400000D03*
X55300000Y-76300000D03*
X50800000Y-77000000D03*
X44800000Y-99800000D03*
X57500000Y-58800000D03*
X48800000Y-58700000D03*
X60400000Y-103200000D03*
X59000000Y-126400000D03*
X56800000Y-137700000D03*
X142000000Y-58300000D03*
X156600000Y-134000000D03*
X161000000Y-136500000D03*
X145000000Y-97200000D03*
D34*
X138487500Y-35200000D03*
X136912500Y-35200000D03*
D35*
X140375000Y-35200000D03*
X142025000Y-35200000D03*
D29*
X41025000Y-72800000D03*
X39375000Y-72800000D03*
D13*
X77000000Y-96800000D03*
D14*
X77000000Y-99340000D03*
X79540000Y-96800000D03*
X79540000Y-99340000D03*
X82080000Y-96800000D03*
X82080000Y-99340000D03*
X84620000Y-96800000D03*
X84620000Y-99340000D03*
X87160000Y-96800000D03*
X87160000Y-99340000D03*
X89700000Y-96800000D03*
X89700000Y-99340000D03*
X92240000Y-96800000D03*
X92240000Y-99340000D03*
X94780000Y-96800000D03*
X94780000Y-99340000D03*
X97320000Y-96800000D03*
X97320000Y-99340000D03*
X99860000Y-96800000D03*
X99860000Y-99340000D03*
X102400000Y-96800000D03*
X102400000Y-99340000D03*
X104940000Y-96800000D03*
X104940000Y-99340000D03*
X107480000Y-96800000D03*
X107480000Y-99340000D03*
X110020000Y-96800000D03*
X110020000Y-99340000D03*
X112560000Y-96800000D03*
X112560000Y-99340000D03*
X115100000Y-96800000D03*
X115100000Y-99340000D03*
X117640000Y-96800000D03*
X117640000Y-99340000D03*
X120180000Y-96800000D03*
X120180000Y-99340000D03*
X122720000Y-96800000D03*
X122720000Y-99340000D03*
X125260000Y-96800000D03*
X125260000Y-99340000D03*
D13*
X77000000Y-36800000D03*
D14*
X77000000Y-39340000D03*
X79540000Y-36800000D03*
X79540000Y-39340000D03*
X82080000Y-36800000D03*
X82080000Y-39340000D03*
X84620000Y-36800000D03*
X84620000Y-39340000D03*
X87160000Y-36800000D03*
X87160000Y-39340000D03*
X89700000Y-36800000D03*
X89700000Y-39340000D03*
X92240000Y-36800000D03*
X92240000Y-39340000D03*
X94780000Y-36800000D03*
X94780000Y-39340000D03*
X97320000Y-36800000D03*
X97320000Y-39340000D03*
X99860000Y-36800000D03*
X99860000Y-39340000D03*
X102400000Y-36800000D03*
X102400000Y-39340000D03*
X104940000Y-36800000D03*
X104940000Y-39340000D03*
X107480000Y-36800000D03*
X107480000Y-39340000D03*
X110020000Y-36800000D03*
X110020000Y-39340000D03*
X112560000Y-36800000D03*
X112560000Y-39340000D03*
X115100000Y-36800000D03*
X115100000Y-39340000D03*
X117640000Y-36800000D03*
X117640000Y-39340000D03*
X120180000Y-36800000D03*
X120180000Y-39340000D03*
X122720000Y-36800000D03*
X122720000Y-39340000D03*
X125260000Y-36800000D03*
X125260000Y-39340000D03*
D13*
X61000000Y-36800000D03*
D14*
X61000000Y-39340000D03*
X58460000Y-36800000D03*
X58460000Y-39340000D03*
X55920000Y-36800000D03*
X55920000Y-39340000D03*
X53380000Y-36800000D03*
X53380000Y-39340000D03*
X50840000Y-36800000D03*
X50840000Y-39340000D03*
X48300000Y-36800000D03*
X48300000Y-39340000D03*
X45760000Y-36800000D03*
X45760000Y-39340000D03*
X43220000Y-36800000D03*
X43220000Y-39340000D03*
D33*
X72300000Y-71400000D03*
X59200000Y-119700000D03*
D13*
X77000000Y-137000000D03*
D14*
X77000000Y-139540000D03*
X79540000Y-137000000D03*
X79540000Y-139540000D03*
X82080000Y-137000000D03*
X82080000Y-139540000D03*
X84620000Y-137000000D03*
X84620000Y-139540000D03*
X87160000Y-137000000D03*
X87160000Y-139540000D03*
X89700000Y-137000000D03*
X89700000Y-139540000D03*
X92240000Y-137000000D03*
X92240000Y-139540000D03*
X94780000Y-137000000D03*
X94780000Y-139540000D03*
X97320000Y-137000000D03*
X97320000Y-139540000D03*
X99860000Y-137000000D03*
X99860000Y-139540000D03*
X102400000Y-137000000D03*
X102400000Y-139540000D03*
X104940000Y-137000000D03*
X104940000Y-139540000D03*
X107480000Y-137000000D03*
X107480000Y-139540000D03*
X110020000Y-137000000D03*
X110020000Y-139540000D03*
X112560000Y-137000000D03*
X112560000Y-139540000D03*
X115100000Y-137000000D03*
X115100000Y-139540000D03*
X117640000Y-137000000D03*
X117640000Y-139540000D03*
X120180000Y-137000000D03*
X120180000Y-139540000D03*
X122720000Y-137000000D03*
X122720000Y-139540000D03*
X125260000Y-137000000D03*
X125260000Y-139540000D03*
D36*
X42950000Y-75300000D03*
X42000000Y-75300000D03*
X41050000Y-75300000D03*
X41050000Y-77500000D03*
X42000000Y-77500000D03*
X42950000Y-77500000D03*
D28*
X40900000Y-79850000D03*
X40900000Y-81750000D03*
X42900000Y-80800000D03*
D29*
X46125000Y-87600000D03*
X44475000Y-87600000D03*
D16*
X161450000Y-129765000D03*
X161450000Y-131315000D03*
D37*
X148137500Y-113100000D03*
X151062500Y-113100000D03*
D38*
X161410000Y-122125000D03*
X160140000Y-122125000D03*
X158870000Y-122125000D03*
X157600000Y-122125000D03*
X156330000Y-122125000D03*
X155060000Y-122125000D03*
X153790000Y-122125000D03*
X153790000Y-127075000D03*
X155060000Y-127075000D03*
X156330000Y-127075000D03*
X157600000Y-127075000D03*
X158870000Y-127075000D03*
X160140000Y-127075000D03*
X161410000Y-127075000D03*
D39*
X148100000Y-127982379D03*
D40*
X148100000Y-125482379D03*
D35*
X41175000Y-112800000D03*
X42825000Y-112800000D03*
D20*
X153850000Y-131315000D03*
X153850000Y-129765000D03*
D27*
X49400000Y-116925000D03*
X49400000Y-115275000D03*
D41*
X142662500Y-120600000D03*
X139737500Y-120600000D03*
D17*
X153725000Y-119500000D03*
X155275000Y-119500000D03*
D35*
X41175000Y-110800000D03*
X42825000Y-110800000D03*
D27*
X47400000Y-116925000D03*
X47400000Y-115275000D03*
D39*
X148200000Y-116817621D03*
D40*
X148200000Y-119317621D03*
M02*
