G04 #@! TF.GenerationSoftware,KiCad,Pcbnew,(5.1.12-1-10_14)*
G04 #@! TF.CreationDate,2022-08-03T22:22:08-07:00*
G04 #@! TF.ProjectId,vca_board,7663615f-626f-4617-9264-2e6b69636164,rev?*
G04 #@! TF.SameCoordinates,Original*
G04 #@! TF.FileFunction,Copper,L3,Inr*
G04 #@! TF.FilePolarity,Positive*
%FSLAX46Y46*%
G04 Gerber Fmt 4.6, Leading zero omitted, Abs format (unit mm)*
G04 Created by KiCad (PCBNEW (5.1.12-1-10_14)) date 2022-08-03 22:22:08*
%MOMM*%
%LPD*%
G01*
G04 APERTURE LIST*
G04 #@! TA.AperFunction,Profile*
%ADD10C,0.050000*%
G04 #@! TD*
G04 #@! TA.AperFunction,Profile*
%ADD11C,0.150000*%
G04 #@! TD*
G04 #@! TA.AperFunction,ComponentPad*
%ADD12O,1.600000X1.600000*%
G04 #@! TD*
G04 #@! TA.AperFunction,ComponentPad*
%ADD13C,1.600000*%
G04 #@! TD*
G04 #@! TA.AperFunction,ComponentPad*
%ADD14O,1.700000X1.700000*%
G04 #@! TD*
G04 #@! TA.AperFunction,ComponentPad*
%ADD15R,1.700000X1.700000*%
G04 #@! TD*
G04 #@! TA.AperFunction,ComponentPad*
%ADD16C,2.340000*%
G04 #@! TD*
G04 #@! TA.AperFunction,ComponentPad*
%ADD17O,3.000000X1.600000*%
G04 #@! TD*
G04 #@! TA.AperFunction,ComponentPad*
%ADD18C,6.400000*%
G04 #@! TD*
G04 #@! TA.AperFunction,ViaPad*
%ADD19C,0.800000*%
G04 #@! TD*
G04 #@! TA.AperFunction,ViaPad*
%ADD20C,1.000000*%
G04 #@! TD*
G04 #@! TA.AperFunction,Conductor*
%ADD21C,0.400000*%
G04 #@! TD*
G04 #@! TA.AperFunction,Conductor*
%ADD22C,2.000000*%
G04 #@! TD*
G04 #@! TA.AperFunction,Conductor*
%ADD23C,1.000000*%
G04 #@! TD*
G04 #@! TA.AperFunction,Conductor*
%ADD24C,0.600000*%
G04 #@! TD*
G04 #@! TA.AperFunction,Conductor*
%ADD25C,0.500000*%
G04 #@! TD*
G04 #@! TA.AperFunction,Conductor*
%ADD26C,0.300000*%
G04 #@! TD*
G04 #@! TA.AperFunction,Conductor*
%ADD27C,0.254000*%
G04 #@! TD*
G04 #@! TA.AperFunction,Conductor*
%ADD28C,0.100000*%
G04 #@! TD*
G04 APERTURE END LIST*
D10*
X39376000Y-139200000D02*
G75*
G03*
X39376000Y-139200000I-576000J0D01*
G01*
X168476000Y-139200000D02*
G75*
G03*
X168476000Y-139200000I-576000J0D01*
G01*
X39576000Y-37700000D02*
G75*
G03*
X39576000Y-37700000I-576000J0D01*
G01*
D11*
X172600001Y-143299999D02*
X34300000Y-143304543D01*
X34300000Y-143304543D02*
G75*
G02*
X29900000Y-139100000I0J4404543D01*
G01*
X177101135Y-138899999D02*
G75*
G02*
X172600001Y-143299999I-4401135J-1D01*
G01*
X172700000Y-33400000D02*
G75*
G02*
X177100000Y-37800000I0J-4400000D01*
G01*
X29898889Y-37900000D02*
G75*
G02*
X34300000Y-33400000I4501111J0D01*
G01*
X29900000Y-139100000D02*
X29900000Y-37900000D01*
X177100000Y-37800000D02*
X177100000Y-138900000D01*
X34300000Y-33400000D02*
X172700000Y-33400000D01*
D12*
X150500000Y-109160000D03*
D13*
X150500000Y-99000000D03*
D14*
X55920000Y-36800000D03*
X58460000Y-39340000D03*
X43220000Y-39340000D03*
X50840000Y-36800000D03*
X43220000Y-36800000D03*
X45760000Y-39340000D03*
X45760000Y-36800000D03*
X48300000Y-39340000D03*
X48300000Y-36800000D03*
X50840000Y-39340000D03*
X53380000Y-39340000D03*
X53380000Y-36800000D03*
X55920000Y-39340000D03*
D15*
X61000000Y-36800000D03*
D14*
X61000000Y-39340000D03*
X58460000Y-36800000D03*
X84620000Y-137000000D03*
X79540000Y-139540000D03*
X104940000Y-137000000D03*
X104940000Y-139540000D03*
X107480000Y-137000000D03*
X125260000Y-137000000D03*
X125260000Y-139540000D03*
X122720000Y-137000000D03*
X122720000Y-139540000D03*
X84620000Y-139540000D03*
X115100000Y-137000000D03*
X115100000Y-139540000D03*
X117640000Y-137000000D03*
X117640000Y-139540000D03*
X120180000Y-137000000D03*
X120180000Y-139540000D03*
X87160000Y-137000000D03*
X102400000Y-137000000D03*
X102400000Y-139540000D03*
X92240000Y-139540000D03*
X94780000Y-137000000D03*
X94780000Y-139540000D03*
X107480000Y-139540000D03*
X110020000Y-137000000D03*
X110020000Y-139540000D03*
X112560000Y-137000000D03*
X112560000Y-139540000D03*
X97320000Y-137000000D03*
X97320000Y-139540000D03*
X99860000Y-137000000D03*
X99860000Y-139540000D03*
X89700000Y-139540000D03*
X92240000Y-137000000D03*
X77000000Y-139540000D03*
X87160000Y-139540000D03*
X89700000Y-137000000D03*
X82080000Y-137000000D03*
D15*
X77000000Y-137000000D03*
D14*
X79540000Y-137000000D03*
X82080000Y-139540000D03*
X84620000Y-116940000D03*
X79540000Y-119480000D03*
X104940000Y-116940000D03*
X104940000Y-119480000D03*
X107480000Y-116940000D03*
X125260000Y-116940000D03*
X125260000Y-119480000D03*
X122720000Y-116940000D03*
X122720000Y-119480000D03*
X84620000Y-119480000D03*
X115100000Y-116940000D03*
X115100000Y-119480000D03*
X117640000Y-116940000D03*
X117640000Y-119480000D03*
X120180000Y-116940000D03*
X120180000Y-119480000D03*
X87160000Y-116940000D03*
X102400000Y-116940000D03*
X102400000Y-119480000D03*
X92240000Y-119480000D03*
X94780000Y-116940000D03*
X94780000Y-119480000D03*
X107480000Y-119480000D03*
X110020000Y-116940000D03*
X110020000Y-119480000D03*
X112560000Y-116940000D03*
X112560000Y-119480000D03*
X97320000Y-116940000D03*
X97320000Y-119480000D03*
X99860000Y-116940000D03*
X99860000Y-119480000D03*
X89700000Y-119480000D03*
X92240000Y-116940000D03*
X77000000Y-119480000D03*
X87160000Y-119480000D03*
X89700000Y-116940000D03*
X82080000Y-116940000D03*
D15*
X77000000Y-116940000D03*
D14*
X79540000Y-116940000D03*
X82080000Y-119480000D03*
X84620000Y-96800000D03*
X79540000Y-99340000D03*
X104940000Y-96800000D03*
X104940000Y-99340000D03*
X107480000Y-96800000D03*
X125260000Y-96800000D03*
X125260000Y-99340000D03*
X122720000Y-96800000D03*
X122720000Y-99340000D03*
X84620000Y-99340000D03*
X115100000Y-96800000D03*
X115100000Y-99340000D03*
X117640000Y-96800000D03*
X117640000Y-99340000D03*
X120180000Y-96800000D03*
X120180000Y-99340000D03*
X87160000Y-96800000D03*
X102400000Y-96800000D03*
X102400000Y-99340000D03*
X92240000Y-99340000D03*
X94780000Y-96800000D03*
X94780000Y-99340000D03*
X107480000Y-99340000D03*
X110020000Y-96800000D03*
X110020000Y-99340000D03*
X112560000Y-96800000D03*
X112560000Y-99340000D03*
X97320000Y-96800000D03*
X97320000Y-99340000D03*
X99860000Y-96800000D03*
X99860000Y-99340000D03*
X89700000Y-99340000D03*
X92240000Y-96800000D03*
X77000000Y-99340000D03*
X87160000Y-99340000D03*
X89700000Y-96800000D03*
X82080000Y-96800000D03*
D15*
X77000000Y-96800000D03*
D14*
X79540000Y-96800000D03*
X82080000Y-99340000D03*
X84620000Y-76900000D03*
X79540000Y-79440000D03*
X104940000Y-76900000D03*
X104940000Y-79440000D03*
X107480000Y-76900000D03*
X125260000Y-76900000D03*
X125260000Y-79440000D03*
X122720000Y-76900000D03*
X122720000Y-79440000D03*
X84620000Y-79440000D03*
X115100000Y-76900000D03*
X115100000Y-79440000D03*
X117640000Y-76900000D03*
X117640000Y-79440000D03*
X120180000Y-76900000D03*
X120180000Y-79440000D03*
X87160000Y-76900000D03*
X102400000Y-76900000D03*
X102400000Y-79440000D03*
X92240000Y-79440000D03*
X94780000Y-76900000D03*
X94780000Y-79440000D03*
X107480000Y-79440000D03*
X110020000Y-76900000D03*
X110020000Y-79440000D03*
X112560000Y-76900000D03*
X112560000Y-79440000D03*
X97320000Y-76900000D03*
X97320000Y-79440000D03*
X99860000Y-76900000D03*
X99860000Y-79440000D03*
X89700000Y-79440000D03*
X92240000Y-76900000D03*
X77000000Y-79440000D03*
X87160000Y-79440000D03*
X89700000Y-76900000D03*
X82080000Y-76900000D03*
D15*
X77000000Y-76900000D03*
D14*
X79540000Y-76900000D03*
X82080000Y-79440000D03*
X84620000Y-56900000D03*
X79540000Y-59440000D03*
X104940000Y-56900000D03*
X104940000Y-59440000D03*
X107480000Y-56900000D03*
X125260000Y-56900000D03*
X125260000Y-59440000D03*
X122720000Y-56900000D03*
X122720000Y-59440000D03*
X84620000Y-59440000D03*
X115100000Y-56900000D03*
X115100000Y-59440000D03*
X117640000Y-56900000D03*
X117640000Y-59440000D03*
X120180000Y-56900000D03*
X120180000Y-59440000D03*
X87160000Y-56900000D03*
X102400000Y-56900000D03*
X102400000Y-59440000D03*
X92240000Y-59440000D03*
X94780000Y-56900000D03*
X94780000Y-59440000D03*
X107480000Y-59440000D03*
X110020000Y-56900000D03*
X110020000Y-59440000D03*
X112560000Y-56900000D03*
X112560000Y-59440000D03*
X97320000Y-56900000D03*
X97320000Y-59440000D03*
X99860000Y-56900000D03*
X99860000Y-59440000D03*
X89700000Y-59440000D03*
X92240000Y-56900000D03*
X77000000Y-59440000D03*
X87160000Y-59440000D03*
X89700000Y-56900000D03*
X82080000Y-56900000D03*
D15*
X77000000Y-56900000D03*
D14*
X79540000Y-56900000D03*
X82080000Y-59440000D03*
X84620000Y-36800000D03*
X79540000Y-39340000D03*
X104940000Y-36800000D03*
X104940000Y-39340000D03*
X107480000Y-36800000D03*
X125260000Y-36800000D03*
X125260000Y-39340000D03*
X122720000Y-36800000D03*
X122720000Y-39340000D03*
X84620000Y-39340000D03*
X115100000Y-36800000D03*
X115100000Y-39340000D03*
X117640000Y-36800000D03*
X117640000Y-39340000D03*
X120180000Y-36800000D03*
X120180000Y-39340000D03*
X87160000Y-36800000D03*
X102400000Y-36800000D03*
X102400000Y-39340000D03*
X92240000Y-39340000D03*
X94780000Y-36800000D03*
X94780000Y-39340000D03*
X107480000Y-39340000D03*
X110020000Y-36800000D03*
X110020000Y-39340000D03*
X112560000Y-36800000D03*
X112560000Y-39340000D03*
X97320000Y-36800000D03*
X97320000Y-39340000D03*
X99860000Y-36800000D03*
X99860000Y-39340000D03*
X89700000Y-39340000D03*
X92240000Y-36800000D03*
X77000000Y-39340000D03*
X87160000Y-39340000D03*
X89700000Y-36800000D03*
X82080000Y-36800000D03*
D15*
X77000000Y-36800000D03*
D14*
X79540000Y-36800000D03*
X82080000Y-39340000D03*
X35940000Y-127560000D03*
X33400000Y-127560000D03*
X35940000Y-125020000D03*
X33400000Y-125020000D03*
X35940000Y-122480000D03*
X33400000Y-122480000D03*
X35940000Y-119940000D03*
X33400000Y-119940000D03*
X35940000Y-117400000D03*
X33400000Y-117400000D03*
X35940000Y-114860000D03*
X33400000Y-114860000D03*
X35940000Y-112320000D03*
X33400000Y-112320000D03*
X35940000Y-109780000D03*
X33400000Y-109780000D03*
X35940000Y-107240000D03*
X33400000Y-107240000D03*
X35940000Y-104700000D03*
X33400000Y-104700000D03*
X35940000Y-102160000D03*
X33400000Y-102160000D03*
X35940000Y-99620000D03*
X33400000Y-99620000D03*
X35940000Y-97080000D03*
X33400000Y-97080000D03*
X35940000Y-94540000D03*
X33400000Y-94540000D03*
X35940000Y-92000000D03*
X33400000Y-92000000D03*
X35940000Y-89460000D03*
X33400000Y-89460000D03*
X35940000Y-86920000D03*
X33400000Y-86920000D03*
X35940000Y-84380000D03*
X33400000Y-84380000D03*
X35940000Y-81840000D03*
X33400000Y-81840000D03*
X35940000Y-79300000D03*
D15*
X33400000Y-79300000D03*
D16*
X172300000Y-125000000D03*
X167300000Y-125000000D03*
X167300000Y-120000000D03*
X172300000Y-130000000D03*
X167300000Y-130000000D03*
X172300000Y-120000000D03*
D17*
X152800000Y-61000000D03*
X160300000Y-61000000D03*
X160300000Y-56000000D03*
X152800000Y-46200000D03*
X160300000Y-46200000D03*
X160300000Y-51200000D03*
X152800000Y-56000000D03*
X152800000Y-51200000D03*
X168400000Y-53600000D03*
X152800000Y-84500000D03*
X160300000Y-84500000D03*
X160300000Y-79500000D03*
X152800000Y-69700000D03*
X160300000Y-69700000D03*
X160300000Y-74700000D03*
X152800000Y-79500000D03*
X152800000Y-74700000D03*
X168400000Y-77100000D03*
D18*
X34300000Y-138900000D03*
X172600000Y-138900000D03*
X172700000Y-37800000D03*
X34300000Y-37800000D03*
D19*
X44500000Y-134600000D03*
X44200000Y-125200000D03*
X44400000Y-113400000D03*
X55500000Y-68400000D03*
X44300000Y-73800000D03*
X53900000Y-71500000D03*
X44500000Y-89800000D03*
X44800000Y-96500000D03*
X48600000Y-123200000D03*
X49500000Y-90400000D03*
X53600000Y-107300000D03*
X53400000Y-104500000D03*
X44500000Y-132700000D03*
X56100000Y-88500000D03*
X53400000Y-117500000D03*
X53500000Y-126900000D03*
D20*
X130900000Y-132000000D03*
X130900000Y-134000000D03*
X143400000Y-137800000D03*
X143400000Y-135300000D03*
D19*
X138000000Y-56100000D03*
X141400000Y-93700000D03*
X141200000Y-72000000D03*
X136100000Y-42900000D03*
X140500000Y-115500000D03*
X143900000Y-117100000D03*
X140400000Y-97900000D03*
X163000000Y-97700000D03*
X165200000Y-113700000D03*
X138600000Y-82400000D03*
X141600000Y-74500000D03*
X141500000Y-82500000D03*
X137700000Y-109400000D03*
X137700000Y-100200000D03*
X153000000Y-119200000D03*
X146700000Y-129800000D03*
X154500000Y-129900000D03*
X148300000Y-135500000D03*
X148300000Y-139000000D03*
X169900000Y-106400000D03*
X168000000Y-99000000D03*
X139200000Y-87600000D03*
X141750000Y-87700000D03*
X170100000Y-96400000D03*
X46500000Y-58700000D03*
X160000000Y-113000000D03*
X160100000Y-114400000D03*
D20*
X37100000Y-75800000D03*
X38300000Y-71600000D03*
X38100000Y-73600000D03*
D19*
X156600000Y-98200000D03*
X130750000Y-61000000D03*
X139700000Y-93700000D03*
X139000000Y-115500000D03*
X143900000Y-118500000D03*
X168400000Y-108200000D03*
X168700000Y-96300000D03*
X130399992Y-54600000D03*
D20*
X76600000Y-127900000D03*
X76600000Y-129100000D03*
X76600000Y-126600000D03*
D19*
X137600000Y-42900000D03*
X141200000Y-78000000D03*
X154500000Y-128300000D03*
X140500000Y-99500000D03*
X156600000Y-99800000D03*
D20*
X123900000Y-69900000D03*
X123700000Y-71500000D03*
D19*
X163700000Y-115800000D03*
D20*
X132500000Y-69900000D03*
X132500000Y-71500000D03*
D19*
X44200000Y-123900000D03*
X55500000Y-70000000D03*
X44300000Y-71200000D03*
X53100000Y-78200000D03*
X44399998Y-107200000D03*
X48300000Y-133300000D03*
D20*
X61700000Y-90300000D03*
D19*
X51800000Y-104500000D03*
X51800000Y-117500000D03*
X52000000Y-126900000D03*
D20*
X61400000Y-113800000D03*
X61400000Y-112000000D03*
X61400000Y-115100000D03*
X61600000Y-91900000D03*
X61600000Y-93300000D03*
X61300002Y-72600000D03*
X61300000Y-73800000D03*
X61300000Y-75100000D03*
D19*
X132600000Y-62300000D03*
X135975000Y-67725000D03*
X51400000Y-88300000D03*
X136000000Y-59300000D03*
D20*
X53800000Y-52100000D03*
X54000000Y-55000000D03*
X53800000Y-53600000D03*
X123500000Y-130200000D03*
X44400000Y-80700000D03*
X43299998Y-79400000D03*
X43900000Y-82100000D03*
X44600000Y-76100000D03*
D19*
X47875000Y-79025000D03*
X54600000Y-88500000D03*
X47900000Y-83900000D03*
X44000000Y-128800000D03*
X43400000Y-130200000D03*
X42900000Y-107300000D03*
X56300001Y-84800000D03*
X123300002Y-67300000D03*
X85959999Y-84739995D03*
X87100000Y-67300000D03*
X60600000Y-50100000D03*
X54600000Y-81100000D03*
X124000000Y-66300000D03*
X84400000Y-66200000D03*
X83400000Y-81100000D03*
X53800000Y-95600000D03*
X74100000Y-57000000D03*
X54800000Y-109600000D03*
X72975000Y-109525000D03*
X134200000Y-136500000D03*
X74100000Y-96800000D03*
X74040000Y-116840000D03*
X74200000Y-134600000D03*
X73800000Y-76900000D03*
X55500000Y-107200000D03*
X134400000Y-139800000D03*
X74700000Y-107200000D03*
X58800000Y-70900000D03*
X59100000Y-91200000D03*
X58100000Y-98300000D03*
X49600004Y-98600000D03*
X93499998Y-111100004D03*
X50900000Y-97600000D03*
X90900000Y-106300000D03*
X48600000Y-131900000D03*
X47800000Y-121300000D03*
X133800000Y-53600000D03*
X136200000Y-62900000D03*
X151700000Y-124200000D03*
X138900000Y-42700000D03*
X136400000Y-116799988D03*
X125500000Y-54400000D03*
X138200000Y-49300000D03*
X131500000Y-51000000D03*
X107029999Y-61500000D03*
X130550000Y-73750000D03*
X72100000Y-45400002D03*
X74100000Y-38100000D03*
X71900000Y-62000002D03*
X64800000Y-55300000D03*
X72000000Y-78300000D03*
X65300000Y-75400002D03*
X69600000Y-100900000D03*
X64900000Y-98000000D03*
X56300000Y-133300000D03*
X79500000Y-130600000D03*
X54500000Y-123900000D03*
X54600000Y-125300000D03*
X82000002Y-125300002D03*
X142500000Y-57200008D03*
X141600000Y-109600000D03*
X141600000Y-100100000D03*
X131500000Y-107600000D03*
X132900000Y-74600000D03*
X133830331Y-100230331D03*
X134300000Y-74600000D03*
X144900000Y-65900000D03*
X149200000Y-86200000D03*
X134800000Y-87700000D03*
X135900000Y-74600000D03*
X137500000Y-74600000D03*
X134800000Y-78500000D03*
X148000000Y-77100000D03*
X144799997Y-67099997D03*
X135000000Y-53500000D03*
X137600000Y-63100000D03*
X146600000Y-99400000D03*
X144800000Y-68800000D03*
X145300000Y-108800000D03*
X144800000Y-70299999D03*
X146700000Y-124100000D03*
X142900000Y-104000000D03*
D21*
X101110001Y-42810001D02*
X101800000Y-43500000D01*
X101149999Y-38089999D02*
X101149999Y-42550001D01*
X99860000Y-36800000D02*
X101149999Y-38089999D01*
X101149999Y-42550001D02*
X100200000Y-43500000D01*
D22*
X100200000Y-43500000D02*
X101800000Y-43500000D01*
X98200000Y-43500000D02*
X100200000Y-43500000D01*
D21*
X98570001Y-43129999D02*
X98200000Y-43500000D01*
X98570001Y-38089999D02*
X98570001Y-43129999D01*
X99860000Y-36800000D02*
X98570001Y-38089999D01*
D23*
X99860000Y-95940000D02*
X104300000Y-91500000D01*
X99860000Y-96800000D02*
X99860000Y-95940000D01*
X99860000Y-116440000D02*
X104400000Y-111900000D01*
X99860000Y-116840000D02*
X99860000Y-116440000D01*
X102557919Y-133000000D02*
X99860000Y-135697919D01*
X99860000Y-135697919D02*
X99860000Y-136900000D01*
X102200000Y-73700000D02*
X127900000Y-73700000D01*
X99860000Y-76040000D02*
X102200000Y-73700000D01*
X99860000Y-76800000D02*
X99860000Y-76040000D01*
D24*
X168400000Y-108200000D02*
X163500000Y-103300000D01*
X163500000Y-103300000D02*
X162100000Y-101900000D01*
X162100000Y-101900000D02*
X162700000Y-101900000D01*
D25*
X168700000Y-96300000D02*
X163100000Y-101900000D01*
D22*
X61000000Y-36800000D02*
X61000000Y-39340000D01*
X65160000Y-43500000D02*
X61000000Y-39340000D01*
D23*
X102557919Y-133000000D02*
X123776002Y-133000000D01*
X104400000Y-111900000D02*
X127500000Y-111900000D01*
X104300000Y-91500000D02*
X127500000Y-91500000D01*
X123776002Y-133000000D02*
X128100000Y-128676002D01*
X128100000Y-128676002D02*
X128100000Y-112000000D01*
X128100000Y-112000000D02*
X128200000Y-111900000D01*
X127500000Y-111900000D02*
X128200000Y-111900000D01*
X128100000Y-91700000D02*
X127900000Y-91500000D01*
X127500000Y-91500000D02*
X127900000Y-91500000D01*
X128100000Y-73900000D02*
X127900000Y-73700000D01*
X99860000Y-55660000D02*
X87700000Y-43500000D01*
X99860000Y-56900000D02*
X99860000Y-55660000D01*
D22*
X87700000Y-43500000D02*
X65160000Y-43500000D01*
X98200000Y-43500000D02*
X87700000Y-43500000D01*
D24*
X141500000Y-118500000D02*
X138500000Y-115500000D01*
X143900000Y-118500000D02*
X141500000Y-118500000D01*
X139000000Y-115500000D02*
X138500000Y-115500000D01*
X162300000Y-101900000D02*
X163100000Y-101900000D01*
D25*
X162300000Y-101900000D02*
X162100000Y-101900000D01*
D24*
X139700000Y-93700000D02*
X136400000Y-93700000D01*
D22*
X128700000Y-111400000D02*
X128100000Y-112000000D01*
X120700000Y-43500000D02*
X128700000Y-51500000D01*
X101800000Y-43500000D02*
X120700000Y-43500000D01*
D24*
X129800000Y-54600000D02*
X128700000Y-53500000D01*
X130399992Y-54600000D02*
X129800000Y-54600000D01*
D22*
X128700000Y-51500000D02*
X128700000Y-53500000D01*
D24*
X136400000Y-93700000D02*
X128700000Y-86000000D01*
D22*
X128700000Y-53500000D02*
X128700000Y-86000000D01*
D24*
X137500000Y-101900000D02*
X128700000Y-93100000D01*
X137700000Y-101900000D02*
X137500000Y-101900000D01*
X162100000Y-101900000D02*
X137700000Y-101900000D01*
D22*
X128700000Y-93100000D02*
X128700000Y-111400000D01*
X128700000Y-86000000D02*
X128700000Y-93100000D01*
D24*
X132800000Y-115500000D02*
X128700000Y-111400000D01*
X138500000Y-115500000D02*
X132800000Y-115500000D01*
D23*
X97320000Y-95320000D02*
X91300000Y-89300000D01*
X97320000Y-96800000D02*
X97320000Y-95320000D01*
X97320000Y-116820000D02*
X91600000Y-111100000D01*
X97320000Y-116840000D02*
X97320000Y-116820000D01*
X91600000Y-111100000D02*
X73600000Y-111100000D01*
X97320000Y-56620000D02*
X97320000Y-56800000D01*
X93400000Y-70700000D02*
X74000000Y-70700000D01*
X97320000Y-74620000D02*
X93400000Y-70700000D01*
X97320000Y-76800000D02*
X97320000Y-74620000D01*
X74000000Y-70700000D02*
X72500000Y-70700000D01*
D24*
X141200000Y-78000000D02*
X141200000Y-76200000D01*
D23*
X93400000Y-70700000D02*
X123100000Y-70700000D01*
X123100000Y-70700000D02*
X123900000Y-69900000D01*
X123100000Y-70900000D02*
X123700000Y-71500000D01*
X123100000Y-70700000D02*
X123100000Y-70900000D01*
X141200000Y-76200000D02*
X136750000Y-71750000D01*
D24*
X139300000Y-44600000D02*
X139300000Y-69200000D01*
X137600000Y-42900000D02*
X139300000Y-44600000D01*
D23*
X73600000Y-111100000D02*
X70300000Y-111100000D01*
X91300000Y-89300000D02*
X69200000Y-89300000D01*
X72500000Y-70700000D02*
X69800000Y-70700000D01*
X92500000Y-51600000D02*
X92300000Y-51600000D01*
X97320000Y-56420000D02*
X92500000Y-51600000D01*
X92300000Y-51600000D02*
X72000000Y-51600000D01*
X97320000Y-56900000D02*
X97320000Y-56420000D01*
X72000000Y-51600000D02*
X70500000Y-51600000D01*
D24*
X163700000Y-115800000D02*
X166500000Y-115800000D01*
X166500000Y-115800000D02*
X166750000Y-116050000D01*
D23*
X156650000Y-91650000D02*
X147700000Y-82700000D01*
X157200000Y-92599999D02*
X157200000Y-92200000D01*
X157200000Y-92200000D02*
X156650000Y-91650000D01*
X171700000Y-111100000D02*
X171700000Y-94900000D01*
X171700000Y-94900000D02*
X169399999Y-92599999D01*
X169399999Y-92599999D02*
X157200000Y-92599999D01*
X166750000Y-116050000D02*
X171700000Y-111100000D01*
X154500000Y-128300000D02*
X166750000Y-116050000D01*
D24*
X140500000Y-99500000D02*
X144600000Y-95400000D01*
X144600000Y-80000000D02*
X144800000Y-79800000D01*
X144600000Y-86200000D02*
X144600000Y-80000000D01*
D23*
X144800000Y-79800000D02*
X141200000Y-76200000D01*
X147700000Y-82700000D02*
X144800000Y-79800000D01*
D24*
X144600000Y-95400000D02*
X144600000Y-86200000D01*
X144600000Y-86200000D02*
X144600000Y-85800000D01*
D23*
X136700000Y-71700000D02*
X136750000Y-71750000D01*
X132500000Y-71500000D02*
X134100000Y-71500000D01*
D24*
X137000000Y-71500000D02*
X136750000Y-71750000D01*
X139300000Y-69200000D02*
X137000000Y-71500000D01*
D23*
X134100000Y-71500000D02*
X134800000Y-71500000D01*
X132500000Y-69900000D02*
X134100000Y-71500000D01*
X134800000Y-71500000D02*
X137000000Y-71500000D01*
D24*
X157775001Y-98624999D02*
X157775001Y-92775001D01*
X156600000Y-99800000D02*
X157775001Y-98624999D01*
X157775001Y-92775001D02*
X156650000Y-91650000D01*
D23*
X50840000Y-39340000D02*
X50840000Y-40740000D01*
X50840000Y-40740000D02*
X51800000Y-41700000D01*
X51900000Y-40400000D02*
X51900000Y-41100000D01*
X50840000Y-36800000D02*
X50840000Y-39340000D01*
X50840000Y-39340000D02*
X51900000Y-40400000D01*
X94780000Y-136900000D02*
X92740000Y-134860000D01*
D21*
X92240000Y-136900000D02*
X92240000Y-134660000D01*
D23*
X92390000Y-134510000D02*
X90680000Y-132800000D01*
D21*
X92240000Y-134660000D02*
X92390000Y-134510000D01*
D23*
X92740000Y-134860000D02*
X92390000Y-134510000D01*
D26*
X85820001Y-138100001D02*
X85820001Y-136020001D01*
X87160000Y-139440000D02*
X85820001Y-138100001D01*
X82800000Y-133000000D02*
X82800000Y-132800000D01*
X85820001Y-136020001D02*
X82800000Y-133000000D01*
D23*
X90680000Y-132800000D02*
X82800000Y-132800000D01*
X94780000Y-36800000D02*
X96880000Y-34700000D01*
D26*
X132600000Y-64350000D02*
X135975000Y-67725000D01*
X132600000Y-62300000D02*
X132600000Y-64350000D01*
X132600000Y-58100000D02*
X133800000Y-59300000D01*
X133800000Y-59300000D02*
X136000000Y-59300000D01*
D23*
X82800000Y-132800000D02*
X66600000Y-132800000D01*
X66600000Y-132800000D02*
X66000000Y-132200000D01*
D24*
X97080000Y-34500000D02*
X96880000Y-34700000D01*
X126500000Y-34500000D02*
X97080000Y-34500000D01*
X132600000Y-40600000D02*
X126500000Y-34500000D01*
X132600000Y-58100000D02*
X132600000Y-40600000D01*
X90680000Y-132800000D02*
X93280000Y-130200000D01*
X93280000Y-130200000D02*
X123500000Y-130200000D01*
D22*
X48300000Y-39340000D02*
X48300000Y-41600000D01*
D23*
X48300000Y-36800000D02*
X48300000Y-39340000D01*
D24*
X132600000Y-58100000D02*
X132600000Y-62300000D01*
D26*
X88100000Y-67300000D02*
X123300002Y-67300000D01*
X88100000Y-67300000D02*
X87100000Y-67300000D01*
X123900000Y-66200000D02*
X124000000Y-66300000D01*
X85500000Y-66200000D02*
X123900000Y-66200000D01*
X85500000Y-66200000D02*
X84400000Y-66200000D01*
X77000000Y-139440000D02*
X78660000Y-141100000D01*
X133100000Y-141100000D02*
X134400000Y-139800000D01*
X78660000Y-141100000D02*
X133100000Y-141100000D01*
X111220001Y-78000001D02*
X110020000Y-76800000D01*
X111220001Y-79916001D02*
X111220001Y-78000001D01*
X112504000Y-81200000D02*
X111220001Y-79916001D01*
X123400000Y-81200000D02*
X112504000Y-81200000D01*
X125260000Y-79340000D02*
X123400000Y-81200000D01*
X126500000Y-78140000D02*
X125260000Y-76900000D01*
X126500000Y-80500000D02*
X126500000Y-78140000D01*
X124900000Y-82100000D02*
X126500000Y-80500000D01*
X110240000Y-82100000D02*
X124900000Y-82100000D01*
X107480000Y-79340000D02*
X110240000Y-82100000D01*
X125260000Y-59340000D02*
X123100000Y-61500000D01*
X123100000Y-61500000D02*
X107029999Y-61500000D01*
X125260000Y-56900000D02*
X123560000Y-55200000D01*
X106640000Y-55200000D02*
X104940000Y-56900000D01*
X123560000Y-55200000D02*
X106640000Y-55200000D01*
D27*
X48427000Y-36673000D02*
X48447000Y-36673000D01*
X48447000Y-36927000D01*
X48427000Y-36927000D01*
X48427000Y-39213000D01*
X48447000Y-39213000D01*
X48447000Y-39467000D01*
X48427000Y-39467000D01*
X48427000Y-40660155D01*
X48656890Y-40781476D01*
X48804099Y-40736825D01*
X49066920Y-40611641D01*
X49226888Y-40492322D01*
X49675285Y-42823984D01*
X49682361Y-42847853D01*
X49690548Y-42864414D01*
X61973516Y-63735474D01*
X62773014Y-117201899D01*
X62773887Y-117214984D01*
X63973887Y-127314984D01*
X63979233Y-127339299D01*
X63989221Y-127362105D01*
X63998946Y-127376922D01*
X68976331Y-133915840D01*
X43690096Y-139052106D01*
X42402798Y-134508699D01*
X43573000Y-134508699D01*
X43573000Y-134691301D01*
X43608624Y-134870396D01*
X43678504Y-135039099D01*
X43779952Y-135190928D01*
X43909072Y-135320048D01*
X44060901Y-135421496D01*
X44229604Y-135491376D01*
X44408699Y-135527000D01*
X44591301Y-135527000D01*
X44770396Y-135491376D01*
X44939099Y-135421496D01*
X45090928Y-135320048D01*
X45220048Y-135190928D01*
X45321496Y-135039099D01*
X45391376Y-134870396D01*
X45427000Y-134691301D01*
X45427000Y-134508699D01*
X45391376Y-134329604D01*
X45321496Y-134160901D01*
X45220048Y-134009072D01*
X45090928Y-133879952D01*
X44939099Y-133778504D01*
X44770396Y-133708624D01*
X44591301Y-133673000D01*
X44408699Y-133673000D01*
X44229604Y-133708624D01*
X44060901Y-133778504D01*
X43909072Y-133879952D01*
X43779952Y-134009072D01*
X43678504Y-134160901D01*
X43608624Y-134329604D01*
X43573000Y-134508699D01*
X42402798Y-134508699D01*
X42025850Y-133178297D01*
X41988536Y-132608699D01*
X43573000Y-132608699D01*
X43573000Y-132791301D01*
X43608624Y-132970396D01*
X43678504Y-133139099D01*
X43779952Y-133290928D01*
X43909072Y-133420048D01*
X44060901Y-133521496D01*
X44229604Y-133591376D01*
X44408699Y-133627000D01*
X44591301Y-133627000D01*
X44770396Y-133591376D01*
X44939099Y-133521496D01*
X45090928Y-133420048D01*
X45220048Y-133290928D01*
X45274991Y-133208699D01*
X55373000Y-133208699D01*
X55373000Y-133391301D01*
X55408624Y-133570396D01*
X55478504Y-133739099D01*
X55579952Y-133890928D01*
X55709072Y-134020048D01*
X55860901Y-134121496D01*
X56029604Y-134191376D01*
X56208699Y-134227000D01*
X56391301Y-134227000D01*
X56570396Y-134191376D01*
X56739099Y-134121496D01*
X56890928Y-134020048D01*
X57020048Y-133890928D01*
X57121496Y-133739099D01*
X57191376Y-133570396D01*
X57227000Y-133391301D01*
X57227000Y-133208699D01*
X57191376Y-133029604D01*
X57121496Y-132860901D01*
X57020048Y-132709072D01*
X56890928Y-132579952D01*
X56739099Y-132478504D01*
X56570396Y-132408624D01*
X56391301Y-132373000D01*
X56208699Y-132373000D01*
X56029604Y-132408624D01*
X55860901Y-132478504D01*
X55709072Y-132579952D01*
X55579952Y-132709072D01*
X55478504Y-132860901D01*
X55408624Y-133029604D01*
X55373000Y-133208699D01*
X45274991Y-133208699D01*
X45321496Y-133139099D01*
X45391376Y-132970396D01*
X45427000Y-132791301D01*
X45427000Y-132608699D01*
X45391376Y-132429604D01*
X45321496Y-132260901D01*
X45220048Y-132109072D01*
X45090928Y-131979952D01*
X44939099Y-131878504D01*
X44770578Y-131808699D01*
X47673000Y-131808699D01*
X47673000Y-131991301D01*
X47708624Y-132170396D01*
X47778504Y-132339099D01*
X47879952Y-132490928D01*
X48009072Y-132620048D01*
X48160901Y-132721496D01*
X48329604Y-132791376D01*
X48508699Y-132827000D01*
X48691301Y-132827000D01*
X48870396Y-132791376D01*
X49039099Y-132721496D01*
X49190928Y-132620048D01*
X49320048Y-132490928D01*
X49421496Y-132339099D01*
X49491376Y-132170396D01*
X49527000Y-131991301D01*
X49527000Y-131808699D01*
X49491376Y-131629604D01*
X49421496Y-131460901D01*
X49320048Y-131309072D01*
X49190928Y-131179952D01*
X49039099Y-131078504D01*
X48870396Y-131008624D01*
X48691301Y-130973000D01*
X48508699Y-130973000D01*
X48329604Y-131008624D01*
X48160901Y-131078504D01*
X48009072Y-131179952D01*
X47879952Y-131309072D01*
X47778504Y-131460901D01*
X47708624Y-131629604D01*
X47673000Y-131808699D01*
X44770578Y-131808699D01*
X44770396Y-131808624D01*
X44591301Y-131773000D01*
X44408699Y-131773000D01*
X44229604Y-131808624D01*
X44060901Y-131878504D01*
X43909072Y-131979952D01*
X43779952Y-132109072D01*
X43678504Y-132260901D01*
X43608624Y-132429604D01*
X43573000Y-132608699D01*
X41988536Y-132608699D01*
X41824759Y-130108699D01*
X42473000Y-130108699D01*
X42473000Y-130291301D01*
X42508624Y-130470396D01*
X42578504Y-130639099D01*
X42679952Y-130790928D01*
X42809072Y-130920048D01*
X42960901Y-131021496D01*
X43129604Y-131091376D01*
X43308699Y-131127000D01*
X43491301Y-131127000D01*
X43670396Y-131091376D01*
X43839099Y-131021496D01*
X43990928Y-130920048D01*
X44120048Y-130790928D01*
X44221496Y-130639099D01*
X44291376Y-130470396D01*
X44327000Y-130291301D01*
X44327000Y-130108699D01*
X44291376Y-129929604D01*
X44221496Y-129760901D01*
X44186228Y-129708118D01*
X44270396Y-129691376D01*
X44439099Y-129621496D01*
X44590928Y-129520048D01*
X44720048Y-129390928D01*
X44821496Y-129239099D01*
X44891376Y-129070396D01*
X44927000Y-128891301D01*
X44927000Y-128708699D01*
X44891376Y-128529604D01*
X44821496Y-128360901D01*
X44720048Y-128209072D01*
X44590928Y-128079952D01*
X44439099Y-127978504D01*
X44270396Y-127908624D01*
X44091301Y-127873000D01*
X43908699Y-127873000D01*
X43729604Y-127908624D01*
X43560901Y-127978504D01*
X43409072Y-128079952D01*
X43279952Y-128209072D01*
X43178504Y-128360901D01*
X43108624Y-128529604D01*
X43073000Y-128708699D01*
X43073000Y-128891301D01*
X43108624Y-129070396D01*
X43178504Y-129239099D01*
X43213772Y-129291882D01*
X43129604Y-129308624D01*
X42960901Y-129378504D01*
X42809072Y-129479952D01*
X42679952Y-129609072D01*
X42578504Y-129760901D01*
X42508624Y-129929604D01*
X42473000Y-130108699D01*
X41824759Y-130108699D01*
X41608575Y-126808699D01*
X52573000Y-126808699D01*
X52573000Y-126991301D01*
X52608624Y-127170396D01*
X52678504Y-127339099D01*
X52779952Y-127490928D01*
X52909072Y-127620048D01*
X53060901Y-127721496D01*
X53229604Y-127791376D01*
X53408699Y-127827000D01*
X53591301Y-127827000D01*
X53770396Y-127791376D01*
X53939099Y-127721496D01*
X54090928Y-127620048D01*
X54220048Y-127490928D01*
X54321496Y-127339099D01*
X54391376Y-127170396D01*
X54427000Y-126991301D01*
X54427000Y-126808699D01*
X54391376Y-126629604D01*
X54321496Y-126460901D01*
X54220048Y-126309072D01*
X54090928Y-126179952D01*
X53939099Y-126078504D01*
X53770396Y-126008624D01*
X53591301Y-125973000D01*
X53408699Y-125973000D01*
X53229604Y-126008624D01*
X53060901Y-126078504D01*
X52909072Y-126179952D01*
X52779952Y-126309072D01*
X52678504Y-126460901D01*
X52608624Y-126629604D01*
X52573000Y-126808699D01*
X41608575Y-126808699D01*
X41497207Y-125108699D01*
X43273000Y-125108699D01*
X43273000Y-125291301D01*
X43308624Y-125470396D01*
X43378504Y-125639099D01*
X43479952Y-125790928D01*
X43609072Y-125920048D01*
X43760901Y-126021496D01*
X43929604Y-126091376D01*
X44108699Y-126127000D01*
X44291301Y-126127000D01*
X44470396Y-126091376D01*
X44639099Y-126021496D01*
X44790928Y-125920048D01*
X44920048Y-125790928D01*
X45021496Y-125639099D01*
X45091376Y-125470396D01*
X45127000Y-125291301D01*
X45127000Y-125108699D01*
X45091376Y-124929604D01*
X45021496Y-124760901D01*
X44920048Y-124609072D01*
X44790928Y-124479952D01*
X44639099Y-124378504D01*
X44470396Y-124308624D01*
X44291301Y-124273000D01*
X44108699Y-124273000D01*
X43929604Y-124308624D01*
X43760901Y-124378504D01*
X43609072Y-124479952D01*
X43479952Y-124609072D01*
X43378504Y-124760901D01*
X43308624Y-124929604D01*
X43273000Y-125108699D01*
X41497207Y-125108699D01*
X41366186Y-123108699D01*
X47673000Y-123108699D01*
X47673000Y-123291301D01*
X47708624Y-123470396D01*
X47778504Y-123639099D01*
X47879952Y-123790928D01*
X48009072Y-123920048D01*
X48160901Y-124021496D01*
X48329604Y-124091376D01*
X48508699Y-124127000D01*
X48691301Y-124127000D01*
X48870396Y-124091376D01*
X49039099Y-124021496D01*
X49190928Y-123920048D01*
X49302277Y-123808699D01*
X53573000Y-123808699D01*
X53573000Y-123991301D01*
X53608624Y-124170396D01*
X53678504Y-124339099D01*
X53779952Y-124490928D01*
X53909072Y-124620048D01*
X53944982Y-124644042D01*
X53879952Y-124709072D01*
X53778504Y-124860901D01*
X53708624Y-125029604D01*
X53673000Y-125208699D01*
X53673000Y-125391301D01*
X53708624Y-125570396D01*
X53778504Y-125739099D01*
X53879952Y-125890928D01*
X54009072Y-126020048D01*
X54160901Y-126121496D01*
X54329604Y-126191376D01*
X54508699Y-126227000D01*
X54691301Y-126227000D01*
X54870396Y-126191376D01*
X55039099Y-126121496D01*
X55190928Y-126020048D01*
X55320048Y-125890928D01*
X55421496Y-125739099D01*
X55491376Y-125570396D01*
X55527000Y-125391301D01*
X55527000Y-125208699D01*
X55491376Y-125029604D01*
X55421496Y-124860901D01*
X55320048Y-124709072D01*
X55190928Y-124579952D01*
X55155018Y-124555958D01*
X55220048Y-124490928D01*
X55321496Y-124339099D01*
X55391376Y-124170396D01*
X55427000Y-123991301D01*
X55427000Y-123808699D01*
X55391376Y-123629604D01*
X55321496Y-123460901D01*
X55220048Y-123309072D01*
X55090928Y-123179952D01*
X54939099Y-123078504D01*
X54770396Y-123008624D01*
X54591301Y-122973000D01*
X54408699Y-122973000D01*
X54229604Y-123008624D01*
X54060901Y-123078504D01*
X53909072Y-123179952D01*
X53779952Y-123309072D01*
X53678504Y-123460901D01*
X53608624Y-123629604D01*
X53573000Y-123808699D01*
X49302277Y-123808699D01*
X49320048Y-123790928D01*
X49421496Y-123639099D01*
X49491376Y-123470396D01*
X49527000Y-123291301D01*
X49527000Y-123108699D01*
X49491376Y-122929604D01*
X49421496Y-122760901D01*
X49320048Y-122609072D01*
X49190928Y-122479952D01*
X49039099Y-122378504D01*
X48870396Y-122308624D01*
X48691301Y-122273000D01*
X48508699Y-122273000D01*
X48329604Y-122308624D01*
X48160901Y-122378504D01*
X48009072Y-122479952D01*
X47879952Y-122609072D01*
X47778504Y-122760901D01*
X47708624Y-122929604D01*
X47673000Y-123108699D01*
X41366186Y-123108699D01*
X41241716Y-121208699D01*
X46873000Y-121208699D01*
X46873000Y-121391301D01*
X46908624Y-121570396D01*
X46978504Y-121739099D01*
X47079952Y-121890928D01*
X47209072Y-122020048D01*
X47360901Y-122121496D01*
X47529604Y-122191376D01*
X47708699Y-122227000D01*
X47891301Y-122227000D01*
X48070396Y-122191376D01*
X48239099Y-122121496D01*
X48390928Y-122020048D01*
X48520048Y-121890928D01*
X48621496Y-121739099D01*
X48691376Y-121570396D01*
X48727000Y-121391301D01*
X48727000Y-121208699D01*
X48691376Y-121029604D01*
X48621496Y-120860901D01*
X48520048Y-120709072D01*
X48390928Y-120579952D01*
X48239099Y-120478504D01*
X48070396Y-120408624D01*
X47891301Y-120373000D01*
X47708699Y-120373000D01*
X47529604Y-120408624D01*
X47360901Y-120478504D01*
X47209072Y-120579952D01*
X47079952Y-120709072D01*
X46978504Y-120860901D01*
X46908624Y-121029604D01*
X46873000Y-121208699D01*
X41241716Y-121208699D01*
X40992776Y-117408699D01*
X52473000Y-117408699D01*
X52473000Y-117591301D01*
X52508624Y-117770396D01*
X52578504Y-117939099D01*
X52679952Y-118090928D01*
X52809072Y-118220048D01*
X52960901Y-118321496D01*
X53129604Y-118391376D01*
X53308699Y-118427000D01*
X53491301Y-118427000D01*
X53670396Y-118391376D01*
X53839099Y-118321496D01*
X53990928Y-118220048D01*
X54120048Y-118090928D01*
X54221496Y-117939099D01*
X54291376Y-117770396D01*
X54327000Y-117591301D01*
X54327000Y-117408699D01*
X54291376Y-117229604D01*
X54221496Y-117060901D01*
X54120048Y-116909072D01*
X53990928Y-116779952D01*
X53839099Y-116678504D01*
X53670396Y-116608624D01*
X53491301Y-116573000D01*
X53308699Y-116573000D01*
X53129604Y-116608624D01*
X52960901Y-116678504D01*
X52809072Y-116779952D01*
X52679952Y-116909072D01*
X52578504Y-117060901D01*
X52508624Y-117229604D01*
X52473000Y-117408699D01*
X40992776Y-117408699D01*
X40724182Y-113308699D01*
X43473000Y-113308699D01*
X43473000Y-113491301D01*
X43508624Y-113670396D01*
X43578504Y-113839099D01*
X43679952Y-113990928D01*
X43809072Y-114120048D01*
X43960901Y-114221496D01*
X44129604Y-114291376D01*
X44308699Y-114327000D01*
X44491301Y-114327000D01*
X44670396Y-114291376D01*
X44839099Y-114221496D01*
X44990928Y-114120048D01*
X45120048Y-113990928D01*
X45221496Y-113839099D01*
X45291376Y-113670396D01*
X45327000Y-113491301D01*
X45327000Y-113308699D01*
X45291376Y-113129604D01*
X45221496Y-112960901D01*
X45120048Y-112809072D01*
X44990928Y-112679952D01*
X44839099Y-112578504D01*
X44670396Y-112508624D01*
X44491301Y-112473000D01*
X44308699Y-112473000D01*
X44129604Y-112508624D01*
X43960901Y-112578504D01*
X43809072Y-112679952D01*
X43679952Y-112809072D01*
X43578504Y-112960901D01*
X43508624Y-113129604D01*
X43473000Y-113308699D01*
X40724182Y-113308699D01*
X40475242Y-109508699D01*
X53873000Y-109508699D01*
X53873000Y-109691301D01*
X53908624Y-109870396D01*
X53978504Y-110039099D01*
X54079952Y-110190928D01*
X54209072Y-110320048D01*
X54360901Y-110421496D01*
X54529604Y-110491376D01*
X54708699Y-110527000D01*
X54891301Y-110527000D01*
X55070396Y-110491376D01*
X55239099Y-110421496D01*
X55390928Y-110320048D01*
X55520048Y-110190928D01*
X55621496Y-110039099D01*
X55691376Y-109870396D01*
X55727000Y-109691301D01*
X55727000Y-109508699D01*
X55691376Y-109329604D01*
X55621496Y-109160901D01*
X55520048Y-109009072D01*
X55390928Y-108879952D01*
X55239099Y-108778504D01*
X55070396Y-108708624D01*
X54891301Y-108673000D01*
X54708699Y-108673000D01*
X54529604Y-108708624D01*
X54360901Y-108778504D01*
X54209072Y-108879952D01*
X54079952Y-109009072D01*
X53978504Y-109160901D01*
X53908624Y-109329604D01*
X53873000Y-109508699D01*
X40475242Y-109508699D01*
X40324567Y-107208699D01*
X41973000Y-107208699D01*
X41973000Y-107391301D01*
X42008624Y-107570396D01*
X42078504Y-107739099D01*
X42179952Y-107890928D01*
X42309072Y-108020048D01*
X42460901Y-108121496D01*
X42629604Y-108191376D01*
X42808699Y-108227000D01*
X42991301Y-108227000D01*
X43170396Y-108191376D01*
X43339099Y-108121496D01*
X43490928Y-108020048D01*
X43620048Y-107890928D01*
X43721496Y-107739099D01*
X43791376Y-107570396D01*
X43827000Y-107391301D01*
X43827000Y-107208699D01*
X52673000Y-107208699D01*
X52673000Y-107391301D01*
X52708624Y-107570396D01*
X52778504Y-107739099D01*
X52879952Y-107890928D01*
X53009072Y-108020048D01*
X53160901Y-108121496D01*
X53329604Y-108191376D01*
X53508699Y-108227000D01*
X53691301Y-108227000D01*
X53870396Y-108191376D01*
X54039099Y-108121496D01*
X54190928Y-108020048D01*
X54320048Y-107890928D01*
X54421496Y-107739099D01*
X54491376Y-107570396D01*
X54527000Y-107391301D01*
X54527000Y-107208699D01*
X54507109Y-107108699D01*
X54573000Y-107108699D01*
X54573000Y-107291301D01*
X54608624Y-107470396D01*
X54678504Y-107639099D01*
X54779952Y-107790928D01*
X54909072Y-107920048D01*
X55060901Y-108021496D01*
X55229604Y-108091376D01*
X55408699Y-108127000D01*
X55591301Y-108127000D01*
X55770396Y-108091376D01*
X55939099Y-108021496D01*
X56090928Y-107920048D01*
X56220048Y-107790928D01*
X56321496Y-107639099D01*
X56391376Y-107470396D01*
X56427000Y-107291301D01*
X56427000Y-107108699D01*
X56391376Y-106929604D01*
X56321496Y-106760901D01*
X56220048Y-106609072D01*
X56090928Y-106479952D01*
X55939099Y-106378504D01*
X55770396Y-106308624D01*
X55591301Y-106273000D01*
X55408699Y-106273000D01*
X55229604Y-106308624D01*
X55060901Y-106378504D01*
X54909072Y-106479952D01*
X54779952Y-106609072D01*
X54678504Y-106760901D01*
X54608624Y-106929604D01*
X54573000Y-107108699D01*
X54507109Y-107108699D01*
X54491376Y-107029604D01*
X54421496Y-106860901D01*
X54320048Y-106709072D01*
X54190928Y-106579952D01*
X54039099Y-106478504D01*
X53870396Y-106408624D01*
X53691301Y-106373000D01*
X53508699Y-106373000D01*
X53329604Y-106408624D01*
X53160901Y-106478504D01*
X53009072Y-106579952D01*
X52879952Y-106709072D01*
X52778504Y-106860901D01*
X52708624Y-107029604D01*
X52673000Y-107208699D01*
X43827000Y-107208699D01*
X43791376Y-107029604D01*
X43721496Y-106860901D01*
X43620048Y-106709072D01*
X43490928Y-106579952D01*
X43339099Y-106478504D01*
X43170396Y-106408624D01*
X42991301Y-106373000D01*
X42808699Y-106373000D01*
X42629604Y-106408624D01*
X42460901Y-106478504D01*
X42309072Y-106579952D01*
X42179952Y-106709072D01*
X42078504Y-106860901D01*
X42008624Y-107029604D01*
X41973000Y-107208699D01*
X40324567Y-107208699D01*
X40141138Y-104408699D01*
X52473000Y-104408699D01*
X52473000Y-104591301D01*
X52508624Y-104770396D01*
X52578504Y-104939099D01*
X52679952Y-105090928D01*
X52809072Y-105220048D01*
X52960901Y-105321496D01*
X53129604Y-105391376D01*
X53308699Y-105427000D01*
X53491301Y-105427000D01*
X53670396Y-105391376D01*
X53839099Y-105321496D01*
X53990928Y-105220048D01*
X54120048Y-105090928D01*
X54221496Y-104939099D01*
X54291376Y-104770396D01*
X54327000Y-104591301D01*
X54327000Y-104408699D01*
X54291376Y-104229604D01*
X54221496Y-104060901D01*
X54120048Y-103909072D01*
X53990928Y-103779952D01*
X53839099Y-103678504D01*
X53670396Y-103608624D01*
X53491301Y-103573000D01*
X53308699Y-103573000D01*
X53129604Y-103608624D01*
X52960901Y-103678504D01*
X52809072Y-103779952D01*
X52679952Y-103909072D01*
X52578504Y-104060901D01*
X52508624Y-104229604D01*
X52473000Y-104408699D01*
X40141138Y-104408699D01*
X39754626Y-98508699D01*
X48673004Y-98508699D01*
X48673004Y-98691301D01*
X48708628Y-98870396D01*
X48778508Y-99039099D01*
X48879956Y-99190928D01*
X49009076Y-99320048D01*
X49160905Y-99421496D01*
X49329608Y-99491376D01*
X49508703Y-99527000D01*
X49691305Y-99527000D01*
X49870400Y-99491376D01*
X50039103Y-99421496D01*
X50190932Y-99320048D01*
X50320052Y-99190928D01*
X50421500Y-99039099D01*
X50491380Y-98870396D01*
X50527004Y-98691301D01*
X50527004Y-98508699D01*
X50514036Y-98443506D01*
X50629604Y-98491376D01*
X50808699Y-98527000D01*
X50991301Y-98527000D01*
X51170396Y-98491376D01*
X51339099Y-98421496D01*
X51490928Y-98320048D01*
X51602277Y-98208699D01*
X57173000Y-98208699D01*
X57173000Y-98391301D01*
X57208624Y-98570396D01*
X57278504Y-98739099D01*
X57379952Y-98890928D01*
X57509072Y-99020048D01*
X57660901Y-99121496D01*
X57829604Y-99191376D01*
X58008699Y-99227000D01*
X58191301Y-99227000D01*
X58370396Y-99191376D01*
X58539099Y-99121496D01*
X58690928Y-99020048D01*
X58820048Y-98890928D01*
X58921496Y-98739099D01*
X58991376Y-98570396D01*
X59027000Y-98391301D01*
X59027000Y-98208699D01*
X58991376Y-98029604D01*
X58921496Y-97860901D01*
X58820048Y-97709072D01*
X58690928Y-97579952D01*
X58539099Y-97478504D01*
X58370396Y-97408624D01*
X58191301Y-97373000D01*
X58008699Y-97373000D01*
X57829604Y-97408624D01*
X57660901Y-97478504D01*
X57509072Y-97579952D01*
X57379952Y-97709072D01*
X57278504Y-97860901D01*
X57208624Y-98029604D01*
X57173000Y-98208699D01*
X51602277Y-98208699D01*
X51620048Y-98190928D01*
X51721496Y-98039099D01*
X51791376Y-97870396D01*
X51827000Y-97691301D01*
X51827000Y-97508699D01*
X51791376Y-97329604D01*
X51721496Y-97160901D01*
X51620048Y-97009072D01*
X51490928Y-96879952D01*
X51339099Y-96778504D01*
X51170396Y-96708624D01*
X50991301Y-96673000D01*
X50808699Y-96673000D01*
X50629604Y-96708624D01*
X50460901Y-96778504D01*
X50309072Y-96879952D01*
X50179952Y-97009072D01*
X50078504Y-97160901D01*
X50008624Y-97329604D01*
X49973000Y-97508699D01*
X49973000Y-97691301D01*
X49985968Y-97756494D01*
X49870400Y-97708624D01*
X49691305Y-97673000D01*
X49508703Y-97673000D01*
X49329608Y-97708624D01*
X49160905Y-97778504D01*
X49009076Y-97879952D01*
X48879956Y-98009072D01*
X48778508Y-98160901D01*
X48708628Y-98329604D01*
X48673004Y-98508699D01*
X39754626Y-98508699D01*
X39617053Y-96408699D01*
X43873000Y-96408699D01*
X43873000Y-96591301D01*
X43908624Y-96770396D01*
X43978504Y-96939099D01*
X44079952Y-97090928D01*
X44209072Y-97220048D01*
X44360901Y-97321496D01*
X44529604Y-97391376D01*
X44708699Y-97427000D01*
X44891301Y-97427000D01*
X45070396Y-97391376D01*
X45239099Y-97321496D01*
X45390928Y-97220048D01*
X45520048Y-97090928D01*
X45621496Y-96939099D01*
X45691376Y-96770396D01*
X45727000Y-96591301D01*
X45727000Y-96408699D01*
X45691376Y-96229604D01*
X45621496Y-96060901D01*
X45520048Y-95909072D01*
X45390928Y-95779952D01*
X45239099Y-95678504D01*
X45070396Y-95608624D01*
X44891301Y-95573000D01*
X44708699Y-95573000D01*
X44529604Y-95608624D01*
X44360901Y-95678504D01*
X44209072Y-95779952D01*
X44079952Y-95909072D01*
X43978504Y-96060901D01*
X43908624Y-96229604D01*
X43873000Y-96408699D01*
X39617053Y-96408699D01*
X39558094Y-95508699D01*
X52873000Y-95508699D01*
X52873000Y-95691301D01*
X52908624Y-95870396D01*
X52978504Y-96039099D01*
X53079952Y-96190928D01*
X53209072Y-96320048D01*
X53360901Y-96421496D01*
X53529604Y-96491376D01*
X53708699Y-96527000D01*
X53891301Y-96527000D01*
X54070396Y-96491376D01*
X54239099Y-96421496D01*
X54390928Y-96320048D01*
X54520048Y-96190928D01*
X54621496Y-96039099D01*
X54691376Y-95870396D01*
X54727000Y-95691301D01*
X54727000Y-95508699D01*
X54691376Y-95329604D01*
X54621496Y-95160901D01*
X54520048Y-95009072D01*
X54390928Y-94879952D01*
X54239099Y-94778504D01*
X54070396Y-94708624D01*
X53891301Y-94673000D01*
X53708699Y-94673000D01*
X53529604Y-94708624D01*
X53360901Y-94778504D01*
X53209072Y-94879952D01*
X53079952Y-95009072D01*
X52978504Y-95160901D01*
X52908624Y-95329604D01*
X52873000Y-95508699D01*
X39558094Y-95508699D01*
X39178132Y-89708699D01*
X43573000Y-89708699D01*
X43573000Y-89891301D01*
X43608624Y-90070396D01*
X43678504Y-90239099D01*
X43779952Y-90390928D01*
X43909072Y-90520048D01*
X44060901Y-90621496D01*
X44229604Y-90691376D01*
X44408699Y-90727000D01*
X44591301Y-90727000D01*
X44770396Y-90691376D01*
X44939099Y-90621496D01*
X45090928Y-90520048D01*
X45220048Y-90390928D01*
X45274991Y-90308699D01*
X48573000Y-90308699D01*
X48573000Y-90491301D01*
X48608624Y-90670396D01*
X48678504Y-90839099D01*
X48779952Y-90990928D01*
X48909072Y-91120048D01*
X49060901Y-91221496D01*
X49229604Y-91291376D01*
X49408699Y-91327000D01*
X49591301Y-91327000D01*
X49770396Y-91291376D01*
X49939099Y-91221496D01*
X50090928Y-91120048D01*
X50102277Y-91108699D01*
X58173000Y-91108699D01*
X58173000Y-91291301D01*
X58208624Y-91470396D01*
X58278504Y-91639099D01*
X58379952Y-91790928D01*
X58509072Y-91920048D01*
X58660901Y-92021496D01*
X58829604Y-92091376D01*
X59008699Y-92127000D01*
X59191301Y-92127000D01*
X59370396Y-92091376D01*
X59539099Y-92021496D01*
X59690928Y-91920048D01*
X59820048Y-91790928D01*
X59921496Y-91639099D01*
X59991376Y-91470396D01*
X60027000Y-91291301D01*
X60027000Y-91108699D01*
X59991376Y-90929604D01*
X59921496Y-90760901D01*
X59820048Y-90609072D01*
X59690928Y-90479952D01*
X59539099Y-90378504D01*
X59370396Y-90308624D01*
X59191301Y-90273000D01*
X59008699Y-90273000D01*
X58829604Y-90308624D01*
X58660901Y-90378504D01*
X58509072Y-90479952D01*
X58379952Y-90609072D01*
X58278504Y-90760901D01*
X58208624Y-90929604D01*
X58173000Y-91108699D01*
X50102277Y-91108699D01*
X50220048Y-90990928D01*
X50321496Y-90839099D01*
X50391376Y-90670396D01*
X50427000Y-90491301D01*
X50427000Y-90308699D01*
X50391376Y-90129604D01*
X50321496Y-89960901D01*
X50220048Y-89809072D01*
X50090928Y-89679952D01*
X49939099Y-89578504D01*
X49770396Y-89508624D01*
X49591301Y-89473000D01*
X49408699Y-89473000D01*
X49229604Y-89508624D01*
X49060901Y-89578504D01*
X48909072Y-89679952D01*
X48779952Y-89809072D01*
X48678504Y-89960901D01*
X48608624Y-90129604D01*
X48573000Y-90308699D01*
X45274991Y-90308699D01*
X45321496Y-90239099D01*
X45391376Y-90070396D01*
X45427000Y-89891301D01*
X45427000Y-89708699D01*
X45391376Y-89529604D01*
X45321496Y-89360901D01*
X45220048Y-89209072D01*
X45090928Y-89079952D01*
X44939099Y-88978504D01*
X44770396Y-88908624D01*
X44591301Y-88873000D01*
X44408699Y-88873000D01*
X44229604Y-88908624D01*
X44060901Y-88978504D01*
X43909072Y-89079952D01*
X43779952Y-89209072D01*
X43678504Y-89360901D01*
X43608624Y-89529604D01*
X43573000Y-89708699D01*
X39178132Y-89708699D01*
X39092969Y-88408699D01*
X53673000Y-88408699D01*
X53673000Y-88591301D01*
X53708624Y-88770396D01*
X53778504Y-88939099D01*
X53879952Y-89090928D01*
X54009072Y-89220048D01*
X54160901Y-89321496D01*
X54329604Y-89391376D01*
X54508699Y-89427000D01*
X54691301Y-89427000D01*
X54870396Y-89391376D01*
X55039099Y-89321496D01*
X55190928Y-89220048D01*
X55320048Y-89090928D01*
X55350000Y-89046101D01*
X55379952Y-89090928D01*
X55509072Y-89220048D01*
X55660901Y-89321496D01*
X55829604Y-89391376D01*
X56008699Y-89427000D01*
X56191301Y-89427000D01*
X56370396Y-89391376D01*
X56539099Y-89321496D01*
X56690928Y-89220048D01*
X56820048Y-89090928D01*
X56921496Y-88939099D01*
X56991376Y-88770396D01*
X57027000Y-88591301D01*
X57027000Y-88408699D01*
X56991376Y-88229604D01*
X56921496Y-88060901D01*
X56820048Y-87909072D01*
X56690928Y-87779952D01*
X56539099Y-87678504D01*
X56370396Y-87608624D01*
X56191301Y-87573000D01*
X56008699Y-87573000D01*
X55829604Y-87608624D01*
X55660901Y-87678504D01*
X55509072Y-87779952D01*
X55379952Y-87909072D01*
X55350000Y-87953899D01*
X55320048Y-87909072D01*
X55190928Y-87779952D01*
X55039099Y-87678504D01*
X54870396Y-87608624D01*
X54691301Y-87573000D01*
X54508699Y-87573000D01*
X54329604Y-87608624D01*
X54160901Y-87678504D01*
X54009072Y-87779952D01*
X53879952Y-87909072D01*
X53778504Y-88060901D01*
X53708624Y-88229604D01*
X53673000Y-88408699D01*
X39092969Y-88408699D01*
X38791619Y-83808699D01*
X46973000Y-83808699D01*
X46973000Y-83991301D01*
X47008624Y-84170396D01*
X47078504Y-84339099D01*
X47179952Y-84490928D01*
X47309072Y-84620048D01*
X47460901Y-84721496D01*
X47629604Y-84791376D01*
X47808699Y-84827000D01*
X47991301Y-84827000D01*
X48170396Y-84791376D01*
X48339099Y-84721496D01*
X48358251Y-84708699D01*
X55373001Y-84708699D01*
X55373001Y-84891301D01*
X55408625Y-85070396D01*
X55478505Y-85239099D01*
X55579953Y-85390928D01*
X55709073Y-85520048D01*
X55860902Y-85621496D01*
X56029605Y-85691376D01*
X56208700Y-85727000D01*
X56391302Y-85727000D01*
X56570397Y-85691376D01*
X56739100Y-85621496D01*
X56890929Y-85520048D01*
X57020049Y-85390928D01*
X57121497Y-85239099D01*
X57191377Y-85070396D01*
X57227001Y-84891301D01*
X57227001Y-84708699D01*
X57191377Y-84529604D01*
X57121497Y-84360901D01*
X57020049Y-84209072D01*
X56890929Y-84079952D01*
X56739100Y-83978504D01*
X56570397Y-83908624D01*
X56391302Y-83873000D01*
X56208700Y-83873000D01*
X56029605Y-83908624D01*
X55860902Y-83978504D01*
X55709073Y-84079952D01*
X55579953Y-84209072D01*
X55478505Y-84360901D01*
X55408625Y-84529604D01*
X55373001Y-84708699D01*
X48358251Y-84708699D01*
X48490928Y-84620048D01*
X48620048Y-84490928D01*
X48721496Y-84339099D01*
X48791376Y-84170396D01*
X48827000Y-83991301D01*
X48827000Y-83808699D01*
X48791376Y-83629604D01*
X48721496Y-83460901D01*
X48620048Y-83309072D01*
X48490928Y-83179952D01*
X48339099Y-83078504D01*
X48170396Y-83008624D01*
X47991301Y-82973000D01*
X47808699Y-82973000D01*
X47629604Y-83008624D01*
X47460901Y-83078504D01*
X47309072Y-83179952D01*
X47179952Y-83309072D01*
X47078504Y-83460901D01*
X47008624Y-83629604D01*
X46973000Y-83808699D01*
X38791619Y-83808699D01*
X38627160Y-81298287D01*
X38638297Y-81008699D01*
X53673000Y-81008699D01*
X53673000Y-81191301D01*
X53708624Y-81370396D01*
X53778504Y-81539099D01*
X53879952Y-81690928D01*
X54009072Y-81820048D01*
X54160901Y-81921496D01*
X54329604Y-81991376D01*
X54508699Y-82027000D01*
X54691301Y-82027000D01*
X54870396Y-81991376D01*
X55039099Y-81921496D01*
X55190928Y-81820048D01*
X55320048Y-81690928D01*
X55421496Y-81539099D01*
X55491376Y-81370396D01*
X55527000Y-81191301D01*
X55527000Y-81008699D01*
X55491376Y-80829604D01*
X55421496Y-80660901D01*
X55320048Y-80509072D01*
X55190928Y-80379952D01*
X55039099Y-80278504D01*
X54870396Y-80208624D01*
X54691301Y-80173000D01*
X54508699Y-80173000D01*
X54329604Y-80208624D01*
X54160901Y-80278504D01*
X54009072Y-80379952D01*
X53879952Y-80509072D01*
X53778504Y-80660901D01*
X53708624Y-80829604D01*
X53673000Y-81008699D01*
X38638297Y-81008699D01*
X38718105Y-78933699D01*
X46948000Y-78933699D01*
X46948000Y-79116301D01*
X46983624Y-79295396D01*
X47053504Y-79464099D01*
X47154952Y-79615928D01*
X47284072Y-79745048D01*
X47435901Y-79846496D01*
X47604604Y-79916376D01*
X47783699Y-79952000D01*
X47966301Y-79952000D01*
X48145396Y-79916376D01*
X48314099Y-79846496D01*
X48465928Y-79745048D01*
X48595048Y-79615928D01*
X48696496Y-79464099D01*
X48766376Y-79295396D01*
X48802000Y-79116301D01*
X48802000Y-78933699D01*
X48766376Y-78754604D01*
X48696496Y-78585901D01*
X48595048Y-78434072D01*
X48465928Y-78304952D01*
X48314099Y-78203504D01*
X48145396Y-78133624D01*
X47966301Y-78098000D01*
X47783699Y-78098000D01*
X47604604Y-78133624D01*
X47435901Y-78203504D01*
X47284072Y-78304952D01*
X47154952Y-78434072D01*
X47053504Y-78585901D01*
X46983624Y-78754604D01*
X46948000Y-78933699D01*
X38718105Y-78933699D01*
X38726906Y-78704881D01*
X38726019Y-78684248D01*
X38526019Y-77084248D01*
X38520525Y-77059965D01*
X38508280Y-77033635D01*
X38026336Y-76247306D01*
X38087533Y-76099565D01*
X38127000Y-75901151D01*
X38127000Y-75698849D01*
X38087533Y-75500435D01*
X38010115Y-75313533D01*
X37897723Y-75145326D01*
X37754674Y-75002277D01*
X37586467Y-74889885D01*
X37399565Y-74812467D01*
X37201151Y-74773000D01*
X37122730Y-74773000D01*
X36608280Y-73933635D01*
X36593253Y-73913785D01*
X36574641Y-73897249D01*
X36553161Y-73884662D01*
X36529638Y-73876507D01*
X36511928Y-73873561D01*
X32539978Y-73498849D01*
X37073000Y-73498849D01*
X37073000Y-73701151D01*
X37112467Y-73899565D01*
X37189885Y-74086467D01*
X37302277Y-74254674D01*
X37445326Y-74397723D01*
X37613533Y-74510115D01*
X37800435Y-74587533D01*
X37998849Y-74627000D01*
X38201151Y-74627000D01*
X38399565Y-74587533D01*
X38586467Y-74510115D01*
X38754674Y-74397723D01*
X38897723Y-74254674D01*
X39010115Y-74086467D01*
X39087533Y-73899565D01*
X39125498Y-73708699D01*
X43373000Y-73708699D01*
X43373000Y-73891301D01*
X43408624Y-74070396D01*
X43478504Y-74239099D01*
X43579952Y-74390928D01*
X43709072Y-74520048D01*
X43860901Y-74621496D01*
X44029604Y-74691376D01*
X44208699Y-74727000D01*
X44391301Y-74727000D01*
X44570396Y-74691376D01*
X44739099Y-74621496D01*
X44890928Y-74520048D01*
X45020048Y-74390928D01*
X45121496Y-74239099D01*
X45191376Y-74070396D01*
X45227000Y-73891301D01*
X45227000Y-73708699D01*
X45191376Y-73529604D01*
X45121496Y-73360901D01*
X45020048Y-73209072D01*
X44890928Y-73079952D01*
X44739099Y-72978504D01*
X44570396Y-72908624D01*
X44391301Y-72873000D01*
X44208699Y-72873000D01*
X44029604Y-72908624D01*
X43860901Y-72978504D01*
X43709072Y-73079952D01*
X43579952Y-73209072D01*
X43478504Y-73360901D01*
X43408624Y-73529604D01*
X43373000Y-73708699D01*
X39125498Y-73708699D01*
X39127000Y-73701151D01*
X39127000Y-73498849D01*
X39087533Y-73300435D01*
X39010115Y-73113533D01*
X38897723Y-72945326D01*
X38754674Y-72802277D01*
X38586467Y-72689885D01*
X38423783Y-72622498D01*
X38599565Y-72587533D01*
X38786467Y-72510115D01*
X38954674Y-72397723D01*
X39097723Y-72254674D01*
X39210115Y-72086467D01*
X39287533Y-71899565D01*
X39327000Y-71701151D01*
X39327000Y-71498849D01*
X39309069Y-71408699D01*
X52973000Y-71408699D01*
X52973000Y-71591301D01*
X53008624Y-71770396D01*
X53078504Y-71939099D01*
X53179952Y-72090928D01*
X53309072Y-72220048D01*
X53460901Y-72321496D01*
X53629604Y-72391376D01*
X53808699Y-72427000D01*
X53991301Y-72427000D01*
X54170396Y-72391376D01*
X54339099Y-72321496D01*
X54490928Y-72220048D01*
X54620048Y-72090928D01*
X54721496Y-71939099D01*
X54791376Y-71770396D01*
X54827000Y-71591301D01*
X54827000Y-71408699D01*
X54791376Y-71229604D01*
X54721496Y-71060901D01*
X54620048Y-70909072D01*
X54519675Y-70808699D01*
X57873000Y-70808699D01*
X57873000Y-70991301D01*
X57908624Y-71170396D01*
X57978504Y-71339099D01*
X58079952Y-71490928D01*
X58209072Y-71620048D01*
X58360901Y-71721496D01*
X58529604Y-71791376D01*
X58708699Y-71827000D01*
X58891301Y-71827000D01*
X59070396Y-71791376D01*
X59239099Y-71721496D01*
X59390928Y-71620048D01*
X59520048Y-71490928D01*
X59621496Y-71339099D01*
X59691376Y-71170396D01*
X59727000Y-70991301D01*
X59727000Y-70808699D01*
X59691376Y-70629604D01*
X59621496Y-70460901D01*
X59520048Y-70309072D01*
X59390928Y-70179952D01*
X59239099Y-70078504D01*
X59070396Y-70008624D01*
X58891301Y-69973000D01*
X58708699Y-69973000D01*
X58529604Y-70008624D01*
X58360901Y-70078504D01*
X58209072Y-70179952D01*
X58079952Y-70309072D01*
X57978504Y-70460901D01*
X57908624Y-70629604D01*
X57873000Y-70808699D01*
X54519675Y-70808699D01*
X54490928Y-70779952D01*
X54339099Y-70678504D01*
X54170396Y-70608624D01*
X53991301Y-70573000D01*
X53808699Y-70573000D01*
X53629604Y-70608624D01*
X53460901Y-70678504D01*
X53309072Y-70779952D01*
X53179952Y-70909072D01*
X53078504Y-71060901D01*
X53008624Y-71229604D01*
X52973000Y-71408699D01*
X39309069Y-71408699D01*
X39287533Y-71300435D01*
X39210115Y-71113533D01*
X39097723Y-70945326D01*
X38954674Y-70802277D01*
X38786467Y-70689885D01*
X38599565Y-70612467D01*
X38401151Y-70573000D01*
X38198849Y-70573000D01*
X38000435Y-70612467D01*
X37813533Y-70689885D01*
X37645326Y-70802277D01*
X37502277Y-70945326D01*
X37389885Y-71113533D01*
X37312467Y-71300435D01*
X37273000Y-71498849D01*
X37273000Y-71701151D01*
X37312467Y-71899565D01*
X37389885Y-72086467D01*
X37502277Y-72254674D01*
X37645326Y-72397723D01*
X37813533Y-72510115D01*
X37976217Y-72577502D01*
X37800435Y-72612467D01*
X37613533Y-72689885D01*
X37445326Y-72802277D01*
X37302277Y-72945326D01*
X37189885Y-73113533D01*
X37112467Y-73300435D01*
X37073000Y-73498849D01*
X32539978Y-73498849D01*
X31329510Y-73384654D01*
X31438670Y-68308699D01*
X54573000Y-68308699D01*
X54573000Y-68491301D01*
X54608624Y-68670396D01*
X54678504Y-68839099D01*
X54779952Y-68990928D01*
X54909072Y-69120048D01*
X55060901Y-69221496D01*
X55229604Y-69291376D01*
X55408699Y-69327000D01*
X55591301Y-69327000D01*
X55770396Y-69291376D01*
X55939099Y-69221496D01*
X56090928Y-69120048D01*
X56220048Y-68990928D01*
X56321496Y-68839099D01*
X56391376Y-68670396D01*
X56427000Y-68491301D01*
X56427000Y-68308699D01*
X56391376Y-68129604D01*
X56321496Y-67960901D01*
X56220048Y-67809072D01*
X56090928Y-67679952D01*
X55939099Y-67578504D01*
X55770396Y-67508624D01*
X55591301Y-67473000D01*
X55408699Y-67473000D01*
X55229604Y-67508624D01*
X55060901Y-67578504D01*
X54909072Y-67679952D01*
X54779952Y-67809072D01*
X54678504Y-67960901D01*
X54608624Y-68129604D01*
X54573000Y-68308699D01*
X31438670Y-68308699D01*
X31526923Y-64204969D01*
X31845409Y-58608699D01*
X45573000Y-58608699D01*
X45573000Y-58791301D01*
X45608624Y-58970396D01*
X45678504Y-59139099D01*
X45779952Y-59290928D01*
X45909072Y-59420048D01*
X46060901Y-59521496D01*
X46229604Y-59591376D01*
X46408699Y-59627000D01*
X46591301Y-59627000D01*
X46770396Y-59591376D01*
X46939099Y-59521496D01*
X47090928Y-59420048D01*
X47220048Y-59290928D01*
X47321496Y-59139099D01*
X47391376Y-58970396D01*
X47427000Y-58791301D01*
X47427000Y-58608699D01*
X47391376Y-58429604D01*
X47321496Y-58260901D01*
X47220048Y-58109072D01*
X47090928Y-57979952D01*
X46939099Y-57878504D01*
X46770396Y-57808624D01*
X46591301Y-57773000D01*
X46408699Y-57773000D01*
X46229604Y-57808624D01*
X46060901Y-57878504D01*
X45909072Y-57979952D01*
X45779952Y-58109072D01*
X45678504Y-58260901D01*
X45608624Y-58429604D01*
X45573000Y-58608699D01*
X31845409Y-58608699D01*
X32223526Y-51964658D01*
X44973186Y-42003986D01*
X46867817Y-40807377D01*
X46887462Y-40792083D01*
X46903746Y-40773251D01*
X46916043Y-40751604D01*
X46923881Y-40727973D01*
X46926344Y-40712892D01*
X46995268Y-40037438D01*
X47104822Y-40221355D01*
X47299731Y-40437588D01*
X47533080Y-40611641D01*
X47795901Y-40736825D01*
X47943110Y-40781476D01*
X48173000Y-40660155D01*
X48173000Y-39467000D01*
X48153000Y-39467000D01*
X48153000Y-39213000D01*
X48173000Y-39213000D01*
X48173000Y-36927000D01*
X48153000Y-36927000D01*
X48153000Y-36673000D01*
X48173000Y-36673000D01*
X48173000Y-36653000D01*
X48427000Y-36653000D01*
X48427000Y-36673000D01*
G04 #@! TA.AperFunction,Conductor*
D28*
G36*
X48427000Y-36673000D02*
G01*
X48447000Y-36673000D01*
X48447000Y-36927000D01*
X48427000Y-36927000D01*
X48427000Y-39213000D01*
X48447000Y-39213000D01*
X48447000Y-39467000D01*
X48427000Y-39467000D01*
X48427000Y-40660155D01*
X48656890Y-40781476D01*
X48804099Y-40736825D01*
X49066920Y-40611641D01*
X49226888Y-40492322D01*
X49675285Y-42823984D01*
X49682361Y-42847853D01*
X49690548Y-42864414D01*
X61973516Y-63735474D01*
X62773014Y-117201899D01*
X62773887Y-117214984D01*
X63973887Y-127314984D01*
X63979233Y-127339299D01*
X63989221Y-127362105D01*
X63998946Y-127376922D01*
X68976331Y-133915840D01*
X43690096Y-139052106D01*
X42402798Y-134508699D01*
X43573000Y-134508699D01*
X43573000Y-134691301D01*
X43608624Y-134870396D01*
X43678504Y-135039099D01*
X43779952Y-135190928D01*
X43909072Y-135320048D01*
X44060901Y-135421496D01*
X44229604Y-135491376D01*
X44408699Y-135527000D01*
X44591301Y-135527000D01*
X44770396Y-135491376D01*
X44939099Y-135421496D01*
X45090928Y-135320048D01*
X45220048Y-135190928D01*
X45321496Y-135039099D01*
X45391376Y-134870396D01*
X45427000Y-134691301D01*
X45427000Y-134508699D01*
X45391376Y-134329604D01*
X45321496Y-134160901D01*
X45220048Y-134009072D01*
X45090928Y-133879952D01*
X44939099Y-133778504D01*
X44770396Y-133708624D01*
X44591301Y-133673000D01*
X44408699Y-133673000D01*
X44229604Y-133708624D01*
X44060901Y-133778504D01*
X43909072Y-133879952D01*
X43779952Y-134009072D01*
X43678504Y-134160901D01*
X43608624Y-134329604D01*
X43573000Y-134508699D01*
X42402798Y-134508699D01*
X42025850Y-133178297D01*
X41988536Y-132608699D01*
X43573000Y-132608699D01*
X43573000Y-132791301D01*
X43608624Y-132970396D01*
X43678504Y-133139099D01*
X43779952Y-133290928D01*
X43909072Y-133420048D01*
X44060901Y-133521496D01*
X44229604Y-133591376D01*
X44408699Y-133627000D01*
X44591301Y-133627000D01*
X44770396Y-133591376D01*
X44939099Y-133521496D01*
X45090928Y-133420048D01*
X45220048Y-133290928D01*
X45274991Y-133208699D01*
X55373000Y-133208699D01*
X55373000Y-133391301D01*
X55408624Y-133570396D01*
X55478504Y-133739099D01*
X55579952Y-133890928D01*
X55709072Y-134020048D01*
X55860901Y-134121496D01*
X56029604Y-134191376D01*
X56208699Y-134227000D01*
X56391301Y-134227000D01*
X56570396Y-134191376D01*
X56739099Y-134121496D01*
X56890928Y-134020048D01*
X57020048Y-133890928D01*
X57121496Y-133739099D01*
X57191376Y-133570396D01*
X57227000Y-133391301D01*
X57227000Y-133208699D01*
X57191376Y-133029604D01*
X57121496Y-132860901D01*
X57020048Y-132709072D01*
X56890928Y-132579952D01*
X56739099Y-132478504D01*
X56570396Y-132408624D01*
X56391301Y-132373000D01*
X56208699Y-132373000D01*
X56029604Y-132408624D01*
X55860901Y-132478504D01*
X55709072Y-132579952D01*
X55579952Y-132709072D01*
X55478504Y-132860901D01*
X55408624Y-133029604D01*
X55373000Y-133208699D01*
X45274991Y-133208699D01*
X45321496Y-133139099D01*
X45391376Y-132970396D01*
X45427000Y-132791301D01*
X45427000Y-132608699D01*
X45391376Y-132429604D01*
X45321496Y-132260901D01*
X45220048Y-132109072D01*
X45090928Y-131979952D01*
X44939099Y-131878504D01*
X44770578Y-131808699D01*
X47673000Y-131808699D01*
X47673000Y-131991301D01*
X47708624Y-132170396D01*
X47778504Y-132339099D01*
X47879952Y-132490928D01*
X48009072Y-132620048D01*
X48160901Y-132721496D01*
X48329604Y-132791376D01*
X48508699Y-132827000D01*
X48691301Y-132827000D01*
X48870396Y-132791376D01*
X49039099Y-132721496D01*
X49190928Y-132620048D01*
X49320048Y-132490928D01*
X49421496Y-132339099D01*
X49491376Y-132170396D01*
X49527000Y-131991301D01*
X49527000Y-131808699D01*
X49491376Y-131629604D01*
X49421496Y-131460901D01*
X49320048Y-131309072D01*
X49190928Y-131179952D01*
X49039099Y-131078504D01*
X48870396Y-131008624D01*
X48691301Y-130973000D01*
X48508699Y-130973000D01*
X48329604Y-131008624D01*
X48160901Y-131078504D01*
X48009072Y-131179952D01*
X47879952Y-131309072D01*
X47778504Y-131460901D01*
X47708624Y-131629604D01*
X47673000Y-131808699D01*
X44770578Y-131808699D01*
X44770396Y-131808624D01*
X44591301Y-131773000D01*
X44408699Y-131773000D01*
X44229604Y-131808624D01*
X44060901Y-131878504D01*
X43909072Y-131979952D01*
X43779952Y-132109072D01*
X43678504Y-132260901D01*
X43608624Y-132429604D01*
X43573000Y-132608699D01*
X41988536Y-132608699D01*
X41824759Y-130108699D01*
X42473000Y-130108699D01*
X42473000Y-130291301D01*
X42508624Y-130470396D01*
X42578504Y-130639099D01*
X42679952Y-130790928D01*
X42809072Y-130920048D01*
X42960901Y-131021496D01*
X43129604Y-131091376D01*
X43308699Y-131127000D01*
X43491301Y-131127000D01*
X43670396Y-131091376D01*
X43839099Y-131021496D01*
X43990928Y-130920048D01*
X44120048Y-130790928D01*
X44221496Y-130639099D01*
X44291376Y-130470396D01*
X44327000Y-130291301D01*
X44327000Y-130108699D01*
X44291376Y-129929604D01*
X44221496Y-129760901D01*
X44186228Y-129708118D01*
X44270396Y-129691376D01*
X44439099Y-129621496D01*
X44590928Y-129520048D01*
X44720048Y-129390928D01*
X44821496Y-129239099D01*
X44891376Y-129070396D01*
X44927000Y-128891301D01*
X44927000Y-128708699D01*
X44891376Y-128529604D01*
X44821496Y-128360901D01*
X44720048Y-128209072D01*
X44590928Y-128079952D01*
X44439099Y-127978504D01*
X44270396Y-127908624D01*
X44091301Y-127873000D01*
X43908699Y-127873000D01*
X43729604Y-127908624D01*
X43560901Y-127978504D01*
X43409072Y-128079952D01*
X43279952Y-128209072D01*
X43178504Y-128360901D01*
X43108624Y-128529604D01*
X43073000Y-128708699D01*
X43073000Y-128891301D01*
X43108624Y-129070396D01*
X43178504Y-129239099D01*
X43213772Y-129291882D01*
X43129604Y-129308624D01*
X42960901Y-129378504D01*
X42809072Y-129479952D01*
X42679952Y-129609072D01*
X42578504Y-129760901D01*
X42508624Y-129929604D01*
X42473000Y-130108699D01*
X41824759Y-130108699D01*
X41608575Y-126808699D01*
X52573000Y-126808699D01*
X52573000Y-126991301D01*
X52608624Y-127170396D01*
X52678504Y-127339099D01*
X52779952Y-127490928D01*
X52909072Y-127620048D01*
X53060901Y-127721496D01*
X53229604Y-127791376D01*
X53408699Y-127827000D01*
X53591301Y-127827000D01*
X53770396Y-127791376D01*
X53939099Y-127721496D01*
X54090928Y-127620048D01*
X54220048Y-127490928D01*
X54321496Y-127339099D01*
X54391376Y-127170396D01*
X54427000Y-126991301D01*
X54427000Y-126808699D01*
X54391376Y-126629604D01*
X54321496Y-126460901D01*
X54220048Y-126309072D01*
X54090928Y-126179952D01*
X53939099Y-126078504D01*
X53770396Y-126008624D01*
X53591301Y-125973000D01*
X53408699Y-125973000D01*
X53229604Y-126008624D01*
X53060901Y-126078504D01*
X52909072Y-126179952D01*
X52779952Y-126309072D01*
X52678504Y-126460901D01*
X52608624Y-126629604D01*
X52573000Y-126808699D01*
X41608575Y-126808699D01*
X41497207Y-125108699D01*
X43273000Y-125108699D01*
X43273000Y-125291301D01*
X43308624Y-125470396D01*
X43378504Y-125639099D01*
X43479952Y-125790928D01*
X43609072Y-125920048D01*
X43760901Y-126021496D01*
X43929604Y-126091376D01*
X44108699Y-126127000D01*
X44291301Y-126127000D01*
X44470396Y-126091376D01*
X44639099Y-126021496D01*
X44790928Y-125920048D01*
X44920048Y-125790928D01*
X45021496Y-125639099D01*
X45091376Y-125470396D01*
X45127000Y-125291301D01*
X45127000Y-125108699D01*
X45091376Y-124929604D01*
X45021496Y-124760901D01*
X44920048Y-124609072D01*
X44790928Y-124479952D01*
X44639099Y-124378504D01*
X44470396Y-124308624D01*
X44291301Y-124273000D01*
X44108699Y-124273000D01*
X43929604Y-124308624D01*
X43760901Y-124378504D01*
X43609072Y-124479952D01*
X43479952Y-124609072D01*
X43378504Y-124760901D01*
X43308624Y-124929604D01*
X43273000Y-125108699D01*
X41497207Y-125108699D01*
X41366186Y-123108699D01*
X47673000Y-123108699D01*
X47673000Y-123291301D01*
X47708624Y-123470396D01*
X47778504Y-123639099D01*
X47879952Y-123790928D01*
X48009072Y-123920048D01*
X48160901Y-124021496D01*
X48329604Y-124091376D01*
X48508699Y-124127000D01*
X48691301Y-124127000D01*
X48870396Y-124091376D01*
X49039099Y-124021496D01*
X49190928Y-123920048D01*
X49302277Y-123808699D01*
X53573000Y-123808699D01*
X53573000Y-123991301D01*
X53608624Y-124170396D01*
X53678504Y-124339099D01*
X53779952Y-124490928D01*
X53909072Y-124620048D01*
X53944982Y-124644042D01*
X53879952Y-124709072D01*
X53778504Y-124860901D01*
X53708624Y-125029604D01*
X53673000Y-125208699D01*
X53673000Y-125391301D01*
X53708624Y-125570396D01*
X53778504Y-125739099D01*
X53879952Y-125890928D01*
X54009072Y-126020048D01*
X54160901Y-126121496D01*
X54329604Y-126191376D01*
X54508699Y-126227000D01*
X54691301Y-126227000D01*
X54870396Y-126191376D01*
X55039099Y-126121496D01*
X55190928Y-126020048D01*
X55320048Y-125890928D01*
X55421496Y-125739099D01*
X55491376Y-125570396D01*
X55527000Y-125391301D01*
X55527000Y-125208699D01*
X55491376Y-125029604D01*
X55421496Y-124860901D01*
X55320048Y-124709072D01*
X55190928Y-124579952D01*
X55155018Y-124555958D01*
X55220048Y-124490928D01*
X55321496Y-124339099D01*
X55391376Y-124170396D01*
X55427000Y-123991301D01*
X55427000Y-123808699D01*
X55391376Y-123629604D01*
X55321496Y-123460901D01*
X55220048Y-123309072D01*
X55090928Y-123179952D01*
X54939099Y-123078504D01*
X54770396Y-123008624D01*
X54591301Y-122973000D01*
X54408699Y-122973000D01*
X54229604Y-123008624D01*
X54060901Y-123078504D01*
X53909072Y-123179952D01*
X53779952Y-123309072D01*
X53678504Y-123460901D01*
X53608624Y-123629604D01*
X53573000Y-123808699D01*
X49302277Y-123808699D01*
X49320048Y-123790928D01*
X49421496Y-123639099D01*
X49491376Y-123470396D01*
X49527000Y-123291301D01*
X49527000Y-123108699D01*
X49491376Y-122929604D01*
X49421496Y-122760901D01*
X49320048Y-122609072D01*
X49190928Y-122479952D01*
X49039099Y-122378504D01*
X48870396Y-122308624D01*
X48691301Y-122273000D01*
X48508699Y-122273000D01*
X48329604Y-122308624D01*
X48160901Y-122378504D01*
X48009072Y-122479952D01*
X47879952Y-122609072D01*
X47778504Y-122760901D01*
X47708624Y-122929604D01*
X47673000Y-123108699D01*
X41366186Y-123108699D01*
X41241716Y-121208699D01*
X46873000Y-121208699D01*
X46873000Y-121391301D01*
X46908624Y-121570396D01*
X46978504Y-121739099D01*
X47079952Y-121890928D01*
X47209072Y-122020048D01*
X47360901Y-122121496D01*
X47529604Y-122191376D01*
X47708699Y-122227000D01*
X47891301Y-122227000D01*
X48070396Y-122191376D01*
X48239099Y-122121496D01*
X48390928Y-122020048D01*
X48520048Y-121890928D01*
X48621496Y-121739099D01*
X48691376Y-121570396D01*
X48727000Y-121391301D01*
X48727000Y-121208699D01*
X48691376Y-121029604D01*
X48621496Y-120860901D01*
X48520048Y-120709072D01*
X48390928Y-120579952D01*
X48239099Y-120478504D01*
X48070396Y-120408624D01*
X47891301Y-120373000D01*
X47708699Y-120373000D01*
X47529604Y-120408624D01*
X47360901Y-120478504D01*
X47209072Y-120579952D01*
X47079952Y-120709072D01*
X46978504Y-120860901D01*
X46908624Y-121029604D01*
X46873000Y-121208699D01*
X41241716Y-121208699D01*
X40992776Y-117408699D01*
X52473000Y-117408699D01*
X52473000Y-117591301D01*
X52508624Y-117770396D01*
X52578504Y-117939099D01*
X52679952Y-118090928D01*
X52809072Y-118220048D01*
X52960901Y-118321496D01*
X53129604Y-118391376D01*
X53308699Y-118427000D01*
X53491301Y-118427000D01*
X53670396Y-118391376D01*
X53839099Y-118321496D01*
X53990928Y-118220048D01*
X54120048Y-118090928D01*
X54221496Y-117939099D01*
X54291376Y-117770396D01*
X54327000Y-117591301D01*
X54327000Y-117408699D01*
X54291376Y-117229604D01*
X54221496Y-117060901D01*
X54120048Y-116909072D01*
X53990928Y-116779952D01*
X53839099Y-116678504D01*
X53670396Y-116608624D01*
X53491301Y-116573000D01*
X53308699Y-116573000D01*
X53129604Y-116608624D01*
X52960901Y-116678504D01*
X52809072Y-116779952D01*
X52679952Y-116909072D01*
X52578504Y-117060901D01*
X52508624Y-117229604D01*
X52473000Y-117408699D01*
X40992776Y-117408699D01*
X40724182Y-113308699D01*
X43473000Y-113308699D01*
X43473000Y-113491301D01*
X43508624Y-113670396D01*
X43578504Y-113839099D01*
X43679952Y-113990928D01*
X43809072Y-114120048D01*
X43960901Y-114221496D01*
X44129604Y-114291376D01*
X44308699Y-114327000D01*
X44491301Y-114327000D01*
X44670396Y-114291376D01*
X44839099Y-114221496D01*
X44990928Y-114120048D01*
X45120048Y-113990928D01*
X45221496Y-113839099D01*
X45291376Y-113670396D01*
X45327000Y-113491301D01*
X45327000Y-113308699D01*
X45291376Y-113129604D01*
X45221496Y-112960901D01*
X45120048Y-112809072D01*
X44990928Y-112679952D01*
X44839099Y-112578504D01*
X44670396Y-112508624D01*
X44491301Y-112473000D01*
X44308699Y-112473000D01*
X44129604Y-112508624D01*
X43960901Y-112578504D01*
X43809072Y-112679952D01*
X43679952Y-112809072D01*
X43578504Y-112960901D01*
X43508624Y-113129604D01*
X43473000Y-113308699D01*
X40724182Y-113308699D01*
X40475242Y-109508699D01*
X53873000Y-109508699D01*
X53873000Y-109691301D01*
X53908624Y-109870396D01*
X53978504Y-110039099D01*
X54079952Y-110190928D01*
X54209072Y-110320048D01*
X54360901Y-110421496D01*
X54529604Y-110491376D01*
X54708699Y-110527000D01*
X54891301Y-110527000D01*
X55070396Y-110491376D01*
X55239099Y-110421496D01*
X55390928Y-110320048D01*
X55520048Y-110190928D01*
X55621496Y-110039099D01*
X55691376Y-109870396D01*
X55727000Y-109691301D01*
X55727000Y-109508699D01*
X55691376Y-109329604D01*
X55621496Y-109160901D01*
X55520048Y-109009072D01*
X55390928Y-108879952D01*
X55239099Y-108778504D01*
X55070396Y-108708624D01*
X54891301Y-108673000D01*
X54708699Y-108673000D01*
X54529604Y-108708624D01*
X54360901Y-108778504D01*
X54209072Y-108879952D01*
X54079952Y-109009072D01*
X53978504Y-109160901D01*
X53908624Y-109329604D01*
X53873000Y-109508699D01*
X40475242Y-109508699D01*
X40324567Y-107208699D01*
X41973000Y-107208699D01*
X41973000Y-107391301D01*
X42008624Y-107570396D01*
X42078504Y-107739099D01*
X42179952Y-107890928D01*
X42309072Y-108020048D01*
X42460901Y-108121496D01*
X42629604Y-108191376D01*
X42808699Y-108227000D01*
X42991301Y-108227000D01*
X43170396Y-108191376D01*
X43339099Y-108121496D01*
X43490928Y-108020048D01*
X43620048Y-107890928D01*
X43721496Y-107739099D01*
X43791376Y-107570396D01*
X43827000Y-107391301D01*
X43827000Y-107208699D01*
X52673000Y-107208699D01*
X52673000Y-107391301D01*
X52708624Y-107570396D01*
X52778504Y-107739099D01*
X52879952Y-107890928D01*
X53009072Y-108020048D01*
X53160901Y-108121496D01*
X53329604Y-108191376D01*
X53508699Y-108227000D01*
X53691301Y-108227000D01*
X53870396Y-108191376D01*
X54039099Y-108121496D01*
X54190928Y-108020048D01*
X54320048Y-107890928D01*
X54421496Y-107739099D01*
X54491376Y-107570396D01*
X54527000Y-107391301D01*
X54527000Y-107208699D01*
X54507109Y-107108699D01*
X54573000Y-107108699D01*
X54573000Y-107291301D01*
X54608624Y-107470396D01*
X54678504Y-107639099D01*
X54779952Y-107790928D01*
X54909072Y-107920048D01*
X55060901Y-108021496D01*
X55229604Y-108091376D01*
X55408699Y-108127000D01*
X55591301Y-108127000D01*
X55770396Y-108091376D01*
X55939099Y-108021496D01*
X56090928Y-107920048D01*
X56220048Y-107790928D01*
X56321496Y-107639099D01*
X56391376Y-107470396D01*
X56427000Y-107291301D01*
X56427000Y-107108699D01*
X56391376Y-106929604D01*
X56321496Y-106760901D01*
X56220048Y-106609072D01*
X56090928Y-106479952D01*
X55939099Y-106378504D01*
X55770396Y-106308624D01*
X55591301Y-106273000D01*
X55408699Y-106273000D01*
X55229604Y-106308624D01*
X55060901Y-106378504D01*
X54909072Y-106479952D01*
X54779952Y-106609072D01*
X54678504Y-106760901D01*
X54608624Y-106929604D01*
X54573000Y-107108699D01*
X54507109Y-107108699D01*
X54491376Y-107029604D01*
X54421496Y-106860901D01*
X54320048Y-106709072D01*
X54190928Y-106579952D01*
X54039099Y-106478504D01*
X53870396Y-106408624D01*
X53691301Y-106373000D01*
X53508699Y-106373000D01*
X53329604Y-106408624D01*
X53160901Y-106478504D01*
X53009072Y-106579952D01*
X52879952Y-106709072D01*
X52778504Y-106860901D01*
X52708624Y-107029604D01*
X52673000Y-107208699D01*
X43827000Y-107208699D01*
X43791376Y-107029604D01*
X43721496Y-106860901D01*
X43620048Y-106709072D01*
X43490928Y-106579952D01*
X43339099Y-106478504D01*
X43170396Y-106408624D01*
X42991301Y-106373000D01*
X42808699Y-106373000D01*
X42629604Y-106408624D01*
X42460901Y-106478504D01*
X42309072Y-106579952D01*
X42179952Y-106709072D01*
X42078504Y-106860901D01*
X42008624Y-107029604D01*
X41973000Y-107208699D01*
X40324567Y-107208699D01*
X40141138Y-104408699D01*
X52473000Y-104408699D01*
X52473000Y-104591301D01*
X52508624Y-104770396D01*
X52578504Y-104939099D01*
X52679952Y-105090928D01*
X52809072Y-105220048D01*
X52960901Y-105321496D01*
X53129604Y-105391376D01*
X53308699Y-105427000D01*
X53491301Y-105427000D01*
X53670396Y-105391376D01*
X53839099Y-105321496D01*
X53990928Y-105220048D01*
X54120048Y-105090928D01*
X54221496Y-104939099D01*
X54291376Y-104770396D01*
X54327000Y-104591301D01*
X54327000Y-104408699D01*
X54291376Y-104229604D01*
X54221496Y-104060901D01*
X54120048Y-103909072D01*
X53990928Y-103779952D01*
X53839099Y-103678504D01*
X53670396Y-103608624D01*
X53491301Y-103573000D01*
X53308699Y-103573000D01*
X53129604Y-103608624D01*
X52960901Y-103678504D01*
X52809072Y-103779952D01*
X52679952Y-103909072D01*
X52578504Y-104060901D01*
X52508624Y-104229604D01*
X52473000Y-104408699D01*
X40141138Y-104408699D01*
X39754626Y-98508699D01*
X48673004Y-98508699D01*
X48673004Y-98691301D01*
X48708628Y-98870396D01*
X48778508Y-99039099D01*
X48879956Y-99190928D01*
X49009076Y-99320048D01*
X49160905Y-99421496D01*
X49329608Y-99491376D01*
X49508703Y-99527000D01*
X49691305Y-99527000D01*
X49870400Y-99491376D01*
X50039103Y-99421496D01*
X50190932Y-99320048D01*
X50320052Y-99190928D01*
X50421500Y-99039099D01*
X50491380Y-98870396D01*
X50527004Y-98691301D01*
X50527004Y-98508699D01*
X50514036Y-98443506D01*
X50629604Y-98491376D01*
X50808699Y-98527000D01*
X50991301Y-98527000D01*
X51170396Y-98491376D01*
X51339099Y-98421496D01*
X51490928Y-98320048D01*
X51602277Y-98208699D01*
X57173000Y-98208699D01*
X57173000Y-98391301D01*
X57208624Y-98570396D01*
X57278504Y-98739099D01*
X57379952Y-98890928D01*
X57509072Y-99020048D01*
X57660901Y-99121496D01*
X57829604Y-99191376D01*
X58008699Y-99227000D01*
X58191301Y-99227000D01*
X58370396Y-99191376D01*
X58539099Y-99121496D01*
X58690928Y-99020048D01*
X58820048Y-98890928D01*
X58921496Y-98739099D01*
X58991376Y-98570396D01*
X59027000Y-98391301D01*
X59027000Y-98208699D01*
X58991376Y-98029604D01*
X58921496Y-97860901D01*
X58820048Y-97709072D01*
X58690928Y-97579952D01*
X58539099Y-97478504D01*
X58370396Y-97408624D01*
X58191301Y-97373000D01*
X58008699Y-97373000D01*
X57829604Y-97408624D01*
X57660901Y-97478504D01*
X57509072Y-97579952D01*
X57379952Y-97709072D01*
X57278504Y-97860901D01*
X57208624Y-98029604D01*
X57173000Y-98208699D01*
X51602277Y-98208699D01*
X51620048Y-98190928D01*
X51721496Y-98039099D01*
X51791376Y-97870396D01*
X51827000Y-97691301D01*
X51827000Y-97508699D01*
X51791376Y-97329604D01*
X51721496Y-97160901D01*
X51620048Y-97009072D01*
X51490928Y-96879952D01*
X51339099Y-96778504D01*
X51170396Y-96708624D01*
X50991301Y-96673000D01*
X50808699Y-96673000D01*
X50629604Y-96708624D01*
X50460901Y-96778504D01*
X50309072Y-96879952D01*
X50179952Y-97009072D01*
X50078504Y-97160901D01*
X50008624Y-97329604D01*
X49973000Y-97508699D01*
X49973000Y-97691301D01*
X49985968Y-97756494D01*
X49870400Y-97708624D01*
X49691305Y-97673000D01*
X49508703Y-97673000D01*
X49329608Y-97708624D01*
X49160905Y-97778504D01*
X49009076Y-97879952D01*
X48879956Y-98009072D01*
X48778508Y-98160901D01*
X48708628Y-98329604D01*
X48673004Y-98508699D01*
X39754626Y-98508699D01*
X39617053Y-96408699D01*
X43873000Y-96408699D01*
X43873000Y-96591301D01*
X43908624Y-96770396D01*
X43978504Y-96939099D01*
X44079952Y-97090928D01*
X44209072Y-97220048D01*
X44360901Y-97321496D01*
X44529604Y-97391376D01*
X44708699Y-97427000D01*
X44891301Y-97427000D01*
X45070396Y-97391376D01*
X45239099Y-97321496D01*
X45390928Y-97220048D01*
X45520048Y-97090928D01*
X45621496Y-96939099D01*
X45691376Y-96770396D01*
X45727000Y-96591301D01*
X45727000Y-96408699D01*
X45691376Y-96229604D01*
X45621496Y-96060901D01*
X45520048Y-95909072D01*
X45390928Y-95779952D01*
X45239099Y-95678504D01*
X45070396Y-95608624D01*
X44891301Y-95573000D01*
X44708699Y-95573000D01*
X44529604Y-95608624D01*
X44360901Y-95678504D01*
X44209072Y-95779952D01*
X44079952Y-95909072D01*
X43978504Y-96060901D01*
X43908624Y-96229604D01*
X43873000Y-96408699D01*
X39617053Y-96408699D01*
X39558094Y-95508699D01*
X52873000Y-95508699D01*
X52873000Y-95691301D01*
X52908624Y-95870396D01*
X52978504Y-96039099D01*
X53079952Y-96190928D01*
X53209072Y-96320048D01*
X53360901Y-96421496D01*
X53529604Y-96491376D01*
X53708699Y-96527000D01*
X53891301Y-96527000D01*
X54070396Y-96491376D01*
X54239099Y-96421496D01*
X54390928Y-96320048D01*
X54520048Y-96190928D01*
X54621496Y-96039099D01*
X54691376Y-95870396D01*
X54727000Y-95691301D01*
X54727000Y-95508699D01*
X54691376Y-95329604D01*
X54621496Y-95160901D01*
X54520048Y-95009072D01*
X54390928Y-94879952D01*
X54239099Y-94778504D01*
X54070396Y-94708624D01*
X53891301Y-94673000D01*
X53708699Y-94673000D01*
X53529604Y-94708624D01*
X53360901Y-94778504D01*
X53209072Y-94879952D01*
X53079952Y-95009072D01*
X52978504Y-95160901D01*
X52908624Y-95329604D01*
X52873000Y-95508699D01*
X39558094Y-95508699D01*
X39178132Y-89708699D01*
X43573000Y-89708699D01*
X43573000Y-89891301D01*
X43608624Y-90070396D01*
X43678504Y-90239099D01*
X43779952Y-90390928D01*
X43909072Y-90520048D01*
X44060901Y-90621496D01*
X44229604Y-90691376D01*
X44408699Y-90727000D01*
X44591301Y-90727000D01*
X44770396Y-90691376D01*
X44939099Y-90621496D01*
X45090928Y-90520048D01*
X45220048Y-90390928D01*
X45274991Y-90308699D01*
X48573000Y-90308699D01*
X48573000Y-90491301D01*
X48608624Y-90670396D01*
X48678504Y-90839099D01*
X48779952Y-90990928D01*
X48909072Y-91120048D01*
X49060901Y-91221496D01*
X49229604Y-91291376D01*
X49408699Y-91327000D01*
X49591301Y-91327000D01*
X49770396Y-91291376D01*
X49939099Y-91221496D01*
X50090928Y-91120048D01*
X50102277Y-91108699D01*
X58173000Y-91108699D01*
X58173000Y-91291301D01*
X58208624Y-91470396D01*
X58278504Y-91639099D01*
X58379952Y-91790928D01*
X58509072Y-91920048D01*
X58660901Y-92021496D01*
X58829604Y-92091376D01*
X59008699Y-92127000D01*
X59191301Y-92127000D01*
X59370396Y-92091376D01*
X59539099Y-92021496D01*
X59690928Y-91920048D01*
X59820048Y-91790928D01*
X59921496Y-91639099D01*
X59991376Y-91470396D01*
X60027000Y-91291301D01*
X60027000Y-91108699D01*
X59991376Y-90929604D01*
X59921496Y-90760901D01*
X59820048Y-90609072D01*
X59690928Y-90479952D01*
X59539099Y-90378504D01*
X59370396Y-90308624D01*
X59191301Y-90273000D01*
X59008699Y-90273000D01*
X58829604Y-90308624D01*
X58660901Y-90378504D01*
X58509072Y-90479952D01*
X58379952Y-90609072D01*
X58278504Y-90760901D01*
X58208624Y-90929604D01*
X58173000Y-91108699D01*
X50102277Y-91108699D01*
X50220048Y-90990928D01*
X50321496Y-90839099D01*
X50391376Y-90670396D01*
X50427000Y-90491301D01*
X50427000Y-90308699D01*
X50391376Y-90129604D01*
X50321496Y-89960901D01*
X50220048Y-89809072D01*
X50090928Y-89679952D01*
X49939099Y-89578504D01*
X49770396Y-89508624D01*
X49591301Y-89473000D01*
X49408699Y-89473000D01*
X49229604Y-89508624D01*
X49060901Y-89578504D01*
X48909072Y-89679952D01*
X48779952Y-89809072D01*
X48678504Y-89960901D01*
X48608624Y-90129604D01*
X48573000Y-90308699D01*
X45274991Y-90308699D01*
X45321496Y-90239099D01*
X45391376Y-90070396D01*
X45427000Y-89891301D01*
X45427000Y-89708699D01*
X45391376Y-89529604D01*
X45321496Y-89360901D01*
X45220048Y-89209072D01*
X45090928Y-89079952D01*
X44939099Y-88978504D01*
X44770396Y-88908624D01*
X44591301Y-88873000D01*
X44408699Y-88873000D01*
X44229604Y-88908624D01*
X44060901Y-88978504D01*
X43909072Y-89079952D01*
X43779952Y-89209072D01*
X43678504Y-89360901D01*
X43608624Y-89529604D01*
X43573000Y-89708699D01*
X39178132Y-89708699D01*
X39092969Y-88408699D01*
X53673000Y-88408699D01*
X53673000Y-88591301D01*
X53708624Y-88770396D01*
X53778504Y-88939099D01*
X53879952Y-89090928D01*
X54009072Y-89220048D01*
X54160901Y-89321496D01*
X54329604Y-89391376D01*
X54508699Y-89427000D01*
X54691301Y-89427000D01*
X54870396Y-89391376D01*
X55039099Y-89321496D01*
X55190928Y-89220048D01*
X55320048Y-89090928D01*
X55350000Y-89046101D01*
X55379952Y-89090928D01*
X55509072Y-89220048D01*
X55660901Y-89321496D01*
X55829604Y-89391376D01*
X56008699Y-89427000D01*
X56191301Y-89427000D01*
X56370396Y-89391376D01*
X56539099Y-89321496D01*
X56690928Y-89220048D01*
X56820048Y-89090928D01*
X56921496Y-88939099D01*
X56991376Y-88770396D01*
X57027000Y-88591301D01*
X57027000Y-88408699D01*
X56991376Y-88229604D01*
X56921496Y-88060901D01*
X56820048Y-87909072D01*
X56690928Y-87779952D01*
X56539099Y-87678504D01*
X56370396Y-87608624D01*
X56191301Y-87573000D01*
X56008699Y-87573000D01*
X55829604Y-87608624D01*
X55660901Y-87678504D01*
X55509072Y-87779952D01*
X55379952Y-87909072D01*
X55350000Y-87953899D01*
X55320048Y-87909072D01*
X55190928Y-87779952D01*
X55039099Y-87678504D01*
X54870396Y-87608624D01*
X54691301Y-87573000D01*
X54508699Y-87573000D01*
X54329604Y-87608624D01*
X54160901Y-87678504D01*
X54009072Y-87779952D01*
X53879952Y-87909072D01*
X53778504Y-88060901D01*
X53708624Y-88229604D01*
X53673000Y-88408699D01*
X39092969Y-88408699D01*
X38791619Y-83808699D01*
X46973000Y-83808699D01*
X46973000Y-83991301D01*
X47008624Y-84170396D01*
X47078504Y-84339099D01*
X47179952Y-84490928D01*
X47309072Y-84620048D01*
X47460901Y-84721496D01*
X47629604Y-84791376D01*
X47808699Y-84827000D01*
X47991301Y-84827000D01*
X48170396Y-84791376D01*
X48339099Y-84721496D01*
X48358251Y-84708699D01*
X55373001Y-84708699D01*
X55373001Y-84891301D01*
X55408625Y-85070396D01*
X55478505Y-85239099D01*
X55579953Y-85390928D01*
X55709073Y-85520048D01*
X55860902Y-85621496D01*
X56029605Y-85691376D01*
X56208700Y-85727000D01*
X56391302Y-85727000D01*
X56570397Y-85691376D01*
X56739100Y-85621496D01*
X56890929Y-85520048D01*
X57020049Y-85390928D01*
X57121497Y-85239099D01*
X57191377Y-85070396D01*
X57227001Y-84891301D01*
X57227001Y-84708699D01*
X57191377Y-84529604D01*
X57121497Y-84360901D01*
X57020049Y-84209072D01*
X56890929Y-84079952D01*
X56739100Y-83978504D01*
X56570397Y-83908624D01*
X56391302Y-83873000D01*
X56208700Y-83873000D01*
X56029605Y-83908624D01*
X55860902Y-83978504D01*
X55709073Y-84079952D01*
X55579953Y-84209072D01*
X55478505Y-84360901D01*
X55408625Y-84529604D01*
X55373001Y-84708699D01*
X48358251Y-84708699D01*
X48490928Y-84620048D01*
X48620048Y-84490928D01*
X48721496Y-84339099D01*
X48791376Y-84170396D01*
X48827000Y-83991301D01*
X48827000Y-83808699D01*
X48791376Y-83629604D01*
X48721496Y-83460901D01*
X48620048Y-83309072D01*
X48490928Y-83179952D01*
X48339099Y-83078504D01*
X48170396Y-83008624D01*
X47991301Y-82973000D01*
X47808699Y-82973000D01*
X47629604Y-83008624D01*
X47460901Y-83078504D01*
X47309072Y-83179952D01*
X47179952Y-83309072D01*
X47078504Y-83460901D01*
X47008624Y-83629604D01*
X46973000Y-83808699D01*
X38791619Y-83808699D01*
X38627160Y-81298287D01*
X38638297Y-81008699D01*
X53673000Y-81008699D01*
X53673000Y-81191301D01*
X53708624Y-81370396D01*
X53778504Y-81539099D01*
X53879952Y-81690928D01*
X54009072Y-81820048D01*
X54160901Y-81921496D01*
X54329604Y-81991376D01*
X54508699Y-82027000D01*
X54691301Y-82027000D01*
X54870396Y-81991376D01*
X55039099Y-81921496D01*
X55190928Y-81820048D01*
X55320048Y-81690928D01*
X55421496Y-81539099D01*
X55491376Y-81370396D01*
X55527000Y-81191301D01*
X55527000Y-81008699D01*
X55491376Y-80829604D01*
X55421496Y-80660901D01*
X55320048Y-80509072D01*
X55190928Y-80379952D01*
X55039099Y-80278504D01*
X54870396Y-80208624D01*
X54691301Y-80173000D01*
X54508699Y-80173000D01*
X54329604Y-80208624D01*
X54160901Y-80278504D01*
X54009072Y-80379952D01*
X53879952Y-80509072D01*
X53778504Y-80660901D01*
X53708624Y-80829604D01*
X53673000Y-81008699D01*
X38638297Y-81008699D01*
X38718105Y-78933699D01*
X46948000Y-78933699D01*
X46948000Y-79116301D01*
X46983624Y-79295396D01*
X47053504Y-79464099D01*
X47154952Y-79615928D01*
X47284072Y-79745048D01*
X47435901Y-79846496D01*
X47604604Y-79916376D01*
X47783699Y-79952000D01*
X47966301Y-79952000D01*
X48145396Y-79916376D01*
X48314099Y-79846496D01*
X48465928Y-79745048D01*
X48595048Y-79615928D01*
X48696496Y-79464099D01*
X48766376Y-79295396D01*
X48802000Y-79116301D01*
X48802000Y-78933699D01*
X48766376Y-78754604D01*
X48696496Y-78585901D01*
X48595048Y-78434072D01*
X48465928Y-78304952D01*
X48314099Y-78203504D01*
X48145396Y-78133624D01*
X47966301Y-78098000D01*
X47783699Y-78098000D01*
X47604604Y-78133624D01*
X47435901Y-78203504D01*
X47284072Y-78304952D01*
X47154952Y-78434072D01*
X47053504Y-78585901D01*
X46983624Y-78754604D01*
X46948000Y-78933699D01*
X38718105Y-78933699D01*
X38726906Y-78704881D01*
X38726019Y-78684248D01*
X38526019Y-77084248D01*
X38520525Y-77059965D01*
X38508280Y-77033635D01*
X38026336Y-76247306D01*
X38087533Y-76099565D01*
X38127000Y-75901151D01*
X38127000Y-75698849D01*
X38087533Y-75500435D01*
X38010115Y-75313533D01*
X37897723Y-75145326D01*
X37754674Y-75002277D01*
X37586467Y-74889885D01*
X37399565Y-74812467D01*
X37201151Y-74773000D01*
X37122730Y-74773000D01*
X36608280Y-73933635D01*
X36593253Y-73913785D01*
X36574641Y-73897249D01*
X36553161Y-73884662D01*
X36529638Y-73876507D01*
X36511928Y-73873561D01*
X32539978Y-73498849D01*
X37073000Y-73498849D01*
X37073000Y-73701151D01*
X37112467Y-73899565D01*
X37189885Y-74086467D01*
X37302277Y-74254674D01*
X37445326Y-74397723D01*
X37613533Y-74510115D01*
X37800435Y-74587533D01*
X37998849Y-74627000D01*
X38201151Y-74627000D01*
X38399565Y-74587533D01*
X38586467Y-74510115D01*
X38754674Y-74397723D01*
X38897723Y-74254674D01*
X39010115Y-74086467D01*
X39087533Y-73899565D01*
X39125498Y-73708699D01*
X43373000Y-73708699D01*
X43373000Y-73891301D01*
X43408624Y-74070396D01*
X43478504Y-74239099D01*
X43579952Y-74390928D01*
X43709072Y-74520048D01*
X43860901Y-74621496D01*
X44029604Y-74691376D01*
X44208699Y-74727000D01*
X44391301Y-74727000D01*
X44570396Y-74691376D01*
X44739099Y-74621496D01*
X44890928Y-74520048D01*
X45020048Y-74390928D01*
X45121496Y-74239099D01*
X45191376Y-74070396D01*
X45227000Y-73891301D01*
X45227000Y-73708699D01*
X45191376Y-73529604D01*
X45121496Y-73360901D01*
X45020048Y-73209072D01*
X44890928Y-73079952D01*
X44739099Y-72978504D01*
X44570396Y-72908624D01*
X44391301Y-72873000D01*
X44208699Y-72873000D01*
X44029604Y-72908624D01*
X43860901Y-72978504D01*
X43709072Y-73079952D01*
X43579952Y-73209072D01*
X43478504Y-73360901D01*
X43408624Y-73529604D01*
X43373000Y-73708699D01*
X39125498Y-73708699D01*
X39127000Y-73701151D01*
X39127000Y-73498849D01*
X39087533Y-73300435D01*
X39010115Y-73113533D01*
X38897723Y-72945326D01*
X38754674Y-72802277D01*
X38586467Y-72689885D01*
X38423783Y-72622498D01*
X38599565Y-72587533D01*
X38786467Y-72510115D01*
X38954674Y-72397723D01*
X39097723Y-72254674D01*
X39210115Y-72086467D01*
X39287533Y-71899565D01*
X39327000Y-71701151D01*
X39327000Y-71498849D01*
X39309069Y-71408699D01*
X52973000Y-71408699D01*
X52973000Y-71591301D01*
X53008624Y-71770396D01*
X53078504Y-71939099D01*
X53179952Y-72090928D01*
X53309072Y-72220048D01*
X53460901Y-72321496D01*
X53629604Y-72391376D01*
X53808699Y-72427000D01*
X53991301Y-72427000D01*
X54170396Y-72391376D01*
X54339099Y-72321496D01*
X54490928Y-72220048D01*
X54620048Y-72090928D01*
X54721496Y-71939099D01*
X54791376Y-71770396D01*
X54827000Y-71591301D01*
X54827000Y-71408699D01*
X54791376Y-71229604D01*
X54721496Y-71060901D01*
X54620048Y-70909072D01*
X54519675Y-70808699D01*
X57873000Y-70808699D01*
X57873000Y-70991301D01*
X57908624Y-71170396D01*
X57978504Y-71339099D01*
X58079952Y-71490928D01*
X58209072Y-71620048D01*
X58360901Y-71721496D01*
X58529604Y-71791376D01*
X58708699Y-71827000D01*
X58891301Y-71827000D01*
X59070396Y-71791376D01*
X59239099Y-71721496D01*
X59390928Y-71620048D01*
X59520048Y-71490928D01*
X59621496Y-71339099D01*
X59691376Y-71170396D01*
X59727000Y-70991301D01*
X59727000Y-70808699D01*
X59691376Y-70629604D01*
X59621496Y-70460901D01*
X59520048Y-70309072D01*
X59390928Y-70179952D01*
X59239099Y-70078504D01*
X59070396Y-70008624D01*
X58891301Y-69973000D01*
X58708699Y-69973000D01*
X58529604Y-70008624D01*
X58360901Y-70078504D01*
X58209072Y-70179952D01*
X58079952Y-70309072D01*
X57978504Y-70460901D01*
X57908624Y-70629604D01*
X57873000Y-70808699D01*
X54519675Y-70808699D01*
X54490928Y-70779952D01*
X54339099Y-70678504D01*
X54170396Y-70608624D01*
X53991301Y-70573000D01*
X53808699Y-70573000D01*
X53629604Y-70608624D01*
X53460901Y-70678504D01*
X53309072Y-70779952D01*
X53179952Y-70909072D01*
X53078504Y-71060901D01*
X53008624Y-71229604D01*
X52973000Y-71408699D01*
X39309069Y-71408699D01*
X39287533Y-71300435D01*
X39210115Y-71113533D01*
X39097723Y-70945326D01*
X38954674Y-70802277D01*
X38786467Y-70689885D01*
X38599565Y-70612467D01*
X38401151Y-70573000D01*
X38198849Y-70573000D01*
X38000435Y-70612467D01*
X37813533Y-70689885D01*
X37645326Y-70802277D01*
X37502277Y-70945326D01*
X37389885Y-71113533D01*
X37312467Y-71300435D01*
X37273000Y-71498849D01*
X37273000Y-71701151D01*
X37312467Y-71899565D01*
X37389885Y-72086467D01*
X37502277Y-72254674D01*
X37645326Y-72397723D01*
X37813533Y-72510115D01*
X37976217Y-72577502D01*
X37800435Y-72612467D01*
X37613533Y-72689885D01*
X37445326Y-72802277D01*
X37302277Y-72945326D01*
X37189885Y-73113533D01*
X37112467Y-73300435D01*
X37073000Y-73498849D01*
X32539978Y-73498849D01*
X31329510Y-73384654D01*
X31438670Y-68308699D01*
X54573000Y-68308699D01*
X54573000Y-68491301D01*
X54608624Y-68670396D01*
X54678504Y-68839099D01*
X54779952Y-68990928D01*
X54909072Y-69120048D01*
X55060901Y-69221496D01*
X55229604Y-69291376D01*
X55408699Y-69327000D01*
X55591301Y-69327000D01*
X55770396Y-69291376D01*
X55939099Y-69221496D01*
X56090928Y-69120048D01*
X56220048Y-68990928D01*
X56321496Y-68839099D01*
X56391376Y-68670396D01*
X56427000Y-68491301D01*
X56427000Y-68308699D01*
X56391376Y-68129604D01*
X56321496Y-67960901D01*
X56220048Y-67809072D01*
X56090928Y-67679952D01*
X55939099Y-67578504D01*
X55770396Y-67508624D01*
X55591301Y-67473000D01*
X55408699Y-67473000D01*
X55229604Y-67508624D01*
X55060901Y-67578504D01*
X54909072Y-67679952D01*
X54779952Y-67809072D01*
X54678504Y-67960901D01*
X54608624Y-68129604D01*
X54573000Y-68308699D01*
X31438670Y-68308699D01*
X31526923Y-64204969D01*
X31845409Y-58608699D01*
X45573000Y-58608699D01*
X45573000Y-58791301D01*
X45608624Y-58970396D01*
X45678504Y-59139099D01*
X45779952Y-59290928D01*
X45909072Y-59420048D01*
X46060901Y-59521496D01*
X46229604Y-59591376D01*
X46408699Y-59627000D01*
X46591301Y-59627000D01*
X46770396Y-59591376D01*
X46939099Y-59521496D01*
X47090928Y-59420048D01*
X47220048Y-59290928D01*
X47321496Y-59139099D01*
X47391376Y-58970396D01*
X47427000Y-58791301D01*
X47427000Y-58608699D01*
X47391376Y-58429604D01*
X47321496Y-58260901D01*
X47220048Y-58109072D01*
X47090928Y-57979952D01*
X46939099Y-57878504D01*
X46770396Y-57808624D01*
X46591301Y-57773000D01*
X46408699Y-57773000D01*
X46229604Y-57808624D01*
X46060901Y-57878504D01*
X45909072Y-57979952D01*
X45779952Y-58109072D01*
X45678504Y-58260901D01*
X45608624Y-58429604D01*
X45573000Y-58608699D01*
X31845409Y-58608699D01*
X32223526Y-51964658D01*
X44973186Y-42003986D01*
X46867817Y-40807377D01*
X46887462Y-40792083D01*
X46903746Y-40773251D01*
X46916043Y-40751604D01*
X46923881Y-40727973D01*
X46926344Y-40712892D01*
X46995268Y-40037438D01*
X47104822Y-40221355D01*
X47299731Y-40437588D01*
X47533080Y-40611641D01*
X47795901Y-40736825D01*
X47943110Y-40781476D01*
X48173000Y-40660155D01*
X48173000Y-39467000D01*
X48153000Y-39467000D01*
X48153000Y-39213000D01*
X48173000Y-39213000D01*
X48173000Y-36927000D01*
X48153000Y-36927000D01*
X48153000Y-36673000D01*
X48173000Y-36673000D01*
X48173000Y-36653000D01*
X48427000Y-36653000D01*
X48427000Y-36673000D01*
G37*
G04 #@! TD.AperFunction*
D27*
X50967000Y-36673000D02*
X50987000Y-36673000D01*
X50987000Y-36927000D01*
X50967000Y-36927000D01*
X50967000Y-39213000D01*
X50987000Y-39213000D01*
X50987000Y-39467000D01*
X50967000Y-39467000D01*
X50967000Y-40660155D01*
X51196890Y-40781476D01*
X51344099Y-40736825D01*
X51606920Y-40611641D01*
X51840269Y-40437588D01*
X52035178Y-40221355D01*
X52052645Y-40192032D01*
X52073269Y-40508265D01*
X52077317Y-40532830D01*
X52086079Y-40556134D01*
X52099219Y-40577280D01*
X52116232Y-40595456D01*
X52131007Y-40606625D01*
X55531007Y-42806625D01*
X55551796Y-42817496D01*
X71073112Y-49185215D01*
X71089353Y-61544666D01*
X71078504Y-61560903D01*
X71008624Y-61729606D01*
X70973000Y-61908701D01*
X70973000Y-62091303D01*
X71008624Y-62270398D01*
X71078504Y-62439101D01*
X71090552Y-62457132D01*
X71111008Y-78023850D01*
X71108624Y-78029604D01*
X71073000Y-78208699D01*
X71073000Y-78391301D01*
X71108624Y-78570396D01*
X71111736Y-78577908D01*
X71173000Y-125200167D01*
X71175473Y-125224940D01*
X71182731Y-125248755D01*
X71194496Y-125270696D01*
X71210316Y-125289920D01*
X71229581Y-125305689D01*
X71251553Y-125317396D01*
X71283215Y-125325886D01*
X77169959Y-126110785D01*
X77076470Y-129569872D01*
X69293439Y-129375297D01*
X66126479Y-119478547D01*
X65635168Y-100808699D01*
X68673000Y-100808699D01*
X68673000Y-100991301D01*
X68708624Y-101170396D01*
X68778504Y-101339099D01*
X68879952Y-101490928D01*
X69009072Y-101620048D01*
X69160901Y-101721496D01*
X69329604Y-101791376D01*
X69508699Y-101827000D01*
X69691301Y-101827000D01*
X69870396Y-101791376D01*
X70039099Y-101721496D01*
X70190928Y-101620048D01*
X70320048Y-101490928D01*
X70421496Y-101339099D01*
X70491376Y-101170396D01*
X70527000Y-100991301D01*
X70527000Y-100808699D01*
X70491376Y-100629604D01*
X70421496Y-100460901D01*
X70320048Y-100309072D01*
X70190928Y-100179952D01*
X70039099Y-100078504D01*
X69870396Y-100008624D01*
X69691301Y-99973000D01*
X69508699Y-99973000D01*
X69329604Y-100008624D01*
X69160901Y-100078504D01*
X69009072Y-100179952D01*
X68879952Y-100309072D01*
X68778504Y-100460901D01*
X68708624Y-100629604D01*
X68673000Y-100808699D01*
X65635168Y-100808699D01*
X65577914Y-98633062D01*
X65620048Y-98590928D01*
X65721496Y-98439099D01*
X65791376Y-98270396D01*
X65827000Y-98091301D01*
X65827000Y-97908699D01*
X65791376Y-97729604D01*
X65721496Y-97560901D01*
X65620048Y-97409072D01*
X65543694Y-97332718D01*
X64989538Y-76274782D01*
X65029604Y-76291378D01*
X65208699Y-76327002D01*
X65391301Y-76327002D01*
X65570396Y-76291378D01*
X65739099Y-76221498D01*
X65890928Y-76120050D01*
X66020048Y-75990930D01*
X66121496Y-75839101D01*
X66191376Y-75670398D01*
X66227000Y-75491303D01*
X66227000Y-75308701D01*
X66191376Y-75129606D01*
X66121496Y-74960903D01*
X66020048Y-74809074D01*
X65890928Y-74679954D01*
X65739099Y-74578506D01*
X65570396Y-74508626D01*
X65391301Y-74473002D01*
X65208699Y-74473002D01*
X65029604Y-74508626D01*
X64943994Y-74544087D01*
X64626956Y-62496659D01*
X64623865Y-62471955D01*
X64616014Y-62448329D01*
X64599930Y-62421623D01*
X60604135Y-57326984D01*
X59282085Y-55208699D01*
X63873000Y-55208699D01*
X63873000Y-55391301D01*
X63908624Y-55570396D01*
X63978504Y-55739099D01*
X64079952Y-55890928D01*
X64209072Y-56020048D01*
X64360901Y-56121496D01*
X64529604Y-56191376D01*
X64708699Y-56227000D01*
X64891301Y-56227000D01*
X65070396Y-56191376D01*
X65239099Y-56121496D01*
X65390928Y-56020048D01*
X65520048Y-55890928D01*
X65621496Y-55739099D01*
X65691376Y-55570396D01*
X65727000Y-55391301D01*
X65727000Y-55208699D01*
X65691376Y-55029604D01*
X65621496Y-54860901D01*
X65520048Y-54709072D01*
X65390928Y-54579952D01*
X65239099Y-54478504D01*
X65070396Y-54408624D01*
X64891301Y-54373000D01*
X64708699Y-54373000D01*
X64529604Y-54408624D01*
X64360901Y-54478504D01*
X64209072Y-54579952D01*
X64079952Y-54709072D01*
X63978504Y-54860901D01*
X63908624Y-55029604D01*
X63873000Y-55208699D01*
X59282085Y-55208699D01*
X56036695Y-50008699D01*
X59673000Y-50008699D01*
X59673000Y-50191301D01*
X59708624Y-50370396D01*
X59778504Y-50539099D01*
X59879952Y-50690928D01*
X60009072Y-50820048D01*
X60160901Y-50921496D01*
X60329604Y-50991376D01*
X60508699Y-51027000D01*
X60691301Y-51027000D01*
X60870396Y-50991376D01*
X61039099Y-50921496D01*
X61190928Y-50820048D01*
X61320048Y-50690928D01*
X61421496Y-50539099D01*
X61491376Y-50370396D01*
X61527000Y-50191301D01*
X61527000Y-50008699D01*
X61491376Y-49829604D01*
X61421496Y-49660901D01*
X61320048Y-49509072D01*
X61190928Y-49379952D01*
X61039099Y-49278504D01*
X60870396Y-49208624D01*
X60691301Y-49173000D01*
X60508699Y-49173000D01*
X60329604Y-49208624D01*
X60160901Y-49278504D01*
X60009072Y-49379952D01*
X59879952Y-49509072D01*
X59778504Y-49660901D01*
X59708624Y-49829604D01*
X59673000Y-50008699D01*
X56036695Y-50008699D01*
X51809710Y-43235916D01*
X50468508Y-40777047D01*
X50483110Y-40781476D01*
X50713000Y-40660155D01*
X50713000Y-39467000D01*
X50693000Y-39467000D01*
X50693000Y-39213000D01*
X50713000Y-39213000D01*
X50713000Y-36927000D01*
X50693000Y-36927000D01*
X50693000Y-36673000D01*
X50713000Y-36673000D01*
X50713000Y-36653000D01*
X50967000Y-36653000D01*
X50967000Y-36673000D01*
G04 #@! TA.AperFunction,Conductor*
D28*
G36*
X50967000Y-36673000D02*
G01*
X50987000Y-36673000D01*
X50987000Y-36927000D01*
X50967000Y-36927000D01*
X50967000Y-39213000D01*
X50987000Y-39213000D01*
X50987000Y-39467000D01*
X50967000Y-39467000D01*
X50967000Y-40660155D01*
X51196890Y-40781476D01*
X51344099Y-40736825D01*
X51606920Y-40611641D01*
X51840269Y-40437588D01*
X52035178Y-40221355D01*
X52052645Y-40192032D01*
X52073269Y-40508265D01*
X52077317Y-40532830D01*
X52086079Y-40556134D01*
X52099219Y-40577280D01*
X52116232Y-40595456D01*
X52131007Y-40606625D01*
X55531007Y-42806625D01*
X55551796Y-42817496D01*
X71073112Y-49185215D01*
X71089353Y-61544666D01*
X71078504Y-61560903D01*
X71008624Y-61729606D01*
X70973000Y-61908701D01*
X70973000Y-62091303D01*
X71008624Y-62270398D01*
X71078504Y-62439101D01*
X71090552Y-62457132D01*
X71111008Y-78023850D01*
X71108624Y-78029604D01*
X71073000Y-78208699D01*
X71073000Y-78391301D01*
X71108624Y-78570396D01*
X71111736Y-78577908D01*
X71173000Y-125200167D01*
X71175473Y-125224940D01*
X71182731Y-125248755D01*
X71194496Y-125270696D01*
X71210316Y-125289920D01*
X71229581Y-125305689D01*
X71251553Y-125317396D01*
X71283215Y-125325886D01*
X77169959Y-126110785D01*
X77076470Y-129569872D01*
X69293439Y-129375297D01*
X66126479Y-119478547D01*
X65635168Y-100808699D01*
X68673000Y-100808699D01*
X68673000Y-100991301D01*
X68708624Y-101170396D01*
X68778504Y-101339099D01*
X68879952Y-101490928D01*
X69009072Y-101620048D01*
X69160901Y-101721496D01*
X69329604Y-101791376D01*
X69508699Y-101827000D01*
X69691301Y-101827000D01*
X69870396Y-101791376D01*
X70039099Y-101721496D01*
X70190928Y-101620048D01*
X70320048Y-101490928D01*
X70421496Y-101339099D01*
X70491376Y-101170396D01*
X70527000Y-100991301D01*
X70527000Y-100808699D01*
X70491376Y-100629604D01*
X70421496Y-100460901D01*
X70320048Y-100309072D01*
X70190928Y-100179952D01*
X70039099Y-100078504D01*
X69870396Y-100008624D01*
X69691301Y-99973000D01*
X69508699Y-99973000D01*
X69329604Y-100008624D01*
X69160901Y-100078504D01*
X69009072Y-100179952D01*
X68879952Y-100309072D01*
X68778504Y-100460901D01*
X68708624Y-100629604D01*
X68673000Y-100808699D01*
X65635168Y-100808699D01*
X65577914Y-98633062D01*
X65620048Y-98590928D01*
X65721496Y-98439099D01*
X65791376Y-98270396D01*
X65827000Y-98091301D01*
X65827000Y-97908699D01*
X65791376Y-97729604D01*
X65721496Y-97560901D01*
X65620048Y-97409072D01*
X65543694Y-97332718D01*
X64989538Y-76274782D01*
X65029604Y-76291378D01*
X65208699Y-76327002D01*
X65391301Y-76327002D01*
X65570396Y-76291378D01*
X65739099Y-76221498D01*
X65890928Y-76120050D01*
X66020048Y-75990930D01*
X66121496Y-75839101D01*
X66191376Y-75670398D01*
X66227000Y-75491303D01*
X66227000Y-75308701D01*
X66191376Y-75129606D01*
X66121496Y-74960903D01*
X66020048Y-74809074D01*
X65890928Y-74679954D01*
X65739099Y-74578506D01*
X65570396Y-74508626D01*
X65391301Y-74473002D01*
X65208699Y-74473002D01*
X65029604Y-74508626D01*
X64943994Y-74544087D01*
X64626956Y-62496659D01*
X64623865Y-62471955D01*
X64616014Y-62448329D01*
X64599930Y-62421623D01*
X60604135Y-57326984D01*
X59282085Y-55208699D01*
X63873000Y-55208699D01*
X63873000Y-55391301D01*
X63908624Y-55570396D01*
X63978504Y-55739099D01*
X64079952Y-55890928D01*
X64209072Y-56020048D01*
X64360901Y-56121496D01*
X64529604Y-56191376D01*
X64708699Y-56227000D01*
X64891301Y-56227000D01*
X65070396Y-56191376D01*
X65239099Y-56121496D01*
X65390928Y-56020048D01*
X65520048Y-55890928D01*
X65621496Y-55739099D01*
X65691376Y-55570396D01*
X65727000Y-55391301D01*
X65727000Y-55208699D01*
X65691376Y-55029604D01*
X65621496Y-54860901D01*
X65520048Y-54709072D01*
X65390928Y-54579952D01*
X65239099Y-54478504D01*
X65070396Y-54408624D01*
X64891301Y-54373000D01*
X64708699Y-54373000D01*
X64529604Y-54408624D01*
X64360901Y-54478504D01*
X64209072Y-54579952D01*
X64079952Y-54709072D01*
X63978504Y-54860901D01*
X63908624Y-55029604D01*
X63873000Y-55208699D01*
X59282085Y-55208699D01*
X56036695Y-50008699D01*
X59673000Y-50008699D01*
X59673000Y-50191301D01*
X59708624Y-50370396D01*
X59778504Y-50539099D01*
X59879952Y-50690928D01*
X60009072Y-50820048D01*
X60160901Y-50921496D01*
X60329604Y-50991376D01*
X60508699Y-51027000D01*
X60691301Y-51027000D01*
X60870396Y-50991376D01*
X61039099Y-50921496D01*
X61190928Y-50820048D01*
X61320048Y-50690928D01*
X61421496Y-50539099D01*
X61491376Y-50370396D01*
X61527000Y-50191301D01*
X61527000Y-50008699D01*
X61491376Y-49829604D01*
X61421496Y-49660901D01*
X61320048Y-49509072D01*
X61190928Y-49379952D01*
X61039099Y-49278504D01*
X60870396Y-49208624D01*
X60691301Y-49173000D01*
X60508699Y-49173000D01*
X60329604Y-49208624D01*
X60160901Y-49278504D01*
X60009072Y-49379952D01*
X59879952Y-49509072D01*
X59778504Y-49660901D01*
X59708624Y-49829604D01*
X59673000Y-50008699D01*
X56036695Y-50008699D01*
X51809710Y-43235916D01*
X50468508Y-40777047D01*
X50483110Y-40781476D01*
X50713000Y-40660155D01*
X50713000Y-39467000D01*
X50693000Y-39467000D01*
X50693000Y-39213000D01*
X50713000Y-39213000D01*
X50713000Y-36927000D01*
X50693000Y-36927000D01*
X50693000Y-36673000D01*
X50713000Y-36673000D01*
X50713000Y-36653000D01*
X50967000Y-36653000D01*
X50967000Y-36673000D01*
G37*
G04 #@! TD.AperFunction*
M02*
