M48
; DRILL file {KiCad (5.1.12-1-10_14)} date Wednesday, August 03, 2022 at 10:21:59 PM
; FORMAT={-:-/ absolute / inch / decimal}
; #@! TF.CreationDate,2022-08-03T22:21:59-07:00
; #@! TF.GenerationSoftware,Kicad,Pcbnew,(5.1.12-1-10_14)
; #@! TF.FileFunction,Plated,1,4,PTH
FMAT,2
INCH
T1C0.0157
T2C0.0197
T3C0.0315
T4C0.0394
T5C0.0512
T6C0.1260
%
G90
G05
T1
X1.689Y-4.2244
X1.7087Y-5.126
X1.7323Y-5.0709
X1.7402Y-4.878
X1.7402Y-4.9291
X1.7441Y-2.8031
X1.7441Y-2.9055
X1.748Y-4.2205
X1.748Y-4.4646
X1.752Y-3.5354
X1.752Y-5.2244
X1.752Y-5.2992
X1.7638Y-3.7992
X1.8307Y-2.311
X1.8819Y-4.7756
X1.8848Y-3.1112
X1.8858Y-3.3031
X1.9016Y-5.248
X1.9134Y-4.8504
X1.9134Y-5.1929
X1.9488Y-3.5591
X1.9528Y-3.8819
X2.0039Y-3.8425
X2.0236Y-3.4764
X2.0394Y-4.1142
X2.0394Y-4.626
X2.0472Y-4.9961
X2.0906Y-3.0787
X2.1024Y-4.1142
X2.1024Y-4.626
X2.1063Y-4.9961
X2.1102Y-4.2244
X2.1181Y-3.7638
X2.122Y-2.815
X2.1457Y-4.878
X2.1496Y-3.1929
X2.1496Y-3.4843
X2.1496Y-4.9331
X2.1575Y-4.315
X2.185Y-2.6929
X2.185Y-2.7559
X2.185Y-4.2205
X2.2087Y-3.4843
X2.2165Y-5.248
X2.2165Y-3.3386
X2.2874Y-3.8701
X2.315Y-2.7913
X2.3268Y-3.5906
X2.3858Y-1.9724
X2.5512Y-2.1772
X2.5551Y-3.8583
X2.5709Y-2.9685
X2.7402Y-3.9724
X2.8307Y-2.4409
X2.8346Y-3.0827
X2.8386Y-1.7874
X2.873Y-4.312
X2.9055Y-3.0276
X2.915Y-4.6
X2.9173Y-1.5
X2.9173Y-2.2441
X2.9173Y-3.811
X2.9213Y-5.2992
X2.9409Y-4.2205
X3.1299Y-5.1417
X3.2283Y-4.9331
X3.2835Y-3.1929
X3.3228Y-2.6063
X3.3843Y-3.3362
X3.4291Y-2.6496
X3.5787Y-4.185
X3.6811Y-4.374
X4.2138Y-2.4213
X4.8543Y-2.6496
X4.8819Y-2.6102
X4.9409Y-2.1417
X5.1339Y-2.1496
X5.1398Y-2.9035
X5.1476Y-2.4016
X5.1772Y-2.0079
X5.1772Y-4.2362
X5.2205Y-2.4528
X5.2323Y-2.937
X5.2677Y-2.1102
X5.2689Y-3.9461
X5.2835Y-5.374
X5.2874Y-2.937
X5.2913Y-5.5039
X5.3071Y-3.0906
X5.3071Y-3.4528
X5.315Y-2.1063
X5.3504Y-2.937
X5.3533Y-2.6663
X5.3543Y-2.3346
X5.3583Y-1.689
X5.3622Y-2.4764
X5.3701Y-4.5984
X5.4134Y-2.937
X5.4173Y-1.689
X5.4173Y-2.4843
X5.4213Y-3.9449
X5.4213Y-4.3071
X5.4331Y-2.2087
X5.4409Y-1.9409
X5.4567Y-3.2441
X5.4685Y-1.6811
X5.4724Y-4.5472
X5.4803Y-3.4488
X5.5Y-3.689
X5.5276Y-3.8543
X5.5315Y-3.9173
X5.5315Y-4.5472
X5.5591Y-2.8346
X5.5591Y-3.0709
X5.5669Y-3.689
X5.5709Y-3.248
X5.5748Y-2.9331
X5.5748Y-3.9409
X5.5748Y-4.315
X5.5807Y-3.4528
X5.6102Y-2.252
X5.626Y-4.0945
X5.6654Y-4.6102
X5.6654Y-4.6654
X5.7008Y-2.6417
X5.7008Y-2.7087
X5.7008Y-2.7677
X5.7047Y-2.5945
X5.7205Y-4.2835
X5.7717Y-3.9134
X5.7756Y-4.8858
X5.7756Y-5.1102
X5.8268Y-3.0354
X5.8386Y-5.3346
X5.8386Y-5.4724
X5.874Y-3.3937
X5.9724Y-4.8898
X6.0236Y-4.6929
X6.0827Y-5.0512
X6.0827Y-5.1142
X6.1654Y-3.8661
X6.1654Y-3.9291
X6.2992Y-4.4488
X6.3031Y-4.5039
X6.4173Y-3.8465
X6.4449Y-4.5591
X6.5039Y-4.4764
X6.6142Y-3.8976
X6.6299Y-4.2598
X6.6417Y-3.7913
X6.689Y-4.189
X6.6969Y-3.7953
T2
X1.4606Y-2.9843
X1.5Y-2.8976
X1.5079Y-2.8189
X1.7047Y-3.126
X1.7283Y-3.2323
X1.748Y-3.1772
X1.7559Y-2.9961
X2.1181Y-2.0512
X2.1181Y-2.1102
X2.126Y-2.1654
X2.4134Y-2.9055
X2.4134Y-2.9567
X2.4134Y-2.8583
X2.4173Y-4.4094
X2.4173Y-4.4803
X2.4173Y-4.5315
X2.4252Y-3.6181
X2.4252Y-3.6732
X2.4291Y-3.5551
X3.0157Y-4.9843
X3.0157Y-5.0354
X3.0157Y-5.0827
X4.8622Y-5.126
X4.8701Y-2.815
X4.878Y-2.752
X5.1535Y-5.1969
X5.1535Y-5.2756
X5.2165Y-2.752
X5.2165Y-2.815
X5.6457Y-5.3268
X5.6457Y-5.4252
T3
X5.9252Y-3.8976
X5.9252Y-4.2976
T4
X1.315Y-3.122
X1.315Y-3.222
X1.315Y-3.322
X1.315Y-3.422
X1.315Y-3.522
X1.315Y-3.622
X1.315Y-3.722
X1.315Y-3.822
X1.315Y-3.922
X1.315Y-4.022
X1.315Y-4.122
X1.315Y-4.222
X1.315Y-4.322
X1.315Y-4.422
X1.315Y-4.522
X1.315Y-4.622
X1.315Y-4.722
X1.315Y-4.822
X1.315Y-4.922
X1.315Y-5.022
X1.415Y-3.122
X1.415Y-3.222
X1.415Y-3.322
X1.415Y-3.422
X1.415Y-3.522
X1.415Y-3.622
X1.415Y-3.722
X1.415Y-3.822
X1.415Y-3.922
X1.415Y-4.022
X1.415Y-4.122
X1.415Y-4.222
X1.415Y-4.322
X1.415Y-4.422
X1.415Y-4.522
X1.415Y-4.622
X1.415Y-4.722
X1.415Y-4.822
X1.415Y-4.922
X1.415Y-5.022
X1.7016Y-1.4488
X1.7016Y-1.5488
X1.8016Y-1.4488
X1.8016Y-1.5488
X1.9016Y-1.4488
X1.9016Y-1.5488
X2.0016Y-1.4488
X2.0016Y-1.5488
X2.1016Y-1.4488
X2.1016Y-1.5488
X2.2016Y-1.4488
X2.2016Y-1.5488
X2.3016Y-1.4488
X2.3016Y-1.5488
X2.4016Y-1.4488
X2.4016Y-1.5488
X3.0315Y-1.4488
X3.0315Y-1.5488
X3.0315Y-2.2402
X3.0315Y-2.3402
X3.0315Y-3.0276
X3.0315Y-3.1276
X3.0315Y-3.811
X3.0315Y-3.911
X3.0315Y-4.6039
X3.0315Y-4.7039
X3.0315Y-5.3937
X3.0315Y-5.4937
X3.1315Y-1.4488
X3.1315Y-1.5488
X3.1315Y-2.2402
X3.1315Y-2.3402
X3.1315Y-3.0276
X3.1315Y-3.1276
X3.1315Y-3.811
X3.1315Y-3.911
X3.1315Y-4.6039
X3.1315Y-4.7039
X3.1315Y-5.3937
X3.1315Y-5.4937
X3.2315Y-1.4488
X3.2315Y-1.5488
X3.2315Y-2.2402
X3.2315Y-2.3402
X3.2315Y-3.0276
X3.2315Y-3.1276
X3.2315Y-3.811
X3.2315Y-3.911
X3.2315Y-4.6039
X3.2315Y-4.7039
X3.2315Y-5.3937
X3.2315Y-5.4937
X3.3315Y-1.4488
X3.3315Y-1.5488
X3.3315Y-2.2402
X3.3315Y-2.3402
X3.3315Y-3.0276
X3.3315Y-3.1276
X3.3315Y-3.811
X3.3315Y-3.911
X3.3315Y-4.6039
X3.3315Y-4.7039
X3.3315Y-5.3937
X3.3315Y-5.4937
X3.4315Y-1.4488
X3.4315Y-1.5488
X3.4315Y-2.2402
X3.4315Y-2.3402
X3.4315Y-3.0276
X3.4315Y-3.1276
X3.4315Y-3.811
X3.4315Y-3.911
X3.4315Y-4.6039
X3.4315Y-4.7039
X3.4315Y-5.3937
X3.4315Y-5.4937
X3.5315Y-1.4488
X3.5315Y-1.5488
X3.5315Y-2.2402
X3.5315Y-2.3402
X3.5315Y-3.0276
X3.5315Y-3.1276
X3.5315Y-3.811
X3.5315Y-3.911
X3.5315Y-4.6039
X3.5315Y-4.7039
X3.5315Y-5.3937
X3.5315Y-5.4937
X3.6315Y-1.4488
X3.6315Y-1.5488
X3.6315Y-2.2402
X3.6315Y-2.3402
X3.6315Y-3.0276
X3.6315Y-3.1276
X3.6315Y-3.811
X3.6315Y-3.911
X3.6315Y-4.6039
X3.6315Y-4.7039
X3.6315Y-5.3937
X3.6315Y-5.4937
X3.7315Y-1.4488
X3.7315Y-1.5488
X3.7315Y-2.2402
X3.7315Y-2.3402
X3.7315Y-3.0276
X3.7315Y-3.1276
X3.7315Y-3.811
X3.7315Y-3.911
X3.7315Y-4.6039
X3.7315Y-4.7039
X3.7315Y-5.3937
X3.7315Y-5.4937
X3.8315Y-1.4488
X3.8315Y-1.5488
X3.8315Y-2.2402
X3.8315Y-2.3402
X3.8315Y-3.0276
X3.8315Y-3.1276
X3.8315Y-3.811
X3.8315Y-3.911
X3.8315Y-4.6039
X3.8315Y-4.7039
X3.8315Y-5.3937
X3.8315Y-5.4937
X3.9315Y-1.4488
X3.9315Y-1.5488
X3.9315Y-2.2402
X3.9315Y-2.3402
X3.9315Y-3.0276
X3.9315Y-3.1276
X3.9315Y-3.811
X3.9315Y-3.911
X3.9315Y-4.6039
X3.9315Y-4.7039
X3.9315Y-5.3937
X3.9315Y-5.4937
X4.0315Y-1.4488
X4.0315Y-1.5488
X4.0315Y-2.2402
X4.0315Y-2.3402
X4.0315Y-3.0276
X4.0315Y-3.1276
X4.0315Y-3.811
X4.0315Y-3.911
X4.0315Y-4.6039
X4.0315Y-4.7039
X4.0315Y-5.3937
X4.0315Y-5.4937
X4.1315Y-1.4488
X4.1315Y-1.5488
X4.1315Y-2.2402
X4.1315Y-2.3402
X4.1315Y-3.0276
X4.1315Y-3.1276
X4.1315Y-3.811
X4.1315Y-3.911
X4.1315Y-4.6039
X4.1315Y-4.7039
X4.1315Y-5.3937
X4.1315Y-5.4937
X4.2315Y-1.4488
X4.2315Y-1.5488
X4.2315Y-2.2402
X4.2315Y-2.3402
X4.2315Y-3.0276
X4.2315Y-3.1276
X4.2315Y-3.811
X4.2315Y-3.911
X4.2315Y-4.6039
X4.2315Y-4.7039
X4.2315Y-5.3937
X4.2315Y-5.4937
X4.3315Y-1.4488
X4.3315Y-1.5488
X4.3315Y-2.2402
X4.3315Y-2.3402
X4.3315Y-3.0276
X4.3315Y-3.1276
X4.3315Y-3.811
X4.3315Y-3.911
X4.3315Y-4.6039
X4.3315Y-4.7039
X4.3315Y-5.3937
X4.3315Y-5.4937
X4.4315Y-1.4488
X4.4315Y-1.5488
X4.4315Y-2.2402
X4.4315Y-2.3402
X4.4315Y-3.0276
X4.4315Y-3.1276
X4.4315Y-3.811
X4.4315Y-3.911
X4.4315Y-4.6039
X4.4315Y-4.7039
X4.4315Y-5.3937
X4.4315Y-5.4937
X4.5315Y-1.4488
X4.5315Y-1.5488
X4.5315Y-2.2402
X4.5315Y-2.3402
X4.5315Y-3.0276
X4.5315Y-3.1276
X4.5315Y-3.811
X4.5315Y-3.911
X4.5315Y-4.6039
X4.5315Y-4.7039
X4.5315Y-5.3937
X4.5315Y-5.4937
X4.6315Y-1.4488
X4.6315Y-1.5488
X4.6315Y-2.2402
X4.6315Y-2.3402
X4.6315Y-3.0276
X4.6315Y-3.1276
X4.6315Y-3.811
X4.6315Y-3.911
X4.6315Y-4.6039
X4.6315Y-4.7039
X4.6315Y-5.3937
X4.6315Y-5.4937
X4.7315Y-1.4488
X4.7315Y-1.5488
X4.7315Y-2.2402
X4.7315Y-2.3402
X4.7315Y-3.0276
X4.7315Y-3.1276
X4.7315Y-3.811
X4.7315Y-3.911
X4.7315Y-4.6039
X4.7315Y-4.7039
X4.7315Y-5.3937
X4.7315Y-5.4937
X4.8315Y-1.4488
X4.8315Y-1.5488
X4.8315Y-2.2402
X4.8315Y-2.3402
X4.8315Y-3.0276
X4.8315Y-3.1276
X4.8315Y-3.811
X4.8315Y-3.911
X4.8315Y-4.6039
X4.8315Y-4.7039
X4.8315Y-5.3937
X4.8315Y-5.4937
X4.9315Y-1.4488
X4.9315Y-1.5488
X4.9315Y-2.2402
X4.9315Y-2.3402
X4.9315Y-3.0276
X4.9315Y-3.1276
X4.9315Y-3.811
X4.9315Y-3.911
X4.9315Y-4.6039
X4.9315Y-4.7039
X4.9315Y-5.3937
X4.9315Y-5.4937
T5
X6.5866Y-4.7244
X6.5866Y-4.9213
X6.5866Y-5.1181
X6.7835Y-4.7244
X6.7835Y-4.9213
X6.7835Y-5.1181
T6
X1.3504Y-1.4882
X1.3504Y-5.4685
X6.7953Y-5.4685
X6.7992Y-1.4882
T4
G00X6.0453Y-1.8189
M15
G01X5.9862Y-1.8189
M16
G05
G00X6.0453Y-2.0157
M15
G01X5.9862Y-2.0157
M16
G05
G00X6.0453Y-2.2047
M15
G01X5.9862Y-2.2047
M16
G05
G00X6.0453Y-2.4016
M15
G01X5.9862Y-2.4016
M16
G05
G00X6.0453Y-2.7441
M15
G01X5.9862Y-2.7441
M16
G05
G00X6.0453Y-2.9409
M15
G01X5.9862Y-2.9409
M16
G05
G00X6.0453Y-3.1299
M15
G01X5.9862Y-3.1299
M16
G05
G00X6.0453Y-3.3268
M15
G01X5.9862Y-3.3268
M16
G05
G00X6.3406Y-1.8189
M15
G01X6.2815Y-1.8189
M16
G05
G00X6.3406Y-2.0157
M15
G01X6.2815Y-2.0157
M16
G05
G00X6.3406Y-2.2047
M15
G01X6.2815Y-2.2047
M16
G05
G00X6.3406Y-2.4016
M15
G01X6.2815Y-2.4016
M16
G05
G00X6.3406Y-2.7441
M15
G01X6.2815Y-2.7441
M16
G05
G00X6.3406Y-2.9409
M15
G01X6.2815Y-2.9409
M16
G05
G00X6.3406Y-3.1299
M15
G01X6.2815Y-3.1299
M16
G05
G00X6.3406Y-3.3268
M15
G01X6.2815Y-3.3268
M16
G05
G00X6.6594Y-2.1102
M15
G01X6.6004Y-2.1102
M16
G05
G00X6.6594Y-3.0354
M15
G01X6.6004Y-3.0354
M16
G05
T0
M30
