G04 #@! TF.GenerationSoftware,KiCad,Pcbnew,(6.0.7-1)-1*
G04 #@! TF.CreationDate,2022-08-27T22:45:58-07:00*
G04 #@! TF.ProjectId,vca_backplane,7663615f-6261-4636-9b70-6c616e652e6b,rev?*
G04 #@! TF.SameCoordinates,Original*
G04 #@! TF.FileFunction,Legend,Bot*
G04 #@! TF.FilePolarity,Positive*
%FSLAX46Y46*%
G04 Gerber Fmt 4.6, Leading zero omitted, Abs format (unit mm)*
G04 Created by KiCad (PCBNEW (6.0.7-1)-1) date 2022-08-27 22:45:58*
%MOMM*%
%LPD*%
G01*
G04 APERTURE LIST*
%ADD10C,0.090000*%
G04 #@! TA.AperFunction,Profile*
%ADD11C,0.150000*%
G04 #@! TD*
G04 #@! TA.AperFunction,Profile*
%ADD12C,0.050000*%
G04 #@! TD*
G04 APERTURE END LIST*
D10*
X130271428Y-40528571D02*
X130671428Y-40528571D01*
X130042857Y-40385714D02*
X130471428Y-40242857D01*
X130471428Y-40614285D01*
X130071428Y-40957142D02*
X130071428Y-41014285D01*
X130100000Y-41071428D01*
X130128571Y-41100000D01*
X130185714Y-41128571D01*
X130300000Y-41157142D01*
X130442857Y-41157142D01*
X130557142Y-41128571D01*
X130614285Y-41100000D01*
X130642857Y-41071428D01*
X130671428Y-41014285D01*
X130671428Y-40957142D01*
X130642857Y-40900000D01*
X130614285Y-40871428D01*
X130557142Y-40842857D01*
X130442857Y-40814285D01*
X130300000Y-40814285D01*
X130185714Y-40842857D01*
X130128571Y-40871428D01*
X130100000Y-40900000D01*
X130071428Y-40957142D01*
X72771428Y-34871428D02*
X72771428Y-34528571D01*
X72771428Y-34700000D02*
X72171428Y-34700000D01*
X72257142Y-34642857D01*
X72314285Y-34585714D01*
X72342857Y-34528571D01*
D11*
X172600001Y-143299999D02*
X34300000Y-143304543D01*
D12*
X39576000Y-37700000D02*
G75*
G03*
X39576000Y-37700000I-576000J0D01*
G01*
X39376000Y-139200000D02*
G75*
G03*
X39376000Y-139200000I-576000J0D01*
G01*
D11*
X34300000Y-33400000D02*
G75*
G03*
X29898889Y-37900000I100000J-4500000D01*
G01*
X34300000Y-33400000D02*
X172700000Y-33400000D01*
D12*
X168476000Y-139200000D02*
G75*
G03*
X168476000Y-139200000I-576000J0D01*
G01*
D11*
X29900000Y-139100000D02*
X29898889Y-37900000D01*
X177100000Y-37800000D02*
X177101135Y-138899999D01*
X172600001Y-143299999D02*
G75*
G03*
X177101135Y-138899999I99999J4399999D01*
G01*
X177100000Y-37800000D02*
G75*
G03*
X172700000Y-33400000I-4400000J0D01*
G01*
X29900000Y-139100000D02*
G75*
G03*
X34300000Y-143304543I4400000J200000D01*
G01*
D10*
X38671428Y-104514285D02*
X38071428Y-104514285D01*
X38071428Y-104742857D01*
X38100000Y-104800000D01*
X38128571Y-104828571D01*
X38185714Y-104857142D01*
X38271428Y-104857142D01*
X38328571Y-104828571D01*
X38357142Y-104800000D01*
X38385714Y-104742857D01*
X38385714Y-104514285D01*
X38671428Y-105114285D02*
X38071428Y-105114285D01*
X38100000Y-106171428D02*
X38071428Y-106114285D01*
X38071428Y-106028571D01*
X38100000Y-105942857D01*
X38157142Y-105885714D01*
X38214285Y-105857142D01*
X38328571Y-105828571D01*
X38414285Y-105828571D01*
X38528571Y-105857142D01*
X38585714Y-105885714D01*
X38642857Y-105942857D01*
X38671428Y-106028571D01*
X38671428Y-106085714D01*
X38642857Y-106171428D01*
X38614285Y-106200000D01*
X38414285Y-106200000D01*
X38414285Y-106085714D01*
X38671428Y-106457142D02*
X38071428Y-106457142D01*
X38071428Y-106685714D01*
X38100000Y-106742857D01*
X38128571Y-106771428D01*
X38185714Y-106800000D01*
X38271428Y-106800000D01*
X38328571Y-106771428D01*
X38357142Y-106742857D01*
X38385714Y-106685714D01*
X38385714Y-106457142D01*
X38671428Y-107057142D02*
X38071428Y-107057142D01*
X38071428Y-107457142D02*
X38071428Y-107571428D01*
X38100000Y-107628571D01*
X38157142Y-107685714D01*
X38271428Y-107714285D01*
X38471428Y-107714285D01*
X38585714Y-107685714D01*
X38642857Y-107628571D01*
X38671428Y-107571428D01*
X38671428Y-107457142D01*
X38642857Y-107400000D01*
X38585714Y-107342857D01*
X38471428Y-107314285D01*
X38271428Y-107314285D01*
X38157142Y-107342857D01*
X38100000Y-107400000D01*
X38071428Y-107457142D01*
X67742857Y-36585714D02*
X67771428Y-36671428D01*
X67771428Y-36814285D01*
X67742857Y-36871428D01*
X67714285Y-36900000D01*
X67657142Y-36928571D01*
X67600000Y-36928571D01*
X67542857Y-36900000D01*
X67514285Y-36871428D01*
X67485714Y-36814285D01*
X67457142Y-36700000D01*
X67428571Y-36642857D01*
X67400000Y-36614285D01*
X67342857Y-36585714D01*
X67285714Y-36585714D01*
X67228571Y-36614285D01*
X67200000Y-36642857D01*
X67171428Y-36700000D01*
X67171428Y-36842857D01*
X67200000Y-36928571D01*
X67171428Y-37100000D02*
X67171428Y-37442857D01*
X67771428Y-37271428D02*
X67171428Y-37271428D01*
X67771428Y-37985714D02*
X67485714Y-37785714D01*
X67771428Y-37642857D02*
X67171428Y-37642857D01*
X67171428Y-37871428D01*
X67200000Y-37928571D01*
X67228571Y-37957142D01*
X67285714Y-37985714D01*
X67371428Y-37985714D01*
X67428571Y-37957142D01*
X67457142Y-37928571D01*
X67485714Y-37871428D01*
X67485714Y-37642857D01*
X67771428Y-38242857D02*
X67171428Y-38242857D01*
X67771428Y-38528571D02*
X67171428Y-38528571D01*
X67171428Y-38757142D01*
X67200000Y-38814285D01*
X67228571Y-38842857D01*
X67285714Y-38871428D01*
X67371428Y-38871428D01*
X67428571Y-38842857D01*
X67457142Y-38814285D01*
X67485714Y-38757142D01*
X67485714Y-38528571D01*
X67457142Y-39128571D02*
X67457142Y-39328571D01*
X67771428Y-39414285D02*
X67771428Y-39128571D01*
X67171428Y-39128571D01*
X67171428Y-39414285D01*
M02*
