G04 #@! TF.GenerationSoftware,KiCad,Pcbnew,(5.1.12-1-10_14)*
G04 #@! TF.CreationDate,2022-08-03T22:22:08-07:00*
G04 #@! TF.ProjectId,vca_board,7663615f-626f-4617-9264-2e6b69636164,rev?*
G04 #@! TF.SameCoordinates,Original*
G04 #@! TF.FileFunction,Soldermask,Bot*
G04 #@! TF.FilePolarity,Negative*
%FSLAX46Y46*%
G04 Gerber Fmt 4.6, Leading zero omitted, Abs format (unit mm)*
G04 Created by KiCad (PCBNEW (5.1.12-1-10_14)) date 2022-08-03 22:22:08*
%MOMM*%
%LPD*%
G01*
G04 APERTURE LIST*
G04 #@! TA.AperFunction,Profile*
%ADD10C,0.050000*%
G04 #@! TD*
G04 #@! TA.AperFunction,Profile*
%ADD11C,0.150000*%
G04 #@! TD*
%ADD12O,1.600000X1.600000*%
%ADD13C,1.600000*%
%ADD14O,1.700000X1.700000*%
%ADD15R,1.700000X1.700000*%
%ADD16C,2.340000*%
%ADD17O,3.000000X1.600000*%
%ADD18C,6.400000*%
G04 APERTURE END LIST*
D10*
X39376000Y-139200000D02*
G75*
G03*
X39376000Y-139200000I-576000J0D01*
G01*
X168476000Y-139200000D02*
G75*
G03*
X168476000Y-139200000I-576000J0D01*
G01*
X39576000Y-37700000D02*
G75*
G03*
X39576000Y-37700000I-576000J0D01*
G01*
D11*
X172600001Y-143299999D02*
X34300000Y-143304543D01*
X34300000Y-143304543D02*
G75*
G02*
X29900000Y-139100000I0J4404543D01*
G01*
X177101135Y-138899999D02*
G75*
G02*
X172600001Y-143299999I-4401135J-1D01*
G01*
X172700000Y-33400000D02*
G75*
G02*
X177100000Y-37800000I0J-4400000D01*
G01*
X29898889Y-37900000D02*
G75*
G02*
X34300000Y-33400000I4501111J0D01*
G01*
X29900000Y-139100000D02*
X29900000Y-37900000D01*
X177100000Y-37800000D02*
X177100000Y-138900000D01*
X34300000Y-33400000D02*
X172700000Y-33400000D01*
D12*
X150500000Y-109160000D03*
D13*
X150500000Y-99000000D03*
D14*
X55920000Y-36800000D03*
X58460000Y-39340000D03*
X43220000Y-39340000D03*
X50840000Y-36800000D03*
X43220000Y-36800000D03*
X45760000Y-39340000D03*
X45760000Y-36800000D03*
X48300000Y-39340000D03*
X48300000Y-36800000D03*
X50840000Y-39340000D03*
X53380000Y-39340000D03*
X53380000Y-36800000D03*
X55920000Y-39340000D03*
D15*
X61000000Y-36800000D03*
D14*
X61000000Y-39340000D03*
X58460000Y-36800000D03*
X84620000Y-137000000D03*
X79540000Y-139540000D03*
X104940000Y-137000000D03*
X104940000Y-139540000D03*
X107480000Y-137000000D03*
X125260000Y-137000000D03*
X125260000Y-139540000D03*
X122720000Y-137000000D03*
X122720000Y-139540000D03*
X84620000Y-139540000D03*
X115100000Y-137000000D03*
X115100000Y-139540000D03*
X117640000Y-137000000D03*
X117640000Y-139540000D03*
X120180000Y-137000000D03*
X120180000Y-139540000D03*
X87160000Y-137000000D03*
X102400000Y-137000000D03*
X102400000Y-139540000D03*
X92240000Y-139540000D03*
X94780000Y-137000000D03*
X94780000Y-139540000D03*
X107480000Y-139540000D03*
X110020000Y-137000000D03*
X110020000Y-139540000D03*
X112560000Y-137000000D03*
X112560000Y-139540000D03*
X97320000Y-137000000D03*
X97320000Y-139540000D03*
X99860000Y-137000000D03*
X99860000Y-139540000D03*
X89700000Y-139540000D03*
X92240000Y-137000000D03*
X77000000Y-139540000D03*
X87160000Y-139540000D03*
X89700000Y-137000000D03*
X82080000Y-137000000D03*
D15*
X77000000Y-137000000D03*
D14*
X79540000Y-137000000D03*
X82080000Y-139540000D03*
X84620000Y-116940000D03*
X79540000Y-119480000D03*
X104940000Y-116940000D03*
X104940000Y-119480000D03*
X107480000Y-116940000D03*
X125260000Y-116940000D03*
X125260000Y-119480000D03*
X122720000Y-116940000D03*
X122720000Y-119480000D03*
X84620000Y-119480000D03*
X115100000Y-116940000D03*
X115100000Y-119480000D03*
X117640000Y-116940000D03*
X117640000Y-119480000D03*
X120180000Y-116940000D03*
X120180000Y-119480000D03*
X87160000Y-116940000D03*
X102400000Y-116940000D03*
X102400000Y-119480000D03*
X92240000Y-119480000D03*
X94780000Y-116940000D03*
X94780000Y-119480000D03*
X107480000Y-119480000D03*
X110020000Y-116940000D03*
X110020000Y-119480000D03*
X112560000Y-116940000D03*
X112560000Y-119480000D03*
X97320000Y-116940000D03*
X97320000Y-119480000D03*
X99860000Y-116940000D03*
X99860000Y-119480000D03*
X89700000Y-119480000D03*
X92240000Y-116940000D03*
X77000000Y-119480000D03*
X87160000Y-119480000D03*
X89700000Y-116940000D03*
X82080000Y-116940000D03*
D15*
X77000000Y-116940000D03*
D14*
X79540000Y-116940000D03*
X82080000Y-119480000D03*
X84620000Y-96800000D03*
X79540000Y-99340000D03*
X104940000Y-96800000D03*
X104940000Y-99340000D03*
X107480000Y-96800000D03*
X125260000Y-96800000D03*
X125260000Y-99340000D03*
X122720000Y-96800000D03*
X122720000Y-99340000D03*
X84620000Y-99340000D03*
X115100000Y-96800000D03*
X115100000Y-99340000D03*
X117640000Y-96800000D03*
X117640000Y-99340000D03*
X120180000Y-96800000D03*
X120180000Y-99340000D03*
X87160000Y-96800000D03*
X102400000Y-96800000D03*
X102400000Y-99340000D03*
X92240000Y-99340000D03*
X94780000Y-96800000D03*
X94780000Y-99340000D03*
X107480000Y-99340000D03*
X110020000Y-96800000D03*
X110020000Y-99340000D03*
X112560000Y-96800000D03*
X112560000Y-99340000D03*
X97320000Y-96800000D03*
X97320000Y-99340000D03*
X99860000Y-96800000D03*
X99860000Y-99340000D03*
X89700000Y-99340000D03*
X92240000Y-96800000D03*
X77000000Y-99340000D03*
X87160000Y-99340000D03*
X89700000Y-96800000D03*
X82080000Y-96800000D03*
D15*
X77000000Y-96800000D03*
D14*
X79540000Y-96800000D03*
X82080000Y-99340000D03*
X84620000Y-76900000D03*
X79540000Y-79440000D03*
X104940000Y-76900000D03*
X104940000Y-79440000D03*
X107480000Y-76900000D03*
X125260000Y-76900000D03*
X125260000Y-79440000D03*
X122720000Y-76900000D03*
X122720000Y-79440000D03*
X84620000Y-79440000D03*
X115100000Y-76900000D03*
X115100000Y-79440000D03*
X117640000Y-76900000D03*
X117640000Y-79440000D03*
X120180000Y-76900000D03*
X120180000Y-79440000D03*
X87160000Y-76900000D03*
X102400000Y-76900000D03*
X102400000Y-79440000D03*
X92240000Y-79440000D03*
X94780000Y-76900000D03*
X94780000Y-79440000D03*
X107480000Y-79440000D03*
X110020000Y-76900000D03*
X110020000Y-79440000D03*
X112560000Y-76900000D03*
X112560000Y-79440000D03*
X97320000Y-76900000D03*
X97320000Y-79440000D03*
X99860000Y-76900000D03*
X99860000Y-79440000D03*
X89700000Y-79440000D03*
X92240000Y-76900000D03*
X77000000Y-79440000D03*
X87160000Y-79440000D03*
X89700000Y-76900000D03*
X82080000Y-76900000D03*
D15*
X77000000Y-76900000D03*
D14*
X79540000Y-76900000D03*
X82080000Y-79440000D03*
X84620000Y-56900000D03*
X79540000Y-59440000D03*
X104940000Y-56900000D03*
X104940000Y-59440000D03*
X107480000Y-56900000D03*
X125260000Y-56900000D03*
X125260000Y-59440000D03*
X122720000Y-56900000D03*
X122720000Y-59440000D03*
X84620000Y-59440000D03*
X115100000Y-56900000D03*
X115100000Y-59440000D03*
X117640000Y-56900000D03*
X117640000Y-59440000D03*
X120180000Y-56900000D03*
X120180000Y-59440000D03*
X87160000Y-56900000D03*
X102400000Y-56900000D03*
X102400000Y-59440000D03*
X92240000Y-59440000D03*
X94780000Y-56900000D03*
X94780000Y-59440000D03*
X107480000Y-59440000D03*
X110020000Y-56900000D03*
X110020000Y-59440000D03*
X112560000Y-56900000D03*
X112560000Y-59440000D03*
X97320000Y-56900000D03*
X97320000Y-59440000D03*
X99860000Y-56900000D03*
X99860000Y-59440000D03*
X89700000Y-59440000D03*
X92240000Y-56900000D03*
X77000000Y-59440000D03*
X87160000Y-59440000D03*
X89700000Y-56900000D03*
X82080000Y-56900000D03*
D15*
X77000000Y-56900000D03*
D14*
X79540000Y-56900000D03*
X82080000Y-59440000D03*
X84620000Y-36800000D03*
X79540000Y-39340000D03*
X104940000Y-36800000D03*
X104940000Y-39340000D03*
X107480000Y-36800000D03*
X125260000Y-36800000D03*
X125260000Y-39340000D03*
X122720000Y-36800000D03*
X122720000Y-39340000D03*
X84620000Y-39340000D03*
X115100000Y-36800000D03*
X115100000Y-39340000D03*
X117640000Y-36800000D03*
X117640000Y-39340000D03*
X120180000Y-36800000D03*
X120180000Y-39340000D03*
X87160000Y-36800000D03*
X102400000Y-36800000D03*
X102400000Y-39340000D03*
X92240000Y-39340000D03*
X94780000Y-36800000D03*
X94780000Y-39340000D03*
X107480000Y-39340000D03*
X110020000Y-36800000D03*
X110020000Y-39340000D03*
X112560000Y-36800000D03*
X112560000Y-39340000D03*
X97320000Y-36800000D03*
X97320000Y-39340000D03*
X99860000Y-36800000D03*
X99860000Y-39340000D03*
X89700000Y-39340000D03*
X92240000Y-36800000D03*
X77000000Y-39340000D03*
X87160000Y-39340000D03*
X89700000Y-36800000D03*
X82080000Y-36800000D03*
D15*
X77000000Y-36800000D03*
D14*
X79540000Y-36800000D03*
X82080000Y-39340000D03*
X35940000Y-127560000D03*
X33400000Y-127560000D03*
X35940000Y-125020000D03*
X33400000Y-125020000D03*
X35940000Y-122480000D03*
X33400000Y-122480000D03*
X35940000Y-119940000D03*
X33400000Y-119940000D03*
X35940000Y-117400000D03*
X33400000Y-117400000D03*
X35940000Y-114860000D03*
X33400000Y-114860000D03*
X35940000Y-112320000D03*
X33400000Y-112320000D03*
X35940000Y-109780000D03*
X33400000Y-109780000D03*
X35940000Y-107240000D03*
X33400000Y-107240000D03*
X35940000Y-104700000D03*
X33400000Y-104700000D03*
X35940000Y-102160000D03*
X33400000Y-102160000D03*
X35940000Y-99620000D03*
X33400000Y-99620000D03*
X35940000Y-97080000D03*
X33400000Y-97080000D03*
X35940000Y-94540000D03*
X33400000Y-94540000D03*
X35940000Y-92000000D03*
X33400000Y-92000000D03*
X35940000Y-89460000D03*
X33400000Y-89460000D03*
X35940000Y-86920000D03*
X33400000Y-86920000D03*
X35940000Y-84380000D03*
X33400000Y-84380000D03*
X35940000Y-81840000D03*
X33400000Y-81840000D03*
X35940000Y-79300000D03*
D15*
X33400000Y-79300000D03*
D16*
X172300000Y-125000000D03*
X167300000Y-125000000D03*
X167300000Y-120000000D03*
X172300000Y-130000000D03*
X167300000Y-130000000D03*
X172300000Y-120000000D03*
D17*
X152800000Y-61000000D03*
X160300000Y-61000000D03*
X160300000Y-56000000D03*
X152800000Y-46200000D03*
X160300000Y-46200000D03*
X160300000Y-51200000D03*
X152800000Y-56000000D03*
X152800000Y-51200000D03*
X168400000Y-53600000D03*
X152800000Y-84500000D03*
X160300000Y-84500000D03*
X160300000Y-79500000D03*
X152800000Y-69700000D03*
X160300000Y-69700000D03*
X160300000Y-74700000D03*
X152800000Y-79500000D03*
X152800000Y-74700000D03*
X168400000Y-77100000D03*
D18*
X34300000Y-138900000D03*
X172600000Y-138900000D03*
X172700000Y-37800000D03*
X34300000Y-37800000D03*
M02*
