M48
; DRILL file {KiCad 7.0.11} date Tuesday, June 03, 2025 at 10:31:48 PM
; FORMAT={-:-/ absolute / inch / decimal}
; #@! TF.CreationDate,2025-06-03T22:31:48-07:00
; #@! TF.GenerationSoftware,Kicad,Pcbnew,7.0.11
; #@! TF.FileFunction,Plated,1,4,PTH
FMAT,2
INCH
; #@! TA.AperFunction,Plated,PTH,ViaDrill
T1C0.0157
; #@! TA.AperFunction,Plated,PTH,ComponentDrill
T2C0.0315
; #@! TA.AperFunction,Plated,PTH,ComponentDrill
T3C0.0354
; #@! TA.AperFunction,Plated,PTH,ComponentDrill
T4C0.0394
; #@! TA.AperFunction,Plated,PTH,ComponentDrill
T5C0.1260
%
G90
G05
T1
X1.9685Y-3.5984
X2.0354Y-2.8504
X2.1024Y-3.2638
X2.1142Y-2.8661
X2.1864Y-3.0065
X2.2008Y-5.0354
X2.2126Y-3.2559
X2.2126Y-4.5669
X2.2638Y-3.7244
X2.2756Y-4.3504
X2.2756Y-5.2205
X2.2756Y-5.311
X2.2835Y-4.5039
X2.2835Y-4.9409
X2.2884Y-4.8376
X2.3031Y-3.2126
X2.3386Y-3.9921
X2.3701Y-3.5512
X2.4016Y-4.9134
X2.4055Y-4.8622
X2.4055Y-5.2126
X2.4685Y-4.1339
X2.4882Y-3.7244
X2.4961Y-4.2913
X2.5079Y-3.5866
X2.5079Y-3.6496
X2.5079Y-4.622
X2.5276Y-2.9055
X2.5315Y-4.1102
X2.5512Y-3.0157
X2.5551Y-2.7717
X2.5709Y-4.0512
X2.5709Y-4.622
X2.5709Y-5.0157
X2.6113Y-3.085
X2.6142Y-2.7717
X2.6142Y-4.0039
X2.6339Y-5.0157
X2.6457Y-3.9291
X2.6634Y-4.6437
X2.6811Y-4.3465
X2.6811Y-4.4016
X2.685Y-4.0551
X2.685Y-4.5748
X2.689Y-2.2244
X2.7008Y-3.8504
X2.7008Y-3.9134
X2.7008Y-5.0
X2.7244Y-3.6063
X2.748Y-2.7283
X2.7992Y-4.815
X2.7992Y-4.8898
X2.8425Y-2.5118
X2.8425Y-3.126
X2.8457Y-3.9614
X2.8504Y-5.2402
X2.9173Y-1.7717
X2.9646Y-3.3819
X2.9665Y-5.0335
X2.9764Y-2.8465
X2.9803Y-2.6732
X3.0315Y-4.2087
X3.0551Y-2.2087
X3.0591Y-4.4528
X3.1398Y-4.1004
X3.1413Y-1.9091
X3.2283Y-2.2087
X3.2283Y-2.8465
X3.2323Y-3.5591
X3.2323Y-4.9449
X3.2795Y-4.1732
X3.3787Y-4.1299
X3.4291Y-4.2677
X3.4331Y-2.8465
X3.4843Y-4.3189
X3.5472Y-4.2913
X3.5843Y-1.9488
X3.5906Y-4.4134
X3.7165Y-2.1102
X3.7165Y-2.7992
X3.7165Y-3.5118
X3.7165Y-4.3465
X3.7205Y-4.9055
X3.8315Y-2.2244
X3.9173Y-2.1535
X3.9173Y-2.8425
X3.9173Y-3.5551
X3.9173Y-4.3898
X3.9213Y-4.9488
X4.0394Y-2.1535
X4.0394Y-2.8425
X4.0394Y-3.5551
X4.0394Y-4.3898
X4.0433Y-4.9488
X4.2323Y-2.1535
X4.2323Y-2.8425
X4.2323Y-3.5551
X4.2323Y-4.3898
X4.2362Y-4.9488
X4.4331Y-2.1535
X4.4331Y-2.8425
X4.4331Y-3.5551
X4.4331Y-4.3898
X4.437Y-4.9488
X4.6299Y-2.1535
X4.6299Y-2.8425
X4.6299Y-3.5551
X4.6299Y-4.3898
X4.6339Y-4.9488
X4.9488Y-4.1299
X4.9567Y-2.2244
X5.0Y-3.3819
X5.0118Y-3.8425
X5.0118Y-4.1732
X5.0157Y-4.8819
X5.0197Y-5.1417
X5.0236Y-3.4764
X5.0354Y-4.252
X5.1575Y-4.2795
X5.1614Y-4.7746
X5.1732Y-2.2835
X5.1732Y-4.0157
X5.2008Y-4.6575
X5.2441Y-2.6496
X5.248Y-2.4567
X5.248Y-4.689
X5.248Y-4.8307
X5.252Y-3.8071
X5.252Y-4.0787
X5.252Y-5.063
X5.2579Y-3.6201
X5.315Y-3.9882
X5.3504Y-2.6457
X5.3504Y-2.9252
X5.3504Y-3.3386
X5.3504Y-3.8031
X5.3504Y-4.8701
X5.3504Y-5.248
X5.3622Y-1.7283
X5.3622Y-2.1929
X5.3976Y-4.0354
X5.3976Y-5.3543
X5.4252Y-1.8976
X5.4291Y-4.3386
X5.4449Y-2.7795
X5.4449Y-3.3819
X5.4488Y-2.5118
X5.4488Y-3.4449
X5.4488Y-3.6732
X5.4488Y-4.8346
X5.4528Y-2.7047
X5.4528Y-3.8346
X5.4528Y-4.7756
X5.4528Y-5.2008
X5.4567Y-3.8937
X5.4606Y-2.2835
X5.4803Y-1.7126
X5.5Y-2.6496
X5.5Y-3.2638
X5.5Y-3.3858
X5.5Y-3.8031
X5.5Y-4.874
X5.5669Y-4.5
X5.5709Y-2.4961
X5.6024Y-2.6535
X5.6024Y-4.0984
X5.6378Y-2.4528
X5.6378Y-4.1299
X5.6811Y-1.9055
X5.7283Y-4.7717
X5.7303Y-4.8327
X5.8425Y-1.9055
X5.8543Y-2.0276
X5.8622Y-2.752
X5.8819Y-3.3268
X5.9055Y-5.0591
X5.9094Y-5.248
X5.9291Y-2.2835
X5.9291Y-3.4449
X5.9528Y-1.7992
X5.9724Y-4.8583
X5.9764Y-2.8898
X6.0039Y-5.3307
X6.0079Y-2.063
X6.0079Y-5.2559
X6.0394Y-2.2362
X6.0512Y-3.4724
X6.0512Y-4.6299
X6.1024Y-3.0394
X6.1339Y-2.315
X6.2402Y-2.6811
X6.3031Y-3.0354
X6.3031Y-3.2362
X6.3094Y-3.1866
X6.3504Y-2.8504
X6.4843Y-3.5748
T2
X5.7992Y-2.8261
X5.7992Y-2.9245
X5.7992Y-3.1693
X5.7992Y-3.2677
T4
X1.7268Y-1.8866
X1.7268Y-1.9866
X1.7268Y-2.0866
X1.7268Y-2.1866
X1.7268Y-2.2866
X1.7268Y-2.3866
X1.7268Y-2.4866
X1.7268Y-2.5866
X1.7283Y-2.9961
X1.7283Y-3.0961
X1.7283Y-3.1961
X1.7293Y-3.6014
X1.7293Y-3.7014
X1.7293Y-3.8014
X1.7293Y-3.9014
X1.7293Y-4.0014
X1.7293Y-4.1014
X1.7293Y-4.2014
X1.7293Y-4.3014
X1.7293Y-4.4014
X1.7293Y-4.5014
X1.7293Y-4.6014
X1.7293Y-4.7014
X1.7293Y-4.8014
X1.7293Y-4.9014
X1.7293Y-5.0014
X1.7293Y-5.1014
X1.7293Y-5.2014
X1.7293Y-5.3014
X1.7293Y-5.4014
X1.7293Y-5.5014
X1.8268Y-1.8866
X1.8268Y-1.9866
X1.8268Y-2.0866
X1.8268Y-2.1866
X1.8268Y-2.2866
X1.8268Y-2.3866
X1.8268Y-2.4866
X1.8268Y-2.5866
X1.8293Y-3.6014
X1.8293Y-3.7014
X1.8293Y-3.8014
X1.8293Y-3.9014
X1.8293Y-4.0014
X1.8293Y-4.1014
X1.8293Y-4.2014
X1.8293Y-4.3014
X1.8293Y-4.4014
X1.8293Y-4.5014
X1.8293Y-4.6014
X1.8293Y-4.7014
X1.8293Y-4.8014
X1.8293Y-4.9014
X1.8293Y-5.0014
X1.8293Y-5.1014
X1.8293Y-5.2014
X1.8293Y-5.3014
X1.8293Y-5.4014
X1.8293Y-5.5014
X2.5669Y-1.7205
X3.0315Y-1.7189
X3.0315Y-1.8189
X3.0315Y-2.4528
X3.0315Y-2.5528
X3.0315Y-3.1827
X3.0315Y-3.2827
X3.0315Y-3.9087
X3.0315Y-4.0087
X3.0315Y-4.6441
X3.0315Y-4.7441
X3.0315Y-5.374
X3.0315Y-5.474
X3.1315Y-1.7189
X3.1315Y-1.8189
X3.1315Y-2.4528
X3.1315Y-2.5528
X3.1315Y-3.1827
X3.1315Y-3.2827
X3.1315Y-3.9087
X3.1315Y-4.0087
X3.1315Y-4.6441
X3.1315Y-4.7441
X3.1315Y-5.374
X3.1315Y-5.474
X3.2315Y-1.7189
X3.2315Y-1.8189
X3.2315Y-2.4528
X3.2315Y-2.5528
X3.2315Y-3.1827
X3.2315Y-3.2827
X3.2315Y-3.9087
X3.2315Y-4.0087
X3.2315Y-4.6441
X3.2315Y-4.7441
X3.2315Y-5.374
X3.2315Y-5.474
X3.3315Y-1.7189
X3.3315Y-1.8189
X3.3315Y-2.4528
X3.3315Y-2.5528
X3.3315Y-3.1827
X3.3315Y-3.2827
X3.3315Y-3.9087
X3.3315Y-4.0087
X3.3315Y-4.6441
X3.3315Y-4.7441
X3.3315Y-5.374
X3.3315Y-5.474
X3.4315Y-1.7189
X3.4315Y-1.8189
X3.4315Y-2.4528
X3.4315Y-2.5528
X3.4315Y-3.1827
X3.4315Y-3.2827
X3.4315Y-3.9087
X3.4315Y-4.0087
X3.4315Y-4.6441
X3.4315Y-4.7441
X3.4315Y-5.374
X3.4315Y-5.474
X3.5315Y-1.7189
X3.5315Y-1.8189
X3.5315Y-2.4528
X3.5315Y-2.5528
X3.5315Y-3.1827
X3.5315Y-3.2827
X3.5315Y-3.9087
X3.5315Y-4.0087
X3.5315Y-4.6441
X3.5315Y-4.7441
X3.5315Y-5.374
X3.5315Y-5.474
X3.6315Y-1.7189
X3.6315Y-1.8189
X3.6315Y-2.4528
X3.6315Y-2.5528
X3.6315Y-3.1827
X3.6315Y-3.2827
X3.6315Y-3.9087
X3.6315Y-4.0087
X3.6315Y-4.6441
X3.6315Y-4.7441
X3.6315Y-5.374
X3.6315Y-5.474
X3.7315Y-1.7189
X3.7315Y-1.8189
X3.7315Y-2.4528
X3.7315Y-2.5528
X3.7315Y-3.1827
X3.7315Y-3.2827
X3.7315Y-3.9087
X3.7315Y-4.0087
X3.7315Y-4.6441
X3.7315Y-4.7441
X3.7315Y-5.374
X3.7315Y-5.474
X3.8315Y-1.7189
X3.8315Y-1.8189
X3.8315Y-2.4528
X3.8315Y-2.5528
X3.8315Y-3.1827
X3.8315Y-3.2827
X3.8315Y-3.9087
X3.8315Y-4.0087
X3.8315Y-4.6441
X3.8315Y-4.7441
X3.8315Y-5.374
X3.8315Y-5.474
X3.9315Y-1.7189
X3.9315Y-1.8189
X3.9315Y-2.4528
X3.9315Y-2.5528
X3.9315Y-3.1827
X3.9315Y-3.2827
X3.9315Y-3.9087
X3.9315Y-4.0087
X3.9315Y-4.6441
X3.9315Y-4.7441
X3.9315Y-5.374
X3.9315Y-5.474
X4.0315Y-1.7189
X4.0315Y-1.8189
X4.0315Y-2.4528
X4.0315Y-2.5528
X4.0315Y-3.1827
X4.0315Y-3.2827
X4.0315Y-3.9087
X4.0315Y-4.0087
X4.0315Y-4.6441
X4.0315Y-4.7441
X4.0315Y-5.374
X4.0315Y-5.474
X4.1315Y-1.7189
X4.1315Y-1.8189
X4.1315Y-2.4528
X4.1315Y-2.5528
X4.1315Y-3.1827
X4.1315Y-3.2827
X4.1315Y-3.9087
X4.1315Y-4.0087
X4.1315Y-4.6441
X4.1315Y-4.7441
X4.1315Y-5.374
X4.1315Y-5.474
X4.2315Y-1.7189
X4.2315Y-1.8189
X4.2315Y-2.4528
X4.2315Y-2.5528
X4.2315Y-3.1827
X4.2315Y-3.2827
X4.2315Y-3.9087
X4.2315Y-4.0087
X4.2315Y-4.6441
X4.2315Y-4.7441
X4.2315Y-5.374
X4.2315Y-5.474
X4.3315Y-1.7189
X4.3315Y-1.8189
X4.3315Y-2.4528
X4.3315Y-2.5528
X4.3315Y-3.1827
X4.3315Y-3.2827
X4.3315Y-3.9087
X4.3315Y-4.0087
X4.3315Y-4.6441
X4.3315Y-4.7441
X4.3315Y-5.374
X4.3315Y-5.474
X4.4315Y-1.7189
X4.4315Y-1.8189
X4.4315Y-2.4528
X4.4315Y-2.5528
X4.4315Y-3.1827
X4.4315Y-3.2827
X4.4315Y-3.9087
X4.4315Y-4.0087
X4.4315Y-4.6441
X4.4315Y-4.7441
X4.4315Y-5.374
X4.4315Y-5.474
X4.5315Y-1.7189
X4.5315Y-1.8189
X4.5315Y-2.4528
X4.5315Y-2.5528
X4.5315Y-3.1827
X4.5315Y-3.2827
X4.5315Y-3.9087
X4.5315Y-4.0087
X4.5315Y-4.6441
X4.5315Y-4.7441
X4.5315Y-5.374
X4.5315Y-5.474
X4.6315Y-1.7189
X4.6315Y-1.8189
X4.6315Y-2.4528
X4.6315Y-2.5528
X4.6315Y-3.1827
X4.6315Y-3.2827
X4.6315Y-3.9087
X4.6315Y-4.0087
X4.6315Y-4.6441
X4.6315Y-4.7441
X4.6315Y-5.374
X4.6315Y-5.474
X4.7315Y-1.7189
X4.7315Y-1.8189
X4.7315Y-2.4528
X4.7315Y-2.5528
X4.7315Y-3.1827
X4.7315Y-3.2827
X4.7315Y-3.9087
X4.7315Y-4.0087
X4.7315Y-4.6441
X4.7315Y-4.7441
X4.7315Y-5.374
X4.7315Y-5.474
X4.8315Y-1.7189
X4.8315Y-1.8189
X4.8315Y-2.4528
X4.8315Y-2.5528
X4.8315Y-3.1827
X4.8315Y-3.2827
X4.8315Y-3.9087
X4.8315Y-4.0087
X4.8315Y-4.6441
X4.8315Y-4.7441
X4.8315Y-5.374
X4.8315Y-5.474
X4.9315Y-1.7189
X4.9315Y-1.8189
X4.9315Y-2.4528
X4.9315Y-2.5528
X4.9315Y-3.1827
X4.9315Y-3.2827
X4.9315Y-3.9087
X4.9315Y-4.0087
X4.9315Y-4.6441
X4.9315Y-4.7441
X4.9315Y-5.374
X4.9315Y-5.474
X6.4946Y-1.874
X6.4946Y-1.9724
X6.4946Y-2.0709
X6.593Y-1.874
X6.593Y-1.9724
X6.593Y-2.0709
X6.5945Y-2.7008
X6.5945Y-2.7992
X6.5945Y-2.8976
T5
X2.1969Y-1.7638
X2.1969Y-5.4685
X6.6181Y-4.7717
X6.622Y-2.374
T3
G00X6.172Y-3.6447
M15
G01X6.172Y-3.5778
M16
G05
G00X6.172Y-4.2589
M15
G01X6.172Y-4.1919
M16
G05
G00X6.172Y-5.2746
M15
G01X6.172Y-5.2077
M16
G05
G00X6.2823Y-3.4085
M15
G01X6.2154Y-3.4085
M16
G05
G00X6.2823Y-3.812
M15
G01X6.2154Y-3.812
M16
G05
G00X6.2823Y-4.0226
M15
G01X6.2154Y-4.0226
M16
G05
G00X6.2823Y-4.4262
M15
G01X6.2154Y-4.4262
M16
G05
G00X6.2823Y-5.0384
M15
G01X6.2154Y-5.0384
M16
G05
G00X6.2823Y-5.4419
M15
G01X6.2154Y-5.4419
M16
G05
G00X6.7311Y-3.6447
M15
G01X6.7311Y-3.5778
M16
G05
G00X6.7311Y-4.2589
M15
G01X6.7311Y-4.1919
M16
G05
G00X6.7311Y-5.2746
M15
G01X6.7311Y-5.2077
M16
G05
M30
