M48
; DRILL file {KiCad 7.0.11} date Friday, June 21, 2024 at 08:48:48 PM
; FORMAT={-:-/ absolute / inch / decimal}
; #@! TF.CreationDate,2024-06-21T20:48:48-07:00
; #@! TF.GenerationSoftware,Kicad,Pcbnew,7.0.11
; #@! TF.FileFunction,Plated,1,4,PTH
FMAT,2
INCH
; #@! TA.AperFunction,Plated,PTH,ViaDrill
T1C0.0157
; #@! TA.AperFunction,Plated,PTH,ViaDrill
T2C0.0197
; #@! TA.AperFunction,Plated,PTH,ComponentDrill
T3C0.0300
; #@! TA.AperFunction,Plated,PTH,ComponentDrill
T4C0.0315
; #@! TA.AperFunction,Plated,PTH,ComponentDrill
T5C0.0394
%
G90
G05
T1
X0.1154Y1.8772
X0.1843Y0.9913
X0.263Y0.6764
X0.2925Y2.1528
X0.2925Y2.0642
X0.322Y2.822
X0.322Y1.3949
X0.3811Y2.6646
X0.3811Y2.6055
X0.3811Y0.8142
X0.3909Y1.2571
X0.4205Y2.5465
X0.4598Y2.2413
X0.4894Y1.9067
X0.5386Y1.6213
X0.5431Y2.9894
X0.5484Y1.1193
X0.5642Y0.948
X0.5642Y0.8634
X0.578Y2.3004
X0.578Y2.2413
X0.578Y1.6606
X0.5878Y1.2079
X0.5878Y0.5681
X0.6154Y0.9441
X0.6173Y0.8634
X0.6219Y2.9894
X0.6272Y2.5169
X0.6309Y1.3949
X0.6469Y0.637
X0.6862Y1.3949
X0.7059Y2.1823
X0.7256Y1.8969
X0.7256Y1.8378
X0.7354Y2.6843
X0.7354Y2.5465
X0.7453Y1.3949
X0.7453Y1.2748
X0.765Y2.1921
X0.7748Y2.9254
X0.8043Y1.4441
X0.824Y3.1665
X0.8339Y2.4972
X0.8339Y1.828
X0.8732Y2.1626
X0.8831Y1.8181
X0.9126Y2.8417
X0.9126Y1.3752
X0.9224Y2.9795
X0.9618Y1.5524
X1.011Y1.8083
X1.0307Y0.7453
X1.0307Y0.6862
X1.0406Y0.8634
X1.0701Y1.887
X1.0898Y1.2079
X1.0996Y3.1173
X1.0996Y2.8811
X1.1291Y1.887
X1.2069Y1.9953
X1.2374Y1.2276
X1.2571Y1.4638
X1.2669Y1.9953
X1.2768Y2.5563
X1.2768Y2.3594
X1.2768Y0.9323
X1.2965Y1.2276
X1.3161Y1.8575
X1.326Y0.9717
X1.3358Y2.1232
X1.3457Y2.5071
X1.3654Y1.4441
X1.3654Y1.385
X1.3752Y1.8969
X1.3752Y0.9323
X1.3752Y0.7748
X1.4146Y1.7098
X1.4234Y2.7689
X1.4244Y0.9717
X1.4343Y2.2709
X1.4441Y2.8614
X1.4736Y0.9323
X1.4844Y2.7728
X1.4933Y2.2709
X1.513Y3.1173
X1.5228Y0.9717
X1.5327Y1.7098
X1.5327Y1.3654
X1.577Y0.9372
X1.5819Y1.8476
X1.5917Y1.3654
X1.6213Y0.9815
X1.6311Y3.1173
X1.6311Y2.4874
X1.6409Y1.9461
X1.6606Y2.1626
X1.6803Y1.1783
X1.6862Y2.6843
X1.6902Y1.8083
X1.7098Y2.2906
X1.7197Y1.9461
X1.7295Y0.6173
X1.7886Y1.9953
X1.828Y2.5957
X1.828Y1.8969
X1.8575Y1.385
X1.887Y2.448
X1.887Y2.2807
X1.8969Y2.822
X1.8969Y2.1921
X1.8969Y2.1429
X1.9756Y0.6173
X1.9953Y1.3654
X2.0346Y1.7197
X2.0543Y1.3654
X2.0642Y1.0996
X2.1134Y2.8516
X2.1724Y2.8516
X2.1823Y1.9756
X2.202Y1.8575
X2.2118Y1.4539
X2.2315Y0.5681
X2.2512Y2.6744
X2.2512Y2.2413
X2.261Y2.576
X2.2709Y1.7197
X2.2906Y2.7728
X2.3102Y2.0839
X2.3156Y2.1779
X2.3299Y2.9303
X2.3398Y2.8417
X2.3496Y2.6744
X2.3585Y1.8083
X2.4087Y1.5524
X2.4185Y1.9165
X2.4283Y2.9402
X2.4394Y2.8307
X2.448Y1.6016
X2.4972Y1.3161
X2.4972Y1.2571
X2.5071Y1.6606
X2.5169Y0.7354
X2.5169Y0.6764
X2.5563Y2.5268
X2.5563Y1.9165
X2.576Y1.6902
X2.6154Y2.95
X2.6252Y2.5268
X2.6547Y1.8181
X2.6744Y2.3693
X2.6862Y2.3004
X2.6941Y2.9106
X2.6941Y1.513
X2.7039Y2.1823
X2.7069Y2.2581
X2.7335Y1.9953
X2.7335Y1.5622
X2.7531Y1.4638
X2.7728Y1.5917
X2.7728Y0.9224
X2.7728Y0.8732
X2.7728Y0.824
X2.7925Y2.2413
X2.8024Y1.6213
X2.8043Y2.3831
X2.828Y2.5996
X2.8319Y2.8811
X2.8614Y2.6843
X2.8811Y0.6075
X2.9008Y1.9559
X2.9008Y1.8772
X2.9008Y1.7295
X2.9008Y0.9717
X2.9215Y2.2955
X2.95Y2.4283
X2.9672Y2.2517
X2.9992Y2.0839
X2.9992Y0.8831
X3.0878Y1.7886
X3.1075Y2.1921
T2
X1.6803Y0.9815
X1.7098Y0.8831
T3
X0.8496Y2.9205
X0.9913Y2.9205
T4
X0.1587Y2.5937
X0.1587Y2.4937
X0.1587Y2.3937
X0.7276Y3.0957
X0.8276Y3.0957
X0.9276Y3.0957
X1.2047Y3.1075
X1.3047Y3.1075
X1.4047Y3.1075
X1.5307Y1.2748
X1.7276Y1.2748
X1.8555Y1.2748
X2.0524Y1.2748
T5
X0.1646Y1.6803
X0.677Y0.4776
X0.677Y0.3776
X0.777Y0.4776
X0.777Y0.3776
X0.877Y0.4776
X0.877Y0.3776
X0.977Y0.4776
X0.977Y0.3776
X1.077Y0.4776
X1.077Y0.3776
X1.177Y0.4776
X1.177Y0.3776
X1.277Y0.4776
X1.277Y0.3776
X1.377Y0.4776
X1.377Y0.3776
X1.477Y0.4776
X1.477Y0.3776
X1.577Y0.4776
X1.577Y0.3776
X1.677Y0.4776
X1.677Y0.3776
X1.777Y0.4776
X1.777Y0.3776
X1.877Y0.4776
X1.877Y0.3776
X1.977Y0.4776
X1.977Y0.3776
X2.077Y0.4776
X2.077Y0.3776
X2.177Y0.4776
X2.177Y0.3776
X2.277Y0.4776
X2.277Y0.3776
X2.377Y0.4776
X2.377Y0.3776
X2.477Y0.4776
X2.477Y0.3776
X2.577Y0.4776
X2.577Y0.3776
X3.0484Y0.7443
X3.0484Y0.6443
M30
