G04 #@! TF.GenerationSoftware,KiCad,Pcbnew,7.0.11*
G04 #@! TF.CreationDate,2025-02-06T22:41:23-08:00*
G04 #@! TF.ProjectId,z3340,7a333334-302e-46b6-9963-61645f706362,0.9*
G04 #@! TF.SameCoordinates,PX5d9f491PY90fcb2f*
G04 #@! TF.FileFunction,Soldermask,Bot*
G04 #@! TF.FilePolarity,Negative*
%FSLAX46Y46*%
G04 Gerber Fmt 4.6, Leading zero omitted, Abs format (unit mm)*
G04 Created by KiCad (PCBNEW 7.0.11) date 2025-02-06 22:41:23*
%MOMM*%
%LPD*%
G01*
G04 APERTURE LIST*
%ADD10C,1.440000*%
%ADD11C,3.200000*%
%ADD12C,1.524000*%
%ADD13R,1.700000X1.700000*%
%ADD14O,1.700000X1.700000*%
%ADD15R,1.500000X1.500000*%
%ADD16C,1.500000*%
%ADD17C,1.600000*%
G04 #@! TA.AperFunction,Profile*
%ADD18C,0.150000*%
G04 #@! TD*
G04 #@! TA.AperFunction,Profile*
%ADD19C,0.050000*%
G04 #@! TD*
G04 APERTURE END LIST*
D10*
X4029999Y65879999D03*
X4029999Y63339999D03*
X4029999Y60799999D03*
X18479999Y78629999D03*
X21019999Y78629999D03*
X23559999Y78629999D03*
D11*
X76054999Y5929999D03*
X75854999Y77329999D03*
X5054999Y5929999D03*
X5054999Y77329999D03*
D12*
X22562499Y70729999D03*
X22562499Y74329999D03*
D13*
X65454999Y12129999D03*
D14*
X65454999Y9589999D03*
X62914999Y12129999D03*
X62914999Y9589999D03*
X60374999Y12129999D03*
X60374999Y9589999D03*
X57834999Y12129999D03*
X57834999Y9589999D03*
X55294999Y12129999D03*
X55294999Y9589999D03*
X52754999Y12129999D03*
X52754999Y9589999D03*
X50214999Y12129999D03*
X50214999Y9589999D03*
X47674999Y12129999D03*
X47674999Y9589999D03*
X45134999Y12129999D03*
X45134999Y9589999D03*
X42594999Y12129999D03*
X42594999Y9589999D03*
X40054999Y12129999D03*
X40054999Y9589999D03*
X37514999Y12129999D03*
X37514999Y9589999D03*
X34974999Y12129999D03*
X34974999Y9589999D03*
X32434999Y12129999D03*
X32434999Y9589999D03*
X29894999Y12129999D03*
X29894999Y9589999D03*
X27354999Y12129999D03*
X27354999Y9589999D03*
X24814999Y12129999D03*
X24814999Y9589999D03*
X22274999Y12129999D03*
X22274999Y9589999D03*
X19734999Y12129999D03*
X19734999Y9589999D03*
X17194999Y12129999D03*
X17194999Y9589999D03*
D15*
X35679999Y78929999D03*
D16*
X33139999Y78929999D03*
X30599999Y78929999D03*
D13*
X77429999Y18904999D03*
D14*
X77429999Y16364999D03*
D17*
X21929999Y20179999D03*
X21929999Y25179999D03*
D13*
X4179999Y42679999D03*
D18*
X454999Y7129999D02*
G75*
G03*
X5954999Y1629999I5500000J0D01*
G01*
X75454999Y1629999D02*
G75*
G03*
X80454999Y6629999I0J5000000D01*
G01*
X75454999Y1629999D02*
X5954999Y1629999D01*
X5454999Y81629999D02*
G75*
G03*
X454999Y76629999I0J-5000000D01*
G01*
X80454999Y76129999D02*
G75*
G03*
X74954999Y81629999I-5500000J0D01*
G01*
X5454999Y81629999D02*
X74954999Y81629999D01*
X80454999Y6629999D02*
X80454999Y76129999D01*
X454999Y76629999D02*
X454999Y7129999D01*
D19*
X10230999Y3129999D02*
G75*
G03*
X9078999Y3129999I-576000J0D01*
G01*
X9078999Y3129999D02*
G75*
G03*
X10230999Y3129999I576000J0D01*
G01*
X72830999Y80129999D02*
G75*
G03*
X71678999Y80129999I-576000J0D01*
G01*
X71678999Y80129999D02*
G75*
G03*
X72830999Y80129999I576000J0D01*
G01*
X72830999Y3129999D02*
G75*
G03*
X71678999Y3129999I-576000J0D01*
G01*
X71678999Y3129999D02*
G75*
G03*
X72830999Y3129999I576000J0D01*
G01*
M02*
