G04 #@! TF.GenerationSoftware,KiCad,Pcbnew,7.0.11*
G04 #@! TF.CreationDate,2025-02-11T21:49:39-08:00*
G04 #@! TF.ProjectId,z3340,7a333334-302e-46b6-9963-61645f706362,0.9*
G04 #@! TF.SameCoordinates,PX5d9f491PY90fcb2f*
G04 #@! TF.FileFunction,Legend,Bot*
G04 #@! TF.FilePolarity,Positive*
%FSLAX46Y46*%
G04 Gerber Fmt 4.6, Leading zero omitted, Abs format (unit mm)*
G04 Created by KiCad (PCBNEW 7.0.11) date 2025-02-11 21:49:39*
%MOMM*%
%LPD*%
G01*
G04 APERTURE LIST*
%ADD10C,0.150000*%
%ADD11C,0.090000*%
G04 #@! TA.AperFunction,Profile*
%ADD12C,0.150000*%
G04 #@! TD*
G04 #@! TA.AperFunction,Profile*
%ADD13C,0.050000*%
G04 #@! TD*
G04 APERTURE END LIST*
D10*
X39329999Y74029999D02*
X66429999Y74029999D01*
X66429999Y58779999D01*
X39329999Y58779999D01*
X39329999Y74029999D01*
D11*
X48989522Y14619346D02*
X48379999Y14619346D01*
X48684760Y14314584D02*
X48684760Y14924108D01*
X47618094Y15114584D02*
X47999046Y15114584D01*
X47999046Y15114584D02*
X48037142Y14733632D01*
X48037142Y14733632D02*
X47999046Y14771727D01*
X47999046Y14771727D02*
X47922856Y14809822D01*
X47922856Y14809822D02*
X47732380Y14809822D01*
X47732380Y14809822D02*
X47656189Y14771727D01*
X47656189Y14771727D02*
X47618094Y14733632D01*
X47618094Y14733632D02*
X47579999Y14657441D01*
X47579999Y14657441D02*
X47579999Y14466965D01*
X47579999Y14466965D02*
X47618094Y14390775D01*
X47618094Y14390775D02*
X47656189Y14352679D01*
X47656189Y14352679D02*
X47732380Y14314584D01*
X47732380Y14314584D02*
X47922856Y14314584D01*
X47922856Y14314584D02*
X47999046Y14352679D01*
X47999046Y14352679D02*
X48037142Y14390775D01*
X46627617Y14619346D02*
X46018094Y14619346D01*
X46322855Y14314584D02*
X46322855Y14924108D01*
X45218094Y14314584D02*
X45675237Y14314584D01*
X45446665Y14314584D02*
X45446665Y15114584D01*
X45446665Y15114584D02*
X45522856Y15000299D01*
X45522856Y15000299D02*
X45599046Y14924108D01*
X45599046Y14924108D02*
X45675237Y14886013D01*
X44913332Y15038394D02*
X44875236Y15076489D01*
X44875236Y15076489D02*
X44799046Y15114584D01*
X44799046Y15114584D02*
X44608570Y15114584D01*
X44608570Y15114584D02*
X44532379Y15076489D01*
X44532379Y15076489D02*
X44494284Y15038394D01*
X44494284Y15038394D02*
X44456189Y14962203D01*
X44456189Y14962203D02*
X44456189Y14886013D01*
X44456189Y14886013D02*
X44494284Y14771727D01*
X44494284Y14771727D02*
X44951427Y14314584D01*
X44951427Y14314584D02*
X44456189Y14314584D01*
X43503807Y14619346D02*
X42894284Y14619346D01*
X42094284Y14314584D02*
X42551427Y14314584D01*
X42322855Y14314584D02*
X42322855Y15114584D01*
X42322855Y15114584D02*
X42399046Y15000299D01*
X42399046Y15000299D02*
X42475236Y14924108D01*
X42475236Y14924108D02*
X42551427Y14886013D01*
X41789522Y15038394D02*
X41751426Y15076489D01*
X41751426Y15076489D02*
X41675236Y15114584D01*
X41675236Y15114584D02*
X41484760Y15114584D01*
X41484760Y15114584D02*
X41408569Y15076489D01*
X41408569Y15076489D02*
X41370474Y15038394D01*
X41370474Y15038394D02*
X41332379Y14962203D01*
X41332379Y14962203D02*
X41332379Y14886013D01*
X41332379Y14886013D02*
X41370474Y14771727D01*
X41370474Y14771727D02*
X41827617Y14314584D01*
X41827617Y14314584D02*
X41332379Y14314584D01*
X4539522Y40526489D02*
X4615712Y40564584D01*
X4615712Y40564584D02*
X4729998Y40564584D01*
X4729998Y40564584D02*
X4844284Y40526489D01*
X4844284Y40526489D02*
X4920474Y40450299D01*
X4920474Y40450299D02*
X4958569Y40374108D01*
X4958569Y40374108D02*
X4996665Y40221727D01*
X4996665Y40221727D02*
X4996665Y40107441D01*
X4996665Y40107441D02*
X4958569Y39955060D01*
X4958569Y39955060D02*
X4920474Y39878870D01*
X4920474Y39878870D02*
X4844284Y39802679D01*
X4844284Y39802679D02*
X4729998Y39764584D01*
X4729998Y39764584D02*
X4653807Y39764584D01*
X4653807Y39764584D02*
X4539522Y39802679D01*
X4539522Y39802679D02*
X4501426Y39840775D01*
X4501426Y39840775D02*
X4501426Y40107441D01*
X4501426Y40107441D02*
X4653807Y40107441D01*
X4158569Y39764584D02*
X4158569Y40564584D01*
X4158569Y40564584D02*
X3701426Y39764584D01*
X3701426Y39764584D02*
X3701426Y40564584D01*
X3320474Y39764584D02*
X3320474Y40564584D01*
X3320474Y40564584D02*
X3129998Y40564584D01*
X3129998Y40564584D02*
X3015712Y40526489D01*
X3015712Y40526489D02*
X2939522Y40450299D01*
X2939522Y40450299D02*
X2901427Y40374108D01*
X2901427Y40374108D02*
X2863331Y40221727D01*
X2863331Y40221727D02*
X2863331Y40107441D01*
X2863331Y40107441D02*
X2901427Y39955060D01*
X2901427Y39955060D02*
X2939522Y39878870D01*
X2939522Y39878870D02*
X3015712Y39802679D01*
X3015712Y39802679D02*
X3129998Y39764584D01*
X3129998Y39764584D02*
X3320474Y39764584D01*
X65275550Y73412060D02*
X64704122Y73412060D01*
X64989836Y72412060D02*
X64989836Y73412060D01*
X64370788Y72935870D02*
X64037455Y72935870D01*
X63894598Y72412060D02*
X64370788Y72412060D01*
X64370788Y72412060D02*
X64370788Y73412060D01*
X64370788Y73412060D02*
X63894598Y73412060D01*
X63513645Y72459679D02*
X63370788Y72412060D01*
X63370788Y72412060D02*
X63132693Y72412060D01*
X63132693Y72412060D02*
X63037455Y72459679D01*
X63037455Y72459679D02*
X62989836Y72507299D01*
X62989836Y72507299D02*
X62942217Y72602537D01*
X62942217Y72602537D02*
X62942217Y72697775D01*
X62942217Y72697775D02*
X62989836Y72793013D01*
X62989836Y72793013D02*
X63037455Y72840632D01*
X63037455Y72840632D02*
X63132693Y72888251D01*
X63132693Y72888251D02*
X63323169Y72935870D01*
X63323169Y72935870D02*
X63418407Y72983489D01*
X63418407Y72983489D02*
X63466026Y73031108D01*
X63466026Y73031108D02*
X63513645Y73126346D01*
X63513645Y73126346D02*
X63513645Y73221584D01*
X63513645Y73221584D02*
X63466026Y73316822D01*
X63466026Y73316822D02*
X63418407Y73364441D01*
X63418407Y73364441D02*
X63323169Y73412060D01*
X63323169Y73412060D02*
X63085074Y73412060D01*
X63085074Y73412060D02*
X62942217Y73364441D01*
X62656502Y73412060D02*
X62085074Y73412060D01*
X62370788Y72412060D02*
X62370788Y73412060D01*
X60989835Y72412060D02*
X60989835Y73412060D01*
X60989835Y73412060D02*
X60608883Y73412060D01*
X60608883Y73412060D02*
X60513645Y73364441D01*
X60513645Y73364441D02*
X60466026Y73316822D01*
X60466026Y73316822D02*
X60418407Y73221584D01*
X60418407Y73221584D02*
X60418407Y73078727D01*
X60418407Y73078727D02*
X60466026Y72983489D01*
X60466026Y72983489D02*
X60513645Y72935870D01*
X60513645Y72935870D02*
X60608883Y72888251D01*
X60608883Y72888251D02*
X60989835Y72888251D01*
X59799359Y73412060D02*
X59608883Y73412060D01*
X59608883Y73412060D02*
X59513645Y73364441D01*
X59513645Y73364441D02*
X59418407Y73269203D01*
X59418407Y73269203D02*
X59370788Y73078727D01*
X59370788Y73078727D02*
X59370788Y72745394D01*
X59370788Y72745394D02*
X59418407Y72554918D01*
X59418407Y72554918D02*
X59513645Y72459679D01*
X59513645Y72459679D02*
X59608883Y72412060D01*
X59608883Y72412060D02*
X59799359Y72412060D01*
X59799359Y72412060D02*
X59894597Y72459679D01*
X59894597Y72459679D02*
X59989835Y72554918D01*
X59989835Y72554918D02*
X60037454Y72745394D01*
X60037454Y72745394D02*
X60037454Y73078727D01*
X60037454Y73078727D02*
X59989835Y73269203D01*
X59989835Y73269203D02*
X59894597Y73364441D01*
X59894597Y73364441D02*
X59799359Y73412060D01*
X58942216Y72412060D02*
X58942216Y73412060D01*
X58466026Y72412060D02*
X58466026Y73412060D01*
X58466026Y73412060D02*
X57894598Y72412060D01*
X57894598Y72412060D02*
X57894598Y73412060D01*
X57561264Y73412060D02*
X56989836Y73412060D01*
X57275550Y72412060D02*
X57275550Y73412060D01*
X56704121Y72459679D02*
X56561264Y72412060D01*
X56561264Y72412060D02*
X56323169Y72412060D01*
X56323169Y72412060D02*
X56227931Y72459679D01*
X56227931Y72459679D02*
X56180312Y72507299D01*
X56180312Y72507299D02*
X56132693Y72602537D01*
X56132693Y72602537D02*
X56132693Y72697775D01*
X56132693Y72697775D02*
X56180312Y72793013D01*
X56180312Y72793013D02*
X56227931Y72840632D01*
X56227931Y72840632D02*
X56323169Y72888251D01*
X56323169Y72888251D02*
X56513645Y72935870D01*
X56513645Y72935870D02*
X56608883Y72983489D01*
X56608883Y72983489D02*
X56656502Y73031108D01*
X56656502Y73031108D02*
X56704121Y73126346D01*
X56704121Y73126346D02*
X56704121Y73221584D01*
X56704121Y73221584D02*
X56656502Y73316822D01*
X56656502Y73316822D02*
X56608883Y73364441D01*
X56608883Y73364441D02*
X56513645Y73412060D01*
X56513645Y73412060D02*
X56275550Y73412060D01*
X56275550Y73412060D02*
X56132693Y73364441D01*
X65275550Y71802060D02*
X64704122Y71802060D01*
X64989836Y70802060D02*
X64989836Y71802060D01*
X64370788Y70802060D02*
X64370788Y71802060D01*
X64370788Y71802060D02*
X63989836Y71802060D01*
X63989836Y71802060D02*
X63894598Y71754441D01*
X63894598Y71754441D02*
X63846979Y71706822D01*
X63846979Y71706822D02*
X63799360Y71611584D01*
X63799360Y71611584D02*
X63799360Y71468727D01*
X63799360Y71468727D02*
X63846979Y71373489D01*
X63846979Y71373489D02*
X63894598Y71325870D01*
X63894598Y71325870D02*
X63989836Y71278251D01*
X63989836Y71278251D02*
X64370788Y71278251D01*
X62846979Y70802060D02*
X63418407Y70802060D01*
X63132693Y70802060D02*
X63132693Y71802060D01*
X63132693Y71802060D02*
X63227931Y71659203D01*
X63227931Y71659203D02*
X63323169Y71563965D01*
X63323169Y71563965D02*
X63418407Y71516346D01*
X61656502Y70897299D02*
X61608883Y70849679D01*
X61608883Y70849679D02*
X61656502Y70802060D01*
X61656502Y70802060D02*
X61704121Y70849679D01*
X61704121Y70849679D02*
X61656502Y70897299D01*
X61656502Y70897299D02*
X61656502Y70802060D01*
X61656502Y71421108D02*
X61608883Y71373489D01*
X61608883Y71373489D02*
X61656502Y71325870D01*
X61656502Y71325870D02*
X61704121Y71373489D01*
X61704121Y71373489D02*
X61656502Y71421108D01*
X61656502Y71421108D02*
X61656502Y71325870D01*
X60418407Y70802060D02*
X60418407Y71802060D01*
X60418407Y71325870D02*
X59846979Y71325870D01*
X59846979Y70802060D02*
X59846979Y71802060D01*
X59370788Y70802060D02*
X59370788Y71802060D01*
X58370789Y71754441D02*
X58466027Y71802060D01*
X58466027Y71802060D02*
X58608884Y71802060D01*
X58608884Y71802060D02*
X58751741Y71754441D01*
X58751741Y71754441D02*
X58846979Y71659203D01*
X58846979Y71659203D02*
X58894598Y71563965D01*
X58894598Y71563965D02*
X58942217Y71373489D01*
X58942217Y71373489D02*
X58942217Y71230632D01*
X58942217Y71230632D02*
X58894598Y71040156D01*
X58894598Y71040156D02*
X58846979Y70944918D01*
X58846979Y70944918D02*
X58751741Y70849679D01*
X58751741Y70849679D02*
X58608884Y70802060D01*
X58608884Y70802060D02*
X58513646Y70802060D01*
X58513646Y70802060D02*
X58370789Y70849679D01*
X58370789Y70849679D02*
X58323170Y70897299D01*
X58323170Y70897299D02*
X58323170Y71230632D01*
X58323170Y71230632D02*
X58513646Y71230632D01*
X57894598Y70802060D02*
X57894598Y71802060D01*
X57894598Y71325870D02*
X57323170Y71325870D01*
X57323170Y70802060D02*
X57323170Y71802060D01*
X55751741Y71325870D02*
X56085074Y71325870D01*
X56085074Y70802060D02*
X56085074Y71802060D01*
X56085074Y71802060D02*
X55608884Y71802060D01*
X54656503Y70802060D02*
X54989836Y71278251D01*
X55227931Y70802060D02*
X55227931Y71802060D01*
X55227931Y71802060D02*
X54846979Y71802060D01*
X54846979Y71802060D02*
X54751741Y71754441D01*
X54751741Y71754441D02*
X54704122Y71706822D01*
X54704122Y71706822D02*
X54656503Y71611584D01*
X54656503Y71611584D02*
X54656503Y71468727D01*
X54656503Y71468727D02*
X54704122Y71373489D01*
X54704122Y71373489D02*
X54751741Y71325870D01*
X54751741Y71325870D02*
X54846979Y71278251D01*
X54846979Y71278251D02*
X55227931Y71278251D01*
X54227931Y71325870D02*
X53894598Y71325870D01*
X53751741Y70802060D02*
X54227931Y70802060D01*
X54227931Y70802060D02*
X54227931Y71802060D01*
X54227931Y71802060D02*
X53751741Y71802060D01*
X52656503Y70706822D02*
X52751741Y70754441D01*
X52751741Y70754441D02*
X52846979Y70849679D01*
X52846979Y70849679D02*
X52989836Y70992537D01*
X52989836Y70992537D02*
X53085074Y71040156D01*
X53085074Y71040156D02*
X53180312Y71040156D01*
X53132693Y70802060D02*
X53227931Y70849679D01*
X53227931Y70849679D02*
X53323169Y70944918D01*
X53323169Y70944918D02*
X53370788Y71135394D01*
X53370788Y71135394D02*
X53370788Y71468727D01*
X53370788Y71468727D02*
X53323169Y71659203D01*
X53323169Y71659203D02*
X53227931Y71754441D01*
X53227931Y71754441D02*
X53132693Y71802060D01*
X53132693Y71802060D02*
X52942217Y71802060D01*
X52942217Y71802060D02*
X52846979Y71754441D01*
X52846979Y71754441D02*
X52751741Y71659203D01*
X52751741Y71659203D02*
X52704122Y71468727D01*
X52704122Y71468727D02*
X52704122Y71135394D01*
X52704122Y71135394D02*
X52751741Y70944918D01*
X52751741Y70944918D02*
X52846979Y70849679D01*
X52846979Y70849679D02*
X52942217Y70802060D01*
X52942217Y70802060D02*
X53132693Y70802060D01*
X51656502Y71802060D02*
X51085074Y71802060D01*
X51370788Y70802060D02*
X51370788Y71802060D01*
X50180312Y70802060D02*
X50513645Y71278251D01*
X50751740Y70802060D02*
X50751740Y71802060D01*
X50751740Y71802060D02*
X50370788Y71802060D01*
X50370788Y71802060D02*
X50275550Y71754441D01*
X50275550Y71754441D02*
X50227931Y71706822D01*
X50227931Y71706822D02*
X50180312Y71611584D01*
X50180312Y71611584D02*
X50180312Y71468727D01*
X50180312Y71468727D02*
X50227931Y71373489D01*
X50227931Y71373489D02*
X50275550Y71325870D01*
X50275550Y71325870D02*
X50370788Y71278251D01*
X50370788Y71278251D02*
X50751740Y71278251D01*
X49799359Y71087775D02*
X49323169Y71087775D01*
X49894597Y70802060D02*
X49561264Y71802060D01*
X49561264Y71802060D02*
X49227931Y70802060D01*
X48323169Y70897299D02*
X48370788Y70849679D01*
X48370788Y70849679D02*
X48513645Y70802060D01*
X48513645Y70802060D02*
X48608883Y70802060D01*
X48608883Y70802060D02*
X48751740Y70849679D01*
X48751740Y70849679D02*
X48846978Y70944918D01*
X48846978Y70944918D02*
X48894597Y71040156D01*
X48894597Y71040156D02*
X48942216Y71230632D01*
X48942216Y71230632D02*
X48942216Y71373489D01*
X48942216Y71373489D02*
X48894597Y71563965D01*
X48894597Y71563965D02*
X48846978Y71659203D01*
X48846978Y71659203D02*
X48751740Y71754441D01*
X48751740Y71754441D02*
X48608883Y71802060D01*
X48608883Y71802060D02*
X48513645Y71802060D01*
X48513645Y71802060D02*
X48370788Y71754441D01*
X48370788Y71754441D02*
X48323169Y71706822D01*
X47894597Y70802060D02*
X47894597Y71802060D01*
X47323169Y70802060D02*
X47751740Y71373489D01*
X47323169Y71802060D02*
X47894597Y71230632D01*
X65275550Y70192060D02*
X64704122Y70192060D01*
X64989836Y69192060D02*
X64989836Y70192060D01*
X64370788Y69192060D02*
X64370788Y70192060D01*
X64370788Y70192060D02*
X63989836Y70192060D01*
X63989836Y70192060D02*
X63894598Y70144441D01*
X63894598Y70144441D02*
X63846979Y70096822D01*
X63846979Y70096822D02*
X63799360Y70001584D01*
X63799360Y70001584D02*
X63799360Y69858727D01*
X63799360Y69858727D02*
X63846979Y69763489D01*
X63846979Y69763489D02*
X63894598Y69715870D01*
X63894598Y69715870D02*
X63989836Y69668251D01*
X63989836Y69668251D02*
X64370788Y69668251D01*
X63418407Y70096822D02*
X63370788Y70144441D01*
X63370788Y70144441D02*
X63275550Y70192060D01*
X63275550Y70192060D02*
X63037455Y70192060D01*
X63037455Y70192060D02*
X62942217Y70144441D01*
X62942217Y70144441D02*
X62894598Y70096822D01*
X62894598Y70096822D02*
X62846979Y70001584D01*
X62846979Y70001584D02*
X62846979Y69906346D01*
X62846979Y69906346D02*
X62894598Y69763489D01*
X62894598Y69763489D02*
X63466026Y69192060D01*
X63466026Y69192060D02*
X62846979Y69192060D01*
X61656502Y69287299D02*
X61608883Y69239679D01*
X61608883Y69239679D02*
X61656502Y69192060D01*
X61656502Y69192060D02*
X61704121Y69239679D01*
X61704121Y69239679D02*
X61656502Y69287299D01*
X61656502Y69287299D02*
X61656502Y69192060D01*
X61656502Y69811108D02*
X61608883Y69763489D01*
X61608883Y69763489D02*
X61656502Y69715870D01*
X61656502Y69715870D02*
X61704121Y69763489D01*
X61704121Y69763489D02*
X61656502Y69811108D01*
X61656502Y69811108D02*
X61656502Y69715870D01*
X60466026Y69239679D02*
X60323169Y69192060D01*
X60323169Y69192060D02*
X60085074Y69192060D01*
X60085074Y69192060D02*
X59989836Y69239679D01*
X59989836Y69239679D02*
X59942217Y69287299D01*
X59942217Y69287299D02*
X59894598Y69382537D01*
X59894598Y69382537D02*
X59894598Y69477775D01*
X59894598Y69477775D02*
X59942217Y69573013D01*
X59942217Y69573013D02*
X59989836Y69620632D01*
X59989836Y69620632D02*
X60085074Y69668251D01*
X60085074Y69668251D02*
X60275550Y69715870D01*
X60275550Y69715870D02*
X60370788Y69763489D01*
X60370788Y69763489D02*
X60418407Y69811108D01*
X60418407Y69811108D02*
X60466026Y69906346D01*
X60466026Y69906346D02*
X60466026Y70001584D01*
X60466026Y70001584D02*
X60418407Y70096822D01*
X60418407Y70096822D02*
X60370788Y70144441D01*
X60370788Y70144441D02*
X60275550Y70192060D01*
X60275550Y70192060D02*
X60037455Y70192060D01*
X60037455Y70192060D02*
X59894598Y70144441D01*
X59275550Y70192060D02*
X59085074Y70192060D01*
X59085074Y70192060D02*
X58989836Y70144441D01*
X58989836Y70144441D02*
X58894598Y70049203D01*
X58894598Y70049203D02*
X58846979Y69858727D01*
X58846979Y69858727D02*
X58846979Y69525394D01*
X58846979Y69525394D02*
X58894598Y69334918D01*
X58894598Y69334918D02*
X58989836Y69239679D01*
X58989836Y69239679D02*
X59085074Y69192060D01*
X59085074Y69192060D02*
X59275550Y69192060D01*
X59275550Y69192060D02*
X59370788Y69239679D01*
X59370788Y69239679D02*
X59466026Y69334918D01*
X59466026Y69334918D02*
X59513645Y69525394D01*
X59513645Y69525394D02*
X59513645Y69858727D01*
X59513645Y69858727D02*
X59466026Y70049203D01*
X59466026Y70049203D02*
X59370788Y70144441D01*
X59370788Y70144441D02*
X59275550Y70192060D01*
X58085074Y69715870D02*
X58418407Y69715870D01*
X58418407Y69192060D02*
X58418407Y70192060D01*
X58418407Y70192060D02*
X57942217Y70192060D01*
X57704121Y70192060D02*
X57132693Y70192060D01*
X57418407Y69192060D02*
X57418407Y70192060D01*
X56085073Y69239679D02*
X55942216Y69192060D01*
X55942216Y69192060D02*
X55704121Y69192060D01*
X55704121Y69192060D02*
X55608883Y69239679D01*
X55608883Y69239679D02*
X55561264Y69287299D01*
X55561264Y69287299D02*
X55513645Y69382537D01*
X55513645Y69382537D02*
X55513645Y69477775D01*
X55513645Y69477775D02*
X55561264Y69573013D01*
X55561264Y69573013D02*
X55608883Y69620632D01*
X55608883Y69620632D02*
X55704121Y69668251D01*
X55704121Y69668251D02*
X55894597Y69715870D01*
X55894597Y69715870D02*
X55989835Y69763489D01*
X55989835Y69763489D02*
X56037454Y69811108D01*
X56037454Y69811108D02*
X56085073Y69906346D01*
X56085073Y69906346D02*
X56085073Y70001584D01*
X56085073Y70001584D02*
X56037454Y70096822D01*
X56037454Y70096822D02*
X55989835Y70144441D01*
X55989835Y70144441D02*
X55894597Y70192060D01*
X55894597Y70192060D02*
X55656502Y70192060D01*
X55656502Y70192060D02*
X55513645Y70144441D01*
X54894597Y69668251D02*
X54894597Y69192060D01*
X55227930Y70192060D02*
X54894597Y69668251D01*
X54894597Y69668251D02*
X54561264Y70192060D01*
X54227930Y69192060D02*
X54227930Y70192060D01*
X54227930Y70192060D02*
X53656502Y69192060D01*
X53656502Y69192060D02*
X53656502Y70192060D01*
X52608883Y69287299D02*
X52656502Y69239679D01*
X52656502Y69239679D02*
X52799359Y69192060D01*
X52799359Y69192060D02*
X52894597Y69192060D01*
X52894597Y69192060D02*
X53037454Y69239679D01*
X53037454Y69239679D02*
X53132692Y69334918D01*
X53132692Y69334918D02*
X53180311Y69430156D01*
X53180311Y69430156D02*
X53227930Y69620632D01*
X53227930Y69620632D02*
X53227930Y69763489D01*
X53227930Y69763489D02*
X53180311Y69953965D01*
X53180311Y69953965D02*
X53132692Y70049203D01*
X53132692Y70049203D02*
X53037454Y70144441D01*
X53037454Y70144441D02*
X52894597Y70192060D01*
X52894597Y70192060D02*
X52799359Y70192060D01*
X52799359Y70192060D02*
X52656502Y70144441D01*
X52656502Y70144441D02*
X52608883Y70096822D01*
X65275550Y68582060D02*
X64704122Y68582060D01*
X64989836Y67582060D02*
X64989836Y68582060D01*
X64370788Y67582060D02*
X64370788Y68582060D01*
X64370788Y68582060D02*
X63989836Y68582060D01*
X63989836Y68582060D02*
X63894598Y68534441D01*
X63894598Y68534441D02*
X63846979Y68486822D01*
X63846979Y68486822D02*
X63799360Y68391584D01*
X63799360Y68391584D02*
X63799360Y68248727D01*
X63799360Y68248727D02*
X63846979Y68153489D01*
X63846979Y68153489D02*
X63894598Y68105870D01*
X63894598Y68105870D02*
X63989836Y68058251D01*
X63989836Y68058251D02*
X64370788Y68058251D01*
X63466026Y68582060D02*
X62846979Y68582060D01*
X62846979Y68582060D02*
X63180312Y68201108D01*
X63180312Y68201108D02*
X63037455Y68201108D01*
X63037455Y68201108D02*
X62942217Y68153489D01*
X62942217Y68153489D02*
X62894598Y68105870D01*
X62894598Y68105870D02*
X62846979Y68010632D01*
X62846979Y68010632D02*
X62846979Y67772537D01*
X62846979Y67772537D02*
X62894598Y67677299D01*
X62894598Y67677299D02*
X62942217Y67629679D01*
X62942217Y67629679D02*
X63037455Y67582060D01*
X63037455Y67582060D02*
X63323169Y67582060D01*
X63323169Y67582060D02*
X63418407Y67629679D01*
X63418407Y67629679D02*
X63466026Y67677299D01*
X61656502Y67677299D02*
X61608883Y67629679D01*
X61608883Y67629679D02*
X61656502Y67582060D01*
X61656502Y67582060D02*
X61704121Y67629679D01*
X61704121Y67629679D02*
X61656502Y67677299D01*
X61656502Y67677299D02*
X61656502Y67582060D01*
X61656502Y68201108D02*
X61608883Y68153489D01*
X61608883Y68153489D02*
X61656502Y68105870D01*
X61656502Y68105870D02*
X61704121Y68153489D01*
X61704121Y68153489D02*
X61656502Y68201108D01*
X61656502Y68201108D02*
X61656502Y68105870D01*
X60561264Y68582060D02*
X60227931Y67582060D01*
X60227931Y67582060D02*
X59894598Y68582060D01*
X58989836Y67677299D02*
X59037455Y67629679D01*
X59037455Y67629679D02*
X59180312Y67582060D01*
X59180312Y67582060D02*
X59275550Y67582060D01*
X59275550Y67582060D02*
X59418407Y67629679D01*
X59418407Y67629679D02*
X59513645Y67724918D01*
X59513645Y67724918D02*
X59561264Y67820156D01*
X59561264Y67820156D02*
X59608883Y68010632D01*
X59608883Y68010632D02*
X59608883Y68153489D01*
X59608883Y68153489D02*
X59561264Y68343965D01*
X59561264Y68343965D02*
X59513645Y68439203D01*
X59513645Y68439203D02*
X59418407Y68534441D01*
X59418407Y68534441D02*
X59275550Y68582060D01*
X59275550Y68582060D02*
X59180312Y68582060D01*
X59180312Y68582060D02*
X59037455Y68534441D01*
X59037455Y68534441D02*
X58989836Y68486822D01*
X58370788Y68582060D02*
X58180312Y68582060D01*
X58180312Y68582060D02*
X58085074Y68534441D01*
X58085074Y68534441D02*
X57989836Y68439203D01*
X57989836Y68439203D02*
X57942217Y68248727D01*
X57942217Y68248727D02*
X57942217Y67915394D01*
X57942217Y67915394D02*
X57989836Y67724918D01*
X57989836Y67724918D02*
X58085074Y67629679D01*
X58085074Y67629679D02*
X58180312Y67582060D01*
X58180312Y67582060D02*
X58370788Y67582060D01*
X58370788Y67582060D02*
X58466026Y67629679D01*
X58466026Y67629679D02*
X58561264Y67724918D01*
X58561264Y67724918D02*
X58608883Y67915394D01*
X58608883Y67915394D02*
X58608883Y68248727D01*
X58608883Y68248727D02*
X58561264Y68439203D01*
X58561264Y68439203D02*
X58466026Y68534441D01*
X58466026Y68534441D02*
X58370788Y68582060D01*
X56799359Y67629679D02*
X56656502Y67582060D01*
X56656502Y67582060D02*
X56418407Y67582060D01*
X56418407Y67582060D02*
X56323169Y67629679D01*
X56323169Y67629679D02*
X56275550Y67677299D01*
X56275550Y67677299D02*
X56227931Y67772537D01*
X56227931Y67772537D02*
X56227931Y67867775D01*
X56227931Y67867775D02*
X56275550Y67963013D01*
X56275550Y67963013D02*
X56323169Y68010632D01*
X56323169Y68010632D02*
X56418407Y68058251D01*
X56418407Y68058251D02*
X56608883Y68105870D01*
X56608883Y68105870D02*
X56704121Y68153489D01*
X56704121Y68153489D02*
X56751740Y68201108D01*
X56751740Y68201108D02*
X56799359Y68296346D01*
X56799359Y68296346D02*
X56799359Y68391584D01*
X56799359Y68391584D02*
X56751740Y68486822D01*
X56751740Y68486822D02*
X56704121Y68534441D01*
X56704121Y68534441D02*
X56608883Y68582060D01*
X56608883Y68582060D02*
X56370788Y68582060D01*
X56370788Y68582060D02*
X56227931Y68534441D01*
X55846978Y67867775D02*
X55370788Y67867775D01*
X55942216Y67582060D02*
X55608883Y68582060D01*
X55608883Y68582060D02*
X55275550Y67582060D01*
X55037454Y68582060D02*
X54799359Y67582060D01*
X54799359Y67582060D02*
X54608883Y68296346D01*
X54608883Y68296346D02*
X54418407Y67582060D01*
X54418407Y67582060D02*
X54180312Y68582060D01*
X65275550Y66972060D02*
X64704122Y66972060D01*
X64989836Y65972060D02*
X64989836Y66972060D01*
X64370788Y65972060D02*
X64370788Y66972060D01*
X64370788Y66972060D02*
X63989836Y66972060D01*
X63989836Y66972060D02*
X63894598Y66924441D01*
X63894598Y66924441D02*
X63846979Y66876822D01*
X63846979Y66876822D02*
X63799360Y66781584D01*
X63799360Y66781584D02*
X63799360Y66638727D01*
X63799360Y66638727D02*
X63846979Y66543489D01*
X63846979Y66543489D02*
X63894598Y66495870D01*
X63894598Y66495870D02*
X63989836Y66448251D01*
X63989836Y66448251D02*
X64370788Y66448251D01*
X62942217Y66638727D02*
X62942217Y65972060D01*
X63180312Y67019679D02*
X63418407Y66305394D01*
X63418407Y66305394D02*
X62799360Y66305394D01*
X61656502Y66067299D02*
X61608883Y66019679D01*
X61608883Y66019679D02*
X61656502Y65972060D01*
X61656502Y65972060D02*
X61704121Y66019679D01*
X61704121Y66019679D02*
X61656502Y66067299D01*
X61656502Y66067299D02*
X61656502Y65972060D01*
X61656502Y66591108D02*
X61608883Y66543489D01*
X61608883Y66543489D02*
X61656502Y66495870D01*
X61656502Y66495870D02*
X61704121Y66543489D01*
X61704121Y66543489D02*
X61656502Y66591108D01*
X61656502Y66591108D02*
X61656502Y66495870D01*
X60418407Y65972060D02*
X60418407Y66972060D01*
X60418407Y66495870D02*
X59846979Y66495870D01*
X59846979Y65972060D02*
X59846979Y66972060D01*
X59418407Y66257775D02*
X58942217Y66257775D01*
X59513645Y65972060D02*
X59180312Y66972060D01*
X59180312Y66972060D02*
X58846979Y65972060D01*
X57942217Y65972060D02*
X58275550Y66448251D01*
X58513645Y65972060D02*
X58513645Y66972060D01*
X58513645Y66972060D02*
X58132693Y66972060D01*
X58132693Y66972060D02*
X58037455Y66924441D01*
X58037455Y66924441D02*
X57989836Y66876822D01*
X57989836Y66876822D02*
X57942217Y66781584D01*
X57942217Y66781584D02*
X57942217Y66638727D01*
X57942217Y66638727D02*
X57989836Y66543489D01*
X57989836Y66543489D02*
X58037455Y66495870D01*
X58037455Y66495870D02*
X58132693Y66448251D01*
X58132693Y66448251D02*
X58513645Y66448251D01*
X57513645Y65972060D02*
X57513645Y66972060D01*
X57513645Y66972060D02*
X57275550Y66972060D01*
X57275550Y66972060D02*
X57132693Y66924441D01*
X57132693Y66924441D02*
X57037455Y66829203D01*
X57037455Y66829203D02*
X56989836Y66733965D01*
X56989836Y66733965D02*
X56942217Y66543489D01*
X56942217Y66543489D02*
X56942217Y66400632D01*
X56942217Y66400632D02*
X56989836Y66210156D01*
X56989836Y66210156D02*
X57037455Y66114918D01*
X57037455Y66114918D02*
X57132693Y66019679D01*
X57132693Y66019679D02*
X57275550Y65972060D01*
X57275550Y65972060D02*
X57513645Y65972060D01*
X55799359Y66019679D02*
X55656502Y65972060D01*
X55656502Y65972060D02*
X55418407Y65972060D01*
X55418407Y65972060D02*
X55323169Y66019679D01*
X55323169Y66019679D02*
X55275550Y66067299D01*
X55275550Y66067299D02*
X55227931Y66162537D01*
X55227931Y66162537D02*
X55227931Y66257775D01*
X55227931Y66257775D02*
X55275550Y66353013D01*
X55275550Y66353013D02*
X55323169Y66400632D01*
X55323169Y66400632D02*
X55418407Y66448251D01*
X55418407Y66448251D02*
X55608883Y66495870D01*
X55608883Y66495870D02*
X55704121Y66543489D01*
X55704121Y66543489D02*
X55751740Y66591108D01*
X55751740Y66591108D02*
X55799359Y66686346D01*
X55799359Y66686346D02*
X55799359Y66781584D01*
X55799359Y66781584D02*
X55751740Y66876822D01*
X55751740Y66876822D02*
X55704121Y66924441D01*
X55704121Y66924441D02*
X55608883Y66972060D01*
X55608883Y66972060D02*
X55370788Y66972060D01*
X55370788Y66972060D02*
X55227931Y66924441D01*
X54608883Y66448251D02*
X54608883Y65972060D01*
X54942216Y66972060D02*
X54608883Y66448251D01*
X54608883Y66448251D02*
X54275550Y66972060D01*
X53942216Y65972060D02*
X53942216Y66972060D01*
X53942216Y66972060D02*
X53370788Y65972060D01*
X53370788Y65972060D02*
X53370788Y66972060D01*
X52323169Y66067299D02*
X52370788Y66019679D01*
X52370788Y66019679D02*
X52513645Y65972060D01*
X52513645Y65972060D02*
X52608883Y65972060D01*
X52608883Y65972060D02*
X52751740Y66019679D01*
X52751740Y66019679D02*
X52846978Y66114918D01*
X52846978Y66114918D02*
X52894597Y66210156D01*
X52894597Y66210156D02*
X52942216Y66400632D01*
X52942216Y66400632D02*
X52942216Y66543489D01*
X52942216Y66543489D02*
X52894597Y66733965D01*
X52894597Y66733965D02*
X52846978Y66829203D01*
X52846978Y66829203D02*
X52751740Y66924441D01*
X52751740Y66924441D02*
X52608883Y66972060D01*
X52608883Y66972060D02*
X52513645Y66972060D01*
X52513645Y66972060D02*
X52370788Y66924441D01*
X52370788Y66924441D02*
X52323169Y66876822D01*
X65275550Y65362060D02*
X64704122Y65362060D01*
X64989836Y64362060D02*
X64989836Y65362060D01*
X64370788Y64362060D02*
X64370788Y65362060D01*
X64370788Y65362060D02*
X63989836Y65362060D01*
X63989836Y65362060D02*
X63894598Y65314441D01*
X63894598Y65314441D02*
X63846979Y65266822D01*
X63846979Y65266822D02*
X63799360Y65171584D01*
X63799360Y65171584D02*
X63799360Y65028727D01*
X63799360Y65028727D02*
X63846979Y64933489D01*
X63846979Y64933489D02*
X63894598Y64885870D01*
X63894598Y64885870D02*
X63989836Y64838251D01*
X63989836Y64838251D02*
X64370788Y64838251D01*
X62894598Y65362060D02*
X63370788Y65362060D01*
X63370788Y65362060D02*
X63418407Y64885870D01*
X63418407Y64885870D02*
X63370788Y64933489D01*
X63370788Y64933489D02*
X63275550Y64981108D01*
X63275550Y64981108D02*
X63037455Y64981108D01*
X63037455Y64981108D02*
X62942217Y64933489D01*
X62942217Y64933489D02*
X62894598Y64885870D01*
X62894598Y64885870D02*
X62846979Y64790632D01*
X62846979Y64790632D02*
X62846979Y64552537D01*
X62846979Y64552537D02*
X62894598Y64457299D01*
X62894598Y64457299D02*
X62942217Y64409679D01*
X62942217Y64409679D02*
X63037455Y64362060D01*
X63037455Y64362060D02*
X63275550Y64362060D01*
X63275550Y64362060D02*
X63370788Y64409679D01*
X63370788Y64409679D02*
X63418407Y64457299D01*
X61656502Y64457299D02*
X61608883Y64409679D01*
X61608883Y64409679D02*
X61656502Y64362060D01*
X61656502Y64362060D02*
X61704121Y64409679D01*
X61704121Y64409679D02*
X61656502Y64457299D01*
X61656502Y64457299D02*
X61656502Y64362060D01*
X61656502Y64981108D02*
X61608883Y64933489D01*
X61608883Y64933489D02*
X61656502Y64885870D01*
X61656502Y64885870D02*
X61704121Y64933489D01*
X61704121Y64933489D02*
X61656502Y64981108D01*
X61656502Y64981108D02*
X61656502Y64885870D01*
X60466026Y64409679D02*
X60323169Y64362060D01*
X60323169Y64362060D02*
X60085074Y64362060D01*
X60085074Y64362060D02*
X59989836Y64409679D01*
X59989836Y64409679D02*
X59942217Y64457299D01*
X59942217Y64457299D02*
X59894598Y64552537D01*
X59894598Y64552537D02*
X59894598Y64647775D01*
X59894598Y64647775D02*
X59942217Y64743013D01*
X59942217Y64743013D02*
X59989836Y64790632D01*
X59989836Y64790632D02*
X60085074Y64838251D01*
X60085074Y64838251D02*
X60275550Y64885870D01*
X60275550Y64885870D02*
X60370788Y64933489D01*
X60370788Y64933489D02*
X60418407Y64981108D01*
X60418407Y64981108D02*
X60466026Y65076346D01*
X60466026Y65076346D02*
X60466026Y65171584D01*
X60466026Y65171584D02*
X60418407Y65266822D01*
X60418407Y65266822D02*
X60370788Y65314441D01*
X60370788Y65314441D02*
X60275550Y65362060D01*
X60275550Y65362060D02*
X60037455Y65362060D01*
X60037455Y65362060D02*
X59894598Y65314441D01*
X59275550Y64838251D02*
X59275550Y64362060D01*
X59608883Y65362060D02*
X59275550Y64838251D01*
X59275550Y64838251D02*
X58942217Y65362060D01*
X58608883Y64362060D02*
X58608883Y65362060D01*
X58608883Y65362060D02*
X58037455Y64362060D01*
X58037455Y64362060D02*
X58037455Y65362060D01*
X56989836Y64457299D02*
X57037455Y64409679D01*
X57037455Y64409679D02*
X57180312Y64362060D01*
X57180312Y64362060D02*
X57275550Y64362060D01*
X57275550Y64362060D02*
X57418407Y64409679D01*
X57418407Y64409679D02*
X57513645Y64504918D01*
X57513645Y64504918D02*
X57561264Y64600156D01*
X57561264Y64600156D02*
X57608883Y64790632D01*
X57608883Y64790632D02*
X57608883Y64933489D01*
X57608883Y64933489D02*
X57561264Y65123965D01*
X57561264Y65123965D02*
X57513645Y65219203D01*
X57513645Y65219203D02*
X57418407Y65314441D01*
X57418407Y65314441D02*
X57275550Y65362060D01*
X57275550Y65362060D02*
X57180312Y65362060D01*
X57180312Y65362060D02*
X57037455Y65314441D01*
X57037455Y65314441D02*
X56989836Y65266822D01*
X55227931Y64457299D02*
X55275550Y64409679D01*
X55275550Y64409679D02*
X55418407Y64362060D01*
X55418407Y64362060D02*
X55513645Y64362060D01*
X55513645Y64362060D02*
X55656502Y64409679D01*
X55656502Y64409679D02*
X55751740Y64504918D01*
X55751740Y64504918D02*
X55799359Y64600156D01*
X55799359Y64600156D02*
X55846978Y64790632D01*
X55846978Y64790632D02*
X55846978Y64933489D01*
X55846978Y64933489D02*
X55799359Y65123965D01*
X55799359Y65123965D02*
X55751740Y65219203D01*
X55751740Y65219203D02*
X55656502Y65314441D01*
X55656502Y65314441D02*
X55513645Y65362060D01*
X55513645Y65362060D02*
X55418407Y65362060D01*
X55418407Y65362060D02*
X55275550Y65314441D01*
X55275550Y65314441D02*
X55227931Y65266822D01*
X54608883Y65362060D02*
X54418407Y65362060D01*
X54418407Y65362060D02*
X54323169Y65314441D01*
X54323169Y65314441D02*
X54227931Y65219203D01*
X54227931Y65219203D02*
X54180312Y65028727D01*
X54180312Y65028727D02*
X54180312Y64695394D01*
X54180312Y64695394D02*
X54227931Y64504918D01*
X54227931Y64504918D02*
X54323169Y64409679D01*
X54323169Y64409679D02*
X54418407Y64362060D01*
X54418407Y64362060D02*
X54608883Y64362060D01*
X54608883Y64362060D02*
X54704121Y64409679D01*
X54704121Y64409679D02*
X54799359Y64504918D01*
X54799359Y64504918D02*
X54846978Y64695394D01*
X54846978Y64695394D02*
X54846978Y65028727D01*
X54846978Y65028727D02*
X54799359Y65219203D01*
X54799359Y65219203D02*
X54704121Y65314441D01*
X54704121Y65314441D02*
X54608883Y65362060D01*
X53751740Y64362060D02*
X53751740Y65362060D01*
X53751740Y65362060D02*
X53418407Y64647775D01*
X53418407Y64647775D02*
X53085074Y65362060D01*
X53085074Y65362060D02*
X53085074Y64362060D01*
X52608883Y64362060D02*
X52608883Y65362060D01*
X52608883Y65362060D02*
X52227931Y65362060D01*
X52227931Y65362060D02*
X52132693Y65314441D01*
X52132693Y65314441D02*
X52085074Y65266822D01*
X52085074Y65266822D02*
X52037455Y65171584D01*
X52037455Y65171584D02*
X52037455Y65028727D01*
X52037455Y65028727D02*
X52085074Y64933489D01*
X52085074Y64933489D02*
X52132693Y64885870D01*
X52132693Y64885870D02*
X52227931Y64838251D01*
X52227931Y64838251D02*
X52608883Y64838251D01*
X51656502Y64647775D02*
X51180312Y64647775D01*
X51751740Y64362060D02*
X51418407Y65362060D01*
X51418407Y65362060D02*
X51085074Y64362060D01*
X50180312Y64362060D02*
X50513645Y64838251D01*
X50751740Y64362060D02*
X50751740Y65362060D01*
X50751740Y65362060D02*
X50370788Y65362060D01*
X50370788Y65362060D02*
X50275550Y65314441D01*
X50275550Y65314441D02*
X50227931Y65266822D01*
X50227931Y65266822D02*
X50180312Y65171584D01*
X50180312Y65171584D02*
X50180312Y65028727D01*
X50180312Y65028727D02*
X50227931Y64933489D01*
X50227931Y64933489D02*
X50275550Y64885870D01*
X50275550Y64885870D02*
X50370788Y64838251D01*
X50370788Y64838251D02*
X50751740Y64838251D01*
X49799359Y64647775D02*
X49323169Y64647775D01*
X49894597Y64362060D02*
X49561264Y65362060D01*
X49561264Y65362060D02*
X49227931Y64362060D01*
X49037454Y65362060D02*
X48466026Y65362060D01*
X48751740Y64362060D02*
X48751740Y65362060D01*
X47942216Y65362060D02*
X47751740Y65362060D01*
X47751740Y65362060D02*
X47656502Y65314441D01*
X47656502Y65314441D02*
X47561264Y65219203D01*
X47561264Y65219203D02*
X47513645Y65028727D01*
X47513645Y65028727D02*
X47513645Y64695394D01*
X47513645Y64695394D02*
X47561264Y64504918D01*
X47561264Y64504918D02*
X47656502Y64409679D01*
X47656502Y64409679D02*
X47751740Y64362060D01*
X47751740Y64362060D02*
X47942216Y64362060D01*
X47942216Y64362060D02*
X48037454Y64409679D01*
X48037454Y64409679D02*
X48132692Y64504918D01*
X48132692Y64504918D02*
X48180311Y64695394D01*
X48180311Y64695394D02*
X48180311Y65028727D01*
X48180311Y65028727D02*
X48132692Y65219203D01*
X48132692Y65219203D02*
X48037454Y65314441D01*
X48037454Y65314441D02*
X47942216Y65362060D01*
X46513645Y64362060D02*
X46846978Y64838251D01*
X47085073Y64362060D02*
X47085073Y65362060D01*
X47085073Y65362060D02*
X46704121Y65362060D01*
X46704121Y65362060D02*
X46608883Y65314441D01*
X46608883Y65314441D02*
X46561264Y65266822D01*
X46561264Y65266822D02*
X46513645Y65171584D01*
X46513645Y65171584D02*
X46513645Y65028727D01*
X46513645Y65028727D02*
X46561264Y64933489D01*
X46561264Y64933489D02*
X46608883Y64885870D01*
X46608883Y64885870D02*
X46704121Y64838251D01*
X46704121Y64838251D02*
X47085073Y64838251D01*
X65275550Y63752060D02*
X64704122Y63752060D01*
X64989836Y62752060D02*
X64989836Y63752060D01*
X64370788Y62752060D02*
X64370788Y63752060D01*
X64370788Y63752060D02*
X63989836Y63752060D01*
X63989836Y63752060D02*
X63894598Y63704441D01*
X63894598Y63704441D02*
X63846979Y63656822D01*
X63846979Y63656822D02*
X63799360Y63561584D01*
X63799360Y63561584D02*
X63799360Y63418727D01*
X63799360Y63418727D02*
X63846979Y63323489D01*
X63846979Y63323489D02*
X63894598Y63275870D01*
X63894598Y63275870D02*
X63989836Y63228251D01*
X63989836Y63228251D02*
X64370788Y63228251D01*
X62942217Y63752060D02*
X63132693Y63752060D01*
X63132693Y63752060D02*
X63227931Y63704441D01*
X63227931Y63704441D02*
X63275550Y63656822D01*
X63275550Y63656822D02*
X63370788Y63513965D01*
X63370788Y63513965D02*
X63418407Y63323489D01*
X63418407Y63323489D02*
X63418407Y62942537D01*
X63418407Y62942537D02*
X63370788Y62847299D01*
X63370788Y62847299D02*
X63323169Y62799679D01*
X63323169Y62799679D02*
X63227931Y62752060D01*
X63227931Y62752060D02*
X63037455Y62752060D01*
X63037455Y62752060D02*
X62942217Y62799679D01*
X62942217Y62799679D02*
X62894598Y62847299D01*
X62894598Y62847299D02*
X62846979Y62942537D01*
X62846979Y62942537D02*
X62846979Y63180632D01*
X62846979Y63180632D02*
X62894598Y63275870D01*
X62894598Y63275870D02*
X62942217Y63323489D01*
X62942217Y63323489D02*
X63037455Y63371108D01*
X63037455Y63371108D02*
X63227931Y63371108D01*
X63227931Y63371108D02*
X63323169Y63323489D01*
X63323169Y63323489D02*
X63370788Y63275870D01*
X63370788Y63275870D02*
X63418407Y63180632D01*
X61656502Y62847299D02*
X61608883Y62799679D01*
X61608883Y62799679D02*
X61656502Y62752060D01*
X61656502Y62752060D02*
X61704121Y62799679D01*
X61704121Y62799679D02*
X61656502Y62847299D01*
X61656502Y62847299D02*
X61656502Y62752060D01*
X61656502Y63371108D02*
X61608883Y63323489D01*
X61608883Y63323489D02*
X61656502Y63275870D01*
X61656502Y63275870D02*
X61704121Y63323489D01*
X61704121Y63323489D02*
X61656502Y63371108D01*
X61656502Y63371108D02*
X61656502Y63275870D01*
X60561264Y63752060D02*
X60227931Y62752060D01*
X60227931Y62752060D02*
X59894598Y63752060D01*
X58989836Y62847299D02*
X59037455Y62799679D01*
X59037455Y62799679D02*
X59180312Y62752060D01*
X59180312Y62752060D02*
X59275550Y62752060D01*
X59275550Y62752060D02*
X59418407Y62799679D01*
X59418407Y62799679D02*
X59513645Y62894918D01*
X59513645Y62894918D02*
X59561264Y62990156D01*
X59561264Y62990156D02*
X59608883Y63180632D01*
X59608883Y63180632D02*
X59608883Y63323489D01*
X59608883Y63323489D02*
X59561264Y63513965D01*
X59561264Y63513965D02*
X59513645Y63609203D01*
X59513645Y63609203D02*
X59418407Y63704441D01*
X59418407Y63704441D02*
X59275550Y63752060D01*
X59275550Y63752060D02*
X59180312Y63752060D01*
X59180312Y63752060D02*
X59037455Y63704441D01*
X59037455Y63704441D02*
X58989836Y63656822D01*
X58370788Y63752060D02*
X58180312Y63752060D01*
X58180312Y63752060D02*
X58085074Y63704441D01*
X58085074Y63704441D02*
X57989836Y63609203D01*
X57989836Y63609203D02*
X57942217Y63418727D01*
X57942217Y63418727D02*
X57942217Y63085394D01*
X57942217Y63085394D02*
X57989836Y62894918D01*
X57989836Y62894918D02*
X58085074Y62799679D01*
X58085074Y62799679D02*
X58180312Y62752060D01*
X58180312Y62752060D02*
X58370788Y62752060D01*
X58370788Y62752060D02*
X58466026Y62799679D01*
X58466026Y62799679D02*
X58561264Y62894918D01*
X58561264Y62894918D02*
X58608883Y63085394D01*
X58608883Y63085394D02*
X58608883Y63418727D01*
X58608883Y63418727D02*
X58561264Y63609203D01*
X58561264Y63609203D02*
X58466026Y63704441D01*
X58466026Y63704441D02*
X58370788Y63752060D01*
X56894597Y63752060D02*
X56323169Y63752060D01*
X56608883Y62752060D02*
X56608883Y63752060D01*
X55418407Y62752060D02*
X55751740Y63228251D01*
X55989835Y62752060D02*
X55989835Y63752060D01*
X55989835Y63752060D02*
X55608883Y63752060D01*
X55608883Y63752060D02*
X55513645Y63704441D01*
X55513645Y63704441D02*
X55466026Y63656822D01*
X55466026Y63656822D02*
X55418407Y63561584D01*
X55418407Y63561584D02*
X55418407Y63418727D01*
X55418407Y63418727D02*
X55466026Y63323489D01*
X55466026Y63323489D02*
X55513645Y63275870D01*
X55513645Y63275870D02*
X55608883Y63228251D01*
X55608883Y63228251D02*
X55989835Y63228251D01*
X54989835Y62752060D02*
X54989835Y63752060D01*
X65275550Y62142060D02*
X64704122Y62142060D01*
X64989836Y61142060D02*
X64989836Y62142060D01*
X64370788Y61142060D02*
X64370788Y62142060D01*
X64370788Y62142060D02*
X63989836Y62142060D01*
X63989836Y62142060D02*
X63894598Y62094441D01*
X63894598Y62094441D02*
X63846979Y62046822D01*
X63846979Y62046822D02*
X63799360Y61951584D01*
X63799360Y61951584D02*
X63799360Y61808727D01*
X63799360Y61808727D02*
X63846979Y61713489D01*
X63846979Y61713489D02*
X63894598Y61665870D01*
X63894598Y61665870D02*
X63989836Y61618251D01*
X63989836Y61618251D02*
X64370788Y61618251D01*
X63466026Y62142060D02*
X62799360Y62142060D01*
X62799360Y62142060D02*
X63227931Y61142060D01*
X61656502Y61237299D02*
X61608883Y61189679D01*
X61608883Y61189679D02*
X61656502Y61142060D01*
X61656502Y61142060D02*
X61704121Y61189679D01*
X61704121Y61189679D02*
X61656502Y61237299D01*
X61656502Y61237299D02*
X61656502Y61142060D01*
X61656502Y61761108D02*
X61608883Y61713489D01*
X61608883Y61713489D02*
X61656502Y61665870D01*
X61656502Y61665870D02*
X61704121Y61713489D01*
X61704121Y61713489D02*
X61656502Y61761108D01*
X61656502Y61761108D02*
X61656502Y61665870D01*
X60561264Y62142060D02*
X59989836Y62142060D01*
X60275550Y61142060D02*
X60275550Y62142060D01*
X59085074Y61142060D02*
X59418407Y61618251D01*
X59656502Y61142060D02*
X59656502Y62142060D01*
X59656502Y62142060D02*
X59275550Y62142060D01*
X59275550Y62142060D02*
X59180312Y62094441D01*
X59180312Y62094441D02*
X59132693Y62046822D01*
X59132693Y62046822D02*
X59085074Y61951584D01*
X59085074Y61951584D02*
X59085074Y61808727D01*
X59085074Y61808727D02*
X59132693Y61713489D01*
X59132693Y61713489D02*
X59180312Y61665870D01*
X59180312Y61665870D02*
X59275550Y61618251D01*
X59275550Y61618251D02*
X59656502Y61618251D01*
X58704121Y61427775D02*
X58227931Y61427775D01*
X58799359Y61142060D02*
X58466026Y62142060D01*
X58466026Y62142060D02*
X58132693Y61142060D01*
X57799359Y61142060D02*
X57799359Y62142060D01*
X57799359Y62142060D02*
X57561264Y62142060D01*
X57561264Y62142060D02*
X57418407Y62094441D01*
X57418407Y62094441D02*
X57323169Y61999203D01*
X57323169Y61999203D02*
X57275550Y61903965D01*
X57275550Y61903965D02*
X57227931Y61713489D01*
X57227931Y61713489D02*
X57227931Y61570632D01*
X57227931Y61570632D02*
X57275550Y61380156D01*
X57275550Y61380156D02*
X57323169Y61284918D01*
X57323169Y61284918D02*
X57418407Y61189679D01*
X57418407Y61189679D02*
X57561264Y61142060D01*
X57561264Y61142060D02*
X57799359Y61142060D01*
X56799359Y61142060D02*
X56799359Y62142060D01*
X56466026Y62142060D02*
X55894598Y62142060D01*
X56180312Y61142060D02*
X56180312Y62142060D01*
X55561264Y61142060D02*
X55561264Y62142060D01*
X54894598Y62142060D02*
X54704122Y62142060D01*
X54704122Y62142060D02*
X54608884Y62094441D01*
X54608884Y62094441D02*
X54513646Y61999203D01*
X54513646Y61999203D02*
X54466027Y61808727D01*
X54466027Y61808727D02*
X54466027Y61475394D01*
X54466027Y61475394D02*
X54513646Y61284918D01*
X54513646Y61284918D02*
X54608884Y61189679D01*
X54608884Y61189679D02*
X54704122Y61142060D01*
X54704122Y61142060D02*
X54894598Y61142060D01*
X54894598Y61142060D02*
X54989836Y61189679D01*
X54989836Y61189679D02*
X55085074Y61284918D01*
X55085074Y61284918D02*
X55132693Y61475394D01*
X55132693Y61475394D02*
X55132693Y61808727D01*
X55132693Y61808727D02*
X55085074Y61999203D01*
X55085074Y61999203D02*
X54989836Y62094441D01*
X54989836Y62094441D02*
X54894598Y62142060D01*
X54037455Y61142060D02*
X54037455Y62142060D01*
X54037455Y62142060D02*
X53466027Y61142060D01*
X53466027Y61142060D02*
X53466027Y62142060D01*
X53037455Y61427775D02*
X52561265Y61427775D01*
X53132693Y61142060D02*
X52799360Y62142060D01*
X52799360Y62142060D02*
X52466027Y61142060D01*
X51656503Y61142060D02*
X52132693Y61142060D01*
X52132693Y61142060D02*
X52132693Y62142060D01*
X50608883Y61189679D02*
X50466026Y61142060D01*
X50466026Y61142060D02*
X50227931Y61142060D01*
X50227931Y61142060D02*
X50132693Y61189679D01*
X50132693Y61189679D02*
X50085074Y61237299D01*
X50085074Y61237299D02*
X50037455Y61332537D01*
X50037455Y61332537D02*
X50037455Y61427775D01*
X50037455Y61427775D02*
X50085074Y61523013D01*
X50085074Y61523013D02*
X50132693Y61570632D01*
X50132693Y61570632D02*
X50227931Y61618251D01*
X50227931Y61618251D02*
X50418407Y61665870D01*
X50418407Y61665870D02*
X50513645Y61713489D01*
X50513645Y61713489D02*
X50561264Y61761108D01*
X50561264Y61761108D02*
X50608883Y61856346D01*
X50608883Y61856346D02*
X50608883Y61951584D01*
X50608883Y61951584D02*
X50561264Y62046822D01*
X50561264Y62046822D02*
X50513645Y62094441D01*
X50513645Y62094441D02*
X50418407Y62142060D01*
X50418407Y62142060D02*
X50180312Y62142060D01*
X50180312Y62142060D02*
X50037455Y62094441D01*
X49418407Y61618251D02*
X49418407Y61142060D01*
X49751740Y62142060D02*
X49418407Y61618251D01*
X49418407Y61618251D02*
X49085074Y62142060D01*
X48751740Y61142060D02*
X48751740Y62142060D01*
X48751740Y62142060D02*
X48180312Y61142060D01*
X48180312Y61142060D02*
X48180312Y62142060D01*
X47132693Y61237299D02*
X47180312Y61189679D01*
X47180312Y61189679D02*
X47323169Y61142060D01*
X47323169Y61142060D02*
X47418407Y61142060D01*
X47418407Y61142060D02*
X47561264Y61189679D01*
X47561264Y61189679D02*
X47656502Y61284918D01*
X47656502Y61284918D02*
X47704121Y61380156D01*
X47704121Y61380156D02*
X47751740Y61570632D01*
X47751740Y61570632D02*
X47751740Y61713489D01*
X47751740Y61713489D02*
X47704121Y61903965D01*
X47704121Y61903965D02*
X47656502Y61999203D01*
X47656502Y61999203D02*
X47561264Y62094441D01*
X47561264Y62094441D02*
X47418407Y62142060D01*
X47418407Y62142060D02*
X47323169Y62142060D01*
X47323169Y62142060D02*
X47180312Y62094441D01*
X47180312Y62094441D02*
X47132693Y62046822D01*
X65275550Y60532060D02*
X64704122Y60532060D01*
X64989836Y59532060D02*
X64989836Y60532060D01*
X64370788Y59532060D02*
X64370788Y60532060D01*
X64370788Y60532060D02*
X63989836Y60532060D01*
X63989836Y60532060D02*
X63894598Y60484441D01*
X63894598Y60484441D02*
X63846979Y60436822D01*
X63846979Y60436822D02*
X63799360Y60341584D01*
X63799360Y60341584D02*
X63799360Y60198727D01*
X63799360Y60198727D02*
X63846979Y60103489D01*
X63846979Y60103489D02*
X63894598Y60055870D01*
X63894598Y60055870D02*
X63989836Y60008251D01*
X63989836Y60008251D02*
X64370788Y60008251D01*
X63227931Y60103489D02*
X63323169Y60151108D01*
X63323169Y60151108D02*
X63370788Y60198727D01*
X63370788Y60198727D02*
X63418407Y60293965D01*
X63418407Y60293965D02*
X63418407Y60341584D01*
X63418407Y60341584D02*
X63370788Y60436822D01*
X63370788Y60436822D02*
X63323169Y60484441D01*
X63323169Y60484441D02*
X63227931Y60532060D01*
X63227931Y60532060D02*
X63037455Y60532060D01*
X63037455Y60532060D02*
X62942217Y60484441D01*
X62942217Y60484441D02*
X62894598Y60436822D01*
X62894598Y60436822D02*
X62846979Y60341584D01*
X62846979Y60341584D02*
X62846979Y60293965D01*
X62846979Y60293965D02*
X62894598Y60198727D01*
X62894598Y60198727D02*
X62942217Y60151108D01*
X62942217Y60151108D02*
X63037455Y60103489D01*
X63037455Y60103489D02*
X63227931Y60103489D01*
X63227931Y60103489D02*
X63323169Y60055870D01*
X63323169Y60055870D02*
X63370788Y60008251D01*
X63370788Y60008251D02*
X63418407Y59913013D01*
X63418407Y59913013D02*
X63418407Y59722537D01*
X63418407Y59722537D02*
X63370788Y59627299D01*
X63370788Y59627299D02*
X63323169Y59579679D01*
X63323169Y59579679D02*
X63227931Y59532060D01*
X63227931Y59532060D02*
X63037455Y59532060D01*
X63037455Y59532060D02*
X62942217Y59579679D01*
X62942217Y59579679D02*
X62894598Y59627299D01*
X62894598Y59627299D02*
X62846979Y59722537D01*
X62846979Y59722537D02*
X62846979Y59913013D01*
X62846979Y59913013D02*
X62894598Y60008251D01*
X62894598Y60008251D02*
X62942217Y60055870D01*
X62942217Y60055870D02*
X63037455Y60103489D01*
X61656502Y59627299D02*
X61608883Y59579679D01*
X61608883Y59579679D02*
X61656502Y59532060D01*
X61656502Y59532060D02*
X61704121Y59579679D01*
X61704121Y59579679D02*
X61656502Y59627299D01*
X61656502Y59627299D02*
X61656502Y59532060D01*
X61656502Y60151108D02*
X61608883Y60103489D01*
X61608883Y60103489D02*
X61656502Y60055870D01*
X61656502Y60055870D02*
X61704121Y60103489D01*
X61704121Y60103489D02*
X61656502Y60151108D01*
X61656502Y60151108D02*
X61656502Y60055870D01*
X60418407Y60055870D02*
X60085074Y60055870D01*
X59942217Y59532060D02*
X60418407Y59532060D01*
X60418407Y59532060D02*
X60418407Y60532060D01*
X60418407Y60532060D02*
X59942217Y60532060D01*
X59608883Y60532060D02*
X58942217Y59532060D01*
X58942217Y60532060D02*
X59608883Y59532060D01*
X58704121Y60532060D02*
X58132693Y60532060D01*
X58418407Y59532060D02*
X58418407Y60532060D01*
X57799359Y60055870D02*
X57466026Y60055870D01*
X57323169Y59532060D02*
X57799359Y59532060D01*
X57799359Y59532060D02*
X57799359Y60532060D01*
X57799359Y60532060D02*
X57323169Y60532060D01*
X56323169Y59532060D02*
X56656502Y60008251D01*
X56894597Y59532060D02*
X56894597Y60532060D01*
X56894597Y60532060D02*
X56513645Y60532060D01*
X56513645Y60532060D02*
X56418407Y60484441D01*
X56418407Y60484441D02*
X56370788Y60436822D01*
X56370788Y60436822D02*
X56323169Y60341584D01*
X56323169Y60341584D02*
X56323169Y60198727D01*
X56323169Y60198727D02*
X56370788Y60103489D01*
X56370788Y60103489D02*
X56418407Y60055870D01*
X56418407Y60055870D02*
X56513645Y60008251D01*
X56513645Y60008251D02*
X56894597Y60008251D01*
X55894597Y59532060D02*
X55894597Y60532060D01*
X55894597Y60532060D02*
X55323169Y59532060D01*
X55323169Y59532060D02*
X55323169Y60532060D01*
X54894597Y59817775D02*
X54418407Y59817775D01*
X54989835Y59532060D02*
X54656502Y60532060D01*
X54656502Y60532060D02*
X54323169Y59532060D01*
X53513645Y59532060D02*
X53989835Y59532060D01*
X53989835Y59532060D02*
X53989835Y60532060D01*
X52418406Y59532060D02*
X52418406Y60532060D01*
X52418406Y60532060D02*
X52085073Y59817775D01*
X52085073Y59817775D02*
X51751740Y60532060D01*
X51751740Y60532060D02*
X51751740Y59532060D01*
X51085073Y60532060D02*
X50894597Y60532060D01*
X50894597Y60532060D02*
X50799359Y60484441D01*
X50799359Y60484441D02*
X50704121Y60389203D01*
X50704121Y60389203D02*
X50656502Y60198727D01*
X50656502Y60198727D02*
X50656502Y59865394D01*
X50656502Y59865394D02*
X50704121Y59674918D01*
X50704121Y59674918D02*
X50799359Y59579679D01*
X50799359Y59579679D02*
X50894597Y59532060D01*
X50894597Y59532060D02*
X51085073Y59532060D01*
X51085073Y59532060D02*
X51180311Y59579679D01*
X51180311Y59579679D02*
X51275549Y59674918D01*
X51275549Y59674918D02*
X51323168Y59865394D01*
X51323168Y59865394D02*
X51323168Y60198727D01*
X51323168Y60198727D02*
X51275549Y60389203D01*
X51275549Y60389203D02*
X51180311Y60484441D01*
X51180311Y60484441D02*
X51085073Y60532060D01*
X50227930Y59532060D02*
X50227930Y60532060D01*
X50227930Y60532060D02*
X49989835Y60532060D01*
X49989835Y60532060D02*
X49846978Y60484441D01*
X49846978Y60484441D02*
X49751740Y60389203D01*
X49751740Y60389203D02*
X49704121Y60293965D01*
X49704121Y60293965D02*
X49656502Y60103489D01*
X49656502Y60103489D02*
X49656502Y59960632D01*
X49656502Y59960632D02*
X49704121Y59770156D01*
X49704121Y59770156D02*
X49751740Y59674918D01*
X49751740Y59674918D02*
X49846978Y59579679D01*
X49846978Y59579679D02*
X49989835Y59532060D01*
X49989835Y59532060D02*
X50227930Y59532060D01*
X48466025Y59532060D02*
X48466025Y60532060D01*
X48466025Y60532060D02*
X48085073Y60532060D01*
X48085073Y60532060D02*
X47989835Y60484441D01*
X47989835Y60484441D02*
X47942216Y60436822D01*
X47942216Y60436822D02*
X47894597Y60341584D01*
X47894597Y60341584D02*
X47894597Y60198727D01*
X47894597Y60198727D02*
X47942216Y60103489D01*
X47942216Y60103489D02*
X47989835Y60055870D01*
X47989835Y60055870D02*
X48085073Y60008251D01*
X48085073Y60008251D02*
X48466025Y60008251D01*
X47275549Y60532060D02*
X47085073Y60532060D01*
X47085073Y60532060D02*
X46989835Y60484441D01*
X46989835Y60484441D02*
X46894597Y60389203D01*
X46894597Y60389203D02*
X46846978Y60198727D01*
X46846978Y60198727D02*
X46846978Y59865394D01*
X46846978Y59865394D02*
X46894597Y59674918D01*
X46894597Y59674918D02*
X46989835Y59579679D01*
X46989835Y59579679D02*
X47085073Y59532060D01*
X47085073Y59532060D02*
X47275549Y59532060D01*
X47275549Y59532060D02*
X47370787Y59579679D01*
X47370787Y59579679D02*
X47466025Y59674918D01*
X47466025Y59674918D02*
X47513644Y59865394D01*
X47513644Y59865394D02*
X47513644Y60198727D01*
X47513644Y60198727D02*
X47466025Y60389203D01*
X47466025Y60389203D02*
X47370787Y60484441D01*
X47370787Y60484441D02*
X47275549Y60532060D01*
X46466025Y59579679D02*
X46323168Y59532060D01*
X46323168Y59532060D02*
X46085073Y59532060D01*
X46085073Y59532060D02*
X45989835Y59579679D01*
X45989835Y59579679D02*
X45942216Y59627299D01*
X45942216Y59627299D02*
X45894597Y59722537D01*
X45894597Y59722537D02*
X45894597Y59817775D01*
X45894597Y59817775D02*
X45942216Y59913013D01*
X45942216Y59913013D02*
X45989835Y59960632D01*
X45989835Y59960632D02*
X46085073Y60008251D01*
X46085073Y60008251D02*
X46275549Y60055870D01*
X46275549Y60055870D02*
X46370787Y60103489D01*
X46370787Y60103489D02*
X46418406Y60151108D01*
X46418406Y60151108D02*
X46466025Y60246346D01*
X46466025Y60246346D02*
X46466025Y60341584D01*
X46466025Y60341584D02*
X46418406Y60436822D01*
X46418406Y60436822D02*
X46370787Y60484441D01*
X46370787Y60484441D02*
X46275549Y60532060D01*
X46275549Y60532060D02*
X46037454Y60532060D01*
X46037454Y60532060D02*
X45894597Y60484441D01*
X45608882Y60532060D02*
X45037454Y60532060D01*
X45323168Y59532060D02*
X45323168Y60532060D01*
X44085072Y60532060D02*
X43751739Y59532060D01*
X43751739Y59532060D02*
X43418406Y60532060D01*
X42513644Y59627299D02*
X42561263Y59579679D01*
X42561263Y59579679D02*
X42704120Y59532060D01*
X42704120Y59532060D02*
X42799358Y59532060D01*
X42799358Y59532060D02*
X42942215Y59579679D01*
X42942215Y59579679D02*
X43037453Y59674918D01*
X43037453Y59674918D02*
X43085072Y59770156D01*
X43085072Y59770156D02*
X43132691Y59960632D01*
X43132691Y59960632D02*
X43132691Y60103489D01*
X43132691Y60103489D02*
X43085072Y60293965D01*
X43085072Y60293965D02*
X43037453Y60389203D01*
X43037453Y60389203D02*
X42942215Y60484441D01*
X42942215Y60484441D02*
X42799358Y60532060D01*
X42799358Y60532060D02*
X42704120Y60532060D01*
X42704120Y60532060D02*
X42561263Y60484441D01*
X42561263Y60484441D02*
X42513644Y60436822D01*
X42132691Y59817775D02*
X41656501Y59817775D01*
X42227929Y59532060D02*
X41894596Y60532060D01*
X41894596Y60532060D02*
X41561263Y59532060D01*
D10*
X68384818Y12244285D02*
X68384818Y12815713D01*
X68384818Y12529999D02*
X67384818Y12529999D01*
X67384818Y12529999D02*
X67527675Y12625237D01*
X67527675Y12625237D02*
X67622913Y12720475D01*
X67622913Y12720475D02*
X67670532Y12815713D01*
D11*
X36782380Y77526489D02*
X36858570Y77564584D01*
X36858570Y77564584D02*
X36972856Y77564584D01*
X36972856Y77564584D02*
X37087142Y77526489D01*
X37087142Y77526489D02*
X37163332Y77450299D01*
X37163332Y77450299D02*
X37201427Y77374108D01*
X37201427Y77374108D02*
X37239523Y77221727D01*
X37239523Y77221727D02*
X37239523Y77107441D01*
X37239523Y77107441D02*
X37201427Y76955060D01*
X37201427Y76955060D02*
X37163332Y76878870D01*
X37163332Y76878870D02*
X37087142Y76802679D01*
X37087142Y76802679D02*
X36972856Y76764584D01*
X36972856Y76764584D02*
X36896665Y76764584D01*
X36896665Y76764584D02*
X36782380Y76802679D01*
X36782380Y76802679D02*
X36744284Y76840775D01*
X36744284Y76840775D02*
X36744284Y77107441D01*
X36744284Y77107441D02*
X36896665Y77107441D01*
X36401427Y76764584D02*
X36401427Y77564584D01*
X36401427Y77564584D02*
X35944284Y76764584D01*
X35944284Y76764584D02*
X35944284Y77564584D01*
X35563332Y76764584D02*
X35563332Y77564584D01*
X35563332Y77564584D02*
X35372856Y77564584D01*
X35372856Y77564584D02*
X35258570Y77526489D01*
X35258570Y77526489D02*
X35182380Y77450299D01*
X35182380Y77450299D02*
X35144285Y77374108D01*
X35144285Y77374108D02*
X35106189Y77221727D01*
X35106189Y77221727D02*
X35106189Y77107441D01*
X35106189Y77107441D02*
X35144285Y76955060D01*
X35144285Y76955060D02*
X35182380Y76878870D01*
X35182380Y76878870D02*
X35258570Y76802679D01*
X35258570Y76802679D02*
X35372856Y76764584D01*
X35372856Y76764584D02*
X35563332Y76764584D01*
X34153808Y77069346D02*
X33544285Y77069346D01*
X32744285Y76764584D02*
X33201428Y76764584D01*
X32972856Y76764584D02*
X32972856Y77564584D01*
X32972856Y77564584D02*
X33049047Y77450299D01*
X33049047Y77450299D02*
X33125237Y77374108D01*
X33125237Y77374108D02*
X33201428Y77336013D01*
X32439523Y77488394D02*
X32401427Y77526489D01*
X32401427Y77526489D02*
X32325237Y77564584D01*
X32325237Y77564584D02*
X32134761Y77564584D01*
X32134761Y77564584D02*
X32058570Y77526489D01*
X32058570Y77526489D02*
X32020475Y77488394D01*
X32020475Y77488394D02*
X31982380Y77412203D01*
X31982380Y77412203D02*
X31982380Y77336013D01*
X31982380Y77336013D02*
X32020475Y77221727D01*
X32020475Y77221727D02*
X32477618Y76764584D01*
X32477618Y76764584D02*
X31982380Y76764584D01*
X31029998Y77069346D02*
X30420475Y77069346D01*
X29658570Y77564584D02*
X30039522Y77564584D01*
X30039522Y77564584D02*
X30077618Y77183632D01*
X30077618Y77183632D02*
X30039522Y77221727D01*
X30039522Y77221727D02*
X29963332Y77259822D01*
X29963332Y77259822D02*
X29772856Y77259822D01*
X29772856Y77259822D02*
X29696665Y77221727D01*
X29696665Y77221727D02*
X29658570Y77183632D01*
X29658570Y77183632D02*
X29620475Y77107441D01*
X29620475Y77107441D02*
X29620475Y76916965D01*
X29620475Y76916965D02*
X29658570Y76840775D01*
X29658570Y76840775D02*
X29696665Y76802679D01*
X29696665Y76802679D02*
X29772856Y76764584D01*
X29772856Y76764584D02*
X29963332Y76764584D01*
X29963332Y76764584D02*
X30039522Y76802679D01*
X30039522Y76802679D02*
X30077618Y76840775D01*
D10*
X14318151Y9415714D02*
X14984818Y9415714D01*
X13937199Y9653809D02*
X14651484Y9891904D01*
X14651484Y9891904D02*
X14651484Y9272857D01*
X13984818Y8701428D02*
X13984818Y8606190D01*
X13984818Y8606190D02*
X14032437Y8510952D01*
X14032437Y8510952D02*
X14080056Y8463333D01*
X14080056Y8463333D02*
X14175294Y8415714D01*
X14175294Y8415714D02*
X14365770Y8368095D01*
X14365770Y8368095D02*
X14603865Y8368095D01*
X14603865Y8368095D02*
X14794341Y8415714D01*
X14794341Y8415714D02*
X14889579Y8463333D01*
X14889579Y8463333D02*
X14937199Y8510952D01*
X14937199Y8510952D02*
X14984818Y8606190D01*
X14984818Y8606190D02*
X14984818Y8701428D01*
X14984818Y8701428D02*
X14937199Y8796666D01*
X14937199Y8796666D02*
X14889579Y8844285D01*
X14889579Y8844285D02*
X14794341Y8891904D01*
X14794341Y8891904D02*
X14603865Y8939523D01*
X14603865Y8939523D02*
X14365770Y8939523D01*
X14365770Y8939523D02*
X14175294Y8891904D01*
X14175294Y8891904D02*
X14080056Y8844285D01*
X14080056Y8844285D02*
X14032437Y8796666D01*
X14032437Y8796666D02*
X13984818Y8701428D01*
D12*
X454999Y7129999D02*
G75*
G03*
X5954999Y1629999I5500000J0D01*
G01*
X75454999Y1629999D02*
G75*
G03*
X80454999Y6629999I0J5000000D01*
G01*
X75454999Y1629999D02*
X5954999Y1629999D01*
X5454999Y81629999D02*
G75*
G03*
X454999Y76629999I0J-5000000D01*
G01*
X80454999Y76129999D02*
G75*
G03*
X74954999Y81629999I-5500000J0D01*
G01*
X5454999Y81629999D02*
X74954999Y81629999D01*
X80454999Y6629999D02*
X80454999Y76129999D01*
X454999Y76629999D02*
X454999Y7129999D01*
D13*
X10230999Y3129999D02*
G75*
G03*
X9078999Y3129999I-576000J0D01*
G01*
X9078999Y3129999D02*
G75*
G03*
X10230999Y3129999I576000J0D01*
G01*
X72830999Y80129999D02*
G75*
G03*
X71678999Y80129999I-576000J0D01*
G01*
X71678999Y80129999D02*
G75*
G03*
X72830999Y80129999I576000J0D01*
G01*
X72830999Y3129999D02*
G75*
G03*
X71678999Y3129999I-576000J0D01*
G01*
X71678999Y3129999D02*
G75*
G03*
X72830999Y3129999I576000J0D01*
G01*
M02*
