G04 #@! TF.GenerationSoftware,KiCad,Pcbnew,(5.1.12-1-10_14)*
G04 #@! TF.CreationDate,2022-03-12T00:20:55-08:00*
G04 #@! TF.ProjectId,as3340,61733333-3430-42e6-9b69-6361645f7063,rev?*
G04 #@! TF.SameCoordinates,Original*
G04 #@! TF.FileFunction,Paste,Top*
G04 #@! TF.FilePolarity,Positive*
%FSLAX46Y46*%
G04 Gerber Fmt 4.6, Leading zero omitted, Abs format (unit mm)*
G04 Created by KiCad (PCBNEW (5.1.12-1-10_14)) date 2022-03-12 00:20:55*
%MOMM*%
%LPD*%
G01*
G04 APERTURE LIST*
G04 #@! TA.AperFunction,Profile*
%ADD10C,0.050000*%
G04 #@! TD*
G04 #@! TA.AperFunction,Profile*
%ADD11C,0.150000*%
G04 #@! TD*
%ADD12R,0.900000X1.200000*%
%ADD13R,0.600000X0.450000*%
G04 APERTURE END LIST*
D10*
X76376000Y-98400000D02*
G75*
G03*
X76376000Y-98400000I-576000J0D01*
G01*
X138376000Y-27000000D02*
G75*
G03*
X138376000Y-27000000I-576000J0D01*
G01*
X75776000Y-27000000D02*
G75*
G03*
X75776000Y-27000000I-576000J0D01*
G01*
D11*
X147000000Y-100500000D02*
X147000000Y-31000000D01*
X67000000Y-30500000D02*
X67000000Y-100000000D01*
X142000000Y-105500000D02*
X72500000Y-105500000D01*
X72500000Y-105500000D02*
G75*
G02*
X67000000Y-100000000I0J5500000D01*
G01*
X147000000Y-100500000D02*
G75*
G02*
X142000000Y-105500000I-5000000J0D01*
G01*
X72000000Y-25500000D02*
X141500000Y-25500000D01*
X67000000Y-30500000D02*
G75*
G02*
X72000000Y-25500000I5000000J0D01*
G01*
X141500000Y-25500000D02*
G75*
G02*
X147000000Y-31000000I0J-5500000D01*
G01*
G36*
G01*
X79925000Y-64125000D02*
X79925000Y-63925000D01*
G75*
G02*
X80025000Y-63825000I100000J0D01*
G01*
X81300000Y-63825000D01*
G75*
G02*
X81400000Y-63925000I0J-100000D01*
G01*
X81400000Y-64125000D01*
G75*
G02*
X81300000Y-64225000I-100000J0D01*
G01*
X80025000Y-64225000D01*
G75*
G02*
X79925000Y-64125000I0J100000D01*
G01*
G37*
G36*
G01*
X79925000Y-64775000D02*
X79925000Y-64575000D01*
G75*
G02*
X80025000Y-64475000I100000J0D01*
G01*
X81300000Y-64475000D01*
G75*
G02*
X81400000Y-64575000I0J-100000D01*
G01*
X81400000Y-64775000D01*
G75*
G02*
X81300000Y-64875000I-100000J0D01*
G01*
X80025000Y-64875000D01*
G75*
G02*
X79925000Y-64775000I0J100000D01*
G01*
G37*
G36*
G01*
X79925000Y-65425000D02*
X79925000Y-65225000D01*
G75*
G02*
X80025000Y-65125000I100000J0D01*
G01*
X81300000Y-65125000D01*
G75*
G02*
X81400000Y-65225000I0J-100000D01*
G01*
X81400000Y-65425000D01*
G75*
G02*
X81300000Y-65525000I-100000J0D01*
G01*
X80025000Y-65525000D01*
G75*
G02*
X79925000Y-65425000I0J100000D01*
G01*
G37*
G36*
G01*
X79925000Y-66075000D02*
X79925000Y-65875000D01*
G75*
G02*
X80025000Y-65775000I100000J0D01*
G01*
X81300000Y-65775000D01*
G75*
G02*
X81400000Y-65875000I0J-100000D01*
G01*
X81400000Y-66075000D01*
G75*
G02*
X81300000Y-66175000I-100000J0D01*
G01*
X80025000Y-66175000D01*
G75*
G02*
X79925000Y-66075000I0J100000D01*
G01*
G37*
G36*
G01*
X79925000Y-66725000D02*
X79925000Y-66525000D01*
G75*
G02*
X80025000Y-66425000I100000J0D01*
G01*
X81300000Y-66425000D01*
G75*
G02*
X81400000Y-66525000I0J-100000D01*
G01*
X81400000Y-66725000D01*
G75*
G02*
X81300000Y-66825000I-100000J0D01*
G01*
X80025000Y-66825000D01*
G75*
G02*
X79925000Y-66725000I0J100000D01*
G01*
G37*
G36*
G01*
X79925000Y-67375000D02*
X79925000Y-67175000D01*
G75*
G02*
X80025000Y-67075000I100000J0D01*
G01*
X81300000Y-67075000D01*
G75*
G02*
X81400000Y-67175000I0J-100000D01*
G01*
X81400000Y-67375000D01*
G75*
G02*
X81300000Y-67475000I-100000J0D01*
G01*
X80025000Y-67475000D01*
G75*
G02*
X79925000Y-67375000I0J100000D01*
G01*
G37*
G36*
G01*
X79925000Y-68025000D02*
X79925000Y-67825000D01*
G75*
G02*
X80025000Y-67725000I100000J0D01*
G01*
X81300000Y-67725000D01*
G75*
G02*
X81400000Y-67825000I0J-100000D01*
G01*
X81400000Y-68025000D01*
G75*
G02*
X81300000Y-68125000I-100000J0D01*
G01*
X80025000Y-68125000D01*
G75*
G02*
X79925000Y-68025000I0J100000D01*
G01*
G37*
G36*
G01*
X79925000Y-68675000D02*
X79925000Y-68475000D01*
G75*
G02*
X80025000Y-68375000I100000J0D01*
G01*
X81300000Y-68375000D01*
G75*
G02*
X81400000Y-68475000I0J-100000D01*
G01*
X81400000Y-68675000D01*
G75*
G02*
X81300000Y-68775000I-100000J0D01*
G01*
X80025000Y-68775000D01*
G75*
G02*
X79925000Y-68675000I0J100000D01*
G01*
G37*
G36*
G01*
X79925000Y-69325000D02*
X79925000Y-69125000D01*
G75*
G02*
X80025000Y-69025000I100000J0D01*
G01*
X81300000Y-69025000D01*
G75*
G02*
X81400000Y-69125000I0J-100000D01*
G01*
X81400000Y-69325000D01*
G75*
G02*
X81300000Y-69425000I-100000J0D01*
G01*
X80025000Y-69425000D01*
G75*
G02*
X79925000Y-69325000I0J100000D01*
G01*
G37*
G36*
G01*
X79925000Y-69975000D02*
X79925000Y-69775000D01*
G75*
G02*
X80025000Y-69675000I100000J0D01*
G01*
X81300000Y-69675000D01*
G75*
G02*
X81400000Y-69775000I0J-100000D01*
G01*
X81400000Y-69975000D01*
G75*
G02*
X81300000Y-70075000I-100000J0D01*
G01*
X80025000Y-70075000D01*
G75*
G02*
X79925000Y-69975000I0J100000D01*
G01*
G37*
G36*
G01*
X79925000Y-70625000D02*
X79925000Y-70425000D01*
G75*
G02*
X80025000Y-70325000I100000J0D01*
G01*
X81300000Y-70325000D01*
G75*
G02*
X81400000Y-70425000I0J-100000D01*
G01*
X81400000Y-70625000D01*
G75*
G02*
X81300000Y-70725000I-100000J0D01*
G01*
X80025000Y-70725000D01*
G75*
G02*
X79925000Y-70625000I0J100000D01*
G01*
G37*
G36*
G01*
X79925000Y-71275000D02*
X79925000Y-71075000D01*
G75*
G02*
X80025000Y-70975000I100000J0D01*
G01*
X81300000Y-70975000D01*
G75*
G02*
X81400000Y-71075000I0J-100000D01*
G01*
X81400000Y-71275000D01*
G75*
G02*
X81300000Y-71375000I-100000J0D01*
G01*
X80025000Y-71375000D01*
G75*
G02*
X79925000Y-71275000I0J100000D01*
G01*
G37*
G36*
G01*
X74200000Y-71275000D02*
X74200000Y-71075000D01*
G75*
G02*
X74300000Y-70975000I100000J0D01*
G01*
X75575000Y-70975000D01*
G75*
G02*
X75675000Y-71075000I0J-100000D01*
G01*
X75675000Y-71275000D01*
G75*
G02*
X75575000Y-71375000I-100000J0D01*
G01*
X74300000Y-71375000D01*
G75*
G02*
X74200000Y-71275000I0J100000D01*
G01*
G37*
G36*
G01*
X74200000Y-70625000D02*
X74200000Y-70425000D01*
G75*
G02*
X74300000Y-70325000I100000J0D01*
G01*
X75575000Y-70325000D01*
G75*
G02*
X75675000Y-70425000I0J-100000D01*
G01*
X75675000Y-70625000D01*
G75*
G02*
X75575000Y-70725000I-100000J0D01*
G01*
X74300000Y-70725000D01*
G75*
G02*
X74200000Y-70625000I0J100000D01*
G01*
G37*
G36*
G01*
X74200000Y-69975000D02*
X74200000Y-69775000D01*
G75*
G02*
X74300000Y-69675000I100000J0D01*
G01*
X75575000Y-69675000D01*
G75*
G02*
X75675000Y-69775000I0J-100000D01*
G01*
X75675000Y-69975000D01*
G75*
G02*
X75575000Y-70075000I-100000J0D01*
G01*
X74300000Y-70075000D01*
G75*
G02*
X74200000Y-69975000I0J100000D01*
G01*
G37*
G36*
G01*
X74200000Y-69325000D02*
X74200000Y-69125000D01*
G75*
G02*
X74300000Y-69025000I100000J0D01*
G01*
X75575000Y-69025000D01*
G75*
G02*
X75675000Y-69125000I0J-100000D01*
G01*
X75675000Y-69325000D01*
G75*
G02*
X75575000Y-69425000I-100000J0D01*
G01*
X74300000Y-69425000D01*
G75*
G02*
X74200000Y-69325000I0J100000D01*
G01*
G37*
G36*
G01*
X74200000Y-68675000D02*
X74200000Y-68475000D01*
G75*
G02*
X74300000Y-68375000I100000J0D01*
G01*
X75575000Y-68375000D01*
G75*
G02*
X75675000Y-68475000I0J-100000D01*
G01*
X75675000Y-68675000D01*
G75*
G02*
X75575000Y-68775000I-100000J0D01*
G01*
X74300000Y-68775000D01*
G75*
G02*
X74200000Y-68675000I0J100000D01*
G01*
G37*
G36*
G01*
X74200000Y-68025000D02*
X74200000Y-67825000D01*
G75*
G02*
X74300000Y-67725000I100000J0D01*
G01*
X75575000Y-67725000D01*
G75*
G02*
X75675000Y-67825000I0J-100000D01*
G01*
X75675000Y-68025000D01*
G75*
G02*
X75575000Y-68125000I-100000J0D01*
G01*
X74300000Y-68125000D01*
G75*
G02*
X74200000Y-68025000I0J100000D01*
G01*
G37*
G36*
G01*
X74200000Y-67375000D02*
X74200000Y-67175000D01*
G75*
G02*
X74300000Y-67075000I100000J0D01*
G01*
X75575000Y-67075000D01*
G75*
G02*
X75675000Y-67175000I0J-100000D01*
G01*
X75675000Y-67375000D01*
G75*
G02*
X75575000Y-67475000I-100000J0D01*
G01*
X74300000Y-67475000D01*
G75*
G02*
X74200000Y-67375000I0J100000D01*
G01*
G37*
G36*
G01*
X74200000Y-66725000D02*
X74200000Y-66525000D01*
G75*
G02*
X74300000Y-66425000I100000J0D01*
G01*
X75575000Y-66425000D01*
G75*
G02*
X75675000Y-66525000I0J-100000D01*
G01*
X75675000Y-66725000D01*
G75*
G02*
X75575000Y-66825000I-100000J0D01*
G01*
X74300000Y-66825000D01*
G75*
G02*
X74200000Y-66725000I0J100000D01*
G01*
G37*
G36*
G01*
X74200000Y-66075000D02*
X74200000Y-65875000D01*
G75*
G02*
X74300000Y-65775000I100000J0D01*
G01*
X75575000Y-65775000D01*
G75*
G02*
X75675000Y-65875000I0J-100000D01*
G01*
X75675000Y-66075000D01*
G75*
G02*
X75575000Y-66175000I-100000J0D01*
G01*
X74300000Y-66175000D01*
G75*
G02*
X74200000Y-66075000I0J100000D01*
G01*
G37*
G36*
G01*
X74200000Y-65425000D02*
X74200000Y-65225000D01*
G75*
G02*
X74300000Y-65125000I100000J0D01*
G01*
X75575000Y-65125000D01*
G75*
G02*
X75675000Y-65225000I0J-100000D01*
G01*
X75675000Y-65425000D01*
G75*
G02*
X75575000Y-65525000I-100000J0D01*
G01*
X74300000Y-65525000D01*
G75*
G02*
X74200000Y-65425000I0J100000D01*
G01*
G37*
G36*
G01*
X74200000Y-64775000D02*
X74200000Y-64575000D01*
G75*
G02*
X74300000Y-64475000I100000J0D01*
G01*
X75575000Y-64475000D01*
G75*
G02*
X75675000Y-64575000I0J-100000D01*
G01*
X75675000Y-64775000D01*
G75*
G02*
X75575000Y-64875000I-100000J0D01*
G01*
X74300000Y-64875000D01*
G75*
G02*
X74200000Y-64775000I0J100000D01*
G01*
G37*
G36*
G01*
X74200000Y-64125000D02*
X74200000Y-63925000D01*
G75*
G02*
X74300000Y-63825000I100000J0D01*
G01*
X75575000Y-63825000D01*
G75*
G02*
X75675000Y-63925000I0J-100000D01*
G01*
X75675000Y-64125000D01*
G75*
G02*
X75575000Y-64225000I-100000J0D01*
G01*
X74300000Y-64225000D01*
G75*
G02*
X74200000Y-64125000I0J100000D01*
G01*
G37*
G36*
G01*
X79850000Y-80275000D02*
X79850000Y-79325000D01*
G75*
G02*
X80100000Y-79075000I250000J0D01*
G01*
X80600000Y-79075000D01*
G75*
G02*
X80850000Y-79325000I0J-250000D01*
G01*
X80850000Y-80275000D01*
G75*
G02*
X80600000Y-80525000I-250000J0D01*
G01*
X80100000Y-80525000D01*
G75*
G02*
X79850000Y-80275000I0J250000D01*
G01*
G37*
G36*
G01*
X77950000Y-80275000D02*
X77950000Y-79325000D01*
G75*
G02*
X78200000Y-79075000I250000J0D01*
G01*
X78700000Y-79075000D01*
G75*
G02*
X78950000Y-79325000I0J-250000D01*
G01*
X78950000Y-80275000D01*
G75*
G02*
X78700000Y-80525000I-250000J0D01*
G01*
X78200000Y-80525000D01*
G75*
G02*
X77950000Y-80275000I0J250000D01*
G01*
G37*
G36*
G01*
X81450000Y-100975000D02*
X81450000Y-100025000D01*
G75*
G02*
X81700000Y-99775000I250000J0D01*
G01*
X82200000Y-99775000D01*
G75*
G02*
X82450000Y-100025000I0J-250000D01*
G01*
X82450000Y-100975000D01*
G75*
G02*
X82200000Y-101225000I-250000J0D01*
G01*
X81700000Y-101225000D01*
G75*
G02*
X81450000Y-100975000I0J250000D01*
G01*
G37*
G36*
G01*
X79550000Y-100975000D02*
X79550000Y-100025000D01*
G75*
G02*
X79800000Y-99775000I250000J0D01*
G01*
X80300000Y-99775000D01*
G75*
G02*
X80550000Y-100025000I0J-250000D01*
G01*
X80550000Y-100975000D01*
G75*
G02*
X80300000Y-101225000I-250000J0D01*
G01*
X79800000Y-101225000D01*
G75*
G02*
X79550000Y-100975000I0J250000D01*
G01*
G37*
G36*
G01*
X71475000Y-68375000D02*
X70925000Y-68375000D01*
G75*
G02*
X70725000Y-68175000I0J200000D01*
G01*
X70725000Y-67775000D01*
G75*
G02*
X70925000Y-67575000I200000J0D01*
G01*
X71475000Y-67575000D01*
G75*
G02*
X71675000Y-67775000I0J-200000D01*
G01*
X71675000Y-68175000D01*
G75*
G02*
X71475000Y-68375000I-200000J0D01*
G01*
G37*
G36*
G01*
X71475000Y-70025000D02*
X70925000Y-70025000D01*
G75*
G02*
X70725000Y-69825000I0J200000D01*
G01*
X70725000Y-69425000D01*
G75*
G02*
X70925000Y-69225000I200000J0D01*
G01*
X71475000Y-69225000D01*
G75*
G02*
X71675000Y-69425000I0J-200000D01*
G01*
X71675000Y-69825000D01*
G75*
G02*
X71475000Y-70025000I-200000J0D01*
G01*
G37*
G36*
G01*
X69056250Y-68450000D02*
X68543750Y-68450000D01*
G75*
G02*
X68325000Y-68231250I0J218750D01*
G01*
X68325000Y-67793750D01*
G75*
G02*
X68543750Y-67575000I218750J0D01*
G01*
X69056250Y-67575000D01*
G75*
G02*
X69275000Y-67793750I0J-218750D01*
G01*
X69275000Y-68231250D01*
G75*
G02*
X69056250Y-68450000I-218750J0D01*
G01*
G37*
G36*
G01*
X69056250Y-70025000D02*
X68543750Y-70025000D01*
G75*
G02*
X68325000Y-69806250I0J218750D01*
G01*
X68325000Y-69368750D01*
G75*
G02*
X68543750Y-69150000I218750J0D01*
G01*
X69056250Y-69150000D01*
G75*
G02*
X69275000Y-69368750I0J-218750D01*
G01*
X69275000Y-69806250D01*
G75*
G02*
X69056250Y-70025000I-218750J0D01*
G01*
G37*
G36*
G01*
X97525000Y-52225000D02*
X98075000Y-52225000D01*
G75*
G02*
X98275000Y-52425000I0J-200000D01*
G01*
X98275000Y-52825000D01*
G75*
G02*
X98075000Y-53025000I-200000J0D01*
G01*
X97525000Y-53025000D01*
G75*
G02*
X97325000Y-52825000I0J200000D01*
G01*
X97325000Y-52425000D01*
G75*
G02*
X97525000Y-52225000I200000J0D01*
G01*
G37*
G36*
G01*
X97525000Y-50575000D02*
X98075000Y-50575000D01*
G75*
G02*
X98275000Y-50775000I0J-200000D01*
G01*
X98275000Y-51175000D01*
G75*
G02*
X98075000Y-51375000I-200000J0D01*
G01*
X97525000Y-51375000D01*
G75*
G02*
X97325000Y-51175000I0J200000D01*
G01*
X97325000Y-50775000D01*
G75*
G02*
X97525000Y-50575000I200000J0D01*
G01*
G37*
G36*
G01*
X107695000Y-80900000D02*
X107995000Y-80900000D01*
G75*
G02*
X108145000Y-81050000I0J-150000D01*
G01*
X108145000Y-82700000D01*
G75*
G02*
X107995000Y-82850000I-150000J0D01*
G01*
X107695000Y-82850000D01*
G75*
G02*
X107545000Y-82700000I0J150000D01*
G01*
X107545000Y-81050000D01*
G75*
G02*
X107695000Y-80900000I150000J0D01*
G01*
G37*
G36*
G01*
X106425000Y-80900000D02*
X106725000Y-80900000D01*
G75*
G02*
X106875000Y-81050000I0J-150000D01*
G01*
X106875000Y-82700000D01*
G75*
G02*
X106725000Y-82850000I-150000J0D01*
G01*
X106425000Y-82850000D01*
G75*
G02*
X106275000Y-82700000I0J150000D01*
G01*
X106275000Y-81050000D01*
G75*
G02*
X106425000Y-80900000I150000J0D01*
G01*
G37*
G36*
G01*
X105155000Y-80900000D02*
X105455000Y-80900000D01*
G75*
G02*
X105605000Y-81050000I0J-150000D01*
G01*
X105605000Y-82700000D01*
G75*
G02*
X105455000Y-82850000I-150000J0D01*
G01*
X105155000Y-82850000D01*
G75*
G02*
X105005000Y-82700000I0J150000D01*
G01*
X105005000Y-81050000D01*
G75*
G02*
X105155000Y-80900000I150000J0D01*
G01*
G37*
G36*
G01*
X103885000Y-80900000D02*
X104185000Y-80900000D01*
G75*
G02*
X104335000Y-81050000I0J-150000D01*
G01*
X104335000Y-82700000D01*
G75*
G02*
X104185000Y-82850000I-150000J0D01*
G01*
X103885000Y-82850000D01*
G75*
G02*
X103735000Y-82700000I0J150000D01*
G01*
X103735000Y-81050000D01*
G75*
G02*
X103885000Y-80900000I150000J0D01*
G01*
G37*
G36*
G01*
X102615000Y-80900000D02*
X102915000Y-80900000D01*
G75*
G02*
X103065000Y-81050000I0J-150000D01*
G01*
X103065000Y-82700000D01*
G75*
G02*
X102915000Y-82850000I-150000J0D01*
G01*
X102615000Y-82850000D01*
G75*
G02*
X102465000Y-82700000I0J150000D01*
G01*
X102465000Y-81050000D01*
G75*
G02*
X102615000Y-80900000I150000J0D01*
G01*
G37*
G36*
G01*
X101345000Y-80900000D02*
X101645000Y-80900000D01*
G75*
G02*
X101795000Y-81050000I0J-150000D01*
G01*
X101795000Y-82700000D01*
G75*
G02*
X101645000Y-82850000I-150000J0D01*
G01*
X101345000Y-82850000D01*
G75*
G02*
X101195000Y-82700000I0J150000D01*
G01*
X101195000Y-81050000D01*
G75*
G02*
X101345000Y-80900000I150000J0D01*
G01*
G37*
G36*
G01*
X100075000Y-80900000D02*
X100375000Y-80900000D01*
G75*
G02*
X100525000Y-81050000I0J-150000D01*
G01*
X100525000Y-82700000D01*
G75*
G02*
X100375000Y-82850000I-150000J0D01*
G01*
X100075000Y-82850000D01*
G75*
G02*
X99925000Y-82700000I0J150000D01*
G01*
X99925000Y-81050000D01*
G75*
G02*
X100075000Y-80900000I150000J0D01*
G01*
G37*
G36*
G01*
X98805000Y-80900000D02*
X99105000Y-80900000D01*
G75*
G02*
X99255000Y-81050000I0J-150000D01*
G01*
X99255000Y-82700000D01*
G75*
G02*
X99105000Y-82850000I-150000J0D01*
G01*
X98805000Y-82850000D01*
G75*
G02*
X98655000Y-82700000I0J150000D01*
G01*
X98655000Y-81050000D01*
G75*
G02*
X98805000Y-80900000I150000J0D01*
G01*
G37*
G36*
G01*
X98805000Y-75950000D02*
X99105000Y-75950000D01*
G75*
G02*
X99255000Y-76100000I0J-150000D01*
G01*
X99255000Y-77750000D01*
G75*
G02*
X99105000Y-77900000I-150000J0D01*
G01*
X98805000Y-77900000D01*
G75*
G02*
X98655000Y-77750000I0J150000D01*
G01*
X98655000Y-76100000D01*
G75*
G02*
X98805000Y-75950000I150000J0D01*
G01*
G37*
G36*
G01*
X100075000Y-75950000D02*
X100375000Y-75950000D01*
G75*
G02*
X100525000Y-76100000I0J-150000D01*
G01*
X100525000Y-77750000D01*
G75*
G02*
X100375000Y-77900000I-150000J0D01*
G01*
X100075000Y-77900000D01*
G75*
G02*
X99925000Y-77750000I0J150000D01*
G01*
X99925000Y-76100000D01*
G75*
G02*
X100075000Y-75950000I150000J0D01*
G01*
G37*
G36*
G01*
X101345000Y-75950000D02*
X101645000Y-75950000D01*
G75*
G02*
X101795000Y-76100000I0J-150000D01*
G01*
X101795000Y-77750000D01*
G75*
G02*
X101645000Y-77900000I-150000J0D01*
G01*
X101345000Y-77900000D01*
G75*
G02*
X101195000Y-77750000I0J150000D01*
G01*
X101195000Y-76100000D01*
G75*
G02*
X101345000Y-75950000I150000J0D01*
G01*
G37*
G36*
G01*
X102615000Y-75950000D02*
X102915000Y-75950000D01*
G75*
G02*
X103065000Y-76100000I0J-150000D01*
G01*
X103065000Y-77750000D01*
G75*
G02*
X102915000Y-77900000I-150000J0D01*
G01*
X102615000Y-77900000D01*
G75*
G02*
X102465000Y-77750000I0J150000D01*
G01*
X102465000Y-76100000D01*
G75*
G02*
X102615000Y-75950000I150000J0D01*
G01*
G37*
G36*
G01*
X103885000Y-75950000D02*
X104185000Y-75950000D01*
G75*
G02*
X104335000Y-76100000I0J-150000D01*
G01*
X104335000Y-77750000D01*
G75*
G02*
X104185000Y-77900000I-150000J0D01*
G01*
X103885000Y-77900000D01*
G75*
G02*
X103735000Y-77750000I0J150000D01*
G01*
X103735000Y-76100000D01*
G75*
G02*
X103885000Y-75950000I150000J0D01*
G01*
G37*
G36*
G01*
X105155000Y-75950000D02*
X105455000Y-75950000D01*
G75*
G02*
X105605000Y-76100000I0J-150000D01*
G01*
X105605000Y-77750000D01*
G75*
G02*
X105455000Y-77900000I-150000J0D01*
G01*
X105155000Y-77900000D01*
G75*
G02*
X105005000Y-77750000I0J150000D01*
G01*
X105005000Y-76100000D01*
G75*
G02*
X105155000Y-75950000I150000J0D01*
G01*
G37*
G36*
G01*
X106425000Y-75950000D02*
X106725000Y-75950000D01*
G75*
G02*
X106875000Y-76100000I0J-150000D01*
G01*
X106875000Y-77750000D01*
G75*
G02*
X106725000Y-77900000I-150000J0D01*
G01*
X106425000Y-77900000D01*
G75*
G02*
X106275000Y-77750000I0J150000D01*
G01*
X106275000Y-76100000D01*
G75*
G02*
X106425000Y-75950000I150000J0D01*
G01*
G37*
G36*
G01*
X107695000Y-75950000D02*
X107995000Y-75950000D01*
G75*
G02*
X108145000Y-76100000I0J-150000D01*
G01*
X108145000Y-77750000D01*
G75*
G02*
X107995000Y-77900000I-150000J0D01*
G01*
X107695000Y-77900000D01*
G75*
G02*
X107545000Y-77750000I0J150000D01*
G01*
X107545000Y-76100000D01*
G75*
G02*
X107695000Y-75950000I150000J0D01*
G01*
G37*
G36*
G01*
X122560000Y-66100000D02*
X122860000Y-66100000D01*
G75*
G02*
X123010000Y-66250000I0J-150000D01*
G01*
X123010000Y-67900000D01*
G75*
G02*
X122860000Y-68050000I-150000J0D01*
G01*
X122560000Y-68050000D01*
G75*
G02*
X122410000Y-67900000I0J150000D01*
G01*
X122410000Y-66250000D01*
G75*
G02*
X122560000Y-66100000I150000J0D01*
G01*
G37*
G36*
G01*
X121290000Y-66100000D02*
X121590000Y-66100000D01*
G75*
G02*
X121740000Y-66250000I0J-150000D01*
G01*
X121740000Y-67900000D01*
G75*
G02*
X121590000Y-68050000I-150000J0D01*
G01*
X121290000Y-68050000D01*
G75*
G02*
X121140000Y-67900000I0J150000D01*
G01*
X121140000Y-66250000D01*
G75*
G02*
X121290000Y-66100000I150000J0D01*
G01*
G37*
G36*
G01*
X120020000Y-66100000D02*
X120320000Y-66100000D01*
G75*
G02*
X120470000Y-66250000I0J-150000D01*
G01*
X120470000Y-67900000D01*
G75*
G02*
X120320000Y-68050000I-150000J0D01*
G01*
X120020000Y-68050000D01*
G75*
G02*
X119870000Y-67900000I0J150000D01*
G01*
X119870000Y-66250000D01*
G75*
G02*
X120020000Y-66100000I150000J0D01*
G01*
G37*
G36*
G01*
X118750000Y-66100000D02*
X119050000Y-66100000D01*
G75*
G02*
X119200000Y-66250000I0J-150000D01*
G01*
X119200000Y-67900000D01*
G75*
G02*
X119050000Y-68050000I-150000J0D01*
G01*
X118750000Y-68050000D01*
G75*
G02*
X118600000Y-67900000I0J150000D01*
G01*
X118600000Y-66250000D01*
G75*
G02*
X118750000Y-66100000I150000J0D01*
G01*
G37*
G36*
G01*
X117480000Y-66100000D02*
X117780000Y-66100000D01*
G75*
G02*
X117930000Y-66250000I0J-150000D01*
G01*
X117930000Y-67900000D01*
G75*
G02*
X117780000Y-68050000I-150000J0D01*
G01*
X117480000Y-68050000D01*
G75*
G02*
X117330000Y-67900000I0J150000D01*
G01*
X117330000Y-66250000D01*
G75*
G02*
X117480000Y-66100000I150000J0D01*
G01*
G37*
G36*
G01*
X116210000Y-66100000D02*
X116510000Y-66100000D01*
G75*
G02*
X116660000Y-66250000I0J-150000D01*
G01*
X116660000Y-67900000D01*
G75*
G02*
X116510000Y-68050000I-150000J0D01*
G01*
X116210000Y-68050000D01*
G75*
G02*
X116060000Y-67900000I0J150000D01*
G01*
X116060000Y-66250000D01*
G75*
G02*
X116210000Y-66100000I150000J0D01*
G01*
G37*
G36*
G01*
X114940000Y-66100000D02*
X115240000Y-66100000D01*
G75*
G02*
X115390000Y-66250000I0J-150000D01*
G01*
X115390000Y-67900000D01*
G75*
G02*
X115240000Y-68050000I-150000J0D01*
G01*
X114940000Y-68050000D01*
G75*
G02*
X114790000Y-67900000I0J150000D01*
G01*
X114790000Y-66250000D01*
G75*
G02*
X114940000Y-66100000I150000J0D01*
G01*
G37*
G36*
G01*
X114940000Y-61150000D02*
X115240000Y-61150000D01*
G75*
G02*
X115390000Y-61300000I0J-150000D01*
G01*
X115390000Y-62950000D01*
G75*
G02*
X115240000Y-63100000I-150000J0D01*
G01*
X114940000Y-63100000D01*
G75*
G02*
X114790000Y-62950000I0J150000D01*
G01*
X114790000Y-61300000D01*
G75*
G02*
X114940000Y-61150000I150000J0D01*
G01*
G37*
G36*
G01*
X116210000Y-61150000D02*
X116510000Y-61150000D01*
G75*
G02*
X116660000Y-61300000I0J-150000D01*
G01*
X116660000Y-62950000D01*
G75*
G02*
X116510000Y-63100000I-150000J0D01*
G01*
X116210000Y-63100000D01*
G75*
G02*
X116060000Y-62950000I0J150000D01*
G01*
X116060000Y-61300000D01*
G75*
G02*
X116210000Y-61150000I150000J0D01*
G01*
G37*
G36*
G01*
X117480000Y-61150000D02*
X117780000Y-61150000D01*
G75*
G02*
X117930000Y-61300000I0J-150000D01*
G01*
X117930000Y-62950000D01*
G75*
G02*
X117780000Y-63100000I-150000J0D01*
G01*
X117480000Y-63100000D01*
G75*
G02*
X117330000Y-62950000I0J150000D01*
G01*
X117330000Y-61300000D01*
G75*
G02*
X117480000Y-61150000I150000J0D01*
G01*
G37*
G36*
G01*
X118750000Y-61150000D02*
X119050000Y-61150000D01*
G75*
G02*
X119200000Y-61300000I0J-150000D01*
G01*
X119200000Y-62950000D01*
G75*
G02*
X119050000Y-63100000I-150000J0D01*
G01*
X118750000Y-63100000D01*
G75*
G02*
X118600000Y-62950000I0J150000D01*
G01*
X118600000Y-61300000D01*
G75*
G02*
X118750000Y-61150000I150000J0D01*
G01*
G37*
G36*
G01*
X120020000Y-61150000D02*
X120320000Y-61150000D01*
G75*
G02*
X120470000Y-61300000I0J-150000D01*
G01*
X120470000Y-62950000D01*
G75*
G02*
X120320000Y-63100000I-150000J0D01*
G01*
X120020000Y-63100000D01*
G75*
G02*
X119870000Y-62950000I0J150000D01*
G01*
X119870000Y-61300000D01*
G75*
G02*
X120020000Y-61150000I150000J0D01*
G01*
G37*
G36*
G01*
X121290000Y-61150000D02*
X121590000Y-61150000D01*
G75*
G02*
X121740000Y-61300000I0J-150000D01*
G01*
X121740000Y-62950000D01*
G75*
G02*
X121590000Y-63100000I-150000J0D01*
G01*
X121290000Y-63100000D01*
G75*
G02*
X121140000Y-62950000I0J150000D01*
G01*
X121140000Y-61300000D01*
G75*
G02*
X121290000Y-61150000I150000J0D01*
G01*
G37*
G36*
G01*
X122560000Y-61150000D02*
X122860000Y-61150000D01*
G75*
G02*
X123010000Y-61300000I0J-150000D01*
G01*
X123010000Y-62950000D01*
G75*
G02*
X122860000Y-63100000I-150000J0D01*
G01*
X122560000Y-63100000D01*
G75*
G02*
X122410000Y-62950000I0J150000D01*
G01*
X122410000Y-61300000D01*
G75*
G02*
X122560000Y-61150000I150000J0D01*
G01*
G37*
G36*
G01*
X100100000Y-59705000D02*
X100100000Y-59405000D01*
G75*
G02*
X100250000Y-59255000I150000J0D01*
G01*
X101900000Y-59255000D01*
G75*
G02*
X102050000Y-59405000I0J-150000D01*
G01*
X102050000Y-59705000D01*
G75*
G02*
X101900000Y-59855000I-150000J0D01*
G01*
X100250000Y-59855000D01*
G75*
G02*
X100100000Y-59705000I0J150000D01*
G01*
G37*
G36*
G01*
X100100000Y-60975000D02*
X100100000Y-60675000D01*
G75*
G02*
X100250000Y-60525000I150000J0D01*
G01*
X101900000Y-60525000D01*
G75*
G02*
X102050000Y-60675000I0J-150000D01*
G01*
X102050000Y-60975000D01*
G75*
G02*
X101900000Y-61125000I-150000J0D01*
G01*
X100250000Y-61125000D01*
G75*
G02*
X100100000Y-60975000I0J150000D01*
G01*
G37*
G36*
G01*
X100100000Y-62245000D02*
X100100000Y-61945000D01*
G75*
G02*
X100250000Y-61795000I150000J0D01*
G01*
X101900000Y-61795000D01*
G75*
G02*
X102050000Y-61945000I0J-150000D01*
G01*
X102050000Y-62245000D01*
G75*
G02*
X101900000Y-62395000I-150000J0D01*
G01*
X100250000Y-62395000D01*
G75*
G02*
X100100000Y-62245000I0J150000D01*
G01*
G37*
G36*
G01*
X100100000Y-63515000D02*
X100100000Y-63215000D01*
G75*
G02*
X100250000Y-63065000I150000J0D01*
G01*
X101900000Y-63065000D01*
G75*
G02*
X102050000Y-63215000I0J-150000D01*
G01*
X102050000Y-63515000D01*
G75*
G02*
X101900000Y-63665000I-150000J0D01*
G01*
X100250000Y-63665000D01*
G75*
G02*
X100100000Y-63515000I0J150000D01*
G01*
G37*
G36*
G01*
X100100000Y-64785000D02*
X100100000Y-64485000D01*
G75*
G02*
X100250000Y-64335000I150000J0D01*
G01*
X101900000Y-64335000D01*
G75*
G02*
X102050000Y-64485000I0J-150000D01*
G01*
X102050000Y-64785000D01*
G75*
G02*
X101900000Y-64935000I-150000J0D01*
G01*
X100250000Y-64935000D01*
G75*
G02*
X100100000Y-64785000I0J150000D01*
G01*
G37*
G36*
G01*
X100100000Y-66055000D02*
X100100000Y-65755000D01*
G75*
G02*
X100250000Y-65605000I150000J0D01*
G01*
X101900000Y-65605000D01*
G75*
G02*
X102050000Y-65755000I0J-150000D01*
G01*
X102050000Y-66055000D01*
G75*
G02*
X101900000Y-66205000I-150000J0D01*
G01*
X100250000Y-66205000D01*
G75*
G02*
X100100000Y-66055000I0J150000D01*
G01*
G37*
G36*
G01*
X100100000Y-67325000D02*
X100100000Y-67025000D01*
G75*
G02*
X100250000Y-66875000I150000J0D01*
G01*
X101900000Y-66875000D01*
G75*
G02*
X102050000Y-67025000I0J-150000D01*
G01*
X102050000Y-67325000D01*
G75*
G02*
X101900000Y-67475000I-150000J0D01*
G01*
X100250000Y-67475000D01*
G75*
G02*
X100100000Y-67325000I0J150000D01*
G01*
G37*
G36*
G01*
X100100000Y-68595000D02*
X100100000Y-68295000D01*
G75*
G02*
X100250000Y-68145000I150000J0D01*
G01*
X101900000Y-68145000D01*
G75*
G02*
X102050000Y-68295000I0J-150000D01*
G01*
X102050000Y-68595000D01*
G75*
G02*
X101900000Y-68745000I-150000J0D01*
G01*
X100250000Y-68745000D01*
G75*
G02*
X100100000Y-68595000I0J150000D01*
G01*
G37*
G36*
G01*
X95150000Y-68595000D02*
X95150000Y-68295000D01*
G75*
G02*
X95300000Y-68145000I150000J0D01*
G01*
X96950000Y-68145000D01*
G75*
G02*
X97100000Y-68295000I0J-150000D01*
G01*
X97100000Y-68595000D01*
G75*
G02*
X96950000Y-68745000I-150000J0D01*
G01*
X95300000Y-68745000D01*
G75*
G02*
X95150000Y-68595000I0J150000D01*
G01*
G37*
G36*
G01*
X95150000Y-67325000D02*
X95150000Y-67025000D01*
G75*
G02*
X95300000Y-66875000I150000J0D01*
G01*
X96950000Y-66875000D01*
G75*
G02*
X97100000Y-67025000I0J-150000D01*
G01*
X97100000Y-67325000D01*
G75*
G02*
X96950000Y-67475000I-150000J0D01*
G01*
X95300000Y-67475000D01*
G75*
G02*
X95150000Y-67325000I0J150000D01*
G01*
G37*
G36*
G01*
X95150000Y-66055000D02*
X95150000Y-65755000D01*
G75*
G02*
X95300000Y-65605000I150000J0D01*
G01*
X96950000Y-65605000D01*
G75*
G02*
X97100000Y-65755000I0J-150000D01*
G01*
X97100000Y-66055000D01*
G75*
G02*
X96950000Y-66205000I-150000J0D01*
G01*
X95300000Y-66205000D01*
G75*
G02*
X95150000Y-66055000I0J150000D01*
G01*
G37*
G36*
G01*
X95150000Y-64785000D02*
X95150000Y-64485000D01*
G75*
G02*
X95300000Y-64335000I150000J0D01*
G01*
X96950000Y-64335000D01*
G75*
G02*
X97100000Y-64485000I0J-150000D01*
G01*
X97100000Y-64785000D01*
G75*
G02*
X96950000Y-64935000I-150000J0D01*
G01*
X95300000Y-64935000D01*
G75*
G02*
X95150000Y-64785000I0J150000D01*
G01*
G37*
G36*
G01*
X95150000Y-63515000D02*
X95150000Y-63215000D01*
G75*
G02*
X95300000Y-63065000I150000J0D01*
G01*
X96950000Y-63065000D01*
G75*
G02*
X97100000Y-63215000I0J-150000D01*
G01*
X97100000Y-63515000D01*
G75*
G02*
X96950000Y-63665000I-150000J0D01*
G01*
X95300000Y-63665000D01*
G75*
G02*
X95150000Y-63515000I0J150000D01*
G01*
G37*
G36*
G01*
X95150000Y-62245000D02*
X95150000Y-61945000D01*
G75*
G02*
X95300000Y-61795000I150000J0D01*
G01*
X96950000Y-61795000D01*
G75*
G02*
X97100000Y-61945000I0J-150000D01*
G01*
X97100000Y-62245000D01*
G75*
G02*
X96950000Y-62395000I-150000J0D01*
G01*
X95300000Y-62395000D01*
G75*
G02*
X95150000Y-62245000I0J150000D01*
G01*
G37*
G36*
G01*
X95150000Y-60975000D02*
X95150000Y-60675000D01*
G75*
G02*
X95300000Y-60525000I150000J0D01*
G01*
X96950000Y-60525000D01*
G75*
G02*
X97100000Y-60675000I0J-150000D01*
G01*
X97100000Y-60975000D01*
G75*
G02*
X96950000Y-61125000I-150000J0D01*
G01*
X95300000Y-61125000D01*
G75*
G02*
X95150000Y-60975000I0J150000D01*
G01*
G37*
G36*
G01*
X95150000Y-59705000D02*
X95150000Y-59405000D01*
G75*
G02*
X95300000Y-59255000I150000J0D01*
G01*
X96950000Y-59255000D01*
G75*
G02*
X97100000Y-59405000I0J-150000D01*
G01*
X97100000Y-59705000D01*
G75*
G02*
X96950000Y-59855000I-150000J0D01*
G01*
X95300000Y-59855000D01*
G75*
G02*
X95150000Y-59705000I0J150000D01*
G01*
G37*
G36*
G01*
X113100000Y-35974999D02*
X113100000Y-37225001D01*
G75*
G02*
X112850001Y-37475000I-249999J0D01*
G01*
X112224999Y-37475000D01*
G75*
G02*
X111975000Y-37225001I0J249999D01*
G01*
X111975000Y-35974999D01*
G75*
G02*
X112224999Y-35725000I249999J0D01*
G01*
X112850001Y-35725000D01*
G75*
G02*
X113100000Y-35974999I0J-249999D01*
G01*
G37*
G36*
G01*
X116025000Y-35974999D02*
X116025000Y-37225001D01*
G75*
G02*
X115775001Y-37475000I-249999J0D01*
G01*
X115149999Y-37475000D01*
G75*
G02*
X114900000Y-37225001I0J249999D01*
G01*
X114900000Y-35974999D01*
G75*
G02*
X115149999Y-35725000I249999J0D01*
G01*
X115775001Y-35725000D01*
G75*
G02*
X116025000Y-35974999I0J-249999D01*
G01*
G37*
G36*
G01*
X124425001Y-37500000D02*
X123174999Y-37500000D01*
G75*
G02*
X122925000Y-37250001I0J249999D01*
G01*
X122925000Y-36624999D01*
G75*
G02*
X123174999Y-36375000I249999J0D01*
G01*
X124425001Y-36375000D01*
G75*
G02*
X124675000Y-36624999I0J-249999D01*
G01*
X124675000Y-37250001D01*
G75*
G02*
X124425001Y-37500000I-249999J0D01*
G01*
G37*
G36*
G01*
X124425001Y-40425000D02*
X123174999Y-40425000D01*
G75*
G02*
X122925000Y-40175001I0J249999D01*
G01*
X122925000Y-39549999D01*
G75*
G02*
X123174999Y-39300000I249999J0D01*
G01*
X124425001Y-39300000D01*
G75*
G02*
X124675000Y-39549999I0J-249999D01*
G01*
X124675000Y-40175001D01*
G75*
G02*
X124425001Y-40425000I-249999J0D01*
G01*
G37*
G36*
G01*
X104525000Y-52225000D02*
X105075000Y-52225000D01*
G75*
G02*
X105275000Y-52425000I0J-200000D01*
G01*
X105275000Y-52825000D01*
G75*
G02*
X105075000Y-53025000I-200000J0D01*
G01*
X104525000Y-53025000D01*
G75*
G02*
X104325000Y-52825000I0J200000D01*
G01*
X104325000Y-52425000D01*
G75*
G02*
X104525000Y-52225000I200000J0D01*
G01*
G37*
G36*
G01*
X104525000Y-50575000D02*
X105075000Y-50575000D01*
G75*
G02*
X105275000Y-50775000I0J-200000D01*
G01*
X105275000Y-51175000D01*
G75*
G02*
X105075000Y-51375000I-200000J0D01*
G01*
X104525000Y-51375000D01*
G75*
G02*
X104325000Y-51175000I0J200000D01*
G01*
X104325000Y-50775000D01*
G75*
G02*
X104525000Y-50575000I200000J0D01*
G01*
G37*
G36*
G01*
X106425000Y-67475000D02*
X106425000Y-66925000D01*
G75*
G02*
X106625000Y-66725000I200000J0D01*
G01*
X107025000Y-66725000D01*
G75*
G02*
X107225000Y-66925000I0J-200000D01*
G01*
X107225000Y-67475000D01*
G75*
G02*
X107025000Y-67675000I-200000J0D01*
G01*
X106625000Y-67675000D01*
G75*
G02*
X106425000Y-67475000I0J200000D01*
G01*
G37*
G36*
G01*
X104775000Y-67475000D02*
X104775000Y-66925000D01*
G75*
G02*
X104975000Y-66725000I200000J0D01*
G01*
X105375000Y-66725000D01*
G75*
G02*
X105575000Y-66925000I0J-200000D01*
G01*
X105575000Y-67475000D01*
G75*
G02*
X105375000Y-67675000I-200000J0D01*
G01*
X104975000Y-67675000D01*
G75*
G02*
X104775000Y-67475000I0J200000D01*
G01*
G37*
G36*
G01*
X122925000Y-52625000D02*
X123475000Y-52625000D01*
G75*
G02*
X123675000Y-52825000I0J-200000D01*
G01*
X123675000Y-53225000D01*
G75*
G02*
X123475000Y-53425000I-200000J0D01*
G01*
X122925000Y-53425000D01*
G75*
G02*
X122725000Y-53225000I0J200000D01*
G01*
X122725000Y-52825000D01*
G75*
G02*
X122925000Y-52625000I200000J0D01*
G01*
G37*
G36*
G01*
X122925000Y-50975000D02*
X123475000Y-50975000D01*
G75*
G02*
X123675000Y-51175000I0J-200000D01*
G01*
X123675000Y-51575000D01*
G75*
G02*
X123475000Y-51775000I-200000J0D01*
G01*
X122925000Y-51775000D01*
G75*
G02*
X122725000Y-51575000I0J200000D01*
G01*
X122725000Y-51175000D01*
G75*
G02*
X122925000Y-50975000I200000J0D01*
G01*
G37*
G36*
G01*
X105625000Y-61475000D02*
X105625000Y-60925000D01*
G75*
G02*
X105825000Y-60725000I200000J0D01*
G01*
X106225000Y-60725000D01*
G75*
G02*
X106425000Y-60925000I0J-200000D01*
G01*
X106425000Y-61475000D01*
G75*
G02*
X106225000Y-61675000I-200000J0D01*
G01*
X105825000Y-61675000D01*
G75*
G02*
X105625000Y-61475000I0J200000D01*
G01*
G37*
G36*
G01*
X103975000Y-61475000D02*
X103975000Y-60925000D01*
G75*
G02*
X104175000Y-60725000I200000J0D01*
G01*
X104575000Y-60725000D01*
G75*
G02*
X104775000Y-60925000I0J-200000D01*
G01*
X104775000Y-61475000D01*
G75*
G02*
X104575000Y-61675000I-200000J0D01*
G01*
X104175000Y-61675000D01*
G75*
G02*
X103975000Y-61475000I0J200000D01*
G01*
G37*
G36*
G01*
X121025000Y-59075000D02*
X121025000Y-58525000D01*
G75*
G02*
X121225000Y-58325000I200000J0D01*
G01*
X121625000Y-58325000D01*
G75*
G02*
X121825000Y-58525000I0J-200000D01*
G01*
X121825000Y-59075000D01*
G75*
G02*
X121625000Y-59275000I-200000J0D01*
G01*
X121225000Y-59275000D01*
G75*
G02*
X121025000Y-59075000I0J200000D01*
G01*
G37*
G36*
G01*
X119375000Y-59075000D02*
X119375000Y-58525000D01*
G75*
G02*
X119575000Y-58325000I200000J0D01*
G01*
X119975000Y-58325000D01*
G75*
G02*
X120175000Y-58525000I0J-200000D01*
G01*
X120175000Y-59075000D01*
G75*
G02*
X119975000Y-59275000I-200000J0D01*
G01*
X119575000Y-59275000D01*
G75*
G02*
X119375000Y-59075000I0J200000D01*
G01*
G37*
G36*
G01*
X105625000Y-57475000D02*
X105625000Y-56925000D01*
G75*
G02*
X105825000Y-56725000I200000J0D01*
G01*
X106225000Y-56725000D01*
G75*
G02*
X106425000Y-56925000I0J-200000D01*
G01*
X106425000Y-57475000D01*
G75*
G02*
X106225000Y-57675000I-200000J0D01*
G01*
X105825000Y-57675000D01*
G75*
G02*
X105625000Y-57475000I0J200000D01*
G01*
G37*
G36*
G01*
X103975000Y-57475000D02*
X103975000Y-56925000D01*
G75*
G02*
X104175000Y-56725000I200000J0D01*
G01*
X104575000Y-56725000D01*
G75*
G02*
X104775000Y-56925000I0J-200000D01*
G01*
X104775000Y-57475000D01*
G75*
G02*
X104575000Y-57675000I-200000J0D01*
G01*
X104175000Y-57675000D01*
G75*
G02*
X103975000Y-57475000I0J200000D01*
G01*
G37*
G36*
G01*
X105625000Y-59275000D02*
X105625000Y-58725000D01*
G75*
G02*
X105825000Y-58525000I200000J0D01*
G01*
X106225000Y-58525000D01*
G75*
G02*
X106425000Y-58725000I0J-200000D01*
G01*
X106425000Y-59275000D01*
G75*
G02*
X106225000Y-59475000I-200000J0D01*
G01*
X105825000Y-59475000D01*
G75*
G02*
X105625000Y-59275000I0J200000D01*
G01*
G37*
G36*
G01*
X103975000Y-59275000D02*
X103975000Y-58725000D01*
G75*
G02*
X104175000Y-58525000I200000J0D01*
G01*
X104575000Y-58525000D01*
G75*
G02*
X104775000Y-58725000I0J-200000D01*
G01*
X104775000Y-59275000D01*
G75*
G02*
X104575000Y-59475000I-200000J0D01*
G01*
X104175000Y-59475000D01*
G75*
G02*
X103975000Y-59275000I0J200000D01*
G01*
G37*
G36*
G01*
X125675000Y-66175000D02*
X125125000Y-66175000D01*
G75*
G02*
X124925000Y-65975000I0J200000D01*
G01*
X124925000Y-65575000D01*
G75*
G02*
X125125000Y-65375000I200000J0D01*
G01*
X125675000Y-65375000D01*
G75*
G02*
X125875000Y-65575000I0J-200000D01*
G01*
X125875000Y-65975000D01*
G75*
G02*
X125675000Y-66175000I-200000J0D01*
G01*
G37*
G36*
G01*
X125675000Y-67825000D02*
X125125000Y-67825000D01*
G75*
G02*
X124925000Y-67625000I0J200000D01*
G01*
X124925000Y-67225000D01*
G75*
G02*
X125125000Y-67025000I200000J0D01*
G01*
X125675000Y-67025000D01*
G75*
G02*
X125875000Y-67225000I0J-200000D01*
G01*
X125875000Y-67625000D01*
G75*
G02*
X125675000Y-67825000I-200000J0D01*
G01*
G37*
D12*
X85850000Y-36600000D03*
X89150000Y-36600000D03*
G36*
G01*
X81325000Y-98750000D02*
X81325000Y-98250000D01*
G75*
G02*
X81550000Y-98025000I225000J0D01*
G01*
X82000000Y-98025000D01*
G75*
G02*
X82225000Y-98250000I0J-225000D01*
G01*
X82225000Y-98750000D01*
G75*
G02*
X82000000Y-98975000I-225000J0D01*
G01*
X81550000Y-98975000D01*
G75*
G02*
X81325000Y-98750000I0J225000D01*
G01*
G37*
G36*
G01*
X79775000Y-98750000D02*
X79775000Y-98250000D01*
G75*
G02*
X80000000Y-98025000I225000J0D01*
G01*
X80450000Y-98025000D01*
G75*
G02*
X80675000Y-98250000I0J-225000D01*
G01*
X80675000Y-98750000D01*
G75*
G02*
X80450000Y-98975000I-225000J0D01*
G01*
X80000000Y-98975000D01*
G75*
G02*
X79775000Y-98750000I0J225000D01*
G01*
G37*
G36*
G01*
X80825000Y-84435000D02*
X80825000Y-84135000D01*
G75*
G02*
X80975000Y-83985000I150000J0D01*
G01*
X82725000Y-83985000D01*
G75*
G02*
X82875000Y-84135000I0J-150000D01*
G01*
X82875000Y-84435000D01*
G75*
G02*
X82725000Y-84585000I-150000J0D01*
G01*
X80975000Y-84585000D01*
G75*
G02*
X80825000Y-84435000I0J150000D01*
G01*
G37*
G36*
G01*
X80825000Y-85705000D02*
X80825000Y-85405000D01*
G75*
G02*
X80975000Y-85255000I150000J0D01*
G01*
X82725000Y-85255000D01*
G75*
G02*
X82875000Y-85405000I0J-150000D01*
G01*
X82875000Y-85705000D01*
G75*
G02*
X82725000Y-85855000I-150000J0D01*
G01*
X80975000Y-85855000D01*
G75*
G02*
X80825000Y-85705000I0J150000D01*
G01*
G37*
G36*
G01*
X80825000Y-86975000D02*
X80825000Y-86675000D01*
G75*
G02*
X80975000Y-86525000I150000J0D01*
G01*
X82725000Y-86525000D01*
G75*
G02*
X82875000Y-86675000I0J-150000D01*
G01*
X82875000Y-86975000D01*
G75*
G02*
X82725000Y-87125000I-150000J0D01*
G01*
X80975000Y-87125000D01*
G75*
G02*
X80825000Y-86975000I0J150000D01*
G01*
G37*
G36*
G01*
X80825000Y-88245000D02*
X80825000Y-87945000D01*
G75*
G02*
X80975000Y-87795000I150000J0D01*
G01*
X82725000Y-87795000D01*
G75*
G02*
X82875000Y-87945000I0J-150000D01*
G01*
X82875000Y-88245000D01*
G75*
G02*
X82725000Y-88395000I-150000J0D01*
G01*
X80975000Y-88395000D01*
G75*
G02*
X80825000Y-88245000I0J150000D01*
G01*
G37*
G36*
G01*
X80825000Y-89515000D02*
X80825000Y-89215000D01*
G75*
G02*
X80975000Y-89065000I150000J0D01*
G01*
X82725000Y-89065000D01*
G75*
G02*
X82875000Y-89215000I0J-150000D01*
G01*
X82875000Y-89515000D01*
G75*
G02*
X82725000Y-89665000I-150000J0D01*
G01*
X80975000Y-89665000D01*
G75*
G02*
X80825000Y-89515000I0J150000D01*
G01*
G37*
G36*
G01*
X80825000Y-90785000D02*
X80825000Y-90485000D01*
G75*
G02*
X80975000Y-90335000I150000J0D01*
G01*
X82725000Y-90335000D01*
G75*
G02*
X82875000Y-90485000I0J-150000D01*
G01*
X82875000Y-90785000D01*
G75*
G02*
X82725000Y-90935000I-150000J0D01*
G01*
X80975000Y-90935000D01*
G75*
G02*
X80825000Y-90785000I0J150000D01*
G01*
G37*
G36*
G01*
X80825000Y-92055000D02*
X80825000Y-91755000D01*
G75*
G02*
X80975000Y-91605000I150000J0D01*
G01*
X82725000Y-91605000D01*
G75*
G02*
X82875000Y-91755000I0J-150000D01*
G01*
X82875000Y-92055000D01*
G75*
G02*
X82725000Y-92205000I-150000J0D01*
G01*
X80975000Y-92205000D01*
G75*
G02*
X80825000Y-92055000I0J150000D01*
G01*
G37*
G36*
G01*
X80825000Y-93325000D02*
X80825000Y-93025000D01*
G75*
G02*
X80975000Y-92875000I150000J0D01*
G01*
X82725000Y-92875000D01*
G75*
G02*
X82875000Y-93025000I0J-150000D01*
G01*
X82875000Y-93325000D01*
G75*
G02*
X82725000Y-93475000I-150000J0D01*
G01*
X80975000Y-93475000D01*
G75*
G02*
X80825000Y-93325000I0J150000D01*
G01*
G37*
G36*
G01*
X80825000Y-94595000D02*
X80825000Y-94295000D01*
G75*
G02*
X80975000Y-94145000I150000J0D01*
G01*
X82725000Y-94145000D01*
G75*
G02*
X82875000Y-94295000I0J-150000D01*
G01*
X82875000Y-94595000D01*
G75*
G02*
X82725000Y-94745000I-150000J0D01*
G01*
X80975000Y-94745000D01*
G75*
G02*
X80825000Y-94595000I0J150000D01*
G01*
G37*
G36*
G01*
X80825000Y-95865000D02*
X80825000Y-95565000D01*
G75*
G02*
X80975000Y-95415000I150000J0D01*
G01*
X82725000Y-95415000D01*
G75*
G02*
X82875000Y-95565000I0J-150000D01*
G01*
X82875000Y-95865000D01*
G75*
G02*
X82725000Y-96015000I-150000J0D01*
G01*
X80975000Y-96015000D01*
G75*
G02*
X80825000Y-95865000I0J150000D01*
G01*
G37*
G36*
G01*
X71525000Y-95865000D02*
X71525000Y-95565000D01*
G75*
G02*
X71675000Y-95415000I150000J0D01*
G01*
X73425000Y-95415000D01*
G75*
G02*
X73575000Y-95565000I0J-150000D01*
G01*
X73575000Y-95865000D01*
G75*
G02*
X73425000Y-96015000I-150000J0D01*
G01*
X71675000Y-96015000D01*
G75*
G02*
X71525000Y-95865000I0J150000D01*
G01*
G37*
G36*
G01*
X71525000Y-94595000D02*
X71525000Y-94295000D01*
G75*
G02*
X71675000Y-94145000I150000J0D01*
G01*
X73425000Y-94145000D01*
G75*
G02*
X73575000Y-94295000I0J-150000D01*
G01*
X73575000Y-94595000D01*
G75*
G02*
X73425000Y-94745000I-150000J0D01*
G01*
X71675000Y-94745000D01*
G75*
G02*
X71525000Y-94595000I0J150000D01*
G01*
G37*
G36*
G01*
X71525000Y-93325000D02*
X71525000Y-93025000D01*
G75*
G02*
X71675000Y-92875000I150000J0D01*
G01*
X73425000Y-92875000D01*
G75*
G02*
X73575000Y-93025000I0J-150000D01*
G01*
X73575000Y-93325000D01*
G75*
G02*
X73425000Y-93475000I-150000J0D01*
G01*
X71675000Y-93475000D01*
G75*
G02*
X71525000Y-93325000I0J150000D01*
G01*
G37*
G36*
G01*
X71525000Y-92055000D02*
X71525000Y-91755000D01*
G75*
G02*
X71675000Y-91605000I150000J0D01*
G01*
X73425000Y-91605000D01*
G75*
G02*
X73575000Y-91755000I0J-150000D01*
G01*
X73575000Y-92055000D01*
G75*
G02*
X73425000Y-92205000I-150000J0D01*
G01*
X71675000Y-92205000D01*
G75*
G02*
X71525000Y-92055000I0J150000D01*
G01*
G37*
G36*
G01*
X71525000Y-90785000D02*
X71525000Y-90485000D01*
G75*
G02*
X71675000Y-90335000I150000J0D01*
G01*
X73425000Y-90335000D01*
G75*
G02*
X73575000Y-90485000I0J-150000D01*
G01*
X73575000Y-90785000D01*
G75*
G02*
X73425000Y-90935000I-150000J0D01*
G01*
X71675000Y-90935000D01*
G75*
G02*
X71525000Y-90785000I0J150000D01*
G01*
G37*
G36*
G01*
X71525000Y-89515000D02*
X71525000Y-89215000D01*
G75*
G02*
X71675000Y-89065000I150000J0D01*
G01*
X73425000Y-89065000D01*
G75*
G02*
X73575000Y-89215000I0J-150000D01*
G01*
X73575000Y-89515000D01*
G75*
G02*
X73425000Y-89665000I-150000J0D01*
G01*
X71675000Y-89665000D01*
G75*
G02*
X71525000Y-89515000I0J150000D01*
G01*
G37*
G36*
G01*
X71525000Y-88245000D02*
X71525000Y-87945000D01*
G75*
G02*
X71675000Y-87795000I150000J0D01*
G01*
X73425000Y-87795000D01*
G75*
G02*
X73575000Y-87945000I0J-150000D01*
G01*
X73575000Y-88245000D01*
G75*
G02*
X73425000Y-88395000I-150000J0D01*
G01*
X71675000Y-88395000D01*
G75*
G02*
X71525000Y-88245000I0J150000D01*
G01*
G37*
G36*
G01*
X71525000Y-86975000D02*
X71525000Y-86675000D01*
G75*
G02*
X71675000Y-86525000I150000J0D01*
G01*
X73425000Y-86525000D01*
G75*
G02*
X73575000Y-86675000I0J-150000D01*
G01*
X73575000Y-86975000D01*
G75*
G02*
X73425000Y-87125000I-150000J0D01*
G01*
X71675000Y-87125000D01*
G75*
G02*
X71525000Y-86975000I0J150000D01*
G01*
G37*
G36*
G01*
X71525000Y-85705000D02*
X71525000Y-85405000D01*
G75*
G02*
X71675000Y-85255000I150000J0D01*
G01*
X73425000Y-85255000D01*
G75*
G02*
X73575000Y-85405000I0J-150000D01*
G01*
X73575000Y-85705000D01*
G75*
G02*
X73425000Y-85855000I-150000J0D01*
G01*
X71675000Y-85855000D01*
G75*
G02*
X71525000Y-85705000I0J150000D01*
G01*
G37*
G36*
G01*
X71525000Y-84435000D02*
X71525000Y-84135000D01*
G75*
G02*
X71675000Y-83985000I150000J0D01*
G01*
X73425000Y-83985000D01*
G75*
G02*
X73575000Y-84135000I0J-150000D01*
G01*
X73575000Y-84435000D01*
G75*
G02*
X73425000Y-84585000I-150000J0D01*
G01*
X71675000Y-84585000D01*
G75*
G02*
X71525000Y-84435000I0J150000D01*
G01*
G37*
G36*
G01*
X116025000Y-88275000D02*
X116025000Y-87725000D01*
G75*
G02*
X116225000Y-87525000I200000J0D01*
G01*
X116625000Y-87525000D01*
G75*
G02*
X116825000Y-87725000I0J-200000D01*
G01*
X116825000Y-88275000D01*
G75*
G02*
X116625000Y-88475000I-200000J0D01*
G01*
X116225000Y-88475000D01*
G75*
G02*
X116025000Y-88275000I0J200000D01*
G01*
G37*
G36*
G01*
X114375000Y-88275000D02*
X114375000Y-87725000D01*
G75*
G02*
X114575000Y-87525000I200000J0D01*
G01*
X114975000Y-87525000D01*
G75*
G02*
X115175000Y-87725000I0J-200000D01*
G01*
X115175000Y-88275000D01*
G75*
G02*
X114975000Y-88475000I-200000J0D01*
G01*
X114575000Y-88475000D01*
G75*
G02*
X114375000Y-88275000I0J200000D01*
G01*
G37*
G36*
G01*
X98975000Y-90725000D02*
X98975000Y-91275000D01*
G75*
G02*
X98775000Y-91475000I-200000J0D01*
G01*
X98375000Y-91475000D01*
G75*
G02*
X98175000Y-91275000I0J200000D01*
G01*
X98175000Y-90725000D01*
G75*
G02*
X98375000Y-90525000I200000J0D01*
G01*
X98775000Y-90525000D01*
G75*
G02*
X98975000Y-90725000I0J-200000D01*
G01*
G37*
G36*
G01*
X100625000Y-90725000D02*
X100625000Y-91275000D01*
G75*
G02*
X100425000Y-91475000I-200000J0D01*
G01*
X100025000Y-91475000D01*
G75*
G02*
X99825000Y-91275000I0J200000D01*
G01*
X99825000Y-90725000D01*
G75*
G02*
X100025000Y-90525000I200000J0D01*
G01*
X100425000Y-90525000D01*
G75*
G02*
X100625000Y-90725000I0J-200000D01*
G01*
G37*
G36*
G01*
X87375000Y-95725000D02*
X87375000Y-96275000D01*
G75*
G02*
X87175000Y-96475000I-200000J0D01*
G01*
X86775000Y-96475000D01*
G75*
G02*
X86575000Y-96275000I0J200000D01*
G01*
X86575000Y-95725000D01*
G75*
G02*
X86775000Y-95525000I200000J0D01*
G01*
X87175000Y-95525000D01*
G75*
G02*
X87375000Y-95725000I0J-200000D01*
G01*
G37*
G36*
G01*
X89025000Y-95725000D02*
X89025000Y-96275000D01*
G75*
G02*
X88825000Y-96475000I-200000J0D01*
G01*
X88425000Y-96475000D01*
G75*
G02*
X88225000Y-96275000I0J200000D01*
G01*
X88225000Y-95725000D01*
G75*
G02*
X88425000Y-95525000I200000J0D01*
G01*
X88825000Y-95525000D01*
G75*
G02*
X89025000Y-95725000I0J-200000D01*
G01*
G37*
G36*
G01*
X86400000Y-38974998D02*
X86400000Y-40225002D01*
G75*
G02*
X86150002Y-40475000I-249998J0D01*
G01*
X85524998Y-40475000D01*
G75*
G02*
X85275000Y-40225002I0J249998D01*
G01*
X85275000Y-38974998D01*
G75*
G02*
X85524998Y-38725000I249998J0D01*
G01*
X86150002Y-38725000D01*
G75*
G02*
X86400000Y-38974998I0J-249998D01*
G01*
G37*
G36*
G01*
X89325000Y-38974998D02*
X89325000Y-40225002D01*
G75*
G02*
X89075002Y-40475000I-249998J0D01*
G01*
X88449998Y-40475000D01*
G75*
G02*
X88200000Y-40225002I0J249998D01*
G01*
X88200000Y-38974998D01*
G75*
G02*
X88449998Y-38725000I249998J0D01*
G01*
X89075002Y-38725000D01*
G75*
G02*
X89325000Y-38974998I0J-249998D01*
G01*
G37*
G36*
G01*
X139660000Y-44500000D02*
X139960000Y-44500000D01*
G75*
G02*
X140110000Y-44650000I0J-150000D01*
G01*
X140110000Y-46300000D01*
G75*
G02*
X139960000Y-46450000I-150000J0D01*
G01*
X139660000Y-46450000D01*
G75*
G02*
X139510000Y-46300000I0J150000D01*
G01*
X139510000Y-44650000D01*
G75*
G02*
X139660000Y-44500000I150000J0D01*
G01*
G37*
G36*
G01*
X138390000Y-44500000D02*
X138690000Y-44500000D01*
G75*
G02*
X138840000Y-44650000I0J-150000D01*
G01*
X138840000Y-46300000D01*
G75*
G02*
X138690000Y-46450000I-150000J0D01*
G01*
X138390000Y-46450000D01*
G75*
G02*
X138240000Y-46300000I0J150000D01*
G01*
X138240000Y-44650000D01*
G75*
G02*
X138390000Y-44500000I150000J0D01*
G01*
G37*
G36*
G01*
X137120000Y-44500000D02*
X137420000Y-44500000D01*
G75*
G02*
X137570000Y-44650000I0J-150000D01*
G01*
X137570000Y-46300000D01*
G75*
G02*
X137420000Y-46450000I-150000J0D01*
G01*
X137120000Y-46450000D01*
G75*
G02*
X136970000Y-46300000I0J150000D01*
G01*
X136970000Y-44650000D01*
G75*
G02*
X137120000Y-44500000I150000J0D01*
G01*
G37*
G36*
G01*
X135850000Y-44500000D02*
X136150000Y-44500000D01*
G75*
G02*
X136300000Y-44650000I0J-150000D01*
G01*
X136300000Y-46300000D01*
G75*
G02*
X136150000Y-46450000I-150000J0D01*
G01*
X135850000Y-46450000D01*
G75*
G02*
X135700000Y-46300000I0J150000D01*
G01*
X135700000Y-44650000D01*
G75*
G02*
X135850000Y-44500000I150000J0D01*
G01*
G37*
G36*
G01*
X134580000Y-44500000D02*
X134880000Y-44500000D01*
G75*
G02*
X135030000Y-44650000I0J-150000D01*
G01*
X135030000Y-46300000D01*
G75*
G02*
X134880000Y-46450000I-150000J0D01*
G01*
X134580000Y-46450000D01*
G75*
G02*
X134430000Y-46300000I0J150000D01*
G01*
X134430000Y-44650000D01*
G75*
G02*
X134580000Y-44500000I150000J0D01*
G01*
G37*
G36*
G01*
X133310000Y-44500000D02*
X133610000Y-44500000D01*
G75*
G02*
X133760000Y-44650000I0J-150000D01*
G01*
X133760000Y-46300000D01*
G75*
G02*
X133610000Y-46450000I-150000J0D01*
G01*
X133310000Y-46450000D01*
G75*
G02*
X133160000Y-46300000I0J150000D01*
G01*
X133160000Y-44650000D01*
G75*
G02*
X133310000Y-44500000I150000J0D01*
G01*
G37*
G36*
G01*
X132040000Y-44500000D02*
X132340000Y-44500000D01*
G75*
G02*
X132490000Y-44650000I0J-150000D01*
G01*
X132490000Y-46300000D01*
G75*
G02*
X132340000Y-46450000I-150000J0D01*
G01*
X132040000Y-46450000D01*
G75*
G02*
X131890000Y-46300000I0J150000D01*
G01*
X131890000Y-44650000D01*
G75*
G02*
X132040000Y-44500000I150000J0D01*
G01*
G37*
G36*
G01*
X132040000Y-39550000D02*
X132340000Y-39550000D01*
G75*
G02*
X132490000Y-39700000I0J-150000D01*
G01*
X132490000Y-41350000D01*
G75*
G02*
X132340000Y-41500000I-150000J0D01*
G01*
X132040000Y-41500000D01*
G75*
G02*
X131890000Y-41350000I0J150000D01*
G01*
X131890000Y-39700000D01*
G75*
G02*
X132040000Y-39550000I150000J0D01*
G01*
G37*
G36*
G01*
X133310000Y-39550000D02*
X133610000Y-39550000D01*
G75*
G02*
X133760000Y-39700000I0J-150000D01*
G01*
X133760000Y-41350000D01*
G75*
G02*
X133610000Y-41500000I-150000J0D01*
G01*
X133310000Y-41500000D01*
G75*
G02*
X133160000Y-41350000I0J150000D01*
G01*
X133160000Y-39700000D01*
G75*
G02*
X133310000Y-39550000I150000J0D01*
G01*
G37*
G36*
G01*
X134580000Y-39550000D02*
X134880000Y-39550000D01*
G75*
G02*
X135030000Y-39700000I0J-150000D01*
G01*
X135030000Y-41350000D01*
G75*
G02*
X134880000Y-41500000I-150000J0D01*
G01*
X134580000Y-41500000D01*
G75*
G02*
X134430000Y-41350000I0J150000D01*
G01*
X134430000Y-39700000D01*
G75*
G02*
X134580000Y-39550000I150000J0D01*
G01*
G37*
G36*
G01*
X135850000Y-39550000D02*
X136150000Y-39550000D01*
G75*
G02*
X136300000Y-39700000I0J-150000D01*
G01*
X136300000Y-41350000D01*
G75*
G02*
X136150000Y-41500000I-150000J0D01*
G01*
X135850000Y-41500000D01*
G75*
G02*
X135700000Y-41350000I0J150000D01*
G01*
X135700000Y-39700000D01*
G75*
G02*
X135850000Y-39550000I150000J0D01*
G01*
G37*
G36*
G01*
X137120000Y-39550000D02*
X137420000Y-39550000D01*
G75*
G02*
X137570000Y-39700000I0J-150000D01*
G01*
X137570000Y-41350000D01*
G75*
G02*
X137420000Y-41500000I-150000J0D01*
G01*
X137120000Y-41500000D01*
G75*
G02*
X136970000Y-41350000I0J150000D01*
G01*
X136970000Y-39700000D01*
G75*
G02*
X137120000Y-39550000I150000J0D01*
G01*
G37*
G36*
G01*
X138390000Y-39550000D02*
X138690000Y-39550000D01*
G75*
G02*
X138840000Y-39700000I0J-150000D01*
G01*
X138840000Y-41350000D01*
G75*
G02*
X138690000Y-41500000I-150000J0D01*
G01*
X138390000Y-41500000D01*
G75*
G02*
X138240000Y-41350000I0J150000D01*
G01*
X138240000Y-39700000D01*
G75*
G02*
X138390000Y-39550000I150000J0D01*
G01*
G37*
G36*
G01*
X139660000Y-39550000D02*
X139960000Y-39550000D01*
G75*
G02*
X140110000Y-39700000I0J-150000D01*
G01*
X140110000Y-41350000D01*
G75*
G02*
X139960000Y-41500000I-150000J0D01*
G01*
X139660000Y-41500000D01*
G75*
G02*
X139510000Y-41350000I0J150000D01*
G01*
X139510000Y-39700000D01*
G75*
G02*
X139660000Y-39550000I150000J0D01*
G01*
G37*
G36*
G01*
X135960000Y-61400000D02*
X136260000Y-61400000D01*
G75*
G02*
X136410000Y-61550000I0J-150000D01*
G01*
X136410000Y-63200000D01*
G75*
G02*
X136260000Y-63350000I-150000J0D01*
G01*
X135960000Y-63350000D01*
G75*
G02*
X135810000Y-63200000I0J150000D01*
G01*
X135810000Y-61550000D01*
G75*
G02*
X135960000Y-61400000I150000J0D01*
G01*
G37*
G36*
G01*
X134690000Y-61400000D02*
X134990000Y-61400000D01*
G75*
G02*
X135140000Y-61550000I0J-150000D01*
G01*
X135140000Y-63200000D01*
G75*
G02*
X134990000Y-63350000I-150000J0D01*
G01*
X134690000Y-63350000D01*
G75*
G02*
X134540000Y-63200000I0J150000D01*
G01*
X134540000Y-61550000D01*
G75*
G02*
X134690000Y-61400000I150000J0D01*
G01*
G37*
G36*
G01*
X133420000Y-61400000D02*
X133720000Y-61400000D01*
G75*
G02*
X133870000Y-61550000I0J-150000D01*
G01*
X133870000Y-63200000D01*
G75*
G02*
X133720000Y-63350000I-150000J0D01*
G01*
X133420000Y-63350000D01*
G75*
G02*
X133270000Y-63200000I0J150000D01*
G01*
X133270000Y-61550000D01*
G75*
G02*
X133420000Y-61400000I150000J0D01*
G01*
G37*
G36*
G01*
X132150000Y-61400000D02*
X132450000Y-61400000D01*
G75*
G02*
X132600000Y-61550000I0J-150000D01*
G01*
X132600000Y-63200000D01*
G75*
G02*
X132450000Y-63350000I-150000J0D01*
G01*
X132150000Y-63350000D01*
G75*
G02*
X132000000Y-63200000I0J150000D01*
G01*
X132000000Y-61550000D01*
G75*
G02*
X132150000Y-61400000I150000J0D01*
G01*
G37*
G36*
G01*
X130880000Y-61400000D02*
X131180000Y-61400000D01*
G75*
G02*
X131330000Y-61550000I0J-150000D01*
G01*
X131330000Y-63200000D01*
G75*
G02*
X131180000Y-63350000I-150000J0D01*
G01*
X130880000Y-63350000D01*
G75*
G02*
X130730000Y-63200000I0J150000D01*
G01*
X130730000Y-61550000D01*
G75*
G02*
X130880000Y-61400000I150000J0D01*
G01*
G37*
G36*
G01*
X129610000Y-61400000D02*
X129910000Y-61400000D01*
G75*
G02*
X130060000Y-61550000I0J-150000D01*
G01*
X130060000Y-63200000D01*
G75*
G02*
X129910000Y-63350000I-150000J0D01*
G01*
X129610000Y-63350000D01*
G75*
G02*
X129460000Y-63200000I0J150000D01*
G01*
X129460000Y-61550000D01*
G75*
G02*
X129610000Y-61400000I150000J0D01*
G01*
G37*
G36*
G01*
X128340000Y-61400000D02*
X128640000Y-61400000D01*
G75*
G02*
X128790000Y-61550000I0J-150000D01*
G01*
X128790000Y-63200000D01*
G75*
G02*
X128640000Y-63350000I-150000J0D01*
G01*
X128340000Y-63350000D01*
G75*
G02*
X128190000Y-63200000I0J150000D01*
G01*
X128190000Y-61550000D01*
G75*
G02*
X128340000Y-61400000I150000J0D01*
G01*
G37*
G36*
G01*
X128340000Y-56450000D02*
X128640000Y-56450000D01*
G75*
G02*
X128790000Y-56600000I0J-150000D01*
G01*
X128790000Y-58250000D01*
G75*
G02*
X128640000Y-58400000I-150000J0D01*
G01*
X128340000Y-58400000D01*
G75*
G02*
X128190000Y-58250000I0J150000D01*
G01*
X128190000Y-56600000D01*
G75*
G02*
X128340000Y-56450000I150000J0D01*
G01*
G37*
G36*
G01*
X129610000Y-56450000D02*
X129910000Y-56450000D01*
G75*
G02*
X130060000Y-56600000I0J-150000D01*
G01*
X130060000Y-58250000D01*
G75*
G02*
X129910000Y-58400000I-150000J0D01*
G01*
X129610000Y-58400000D01*
G75*
G02*
X129460000Y-58250000I0J150000D01*
G01*
X129460000Y-56600000D01*
G75*
G02*
X129610000Y-56450000I150000J0D01*
G01*
G37*
G36*
G01*
X130880000Y-56450000D02*
X131180000Y-56450000D01*
G75*
G02*
X131330000Y-56600000I0J-150000D01*
G01*
X131330000Y-58250000D01*
G75*
G02*
X131180000Y-58400000I-150000J0D01*
G01*
X130880000Y-58400000D01*
G75*
G02*
X130730000Y-58250000I0J150000D01*
G01*
X130730000Y-56600000D01*
G75*
G02*
X130880000Y-56450000I150000J0D01*
G01*
G37*
G36*
G01*
X132150000Y-56450000D02*
X132450000Y-56450000D01*
G75*
G02*
X132600000Y-56600000I0J-150000D01*
G01*
X132600000Y-58250000D01*
G75*
G02*
X132450000Y-58400000I-150000J0D01*
G01*
X132150000Y-58400000D01*
G75*
G02*
X132000000Y-58250000I0J150000D01*
G01*
X132000000Y-56600000D01*
G75*
G02*
X132150000Y-56450000I150000J0D01*
G01*
G37*
G36*
G01*
X133420000Y-56450000D02*
X133720000Y-56450000D01*
G75*
G02*
X133870000Y-56600000I0J-150000D01*
G01*
X133870000Y-58250000D01*
G75*
G02*
X133720000Y-58400000I-150000J0D01*
G01*
X133420000Y-58400000D01*
G75*
G02*
X133270000Y-58250000I0J150000D01*
G01*
X133270000Y-56600000D01*
G75*
G02*
X133420000Y-56450000I150000J0D01*
G01*
G37*
G36*
G01*
X134690000Y-56450000D02*
X134990000Y-56450000D01*
G75*
G02*
X135140000Y-56600000I0J-150000D01*
G01*
X135140000Y-58250000D01*
G75*
G02*
X134990000Y-58400000I-150000J0D01*
G01*
X134690000Y-58400000D01*
G75*
G02*
X134540000Y-58250000I0J150000D01*
G01*
X134540000Y-56600000D01*
G75*
G02*
X134690000Y-56450000I150000J0D01*
G01*
G37*
G36*
G01*
X135960000Y-56450000D02*
X136260000Y-56450000D01*
G75*
G02*
X136410000Y-56600000I0J-150000D01*
G01*
X136410000Y-58250000D01*
G75*
G02*
X136260000Y-58400000I-150000J0D01*
G01*
X135960000Y-58400000D01*
G75*
G02*
X135810000Y-58250000I0J150000D01*
G01*
X135810000Y-56600000D01*
G75*
G02*
X135960000Y-56450000I150000J0D01*
G01*
G37*
G36*
G01*
X102625002Y-98500000D02*
X101374998Y-98500000D01*
G75*
G02*
X101125000Y-98250002I0J249998D01*
G01*
X101125000Y-97624998D01*
G75*
G02*
X101374998Y-97375000I249998J0D01*
G01*
X102625002Y-97375000D01*
G75*
G02*
X102875000Y-97624998I0J-249998D01*
G01*
X102875000Y-98250002D01*
G75*
G02*
X102625002Y-98500000I-249998J0D01*
G01*
G37*
G36*
G01*
X102625002Y-101425000D02*
X101374998Y-101425000D01*
G75*
G02*
X101125000Y-101175002I0J249998D01*
G01*
X101125000Y-100549998D01*
G75*
G02*
X101374998Y-100300000I249998J0D01*
G01*
X102625002Y-100300000D01*
G75*
G02*
X102875000Y-100549998I0J-249998D01*
G01*
X102875000Y-101175002D01*
G75*
G02*
X102625002Y-101425000I-249998J0D01*
G01*
G37*
D13*
X107950000Y-90500000D03*
X110050000Y-90500000D03*
X105950000Y-102000000D03*
X108050000Y-102000000D03*
G36*
G01*
X70500000Y-74774998D02*
X70500000Y-76025002D01*
G75*
G02*
X70250002Y-76275000I-249998J0D01*
G01*
X69624998Y-76275000D01*
G75*
G02*
X69375000Y-76025002I0J249998D01*
G01*
X69375000Y-74774998D01*
G75*
G02*
X69624998Y-74525000I249998J0D01*
G01*
X70250002Y-74525000D01*
G75*
G02*
X70500000Y-74774998I0J-249998D01*
G01*
G37*
G36*
G01*
X73425000Y-74774998D02*
X73425000Y-76025002D01*
G75*
G02*
X73175002Y-76275000I-249998J0D01*
G01*
X72549998Y-76275000D01*
G75*
G02*
X72300000Y-76025002I0J249998D01*
G01*
X72300000Y-74774998D01*
G75*
G02*
X72549998Y-74525000I249998J0D01*
G01*
X73175002Y-74525000D01*
G75*
G02*
X73425000Y-74774998I0J-249998D01*
G01*
G37*
G36*
G01*
X98860000Y-97970000D02*
X99160000Y-97970000D01*
G75*
G02*
X99310000Y-98120000I0J-150000D01*
G01*
X99310000Y-99770000D01*
G75*
G02*
X99160000Y-99920000I-150000J0D01*
G01*
X98860000Y-99920000D01*
G75*
G02*
X98710000Y-99770000I0J150000D01*
G01*
X98710000Y-98120000D01*
G75*
G02*
X98860000Y-97970000I150000J0D01*
G01*
G37*
G36*
G01*
X97590000Y-97970000D02*
X97890000Y-97970000D01*
G75*
G02*
X98040000Y-98120000I0J-150000D01*
G01*
X98040000Y-99770000D01*
G75*
G02*
X97890000Y-99920000I-150000J0D01*
G01*
X97590000Y-99920000D01*
G75*
G02*
X97440000Y-99770000I0J150000D01*
G01*
X97440000Y-98120000D01*
G75*
G02*
X97590000Y-97970000I150000J0D01*
G01*
G37*
G36*
G01*
X96320000Y-97970000D02*
X96620000Y-97970000D01*
G75*
G02*
X96770000Y-98120000I0J-150000D01*
G01*
X96770000Y-99770000D01*
G75*
G02*
X96620000Y-99920000I-150000J0D01*
G01*
X96320000Y-99920000D01*
G75*
G02*
X96170000Y-99770000I0J150000D01*
G01*
X96170000Y-98120000D01*
G75*
G02*
X96320000Y-97970000I150000J0D01*
G01*
G37*
G36*
G01*
X95050000Y-97970000D02*
X95350000Y-97970000D01*
G75*
G02*
X95500000Y-98120000I0J-150000D01*
G01*
X95500000Y-99770000D01*
G75*
G02*
X95350000Y-99920000I-150000J0D01*
G01*
X95050000Y-99920000D01*
G75*
G02*
X94900000Y-99770000I0J150000D01*
G01*
X94900000Y-98120000D01*
G75*
G02*
X95050000Y-97970000I150000J0D01*
G01*
G37*
G36*
G01*
X93780000Y-97970000D02*
X94080000Y-97970000D01*
G75*
G02*
X94230000Y-98120000I0J-150000D01*
G01*
X94230000Y-99770000D01*
G75*
G02*
X94080000Y-99920000I-150000J0D01*
G01*
X93780000Y-99920000D01*
G75*
G02*
X93630000Y-99770000I0J150000D01*
G01*
X93630000Y-98120000D01*
G75*
G02*
X93780000Y-97970000I150000J0D01*
G01*
G37*
G36*
G01*
X92510000Y-97970000D02*
X92810000Y-97970000D01*
G75*
G02*
X92960000Y-98120000I0J-150000D01*
G01*
X92960000Y-99770000D01*
G75*
G02*
X92810000Y-99920000I-150000J0D01*
G01*
X92510000Y-99920000D01*
G75*
G02*
X92360000Y-99770000I0J150000D01*
G01*
X92360000Y-98120000D01*
G75*
G02*
X92510000Y-97970000I150000J0D01*
G01*
G37*
G36*
G01*
X91240000Y-97970000D02*
X91540000Y-97970000D01*
G75*
G02*
X91690000Y-98120000I0J-150000D01*
G01*
X91690000Y-99770000D01*
G75*
G02*
X91540000Y-99920000I-150000J0D01*
G01*
X91240000Y-99920000D01*
G75*
G02*
X91090000Y-99770000I0J150000D01*
G01*
X91090000Y-98120000D01*
G75*
G02*
X91240000Y-97970000I150000J0D01*
G01*
G37*
G36*
G01*
X91240000Y-93020000D02*
X91540000Y-93020000D01*
G75*
G02*
X91690000Y-93170000I0J-150000D01*
G01*
X91690000Y-94820000D01*
G75*
G02*
X91540000Y-94970000I-150000J0D01*
G01*
X91240000Y-94970000D01*
G75*
G02*
X91090000Y-94820000I0J150000D01*
G01*
X91090000Y-93170000D01*
G75*
G02*
X91240000Y-93020000I150000J0D01*
G01*
G37*
G36*
G01*
X92510000Y-93020000D02*
X92810000Y-93020000D01*
G75*
G02*
X92960000Y-93170000I0J-150000D01*
G01*
X92960000Y-94820000D01*
G75*
G02*
X92810000Y-94970000I-150000J0D01*
G01*
X92510000Y-94970000D01*
G75*
G02*
X92360000Y-94820000I0J150000D01*
G01*
X92360000Y-93170000D01*
G75*
G02*
X92510000Y-93020000I150000J0D01*
G01*
G37*
G36*
G01*
X93780000Y-93020000D02*
X94080000Y-93020000D01*
G75*
G02*
X94230000Y-93170000I0J-150000D01*
G01*
X94230000Y-94820000D01*
G75*
G02*
X94080000Y-94970000I-150000J0D01*
G01*
X93780000Y-94970000D01*
G75*
G02*
X93630000Y-94820000I0J150000D01*
G01*
X93630000Y-93170000D01*
G75*
G02*
X93780000Y-93020000I150000J0D01*
G01*
G37*
G36*
G01*
X95050000Y-93020000D02*
X95350000Y-93020000D01*
G75*
G02*
X95500000Y-93170000I0J-150000D01*
G01*
X95500000Y-94820000D01*
G75*
G02*
X95350000Y-94970000I-150000J0D01*
G01*
X95050000Y-94970000D01*
G75*
G02*
X94900000Y-94820000I0J150000D01*
G01*
X94900000Y-93170000D01*
G75*
G02*
X95050000Y-93020000I150000J0D01*
G01*
G37*
G36*
G01*
X96320000Y-93020000D02*
X96620000Y-93020000D01*
G75*
G02*
X96770000Y-93170000I0J-150000D01*
G01*
X96770000Y-94820000D01*
G75*
G02*
X96620000Y-94970000I-150000J0D01*
G01*
X96320000Y-94970000D01*
G75*
G02*
X96170000Y-94820000I0J150000D01*
G01*
X96170000Y-93170000D01*
G75*
G02*
X96320000Y-93020000I150000J0D01*
G01*
G37*
G36*
G01*
X97590000Y-93020000D02*
X97890000Y-93020000D01*
G75*
G02*
X98040000Y-93170000I0J-150000D01*
G01*
X98040000Y-94820000D01*
G75*
G02*
X97890000Y-94970000I-150000J0D01*
G01*
X97590000Y-94970000D01*
G75*
G02*
X97440000Y-94820000I0J150000D01*
G01*
X97440000Y-93170000D01*
G75*
G02*
X97590000Y-93020000I150000J0D01*
G01*
G37*
G36*
G01*
X98860000Y-93020000D02*
X99160000Y-93020000D01*
G75*
G02*
X99310000Y-93170000I0J-150000D01*
G01*
X99310000Y-94820000D01*
G75*
G02*
X99160000Y-94970000I-150000J0D01*
G01*
X98860000Y-94970000D01*
G75*
G02*
X98710000Y-94820000I0J150000D01*
G01*
X98710000Y-93170000D01*
G75*
G02*
X98860000Y-93020000I150000J0D01*
G01*
G37*
G36*
G01*
X97175000Y-102750000D02*
X97175000Y-103250000D01*
G75*
G02*
X96950000Y-103475000I-225000J0D01*
G01*
X96500000Y-103475000D01*
G75*
G02*
X96275000Y-103250000I0J225000D01*
G01*
X96275000Y-102750000D01*
G75*
G02*
X96500000Y-102525000I225000J0D01*
G01*
X96950000Y-102525000D01*
G75*
G02*
X97175000Y-102750000I0J-225000D01*
G01*
G37*
G36*
G01*
X98725000Y-102750000D02*
X98725000Y-103250000D01*
G75*
G02*
X98500000Y-103475000I-225000J0D01*
G01*
X98050000Y-103475000D01*
G75*
G02*
X97825000Y-103250000I0J225000D01*
G01*
X97825000Y-102750000D01*
G75*
G02*
X98050000Y-102525000I225000J0D01*
G01*
X98500000Y-102525000D01*
G75*
G02*
X98725000Y-102750000I0J-225000D01*
G01*
G37*
G36*
G01*
X95950000Y-89875000D02*
X95450000Y-89875000D01*
G75*
G02*
X95225000Y-89650000I0J225000D01*
G01*
X95225000Y-89200000D01*
G75*
G02*
X95450000Y-88975000I225000J0D01*
G01*
X95950000Y-88975000D01*
G75*
G02*
X96175000Y-89200000I0J-225000D01*
G01*
X96175000Y-89650000D01*
G75*
G02*
X95950000Y-89875000I-225000J0D01*
G01*
G37*
G36*
G01*
X95950000Y-91425000D02*
X95450000Y-91425000D01*
G75*
G02*
X95225000Y-91200000I0J225000D01*
G01*
X95225000Y-90750000D01*
G75*
G02*
X95450000Y-90525000I225000J0D01*
G01*
X95950000Y-90525000D01*
G75*
G02*
X96175000Y-90750000I0J-225000D01*
G01*
X96175000Y-91200000D01*
G75*
G02*
X95950000Y-91425000I-225000J0D01*
G01*
G37*
G36*
G01*
X111575000Y-39225000D02*
X111575000Y-39775000D01*
G75*
G02*
X111375000Y-39975000I-200000J0D01*
G01*
X110975000Y-39975000D01*
G75*
G02*
X110775000Y-39775000I0J200000D01*
G01*
X110775000Y-39225000D01*
G75*
G02*
X110975000Y-39025000I200000J0D01*
G01*
X111375000Y-39025000D01*
G75*
G02*
X111575000Y-39225000I0J-200000D01*
G01*
G37*
G36*
G01*
X113225000Y-39225000D02*
X113225000Y-39775000D01*
G75*
G02*
X113025000Y-39975000I-200000J0D01*
G01*
X112625000Y-39975000D01*
G75*
G02*
X112425000Y-39775000I0J200000D01*
G01*
X112425000Y-39225000D01*
G75*
G02*
X112625000Y-39025000I200000J0D01*
G01*
X113025000Y-39025000D01*
G75*
G02*
X113225000Y-39225000I0J-200000D01*
G01*
G37*
G36*
G01*
X116075000Y-39375000D02*
X115525000Y-39375000D01*
G75*
G02*
X115325000Y-39175000I0J200000D01*
G01*
X115325000Y-38775000D01*
G75*
G02*
X115525000Y-38575000I200000J0D01*
G01*
X116075000Y-38575000D01*
G75*
G02*
X116275000Y-38775000I0J-200000D01*
G01*
X116275000Y-39175000D01*
G75*
G02*
X116075000Y-39375000I-200000J0D01*
G01*
G37*
G36*
G01*
X116075000Y-41025000D02*
X115525000Y-41025000D01*
G75*
G02*
X115325000Y-40825000I0J200000D01*
G01*
X115325000Y-40425000D01*
G75*
G02*
X115525000Y-40225000I200000J0D01*
G01*
X116075000Y-40225000D01*
G75*
G02*
X116275000Y-40425000I0J-200000D01*
G01*
X116275000Y-40825000D01*
G75*
G02*
X116075000Y-41025000I-200000J0D01*
G01*
G37*
G36*
G01*
X127805000Y-84600000D02*
X127505000Y-84600000D01*
G75*
G02*
X127355000Y-84450000I0J150000D01*
G01*
X127355000Y-82800000D01*
G75*
G02*
X127505000Y-82650000I150000J0D01*
G01*
X127805000Y-82650000D01*
G75*
G02*
X127955000Y-82800000I0J-150000D01*
G01*
X127955000Y-84450000D01*
G75*
G02*
X127805000Y-84600000I-150000J0D01*
G01*
G37*
G36*
G01*
X129075000Y-84600000D02*
X128775000Y-84600000D01*
G75*
G02*
X128625000Y-84450000I0J150000D01*
G01*
X128625000Y-82800000D01*
G75*
G02*
X128775000Y-82650000I150000J0D01*
G01*
X129075000Y-82650000D01*
G75*
G02*
X129225000Y-82800000I0J-150000D01*
G01*
X129225000Y-84450000D01*
G75*
G02*
X129075000Y-84600000I-150000J0D01*
G01*
G37*
G36*
G01*
X130345000Y-84600000D02*
X130045000Y-84600000D01*
G75*
G02*
X129895000Y-84450000I0J150000D01*
G01*
X129895000Y-82800000D01*
G75*
G02*
X130045000Y-82650000I150000J0D01*
G01*
X130345000Y-82650000D01*
G75*
G02*
X130495000Y-82800000I0J-150000D01*
G01*
X130495000Y-84450000D01*
G75*
G02*
X130345000Y-84600000I-150000J0D01*
G01*
G37*
G36*
G01*
X131615000Y-84600000D02*
X131315000Y-84600000D01*
G75*
G02*
X131165000Y-84450000I0J150000D01*
G01*
X131165000Y-82800000D01*
G75*
G02*
X131315000Y-82650000I150000J0D01*
G01*
X131615000Y-82650000D01*
G75*
G02*
X131765000Y-82800000I0J-150000D01*
G01*
X131765000Y-84450000D01*
G75*
G02*
X131615000Y-84600000I-150000J0D01*
G01*
G37*
G36*
G01*
X132885000Y-84600000D02*
X132585000Y-84600000D01*
G75*
G02*
X132435000Y-84450000I0J150000D01*
G01*
X132435000Y-82800000D01*
G75*
G02*
X132585000Y-82650000I150000J0D01*
G01*
X132885000Y-82650000D01*
G75*
G02*
X133035000Y-82800000I0J-150000D01*
G01*
X133035000Y-84450000D01*
G75*
G02*
X132885000Y-84600000I-150000J0D01*
G01*
G37*
G36*
G01*
X134155000Y-84600000D02*
X133855000Y-84600000D01*
G75*
G02*
X133705000Y-84450000I0J150000D01*
G01*
X133705000Y-82800000D01*
G75*
G02*
X133855000Y-82650000I150000J0D01*
G01*
X134155000Y-82650000D01*
G75*
G02*
X134305000Y-82800000I0J-150000D01*
G01*
X134305000Y-84450000D01*
G75*
G02*
X134155000Y-84600000I-150000J0D01*
G01*
G37*
G36*
G01*
X135425000Y-84600000D02*
X135125000Y-84600000D01*
G75*
G02*
X134975000Y-84450000I0J150000D01*
G01*
X134975000Y-82800000D01*
G75*
G02*
X135125000Y-82650000I150000J0D01*
G01*
X135425000Y-82650000D01*
G75*
G02*
X135575000Y-82800000I0J-150000D01*
G01*
X135575000Y-84450000D01*
G75*
G02*
X135425000Y-84600000I-150000J0D01*
G01*
G37*
G36*
G01*
X136695000Y-84600000D02*
X136395000Y-84600000D01*
G75*
G02*
X136245000Y-84450000I0J150000D01*
G01*
X136245000Y-82800000D01*
G75*
G02*
X136395000Y-82650000I150000J0D01*
G01*
X136695000Y-82650000D01*
G75*
G02*
X136845000Y-82800000I0J-150000D01*
G01*
X136845000Y-84450000D01*
G75*
G02*
X136695000Y-84600000I-150000J0D01*
G01*
G37*
G36*
G01*
X136695000Y-89550000D02*
X136395000Y-89550000D01*
G75*
G02*
X136245000Y-89400000I0J150000D01*
G01*
X136245000Y-87750000D01*
G75*
G02*
X136395000Y-87600000I150000J0D01*
G01*
X136695000Y-87600000D01*
G75*
G02*
X136845000Y-87750000I0J-150000D01*
G01*
X136845000Y-89400000D01*
G75*
G02*
X136695000Y-89550000I-150000J0D01*
G01*
G37*
G36*
G01*
X135425000Y-89550000D02*
X135125000Y-89550000D01*
G75*
G02*
X134975000Y-89400000I0J150000D01*
G01*
X134975000Y-87750000D01*
G75*
G02*
X135125000Y-87600000I150000J0D01*
G01*
X135425000Y-87600000D01*
G75*
G02*
X135575000Y-87750000I0J-150000D01*
G01*
X135575000Y-89400000D01*
G75*
G02*
X135425000Y-89550000I-150000J0D01*
G01*
G37*
G36*
G01*
X134155000Y-89550000D02*
X133855000Y-89550000D01*
G75*
G02*
X133705000Y-89400000I0J150000D01*
G01*
X133705000Y-87750000D01*
G75*
G02*
X133855000Y-87600000I150000J0D01*
G01*
X134155000Y-87600000D01*
G75*
G02*
X134305000Y-87750000I0J-150000D01*
G01*
X134305000Y-89400000D01*
G75*
G02*
X134155000Y-89550000I-150000J0D01*
G01*
G37*
G36*
G01*
X132885000Y-89550000D02*
X132585000Y-89550000D01*
G75*
G02*
X132435000Y-89400000I0J150000D01*
G01*
X132435000Y-87750000D01*
G75*
G02*
X132585000Y-87600000I150000J0D01*
G01*
X132885000Y-87600000D01*
G75*
G02*
X133035000Y-87750000I0J-150000D01*
G01*
X133035000Y-89400000D01*
G75*
G02*
X132885000Y-89550000I-150000J0D01*
G01*
G37*
G36*
G01*
X131615000Y-89550000D02*
X131315000Y-89550000D01*
G75*
G02*
X131165000Y-89400000I0J150000D01*
G01*
X131165000Y-87750000D01*
G75*
G02*
X131315000Y-87600000I150000J0D01*
G01*
X131615000Y-87600000D01*
G75*
G02*
X131765000Y-87750000I0J-150000D01*
G01*
X131765000Y-89400000D01*
G75*
G02*
X131615000Y-89550000I-150000J0D01*
G01*
G37*
G36*
G01*
X130345000Y-89550000D02*
X130045000Y-89550000D01*
G75*
G02*
X129895000Y-89400000I0J150000D01*
G01*
X129895000Y-87750000D01*
G75*
G02*
X130045000Y-87600000I150000J0D01*
G01*
X130345000Y-87600000D01*
G75*
G02*
X130495000Y-87750000I0J-150000D01*
G01*
X130495000Y-89400000D01*
G75*
G02*
X130345000Y-89550000I-150000J0D01*
G01*
G37*
G36*
G01*
X129075000Y-89550000D02*
X128775000Y-89550000D01*
G75*
G02*
X128625000Y-89400000I0J150000D01*
G01*
X128625000Y-87750000D01*
G75*
G02*
X128775000Y-87600000I150000J0D01*
G01*
X129075000Y-87600000D01*
G75*
G02*
X129225000Y-87750000I0J-150000D01*
G01*
X129225000Y-89400000D01*
G75*
G02*
X129075000Y-89550000I-150000J0D01*
G01*
G37*
G36*
G01*
X127805000Y-89550000D02*
X127505000Y-89550000D01*
G75*
G02*
X127355000Y-89400000I0J150000D01*
G01*
X127355000Y-87750000D01*
G75*
G02*
X127505000Y-87600000I150000J0D01*
G01*
X127805000Y-87600000D01*
G75*
G02*
X127955000Y-87750000I0J-150000D01*
G01*
X127955000Y-89400000D01*
G75*
G02*
X127805000Y-89550000I-150000J0D01*
G01*
G37*
G36*
G01*
X114255000Y-97900000D02*
X114555000Y-97900000D01*
G75*
G02*
X114705000Y-98050000I0J-150000D01*
G01*
X114705000Y-99700000D01*
G75*
G02*
X114555000Y-99850000I-150000J0D01*
G01*
X114255000Y-99850000D01*
G75*
G02*
X114105000Y-99700000I0J150000D01*
G01*
X114105000Y-98050000D01*
G75*
G02*
X114255000Y-97900000I150000J0D01*
G01*
G37*
G36*
G01*
X112985000Y-97900000D02*
X113285000Y-97900000D01*
G75*
G02*
X113435000Y-98050000I0J-150000D01*
G01*
X113435000Y-99700000D01*
G75*
G02*
X113285000Y-99850000I-150000J0D01*
G01*
X112985000Y-99850000D01*
G75*
G02*
X112835000Y-99700000I0J150000D01*
G01*
X112835000Y-98050000D01*
G75*
G02*
X112985000Y-97900000I150000J0D01*
G01*
G37*
G36*
G01*
X111715000Y-97900000D02*
X112015000Y-97900000D01*
G75*
G02*
X112165000Y-98050000I0J-150000D01*
G01*
X112165000Y-99700000D01*
G75*
G02*
X112015000Y-99850000I-150000J0D01*
G01*
X111715000Y-99850000D01*
G75*
G02*
X111565000Y-99700000I0J150000D01*
G01*
X111565000Y-98050000D01*
G75*
G02*
X111715000Y-97900000I150000J0D01*
G01*
G37*
G36*
G01*
X110445000Y-97900000D02*
X110745000Y-97900000D01*
G75*
G02*
X110895000Y-98050000I0J-150000D01*
G01*
X110895000Y-99700000D01*
G75*
G02*
X110745000Y-99850000I-150000J0D01*
G01*
X110445000Y-99850000D01*
G75*
G02*
X110295000Y-99700000I0J150000D01*
G01*
X110295000Y-98050000D01*
G75*
G02*
X110445000Y-97900000I150000J0D01*
G01*
G37*
G36*
G01*
X110445000Y-92950000D02*
X110745000Y-92950000D01*
G75*
G02*
X110895000Y-93100000I0J-150000D01*
G01*
X110895000Y-94750000D01*
G75*
G02*
X110745000Y-94900000I-150000J0D01*
G01*
X110445000Y-94900000D01*
G75*
G02*
X110295000Y-94750000I0J150000D01*
G01*
X110295000Y-93100000D01*
G75*
G02*
X110445000Y-92950000I150000J0D01*
G01*
G37*
G36*
G01*
X111715000Y-92950000D02*
X112015000Y-92950000D01*
G75*
G02*
X112165000Y-93100000I0J-150000D01*
G01*
X112165000Y-94750000D01*
G75*
G02*
X112015000Y-94900000I-150000J0D01*
G01*
X111715000Y-94900000D01*
G75*
G02*
X111565000Y-94750000I0J150000D01*
G01*
X111565000Y-93100000D01*
G75*
G02*
X111715000Y-92950000I150000J0D01*
G01*
G37*
G36*
G01*
X112985000Y-92950000D02*
X113285000Y-92950000D01*
G75*
G02*
X113435000Y-93100000I0J-150000D01*
G01*
X113435000Y-94750000D01*
G75*
G02*
X113285000Y-94900000I-150000J0D01*
G01*
X112985000Y-94900000D01*
G75*
G02*
X112835000Y-94750000I0J150000D01*
G01*
X112835000Y-93100000D01*
G75*
G02*
X112985000Y-92950000I150000J0D01*
G01*
G37*
G36*
G01*
X114255000Y-92950000D02*
X114555000Y-92950000D01*
G75*
G02*
X114705000Y-93100000I0J-150000D01*
G01*
X114705000Y-94750000D01*
G75*
G02*
X114555000Y-94900000I-150000J0D01*
G01*
X114255000Y-94900000D01*
G75*
G02*
X114105000Y-94750000I0J150000D01*
G01*
X114105000Y-93100000D01*
G75*
G02*
X114255000Y-92950000I150000J0D01*
G01*
G37*
G36*
G01*
X105295000Y-45900000D02*
X105595000Y-45900000D01*
G75*
G02*
X105745000Y-46050000I0J-150000D01*
G01*
X105745000Y-47700000D01*
G75*
G02*
X105595000Y-47850000I-150000J0D01*
G01*
X105295000Y-47850000D01*
G75*
G02*
X105145000Y-47700000I0J150000D01*
G01*
X105145000Y-46050000D01*
G75*
G02*
X105295000Y-45900000I150000J0D01*
G01*
G37*
G36*
G01*
X104025000Y-45900000D02*
X104325000Y-45900000D01*
G75*
G02*
X104475000Y-46050000I0J-150000D01*
G01*
X104475000Y-47700000D01*
G75*
G02*
X104325000Y-47850000I-150000J0D01*
G01*
X104025000Y-47850000D01*
G75*
G02*
X103875000Y-47700000I0J150000D01*
G01*
X103875000Y-46050000D01*
G75*
G02*
X104025000Y-45900000I150000J0D01*
G01*
G37*
G36*
G01*
X102755000Y-45900000D02*
X103055000Y-45900000D01*
G75*
G02*
X103205000Y-46050000I0J-150000D01*
G01*
X103205000Y-47700000D01*
G75*
G02*
X103055000Y-47850000I-150000J0D01*
G01*
X102755000Y-47850000D01*
G75*
G02*
X102605000Y-47700000I0J150000D01*
G01*
X102605000Y-46050000D01*
G75*
G02*
X102755000Y-45900000I150000J0D01*
G01*
G37*
G36*
G01*
X101485000Y-45900000D02*
X101785000Y-45900000D01*
G75*
G02*
X101935000Y-46050000I0J-150000D01*
G01*
X101935000Y-47700000D01*
G75*
G02*
X101785000Y-47850000I-150000J0D01*
G01*
X101485000Y-47850000D01*
G75*
G02*
X101335000Y-47700000I0J150000D01*
G01*
X101335000Y-46050000D01*
G75*
G02*
X101485000Y-45900000I150000J0D01*
G01*
G37*
G36*
G01*
X100215000Y-45900000D02*
X100515000Y-45900000D01*
G75*
G02*
X100665000Y-46050000I0J-150000D01*
G01*
X100665000Y-47700000D01*
G75*
G02*
X100515000Y-47850000I-150000J0D01*
G01*
X100215000Y-47850000D01*
G75*
G02*
X100065000Y-47700000I0J150000D01*
G01*
X100065000Y-46050000D01*
G75*
G02*
X100215000Y-45900000I150000J0D01*
G01*
G37*
G36*
G01*
X98945000Y-45900000D02*
X99245000Y-45900000D01*
G75*
G02*
X99395000Y-46050000I0J-150000D01*
G01*
X99395000Y-47700000D01*
G75*
G02*
X99245000Y-47850000I-150000J0D01*
G01*
X98945000Y-47850000D01*
G75*
G02*
X98795000Y-47700000I0J150000D01*
G01*
X98795000Y-46050000D01*
G75*
G02*
X98945000Y-45900000I150000J0D01*
G01*
G37*
G36*
G01*
X97675000Y-45900000D02*
X97975000Y-45900000D01*
G75*
G02*
X98125000Y-46050000I0J-150000D01*
G01*
X98125000Y-47700000D01*
G75*
G02*
X97975000Y-47850000I-150000J0D01*
G01*
X97675000Y-47850000D01*
G75*
G02*
X97525000Y-47700000I0J150000D01*
G01*
X97525000Y-46050000D01*
G75*
G02*
X97675000Y-45900000I150000J0D01*
G01*
G37*
G36*
G01*
X96405000Y-45900000D02*
X96705000Y-45900000D01*
G75*
G02*
X96855000Y-46050000I0J-150000D01*
G01*
X96855000Y-47700000D01*
G75*
G02*
X96705000Y-47850000I-150000J0D01*
G01*
X96405000Y-47850000D01*
G75*
G02*
X96255000Y-47700000I0J150000D01*
G01*
X96255000Y-46050000D01*
G75*
G02*
X96405000Y-45900000I150000J0D01*
G01*
G37*
G36*
G01*
X96405000Y-40950000D02*
X96705000Y-40950000D01*
G75*
G02*
X96855000Y-41100000I0J-150000D01*
G01*
X96855000Y-42750000D01*
G75*
G02*
X96705000Y-42900000I-150000J0D01*
G01*
X96405000Y-42900000D01*
G75*
G02*
X96255000Y-42750000I0J150000D01*
G01*
X96255000Y-41100000D01*
G75*
G02*
X96405000Y-40950000I150000J0D01*
G01*
G37*
G36*
G01*
X97675000Y-40950000D02*
X97975000Y-40950000D01*
G75*
G02*
X98125000Y-41100000I0J-150000D01*
G01*
X98125000Y-42750000D01*
G75*
G02*
X97975000Y-42900000I-150000J0D01*
G01*
X97675000Y-42900000D01*
G75*
G02*
X97525000Y-42750000I0J150000D01*
G01*
X97525000Y-41100000D01*
G75*
G02*
X97675000Y-40950000I150000J0D01*
G01*
G37*
G36*
G01*
X98945000Y-40950000D02*
X99245000Y-40950000D01*
G75*
G02*
X99395000Y-41100000I0J-150000D01*
G01*
X99395000Y-42750000D01*
G75*
G02*
X99245000Y-42900000I-150000J0D01*
G01*
X98945000Y-42900000D01*
G75*
G02*
X98795000Y-42750000I0J150000D01*
G01*
X98795000Y-41100000D01*
G75*
G02*
X98945000Y-40950000I150000J0D01*
G01*
G37*
G36*
G01*
X100215000Y-40950000D02*
X100515000Y-40950000D01*
G75*
G02*
X100665000Y-41100000I0J-150000D01*
G01*
X100665000Y-42750000D01*
G75*
G02*
X100515000Y-42900000I-150000J0D01*
G01*
X100215000Y-42900000D01*
G75*
G02*
X100065000Y-42750000I0J150000D01*
G01*
X100065000Y-41100000D01*
G75*
G02*
X100215000Y-40950000I150000J0D01*
G01*
G37*
G36*
G01*
X101485000Y-40950000D02*
X101785000Y-40950000D01*
G75*
G02*
X101935000Y-41100000I0J-150000D01*
G01*
X101935000Y-42750000D01*
G75*
G02*
X101785000Y-42900000I-150000J0D01*
G01*
X101485000Y-42900000D01*
G75*
G02*
X101335000Y-42750000I0J150000D01*
G01*
X101335000Y-41100000D01*
G75*
G02*
X101485000Y-40950000I150000J0D01*
G01*
G37*
G36*
G01*
X102755000Y-40950000D02*
X103055000Y-40950000D01*
G75*
G02*
X103205000Y-41100000I0J-150000D01*
G01*
X103205000Y-42750000D01*
G75*
G02*
X103055000Y-42900000I-150000J0D01*
G01*
X102755000Y-42900000D01*
G75*
G02*
X102605000Y-42750000I0J150000D01*
G01*
X102605000Y-41100000D01*
G75*
G02*
X102755000Y-40950000I150000J0D01*
G01*
G37*
G36*
G01*
X104025000Y-40950000D02*
X104325000Y-40950000D01*
G75*
G02*
X104475000Y-41100000I0J-150000D01*
G01*
X104475000Y-42750000D01*
G75*
G02*
X104325000Y-42900000I-150000J0D01*
G01*
X104025000Y-42900000D01*
G75*
G02*
X103875000Y-42750000I0J150000D01*
G01*
X103875000Y-41100000D01*
G75*
G02*
X104025000Y-40950000I150000J0D01*
G01*
G37*
G36*
G01*
X105295000Y-40950000D02*
X105595000Y-40950000D01*
G75*
G02*
X105745000Y-41100000I0J-150000D01*
G01*
X105745000Y-42750000D01*
G75*
G02*
X105595000Y-42900000I-150000J0D01*
G01*
X105295000Y-42900000D01*
G75*
G02*
X105145000Y-42750000I0J150000D01*
G01*
X105145000Y-41100000D01*
G75*
G02*
X105295000Y-40950000I150000J0D01*
G01*
G37*
G36*
G01*
X123360000Y-47500000D02*
X123660000Y-47500000D01*
G75*
G02*
X123810000Y-47650000I0J-150000D01*
G01*
X123810000Y-49300000D01*
G75*
G02*
X123660000Y-49450000I-150000J0D01*
G01*
X123360000Y-49450000D01*
G75*
G02*
X123210000Y-49300000I0J150000D01*
G01*
X123210000Y-47650000D01*
G75*
G02*
X123360000Y-47500000I150000J0D01*
G01*
G37*
G36*
G01*
X122090000Y-47500000D02*
X122390000Y-47500000D01*
G75*
G02*
X122540000Y-47650000I0J-150000D01*
G01*
X122540000Y-49300000D01*
G75*
G02*
X122390000Y-49450000I-150000J0D01*
G01*
X122090000Y-49450000D01*
G75*
G02*
X121940000Y-49300000I0J150000D01*
G01*
X121940000Y-47650000D01*
G75*
G02*
X122090000Y-47500000I150000J0D01*
G01*
G37*
G36*
G01*
X120820000Y-47500000D02*
X121120000Y-47500000D01*
G75*
G02*
X121270000Y-47650000I0J-150000D01*
G01*
X121270000Y-49300000D01*
G75*
G02*
X121120000Y-49450000I-150000J0D01*
G01*
X120820000Y-49450000D01*
G75*
G02*
X120670000Y-49300000I0J150000D01*
G01*
X120670000Y-47650000D01*
G75*
G02*
X120820000Y-47500000I150000J0D01*
G01*
G37*
G36*
G01*
X119550000Y-47500000D02*
X119850000Y-47500000D01*
G75*
G02*
X120000000Y-47650000I0J-150000D01*
G01*
X120000000Y-49300000D01*
G75*
G02*
X119850000Y-49450000I-150000J0D01*
G01*
X119550000Y-49450000D01*
G75*
G02*
X119400000Y-49300000I0J150000D01*
G01*
X119400000Y-47650000D01*
G75*
G02*
X119550000Y-47500000I150000J0D01*
G01*
G37*
G36*
G01*
X118280000Y-47500000D02*
X118580000Y-47500000D01*
G75*
G02*
X118730000Y-47650000I0J-150000D01*
G01*
X118730000Y-49300000D01*
G75*
G02*
X118580000Y-49450000I-150000J0D01*
G01*
X118280000Y-49450000D01*
G75*
G02*
X118130000Y-49300000I0J150000D01*
G01*
X118130000Y-47650000D01*
G75*
G02*
X118280000Y-47500000I150000J0D01*
G01*
G37*
G36*
G01*
X117010000Y-47500000D02*
X117310000Y-47500000D01*
G75*
G02*
X117460000Y-47650000I0J-150000D01*
G01*
X117460000Y-49300000D01*
G75*
G02*
X117310000Y-49450000I-150000J0D01*
G01*
X117010000Y-49450000D01*
G75*
G02*
X116860000Y-49300000I0J150000D01*
G01*
X116860000Y-47650000D01*
G75*
G02*
X117010000Y-47500000I150000J0D01*
G01*
G37*
G36*
G01*
X115740000Y-47500000D02*
X116040000Y-47500000D01*
G75*
G02*
X116190000Y-47650000I0J-150000D01*
G01*
X116190000Y-49300000D01*
G75*
G02*
X116040000Y-49450000I-150000J0D01*
G01*
X115740000Y-49450000D01*
G75*
G02*
X115590000Y-49300000I0J150000D01*
G01*
X115590000Y-47650000D01*
G75*
G02*
X115740000Y-47500000I150000J0D01*
G01*
G37*
G36*
G01*
X115740000Y-42550000D02*
X116040000Y-42550000D01*
G75*
G02*
X116190000Y-42700000I0J-150000D01*
G01*
X116190000Y-44350000D01*
G75*
G02*
X116040000Y-44500000I-150000J0D01*
G01*
X115740000Y-44500000D01*
G75*
G02*
X115590000Y-44350000I0J150000D01*
G01*
X115590000Y-42700000D01*
G75*
G02*
X115740000Y-42550000I150000J0D01*
G01*
G37*
G36*
G01*
X117010000Y-42550000D02*
X117310000Y-42550000D01*
G75*
G02*
X117460000Y-42700000I0J-150000D01*
G01*
X117460000Y-44350000D01*
G75*
G02*
X117310000Y-44500000I-150000J0D01*
G01*
X117010000Y-44500000D01*
G75*
G02*
X116860000Y-44350000I0J150000D01*
G01*
X116860000Y-42700000D01*
G75*
G02*
X117010000Y-42550000I150000J0D01*
G01*
G37*
G36*
G01*
X118280000Y-42550000D02*
X118580000Y-42550000D01*
G75*
G02*
X118730000Y-42700000I0J-150000D01*
G01*
X118730000Y-44350000D01*
G75*
G02*
X118580000Y-44500000I-150000J0D01*
G01*
X118280000Y-44500000D01*
G75*
G02*
X118130000Y-44350000I0J150000D01*
G01*
X118130000Y-42700000D01*
G75*
G02*
X118280000Y-42550000I150000J0D01*
G01*
G37*
G36*
G01*
X119550000Y-42550000D02*
X119850000Y-42550000D01*
G75*
G02*
X120000000Y-42700000I0J-150000D01*
G01*
X120000000Y-44350000D01*
G75*
G02*
X119850000Y-44500000I-150000J0D01*
G01*
X119550000Y-44500000D01*
G75*
G02*
X119400000Y-44350000I0J150000D01*
G01*
X119400000Y-42700000D01*
G75*
G02*
X119550000Y-42550000I150000J0D01*
G01*
G37*
G36*
G01*
X120820000Y-42550000D02*
X121120000Y-42550000D01*
G75*
G02*
X121270000Y-42700000I0J-150000D01*
G01*
X121270000Y-44350000D01*
G75*
G02*
X121120000Y-44500000I-150000J0D01*
G01*
X120820000Y-44500000D01*
G75*
G02*
X120670000Y-44350000I0J150000D01*
G01*
X120670000Y-42700000D01*
G75*
G02*
X120820000Y-42550000I150000J0D01*
G01*
G37*
G36*
G01*
X122090000Y-42550000D02*
X122390000Y-42550000D01*
G75*
G02*
X122540000Y-42700000I0J-150000D01*
G01*
X122540000Y-44350000D01*
G75*
G02*
X122390000Y-44500000I-150000J0D01*
G01*
X122090000Y-44500000D01*
G75*
G02*
X121940000Y-44350000I0J150000D01*
G01*
X121940000Y-42700000D01*
G75*
G02*
X122090000Y-42550000I150000J0D01*
G01*
G37*
G36*
G01*
X123360000Y-42550000D02*
X123660000Y-42550000D01*
G75*
G02*
X123810000Y-42700000I0J-150000D01*
G01*
X123810000Y-44350000D01*
G75*
G02*
X123660000Y-44500000I-150000J0D01*
G01*
X123360000Y-44500000D01*
G75*
G02*
X123210000Y-44350000I0J150000D01*
G01*
X123210000Y-42700000D01*
G75*
G02*
X123360000Y-42550000I150000J0D01*
G01*
G37*
G36*
G01*
X87175000Y-89125000D02*
X87175000Y-89675000D01*
G75*
G02*
X86975000Y-89875000I-200000J0D01*
G01*
X86575000Y-89875000D01*
G75*
G02*
X86375000Y-89675000I0J200000D01*
G01*
X86375000Y-89125000D01*
G75*
G02*
X86575000Y-88925000I200000J0D01*
G01*
X86975000Y-88925000D01*
G75*
G02*
X87175000Y-89125000I0J-200000D01*
G01*
G37*
G36*
G01*
X88825000Y-89125000D02*
X88825000Y-89675000D01*
G75*
G02*
X88625000Y-89875000I-200000J0D01*
G01*
X88225000Y-89875000D01*
G75*
G02*
X88025000Y-89675000I0J200000D01*
G01*
X88025000Y-89125000D01*
G75*
G02*
X88225000Y-88925000I200000J0D01*
G01*
X88625000Y-88925000D01*
G75*
G02*
X88825000Y-89125000I0J-200000D01*
G01*
G37*
G36*
G01*
X121275000Y-70575000D02*
X120725000Y-70575000D01*
G75*
G02*
X120525000Y-70375000I0J200000D01*
G01*
X120525000Y-69975000D01*
G75*
G02*
X120725000Y-69775000I200000J0D01*
G01*
X121275000Y-69775000D01*
G75*
G02*
X121475000Y-69975000I0J-200000D01*
G01*
X121475000Y-70375000D01*
G75*
G02*
X121275000Y-70575000I-200000J0D01*
G01*
G37*
G36*
G01*
X121275000Y-72225000D02*
X120725000Y-72225000D01*
G75*
G02*
X120525000Y-72025000I0J200000D01*
G01*
X120525000Y-71625000D01*
G75*
G02*
X120725000Y-71425000I200000J0D01*
G01*
X121275000Y-71425000D01*
G75*
G02*
X121475000Y-71625000I0J-200000D01*
G01*
X121475000Y-72025000D01*
G75*
G02*
X121275000Y-72225000I-200000J0D01*
G01*
G37*
G36*
G01*
X86875000Y-80375000D02*
X86325000Y-80375000D01*
G75*
G02*
X86125000Y-80175000I0J200000D01*
G01*
X86125000Y-79775000D01*
G75*
G02*
X86325000Y-79575000I200000J0D01*
G01*
X86875000Y-79575000D01*
G75*
G02*
X87075000Y-79775000I0J-200000D01*
G01*
X87075000Y-80175000D01*
G75*
G02*
X86875000Y-80375000I-200000J0D01*
G01*
G37*
G36*
G01*
X86875000Y-82025000D02*
X86325000Y-82025000D01*
G75*
G02*
X86125000Y-81825000I0J200000D01*
G01*
X86125000Y-81425000D01*
G75*
G02*
X86325000Y-81225000I200000J0D01*
G01*
X86875000Y-81225000D01*
G75*
G02*
X87075000Y-81425000I0J-200000D01*
G01*
X87075000Y-81825000D01*
G75*
G02*
X86875000Y-82025000I-200000J0D01*
G01*
G37*
G36*
G01*
X87875000Y-84575000D02*
X87325000Y-84575000D01*
G75*
G02*
X87125000Y-84375000I0J200000D01*
G01*
X87125000Y-83975000D01*
G75*
G02*
X87325000Y-83775000I200000J0D01*
G01*
X87875000Y-83775000D01*
G75*
G02*
X88075000Y-83975000I0J-200000D01*
G01*
X88075000Y-84375000D01*
G75*
G02*
X87875000Y-84575000I-200000J0D01*
G01*
G37*
G36*
G01*
X87875000Y-86225000D02*
X87325000Y-86225000D01*
G75*
G02*
X87125000Y-86025000I0J200000D01*
G01*
X87125000Y-85625000D01*
G75*
G02*
X87325000Y-85425000I200000J0D01*
G01*
X87875000Y-85425000D01*
G75*
G02*
X88075000Y-85625000I0J-200000D01*
G01*
X88075000Y-86025000D01*
G75*
G02*
X87875000Y-86225000I-200000J0D01*
G01*
G37*
G36*
G01*
X84125000Y-81225000D02*
X84675000Y-81225000D01*
G75*
G02*
X84875000Y-81425000I0J-200000D01*
G01*
X84875000Y-81825000D01*
G75*
G02*
X84675000Y-82025000I-200000J0D01*
G01*
X84125000Y-82025000D01*
G75*
G02*
X83925000Y-81825000I0J200000D01*
G01*
X83925000Y-81425000D01*
G75*
G02*
X84125000Y-81225000I200000J0D01*
G01*
G37*
G36*
G01*
X84125000Y-79575000D02*
X84675000Y-79575000D01*
G75*
G02*
X84875000Y-79775000I0J-200000D01*
G01*
X84875000Y-80175000D01*
G75*
G02*
X84675000Y-80375000I-200000J0D01*
G01*
X84125000Y-80375000D01*
G75*
G02*
X83925000Y-80175000I0J200000D01*
G01*
X83925000Y-79775000D01*
G75*
G02*
X84125000Y-79575000I200000J0D01*
G01*
G37*
G36*
G01*
X84725000Y-85425000D02*
X85275000Y-85425000D01*
G75*
G02*
X85475000Y-85625000I0J-200000D01*
G01*
X85475000Y-86025000D01*
G75*
G02*
X85275000Y-86225000I-200000J0D01*
G01*
X84725000Y-86225000D01*
G75*
G02*
X84525000Y-86025000I0J200000D01*
G01*
X84525000Y-85625000D01*
G75*
G02*
X84725000Y-85425000I200000J0D01*
G01*
G37*
G36*
G01*
X84725000Y-83775000D02*
X85275000Y-83775000D01*
G75*
G02*
X85475000Y-83975000I0J-200000D01*
G01*
X85475000Y-84375000D01*
G75*
G02*
X85275000Y-84575000I-200000J0D01*
G01*
X84725000Y-84575000D01*
G75*
G02*
X84525000Y-84375000I0J200000D01*
G01*
X84525000Y-83975000D01*
G75*
G02*
X84725000Y-83775000I200000J0D01*
G01*
G37*
G36*
G01*
X92425000Y-91475000D02*
X92425000Y-90925000D01*
G75*
G02*
X92625000Y-90725000I200000J0D01*
G01*
X93025000Y-90725000D01*
G75*
G02*
X93225000Y-90925000I0J-200000D01*
G01*
X93225000Y-91475000D01*
G75*
G02*
X93025000Y-91675000I-200000J0D01*
G01*
X92625000Y-91675000D01*
G75*
G02*
X92425000Y-91475000I0J200000D01*
G01*
G37*
G36*
G01*
X90775000Y-91475000D02*
X90775000Y-90925000D01*
G75*
G02*
X90975000Y-90725000I200000J0D01*
G01*
X91375000Y-90725000D01*
G75*
G02*
X91575000Y-90925000I0J-200000D01*
G01*
X91575000Y-91475000D01*
G75*
G02*
X91375000Y-91675000I-200000J0D01*
G01*
X90975000Y-91675000D01*
G75*
G02*
X90775000Y-91475000I0J200000D01*
G01*
G37*
G36*
G01*
X91625000Y-102475000D02*
X91625000Y-101925000D01*
G75*
G02*
X91825000Y-101725000I200000J0D01*
G01*
X92225000Y-101725000D01*
G75*
G02*
X92425000Y-101925000I0J-200000D01*
G01*
X92425000Y-102475000D01*
G75*
G02*
X92225000Y-102675000I-200000J0D01*
G01*
X91825000Y-102675000D01*
G75*
G02*
X91625000Y-102475000I0J200000D01*
G01*
G37*
G36*
G01*
X89975000Y-102475000D02*
X89975000Y-101925000D01*
G75*
G02*
X90175000Y-101725000I200000J0D01*
G01*
X90575000Y-101725000D01*
G75*
G02*
X90775000Y-101925000I0J-200000D01*
G01*
X90775000Y-102475000D01*
G75*
G02*
X90575000Y-102675000I-200000J0D01*
G01*
X90175000Y-102675000D01*
G75*
G02*
X89975000Y-102475000I0J200000D01*
G01*
G37*
G36*
G01*
X90775000Y-103925000D02*
X90775000Y-104475000D01*
G75*
G02*
X90575000Y-104675000I-200000J0D01*
G01*
X90175000Y-104675000D01*
G75*
G02*
X89975000Y-104475000I0J200000D01*
G01*
X89975000Y-103925000D01*
G75*
G02*
X90175000Y-103725000I200000J0D01*
G01*
X90575000Y-103725000D01*
G75*
G02*
X90775000Y-103925000I0J-200000D01*
G01*
G37*
G36*
G01*
X92425000Y-103925000D02*
X92425000Y-104475000D01*
G75*
G02*
X92225000Y-104675000I-200000J0D01*
G01*
X91825000Y-104675000D01*
G75*
G02*
X91625000Y-104475000I0J200000D01*
G01*
X91625000Y-103925000D01*
G75*
G02*
X91825000Y-103725000I200000J0D01*
G01*
X92225000Y-103725000D01*
G75*
G02*
X92425000Y-103925000I0J-200000D01*
G01*
G37*
G36*
G01*
X92525000Y-89025000D02*
X93075000Y-89025000D01*
G75*
G02*
X93275000Y-89225000I0J-200000D01*
G01*
X93275000Y-89625000D01*
G75*
G02*
X93075000Y-89825000I-200000J0D01*
G01*
X92525000Y-89825000D01*
G75*
G02*
X92325000Y-89625000I0J200000D01*
G01*
X92325000Y-89225000D01*
G75*
G02*
X92525000Y-89025000I200000J0D01*
G01*
G37*
G36*
G01*
X92525000Y-87375000D02*
X93075000Y-87375000D01*
G75*
G02*
X93275000Y-87575000I0J-200000D01*
G01*
X93275000Y-87975000D01*
G75*
G02*
X93075000Y-88175000I-200000J0D01*
G01*
X92525000Y-88175000D01*
G75*
G02*
X92325000Y-87975000I0J200000D01*
G01*
X92325000Y-87575000D01*
G75*
G02*
X92525000Y-87375000I200000J0D01*
G01*
G37*
G36*
G01*
X128550002Y-78200000D02*
X127649998Y-78200000D01*
G75*
G02*
X127400000Y-77950002I0J249998D01*
G01*
X127400000Y-77424998D01*
G75*
G02*
X127649998Y-77175000I249998J0D01*
G01*
X128550002Y-77175000D01*
G75*
G02*
X128800000Y-77424998I0J-249998D01*
G01*
X128800000Y-77950002D01*
G75*
G02*
X128550002Y-78200000I-249998J0D01*
G01*
G37*
G36*
G01*
X128550002Y-80025000D02*
X127649998Y-80025000D01*
G75*
G02*
X127400000Y-79775002I0J249998D01*
G01*
X127400000Y-79249998D01*
G75*
G02*
X127649998Y-79000000I249998J0D01*
G01*
X128550002Y-79000000D01*
G75*
G02*
X128800000Y-79249998I0J-249998D01*
G01*
X128800000Y-79775002D01*
G75*
G02*
X128550002Y-80025000I-249998J0D01*
G01*
G37*
G36*
G01*
X116575000Y-90225000D02*
X116575000Y-90775000D01*
G75*
G02*
X116375000Y-90975000I-200000J0D01*
G01*
X115975000Y-90975000D01*
G75*
G02*
X115775000Y-90775000I0J200000D01*
G01*
X115775000Y-90225000D01*
G75*
G02*
X115975000Y-90025000I200000J0D01*
G01*
X116375000Y-90025000D01*
G75*
G02*
X116575000Y-90225000I0J-200000D01*
G01*
G37*
G36*
G01*
X118225000Y-90225000D02*
X118225000Y-90775000D01*
G75*
G02*
X118025000Y-90975000I-200000J0D01*
G01*
X117625000Y-90975000D01*
G75*
G02*
X117425000Y-90775000I0J200000D01*
G01*
X117425000Y-90225000D01*
G75*
G02*
X117625000Y-90025000I200000J0D01*
G01*
X118025000Y-90025000D01*
G75*
G02*
X118225000Y-90225000I0J-200000D01*
G01*
G37*
G36*
G01*
X112575000Y-90225000D02*
X112575000Y-90775000D01*
G75*
G02*
X112375000Y-90975000I-200000J0D01*
G01*
X111975000Y-90975000D01*
G75*
G02*
X111775000Y-90775000I0J200000D01*
G01*
X111775000Y-90225000D01*
G75*
G02*
X111975000Y-90025000I200000J0D01*
G01*
X112375000Y-90025000D01*
G75*
G02*
X112575000Y-90225000I0J-200000D01*
G01*
G37*
G36*
G01*
X114225000Y-90225000D02*
X114225000Y-90775000D01*
G75*
G02*
X114025000Y-90975000I-200000J0D01*
G01*
X113625000Y-90975000D01*
G75*
G02*
X113425000Y-90775000I0J200000D01*
G01*
X113425000Y-90225000D01*
G75*
G02*
X113625000Y-90025000I200000J0D01*
G01*
X114025000Y-90025000D01*
G75*
G02*
X114225000Y-90225000I0J-200000D01*
G01*
G37*
G36*
G01*
X100675000Y-85375000D02*
X100125000Y-85375000D01*
G75*
G02*
X99925000Y-85175000I0J200000D01*
G01*
X99925000Y-84775000D01*
G75*
G02*
X100125000Y-84575000I200000J0D01*
G01*
X100675000Y-84575000D01*
G75*
G02*
X100875000Y-84775000I0J-200000D01*
G01*
X100875000Y-85175000D01*
G75*
G02*
X100675000Y-85375000I-200000J0D01*
G01*
G37*
G36*
G01*
X100675000Y-87025000D02*
X100125000Y-87025000D01*
G75*
G02*
X99925000Y-86825000I0J200000D01*
G01*
X99925000Y-86425000D01*
G75*
G02*
X100125000Y-86225000I200000J0D01*
G01*
X100675000Y-86225000D01*
G75*
G02*
X100875000Y-86425000I0J-200000D01*
G01*
X100875000Y-86825000D01*
G75*
G02*
X100675000Y-87025000I-200000J0D01*
G01*
G37*
G36*
G01*
X112475000Y-86975000D02*
X111925000Y-86975000D01*
G75*
G02*
X111725000Y-86775000I0J200000D01*
G01*
X111725000Y-86375000D01*
G75*
G02*
X111925000Y-86175000I200000J0D01*
G01*
X112475000Y-86175000D01*
G75*
G02*
X112675000Y-86375000I0J-200000D01*
G01*
X112675000Y-86775000D01*
G75*
G02*
X112475000Y-86975000I-200000J0D01*
G01*
G37*
G36*
G01*
X112475000Y-88625000D02*
X111925000Y-88625000D01*
G75*
G02*
X111725000Y-88425000I0J200000D01*
G01*
X111725000Y-88025000D01*
G75*
G02*
X111925000Y-87825000I200000J0D01*
G01*
X112475000Y-87825000D01*
G75*
G02*
X112675000Y-88025000I0J-200000D01*
G01*
X112675000Y-88425000D01*
G75*
G02*
X112475000Y-88625000I-200000J0D01*
G01*
G37*
G36*
G01*
X116725000Y-96825000D02*
X117275000Y-96825000D01*
G75*
G02*
X117475000Y-97025000I0J-200000D01*
G01*
X117475000Y-97425000D01*
G75*
G02*
X117275000Y-97625000I-200000J0D01*
G01*
X116725000Y-97625000D01*
G75*
G02*
X116525000Y-97425000I0J200000D01*
G01*
X116525000Y-97025000D01*
G75*
G02*
X116725000Y-96825000I200000J0D01*
G01*
G37*
G36*
G01*
X116725000Y-95175000D02*
X117275000Y-95175000D01*
G75*
G02*
X117475000Y-95375000I0J-200000D01*
G01*
X117475000Y-95775000D01*
G75*
G02*
X117275000Y-95975000I-200000J0D01*
G01*
X116725000Y-95975000D01*
G75*
G02*
X116525000Y-95775000I0J200000D01*
G01*
X116525000Y-95375000D01*
G75*
G02*
X116725000Y-95175000I200000J0D01*
G01*
G37*
G36*
G01*
X122775000Y-79525000D02*
X122775000Y-80075000D01*
G75*
G02*
X122575000Y-80275000I-200000J0D01*
G01*
X122175000Y-80275000D01*
G75*
G02*
X121975000Y-80075000I0J200000D01*
G01*
X121975000Y-79525000D01*
G75*
G02*
X122175000Y-79325000I200000J0D01*
G01*
X122575000Y-79325000D01*
G75*
G02*
X122775000Y-79525000I0J-200000D01*
G01*
G37*
G36*
G01*
X124425000Y-79525000D02*
X124425000Y-80075000D01*
G75*
G02*
X124225000Y-80275000I-200000J0D01*
G01*
X123825000Y-80275000D01*
G75*
G02*
X123625000Y-80075000I0J200000D01*
G01*
X123625000Y-79525000D01*
G75*
G02*
X123825000Y-79325000I200000J0D01*
G01*
X124225000Y-79325000D01*
G75*
G02*
X124425000Y-79525000I0J-200000D01*
G01*
G37*
G36*
G01*
X87925000Y-101825000D02*
X88475000Y-101825000D01*
G75*
G02*
X88675000Y-102025000I0J-200000D01*
G01*
X88675000Y-102425000D01*
G75*
G02*
X88475000Y-102625000I-200000J0D01*
G01*
X87925000Y-102625000D01*
G75*
G02*
X87725000Y-102425000I0J200000D01*
G01*
X87725000Y-102025000D01*
G75*
G02*
X87925000Y-101825000I200000J0D01*
G01*
G37*
G36*
G01*
X87925000Y-100175000D02*
X88475000Y-100175000D01*
G75*
G02*
X88675000Y-100375000I0J-200000D01*
G01*
X88675000Y-100775000D01*
G75*
G02*
X88475000Y-100975000I-200000J0D01*
G01*
X87925000Y-100975000D01*
G75*
G02*
X87725000Y-100775000I0J200000D01*
G01*
X87725000Y-100375000D01*
G75*
G02*
X87925000Y-100175000I200000J0D01*
G01*
G37*
G36*
G01*
X125625000Y-100475000D02*
X125625000Y-99925000D01*
G75*
G02*
X125825000Y-99725000I200000J0D01*
G01*
X126225000Y-99725000D01*
G75*
G02*
X126425000Y-99925000I0J-200000D01*
G01*
X126425000Y-100475000D01*
G75*
G02*
X126225000Y-100675000I-200000J0D01*
G01*
X125825000Y-100675000D01*
G75*
G02*
X125625000Y-100475000I0J200000D01*
G01*
G37*
G36*
G01*
X123975000Y-100475000D02*
X123975000Y-99925000D01*
G75*
G02*
X124175000Y-99725000I200000J0D01*
G01*
X124575000Y-99725000D01*
G75*
G02*
X124775000Y-99925000I0J-200000D01*
G01*
X124775000Y-100475000D01*
G75*
G02*
X124575000Y-100675000I-200000J0D01*
G01*
X124175000Y-100675000D01*
G75*
G02*
X123975000Y-100475000I0J200000D01*
G01*
G37*
G36*
G01*
X122725000Y-90425000D02*
X123275000Y-90425000D01*
G75*
G02*
X123475000Y-90625000I0J-200000D01*
G01*
X123475000Y-91025000D01*
G75*
G02*
X123275000Y-91225000I-200000J0D01*
G01*
X122725000Y-91225000D01*
G75*
G02*
X122525000Y-91025000I0J200000D01*
G01*
X122525000Y-90625000D01*
G75*
G02*
X122725000Y-90425000I200000J0D01*
G01*
G37*
G36*
G01*
X122725000Y-88775000D02*
X123275000Y-88775000D01*
G75*
G02*
X123475000Y-88975000I0J-200000D01*
G01*
X123475000Y-89375000D01*
G75*
G02*
X123275000Y-89575000I-200000J0D01*
G01*
X122725000Y-89575000D01*
G75*
G02*
X122525000Y-89375000I0J200000D01*
G01*
X122525000Y-88975000D01*
G75*
G02*
X122725000Y-88775000I200000J0D01*
G01*
G37*
G36*
G01*
X123675000Y-85925000D02*
X123675000Y-86475000D01*
G75*
G02*
X123475000Y-86675000I-200000J0D01*
G01*
X123075000Y-86675000D01*
G75*
G02*
X122875000Y-86475000I0J200000D01*
G01*
X122875000Y-85925000D01*
G75*
G02*
X123075000Y-85725000I200000J0D01*
G01*
X123475000Y-85725000D01*
G75*
G02*
X123675000Y-85925000I0J-200000D01*
G01*
G37*
G36*
G01*
X125325000Y-85925000D02*
X125325000Y-86475000D01*
G75*
G02*
X125125000Y-86675000I-200000J0D01*
G01*
X124725000Y-86675000D01*
G75*
G02*
X124525000Y-86475000I0J200000D01*
G01*
X124525000Y-85925000D01*
G75*
G02*
X124725000Y-85725000I200000J0D01*
G01*
X125125000Y-85725000D01*
G75*
G02*
X125325000Y-85925000I0J-200000D01*
G01*
G37*
G36*
G01*
X128525000Y-92275000D02*
X128525000Y-91725000D01*
G75*
G02*
X128725000Y-91525000I200000J0D01*
G01*
X129125000Y-91525000D01*
G75*
G02*
X129325000Y-91725000I0J-200000D01*
G01*
X129325000Y-92275000D01*
G75*
G02*
X129125000Y-92475000I-200000J0D01*
G01*
X128725000Y-92475000D01*
G75*
G02*
X128525000Y-92275000I0J200000D01*
G01*
G37*
G36*
G01*
X126875000Y-92275000D02*
X126875000Y-91725000D01*
G75*
G02*
X127075000Y-91525000I200000J0D01*
G01*
X127475000Y-91525000D01*
G75*
G02*
X127675000Y-91725000I0J-200000D01*
G01*
X127675000Y-92275000D01*
G75*
G02*
X127475000Y-92475000I-200000J0D01*
G01*
X127075000Y-92475000D01*
G75*
G02*
X126875000Y-92275000I0J200000D01*
G01*
G37*
G36*
G01*
X124925000Y-94625000D02*
X125475000Y-94625000D01*
G75*
G02*
X125675000Y-94825000I0J-200000D01*
G01*
X125675000Y-95225000D01*
G75*
G02*
X125475000Y-95425000I-200000J0D01*
G01*
X124925000Y-95425000D01*
G75*
G02*
X124725000Y-95225000I0J200000D01*
G01*
X124725000Y-94825000D01*
G75*
G02*
X124925000Y-94625000I200000J0D01*
G01*
G37*
G36*
G01*
X124925000Y-92975000D02*
X125475000Y-92975000D01*
G75*
G02*
X125675000Y-93175000I0J-200000D01*
G01*
X125675000Y-93575000D01*
G75*
G02*
X125475000Y-93775000I-200000J0D01*
G01*
X124925000Y-93775000D01*
G75*
G02*
X124725000Y-93575000I0J200000D01*
G01*
X124725000Y-93175000D01*
G75*
G02*
X124925000Y-92975000I200000J0D01*
G01*
G37*
G36*
G01*
X131550002Y-78200000D02*
X130649998Y-78200000D01*
G75*
G02*
X130400000Y-77950002I0J249998D01*
G01*
X130400000Y-77424998D01*
G75*
G02*
X130649998Y-77175000I249998J0D01*
G01*
X131550002Y-77175000D01*
G75*
G02*
X131800000Y-77424998I0J-249998D01*
G01*
X131800000Y-77950002D01*
G75*
G02*
X131550002Y-78200000I-249998J0D01*
G01*
G37*
G36*
G01*
X131550002Y-80025000D02*
X130649998Y-80025000D01*
G75*
G02*
X130400000Y-79775002I0J249998D01*
G01*
X130400000Y-79249998D01*
G75*
G02*
X130649998Y-79000000I249998J0D01*
G01*
X131550002Y-79000000D01*
G75*
G02*
X131800000Y-79249998I0J-249998D01*
G01*
X131800000Y-79775002D01*
G75*
G02*
X131550002Y-80025000I-249998J0D01*
G01*
G37*
G36*
G01*
X133675000Y-77325000D02*
X133675000Y-77875000D01*
G75*
G02*
X133475000Y-78075000I-200000J0D01*
G01*
X133075000Y-78075000D01*
G75*
G02*
X132875000Y-77875000I0J200000D01*
G01*
X132875000Y-77325000D01*
G75*
G02*
X133075000Y-77125000I200000J0D01*
G01*
X133475000Y-77125000D01*
G75*
G02*
X133675000Y-77325000I0J-200000D01*
G01*
G37*
G36*
G01*
X135325000Y-77325000D02*
X135325000Y-77875000D01*
G75*
G02*
X135125000Y-78075000I-200000J0D01*
G01*
X134725000Y-78075000D01*
G75*
G02*
X134525000Y-77875000I0J200000D01*
G01*
X134525000Y-77325000D01*
G75*
G02*
X134725000Y-77125000I200000J0D01*
G01*
X135125000Y-77125000D01*
G75*
G02*
X135325000Y-77325000I0J-200000D01*
G01*
G37*
G36*
G01*
X134525000Y-79875000D02*
X134525000Y-79325000D01*
G75*
G02*
X134725000Y-79125000I200000J0D01*
G01*
X135125000Y-79125000D01*
G75*
G02*
X135325000Y-79325000I0J-200000D01*
G01*
X135325000Y-79875000D01*
G75*
G02*
X135125000Y-80075000I-200000J0D01*
G01*
X134725000Y-80075000D01*
G75*
G02*
X134525000Y-79875000I0J200000D01*
G01*
G37*
G36*
G01*
X132875000Y-79875000D02*
X132875000Y-79325000D01*
G75*
G02*
X133075000Y-79125000I200000J0D01*
G01*
X133475000Y-79125000D01*
G75*
G02*
X133675000Y-79325000I0J-200000D01*
G01*
X133675000Y-79875000D01*
G75*
G02*
X133475000Y-80075000I-200000J0D01*
G01*
X133075000Y-80075000D01*
G75*
G02*
X132875000Y-79875000I0J200000D01*
G01*
G37*
G36*
G01*
X88225000Y-93225000D02*
X88775000Y-93225000D01*
G75*
G02*
X88975000Y-93425000I0J-200000D01*
G01*
X88975000Y-93825000D01*
G75*
G02*
X88775000Y-94025000I-200000J0D01*
G01*
X88225000Y-94025000D01*
G75*
G02*
X88025000Y-93825000I0J200000D01*
G01*
X88025000Y-93425000D01*
G75*
G02*
X88225000Y-93225000I200000J0D01*
G01*
G37*
G36*
G01*
X88225000Y-91575000D02*
X88775000Y-91575000D01*
G75*
G02*
X88975000Y-91775000I0J-200000D01*
G01*
X88975000Y-92175000D01*
G75*
G02*
X88775000Y-92375000I-200000J0D01*
G01*
X88225000Y-92375000D01*
G75*
G02*
X88025000Y-92175000I0J200000D01*
G01*
X88025000Y-91775000D01*
G75*
G02*
X88225000Y-91575000I200000J0D01*
G01*
G37*
G36*
G01*
X134275000Y-92075000D02*
X133725000Y-92075000D01*
G75*
G02*
X133525000Y-91875000I0J200000D01*
G01*
X133525000Y-91475000D01*
G75*
G02*
X133725000Y-91275000I200000J0D01*
G01*
X134275000Y-91275000D01*
G75*
G02*
X134475000Y-91475000I0J-200000D01*
G01*
X134475000Y-91875000D01*
G75*
G02*
X134275000Y-92075000I-200000J0D01*
G01*
G37*
G36*
G01*
X134275000Y-93725000D02*
X133725000Y-93725000D01*
G75*
G02*
X133525000Y-93525000I0J200000D01*
G01*
X133525000Y-93125000D01*
G75*
G02*
X133725000Y-92925000I200000J0D01*
G01*
X134275000Y-92925000D01*
G75*
G02*
X134475000Y-93125000I0J-200000D01*
G01*
X134475000Y-93525000D01*
G75*
G02*
X134275000Y-93725000I-200000J0D01*
G01*
G37*
G36*
G01*
X130975000Y-92525000D02*
X130975000Y-93075000D01*
G75*
G02*
X130775000Y-93275000I-200000J0D01*
G01*
X130375000Y-93275000D01*
G75*
G02*
X130175000Y-93075000I0J200000D01*
G01*
X130175000Y-92525000D01*
G75*
G02*
X130375000Y-92325000I200000J0D01*
G01*
X130775000Y-92325000D01*
G75*
G02*
X130975000Y-92525000I0J-200000D01*
G01*
G37*
G36*
G01*
X132625000Y-92525000D02*
X132625000Y-93075000D01*
G75*
G02*
X132425000Y-93275000I-200000J0D01*
G01*
X132025000Y-93275000D01*
G75*
G02*
X131825000Y-93075000I0J200000D01*
G01*
X131825000Y-92525000D01*
G75*
G02*
X132025000Y-92325000I200000J0D01*
G01*
X132425000Y-92325000D01*
G75*
G02*
X132625000Y-92525000I0J-200000D01*
G01*
G37*
G36*
G01*
X109825000Y-104275000D02*
X109825000Y-103725000D01*
G75*
G02*
X110025000Y-103525000I200000J0D01*
G01*
X110425000Y-103525000D01*
G75*
G02*
X110625000Y-103725000I0J-200000D01*
G01*
X110625000Y-104275000D01*
G75*
G02*
X110425000Y-104475000I-200000J0D01*
G01*
X110025000Y-104475000D01*
G75*
G02*
X109825000Y-104275000I0J200000D01*
G01*
G37*
G36*
G01*
X108175000Y-104275000D02*
X108175000Y-103725000D01*
G75*
G02*
X108375000Y-103525000I200000J0D01*
G01*
X108775000Y-103525000D01*
G75*
G02*
X108975000Y-103725000I0J-200000D01*
G01*
X108975000Y-104275000D01*
G75*
G02*
X108775000Y-104475000I-200000J0D01*
G01*
X108375000Y-104475000D01*
G75*
G02*
X108175000Y-104275000I0J200000D01*
G01*
G37*
G36*
G01*
X113825000Y-104275000D02*
X113825000Y-103725000D01*
G75*
G02*
X114025000Y-103525000I200000J0D01*
G01*
X114425000Y-103525000D01*
G75*
G02*
X114625000Y-103725000I0J-200000D01*
G01*
X114625000Y-104275000D01*
G75*
G02*
X114425000Y-104475000I-200000J0D01*
G01*
X114025000Y-104475000D01*
G75*
G02*
X113825000Y-104275000I0J200000D01*
G01*
G37*
G36*
G01*
X112175000Y-104275000D02*
X112175000Y-103725000D01*
G75*
G02*
X112375000Y-103525000I200000J0D01*
G01*
X112775000Y-103525000D01*
G75*
G02*
X112975000Y-103725000I0J-200000D01*
G01*
X112975000Y-104275000D01*
G75*
G02*
X112775000Y-104475000I-200000J0D01*
G01*
X112375000Y-104475000D01*
G75*
G02*
X112175000Y-104275000I0J200000D01*
G01*
G37*
G36*
G01*
X138575000Y-70725000D02*
X138575000Y-71275000D01*
G75*
G02*
X138375000Y-71475000I-200000J0D01*
G01*
X137975000Y-71475000D01*
G75*
G02*
X137775000Y-71275000I0J200000D01*
G01*
X137775000Y-70725000D01*
G75*
G02*
X137975000Y-70525000I200000J0D01*
G01*
X138375000Y-70525000D01*
G75*
G02*
X138575000Y-70725000I0J-200000D01*
G01*
G37*
G36*
G01*
X140225000Y-70725000D02*
X140225000Y-71275000D01*
G75*
G02*
X140025000Y-71475000I-200000J0D01*
G01*
X139625000Y-71475000D01*
G75*
G02*
X139425000Y-71275000I0J200000D01*
G01*
X139425000Y-70725000D01*
G75*
G02*
X139625000Y-70525000I200000J0D01*
G01*
X140025000Y-70525000D01*
G75*
G02*
X140225000Y-70725000I0J-200000D01*
G01*
G37*
G36*
G01*
X110575000Y-101725000D02*
X110575000Y-102275000D01*
G75*
G02*
X110375000Y-102475000I-200000J0D01*
G01*
X109975000Y-102475000D01*
G75*
G02*
X109775000Y-102275000I0J200000D01*
G01*
X109775000Y-101725000D01*
G75*
G02*
X109975000Y-101525000I200000J0D01*
G01*
X110375000Y-101525000D01*
G75*
G02*
X110575000Y-101725000I0J-200000D01*
G01*
G37*
G36*
G01*
X112225000Y-101725000D02*
X112225000Y-102275000D01*
G75*
G02*
X112025000Y-102475000I-200000J0D01*
G01*
X111625000Y-102475000D01*
G75*
G02*
X111425000Y-102275000I0J200000D01*
G01*
X111425000Y-101725000D01*
G75*
G02*
X111625000Y-101525000I200000J0D01*
G01*
X112025000Y-101525000D01*
G75*
G02*
X112225000Y-101725000I0J-200000D01*
G01*
G37*
G36*
G01*
X129825000Y-65875000D02*
X129825000Y-65325000D01*
G75*
G02*
X130025000Y-65125000I200000J0D01*
G01*
X130425000Y-65125000D01*
G75*
G02*
X130625000Y-65325000I0J-200000D01*
G01*
X130625000Y-65875000D01*
G75*
G02*
X130425000Y-66075000I-200000J0D01*
G01*
X130025000Y-66075000D01*
G75*
G02*
X129825000Y-65875000I0J200000D01*
G01*
G37*
G36*
G01*
X128175000Y-65875000D02*
X128175000Y-65325000D01*
G75*
G02*
X128375000Y-65125000I200000J0D01*
G01*
X128775000Y-65125000D01*
G75*
G02*
X128975000Y-65325000I0J-200000D01*
G01*
X128975000Y-65875000D01*
G75*
G02*
X128775000Y-66075000I-200000J0D01*
G01*
X128375000Y-66075000D01*
G75*
G02*
X128175000Y-65875000I0J200000D01*
G01*
G37*
G36*
G01*
X106575000Y-99225000D02*
X106575000Y-99775000D01*
G75*
G02*
X106375000Y-99975000I-200000J0D01*
G01*
X105975000Y-99975000D01*
G75*
G02*
X105775000Y-99775000I0J200000D01*
G01*
X105775000Y-99225000D01*
G75*
G02*
X105975000Y-99025000I200000J0D01*
G01*
X106375000Y-99025000D01*
G75*
G02*
X106575000Y-99225000I0J-200000D01*
G01*
G37*
G36*
G01*
X108225000Y-99225000D02*
X108225000Y-99775000D01*
G75*
G02*
X108025000Y-99975000I-200000J0D01*
G01*
X107625000Y-99975000D01*
G75*
G02*
X107425000Y-99775000I0J200000D01*
G01*
X107425000Y-99225000D01*
G75*
G02*
X107625000Y-99025000I200000J0D01*
G01*
X108025000Y-99025000D01*
G75*
G02*
X108225000Y-99225000I0J-200000D01*
G01*
G37*
G36*
G01*
X86275000Y-98600000D02*
X85725000Y-98600000D01*
G75*
G02*
X85525000Y-98400000I0J200000D01*
G01*
X85525000Y-98000000D01*
G75*
G02*
X85725000Y-97800000I200000J0D01*
G01*
X86275000Y-97800000D01*
G75*
G02*
X86475000Y-98000000I0J-200000D01*
G01*
X86475000Y-98400000D01*
G75*
G02*
X86275000Y-98600000I-200000J0D01*
G01*
G37*
G36*
G01*
X86275000Y-100250000D02*
X85725000Y-100250000D01*
G75*
G02*
X85525000Y-100050000I0J200000D01*
G01*
X85525000Y-99650000D01*
G75*
G02*
X85725000Y-99450000I200000J0D01*
G01*
X86275000Y-99450000D01*
G75*
G02*
X86475000Y-99650000I0J-200000D01*
G01*
X86475000Y-100050000D01*
G75*
G02*
X86275000Y-100250000I-200000J0D01*
G01*
G37*
G36*
G01*
X134575000Y-65225000D02*
X134575000Y-65775000D01*
G75*
G02*
X134375000Y-65975000I-200000J0D01*
G01*
X133975000Y-65975000D01*
G75*
G02*
X133775000Y-65775000I0J200000D01*
G01*
X133775000Y-65225000D01*
G75*
G02*
X133975000Y-65025000I200000J0D01*
G01*
X134375000Y-65025000D01*
G75*
G02*
X134575000Y-65225000I0J-200000D01*
G01*
G37*
G36*
G01*
X136225000Y-65225000D02*
X136225000Y-65775000D01*
G75*
G02*
X136025000Y-65975000I-200000J0D01*
G01*
X135625000Y-65975000D01*
G75*
G02*
X135425000Y-65775000I0J200000D01*
G01*
X135425000Y-65225000D01*
G75*
G02*
X135625000Y-65025000I200000J0D01*
G01*
X136025000Y-65025000D01*
G75*
G02*
X136225000Y-65225000I0J-200000D01*
G01*
G37*
G36*
G01*
X136275000Y-49075000D02*
X135725000Y-49075000D01*
G75*
G02*
X135525000Y-48875000I0J200000D01*
G01*
X135525000Y-48475000D01*
G75*
G02*
X135725000Y-48275000I200000J0D01*
G01*
X136275000Y-48275000D01*
G75*
G02*
X136475000Y-48475000I0J-200000D01*
G01*
X136475000Y-48875000D01*
G75*
G02*
X136275000Y-49075000I-200000J0D01*
G01*
G37*
G36*
G01*
X136275000Y-50725000D02*
X135725000Y-50725000D01*
G75*
G02*
X135525000Y-50525000I0J200000D01*
G01*
X135525000Y-50125000D01*
G75*
G02*
X135725000Y-49925000I200000J0D01*
G01*
X136275000Y-49925000D01*
G75*
G02*
X136475000Y-50125000I0J-200000D01*
G01*
X136475000Y-50525000D01*
G75*
G02*
X136275000Y-50725000I-200000J0D01*
G01*
G37*
G36*
G01*
X102575000Y-90325000D02*
X102575000Y-90875000D01*
G75*
G02*
X102375000Y-91075000I-200000J0D01*
G01*
X101975000Y-91075000D01*
G75*
G02*
X101775000Y-90875000I0J200000D01*
G01*
X101775000Y-90325000D01*
G75*
G02*
X101975000Y-90125000I200000J0D01*
G01*
X102375000Y-90125000D01*
G75*
G02*
X102575000Y-90325000I0J-200000D01*
G01*
G37*
G36*
G01*
X104225000Y-90325000D02*
X104225000Y-90875000D01*
G75*
G02*
X104025000Y-91075000I-200000J0D01*
G01*
X103625000Y-91075000D01*
G75*
G02*
X103425000Y-90875000I0J200000D01*
G01*
X103425000Y-90325000D01*
G75*
G02*
X103625000Y-90125000I200000J0D01*
G01*
X104025000Y-90125000D01*
G75*
G02*
X104225000Y-90325000I0J-200000D01*
G01*
G37*
G36*
G01*
X137925000Y-68775000D02*
X137925000Y-68225000D01*
G75*
G02*
X138125000Y-68025000I200000J0D01*
G01*
X138525000Y-68025000D01*
G75*
G02*
X138725000Y-68225000I0J-200000D01*
G01*
X138725000Y-68775000D01*
G75*
G02*
X138525000Y-68975000I-200000J0D01*
G01*
X138125000Y-68975000D01*
G75*
G02*
X137925000Y-68775000I0J200000D01*
G01*
G37*
G36*
G01*
X136275000Y-68775000D02*
X136275000Y-68225000D01*
G75*
G02*
X136475000Y-68025000I200000J0D01*
G01*
X136875000Y-68025000D01*
G75*
G02*
X137075000Y-68225000I0J-200000D01*
G01*
X137075000Y-68775000D01*
G75*
G02*
X136875000Y-68975000I-200000J0D01*
G01*
X136475000Y-68975000D01*
G75*
G02*
X136275000Y-68775000I0J200000D01*
G01*
G37*
G36*
G01*
X133725000Y-69425000D02*
X134275000Y-69425000D01*
G75*
G02*
X134475000Y-69625000I0J-200000D01*
G01*
X134475000Y-70025000D01*
G75*
G02*
X134275000Y-70225000I-200000J0D01*
G01*
X133725000Y-70225000D01*
G75*
G02*
X133525000Y-70025000I0J200000D01*
G01*
X133525000Y-69625000D01*
G75*
G02*
X133725000Y-69425000I200000J0D01*
G01*
G37*
G36*
G01*
X133725000Y-67775000D02*
X134275000Y-67775000D01*
G75*
G02*
X134475000Y-67975000I0J-200000D01*
G01*
X134475000Y-68375000D01*
G75*
G02*
X134275000Y-68575000I-200000J0D01*
G01*
X133725000Y-68575000D01*
G75*
G02*
X133525000Y-68375000I0J200000D01*
G01*
X133525000Y-67975000D01*
G75*
G02*
X133725000Y-67775000I200000J0D01*
G01*
G37*
G36*
G01*
X117275000Y-70575000D02*
X116725000Y-70575000D01*
G75*
G02*
X116525000Y-70375000I0J200000D01*
G01*
X116525000Y-69975000D01*
G75*
G02*
X116725000Y-69775000I200000J0D01*
G01*
X117275000Y-69775000D01*
G75*
G02*
X117475000Y-69975000I0J-200000D01*
G01*
X117475000Y-70375000D01*
G75*
G02*
X117275000Y-70575000I-200000J0D01*
G01*
G37*
G36*
G01*
X117275000Y-72225000D02*
X116725000Y-72225000D01*
G75*
G02*
X116525000Y-72025000I0J200000D01*
G01*
X116525000Y-71625000D01*
G75*
G02*
X116725000Y-71425000I200000J0D01*
G01*
X117275000Y-71425000D01*
G75*
G02*
X117475000Y-71625000I0J-200000D01*
G01*
X117475000Y-72025000D01*
G75*
G02*
X117275000Y-72225000I-200000J0D01*
G01*
G37*
G36*
G01*
X115725000Y-102050000D02*
X115725000Y-101550000D01*
G75*
G02*
X115950000Y-101325000I225000J0D01*
G01*
X116400000Y-101325000D01*
G75*
G02*
X116625000Y-101550000I0J-225000D01*
G01*
X116625000Y-102050000D01*
G75*
G02*
X116400000Y-102275000I-225000J0D01*
G01*
X115950000Y-102275000D01*
G75*
G02*
X115725000Y-102050000I0J225000D01*
G01*
G37*
G36*
G01*
X114175000Y-102050000D02*
X114175000Y-101550000D01*
G75*
G02*
X114400000Y-101325000I225000J0D01*
G01*
X114850000Y-101325000D01*
G75*
G02*
X115075000Y-101550000I0J-225000D01*
G01*
X115075000Y-102050000D01*
G75*
G02*
X114850000Y-102275000I-225000J0D01*
G01*
X114400000Y-102275000D01*
G75*
G02*
X114175000Y-102050000I0J225000D01*
G01*
G37*
G36*
G01*
X132450000Y-67075000D02*
X131950000Y-67075000D01*
G75*
G02*
X131725000Y-66850000I0J225000D01*
G01*
X131725000Y-66400000D01*
G75*
G02*
X131950000Y-66175000I225000J0D01*
G01*
X132450000Y-66175000D01*
G75*
G02*
X132675000Y-66400000I0J-225000D01*
G01*
X132675000Y-66850000D01*
G75*
G02*
X132450000Y-67075000I-225000J0D01*
G01*
G37*
G36*
G01*
X132450000Y-68625000D02*
X131950000Y-68625000D01*
G75*
G02*
X131725000Y-68400000I0J225000D01*
G01*
X131725000Y-67950000D01*
G75*
G02*
X131950000Y-67725000I225000J0D01*
G01*
X132450000Y-67725000D01*
G75*
G02*
X132675000Y-67950000I0J-225000D01*
G01*
X132675000Y-68400000D01*
G75*
G02*
X132450000Y-68625000I-225000J0D01*
G01*
G37*
G36*
G01*
X131275000Y-53750000D02*
X131275000Y-54250000D01*
G75*
G02*
X131050000Y-54475000I-225000J0D01*
G01*
X130600000Y-54475000D01*
G75*
G02*
X130375000Y-54250000I0J225000D01*
G01*
X130375000Y-53750000D01*
G75*
G02*
X130600000Y-53525000I225000J0D01*
G01*
X131050000Y-53525000D01*
G75*
G02*
X131275000Y-53750000I0J-225000D01*
G01*
G37*
G36*
G01*
X132825000Y-53750000D02*
X132825000Y-54250000D01*
G75*
G02*
X132600000Y-54475000I-225000J0D01*
G01*
X132150000Y-54475000D01*
G75*
G02*
X131925000Y-54250000I0J225000D01*
G01*
X131925000Y-53750000D01*
G75*
G02*
X132150000Y-53525000I225000J0D01*
G01*
X132600000Y-53525000D01*
G75*
G02*
X132825000Y-53750000I0J-225000D01*
G01*
G37*
G36*
G01*
X103725000Y-73850000D02*
X103725000Y-73350000D01*
G75*
G02*
X103950000Y-73125000I225000J0D01*
G01*
X104400000Y-73125000D01*
G75*
G02*
X104625000Y-73350000I0J-225000D01*
G01*
X104625000Y-73850000D01*
G75*
G02*
X104400000Y-74075000I-225000J0D01*
G01*
X103950000Y-74075000D01*
G75*
G02*
X103725000Y-73850000I0J225000D01*
G01*
G37*
G36*
G01*
X102175000Y-73850000D02*
X102175000Y-73350000D01*
G75*
G02*
X102400000Y-73125000I225000J0D01*
G01*
X102850000Y-73125000D01*
G75*
G02*
X103075000Y-73350000I0J-225000D01*
G01*
X103075000Y-73850000D01*
G75*
G02*
X102850000Y-74075000I-225000J0D01*
G01*
X102400000Y-74075000D01*
G75*
G02*
X102175000Y-73850000I0J225000D01*
G01*
G37*
G36*
G01*
X103175000Y-84750000D02*
X103175000Y-85250000D01*
G75*
G02*
X102950000Y-85475000I-225000J0D01*
G01*
X102500000Y-85475000D01*
G75*
G02*
X102275000Y-85250000I0J225000D01*
G01*
X102275000Y-84750000D01*
G75*
G02*
X102500000Y-84525000I225000J0D01*
G01*
X102950000Y-84525000D01*
G75*
G02*
X103175000Y-84750000I0J-225000D01*
G01*
G37*
G36*
G01*
X104725000Y-84750000D02*
X104725000Y-85250000D01*
G75*
G02*
X104500000Y-85475000I-225000J0D01*
G01*
X104050000Y-85475000D01*
G75*
G02*
X103825000Y-85250000I0J225000D01*
G01*
X103825000Y-84750000D01*
G75*
G02*
X104050000Y-84525000I225000J0D01*
G01*
X104500000Y-84525000D01*
G75*
G02*
X104725000Y-84750000I0J-225000D01*
G01*
G37*
G36*
G01*
X101325000Y-38750000D02*
X101325000Y-38250000D01*
G75*
G02*
X101550000Y-38025000I225000J0D01*
G01*
X102000000Y-38025000D01*
G75*
G02*
X102225000Y-38250000I0J-225000D01*
G01*
X102225000Y-38750000D01*
G75*
G02*
X102000000Y-38975000I-225000J0D01*
G01*
X101550000Y-38975000D01*
G75*
G02*
X101325000Y-38750000I0J225000D01*
G01*
G37*
G36*
G01*
X99775000Y-38750000D02*
X99775000Y-38250000D01*
G75*
G02*
X100000000Y-38025000I225000J0D01*
G01*
X100450000Y-38025000D01*
G75*
G02*
X100675000Y-38250000I0J-225000D01*
G01*
X100675000Y-38750000D01*
G75*
G02*
X100450000Y-38975000I-225000J0D01*
G01*
X100000000Y-38975000D01*
G75*
G02*
X99775000Y-38750000I0J225000D01*
G01*
G37*
G36*
G01*
X100675000Y-50150000D02*
X100675000Y-50650000D01*
G75*
G02*
X100450000Y-50875000I-225000J0D01*
G01*
X100000000Y-50875000D01*
G75*
G02*
X99775000Y-50650000I0J225000D01*
G01*
X99775000Y-50150000D01*
G75*
G02*
X100000000Y-49925000I225000J0D01*
G01*
X100450000Y-49925000D01*
G75*
G02*
X100675000Y-50150000I0J-225000D01*
G01*
G37*
G36*
G01*
X102225000Y-50150000D02*
X102225000Y-50650000D01*
G75*
G02*
X102000000Y-50875000I-225000J0D01*
G01*
X101550000Y-50875000D01*
G75*
G02*
X101325000Y-50650000I0J225000D01*
G01*
X101325000Y-50150000D01*
G75*
G02*
X101550000Y-49925000I225000J0D01*
G01*
X102000000Y-49925000D01*
G75*
G02*
X102225000Y-50150000I0J-225000D01*
G01*
G37*
G36*
G01*
X79725000Y-82250000D02*
X79725000Y-81750000D01*
G75*
G02*
X79950000Y-81525000I225000J0D01*
G01*
X80400000Y-81525000D01*
G75*
G02*
X80625000Y-81750000I0J-225000D01*
G01*
X80625000Y-82250000D01*
G75*
G02*
X80400000Y-82475000I-225000J0D01*
G01*
X79950000Y-82475000D01*
G75*
G02*
X79725000Y-82250000I0J225000D01*
G01*
G37*
G36*
G01*
X78175000Y-82250000D02*
X78175000Y-81750000D01*
G75*
G02*
X78400000Y-81525000I225000J0D01*
G01*
X78850000Y-81525000D01*
G75*
G02*
X79075000Y-81750000I0J-225000D01*
G01*
X79075000Y-82250000D01*
G75*
G02*
X78850000Y-82475000I-225000J0D01*
G01*
X78400000Y-82475000D01*
G75*
G02*
X78175000Y-82250000I0J225000D01*
G01*
G37*
G36*
G01*
X126775000Y-74850000D02*
X126775000Y-75350000D01*
G75*
G02*
X126550000Y-75575000I-225000J0D01*
G01*
X126100000Y-75575000D01*
G75*
G02*
X125875000Y-75350000I0J225000D01*
G01*
X125875000Y-74850000D01*
G75*
G02*
X126100000Y-74625000I225000J0D01*
G01*
X126550000Y-74625000D01*
G75*
G02*
X126775000Y-74850000I0J-225000D01*
G01*
G37*
G36*
G01*
X128325000Y-74850000D02*
X128325000Y-75350000D01*
G75*
G02*
X128100000Y-75575000I-225000J0D01*
G01*
X127650000Y-75575000D01*
G75*
G02*
X127425000Y-75350000I0J225000D01*
G01*
X127425000Y-74850000D01*
G75*
G02*
X127650000Y-74625000I225000J0D01*
G01*
X128100000Y-74625000D01*
G75*
G02*
X128325000Y-74850000I0J-225000D01*
G01*
G37*
G36*
G01*
X124425000Y-84450000D02*
X124425000Y-83950000D01*
G75*
G02*
X124650000Y-83725000I225000J0D01*
G01*
X125100000Y-83725000D01*
G75*
G02*
X125325000Y-83950000I0J-225000D01*
G01*
X125325000Y-84450000D01*
G75*
G02*
X125100000Y-84675000I-225000J0D01*
G01*
X124650000Y-84675000D01*
G75*
G02*
X124425000Y-84450000I0J225000D01*
G01*
G37*
G36*
G01*
X122875000Y-84450000D02*
X122875000Y-83950000D01*
G75*
G02*
X123100000Y-83725000I225000J0D01*
G01*
X123550000Y-83725000D01*
G75*
G02*
X123775000Y-83950000I0J-225000D01*
G01*
X123775000Y-84450000D01*
G75*
G02*
X123550000Y-84675000I-225000J0D01*
G01*
X123100000Y-84675000D01*
G75*
G02*
X122875000Y-84450000I0J225000D01*
G01*
G37*
G36*
G01*
X139250000Y-82675000D02*
X138750000Y-82675000D01*
G75*
G02*
X138525000Y-82450000I0J225000D01*
G01*
X138525000Y-82000000D01*
G75*
G02*
X138750000Y-81775000I225000J0D01*
G01*
X139250000Y-81775000D01*
G75*
G02*
X139475000Y-82000000I0J-225000D01*
G01*
X139475000Y-82450000D01*
G75*
G02*
X139250000Y-82675000I-225000J0D01*
G01*
G37*
G36*
G01*
X139250000Y-84225000D02*
X138750000Y-84225000D01*
G75*
G02*
X138525000Y-84000000I0J225000D01*
G01*
X138525000Y-83550000D01*
G75*
G02*
X138750000Y-83325000I225000J0D01*
G01*
X139250000Y-83325000D01*
G75*
G02*
X139475000Y-83550000I0J-225000D01*
G01*
X139475000Y-84000000D01*
G75*
G02*
X139250000Y-84225000I-225000J0D01*
G01*
G37*
G36*
G01*
X132425000Y-75350000D02*
X132425000Y-74850000D01*
G75*
G02*
X132650000Y-74625000I225000J0D01*
G01*
X133100000Y-74625000D01*
G75*
G02*
X133325000Y-74850000I0J-225000D01*
G01*
X133325000Y-75350000D01*
G75*
G02*
X133100000Y-75575000I-225000J0D01*
G01*
X132650000Y-75575000D01*
G75*
G02*
X132425000Y-75350000I0J225000D01*
G01*
G37*
G36*
G01*
X130875000Y-75350000D02*
X130875000Y-74850000D01*
G75*
G02*
X131100000Y-74625000I225000J0D01*
G01*
X131550000Y-74625000D01*
G75*
G02*
X131775000Y-74850000I0J-225000D01*
G01*
X131775000Y-75350000D01*
G75*
G02*
X131550000Y-75575000I-225000J0D01*
G01*
X131100000Y-75575000D01*
G75*
G02*
X130875000Y-75350000I0J225000D01*
G01*
G37*
G36*
G01*
X122875000Y-76750000D02*
X122875000Y-77250000D01*
G75*
G02*
X122650000Y-77475000I-225000J0D01*
G01*
X122200000Y-77475000D01*
G75*
G02*
X121975000Y-77250000I0J225000D01*
G01*
X121975000Y-76750000D01*
G75*
G02*
X122200000Y-76525000I225000J0D01*
G01*
X122650000Y-76525000D01*
G75*
G02*
X122875000Y-76750000I0J-225000D01*
G01*
G37*
G36*
G01*
X124425000Y-76750000D02*
X124425000Y-77250000D01*
G75*
G02*
X124200000Y-77475000I-225000J0D01*
G01*
X123750000Y-77475000D01*
G75*
G02*
X123525000Y-77250000I0J225000D01*
G01*
X123525000Y-76750000D01*
G75*
G02*
X123750000Y-76525000I225000J0D01*
G01*
X124200000Y-76525000D01*
G75*
G02*
X124425000Y-76750000I0J-225000D01*
G01*
G37*
G36*
G01*
X106250000Y-86325000D02*
X106750000Y-86325000D01*
G75*
G02*
X106975000Y-86550000I0J-225000D01*
G01*
X106975000Y-87000000D01*
G75*
G02*
X106750000Y-87225000I-225000J0D01*
G01*
X106250000Y-87225000D01*
G75*
G02*
X106025000Y-87000000I0J225000D01*
G01*
X106025000Y-86550000D01*
G75*
G02*
X106250000Y-86325000I225000J0D01*
G01*
G37*
G36*
G01*
X106250000Y-84775000D02*
X106750000Y-84775000D01*
G75*
G02*
X106975000Y-85000000I0J-225000D01*
G01*
X106975000Y-85450000D01*
G75*
G02*
X106750000Y-85675000I-225000J0D01*
G01*
X106250000Y-85675000D01*
G75*
G02*
X106025000Y-85450000I0J225000D01*
G01*
X106025000Y-85000000D01*
G75*
G02*
X106250000Y-84775000I225000J0D01*
G01*
G37*
G36*
G01*
X142600000Y-84349999D02*
X142600000Y-85650001D01*
G75*
G02*
X142350001Y-85900000I-249999J0D01*
G01*
X141699999Y-85900000D01*
G75*
G02*
X141450000Y-85650001I0J249999D01*
G01*
X141450000Y-84349999D01*
G75*
G02*
X141699999Y-84100000I249999J0D01*
G01*
X142350001Y-84100000D01*
G75*
G02*
X142600000Y-84349999I0J-249999D01*
G01*
G37*
G36*
G01*
X145550000Y-84349999D02*
X145550000Y-85650001D01*
G75*
G02*
X145300001Y-85900000I-249999J0D01*
G01*
X144649999Y-85900000D01*
G75*
G02*
X144400000Y-85650001I0J249999D01*
G01*
X144400000Y-84349999D01*
G75*
G02*
X144649999Y-84100000I249999J0D01*
G01*
X145300001Y-84100000D01*
G75*
G02*
X145550000Y-84349999I0J-249999D01*
G01*
G37*
G36*
G01*
X143549999Y-73100000D02*
X144850001Y-73100000D01*
G75*
G02*
X145100000Y-73349999I0J-249999D01*
G01*
X145100000Y-74000001D01*
G75*
G02*
X144850001Y-74250000I-249999J0D01*
G01*
X143549999Y-74250000D01*
G75*
G02*
X143300000Y-74000001I0J249999D01*
G01*
X143300000Y-73349999D01*
G75*
G02*
X143549999Y-73100000I249999J0D01*
G01*
G37*
G36*
G01*
X143549999Y-70150000D02*
X144850001Y-70150000D01*
G75*
G02*
X145100000Y-70399999I0J-249999D01*
G01*
X145100000Y-71050001D01*
G75*
G02*
X144850001Y-71300000I-249999J0D01*
G01*
X143549999Y-71300000D01*
G75*
G02*
X143300000Y-71050001I0J249999D01*
G01*
X143300000Y-70399999D01*
G75*
G02*
X143549999Y-70150000I249999J0D01*
G01*
G37*
G36*
G01*
X81250000Y-60675000D02*
X80750000Y-60675000D01*
G75*
G02*
X80525000Y-60450000I0J225000D01*
G01*
X80525000Y-60000000D01*
G75*
G02*
X80750000Y-59775000I225000J0D01*
G01*
X81250000Y-59775000D01*
G75*
G02*
X81475000Y-60000000I0J-225000D01*
G01*
X81475000Y-60450000D01*
G75*
G02*
X81250000Y-60675000I-225000J0D01*
G01*
G37*
G36*
G01*
X81250000Y-62225000D02*
X80750000Y-62225000D01*
G75*
G02*
X80525000Y-62000000I0J225000D01*
G01*
X80525000Y-61550000D01*
G75*
G02*
X80750000Y-61325000I225000J0D01*
G01*
X81250000Y-61325000D01*
G75*
G02*
X81475000Y-61550000I0J-225000D01*
G01*
X81475000Y-62000000D01*
G75*
G02*
X81250000Y-62225000I-225000J0D01*
G01*
G37*
G36*
G01*
X114725000Y-59850000D02*
X114725000Y-59350000D01*
G75*
G02*
X114950000Y-59125000I225000J0D01*
G01*
X115400000Y-59125000D01*
G75*
G02*
X115625000Y-59350000I0J-225000D01*
G01*
X115625000Y-59850000D01*
G75*
G02*
X115400000Y-60075000I-225000J0D01*
G01*
X114950000Y-60075000D01*
G75*
G02*
X114725000Y-59850000I0J225000D01*
G01*
G37*
G36*
G01*
X113175000Y-59850000D02*
X113175000Y-59350000D01*
G75*
G02*
X113400000Y-59125000I225000J0D01*
G01*
X113850000Y-59125000D01*
G75*
G02*
X114075000Y-59350000I0J-225000D01*
G01*
X114075000Y-59850000D01*
G75*
G02*
X113850000Y-60075000I-225000J0D01*
G01*
X113400000Y-60075000D01*
G75*
G02*
X113175000Y-59850000I0J225000D01*
G01*
G37*
G36*
G01*
X123750000Y-71325000D02*
X124250000Y-71325000D01*
G75*
G02*
X124475000Y-71550000I0J-225000D01*
G01*
X124475000Y-72000000D01*
G75*
G02*
X124250000Y-72225000I-225000J0D01*
G01*
X123750000Y-72225000D01*
G75*
G02*
X123525000Y-72000000I0J225000D01*
G01*
X123525000Y-71550000D01*
G75*
G02*
X123750000Y-71325000I225000J0D01*
G01*
G37*
G36*
G01*
X123750000Y-69775000D02*
X124250000Y-69775000D01*
G75*
G02*
X124475000Y-70000000I0J-225000D01*
G01*
X124475000Y-70450000D01*
G75*
G02*
X124250000Y-70675000I-225000J0D01*
G01*
X123750000Y-70675000D01*
G75*
G02*
X123525000Y-70450000I0J225000D01*
G01*
X123525000Y-70000000D01*
G75*
G02*
X123750000Y-69775000I225000J0D01*
G01*
G37*
G36*
G01*
X114250000Y-71325000D02*
X114750000Y-71325000D01*
G75*
G02*
X114975000Y-71550000I0J-225000D01*
G01*
X114975000Y-72000000D01*
G75*
G02*
X114750000Y-72225000I-225000J0D01*
G01*
X114250000Y-72225000D01*
G75*
G02*
X114025000Y-72000000I0J225000D01*
G01*
X114025000Y-71550000D01*
G75*
G02*
X114250000Y-71325000I225000J0D01*
G01*
G37*
G36*
G01*
X114250000Y-69775000D02*
X114750000Y-69775000D01*
G75*
G02*
X114975000Y-70000000I0J-225000D01*
G01*
X114975000Y-70450000D01*
G75*
G02*
X114750000Y-70675000I-225000J0D01*
G01*
X114250000Y-70675000D01*
G75*
G02*
X114025000Y-70450000I0J225000D01*
G01*
X114025000Y-70000000D01*
G75*
G02*
X114250000Y-69775000I225000J0D01*
G01*
G37*
G36*
G01*
X92850000Y-63875000D02*
X92350000Y-63875000D01*
G75*
G02*
X92125000Y-63650000I0J225000D01*
G01*
X92125000Y-63200000D01*
G75*
G02*
X92350000Y-62975000I225000J0D01*
G01*
X92850000Y-62975000D01*
G75*
G02*
X93075000Y-63200000I0J-225000D01*
G01*
X93075000Y-63650000D01*
G75*
G02*
X92850000Y-63875000I-225000J0D01*
G01*
G37*
G36*
G01*
X92850000Y-65425000D02*
X92350000Y-65425000D01*
G75*
G02*
X92125000Y-65200000I0J225000D01*
G01*
X92125000Y-64750000D01*
G75*
G02*
X92350000Y-64525000I225000J0D01*
G01*
X92850000Y-64525000D01*
G75*
G02*
X93075000Y-64750000I0J-225000D01*
G01*
X93075000Y-65200000D01*
G75*
G02*
X92850000Y-65425000I-225000J0D01*
G01*
G37*
G36*
G01*
X103850000Y-64575000D02*
X104350000Y-64575000D01*
G75*
G02*
X104575000Y-64800000I0J-225000D01*
G01*
X104575000Y-65250000D01*
G75*
G02*
X104350000Y-65475000I-225000J0D01*
G01*
X103850000Y-65475000D01*
G75*
G02*
X103625000Y-65250000I0J225000D01*
G01*
X103625000Y-64800000D01*
G75*
G02*
X103850000Y-64575000I225000J0D01*
G01*
G37*
G36*
G01*
X103850000Y-63025000D02*
X104350000Y-63025000D01*
G75*
G02*
X104575000Y-63250000I0J-225000D01*
G01*
X104575000Y-63700000D01*
G75*
G02*
X104350000Y-63925000I-225000J0D01*
G01*
X103850000Y-63925000D01*
G75*
G02*
X103625000Y-63700000I0J225000D01*
G01*
X103625000Y-63250000D01*
G75*
G02*
X103850000Y-63025000I225000J0D01*
G01*
G37*
G36*
G01*
X131850000Y-49475000D02*
X131350000Y-49475000D01*
G75*
G02*
X131125000Y-49250000I0J225000D01*
G01*
X131125000Y-48800000D01*
G75*
G02*
X131350000Y-48575000I225000J0D01*
G01*
X131850000Y-48575000D01*
G75*
G02*
X132075000Y-48800000I0J-225000D01*
G01*
X132075000Y-49250000D01*
G75*
G02*
X131850000Y-49475000I-225000J0D01*
G01*
G37*
G36*
G01*
X131850000Y-51025000D02*
X131350000Y-51025000D01*
G75*
G02*
X131125000Y-50800000I0J225000D01*
G01*
X131125000Y-50350000D01*
G75*
G02*
X131350000Y-50125000I225000J0D01*
G01*
X131850000Y-50125000D01*
G75*
G02*
X132075000Y-50350000I0J-225000D01*
G01*
X132075000Y-50800000D01*
G75*
G02*
X131850000Y-51025000I-225000J0D01*
G01*
G37*
G36*
G01*
X141325000Y-48750000D02*
X141325000Y-48250000D01*
G75*
G02*
X141550000Y-48025000I225000J0D01*
G01*
X142000000Y-48025000D01*
G75*
G02*
X142225000Y-48250000I0J-225000D01*
G01*
X142225000Y-48750000D01*
G75*
G02*
X142000000Y-48975000I-225000J0D01*
G01*
X141550000Y-48975000D01*
G75*
G02*
X141325000Y-48750000I0J225000D01*
G01*
G37*
G36*
G01*
X139775000Y-48750000D02*
X139775000Y-48250000D01*
G75*
G02*
X140000000Y-48025000I225000J0D01*
G01*
X140450000Y-48025000D01*
G75*
G02*
X140675000Y-48250000I0J-225000D01*
G01*
X140675000Y-48750000D01*
G75*
G02*
X140450000Y-48975000I-225000J0D01*
G01*
X140000000Y-48975000D01*
G75*
G02*
X139775000Y-48750000I0J225000D01*
G01*
G37*
G36*
G01*
X119275000Y-51050000D02*
X119275000Y-51550000D01*
G75*
G02*
X119050000Y-51775000I-225000J0D01*
G01*
X118600000Y-51775000D01*
G75*
G02*
X118375000Y-51550000I0J225000D01*
G01*
X118375000Y-51050000D01*
G75*
G02*
X118600000Y-50825000I225000J0D01*
G01*
X119050000Y-50825000D01*
G75*
G02*
X119275000Y-51050000I0J-225000D01*
G01*
G37*
G36*
G01*
X120825000Y-51050000D02*
X120825000Y-51550000D01*
G75*
G02*
X120600000Y-51775000I-225000J0D01*
G01*
X120150000Y-51775000D01*
G75*
G02*
X119925000Y-51550000I0J225000D01*
G01*
X119925000Y-51050000D01*
G75*
G02*
X120150000Y-50825000I225000J0D01*
G01*
X120600000Y-50825000D01*
G75*
G02*
X120825000Y-51050000I0J-225000D01*
G01*
G37*
G36*
G01*
X120525000Y-40250000D02*
X120525000Y-39750000D01*
G75*
G02*
X120750000Y-39525000I225000J0D01*
G01*
X121200000Y-39525000D01*
G75*
G02*
X121425000Y-39750000I0J-225000D01*
G01*
X121425000Y-40250000D01*
G75*
G02*
X121200000Y-40475000I-225000J0D01*
G01*
X120750000Y-40475000D01*
G75*
G02*
X120525000Y-40250000I0J225000D01*
G01*
G37*
G36*
G01*
X118975000Y-40250000D02*
X118975000Y-39750000D01*
G75*
G02*
X119200000Y-39525000I225000J0D01*
G01*
X119650000Y-39525000D01*
G75*
G02*
X119875000Y-39750000I0J-225000D01*
G01*
X119875000Y-40250000D01*
G75*
G02*
X119650000Y-40475000I-225000J0D01*
G01*
X119200000Y-40475000D01*
G75*
G02*
X118975000Y-40250000I0J225000D01*
G01*
G37*
M02*
