G04 #@! TF.GenerationSoftware,KiCad,Pcbnew,(5.1.12-1-10_14)*
G04 #@! TF.CreationDate,2022-03-12T00:20:55-08:00*
G04 #@! TF.ProjectId,as3340,61733333-3430-42e6-9b69-6361645f7063,rev?*
G04 #@! TF.SameCoordinates,Original*
G04 #@! TF.FileFunction,Copper,L3,Inr*
G04 #@! TF.FilePolarity,Positive*
%FSLAX46Y46*%
G04 Gerber Fmt 4.6, Leading zero omitted, Abs format (unit mm)*
G04 Created by KiCad (PCBNEW (5.1.12-1-10_14)) date 2022-03-12 00:20:55*
%MOMM*%
%LPD*%
G01*
G04 APERTURE LIST*
G04 #@! TA.AperFunction,Profile*
%ADD10C,0.050000*%
G04 #@! TD*
G04 #@! TA.AperFunction,Profile*
%ADD11C,0.150000*%
G04 #@! TD*
G04 #@! TA.AperFunction,ComponentPad*
%ADD12C,1.600000*%
G04 #@! TD*
G04 #@! TA.AperFunction,ComponentPad*
%ADD13R,1.600000X1.600000*%
G04 #@! TD*
G04 #@! TA.AperFunction,ComponentPad*
%ADD14C,6.400000*%
G04 #@! TD*
G04 #@! TA.AperFunction,ComponentPad*
%ADD15R,1.050000X1.500000*%
G04 #@! TD*
G04 #@! TA.AperFunction,ComponentPad*
%ADD16O,1.050000X1.500000*%
G04 #@! TD*
G04 #@! TA.AperFunction,ComponentPad*
%ADD17O,1.700000X1.700000*%
G04 #@! TD*
G04 #@! TA.AperFunction,ComponentPad*
%ADD18R,1.700000X1.700000*%
G04 #@! TD*
G04 #@! TA.AperFunction,ComponentPad*
%ADD19C,1.440000*%
G04 #@! TD*
G04 #@! TA.AperFunction,ViaPad*
%ADD20C,1.000000*%
G04 #@! TD*
G04 #@! TA.AperFunction,ViaPad*
%ADD21C,0.800000*%
G04 #@! TD*
G04 #@! TA.AperFunction,Conductor*
%ADD22C,0.600000*%
G04 #@! TD*
G04 #@! TA.AperFunction,Conductor*
%ADD23C,1.000000*%
G04 #@! TD*
G04 #@! TA.AperFunction,Conductor*
%ADD24C,0.400000*%
G04 #@! TD*
G04 APERTURE END LIST*
D10*
X76376000Y-98400000D02*
G75*
G03*
X76376000Y-98400000I-576000J0D01*
G01*
X138376000Y-27000000D02*
G75*
G03*
X138376000Y-27000000I-576000J0D01*
G01*
X75776000Y-27000000D02*
G75*
G03*
X75776000Y-27000000I-576000J0D01*
G01*
D11*
X147000000Y-100500000D02*
X147000000Y-31000000D01*
X67000000Y-30500000D02*
X67000000Y-100000000D01*
X142000000Y-105500000D02*
X72500000Y-105500000D01*
X72500000Y-105500000D02*
G75*
G02*
X67000000Y-100000000I0J5500000D01*
G01*
X147000000Y-100500000D02*
G75*
G02*
X142000000Y-105500000I-5000000J0D01*
G01*
X72000000Y-25500000D02*
X141500000Y-25500000D01*
X67000000Y-30500000D02*
G75*
G02*
X72000000Y-25500000I5000000J0D01*
G01*
X141500000Y-25500000D02*
G75*
G02*
X147000000Y-31000000I0J-5500000D01*
G01*
D12*
X138200000Y-73900000D03*
D13*
X138200000Y-76400000D03*
D14*
X71600000Y-101200000D03*
D15*
X144500000Y-79000000D03*
D16*
X141960000Y-79000000D03*
X143230000Y-79000000D03*
D15*
X72200000Y-79200000D03*
D16*
X69660000Y-79200000D03*
X70930000Y-79200000D03*
D14*
X142400000Y-101200000D03*
X142400000Y-29800000D03*
X71400000Y-29800000D03*
D17*
X130260000Y-28460000D03*
X130260000Y-31000000D03*
X127720000Y-28460000D03*
X127720000Y-31000000D03*
X125180000Y-28460000D03*
X125180000Y-31000000D03*
X122640000Y-28460000D03*
X122640000Y-31000000D03*
X120100000Y-28460000D03*
X120100000Y-31000000D03*
X117560000Y-28460000D03*
X117560000Y-31000000D03*
X115020000Y-28460000D03*
X115020000Y-31000000D03*
X112480000Y-28460000D03*
X112480000Y-31000000D03*
X109940000Y-28460000D03*
X109940000Y-31000000D03*
X107400000Y-28460000D03*
X107400000Y-31000000D03*
X104860000Y-28460000D03*
X104860000Y-31000000D03*
X102320000Y-28460000D03*
X102320000Y-31000000D03*
X99780000Y-28460000D03*
X99780000Y-31000000D03*
X97240000Y-28460000D03*
X97240000Y-31000000D03*
X94700000Y-28460000D03*
X94700000Y-31000000D03*
X92160000Y-28460000D03*
X92160000Y-31000000D03*
X89620000Y-28460000D03*
X89620000Y-31000000D03*
X87080000Y-28460000D03*
X87080000Y-31000000D03*
X84540000Y-28460000D03*
X84540000Y-31000000D03*
X82000000Y-28460000D03*
D18*
X82000000Y-31000000D03*
D19*
X129920000Y-102500000D03*
X132460000Y-102500000D03*
X135000000Y-102500000D03*
X143500000Y-89920000D03*
X143500000Y-92460000D03*
X143500000Y-95000000D03*
D20*
X132200000Y-31400000D03*
D21*
X110200000Y-81000000D03*
X108400000Y-92000000D03*
X110200000Y-92000000D03*
X133000000Y-81800000D03*
X123800000Y-56800000D03*
X125000000Y-75600004D03*
X120400000Y-52400000D03*
X132200000Y-38600000D03*
X118400000Y-41800000D03*
X129600000Y-54000000D03*
X141800000Y-47200000D03*
D20*
X145000000Y-83200000D03*
D21*
X131500000Y-86000000D03*
X131000000Y-64000000D03*
X133500000Y-64000000D03*
X130000000Y-50500000D03*
X100500000Y-36499998D03*
X134000002Y-74800002D03*
X131200000Y-69200000D03*
X101600000Y-73600000D03*
D20*
X121000000Y-38400000D03*
D21*
X139600000Y-80800000D03*
X133800000Y-96200000D03*
X95600000Y-87999992D03*
X114599994Y-73400000D03*
X102800000Y-87200000D03*
D20*
X107200000Y-104000000D03*
X116200000Y-98800000D03*
D21*
X87000000Y-101600000D03*
X87800000Y-81000000D03*
D20*
X70400000Y-84200000D03*
D21*
X86400000Y-85800000D03*
X99400000Y-51200000D03*
X118900000Y-57700000D03*
X97000000Y-92000000D03*
D20*
X91200000Y-65000000D03*
X105600000Y-65000000D03*
X122600000Y-71800000D03*
X113800000Y-47200000D03*
X107800000Y-53400000D03*
X114200000Y-76400000D03*
X139800000Y-59800000D03*
X87600000Y-74000000D03*
X96000000Y-84400000D03*
X95800000Y-77800000D03*
X91600000Y-69800000D03*
D21*
X77000000Y-38000000D03*
D20*
X113600000Y-60800000D03*
D21*
X91200000Y-87800000D03*
X121825000Y-90825000D03*
X117799992Y-91600000D03*
D20*
X122000000Y-86200000D03*
D21*
X106000006Y-103200000D03*
D20*
X99600002Y-103000000D03*
D21*
X80200000Y-86800000D03*
D20*
X70715003Y-95715003D03*
D21*
X77800000Y-78400000D03*
D20*
X82000000Y-102000000D03*
X81000000Y-58800020D03*
D21*
X73000000Y-71200000D03*
X77600000Y-67400000D03*
X75400000Y-59600000D03*
X80600000Y-75000000D03*
X115000000Y-80600000D03*
X100000000Y-55800000D03*
X94600000Y-35200000D03*
X75400000Y-79200000D03*
X95400000Y-103000000D03*
X130785999Y-67014001D03*
X118500000Y-52500000D03*
X130000000Y-49000000D03*
X105200000Y-73600000D03*
D20*
X104000000Y-37000000D03*
X93500000Y-37900000D03*
X144200000Y-72200002D03*
X115200000Y-58200000D03*
X92700000Y-62300000D03*
X130200000Y-90600000D03*
X116000000Y-103400000D03*
D21*
X117200000Y-88000000D03*
X104200000Y-86000000D03*
D20*
X97200000Y-89800000D03*
X139000000Y-48600000D03*
X132400000Y-52600000D03*
X119400000Y-38400000D03*
D21*
X102000000Y-51400000D03*
D20*
X105600000Y-63400000D03*
X124200003Y-82800005D03*
X134800000Y-76000000D03*
X122775000Y-70225000D03*
X81400000Y-79800000D03*
X79000000Y-100500010D03*
D21*
X74800000Y-89400000D03*
X80200000Y-88000000D03*
X75400000Y-75400000D03*
D20*
X79800000Y-61800000D03*
D21*
X68800000Y-65600000D03*
X134000000Y-86800000D03*
X109600000Y-85600000D03*
X85800000Y-58400000D03*
X86100000Y-60300000D03*
X121500000Y-82500000D03*
X135600000Y-66600000D03*
X105600000Y-98400000D03*
X105600000Y-92199998D03*
X137200000Y-42999992D03*
X134200000Y-73200000D03*
X136400000Y-70000000D03*
X127500000Y-81500000D03*
X131465000Y-81465000D03*
X96000000Y-86600000D03*
X89800000Y-92000000D03*
X89400000Y-100200000D03*
X101400000Y-87200000D03*
X123000000Y-100200000D03*
X128800000Y-85000000D03*
X135199996Y-96600000D03*
X113000000Y-97600000D03*
X108400000Y-87000000D03*
X134200000Y-81000000D03*
X126400000Y-78200000D03*
X75000000Y-86800000D03*
X88280001Y-49080001D03*
X90909999Y-44509999D03*
X103200000Y-96600000D03*
X111000000Y-44200004D03*
X138200000Y-37800000D03*
X92160000Y-40440000D03*
X74200000Y-88000000D03*
X74200000Y-85200000D03*
X129800001Y-67800001D03*
X135800000Y-60200000D03*
X136000000Y-51800000D03*
X105000000Y-90200000D03*
X86000000Y-104400000D03*
X103600000Y-103200000D03*
X126825000Y-95025000D03*
X103200000Y-49800000D03*
X107800000Y-79600000D03*
X85000000Y-87400000D03*
X74999998Y-91904994D03*
X75800000Y-94400000D03*
X94000000Y-92000000D03*
X121600000Y-65600000D03*
X131000000Y-59400000D03*
X106400000Y-54400000D03*
X106200000Y-49200000D03*
X105200000Y-43400000D03*
X86300000Y-64350000D03*
X134800000Y-43200000D03*
X71000000Y-66199996D03*
X93800000Y-103000000D03*
X83799996Y-103000000D03*
X95500000Y-39500000D03*
X106000000Y-39399998D03*
X127000000Y-66000000D03*
X100200000Y-75200000D03*
X120400000Y-74800000D03*
X100200000Y-80800000D03*
X134600000Y-55400000D03*
X134800000Y-47400000D03*
X116500000Y-84000000D03*
X102800000Y-62000000D03*
X102800000Y-56000000D03*
X110800000Y-55800000D03*
X102600000Y-44600000D03*
X114200000Y-41200000D03*
X99200000Y-48800000D03*
X98000000Y-67000000D03*
X98400000Y-96800000D03*
X114775000Y-84775002D03*
X103400000Y-68200000D03*
X111200000Y-72200000D03*
X103399998Y-70800000D03*
X112600000Y-66400000D03*
X95999988Y-82000010D03*
X136000000Y-82000000D03*
X132000000Y-72200000D03*
X104200000Y-48800000D03*
X104175000Y-44375000D03*
X117000000Y-36600000D03*
X116800000Y-46800000D03*
X74200000Y-90600000D03*
X84400000Y-82600000D03*
X86600000Y-79000000D03*
X97000000Y-74400000D03*
X121400000Y-55200000D03*
X121200000Y-50000000D03*
D22*
X130371998Y-66600000D02*
X130285999Y-66514001D01*
D23*
X115071998Y-51300000D02*
X116385999Y-52614001D01*
D22*
X93500000Y-62500000D02*
X93500000Y-62100000D01*
X129600000Y-65800000D02*
X129585999Y-65814001D01*
D23*
X129585999Y-65814001D02*
X130285999Y-66514001D01*
X116385999Y-52614001D02*
X129585999Y-65814001D01*
X130285999Y-66514001D02*
X130785999Y-67014001D01*
D22*
X112885999Y-49114001D02*
X113271998Y-49500000D01*
X118385999Y-52614001D02*
X118500000Y-52500000D01*
X116385999Y-52614001D02*
X118385999Y-52614001D01*
X112771998Y-49000000D02*
X112385999Y-48614001D01*
X130000000Y-49000000D02*
X112771998Y-49000000D01*
D23*
X112385999Y-48614001D02*
X112885999Y-49114001D01*
D22*
X116500000Y-52728002D02*
X116385999Y-52614001D01*
X113500000Y-49728002D02*
X113385999Y-49614001D01*
D23*
X112885999Y-49114001D02*
X113385999Y-49614001D01*
X93500000Y-66700000D02*
X93500000Y-62100000D01*
X113385999Y-49614001D02*
X115071998Y-51300000D01*
X104000000Y-40228002D02*
X104385999Y-40614001D01*
X104000000Y-37000000D02*
X104000000Y-40228002D01*
X112385999Y-48614001D02*
X104385999Y-40614001D01*
D22*
X103800000Y-72200000D02*
X99000000Y-72200000D01*
X99000000Y-72200000D02*
X93500000Y-66700000D01*
X105200000Y-73600000D02*
X103800000Y-72200000D01*
X93300000Y-61500000D02*
X93500000Y-61500000D01*
D23*
X93500000Y-61500000D02*
X93500000Y-62100000D01*
D22*
X93500000Y-71000000D02*
X93500000Y-66700000D01*
X93500000Y-88500000D02*
X93500000Y-71000000D01*
X95400000Y-90400000D02*
X93500000Y-88500000D01*
X95400000Y-103000000D02*
X95400000Y-90400000D01*
X130785999Y-67014001D02*
X135972000Y-72200002D01*
X135972000Y-72200002D02*
X144200000Y-72200002D01*
X115200000Y-51428002D02*
X115071998Y-51300000D01*
X115200000Y-58200000D02*
X115200000Y-51428002D01*
D23*
X93500000Y-37900000D02*
X93500000Y-61500000D01*
D22*
X93500000Y-61500000D02*
X92700000Y-62300000D01*
X97200000Y-89800000D02*
X103400000Y-89800000D01*
X107200000Y-86000000D02*
X108100000Y-85100000D01*
X104200000Y-86000000D02*
X107200000Y-86000000D01*
X103400000Y-89800000D02*
X108100000Y-85100000D01*
D23*
X99000000Y-35000000D02*
X104800000Y-35000000D01*
X97240000Y-33240000D02*
X99000000Y-35000000D01*
X121600000Y-35000000D02*
X132600000Y-46000000D01*
X132600000Y-46000000D02*
X132600000Y-48800000D01*
D22*
X138800000Y-48800000D02*
X139000000Y-48600000D01*
X132600000Y-48800000D02*
X138800000Y-48800000D01*
X132600000Y-52400000D02*
X132400000Y-52600000D01*
X132600000Y-48800000D02*
X132600000Y-52400000D01*
X118000000Y-35000000D02*
X119400000Y-36400000D01*
D23*
X104800000Y-35000000D02*
X118000000Y-35000000D01*
D22*
X119400000Y-36400000D02*
X119400000Y-38400000D01*
D23*
X118000000Y-35000000D02*
X121600000Y-35000000D01*
D22*
X105400000Y-56200000D02*
X105485999Y-56114001D01*
D23*
X97240000Y-32240000D02*
X97240000Y-37160000D01*
X97240000Y-31000000D02*
X97240000Y-32240000D01*
X97200000Y-42700000D02*
X102000000Y-47500000D01*
X97200000Y-37200000D02*
X97200000Y-42700000D01*
D22*
X102000000Y-48600000D02*
X102000000Y-51000000D01*
D23*
X102000000Y-47500000D02*
X102000000Y-48600000D01*
X102000000Y-48600000D02*
X102000000Y-52628002D01*
D22*
X105400000Y-56028002D02*
X104985999Y-55614001D01*
D23*
X104985999Y-55614001D02*
X105485999Y-56114001D01*
X102000000Y-52628002D02*
X104985999Y-55614001D01*
D22*
X105600000Y-56228002D02*
X105485999Y-56114001D01*
X105600000Y-63400000D02*
X105600000Y-56228002D01*
D23*
X105514001Y-56114001D02*
X117000000Y-67600000D01*
X105485999Y-56114001D02*
X105514001Y-56114001D01*
D22*
X108100000Y-85100000D02*
X118400000Y-74800000D01*
D23*
X118400000Y-74800000D02*
X118400000Y-76200000D01*
X118400000Y-69000000D02*
X118400000Y-74800000D01*
X118400000Y-77000000D02*
X118400000Y-76200000D01*
D22*
X117200000Y-88000000D02*
X118400000Y-86800000D01*
X118400000Y-77000000D02*
X118400000Y-86800000D01*
D23*
X117000000Y-67600000D02*
X118400000Y-69000000D01*
D22*
X122000000Y-69000000D02*
X118400000Y-69000000D01*
X122000000Y-69000000D02*
X122400000Y-69000000D01*
X123700004Y-82300006D02*
X124200003Y-82800005D01*
X118400000Y-77000000D02*
X123700004Y-82300006D01*
X122900000Y-69000000D02*
X129900000Y-76000000D01*
X129900000Y-76000000D02*
X134800000Y-76000000D01*
X122400000Y-69000000D02*
X122900000Y-69000000D01*
X122775000Y-69375000D02*
X122400000Y-69000000D01*
X122775000Y-70225000D02*
X122775000Y-69375000D01*
X118400000Y-86800000D02*
X118900001Y-87300001D01*
X118400000Y-101000000D02*
X116499999Y-102900001D01*
X118900001Y-92232001D02*
X118400000Y-92732002D01*
X116499999Y-102900001D02*
X116000000Y-103400000D01*
X118400000Y-92732002D02*
X118400000Y-101000000D01*
X118900001Y-87300001D02*
X118900001Y-92232001D01*
X79600000Y-78000000D02*
X81400000Y-79800000D01*
X79000000Y-78000000D02*
X79600000Y-78000000D01*
X79000000Y-73000000D02*
X79000000Y-78000000D01*
X79000000Y-100500010D02*
X79000000Y-89200000D01*
X79000000Y-78000000D02*
X79000000Y-84200000D01*
X79000000Y-86400000D02*
X79000000Y-89200000D01*
X79000000Y-84200000D02*
X79000000Y-86400000D01*
D23*
X92200000Y-35400000D02*
X94700000Y-32900000D01*
X94700000Y-32900000D02*
X94700000Y-31000000D01*
X84200000Y-35400000D02*
X92200000Y-35400000D01*
X79000000Y-40600000D02*
X84200000Y-35400000D01*
X79000000Y-54600000D02*
X79000000Y-40600000D01*
D24*
X79000000Y-86400000D02*
X79000000Y-86800000D01*
D22*
X75400000Y-75400000D02*
X79000000Y-71800000D01*
X79000000Y-71800000D02*
X79000000Y-73000000D01*
X79000000Y-70400000D02*
X79000000Y-71800000D01*
D24*
X79000000Y-84200000D02*
X79000000Y-86800000D01*
X76400000Y-89400000D02*
X74800000Y-89400000D01*
X79000000Y-86800000D02*
X76400000Y-89400000D01*
X79000000Y-62200000D02*
X79000000Y-62000000D01*
D22*
X79000000Y-62000000D02*
X79000000Y-70400000D01*
D24*
X79634315Y-88000000D02*
X80200000Y-88000000D01*
X79000000Y-86800000D02*
X79000000Y-87365685D01*
X79000000Y-87365685D02*
X79634315Y-88000000D01*
D22*
X79000000Y-61400000D02*
X79400000Y-61400000D01*
D23*
X79000000Y-54600000D02*
X79000000Y-61400000D01*
D22*
X79400000Y-61400000D02*
X79800000Y-61800000D01*
D23*
X79000000Y-61400000D02*
X79000000Y-62000000D01*
D24*
X73000000Y-61400000D02*
X79000000Y-61400000D01*
X68800000Y-65600000D02*
X73000000Y-61400000D01*
X143460000Y-92500000D02*
X143500000Y-92460000D01*
X112600000Y-68600000D02*
X112600000Y-66400000D01*
X106000000Y-75200000D02*
X112600000Y-68600000D01*
X106000000Y-80000000D02*
X106000000Y-75200000D01*
X103999990Y-82000010D02*
X106000000Y-80000000D01*
X95999988Y-82000010D02*
X103999990Y-82000010D01*
M02*
