M48
; DRILL file {KiCad (5.1.12-1-10_14)} date Friday, March 11, 2022 at 11:18:02 PM
; FORMAT={-:-/ absolute / inch / decimal}
; #@! TF.CreationDate,2022-03-11T23:18:02-08:00
; #@! TF.GenerationSoftware,Kicad,Pcbnew,(5.1.12-1-10_14)
; #@! TF.FileFunction,Plated,1,4,PTH
FMAT,2
INCH
T1C0.0157
T2C0.0197
T3C0.0295
T4C0.0315
T5C0.0394
T6C0.1260
%
G90
G05
T1
X2.7087Y-2.5827
X2.7953Y-2.6063
X2.874Y-2.8031
X2.9213Y-3.3543
X2.9213Y-3.4646
X2.9213Y-3.5669
X2.9449Y-3.5197
X2.9528Y-3.6183
X2.9528Y-3.4173
X2.9685Y-2.3465
X2.9685Y-2.9685
X2.9685Y-3.1181
X2.9843Y-3.7165
X3.0315Y-1.4961
X3.0551Y-2.6535
X3.063Y-3.0866
X3.1575Y-3.4173
X3.1575Y-3.4646
X3.1732Y-2.9528
X3.2992Y-4.0551
X3.3228Y-3.252
X3.3465Y-3.4409
X3.378Y-2.2992
X3.3858Y-4.1102
X3.3898Y-2.374
X3.3976Y-2.5335
X3.4016Y-3.378
X3.4094Y-3.1102
X3.4252Y-4.0
X3.4567Y-3.189
X3.4724Y-2.0315
X3.5197Y-3.9449
X3.5354Y-3.622
X3.5827Y-1.8976
X3.5906Y-3.4567
X3.6299Y-1.8346
X3.6929Y-4.0551
X3.7008Y-3.622
X3.7244Y-1.3858
X3.7559Y-4.0551
X3.7598Y-1.5551
X3.7638Y-3.4646
X3.7795Y-3.2283
X3.7795Y-3.4094
X3.8189Y-2.9291
X3.8189Y-3.622
X3.8583Y-2.6378
X3.874Y-3.811
X3.9055Y-1.9213
X3.9134Y-2.0157
X3.937Y-2.1969
X3.9449Y-2.9606
X3.9449Y-3.1811
X3.9567Y-1.437
X3.9921Y-3.4331
X4.0Y-2.8976
X4.0157Y-2.0236
X4.0394Y-1.7559
X4.0472Y-2.2047
X4.0472Y-2.4409
X4.0472Y-3.4331
X4.063Y-1.9606
X4.063Y-3.8031
X4.0709Y-2.7874
X4.0709Y-2.685
X4.0787Y-4.063
X4.1014Y-1.747
X4.1024Y-1.9213
X4.1024Y-3.3858
X4.1339Y-3.5512
X4.1417Y-1.7087
X4.1417Y-2.8976
X4.1575Y-3.6299
X4.1575Y-3.874
X4.1732Y-1.5512
X4.1732Y-4.063
X4.1811Y-1.937
X4.189Y-2.1417
X4.2441Y-3.1339
X4.2677Y-3.4252
X4.2677Y-3.622
X4.315Y-3.3701
X4.3386Y-3.189
X4.3386Y-3.622
X4.3622Y-2.1969
X4.3701Y-1.7402
X4.378Y-2.8425
X4.4331Y-2.6142
X4.4488Y-3.8425
X4.4961Y-1.622
X4.5118Y-2.8898
X4.5187Y-3.3376
X4.5276Y-3.1732
X4.5866Y-3.3071
X4.5984Y-1.8425
X4.6063Y-1.4409
X4.6142Y-3.4646
X4.6378Y-3.6063
X4.6614Y-1.6457
X4.6654Y-2.0669
X4.6811Y-2.2717
X4.7402Y-2.063
X4.7402Y-2.9449
X4.7717Y-1.9685
X4.7795Y-2.1732
X4.7835Y-3.248
X4.7874Y-2.5827
X4.7963Y-3.5758
X4.8425Y-3.9449
X4.874Y-2.2362
X4.9213Y-2.9764
X4.9764Y-3.0787
X4.9931Y-3.7411
X5.0Y-2.5984
X5.0197Y-3.2087
X5.0709Y-3.3465
X5.1024Y-2.126
X5.1102Y-2.6693
X5.1181Y-1.9291
X5.1181Y-1.9882
X5.1491Y-2.6383
X5.1575Y-2.3386
X5.1575Y-2.5197
X5.1654Y-2.7244
X5.1758Y-3.2073
X5.1772Y-3.3858
X5.1969Y-2.8425
X5.2047Y-1.5197
X5.2362Y-3.2205
X5.2559Y-2.5197
X5.2677Y-3.7874
X5.2756Y-3.4173
X5.2756Y-2.9449
X5.2835Y-2.8819
X5.2835Y-3.189
X5.2992Y-2.1811
X5.3071Y-1.7008
X5.3071Y-1.8661
X5.3228Y-3.8031
X5.3386Y-2.622
X5.3465Y-2.3701
X5.3543Y-2.0394
X5.3543Y-3.2283
X5.3701Y-2.7559
X5.4016Y-1.6929
X5.4409Y-1.4882
X5.4961Y-3.1811
X5.5827Y-1.8583
T2
X2.7717Y-3.315
X2.7841Y-3.7683
X3.1102Y-3.9567
X3.1417Y-2.4331
X3.189Y-2.315
X3.2047Y-3.1417
X3.2283Y-4.0157
X3.4488Y-2.9134
X3.5906Y-2.5591
X3.6063Y-2.748
X3.6496Y-2.4528
X3.6811Y-1.4921
X3.7717Y-3.063
X3.7795Y-3.3228
X3.8268Y-3.5354
X3.9213Y-4.0551
X4.0945Y-1.4567
X4.1575Y-2.4961
X4.1575Y-2.5591
X4.2205Y-4.0945
X4.2441Y-2.1024
X4.4724Y-2.3937
X4.4803Y-1.8583
X4.4961Y-3.0079
X4.5354Y-2.2913
X4.5669Y-4.0709
X4.5748Y-3.8898
X4.7008Y-1.5118
X4.7638Y-1.5118
X4.8031Y-3.3937
X4.8268Y-2.8268
X4.8337Y-2.7648
X4.8898Y-3.2598
X5.126Y-3.5669
X5.2047Y-1.2362
X5.2126Y-2.0709
X5.3071Y-2.9921
X5.4724Y-1.9134
X5.5039Y-2.3543
X5.6772Y-2.8425
X5.7087Y-3.2756
T3
X2.7425Y-3.1181
X2.7925Y-3.1181
X2.8425Y-3.1181
X5.589Y-3.1102
X5.639Y-3.1102
X5.689Y-3.1102
T4
X5.115Y-4.0354
X5.215Y-4.0354
X5.315Y-4.0354
X5.4409Y-2.9094
X5.4409Y-3.0079
X5.6496Y-3.5402
X5.6496Y-3.6402
X5.6496Y-3.7402
T5
X3.2283Y-1.1205
X3.2283Y-1.2205
X3.3283Y-1.1205
X3.3283Y-1.2205
X3.4283Y-1.1205
X3.4283Y-1.2205
X3.5283Y-1.1205
X3.5283Y-1.2205
X3.6283Y-1.1205
X3.6283Y-1.2205
X3.7283Y-1.1205
X3.7283Y-1.2205
X3.8283Y-1.1205
X3.8283Y-1.2205
X3.9283Y-1.1205
X3.9283Y-1.2205
X4.0283Y-1.1205
X4.0283Y-1.2205
X4.1283Y-1.1205
X4.1283Y-1.2205
X4.2283Y-1.1205
X4.2283Y-1.2205
X4.3283Y-1.1205
X4.3283Y-1.2205
X4.4283Y-1.1205
X4.4283Y-1.2205
X4.5283Y-1.1205
X4.5283Y-1.2205
X4.6283Y-1.1205
X4.6283Y-1.2205
X4.7283Y-1.1205
X4.7283Y-1.2205
X4.8283Y-1.1205
X4.8283Y-1.2205
X4.9283Y-1.1205
X4.9283Y-1.2205
X5.0283Y-1.1205
X5.0283Y-1.2205
X5.1283Y-1.1205
X5.1283Y-1.2205
T6
X2.811Y-1.1732
X2.8189Y-3.9843
X5.6063Y-1.1732
X5.6063Y-3.9843
T0
M30
