%TF.GenerationSoftware,KiCad,Pcbnew,7.0.11*%
%TF.CreationDate,2025-10-10T23:19:54-07:00*%
%TF.ProjectId,frontpanel,66726f6e-7470-4616-9e65-6c2e6b696361,rev?*%
%TF.SameCoordinates,Original*%
%TF.FileFunction,Profile,NP*%
%FSLAX46Y46*%
G04 Gerber Fmt 4.6, Leading zero omitted, Abs format (unit mm)*
G04 Created by KiCad (PCBNEW 7.0.11) date 2025-10-10 23:19:54*
%MOMM*%
%LPD*%
G01*
G04 APERTURE LIST*
%TA.AperFunction,Profile*%
%ADD10C,0.050000*%
%TD*%
G04 APERTURE END LIST*
D10*
X84400000Y-24400000D02*
X175840000Y-24400000D01*
X175840000Y-152900000D01*
X84400000Y-152900000D01*
X84400000Y-24400000D01*
X169424853Y-151532329D02*
G75*
G03*
X169425000Y-148350269I25247J1591029D01*
G01*
X169900000Y-48400000D02*
G75*
G03*
X162700000Y-48400000I-3600000J0D01*
G01*
X162700000Y-48400000D02*
G75*
G03*
X169900000Y-48400000I3600000J0D01*
G01*
X91048842Y-151500000D02*
X93299274Y-151532276D01*
X169424853Y-29007539D02*
G75*
G03*
X169425000Y-25825459I25247J1591039D01*
G01*
X167175000Y-148350268D02*
X169425000Y-148350268D01*
X167174421Y-28975240D02*
X169424853Y-29007516D01*
X170650000Y-105625000D02*
G75*
G03*
X163950000Y-105625000I-3350000J0D01*
G01*
X163950000Y-105625000D02*
G75*
G03*
X170650000Y-105625000I3350000J0D01*
G01*
X167175000Y-25825458D02*
X169425000Y-25825458D01*
X91049421Y-148350207D02*
G75*
G03*
X91048842Y-151499999I-18821J-1574893D01*
G01*
X167175001Y-25825367D02*
G75*
G03*
X167174421Y-28975240I-18801J-1574933D01*
G01*
X170650000Y-90025000D02*
G75*
G03*
X163950000Y-90025000I-3350000J0D01*
G01*
X163950000Y-90025000D02*
G75*
G03*
X170650000Y-90025000I3350000J0D01*
G01*
X167174999Y-148350357D02*
G75*
G03*
X167174421Y-151500050I-18799J-1574843D01*
G01*
X93299275Y-29007389D02*
G75*
G03*
X93299421Y-25825409I25225J1590989D01*
G01*
X91049421Y-148350218D02*
X93299421Y-148350218D01*
X170650000Y-131425000D02*
G75*
G03*
X163950000Y-131425000I-3350000J0D01*
G01*
X163950000Y-131425000D02*
G75*
G03*
X170650000Y-131425000I3350000J0D01*
G01*
X91048842Y-28975190D02*
X93299274Y-29007466D01*
X91049421Y-25825417D02*
G75*
G03*
X91048842Y-28975189I-18821J-1574883D01*
G01*
X167174421Y-151500050D02*
X169424853Y-151532326D01*
X169900000Y-69400000D02*
G75*
G03*
X162700000Y-69400000I-3600000J0D01*
G01*
X162700000Y-69400000D02*
G75*
G03*
X169900000Y-69400000I3600000J0D01*
G01*
X91049421Y-25825408D02*
X93299421Y-25825408D01*
X108450000Y-119500000D02*
G75*
G03*
X95950000Y-119500000I-6250000J0D01*
G01*
X95950000Y-119500000D02*
G75*
G03*
X108450000Y-119500000I6250000J0D01*
G01*
X93299274Y-151532279D02*
G75*
G03*
X93299421Y-148350218I25216J1591029D01*
G01*
M02*
