%TF.GenerationSoftware,KiCad,Pcbnew,7.0.11*%
%TF.CreationDate,2025-10-10T23:19:53-07:00*%
%TF.ProjectId,frontpanel,66726f6e-7470-4616-9e65-6c2e6b696361,rev?*%
%TF.SameCoordinates,Original*%
%TF.FileFunction,Copper,L1,Top*%
%TF.FilePolarity,Positive*%
%FSLAX46Y46*%
G04 Gerber Fmt 4.6, Leading zero omitted, Abs format (unit mm)*
G04 Created by KiCad (PCBNEW 7.0.11) date 2025-10-10 23:19:53*
%MOMM*%
%LPD*%
G01*
G04 APERTURE LIST*
%TA.AperFunction,NonConductor*%
%ADD10C,0.000000*%
%TD*%
%TA.AperFunction,ComponentPad*%
%ADD11C,6.400000*%
%TD*%
G04 APERTURE END LIST*
D10*
%TA.AperFunction,NonConductor*%
G36*
X127824856Y-42989015D02*
G01*
X127907952Y-42992327D01*
X128087126Y-43004149D01*
X128285087Y-43022620D01*
X128503610Y-43047400D01*
X128744467Y-43078151D01*
X128900000Y-43100000D01*
X129042426Y-43122572D01*
X129172477Y-43146212D01*
X129290881Y-43171268D01*
X129398369Y-43198089D01*
X129495670Y-43227021D01*
X129583514Y-43258413D01*
X129662631Y-43292612D01*
X129733751Y-43329965D01*
X129797603Y-43370821D01*
X129854917Y-43415526D01*
X129906424Y-43464428D01*
X129952852Y-43517876D01*
X129994931Y-43576216D01*
X130033392Y-43639796D01*
X130068964Y-43708964D01*
X130083671Y-43737933D01*
X130100480Y-43767095D01*
X130119889Y-43796786D01*
X130142399Y-43827346D01*
X130168506Y-43859109D01*
X130198710Y-43892413D01*
X130233510Y-43927596D01*
X130273403Y-43964994D01*
X130318889Y-44004944D01*
X130370467Y-44047783D01*
X130428634Y-44093849D01*
X130493889Y-44143477D01*
X130566732Y-44197006D01*
X130647660Y-44254772D01*
X130835767Y-44384363D01*
X131062200Y-44534947D01*
X131330948Y-44709220D01*
X131646000Y-44909877D01*
X132011344Y-45139615D01*
X132430969Y-45401129D01*
X132908865Y-45697116D01*
X134055422Y-46403293D01*
X134791376Y-46857968D01*
X135089167Y-47039322D01*
X135353927Y-47194360D01*
X135595980Y-47326335D01*
X135825645Y-47438501D01*
X136053243Y-47534113D01*
X136289097Y-47616424D01*
X136543527Y-47688689D01*
X136826854Y-47754162D01*
X137149399Y-47816097D01*
X137521484Y-47877747D01*
X138455557Y-48013211D01*
X139711642Y-48186587D01*
X141043936Y-48378749D01*
X142175732Y-48554687D01*
X142987348Y-48694933D01*
X143235688Y-48745587D01*
X143359103Y-48780017D01*
X143390809Y-48795149D01*
X143421419Y-48811165D01*
X143450952Y-48828106D01*
X143479429Y-48846013D01*
X143506872Y-48864927D01*
X143533301Y-48884888D01*
X143558737Y-48905939D01*
X143583201Y-48928119D01*
X143606713Y-48951470D01*
X143629296Y-48976033D01*
X143650968Y-49001848D01*
X143671753Y-49028957D01*
X143691669Y-49057400D01*
X143710739Y-49087219D01*
X143728983Y-49118454D01*
X143746421Y-49151146D01*
X143763075Y-49185336D01*
X143778966Y-49221066D01*
X143794115Y-49258375D01*
X143808541Y-49297306D01*
X143822267Y-49337899D01*
X143835313Y-49380194D01*
X143847700Y-49424234D01*
X143859449Y-49470058D01*
X143881116Y-49567225D01*
X143900480Y-49672022D01*
X143917710Y-49784777D01*
X143932970Y-49905818D01*
X143993609Y-50435901D01*
X143513056Y-51260478D01*
X143373417Y-51503722D01*
X143262010Y-51707935D01*
X143215774Y-51798328D01*
X143175254Y-51882468D01*
X143140003Y-51961525D01*
X143109572Y-52036668D01*
X143083514Y-52109064D01*
X143061383Y-52179883D01*
X143042730Y-52250293D01*
X143027108Y-52321463D01*
X143014071Y-52394561D01*
X143003170Y-52470756D01*
X142985987Y-52637111D01*
X142973362Y-52804852D01*
X142969566Y-52876709D01*
X142967677Y-52941727D01*
X142967866Y-53000787D01*
X142970305Y-53054766D01*
X142975164Y-53104543D01*
X142982616Y-53150997D01*
X142992831Y-53195006D01*
X143005982Y-53237449D01*
X143022240Y-53279205D01*
X143041776Y-53321152D01*
X143064761Y-53364169D01*
X143091368Y-53409135D01*
X143121767Y-53456927D01*
X143156130Y-53508426D01*
X143206328Y-53589006D01*
X143252171Y-53675975D01*
X143293553Y-53768538D01*
X143330366Y-53865903D01*
X143362500Y-53967279D01*
X143389847Y-54071873D01*
X143412301Y-54178892D01*
X143429752Y-54287545D01*
X143442092Y-54397039D01*
X143449213Y-54506581D01*
X143451007Y-54615380D01*
X143447365Y-54722642D01*
X143438181Y-54827577D01*
X143423344Y-54929390D01*
X143402748Y-55027291D01*
X143376284Y-55120486D01*
X143353642Y-55193636D01*
X143333071Y-55266889D01*
X143314982Y-55338284D01*
X143299785Y-55405859D01*
X143287892Y-55467653D01*
X143279713Y-55521705D01*
X143277144Y-55545214D01*
X143275659Y-55566053D01*
X143275307Y-55583974D01*
X143276140Y-55598735D01*
X143285758Y-55744916D01*
X143301596Y-56049055D01*
X143343142Y-56953402D01*
X143373514Y-57526954D01*
X143417031Y-58181071D01*
X143467880Y-58835189D01*
X143520251Y-59408740D01*
X143571065Y-59935526D01*
X143617686Y-60462313D01*
X143654945Y-60927981D01*
X143677676Y-61271411D01*
X143704448Y-61682265D01*
X143752687Y-62331512D01*
X143886217Y-63988566D01*
X143968425Y-64963922D01*
X144024470Y-65692312D01*
X144041361Y-65979559D01*
X144050127Y-66223861D01*
X144050238Y-66431484D01*
X144041167Y-66608693D01*
X144022384Y-66761754D01*
X143993362Y-66896934D01*
X143953573Y-67020496D01*
X143902487Y-67138707D01*
X143839576Y-67257833D01*
X143764312Y-67384138D01*
X143574610Y-67683352D01*
X143357123Y-68032753D01*
X143124842Y-68415219D01*
X142905573Y-68784459D01*
X142727122Y-69094180D01*
X142650017Y-69226615D01*
X142573674Y-69348040D01*
X142497646Y-69458768D01*
X142421485Y-69559111D01*
X142344744Y-69649381D01*
X142266975Y-69729891D01*
X142227565Y-69766584D01*
X142187731Y-69800954D01*
X142147416Y-69833040D01*
X142106564Y-69862882D01*
X142065120Y-69890517D01*
X142023027Y-69915987D01*
X141980230Y-69939329D01*
X141936672Y-69960582D01*
X141892298Y-69979786D01*
X141847052Y-69996980D01*
X141800878Y-70012202D01*
X141753720Y-70025492D01*
X141705522Y-70036889D01*
X141656228Y-70046433D01*
X141554127Y-70060113D01*
X141446972Y-70066845D01*
X141334315Y-70066943D01*
X141287653Y-70063822D01*
X141223338Y-70056627D01*
X141046313Y-70030872D01*
X140812372Y-69991397D01*
X140530643Y-69939917D01*
X140210256Y-69878149D01*
X139860341Y-69807809D01*
X139490028Y-69730614D01*
X139108446Y-69648280D01*
X139108446Y-69648265D01*
X138327214Y-69481835D01*
X137577040Y-69330933D01*
X136943161Y-69212167D01*
X136510813Y-69142146D01*
X136307493Y-69112805D01*
X136215386Y-69097386D01*
X136128763Y-69081187D01*
X136046964Y-69063997D01*
X135969325Y-69045606D01*
X135895185Y-69025803D01*
X135823881Y-69004377D01*
X135754752Y-68981118D01*
X135687133Y-68955813D01*
X135620365Y-68928254D01*
X135553784Y-68898229D01*
X135486728Y-68865527D01*
X135418534Y-68829938D01*
X135276087Y-68749255D01*
X135175382Y-68687853D01*
X135080824Y-68626680D01*
X134994526Y-68567353D01*
X134918601Y-68511489D01*
X134855162Y-68460704D01*
X134828785Y-68437722D01*
X134806322Y-68416616D01*
X134788036Y-68397589D01*
X134774193Y-68380842D01*
X134765056Y-68366578D01*
X134760889Y-68354998D01*
X134723798Y-68108867D01*
X134709788Y-68004643D01*
X134698947Y-67911051D01*
X134691383Y-67826643D01*
X134687204Y-67749972D01*
X134686518Y-67679590D01*
X134689432Y-67614051D01*
X134696057Y-67551906D01*
X134706498Y-67491710D01*
X134720865Y-67432014D01*
X134739266Y-67371370D01*
X134761809Y-67308333D01*
X134788603Y-67241453D01*
X134855372Y-67090381D01*
X134937496Y-66929261D01*
X135042432Y-66752770D01*
X135167348Y-66564000D01*
X135309410Y-66366044D01*
X135465784Y-66161995D01*
X135633636Y-65954946D01*
X135810135Y-65747990D01*
X135992445Y-65544219D01*
X136177734Y-65346727D01*
X136363169Y-65158606D01*
X136545915Y-64982949D01*
X136723140Y-64822850D01*
X136892009Y-64681400D01*
X137049691Y-64561694D01*
X137193350Y-64466824D01*
X137320154Y-64399882D01*
X137731486Y-64217929D01*
X137681536Y-63866496D01*
X137651731Y-63626484D01*
X137607476Y-63232790D01*
X137554749Y-62740006D01*
X137499529Y-62202723D01*
X137298770Y-60324141D01*
X137212642Y-59621222D01*
X137134102Y-59063475D01*
X137061717Y-58641591D01*
X136994053Y-58346264D01*
X136961543Y-58243150D01*
X136929676Y-58168185D01*
X136898272Y-58120206D01*
X136867152Y-58098048D01*
X136638478Y-58049230D01*
X136157804Y-57960032D01*
X134719857Y-57708330D01*
X133112110Y-57438608D01*
X131893366Y-57246531D01*
X130858950Y-57096728D01*
X130224306Y-57418857D01*
X130016088Y-57523459D01*
X129928460Y-57565733D01*
X129849344Y-57601823D01*
X129776883Y-57632105D01*
X129709220Y-57656955D01*
X129644500Y-57676749D01*
X129580864Y-57691862D01*
X129516457Y-57702671D01*
X129449422Y-57709551D01*
X129377903Y-57712879D01*
X129300042Y-57713029D01*
X129213983Y-57710379D01*
X129117869Y-57705303D01*
X128888052Y-57689380D01*
X128438155Y-57645436D01*
X127941565Y-57578542D01*
X127423666Y-57493839D01*
X126909839Y-57396471D01*
X126425468Y-57291581D01*
X125995937Y-57184312D01*
X125646627Y-57079808D01*
X125509987Y-57030199D01*
X125402922Y-56983210D01*
X125356754Y-56959269D01*
X125308003Y-56932241D01*
X125257085Y-56902426D01*
X125204418Y-56870123D01*
X125095511Y-56799258D01*
X124984622Y-56722047D01*
X124875096Y-56640891D01*
X124770273Y-56558192D01*
X124673495Y-56476351D01*
X124629169Y-56436502D01*
X124588106Y-56397769D01*
X124527604Y-56339982D01*
X124470749Y-56287751D01*
X124416523Y-56240580D01*
X124363906Y-56197973D01*
X124311882Y-56159436D01*
X124259431Y-56124474D01*
X124205536Y-56092590D01*
X124149177Y-56063290D01*
X124089337Y-56036078D01*
X124024998Y-56010459D01*
X123955140Y-55985937D01*
X123878746Y-55962018D01*
X123794798Y-55938206D01*
X123702276Y-55914006D01*
X123600163Y-55888923D01*
X123487440Y-55862460D01*
X123180773Y-55793733D01*
X122877794Y-55729372D01*
X122613441Y-55676590D01*
X122422652Y-55642604D01*
X122077532Y-55588817D01*
X122146940Y-56165271D01*
X122165142Y-56300940D01*
X122190337Y-56465924D01*
X122257155Y-56858405D01*
X122338291Y-57291850D01*
X122424639Y-57715396D01*
X122586745Y-58469589D01*
X122716122Y-59038635D01*
X122773328Y-59264425D01*
X122828101Y-59456766D01*
X122882357Y-59619935D01*
X122938012Y-59758214D01*
X122996984Y-59875880D01*
X123061189Y-59977213D01*
X123132543Y-60066491D01*
X123212962Y-60147994D01*
X123304363Y-60226001D01*
X123408662Y-60304791D01*
X123663622Y-60481837D01*
X125147986Y-61493525D01*
X125370209Y-61647392D01*
X125573290Y-61793658D01*
X125754965Y-61930468D01*
X125912969Y-62055964D01*
X126045036Y-62168290D01*
X126148902Y-62265587D01*
X126189552Y-62308021D01*
X126222303Y-62346000D01*
X126246870Y-62379295D01*
X126262972Y-62407672D01*
X126287168Y-62467116D01*
X126307951Y-62531342D01*
X126325331Y-62599750D01*
X126339317Y-62671742D01*
X126349917Y-62746719D01*
X126357140Y-62824084D01*
X126360995Y-62903236D01*
X126361491Y-62983578D01*
X126358636Y-63064510D01*
X126352439Y-63145435D01*
X126342910Y-63225754D01*
X126330056Y-63304868D01*
X126313886Y-63382178D01*
X126294410Y-63457086D01*
X126271636Y-63528993D01*
X126245573Y-63597300D01*
X126171141Y-63754128D01*
X126073785Y-63925765D01*
X125956449Y-64109007D01*
X125822078Y-64300653D01*
X125673619Y-64497500D01*
X125514017Y-64696345D01*
X125346217Y-64893985D01*
X125173165Y-65087217D01*
X124997805Y-65272839D01*
X124823084Y-65447648D01*
X124651946Y-65608440D01*
X124487338Y-65752014D01*
X124332204Y-65875167D01*
X124189491Y-65974695D01*
X124062142Y-66047396D01*
X124005150Y-66072686D01*
X123953104Y-66090068D01*
X123844445Y-66116378D01*
X123731498Y-66138119D01*
X123614629Y-66155312D01*
X123494202Y-66167977D01*
X123370582Y-66176135D01*
X123244134Y-66179806D01*
X123115221Y-66179010D01*
X122984210Y-66173770D01*
X122851464Y-66164104D01*
X122717348Y-66150034D01*
X122582227Y-66131581D01*
X122446466Y-66108764D01*
X122310429Y-66081604D01*
X122174481Y-66050123D01*
X122038987Y-66014340D01*
X121904311Y-65974276D01*
X121742245Y-65926351D01*
X121534263Y-65869676D01*
X121015001Y-65738462D01*
X120415426Y-65597406D01*
X119804442Y-65463275D01*
X119192147Y-65331529D01*
X118712373Y-65219405D01*
X118516077Y-65168107D01*
X118345587Y-65118604D01*
X118198460Y-65069857D01*
X118072257Y-65020829D01*
X117964534Y-64970484D01*
X117872852Y-64917784D01*
X117794767Y-64861692D01*
X117727840Y-64801170D01*
X117669627Y-64735183D01*
X117617689Y-64662692D01*
X117569583Y-64582661D01*
X117522867Y-64494052D01*
X117480451Y-64394518D01*
X117430899Y-64252572D01*
X117315368Y-63863126D01*
X117186240Y-63369087D01*
X117053476Y-62813827D01*
X116927041Y-62240722D01*
X116816898Y-61693142D01*
X116733009Y-61214462D01*
X116704024Y-61014514D01*
X116685339Y-60848056D01*
X116674169Y-60746103D01*
X116658182Y-60634733D01*
X116638127Y-60517545D01*
X116614752Y-60398141D01*
X116588806Y-60280119D01*
X116561037Y-60167079D01*
X116532193Y-60062622D01*
X116503023Y-59970347D01*
X116420444Y-59698728D01*
X116322502Y-59330062D01*
X116217326Y-58900794D01*
X116113045Y-58447366D01*
X116017786Y-58006220D01*
X115939681Y-57613801D01*
X115886856Y-57306551D01*
X115872464Y-57196253D01*
X115867441Y-57120913D01*
X115866263Y-57071104D01*
X115862563Y-57016944D01*
X115856098Y-56957426D01*
X115846620Y-56891543D01*
X115833884Y-56818287D01*
X115817646Y-56736650D01*
X115797659Y-56645623D01*
X115773677Y-56544201D01*
X115712750Y-56306135D01*
X115632898Y-56014390D01*
X115532159Y-55660903D01*
X115408568Y-55237613D01*
X115364684Y-55085168D01*
X115323744Y-54936437D01*
X115286645Y-54795142D01*
X115254281Y-54665003D01*
X115227549Y-54549741D01*
X115207346Y-54453076D01*
X115194567Y-54378730D01*
X115190108Y-54330424D01*
X115189880Y-54321841D01*
X115189206Y-54313126D01*
X115186559Y-54295365D01*
X115182257Y-54277275D01*
X115176389Y-54258987D01*
X115169043Y-54240634D01*
X115160310Y-54222348D01*
X115150277Y-54204262D01*
X115139035Y-54186507D01*
X115126672Y-54169217D01*
X115113278Y-54152523D01*
X115098942Y-54136558D01*
X115083752Y-54121454D01*
X115067799Y-54107344D01*
X115051170Y-54094360D01*
X115033956Y-54082634D01*
X115016245Y-54072299D01*
X114993756Y-54059353D01*
X114971177Y-54044579D01*
X114948561Y-54028068D01*
X114925960Y-54009911D01*
X114881015Y-53969023D01*
X114836762Y-53922644D01*
X114793624Y-53871501D01*
X114752021Y-53816321D01*
X114712375Y-53757834D01*
X114675106Y-53696767D01*
X114640636Y-53633847D01*
X114609387Y-53569803D01*
X114581778Y-53505362D01*
X114558231Y-53441252D01*
X114539168Y-53378202D01*
X114525009Y-53316939D01*
X114519901Y-53287205D01*
X114516176Y-53258191D01*
X114513889Y-53229987D01*
X114513090Y-53202685D01*
X114513758Y-53177184D01*
X114515779Y-53149743D01*
X114519086Y-53120618D01*
X114523610Y-53090063D01*
X114529281Y-53058334D01*
X114536030Y-53025685D01*
X114543788Y-52992374D01*
X114552487Y-52958653D01*
X114562058Y-52924780D01*
X114572430Y-52891008D01*
X114583536Y-52857594D01*
X114595307Y-52824792D01*
X114607673Y-52792858D01*
X114620566Y-52762047D01*
X114633915Y-52732614D01*
X114647654Y-52704814D01*
X114669115Y-52662592D01*
X114687731Y-52624044D01*
X114703505Y-52588577D01*
X114716443Y-52555595D01*
X114726549Y-52524506D01*
X114730541Y-52509486D01*
X114733828Y-52494715D01*
X114736408Y-52480121D01*
X114738284Y-52465629D01*
X114739455Y-52451164D01*
X114739922Y-52436652D01*
X114739686Y-52422019D01*
X114738748Y-52407192D01*
X114737107Y-52392094D01*
X114734765Y-52376653D01*
X114731722Y-52360794D01*
X114727978Y-52344443D01*
X114718393Y-52309967D01*
X114706013Y-52272631D01*
X114690844Y-52231841D01*
X114672890Y-52187003D01*
X114652155Y-52137523D01*
X114622068Y-52063399D01*
X114586463Y-51969966D01*
X114546657Y-51861004D01*
X114503968Y-51740295D01*
X114415217Y-51478760D01*
X114371791Y-51345496D01*
X114330756Y-51215609D01*
X114268396Y-51019076D01*
X114240666Y-50937458D01*
X114214154Y-50865466D01*
X114188051Y-50801992D01*
X114161545Y-50745931D01*
X114133825Y-50696178D01*
X114104080Y-50651625D01*
X114071501Y-50611166D01*
X114035274Y-50573697D01*
X113994591Y-50538110D01*
X113948639Y-50503299D01*
X113896609Y-50468160D01*
X113837689Y-50431585D01*
X113695936Y-50349704D01*
X113598194Y-50290767D01*
X113505116Y-50227061D01*
X113416935Y-50158933D01*
X113333881Y-50086732D01*
X113256186Y-50010808D01*
X113184080Y-49931509D01*
X113117795Y-49849183D01*
X113057562Y-49764180D01*
X113003611Y-49676848D01*
X112956174Y-49587537D01*
X112915482Y-49496594D01*
X112897738Y-49450620D01*
X112881766Y-49404369D01*
X112867597Y-49357884D01*
X112855258Y-49311210D01*
X112844778Y-49264390D01*
X112836187Y-49217466D01*
X112829513Y-49170484D01*
X112824785Y-49123487D01*
X112822032Y-49076518D01*
X112821284Y-49029620D01*
X112824821Y-48914977D01*
X112834871Y-48806091D01*
X112842699Y-48753314D01*
X112852588Y-48701385D01*
X112864683Y-48650107D01*
X112879128Y-48599283D01*
X112896068Y-48548717D01*
X112915646Y-48498211D01*
X112938007Y-48447568D01*
X112963295Y-48396592D01*
X112991655Y-48345086D01*
X113023231Y-48292852D01*
X113058168Y-48239694D01*
X113096610Y-48185414D01*
X113138701Y-48129816D01*
X113184585Y-48072703D01*
X113288312Y-47953144D01*
X113408945Y-47825160D01*
X113547640Y-47687177D01*
X113705551Y-47537618D01*
X113883834Y-47374908D01*
X114083642Y-47197472D01*
X114306132Y-47003734D01*
X115248160Y-46184693D01*
X115622538Y-45855823D01*
X115864321Y-45640368D01*
X115986761Y-45530482D01*
X116098617Y-45433601D01*
X116201980Y-45349127D01*
X116298944Y-45276460D01*
X116345680Y-45244366D01*
X116391600Y-45214999D01*
X116436966Y-45188284D01*
X116482040Y-45164146D01*
X116527083Y-45142510D01*
X116572357Y-45123300D01*
X116618123Y-45106443D01*
X116664643Y-45091863D01*
X116712178Y-45079484D01*
X116760990Y-45069233D01*
X116811341Y-45061034D01*
X116863491Y-45054812D01*
X116917703Y-45050492D01*
X116974238Y-45048000D01*
X117033357Y-45047260D01*
X117095322Y-45048197D01*
X117228837Y-45054803D01*
X117376875Y-45067219D01*
X117541527Y-45084845D01*
X117724886Y-45107081D01*
X118092130Y-45151700D01*
X118431031Y-45189995D01*
X118703910Y-45217888D01*
X118873091Y-45231303D01*
X118926707Y-45234648D01*
X118981736Y-45239717D01*
X119036617Y-45246258D01*
X119089785Y-45254021D01*
X119139680Y-45262755D01*
X119184737Y-45272211D01*
X119223396Y-45282138D01*
X119239836Y-45287199D01*
X119254092Y-45292285D01*
X119404024Y-45324929D01*
X119714479Y-45376915D01*
X120618880Y-45510993D01*
X121571136Y-45638667D01*
X121941412Y-45682651D01*
X122175093Y-45704089D01*
X122257442Y-45692692D01*
X122391008Y-45655044D01*
X122781373Y-45514578D01*
X123285354Y-45309853D01*
X123842118Y-45068032D01*
X124390831Y-44816277D01*
X124870658Y-44581750D01*
X125065729Y-44479435D01*
X125220766Y-44391613D01*
X125328164Y-44321679D01*
X125380320Y-44273028D01*
X125384608Y-44266539D01*
X125389969Y-44259629D01*
X125403781Y-44244627D01*
X125421495Y-44228184D01*
X125442849Y-44210463D01*
X125467585Y-44191626D01*
X125495441Y-44171833D01*
X125526157Y-44151249D01*
X125559472Y-44130033D01*
X125595127Y-44108349D01*
X125632860Y-44086359D01*
X125672410Y-44064224D01*
X125713519Y-44042106D01*
X125755924Y-44020168D01*
X125799367Y-43998571D01*
X125843585Y-43977477D01*
X125888319Y-43957049D01*
X125933994Y-43935850D01*
X125980974Y-43912495D01*
X126028905Y-43887221D01*
X126077434Y-43860268D01*
X126174872Y-43802274D01*
X126270461Y-43740418D01*
X126361372Y-43676606D01*
X126404189Y-43644562D01*
X126444777Y-43612744D01*
X126482782Y-43581389D01*
X126517850Y-43550736D01*
X126549627Y-43521023D01*
X126577761Y-43492488D01*
X126669812Y-43398076D01*
X126714792Y-43354910D01*
X126759370Y-43314382D01*
X126803768Y-43276448D01*
X126848208Y-43241067D01*
X126892911Y-43208195D01*
X126938099Y-43177791D01*
X126983993Y-43149813D01*
X127030816Y-43124217D01*
X127078789Y-43100961D01*
X127128133Y-43080004D01*
X127179071Y-43061302D01*
X127231824Y-43044813D01*
X127286614Y-43030495D01*
X127343662Y-43018306D01*
X127403190Y-43008202D01*
X127465420Y-43000142D01*
X127530574Y-42994084D01*
X127598872Y-42989984D01*
X127670538Y-42987801D01*
X127745792Y-42987492D01*
X127824856Y-42989015D01*
G37*
%TD.AperFunction*%
%TA.AperFunction,NonConductor*%
G36*
X103361375Y-86018343D02*
G01*
X103369404Y-86028250D01*
X103377207Y-86038595D01*
X103384743Y-86049294D01*
X103391972Y-86060263D01*
X103398855Y-86071418D01*
X103405350Y-86082675D01*
X103411418Y-86093951D01*
X103417018Y-86105160D01*
X103422110Y-86116220D01*
X103426653Y-86127046D01*
X103430609Y-86137555D01*
X103433935Y-86147662D01*
X103436592Y-86157284D01*
X103438540Y-86166336D01*
X103439738Y-86174735D01*
X103440147Y-86182396D01*
X103440147Y-86252779D01*
X103782457Y-86165498D01*
X103879011Y-86141684D01*
X103967382Y-86121703D01*
X104047997Y-86105614D01*
X104121283Y-86093475D01*
X104187666Y-86085347D01*
X104247573Y-86081288D01*
X104301431Y-86081359D01*
X104349668Y-86085619D01*
X104392708Y-86094127D01*
X104430980Y-86106942D01*
X104448462Y-86114984D01*
X104464911Y-86124125D01*
X104480381Y-86134373D01*
X104494926Y-86145734D01*
X104521453Y-86171830D01*
X104544919Y-86202471D01*
X104565750Y-86237717D01*
X104584373Y-86277627D01*
X104593689Y-86301165D01*
X104601891Y-86324482D01*
X104608988Y-86347554D01*
X104614989Y-86370359D01*
X104619904Y-86392876D01*
X104623740Y-86415081D01*
X104626507Y-86436951D01*
X104628213Y-86458466D01*
X104628868Y-86479601D01*
X104628480Y-86500335D01*
X104627059Y-86520644D01*
X104624612Y-86540508D01*
X104621150Y-86559902D01*
X104616681Y-86578805D01*
X104611213Y-86597195D01*
X104604756Y-86615048D01*
X104597319Y-86632342D01*
X104588910Y-86649055D01*
X104579538Y-86665164D01*
X104569213Y-86680647D01*
X104557942Y-86695482D01*
X104545736Y-86709645D01*
X104532602Y-86723115D01*
X104518551Y-86735869D01*
X104503589Y-86747884D01*
X104487728Y-86759138D01*
X104470974Y-86769609D01*
X104453338Y-86779274D01*
X104434828Y-86788110D01*
X104415453Y-86796096D01*
X104395222Y-86803208D01*
X104374144Y-86809425D01*
X104290690Y-86832238D01*
X104256684Y-86842406D01*
X104227220Y-86852344D01*
X104201844Y-86862499D01*
X104190548Y-86867799D01*
X104180103Y-86873321D01*
X104170454Y-86879121D01*
X104161544Y-86885255D01*
X104153316Y-86891779D01*
X104145713Y-86898749D01*
X104138678Y-86906220D01*
X104132156Y-86914250D01*
X104126088Y-86922894D01*
X104120419Y-86932207D01*
X104115092Y-86942246D01*
X104110050Y-86953066D01*
X104100594Y-86977275D01*
X104091598Y-87005282D01*
X104082608Y-87037533D01*
X104062832Y-87116560D01*
X104052493Y-87156144D01*
X104041239Y-87193883D01*
X104029024Y-87229795D01*
X104015803Y-87263903D01*
X104001531Y-87296226D01*
X103986161Y-87326784D01*
X103969650Y-87355598D01*
X103951951Y-87382689D01*
X103933019Y-87408075D01*
X103912809Y-87431779D01*
X103891274Y-87453819D01*
X103868370Y-87474217D01*
X103844052Y-87492992D01*
X103818273Y-87510165D01*
X103790988Y-87525757D01*
X103762153Y-87539787D01*
X103731721Y-87552276D01*
X103699647Y-87563244D01*
X103665886Y-87572711D01*
X103630392Y-87580699D01*
X103593120Y-87587226D01*
X103554024Y-87592314D01*
X103513059Y-87595983D01*
X103470180Y-87598252D01*
X103425341Y-87599143D01*
X103378496Y-87598675D01*
X103329601Y-87596870D01*
X103278610Y-87593747D01*
X103170157Y-87583628D01*
X103052774Y-87568482D01*
X102552045Y-87496150D01*
X102478817Y-87486247D01*
X102412087Y-87478691D01*
X102351461Y-87473468D01*
X102296543Y-87470566D01*
X102246938Y-87469970D01*
X102202253Y-87471666D01*
X102181631Y-87473370D01*
X102162091Y-87475642D01*
X102143584Y-87478481D01*
X102126059Y-87481884D01*
X101873163Y-87537089D01*
X101282577Y-87677186D01*
X100611757Y-87849340D01*
X100052119Y-88002884D01*
X99873811Y-88056845D01*
X99795079Y-88087154D01*
X99787458Y-88092811D01*
X99779058Y-88098507D01*
X99769965Y-88104202D01*
X99760265Y-88109859D01*
X99750043Y-88115441D01*
X99739385Y-88120908D01*
X99728377Y-88126224D01*
X99717105Y-88131350D01*
X99705655Y-88136248D01*
X99694112Y-88140880D01*
X99682563Y-88145210D01*
X99671094Y-88149197D01*
X99659789Y-88152806D01*
X99648736Y-88155997D01*
X99638020Y-88158733D01*
X99627727Y-88160976D01*
X99606601Y-88165363D01*
X99583889Y-88170622D01*
X99560304Y-88176545D01*
X99536558Y-88182929D01*
X99513364Y-88189565D01*
X99491432Y-88196249D01*
X99471476Y-88202774D01*
X99454208Y-88208934D01*
X99432089Y-88216216D01*
X99398252Y-88225885D01*
X99354379Y-88237526D01*
X99302155Y-88250722D01*
X99243265Y-88265054D01*
X99179392Y-88280108D01*
X99112221Y-88295466D01*
X99043436Y-88310710D01*
X98596266Y-88414723D01*
X98026918Y-88554411D01*
X97515685Y-88684729D01*
X97338202Y-88732297D01*
X97242858Y-88760631D01*
X97230510Y-88765431D01*
X97218639Y-88770789D01*
X97207228Y-88776725D01*
X97196257Y-88783257D01*
X97185708Y-88790405D01*
X97175563Y-88798188D01*
X97165803Y-88806625D01*
X97156409Y-88815735D01*
X97147362Y-88825537D01*
X97138646Y-88836050D01*
X97130239Y-88847294D01*
X97122125Y-88859287D01*
X97114285Y-88872049D01*
X97106700Y-88885598D01*
X97099351Y-88899955D01*
X97092221Y-88915138D01*
X97086322Y-88927575D01*
X97079798Y-88940162D01*
X97072717Y-88952810D01*
X97065146Y-88965433D01*
X97057153Y-88977945D01*
X97048805Y-88990259D01*
X97040170Y-89002289D01*
X97031315Y-89013948D01*
X97022308Y-89025150D01*
X97013217Y-89035808D01*
X97004110Y-89045835D01*
X96995053Y-89055146D01*
X96986114Y-89063653D01*
X96977361Y-89071271D01*
X96968862Y-89077911D01*
X96960684Y-89083489D01*
X96943365Y-89094681D01*
X96923853Y-89107839D01*
X96902814Y-89122481D01*
X96880916Y-89138126D01*
X96858824Y-89154291D01*
X96837207Y-89170496D01*
X96816730Y-89186257D01*
X96798061Y-89201093D01*
X96788780Y-89208288D01*
X96778559Y-89215603D01*
X96767503Y-89222987D01*
X96755714Y-89230389D01*
X96743298Y-89237757D01*
X96730358Y-89245040D01*
X96716999Y-89252186D01*
X96703324Y-89259143D01*
X96689437Y-89265861D01*
X96675443Y-89272286D01*
X96661445Y-89278369D01*
X96647548Y-89284058D01*
X96633855Y-89289300D01*
X96620471Y-89294044D01*
X96607499Y-89298240D01*
X96595044Y-89301834D01*
X96477080Y-89333578D01*
X96459717Y-89523215D01*
X96429242Y-90013333D01*
X96382264Y-90885183D01*
X96339146Y-91747126D01*
X96320249Y-92207525D01*
X96320249Y-92326708D01*
X96438827Y-92210929D01*
X96456148Y-92194403D01*
X96472950Y-92179181D01*
X96489405Y-92165178D01*
X96505688Y-92152306D01*
X96521971Y-92140480D01*
X96538429Y-92129612D01*
X96555234Y-92119616D01*
X96572559Y-92110406D01*
X96590579Y-92101894D01*
X96609465Y-92093995D01*
X96629393Y-92086622D01*
X96650535Y-92079688D01*
X96673064Y-92073107D01*
X96697154Y-92066792D01*
X96722978Y-92060657D01*
X96750709Y-92054615D01*
X97159714Y-91957470D01*
X97878340Y-91780190D01*
X98613562Y-91595702D01*
X99072354Y-91476930D01*
X99094486Y-91471060D01*
X99116551Y-91465695D01*
X99138527Y-91460838D01*
X99160396Y-91456491D01*
X99182137Y-91452656D01*
X99203729Y-91449335D01*
X99225152Y-91446530D01*
X99246387Y-91444244D01*
X99267413Y-91442477D01*
X99288209Y-91441233D01*
X99308757Y-91440514D01*
X99329035Y-91440321D01*
X99349023Y-91440656D01*
X99368701Y-91441522D01*
X99388050Y-91442920D01*
X99407048Y-91444853D01*
X99439783Y-91448456D01*
X99473924Y-91451486D01*
X99508465Y-91453919D01*
X99542403Y-91455733D01*
X99574732Y-91456905D01*
X99604448Y-91457414D01*
X99630546Y-91457235D01*
X99652022Y-91456347D01*
X99675382Y-91455109D01*
X99706931Y-91454007D01*
X99789031Y-91452318D01*
X99887204Y-91451493D01*
X99990331Y-91451749D01*
X100062209Y-91453209D01*
X100093762Y-91454490D01*
X100122810Y-91456230D01*
X100149669Y-91458496D01*
X100174655Y-91461358D01*
X100198083Y-91464884D01*
X100220268Y-91469141D01*
X100241526Y-91474200D01*
X100262172Y-91480127D01*
X100282522Y-91486991D01*
X100302891Y-91494862D01*
X100323594Y-91503806D01*
X100344947Y-91513893D01*
X100367265Y-91525191D01*
X100390864Y-91537768D01*
X100544353Y-91621365D01*
X100950141Y-91523607D01*
X102010142Y-91263330D01*
X102770802Y-91069212D01*
X102820058Y-91056708D01*
X102872613Y-91044983D01*
X102926844Y-91034297D01*
X102981127Y-91024913D01*
X103033842Y-91017091D01*
X103083364Y-91011094D01*
X103128072Y-91007183D01*
X103166342Y-91005619D01*
X103187485Y-91004654D01*
X103214261Y-91002109D01*
X103283441Y-90992540D01*
X103371349Y-90977424D01*
X103475450Y-90957273D01*
X103593210Y-90932601D01*
X103722093Y-90903921D01*
X103859565Y-90871744D01*
X104003091Y-90836583D01*
X104529475Y-90705728D01*
X104855045Y-90626556D01*
X105108659Y-90566923D01*
X105307913Y-90517701D01*
X105461645Y-90475652D01*
X105524202Y-90456308D01*
X105578691Y-90437544D01*
X105626218Y-90418956D01*
X105667887Y-90400140D01*
X105704803Y-90380692D01*
X105738070Y-90360207D01*
X105768793Y-90338281D01*
X105798076Y-90314509D01*
X105856742Y-90259811D01*
X105889032Y-90226946D01*
X105921574Y-90192112D01*
X105953483Y-90156370D01*
X105983874Y-90120781D01*
X106011862Y-90086406D01*
X106036560Y-90054306D01*
X106057085Y-90025543D01*
X106065506Y-90012744D01*
X106072551Y-90001177D01*
X106080213Y-89988795D01*
X106088836Y-89976403D01*
X106098381Y-89964023D01*
X106108808Y-89951676D01*
X106132152Y-89927170D01*
X106158558Y-89903057D01*
X106187713Y-89879512D01*
X106219305Y-89856709D01*
X106253021Y-89834820D01*
X106288550Y-89814020D01*
X106325578Y-89794483D01*
X106363795Y-89776382D01*
X106402886Y-89759890D01*
X106442541Y-89745182D01*
X106482448Y-89732431D01*
X106522292Y-89721811D01*
X106561764Y-89713495D01*
X106600550Y-89707658D01*
X106626578Y-89704649D01*
X106649736Y-89702296D01*
X106670449Y-89700778D01*
X106689141Y-89700272D01*
X106697862Y-89700455D01*
X106706237Y-89700958D01*
X106714319Y-89701804D01*
X106722161Y-89703015D01*
X106729816Y-89704613D01*
X106737337Y-89706621D01*
X106744778Y-89709061D01*
X106752191Y-89711955D01*
X106759629Y-89715325D01*
X106767145Y-89719195D01*
X106774794Y-89723586D01*
X106782626Y-89728520D01*
X106790696Y-89734020D01*
X106799057Y-89740109D01*
X106816864Y-89754140D01*
X106836469Y-89770793D01*
X106858298Y-89790246D01*
X106910326Y-89838265D01*
X106943024Y-89869714D01*
X106974866Y-89902202D01*
X107005059Y-89934792D01*
X107032811Y-89966549D01*
X107057329Y-89996536D01*
X107068128Y-90010574D01*
X107077822Y-90023818D01*
X107086311Y-90036152D01*
X107093496Y-90047459D01*
X107099279Y-90057622D01*
X107103561Y-90066524D01*
X107137489Y-90146330D01*
X107487195Y-90060084D01*
X107628987Y-90026618D01*
X107756526Y-89999178D01*
X107810585Y-89988604D01*
X107855843Y-89980599D01*
X107890554Y-89975518D01*
X107912970Y-89973715D01*
X107930536Y-89974197D01*
X107947829Y-89975687D01*
X107964831Y-89978163D01*
X107981523Y-89981603D01*
X107997887Y-89985983D01*
X108013904Y-89991282D01*
X108029555Y-89997476D01*
X108044822Y-90004544D01*
X108059686Y-90012463D01*
X108074129Y-90021209D01*
X108088131Y-90030762D01*
X108101675Y-90041098D01*
X108114741Y-90052194D01*
X108127311Y-90064029D01*
X108139366Y-90076579D01*
X108150887Y-90089823D01*
X108161857Y-90103737D01*
X108172256Y-90118299D01*
X108182065Y-90133487D01*
X108191267Y-90149279D01*
X108199841Y-90165651D01*
X108207771Y-90182581D01*
X108215036Y-90200046D01*
X108221619Y-90218025D01*
X108227501Y-90236494D01*
X108232663Y-90255432D01*
X108237086Y-90274815D01*
X108240752Y-90294621D01*
X108243642Y-90314827D01*
X108245738Y-90335412D01*
X108247021Y-90356352D01*
X108247472Y-90377625D01*
X108247321Y-90400328D01*
X108246746Y-90421100D01*
X108245662Y-90440147D01*
X108243986Y-90457681D01*
X108241633Y-90473908D01*
X108238519Y-90489039D01*
X108234559Y-90503281D01*
X108229669Y-90516844D01*
X108223766Y-90529935D01*
X108216763Y-90542765D01*
X108208578Y-90555541D01*
X108199126Y-90568472D01*
X108188322Y-90581767D01*
X108176082Y-90595635D01*
X108162323Y-90610285D01*
X108146959Y-90625924D01*
X108136057Y-90636361D01*
X108124216Y-90646841D01*
X108111549Y-90657293D01*
X108098171Y-90667651D01*
X108084196Y-90677845D01*
X108069738Y-90687807D01*
X108054913Y-90697468D01*
X108039833Y-90706761D01*
X108024614Y-90715617D01*
X108009369Y-90723967D01*
X107994213Y-90731744D01*
X107979261Y-90738877D01*
X107964626Y-90745300D01*
X107950423Y-90750944D01*
X107936767Y-90755740D01*
X107923771Y-90759619D01*
X107801315Y-90792626D01*
X107745654Y-91036433D01*
X107732265Y-91092981D01*
X107718999Y-91144692D01*
X107705712Y-91191796D01*
X107692261Y-91234527D01*
X107678503Y-91273116D01*
X107664292Y-91307797D01*
X107649487Y-91338802D01*
X107633944Y-91366363D01*
X107617518Y-91390713D01*
X107600067Y-91412084D01*
X107581447Y-91430709D01*
X107561514Y-91446820D01*
X107540125Y-91460649D01*
X107517137Y-91472430D01*
X107492405Y-91482395D01*
X107465787Y-91490775D01*
X107431433Y-91498839D01*
X107391468Y-91505659D01*
X107346648Y-91511247D01*
X107297727Y-91515618D01*
X107245459Y-91518782D01*
X107190600Y-91520752D01*
X107076126Y-91521161D01*
X106960341Y-91516945D01*
X106903844Y-91513134D01*
X106849282Y-91508204D01*
X106797412Y-91502168D01*
X106748987Y-91495037D01*
X106704763Y-91486825D01*
X106665493Y-91477544D01*
X106629093Y-91468498D01*
X106589728Y-91460027D01*
X106548647Y-91452319D01*
X106507099Y-91445562D01*
X106466333Y-91439942D01*
X106427600Y-91435647D01*
X106392148Y-91432864D01*
X106361227Y-91431780D01*
X106330047Y-91430749D01*
X106293867Y-91428116D01*
X106253986Y-91424058D01*
X106211700Y-91418756D01*
X106168310Y-91412385D01*
X106125112Y-91405125D01*
X106083407Y-91397153D01*
X106044492Y-91388648D01*
X106002380Y-91379425D01*
X105963248Y-91372291D01*
X105944856Y-91369510D01*
X105927276Y-91367254D01*
X105910530Y-91365525D01*
X105894641Y-91364323D01*
X105879632Y-91363650D01*
X105865524Y-91363506D01*
X105852341Y-91363893D01*
X105840104Y-91364811D01*
X105828837Y-91366262D01*
X105818561Y-91368246D01*
X105809298Y-91370766D01*
X105801072Y-91373821D01*
X105768738Y-91384021D01*
X105700756Y-91402613D01*
X105474615Y-91460751D01*
X105156189Y-91539789D01*
X104779020Y-91631279D01*
X104169705Y-91779249D01*
X103959663Y-91832520D01*
X103797944Y-91876141D01*
X103673487Y-91913231D01*
X103575225Y-91946911D01*
X103492096Y-91980301D01*
X103413036Y-92016519D01*
X103394671Y-92024210D01*
X103367495Y-92033990D01*
X103288862Y-92059219D01*
X103181443Y-92091014D01*
X103049546Y-92128183D01*
X102897476Y-92169535D01*
X102729541Y-92213876D01*
X102550047Y-92260014D01*
X102363303Y-92306757D01*
X101120949Y-92613805D01*
X101024518Y-92638203D01*
X100948127Y-92658966D01*
X100916616Y-92668355D01*
X100889119Y-92677280D01*
X100865301Y-92685888D01*
X100844832Y-92694328D01*
X100827379Y-92702749D01*
X100812609Y-92711297D01*
X100800190Y-92720122D01*
X100789790Y-92729371D01*
X100781075Y-92739193D01*
X100773714Y-92749736D01*
X100767375Y-92761147D01*
X100761724Y-92773576D01*
X100755397Y-92787625D01*
X100748027Y-92802001D01*
X100730332Y-92831586D01*
X100708990Y-92862033D01*
X100684352Y-92893042D01*
X100656769Y-92924315D01*
X100626594Y-92955553D01*
X100594177Y-92986458D01*
X100559870Y-93016731D01*
X100524025Y-93046073D01*
X100486993Y-93074187D01*
X100449125Y-93100772D01*
X100410773Y-93125532D01*
X100372289Y-93148166D01*
X100334023Y-93168377D01*
X100296328Y-93185866D01*
X100259555Y-93200333D01*
X100220199Y-93213840D01*
X100182436Y-93225737D01*
X100145878Y-93236044D01*
X100110138Y-93244783D01*
X100074829Y-93251975D01*
X100039562Y-93257641D01*
X100003950Y-93261801D01*
X99967606Y-93264477D01*
X99930141Y-93265689D01*
X99891169Y-93265458D01*
X99850302Y-93263806D01*
X99807153Y-93260753D01*
X99761333Y-93256321D01*
X99712455Y-93250530D01*
X99660132Y-93243401D01*
X99603976Y-93234955D01*
X99551768Y-93227526D01*
X99501204Y-93221808D01*
X99452943Y-93217823D01*
X99407646Y-93215591D01*
X99365972Y-93215132D01*
X99328580Y-93216467D01*
X99311696Y-93217814D01*
X99296130Y-93219617D01*
X99281965Y-93221879D01*
X99269282Y-93224602D01*
X99215341Y-93237597D01*
X99145435Y-93253966D01*
X98993846Y-93288422D01*
X98965003Y-93294981D01*
X98939211Y-93301275D01*
X98916084Y-93307599D01*
X98895233Y-93314253D01*
X98876271Y-93321532D01*
X98867377Y-93325499D01*
X98858810Y-93329734D01*
X98850521Y-93334275D01*
X98842462Y-93339157D01*
X98834585Y-93344419D01*
X98826840Y-93350098D01*
X98819180Y-93356230D01*
X98811556Y-93362854D01*
X98803919Y-93370005D01*
X98796222Y-93377721D01*
X98780451Y-93394999D01*
X98763854Y-93414982D01*
X98746045Y-93437970D01*
X98726635Y-93464259D01*
X98681464Y-93527930D01*
X98616128Y-93622921D01*
X98542416Y-93732713D01*
X98469375Y-93843705D01*
X98406054Y-93942299D01*
X98346000Y-94035764D01*
X98281872Y-94132791D01*
X98221339Y-94221916D01*
X98172074Y-94291672D01*
X98154683Y-94316877D01*
X98137603Y-94344338D01*
X98120946Y-94373743D01*
X98104823Y-94404778D01*
X98089346Y-94437129D01*
X98074628Y-94470483D01*
X98060780Y-94504526D01*
X98047915Y-94538946D01*
X98036144Y-94573429D01*
X98025579Y-94607660D01*
X98016332Y-94641328D01*
X98008516Y-94674118D01*
X98002241Y-94705717D01*
X97997621Y-94735812D01*
X97994767Y-94764089D01*
X97993790Y-94790234D01*
X97993846Y-94795245D01*
X97994041Y-94799954D01*
X97994414Y-94804367D01*
X97995004Y-94808490D01*
X97995851Y-94812328D01*
X97996994Y-94815888D01*
X97998473Y-94819176D01*
X97999351Y-94820719D01*
X98000328Y-94822197D01*
X98001408Y-94823609D01*
X98002597Y-94824957D01*
X98003900Y-94826242D01*
X98005321Y-94827463D01*
X98006865Y-94828622D01*
X98008538Y-94829720D01*
X98010344Y-94830757D01*
X98012288Y-94831734D01*
X98016611Y-94833512D01*
X98021546Y-94835058D01*
X98027132Y-94836379D01*
X98033410Y-94837481D01*
X98040417Y-94838370D01*
X98048195Y-94839052D01*
X98056782Y-94839532D01*
X98066218Y-94839816D01*
X98076543Y-94839911D01*
X98087795Y-94839823D01*
X98100014Y-94839556D01*
X98113240Y-94839118D01*
X98142869Y-94837750D01*
X98176999Y-94835766D01*
X98215945Y-94833213D01*
X98260023Y-94830138D01*
X98689374Y-94802867D01*
X99347781Y-94763790D01*
X99619407Y-94746956D01*
X99861968Y-94729152D01*
X100085152Y-94709224D01*
X100298646Y-94686017D01*
X100512137Y-94658378D01*
X100735315Y-94625151D01*
X100977866Y-94585184D01*
X101249477Y-94537321D01*
X102025371Y-94398554D01*
X102618690Y-94292988D01*
X103394584Y-94156941D01*
X104185692Y-94018263D01*
X106247123Y-93654167D01*
X107326568Y-93464412D01*
X107797586Y-93378126D01*
X107824255Y-93372906D01*
X107848413Y-93367777D01*
X107870261Y-93362620D01*
X107890002Y-93357320D01*
X107907839Y-93351759D01*
X107923975Y-93345819D01*
X107938612Y-93339385D01*
X107951953Y-93332338D01*
X107964201Y-93324561D01*
X107975558Y-93315938D01*
X107986226Y-93306352D01*
X107996409Y-93295685D01*
X108006309Y-93283820D01*
X108016129Y-93270640D01*
X108026071Y-93256029D01*
X108036339Y-93239868D01*
X108056338Y-93208854D01*
X108066236Y-93194629D01*
X108076142Y-93181236D01*
X108086113Y-93168658D01*
X108096206Y-93156878D01*
X108106477Y-93145878D01*
X108116984Y-93135643D01*
X108127783Y-93126154D01*
X108138932Y-93117395D01*
X108150486Y-93109350D01*
X108162503Y-93102000D01*
X108175040Y-93095329D01*
X108188153Y-93089320D01*
X108201900Y-93083956D01*
X108216337Y-93079220D01*
X108231520Y-93075095D01*
X108247508Y-93071564D01*
X108264356Y-93068609D01*
X108282121Y-93066215D01*
X108300861Y-93064364D01*
X108320631Y-93063038D01*
X108341490Y-93062222D01*
X108363494Y-93061898D01*
X108386699Y-93062048D01*
X108411162Y-93062657D01*
X108464092Y-93065180D01*
X108522737Y-93069331D01*
X108587553Y-93074973D01*
X108860255Y-93105073D01*
X109174359Y-93147576D01*
X109515075Y-93199878D01*
X109867614Y-93259379D01*
X110217187Y-93323475D01*
X110549007Y-93389564D01*
X110848284Y-93455045D01*
X111100230Y-93517313D01*
X111112104Y-93520700D01*
X111117488Y-93522524D01*
X111122519Y-93524550D01*
X111127209Y-93526866D01*
X111131570Y-93529557D01*
X111133631Y-93531071D01*
X111135614Y-93532711D01*
X111137520Y-93534488D01*
X111139352Y-93536413D01*
X111141111Y-93538497D01*
X111142798Y-93540751D01*
X111144415Y-93543186D01*
X111145963Y-93545812D01*
X111147443Y-93548640D01*
X111148858Y-93551681D01*
X111150208Y-93554945D01*
X111151496Y-93558445D01*
X111153889Y-93566191D01*
X111156048Y-93575006D01*
X111157987Y-93584976D01*
X111159715Y-93596188D01*
X111161247Y-93608728D01*
X111162592Y-93622683D01*
X111163765Y-93638140D01*
X111164775Y-93655184D01*
X111165637Y-93673904D01*
X111166360Y-93694385D01*
X111166958Y-93716714D01*
X111167442Y-93740977D01*
X111168117Y-93795654D01*
X111168481Y-93859109D01*
X111168657Y-94015122D01*
X111168233Y-94190275D01*
X111167199Y-94261577D01*
X111165168Y-94323319D01*
X111161802Y-94376466D01*
X111156766Y-94421986D01*
X111149722Y-94460846D01*
X111140335Y-94494011D01*
X111134657Y-94508761D01*
X111128267Y-94522449D01*
X111121122Y-94535197D01*
X111113181Y-94547126D01*
X111094742Y-94569010D01*
X111072612Y-94589066D01*
X111046454Y-94608261D01*
X111015932Y-94627562D01*
X110940450Y-94670349D01*
X110885778Y-94701731D01*
X110804458Y-94749774D01*
X110707461Y-94807944D01*
X110605756Y-94869708D01*
X110498036Y-94934627D01*
X110384682Y-95001348D01*
X110279172Y-95062037D01*
X110194984Y-95108864D01*
X109799426Y-95323787D01*
X109405430Y-95528455D01*
X108874104Y-95793701D01*
X108385405Y-96030885D01*
X108213276Y-96111253D01*
X108119286Y-96151367D01*
X108100905Y-96157502D01*
X108083928Y-96162685D01*
X108068041Y-96166876D01*
X108052924Y-96170033D01*
X108038262Y-96172115D01*
X108031002Y-96172741D01*
X108023736Y-96173082D01*
X108016426Y-96173134D01*
X108009031Y-96172892D01*
X108001512Y-96172351D01*
X107993830Y-96171505D01*
X107985943Y-96170350D01*
X107977814Y-96168880D01*
X107960667Y-96164974D01*
X107942073Y-96159749D01*
X107921713Y-96153161D01*
X107899271Y-96145171D01*
X107874430Y-96135738D01*
X107846873Y-96124820D01*
X107816283Y-96112376D01*
X107767423Y-96093075D01*
X107745117Y-96084872D01*
X107724132Y-96077616D01*
X107704395Y-96071293D01*
X107685834Y-96065888D01*
X107668377Y-96061388D01*
X107651953Y-96057777D01*
X107636489Y-96055043D01*
X107621913Y-96053170D01*
X107608153Y-96052145D01*
X107595137Y-96051954D01*
X107582794Y-96052582D01*
X107571051Y-96054016D01*
X107559836Y-96056241D01*
X107549077Y-96059242D01*
X106874152Y-96288984D01*
X106087308Y-96560946D01*
X105987900Y-96595406D01*
X105885924Y-96629715D01*
X105793360Y-96659878D01*
X105722187Y-96681902D01*
X105594589Y-96723082D01*
X105348405Y-96805367D01*
X104642026Y-97045488D01*
X103935647Y-97286088D01*
X103561866Y-97410741D01*
X103121047Y-97557216D01*
X102253498Y-97850327D01*
X98845665Y-99000783D01*
X98772087Y-99024832D01*
X98672987Y-99058006D01*
X98450107Y-99134232D01*
X98000395Y-99286892D01*
X97282349Y-99527966D01*
X96624375Y-99751187D01*
X96411840Y-99825713D01*
X96319082Y-99860949D01*
X96314865Y-99863343D01*
X96311068Y-99865797D01*
X96307709Y-99868340D01*
X96304807Y-99870998D01*
X96303533Y-99872379D01*
X96302381Y-99873799D01*
X96301352Y-99875262D01*
X96300449Y-99876770D01*
X96299674Y-99878328D01*
X96299030Y-99879939D01*
X96298518Y-99881606D01*
X96298142Y-99883332D01*
X96297904Y-99885122D01*
X96297805Y-99886977D01*
X96297849Y-99888903D01*
X96298037Y-99890902D01*
X96298372Y-99892978D01*
X96298857Y-99895133D01*
X96299493Y-99897372D01*
X96300282Y-99899698D01*
X96302333Y-99904625D01*
X96305028Y-99909939D01*
X96308385Y-99915670D01*
X96312422Y-99921844D01*
X96317160Y-99928488D01*
X96322616Y-99935629D01*
X96328809Y-99943296D01*
X96335757Y-99951515D01*
X96343480Y-99960314D01*
X96351996Y-99969719D01*
X96361324Y-99979759D01*
X96371482Y-99990460D01*
X96382489Y-100001850D01*
X96394364Y-100013956D01*
X96420791Y-100040426D01*
X96450914Y-100070087D01*
X96484880Y-100103159D01*
X96551993Y-100171609D01*
X96614627Y-100242457D01*
X96672772Y-100315672D01*
X96726415Y-100391223D01*
X96775545Y-100469079D01*
X96820150Y-100549211D01*
X96860218Y-100631588D01*
X96895737Y-100716178D01*
X96926695Y-100802951D01*
X96953080Y-100891877D01*
X96974880Y-100982925D01*
X96992084Y-101076065D01*
X97004679Y-101171265D01*
X97012654Y-101268495D01*
X97015997Y-101367725D01*
X97014695Y-101468924D01*
X97013122Y-101524776D01*
X97012668Y-101576878D01*
X97013267Y-101624090D01*
X97014854Y-101665271D01*
X97017363Y-101699282D01*
X97020727Y-101724983D01*
X97022710Y-101734361D01*
X97024882Y-101741234D01*
X97027234Y-101745460D01*
X97028476Y-101746535D01*
X97029760Y-101746896D01*
X97033897Y-101746483D01*
X97041062Y-101745285D01*
X97063790Y-101740692D01*
X97096574Y-101733441D01*
X97138047Y-101723853D01*
X97241583Y-101698957D01*
X97363445Y-101668581D01*
X97453194Y-101645132D01*
X97527278Y-101623876D01*
X97559333Y-101613672D01*
X97588537Y-101603536D01*
X97615245Y-101593309D01*
X97639811Y-101582832D01*
X97662592Y-101571944D01*
X97683941Y-101560486D01*
X97704214Y-101548297D01*
X97723766Y-101535218D01*
X97742952Y-101521088D01*
X97762127Y-101505749D01*
X97781646Y-101489040D01*
X97801863Y-101470802D01*
X97828414Y-101446779D01*
X97854171Y-101424376D01*
X97878500Y-101404081D01*
X97900766Y-101386382D01*
X97920334Y-101371767D01*
X97936569Y-101360723D01*
X97943238Y-101356693D01*
X97948837Y-101353739D01*
X97953284Y-101351922D01*
X97956502Y-101351302D01*
X97957837Y-101351165D01*
X97959254Y-101350756D01*
X97960747Y-101350084D01*
X97962313Y-101349154D01*
X97963949Y-101347973D01*
X97965649Y-101346549D01*
X97967410Y-101344887D01*
X97969227Y-101342996D01*
X97971098Y-101340880D01*
X97973018Y-101338548D01*
X97976988Y-101333261D01*
X97981105Y-101327187D01*
X97985338Y-101320381D01*
X97989654Y-101312898D01*
X97994023Y-101304790D01*
X97998410Y-101296113D01*
X98002786Y-101286919D01*
X98007117Y-101277264D01*
X98011372Y-101267202D01*
X98015518Y-101256785D01*
X98019524Y-101246069D01*
X98027264Y-101226528D01*
X98036303Y-101207058D01*
X98046586Y-101187695D01*
X98058060Y-101168475D01*
X98070670Y-101149433D01*
X98084362Y-101130607D01*
X98099081Y-101112032D01*
X98114773Y-101093743D01*
X98131384Y-101075777D01*
X98148860Y-101058169D01*
X98167146Y-101040956D01*
X98186187Y-101024174D01*
X98226320Y-100992043D01*
X98268825Y-100962066D01*
X98313266Y-100934528D01*
X98359210Y-100909718D01*
X98406222Y-100887923D01*
X98429992Y-100878246D01*
X98453867Y-100869430D01*
X98477791Y-100861511D01*
X98501710Y-100854526D01*
X98525571Y-100848510D01*
X98549318Y-100843500D01*
X98572897Y-100839530D01*
X98596255Y-100836638D01*
X98619336Y-100834858D01*
X98642087Y-100834227D01*
X98652448Y-100834989D01*
X98663876Y-100837263D01*
X98676285Y-100840973D01*
X98689591Y-100846043D01*
X98718553Y-100859955D01*
X98750085Y-100878389D01*
X98783507Y-100900734D01*
X98818140Y-100926379D01*
X98853307Y-100954713D01*
X98888328Y-100985126D01*
X98922525Y-101017005D01*
X98955219Y-101049741D01*
X98985731Y-101082722D01*
X99013384Y-101115337D01*
X99037498Y-101146976D01*
X99057394Y-101177028D01*
X99065549Y-101191268D01*
X99072395Y-101204881D01*
X99077847Y-101217793D01*
X99081821Y-101229926D01*
X99104247Y-101312031D01*
X99347658Y-101260055D01*
X99783427Y-101166666D01*
X99840206Y-101154917D01*
X99864602Y-101150328D01*
X99886658Y-101146599D01*
X99906615Y-101143735D01*
X99924714Y-101141738D01*
X99941196Y-101140610D01*
X99956303Y-101140356D01*
X99970275Y-101140978D01*
X99983355Y-101142479D01*
X99995783Y-101144863D01*
X100007800Y-101148132D01*
X100019648Y-101152290D01*
X100031569Y-101157339D01*
X100043802Y-101163282D01*
X100056591Y-101170123D01*
X100067714Y-101176683D01*
X100078708Y-101183795D01*
X100089559Y-101191436D01*
X100100251Y-101199582D01*
X100110771Y-101208208D01*
X100121103Y-101217290D01*
X100141146Y-101236723D01*
X100160262Y-101257686D01*
X100178333Y-101279984D01*
X100195242Y-101303421D01*
X100210870Y-101327802D01*
X100225101Y-101352932D01*
X100237816Y-101378616D01*
X100248898Y-101404658D01*
X100258229Y-101430863D01*
X100265692Y-101457037D01*
X100268686Y-101470050D01*
X100271168Y-101482983D01*
X100273124Y-101495809D01*
X100274540Y-101508506D01*
X100275400Y-101521048D01*
X100275690Y-101533411D01*
X100275378Y-101550642D01*
X100274443Y-101567510D01*
X100272881Y-101584016D01*
X100270692Y-101600162D01*
X100267873Y-101615950D01*
X100264424Y-101631382D01*
X100260342Y-101646460D01*
X100255626Y-101661186D01*
X100250274Y-101675561D01*
X100244285Y-101689588D01*
X100237657Y-101703268D01*
X100230388Y-101716603D01*
X100222477Y-101729595D01*
X100213922Y-101742246D01*
X100204721Y-101754557D01*
X100194873Y-101766531D01*
X100184376Y-101778170D01*
X100173229Y-101789475D01*
X100161429Y-101800448D01*
X100148976Y-101811090D01*
X100135867Y-101821405D01*
X100122101Y-101831393D01*
X100107676Y-101841057D01*
X100092590Y-101850399D01*
X100060432Y-101868121D01*
X100025612Y-101884575D01*
X99988118Y-101899776D01*
X99947936Y-101913738D01*
X99902780Y-101929015D01*
X99882583Y-101936445D01*
X99863958Y-101943746D01*
X99846892Y-101950925D01*
X99831373Y-101957989D01*
X99817388Y-101964945D01*
X99804925Y-101971801D01*
X99793972Y-101978564D01*
X99784517Y-101985241D01*
X99776548Y-101991839D01*
X99770052Y-101998366D01*
X99765016Y-102004828D01*
X99761430Y-102011234D01*
X99759279Y-102017589D01*
X99758553Y-102023902D01*
X99757326Y-102038274D01*
X99753861Y-102058363D01*
X99741195Y-102112591D01*
X99722505Y-102180385D01*
X99699742Y-102255546D01*
X99674856Y-102331874D01*
X99649795Y-102403170D01*
X99626510Y-102463233D01*
X99616143Y-102487116D01*
X99606951Y-102505865D01*
X99603169Y-102512354D01*
X99598637Y-102519103D01*
X99593414Y-102526061D01*
X99587559Y-102533171D01*
X99581134Y-102540381D01*
X99574198Y-102547637D01*
X99566810Y-102554884D01*
X99559033Y-102562070D01*
X99550924Y-102569139D01*
X99542545Y-102576039D01*
X99533955Y-102582715D01*
X99525215Y-102589113D01*
X99516385Y-102595180D01*
X99507524Y-102600861D01*
X99498693Y-102606103D01*
X99489952Y-102610852D01*
X99464224Y-102622355D01*
X99433617Y-102632939D01*
X99398736Y-102642561D01*
X99360182Y-102651176D01*
X99318559Y-102658740D01*
X99274467Y-102665208D01*
X99228511Y-102670536D01*
X99181293Y-102674679D01*
X99133415Y-102677594D01*
X99085479Y-102679234D01*
X99038089Y-102679557D01*
X98991847Y-102678517D01*
X98947355Y-102676070D01*
X98905216Y-102672173D01*
X98866033Y-102666779D01*
X98830408Y-102659845D01*
X98795342Y-102652565D01*
X98753952Y-102645255D01*
X98707762Y-102638113D01*
X98658297Y-102631339D01*
X98607083Y-102625131D01*
X98555643Y-102619687D01*
X98505503Y-102615206D01*
X98458188Y-102611887D01*
X98411331Y-102608660D01*
X98362495Y-102604284D01*
X98313114Y-102598958D01*
X98264625Y-102592883D01*
X98218461Y-102586259D01*
X98176058Y-102579285D01*
X98138853Y-102572161D01*
X98108280Y-102565088D01*
X98076164Y-102556879D01*
X98046840Y-102549883D01*
X98019662Y-102544149D01*
X97993984Y-102539728D01*
X97969160Y-102536670D01*
X97944544Y-102535026D01*
X97919490Y-102534846D01*
X97893352Y-102536180D01*
X97865484Y-102539079D01*
X97835239Y-102543593D01*
X97801972Y-102549773D01*
X97765037Y-102557668D01*
X97723787Y-102567329D01*
X97677577Y-102578807D01*
X97567691Y-102607413D01*
X97393841Y-102651951D01*
X97134158Y-102716642D01*
X96497734Y-102871803D01*
X95716830Y-103059702D01*
X95579713Y-103338674D01*
X95442596Y-103617646D01*
X95409686Y-104165342D01*
X95377501Y-104757716D01*
X95346330Y-105412854D01*
X95320440Y-105946036D01*
X95309142Y-106138528D01*
X95300926Y-106245207D01*
X95297238Y-106281508D01*
X95296060Y-106296847D01*
X95295352Y-106310409D01*
X95295131Y-106322265D01*
X95295416Y-106332488D01*
X95296225Y-106341150D01*
X95297576Y-106348324D01*
X95299488Y-106354080D01*
X95300661Y-106356450D01*
X95301980Y-106358492D01*
X95303448Y-106360217D01*
X95305068Y-106361632D01*
X95306842Y-106362748D01*
X95308773Y-106363572D01*
X95310862Y-106364115D01*
X95313112Y-106364384D01*
X95318103Y-106364141D01*
X95323765Y-106362914D01*
X95330116Y-106360776D01*
X95342665Y-106356648D01*
X95361482Y-106351312D01*
X95385647Y-106344995D01*
X95414241Y-106337922D01*
X95446342Y-106330321D01*
X95481030Y-106322416D01*
X95517386Y-106314436D01*
X95554489Y-106306606D01*
X95608298Y-106296162D01*
X95632217Y-106292182D01*
X95654561Y-106289049D01*
X95675642Y-106286775D01*
X95695772Y-106285375D01*
X95715262Y-106284862D01*
X95734425Y-106285249D01*
X95753572Y-106286549D01*
X95773016Y-106288777D01*
X95793067Y-106291945D01*
X95814038Y-106296067D01*
X95836240Y-106301157D01*
X95859986Y-106307227D01*
X95913355Y-106322364D01*
X95981633Y-106343080D01*
X96040222Y-106361959D01*
X96090471Y-106379557D01*
X96133728Y-106396430D01*
X96171340Y-106413135D01*
X96188452Y-106421598D01*
X96204658Y-106430227D01*
X96220127Y-106439092D01*
X96235027Y-106448263D01*
X96263798Y-106467799D01*
X96267858Y-106470358D01*
X96272524Y-106472596D01*
X96277848Y-106474504D01*
X96283880Y-106476071D01*
X96290673Y-106477289D01*
X96298276Y-106478149D01*
X96306742Y-106478642D01*
X96316121Y-106478759D01*
X96337825Y-106477827D01*
X96363798Y-106475283D01*
X96394448Y-106471052D01*
X96430187Y-106465063D01*
X96471422Y-106457244D01*
X96518564Y-106447521D01*
X96572023Y-106435823D01*
X96632208Y-106422076D01*
X96699529Y-106406209D01*
X96774395Y-106388148D01*
X96948400Y-106345158D01*
X97450161Y-106220702D01*
X97765487Y-106144361D01*
X97868781Y-106119447D01*
X98015082Y-106082684D01*
X98184918Y-106039040D01*
X98358816Y-105993487D01*
X98444123Y-105971664D01*
X98529109Y-105951341D01*
X98611529Y-105932963D01*
X98689135Y-105916971D01*
X98759682Y-105903808D01*
X98820923Y-105893918D01*
X98870612Y-105887743D01*
X98906503Y-105885727D01*
X99014570Y-105869113D01*
X99235380Y-105823278D01*
X99896849Y-105671942D01*
X100654153Y-105487715D01*
X100994756Y-105400765D01*
X101270534Y-105326590D01*
X101303137Y-105315722D01*
X101338609Y-105300817D01*
X101376321Y-105282355D01*
X101415641Y-105260814D01*
X101455938Y-105236674D01*
X101496582Y-105210414D01*
X101536942Y-105182515D01*
X101576386Y-105153454D01*
X101614283Y-105123713D01*
X101650004Y-105093769D01*
X101682916Y-105064104D01*
X101712390Y-105035195D01*
X101737793Y-105007522D01*
X101758496Y-104981566D01*
X101773867Y-104957804D01*
X101779356Y-104946896D01*
X101783275Y-104936717D01*
X101786516Y-104928238D01*
X101791039Y-104919093D01*
X101796777Y-104909338D01*
X101803663Y-104899028D01*
X101820608Y-104876958D01*
X101841336Y-104853322D01*
X101865306Y-104828558D01*
X101891981Y-104803105D01*
X101920821Y-104777400D01*
X101951288Y-104751882D01*
X101982842Y-104726988D01*
X102014944Y-104703156D01*
X102047055Y-104680826D01*
X102078637Y-104660434D01*
X102109150Y-104642419D01*
X102138056Y-104627219D01*
X102164815Y-104615271D01*
X102177221Y-104610655D01*
X102188888Y-104607015D01*
X102230920Y-104595940D01*
X102270055Y-104586954D01*
X102306594Y-104580128D01*
X102340839Y-104575529D01*
X102373091Y-104573226D01*
X102403654Y-104573287D01*
X102432828Y-104575781D01*
X102446989Y-104577962D01*
X102460915Y-104580777D01*
X102474646Y-104584235D01*
X102488218Y-104588343D01*
X102515038Y-104598548D01*
X102541677Y-104611459D01*
X102568437Y-104627146D01*
X102595620Y-104645678D01*
X102623527Y-104667122D01*
X102652460Y-104691547D01*
X102682722Y-104719022D01*
X102699038Y-104734617D01*
X102714911Y-104750465D01*
X102730271Y-104766477D01*
X102745051Y-104782561D01*
X102759186Y-104798625D01*
X102772606Y-104814579D01*
X102785244Y-104830332D01*
X102797034Y-104845792D01*
X102807909Y-104860869D01*
X102817799Y-104875471D01*
X102826639Y-104889508D01*
X102834361Y-104902887D01*
X102840898Y-104915519D01*
X102846182Y-104927313D01*
X102850146Y-104938176D01*
X102852723Y-104948018D01*
X102855373Y-104960559D01*
X102858099Y-104971779D01*
X102860955Y-104981723D01*
X102863994Y-104990436D01*
X102865600Y-104994345D01*
X102867272Y-104997963D01*
X102869016Y-105001296D01*
X102870841Y-105004349D01*
X102872752Y-105007129D01*
X102874756Y-105009640D01*
X102876861Y-105011889D01*
X102879072Y-105013881D01*
X102881396Y-105015621D01*
X102883841Y-105017116D01*
X102886413Y-105018370D01*
X102889119Y-105019391D01*
X102891965Y-105020182D01*
X102894959Y-105020750D01*
X102898107Y-105021101D01*
X102901415Y-105021240D01*
X102904892Y-105021173D01*
X102908542Y-105020905D01*
X102916394Y-105019790D01*
X102925023Y-105017940D01*
X102934486Y-105015401D01*
X103146761Y-104955567D01*
X103322928Y-104909765D01*
X103467289Y-104877456D01*
X103528887Y-104866194D01*
X103584147Y-104858104D01*
X103633606Y-104853119D01*
X103677804Y-104851173D01*
X103717277Y-104852197D01*
X103752563Y-104856125D01*
X103784200Y-104862890D01*
X103812726Y-104872424D01*
X103838679Y-104884661D01*
X103862596Y-104899534D01*
X103871107Y-104905815D01*
X103879449Y-104912617D01*
X103887615Y-104919923D01*
X103895601Y-104927716D01*
X103903397Y-104935981D01*
X103910999Y-104944701D01*
X103925590Y-104963441D01*
X103939320Y-104983807D01*
X103952137Y-105005669D01*
X103963987Y-105028897D01*
X103974816Y-105053361D01*
X103984570Y-105078930D01*
X103993198Y-105105476D01*
X104000644Y-105132867D01*
X104006857Y-105160975D01*
X104011781Y-105189668D01*
X104015365Y-105218818D01*
X104017555Y-105248294D01*
X104018296Y-105277966D01*
X104017882Y-105294193D01*
X104016647Y-105310231D01*
X104014609Y-105326063D01*
X104011782Y-105341675D01*
X104008181Y-105357050D01*
X104003822Y-105372174D01*
X103998719Y-105387030D01*
X103992888Y-105401604D01*
X103986345Y-105415880D01*
X103979104Y-105429843D01*
X103971181Y-105443477D01*
X103962590Y-105456766D01*
X103953348Y-105469696D01*
X103943470Y-105482251D01*
X103932970Y-105494416D01*
X103921863Y-105506174D01*
X103910166Y-105517512D01*
X103897894Y-105528412D01*
X103885061Y-105538861D01*
X103871682Y-105548842D01*
X103857774Y-105558340D01*
X103843351Y-105567339D01*
X103828428Y-105575825D01*
X103813021Y-105583782D01*
X103797146Y-105591194D01*
X103780816Y-105598045D01*
X103764048Y-105604322D01*
X103746856Y-105610007D01*
X103729257Y-105615086D01*
X103711264Y-105619544D01*
X103692894Y-105623364D01*
X103674161Y-105626531D01*
X103652973Y-105629846D01*
X103633907Y-105633145D01*
X103616858Y-105636492D01*
X103601724Y-105639949D01*
X103588399Y-105643581D01*
X103576779Y-105647449D01*
X103566761Y-105651617D01*
X103558240Y-105656147D01*
X103551111Y-105661104D01*
X103548037Y-105663761D01*
X103545271Y-105666548D01*
X103542802Y-105669474D01*
X103540616Y-105672545D01*
X103538699Y-105675770D01*
X103537040Y-105679156D01*
X103534441Y-105686445D01*
X103532713Y-105694474D01*
X103531752Y-105703307D01*
X103531456Y-105713006D01*
X103530120Y-105737175D01*
X103526290Y-105766480D01*
X103520226Y-105800102D01*
X103512191Y-105837220D01*
X103491259Y-105918664D01*
X103465592Y-106004250D01*
X103437288Y-106087418D01*
X103422802Y-106126044D01*
X103408445Y-106161604D01*
X103394478Y-106193279D01*
X103381164Y-106220248D01*
X103368764Y-106241692D01*
X103357541Y-106256789D01*
X103351597Y-106263101D01*
X103344982Y-106269670D01*
X103337766Y-106276444D01*
X103330020Y-106283370D01*
X103321812Y-106290396D01*
X103313214Y-106297467D01*
X103304295Y-106304533D01*
X103295125Y-106311539D01*
X103285776Y-106318434D01*
X103276315Y-106325165D01*
X103266815Y-106331678D01*
X103257344Y-106337922D01*
X103247973Y-106343843D01*
X103238773Y-106349389D01*
X103229812Y-106354507D01*
X103221161Y-106359144D01*
X103197655Y-106368952D01*
X103168069Y-106377421D01*
X103133057Y-106384553D01*
X103093273Y-106390351D01*
X103049371Y-106394817D01*
X103002006Y-106397954D01*
X102951830Y-106399766D01*
X102899498Y-106400254D01*
X102845665Y-106399421D01*
X102790984Y-106397271D01*
X102736109Y-106393805D01*
X102681695Y-106389027D01*
X102628395Y-106382939D01*
X102576864Y-106375545D01*
X102527755Y-106366846D01*
X102481723Y-106356845D01*
X102442569Y-106347948D01*
X102401239Y-106339585D01*
X102358981Y-106331941D01*
X102317044Y-106325205D01*
X102276674Y-106319563D01*
X102239121Y-106315204D01*
X102205632Y-106312314D01*
X102177456Y-106311081D01*
X102148974Y-106309874D01*
X102114598Y-106307083D01*
X102075638Y-106302889D01*
X102033406Y-106297471D01*
X101989213Y-106291009D01*
X101944369Y-106283683D01*
X101900187Y-106275673D01*
X101857975Y-106267159D01*
X101660196Y-106224957D01*
X100747387Y-106448742D01*
X99961777Y-106643021D01*
X99495779Y-106764184D01*
X99354321Y-106805171D01*
X99258792Y-106837268D01*
X99197865Y-106863604D01*
X99160215Y-106887309D01*
X99152443Y-106893083D01*
X99143722Y-106898910D01*
X99134147Y-106904751D01*
X99123815Y-106910565D01*
X99112819Y-106916316D01*
X99101254Y-106921962D01*
X99089217Y-106927466D01*
X99076801Y-106932788D01*
X99064103Y-106937890D01*
X99051216Y-106942731D01*
X99038236Y-106947273D01*
X99025259Y-106951478D01*
X99012379Y-106955305D01*
X98999691Y-106958716D01*
X98987290Y-106961671D01*
X98975272Y-106964133D01*
X98606468Y-107049959D01*
X97904498Y-107220203D01*
X97176850Y-107399643D01*
X96731012Y-107513057D01*
X96675594Y-107528836D01*
X96652223Y-107536178D01*
X96631415Y-107543390D01*
X96612925Y-107550648D01*
X96596506Y-107558126D01*
X96581911Y-107566001D01*
X96568895Y-107574447D01*
X96557211Y-107583642D01*
X96546613Y-107593760D01*
X96536855Y-107604976D01*
X96527690Y-107617467D01*
X96518872Y-107631409D01*
X96510156Y-107646976D01*
X96501294Y-107664344D01*
X96492040Y-107683690D01*
X96485871Y-107696238D01*
X96479056Y-107708943D01*
X96471664Y-107721717D01*
X96463767Y-107734473D01*
X96455434Y-107747123D01*
X96446736Y-107759580D01*
X96437742Y-107771756D01*
X96428524Y-107783562D01*
X96419151Y-107794912D01*
X96409695Y-107805718D01*
X96400224Y-107815892D01*
X96390810Y-107825347D01*
X96381523Y-107833994D01*
X96372433Y-107841747D01*
X96363610Y-107848517D01*
X96355125Y-107854218D01*
X96337328Y-107865693D01*
X96317580Y-107879253D01*
X96296539Y-107894400D01*
X96274863Y-107910631D01*
X96253208Y-107927447D01*
X96232233Y-107944348D01*
X96212594Y-107960833D01*
X96194950Y-107976402D01*
X96170027Y-107996879D01*
X96141893Y-108016020D01*
X96110734Y-108033784D01*
X96076734Y-108050132D01*
X96040078Y-108065026D01*
X96000952Y-108078425D01*
X95959540Y-108090290D01*
X95916026Y-108100582D01*
X95870597Y-108109261D01*
X95823436Y-108116288D01*
X95774730Y-108121624D01*
X95724661Y-108125229D01*
X95673416Y-108127065D01*
X95621180Y-108127090D01*
X95568137Y-108125267D01*
X95514471Y-108121555D01*
X95464741Y-108116826D01*
X95416524Y-108111470D01*
X95371008Y-108105669D01*
X95329377Y-108099606D01*
X95292817Y-108093461D01*
X95262514Y-108087416D01*
X95239652Y-108081653D01*
X95231383Y-108078933D01*
X95225418Y-108076353D01*
X95221912Y-108075213D01*
X95216673Y-108074550D01*
X95201106Y-108074633D01*
X95178935Y-108076557D01*
X95150375Y-108080278D01*
X95074955Y-108092933D01*
X94976578Y-108112242D01*
X94856975Y-108137850D01*
X94717878Y-108169402D01*
X94561018Y-108206543D01*
X94388126Y-108248916D01*
X93049331Y-108581741D01*
X92923742Y-108612192D01*
X92807684Y-108638838D01*
X92701966Y-108661526D01*
X92607400Y-108680107D01*
X92524795Y-108694427D01*
X92454963Y-108704336D01*
X92398714Y-108709682D01*
X92356858Y-108710313D01*
X92341631Y-108709651D01*
X92326539Y-108709379D01*
X92311664Y-108709485D01*
X92297089Y-108709955D01*
X92282898Y-108710775D01*
X92269172Y-108711932D01*
X92255996Y-108713412D01*
X92243453Y-108715202D01*
X92231624Y-108717288D01*
X92220594Y-108719657D01*
X92210444Y-108722296D01*
X92201259Y-108725190D01*
X92193121Y-108728327D01*
X92186113Y-108731692D01*
X92180319Y-108735273D01*
X92175820Y-108739056D01*
X92173029Y-108741386D01*
X92169384Y-108743632D01*
X92164875Y-108745796D01*
X92159494Y-108747877D01*
X92146077Y-108751794D01*
X92129062Y-108755390D01*
X92108376Y-108758668D01*
X92083947Y-108761635D01*
X92055702Y-108764295D01*
X92023570Y-108766654D01*
X91987478Y-108768716D01*
X91947353Y-108770486D01*
X91903125Y-108771970D01*
X91854719Y-108773173D01*
X91745089Y-108774756D01*
X91617885Y-108775274D01*
X91460331Y-108774928D01*
X91336741Y-108773582D01*
X91242413Y-108770779D01*
X91172643Y-108766057D01*
X91145497Y-108762834D01*
X91122728Y-108758958D01*
X91103747Y-108754374D01*
X91087966Y-108749023D01*
X91074797Y-108742848D01*
X91063653Y-108735792D01*
X91053946Y-108727797D01*
X91045087Y-108718806D01*
X91045069Y-108719087D01*
X91039532Y-108712406D01*
X91033505Y-108704087D01*
X91027046Y-108694249D01*
X91020215Y-108683014D01*
X91013069Y-108670504D01*
X91005668Y-108656838D01*
X90998070Y-108642138D01*
X90990334Y-108626525D01*
X90974683Y-108593045D01*
X90959183Y-108557365D01*
X90944306Y-108520455D01*
X90937246Y-108501841D01*
X90930519Y-108483282D01*
X90910773Y-108420217D01*
X90895851Y-108356768D01*
X90885657Y-108293323D01*
X90880094Y-108230271D01*
X90879065Y-108168000D01*
X90882474Y-108106898D01*
X90890223Y-108047355D01*
X90902215Y-107989758D01*
X90918355Y-107934495D01*
X90938545Y-107881955D01*
X90962688Y-107832526D01*
X90990688Y-107786598D01*
X91022448Y-107744557D01*
X91039707Y-107725116D01*
X91057870Y-107706793D01*
X91076925Y-107689635D01*
X91096859Y-107673693D01*
X91117661Y-107659014D01*
X91139318Y-107645647D01*
X91149038Y-107640436D01*
X91160696Y-107634839D01*
X91174135Y-107628909D01*
X91189202Y-107622698D01*
X91223601Y-107609636D01*
X91262656Y-107596068D01*
X91305132Y-107582409D01*
X91349793Y-107569074D01*
X91395402Y-107556475D01*
X91440724Y-107545029D01*
X91657762Y-107492930D01*
X91617779Y-107305153D01*
X91439160Y-106459595D01*
X91349415Y-106022019D01*
X91286812Y-105702761D01*
X91204893Y-105317562D01*
X91130817Y-104990440D01*
X91105209Y-104887415D01*
X91091746Y-104845417D01*
X91073097Y-104846014D01*
X91025943Y-104853918D01*
X90859396Y-104888481D01*
X90330228Y-105010496D01*
X89716562Y-105160859D01*
X89444392Y-105230858D01*
X89230717Y-105288968D01*
X89183533Y-105301714D01*
X89138198Y-105312523D01*
X89094692Y-105321396D01*
X89052996Y-105328330D01*
X89013092Y-105333325D01*
X88974960Y-105336380D01*
X88938582Y-105337494D01*
X88903939Y-105336665D01*
X88871012Y-105333892D01*
X88839782Y-105329175D01*
X88810230Y-105322513D01*
X88782338Y-105313903D01*
X88756087Y-105303347D01*
X88731457Y-105290841D01*
X88708430Y-105276386D01*
X88686987Y-105259979D01*
X88677510Y-105251749D01*
X88668089Y-105243065D01*
X88658783Y-105234001D01*
X88649647Y-105224632D01*
X88640742Y-105215033D01*
X88632123Y-105205276D01*
X88623849Y-105195437D01*
X88615978Y-105185591D01*
X88608568Y-105175810D01*
X88601675Y-105166170D01*
X88595359Y-105156745D01*
X88589676Y-105147608D01*
X88584684Y-105138835D01*
X88580442Y-105130500D01*
X88577007Y-105122677D01*
X88574437Y-105115440D01*
X88566334Y-105090225D01*
X88558353Y-105068109D01*
X88554370Y-105058202D01*
X88550372Y-105049058D01*
X88546344Y-105040673D01*
X88542271Y-105033041D01*
X88538138Y-105026160D01*
X88533930Y-105020024D01*
X88529632Y-105014630D01*
X88525229Y-105009974D01*
X88520706Y-105006051D01*
X88516048Y-105002858D01*
X88511240Y-105000390D01*
X88506266Y-104998643D01*
X88501113Y-104997613D01*
X88495764Y-104997296D01*
X88490204Y-104997688D01*
X88484420Y-104998785D01*
X88478395Y-105000582D01*
X88472115Y-105003076D01*
X88465565Y-105006262D01*
X88458729Y-105010136D01*
X88451593Y-105014694D01*
X88444142Y-105019933D01*
X88436360Y-105025847D01*
X88428232Y-105032433D01*
X88410881Y-105047603D01*
X88391968Y-105065411D01*
X88377813Y-105078629D01*
X88363365Y-105091067D01*
X88348490Y-105102787D01*
X88333051Y-105113851D01*
X88316912Y-105124320D01*
X88299939Y-105134255D01*
X88281996Y-105143719D01*
X88262947Y-105152772D01*
X88242656Y-105161477D01*
X88220989Y-105169894D01*
X88197808Y-105178086D01*
X88172980Y-105186113D01*
X88146368Y-105194038D01*
X88117837Y-105201922D01*
X88087251Y-105209826D01*
X88054475Y-105217812D01*
X87941933Y-105243276D01*
X87893427Y-105253039D01*
X87849466Y-105260790D01*
X87809577Y-105266500D01*
X87773285Y-105270145D01*
X87740119Y-105271698D01*
X87709603Y-105271133D01*
X87681264Y-105268424D01*
X87654629Y-105263544D01*
X87629224Y-105256468D01*
X87604576Y-105247170D01*
X87580210Y-105235623D01*
X87555654Y-105221800D01*
X87530434Y-105205677D01*
X87504076Y-105187227D01*
X87454031Y-105148605D01*
X87430380Y-105128520D01*
X87407649Y-105107929D01*
X87385840Y-105086843D01*
X87364958Y-105065269D01*
X87345007Y-105043218D01*
X87325990Y-105020697D01*
X87307911Y-104997716D01*
X87290773Y-104974283D01*
X87274581Y-104950408D01*
X87259338Y-104926100D01*
X87245047Y-104901366D01*
X87231713Y-104876217D01*
X87219340Y-104850661D01*
X87207930Y-104824707D01*
X87197487Y-104798363D01*
X87188017Y-104771639D01*
X87179521Y-104744544D01*
X87172004Y-104717087D01*
X87165469Y-104689276D01*
X87159921Y-104661120D01*
X87155362Y-104632628D01*
X87151797Y-104603810D01*
X87149230Y-104574673D01*
X87147663Y-104545227D01*
X87147101Y-104515481D01*
X87147548Y-104485444D01*
X87149007Y-104455124D01*
X87151482Y-104424531D01*
X87159494Y-104362560D01*
X87167508Y-104317344D01*
X87176562Y-104274933D01*
X87186708Y-104235241D01*
X87198004Y-104198185D01*
X87210502Y-104163683D01*
X87224258Y-104131649D01*
X87239326Y-104102000D01*
X87255762Y-104074654D01*
X87273620Y-104049525D01*
X87292955Y-104026532D01*
X87313821Y-104005589D01*
X87336273Y-103986613D01*
X87360366Y-103969522D01*
X87386154Y-103954230D01*
X87413693Y-103940655D01*
X87443037Y-103928713D01*
X87584340Y-103878355D01*
X87647346Y-103857375D01*
X87705630Y-103839134D01*
X87759470Y-103823588D01*
X87809147Y-103810691D01*
X87854941Y-103800399D01*
X87897132Y-103792668D01*
X87935999Y-103787452D01*
X87971823Y-103784708D01*
X88004884Y-103784389D01*
X88035461Y-103786451D01*
X88063835Y-103790850D01*
X88090286Y-103797541D01*
X88115093Y-103806479D01*
X88138536Y-103817619D01*
X88147417Y-103822078D01*
X88151720Y-103823993D01*
X88155945Y-103825693D01*
X88160106Y-103827175D01*
X88164214Y-103828436D01*
X88168281Y-103829471D01*
X88172318Y-103830277D01*
X88176338Y-103830852D01*
X88180352Y-103831190D01*
X88184371Y-103831290D01*
X88188409Y-103831147D01*
X88192475Y-103830758D01*
X88196584Y-103830119D01*
X88200745Y-103829228D01*
X88204971Y-103828079D01*
X88209273Y-103826671D01*
X88213664Y-103824999D01*
X88218155Y-103823060D01*
X88222758Y-103820850D01*
X88227484Y-103818366D01*
X88232346Y-103815605D01*
X88237355Y-103812563D01*
X88242524Y-103809236D01*
X88253384Y-103801715D01*
X88265022Y-103793014D01*
X88277532Y-103783105D01*
X88291008Y-103771960D01*
X88310210Y-103756337D01*
X88329357Y-103741765D01*
X88347943Y-103728563D01*
X88365460Y-103717049D01*
X88373659Y-103712024D01*
X88381400Y-103707540D01*
X88388620Y-103703637D01*
X88395255Y-103700354D01*
X88401243Y-103697732D01*
X88406519Y-103695809D01*
X88411020Y-103694627D01*
X88414683Y-103694224D01*
X88416157Y-103694079D01*
X88417359Y-103693649D01*
X88418295Y-103692940D01*
X88418969Y-103691960D01*
X88419384Y-103690716D01*
X88419546Y-103689216D01*
X88419457Y-103687465D01*
X88419123Y-103685472D01*
X88418548Y-103683243D01*
X88417736Y-103680786D01*
X88416691Y-103678107D01*
X88415417Y-103675213D01*
X88413919Y-103672113D01*
X88412201Y-103668812D01*
X88408122Y-103661638D01*
X88403214Y-103653749D01*
X88397510Y-103645200D01*
X88391045Y-103636050D01*
X88383852Y-103626354D01*
X88375966Y-103616170D01*
X88367420Y-103605554D01*
X88358248Y-103594562D01*
X88348485Y-103583253D01*
X88317410Y-103546680D01*
X88289061Y-103510720D01*
X88263336Y-103475069D01*
X88240132Y-103439419D01*
X88219348Y-103403467D01*
X88200882Y-103366904D01*
X88184633Y-103329427D01*
X88170499Y-103290730D01*
X88158378Y-103250506D01*
X88148169Y-103208450D01*
X88139769Y-103164257D01*
X88133078Y-103117620D01*
X88127992Y-103068235D01*
X88124412Y-103015795D01*
X88122234Y-102959994D01*
X88121357Y-102900528D01*
X88121379Y-102809140D01*
X88122849Y-102736817D01*
X88124380Y-102706575D01*
X88126578Y-102679622D01*
X88129543Y-102655467D01*
X88133377Y-102633618D01*
X88138182Y-102613582D01*
X88144059Y-102594868D01*
X88151110Y-102576983D01*
X88159435Y-102559435D01*
X88169137Y-102541732D01*
X88180317Y-102523382D01*
X88207516Y-102482772D01*
X88219805Y-102465681D01*
X88232545Y-102449287D01*
X88245830Y-102433519D01*
X88259757Y-102418302D01*
X88274422Y-102403565D01*
X88289919Y-102389235D01*
X88306345Y-102375239D01*
X88323796Y-102361505D01*
X88342368Y-102347959D01*
X88362155Y-102334530D01*
X88383255Y-102321144D01*
X88405762Y-102307728D01*
X88429773Y-102294211D01*
X88455382Y-102280519D01*
X88482687Y-102266579D01*
X88511783Y-102252319D01*
X88539186Y-102238878D01*
X88565185Y-102225577D01*
X88589811Y-102212394D01*
X88613095Y-102199306D01*
X88635068Y-102186291D01*
X88655761Y-102173325D01*
X88675206Y-102160387D01*
X88693434Y-102147453D01*
X88710477Y-102134500D01*
X88726365Y-102121507D01*
X88741129Y-102108450D01*
X88754801Y-102095306D01*
X88767413Y-102082054D01*
X88778995Y-102068670D01*
X88789579Y-102055131D01*
X88799195Y-102041415D01*
X88818297Y-102014257D01*
X88838945Y-101988141D01*
X88861101Y-101963088D01*
X88884731Y-101939121D01*
X88909797Y-101916263D01*
X88936266Y-101894537D01*
X88964099Y-101873965D01*
X88993263Y-101854570D01*
X89023720Y-101836374D01*
X89055436Y-101819401D01*
X89088373Y-101803672D01*
X89122497Y-101789210D01*
X89157771Y-101776039D01*
X89194160Y-101764180D01*
X89231627Y-101753657D01*
X89270138Y-101744492D01*
X89335455Y-101730298D01*
X89361664Y-101724248D01*
X89384057Y-101718480D01*
X89402994Y-101712681D01*
X89418836Y-101706539D01*
X89425709Y-101703243D01*
X89431945Y-101699743D01*
X89437587Y-101696002D01*
X89442682Y-101691980D01*
X89447274Y-101687639D01*
X89451409Y-101682938D01*
X89455132Y-101677840D01*
X89458487Y-101672305D01*
X89461520Y-101666294D01*
X89464277Y-101659769D01*
X89469141Y-101645016D01*
X89473440Y-101627737D01*
X89477536Y-101607617D01*
X89486561Y-101557610D01*
X89489692Y-101539674D01*
X89492221Y-101523644D01*
X89494099Y-101509389D01*
X89495276Y-101496782D01*
X89495705Y-101485691D01*
X89495334Y-101475988D01*
X89494834Y-101471616D01*
X89494116Y-101467543D01*
X89493173Y-101463752D01*
X89492000Y-101460227D01*
X89490590Y-101456952D01*
X89488938Y-101453910D01*
X89487036Y-101451086D01*
X89484880Y-101448463D01*
X89482462Y-101446025D01*
X89479777Y-101443756D01*
X89476818Y-101441639D01*
X89473580Y-101439659D01*
X89466240Y-101436044D01*
X89457707Y-101432781D01*
X89447932Y-101429740D01*
X89436866Y-101426792D01*
X89427428Y-101425628D01*
X89413747Y-101425556D01*
X89396087Y-101426531D01*
X89374711Y-101428513D01*
X89321863Y-101435321D01*
X89257306Y-101445636D01*
X89183143Y-101459116D01*
X89101478Y-101475417D01*
X89014414Y-101494196D01*
X88924055Y-101515109D01*
X88785160Y-101548758D01*
X88676614Y-101576544D01*
X88632036Y-101588916D01*
X88593024Y-101600636D01*
X88558904Y-101611974D01*
X88529001Y-101623203D01*
X88502643Y-101634592D01*
X88479154Y-101646414D01*
X88457862Y-101658940D01*
X88438092Y-101672441D01*
X88419170Y-101687187D01*
X88400424Y-101703451D01*
X88360759Y-101741614D01*
X88335346Y-101765596D01*
X88308339Y-101788285D01*
X88279696Y-101809700D01*
X88249371Y-101829856D01*
X88217319Y-101848771D01*
X88183498Y-101866462D01*
X88147861Y-101882945D01*
X88110366Y-101898237D01*
X88070967Y-101912356D01*
X88029620Y-101925319D01*
X87986280Y-101937141D01*
X87940904Y-101947841D01*
X87893447Y-101957435D01*
X87843864Y-101965941D01*
X87792111Y-101973374D01*
X87738144Y-101979752D01*
X87712403Y-101982302D01*
X87688504Y-101984224D01*
X87666181Y-101985470D01*
X87645171Y-101985990D01*
X87625208Y-101985732D01*
X87606028Y-101984647D01*
X87587367Y-101982685D01*
X87568961Y-101979796D01*
X87550544Y-101975930D01*
X87531853Y-101971037D01*
X87512623Y-101965066D01*
X87492590Y-101957968D01*
X87471488Y-101949693D01*
X87449055Y-101940190D01*
X87425024Y-101929409D01*
X87399133Y-101917300D01*
X87373243Y-101905234D01*
X87349245Y-101894489D01*
X87326878Y-101885018D01*
X87305881Y-101876772D01*
X87285995Y-101869704D01*
X87266959Y-101863766D01*
X87248512Y-101858909D01*
X87230395Y-101855088D01*
X87212347Y-101852252D01*
X87194108Y-101850356D01*
X87175417Y-101849350D01*
X87156014Y-101849186D01*
X87135640Y-101849818D01*
X87114032Y-101851198D01*
X87090932Y-101853276D01*
X87066079Y-101856007D01*
X87025716Y-101859917D01*
X86986457Y-101862030D01*
X86948285Y-101862340D01*
X86911181Y-101860842D01*
X86875128Y-101857532D01*
X86840106Y-101852402D01*
X86806100Y-101845449D01*
X86773089Y-101836667D01*
X86741057Y-101826050D01*
X86709985Y-101813594D01*
X86679854Y-101799292D01*
X86650648Y-101783140D01*
X86622348Y-101765132D01*
X86594936Y-101745263D01*
X86568394Y-101723528D01*
X86542704Y-101699921D01*
X86431417Y-101591827D01*
X86431417Y-101035112D01*
X86431343Y-100828725D01*
X86433539Y-100675131D01*
X86436621Y-100615021D01*
X86441629Y-100564376D01*
X86449018Y-100521951D01*
X86459240Y-100486501D01*
X86465555Y-100471004D01*
X86472749Y-100456784D01*
X86480877Y-100443685D01*
X86489998Y-100431552D01*
X86511439Y-100409563D01*
X86537527Y-100389572D01*
X86568714Y-100370334D01*
X86605454Y-100350604D01*
X86697404Y-100304693D01*
X86714481Y-100295706D01*
X86732708Y-100285299D01*
X86751921Y-100273597D01*
X86771956Y-100260727D01*
X86792649Y-100246812D01*
X86813838Y-100231978D01*
X86857042Y-100200054D01*
X86900260Y-100165959D01*
X86942180Y-100130693D01*
X86962243Y-100112934D01*
X86981491Y-100095259D01*
X86999760Y-100077792D01*
X87016885Y-100060658D01*
X87039544Y-100037754D01*
X87061189Y-100016596D01*
X87081976Y-99997083D01*
X87102058Y-99979115D01*
X87121590Y-99962592D01*
X87140725Y-99947413D01*
X87159619Y-99933478D01*
X87178425Y-99920685D01*
X87197297Y-99908936D01*
X87216391Y-99898128D01*
X87235860Y-99888162D01*
X87255859Y-99878937D01*
X87276541Y-99870353D01*
X87298062Y-99862308D01*
X87320575Y-99854703D01*
X87344235Y-99847437D01*
X87394505Y-99833187D01*
X87442808Y-99820534D01*
X87489149Y-99809478D01*
X87533532Y-99800018D01*
X87575960Y-99792154D01*
X87616438Y-99785886D01*
X87654970Y-99781213D01*
X87691559Y-99778135D01*
X87726210Y-99776651D01*
X87758927Y-99776761D01*
X87789713Y-99778465D01*
X87818573Y-99781761D01*
X87845511Y-99786650D01*
X87870531Y-99793131D01*
X87893636Y-99801204D01*
X87914831Y-99810868D01*
X87937921Y-99821495D01*
X87961930Y-99830123D01*
X87986471Y-99836810D01*
X88011159Y-99841611D01*
X88035609Y-99844583D01*
X88059436Y-99845782D01*
X88082255Y-99845263D01*
X88103680Y-99843083D01*
X88123326Y-99839299D01*
X88140808Y-99833965D01*
X88148617Y-99830735D01*
X88155741Y-99827139D01*
X88162130Y-99823183D01*
X88167738Y-99818876D01*
X88172516Y-99814223D01*
X88176416Y-99809232D01*
X88179389Y-99803910D01*
X88181388Y-99798264D01*
X88182365Y-99792301D01*
X88182270Y-99786028D01*
X88181057Y-99779452D01*
X88178677Y-99772579D01*
X88171232Y-99753346D01*
X88164651Y-99732742D01*
X88154074Y-99687447D01*
X88146940Y-99636736D01*
X88143241Y-99580655D01*
X88142971Y-99519247D01*
X88146124Y-99452555D01*
X88152693Y-99380623D01*
X88162673Y-99303494D01*
X88176056Y-99221213D01*
X88192837Y-99133824D01*
X88213009Y-99041368D01*
X88236565Y-98943892D01*
X88263499Y-98841437D01*
X88293805Y-98734048D01*
X88327476Y-98621768D01*
X88364506Y-98504642D01*
X88384000Y-98441258D01*
X88407525Y-98359887D01*
X88432118Y-98271021D01*
X88454814Y-98185153D01*
X88476648Y-98101767D01*
X88498969Y-98019881D01*
X88522075Y-97938506D01*
X88546265Y-97856653D01*
X88571835Y-97773332D01*
X88599083Y-97687554D01*
X88659806Y-97504674D01*
X88679458Y-97446304D01*
X88687198Y-97422357D01*
X88693555Y-97401497D01*
X88698535Y-97383420D01*
X88702143Y-97367822D01*
X88704386Y-97354399D01*
X88705268Y-97342848D01*
X88704796Y-97332864D01*
X88704055Y-97328365D01*
X88702976Y-97324144D01*
X88701562Y-97320163D01*
X88699813Y-97316384D01*
X88695314Y-97309279D01*
X88689483Y-97302527D01*
X88682326Y-97295823D01*
X88673851Y-97288864D01*
X88664061Y-97281345D01*
X88655764Y-97275610D01*
X88646801Y-97270472D01*
X88637078Y-97265925D01*
X88626502Y-97261958D01*
X88614979Y-97258565D01*
X88602415Y-97255735D01*
X88588717Y-97253462D01*
X88573791Y-97251736D01*
X88557543Y-97250549D01*
X88539880Y-97249893D01*
X88520709Y-97249758D01*
X88499935Y-97250137D01*
X88477465Y-97251022D01*
X88453206Y-97252403D01*
X88427063Y-97254272D01*
X88398943Y-97256621D01*
X88348000Y-97260497D01*
X88300278Y-97262764D01*
X88255557Y-97263352D01*
X88213613Y-97262195D01*
X88174226Y-97259224D01*
X88137172Y-97254371D01*
X88102232Y-97247570D01*
X88069182Y-97238751D01*
X88037800Y-97227847D01*
X88007866Y-97214791D01*
X87979156Y-97199513D01*
X87951450Y-97181948D01*
X87924525Y-97162026D01*
X87898160Y-97139680D01*
X87872132Y-97114842D01*
X87846220Y-97087444D01*
X87813549Y-97049766D01*
X87783016Y-97011410D01*
X87754612Y-96972355D01*
X87728330Y-96932582D01*
X87704162Y-96892070D01*
X87682099Y-96850797D01*
X87662133Y-96808744D01*
X87644256Y-96765889D01*
X87628461Y-96722212D01*
X87614739Y-96677692D01*
X87603081Y-96632309D01*
X87593481Y-96586041D01*
X87585929Y-96538869D01*
X87580418Y-96490771D01*
X87576940Y-96441727D01*
X87575486Y-96391717D01*
X87576401Y-96326074D01*
X87580456Y-96264405D01*
X87587804Y-96206485D01*
X87598600Y-96152087D01*
X87605339Y-96126139D01*
X87612998Y-96100986D01*
X87621595Y-96076601D01*
X87631150Y-96052956D01*
X87641683Y-96030022D01*
X87653212Y-96007772D01*
X87665757Y-95986176D01*
X87679336Y-95965207D01*
X87693970Y-95944836D01*
X87709677Y-95925036D01*
X87726477Y-95905777D01*
X87744389Y-95887033D01*
X87763432Y-95868774D01*
X87783625Y-95850972D01*
X87827539Y-95816628D01*
X87876285Y-95783774D01*
X87930017Y-95752186D01*
X87988888Y-95721637D01*
X88053053Y-95691901D01*
X88087803Y-95675919D01*
X88120234Y-95659676D01*
X88149635Y-95643620D01*
X88175296Y-95628199D01*
X88186502Y-95620866D01*
X88196507Y-95613861D01*
X88205221Y-95607240D01*
X88212556Y-95601057D01*
X88218423Y-95595370D01*
X88222733Y-95590235D01*
X88225397Y-95585707D01*
X88226085Y-95583688D01*
X88226327Y-95581842D01*
X88226753Y-95575550D01*
X88227901Y-95568895D01*
X88229750Y-95561899D01*
X88232274Y-95554589D01*
X88235450Y-95546988D01*
X88239254Y-95539120D01*
X88243662Y-95531011D01*
X88248651Y-95522685D01*
X88260274Y-95505478D01*
X88273932Y-95487695D01*
X88289435Y-95469532D01*
X88306593Y-95451185D01*
X88325214Y-95432848D01*
X88345108Y-95414718D01*
X88366085Y-95396990D01*
X88387953Y-95379859D01*
X88410523Y-95363522D01*
X88433602Y-95348173D01*
X88457002Y-95334009D01*
X88480530Y-95321225D01*
X88532464Y-95295965D01*
X88584651Y-95273113D01*
X88636909Y-95252694D01*
X88689057Y-95234732D01*
X88740912Y-95219251D01*
X88792294Y-95206276D01*
X88843019Y-95195831D01*
X88892907Y-95187940D01*
X88941775Y-95182627D01*
X88989441Y-95179918D01*
X89035725Y-95179835D01*
X89080443Y-95182403D01*
X89123414Y-95187648D01*
X89164456Y-95195592D01*
X89203387Y-95206260D01*
X89240026Y-95219677D01*
X89258381Y-95227101D01*
X89275707Y-95233365D01*
X89284184Y-95236038D01*
X89292643Y-95238392D01*
X89301165Y-95240417D01*
X89309830Y-95242105D01*
X89318718Y-95243445D01*
X89327908Y-95244428D01*
X89337482Y-95245044D01*
X89347517Y-95245284D01*
X89358096Y-95245138D01*
X89369297Y-95244597D01*
X89381201Y-95243650D01*
X89393888Y-95242289D01*
X89407437Y-95240504D01*
X89421930Y-95238285D01*
X89454062Y-95232508D01*
X89490926Y-95224881D01*
X89533161Y-95215327D01*
X89581407Y-95203769D01*
X89636304Y-95190133D01*
X89768613Y-95156313D01*
X90123734Y-95066563D01*
X90276977Y-95029044D01*
X90386955Y-95003122D01*
X90476092Y-94982184D01*
X90572587Y-94958235D01*
X90664818Y-94934221D01*
X90741162Y-94913085D01*
X90767060Y-94905479D01*
X90790042Y-94898397D01*
X90810332Y-94891633D01*
X90828156Y-94884984D01*
X90843736Y-94878245D01*
X90857298Y-94871212D01*
X90863392Y-94867521D01*
X90869066Y-94863679D01*
X90874347Y-94859662D01*
X90879264Y-94855444D01*
X90883845Y-94850998D01*
X90888117Y-94846300D01*
X90892109Y-94841324D01*
X90895849Y-94836044D01*
X90899364Y-94830435D01*
X90902683Y-94824471D01*
X90908845Y-94811377D01*
X90914559Y-94796557D01*
X90920050Y-94779807D01*
X90925540Y-94760922D01*
X90931256Y-94739697D01*
X90949438Y-94678960D01*
X90971691Y-94619177D01*
X90997751Y-94560640D01*
X91027353Y-94503639D01*
X91060233Y-94448465D01*
X91096128Y-94395407D01*
X91134773Y-94344757D01*
X91175903Y-94296805D01*
X91219256Y-94251840D01*
X91264567Y-94210155D01*
X91311571Y-94172039D01*
X91360006Y-94137783D01*
X91409606Y-94107676D01*
X91460107Y-94082011D01*
X91511246Y-94061076D01*
X91536972Y-94052474D01*
X91562759Y-94045163D01*
X91581903Y-94040051D01*
X91599151Y-94035037D01*
X91614622Y-94030016D01*
X91628432Y-94024883D01*
X91640699Y-94019535D01*
X91651542Y-94013866D01*
X91656465Y-94010879D01*
X91661077Y-94007772D01*
X91665391Y-94004533D01*
X91669422Y-94001149D01*
X91673185Y-93997607D01*
X91676695Y-93993892D01*
X91679966Y-93989994D01*
X91683014Y-93985897D01*
X91685852Y-93981590D01*
X91688495Y-93977060D01*
X91690959Y-93972292D01*
X91693257Y-93967275D01*
X91697418Y-93956438D01*
X91701094Y-93944446D01*
X91704404Y-93931192D01*
X91707465Y-93916574D01*
X91712130Y-93894150D01*
X91718271Y-93867234D01*
X91725625Y-93836844D01*
X91733929Y-93803995D01*
X91752342Y-93734989D01*
X91761925Y-93700863D01*
X91771409Y-93668346D01*
X91857343Y-93377074D01*
X91929115Y-93128029D01*
X91986800Y-92920939D01*
X92030473Y-92755537D01*
X92055193Y-92662032D01*
X92082561Y-92564891D01*
X92109247Y-92475594D01*
X92121295Y-92437474D01*
X92131924Y-92405620D01*
X92142374Y-92374382D01*
X92153904Y-92338039D01*
X92178690Y-92255279D01*
X92203240Y-92167817D01*
X92214477Y-92125597D01*
X92224514Y-92086131D01*
X92245998Y-92002049D01*
X92271110Y-91908047D01*
X92296725Y-91815607D01*
X92319719Y-91736214D01*
X92342406Y-91659248D01*
X92367174Y-91573350D01*
X92391031Y-91489011D01*
X92410984Y-91416724D01*
X92430562Y-91345630D01*
X92453407Y-91264574D01*
X92476677Y-91183523D01*
X92497529Y-91112449D01*
X92614877Y-90708003D01*
X92777308Y-90138785D01*
X92796243Y-90070470D01*
X92803489Y-90042700D01*
X92809215Y-90018994D01*
X92813390Y-89999208D01*
X92815983Y-89983197D01*
X92816966Y-89970814D01*
X92816844Y-89965939D01*
X92816308Y-89961916D01*
X92815355Y-89958728D01*
X92813980Y-89956357D01*
X92812179Y-89954784D01*
X92809950Y-89953991D01*
X92807288Y-89953960D01*
X92804189Y-89954674D01*
X92800650Y-89956113D01*
X92796668Y-89958260D01*
X92787355Y-89964605D01*
X92776222Y-89973563D01*
X92763237Y-89984989D01*
X92748372Y-89998737D01*
X92729468Y-90013694D01*
X92704453Y-90029112D01*
X92674011Y-90044795D01*
X92638831Y-90060548D01*
X92599598Y-90076175D01*
X92556999Y-90091482D01*
X92511722Y-90106273D01*
X92464452Y-90120351D01*
X92415876Y-90133522D01*
X92366681Y-90145591D01*
X92317553Y-90156361D01*
X92269180Y-90165638D01*
X92222247Y-90173226D01*
X92177442Y-90178929D01*
X92135451Y-90182552D01*
X92096961Y-90183900D01*
X92056328Y-90182548D01*
X92036438Y-90180732D01*
X92016831Y-90178153D01*
X91997503Y-90174811D01*
X91978452Y-90170702D01*
X91959675Y-90165826D01*
X91941171Y-90160180D01*
X91922937Y-90153763D01*
X91904971Y-90146573D01*
X91887270Y-90138608D01*
X91869831Y-90129867D01*
X91852653Y-90120347D01*
X91835734Y-90110046D01*
X91819070Y-90098964D01*
X91802659Y-90087098D01*
X91770588Y-90061008D01*
X91739503Y-90031762D01*
X91709384Y-89999345D01*
X91680212Y-89963743D01*
X91651969Y-89924941D01*
X91624635Y-89882927D01*
X91598192Y-89837685D01*
X91572621Y-89789201D01*
X91563128Y-89769631D01*
X91554457Y-89750305D01*
X91546574Y-89731047D01*
X91539448Y-89711680D01*
X91533044Y-89692028D01*
X91527329Y-89671915D01*
X91522271Y-89651165D01*
X91517836Y-89629602D01*
X91513991Y-89607048D01*
X91510703Y-89583328D01*
X91507939Y-89558265D01*
X91505665Y-89531684D01*
X91503849Y-89503408D01*
X91502458Y-89473260D01*
X91501458Y-89441065D01*
X91500816Y-89406646D01*
X91500335Y-89332051D01*
X91500697Y-89300194D01*
X91501568Y-89271464D01*
X91503028Y-89245488D01*
X91505159Y-89221891D01*
X91508041Y-89200299D01*
X91511755Y-89180337D01*
X91516381Y-89161631D01*
X91522000Y-89143807D01*
X91528693Y-89126491D01*
X91536540Y-89109309D01*
X91545622Y-89091885D01*
X91556021Y-89073846D01*
X91581087Y-89034426D01*
X91590034Y-89021342D01*
X91599582Y-89008191D01*
X91609647Y-88995059D01*
X91620142Y-88982035D01*
X91630981Y-88969203D01*
X91642080Y-88956651D01*
X91653352Y-88944465D01*
X91664711Y-88932731D01*
X91676071Y-88921537D01*
X91687348Y-88910967D01*
X91698454Y-88901110D01*
X91709306Y-88892051D01*
X91719815Y-88883877D01*
X91729898Y-88876675D01*
X91739468Y-88870531D01*
X91748439Y-88865530D01*
X91777583Y-88851904D01*
X91811054Y-88838363D01*
X91848247Y-88825037D01*
X91888560Y-88812051D01*
X91931389Y-88799533D01*
X91976131Y-88787610D01*
X92068944Y-88766055D01*
X92162172Y-88748404D01*
X92207433Y-88741359D01*
X92250990Y-88735671D01*
X92292237Y-88731467D01*
X92330572Y-88728874D01*
X92365393Y-88728018D01*
X92396095Y-88729028D01*
X92415442Y-88730103D01*
X92433624Y-88730733D01*
X92450704Y-88730904D01*
X92466743Y-88730602D01*
X92481804Y-88729813D01*
X92495949Y-88728523D01*
X92509240Y-88726718D01*
X92521739Y-88724384D01*
X92533508Y-88721507D01*
X92544610Y-88718073D01*
X92555107Y-88714067D01*
X92565060Y-88709477D01*
X92574532Y-88704287D01*
X92583585Y-88698484D01*
X92592281Y-88692054D01*
X92600682Y-88684983D01*
X92611028Y-88677987D01*
X92628084Y-88669546D01*
X92651658Y-88659718D01*
X92681558Y-88648558D01*
X92759561Y-88622472D01*
X92860551Y-88591742D01*
X92982986Y-88556823D01*
X93125323Y-88518169D01*
X93286020Y-88476234D01*
X93463533Y-88431473D01*
X94849917Y-88087434D01*
X95433428Y-87942702D01*
X95620029Y-87781053D01*
X95646673Y-87758288D01*
X95672098Y-87737253D01*
X95696500Y-87717837D01*
X95720074Y-87699933D01*
X95743015Y-87683430D01*
X95765520Y-87668220D01*
X95787783Y-87654192D01*
X95809999Y-87641238D01*
X95832365Y-87629249D01*
X95855076Y-87618115D01*
X95878327Y-87607726D01*
X95902314Y-87597975D01*
X95927231Y-87588750D01*
X95953275Y-87579944D01*
X95980641Y-87571446D01*
X96009524Y-87563147D01*
X96052146Y-87551854D01*
X96095542Y-87541331D01*
X96138501Y-87531808D01*
X96179812Y-87523516D01*
X96218264Y-87516684D01*
X96252647Y-87511544D01*
X96281749Y-87508325D01*
X96304359Y-87507258D01*
X96332837Y-87508292D01*
X96363840Y-87511094D01*
X96396929Y-87515533D01*
X96431666Y-87521477D01*
X96467614Y-87528793D01*
X96504334Y-87537349D01*
X96541389Y-87547013D01*
X96578340Y-87557652D01*
X96614750Y-87569136D01*
X96650180Y-87581331D01*
X96684192Y-87594106D01*
X96716349Y-87607328D01*
X96746213Y-87620865D01*
X96773345Y-87634585D01*
X96797307Y-87648356D01*
X96817662Y-87662045D01*
X96832273Y-87672674D01*
X96845694Y-87681985D01*
X96858174Y-87690010D01*
X96869959Y-87696782D01*
X96875668Y-87699708D01*
X96881297Y-87702333D01*
X96886875Y-87704661D01*
X96892434Y-87706696D01*
X96898006Y-87708441D01*
X96903620Y-87709902D01*
X96909307Y-87711081D01*
X96915099Y-87711984D01*
X96921027Y-87712613D01*
X96927121Y-87712974D01*
X96933413Y-87713070D01*
X96939933Y-87712905D01*
X96946712Y-87712483D01*
X96953781Y-87711809D01*
X96968913Y-87709718D01*
X96985577Y-87706664D01*
X97004019Y-87702680D01*
X97024487Y-87697799D01*
X97047229Y-87692052D01*
X97293904Y-87628687D01*
X97350845Y-87614552D01*
X97427198Y-87596158D01*
X97598171Y-87556128D01*
X97938060Y-87473123D01*
X98450702Y-87343381D01*
X98955450Y-87213073D01*
X99271660Y-87128370D01*
X99289253Y-87123552D01*
X99307439Y-87119026D01*
X99345024Y-87110916D01*
X99383291Y-87104178D01*
X99421115Y-87098947D01*
X99457372Y-87095360D01*
X99490939Y-87093552D01*
X99506361Y-87093358D01*
X99520689Y-87093660D01*
X99533782Y-87094474D01*
X99545499Y-87095819D01*
X99559702Y-87097249D01*
X99576571Y-87097662D01*
X99596053Y-87097071D01*
X99618095Y-87095487D01*
X99642643Y-87092920D01*
X99669643Y-87089381D01*
X99699043Y-87084882D01*
X99730787Y-87079434D01*
X99801099Y-87065735D01*
X99880151Y-87048372D01*
X99967513Y-87027434D01*
X100062759Y-87003010D01*
X100406492Y-86914340D01*
X100552791Y-86877903D01*
X100656087Y-86853294D01*
X100774538Y-86825197D01*
X100962107Y-86779304D01*
X101441500Y-86659515D01*
X101634583Y-86610368D01*
X101783589Y-86571071D01*
X101896283Y-86538688D01*
X101941441Y-86524170D01*
X101980435Y-86510280D01*
X102014234Y-86496649D01*
X102043810Y-86482911D01*
X102070133Y-86468698D01*
X102094176Y-86453643D01*
X102116907Y-86437380D01*
X102139300Y-86419541D01*
X102186949Y-86377666D01*
X102201687Y-86363997D01*
X102216426Y-86349762D01*
X102231073Y-86335075D01*
X102245534Y-86320051D01*
X102259714Y-86304803D01*
X102273520Y-86289446D01*
X102286857Y-86274094D01*
X102299631Y-86258860D01*
X102311748Y-86243859D01*
X102323115Y-86229204D01*
X102333637Y-86215011D01*
X102343219Y-86201393D01*
X102351769Y-86188464D01*
X102359191Y-86176338D01*
X102365392Y-86165129D01*
X102370278Y-86154952D01*
X102387310Y-86116884D01*
X102403596Y-86083242D01*
X102411659Y-86067995D01*
X102419775Y-86053753D01*
X102428023Y-86040481D01*
X102436482Y-86028145D01*
X102445234Y-86016712D01*
X102454357Y-86006148D01*
X102463931Y-85996418D01*
X102474036Y-85987489D01*
X102484751Y-85979326D01*
X102496156Y-85971896D01*
X102508331Y-85965165D01*
X102521355Y-85959098D01*
X102535308Y-85953663D01*
X102550270Y-85948824D01*
X102566321Y-85944548D01*
X102583540Y-85940800D01*
X102602006Y-85937548D01*
X102621800Y-85934757D01*
X102643001Y-85932393D01*
X102665689Y-85930422D01*
X102715844Y-85927523D01*
X102772902Y-85925788D01*
X102837502Y-85924947D01*
X102910279Y-85924727D01*
X103282604Y-85924727D01*
X103361375Y-86018343D01*
G37*
%TD.AperFunction*%
%TA.AperFunction,NonConductor*%
G36*
X89856045Y-47410334D02*
G01*
X89860330Y-47410663D01*
X89864554Y-47411203D01*
X89868713Y-47411951D01*
X89872800Y-47412901D01*
X89876810Y-47414046D01*
X89880739Y-47415383D01*
X89884579Y-47416904D01*
X89888327Y-47418605D01*
X89891976Y-47420481D01*
X89895522Y-47422526D01*
X89898958Y-47424734D01*
X89902279Y-47427101D01*
X89905481Y-47429620D01*
X89908556Y-47432286D01*
X89911501Y-47435094D01*
X89914309Y-47438039D01*
X89916976Y-47441114D01*
X89919495Y-47444316D01*
X89921861Y-47447637D01*
X89924070Y-47451073D01*
X89926114Y-47454618D01*
X89927990Y-47458267D01*
X89929692Y-47462015D01*
X89931213Y-47465855D01*
X89932549Y-47469783D01*
X89933695Y-47473793D01*
X89934644Y-47477880D01*
X89935392Y-47482039D01*
X89935933Y-47486263D01*
X89936262Y-47490547D01*
X89936372Y-47494887D01*
X89936262Y-47499225D01*
X89935933Y-47503509D01*
X89935392Y-47507732D01*
X89934644Y-47511890D01*
X89933695Y-47515977D01*
X89932549Y-47519987D01*
X89931213Y-47523915D01*
X89929692Y-47527755D01*
X89927990Y-47531503D01*
X89926114Y-47535152D01*
X89924070Y-47538698D01*
X89921861Y-47542134D01*
X89919495Y-47545456D01*
X89916976Y-47548657D01*
X89914309Y-47551734D01*
X89911501Y-47554679D01*
X89908556Y-47557488D01*
X89905481Y-47560155D01*
X89902279Y-47562674D01*
X89898958Y-47565041D01*
X89895522Y-47567250D01*
X89891976Y-47569296D01*
X89888327Y-47571172D01*
X89884579Y-47572874D01*
X89880739Y-47574396D01*
X89876810Y-47575733D01*
X89872800Y-47576879D01*
X89868713Y-47577829D01*
X89864554Y-47578577D01*
X89860330Y-47579118D01*
X89856045Y-47579447D01*
X89851705Y-47579558D01*
X89847365Y-47579447D01*
X89843080Y-47579118D01*
X89838856Y-47578578D01*
X89834698Y-47577830D01*
X89830610Y-47576880D01*
X89826600Y-47575735D01*
X89822672Y-47574398D01*
X89818831Y-47572877D01*
X89815083Y-47571175D01*
X89811434Y-47569300D01*
X89807889Y-47567255D01*
X89804452Y-47565046D01*
X89801131Y-47562680D01*
X89797930Y-47560161D01*
X89794854Y-47557494D01*
X89791909Y-47554686D01*
X89789101Y-47551741D01*
X89786435Y-47548665D01*
X89783915Y-47545464D01*
X89781549Y-47542142D01*
X89779341Y-47538706D01*
X89777296Y-47535161D01*
X89775420Y-47531511D01*
X89773719Y-47527763D01*
X89772197Y-47523922D01*
X89770861Y-47519994D01*
X89769716Y-47515983D01*
X89768766Y-47511896D01*
X89768018Y-47507737D01*
X89767477Y-47503512D01*
X89767149Y-47499227D01*
X89767038Y-47494887D01*
X89767149Y-47490548D01*
X89767477Y-47486265D01*
X89768018Y-47482041D01*
X89768766Y-47477884D01*
X89769716Y-47473797D01*
X89770861Y-47469787D01*
X89772197Y-47465860D01*
X89773719Y-47462019D01*
X89775420Y-47458272D01*
X89777296Y-47454623D01*
X89779341Y-47451078D01*
X89781549Y-47447642D01*
X89783915Y-47444320D01*
X89786435Y-47441119D01*
X89789101Y-47438043D01*
X89791909Y-47435098D01*
X89794854Y-47432290D01*
X89797930Y-47429623D01*
X89801131Y-47427104D01*
X89804452Y-47424737D01*
X89807889Y-47422529D01*
X89811434Y-47420484D01*
X89815083Y-47418607D01*
X89818831Y-47416906D01*
X89822672Y-47415384D01*
X89826600Y-47414047D01*
X89830610Y-47412902D01*
X89834698Y-47411952D01*
X89838856Y-47411204D01*
X89843080Y-47410663D01*
X89847365Y-47410334D01*
X89851705Y-47410223D01*
X89856045Y-47410334D01*
G37*
%TD.AperFunction*%
D11*
%TO.P,,1*%
%TO.N,N/C*%
X167300000Y-58600000D03*
%TD*%
%TO.P,,1*%
%TO.N,N/C*%
X167300000Y-119500000D03*
%TD*%
M02*
