G04 #@! TF.GenerationSoftware,KiCad,Pcbnew,7.0.11*
G04 #@! TF.CreationDate,2024-11-30T22:12:28-08:00*
G04 #@! TF.ProjectId,poledancer,706f6c65-6461-46e6-9365-722e6b696361,0.1*
G04 #@! TF.SameCoordinates,PX3de4ba0PY6578900*
G04 #@! TF.FileFunction,Legend,Bot*
G04 #@! TF.FilePolarity,Positive*
%FSLAX46Y46*%
G04 Gerber Fmt 4.6, Leading zero omitted, Abs format (unit mm)*
G04 Created by KiCad (PCBNEW 7.0.11) date 2024-11-30 22:12:28*
%MOMM*%
%LPD*%
G01*
G04 APERTURE LIST*
%ADD10C,0.150000*%
%ADD11C,0.090000*%
G04 #@! TA.AperFunction,Profile*
%ADD12C,0.150000*%
G04 #@! TD*
G04 #@! TA.AperFunction,Profile*
%ADD13C,0.050000*%
G04 #@! TD*
G04 APERTURE END LIST*
D10*
X11700000Y73600000D02*
X28450000Y73600000D01*
X28450000Y58000000D01*
X11700000Y58000000D01*
X11700000Y73600000D01*
D11*
X48004761Y14489347D02*
X47395238Y14489347D01*
X47699999Y14184585D02*
X47699999Y14794109D01*
X46633333Y14984585D02*
X47014285Y14984585D01*
X47014285Y14984585D02*
X47052381Y14603633D01*
X47052381Y14603633D02*
X47014285Y14641728D01*
X47014285Y14641728D02*
X46938095Y14679823D01*
X46938095Y14679823D02*
X46747619Y14679823D01*
X46747619Y14679823D02*
X46671428Y14641728D01*
X46671428Y14641728D02*
X46633333Y14603633D01*
X46633333Y14603633D02*
X46595238Y14527442D01*
X46595238Y14527442D02*
X46595238Y14336966D01*
X46595238Y14336966D02*
X46633333Y14260776D01*
X46633333Y14260776D02*
X46671428Y14222680D01*
X46671428Y14222680D02*
X46747619Y14184585D01*
X46747619Y14184585D02*
X46938095Y14184585D01*
X46938095Y14184585D02*
X47014285Y14222680D01*
X47014285Y14222680D02*
X47052381Y14260776D01*
X45642856Y14489347D02*
X45033333Y14489347D01*
X45338094Y14184585D02*
X45338094Y14794109D01*
X44233333Y14184585D02*
X44690476Y14184585D01*
X44461904Y14184585D02*
X44461904Y14984585D01*
X44461904Y14984585D02*
X44538095Y14870300D01*
X44538095Y14870300D02*
X44614285Y14794109D01*
X44614285Y14794109D02*
X44690476Y14756014D01*
X43928571Y14908395D02*
X43890475Y14946490D01*
X43890475Y14946490D02*
X43814285Y14984585D01*
X43814285Y14984585D02*
X43623809Y14984585D01*
X43623809Y14984585D02*
X43547618Y14946490D01*
X43547618Y14946490D02*
X43509523Y14908395D01*
X43509523Y14908395D02*
X43471428Y14832204D01*
X43471428Y14832204D02*
X43471428Y14756014D01*
X43471428Y14756014D02*
X43509523Y14641728D01*
X43509523Y14641728D02*
X43966666Y14184585D01*
X43966666Y14184585D02*
X43471428Y14184585D01*
X43128570Y14489347D02*
X42519047Y14489347D01*
X41719047Y14184585D02*
X42176190Y14184585D01*
X41947618Y14184585D02*
X41947618Y14984585D01*
X41947618Y14984585D02*
X42023809Y14870300D01*
X42023809Y14870300D02*
X42099999Y14794109D01*
X42099999Y14794109D02*
X42176190Y14756014D01*
X41414285Y14908395D02*
X41376189Y14946490D01*
X41376189Y14946490D02*
X41299999Y14984585D01*
X41299999Y14984585D02*
X41109523Y14984585D01*
X41109523Y14984585D02*
X41033332Y14946490D01*
X41033332Y14946490D02*
X40995237Y14908395D01*
X40995237Y14908395D02*
X40957142Y14832204D01*
X40957142Y14832204D02*
X40957142Y14756014D01*
X40957142Y14756014D02*
X40995237Y14641728D01*
X40995237Y14641728D02*
X41452380Y14184585D01*
X41452380Y14184585D02*
X40957142Y14184585D01*
X18802694Y71907061D02*
X18802694Y72907061D01*
X18326504Y71907061D02*
X18326504Y72907061D01*
X18326504Y72907061D02*
X17755076Y71907061D01*
X17755076Y71907061D02*
X17755076Y72907061D01*
X17326504Y72811823D02*
X17278885Y72859442D01*
X17278885Y72859442D02*
X17183647Y72907061D01*
X17183647Y72907061D02*
X16945552Y72907061D01*
X16945552Y72907061D02*
X16850314Y72859442D01*
X16850314Y72859442D02*
X16802695Y72811823D01*
X16802695Y72811823D02*
X16755076Y72716585D01*
X16755076Y72716585D02*
X16755076Y72621347D01*
X16755076Y72621347D02*
X16802695Y72478490D01*
X16802695Y72478490D02*
X17374123Y71907061D01*
X17374123Y71907061D02*
X16755076Y71907061D01*
X16326504Y72002300D02*
X16278885Y71954680D01*
X16278885Y71954680D02*
X16326504Y71907061D01*
X16326504Y71907061D02*
X16374123Y71954680D01*
X16374123Y71954680D02*
X16326504Y72002300D01*
X16326504Y72002300D02*
X16326504Y71907061D01*
X16326504Y72526109D02*
X16278885Y72478490D01*
X16278885Y72478490D02*
X16326504Y72430871D01*
X16326504Y72430871D02*
X16374123Y72478490D01*
X16374123Y72478490D02*
X16326504Y72526109D01*
X16326504Y72526109D02*
X16326504Y72430871D01*
X18231266Y70392300D02*
X18278885Y70344680D01*
X18278885Y70344680D02*
X18421742Y70297061D01*
X18421742Y70297061D02*
X18516980Y70297061D01*
X18516980Y70297061D02*
X18659837Y70344680D01*
X18659837Y70344680D02*
X18755075Y70439919D01*
X18755075Y70439919D02*
X18802694Y70535157D01*
X18802694Y70535157D02*
X18850313Y70725633D01*
X18850313Y70725633D02*
X18850313Y70868490D01*
X18850313Y70868490D02*
X18802694Y71058966D01*
X18802694Y71058966D02*
X18755075Y71154204D01*
X18755075Y71154204D02*
X18659837Y71249442D01*
X18659837Y71249442D02*
X18516980Y71297061D01*
X18516980Y71297061D02*
X18421742Y71297061D01*
X18421742Y71297061D02*
X18278885Y71249442D01*
X18278885Y71249442D02*
X18231266Y71201823D01*
X17850313Y70582776D02*
X17374123Y70582776D01*
X17945551Y70297061D02*
X17612218Y71297061D01*
X17612218Y71297061D02*
X17278885Y70297061D01*
X16374123Y70297061D02*
X16707456Y70773252D01*
X16945551Y70297061D02*
X16945551Y71297061D01*
X16945551Y71297061D02*
X16564599Y71297061D01*
X16564599Y71297061D02*
X16469361Y71249442D01*
X16469361Y71249442D02*
X16421742Y71201823D01*
X16421742Y71201823D02*
X16374123Y71106585D01*
X16374123Y71106585D02*
X16374123Y70963728D01*
X16374123Y70963728D02*
X16421742Y70868490D01*
X16421742Y70868490D02*
X16469361Y70820871D01*
X16469361Y70820871D02*
X16564599Y70773252D01*
X16564599Y70773252D02*
X16945551Y70773252D01*
X15945551Y70297061D02*
X15945551Y71297061D01*
X15945551Y71297061D02*
X15707456Y71297061D01*
X15707456Y71297061D02*
X15564599Y71249442D01*
X15564599Y71249442D02*
X15469361Y71154204D01*
X15469361Y71154204D02*
X15421742Y71058966D01*
X15421742Y71058966D02*
X15374123Y70868490D01*
X15374123Y70868490D02*
X15374123Y70725633D01*
X15374123Y70725633D02*
X15421742Y70535157D01*
X15421742Y70535157D02*
X15469361Y70439919D01*
X15469361Y70439919D02*
X15564599Y70344680D01*
X15564599Y70344680D02*
X15707456Y70297061D01*
X15707456Y70297061D02*
X15945551Y70297061D01*
X14231265Y70582776D02*
X13755075Y70582776D01*
X14326503Y70297061D02*
X13993170Y71297061D01*
X13993170Y71297061D02*
X13659837Y70297061D01*
X12802694Y70297061D02*
X13374122Y70297061D01*
X13088408Y70297061D02*
X13088408Y71297061D01*
X13088408Y71297061D02*
X13183646Y71154204D01*
X13183646Y71154204D02*
X13278884Y71058966D01*
X13278884Y71058966D02*
X13374122Y71011347D01*
X18231266Y68782300D02*
X18278885Y68734680D01*
X18278885Y68734680D02*
X18421742Y68687061D01*
X18421742Y68687061D02*
X18516980Y68687061D01*
X18516980Y68687061D02*
X18659837Y68734680D01*
X18659837Y68734680D02*
X18755075Y68829919D01*
X18755075Y68829919D02*
X18802694Y68925157D01*
X18802694Y68925157D02*
X18850313Y69115633D01*
X18850313Y69115633D02*
X18850313Y69258490D01*
X18850313Y69258490D02*
X18802694Y69448966D01*
X18802694Y69448966D02*
X18755075Y69544204D01*
X18755075Y69544204D02*
X18659837Y69639442D01*
X18659837Y69639442D02*
X18516980Y69687061D01*
X18516980Y69687061D02*
X18421742Y69687061D01*
X18421742Y69687061D02*
X18278885Y69639442D01*
X18278885Y69639442D02*
X18231266Y69591823D01*
X17850313Y68972776D02*
X17374123Y68972776D01*
X17945551Y68687061D02*
X17612218Y69687061D01*
X17612218Y69687061D02*
X17278885Y68687061D01*
X16374123Y68687061D02*
X16707456Y69163252D01*
X16945551Y68687061D02*
X16945551Y69687061D01*
X16945551Y69687061D02*
X16564599Y69687061D01*
X16564599Y69687061D02*
X16469361Y69639442D01*
X16469361Y69639442D02*
X16421742Y69591823D01*
X16421742Y69591823D02*
X16374123Y69496585D01*
X16374123Y69496585D02*
X16374123Y69353728D01*
X16374123Y69353728D02*
X16421742Y69258490D01*
X16421742Y69258490D02*
X16469361Y69210871D01*
X16469361Y69210871D02*
X16564599Y69163252D01*
X16564599Y69163252D02*
X16945551Y69163252D01*
X15945551Y68687061D02*
X15945551Y69687061D01*
X15945551Y69687061D02*
X15707456Y69687061D01*
X15707456Y69687061D02*
X15564599Y69639442D01*
X15564599Y69639442D02*
X15469361Y69544204D01*
X15469361Y69544204D02*
X15421742Y69448966D01*
X15421742Y69448966D02*
X15374123Y69258490D01*
X15374123Y69258490D02*
X15374123Y69115633D01*
X15374123Y69115633D02*
X15421742Y68925157D01*
X15421742Y68925157D02*
X15469361Y68829919D01*
X15469361Y68829919D02*
X15564599Y68734680D01*
X15564599Y68734680D02*
X15707456Y68687061D01*
X15707456Y68687061D02*
X15945551Y68687061D01*
X14231265Y68972776D02*
X13755075Y68972776D01*
X14326503Y68687061D02*
X13993170Y69687061D01*
X13993170Y69687061D02*
X13659837Y68687061D01*
X13374122Y69591823D02*
X13326503Y69639442D01*
X13326503Y69639442D02*
X13231265Y69687061D01*
X13231265Y69687061D02*
X12993170Y69687061D01*
X12993170Y69687061D02*
X12897932Y69639442D01*
X12897932Y69639442D02*
X12850313Y69591823D01*
X12850313Y69591823D02*
X12802694Y69496585D01*
X12802694Y69496585D02*
X12802694Y69401347D01*
X12802694Y69401347D02*
X12850313Y69258490D01*
X12850313Y69258490D02*
X13421741Y68687061D01*
X13421741Y68687061D02*
X12802694Y68687061D01*
X18231266Y67172300D02*
X18278885Y67124680D01*
X18278885Y67124680D02*
X18421742Y67077061D01*
X18421742Y67077061D02*
X18516980Y67077061D01*
X18516980Y67077061D02*
X18659837Y67124680D01*
X18659837Y67124680D02*
X18755075Y67219919D01*
X18755075Y67219919D02*
X18802694Y67315157D01*
X18802694Y67315157D02*
X18850313Y67505633D01*
X18850313Y67505633D02*
X18850313Y67648490D01*
X18850313Y67648490D02*
X18802694Y67838966D01*
X18802694Y67838966D02*
X18755075Y67934204D01*
X18755075Y67934204D02*
X18659837Y68029442D01*
X18659837Y68029442D02*
X18516980Y68077061D01*
X18516980Y68077061D02*
X18421742Y68077061D01*
X18421742Y68077061D02*
X18278885Y68029442D01*
X18278885Y68029442D02*
X18231266Y67981823D01*
X17850313Y67362776D02*
X17374123Y67362776D01*
X17945551Y67077061D02*
X17612218Y68077061D01*
X17612218Y68077061D02*
X17278885Y67077061D01*
X16374123Y67077061D02*
X16707456Y67553252D01*
X16945551Y67077061D02*
X16945551Y68077061D01*
X16945551Y68077061D02*
X16564599Y68077061D01*
X16564599Y68077061D02*
X16469361Y68029442D01*
X16469361Y68029442D02*
X16421742Y67981823D01*
X16421742Y67981823D02*
X16374123Y67886585D01*
X16374123Y67886585D02*
X16374123Y67743728D01*
X16374123Y67743728D02*
X16421742Y67648490D01*
X16421742Y67648490D02*
X16469361Y67600871D01*
X16469361Y67600871D02*
X16564599Y67553252D01*
X16564599Y67553252D02*
X16945551Y67553252D01*
X15945551Y67077061D02*
X15945551Y68077061D01*
X15945551Y68077061D02*
X15707456Y68077061D01*
X15707456Y68077061D02*
X15564599Y68029442D01*
X15564599Y68029442D02*
X15469361Y67934204D01*
X15469361Y67934204D02*
X15421742Y67838966D01*
X15421742Y67838966D02*
X15374123Y67648490D01*
X15374123Y67648490D02*
X15374123Y67505633D01*
X15374123Y67505633D02*
X15421742Y67315157D01*
X15421742Y67315157D02*
X15469361Y67219919D01*
X15469361Y67219919D02*
X15564599Y67124680D01*
X15564599Y67124680D02*
X15707456Y67077061D01*
X15707456Y67077061D02*
X15945551Y67077061D01*
X13850313Y67600871D02*
X13707456Y67553252D01*
X13707456Y67553252D02*
X13659837Y67505633D01*
X13659837Y67505633D02*
X13612218Y67410395D01*
X13612218Y67410395D02*
X13612218Y67267538D01*
X13612218Y67267538D02*
X13659837Y67172300D01*
X13659837Y67172300D02*
X13707456Y67124680D01*
X13707456Y67124680D02*
X13802694Y67077061D01*
X13802694Y67077061D02*
X14183646Y67077061D01*
X14183646Y67077061D02*
X14183646Y68077061D01*
X14183646Y68077061D02*
X13850313Y68077061D01*
X13850313Y68077061D02*
X13755075Y68029442D01*
X13755075Y68029442D02*
X13707456Y67981823D01*
X13707456Y67981823D02*
X13659837Y67886585D01*
X13659837Y67886585D02*
X13659837Y67791347D01*
X13659837Y67791347D02*
X13707456Y67696109D01*
X13707456Y67696109D02*
X13755075Y67648490D01*
X13755075Y67648490D02*
X13850313Y67600871D01*
X13850313Y67600871D02*
X14183646Y67600871D01*
X12659837Y67077061D02*
X13231265Y67077061D01*
X12945551Y67077061D02*
X12945551Y68077061D01*
X12945551Y68077061D02*
X13040789Y67934204D01*
X13040789Y67934204D02*
X13136027Y67838966D01*
X13136027Y67838966D02*
X13231265Y67791347D01*
X18231266Y65562300D02*
X18278885Y65514680D01*
X18278885Y65514680D02*
X18421742Y65467061D01*
X18421742Y65467061D02*
X18516980Y65467061D01*
X18516980Y65467061D02*
X18659837Y65514680D01*
X18659837Y65514680D02*
X18755075Y65609919D01*
X18755075Y65609919D02*
X18802694Y65705157D01*
X18802694Y65705157D02*
X18850313Y65895633D01*
X18850313Y65895633D02*
X18850313Y66038490D01*
X18850313Y66038490D02*
X18802694Y66228966D01*
X18802694Y66228966D02*
X18755075Y66324204D01*
X18755075Y66324204D02*
X18659837Y66419442D01*
X18659837Y66419442D02*
X18516980Y66467061D01*
X18516980Y66467061D02*
X18421742Y66467061D01*
X18421742Y66467061D02*
X18278885Y66419442D01*
X18278885Y66419442D02*
X18231266Y66371823D01*
X17850313Y65752776D02*
X17374123Y65752776D01*
X17945551Y65467061D02*
X17612218Y66467061D01*
X17612218Y66467061D02*
X17278885Y65467061D01*
X16374123Y65467061D02*
X16707456Y65943252D01*
X16945551Y65467061D02*
X16945551Y66467061D01*
X16945551Y66467061D02*
X16564599Y66467061D01*
X16564599Y66467061D02*
X16469361Y66419442D01*
X16469361Y66419442D02*
X16421742Y66371823D01*
X16421742Y66371823D02*
X16374123Y66276585D01*
X16374123Y66276585D02*
X16374123Y66133728D01*
X16374123Y66133728D02*
X16421742Y66038490D01*
X16421742Y66038490D02*
X16469361Y65990871D01*
X16469361Y65990871D02*
X16564599Y65943252D01*
X16564599Y65943252D02*
X16945551Y65943252D01*
X15945551Y65467061D02*
X15945551Y66467061D01*
X15945551Y66467061D02*
X15707456Y66467061D01*
X15707456Y66467061D02*
X15564599Y66419442D01*
X15564599Y66419442D02*
X15469361Y66324204D01*
X15469361Y66324204D02*
X15421742Y66228966D01*
X15421742Y66228966D02*
X15374123Y66038490D01*
X15374123Y66038490D02*
X15374123Y65895633D01*
X15374123Y65895633D02*
X15421742Y65705157D01*
X15421742Y65705157D02*
X15469361Y65609919D01*
X15469361Y65609919D02*
X15564599Y65514680D01*
X15564599Y65514680D02*
X15707456Y65467061D01*
X15707456Y65467061D02*
X15945551Y65467061D01*
X13850313Y65990871D02*
X13707456Y65943252D01*
X13707456Y65943252D02*
X13659837Y65895633D01*
X13659837Y65895633D02*
X13612218Y65800395D01*
X13612218Y65800395D02*
X13612218Y65657538D01*
X13612218Y65657538D02*
X13659837Y65562300D01*
X13659837Y65562300D02*
X13707456Y65514680D01*
X13707456Y65514680D02*
X13802694Y65467061D01*
X13802694Y65467061D02*
X14183646Y65467061D01*
X14183646Y65467061D02*
X14183646Y66467061D01*
X14183646Y66467061D02*
X13850313Y66467061D01*
X13850313Y66467061D02*
X13755075Y66419442D01*
X13755075Y66419442D02*
X13707456Y66371823D01*
X13707456Y66371823D02*
X13659837Y66276585D01*
X13659837Y66276585D02*
X13659837Y66181347D01*
X13659837Y66181347D02*
X13707456Y66086109D01*
X13707456Y66086109D02*
X13755075Y66038490D01*
X13755075Y66038490D02*
X13850313Y65990871D01*
X13850313Y65990871D02*
X14183646Y65990871D01*
X13231265Y66371823D02*
X13183646Y66419442D01*
X13183646Y66419442D02*
X13088408Y66467061D01*
X13088408Y66467061D02*
X12850313Y66467061D01*
X12850313Y66467061D02*
X12755075Y66419442D01*
X12755075Y66419442D02*
X12707456Y66371823D01*
X12707456Y66371823D02*
X12659837Y66276585D01*
X12659837Y66276585D02*
X12659837Y66181347D01*
X12659837Y66181347D02*
X12707456Y66038490D01*
X12707456Y66038490D02*
X13278884Y65467061D01*
X13278884Y65467061D02*
X12659837Y65467061D01*
X18231266Y63952300D02*
X18278885Y63904680D01*
X18278885Y63904680D02*
X18421742Y63857061D01*
X18421742Y63857061D02*
X18516980Y63857061D01*
X18516980Y63857061D02*
X18659837Y63904680D01*
X18659837Y63904680D02*
X18755075Y63999919D01*
X18755075Y63999919D02*
X18802694Y64095157D01*
X18802694Y64095157D02*
X18850313Y64285633D01*
X18850313Y64285633D02*
X18850313Y64428490D01*
X18850313Y64428490D02*
X18802694Y64618966D01*
X18802694Y64618966D02*
X18755075Y64714204D01*
X18755075Y64714204D02*
X18659837Y64809442D01*
X18659837Y64809442D02*
X18516980Y64857061D01*
X18516980Y64857061D02*
X18421742Y64857061D01*
X18421742Y64857061D02*
X18278885Y64809442D01*
X18278885Y64809442D02*
X18231266Y64761823D01*
X17850313Y64142776D02*
X17374123Y64142776D01*
X17945551Y63857061D02*
X17612218Y64857061D01*
X17612218Y64857061D02*
X17278885Y63857061D01*
X16374123Y63857061D02*
X16707456Y64333252D01*
X16945551Y63857061D02*
X16945551Y64857061D01*
X16945551Y64857061D02*
X16564599Y64857061D01*
X16564599Y64857061D02*
X16469361Y64809442D01*
X16469361Y64809442D02*
X16421742Y64761823D01*
X16421742Y64761823D02*
X16374123Y64666585D01*
X16374123Y64666585D02*
X16374123Y64523728D01*
X16374123Y64523728D02*
X16421742Y64428490D01*
X16421742Y64428490D02*
X16469361Y64380871D01*
X16469361Y64380871D02*
X16564599Y64333252D01*
X16564599Y64333252D02*
X16945551Y64333252D01*
X15945551Y63857061D02*
X15945551Y64857061D01*
X15945551Y64857061D02*
X15707456Y64857061D01*
X15707456Y64857061D02*
X15564599Y64809442D01*
X15564599Y64809442D02*
X15469361Y64714204D01*
X15469361Y64714204D02*
X15421742Y64618966D01*
X15421742Y64618966D02*
X15374123Y64428490D01*
X15374123Y64428490D02*
X15374123Y64285633D01*
X15374123Y64285633D02*
X15421742Y64095157D01*
X15421742Y64095157D02*
X15469361Y63999919D01*
X15469361Y63999919D02*
X15564599Y63904680D01*
X15564599Y63904680D02*
X15707456Y63857061D01*
X15707456Y63857061D02*
X15945551Y63857061D01*
X13612218Y63952300D02*
X13659837Y63904680D01*
X13659837Y63904680D02*
X13802694Y63857061D01*
X13802694Y63857061D02*
X13897932Y63857061D01*
X13897932Y63857061D02*
X14040789Y63904680D01*
X14040789Y63904680D02*
X14136027Y63999919D01*
X14136027Y63999919D02*
X14183646Y64095157D01*
X14183646Y64095157D02*
X14231265Y64285633D01*
X14231265Y64285633D02*
X14231265Y64428490D01*
X14231265Y64428490D02*
X14183646Y64618966D01*
X14183646Y64618966D02*
X14136027Y64714204D01*
X14136027Y64714204D02*
X14040789Y64809442D01*
X14040789Y64809442D02*
X13897932Y64857061D01*
X13897932Y64857061D02*
X13802694Y64857061D01*
X13802694Y64857061D02*
X13659837Y64809442D01*
X13659837Y64809442D02*
X13612218Y64761823D01*
X13231265Y64761823D02*
X13183646Y64809442D01*
X13183646Y64809442D02*
X13088408Y64857061D01*
X13088408Y64857061D02*
X12850313Y64857061D01*
X12850313Y64857061D02*
X12755075Y64809442D01*
X12755075Y64809442D02*
X12707456Y64761823D01*
X12707456Y64761823D02*
X12659837Y64666585D01*
X12659837Y64666585D02*
X12659837Y64571347D01*
X12659837Y64571347D02*
X12707456Y64428490D01*
X12707456Y64428490D02*
X13278884Y63857061D01*
X13278884Y63857061D02*
X12659837Y63857061D01*
X18231266Y62342300D02*
X18278885Y62294680D01*
X18278885Y62294680D02*
X18421742Y62247061D01*
X18421742Y62247061D02*
X18516980Y62247061D01*
X18516980Y62247061D02*
X18659837Y62294680D01*
X18659837Y62294680D02*
X18755075Y62389919D01*
X18755075Y62389919D02*
X18802694Y62485157D01*
X18802694Y62485157D02*
X18850313Y62675633D01*
X18850313Y62675633D02*
X18850313Y62818490D01*
X18850313Y62818490D02*
X18802694Y63008966D01*
X18802694Y63008966D02*
X18755075Y63104204D01*
X18755075Y63104204D02*
X18659837Y63199442D01*
X18659837Y63199442D02*
X18516980Y63247061D01*
X18516980Y63247061D02*
X18421742Y63247061D01*
X18421742Y63247061D02*
X18278885Y63199442D01*
X18278885Y63199442D02*
X18231266Y63151823D01*
X17850313Y62532776D02*
X17374123Y62532776D01*
X17945551Y62247061D02*
X17612218Y63247061D01*
X17612218Y63247061D02*
X17278885Y62247061D01*
X16374123Y62247061D02*
X16707456Y62723252D01*
X16945551Y62247061D02*
X16945551Y63247061D01*
X16945551Y63247061D02*
X16564599Y63247061D01*
X16564599Y63247061D02*
X16469361Y63199442D01*
X16469361Y63199442D02*
X16421742Y63151823D01*
X16421742Y63151823D02*
X16374123Y63056585D01*
X16374123Y63056585D02*
X16374123Y62913728D01*
X16374123Y62913728D02*
X16421742Y62818490D01*
X16421742Y62818490D02*
X16469361Y62770871D01*
X16469361Y62770871D02*
X16564599Y62723252D01*
X16564599Y62723252D02*
X16945551Y62723252D01*
X15945551Y62247061D02*
X15945551Y63247061D01*
X15945551Y63247061D02*
X15707456Y63247061D01*
X15707456Y63247061D02*
X15564599Y63199442D01*
X15564599Y63199442D02*
X15469361Y63104204D01*
X15469361Y63104204D02*
X15421742Y63008966D01*
X15421742Y63008966D02*
X15374123Y62818490D01*
X15374123Y62818490D02*
X15374123Y62675633D01*
X15374123Y62675633D02*
X15421742Y62485157D01*
X15421742Y62485157D02*
X15469361Y62389919D01*
X15469361Y62389919D02*
X15564599Y62294680D01*
X15564599Y62294680D02*
X15707456Y62247061D01*
X15707456Y62247061D02*
X15945551Y62247061D01*
X14183646Y62247061D02*
X14183646Y63247061D01*
X14183646Y63247061D02*
X13945551Y63247061D01*
X13945551Y63247061D02*
X13802694Y63199442D01*
X13802694Y63199442D02*
X13707456Y63104204D01*
X13707456Y63104204D02*
X13659837Y63008966D01*
X13659837Y63008966D02*
X13612218Y62818490D01*
X13612218Y62818490D02*
X13612218Y62675633D01*
X13612218Y62675633D02*
X13659837Y62485157D01*
X13659837Y62485157D02*
X13707456Y62389919D01*
X13707456Y62389919D02*
X13802694Y62294680D01*
X13802694Y62294680D02*
X13945551Y62247061D01*
X13945551Y62247061D02*
X14183646Y62247061D01*
X12659837Y62247061D02*
X13231265Y62247061D01*
X12945551Y62247061D02*
X12945551Y63247061D01*
X12945551Y63247061D02*
X13040789Y63104204D01*
X13040789Y63104204D02*
X13136027Y63008966D01*
X13136027Y63008966D02*
X13231265Y62961347D01*
X18231266Y60732300D02*
X18278885Y60684680D01*
X18278885Y60684680D02*
X18421742Y60637061D01*
X18421742Y60637061D02*
X18516980Y60637061D01*
X18516980Y60637061D02*
X18659837Y60684680D01*
X18659837Y60684680D02*
X18755075Y60779919D01*
X18755075Y60779919D02*
X18802694Y60875157D01*
X18802694Y60875157D02*
X18850313Y61065633D01*
X18850313Y61065633D02*
X18850313Y61208490D01*
X18850313Y61208490D02*
X18802694Y61398966D01*
X18802694Y61398966D02*
X18755075Y61494204D01*
X18755075Y61494204D02*
X18659837Y61589442D01*
X18659837Y61589442D02*
X18516980Y61637061D01*
X18516980Y61637061D02*
X18421742Y61637061D01*
X18421742Y61637061D02*
X18278885Y61589442D01*
X18278885Y61589442D02*
X18231266Y61541823D01*
X17850313Y60922776D02*
X17374123Y60922776D01*
X17945551Y60637061D02*
X17612218Y61637061D01*
X17612218Y61637061D02*
X17278885Y60637061D01*
X16374123Y60637061D02*
X16707456Y61113252D01*
X16945551Y60637061D02*
X16945551Y61637061D01*
X16945551Y61637061D02*
X16564599Y61637061D01*
X16564599Y61637061D02*
X16469361Y61589442D01*
X16469361Y61589442D02*
X16421742Y61541823D01*
X16421742Y61541823D02*
X16374123Y61446585D01*
X16374123Y61446585D02*
X16374123Y61303728D01*
X16374123Y61303728D02*
X16421742Y61208490D01*
X16421742Y61208490D02*
X16469361Y61160871D01*
X16469361Y61160871D02*
X16564599Y61113252D01*
X16564599Y61113252D02*
X16945551Y61113252D01*
X15945551Y60637061D02*
X15945551Y61637061D01*
X15945551Y61637061D02*
X15707456Y61637061D01*
X15707456Y61637061D02*
X15564599Y61589442D01*
X15564599Y61589442D02*
X15469361Y61494204D01*
X15469361Y61494204D02*
X15421742Y61398966D01*
X15421742Y61398966D02*
X15374123Y61208490D01*
X15374123Y61208490D02*
X15374123Y61065633D01*
X15374123Y61065633D02*
X15421742Y60875157D01*
X15421742Y60875157D02*
X15469361Y60779919D01*
X15469361Y60779919D02*
X15564599Y60684680D01*
X15564599Y60684680D02*
X15707456Y60637061D01*
X15707456Y60637061D02*
X15945551Y60637061D01*
X14183646Y61160871D02*
X13850313Y61160871D01*
X13707456Y60637061D02*
X14183646Y60637061D01*
X14183646Y60637061D02*
X14183646Y61637061D01*
X14183646Y61637061D02*
X13707456Y61637061D01*
X13326503Y61541823D02*
X13278884Y61589442D01*
X13278884Y61589442D02*
X13183646Y61637061D01*
X13183646Y61637061D02*
X12945551Y61637061D01*
X12945551Y61637061D02*
X12850313Y61589442D01*
X12850313Y61589442D02*
X12802694Y61541823D01*
X12802694Y61541823D02*
X12755075Y61446585D01*
X12755075Y61446585D02*
X12755075Y61351347D01*
X12755075Y61351347D02*
X12802694Y61208490D01*
X12802694Y61208490D02*
X13374122Y60637061D01*
X13374122Y60637061D02*
X12755075Y60637061D01*
X18231266Y59122300D02*
X18278885Y59074680D01*
X18278885Y59074680D02*
X18421742Y59027061D01*
X18421742Y59027061D02*
X18516980Y59027061D01*
X18516980Y59027061D02*
X18659837Y59074680D01*
X18659837Y59074680D02*
X18755075Y59169919D01*
X18755075Y59169919D02*
X18802694Y59265157D01*
X18802694Y59265157D02*
X18850313Y59455633D01*
X18850313Y59455633D02*
X18850313Y59598490D01*
X18850313Y59598490D02*
X18802694Y59788966D01*
X18802694Y59788966D02*
X18755075Y59884204D01*
X18755075Y59884204D02*
X18659837Y59979442D01*
X18659837Y59979442D02*
X18516980Y60027061D01*
X18516980Y60027061D02*
X18421742Y60027061D01*
X18421742Y60027061D02*
X18278885Y59979442D01*
X18278885Y59979442D02*
X18231266Y59931823D01*
X17850313Y59312776D02*
X17374123Y59312776D01*
X17945551Y59027061D02*
X17612218Y60027061D01*
X17612218Y60027061D02*
X17278885Y59027061D01*
X16374123Y59027061D02*
X16707456Y59503252D01*
X16945551Y59027061D02*
X16945551Y60027061D01*
X16945551Y60027061D02*
X16564599Y60027061D01*
X16564599Y60027061D02*
X16469361Y59979442D01*
X16469361Y59979442D02*
X16421742Y59931823D01*
X16421742Y59931823D02*
X16374123Y59836585D01*
X16374123Y59836585D02*
X16374123Y59693728D01*
X16374123Y59693728D02*
X16421742Y59598490D01*
X16421742Y59598490D02*
X16469361Y59550871D01*
X16469361Y59550871D02*
X16564599Y59503252D01*
X16564599Y59503252D02*
X16945551Y59503252D01*
X15945551Y59027061D02*
X15945551Y60027061D01*
X15945551Y60027061D02*
X15707456Y60027061D01*
X15707456Y60027061D02*
X15564599Y59979442D01*
X15564599Y59979442D02*
X15469361Y59884204D01*
X15469361Y59884204D02*
X15421742Y59788966D01*
X15421742Y59788966D02*
X15374123Y59598490D01*
X15374123Y59598490D02*
X15374123Y59455633D01*
X15374123Y59455633D02*
X15421742Y59265157D01*
X15421742Y59265157D02*
X15469361Y59169919D01*
X15469361Y59169919D02*
X15564599Y59074680D01*
X15564599Y59074680D02*
X15707456Y59027061D01*
X15707456Y59027061D02*
X15945551Y59027061D01*
X13850313Y59550871D02*
X14183646Y59550871D01*
X14183646Y59027061D02*
X14183646Y60027061D01*
X14183646Y60027061D02*
X13707456Y60027061D01*
X12802694Y59027061D02*
X13374122Y59027061D01*
X13088408Y59027061D02*
X13088408Y60027061D01*
X13088408Y60027061D02*
X13183646Y59884204D01*
X13183646Y59884204D02*
X13278884Y59788966D01*
X13278884Y59788966D02*
X13374122Y59741347D01*
X75509523Y43196490D02*
X75585713Y43234585D01*
X75585713Y43234585D02*
X75699999Y43234585D01*
X75699999Y43234585D02*
X75814285Y43196490D01*
X75814285Y43196490D02*
X75890475Y43120300D01*
X75890475Y43120300D02*
X75928570Y43044109D01*
X75928570Y43044109D02*
X75966666Y42891728D01*
X75966666Y42891728D02*
X75966666Y42777442D01*
X75966666Y42777442D02*
X75928570Y42625061D01*
X75928570Y42625061D02*
X75890475Y42548871D01*
X75890475Y42548871D02*
X75814285Y42472680D01*
X75814285Y42472680D02*
X75699999Y42434585D01*
X75699999Y42434585D02*
X75623808Y42434585D01*
X75623808Y42434585D02*
X75509523Y42472680D01*
X75509523Y42472680D02*
X75471427Y42510776D01*
X75471427Y42510776D02*
X75471427Y42777442D01*
X75471427Y42777442D02*
X75623808Y42777442D01*
X75128570Y42434585D02*
X75128570Y43234585D01*
X75128570Y43234585D02*
X74671427Y42434585D01*
X74671427Y42434585D02*
X74671427Y43234585D01*
X74290475Y42434585D02*
X74290475Y43234585D01*
X74290475Y43234585D02*
X74099999Y43234585D01*
X74099999Y43234585D02*
X73985713Y43196490D01*
X73985713Y43196490D02*
X73909523Y43120300D01*
X73909523Y43120300D02*
X73871428Y43044109D01*
X73871428Y43044109D02*
X73833332Y42891728D01*
X73833332Y42891728D02*
X73833332Y42777442D01*
X73833332Y42777442D02*
X73871428Y42625061D01*
X73871428Y42625061D02*
X73909523Y42548871D01*
X73909523Y42548871D02*
X73985713Y42472680D01*
X73985713Y42472680D02*
X74099999Y42434585D01*
X74099999Y42434585D02*
X74290475Y42434585D01*
X13658727Y9264286D02*
X12992060Y9264286D01*
X14039680Y9026191D02*
X13325394Y8788096D01*
X13325394Y8788096D02*
X13325394Y9407143D01*
X13992060Y9978572D02*
X13992060Y10073810D01*
X13992060Y10073810D02*
X13944441Y10169048D01*
X13944441Y10169048D02*
X13896822Y10216667D01*
X13896822Y10216667D02*
X13801584Y10264286D01*
X13801584Y10264286D02*
X13611108Y10311905D01*
X13611108Y10311905D02*
X13373013Y10311905D01*
X13373013Y10311905D02*
X13182537Y10264286D01*
X13182537Y10264286D02*
X13087299Y10216667D01*
X13087299Y10216667D02*
X13039680Y10169048D01*
X13039680Y10169048D02*
X12992060Y10073810D01*
X12992060Y10073810D02*
X12992060Y9978572D01*
X12992060Y9978572D02*
X13039680Y9883334D01*
X13039680Y9883334D02*
X13087299Y9835715D01*
X13087299Y9835715D02*
X13182537Y9788096D01*
X13182537Y9788096D02*
X13373013Y9740477D01*
X13373013Y9740477D02*
X13611108Y9740477D01*
X13611108Y9740477D02*
X13801584Y9788096D01*
X13801584Y9788096D02*
X13896822Y9835715D01*
X13896822Y9835715D02*
X13944441Y9883334D01*
X13944441Y9883334D02*
X13992060Y9978572D01*
D10*
X67245180Y13335715D02*
X67245180Y12764287D01*
X67245180Y13050001D02*
X68245180Y13050001D01*
X68245180Y13050001D02*
X68102323Y12954763D01*
X68102323Y12954763D02*
X68007085Y12859525D01*
X68007085Y12859525D02*
X67959466Y12764287D01*
D11*
X26602694Y71907061D02*
X26602694Y72907061D01*
X26126504Y71907061D02*
X26126504Y72907061D01*
X26126504Y72907061D02*
X25555076Y71907061D01*
X25555076Y71907061D02*
X25555076Y72907061D01*
X24555076Y71907061D02*
X25126504Y71907061D01*
X24840790Y71907061D02*
X24840790Y72907061D01*
X24840790Y72907061D02*
X24936028Y72764204D01*
X24936028Y72764204D02*
X25031266Y72668966D01*
X25031266Y72668966D02*
X25126504Y72621347D01*
X24126504Y72002300D02*
X24078885Y71954680D01*
X24078885Y71954680D02*
X24126504Y71907061D01*
X24126504Y71907061D02*
X24174123Y71954680D01*
X24174123Y71954680D02*
X24126504Y72002300D01*
X24126504Y72002300D02*
X24126504Y71907061D01*
X24126504Y72526109D02*
X24078885Y72478490D01*
X24078885Y72478490D02*
X24126504Y72430871D01*
X24126504Y72430871D02*
X24174123Y72478490D01*
X24174123Y72478490D02*
X24126504Y72526109D01*
X24126504Y72526109D02*
X24126504Y72430871D01*
X26031266Y70392300D02*
X26078885Y70344680D01*
X26078885Y70344680D02*
X26221742Y70297061D01*
X26221742Y70297061D02*
X26316980Y70297061D01*
X26316980Y70297061D02*
X26459837Y70344680D01*
X26459837Y70344680D02*
X26555075Y70439919D01*
X26555075Y70439919D02*
X26602694Y70535157D01*
X26602694Y70535157D02*
X26650313Y70725633D01*
X26650313Y70725633D02*
X26650313Y70868490D01*
X26650313Y70868490D02*
X26602694Y71058966D01*
X26602694Y71058966D02*
X26555075Y71154204D01*
X26555075Y71154204D02*
X26459837Y71249442D01*
X26459837Y71249442D02*
X26316980Y71297061D01*
X26316980Y71297061D02*
X26221742Y71297061D01*
X26221742Y71297061D02*
X26078885Y71249442D01*
X26078885Y71249442D02*
X26031266Y71201823D01*
X25650313Y70582776D02*
X25174123Y70582776D01*
X25745551Y70297061D02*
X25412218Y71297061D01*
X25412218Y71297061D02*
X25078885Y70297061D01*
X24174123Y70297061D02*
X24507456Y70773252D01*
X24745551Y70297061D02*
X24745551Y71297061D01*
X24745551Y71297061D02*
X24364599Y71297061D01*
X24364599Y71297061D02*
X24269361Y71249442D01*
X24269361Y71249442D02*
X24221742Y71201823D01*
X24221742Y71201823D02*
X24174123Y71106585D01*
X24174123Y71106585D02*
X24174123Y70963728D01*
X24174123Y70963728D02*
X24221742Y70868490D01*
X24221742Y70868490D02*
X24269361Y70820871D01*
X24269361Y70820871D02*
X24364599Y70773252D01*
X24364599Y70773252D02*
X24745551Y70773252D01*
X23745551Y70297061D02*
X23745551Y71297061D01*
X23745551Y71297061D02*
X23507456Y71297061D01*
X23507456Y71297061D02*
X23364599Y71249442D01*
X23364599Y71249442D02*
X23269361Y71154204D01*
X23269361Y71154204D02*
X23221742Y71058966D01*
X23221742Y71058966D02*
X23174123Y70868490D01*
X23174123Y70868490D02*
X23174123Y70725633D01*
X23174123Y70725633D02*
X23221742Y70535157D01*
X23221742Y70535157D02*
X23269361Y70439919D01*
X23269361Y70439919D02*
X23364599Y70344680D01*
X23364599Y70344680D02*
X23507456Y70297061D01*
X23507456Y70297061D02*
X23745551Y70297061D01*
X22031265Y70582776D02*
X21555075Y70582776D01*
X22126503Y70297061D02*
X21793170Y71297061D01*
X21793170Y71297061D02*
X21459837Y70297061D01*
X20602694Y70297061D02*
X21174122Y70297061D01*
X20888408Y70297061D02*
X20888408Y71297061D01*
X20888408Y71297061D02*
X20983646Y71154204D01*
X20983646Y71154204D02*
X21078884Y71058966D01*
X21078884Y71058966D02*
X21174122Y71011347D01*
X26031266Y68782300D02*
X26078885Y68734680D01*
X26078885Y68734680D02*
X26221742Y68687061D01*
X26221742Y68687061D02*
X26316980Y68687061D01*
X26316980Y68687061D02*
X26459837Y68734680D01*
X26459837Y68734680D02*
X26555075Y68829919D01*
X26555075Y68829919D02*
X26602694Y68925157D01*
X26602694Y68925157D02*
X26650313Y69115633D01*
X26650313Y69115633D02*
X26650313Y69258490D01*
X26650313Y69258490D02*
X26602694Y69448966D01*
X26602694Y69448966D02*
X26555075Y69544204D01*
X26555075Y69544204D02*
X26459837Y69639442D01*
X26459837Y69639442D02*
X26316980Y69687061D01*
X26316980Y69687061D02*
X26221742Y69687061D01*
X26221742Y69687061D02*
X26078885Y69639442D01*
X26078885Y69639442D02*
X26031266Y69591823D01*
X25650313Y68972776D02*
X25174123Y68972776D01*
X25745551Y68687061D02*
X25412218Y69687061D01*
X25412218Y69687061D02*
X25078885Y68687061D01*
X24174123Y68687061D02*
X24507456Y69163252D01*
X24745551Y68687061D02*
X24745551Y69687061D01*
X24745551Y69687061D02*
X24364599Y69687061D01*
X24364599Y69687061D02*
X24269361Y69639442D01*
X24269361Y69639442D02*
X24221742Y69591823D01*
X24221742Y69591823D02*
X24174123Y69496585D01*
X24174123Y69496585D02*
X24174123Y69353728D01*
X24174123Y69353728D02*
X24221742Y69258490D01*
X24221742Y69258490D02*
X24269361Y69210871D01*
X24269361Y69210871D02*
X24364599Y69163252D01*
X24364599Y69163252D02*
X24745551Y69163252D01*
X23745551Y68687061D02*
X23745551Y69687061D01*
X23745551Y69687061D02*
X23507456Y69687061D01*
X23507456Y69687061D02*
X23364599Y69639442D01*
X23364599Y69639442D02*
X23269361Y69544204D01*
X23269361Y69544204D02*
X23221742Y69448966D01*
X23221742Y69448966D02*
X23174123Y69258490D01*
X23174123Y69258490D02*
X23174123Y69115633D01*
X23174123Y69115633D02*
X23221742Y68925157D01*
X23221742Y68925157D02*
X23269361Y68829919D01*
X23269361Y68829919D02*
X23364599Y68734680D01*
X23364599Y68734680D02*
X23507456Y68687061D01*
X23507456Y68687061D02*
X23745551Y68687061D01*
X22031265Y68972776D02*
X21555075Y68972776D01*
X22126503Y68687061D02*
X21793170Y69687061D01*
X21793170Y69687061D02*
X21459837Y68687061D01*
X21174122Y69591823D02*
X21126503Y69639442D01*
X21126503Y69639442D02*
X21031265Y69687061D01*
X21031265Y69687061D02*
X20793170Y69687061D01*
X20793170Y69687061D02*
X20697932Y69639442D01*
X20697932Y69639442D02*
X20650313Y69591823D01*
X20650313Y69591823D02*
X20602694Y69496585D01*
X20602694Y69496585D02*
X20602694Y69401347D01*
X20602694Y69401347D02*
X20650313Y69258490D01*
X20650313Y69258490D02*
X21221741Y68687061D01*
X21221741Y68687061D02*
X20602694Y68687061D01*
X26031266Y67172300D02*
X26078885Y67124680D01*
X26078885Y67124680D02*
X26221742Y67077061D01*
X26221742Y67077061D02*
X26316980Y67077061D01*
X26316980Y67077061D02*
X26459837Y67124680D01*
X26459837Y67124680D02*
X26555075Y67219919D01*
X26555075Y67219919D02*
X26602694Y67315157D01*
X26602694Y67315157D02*
X26650313Y67505633D01*
X26650313Y67505633D02*
X26650313Y67648490D01*
X26650313Y67648490D02*
X26602694Y67838966D01*
X26602694Y67838966D02*
X26555075Y67934204D01*
X26555075Y67934204D02*
X26459837Y68029442D01*
X26459837Y68029442D02*
X26316980Y68077061D01*
X26316980Y68077061D02*
X26221742Y68077061D01*
X26221742Y68077061D02*
X26078885Y68029442D01*
X26078885Y68029442D02*
X26031266Y67981823D01*
X25650313Y67362776D02*
X25174123Y67362776D01*
X25745551Y67077061D02*
X25412218Y68077061D01*
X25412218Y68077061D02*
X25078885Y67077061D01*
X24174123Y67077061D02*
X24507456Y67553252D01*
X24745551Y67077061D02*
X24745551Y68077061D01*
X24745551Y68077061D02*
X24364599Y68077061D01*
X24364599Y68077061D02*
X24269361Y68029442D01*
X24269361Y68029442D02*
X24221742Y67981823D01*
X24221742Y67981823D02*
X24174123Y67886585D01*
X24174123Y67886585D02*
X24174123Y67743728D01*
X24174123Y67743728D02*
X24221742Y67648490D01*
X24221742Y67648490D02*
X24269361Y67600871D01*
X24269361Y67600871D02*
X24364599Y67553252D01*
X24364599Y67553252D02*
X24745551Y67553252D01*
X23745551Y67077061D02*
X23745551Y68077061D01*
X23745551Y68077061D02*
X23507456Y68077061D01*
X23507456Y68077061D02*
X23364599Y68029442D01*
X23364599Y68029442D02*
X23269361Y67934204D01*
X23269361Y67934204D02*
X23221742Y67838966D01*
X23221742Y67838966D02*
X23174123Y67648490D01*
X23174123Y67648490D02*
X23174123Y67505633D01*
X23174123Y67505633D02*
X23221742Y67315157D01*
X23221742Y67315157D02*
X23269361Y67219919D01*
X23269361Y67219919D02*
X23364599Y67124680D01*
X23364599Y67124680D02*
X23507456Y67077061D01*
X23507456Y67077061D02*
X23745551Y67077061D01*
X21650313Y67600871D02*
X21507456Y67553252D01*
X21507456Y67553252D02*
X21459837Y67505633D01*
X21459837Y67505633D02*
X21412218Y67410395D01*
X21412218Y67410395D02*
X21412218Y67267538D01*
X21412218Y67267538D02*
X21459837Y67172300D01*
X21459837Y67172300D02*
X21507456Y67124680D01*
X21507456Y67124680D02*
X21602694Y67077061D01*
X21602694Y67077061D02*
X21983646Y67077061D01*
X21983646Y67077061D02*
X21983646Y68077061D01*
X21983646Y68077061D02*
X21650313Y68077061D01*
X21650313Y68077061D02*
X21555075Y68029442D01*
X21555075Y68029442D02*
X21507456Y67981823D01*
X21507456Y67981823D02*
X21459837Y67886585D01*
X21459837Y67886585D02*
X21459837Y67791347D01*
X21459837Y67791347D02*
X21507456Y67696109D01*
X21507456Y67696109D02*
X21555075Y67648490D01*
X21555075Y67648490D02*
X21650313Y67600871D01*
X21650313Y67600871D02*
X21983646Y67600871D01*
X21031265Y67981823D02*
X20983646Y68029442D01*
X20983646Y68029442D02*
X20888408Y68077061D01*
X20888408Y68077061D02*
X20650313Y68077061D01*
X20650313Y68077061D02*
X20555075Y68029442D01*
X20555075Y68029442D02*
X20507456Y67981823D01*
X20507456Y67981823D02*
X20459837Y67886585D01*
X20459837Y67886585D02*
X20459837Y67791347D01*
X20459837Y67791347D02*
X20507456Y67648490D01*
X20507456Y67648490D02*
X21078884Y67077061D01*
X21078884Y67077061D02*
X20459837Y67077061D01*
X26031266Y65562300D02*
X26078885Y65514680D01*
X26078885Y65514680D02*
X26221742Y65467061D01*
X26221742Y65467061D02*
X26316980Y65467061D01*
X26316980Y65467061D02*
X26459837Y65514680D01*
X26459837Y65514680D02*
X26555075Y65609919D01*
X26555075Y65609919D02*
X26602694Y65705157D01*
X26602694Y65705157D02*
X26650313Y65895633D01*
X26650313Y65895633D02*
X26650313Y66038490D01*
X26650313Y66038490D02*
X26602694Y66228966D01*
X26602694Y66228966D02*
X26555075Y66324204D01*
X26555075Y66324204D02*
X26459837Y66419442D01*
X26459837Y66419442D02*
X26316980Y66467061D01*
X26316980Y66467061D02*
X26221742Y66467061D01*
X26221742Y66467061D02*
X26078885Y66419442D01*
X26078885Y66419442D02*
X26031266Y66371823D01*
X25650313Y65752776D02*
X25174123Y65752776D01*
X25745551Y65467061D02*
X25412218Y66467061D01*
X25412218Y66467061D02*
X25078885Y65467061D01*
X24174123Y65467061D02*
X24507456Y65943252D01*
X24745551Y65467061D02*
X24745551Y66467061D01*
X24745551Y66467061D02*
X24364599Y66467061D01*
X24364599Y66467061D02*
X24269361Y66419442D01*
X24269361Y66419442D02*
X24221742Y66371823D01*
X24221742Y66371823D02*
X24174123Y66276585D01*
X24174123Y66276585D02*
X24174123Y66133728D01*
X24174123Y66133728D02*
X24221742Y66038490D01*
X24221742Y66038490D02*
X24269361Y65990871D01*
X24269361Y65990871D02*
X24364599Y65943252D01*
X24364599Y65943252D02*
X24745551Y65943252D01*
X23745551Y65467061D02*
X23745551Y66467061D01*
X23745551Y66467061D02*
X23507456Y66467061D01*
X23507456Y66467061D02*
X23364599Y66419442D01*
X23364599Y66419442D02*
X23269361Y66324204D01*
X23269361Y66324204D02*
X23221742Y66228966D01*
X23221742Y66228966D02*
X23174123Y66038490D01*
X23174123Y66038490D02*
X23174123Y65895633D01*
X23174123Y65895633D02*
X23221742Y65705157D01*
X23221742Y65705157D02*
X23269361Y65609919D01*
X23269361Y65609919D02*
X23364599Y65514680D01*
X23364599Y65514680D02*
X23507456Y65467061D01*
X23507456Y65467061D02*
X23745551Y65467061D01*
X21412218Y65562300D02*
X21459837Y65514680D01*
X21459837Y65514680D02*
X21602694Y65467061D01*
X21602694Y65467061D02*
X21697932Y65467061D01*
X21697932Y65467061D02*
X21840789Y65514680D01*
X21840789Y65514680D02*
X21936027Y65609919D01*
X21936027Y65609919D02*
X21983646Y65705157D01*
X21983646Y65705157D02*
X22031265Y65895633D01*
X22031265Y65895633D02*
X22031265Y66038490D01*
X22031265Y66038490D02*
X21983646Y66228966D01*
X21983646Y66228966D02*
X21936027Y66324204D01*
X21936027Y66324204D02*
X21840789Y66419442D01*
X21840789Y66419442D02*
X21697932Y66467061D01*
X21697932Y66467061D02*
X21602694Y66467061D01*
X21602694Y66467061D02*
X21459837Y66419442D01*
X21459837Y66419442D02*
X21412218Y66371823D01*
X20459837Y65467061D02*
X21031265Y65467061D01*
X20745551Y65467061D02*
X20745551Y66467061D01*
X20745551Y66467061D02*
X20840789Y66324204D01*
X20840789Y66324204D02*
X20936027Y66228966D01*
X20936027Y66228966D02*
X21031265Y66181347D01*
X26031266Y63952300D02*
X26078885Y63904680D01*
X26078885Y63904680D02*
X26221742Y63857061D01*
X26221742Y63857061D02*
X26316980Y63857061D01*
X26316980Y63857061D02*
X26459837Y63904680D01*
X26459837Y63904680D02*
X26555075Y63999919D01*
X26555075Y63999919D02*
X26602694Y64095157D01*
X26602694Y64095157D02*
X26650313Y64285633D01*
X26650313Y64285633D02*
X26650313Y64428490D01*
X26650313Y64428490D02*
X26602694Y64618966D01*
X26602694Y64618966D02*
X26555075Y64714204D01*
X26555075Y64714204D02*
X26459837Y64809442D01*
X26459837Y64809442D02*
X26316980Y64857061D01*
X26316980Y64857061D02*
X26221742Y64857061D01*
X26221742Y64857061D02*
X26078885Y64809442D01*
X26078885Y64809442D02*
X26031266Y64761823D01*
X25650313Y64142776D02*
X25174123Y64142776D01*
X25745551Y63857061D02*
X25412218Y64857061D01*
X25412218Y64857061D02*
X25078885Y63857061D01*
X24174123Y63857061D02*
X24507456Y64333252D01*
X24745551Y63857061D02*
X24745551Y64857061D01*
X24745551Y64857061D02*
X24364599Y64857061D01*
X24364599Y64857061D02*
X24269361Y64809442D01*
X24269361Y64809442D02*
X24221742Y64761823D01*
X24221742Y64761823D02*
X24174123Y64666585D01*
X24174123Y64666585D02*
X24174123Y64523728D01*
X24174123Y64523728D02*
X24221742Y64428490D01*
X24221742Y64428490D02*
X24269361Y64380871D01*
X24269361Y64380871D02*
X24364599Y64333252D01*
X24364599Y64333252D02*
X24745551Y64333252D01*
X23745551Y63857061D02*
X23745551Y64857061D01*
X23745551Y64857061D02*
X23507456Y64857061D01*
X23507456Y64857061D02*
X23364599Y64809442D01*
X23364599Y64809442D02*
X23269361Y64714204D01*
X23269361Y64714204D02*
X23221742Y64618966D01*
X23221742Y64618966D02*
X23174123Y64428490D01*
X23174123Y64428490D02*
X23174123Y64285633D01*
X23174123Y64285633D02*
X23221742Y64095157D01*
X23221742Y64095157D02*
X23269361Y63999919D01*
X23269361Y63999919D02*
X23364599Y63904680D01*
X23364599Y63904680D02*
X23507456Y63857061D01*
X23507456Y63857061D02*
X23745551Y63857061D01*
X21983646Y63857061D02*
X21983646Y64857061D01*
X21983646Y64857061D02*
X21745551Y64857061D01*
X21745551Y64857061D02*
X21602694Y64809442D01*
X21602694Y64809442D02*
X21507456Y64714204D01*
X21507456Y64714204D02*
X21459837Y64618966D01*
X21459837Y64618966D02*
X21412218Y64428490D01*
X21412218Y64428490D02*
X21412218Y64285633D01*
X21412218Y64285633D02*
X21459837Y64095157D01*
X21459837Y64095157D02*
X21507456Y63999919D01*
X21507456Y63999919D02*
X21602694Y63904680D01*
X21602694Y63904680D02*
X21745551Y63857061D01*
X21745551Y63857061D02*
X21983646Y63857061D01*
X21031265Y64761823D02*
X20983646Y64809442D01*
X20983646Y64809442D02*
X20888408Y64857061D01*
X20888408Y64857061D02*
X20650313Y64857061D01*
X20650313Y64857061D02*
X20555075Y64809442D01*
X20555075Y64809442D02*
X20507456Y64761823D01*
X20507456Y64761823D02*
X20459837Y64666585D01*
X20459837Y64666585D02*
X20459837Y64571347D01*
X20459837Y64571347D02*
X20507456Y64428490D01*
X20507456Y64428490D02*
X21078884Y63857061D01*
X21078884Y63857061D02*
X20459837Y63857061D01*
X26031266Y62342300D02*
X26078885Y62294680D01*
X26078885Y62294680D02*
X26221742Y62247061D01*
X26221742Y62247061D02*
X26316980Y62247061D01*
X26316980Y62247061D02*
X26459837Y62294680D01*
X26459837Y62294680D02*
X26555075Y62389919D01*
X26555075Y62389919D02*
X26602694Y62485157D01*
X26602694Y62485157D02*
X26650313Y62675633D01*
X26650313Y62675633D02*
X26650313Y62818490D01*
X26650313Y62818490D02*
X26602694Y63008966D01*
X26602694Y63008966D02*
X26555075Y63104204D01*
X26555075Y63104204D02*
X26459837Y63199442D01*
X26459837Y63199442D02*
X26316980Y63247061D01*
X26316980Y63247061D02*
X26221742Y63247061D01*
X26221742Y63247061D02*
X26078885Y63199442D01*
X26078885Y63199442D02*
X26031266Y63151823D01*
X25650313Y62532776D02*
X25174123Y62532776D01*
X25745551Y62247061D02*
X25412218Y63247061D01*
X25412218Y63247061D02*
X25078885Y62247061D01*
X24174123Y62247061D02*
X24507456Y62723252D01*
X24745551Y62247061D02*
X24745551Y63247061D01*
X24745551Y63247061D02*
X24364599Y63247061D01*
X24364599Y63247061D02*
X24269361Y63199442D01*
X24269361Y63199442D02*
X24221742Y63151823D01*
X24221742Y63151823D02*
X24174123Y63056585D01*
X24174123Y63056585D02*
X24174123Y62913728D01*
X24174123Y62913728D02*
X24221742Y62818490D01*
X24221742Y62818490D02*
X24269361Y62770871D01*
X24269361Y62770871D02*
X24364599Y62723252D01*
X24364599Y62723252D02*
X24745551Y62723252D01*
X23745551Y62247061D02*
X23745551Y63247061D01*
X23745551Y63247061D02*
X23507456Y63247061D01*
X23507456Y63247061D02*
X23364599Y63199442D01*
X23364599Y63199442D02*
X23269361Y63104204D01*
X23269361Y63104204D02*
X23221742Y63008966D01*
X23221742Y63008966D02*
X23174123Y62818490D01*
X23174123Y62818490D02*
X23174123Y62675633D01*
X23174123Y62675633D02*
X23221742Y62485157D01*
X23221742Y62485157D02*
X23269361Y62389919D01*
X23269361Y62389919D02*
X23364599Y62294680D01*
X23364599Y62294680D02*
X23507456Y62247061D01*
X23507456Y62247061D02*
X23745551Y62247061D01*
X21983646Y62770871D02*
X21650313Y62770871D01*
X21507456Y62247061D02*
X21983646Y62247061D01*
X21983646Y62247061D02*
X21983646Y63247061D01*
X21983646Y63247061D02*
X21507456Y63247061D01*
X20555075Y62247061D02*
X21126503Y62247061D01*
X20840789Y62247061D02*
X20840789Y63247061D01*
X20840789Y63247061D02*
X20936027Y63104204D01*
X20936027Y63104204D02*
X21031265Y63008966D01*
X21031265Y63008966D02*
X21126503Y62961347D01*
X26031266Y60732300D02*
X26078885Y60684680D01*
X26078885Y60684680D02*
X26221742Y60637061D01*
X26221742Y60637061D02*
X26316980Y60637061D01*
X26316980Y60637061D02*
X26459837Y60684680D01*
X26459837Y60684680D02*
X26555075Y60779919D01*
X26555075Y60779919D02*
X26602694Y60875157D01*
X26602694Y60875157D02*
X26650313Y61065633D01*
X26650313Y61065633D02*
X26650313Y61208490D01*
X26650313Y61208490D02*
X26602694Y61398966D01*
X26602694Y61398966D02*
X26555075Y61494204D01*
X26555075Y61494204D02*
X26459837Y61589442D01*
X26459837Y61589442D02*
X26316980Y61637061D01*
X26316980Y61637061D02*
X26221742Y61637061D01*
X26221742Y61637061D02*
X26078885Y61589442D01*
X26078885Y61589442D02*
X26031266Y61541823D01*
X25650313Y60922776D02*
X25174123Y60922776D01*
X25745551Y60637061D02*
X25412218Y61637061D01*
X25412218Y61637061D02*
X25078885Y60637061D01*
X24174123Y60637061D02*
X24507456Y61113252D01*
X24745551Y60637061D02*
X24745551Y61637061D01*
X24745551Y61637061D02*
X24364599Y61637061D01*
X24364599Y61637061D02*
X24269361Y61589442D01*
X24269361Y61589442D02*
X24221742Y61541823D01*
X24221742Y61541823D02*
X24174123Y61446585D01*
X24174123Y61446585D02*
X24174123Y61303728D01*
X24174123Y61303728D02*
X24221742Y61208490D01*
X24221742Y61208490D02*
X24269361Y61160871D01*
X24269361Y61160871D02*
X24364599Y61113252D01*
X24364599Y61113252D02*
X24745551Y61113252D01*
X23745551Y60637061D02*
X23745551Y61637061D01*
X23745551Y61637061D02*
X23507456Y61637061D01*
X23507456Y61637061D02*
X23364599Y61589442D01*
X23364599Y61589442D02*
X23269361Y61494204D01*
X23269361Y61494204D02*
X23221742Y61398966D01*
X23221742Y61398966D02*
X23174123Y61208490D01*
X23174123Y61208490D02*
X23174123Y61065633D01*
X23174123Y61065633D02*
X23221742Y60875157D01*
X23221742Y60875157D02*
X23269361Y60779919D01*
X23269361Y60779919D02*
X23364599Y60684680D01*
X23364599Y60684680D02*
X23507456Y60637061D01*
X23507456Y60637061D02*
X23745551Y60637061D01*
X21650313Y61160871D02*
X21983646Y61160871D01*
X21983646Y60637061D02*
X21983646Y61637061D01*
X21983646Y61637061D02*
X21507456Y61637061D01*
X21174122Y61541823D02*
X21126503Y61589442D01*
X21126503Y61589442D02*
X21031265Y61637061D01*
X21031265Y61637061D02*
X20793170Y61637061D01*
X20793170Y61637061D02*
X20697932Y61589442D01*
X20697932Y61589442D02*
X20650313Y61541823D01*
X20650313Y61541823D02*
X20602694Y61446585D01*
X20602694Y61446585D02*
X20602694Y61351347D01*
X20602694Y61351347D02*
X20650313Y61208490D01*
X20650313Y61208490D02*
X21221741Y60637061D01*
X21221741Y60637061D02*
X20602694Y60637061D01*
X26031266Y59122300D02*
X26078885Y59074680D01*
X26078885Y59074680D02*
X26221742Y59027061D01*
X26221742Y59027061D02*
X26316980Y59027061D01*
X26316980Y59027061D02*
X26459837Y59074680D01*
X26459837Y59074680D02*
X26555075Y59169919D01*
X26555075Y59169919D02*
X26602694Y59265157D01*
X26602694Y59265157D02*
X26650313Y59455633D01*
X26650313Y59455633D02*
X26650313Y59598490D01*
X26650313Y59598490D02*
X26602694Y59788966D01*
X26602694Y59788966D02*
X26555075Y59884204D01*
X26555075Y59884204D02*
X26459837Y59979442D01*
X26459837Y59979442D02*
X26316980Y60027061D01*
X26316980Y60027061D02*
X26221742Y60027061D01*
X26221742Y60027061D02*
X26078885Y59979442D01*
X26078885Y59979442D02*
X26031266Y59931823D01*
X25650313Y59312776D02*
X25174123Y59312776D01*
X25745551Y59027061D02*
X25412218Y60027061D01*
X25412218Y60027061D02*
X25078885Y59027061D01*
X24174123Y59027061D02*
X24507456Y59503252D01*
X24745551Y59027061D02*
X24745551Y60027061D01*
X24745551Y60027061D02*
X24364599Y60027061D01*
X24364599Y60027061D02*
X24269361Y59979442D01*
X24269361Y59979442D02*
X24221742Y59931823D01*
X24221742Y59931823D02*
X24174123Y59836585D01*
X24174123Y59836585D02*
X24174123Y59693728D01*
X24174123Y59693728D02*
X24221742Y59598490D01*
X24221742Y59598490D02*
X24269361Y59550871D01*
X24269361Y59550871D02*
X24364599Y59503252D01*
X24364599Y59503252D02*
X24745551Y59503252D01*
X23745551Y59027061D02*
X23745551Y60027061D01*
X23745551Y60027061D02*
X23507456Y60027061D01*
X23507456Y60027061D02*
X23364599Y59979442D01*
X23364599Y59979442D02*
X23269361Y59884204D01*
X23269361Y59884204D02*
X23221742Y59788966D01*
X23221742Y59788966D02*
X23174123Y59598490D01*
X23174123Y59598490D02*
X23174123Y59455633D01*
X23174123Y59455633D02*
X23221742Y59265157D01*
X23221742Y59265157D02*
X23269361Y59169919D01*
X23269361Y59169919D02*
X23364599Y59074680D01*
X23364599Y59074680D02*
X23507456Y59027061D01*
X23507456Y59027061D02*
X23745551Y59027061D01*
X21459837Y59979442D02*
X21555075Y60027061D01*
X21555075Y60027061D02*
X21697932Y60027061D01*
X21697932Y60027061D02*
X21840789Y59979442D01*
X21840789Y59979442D02*
X21936027Y59884204D01*
X21936027Y59884204D02*
X21983646Y59788966D01*
X21983646Y59788966D02*
X22031265Y59598490D01*
X22031265Y59598490D02*
X22031265Y59455633D01*
X22031265Y59455633D02*
X21983646Y59265157D01*
X21983646Y59265157D02*
X21936027Y59169919D01*
X21936027Y59169919D02*
X21840789Y59074680D01*
X21840789Y59074680D02*
X21697932Y59027061D01*
X21697932Y59027061D02*
X21602694Y59027061D01*
X21602694Y59027061D02*
X21459837Y59074680D01*
X21459837Y59074680D02*
X21412218Y59122300D01*
X21412218Y59122300D02*
X21412218Y59455633D01*
X21412218Y59455633D02*
X21602694Y59455633D01*
X20459837Y59027061D02*
X21031265Y59027061D01*
X20745551Y59027061D02*
X20745551Y60027061D01*
X20745551Y60027061D02*
X20840789Y59884204D01*
X20840789Y59884204D02*
X20936027Y59788966D01*
X20936027Y59788966D02*
X21031265Y59741347D01*
X70520551Y72782061D02*
X69949123Y72782061D01*
X70234837Y71782061D02*
X70234837Y72782061D01*
X69615789Y72305871D02*
X69282456Y72305871D01*
X69139599Y71782061D02*
X69615789Y71782061D01*
X69615789Y71782061D02*
X69615789Y72782061D01*
X69615789Y72782061D02*
X69139599Y72782061D01*
X68758646Y71829680D02*
X68615789Y71782061D01*
X68615789Y71782061D02*
X68377694Y71782061D01*
X68377694Y71782061D02*
X68282456Y71829680D01*
X68282456Y71829680D02*
X68234837Y71877300D01*
X68234837Y71877300D02*
X68187218Y71972538D01*
X68187218Y71972538D02*
X68187218Y72067776D01*
X68187218Y72067776D02*
X68234837Y72163014D01*
X68234837Y72163014D02*
X68282456Y72210633D01*
X68282456Y72210633D02*
X68377694Y72258252D01*
X68377694Y72258252D02*
X68568170Y72305871D01*
X68568170Y72305871D02*
X68663408Y72353490D01*
X68663408Y72353490D02*
X68711027Y72401109D01*
X68711027Y72401109D02*
X68758646Y72496347D01*
X68758646Y72496347D02*
X68758646Y72591585D01*
X68758646Y72591585D02*
X68711027Y72686823D01*
X68711027Y72686823D02*
X68663408Y72734442D01*
X68663408Y72734442D02*
X68568170Y72782061D01*
X68568170Y72782061D02*
X68330075Y72782061D01*
X68330075Y72782061D02*
X68187218Y72734442D01*
X67901503Y72782061D02*
X67330075Y72782061D01*
X67615789Y71782061D02*
X67615789Y72782061D01*
X66234836Y71782061D02*
X66234836Y72782061D01*
X66234836Y72782061D02*
X65853884Y72782061D01*
X65853884Y72782061D02*
X65758646Y72734442D01*
X65758646Y72734442D02*
X65711027Y72686823D01*
X65711027Y72686823D02*
X65663408Y72591585D01*
X65663408Y72591585D02*
X65663408Y72448728D01*
X65663408Y72448728D02*
X65711027Y72353490D01*
X65711027Y72353490D02*
X65758646Y72305871D01*
X65758646Y72305871D02*
X65853884Y72258252D01*
X65853884Y72258252D02*
X66234836Y72258252D01*
X65044360Y72782061D02*
X64853884Y72782061D01*
X64853884Y72782061D02*
X64758646Y72734442D01*
X64758646Y72734442D02*
X64663408Y72639204D01*
X64663408Y72639204D02*
X64615789Y72448728D01*
X64615789Y72448728D02*
X64615789Y72115395D01*
X64615789Y72115395D02*
X64663408Y71924919D01*
X64663408Y71924919D02*
X64758646Y71829680D01*
X64758646Y71829680D02*
X64853884Y71782061D01*
X64853884Y71782061D02*
X65044360Y71782061D01*
X65044360Y71782061D02*
X65139598Y71829680D01*
X65139598Y71829680D02*
X65234836Y71924919D01*
X65234836Y71924919D02*
X65282455Y72115395D01*
X65282455Y72115395D02*
X65282455Y72448728D01*
X65282455Y72448728D02*
X65234836Y72639204D01*
X65234836Y72639204D02*
X65139598Y72734442D01*
X65139598Y72734442D02*
X65044360Y72782061D01*
X64187217Y71782061D02*
X64187217Y72782061D01*
X63711027Y71782061D02*
X63711027Y72782061D01*
X63711027Y72782061D02*
X63139599Y71782061D01*
X63139599Y71782061D02*
X63139599Y72782061D01*
X62806265Y72782061D02*
X62234837Y72782061D01*
X62520551Y71782061D02*
X62520551Y72782061D01*
X61949122Y71829680D02*
X61806265Y71782061D01*
X61806265Y71782061D02*
X61568170Y71782061D01*
X61568170Y71782061D02*
X61472932Y71829680D01*
X61472932Y71829680D02*
X61425313Y71877300D01*
X61425313Y71877300D02*
X61377694Y71972538D01*
X61377694Y71972538D02*
X61377694Y72067776D01*
X61377694Y72067776D02*
X61425313Y72163014D01*
X61425313Y72163014D02*
X61472932Y72210633D01*
X61472932Y72210633D02*
X61568170Y72258252D01*
X61568170Y72258252D02*
X61758646Y72305871D01*
X61758646Y72305871D02*
X61853884Y72353490D01*
X61853884Y72353490D02*
X61901503Y72401109D01*
X61901503Y72401109D02*
X61949122Y72496347D01*
X61949122Y72496347D02*
X61949122Y72591585D01*
X61949122Y72591585D02*
X61901503Y72686823D01*
X61901503Y72686823D02*
X61853884Y72734442D01*
X61853884Y72734442D02*
X61758646Y72782061D01*
X61758646Y72782061D02*
X61520551Y72782061D01*
X61520551Y72782061D02*
X61377694Y72734442D01*
X70520551Y71172061D02*
X69949123Y71172061D01*
X70234837Y70172061D02*
X70234837Y71172061D01*
X69615789Y70172061D02*
X69615789Y71172061D01*
X69615789Y71172061D02*
X69234837Y71172061D01*
X69234837Y71172061D02*
X69139599Y71124442D01*
X69139599Y71124442D02*
X69091980Y71076823D01*
X69091980Y71076823D02*
X69044361Y70981585D01*
X69044361Y70981585D02*
X69044361Y70838728D01*
X69044361Y70838728D02*
X69091980Y70743490D01*
X69091980Y70743490D02*
X69139599Y70695871D01*
X69139599Y70695871D02*
X69234837Y70648252D01*
X69234837Y70648252D02*
X69615789Y70648252D01*
X68091980Y70172061D02*
X68663408Y70172061D01*
X68377694Y70172061D02*
X68377694Y71172061D01*
X68377694Y71172061D02*
X68472932Y71029204D01*
X68472932Y71029204D02*
X68568170Y70933966D01*
X68568170Y70933966D02*
X68663408Y70886347D01*
X66901503Y70267300D02*
X66853884Y70219680D01*
X66853884Y70219680D02*
X66901503Y70172061D01*
X66901503Y70172061D02*
X66949122Y70219680D01*
X66949122Y70219680D02*
X66901503Y70267300D01*
X66901503Y70267300D02*
X66901503Y70172061D01*
X66901503Y70791109D02*
X66853884Y70743490D01*
X66853884Y70743490D02*
X66901503Y70695871D01*
X66901503Y70695871D02*
X66949122Y70743490D01*
X66949122Y70743490D02*
X66901503Y70791109D01*
X66901503Y70791109D02*
X66901503Y70695871D01*
X65472932Y71172061D02*
X65282456Y71172061D01*
X65282456Y71172061D02*
X65187218Y71124442D01*
X65187218Y71124442D02*
X65091980Y71029204D01*
X65091980Y71029204D02*
X65044361Y70838728D01*
X65044361Y70838728D02*
X65044361Y70505395D01*
X65044361Y70505395D02*
X65091980Y70314919D01*
X65091980Y70314919D02*
X65187218Y70219680D01*
X65187218Y70219680D02*
X65282456Y70172061D01*
X65282456Y70172061D02*
X65472932Y70172061D01*
X65472932Y70172061D02*
X65568170Y70219680D01*
X65568170Y70219680D02*
X65663408Y70314919D01*
X65663408Y70314919D02*
X65711027Y70505395D01*
X65711027Y70505395D02*
X65711027Y70838728D01*
X65711027Y70838728D02*
X65663408Y71029204D01*
X65663408Y71029204D02*
X65568170Y71124442D01*
X65568170Y71124442D02*
X65472932Y71172061D01*
X64282456Y70695871D02*
X64615789Y70695871D01*
X64615789Y70172061D02*
X64615789Y71172061D01*
X64615789Y71172061D02*
X64139599Y71172061D01*
X63425313Y70695871D02*
X63758646Y70695871D01*
X63758646Y70172061D02*
X63758646Y71172061D01*
X63758646Y71172061D02*
X63282456Y71172061D01*
X62949122Y70219680D02*
X62806265Y70172061D01*
X62806265Y70172061D02*
X62568170Y70172061D01*
X62568170Y70172061D02*
X62472932Y70219680D01*
X62472932Y70219680D02*
X62425313Y70267300D01*
X62425313Y70267300D02*
X62377694Y70362538D01*
X62377694Y70362538D02*
X62377694Y70457776D01*
X62377694Y70457776D02*
X62425313Y70553014D01*
X62425313Y70553014D02*
X62472932Y70600633D01*
X62472932Y70600633D02*
X62568170Y70648252D01*
X62568170Y70648252D02*
X62758646Y70695871D01*
X62758646Y70695871D02*
X62853884Y70743490D01*
X62853884Y70743490D02*
X62901503Y70791109D01*
X62901503Y70791109D02*
X62949122Y70886347D01*
X62949122Y70886347D02*
X62949122Y70981585D01*
X62949122Y70981585D02*
X62901503Y71076823D01*
X62901503Y71076823D02*
X62853884Y71124442D01*
X62853884Y71124442D02*
X62758646Y71172061D01*
X62758646Y71172061D02*
X62520551Y71172061D01*
X62520551Y71172061D02*
X62377694Y71124442D01*
X61949122Y70695871D02*
X61615789Y70695871D01*
X61472932Y70172061D02*
X61949122Y70172061D01*
X61949122Y70172061D02*
X61949122Y71172061D01*
X61949122Y71172061D02*
X61472932Y71172061D01*
X61187217Y71172061D02*
X60615789Y71172061D01*
X60901503Y70172061D02*
X60901503Y71172061D01*
X59663407Y71172061D02*
X59091979Y71172061D01*
X59377693Y70172061D02*
X59377693Y71172061D01*
X58187217Y70172061D02*
X58520550Y70648252D01*
X58758645Y70172061D02*
X58758645Y71172061D01*
X58758645Y71172061D02*
X58377693Y71172061D01*
X58377693Y71172061D02*
X58282455Y71124442D01*
X58282455Y71124442D02*
X58234836Y71076823D01*
X58234836Y71076823D02*
X58187217Y70981585D01*
X58187217Y70981585D02*
X58187217Y70838728D01*
X58187217Y70838728D02*
X58234836Y70743490D01*
X58234836Y70743490D02*
X58282455Y70695871D01*
X58282455Y70695871D02*
X58377693Y70648252D01*
X58377693Y70648252D02*
X58758645Y70648252D01*
X57758645Y70172061D02*
X57758645Y71172061D01*
X57282455Y70172061D02*
X57282455Y71172061D01*
X57282455Y71172061D02*
X56949122Y70457776D01*
X56949122Y70457776D02*
X56615789Y71172061D01*
X56615789Y71172061D02*
X56615789Y70172061D01*
X56139598Y70172061D02*
X56139598Y71172061D01*
X56139598Y71172061D02*
X55806265Y70457776D01*
X55806265Y70457776D02*
X55472932Y71172061D01*
X55472932Y71172061D02*
X55472932Y70172061D01*
X54996741Y70695871D02*
X54663408Y70695871D01*
X54520551Y70172061D02*
X54996741Y70172061D01*
X54996741Y70172061D02*
X54996741Y71172061D01*
X54996741Y71172061D02*
X54520551Y71172061D01*
X53520551Y70172061D02*
X53853884Y70648252D01*
X54091979Y70172061D02*
X54091979Y71172061D01*
X54091979Y71172061D02*
X53711027Y71172061D01*
X53711027Y71172061D02*
X53615789Y71124442D01*
X53615789Y71124442D02*
X53568170Y71076823D01*
X53568170Y71076823D02*
X53520551Y70981585D01*
X53520551Y70981585D02*
X53520551Y70838728D01*
X53520551Y70838728D02*
X53568170Y70743490D01*
X53568170Y70743490D02*
X53615789Y70695871D01*
X53615789Y70695871D02*
X53711027Y70648252D01*
X53711027Y70648252D02*
X54091979Y70648252D01*
X70520551Y69562061D02*
X69949123Y69562061D01*
X70234837Y68562061D02*
X70234837Y69562061D01*
X69615789Y68562061D02*
X69615789Y69562061D01*
X69615789Y69562061D02*
X69234837Y69562061D01*
X69234837Y69562061D02*
X69139599Y69514442D01*
X69139599Y69514442D02*
X69091980Y69466823D01*
X69091980Y69466823D02*
X69044361Y69371585D01*
X69044361Y69371585D02*
X69044361Y69228728D01*
X69044361Y69228728D02*
X69091980Y69133490D01*
X69091980Y69133490D02*
X69139599Y69085871D01*
X69139599Y69085871D02*
X69234837Y69038252D01*
X69234837Y69038252D02*
X69615789Y69038252D01*
X68663408Y69466823D02*
X68615789Y69514442D01*
X68615789Y69514442D02*
X68520551Y69562061D01*
X68520551Y69562061D02*
X68282456Y69562061D01*
X68282456Y69562061D02*
X68187218Y69514442D01*
X68187218Y69514442D02*
X68139599Y69466823D01*
X68139599Y69466823D02*
X68091980Y69371585D01*
X68091980Y69371585D02*
X68091980Y69276347D01*
X68091980Y69276347D02*
X68139599Y69133490D01*
X68139599Y69133490D02*
X68711027Y68562061D01*
X68711027Y68562061D02*
X68091980Y68562061D01*
X66901503Y68657300D02*
X66853884Y68609680D01*
X66853884Y68609680D02*
X66901503Y68562061D01*
X66901503Y68562061D02*
X66949122Y68609680D01*
X66949122Y68609680D02*
X66901503Y68657300D01*
X66901503Y68657300D02*
X66901503Y68562061D01*
X66901503Y69181109D02*
X66853884Y69133490D01*
X66853884Y69133490D02*
X66901503Y69085871D01*
X66901503Y69085871D02*
X66949122Y69133490D01*
X66949122Y69133490D02*
X66901503Y69181109D01*
X66901503Y69181109D02*
X66901503Y69085871D01*
X65663408Y68562061D02*
X65663408Y69562061D01*
X65663408Y69562061D02*
X65282456Y69562061D01*
X65282456Y69562061D02*
X65187218Y69514442D01*
X65187218Y69514442D02*
X65139599Y69466823D01*
X65139599Y69466823D02*
X65091980Y69371585D01*
X65091980Y69371585D02*
X65091980Y69228728D01*
X65091980Y69228728D02*
X65139599Y69133490D01*
X65139599Y69133490D02*
X65187218Y69085871D01*
X65187218Y69085871D02*
X65282456Y69038252D01*
X65282456Y69038252D02*
X65663408Y69038252D01*
X64472932Y69562061D02*
X64282456Y69562061D01*
X64282456Y69562061D02*
X64187218Y69514442D01*
X64187218Y69514442D02*
X64091980Y69419204D01*
X64091980Y69419204D02*
X64044361Y69228728D01*
X64044361Y69228728D02*
X64044361Y68895395D01*
X64044361Y68895395D02*
X64091980Y68704919D01*
X64091980Y68704919D02*
X64187218Y68609680D01*
X64187218Y68609680D02*
X64282456Y68562061D01*
X64282456Y68562061D02*
X64472932Y68562061D01*
X64472932Y68562061D02*
X64568170Y68609680D01*
X64568170Y68609680D02*
X64663408Y68704919D01*
X64663408Y68704919D02*
X64711027Y68895395D01*
X64711027Y68895395D02*
X64711027Y69228728D01*
X64711027Y69228728D02*
X64663408Y69419204D01*
X64663408Y69419204D02*
X64568170Y69514442D01*
X64568170Y69514442D02*
X64472932Y69562061D01*
X63139599Y68562061D02*
X63615789Y68562061D01*
X63615789Y68562061D02*
X63615789Y69562061D01*
X62806265Y69085871D02*
X62472932Y69085871D01*
X62330075Y68562061D02*
X62806265Y68562061D01*
X62806265Y68562061D02*
X62806265Y69562061D01*
X62806265Y69562061D02*
X62330075Y69562061D01*
X60615789Y68562061D02*
X61187217Y68562061D01*
X60901503Y68562061D02*
X60901503Y69562061D01*
X60901503Y69562061D02*
X60996741Y69419204D01*
X60996741Y69419204D02*
X61091979Y69323966D01*
X61091979Y69323966D02*
X61187217Y69276347D01*
X70520551Y67952061D02*
X69949123Y67952061D01*
X70234837Y66952061D02*
X70234837Y67952061D01*
X69615789Y66952061D02*
X69615789Y67952061D01*
X69615789Y67952061D02*
X69234837Y67952061D01*
X69234837Y67952061D02*
X69139599Y67904442D01*
X69139599Y67904442D02*
X69091980Y67856823D01*
X69091980Y67856823D02*
X69044361Y67761585D01*
X69044361Y67761585D02*
X69044361Y67618728D01*
X69044361Y67618728D02*
X69091980Y67523490D01*
X69091980Y67523490D02*
X69139599Y67475871D01*
X69139599Y67475871D02*
X69234837Y67428252D01*
X69234837Y67428252D02*
X69615789Y67428252D01*
X68711027Y67952061D02*
X68091980Y67952061D01*
X68091980Y67952061D02*
X68425313Y67571109D01*
X68425313Y67571109D02*
X68282456Y67571109D01*
X68282456Y67571109D02*
X68187218Y67523490D01*
X68187218Y67523490D02*
X68139599Y67475871D01*
X68139599Y67475871D02*
X68091980Y67380633D01*
X68091980Y67380633D02*
X68091980Y67142538D01*
X68091980Y67142538D02*
X68139599Y67047300D01*
X68139599Y67047300D02*
X68187218Y66999680D01*
X68187218Y66999680D02*
X68282456Y66952061D01*
X68282456Y66952061D02*
X68568170Y66952061D01*
X68568170Y66952061D02*
X68663408Y66999680D01*
X68663408Y66999680D02*
X68711027Y67047300D01*
X66901503Y67047300D02*
X66853884Y66999680D01*
X66853884Y66999680D02*
X66901503Y66952061D01*
X66901503Y66952061D02*
X66949122Y66999680D01*
X66949122Y66999680D02*
X66901503Y67047300D01*
X66901503Y67047300D02*
X66901503Y66952061D01*
X66901503Y67571109D02*
X66853884Y67523490D01*
X66853884Y67523490D02*
X66901503Y67475871D01*
X66901503Y67475871D02*
X66949122Y67523490D01*
X66949122Y67523490D02*
X66901503Y67571109D01*
X66901503Y67571109D02*
X66901503Y67475871D01*
X65663408Y66952061D02*
X65663408Y67952061D01*
X65663408Y67952061D02*
X65282456Y67952061D01*
X65282456Y67952061D02*
X65187218Y67904442D01*
X65187218Y67904442D02*
X65139599Y67856823D01*
X65139599Y67856823D02*
X65091980Y67761585D01*
X65091980Y67761585D02*
X65091980Y67618728D01*
X65091980Y67618728D02*
X65139599Y67523490D01*
X65139599Y67523490D02*
X65187218Y67475871D01*
X65187218Y67475871D02*
X65282456Y67428252D01*
X65282456Y67428252D02*
X65663408Y67428252D01*
X64472932Y67952061D02*
X64282456Y67952061D01*
X64282456Y67952061D02*
X64187218Y67904442D01*
X64187218Y67904442D02*
X64091980Y67809204D01*
X64091980Y67809204D02*
X64044361Y67618728D01*
X64044361Y67618728D02*
X64044361Y67285395D01*
X64044361Y67285395D02*
X64091980Y67094919D01*
X64091980Y67094919D02*
X64187218Y66999680D01*
X64187218Y66999680D02*
X64282456Y66952061D01*
X64282456Y66952061D02*
X64472932Y66952061D01*
X64472932Y66952061D02*
X64568170Y66999680D01*
X64568170Y66999680D02*
X64663408Y67094919D01*
X64663408Y67094919D02*
X64711027Y67285395D01*
X64711027Y67285395D02*
X64711027Y67618728D01*
X64711027Y67618728D02*
X64663408Y67809204D01*
X64663408Y67809204D02*
X64568170Y67904442D01*
X64568170Y67904442D02*
X64472932Y67952061D01*
X63139599Y66952061D02*
X63615789Y66952061D01*
X63615789Y66952061D02*
X63615789Y67952061D01*
X62806265Y67475871D02*
X62472932Y67475871D01*
X62330075Y66952061D02*
X62806265Y66952061D01*
X62806265Y66952061D02*
X62806265Y67952061D01*
X62806265Y67952061D02*
X62330075Y67952061D01*
X60711027Y67618728D02*
X60711027Y66952061D01*
X60949122Y67999680D02*
X61187217Y67285395D01*
X61187217Y67285395D02*
X60568170Y67285395D01*
X70520551Y66342061D02*
X69949123Y66342061D01*
X70234837Y65342061D02*
X70234837Y66342061D01*
X69615789Y65342061D02*
X69615789Y66342061D01*
X69615789Y66342061D02*
X69234837Y66342061D01*
X69234837Y66342061D02*
X69139599Y66294442D01*
X69139599Y66294442D02*
X69091980Y66246823D01*
X69091980Y66246823D02*
X69044361Y66151585D01*
X69044361Y66151585D02*
X69044361Y66008728D01*
X69044361Y66008728D02*
X69091980Y65913490D01*
X69091980Y65913490D02*
X69139599Y65865871D01*
X69139599Y65865871D02*
X69234837Y65818252D01*
X69234837Y65818252D02*
X69615789Y65818252D01*
X68187218Y66008728D02*
X68187218Y65342061D01*
X68425313Y66389680D02*
X68663408Y65675395D01*
X68663408Y65675395D02*
X68044361Y65675395D01*
X66901503Y65437300D02*
X66853884Y65389680D01*
X66853884Y65389680D02*
X66901503Y65342061D01*
X66901503Y65342061D02*
X66949122Y65389680D01*
X66949122Y65389680D02*
X66901503Y65437300D01*
X66901503Y65437300D02*
X66901503Y65342061D01*
X66901503Y65961109D02*
X66853884Y65913490D01*
X66853884Y65913490D02*
X66901503Y65865871D01*
X66901503Y65865871D02*
X66949122Y65913490D01*
X66949122Y65913490D02*
X66901503Y65961109D01*
X66901503Y65961109D02*
X66901503Y65865871D01*
X65663408Y65342061D02*
X65663408Y66342061D01*
X65663408Y66342061D02*
X65282456Y66342061D01*
X65282456Y66342061D02*
X65187218Y66294442D01*
X65187218Y66294442D02*
X65139599Y66246823D01*
X65139599Y66246823D02*
X65091980Y66151585D01*
X65091980Y66151585D02*
X65091980Y66008728D01*
X65091980Y66008728D02*
X65139599Y65913490D01*
X65139599Y65913490D02*
X65187218Y65865871D01*
X65187218Y65865871D02*
X65282456Y65818252D01*
X65282456Y65818252D02*
X65663408Y65818252D01*
X64472932Y66342061D02*
X64282456Y66342061D01*
X64282456Y66342061D02*
X64187218Y66294442D01*
X64187218Y66294442D02*
X64091980Y66199204D01*
X64091980Y66199204D02*
X64044361Y66008728D01*
X64044361Y66008728D02*
X64044361Y65675395D01*
X64044361Y65675395D02*
X64091980Y65484919D01*
X64091980Y65484919D02*
X64187218Y65389680D01*
X64187218Y65389680D02*
X64282456Y65342061D01*
X64282456Y65342061D02*
X64472932Y65342061D01*
X64472932Y65342061D02*
X64568170Y65389680D01*
X64568170Y65389680D02*
X64663408Y65484919D01*
X64663408Y65484919D02*
X64711027Y65675395D01*
X64711027Y65675395D02*
X64711027Y66008728D01*
X64711027Y66008728D02*
X64663408Y66199204D01*
X64663408Y66199204D02*
X64568170Y66294442D01*
X64568170Y66294442D02*
X64472932Y66342061D01*
X63139599Y65342061D02*
X63615789Y65342061D01*
X63615789Y65342061D02*
X63615789Y66342061D01*
X62806265Y65865871D02*
X62472932Y65865871D01*
X62330075Y65342061D02*
X62806265Y65342061D01*
X62806265Y65342061D02*
X62806265Y66342061D01*
X62806265Y66342061D02*
X62330075Y66342061D01*
X61187217Y66246823D02*
X61139598Y66294442D01*
X61139598Y66294442D02*
X61044360Y66342061D01*
X61044360Y66342061D02*
X60806265Y66342061D01*
X60806265Y66342061D02*
X60711027Y66294442D01*
X60711027Y66294442D02*
X60663408Y66246823D01*
X60663408Y66246823D02*
X60615789Y66151585D01*
X60615789Y66151585D02*
X60615789Y66056347D01*
X60615789Y66056347D02*
X60663408Y65913490D01*
X60663408Y65913490D02*
X61234836Y65342061D01*
X61234836Y65342061D02*
X60615789Y65342061D01*
X70520551Y64732061D02*
X69949123Y64732061D01*
X70234837Y63732061D02*
X70234837Y64732061D01*
X69615789Y63732061D02*
X69615789Y64732061D01*
X69615789Y64732061D02*
X69234837Y64732061D01*
X69234837Y64732061D02*
X69139599Y64684442D01*
X69139599Y64684442D02*
X69091980Y64636823D01*
X69091980Y64636823D02*
X69044361Y64541585D01*
X69044361Y64541585D02*
X69044361Y64398728D01*
X69044361Y64398728D02*
X69091980Y64303490D01*
X69091980Y64303490D02*
X69139599Y64255871D01*
X69139599Y64255871D02*
X69234837Y64208252D01*
X69234837Y64208252D02*
X69615789Y64208252D01*
X68139599Y64732061D02*
X68615789Y64732061D01*
X68615789Y64732061D02*
X68663408Y64255871D01*
X68663408Y64255871D02*
X68615789Y64303490D01*
X68615789Y64303490D02*
X68520551Y64351109D01*
X68520551Y64351109D02*
X68282456Y64351109D01*
X68282456Y64351109D02*
X68187218Y64303490D01*
X68187218Y64303490D02*
X68139599Y64255871D01*
X68139599Y64255871D02*
X68091980Y64160633D01*
X68091980Y64160633D02*
X68091980Y63922538D01*
X68091980Y63922538D02*
X68139599Y63827300D01*
X68139599Y63827300D02*
X68187218Y63779680D01*
X68187218Y63779680D02*
X68282456Y63732061D01*
X68282456Y63732061D02*
X68520551Y63732061D01*
X68520551Y63732061D02*
X68615789Y63779680D01*
X68615789Y63779680D02*
X68663408Y63827300D01*
X66901503Y63827300D02*
X66853884Y63779680D01*
X66853884Y63779680D02*
X66901503Y63732061D01*
X66901503Y63732061D02*
X66949122Y63779680D01*
X66949122Y63779680D02*
X66901503Y63827300D01*
X66901503Y63827300D02*
X66901503Y63732061D01*
X66901503Y64351109D02*
X66853884Y64303490D01*
X66853884Y64303490D02*
X66901503Y64255871D01*
X66901503Y64255871D02*
X66949122Y64303490D01*
X66949122Y64303490D02*
X66901503Y64351109D01*
X66901503Y64351109D02*
X66901503Y64255871D01*
X65663408Y63732061D02*
X65663408Y64732061D01*
X65663408Y64732061D02*
X65282456Y64732061D01*
X65282456Y64732061D02*
X65187218Y64684442D01*
X65187218Y64684442D02*
X65139599Y64636823D01*
X65139599Y64636823D02*
X65091980Y64541585D01*
X65091980Y64541585D02*
X65091980Y64398728D01*
X65091980Y64398728D02*
X65139599Y64303490D01*
X65139599Y64303490D02*
X65187218Y64255871D01*
X65187218Y64255871D02*
X65282456Y64208252D01*
X65282456Y64208252D02*
X65663408Y64208252D01*
X64472932Y64732061D02*
X64282456Y64732061D01*
X64282456Y64732061D02*
X64187218Y64684442D01*
X64187218Y64684442D02*
X64091980Y64589204D01*
X64091980Y64589204D02*
X64044361Y64398728D01*
X64044361Y64398728D02*
X64044361Y64065395D01*
X64044361Y64065395D02*
X64091980Y63874919D01*
X64091980Y63874919D02*
X64187218Y63779680D01*
X64187218Y63779680D02*
X64282456Y63732061D01*
X64282456Y63732061D02*
X64472932Y63732061D01*
X64472932Y63732061D02*
X64568170Y63779680D01*
X64568170Y63779680D02*
X64663408Y63874919D01*
X64663408Y63874919D02*
X64711027Y64065395D01*
X64711027Y64065395D02*
X64711027Y64398728D01*
X64711027Y64398728D02*
X64663408Y64589204D01*
X64663408Y64589204D02*
X64568170Y64684442D01*
X64568170Y64684442D02*
X64472932Y64732061D01*
X63139599Y63732061D02*
X63615789Y63732061D01*
X63615789Y63732061D02*
X63615789Y64732061D01*
X62806265Y64255871D02*
X62472932Y64255871D01*
X62330075Y63732061D02*
X62806265Y63732061D01*
X62806265Y63732061D02*
X62806265Y64732061D01*
X62806265Y64732061D02*
X62330075Y64732061D01*
X61234836Y64732061D02*
X60615789Y64732061D01*
X60615789Y64732061D02*
X60949122Y64351109D01*
X60949122Y64351109D02*
X60806265Y64351109D01*
X60806265Y64351109D02*
X60711027Y64303490D01*
X60711027Y64303490D02*
X60663408Y64255871D01*
X60663408Y64255871D02*
X60615789Y64160633D01*
X60615789Y64160633D02*
X60615789Y63922538D01*
X60615789Y63922538D02*
X60663408Y63827300D01*
X60663408Y63827300D02*
X60711027Y63779680D01*
X60711027Y63779680D02*
X60806265Y63732061D01*
X60806265Y63732061D02*
X61091979Y63732061D01*
X61091979Y63732061D02*
X61187217Y63779680D01*
X61187217Y63779680D02*
X61234836Y63827300D01*
X70520551Y63122061D02*
X69949123Y63122061D01*
X70234837Y62122061D02*
X70234837Y63122061D01*
X69615789Y62122061D02*
X69615789Y63122061D01*
X69615789Y63122061D02*
X69234837Y63122061D01*
X69234837Y63122061D02*
X69139599Y63074442D01*
X69139599Y63074442D02*
X69091980Y63026823D01*
X69091980Y63026823D02*
X69044361Y62931585D01*
X69044361Y62931585D02*
X69044361Y62788728D01*
X69044361Y62788728D02*
X69091980Y62693490D01*
X69091980Y62693490D02*
X69139599Y62645871D01*
X69139599Y62645871D02*
X69234837Y62598252D01*
X69234837Y62598252D02*
X69615789Y62598252D01*
X68187218Y63122061D02*
X68377694Y63122061D01*
X68377694Y63122061D02*
X68472932Y63074442D01*
X68472932Y63074442D02*
X68520551Y63026823D01*
X68520551Y63026823D02*
X68615789Y62883966D01*
X68615789Y62883966D02*
X68663408Y62693490D01*
X68663408Y62693490D02*
X68663408Y62312538D01*
X68663408Y62312538D02*
X68615789Y62217300D01*
X68615789Y62217300D02*
X68568170Y62169680D01*
X68568170Y62169680D02*
X68472932Y62122061D01*
X68472932Y62122061D02*
X68282456Y62122061D01*
X68282456Y62122061D02*
X68187218Y62169680D01*
X68187218Y62169680D02*
X68139599Y62217300D01*
X68139599Y62217300D02*
X68091980Y62312538D01*
X68091980Y62312538D02*
X68091980Y62550633D01*
X68091980Y62550633D02*
X68139599Y62645871D01*
X68139599Y62645871D02*
X68187218Y62693490D01*
X68187218Y62693490D02*
X68282456Y62741109D01*
X68282456Y62741109D02*
X68472932Y62741109D01*
X68472932Y62741109D02*
X68568170Y62693490D01*
X68568170Y62693490D02*
X68615789Y62645871D01*
X68615789Y62645871D02*
X68663408Y62550633D01*
X66901503Y62217300D02*
X66853884Y62169680D01*
X66853884Y62169680D02*
X66901503Y62122061D01*
X66901503Y62122061D02*
X66949122Y62169680D01*
X66949122Y62169680D02*
X66901503Y62217300D01*
X66901503Y62217300D02*
X66901503Y62122061D01*
X66901503Y62741109D02*
X66853884Y62693490D01*
X66853884Y62693490D02*
X66901503Y62645871D01*
X66901503Y62645871D02*
X66949122Y62693490D01*
X66949122Y62693490D02*
X66901503Y62741109D01*
X66901503Y62741109D02*
X66901503Y62645871D01*
X65330075Y62645871D02*
X65663408Y62645871D01*
X65663408Y62122061D02*
X65663408Y63122061D01*
X65663408Y63122061D02*
X65187218Y63122061D01*
X64806265Y62122061D02*
X64806265Y63122061D01*
X63853885Y62122061D02*
X64330075Y62122061D01*
X64330075Y62122061D02*
X64330075Y63122061D01*
X63663408Y63122061D02*
X63091980Y63122061D01*
X63377694Y62122061D02*
X63377694Y63122061D01*
X62758646Y62645871D02*
X62425313Y62645871D01*
X62282456Y62122061D02*
X62758646Y62122061D01*
X62758646Y62122061D02*
X62758646Y63122061D01*
X62758646Y63122061D02*
X62282456Y63122061D01*
X61282456Y62122061D02*
X61615789Y62598252D01*
X61853884Y62122061D02*
X61853884Y63122061D01*
X61853884Y63122061D02*
X61472932Y63122061D01*
X61472932Y63122061D02*
X61377694Y63074442D01*
X61377694Y63074442D02*
X61330075Y63026823D01*
X61330075Y63026823D02*
X61282456Y62931585D01*
X61282456Y62931585D02*
X61282456Y62788728D01*
X61282456Y62788728D02*
X61330075Y62693490D01*
X61330075Y62693490D02*
X61377694Y62645871D01*
X61377694Y62645871D02*
X61472932Y62598252D01*
X61472932Y62598252D02*
X61853884Y62598252D01*
X60091979Y62122061D02*
X60091979Y63122061D01*
X59615789Y62122061D02*
X59615789Y63122061D01*
X59615789Y63122061D02*
X59044361Y62122061D01*
X59044361Y62122061D02*
X59044361Y63122061D01*
X57091980Y63169680D02*
X57949122Y61883966D01*
X55996741Y62122061D02*
X55996741Y63122061D01*
X55996741Y63122061D02*
X55758646Y63122061D01*
X55758646Y63122061D02*
X55615789Y63074442D01*
X55615789Y63074442D02*
X55520551Y62979204D01*
X55520551Y62979204D02*
X55472932Y62883966D01*
X55472932Y62883966D02*
X55425313Y62693490D01*
X55425313Y62693490D02*
X55425313Y62550633D01*
X55425313Y62550633D02*
X55472932Y62360157D01*
X55472932Y62360157D02*
X55520551Y62264919D01*
X55520551Y62264919D02*
X55615789Y62169680D01*
X55615789Y62169680D02*
X55758646Y62122061D01*
X55758646Y62122061D02*
X55996741Y62122061D01*
X54425313Y62122061D02*
X54758646Y62598252D01*
X54996741Y62122061D02*
X54996741Y63122061D01*
X54996741Y63122061D02*
X54615789Y63122061D01*
X54615789Y63122061D02*
X54520551Y63074442D01*
X54520551Y63074442D02*
X54472932Y63026823D01*
X54472932Y63026823D02*
X54425313Y62931585D01*
X54425313Y62931585D02*
X54425313Y62788728D01*
X54425313Y62788728D02*
X54472932Y62693490D01*
X54472932Y62693490D02*
X54520551Y62645871D01*
X54520551Y62645871D02*
X54615789Y62598252D01*
X54615789Y62598252D02*
X54996741Y62598252D01*
X53806265Y62598252D02*
X53806265Y62122061D01*
X54139598Y63122061D02*
X53806265Y62598252D01*
X53806265Y62598252D02*
X53472932Y63122061D01*
X52520550Y63122061D02*
X51949122Y63122061D01*
X52234836Y62122061D02*
X52234836Y63122061D01*
X51663407Y62407776D02*
X51187217Y62407776D01*
X51758645Y62122061D02*
X51425312Y63122061D01*
X51425312Y63122061D02*
X51091979Y62122061D01*
X50758645Y62122061D02*
X50758645Y63122061D01*
X50758645Y63122061D02*
X50377693Y63122061D01*
X50377693Y63122061D02*
X50282455Y63074442D01*
X50282455Y63074442D02*
X50234836Y63026823D01*
X50234836Y63026823D02*
X50187217Y62931585D01*
X50187217Y62931585D02*
X50187217Y62788728D01*
X50187217Y62788728D02*
X50234836Y62693490D01*
X50234836Y62693490D02*
X50282455Y62645871D01*
X50282455Y62645871D02*
X50377693Y62598252D01*
X50377693Y62598252D02*
X50758645Y62598252D01*
X70520551Y61512061D02*
X69949123Y61512061D01*
X70234837Y60512061D02*
X70234837Y61512061D01*
X69615789Y60512061D02*
X69615789Y61512061D01*
X69615789Y61512061D02*
X69234837Y61512061D01*
X69234837Y61512061D02*
X69139599Y61464442D01*
X69139599Y61464442D02*
X69091980Y61416823D01*
X69091980Y61416823D02*
X69044361Y61321585D01*
X69044361Y61321585D02*
X69044361Y61178728D01*
X69044361Y61178728D02*
X69091980Y61083490D01*
X69091980Y61083490D02*
X69139599Y61035871D01*
X69139599Y61035871D02*
X69234837Y60988252D01*
X69234837Y60988252D02*
X69615789Y60988252D01*
X68711027Y61512061D02*
X68044361Y61512061D01*
X68044361Y61512061D02*
X68472932Y60512061D01*
X66901503Y60607300D02*
X66853884Y60559680D01*
X66853884Y60559680D02*
X66901503Y60512061D01*
X66901503Y60512061D02*
X66949122Y60559680D01*
X66949122Y60559680D02*
X66901503Y60607300D01*
X66901503Y60607300D02*
X66901503Y60512061D01*
X66901503Y61131109D02*
X66853884Y61083490D01*
X66853884Y61083490D02*
X66901503Y61035871D01*
X66901503Y61035871D02*
X66949122Y61083490D01*
X66949122Y61083490D02*
X66901503Y61131109D01*
X66901503Y61131109D02*
X66901503Y61035871D01*
X64996742Y60416823D02*
X65091980Y60464442D01*
X65091980Y60464442D02*
X65187218Y60559680D01*
X65187218Y60559680D02*
X65330075Y60702538D01*
X65330075Y60702538D02*
X65425313Y60750157D01*
X65425313Y60750157D02*
X65520551Y60750157D01*
X65472932Y60512061D02*
X65568170Y60559680D01*
X65568170Y60559680D02*
X65663408Y60654919D01*
X65663408Y60654919D02*
X65711027Y60845395D01*
X65711027Y60845395D02*
X65711027Y61178728D01*
X65711027Y61178728D02*
X65663408Y61369204D01*
X65663408Y61369204D02*
X65568170Y61464442D01*
X65568170Y61464442D02*
X65472932Y61512061D01*
X65472932Y61512061D02*
X65282456Y61512061D01*
X65282456Y61512061D02*
X65187218Y61464442D01*
X65187218Y61464442D02*
X65091980Y61369204D01*
X65091980Y61369204D02*
X65044361Y61178728D01*
X65044361Y61178728D02*
X65044361Y60845395D01*
X65044361Y60845395D02*
X65091980Y60654919D01*
X65091980Y60654919D02*
X65187218Y60559680D01*
X65187218Y60559680D02*
X65282456Y60512061D01*
X65282456Y60512061D02*
X65472932Y60512061D01*
X64758646Y61512061D02*
X64425313Y60512061D01*
X64425313Y60512061D02*
X64091980Y61512061D01*
X63187218Y60607300D02*
X63234837Y60559680D01*
X63234837Y60559680D02*
X63377694Y60512061D01*
X63377694Y60512061D02*
X63472932Y60512061D01*
X63472932Y60512061D02*
X63615789Y60559680D01*
X63615789Y60559680D02*
X63711027Y60654919D01*
X63711027Y60654919D02*
X63758646Y60750157D01*
X63758646Y60750157D02*
X63806265Y60940633D01*
X63806265Y60940633D02*
X63806265Y61083490D01*
X63806265Y61083490D02*
X63758646Y61273966D01*
X63758646Y61273966D02*
X63711027Y61369204D01*
X63711027Y61369204D02*
X63615789Y61464442D01*
X63615789Y61464442D02*
X63472932Y61512061D01*
X63472932Y61512061D02*
X63377694Y61512061D01*
X63377694Y61512061D02*
X63234837Y61464442D01*
X63234837Y61464442D02*
X63187218Y61416823D01*
X62806265Y60797776D02*
X62330075Y60797776D01*
X62901503Y60512061D02*
X62568170Y61512061D01*
X62568170Y61512061D02*
X62234837Y60512061D01*
X62139599Y60416823D02*
X61377694Y60416823D01*
X61139598Y60512061D02*
X61139598Y61512061D01*
X60663408Y60512061D02*
X60663408Y61512061D01*
X60663408Y61512061D02*
X60091980Y60512061D01*
X60091980Y60512061D02*
X60091980Y61512061D01*
X59615789Y60893014D02*
X58853885Y60893014D01*
X59234837Y60512061D02*
X59234837Y61273966D01*
X70520551Y59902061D02*
X69949123Y59902061D01*
X70234837Y58902061D02*
X70234837Y59902061D01*
X69615789Y58902061D02*
X69615789Y59902061D01*
X69615789Y59902061D02*
X69234837Y59902061D01*
X69234837Y59902061D02*
X69139599Y59854442D01*
X69139599Y59854442D02*
X69091980Y59806823D01*
X69091980Y59806823D02*
X69044361Y59711585D01*
X69044361Y59711585D02*
X69044361Y59568728D01*
X69044361Y59568728D02*
X69091980Y59473490D01*
X69091980Y59473490D02*
X69139599Y59425871D01*
X69139599Y59425871D02*
X69234837Y59378252D01*
X69234837Y59378252D02*
X69615789Y59378252D01*
X68472932Y59473490D02*
X68568170Y59521109D01*
X68568170Y59521109D02*
X68615789Y59568728D01*
X68615789Y59568728D02*
X68663408Y59663966D01*
X68663408Y59663966D02*
X68663408Y59711585D01*
X68663408Y59711585D02*
X68615789Y59806823D01*
X68615789Y59806823D02*
X68568170Y59854442D01*
X68568170Y59854442D02*
X68472932Y59902061D01*
X68472932Y59902061D02*
X68282456Y59902061D01*
X68282456Y59902061D02*
X68187218Y59854442D01*
X68187218Y59854442D02*
X68139599Y59806823D01*
X68139599Y59806823D02*
X68091980Y59711585D01*
X68091980Y59711585D02*
X68091980Y59663966D01*
X68091980Y59663966D02*
X68139599Y59568728D01*
X68139599Y59568728D02*
X68187218Y59521109D01*
X68187218Y59521109D02*
X68282456Y59473490D01*
X68282456Y59473490D02*
X68472932Y59473490D01*
X68472932Y59473490D02*
X68568170Y59425871D01*
X68568170Y59425871D02*
X68615789Y59378252D01*
X68615789Y59378252D02*
X68663408Y59283014D01*
X68663408Y59283014D02*
X68663408Y59092538D01*
X68663408Y59092538D02*
X68615789Y58997300D01*
X68615789Y58997300D02*
X68568170Y58949680D01*
X68568170Y58949680D02*
X68472932Y58902061D01*
X68472932Y58902061D02*
X68282456Y58902061D01*
X68282456Y58902061D02*
X68187218Y58949680D01*
X68187218Y58949680D02*
X68139599Y58997300D01*
X68139599Y58997300D02*
X68091980Y59092538D01*
X68091980Y59092538D02*
X68091980Y59283014D01*
X68091980Y59283014D02*
X68139599Y59378252D01*
X68139599Y59378252D02*
X68187218Y59425871D01*
X68187218Y59425871D02*
X68282456Y59473490D01*
X66901503Y58997300D02*
X66853884Y58949680D01*
X66853884Y58949680D02*
X66901503Y58902061D01*
X66901503Y58902061D02*
X66949122Y58949680D01*
X66949122Y58949680D02*
X66901503Y58997300D01*
X66901503Y58997300D02*
X66901503Y58902061D01*
X66901503Y59521109D02*
X66853884Y59473490D01*
X66853884Y59473490D02*
X66901503Y59425871D01*
X66901503Y59425871D02*
X66949122Y59473490D01*
X66949122Y59473490D02*
X66901503Y59521109D01*
X66901503Y59521109D02*
X66901503Y59425871D01*
X65663408Y59283014D02*
X64901504Y59283014D01*
X65282456Y58902061D02*
X65282456Y59663966D01*
X64472932Y59806823D02*
X64425313Y59854442D01*
X64425313Y59854442D02*
X64330075Y59902061D01*
X64330075Y59902061D02*
X64091980Y59902061D01*
X64091980Y59902061D02*
X63996742Y59854442D01*
X63996742Y59854442D02*
X63949123Y59806823D01*
X63949123Y59806823D02*
X63901504Y59711585D01*
X63901504Y59711585D02*
X63901504Y59616347D01*
X63901504Y59616347D02*
X63949123Y59473490D01*
X63949123Y59473490D02*
X64520551Y58902061D01*
X64520551Y58902061D02*
X63901504Y58902061D01*
X63472932Y58997300D02*
X63425313Y58949680D01*
X63425313Y58949680D02*
X63472932Y58902061D01*
X63472932Y58902061D02*
X63520551Y58949680D01*
X63520551Y58949680D02*
X63472932Y58997300D01*
X63472932Y58997300D02*
X63472932Y58902061D01*
X62520552Y59902061D02*
X62996742Y59902061D01*
X62996742Y59902061D02*
X63044361Y59425871D01*
X63044361Y59425871D02*
X62996742Y59473490D01*
X62996742Y59473490D02*
X62901504Y59521109D01*
X62901504Y59521109D02*
X62663409Y59521109D01*
X62663409Y59521109D02*
X62568171Y59473490D01*
X62568171Y59473490D02*
X62520552Y59425871D01*
X62520552Y59425871D02*
X62472933Y59330633D01*
X62472933Y59330633D02*
X62472933Y59092538D01*
X62472933Y59092538D02*
X62520552Y58997300D01*
X62520552Y58997300D02*
X62568171Y58949680D01*
X62568171Y58949680D02*
X62663409Y58902061D01*
X62663409Y58902061D02*
X62901504Y58902061D01*
X62901504Y58902061D02*
X62996742Y58949680D01*
X62996742Y58949680D02*
X63044361Y58997300D01*
X62187218Y59902061D02*
X61853885Y58902061D01*
X61853885Y58902061D02*
X61520552Y59902061D01*
X60568170Y59902061D02*
X60234837Y58902061D01*
X60234837Y58902061D02*
X59901504Y59902061D01*
X58996742Y58902061D02*
X59330075Y59378252D01*
X59568170Y58902061D02*
X59568170Y59902061D01*
X59568170Y59902061D02*
X59187218Y59902061D01*
X59187218Y59902061D02*
X59091980Y59854442D01*
X59091980Y59854442D02*
X59044361Y59806823D01*
X59044361Y59806823D02*
X58996742Y59711585D01*
X58996742Y59711585D02*
X58996742Y59568728D01*
X58996742Y59568728D02*
X59044361Y59473490D01*
X59044361Y59473490D02*
X59091980Y59425871D01*
X59091980Y59425871D02*
X59187218Y59378252D01*
X59187218Y59378252D02*
X59568170Y59378252D01*
X58568170Y59425871D02*
X58234837Y59425871D01*
X58091980Y58902061D02*
X58568170Y58902061D01*
X58568170Y58902061D02*
X58568170Y59902061D01*
X58568170Y59902061D02*
X58091980Y59902061D01*
X57330075Y59425871D02*
X57663408Y59425871D01*
X57663408Y58902061D02*
X57663408Y59902061D01*
X57663408Y59902061D02*
X57187218Y59902061D01*
X70520551Y58292061D02*
X69949123Y58292061D01*
X70234837Y57292061D02*
X70234837Y58292061D01*
X69615789Y57292061D02*
X69615789Y58292061D01*
X69615789Y58292061D02*
X69234837Y58292061D01*
X69234837Y58292061D02*
X69139599Y58244442D01*
X69139599Y58244442D02*
X69091980Y58196823D01*
X69091980Y58196823D02*
X69044361Y58101585D01*
X69044361Y58101585D02*
X69044361Y57958728D01*
X69044361Y57958728D02*
X69091980Y57863490D01*
X69091980Y57863490D02*
X69139599Y57815871D01*
X69139599Y57815871D02*
X69234837Y57768252D01*
X69234837Y57768252D02*
X69615789Y57768252D01*
X68568170Y57292061D02*
X68377694Y57292061D01*
X68377694Y57292061D02*
X68282456Y57339680D01*
X68282456Y57339680D02*
X68234837Y57387300D01*
X68234837Y57387300D02*
X68139599Y57530157D01*
X68139599Y57530157D02*
X68091980Y57720633D01*
X68091980Y57720633D02*
X68091980Y58101585D01*
X68091980Y58101585D02*
X68139599Y58196823D01*
X68139599Y58196823D02*
X68187218Y58244442D01*
X68187218Y58244442D02*
X68282456Y58292061D01*
X68282456Y58292061D02*
X68472932Y58292061D01*
X68472932Y58292061D02*
X68568170Y58244442D01*
X68568170Y58244442D02*
X68615789Y58196823D01*
X68615789Y58196823D02*
X68663408Y58101585D01*
X68663408Y58101585D02*
X68663408Y57863490D01*
X68663408Y57863490D02*
X68615789Y57768252D01*
X68615789Y57768252D02*
X68568170Y57720633D01*
X68568170Y57720633D02*
X68472932Y57673014D01*
X68472932Y57673014D02*
X68282456Y57673014D01*
X68282456Y57673014D02*
X68187218Y57720633D01*
X68187218Y57720633D02*
X68139599Y57768252D01*
X68139599Y57768252D02*
X68091980Y57863490D01*
X66901503Y57387300D02*
X66853884Y57339680D01*
X66853884Y57339680D02*
X66901503Y57292061D01*
X66901503Y57292061D02*
X66949122Y57339680D01*
X66949122Y57339680D02*
X66901503Y57387300D01*
X66901503Y57387300D02*
X66901503Y57292061D01*
X66901503Y57911109D02*
X66853884Y57863490D01*
X66853884Y57863490D02*
X66901503Y57815871D01*
X66901503Y57815871D02*
X66949122Y57863490D01*
X66949122Y57863490D02*
X66901503Y57911109D01*
X66901503Y57911109D02*
X66901503Y57815871D01*
X65806265Y58292061D02*
X65472932Y57292061D01*
X65472932Y57292061D02*
X65139599Y58292061D01*
X64234837Y57387300D02*
X64282456Y57339680D01*
X64282456Y57339680D02*
X64425313Y57292061D01*
X64425313Y57292061D02*
X64520551Y57292061D01*
X64520551Y57292061D02*
X64663408Y57339680D01*
X64663408Y57339680D02*
X64758646Y57434919D01*
X64758646Y57434919D02*
X64806265Y57530157D01*
X64806265Y57530157D02*
X64853884Y57720633D01*
X64853884Y57720633D02*
X64853884Y57863490D01*
X64853884Y57863490D02*
X64806265Y58053966D01*
X64806265Y58053966D02*
X64758646Y58149204D01*
X64758646Y58149204D02*
X64663408Y58244442D01*
X64663408Y58244442D02*
X64520551Y58292061D01*
X64520551Y58292061D02*
X64425313Y58292061D01*
X64425313Y58292061D02*
X64282456Y58244442D01*
X64282456Y58244442D02*
X64234837Y58196823D01*
X63472932Y57815871D02*
X63806265Y57815871D01*
X63806265Y57292061D02*
X63806265Y58292061D01*
X63806265Y58292061D02*
X63330075Y58292061D01*
X61615789Y57292061D02*
X61949122Y57768252D01*
X62187217Y57292061D02*
X62187217Y58292061D01*
X62187217Y58292061D02*
X61806265Y58292061D01*
X61806265Y58292061D02*
X61711027Y58244442D01*
X61711027Y58244442D02*
X61663408Y58196823D01*
X61663408Y58196823D02*
X61615789Y58101585D01*
X61615789Y58101585D02*
X61615789Y57958728D01*
X61615789Y57958728D02*
X61663408Y57863490D01*
X61663408Y57863490D02*
X61711027Y57815871D01*
X61711027Y57815871D02*
X61806265Y57768252D01*
X61806265Y57768252D02*
X62187217Y57768252D01*
X61234836Y57577776D02*
X60758646Y57577776D01*
X61330074Y57292061D02*
X60996741Y58292061D01*
X60996741Y58292061D02*
X60663408Y57292061D01*
X60425312Y58292061D02*
X60187217Y57292061D01*
X60187217Y57292061D02*
X59996741Y58006347D01*
X59996741Y58006347D02*
X59806265Y57292061D01*
X59806265Y57292061D02*
X59568170Y58292061D01*
X58568169Y58292061D02*
X57996741Y58292061D01*
X58282455Y57292061D02*
X58282455Y58292061D01*
X57472931Y58292061D02*
X57282455Y58292061D01*
X57282455Y58292061D02*
X57187217Y58244442D01*
X57187217Y58244442D02*
X57091979Y58149204D01*
X57091979Y58149204D02*
X57044360Y57958728D01*
X57044360Y57958728D02*
X57044360Y57625395D01*
X57044360Y57625395D02*
X57091979Y57434919D01*
X57091979Y57434919D02*
X57187217Y57339680D01*
X57187217Y57339680D02*
X57282455Y57292061D01*
X57282455Y57292061D02*
X57472931Y57292061D01*
X57472931Y57292061D02*
X57568169Y57339680D01*
X57568169Y57339680D02*
X57663407Y57434919D01*
X57663407Y57434919D02*
X57711026Y57625395D01*
X57711026Y57625395D02*
X57711026Y57958728D01*
X57711026Y57958728D02*
X57663407Y58149204D01*
X57663407Y58149204D02*
X57568169Y58244442D01*
X57568169Y58244442D02*
X57472931Y58292061D01*
X69853885Y56634442D02*
X69949123Y56682061D01*
X69949123Y56682061D02*
X70091980Y56682061D01*
X70091980Y56682061D02*
X70234837Y56634442D01*
X70234837Y56634442D02*
X70330075Y56539204D01*
X70330075Y56539204D02*
X70377694Y56443966D01*
X70377694Y56443966D02*
X70425313Y56253490D01*
X70425313Y56253490D02*
X70425313Y56110633D01*
X70425313Y56110633D02*
X70377694Y55920157D01*
X70377694Y55920157D02*
X70330075Y55824919D01*
X70330075Y55824919D02*
X70234837Y55729680D01*
X70234837Y55729680D02*
X70091980Y55682061D01*
X70091980Y55682061D02*
X69996742Y55682061D01*
X69996742Y55682061D02*
X69853885Y55729680D01*
X69853885Y55729680D02*
X69806266Y55777300D01*
X69806266Y55777300D02*
X69806266Y56110633D01*
X69806266Y56110633D02*
X69996742Y56110633D01*
X69377694Y55682061D02*
X69377694Y56682061D01*
X69377694Y56682061D02*
X68996742Y56682061D01*
X68996742Y56682061D02*
X68901504Y56634442D01*
X68901504Y56634442D02*
X68853885Y56586823D01*
X68853885Y56586823D02*
X68806266Y56491585D01*
X68806266Y56491585D02*
X68806266Y56348728D01*
X68806266Y56348728D02*
X68853885Y56253490D01*
X68853885Y56253490D02*
X68901504Y56205871D01*
X68901504Y56205871D02*
X68996742Y56158252D01*
X68996742Y56158252D02*
X69377694Y56158252D01*
X68377694Y55682061D02*
X68377694Y56682061D01*
X67711028Y56682061D02*
X67520552Y56682061D01*
X67520552Y56682061D02*
X67425314Y56634442D01*
X67425314Y56634442D02*
X67330076Y56539204D01*
X67330076Y56539204D02*
X67282457Y56348728D01*
X67282457Y56348728D02*
X67282457Y56015395D01*
X67282457Y56015395D02*
X67330076Y55824919D01*
X67330076Y55824919D02*
X67425314Y55729680D01*
X67425314Y55729680D02*
X67520552Y55682061D01*
X67520552Y55682061D02*
X67711028Y55682061D01*
X67711028Y55682061D02*
X67806266Y55729680D01*
X67806266Y55729680D02*
X67901504Y55824919D01*
X67901504Y55824919D02*
X67949123Y56015395D01*
X67949123Y56015395D02*
X67949123Y56348728D01*
X67949123Y56348728D02*
X67901504Y56539204D01*
X67901504Y56539204D02*
X67806266Y56634442D01*
X67806266Y56634442D02*
X67711028Y56682061D01*
X67091981Y55586823D02*
X66330076Y55586823D01*
X66091980Y55682061D02*
X66091980Y56682061D01*
X66091980Y56682061D02*
X65758647Y55967776D01*
X65758647Y55967776D02*
X65425314Y56682061D01*
X65425314Y56682061D02*
X65425314Y55682061D01*
X64758647Y56682061D02*
X64568171Y56682061D01*
X64568171Y56682061D02*
X64472933Y56634442D01*
X64472933Y56634442D02*
X64377695Y56539204D01*
X64377695Y56539204D02*
X64330076Y56348728D01*
X64330076Y56348728D02*
X64330076Y56015395D01*
X64330076Y56015395D02*
X64377695Y55824919D01*
X64377695Y55824919D02*
X64472933Y55729680D01*
X64472933Y55729680D02*
X64568171Y55682061D01*
X64568171Y55682061D02*
X64758647Y55682061D01*
X64758647Y55682061D02*
X64853885Y55729680D01*
X64853885Y55729680D02*
X64949123Y55824919D01*
X64949123Y55824919D02*
X64996742Y56015395D01*
X64996742Y56015395D02*
X64996742Y56348728D01*
X64996742Y56348728D02*
X64949123Y56539204D01*
X64949123Y56539204D02*
X64853885Y56634442D01*
X64853885Y56634442D02*
X64758647Y56682061D01*
X63901504Y55682061D02*
X63901504Y56682061D01*
X63901504Y56682061D02*
X63663409Y56682061D01*
X63663409Y56682061D02*
X63520552Y56634442D01*
X63520552Y56634442D02*
X63425314Y56539204D01*
X63425314Y56539204D02*
X63377695Y56443966D01*
X63377695Y56443966D02*
X63330076Y56253490D01*
X63330076Y56253490D02*
X63330076Y56110633D01*
X63330076Y56110633D02*
X63377695Y55920157D01*
X63377695Y55920157D02*
X63425314Y55824919D01*
X63425314Y55824919D02*
X63520552Y55729680D01*
X63520552Y55729680D02*
X63663409Y55682061D01*
X63663409Y55682061D02*
X63901504Y55682061D01*
X62901504Y56682061D02*
X62901504Y55872538D01*
X62901504Y55872538D02*
X62853885Y55777300D01*
X62853885Y55777300D02*
X62806266Y55729680D01*
X62806266Y55729680D02*
X62711028Y55682061D01*
X62711028Y55682061D02*
X62520552Y55682061D01*
X62520552Y55682061D02*
X62425314Y55729680D01*
X62425314Y55729680D02*
X62377695Y55777300D01*
X62377695Y55777300D02*
X62330076Y55872538D01*
X62330076Y55872538D02*
X62330076Y56682061D01*
X61377695Y55682061D02*
X61853885Y55682061D01*
X61853885Y55682061D02*
X61853885Y56682061D01*
X61044361Y56205871D02*
X60711028Y56205871D01*
X60568171Y55682061D02*
X61044361Y55682061D01*
X61044361Y55682061D02*
X61044361Y56682061D01*
X61044361Y56682061D02*
X60568171Y56682061D01*
X60377695Y55586823D02*
X59615790Y55586823D01*
X59377694Y55682061D02*
X59377694Y56682061D01*
X59377694Y56682061D02*
X59139599Y56682061D01*
X59139599Y56682061D02*
X58996742Y56634442D01*
X58996742Y56634442D02*
X58901504Y56539204D01*
X58901504Y56539204D02*
X58853885Y56443966D01*
X58853885Y56443966D02*
X58806266Y56253490D01*
X58806266Y56253490D02*
X58806266Y56110633D01*
X58806266Y56110633D02*
X58853885Y55920157D01*
X58853885Y55920157D02*
X58901504Y55824919D01*
X58901504Y55824919D02*
X58996742Y55729680D01*
X58996742Y55729680D02*
X59139599Y55682061D01*
X59139599Y55682061D02*
X59377694Y55682061D01*
X57806266Y55682061D02*
X58139599Y56158252D01*
X58377694Y55682061D02*
X58377694Y56682061D01*
X58377694Y56682061D02*
X57996742Y56682061D01*
X57996742Y56682061D02*
X57901504Y56634442D01*
X57901504Y56634442D02*
X57853885Y56586823D01*
X57853885Y56586823D02*
X57806266Y56491585D01*
X57806266Y56491585D02*
X57806266Y56348728D01*
X57806266Y56348728D02*
X57853885Y56253490D01*
X57853885Y56253490D02*
X57901504Y56205871D01*
X57901504Y56205871D02*
X57996742Y56158252D01*
X57996742Y56158252D02*
X58377694Y56158252D01*
X57377694Y55682061D02*
X57377694Y56682061D01*
X57044361Y56682061D02*
X56711028Y55682061D01*
X56711028Y55682061D02*
X56377695Y56682061D01*
X56044361Y56205871D02*
X55711028Y56205871D01*
X55568171Y55682061D02*
X56044361Y55682061D01*
X56044361Y55682061D02*
X56044361Y56682061D01*
X56044361Y56682061D02*
X55568171Y56682061D01*
X55139599Y55682061D02*
X55139599Y56682061D01*
X55139599Y56682061D02*
X54568171Y55682061D01*
X54568171Y55682061D02*
X54568171Y56682061D01*
X70520551Y55072061D02*
X69949123Y55072061D01*
X70234837Y54072061D02*
X70234837Y55072061D01*
X69615789Y54072061D02*
X69615789Y55072061D01*
X69615789Y55072061D02*
X69234837Y55072061D01*
X69234837Y55072061D02*
X69139599Y55024442D01*
X69139599Y55024442D02*
X69091980Y54976823D01*
X69091980Y54976823D02*
X69044361Y54881585D01*
X69044361Y54881585D02*
X69044361Y54738728D01*
X69044361Y54738728D02*
X69091980Y54643490D01*
X69091980Y54643490D02*
X69139599Y54595871D01*
X69139599Y54595871D02*
X69234837Y54548252D01*
X69234837Y54548252D02*
X69615789Y54548252D01*
X68091980Y54072061D02*
X68663408Y54072061D01*
X68377694Y54072061D02*
X68377694Y55072061D01*
X68377694Y55072061D02*
X68472932Y54929204D01*
X68472932Y54929204D02*
X68568170Y54833966D01*
X68568170Y54833966D02*
X68663408Y54786347D01*
X67472932Y55072061D02*
X67377694Y55072061D01*
X67377694Y55072061D02*
X67282456Y55024442D01*
X67282456Y55024442D02*
X67234837Y54976823D01*
X67234837Y54976823D02*
X67187218Y54881585D01*
X67187218Y54881585D02*
X67139599Y54691109D01*
X67139599Y54691109D02*
X67139599Y54453014D01*
X67139599Y54453014D02*
X67187218Y54262538D01*
X67187218Y54262538D02*
X67234837Y54167300D01*
X67234837Y54167300D02*
X67282456Y54119680D01*
X67282456Y54119680D02*
X67377694Y54072061D01*
X67377694Y54072061D02*
X67472932Y54072061D01*
X67472932Y54072061D02*
X67568170Y54119680D01*
X67568170Y54119680D02*
X67615789Y54167300D01*
X67615789Y54167300D02*
X67663408Y54262538D01*
X67663408Y54262538D02*
X67711027Y54453014D01*
X67711027Y54453014D02*
X67711027Y54691109D01*
X67711027Y54691109D02*
X67663408Y54881585D01*
X67663408Y54881585D02*
X67615789Y54976823D01*
X67615789Y54976823D02*
X67568170Y55024442D01*
X67568170Y55024442D02*
X67472932Y55072061D01*
X65949122Y54167300D02*
X65901503Y54119680D01*
X65901503Y54119680D02*
X65949122Y54072061D01*
X65949122Y54072061D02*
X65996741Y54119680D01*
X65996741Y54119680D02*
X65949122Y54167300D01*
X65949122Y54167300D02*
X65949122Y54072061D01*
X65949122Y54691109D02*
X65901503Y54643490D01*
X65901503Y54643490D02*
X65949122Y54595871D01*
X65949122Y54595871D02*
X65996741Y54643490D01*
X65996741Y54643490D02*
X65949122Y54691109D01*
X65949122Y54691109D02*
X65949122Y54595871D01*
X64044361Y53976823D02*
X64139599Y54024442D01*
X64139599Y54024442D02*
X64234837Y54119680D01*
X64234837Y54119680D02*
X64377694Y54262538D01*
X64377694Y54262538D02*
X64472932Y54310157D01*
X64472932Y54310157D02*
X64568170Y54310157D01*
X64520551Y54072061D02*
X64615789Y54119680D01*
X64615789Y54119680D02*
X64711027Y54214919D01*
X64711027Y54214919D02*
X64758646Y54405395D01*
X64758646Y54405395D02*
X64758646Y54738728D01*
X64758646Y54738728D02*
X64711027Y54929204D01*
X64711027Y54929204D02*
X64615789Y55024442D01*
X64615789Y55024442D02*
X64520551Y55072061D01*
X64520551Y55072061D02*
X64330075Y55072061D01*
X64330075Y55072061D02*
X64234837Y55024442D01*
X64234837Y55024442D02*
X64139599Y54929204D01*
X64139599Y54929204D02*
X64091980Y54738728D01*
X64091980Y54738728D02*
X64091980Y54405395D01*
X64091980Y54405395D02*
X64139599Y54214919D01*
X64139599Y54214919D02*
X64234837Y54119680D01*
X64234837Y54119680D02*
X64330075Y54072061D01*
X64330075Y54072061D02*
X64520551Y54072061D01*
X63806265Y55072061D02*
X63472932Y54072061D01*
X63472932Y54072061D02*
X63139599Y55072061D01*
X62234837Y54167300D02*
X62282456Y54119680D01*
X62282456Y54119680D02*
X62425313Y54072061D01*
X62425313Y54072061D02*
X62520551Y54072061D01*
X62520551Y54072061D02*
X62663408Y54119680D01*
X62663408Y54119680D02*
X62758646Y54214919D01*
X62758646Y54214919D02*
X62806265Y54310157D01*
X62806265Y54310157D02*
X62853884Y54500633D01*
X62853884Y54500633D02*
X62853884Y54643490D01*
X62853884Y54643490D02*
X62806265Y54833966D01*
X62806265Y54833966D02*
X62758646Y54929204D01*
X62758646Y54929204D02*
X62663408Y55024442D01*
X62663408Y55024442D02*
X62520551Y55072061D01*
X62520551Y55072061D02*
X62425313Y55072061D01*
X62425313Y55072061D02*
X62282456Y55024442D01*
X62282456Y55024442D02*
X62234837Y54976823D01*
X61853884Y54357776D02*
X61377694Y54357776D01*
X61949122Y54072061D02*
X61615789Y55072061D01*
X61615789Y55072061D02*
X61282456Y54072061D01*
X60330074Y55072061D02*
X59996741Y54072061D01*
X59996741Y54072061D02*
X59663408Y55072061D01*
X59139598Y55072061D02*
X58949122Y55072061D01*
X58949122Y55072061D02*
X58853884Y55024442D01*
X58853884Y55024442D02*
X58758646Y54929204D01*
X58758646Y54929204D02*
X58711027Y54738728D01*
X58711027Y54738728D02*
X58711027Y54405395D01*
X58711027Y54405395D02*
X58758646Y54214919D01*
X58758646Y54214919D02*
X58853884Y54119680D01*
X58853884Y54119680D02*
X58949122Y54072061D01*
X58949122Y54072061D02*
X59139598Y54072061D01*
X59139598Y54072061D02*
X59234836Y54119680D01*
X59234836Y54119680D02*
X59330074Y54214919D01*
X59330074Y54214919D02*
X59377693Y54405395D01*
X59377693Y54405395D02*
X59377693Y54738728D01*
X59377693Y54738728D02*
X59330074Y54929204D01*
X59330074Y54929204D02*
X59234836Y55024442D01*
X59234836Y55024442D02*
X59139598Y55072061D01*
X57806265Y54072061D02*
X58282455Y54072061D01*
X58282455Y54072061D02*
X58282455Y55072061D01*
X57615788Y55072061D02*
X57044360Y55072061D01*
X57330074Y54072061D02*
X57330074Y55072061D01*
X56758645Y54357776D02*
X56282455Y54357776D01*
X56853883Y54072061D02*
X56520550Y55072061D01*
X56520550Y55072061D02*
X56187217Y54072061D01*
X55330074Y55024442D02*
X55425312Y55072061D01*
X55425312Y55072061D02*
X55568169Y55072061D01*
X55568169Y55072061D02*
X55711026Y55024442D01*
X55711026Y55024442D02*
X55806264Y54929204D01*
X55806264Y54929204D02*
X55853883Y54833966D01*
X55853883Y54833966D02*
X55901502Y54643490D01*
X55901502Y54643490D02*
X55901502Y54500633D01*
X55901502Y54500633D02*
X55853883Y54310157D01*
X55853883Y54310157D02*
X55806264Y54214919D01*
X55806264Y54214919D02*
X55711026Y54119680D01*
X55711026Y54119680D02*
X55568169Y54072061D01*
X55568169Y54072061D02*
X55472931Y54072061D01*
X55472931Y54072061D02*
X55330074Y54119680D01*
X55330074Y54119680D02*
X55282455Y54167300D01*
X55282455Y54167300D02*
X55282455Y54500633D01*
X55282455Y54500633D02*
X55472931Y54500633D01*
X54853883Y54595871D02*
X54520550Y54595871D01*
X54377693Y54072061D02*
X54853883Y54072061D01*
X54853883Y54072061D02*
X54853883Y55072061D01*
X54853883Y55072061D02*
X54377693Y55072061D01*
X70520551Y53462061D02*
X69949123Y53462061D01*
X70234837Y52462061D02*
X70234837Y53462061D01*
X69615789Y52462061D02*
X69615789Y53462061D01*
X69615789Y53462061D02*
X69234837Y53462061D01*
X69234837Y53462061D02*
X69139599Y53414442D01*
X69139599Y53414442D02*
X69091980Y53366823D01*
X69091980Y53366823D02*
X69044361Y53271585D01*
X69044361Y53271585D02*
X69044361Y53128728D01*
X69044361Y53128728D02*
X69091980Y53033490D01*
X69091980Y53033490D02*
X69139599Y52985871D01*
X69139599Y52985871D02*
X69234837Y52938252D01*
X69234837Y52938252D02*
X69615789Y52938252D01*
X68091980Y52462061D02*
X68663408Y52462061D01*
X68377694Y52462061D02*
X68377694Y53462061D01*
X68377694Y53462061D02*
X68472932Y53319204D01*
X68472932Y53319204D02*
X68568170Y53223966D01*
X68568170Y53223966D02*
X68663408Y53176347D01*
X67139599Y52462061D02*
X67711027Y52462061D01*
X67425313Y52462061D02*
X67425313Y53462061D01*
X67425313Y53462061D02*
X67520551Y53319204D01*
X67520551Y53319204D02*
X67615789Y53223966D01*
X67615789Y53223966D02*
X67711027Y53176347D01*
X65949122Y52557300D02*
X65901503Y52509680D01*
X65901503Y52509680D02*
X65949122Y52462061D01*
X65949122Y52462061D02*
X65996741Y52509680D01*
X65996741Y52509680D02*
X65949122Y52557300D01*
X65949122Y52557300D02*
X65949122Y52462061D01*
X65949122Y53081109D02*
X65901503Y53033490D01*
X65901503Y53033490D02*
X65949122Y52985871D01*
X65949122Y52985871D02*
X65996741Y53033490D01*
X65996741Y53033490D02*
X65949122Y53081109D01*
X65949122Y53081109D02*
X65949122Y52985871D01*
X64377694Y52985871D02*
X64711027Y52985871D01*
X64711027Y52462061D02*
X64711027Y53462061D01*
X64711027Y53462061D02*
X64234837Y53462061D01*
X63853884Y52462061D02*
X63853884Y53462061D01*
X62901504Y52462061D02*
X63377694Y52462061D01*
X63377694Y52462061D02*
X63377694Y53462061D01*
X62711027Y53462061D02*
X62139599Y53462061D01*
X62425313Y52462061D02*
X62425313Y53462061D01*
X61806265Y52985871D02*
X61472932Y52985871D01*
X61330075Y52462061D02*
X61806265Y52462061D01*
X61806265Y52462061D02*
X61806265Y53462061D01*
X61806265Y53462061D02*
X61330075Y53462061D01*
X60330075Y52462061D02*
X60663408Y52938252D01*
X60901503Y52462061D02*
X60901503Y53462061D01*
X60901503Y53462061D02*
X60520551Y53462061D01*
X60520551Y53462061D02*
X60425313Y53414442D01*
X60425313Y53414442D02*
X60377694Y53366823D01*
X60377694Y53366823D02*
X60330075Y53271585D01*
X60330075Y53271585D02*
X60330075Y53128728D01*
X60330075Y53128728D02*
X60377694Y53033490D01*
X60377694Y53033490D02*
X60425313Y52985871D01*
X60425313Y52985871D02*
X60520551Y52938252D01*
X60520551Y52938252D02*
X60901503Y52938252D01*
X58568170Y52557300D02*
X58615789Y52509680D01*
X58615789Y52509680D02*
X58758646Y52462061D01*
X58758646Y52462061D02*
X58853884Y52462061D01*
X58853884Y52462061D02*
X58996741Y52509680D01*
X58996741Y52509680D02*
X59091979Y52604919D01*
X59091979Y52604919D02*
X59139598Y52700157D01*
X59139598Y52700157D02*
X59187217Y52890633D01*
X59187217Y52890633D02*
X59187217Y53033490D01*
X59187217Y53033490D02*
X59139598Y53223966D01*
X59139598Y53223966D02*
X59091979Y53319204D01*
X59091979Y53319204D02*
X58996741Y53414442D01*
X58996741Y53414442D02*
X58853884Y53462061D01*
X58853884Y53462061D02*
X58758646Y53462061D01*
X58758646Y53462061D02*
X58615789Y53414442D01*
X58615789Y53414442D02*
X58568170Y53366823D01*
X58282455Y53462061D02*
X57949122Y52462061D01*
X57949122Y52462061D02*
X57615789Y53462061D01*
X56568169Y52509680D02*
X56425312Y52462061D01*
X56425312Y52462061D02*
X56187217Y52462061D01*
X56187217Y52462061D02*
X56091979Y52509680D01*
X56091979Y52509680D02*
X56044360Y52557300D01*
X56044360Y52557300D02*
X55996741Y52652538D01*
X55996741Y52652538D02*
X55996741Y52747776D01*
X55996741Y52747776D02*
X56044360Y52843014D01*
X56044360Y52843014D02*
X56091979Y52890633D01*
X56091979Y52890633D02*
X56187217Y52938252D01*
X56187217Y52938252D02*
X56377693Y52985871D01*
X56377693Y52985871D02*
X56472931Y53033490D01*
X56472931Y53033490D02*
X56520550Y53081109D01*
X56520550Y53081109D02*
X56568169Y53176347D01*
X56568169Y53176347D02*
X56568169Y53271585D01*
X56568169Y53271585D02*
X56520550Y53366823D01*
X56520550Y53366823D02*
X56472931Y53414442D01*
X56472931Y53414442D02*
X56377693Y53462061D01*
X56377693Y53462061D02*
X56139598Y53462061D01*
X56139598Y53462061D02*
X55996741Y53414442D01*
X55568169Y53462061D02*
X55568169Y52652538D01*
X55568169Y52652538D02*
X55520550Y52557300D01*
X55520550Y52557300D02*
X55472931Y52509680D01*
X55472931Y52509680D02*
X55377693Y52462061D01*
X55377693Y52462061D02*
X55187217Y52462061D01*
X55187217Y52462061D02*
X55091979Y52509680D01*
X55091979Y52509680D02*
X55044360Y52557300D01*
X55044360Y52557300D02*
X54996741Y52652538D01*
X54996741Y52652538D02*
X54996741Y53462061D01*
X54520550Y52462061D02*
X54520550Y53462061D01*
X54520550Y53462061D02*
X54187217Y52747776D01*
X54187217Y52747776D02*
X53853884Y53462061D01*
X53853884Y53462061D02*
X53853884Y52462061D01*
D10*
X44900000Y73650000D02*
X71500000Y73650000D01*
X71500000Y51600000D01*
X44900000Y51600000D01*
X44900000Y73650000D01*
D12*
X500000Y7000000D02*
G75*
G03*
X6000000Y1500000I5500000J0D01*
G01*
X75500000Y1500000D02*
G75*
G03*
X80500000Y6500000I0J5000000D01*
G01*
X75500000Y1500000D02*
X6000000Y1500000D01*
X5500000Y81500000D02*
G75*
G03*
X500000Y76500000I0J-5000000D01*
G01*
X80500000Y76000000D02*
G75*
G03*
X75000000Y81500000I-5500000J0D01*
G01*
X5500000Y81500000D02*
X75000000Y81500000D01*
X80500000Y6500000D02*
X80500000Y76000000D01*
X500000Y76500000D02*
X500000Y7000000D01*
D13*
X10276000Y3000000D02*
G75*
G03*
X9124000Y3000000I-576000J0D01*
G01*
X9124000Y3000000D02*
G75*
G03*
X10276000Y3000000I576000J0D01*
G01*
X72876000Y80000000D02*
G75*
G03*
X71724000Y80000000I-576000J0D01*
G01*
X71724000Y80000000D02*
G75*
G03*
X72876000Y80000000I576000J0D01*
G01*
X72876000Y3000000D02*
G75*
G03*
X71724000Y3000000I-576000J0D01*
G01*
X71724000Y3000000D02*
G75*
G03*
X72876000Y3000000I576000J0D01*
G01*
M02*
