M48
; DRILL file {KiCad 7.0.11} date Wednesday, December 03, 2025 at 10:09:17 PM
; FORMAT={-:-/ absolute / inch / decimal}
; #@! TF.CreationDate,2025-12-03T22:09:17-08:00
; #@! TF.GenerationSoftware,Kicad,Pcbnew,7.0.11
; #@! TF.FileFunction,Plated,1,4,PTH
FMAT,2
INCH
; #@! TA.AperFunction,Plated,PTH,ViaDrill
T1C0.0157
; #@! TA.AperFunction,Plated,PTH,ComponentDrill
T2C0.0315
; #@! TA.AperFunction,Plated,PTH,ComponentDrill
T3C0.0394
%
G90
G05
T1
X0.1142Y2.811
X0.1142Y2.7323
X0.1142Y2.6535
X0.1142Y2.5748
X0.1142Y2.4961
X0.1142Y2.4173
X0.122Y0.6299
X0.1772Y1.0394
X0.2323Y1.2283
X0.2874Y1.7283
X0.2874Y1.6299
X0.2874Y1.4646
X0.311Y2.8661
X0.3504Y2.126
X0.3583Y0.5512
X0.3819Y2.3701
X0.4055Y1.252
X0.4213Y2.8189
X0.4213Y1.0157
X0.4291Y2.6496
X0.4291Y1.874
X0.4606Y2.6063
X0.4764Y1.8189
X0.4843Y1.7323
X0.4921Y0.4764
X0.5Y1.252
X0.5Y0.8031
X0.5315Y1.063
X0.5551Y2.374
X0.5709Y1.5591
X0.626Y1.8781
X0.6417Y2.9252
X0.6417Y2.8661
X0.6417Y0.7008
X0.6654Y1.4094
X0.6732Y1.1024
X0.6772Y2.9882
X0.689Y2.6063
X0.6969Y2.5433
X0.7047Y2.0384
X0.7047Y1.7323
X0.7047Y0.874
X0.7126Y1.4882
X0.7205Y1.3071
X0.7283Y1.1811
X0.7441Y2.5827
X0.7472Y0.8189
X0.752Y1.9764
X0.7756Y1.4173
X0.7835Y2.8937
X0.7835Y2.2992
X0.7913Y2.7323
X0.8386Y1.7087
X0.878Y2.2441
X0.8858Y2.5433
X0.8898Y1.7598
X0.8937Y2.8346
X0.8978Y0.8384
X0.9173Y2.7323
X0.9291Y2.5118
X0.9331Y2.3307
X0.9409Y1.3622
X0.9783Y2.7323
X0.9803Y2.9094
X0.9961Y0.6772
X1.0118Y2.2008
X1.0118Y2.0157
X1.0364Y2.4094
X1.0433Y1.9055
X1.0669Y2.252
X1.0827Y2.8189
X1.0906Y2.6614
X1.0906Y0.7402
X1.0984Y0.8819
X1.1063Y2.0472
X1.1063Y0.9764
X1.1142Y2.4724
X1.1142Y1.7008
X1.1161Y2.6043
X1.122Y1.9764
X1.122Y1.6535
X1.126Y3.0787
X1.1378Y2.9213
X1.1417Y0.8071
X1.2008Y2.2992
X1.2008Y1.063
X1.2052Y1.6176
X1.2087Y2.622
X1.2087Y2.4882
X1.2087Y1.7323
X1.2087Y1.685
X1.2244Y3.0
X1.2244Y1.0157
X1.2244Y0.8819
X1.2559Y2.6958
X1.2559Y2.5827
X1.2559Y1.5512
X1.2717Y0.9291
X1.2953Y1.8346
X1.3031Y2.8268
X1.311Y2.2441
X1.3425Y2.7008
X1.3898Y0.685
X1.4134Y1.6614
X1.4449Y2.9921
X1.4449Y2.2835
X1.4764Y2.4724
X1.4843Y1.7165
X1.4921Y3.0374
X1.5079Y1.9528
X1.5866Y1.9014
X1.6102Y2.685
X1.6181Y0.6614
X1.6339Y2.8976
X1.6417Y2.622
X1.6417Y1.685
X1.6496Y3.0039
X1.6654Y0.9843
X1.689Y0.811
X1.7047Y2.2677
X1.7472Y0.9291
X1.7598Y2.9606
X1.7598Y2.5827
X1.7835Y1.6693
X1.8189Y2.0
X1.8228Y2.4724
X1.8268Y2.8346
X1.8937Y1.937
X1.8937Y0.6142
X1.9252Y2.1575
X1.9409Y1.2677
X1.9567Y1.937
X1.9567Y1.8504
X1.9567Y1.7953
X1.9665Y2.6142
X1.9724Y2.5039
X1.9961Y1.1437
X2.0039Y0.8268
X2.0197Y2.8228
X2.0394Y2.9803
X2.0433Y1.5669
X2.0512Y1.1732
X2.0512Y0.7402
X2.063Y2.4528
X2.0906Y2.1496
X2.0906Y0.8976
X2.0906Y0.6142
X2.122Y2.9134
X2.126Y2.7244
X2.1299Y1.5669
X2.1299Y1.3425
X2.1654Y2.6496
X2.1693Y2.1496
X2.1969Y2.3386
X2.2087Y2.9134
X2.2362Y1.6457
X2.2402Y0.7874
X2.252Y1.2598
X2.2717Y3.0276
X2.2795Y1.0709
X2.2795Y1.0079
X2.2953Y1.7992
X2.2953Y0.94
X2.3261Y1.0785
X2.3278Y1.938
X2.3386Y2.7441
X2.3386Y1.7244
X2.3898Y2.8504
X2.3898Y1.8976
X2.4055Y0.8583
X2.4291Y1.2756
X2.437Y2.0
X2.4449Y1.0945
X2.4449Y0.6929
X2.4528Y2.8504
X2.4882Y1.3307
X2.4921Y1.1339
X2.4921Y0.6457
X2.4941Y2.5413
X2.4961Y1.3937
X2.5Y1.7638
X2.5Y1.685
X2.5354Y1.44
X2.5472Y2.8031
X2.5472Y1.374
X2.5945Y0.7874
X2.6024Y2.0
X2.6024Y1.2126
X2.6102Y2.6142
X2.6142Y2.6969
X2.6496Y2.9843
X2.6535Y1.4921
X2.6575Y1.4409
X2.6654Y2.6969
X2.7008Y2.752
X2.7008Y1.4134
X2.7126Y1.2835
X2.7126Y0.6378
X2.7598Y2.8031
X2.7992Y2.126
X2.7992Y1.6772
X2.8228Y1.3071
X2.8346Y2.7283
X2.8829Y1.4144
X2.8927Y2.3307
X2.9409Y1.2126
X2.9961Y2.3268
X3.0039Y1.9449
X3.0197Y2.7008
X3.0512Y1.4567
X3.0512Y1.378
X3.1024Y2.752
T2
X1.5978Y1.7923
X1.6978Y1.7923
X1.7978Y1.7923
X1.8807Y3.0315
X1.9807Y3.0315
X2.0807Y3.0315
T3
X0.6472Y0.476
X0.6472Y0.376
X0.7472Y0.476
X0.7472Y0.376
X0.8472Y0.476
X0.8472Y0.376
X0.9472Y0.476
X0.9472Y0.376
X1.0472Y0.476
X1.0472Y0.376
X1.1472Y0.476
X1.1472Y0.376
X1.2472Y0.476
X1.2472Y0.376
X1.3472Y0.476
X1.3472Y0.376
X1.4472Y0.476
X1.4472Y0.376
X1.5472Y0.476
X1.5472Y0.376
X1.6472Y0.476
X1.6472Y0.376
X1.7472Y0.476
X1.7472Y0.376
X1.8472Y0.476
X1.8472Y0.376
X1.9472Y0.476
X1.9472Y0.376
X2.0472Y0.476
X2.0472Y0.376
X2.1472Y0.476
X2.1472Y0.376
X2.2472Y0.476
X2.2472Y0.376
X2.3472Y0.476
X2.3472Y0.376
X2.4472Y0.476
X2.4472Y0.376
X2.5472Y0.476
X2.5472Y0.376
X2.9409Y1.7953
X3.0039Y0.7402
X3.0039Y0.6402
M30
