G04 #@! TF.GenerationSoftware,KiCad,Pcbnew,7.0.11*
G04 #@! TF.CreationDate,2025-12-03T22:09:53-08:00*
G04 #@! TF.ProjectId,poledancer,706f6c65-6461-46e6-9365-722e6b696361,0.3*
G04 #@! TF.SameCoordinates,PX3de4ba0PY6578900*
G04 #@! TF.FileFunction,Soldermask,Top*
G04 #@! TF.FilePolarity,Negative*
%FSLAX46Y46*%
G04 Gerber Fmt 4.6, Leading zero omitted, Abs format (unit mm)*
G04 Created by KiCad (PCBNEW 7.0.11) date 2025-12-03 22:09:53*
%MOMM*%
%LPD*%
G01*
G04 APERTURE LIST*
G04 Aperture macros list*
%AMRoundRect*
0 Rectangle with rounded corners*
0 $1 Rounding radius*
0 $2 $3 $4 $5 $6 $7 $8 $9 X,Y pos of 4 corners*
0 Add a 4 corners polygon primitive as box body*
4,1,4,$2,$3,$4,$5,$6,$7,$8,$9,$2,$3,0*
0 Add four circle primitives for the rounded corners*
1,1,$1+$1,$2,$3*
1,1,$1+$1,$4,$5*
1,1,$1+$1,$6,$7*
1,1,$1+$1,$8,$9*
0 Add four rect primitives between the rounded corners*
20,1,$1+$1,$2,$3,$4,$5,0*
20,1,$1+$1,$4,$5,$6,$7,0*
20,1,$1+$1,$6,$7,$8,$9,0*
20,1,$1+$1,$8,$9,$2,$3,0*%
G04 Aperture macros list end*
%ADD10C,0.050000*%
%ADD11RoundRect,0.225000X0.250000X-0.225000X0.250000X0.225000X-0.250000X0.225000X-0.250000X-0.225000X0*%
%ADD12RoundRect,0.200000X0.200000X0.275000X-0.200000X0.275000X-0.200000X-0.275000X0.200000X-0.275000X0*%
%ADD13C,3.200000*%
%ADD14RoundRect,0.100000X0.637500X0.100000X-0.637500X0.100000X-0.637500X-0.100000X0.637500X-0.100000X0*%
%ADD15RoundRect,0.100000X-0.637500X-0.100000X0.637500X-0.100000X0.637500X0.100000X-0.637500X0.100000X0*%
%ADD16R,1.700000X1.700000*%
%ADD17RoundRect,0.225000X0.225000X0.250000X-0.225000X0.250000X-0.225000X-0.250000X0.225000X-0.250000X0*%
%ADD18R,1.200000X0.400000*%
%ADD19RoundRect,0.250000X0.250000X0.475000X-0.250000X0.475000X-0.250000X-0.475000X0.250000X-0.475000X0*%
%ADD20RoundRect,0.150000X-0.825000X-0.150000X0.825000X-0.150000X0.825000X0.150000X-0.825000X0.150000X0*%
%ADD21RoundRect,0.225000X-0.225000X-0.250000X0.225000X-0.250000X0.225000X0.250000X-0.225000X0.250000X0*%
%ADD22RoundRect,0.200000X0.275000X-0.200000X0.275000X0.200000X-0.275000X0.200000X-0.275000X-0.200000X0*%
%ADD23RoundRect,0.200000X-0.200000X-0.275000X0.200000X-0.275000X0.200000X0.275000X-0.200000X0.275000X0*%
%ADD24R,2.000000X2.000000*%
%ADD25RoundRect,0.225000X-0.250000X0.225000X-0.250000X-0.225000X0.250000X-0.225000X0.250000X0.225000X0*%
%ADD26O,1.700000X1.700000*%
%ADD27RoundRect,0.200000X-0.275000X0.200000X-0.275000X-0.200000X0.275000X-0.200000X0.275000X0.200000X0*%
%ADD28RoundRect,0.250000X-0.475000X0.250000X-0.475000X-0.250000X0.475000X-0.250000X0.475000X0.250000X0*%
%ADD29C,1.440000*%
%ADD30RoundRect,0.150000X-0.587500X-0.150000X0.587500X-0.150000X0.587500X0.150000X-0.587500X0.150000X0*%
%ADD31R,1.000000X0.400000*%
%ADD32RoundRect,0.218750X0.256250X-0.218750X0.256250X0.218750X-0.256250X0.218750X-0.256250X-0.218750X0*%
%ADD33RoundRect,0.250000X-0.250000X-0.475000X0.250000X-0.475000X0.250000X0.475000X-0.250000X0.475000X0*%
%ADD34RoundRect,0.150000X0.150000X-0.587500X0.150000X0.587500X-0.150000X0.587500X-0.150000X-0.587500X0*%
%ADD35RoundRect,0.225000X-0.225000X-0.375000X0.225000X-0.375000X0.225000X0.375000X-0.225000X0.375000X0*%
G04 #@! TA.AperFunction,Profile*
%ADD36C,0.150000*%
G04 #@! TD*
G04 #@! TA.AperFunction,Profile*
%ADD37C,0.050000*%
G04 #@! TD*
G04 APERTURE END LIST*
D10*
X73000000Y3000000D02*
G75*
G03*
X71600000Y3000000I-700000J0D01*
G01*
X71600000Y3000000D02*
G75*
G03*
X73000000Y3000000I700000J0D01*
G01*
X73000000Y80000000D02*
G75*
G03*
X71600000Y80000000I-700000J0D01*
G01*
X71600000Y80000000D02*
G75*
G03*
X73000000Y80000000I700000J0D01*
G01*
X10400000Y3000000D02*
G75*
G03*
X9000000Y3000000I-700000J0D01*
G01*
X9000000Y3000000D02*
G75*
G03*
X10400000Y3000000I700000J0D01*
G01*
D11*
X55125000Y71425000D03*
X55125000Y72975000D03*
X45325000Y39795000D03*
X45325000Y41345000D03*
D12*
X22824998Y70600000D03*
X21174998Y70600000D03*
D11*
X54100000Y37025000D03*
X54100000Y38575000D03*
D13*
X76100000Y5800000D03*
X75900000Y77200000D03*
X5100000Y5800000D03*
X5100000Y77200000D03*
D14*
X71562500Y35925000D03*
X71562500Y36575000D03*
X71562500Y37225000D03*
X71562500Y37875000D03*
X71562500Y38525000D03*
X71562500Y39175000D03*
X71562500Y39825000D03*
X71562500Y40475000D03*
X65837500Y40475000D03*
X65837500Y39825000D03*
X65837500Y39175000D03*
X65837500Y38525000D03*
X65837500Y37875000D03*
X65837500Y37225000D03*
X65837500Y36575000D03*
X65837500Y35925000D03*
D15*
X33837500Y77150000D03*
X33837500Y76500000D03*
X33837500Y75850000D03*
X33837500Y75200000D03*
X33837500Y74550000D03*
X33837500Y73900000D03*
X33837500Y73250000D03*
X39562500Y73250000D03*
X39562500Y73900000D03*
X39562500Y74550000D03*
X39562500Y75200000D03*
X39562500Y75850000D03*
X39562500Y76500000D03*
X39562500Y77150000D03*
D12*
X5525000Y67350000D03*
X3875000Y67350000D03*
D16*
X74700000Y45600000D03*
D17*
X31475000Y75200000D03*
X29925000Y75200000D03*
D18*
X9100000Y69292500D03*
X9100000Y68657500D03*
X9100000Y68022500D03*
X9100000Y67387500D03*
X9100000Y66752500D03*
X9100000Y66117500D03*
X9100000Y65482500D03*
X9100000Y64847500D03*
X9100000Y64212500D03*
X9100000Y63577500D03*
X9100000Y62942500D03*
X9100000Y62307500D03*
X14300000Y62307500D03*
X14300000Y62942500D03*
X14300000Y63577500D03*
X14300000Y64212500D03*
X14300000Y64847500D03*
X14300000Y65482500D03*
X14300000Y66117500D03*
X14300000Y66752500D03*
X14300000Y67387500D03*
X14300000Y68022500D03*
X14300000Y68657500D03*
X14300000Y69292500D03*
D19*
X30250000Y64800000D03*
X28350000Y64800000D03*
D20*
X51625000Y54645000D03*
X51625000Y53375000D03*
X51625000Y52105000D03*
X51625000Y50835000D03*
X51625000Y49565000D03*
X51625000Y48295000D03*
X51625000Y47025000D03*
X51625000Y45755000D03*
X56575000Y45755000D03*
X56575000Y47025000D03*
X56575000Y48295000D03*
X56575000Y49565000D03*
X56575000Y50835000D03*
X56575000Y52105000D03*
X56575000Y53375000D03*
X56575000Y54645000D03*
D21*
X10725000Y27000000D03*
X12275000Y27000000D03*
D22*
X23900000Y72925000D03*
X23900000Y74575000D03*
D23*
X29675000Y50150000D03*
X31325000Y50150000D03*
D21*
X68325000Y42600000D03*
X69875000Y42600000D03*
D20*
X9225000Y50245000D03*
X9225000Y48975000D03*
X9225000Y47705000D03*
X9225000Y46435000D03*
X9225000Y45165000D03*
X9225000Y43895000D03*
X9225000Y42625000D03*
X9225000Y41355000D03*
X14175000Y41355000D03*
X14175000Y42625000D03*
X14175000Y43895000D03*
X14175000Y45165000D03*
X14175000Y46435000D03*
X14175000Y47705000D03*
X14175000Y48975000D03*
X14175000Y50245000D03*
D17*
X72050000Y52800000D03*
X70500000Y52800000D03*
D24*
X60900000Y66200000D03*
D25*
X37097000Y40975000D03*
X37097000Y39425000D03*
D16*
X76300000Y18800000D03*
D26*
X76300000Y16260000D03*
D22*
X21249998Y59375000D03*
X21249998Y61025000D03*
D12*
X24925000Y62200000D03*
X23275000Y62200000D03*
D23*
X43050000Y69000000D03*
X44700000Y69000000D03*
X68000000Y74300000D03*
X69650000Y74300000D03*
D24*
X72300000Y72400000D03*
D12*
X77725000Y62300000D03*
X76075000Y62300000D03*
D23*
X26075000Y75200000D03*
X27725000Y75200000D03*
D12*
X21925000Y75200000D03*
X20275000Y75200000D03*
D22*
X6500000Y27575000D03*
X6500000Y29225000D03*
D27*
X57200000Y33375000D03*
X57200000Y35025000D03*
D28*
X43300000Y60550000D03*
X43300000Y58650000D03*
D27*
X12700000Y54625000D03*
X12700000Y52975000D03*
X53300000Y73025000D03*
X53300000Y71375000D03*
D12*
X8125000Y25600000D03*
X6475000Y25600000D03*
D11*
X17900000Y23425000D03*
X17900000Y24975000D03*
D29*
X45665000Y45525000D03*
X43125000Y45525000D03*
X40585000Y45525000D03*
D30*
X4692500Y17950000D03*
X4692500Y16050000D03*
X6567500Y17000000D03*
D27*
X19700000Y45625000D03*
X19700000Y43975000D03*
D24*
X60700000Y62000000D03*
D21*
X28725000Y68400000D03*
X30275000Y68400000D03*
D23*
X62375000Y77000000D03*
X64025000Y77000000D03*
D11*
X16900000Y50225000D03*
X16900000Y51775000D03*
D27*
X18900000Y61025000D03*
X18900000Y59375000D03*
D22*
X18900000Y70575000D03*
X18900000Y72225000D03*
D27*
X43325000Y41395000D03*
X43325000Y39745000D03*
D12*
X22824998Y68200000D03*
X21174998Y68200000D03*
D25*
X62900000Y32375000D03*
X62900000Y30825000D03*
D24*
X21300000Y40500000D03*
D21*
X34950000Y43550000D03*
X36500000Y43550000D03*
D17*
X62312500Y71100000D03*
X60762500Y71100000D03*
D27*
X6475000Y35200000D03*
X6475000Y33550000D03*
D21*
X60725000Y44800000D03*
X62275000Y44800000D03*
D17*
X49075000Y50800000D03*
X47525000Y50800000D03*
D24*
X16400000Y57000000D03*
D17*
X62312500Y69100000D03*
X60762500Y69100000D03*
D12*
X49125000Y53400000D03*
X47475000Y53400000D03*
D22*
X18300000Y75125000D03*
X18300000Y76775000D03*
D12*
X5525000Y71350000D03*
X3875000Y71350000D03*
D23*
X47275000Y64400000D03*
X48925000Y64400000D03*
D20*
X21200000Y27645000D03*
X21200000Y26375000D03*
X21200000Y25105000D03*
X21200000Y23835000D03*
X21200000Y22565000D03*
X21200000Y21295000D03*
X21200000Y20025000D03*
X21200000Y18755000D03*
X26150000Y18755000D03*
X26150000Y20025000D03*
X26150000Y21295000D03*
X26150000Y22565000D03*
X26150000Y23835000D03*
X26150000Y25105000D03*
X26150000Y26375000D03*
X26150000Y27645000D03*
D17*
X77675000Y60400000D03*
X76125000Y60400000D03*
D11*
X66025000Y74275000D03*
X66025000Y75825000D03*
D27*
X4525000Y29225000D03*
X4525000Y27575000D03*
D22*
X58700000Y39075000D03*
X58700000Y40725000D03*
D23*
X62375000Y74300000D03*
X64025000Y74300000D03*
D19*
X30250000Y61400000D03*
X28350000Y61400000D03*
D24*
X5200000Y20600000D03*
D12*
X5525000Y63350000D03*
X3875000Y63350000D03*
D21*
X71925000Y60400000D03*
X73475000Y60400000D03*
D27*
X35125000Y47175000D03*
X35125000Y45525000D03*
D29*
X52850000Y77000000D03*
X50310000Y77000000D03*
X47770000Y77000000D03*
D24*
X44700000Y71800000D03*
D31*
X39600000Y61475000D03*
X39600000Y62125000D03*
X39600000Y62775000D03*
X39600000Y63425000D03*
X39600000Y64075000D03*
X39600000Y64725000D03*
X39600000Y65375000D03*
X39600000Y66025000D03*
X39600000Y66675000D03*
X39600000Y67325000D03*
X33800000Y67325000D03*
X33800000Y66675000D03*
X33800000Y66025000D03*
X33800000Y65375000D03*
X33800000Y64725000D03*
X33800000Y64075000D03*
X33800000Y63425000D03*
X33800000Y62775000D03*
X33800000Y62125000D03*
X33800000Y61475000D03*
D21*
X41925000Y75250000D03*
X43475000Y75250000D03*
D22*
X53850000Y60675000D03*
X53850000Y62325000D03*
D20*
X35200000Y27600000D03*
X35200000Y26330000D03*
X35200000Y25060000D03*
X35200000Y23790000D03*
X35200000Y22520000D03*
X35200000Y21250000D03*
X35200000Y19980000D03*
X35200000Y18710000D03*
X40150000Y18710000D03*
X40150000Y19980000D03*
X40150000Y21250000D03*
X40150000Y22520000D03*
X40150000Y23790000D03*
X40150000Y25060000D03*
X40150000Y26330000D03*
X40150000Y27600000D03*
D22*
X12700000Y37375000D03*
X12700000Y39025000D03*
D21*
X33925000Y58000000D03*
X35475000Y58000000D03*
D11*
X56800000Y39125000D03*
X56800000Y40675000D03*
X14900000Y72825000D03*
X14900000Y74375000D03*
D23*
X19675000Y57000000D03*
X21325000Y57000000D03*
D25*
X32300000Y26575000D03*
X32300000Y25025000D03*
D12*
X48925000Y68400000D03*
X47275000Y68400000D03*
D22*
X59150000Y53375000D03*
X59150000Y55025000D03*
D12*
X26500000Y68200000D03*
X24850000Y68200000D03*
D24*
X35925000Y49925000D03*
X48900000Y71200000D03*
D15*
X64637500Y69875000D03*
X64637500Y69225000D03*
X64637500Y68575000D03*
X64637500Y67925000D03*
X64637500Y67275000D03*
X64637500Y66625000D03*
X64637500Y65975000D03*
X64637500Y65325000D03*
X70362500Y65325000D03*
X70362500Y65975000D03*
X70362500Y66625000D03*
X70362500Y67275000D03*
X70362500Y67925000D03*
X70362500Y68575000D03*
X70362500Y69225000D03*
X70362500Y69875000D03*
D27*
X6300000Y52025000D03*
X6300000Y50375000D03*
D22*
X34925000Y39375000D03*
X34925000Y41025000D03*
D27*
X77900000Y27237500D03*
X77900000Y25587500D03*
D12*
X26325000Y59200000D03*
X24675000Y59200000D03*
X75100000Y67600000D03*
X73450000Y67600000D03*
X5525000Y61350000D03*
X3875000Y61350000D03*
D15*
X54637500Y30375000D03*
X54637500Y29725000D03*
X54637500Y29075000D03*
X54637500Y28425000D03*
X54637500Y27775000D03*
X54637500Y27125000D03*
X54637500Y26475000D03*
X54637500Y25825000D03*
X54637500Y25175000D03*
X54637500Y24525000D03*
X54637500Y23875000D03*
X54637500Y23225000D03*
X60362500Y23225000D03*
X60362500Y23875000D03*
X60362500Y24525000D03*
X60362500Y25175000D03*
X60362500Y25825000D03*
X60362500Y26475000D03*
X60362500Y27125000D03*
X60362500Y27775000D03*
X60362500Y28425000D03*
X60362500Y29075000D03*
X60362500Y29725000D03*
X60362500Y30375000D03*
D24*
X40300000Y40600000D03*
D23*
X60675000Y42800000D03*
X62325000Y42800000D03*
D24*
X30700000Y72200000D03*
D11*
X29500000Y22425000D03*
X29500000Y23975000D03*
D27*
X9010000Y17025000D03*
X9010000Y15375000D03*
X21249998Y64625000D03*
X21249998Y62975000D03*
D21*
X75125000Y69800000D03*
X76675000Y69800000D03*
D11*
X42900000Y22025000D03*
X42900000Y23575000D03*
D21*
X74725000Y37000000D03*
X76275000Y37000000D03*
D23*
X59075000Y47000000D03*
X60725000Y47000000D03*
D21*
X74725000Y35016000D03*
X76275000Y35016000D03*
D12*
X5525000Y69350000D03*
X3875000Y69350000D03*
D21*
X6300000Y54000000D03*
X7850000Y54000000D03*
D23*
X27875000Y48350000D03*
X29525000Y48350000D03*
D17*
X60675000Y50800000D03*
X59125000Y50800000D03*
D22*
X57700000Y66125000D03*
X57700000Y64475000D03*
D25*
X55300000Y34975000D03*
X55300000Y33425000D03*
D15*
X8837500Y33150000D03*
X8837500Y32500000D03*
X8837500Y31850000D03*
X8837500Y31200000D03*
X8837500Y30550000D03*
X8837500Y29900000D03*
X8837500Y29250000D03*
X14562500Y29250000D03*
X14562500Y29900000D03*
X14562500Y30550000D03*
X14562500Y31200000D03*
X14562500Y31850000D03*
X14562500Y32500000D03*
X14562500Y33150000D03*
D22*
X47325000Y39745000D03*
X47325000Y41395000D03*
D23*
X4475000Y37200000D03*
X6125000Y37200000D03*
D27*
X73100000Y20425000D03*
X73100000Y18775000D03*
D23*
X58975000Y35000000D03*
X60625000Y35000000D03*
D27*
X10900000Y54625000D03*
X10900000Y52975000D03*
D23*
X60675000Y41000000D03*
X62325000Y41000000D03*
D24*
X74900000Y64800000D03*
D20*
X55025000Y20105000D03*
X55025000Y18835000D03*
X55025000Y17565000D03*
X55025000Y16295000D03*
X59975000Y16295000D03*
X59975000Y17565000D03*
X59975000Y18835000D03*
X59975000Y20105000D03*
D27*
X24100000Y46950000D03*
X24100000Y45300000D03*
D21*
X9125000Y72850000D03*
X10675000Y72850000D03*
D24*
X24100000Y49600000D03*
D22*
X56900000Y71375000D03*
X56900000Y73025000D03*
D25*
X55800000Y62275000D03*
X55800000Y60725000D03*
D23*
X57075000Y37000000D03*
X58725000Y37000000D03*
X31460000Y48350000D03*
X33110000Y48350000D03*
X16275000Y19200000D03*
X17925000Y19200000D03*
D27*
X57800000Y62325000D03*
X57800000Y60675000D03*
D12*
X27925000Y39200000D03*
X26275000Y39200000D03*
D32*
X77900000Y29225000D03*
X77900000Y30800000D03*
D16*
X64700000Y12090000D03*
D26*
X64700000Y9550000D03*
X62160000Y12090000D03*
X62160000Y9550000D03*
X59620000Y12090000D03*
X59620000Y9550000D03*
X57080000Y12090000D03*
X57080000Y9550000D03*
X54540000Y12090000D03*
X54540000Y9550000D03*
X52000000Y12090000D03*
X52000000Y9550000D03*
X49460000Y12090000D03*
X49460000Y9550000D03*
X46920000Y12090000D03*
X46920000Y9550000D03*
X44380000Y12090000D03*
X44380000Y9550000D03*
X41840000Y12090000D03*
X41840000Y9550000D03*
X39300000Y12090000D03*
X39300000Y9550000D03*
X36760000Y12090000D03*
X36760000Y9550000D03*
X34220000Y12090000D03*
X34220000Y9550000D03*
X31680000Y12090000D03*
X31680000Y9550000D03*
X29140000Y12090000D03*
X29140000Y9550000D03*
X26600000Y12090000D03*
X26600000Y9550000D03*
X24060000Y12090000D03*
X24060000Y9550000D03*
X21520000Y12090000D03*
X21520000Y9550000D03*
X18980000Y12090000D03*
X18980000Y9550000D03*
X16440000Y12090000D03*
X16440000Y9550000D03*
D24*
X72100000Y56600000D03*
D12*
X5525000Y65350000D03*
X3875000Y65350000D03*
D33*
X43150000Y62800000D03*
X45050000Y62800000D03*
D27*
X36900000Y47225000D03*
X36900000Y45575000D03*
D23*
X70475000Y50800000D03*
X72125000Y50800000D03*
D27*
X18900000Y68225000D03*
X18900000Y66575000D03*
D23*
X60650000Y39000000D03*
X62300000Y39000000D03*
D27*
X53900000Y64475000D03*
X53900000Y66125000D03*
D22*
X10700000Y37375000D03*
X10700000Y39025000D03*
X28300000Y57175000D03*
X28300000Y58825000D03*
D23*
X6475000Y23525000D03*
X8125000Y23525000D03*
D11*
X55800000Y64525000D03*
X55800000Y66075000D03*
D12*
X44700000Y67000000D03*
X43050000Y67000000D03*
D17*
X24125000Y43350000D03*
X22575000Y43350000D03*
D34*
X74350000Y50862500D03*
X76250000Y50862500D03*
X75300000Y52737500D03*
D24*
X57400000Y68600000D03*
D17*
X64675000Y20000000D03*
X63125000Y20000000D03*
D22*
X24100000Y39700000D03*
X24100000Y41350000D03*
D15*
X26637500Y45350000D03*
X26637500Y44700000D03*
X26637500Y44050000D03*
X26637500Y43400000D03*
X26637500Y42750000D03*
X26637500Y42100000D03*
X26637500Y41450000D03*
X32362500Y41450000D03*
X32362500Y42100000D03*
X32362500Y42750000D03*
X32362500Y43400000D03*
X32362500Y44050000D03*
X32362500Y44700000D03*
X32362500Y45350000D03*
D22*
X51900000Y36975000D03*
X51900000Y38625000D03*
D27*
X77700000Y65725000D03*
X77700000Y64075000D03*
D17*
X18425000Y31200000D03*
X16875000Y31200000D03*
D35*
X8250000Y20525000D03*
X11550000Y20525000D03*
D23*
X23275000Y66200000D03*
X24925000Y66200000D03*
X47275000Y66400000D03*
X48925000Y66400000D03*
D25*
X4500000Y35150000D03*
X4500000Y33600000D03*
D23*
X24850000Y64200000D03*
X26500000Y64200000D03*
D27*
X16900000Y34825000D03*
X16900000Y33175000D03*
D25*
X16700000Y39375000D03*
X16700000Y37825000D03*
D22*
X18900000Y62975000D03*
X18900000Y64625000D03*
D12*
X27725000Y73000000D03*
X26075000Y73000000D03*
D36*
X500000Y7000000D02*
G75*
G03*
X6000000Y1500000I5500000J0D01*
G01*
X75500000Y1500000D02*
G75*
G03*
X80500000Y6500000I0J5000000D01*
G01*
X75500000Y1500000D02*
X6000000Y1500000D01*
X5500000Y81500000D02*
G75*
G03*
X500000Y76500000I0J-5000000D01*
G01*
X80500000Y76000000D02*
G75*
G03*
X75000000Y81500000I-5500000J0D01*
G01*
X5500000Y81500000D02*
X75000000Y81500000D01*
X80500000Y6500000D02*
X80500000Y76000000D01*
X500000Y76500000D02*
X500000Y7000000D01*
D37*
X10276000Y3000000D02*
G75*
G03*
X9124000Y3000000I-576000J0D01*
G01*
X9124000Y3000000D02*
G75*
G03*
X10276000Y3000000I576000J0D01*
G01*
X72876000Y80000000D02*
G75*
G03*
X71724000Y80000000I-576000J0D01*
G01*
X71724000Y80000000D02*
G75*
G03*
X72876000Y80000000I576000J0D01*
G01*
X72876000Y3000000D02*
G75*
G03*
X71724000Y3000000I-576000J0D01*
G01*
X71724000Y3000000D02*
G75*
G03*
X72876000Y3000000I576000J0D01*
G01*
M02*
